<svg width="220" height="220" viewBox="0 0 220 220" fill="none" xmlns="http://www.w3.org/2000/svg">
<path d="M201.667 10H18.3333C13.731 10 10 13.731 10 18.3333V201.667C10 206.269 13.731 210 18.3333 210H201.667C206.269 210 210 206.269 210 201.667V18.3333C210 13.731 206.269 10 201.667 10Z" fill="white"/>
<mask id="path-2-inside-1_4697_36865" fill="white">
<path d="M198 14H22C17.5817 14 14 17.5817 14 22V198C14 202.418 17.5817 206 22 206H198C202.418 206 206 202.418 206 198V22C206 17.5817 202.418 14 198 14Z"/>
</mask>
<path d="M198 14H22C17.5817 14 14 17.5817 14 22V198C14 202.418 17.5817 206 22 206H198C202.418 206 206 202.418 206 198V22C206 17.5817 202.418 14 198 14Z" fill="#EAEFF1" stroke="#06647D" stroke-width="8" stroke-miterlimit="10" mask="url(#path-2-inside-1_4697_36865)"/>
<path d="M112.56 126.639C121.75 126.639 129.2 119.189 129.2 109.999C129.2 100.809 121.75 93.3594 112.56 93.3594C103.37 93.3594 95.9199 100.809 95.9199 109.999C95.9199 119.189 103.37 126.639 112.56 126.639Z" fill="#06647D"/>
</svg>
