<svg width="220" height="220" viewBox="0 0 220 220" fill="none" xmlns="http://www.w3.org/2000/svg">
<path d="M201.667 10H18.3333C13.731 10 10 13.731 10 18.3333V201.667C10 206.269 13.731 210 18.3333 210H201.667C206.269 210 210 206.269 210 201.667V18.3333C210 13.731 206.269 10 201.667 10Z" fill="white"/>
<mask id="path-2-inside-1_4697_36948" fill="white">
<path d="M198 14H22C17.5817 14 14 17.5817 14 22V198C14 202.418 17.5817 206 22 206H198C202.418 206 206 202.418 206 198V22C206 17.5817 202.418 14 198 14Z"/>
</mask>
<path d="M198 14H22C17.5817 14 14 17.5817 14 22V198C14 202.418 17.5817 206 22 206H198C202.418 206 206 202.418 206 198V22C206 17.5817 202.418 14 198 14Z" fill="#EAEFF1" stroke="#06647D" stroke-width="8" stroke-miterlimit="10" mask="url(#path-2-inside-1_4697_36948)"/>
<path d="M179.561 76.88C187.536 76.88 194.001 70.415 194.001 62.44C194.001 54.465 187.536 48 179.561 48C171.586 48 165.121 54.465 165.121 62.44C165.121 70.415 171.586 76.88 179.561 76.88Z" fill="#06647D"/>
<path d="M46.44 76.88C54.415 76.88 60.88 70.415 60.88 62.44C60.88 54.465 54.415 48 46.44 48C38.465 48 32 54.465 32 62.44C32 70.415 38.465 76.88 46.44 76.88Z" fill="#06647D"/>
<path d="M135.202 76.88C143.177 76.88 149.642 70.415 149.642 62.44C149.642 54.465 143.177 48 135.202 48C127.227 48 120.762 54.465 120.762 62.44C120.762 70.415 127.227 76.88 135.202 76.88Z" fill="#06647D"/>
<path d="M90.8384 76.88C98.8134 76.88 105.278 70.415 105.278 62.44C105.278 54.465 98.8134 48 90.8384 48C82.8634 48 76.3984 54.465 76.3984 62.44C76.3984 70.415 82.8634 76.88 90.8384 76.88Z" fill="#06647D"/>
<path d="M135.202 125.521C143.177 125.521 149.642 119.056 149.642 111.081C149.642 103.106 143.177 96.6406 135.202 96.6406C127.227 96.6406 120.762 103.106 120.762 111.081C120.762 119.056 127.227 125.521 135.202 125.521Z" fill="#06647D"/>
<path d="M90.8384 125.521C98.8134 125.521 105.278 119.056 105.278 111.081C105.278 103.106 98.8134 96.6406 90.8384 96.6406C82.8634 96.6406 76.3984 103.106 76.3984 111.081C76.3984 119.056 82.8634 125.521 90.8384 125.521Z" fill="#06647D"/>
<path d="M179.561 174.161C187.536 174.161 194.001 167.696 194.001 159.721C194.001 151.746 187.536 145.281 179.561 145.281C171.586 145.281 165.121 151.746 165.121 159.721C165.121 167.696 171.586 174.161 179.561 174.161Z" fill="#06647D"/>
<path d="M46.44 174.161C54.415 174.161 60.88 167.696 60.88 159.721C60.88 151.746 54.415 145.281 46.44 145.281C38.465 145.281 32 151.746 32 159.721C32 167.696 38.465 174.161 46.44 174.161Z" fill="#06647D"/>
<path d="M135.202 174.161C143.177 174.161 149.642 167.696 149.642 159.721C149.642 151.746 143.177 145.281 135.202 145.281C127.227 145.281 120.762 151.746 120.762 159.721C120.762 167.696 127.227 174.161 135.202 174.161Z" fill="#06647D"/>
<path d="M90.8384 174.161C98.8134 174.161 105.278 167.696 105.278 159.721C105.278 151.746 98.8134 145.281 90.8384 145.281C82.8634 145.281 76.3984 151.746 76.3984 159.721C76.3984 167.696 82.8634 174.161 90.8384 174.161Z" fill="#06647D"/>
</svg>
