<svg width="220" height="220" viewBox="0 0 220 220" fill="none" xmlns="http://www.w3.org/2000/svg">
<path d="M201.667 10H18.3333C13.731 10 10 13.731 10 18.3333V201.667C10 206.269 13.731 210 18.3333 210H201.667C206.269 210 210 206.269 210 201.667V18.3333C210 13.731 206.269 10 201.667 10Z" fill="white"/>
<mask id="path-2-inside-1_4697_36868" fill="white">
<path d="M198 14H22C17.5817 14 14 17.5817 14 22V198C14 202.418 17.5817 206 22 206H198C202.418 206 206 202.418 206 198V22C206 17.5817 202.418 14 198 14Z"/>
</mask>
<path d="M198 14H22C17.5817 14 14 17.5817 14 22V198C14 202.418 17.5817 206 22 206H198C202.418 206 206 202.418 206 198V22C206 17.5817 202.418 14 198 14Z" fill="#EAEFF1" stroke="#06647D" stroke-width="8" stroke-miterlimit="10" mask="url(#path-2-inside-1_4697_36868)"/>
<path d="M61.3607 177.841C70.5507 177.841 78.0007 170.391 78.0007 161.201C78.0007 152.011 70.5507 144.561 61.3607 144.561C52.1707 144.561 44.7207 152.011 44.7207 161.201C44.7207 170.391 52.1707 177.841 61.3607 177.841Z" fill="#06647D"/>
<path d="M163.759 177.841C172.949 177.841 180.399 170.391 180.399 161.201C180.399 152.011 172.949 144.561 163.759 144.561C154.569 144.561 147.119 152.011 147.119 161.201C147.119 170.391 154.569 177.841 163.759 177.841Z" fill="#06647D"/>
<path d="M163.759 75.4402C172.949 75.4402 180.399 67.9902 180.399 58.8002C180.399 49.6101 172.949 42.1602 163.759 42.1602C154.569 42.1602 147.119 49.6101 147.119 58.8002C147.119 67.9902 154.569 75.4402 163.759 75.4402Z" fill="#06647D"/>
<path d="M61.3607 75.4402C70.5507 75.4402 78.0007 67.9902 78.0007 58.8002C78.0007 49.6101 70.5507 42.1602 61.3607 42.1602C52.1707 42.1602 44.7207 49.6101 44.7207 58.8002C44.7207 67.9902 52.1707 75.4402 61.3607 75.4402Z" fill="#06647D"/>
</svg>
