<svg width="220" height="220" viewBox="0 0 220 220" fill="none" xmlns="http://www.w3.org/2000/svg">
<path d="M201.667 10H18.3333C13.731 10 10 13.731 10 18.3333V201.667C10 206.269 13.731 210 18.3333 210H201.667C206.269 210 210 206.269 210 201.667V18.3333C210 13.731 206.269 10 201.667 10Z" fill="white"/>
<mask id="path-2-inside-1_4697_36873" fill="white">
<path d="M198 14H22C17.5817 14 14 17.5817 14 22V198C14 202.418 17.5817 206 22 206H198C202.418 206 206 202.418 206 198V22C206 17.5817 202.418 14 198 14Z"/>
</mask>
<path d="M198 14H22C17.5817 14 14 17.5817 14 22V198C14 202.418 17.5817 206 22 206H198C202.418 206 206 202.418 206 198V22C206 17.5817 202.418 14 198 14Z" fill="#EAEFF1" stroke="#06647D" stroke-width="8" stroke-miterlimit="10" mask="url(#path-2-inside-1_4697_36873)"/>
<path d="M61.3587 177.841C70.5488 177.841 77.9987 170.391 77.9987 161.201C77.9987 152.011 70.5488 144.561 61.3587 144.561C52.1687 144.561 44.7188 152.011 44.7188 161.201C44.7188 170.391 52.1687 177.841 61.3587 177.841Z" fill="#06647D"/>
<path d="M112.562 177.841C121.752 177.841 129.202 170.391 129.202 161.201C129.202 152.011 121.752 144.561 112.562 144.561C103.372 144.561 95.9219 152.011 95.9219 161.201C95.9219 170.391 103.372 177.841 112.562 177.841Z" fill="#06647D"/>
<path d="M61.3587 126.639C70.5488 126.639 77.9987 119.189 77.9987 109.999C77.9987 100.809 70.5488 93.3594 61.3587 93.3594C52.1687 93.3594 44.7188 100.809 44.7188 109.999C44.7188 119.189 52.1687 126.639 61.3587 126.639Z" fill="#06647D"/>
<path d="M112.562 126.639C121.752 126.639 129.202 119.189 129.202 109.999C129.202 100.809 121.752 93.3594 112.562 93.3594C103.372 93.3594 95.9219 100.809 95.9219 109.999C95.9219 119.189 103.372 126.639 112.562 126.639Z" fill="#06647D"/>
<path d="M163.761 126.639C172.951 126.639 180.401 119.189 180.401 109.999C180.401 100.809 172.951 93.3594 163.761 93.3594C154.571 93.3594 147.121 100.809 147.121 109.999C147.121 119.189 154.571 126.639 163.761 126.639Z" fill="#06647D"/>
<path d="M163.761 177.841C172.951 177.841 180.401 170.391 180.401 161.201C180.401 152.011 172.951 144.561 163.761 144.561C154.571 144.561 147.121 152.011 147.121 161.201C147.121 170.391 154.571 177.841 163.761 177.841Z" fill="#06647D"/>
<path d="M163.761 75.4402C172.951 75.4402 180.401 67.9902 180.401 58.8002C180.401 49.6101 172.951 42.1602 163.761 42.1602C154.571 42.1602 147.121 49.6101 147.121 58.8002C147.121 67.9902 154.571 75.4402 163.761 75.4402Z" fill="#06647D"/>
<path d="M61.3587 75.4402C70.5488 75.4402 77.9987 67.9902 77.9987 58.8002C77.9987 49.6101 70.5488 42.1602 61.3587 42.1602C52.1687 42.1602 44.7188 49.6101 44.7188 58.8002C44.7188 67.9902 52.1687 75.4402 61.3587 75.4402Z" fill="#06647D"/>
<path d="M112.562 75.4402C121.752 75.4402 129.202 67.9902 129.202 58.8002C129.202 49.6101 121.752 42.1602 112.562 42.1602C103.372 42.1602 95.9219 49.6101 95.9219 58.8002C95.9219 67.9902 103.372 75.4402 112.562 75.4402Z" fill="#06647D"/>
</svg>
