<svg width="800" height="440" viewBox="0 0 800 440" fill="none" xmlns="http://www.w3.org/2000/svg">
<mask id="path-1-outside-1_4461_36221" maskUnits="userSpaceOnUse" x="264" y="122.711" width="272" height="318" fill="black">
<rect fill="white" x="264" y="122.711" width="272" height="318"/>
<path d="M367.463 164.634C367.463 164.61 367.463 164.586 367.464 164.562C367.465 164.393 367.468 164.224 367.473 164.055C368.068 141.941 393.825 127.438 414.343 132.845C426.038 135.927 434.729 149.259 439.03 164.434C441.917 174.62 442.826 185.636 441.338 194.941C441.119 196.305 440.85 197.633 440.527 198.915C440.527 198.915 430.022 202.344 431.433 196.422C431.59 195.788 431.739 195.139 431.881 194.478C435.697 176.615 433.662 149.407 413.402 142.195C392.987 134.927 377.901 147.081 376.92 163.072C376.891 163.538 376.875 164.006 376.87 164.478C376.755 176.809 371.664 174.225 369.021 169.584C368.107 167.978 367.485 166.127 367.464 164.562C367.463 164.534 367.463 164.506 367.463 164.478L367.464 164.562L367.463 164.634Z"/>
<path d="M431.484 157.999C431.641 135.561 455.414 131.68 476.11 137.134C496.806 142.588 503.565 188.937 497.764 212C497.764 212 488.289 215.921 489.7 210C489.845 209.414 489.987 208.806 490.126 208.177C494.203 189.744 495.486 153.716 475.169 146.483C456.02 139.666 441.559 149.936 439.03 164.434C438.784 165.842 438.651 167.29 438.637 168.766C438.481 185.44 431.484 164.077 431.484 157.999Z"/>
<path d="M371.54 151.7C374.014 155.467 375.728 159.234 376.92 163.072C379.277 170.665 379.589 178.534 379.693 187.228C379.85 200.318 379.066 213.407 377.341 226.497C376.152 235.521 375.932 241.879 373.7 247.103C372.695 249.456 371.282 251.578 369.188 253.61C368.806 253.981 368.412 254.334 368.005 254.669C361.229 260.25 351.148 260.949 343.161 258.597C324.19 252.987 316.977 232.574 315.253 214.81C313.528 197.046 314.782 193.617 316.037 183.177C316.189 181.905 316.333 180.674 316.477 179.481C317.514 170.885 318.568 164.247 323.249 158.089C332.186 146.402 359.781 136.429 370.913 150.609C381.835 164.522 368.456 162.084 364.394 157.425C364.316 157.335 364.242 157.245 364.171 157.154C360.408 152.323 349.433 153.258 343.318 155.44C334.381 158.556 329.05 163.699 327.169 172.892C323.249 191.592 321.211 213.719 328.58 231.795C335.949 249.871 338.928 248.624 348.962 250.026C358.997 251.429 360.878 250.026 364.014 245.04C367.15 240.054 366.679 235.535 367.307 231.327C369.345 219.173 369.972 206.863 370.286 194.552C370.486 186.686 370.814 177.93 369.021 169.584C368.62 167.715 368.112 165.868 367.473 164.055C366.671 161.78 365.661 159.56 364.394 157.425C364.123 156.967 363.839 156.513 363.544 156.063C355.861 144.376 368.404 146.402 371.697 151.388L371.54 151.7Z"/>
<path d="M317.448 180.684C317.126 180.271 316.802 179.869 316.477 179.481C309.197 170.793 301.087 168.489 292.832 178.035C284.209 188.008 283.111 193.15 281.857 201.565C280.265 213.643 281.077 227.447 286.14 238.813C286.564 239.764 287.017 240.698 287.501 241.612C288.027 242.604 288.635 243.596 289.313 244.574C296.734 255.265 312.605 264.214 321.368 252.364C324.817 247.533 332.97 252.364 329.521 257.039C319.892 270.233 301.44 268.047 289.574 258.767C288.687 258.074 287.838 257.341 287.031 256.571C275.429 245.508 270.725 221.666 272.293 203.746C273.861 185.826 279.035 178.191 288.285 169.309C297.536 160.427 314.469 161.829 324.19 174.295C324.19 174.295 321.211 185.67 317.448 180.84V180.684Z"/>
<path d="M351.158 367.208C342.792 366.628 335.452 364.293 328.947 360.688C314.481 352.672 304.139 338.372 295.811 323.109C283.738 300.982 284.993 300.982 282.954 288.204C280.916 275.426 279.975 259.843 279.975 245.507C279.975 236.833 283.42 236.431 286.14 238.813C287.689 240.169 289.003 242.426 289.313 244.574C289.359 244.888 289.383 245.201 289.383 245.507C289.383 249.95 289.429 254.373 289.574 258.767C290.234 278.723 292.944 298.09 302.71 316.097C308.23 326.333 314.53 336.914 322.816 344.899C323.839 345.885 324.893 346.831 325.979 347.733C332.833 353.421 340.983 357.312 351.001 358.014C375.46 359.728 357.116 367.831 351.001 367.364L351.158 367.208Z"/>
<path d="M470.317 368.61C461.38 385.595 465.3 404.139 465.457 422.37C465.613 440.602 456.049 428.448 456.049 422.37C455.777 404.769 453.137 387.757 458.928 371.23C459.802 368.736 460.869 366.252 462.164 363.78C463.329 361.556 464.372 359.848 465.301 358.574C467.623 355.388 469.231 354.915 470.251 355.871C472.28 357.774 471.974 365.344 470.317 368.454V368.61Z"/>
<path d="M319.33 420.033C320.741 408.969 320.898 397.594 320.741 386.53C320.584 375.467 320.427 363.157 317.605 351.937C315.775 344.66 319.551 343.348 322.816 344.899C324.056 345.487 325.222 346.489 325.979 347.733C326.302 348.264 326.551 348.838 326.699 349.444C327.606 353.101 328.35 356.86 328.947 360.688C331.963 380.027 331.224 401.147 328.737 419.877C325.758 442.316 318.546 425.954 319.33 419.877V420.033Z"/>
<path d="M426.573 258.909C419.511 264.547 410.545 267.369 401.435 267.586C389.095 267.881 376.492 263.399 368.005 254.669C366.481 253.101 365.09 251.397 363.857 249.559C363.246 246.65 368.561 239.898 372.01 244.884C372.53 245.654 373.094 246.394 373.7 247.103C383.237 258.262 402.944 261.728 416.059 254.774C417.45 254.037 418.766 253.183 419.988 252.208C419.988 252.208 431.277 255.169 426.573 258.909Z"/>
<path d="M432.217 264.363C431.541 264.472 430.868 264.593 430.198 264.728C419.379 266.895 409.45 272.315 401.33 279.945C392.706 288.048 387.062 295.84 387.846 304.877C388.63 313.915 378.909 310.955 378.439 304.877C377.498 294.125 385.808 282.127 393.02 274.803C395.622 272.217 398.441 269.794 401.435 267.586C409.807 261.413 419.545 256.932 429.709 255.325C429.709 255.325 438.175 263.428 432.217 264.363Z"/>
<path d="M438.019 284.308C438.019 279.322 436.922 274.491 436.922 269.505C436.922 268.895 437.06 268.343 437.303 267.856C439.049 264.359 446.191 264.171 446.329 269.505C446.337 269.819 446.347 270.127 446.359 270.429C446.58 275.972 447.426 279.58 447.426 284.308C447.426 289.295 438.176 290.386 438.019 284.308Z"/>
<path d="M444.604 364.403C451.753 363.991 458.714 361.844 465.301 358.574C466.976 357.742 468.627 356.838 470.251 355.871C481.562 349.135 491.547 339.363 499.166 329.965C515.943 309.241 523.155 284.932 515.943 259.065C508.73 233.197 507.946 235.691 500.421 226.341C493.051 217.147 479.254 213.096 468.436 209.668C457.617 206.239 443.663 203.59 430.963 203.746C418.263 203.902 414.187 203.746 409.796 210.135C402.114 221.51 410.894 235.846 418.89 244.417C426.886 252.987 429.552 253.922 435.98 257.195C442.409 260.467 450.718 261.558 458.087 263.583C465.457 265.609 461.537 274.18 455.579 272.621C452.94 271.931 449.717 271.241 446.359 270.429C443.341 269.699 440.213 268.871 437.303 267.856C436.141 267.45 435.014 267.015 433.942 266.544C432.682 265.991 431.432 265.383 430.198 264.728C425.138 262.041 420.331 258.56 416.059 254.774C415.799 254.543 415.54 254.311 415.284 254.078C405.877 245.508 397.253 233.042 397.41 219.796C397.652 199.236 414.976 194.447 431.881 194.478C435.088 194.483 438.28 194.663 441.338 194.941C443.05 195.096 444.721 195.283 446.328 195.487C461.437 197.434 476.296 201.738 490.126 208.177C491.796 208.954 493.451 209.763 495.09 210.603C510.298 218.394 512.807 226.653 518.138 238.028C531.151 266.077 532.092 295.216 516.099 322.174C504.017 342.535 483.026 363.771 458.928 371.23C454.256 372.676 449.467 373.605 444.604 373.908C414.657 375.778 438.489 364.871 444.604 364.559V364.403Z"/>
<path d="M368.005 254.669C361.229 260.25 351.148 260.949 343.161 258.597C324.19 252.987 316.977 232.574 315.253 214.81C313.528 197.046 314.782 193.617 316.037 183.177C316.189 181.905 316.333 180.674 316.477 179.481C309.197 170.793 301.087 168.489 292.832 178.035C284.209 188.008 283.111 193.15 281.857 201.565C280.265 213.643 281.077 227.447 286.14 238.813C287.689 240.169 289.003 242.426 289.313 244.574C296.734 255.265 312.605 264.214 321.368 252.364C324.817 247.533 332.97 252.364 329.521 257.039C319.892 270.233 301.44 268.047 289.574 258.767C290.234 278.723 292.944 298.09 302.71 316.097C308.23 326.333 314.53 336.914 322.816 344.899C324.056 345.487 325.222 346.489 325.979 347.733C332.833 353.421 340.983 357.312 351.001 358.014C375.46 359.728 357.116 367.831 351.001 367.364L351.158 367.208C342.792 366.628 335.452 364.293 328.947 360.688C331.963 380.027 331.224 401.147 328.737 419.877L456.049 422.37C455.777 404.769 453.137 387.757 458.928 371.23C454.256 372.676 449.467 373.605 444.604 373.908C414.657 375.778 438.489 364.871 444.604 364.559V364.403C451.753 363.991 458.714 361.844 465.301 358.574C467.623 355.388 469.231 354.915 470.251 355.871C481.562 349.135 491.547 339.363 499.166 329.965C515.943 309.241 523.155 284.932 515.943 259.065C508.73 233.197 507.946 235.691 500.421 226.341C493.051 217.147 479.254 213.096 468.436 209.668C457.617 206.239 443.663 203.59 430.963 203.746C418.263 203.902 414.187 203.746 409.796 210.135C402.114 221.51 410.894 235.846 418.89 244.417C426.886 252.987 429.552 253.922 435.98 257.195C442.409 260.467 450.718 261.558 458.087 263.583C465.457 265.609 461.537 274.18 455.579 272.621C452.94 271.931 449.717 271.241 446.359 270.429C446.58 275.972 447.426 279.58 447.426 284.308C447.426 289.295 438.176 290.386 438.019 284.308C438.019 279.322 436.922 274.491 436.922 269.505C436.922 268.895 437.06 268.343 437.303 267.856C436.141 267.45 435.014 267.015 433.942 266.544C432.682 265.991 431.432 265.383 430.198 264.728C419.379 266.895 409.45 272.315 401.33 279.945C392.706 288.048 387.062 295.84 387.846 304.877C388.63 313.915 378.909 310.955 378.439 304.877C377.498 294.125 385.808 282.127 393.02 274.803C395.622 272.217 398.441 269.794 401.435 267.586C389.095 267.881 376.492 263.399 368.005 254.669Z"/>
<path d="M367.464 164.562C367.463 164.586 367.463 164.61 367.463 164.634V164.478C367.463 164.506 367.463 164.534 367.464 164.562C367.465 164.393 367.468 164.224 367.473 164.055C366.671 161.78 365.661 159.56 364.394 157.425C364.316 157.335 364.242 157.245 364.171 157.154C360.408 152.323 349.433 153.258 343.318 155.44C334.381 158.556 329.05 163.699 327.169 172.892C323.249 191.592 321.211 213.719 328.58 231.795C335.949 249.871 338.928 248.624 348.962 250.026C358.997 251.429 360.878 250.026 364.014 245.04C367.15 240.054 366.679 235.535 367.307 231.327C369.345 219.173 369.972 206.863 370.286 194.552C370.486 186.686 370.814 177.93 369.021 169.584C368.107 167.978 367.485 166.127 367.464 164.562Z"/>
<path d="M431.881 194.478C435.697 176.615 433.662 149.407 413.402 142.195C392.987 134.927 377.901 147.081 376.92 163.072C379.277 170.665 379.589 178.534 379.693 187.228C379.85 200.318 379.066 213.407 377.341 226.497C376.152 235.521 375.932 241.879 373.7 247.103C383.237 258.262 402.944 261.728 416.059 254.774C415.799 254.543 415.54 254.311 415.284 254.078C405.877 245.508 397.253 233.042 397.41 219.796C397.652 199.236 414.976 194.447 431.881 194.478Z"/>
<path d="M439.03 164.434C441.917 174.62 442.826 185.636 441.338 194.941C443.05 195.096 444.721 195.283 446.328 195.487C461.437 197.434 476.296 201.738 490.126 208.177C494.203 189.744 495.486 153.716 475.169 146.483C456.02 139.666 441.559 149.936 439.03 164.434Z"/>
</mask>
<path d="M367.463 164.634C367.463 164.61 367.463 164.586 367.464 164.562C367.465 164.393 367.468 164.224 367.473 164.055C368.068 141.941 393.825 127.438 414.343 132.845C426.038 135.927 434.729 149.259 439.03 164.434C441.917 174.62 442.826 185.636 441.338 194.941C441.119 196.305 440.85 197.633 440.527 198.915C440.527 198.915 430.022 202.344 431.433 196.422C431.59 195.788 431.739 195.139 431.881 194.478C435.697 176.615 433.662 149.407 413.402 142.195C392.987 134.927 377.901 147.081 376.92 163.072C376.891 163.538 376.875 164.006 376.87 164.478C376.755 176.809 371.664 174.225 369.021 169.584C368.107 167.978 367.485 166.127 367.464 164.562C367.463 164.534 367.463 164.506 367.463 164.478L367.464 164.562L367.463 164.634Z" fill="#222221"/>
<path d="M431.484 157.999C431.641 135.561 455.414 131.68 476.11 137.134C496.806 142.588 503.565 188.937 497.764 212C497.764 212 488.289 215.921 489.7 210C489.845 209.414 489.987 208.806 490.126 208.177C494.203 189.744 495.486 153.716 475.169 146.483C456.02 139.666 441.559 149.936 439.03 164.434C438.784 165.842 438.651 167.29 438.637 168.766C438.481 185.44 431.484 164.077 431.484 157.999Z" fill="#222221"/>
<path d="M371.54 151.7C374.014 155.467 375.728 159.234 376.92 163.072C379.277 170.665 379.589 178.534 379.693 187.228C379.85 200.318 379.066 213.407 377.341 226.497C376.152 235.521 375.932 241.879 373.7 247.103C372.695 249.456 371.282 251.578 369.188 253.61C368.806 253.981 368.412 254.334 368.005 254.669C361.229 260.25 351.148 260.949 343.161 258.597C324.19 252.987 316.977 232.574 315.253 214.81C313.528 197.046 314.782 193.617 316.037 183.177C316.189 181.905 316.333 180.674 316.477 179.481C317.514 170.885 318.568 164.247 323.249 158.089C332.186 146.402 359.781 136.429 370.913 150.609C381.835 164.522 368.456 162.084 364.394 157.425C364.316 157.335 364.242 157.245 364.171 157.154C360.408 152.323 349.433 153.258 343.318 155.44C334.381 158.556 329.05 163.699 327.169 172.892C323.249 191.592 321.211 213.719 328.58 231.795C335.949 249.871 338.928 248.624 348.962 250.026C358.997 251.429 360.878 250.026 364.014 245.04C367.15 240.054 366.679 235.535 367.307 231.327C369.345 219.173 369.972 206.863 370.286 194.552C370.486 186.686 370.814 177.93 369.021 169.584C368.62 167.715 368.112 165.868 367.473 164.055C366.671 161.78 365.661 159.56 364.394 157.425C364.123 156.967 363.839 156.513 363.544 156.063C355.861 144.376 368.404 146.402 371.697 151.388L371.54 151.7Z" fill="#222221"/>
<path d="M317.448 180.684C317.126 180.271 316.802 179.869 316.477 179.481C309.197 170.793 301.087 168.489 292.832 178.035C284.209 188.008 283.111 193.15 281.857 201.565C280.265 213.643 281.077 227.447 286.14 238.813C286.564 239.764 287.017 240.698 287.501 241.612C288.027 242.604 288.635 243.596 289.313 244.574C296.734 255.265 312.605 264.214 321.368 252.364C324.817 247.533 332.97 252.364 329.521 257.039C319.892 270.233 301.44 268.047 289.574 258.767C288.687 258.074 287.838 257.341 287.031 256.571C275.429 245.508 270.725 221.666 272.293 203.746C273.861 185.826 279.035 178.191 288.285 169.309C297.536 160.427 314.469 161.829 324.19 174.295C324.19 174.295 321.211 185.67 317.448 180.84V180.684Z" fill="#222221"/>
<path d="M351.158 367.208C342.792 366.628 335.452 364.293 328.947 360.688C314.481 352.672 304.139 338.372 295.811 323.109C283.738 300.982 284.993 300.982 282.954 288.204C280.916 275.426 279.975 259.843 279.975 245.507C279.975 236.833 283.42 236.431 286.14 238.813C287.689 240.169 289.003 242.426 289.313 244.574C289.359 244.888 289.383 245.201 289.383 245.507C289.383 249.95 289.429 254.373 289.574 258.767C290.234 278.723 292.944 298.09 302.71 316.097C308.23 326.333 314.53 336.914 322.816 344.899C323.839 345.885 324.893 346.831 325.979 347.733C332.833 353.421 340.983 357.312 351.001 358.014C375.46 359.728 357.116 367.831 351.001 367.364L351.158 367.208Z" fill="#222221"/>
<path d="M470.317 368.61C461.38 385.595 465.3 404.139 465.457 422.37C465.613 440.602 456.049 428.448 456.049 422.37C455.777 404.769 453.137 387.757 458.928 371.23C459.802 368.736 460.869 366.252 462.164 363.78C463.329 361.556 464.372 359.848 465.301 358.574C467.623 355.388 469.231 354.915 470.251 355.871C472.28 357.774 471.974 365.344 470.317 368.454V368.61Z" fill="#222221"/>
<path d="M319.33 420.033C320.741 408.969 320.898 397.594 320.741 386.53C320.584 375.467 320.427 363.157 317.605 351.937C315.775 344.66 319.551 343.348 322.816 344.899C324.056 345.487 325.222 346.489 325.979 347.733C326.302 348.264 326.551 348.838 326.699 349.444C327.606 353.101 328.35 356.86 328.947 360.688C331.963 380.027 331.224 401.147 328.737 419.877C325.758 442.316 318.546 425.954 319.33 419.877V420.033Z" fill="#222221"/>
<path d="M426.573 258.909C419.511 264.547 410.545 267.369 401.435 267.586C389.095 267.881 376.492 263.399 368.005 254.669C366.481 253.101 365.09 251.397 363.857 249.559C363.246 246.65 368.561 239.898 372.01 244.884C372.53 245.654 373.094 246.394 373.7 247.103C383.237 258.262 402.944 261.728 416.059 254.774C417.45 254.037 418.766 253.183 419.988 252.208C419.988 252.208 431.277 255.169 426.573 258.909Z" fill="#222221"/>
<path d="M432.217 264.363C431.541 264.472 430.868 264.593 430.198 264.728C419.379 266.895 409.45 272.315 401.33 279.945C392.706 288.048 387.062 295.84 387.846 304.877C388.63 313.915 378.909 310.955 378.439 304.877C377.498 294.125 385.808 282.127 393.02 274.803C395.622 272.217 398.441 269.794 401.435 267.586C409.807 261.413 419.545 256.932 429.709 255.325C429.709 255.325 438.175 263.428 432.217 264.363Z" fill="#222221"/>
<path d="M438.019 284.308C438.019 279.322 436.922 274.491 436.922 269.505C436.922 268.895 437.06 268.343 437.303 267.856C439.049 264.359 446.191 264.171 446.329 269.505C446.337 269.819 446.347 270.127 446.359 270.429C446.58 275.972 447.426 279.58 447.426 284.308C447.426 289.295 438.176 290.386 438.019 284.308Z" fill="#222221"/>
<path d="M444.604 364.403C451.753 363.991 458.714 361.844 465.301 358.574C466.976 357.742 468.627 356.838 470.251 355.871C481.562 349.135 491.547 339.363 499.166 329.965C515.943 309.241 523.155 284.932 515.943 259.065C508.73 233.197 507.946 235.691 500.421 226.341C493.051 217.147 479.254 213.096 468.436 209.668C457.617 206.239 443.663 203.59 430.963 203.746C418.263 203.902 414.187 203.746 409.796 210.135C402.114 221.51 410.894 235.846 418.89 244.417C426.886 252.987 429.552 253.922 435.98 257.195C442.409 260.467 450.718 261.558 458.087 263.583C465.457 265.609 461.537 274.18 455.579 272.621C452.94 271.931 449.717 271.241 446.359 270.429C443.341 269.699 440.213 268.871 437.303 267.856C436.141 267.45 435.014 267.015 433.942 266.544C432.682 265.991 431.432 265.383 430.198 264.728C425.138 262.041 420.331 258.56 416.059 254.774C415.799 254.543 415.54 254.311 415.284 254.078C405.877 245.508 397.253 233.042 397.41 219.796C397.652 199.236 414.976 194.447 431.881 194.478C435.088 194.483 438.28 194.663 441.338 194.941C443.05 195.096 444.721 195.283 446.328 195.487C461.437 197.434 476.296 201.738 490.126 208.177C491.796 208.954 493.451 209.763 495.09 210.603C510.298 218.394 512.807 226.653 518.138 238.028C531.151 266.077 532.092 295.216 516.099 322.174C504.017 342.535 483.026 363.771 458.928 371.23C454.256 372.676 449.467 373.605 444.604 373.908C414.657 375.778 438.489 364.871 444.604 364.559V364.403Z" fill="#222221"/>
<path d="M368.005 254.669C361.229 260.25 351.148 260.949 343.161 258.597C324.19 252.987 316.977 232.574 315.253 214.81C313.528 197.046 314.782 193.617 316.037 183.177C316.189 181.905 316.333 180.674 316.477 179.481C309.197 170.793 301.087 168.489 292.832 178.035C284.209 188.008 283.111 193.15 281.857 201.565C280.265 213.643 281.077 227.447 286.14 238.813C287.689 240.169 289.003 242.426 289.313 244.574C296.734 255.265 312.605 264.214 321.368 252.364C324.817 247.533 332.97 252.364 329.521 257.039C319.892 270.233 301.44 268.047 289.574 258.767C290.234 278.723 292.944 298.09 302.71 316.097C308.23 326.333 314.53 336.914 322.816 344.899C324.056 345.487 325.222 346.489 325.979 347.733C332.833 353.421 340.983 357.312 351.001 358.014C375.46 359.728 357.116 367.831 351.001 367.364L351.158 367.208C342.792 366.628 335.452 364.293 328.947 360.688C331.963 380.027 331.224 401.147 328.737 419.877L456.049 422.37C455.777 404.769 453.137 387.757 458.928 371.23C454.256 372.676 449.467 373.605 444.604 373.908C414.657 375.778 438.489 364.871 444.604 364.559V364.403C451.753 363.991 458.714 361.844 465.301 358.574C467.623 355.388 469.231 354.915 470.251 355.871C481.562 349.135 491.547 339.363 499.166 329.965C515.943 309.241 523.155 284.932 515.943 259.065C508.73 233.197 507.946 235.691 500.421 226.341C493.051 217.147 479.254 213.096 468.436 209.668C457.617 206.239 443.663 203.59 430.963 203.746C418.263 203.902 414.187 203.746 409.796 210.135C402.114 221.51 410.894 235.846 418.89 244.417C426.886 252.987 429.552 253.922 435.98 257.195C442.409 260.467 450.718 261.558 458.087 263.583C465.457 265.609 461.537 274.18 455.579 272.621C452.94 271.931 449.717 271.241 446.359 270.429C446.58 275.972 447.426 279.58 447.426 284.308C447.426 289.295 438.176 290.386 438.019 284.308C438.019 279.322 436.922 274.491 436.922 269.505C436.922 268.895 437.06 268.343 437.303 267.856C436.141 267.45 435.014 267.015 433.942 266.544C432.682 265.991 431.432 265.383 430.198 264.728C419.379 266.895 409.45 272.315 401.33 279.945C392.706 288.048 387.062 295.84 387.846 304.877C388.63 313.915 378.909 310.955 378.439 304.877C377.498 294.125 385.808 282.127 393.02 274.803C395.622 272.217 398.441 269.794 401.435 267.586C389.095 267.881 376.492 263.399 368.005 254.669Z" fill="#C0AB7F"/>
<path d="M367.464 164.562C367.463 164.586 367.463 164.61 367.463 164.634V164.478C367.463 164.506 367.463 164.534 367.464 164.562C367.465 164.393 367.468 164.224 367.473 164.055C366.671 161.78 365.661 159.56 364.394 157.425C364.316 157.335 364.242 157.245 364.171 157.154C360.408 152.323 349.433 153.258 343.318 155.44C334.381 158.556 329.05 163.699 327.169 172.892C323.249 191.592 321.211 213.719 328.58 231.795C335.949 249.871 338.928 248.624 348.962 250.026C358.997 251.429 360.878 250.026 364.014 245.04C367.15 240.054 366.679 235.535 367.307 231.327C369.345 219.173 369.972 206.863 370.286 194.552C370.486 186.686 370.814 177.93 369.021 169.584C368.107 167.978 367.485 166.127 367.464 164.562Z" fill="#C0AB7F"/>
<path d="M431.881 194.478C435.697 176.615 433.662 149.407 413.402 142.195C392.987 134.927 377.901 147.081 376.92 163.072C379.277 170.665 379.589 178.534 379.693 187.228C379.85 200.318 379.066 213.407 377.341 226.497C376.152 235.521 375.932 241.879 373.7 247.103C383.237 258.262 402.944 261.728 416.059 254.774C415.799 254.543 415.54 254.311 415.284 254.078C405.877 245.508 397.253 233.042 397.41 219.796C397.652 199.236 414.976 194.447 431.881 194.478Z" fill="#C0AB7F"/>
<path d="M439.03 164.434C441.917 174.62 442.826 185.636 441.338 194.941C443.05 195.096 444.721 195.283 446.328 195.487C461.437 197.434 476.296 201.738 490.126 208.177C494.203 189.744 495.486 153.716 475.169 146.483C456.02 139.666 441.559 149.936 439.03 164.434Z" fill="#C0AB7F"/>
<path d="M413.402 142.195L412.061 145.963V145.963L413.402 142.195ZM475.169 146.483L473.828 150.252L475.169 146.483ZM379.693 187.228L383.693 187.181V187.181L379.693 187.228ZM377.341 226.497L373.375 225.974L377.341 226.497ZM343.161 258.597L342.027 262.433L342.031 262.434L343.161 258.597ZM315.253 214.81L319.234 214.423V214.423L315.253 214.81ZM316.037 183.177L312.065 182.7L312.065 182.7L316.037 183.177ZM364.171 157.154L361.015 159.612L361.015 159.612L364.171 157.154ZM343.318 155.44L344.635 159.217L344.649 159.212L344.662 159.207L343.318 155.44ZM327.169 172.892L331.084 173.713L331.086 173.704L331.087 173.694L327.169 172.892ZM328.58 231.795L332.284 230.285L328.58 231.795ZM348.962 250.026L348.409 253.988L348.962 250.026ZM364.014 245.04L360.628 242.911V242.911L364.014 245.04ZM367.307 231.327L363.362 230.666L363.356 230.702L363.35 230.738L367.307 231.327ZM370.286 194.552L374.284 194.654V194.654L370.286 194.552ZM292.832 178.035L289.806 175.419L292.832 178.035ZM281.857 201.565L277.901 200.975L277.896 201.008L277.891 201.042L281.857 201.565ZM321.368 252.364L324.584 254.742L324.604 254.716L324.623 254.688L321.368 252.364ZM329.521 257.039L326.302 254.664L326.296 254.672L326.29 254.681L329.521 257.039ZM351.158 367.208L353.978 370.044L360.231 363.827L351.434 363.217L351.158 367.208ZM302.71 316.097L306.23 314.198L306.226 314.19L302.71 316.097ZM351.001 358.014L351.28 354.024L351.001 358.014ZM351.001 367.364L348.181 364.527L341.986 370.686L350.696 371.352L351.001 367.364ZM401.33 279.945L398.591 277.03L401.33 279.945ZM387.846 304.877L383.861 305.223L387.846 304.877ZM378.439 304.877L382.427 304.569L382.425 304.549L382.423 304.529L378.439 304.877ZM393.02 274.803L390.2 271.966L390.185 271.981L390.17 271.996L393.02 274.803ZM438.019 284.308H434.019V284.36L434.02 284.412L438.019 284.308ZM444.604 364.403L444.374 360.41L440.604 360.627V364.403H444.604ZM499.166 329.965L502.273 332.485L502.275 332.482L499.166 329.965ZM515.943 259.065L512.09 260.139L515.943 259.065ZM500.421 226.341L497.299 228.843L497.305 228.849L500.421 226.341ZM468.436 209.668L469.644 205.854L468.436 209.668ZM430.963 203.746L431.012 207.746L430.963 203.746ZM409.796 210.135L406.5 207.87L406.491 207.883L406.482 207.896L409.796 210.135ZM418.89 244.417L421.815 241.688L418.89 244.417ZM458.087 263.583L459.148 259.727L458.087 263.583ZM455.579 272.621L456.591 268.752H456.591L455.579 272.621ZM433.942 266.544L435.55 262.882L435.55 262.882L433.942 266.544ZM415.284 254.078L412.59 257.035L412.594 257.038L415.284 254.078ZM397.41 219.796L401.41 219.844V219.843L397.41 219.796ZM446.328 195.487L446.839 191.52L446.833 191.519L446.328 195.487ZM444.604 373.908L444.354 369.916L444.604 373.908ZM444.604 364.559L444.807 368.554L448.604 368.36V364.559H444.604ZM368.005 254.669L370.873 251.88L368.305 249.239L365.462 251.581L368.005 254.669ZM316.477 179.481L320.448 179.96L320.656 178.24L319.543 176.912L316.477 179.481ZM286.14 238.813L282.486 240.441L282.844 241.243L283.505 241.822L286.14 238.813ZM289.313 244.574L285.354 245.146L285.489 246.08L286.027 246.855L289.313 244.574ZM289.574 258.767L292.038 255.616L285.293 250.341L285.576 258.899L289.574 258.767ZM322.816 344.899L320.04 347.779L320.51 348.232L321.1 348.512L322.816 344.899ZM325.979 347.733L322.562 349.813L322.91 350.384L323.425 350.811L325.979 347.733ZM328.947 360.688L330.886 357.19L323.735 353.227L324.995 361.305L328.947 360.688ZM458.928 371.23L462.703 372.553L465.328 365.062L457.746 367.409L458.928 371.23ZM465.301 358.574L467.079 362.157L467.956 361.721L468.533 360.93L465.301 358.574ZM470.251 355.871L467.514 358.788L469.71 360.848L472.297 359.307L470.251 355.871ZM446.359 270.429L447.299 266.541L442.151 265.296L442.362 270.589L446.359 270.429ZM437.303 267.856L440.882 269.642L442.912 265.576L438.621 264.079L437.303 267.856ZM430.198 264.728L432.074 261.194L430.812 260.525L429.412 260.805L430.198 264.728ZM401.435 267.586L403.809 270.806L414.01 263.285L401.339 263.587L401.435 267.586ZM367.473 164.055L371.471 164.163L371.491 163.423L371.245 162.725L367.473 164.055ZM364.394 157.425L367.835 155.384L367.649 155.071L367.409 154.796L364.394 157.425ZM369.021 169.584L372.932 168.743L372.802 168.14L372.497 167.604L369.021 169.584ZM431.881 194.478L431.873 198.478L435.115 198.483L435.792 195.314L431.881 194.478ZM376.92 163.072L372.928 162.828L372.883 163.559L373.1 164.258L376.92 163.072ZM373.7 247.103L370.022 245.531L369.046 247.814L370.659 249.702L373.7 247.103ZM416.059 254.774L417.933 258.308L423.029 255.606L418.712 251.78L416.059 254.774ZM439.03 164.434L435.089 163.746L434.933 164.646L435.182 165.525L439.03 164.434ZM441.338 194.941L437.388 194.309L436.712 198.537L440.975 198.924L441.338 194.941ZM490.126 208.177L488.438 211.803L492.956 213.907L494.032 209.041L490.126 208.177ZM375.693 187.276C375.848 200.173 375.075 213.072 373.375 225.974L381.307 227.019C383.056 213.742 383.852 200.462 383.693 187.181L375.693 187.276ZM344.295 254.761C327.885 249.909 320.935 231.941 319.234 214.423L311.271 215.196C313.02 233.207 320.494 256.066 342.027 262.433L344.295 254.761ZM319.234 214.423C318.382 205.653 318.282 200.579 318.521 196.479C318.766 192.253 319.349 189.138 320.008 183.654L312.065 182.7C311.47 187.656 310.798 191.475 310.534 196.015C310.263 200.68 310.398 206.202 311.271 215.196L319.234 214.423ZM367.326 154.696C364.273 150.776 358.945 149.772 354.724 149.669C350.238 149.559 345.477 150.423 341.974 151.673L344.662 159.207C347.274 158.276 351.058 157.581 354.528 157.666C358.265 157.758 360.306 158.701 361.015 159.612L367.326 154.696ZM342.001 151.663C337.13 153.361 332.947 155.714 329.698 159.131C326.421 162.579 324.317 166.877 323.25 172.091L331.087 173.694C331.902 169.715 333.404 166.844 335.496 164.643C337.618 162.412 340.568 160.635 344.635 159.217L342.001 151.663ZM323.254 172.072C319.3 190.932 317.033 214.066 324.876 233.305L332.284 230.285C325.389 213.372 327.198 192.251 331.084 173.713L323.254 172.072ZM324.876 233.305C328.529 242.267 331.465 247.524 335.419 250.398C337.498 251.91 339.642 252.618 341.793 253.05C343.742 253.441 346.188 253.678 348.409 253.988L349.516 246.065C346.719 245.674 345.03 245.54 343.368 245.206C341.908 244.913 340.965 244.54 340.124 243.928C338.237 242.556 335.999 239.399 332.284 230.285L324.876 233.305ZM348.409 253.988C353.411 254.687 357.32 254.867 360.487 253.672C363.949 252.365 365.804 249.707 367.4 247.169L360.628 242.911C359.088 245.359 358.435 245.896 357.663 246.187C356.597 246.589 354.548 246.768 349.516 246.065L348.409 253.988ZM367.4 247.169C371.131 241.237 370.792 235.077 371.263 231.917L363.35 230.738C362.567 235.992 363.169 238.871 360.628 242.911L367.4 247.169ZM371.252 231.989C373.338 219.55 373.97 207.013 374.284 194.654L366.287 194.45C365.975 206.712 365.352 218.796 363.362 230.666L371.252 231.989ZM289.806 175.419C285.333 180.593 282.622 184.729 280.895 188.832C279.172 192.922 278.53 196.753 277.901 200.975L285.813 202.154C286.438 197.962 286.972 195.014 288.268 191.936C289.558 188.872 291.708 185.45 295.858 180.651L289.806 175.419ZM324.623 254.688C324.739 254.526 324.83 254.462 324.877 254.435C324.927 254.405 324.993 254.379 325.091 254.367C325.317 254.338 325.673 254.392 326.017 254.593C326.377 254.803 326.411 254.98 326.38 254.883C326.357 254.813 326.345 254.707 326.363 254.604C326.381 254.502 326.407 254.522 326.302 254.664L332.739 259.414C334.322 257.269 334.745 254.76 333.995 252.431C333.297 250.264 331.724 248.659 330.046 247.681C326.769 245.771 321.373 245.473 318.112 250.04L324.623 254.688ZM350.721 362.004C353.668 362.211 355.861 362.507 357.45 362.841C358.241 363.008 358.846 363.176 359.298 363.333C359.757 363.492 359.997 363.618 360.092 363.676C360.195 363.739 360.037 363.667 359.833 363.385C359.599 363.062 359.376 362.558 359.363 361.936C359.35 361.349 359.529 360.932 359.634 360.741C359.732 360.564 359.796 360.526 359.709 360.609C359.521 360.787 359.08 361.111 358.317 361.501C357.588 361.873 356.71 362.233 355.773 362.54C354.839 362.847 353.905 363.081 353.076 363.225C352.214 363.375 351.617 363.399 351.306 363.375L350.696 371.352C352.992 371.527 355.869 370.928 358.267 370.142C360.633 369.366 363.422 368.118 365.223 366.405C366.082 365.588 367.409 364.005 367.361 361.762C367.307 359.27 365.639 357.691 364.266 356.851C362.886 356.007 361.105 355.435 359.098 355.013C357.032 354.578 354.449 354.246 351.28 354.024L350.721 362.004ZM353.821 370.2L353.978 370.044L348.337 364.371L348.181 364.527L353.821 370.2ZM398.591 277.03C389.899 285.197 382.902 294.164 383.861 305.223L391.831 304.532C391.222 297.515 395.513 290.899 404.069 282.86L398.591 277.03ZM383.861 305.223C384.005 306.883 383.586 307.107 383.799 306.869C383.908 306.749 384.06 306.659 384.194 306.619C384.307 306.585 384.328 306.609 384.224 306.593C383.981 306.555 383.513 306.363 383.083 305.921C382.679 305.507 382.462 305.032 382.427 304.569L374.451 305.186C374.842 310.243 378.946 313.871 383.001 314.499C385.202 314.839 387.833 314.347 389.746 312.221C391.577 310.186 392.079 307.391 391.831 304.532L383.861 305.223ZM382.423 304.529C382.049 300.253 383.512 295.38 386.185 290.466C388.831 285.604 392.464 281.068 395.87 277.61L390.17 271.996C386.364 275.862 382.236 280.987 379.158 286.643C376.109 292.248 373.887 298.75 374.454 305.226L382.423 304.529ZM442.019 284.308C442.019 281.556 441.716 278.881 441.446 276.462C441.167 273.972 440.922 271.739 440.922 269.505H432.922C432.922 272.258 433.225 274.932 433.495 277.351C433.773 279.841 434.019 282.075 434.019 284.308H442.019ZM443.426 284.308C443.426 284.308 443.427 284.289 443.435 284.257C443.442 284.225 443.454 284.194 443.467 284.168C443.495 284.114 443.508 284.12 443.452 284.165C443.311 284.28 442.98 284.439 442.548 284.464C442.113 284.49 441.943 284.364 441.972 284.386C442.002 284.409 442.037 284.449 442.054 284.485C442.07 284.517 442.024 284.449 442.018 284.205L434.02 284.412C434.089 287.057 435.212 289.3 437.138 290.76C438.946 292.132 441.118 292.561 443.015 292.45C446.44 292.25 451.426 289.811 451.426 284.308H443.426ZM502.275 332.482C519.699 310.958 527.421 285.34 519.796 257.99L512.09 260.139C518.889 284.523 512.186 307.523 496.057 327.449L502.275 332.482ZM519.796 257.99C516.21 245.132 514.106 238.848 511.82 234.61C510.629 232.402 509.421 230.801 508.073 229.192C506.667 227.514 505.417 226.169 503.536 223.833L497.305 228.849C499.187 231.188 500.857 233.037 501.941 234.33C503.082 235.692 503.931 236.836 504.779 238.408C506.569 241.727 508.462 247.13 512.09 260.139L519.796 257.99ZM503.542 223.839C499.295 218.541 493.358 214.908 487.371 212.198C481.384 209.488 474.969 207.542 469.644 205.854L467.227 213.481C472.72 215.221 478.613 217.015 484.072 219.486C489.531 221.957 494.177 224.947 497.299 228.843L503.542 223.839ZM469.644 205.854C458.516 202.328 444.131 199.584 430.914 199.746L431.012 207.746C443.195 207.596 456.718 210.151 467.227 213.481L469.644 205.854ZM430.914 199.746C424.829 199.821 420.029 199.8 416.305 200.72C412.031 201.775 409.143 204.022 406.5 207.87L413.093 212.4C414.839 209.859 416.186 208.99 418.222 208.487C420.809 207.848 424.397 207.827 431.012 207.746L430.914 199.746ZM406.482 207.896C401.68 215.007 402.205 222.895 404.709 229.708C407.194 236.465 411.762 242.64 415.965 247.146L421.815 241.688C418.022 237.623 414.202 232.345 412.218 226.948C410.254 221.606 410.231 216.639 413.111 212.374L406.482 207.896ZM415.965 247.146C420.053 251.526 422.94 254.133 425.742 256.078C428.498 257.992 431.108 259.203 434.166 260.759L437.795 253.63C434.425 251.914 432.487 251.022 430.304 249.507C428.168 248.024 425.724 245.878 421.815 241.688L415.965 247.146ZM434.166 260.759C437.801 262.61 441.849 263.787 445.726 264.741C449.817 265.747 453.363 266.433 457.027 267.44L459.148 259.727C455.443 258.708 451.15 257.836 447.636 256.972C443.909 256.056 440.587 255.051 437.795 253.63L434.166 260.759ZM457.027 267.44C458.078 267.729 458.183 268.082 458.124 267.973C458.078 267.887 458.142 267.887 458.073 268.075C457.997 268.284 457.812 268.523 457.553 268.669C457.345 268.786 457.05 268.872 456.591 268.752L454.567 276.491C459.76 277.85 464.157 274.738 465.588 270.818C466.323 268.805 466.358 266.38 465.16 264.166C463.95 261.929 461.781 260.451 459.148 259.727L457.027 267.44ZM417.978 251.121C408.905 242.856 401.273 231.403 401.41 219.844L393.41 219.749C393.234 234.68 402.848 248.159 412.59 257.035L417.978 251.121ZM444.354 369.916C440.699 370.144 437.964 370.171 435.972 370.062C434.979 370.008 434.212 369.923 433.633 369.824C433.04 369.723 432.732 369.622 432.616 369.575C432.471 369.516 432.77 369.601 433.127 370.014C433.322 370.239 433.526 370.555 433.665 370.961C433.806 371.371 433.848 371.781 433.82 372.154C433.767 372.856 433.484 373.255 433.457 373.294C433.414 373.354 433.453 373.285 433.671 373.1C434.108 372.728 434.855 372.234 435.899 371.679C436.913 371.139 438.084 370.608 439.282 370.135C440.48 369.661 441.659 369.265 442.681 368.983C443.192 368.843 443.642 368.737 444.021 368.664C444.41 368.589 444.668 368.561 444.807 368.554L444.4 360.564C442.19 360.677 439.05 361.625 436.343 362.694C433.608 363.774 430.493 365.301 428.49 367.004C427.963 367.452 427.398 368.007 426.928 368.671C426.472 369.315 425.937 370.298 425.842 371.554C425.737 372.954 426.215 374.252 427.077 375.249C427.849 376.141 428.809 376.663 429.604 376.986C431.172 377.623 433.21 377.924 435.537 378.05C437.951 378.182 441.021 378.14 444.853 377.901L444.354 369.916ZM448.604 364.559V364.403H440.604V364.559H448.604ZM365.462 251.581C360.012 256.07 351.435 256.863 344.291 254.76L342.031 262.434C350.862 265.035 362.445 264.431 370.548 257.756L365.462 251.581ZM320.008 183.654C320.167 182.333 320.301 181.182 320.448 179.96L312.506 179.002C312.365 180.166 312.212 181.476 312.065 182.7L320.008 183.654ZM319.543 176.912C315.65 172.266 310.957 168.594 305.489 167.948C299.744 167.269 294.449 170.05 289.806 175.419L295.858 180.651C299.47 176.474 302.357 175.633 304.551 175.893C307.022 176.184 310.024 178.008 313.411 182.05L319.543 176.912ZM277.891 201.042C276.238 213.589 277.03 228.193 282.486 240.441L289.794 237.185C285.124 226.702 284.293 213.698 285.823 202.087L277.891 201.042ZM283.505 241.822C284.39 242.597 285.19 244.012 285.354 245.146L293.272 244.001C292.815 240.84 290.987 237.74 288.775 235.803L283.505 241.822ZM286.027 246.855C290.119 252.75 296.58 258.275 303.518 260.698C307.029 261.925 310.856 262.42 314.613 261.545C318.441 260.654 321.87 258.412 324.584 254.742L318.152 249.986C316.484 252.241 314.643 253.324 312.799 253.754C310.883 254.2 308.636 254.012 306.156 253.146C301.113 251.384 295.928 247.089 292.599 242.293L286.027 246.855ZM326.29 254.681C322.353 260.075 316.644 262.38 310.418 262.331C304.09 262.282 297.35 259.771 292.038 255.616L287.11 261.918C293.664 267.044 302.083 270.266 310.355 270.331C318.728 270.396 327.06 267.197 332.752 259.397L326.29 254.681ZM285.576 258.899C286.244 279.097 288.992 299.194 299.194 318.004L306.226 314.19C296.896 296.986 294.224 278.348 293.572 258.635L285.576 258.899ZM299.189 317.995C304.728 328.265 311.272 339.329 320.04 347.779L325.592 342.018C317.788 334.498 311.733 324.401 306.23 314.198L299.189 317.995ZM321.1 348.512C321.68 348.787 322.235 349.275 322.562 349.813L329.396 345.653C328.209 343.702 326.432 342.188 324.532 341.285L321.1 348.512ZM323.425 350.811C330.823 356.951 339.748 361.235 350.721 362.004L351.28 354.024C342.219 353.389 334.843 349.891 328.534 344.655L323.425 350.811ZM351.434 363.217C343.671 362.679 336.897 360.52 330.886 357.19L327.008 364.187C334.008 368.066 341.913 370.576 350.881 371.198L351.434 363.217ZM324.995 361.305C327.934 380.152 327.226 400.866 324.772 419.351L332.702 420.404C335.222 401.427 335.991 379.903 332.899 360.072L324.995 361.305ZM460.049 422.308C459.98 417.834 459.76 413.399 459.566 409.098C459.37 404.77 459.2 400.564 459.215 396.411C459.244 388.117 460.014 380.228 462.703 372.553L455.153 369.907C452.052 378.759 451.246 387.64 451.215 396.383C451.2 400.75 451.379 405.13 451.574 409.459C451.77 413.815 451.983 418.106 452.05 422.432L460.049 422.308ZM457.746 367.409C453.349 368.77 448.874 369.634 444.354 369.916L444.853 377.901C450.061 377.576 455.163 376.583 460.111 375.051L457.746 367.409ZM444.834 368.396C452.633 367.947 460.121 365.611 467.079 362.157L463.522 354.991C457.308 358.076 450.873 360.035 444.374 360.41L444.834 368.396ZM468.533 360.93C469.019 360.263 469.407 359.824 469.692 359.547C469.988 359.26 470.096 359.226 470.008 359.269C469.9 359.321 469.494 359.486 468.889 359.412C468.255 359.335 467.784 359.041 467.514 358.788L472.987 352.953C472.208 352.222 471.153 351.629 469.858 351.471C468.593 351.317 467.448 351.62 466.521 352.069C464.801 352.902 463.345 354.466 462.068 356.218L468.533 360.93ZM472.297 359.307C484.137 352.257 494.463 342.117 502.273 332.485L496.059 327.446C488.63 336.609 478.987 346.013 468.204 352.434L472.297 359.307ZM456.591 268.752C453.93 268.056 450.484 267.311 447.299 266.541L445.419 274.317C448.951 275.171 451.95 275.807 454.567 276.491L456.591 268.752ZM442.362 270.589C442.48 273.523 442.764 275.952 443 278.109C443.238 280.286 443.426 282.181 443.426 284.308H451.426C451.426 281.707 451.192 279.434 450.952 277.239C450.71 275.025 450.46 272.878 450.356 270.27L442.362 270.589ZM440.922 269.505C440.922 269.505 440.921 269.523 440.914 269.554C440.907 269.585 440.895 269.616 440.882 269.642L433.724 266.069C433.206 267.108 432.922 268.271 432.922 269.505H440.922ZM438.621 264.079C437.538 263.701 436.51 263.303 435.55 262.882L432.334 270.207C433.518 270.727 434.744 271.199 435.986 271.632L438.621 264.079ZM435.55 262.882C434.386 262.37 433.226 261.806 432.074 261.194L428.322 268.261C429.639 268.959 430.977 269.611 432.334 270.207L435.55 262.882ZM429.412 260.805C417.792 263.133 407.203 268.938 398.591 277.03L404.069 282.86C411.698 275.691 420.965 270.657 430.984 268.65L429.412 260.805ZM395.84 277.64C398.304 275.191 400.974 272.896 403.809 270.806L399.061 264.367C395.908 266.692 392.94 269.243 390.2 271.966L395.84 277.64ZM401.339 263.587C389.954 263.86 378.479 259.705 370.873 251.88L365.137 257.457C374.504 267.092 388.235 271.903 401.53 271.585L401.339 263.587ZM363.464 164.524C363.464 164.552 363.463 164.579 363.463 164.606L371.463 164.662C371.463 164.64 371.463 164.62 371.464 164.601L363.464 164.524ZM363.463 164.478C363.463 164.525 363.463 164.571 363.464 164.617L371.463 164.507C371.463 164.497 371.463 164.487 371.463 164.478H363.463ZM371.464 164.6C371.465 164.454 371.468 164.308 371.471 164.163L363.474 163.948C363.469 164.14 363.466 164.332 363.464 164.524L371.464 164.6ZM371.245 162.725C370.364 160.226 369.247 157.765 367.835 155.384L360.954 159.465C362.075 161.355 362.977 163.334 363.701 165.386L371.245 162.725ZM367.409 154.796C367.378 154.76 367.35 154.726 367.326 154.696L361.015 159.612C361.133 159.764 361.255 159.911 361.379 160.053L367.409 154.796ZM374.284 194.654C374.481 186.919 374.845 177.648 372.932 168.743L365.11 170.424C366.784 178.212 366.491 186.454 366.287 194.45L374.284 194.654ZM372.497 167.604C371.796 166.373 371.473 165.188 371.463 164.507L363.464 164.618C363.498 167.067 364.418 169.584 365.545 171.563L372.497 167.604ZM435.792 195.314C437.798 185.927 438.297 174.014 435.543 163.343C432.779 152.631 426.551 142.63 414.744 138.426L412.061 145.963C420.513 148.972 425.433 156.181 427.797 165.342C430.172 174.544 429.78 185.166 427.969 193.642L435.792 195.314ZM414.744 138.426C403.536 134.436 393.342 135.657 385.716 140.543C378.135 145.399 373.492 153.63 372.928 162.828L380.913 163.317C381.329 156.523 384.72 150.681 390.031 147.279C395.296 143.907 402.853 142.685 412.061 145.963L414.744 138.426ZM373.1 164.258C375.266 171.236 375.589 178.575 375.693 187.276L383.693 187.181C383.589 178.494 383.288 170.094 380.74 161.886L373.1 164.258ZM373.375 225.974C372.735 230.835 372.45 234.18 371.952 237.658C371.486 240.911 370.932 243.4 370.022 245.531L377.379 248.674C378.7 245.582 379.372 242.28 379.871 238.792C380.338 235.529 380.758 231.184 381.307 227.019L373.375 225.974ZM370.659 249.702C376.155 256.131 384.376 260.15 392.832 261.668C401.291 263.186 410.437 262.282 417.933 258.308L414.186 251.24C408.566 254.219 401.302 255.06 394.245 253.793C387.183 252.526 380.783 249.233 376.741 244.504L370.659 249.702ZM418.712 251.78C418.464 251.56 418.218 251.34 417.974 251.118L412.594 257.038C412.863 257.283 413.133 257.526 413.406 257.767L418.712 251.78ZM401.41 219.843C401.515 210.936 405.18 205.912 410.407 202.874C415.966 199.642 423.669 198.463 431.873 198.478L431.888 190.478C423.187 190.462 413.776 191.662 406.387 195.957C398.665 200.446 393.547 208.097 393.41 219.749L401.41 219.843ZM435.182 165.525C437.939 175.252 438.769 185.675 437.388 194.309L445.287 195.572C446.883 185.598 445.895 173.988 442.878 163.343L435.182 165.525ZM440.975 198.924C442.635 199.075 444.258 199.256 445.823 199.455L446.833 191.519C445.184 191.31 443.466 191.118 441.7 190.957L440.975 198.924ZM445.817 199.455C460.518 201.349 474.98 205.537 488.438 211.803L491.815 204.551C477.612 197.938 462.356 193.519 446.839 191.52L445.817 199.455ZM494.032 209.041C496.145 199.485 497.548 185.376 495.757 172.576C494.003 160.04 488.907 147.128 476.511 142.715L473.828 150.252C481.748 153.071 486.17 161.791 487.834 173.685C489.461 185.315 488.184 198.436 486.221 207.313L494.032 209.041ZM476.511 142.715C466.004 138.975 456.383 139.809 448.919 143.972C441.488 148.117 436.551 155.371 435.089 163.746L442.97 165.121C444.038 158.999 447.596 153.87 452.815 150.959C458 148.067 465.185 147.175 473.828 150.252L476.511 142.715ZM367.463 164.634H359.463L375.463 164.699L367.463 164.634ZM414.343 132.845L416.382 125.109L414.343 132.845ZM440.527 198.915L443.009 206.521L447.208 205.15L448.285 200.867L440.527 198.915ZM431.433 196.422L423.667 194.503L423.659 194.535L423.651 194.568L431.433 196.422ZM376.87 164.478L368.871 164.403V164.403L376.87 164.478ZM367.463 164.478L375.463 164.422L359.463 164.478H367.463ZM431.484 157.999L423.485 157.944L423.484 157.972V157.999H431.484ZM497.764 212L500.823 219.391L504.54 217.853L505.522 213.951L497.764 212ZM489.7 210L481.934 208.08L481.926 208.113L481.918 208.145L489.7 210ZM438.637 168.766L446.637 168.842L438.637 168.766ZM371.54 151.7L364.393 148.105L362.318 152.231L364.853 156.092L371.54 151.7ZM369.188 253.61L374.76 259.351L374.76 259.351L369.188 253.61ZM323.249 158.089L316.894 153.229L316.887 153.238L316.88 153.247L323.249 158.089ZM370.913 150.609L364.62 155.549L370.913 150.609ZM363.544 156.063L370.229 151.669L363.544 156.063ZM371.697 151.388L378.843 154.984L380.925 150.846L378.373 146.98L371.697 151.388ZM317.448 180.684H325.448V177.936L323.759 175.768L317.448 180.684ZM287.501 241.612L294.571 237.868L294.571 237.868L287.501 241.612ZM287.031 256.571L292.552 250.782H292.552L287.031 256.571ZM272.293 203.746L264.323 203.049L272.293 203.746ZM288.285 169.309L293.826 175.079L288.285 169.309ZM324.19 174.295L331.929 176.322L332.931 172.495L330.499 169.376L324.19 174.295ZM317.448 180.84H309.448V183.588L311.137 185.756L317.448 180.84ZM295.811 323.109L288.788 326.941L295.811 323.109ZM470.317 368.61L477.397 372.335L478.317 370.586V368.61H470.317ZM456.049 422.37H464.049V414.525L456.206 414.372L456.049 422.37ZM462.164 363.78L455.078 360.067L462.164 363.78ZM470.317 368.454L463.256 364.693L462.317 366.457V368.454H470.317ZM319.33 420.033H311.33L327.266 421.045L319.33 420.033ZM320.741 386.53L312.742 386.644L320.741 386.53ZM317.605 351.937L325.363 349.985L317.605 351.937ZM326.699 349.444L318.928 351.346L318.931 351.358L318.934 351.369L326.699 349.444ZM328.737 419.877L328.894 411.879L321.747 411.739L320.807 418.824L328.737 419.877ZM319.33 419.877H327.33L311.396 418.854L319.33 419.877ZM426.573 258.909L421.594 252.647L421.588 252.652L421.581 252.657L426.573 258.909ZM363.857 249.559L356.028 251.205L356.348 252.725L357.213 254.016L363.857 249.559ZM372.01 244.884L378.643 240.411L378.616 240.372L378.59 240.333L372.01 244.884ZM419.988 252.208L422.017 244.47L418.137 243.452L415 245.953L419.988 252.208ZM432.217 264.363L430.977 256.459L430.961 256.462L430.944 256.465L432.217 264.363ZM429.709 255.325L435.24 249.545L432.375 246.804L428.459 247.423L429.709 255.325ZM446.329 269.505L454.326 269.299L446.329 269.505ZM495.09 210.603L498.737 203.482L495.09 210.603ZM518.138 238.028L525.395 234.661L525.388 234.647L525.382 234.633L518.138 238.028ZM516.099 322.174L522.979 326.257L522.98 326.256L516.099 322.174ZM368.005 254.669L362.269 260.245L367.404 265.528L373.091 260.844L368.005 254.669ZM316.477 179.481L308.534 178.523L308.12 181.963L310.345 184.619L316.477 179.481ZM286.14 238.813L293.448 235.558L292.733 233.952L291.41 232.794L286.14 238.813ZM289.313 244.574L297.231 243.429L296.961 241.562L295.885 240.012L289.313 244.574ZM289.574 258.767L284.645 265.068L298.136 275.619L297.57 258.502L289.574 258.767ZM322.816 344.899L328.367 339.138L327.427 338.232L326.247 337.672L322.816 344.899ZM325.979 347.733L332.813 343.574L332.117 342.431L331.088 341.577L325.979 347.733ZM328.947 360.688L325.069 367.686L339.371 375.611L336.851 359.456L328.947 360.688ZM458.928 371.23L451.379 368.584L446.128 383.567L461.294 378.872L458.928 371.23ZM465.301 358.574L461.743 351.408L459.989 352.279L458.836 353.862L465.301 358.574ZM470.251 355.871L475.724 350.036L471.332 345.916L466.157 348.997L470.251 355.871ZM446.359 270.429L444.479 278.205L454.775 280.695L454.353 270.11L446.359 270.429ZM437.303 267.856L430.146 264.283L426.086 272.415L434.668 275.409L437.303 267.856ZM430.198 264.728L426.447 271.794L428.969 273.133L431.769 272.572L430.198 264.728ZM401.435 267.586L396.687 261.147L376.285 276.19L401.626 275.584L401.435 267.586ZM367.464 164.562L375.463 164.628L375.464 164.567L375.464 164.506L367.464 164.562ZM367.473 164.055L359.476 163.84L359.436 165.32L359.928 166.716L367.473 164.055ZM364.394 157.425L357.514 161.506L357.885 162.133L358.364 162.682L364.394 157.425ZM369.021 169.584L361.2 171.264L361.459 172.471L362.07 173.543L369.021 169.584ZM431.881 194.478L431.895 186.478L425.412 186.466L424.057 192.806L431.881 194.478ZM376.92 163.072L384.905 163.562L384.995 162.1L384.56 160.7L376.92 163.072ZM373.7 247.103L381.057 250.246L383.008 245.68L379.782 241.905L373.7 247.103ZM416.059 254.774L412.312 247.706L402.12 253.11L410.753 260.761L416.059 254.774ZM439.03 164.434L446.911 165.809L447.225 164.01L446.727 162.252L439.03 164.434ZM441.338 194.941L449.237 196.204L450.59 187.749L442.062 186.973L441.338 194.941ZM490.126 208.177L493.503 200.924L484.467 196.717L482.315 206.449L490.126 208.177ZM440.527 198.915C438.045 191.31 438.047 191.31 438.048 191.309C438.049 191.309 438.05 191.308 438.051 191.308C438.053 191.307 438.055 191.307 438.057 191.306C438.061 191.305 438.063 191.304 438.066 191.303C438.07 191.302 438.073 191.301 438.073 191.301C438.073 191.301 438.064 191.304 438.048 191.309C438.014 191.319 437.949 191.339 437.858 191.365C437.673 191.419 437.393 191.496 437.057 191.575C436.719 191.656 436.35 191.733 435.984 191.793C435.611 191.854 435.301 191.887 435.07 191.898C434.817 191.911 434.801 191.889 434.965 191.916C435.059 191.931 435.256 191.969 435.524 192.061C435.792 192.153 436.18 192.317 436.619 192.603C437.069 192.895 437.566 193.311 438.019 193.884C438.479 194.464 438.819 195.112 439.034 195.779C439.458 197.096 439.266 198.063 439.215 198.277L423.651 194.568C423.247 196.262 423.075 198.417 423.803 200.68C424.577 203.084 426.129 204.867 427.898 206.017C430.911 207.976 434.285 207.954 435.832 207.88C437.758 207.788 439.567 207.425 440.758 207.142C441.384 206.993 441.914 206.848 442.298 206.737C442.491 206.681 442.651 206.633 442.771 206.596C442.831 206.578 442.881 206.562 442.921 206.549C442.941 206.543 442.958 206.537 442.973 206.532C442.98 206.53 442.987 206.528 442.993 206.526C442.996 206.525 442.999 206.524 443.001 206.523C443.003 206.523 443.004 206.522 443.005 206.522C443.007 206.521 443.009 206.521 440.527 198.915ZM439.484 158.055C439.513 153.921 440.599 151.192 442.014 149.304C443.465 147.368 445.682 145.764 448.817 144.63C455.312 142.28 464.649 142.387 474.071 144.87L478.149 129.398C466.875 126.427 453.978 125.747 443.373 129.584C437.958 131.543 432.909 134.775 429.212 139.708C425.478 144.688 423.534 150.859 423.485 157.944L439.484 158.055ZM474.071 144.87C476.558 145.525 479.417 147.63 482.275 152.159C485.101 156.637 487.434 162.748 489.084 169.789C492.414 183.996 492.527 200.022 490.005 210.048L505.522 213.951C508.801 200.915 508.435 182.235 504.662 166.138C502.761 158.027 499.887 150.087 495.806 143.62C491.757 137.204 486.01 131.47 478.149 129.398L474.071 144.87ZM497.764 212C494.704 204.608 494.706 204.607 494.708 204.606C494.708 204.606 494.71 204.605 494.711 204.605C494.713 204.604 494.715 204.603 494.716 204.603C494.72 204.601 494.723 204.6 494.726 204.599C494.731 204.597 494.734 204.595 494.735 204.595C494.737 204.594 494.731 204.596 494.718 204.602C494.692 204.612 494.639 204.633 494.562 204.661C494.406 204.72 494.168 204.805 493.884 204.895C493.596 204.986 493.291 205.074 492.995 205.144C492.85 205.178 492.718 205.206 492.601 205.227C492.483 205.248 492.393 205.261 492.331 205.268C492.268 205.275 492.255 205.273 492.287 205.273C492.316 205.272 492.426 205.272 492.601 205.293C492.773 205.314 493.064 205.363 493.433 205.484C493.804 205.605 494.3 205.815 494.837 206.177C495.107 206.359 495.383 206.577 495.654 206.835C495.925 207.095 496.18 207.386 496.411 207.707C496.643 208.028 496.839 208.364 497 208.707C497.161 209.049 497.28 209.384 497.365 209.701C497.536 210.333 497.565 210.86 497.555 211.217C497.546 211.569 497.497 211.792 497.482 211.854L481.918 208.145C481.549 209.693 481.335 211.712 481.918 213.87C482.554 216.227 483.987 218.158 485.893 219.443C489.098 221.604 492.679 221.325 494.074 221.172C495.924 220.97 497.635 220.491 498.727 220.144C499.309 219.96 499.8 219.784 500.156 219.651C500.336 219.584 500.484 219.527 500.597 219.483C500.653 219.46 500.7 219.441 500.738 219.426C500.757 219.418 500.774 219.412 500.788 219.406C500.795 219.403 500.801 219.4 500.807 219.398C500.81 219.397 500.813 219.396 500.816 219.394C500.817 219.394 500.819 219.393 500.819 219.393C500.821 219.392 500.823 219.391 497.764 212ZM430.638 168.691C430.62 170.596 430.5 171.48 430.45 171.723C430.421 171.865 430.485 171.439 430.826 170.785C431.113 170.236 432.196 168.374 434.715 167.456C437.57 166.416 439.975 167.376 441.096 168.065C442.096 168.679 442.593 169.343 442.653 169.42C442.82 169.639 442.682 169.505 442.324 168.69C441.673 167.214 440.924 164.947 440.335 162.624C440.047 161.491 439.822 160.438 439.673 159.557C439.599 159.119 439.549 158.754 439.519 158.466C439.504 158.324 439.495 158.212 439.49 158.128C439.487 158.086 439.486 158.055 439.485 158.032C439.484 158.01 439.484 157.999 439.484 157.999H423.484C423.484 160.567 424.138 163.847 424.825 166.556C425.553 169.427 426.562 172.599 427.68 175.139C428.206 176.332 428.955 177.851 429.957 179.158C430.435 179.78 431.336 180.847 432.722 181.698C434.228 182.623 436.998 183.653 440.192 182.49C443.05 181.448 444.446 179.27 445.012 178.185C445.633 176.995 445.943 175.815 446.12 174.957C446.482 173.201 446.616 171.105 446.637 168.842L430.638 168.691ZM329.604 162.949C332.669 158.941 339.973 154.319 348.065 152.442C356.314 150.529 361.924 152.115 364.62 155.549L377.205 145.669C368.769 134.923 355.016 134.406 344.45 136.856C333.728 139.342 322.766 145.55 316.894 153.229L329.604 162.949ZM370.229 151.669C369.492 150.547 369.178 149.859 369.065 149.551C368.937 149.201 369.168 149.622 369.068 150.551C368.949 151.67 368.383 153.077 367.137 154.162C366.03 155.128 364.945 155.354 364.52 155.409C364.082 155.465 363.901 155.403 364.03 155.43C364.13 155.451 364.327 155.508 364.571 155.622C365.199 155.914 365.247 156.139 365.021 155.797L378.373 146.98C376.5 144.144 373.746 142.246 371.335 141.122C368.975 140.021 365.774 139.118 362.489 139.538C360.771 139.758 358.563 140.41 356.621 142.104C354.54 143.919 353.425 146.357 353.159 148.851C352.7 153.144 354.738 157.231 356.859 160.458L370.229 151.669ZM364.55 147.793L364.393 148.105L378.687 155.295L378.843 154.984L364.55 147.793ZM292.552 250.782C288.288 246.716 284.727 239.634 282.478 230.763C280.266 222.041 279.557 212.501 280.262 204.444L264.323 203.049C263.46 212.911 264.32 224.252 266.968 234.696C269.579 244.992 274.171 255.363 281.51 262.361L292.552 250.782ZM280.262 204.444C280.988 196.144 282.499 190.82 284.555 186.734C286.61 182.647 289.48 179.252 293.826 175.079L282.745 163.538C277.84 168.247 273.497 173.111 270.261 179.543C267.026 185.975 265.165 193.428 264.323 203.049L280.262 204.444ZM293.826 175.079C299.109 170.006 310.591 169.865 317.881 179.214L330.499 169.376C318.347 153.793 295.962 150.847 282.745 163.538L293.826 175.079ZM324.19 174.295C316.451 172.268 316.451 172.267 316.452 172.265C316.452 172.265 316.452 172.263 316.452 172.263C316.453 172.261 316.453 172.259 316.454 172.258C316.454 172.255 316.455 172.253 316.455 172.251C316.456 172.248 316.457 172.247 316.456 172.249C316.455 172.252 316.452 172.265 316.446 172.287C316.433 172.331 316.412 172.409 316.38 172.515C316.317 172.729 316.22 173.044 316.094 173.414C315.967 173.786 315.819 174.188 315.657 174.58C315.492 174.98 315.335 175.312 315.198 175.564C315.049 175.838 315 175.878 315.085 175.775C315.135 175.715 315.267 175.563 315.492 175.372C315.715 175.182 316.093 174.899 316.634 174.64C317.189 174.374 317.928 174.129 318.816 174.056C319.723 173.982 320.61 174.103 321.411 174.377C322.189 174.644 322.759 175.01 323.128 175.305C323.49 175.593 323.691 175.836 323.759 175.924L311.137 185.756C312.167 187.078 313.804 188.684 316.226 189.514C318.897 190.429 321.496 190.051 323.544 189.07C326.839 187.493 328.585 184.441 329.262 183.194C330.176 181.509 330.834 179.763 331.237 178.58C331.449 177.959 331.614 177.423 331.729 177.034C331.786 176.838 331.832 176.677 331.866 176.556C331.882 176.496 331.896 176.445 331.907 176.406C331.912 176.386 331.916 176.37 331.92 176.355C331.922 176.348 331.924 176.342 331.925 176.336C331.926 176.334 331.927 176.331 331.927 176.329C331.928 176.327 331.928 176.326 331.928 176.325C331.929 176.323 331.929 176.322 324.19 174.295ZM325.448 180.84V180.684H309.448V180.84H325.448ZM302.834 319.277C296.753 308.133 294.401 303.207 293.211 299.627C292.034 296.086 291.987 294.043 290.854 286.944L275.054 289.464C275.96 295.143 276.305 299.488 278.028 304.674C279.739 309.82 282.796 315.958 288.788 326.941L302.834 319.277ZM290.854 286.944C288.901 274.699 287.975 259.559 287.975 245.507H271.975C271.975 260.128 272.931 276.153 275.054 289.464L290.854 286.944ZM463.237 364.885C457.951 374.932 456.603 385.228 456.477 394.919C456.415 399.739 456.656 404.543 456.905 409.104C457.159 413.747 457.42 418.109 457.457 422.439L473.456 422.301C473.415 417.516 473.127 412.723 472.881 408.23C472.631 403.656 472.421 399.344 472.476 395.127C472.585 386.742 473.746 379.273 477.397 372.335L463.237 364.885ZM457.457 422.439C457.474 424.41 457.354 425.697 457.219 426.467C457.067 427.326 456.968 427.129 457.369 426.519C457.886 425.734 459.235 424.345 461.527 424.05C463.519 423.793 464.831 424.56 465.127 424.75C465.478 424.975 465.499 425.079 465.284 424.813C465.1 424.586 464.863 424.234 464.63 423.79C464.398 423.347 464.229 422.922 464.128 422.582C464.017 422.209 464.049 422.145 464.049 422.37H448.049C448.049 425.657 449.228 428.866 450.453 431.206C451.646 433.488 453.639 436.392 456.496 438.222C457.978 439.172 460.473 440.318 463.571 439.919C466.969 439.481 469.345 437.428 470.736 435.313C472.012 433.374 472.634 431.183 472.976 429.241C473.334 427.21 473.479 424.889 473.456 422.301L457.457 422.439ZM462.317 368.454V368.61H478.317V368.454H462.317ZM327.266 421.045C328.749 409.416 328.898 397.593 328.74 386.417L312.742 386.644C312.897 397.595 312.733 408.523 311.394 419.021L327.266 421.045ZM328.74 386.417C328.586 375.546 328.454 362.271 325.363 349.985L309.847 353.889C312.401 364.042 312.582 375.387 312.742 386.644L328.74 386.417ZM320.807 418.824C320.466 421.389 320.092 423.18 319.751 424.378C319.384 425.669 319.166 425.865 319.375 425.57C319.585 425.273 320.98 423.506 323.811 423.352C326.461 423.208 327.992 424.631 328.235 424.87C328.561 425.191 328.534 425.286 328.311 424.846C328.123 424.475 327.905 423.939 327.712 423.294C327.519 422.654 327.387 422.03 327.32 421.512C327.246 420.942 327.283 420.755 327.264 420.901L311.396 418.854C310.997 421.944 311.618 425.334 312.389 427.899C313.123 430.342 314.522 433.822 317.01 436.272C318.292 437.533 320.92 439.533 324.679 439.329C328.618 439.115 331.132 436.65 332.425 434.827C334.755 431.542 335.919 426.566 336.668 420.93L320.807 418.824ZM311.33 419.877V420.033H327.33V419.877H311.33ZM371.686 247.913C371.901 248.936 371.779 249.674 371.725 249.935C371.692 250.098 371.656 250.211 371.634 250.274C371.611 250.338 371.595 250.373 371.59 250.382C371.585 250.393 371.598 250.366 371.627 250.329C371.656 250.29 371.653 250.305 371.586 250.361C371.586 250.361 370.707 251.139 369.008 251.1C368.093 251.078 367.219 250.812 366.504 250.379C365.83 249.971 365.508 249.547 365.431 249.435L378.59 240.333C376.625 237.492 373.48 235.2 369.382 235.104C365.735 235.019 362.919 236.732 361.235 238.16C359.472 239.656 358.096 241.536 357.186 243.418C356.399 245.045 355.345 247.952 356.028 251.205L371.686 247.913ZM419.988 252.208C417.958 259.946 417.957 259.946 417.955 259.946C417.955 259.945 417.953 259.945 417.952 259.945C417.951 259.944 417.949 259.944 417.948 259.944C417.945 259.943 417.943 259.942 417.941 259.942C417.938 259.941 417.937 259.941 417.939 259.941C417.942 259.942 417.955 259.946 417.977 259.952C418.02 259.964 418.097 259.985 418.202 260.016C418.414 260.079 418.728 260.175 419.095 260.301C419.465 260.427 419.865 260.574 420.256 260.735C420.654 260.9 420.986 261.056 421.24 261.194C421.515 261.342 421.561 261.395 421.466 261.317C421.41 261.27 421.264 261.145 421.077 260.929C420.893 260.715 420.615 260.351 420.356 259.827C420.09 259.29 419.838 258.567 419.751 257.691C419.662 256.796 419.764 255.907 420.026 255.092C420.534 253.518 421.45 252.761 421.594 252.647L431.552 265.171C432.872 264.121 434.464 262.454 435.255 260.001C436.121 257.313 435.687 254.738 434.701 252.741C433.107 249.514 430.1 247.795 428.848 247.118C427.172 246.212 425.437 245.559 424.261 245.158C423.644 244.947 423.112 244.783 422.725 244.669C422.531 244.612 422.37 244.566 422.25 244.533C422.19 244.516 422.14 244.503 422.101 244.492C422.082 244.487 422.065 244.482 422.051 244.479C422.044 244.477 422.037 244.475 422.032 244.474C422.029 244.473 422.026 244.472 422.024 244.472C422.023 244.471 422.021 244.471 422.02 244.471C422.019 244.47 422.017 244.47 419.988 252.208ZM429.709 255.325C424.177 261.104 424.176 261.103 424.175 261.102C424.175 261.102 424.174 261.101 424.173 261.1C424.172 261.099 424.171 261.098 424.169 261.097C424.167 261.095 424.166 261.093 424.165 261.092C424.162 261.09 424.162 261.089 424.163 261.091C424.166 261.093 424.176 261.103 424.192 261.119C424.224 261.151 424.282 261.208 424.359 261.286C424.516 261.445 424.744 261.683 425.007 261.973C425.271 262.265 425.551 262.59 425.816 262.923C426.086 263.262 426.303 263.562 426.46 263.807C426.63 264.073 426.645 264.141 426.599 264.026C426.572 263.958 426.505 263.775 426.445 263.492C426.387 263.213 426.319 262.753 426.349 262.161C426.379 261.553 426.512 260.787 426.872 259.968C427.239 259.131 427.772 258.398 428.409 257.814C429.635 256.688 430.81 256.486 430.977 256.459L433.457 272.266C435.114 272.006 437.328 271.346 439.231 269.598C441.327 267.673 442.218 265.196 442.329 262.951C442.508 259.343 440.696 256.369 439.934 255.179C438.907 253.575 437.705 252.16 436.87 251.238C436.432 250.753 436.046 250.351 435.762 250.063C435.62 249.918 435.501 249.8 435.413 249.713C435.368 249.669 435.331 249.633 435.302 249.605C435.288 249.591 435.275 249.579 435.265 249.569C435.26 249.564 435.255 249.559 435.251 249.555C435.249 249.553 435.247 249.552 435.245 249.55C435.244 249.549 435.243 249.548 435.242 249.547C435.241 249.546 435.24 249.545 429.709 255.325ZM491.442 217.723C498.08 221.123 501.464 224.349 503.814 227.629C506.448 231.307 507.961 235.165 510.894 241.423L525.382 234.633C522.983 229.515 520.577 223.556 516.822 218.313C512.782 212.673 507.308 207.873 498.737 203.482L491.442 217.723ZM510.881 241.395C522.999 267.514 523.624 293.81 509.219 318.092L522.98 326.256C540.56 296.622 539.303 264.639 525.395 234.661L510.881 241.395ZM328.581 427.876L455.893 430.369L456.206 414.372L328.894 411.879L328.581 427.876ZM444.461 271.429C443.925 272.502 443.162 272.976 442.8 273.144C442.439 273.312 442.088 273.371 441.699 273.336C441.307 273.301 440.454 273.117 439.607 272.316C438.635 271.396 438.347 270.298 438.332 269.711L454.326 269.299C454.242 266.045 453.009 262.97 450.605 260.695C448.326 258.538 445.552 257.619 443.139 257.401C438.841 257.013 432.893 258.779 430.146 264.283L444.461 271.429ZM448.24 262.653C445.308 261.944 442.478 261.188 439.939 260.302L434.668 275.409C437.948 276.554 441.374 277.454 444.479 278.205L448.24 262.653ZM438.332 269.711C438.341 270.064 438.352 270.409 438.366 270.748L454.353 270.11C454.342 269.845 454.333 269.574 454.326 269.299L438.332 269.711ZM469.251 367.492C470.3 365.488 471.14 364.144 471.765 363.286L458.836 353.862C457.604 355.552 456.358 357.624 455.078 360.067L469.251 367.492ZM464.777 361.705C464.061 361.034 463.743 360.405 463.642 360.186C463.528 359.94 463.518 359.839 463.545 359.958C463.602 360.213 463.677 360.783 463.667 361.615C463.657 362.417 463.572 363.231 463.44 363.909C463.291 364.671 463.157 364.879 463.256 364.693L477.378 372.215C479.07 369.038 479.629 364.896 479.666 361.805C479.686 360.117 479.559 358.244 479.155 356.447C478.814 354.931 478.003 352.174 475.724 350.036L464.777 361.705ZM468.858 365.739C470.727 364.812 472.556 363.809 474.344 362.744L466.157 348.997C464.697 349.867 463.225 350.673 461.743 351.408L468.858 365.739ZM466.478 373.876C467.228 371.736 468.141 369.61 469.251 367.492L455.078 360.067C453.596 362.894 452.377 365.735 451.379 368.584L466.478 373.876ZM318.934 351.369C319.779 354.777 320.478 358.303 321.043 361.921L336.851 359.456C336.222 355.416 335.432 351.424 334.464 347.518L318.934 351.369ZM430.944 256.465C430.168 256.59 429.395 256.729 428.626 256.883L431.769 272.572C432.34 272.457 432.914 272.354 433.49 272.261L430.944 256.465ZM332.825 353.691C320.387 346.799 310.95 334.152 302.834 319.277L288.788 326.941C297.328 342.592 308.574 358.545 325.069 367.686L332.825 353.691ZM280.431 245.356C281.118 246.652 281.895 247.916 282.741 249.136L295.885 240.012C295.374 239.276 294.936 238.557 294.571 237.868L280.431 245.356ZM325.363 349.985C325.061 348.781 325.145 348.4 325.12 348.593C325.085 348.852 324.855 349.937 323.745 350.968C322.622 352.012 321.352 352.3 320.557 352.319C319.838 352.336 319.445 352.154 319.384 352.125L326.247 337.672C323.295 336.27 317.476 334.953 312.855 339.247C308.361 343.421 308.755 349.549 309.847 353.889L325.363 349.985ZM319.145 351.892C319.085 351.792 318.993 351.611 318.928 351.346L334.47 347.542C334.108 346.065 333.52 344.735 332.813 343.574L319.145 351.892ZM406.182 274.025C413.696 268.486 422.258 264.602 430.958 263.227L428.459 247.423C416.833 249.261 405.919 254.341 396.687 261.147L406.182 274.025ZM509.219 318.092C497.74 337.437 478.119 356.915 456.563 363.588L461.294 378.872C487.932 370.627 510.294 347.634 522.979 326.257L509.219 318.092ZM281.383 245.507C281.383 250.002 281.429 254.519 281.578 259.031L297.57 258.502C297.428 254.227 297.383 249.899 297.383 245.507H281.383ZM317.265 350.659C318.422 351.774 319.623 352.854 320.87 353.889L331.088 341.577C330.163 340.809 329.257 339.996 328.367 339.138L317.265 350.659ZM294.502 252.465C293.817 251.929 293.165 251.366 292.552 250.782L281.51 262.361C282.51 263.315 283.558 264.218 284.645 265.068L294.502 252.465ZM287.975 245.507C287.975 243.797 288.153 242.984 288.22 242.762C288.302 242.487 288.081 243.496 286.79 244.449C285.25 245.586 283.471 245.714 282.241 245.432C281.712 245.311 281.351 245.135 281.163 245.028C280.971 244.92 280.878 244.839 280.87 244.832L291.41 232.794C289.321 230.965 283.293 227.142 277.285 231.579C274.793 233.419 273.541 236.006 272.892 238.172C272.228 240.391 271.975 242.881 271.975 245.507H287.975ZM281.396 245.719C281.391 245.687 281.383 245.616 281.383 245.507H297.383C297.383 244.786 297.326 244.089 297.231 243.429L281.396 245.719ZM278.832 242.068C279.327 243.179 279.86 244.276 280.431 245.356L294.571 237.868C294.175 237.119 293.8 236.349 293.448 235.558L278.832 242.068ZM324.419 180.439C325.466 171.763 326.393 167.172 329.618 162.931L316.88 153.247C310.743 161.321 309.562 170.007 308.534 178.523L324.419 180.439ZM323.759 175.768C323.382 175.283 322.998 174.808 322.609 174.343L310.345 184.619C310.606 184.931 310.87 185.258 311.137 185.6L323.759 175.768ZM421.581 252.657C416.087 257.044 408.881 259.406 401.244 259.589L401.626 275.584C412.208 275.331 422.936 272.05 431.565 265.16L421.581 252.657ZM373.741 249.092C372.542 247.859 371.457 246.528 370.501 245.102L357.213 254.016C358.723 256.266 360.42 258.344 362.269 260.245L373.741 249.092ZM363.616 247.87C363.392 248.087 363.16 248.295 362.919 248.494L373.091 260.844C373.663 260.372 374.22 259.875 374.76 259.351L363.616 247.87ZM375.463 164.634V164.478H359.463V164.634H375.463ZM364.62 155.549C365.794 157.045 366.492 158.133 366.881 158.86C367.298 159.642 367.204 159.717 367.142 159.245C367.069 158.693 367.032 157.123 368.193 155.484C369.339 153.867 370.844 153.325 371.554 153.169C372.214 153.023 372.544 153.11 372.38 153.084C372.27 153.067 372.011 153.006 371.651 152.861C370.801 152.519 370.386 152.124 370.424 152.168L358.364 162.682C360.433 165.056 363.214 166.712 365.674 167.703C367.956 168.622 371.46 169.572 374.991 168.795C376.945 168.365 379.459 167.26 381.249 164.733C383.054 162.185 383.296 159.36 383.005 157.153C382.488 153.233 380.082 149.333 377.205 145.669L364.62 155.549ZM376.843 167.903C376.378 165.74 375.782 163.562 375.018 161.395L359.928 166.716C360.442 168.174 360.862 169.691 361.2 171.264L376.843 167.903ZM371.275 153.343C370.941 152.781 370.593 152.223 370.229 151.669L356.859 160.458C357.086 160.803 357.304 161.153 357.514 161.506L371.275 153.343ZM359.463 164.534L359.464 164.618L375.464 164.506L375.463 164.422L359.463 164.534ZM359.464 164.496L359.463 164.568L375.463 164.699L375.463 164.628L359.464 164.496ZM368.871 164.403C368.859 165.68 368.783 166.63 368.687 167.309C368.64 167.645 368.59 167.892 368.549 168.064C368.508 168.238 368.48 168.313 368.481 168.31C368.481 168.308 368.523 168.198 368.629 168.015C368.737 167.832 368.927 167.549 369.231 167.228C369.89 166.533 370.951 165.818 372.364 165.543C373.713 165.28 374.81 165.53 375.449 165.77C376.058 165.999 376.382 166.261 376.439 166.308C376.53 166.383 376.295 166.19 375.973 165.624L362.07 173.543C363.069 175.298 364.461 177.168 366.254 178.647C367.828 179.947 371.139 182.082 375.424 181.248C380.142 180.328 382.459 176.589 383.453 173.951C384.467 171.259 384.837 168.031 384.87 164.553L368.871 164.403ZM375.47 164.27C375.679 156.498 380.309 149.552 387.699 144.9C395.145 140.214 404.452 138.512 412.304 140.581L416.382 125.109C403.717 121.772 389.886 124.618 379.176 131.359C368.409 138.136 359.862 149.498 359.476 163.84L375.47 164.27ZM365.378 249.358C366.072 250.387 366.822 251.369 367.619 252.301L379.782 241.905C379.367 241.42 378.987 240.921 378.643 240.411L365.378 249.358ZM419.807 261.842C421.611 260.885 423.345 259.763 424.975 258.463L415 245.953C414.186 246.602 413.288 247.188 412.312 247.706L419.807 261.842ZM364.853 156.092C366.9 159.208 368.301 162.291 369.28 165.444L384.56 160.7C383.156 156.178 381.129 151.726 378.227 147.308L364.853 156.092ZM368.935 162.583C368.898 163.187 368.877 163.793 368.871 164.403L384.87 164.553C384.873 164.219 384.885 163.889 384.905 163.562L368.935 162.583ZM366.343 243.96C365.754 245.34 364.946 246.579 363.616 247.87L374.76 259.351C377.618 256.577 379.636 253.571 381.057 250.246L366.343 243.96ZM433.949 257.661C429.541 255.321 425.249 252.229 421.366 248.787L410.753 260.761C415.413 264.891 420.735 268.761 426.447 271.794L433.949 257.661ZM439.199 198.342C439.377 197.623 439.545 196.892 439.704 196.149L424.057 192.806C423.933 193.386 423.803 193.952 423.667 194.503L439.199 198.342ZM486.749 215.429C488.329 216.165 489.893 216.929 491.442 217.723L498.737 203.482C497.009 202.597 495.264 201.744 493.503 200.924L486.749 215.429ZM431.866 202.478C434.791 202.483 437.742 202.647 440.613 202.908L442.062 186.973C438.818 186.679 435.385 186.484 431.895 186.478L431.866 202.478ZM431.149 163.059C430.828 164.9 430.656 166.783 430.638 168.691L446.637 168.842C446.647 167.797 446.741 166.784 446.911 165.809L431.149 163.059ZM497.467 211.919C497.628 211.266 497.785 210.594 497.937 209.904L482.315 206.449C482.189 207.017 482.062 207.561 481.934 208.08L497.467 211.919ZM412.304 140.581C415.842 141.513 419.547 144.178 423.038 148.876C426.505 153.541 429.382 159.732 431.333 166.615L446.727 162.252C444.377 153.961 440.758 145.898 435.881 139.333C431.027 132.801 424.539 127.259 416.382 125.109L412.304 140.581ZM433.438 193.677C433.254 194.826 433.03 195.923 432.769 196.964L448.285 200.867C448.669 199.342 448.984 197.784 449.237 196.204L433.438 193.677Z" fill="white" mask="url(#path-1-outside-1_4461_36221)"/>
</svg>
