<svg width="800" height="440" viewBox="0 0 800 440" fill="none" xmlns="http://www.w3.org/2000/svg">
<g clip-path="url(#clip0_4461_36071)">
<mask id="path-1-outside-1_4461_36071" maskUnits="userSpaceOnUse" x="266.004" y="24" width="270" height="417" fill="black">
<rect fill="white" x="266.004" y="24" width="270" height="417"/>
<path d="M486.17 212.629C486.353 210.582 486.523 208.534 486.682 206.485C488.824 178.887 488.954 151.057 490.837 123.496C491.926 108.225 493.015 92.9541 491.148 77.6832C489.281 62.4122 486.17 48.5436 474.347 42.9339C455.369 33.896 450.857 64.1263 449.768 76.2807C448.065 95.5149 447.441 114.904 446.821 134.139C446.818 134.227 446.816 134.316 446.813 134.404C446.19 153.726 446.346 169.465 444.013 186.606C443.578 189.799 442.965 191.922 442.26 193.223C439.183 198.907 434.357 188.931 434.99 184.113C437.479 166.66 436.857 148.428 437.635 130.82C438.412 109.783 438.879 88.591 441.368 67.7103C443.857 46.8296 452.257 28.7537 472.636 32.4935C493.015 36.2334 501.882 77.9948 501.571 99.0313C501.259 120.068 499.548 135.806 498.77 154.194C497.993 172.581 497.37 193.15 495.659 212.629C495.659 212.629 485.703 218.706 486.17 212.629Z"/>
<path d="M368.721 164.634C368.721 164.61 368.721 164.587 368.721 164.563C368.723 164.394 368.726 164.225 368.73 164.057C369.32 141.942 394.876 127.439 415.234 132.846C434.152 137.87 445.147 170.141 442.26 193.223C442.188 193.802 442.107 194.375 442.017 194.941C441.8 196.306 441.533 197.633 441.212 198.916C441.212 198.916 430.79 202.344 432.19 196.423C432.345 195.788 432.494 195.14 432.634 194.478C436.421 176.616 434.401 149.408 414.3 142.195C394.044 134.927 379.076 147.082 378.103 163.074C378.075 163.539 378.059 164.007 378.054 164.478C377.939 176.811 372.888 174.225 370.266 169.583C369.359 167.978 368.743 166.128 368.721 164.563C368.721 164.535 368.721 164.506 368.721 164.478L368.721 164.563L368.721 164.634Z"/>
<path d="M372.765 151.701C375.22 155.468 376.921 159.236 378.103 163.074C380.442 170.666 380.751 178.535 380.854 187.229C381.01 200.318 380.232 213.408 378.521 226.497C377.341 235.522 377.123 241.88 374.908 247.103C373.911 249.456 372.509 251.579 370.432 253.611C370.053 253.982 369.661 254.334 369.258 254.669C362.535 260.251 352.533 260.949 344.608 258.597C325.785 252.988 318.63 232.574 316.918 214.81C315.207 197.046 316.452 193.618 317.696 183.178C317.848 181.905 317.99 180.675 318.133 179.482C319.162 170.886 320.207 164.247 324.852 158.09C333.719 146.403 361.098 136.43 372.143 150.61C382.98 164.523 369.706 162.085 365.675 157.425C365.598 157.336 365.524 157.246 365.454 157.155C361.72 152.324 350.831 153.259 344.764 155.44C335.897 158.557 330.608 163.699 328.741 172.893C324.852 191.592 322.83 213.719 330.141 231.795C337.453 249.871 340.408 248.625 350.364 250.027C360.32 251.429 362.187 250.027 365.298 245.041C368.409 240.054 367.943 235.535 368.565 231.328C370.587 219.173 371.21 206.863 371.521 194.553C371.719 186.687 372.045 177.93 370.266 169.583C369.868 167.716 369.364 165.869 368.73 164.057C367.934 161.781 366.932 159.561 365.675 157.425C365.406 156.967 365.125 156.514 364.831 156.064C357.209 144.377 369.654 146.403 372.921 151.389L372.765 151.701Z"/>
<path d="M319.096 180.684C318.777 180.271 318.456 179.87 318.133 179.482C310.91 170.794 302.863 168.489 294.673 178.035C286.117 188.008 285.028 193.15 283.784 201.565C282.205 213.644 283.01 227.448 288.034 238.814C288.454 239.764 288.904 240.698 289.384 241.612C289.905 242.605 290.508 243.597 291.182 244.574C298.545 255.266 314.291 264.214 322.985 252.364C326.408 247.534 334.497 252.364 331.075 257.039C321.521 270.234 303.214 268.048 291.44 258.767C290.561 258.074 289.718 257.341 288.917 256.572C277.406 245.508 272.739 221.667 274.294 203.747C275.85 185.827 280.984 178.191 290.162 169.309C299.34 160.427 316.141 161.829 325.785 174.295C325.785 174.295 322.83 185.671 319.096 180.84V180.684Z"/>
<path d="M352.542 367.208C344.242 366.628 336.96 364.294 330.505 360.689C316.152 352.672 305.891 338.373 297.629 323.11C285.65 300.982 286.895 300.982 284.873 288.204C282.85 275.427 281.917 259.844 281.917 245.508C281.917 236.833 285.334 236.432 288.034 238.814C289.57 240.169 290.873 242.427 291.182 244.574C291.227 244.889 291.251 245.201 291.251 245.508C291.251 249.951 291.296 254.373 291.44 258.767C292.095 278.723 294.784 298.091 304.473 316.097C309.951 326.334 316.202 336.914 324.422 344.899C325.437 345.885 326.483 346.832 327.56 347.733C334.36 353.421 342.447 357.313 352.387 358.015C376.654 359.729 358.453 367.832 352.387 367.364L352.542 367.208Z"/>
<path d="M470.769 368.611C461.902 385.596 465.791 404.139 465.947 422.371C466.102 440.603 456.613 428.448 456.613 422.371C456.343 404.77 453.724 387.757 459.47 371.23C460.337 368.736 461.395 366.253 462.68 363.78C463.836 361.556 464.871 359.848 465.792 358.574C468.096 355.389 469.692 354.915 470.703 355.871C472.717 357.775 472.413 365.344 470.769 368.455V368.611Z"/>
<path d="M320.963 420.033C322.363 408.97 322.519 397.594 322.363 386.531C322.207 375.467 322.052 363.157 319.252 351.937C317.435 344.66 321.183 343.349 324.422 344.899C325.652 345.488 326.809 346.489 327.56 347.733C327.881 348.264 328.127 348.838 328.274 349.444C329.174 353.101 329.913 356.86 330.505 360.689C333.497 380.028 332.764 401.147 330.297 419.878C327.341 442.317 320.185 425.955 320.963 419.878V420.033Z"/>
<path d="M427.367 258.909C420.361 264.548 411.465 267.369 402.426 267.587C390.182 267.882 377.678 263.399 369.258 254.669C367.746 253.102 366.366 251.398 365.143 249.56C364.536 246.65 369.809 239.898 373.232 244.885C373.747 245.655 374.307 246.395 374.908 247.103C384.371 258.262 403.924 261.728 416.936 254.774C418.316 254.037 419.621 253.183 420.834 252.209C420.834 252.209 432.034 255.169 427.367 258.909Z"/>
<path d="M432.968 264.363C432.297 264.472 431.629 264.594 430.964 264.728C420.23 266.895 410.379 272.315 402.322 279.946C393.766 288.049 388.166 295.84 388.944 304.878C389.721 313.916 380.077 310.955 379.61 304.878C378.676 294.126 386.921 282.127 394.077 274.803C396.658 272.218 399.456 269.794 402.426 267.587C410.733 261.414 420.395 256.932 430.479 255.325C430.479 255.325 438.879 263.428 432.968 264.363Z"/>
<path d="M438.723 284.309C438.723 279.322 437.635 274.492 437.635 269.505C437.635 268.895 437.772 268.343 438.013 267.856C439.745 264.359 446.832 264.172 446.968 269.505C446.976 269.819 446.986 270.127 446.998 270.429C447.218 275.972 448.057 279.58 448.057 284.309C448.057 289.295 438.879 290.386 438.723 284.309Z"/>
<path d="M445.257 364.404C452.351 363.992 459.257 361.844 465.792 358.574C467.454 357.742 469.092 356.838 470.703 355.871C481.926 349.135 491.833 339.364 499.393 329.966C516.038 309.241 523.194 284.932 516.038 259.065C508.882 233.198 508.104 235.691 500.637 226.341C493.326 217.148 479.636 213.096 468.902 209.668C458.169 206.24 444.324 203.591 431.723 203.747C419.123 203.902 415.078 203.747 410.722 210.136C403.1 221.511 411.811 235.847 419.745 244.417C427.679 252.988 430.323 253.923 436.701 257.195C443.079 260.467 451.324 261.558 458.635 263.584C465.947 265.61 462.058 274.18 456.146 272.622C453.528 271.932 450.33 271.241 446.998 270.429C444.003 269.7 440.901 268.871 438.013 267.856C436.861 267.45 435.742 267.015 434.679 266.545C433.428 265.991 432.189 265.383 430.964 264.728C425.944 262.042 421.174 258.56 416.936 254.774C416.678 254.543 416.421 254.311 416.167 254.078C406.833 245.508 398.277 233.042 398.433 219.797C398.673 199.236 415.862 194.448 432.634 194.478C435.816 194.484 438.983 194.663 442.017 194.941C443.716 195.097 445.374 195.283 446.968 195.488C460.605 197.259 474.037 200.98 486.682 206.485C489.615 207.763 492.507 209.136 495.348 210.603C510.438 218.394 512.927 226.653 518.216 238.028C531.127 266.077 532.061 295.217 516.193 322.175C504.206 342.536 483.378 363.771 459.47 371.23C454.834 372.677 450.082 373.605 445.257 373.909C415.545 375.779 439.19 364.871 445.257 364.559V364.404Z"/>
<path d="M369.258 254.669C362.535 260.251 352.533 260.949 344.608 258.597C325.785 252.988 318.63 232.574 316.918 214.81C315.207 197.046 316.452 193.618 317.696 183.178C317.848 181.905 317.99 180.675 318.133 179.482C310.91 170.794 302.863 168.489 294.673 178.035C286.117 188.008 285.028 193.15 283.784 201.565C282.205 213.644 283.01 227.448 288.034 238.814C289.57 240.169 290.873 242.427 291.182 244.574C298.545 255.266 314.291 264.214 322.985 252.364C326.408 247.534 334.497 252.364 331.075 257.039C321.521 270.234 303.214 268.048 291.44 258.767C292.095 278.723 294.784 298.091 304.473 316.097C309.951 326.334 316.202 336.914 324.422 344.899C325.652 345.488 326.809 346.489 327.56 347.733C334.36 353.421 342.447 357.313 352.387 358.015C376.654 359.729 358.453 367.832 352.387 367.364L352.542 367.208C344.242 366.628 336.96 364.294 330.505 360.689C333.497 380.028 332.764 401.147 330.297 419.878L456.613 422.371C456.343 404.77 453.724 387.757 459.47 371.23C454.834 372.677 450.082 373.605 445.257 373.909C415.545 375.779 439.19 364.871 445.257 364.559V364.404C452.351 363.992 459.257 361.844 465.792 358.574C468.096 355.389 469.692 354.915 470.703 355.871C481.926 349.135 491.833 339.364 499.393 329.966C516.038 309.241 523.194 284.932 516.038 259.065C508.882 233.198 508.104 235.691 500.637 226.341C493.326 217.148 479.636 213.096 468.902 209.668C458.169 206.24 444.324 203.591 431.723 203.747C419.123 203.902 415.078 203.747 410.722 210.136C403.1 221.511 411.811 235.847 419.745 244.417C427.679 252.988 430.323 253.923 436.701 257.195C443.079 260.467 451.324 261.558 458.635 263.584C465.947 265.61 462.058 274.18 456.146 272.622C453.528 271.932 450.33 271.241 446.998 270.429C447.218 275.972 448.057 279.58 448.057 284.309C448.057 289.295 438.879 290.386 438.723 284.309C438.723 279.322 437.635 274.492 437.635 269.505C437.635 268.895 437.772 268.343 438.013 267.856C436.861 267.45 435.742 267.015 434.679 266.545C433.428 265.991 432.189 265.383 430.964 264.728C420.23 266.895 410.379 272.315 402.322 279.946C393.766 288.049 388.166 295.84 388.944 304.878C389.721 313.916 380.077 310.955 379.61 304.878C378.676 294.126 386.921 282.127 394.077 274.803C396.658 272.218 399.456 269.794 402.426 267.587C390.182 267.882 377.678 263.399 369.258 254.669Z"/>
<path d="M368.721 164.563C368.721 164.587 368.721 164.61 368.721 164.634V164.478C368.721 164.506 368.721 164.535 368.721 164.563C368.723 164.394 368.726 164.225 368.73 164.057C367.934 161.781 366.932 159.561 365.675 157.425C365.598 157.336 365.524 157.246 365.454 157.155C361.72 152.324 350.831 153.259 344.764 155.44C335.897 158.557 330.608 163.699 328.741 172.893C324.852 191.592 322.83 213.719 330.141 231.795C337.453 249.871 340.408 248.625 350.364 250.027C360.32 251.429 362.187 250.027 365.298 245.041C368.409 240.054 367.943 235.535 368.565 231.328C370.587 219.173 371.21 206.863 371.521 194.553C371.719 186.687 372.045 177.93 370.266 169.583C369.359 167.978 368.743 166.128 368.721 164.563Z"/>
<path d="M432.634 194.478C436.421 176.616 434.401 149.408 414.3 142.195C394.044 134.927 379.076 147.082 378.103 163.074C380.442 170.666 380.751 178.535 380.854 187.229C381.01 200.318 380.232 213.408 378.521 226.497C377.341 235.522 377.123 241.88 374.908 247.103C384.371 258.262 403.924 261.728 416.936 254.774C416.678 254.543 416.421 254.311 416.167 254.078C406.833 245.508 398.277 233.042 398.433 219.797C398.673 199.236 415.862 194.448 432.634 194.478Z"/>
<path d="M486.682 206.485C488.824 178.887 488.954 151.057 490.837 123.496C491.926 108.225 493.015 92.9541 491.148 77.6832C489.281 62.4122 486.17 48.5436 474.347 42.9339C455.369 33.896 450.857 64.1263 449.768 76.2807C448.065 95.5149 447.441 114.904 446.821 134.139L446.813 134.404C446.19 153.726 446.346 169.465 444.013 186.606C443.578 189.799 442.965 191.922 442.26 193.223C442.188 193.802 442.107 194.375 442.017 194.941C443.716 195.097 445.374 195.283 446.968 195.488C460.605 197.259 474.037 200.98 486.682 206.485Z"/>
</mask>
<path d="M486.17 212.629C486.353 210.582 486.523 208.534 486.682 206.485C488.824 178.887 488.954 151.057 490.837 123.496C491.926 108.225 493.015 92.9541 491.148 77.6832C489.281 62.4122 486.17 48.5436 474.347 42.9339C455.369 33.896 450.857 64.1263 449.768 76.2807C448.065 95.5149 447.441 114.904 446.821 134.139C446.818 134.227 446.816 134.316 446.813 134.404C446.19 153.726 446.346 169.465 444.013 186.606C443.578 189.799 442.965 191.922 442.26 193.223C439.183 198.907 434.357 188.931 434.99 184.113C437.479 166.66 436.857 148.428 437.635 130.82C438.412 109.783 438.879 88.591 441.368 67.7103C443.857 46.8296 452.257 28.7537 472.636 32.4935C493.015 36.2334 501.882 77.9948 501.571 99.0313C501.259 120.068 499.548 135.806 498.77 154.194C497.993 172.581 497.37 193.15 495.659 212.629C495.659 212.629 485.703 218.706 486.17 212.629Z" fill="#222221"/>
<path d="M368.721 164.634C368.721 164.61 368.721 164.587 368.721 164.563C368.723 164.394 368.726 164.225 368.73 164.057C369.32 141.942 394.876 127.439 415.234 132.846C434.152 137.87 445.147 170.141 442.26 193.223C442.188 193.802 442.107 194.375 442.017 194.941C441.8 196.306 441.533 197.633 441.212 198.916C441.212 198.916 430.79 202.344 432.19 196.423C432.345 195.788 432.494 195.14 432.634 194.478C436.421 176.616 434.401 149.408 414.3 142.195C394.044 134.927 379.076 147.082 378.103 163.074C378.075 163.539 378.059 164.007 378.054 164.478C377.939 176.811 372.888 174.225 370.266 169.583C369.359 167.978 368.743 166.128 368.721 164.563C368.721 164.535 368.721 164.506 368.721 164.478L368.721 164.563L368.721 164.634Z" fill="#222221"/>
<path d="M372.765 151.701C375.22 155.468 376.921 159.236 378.103 163.074C380.442 170.666 380.751 178.535 380.854 187.229C381.01 200.318 380.232 213.408 378.521 226.497C377.341 235.522 377.123 241.88 374.908 247.103C373.911 249.456 372.509 251.579 370.432 253.611C370.053 253.982 369.661 254.334 369.258 254.669C362.535 260.251 352.533 260.949 344.608 258.597C325.785 252.988 318.63 232.574 316.918 214.81C315.207 197.046 316.452 193.618 317.696 183.178C317.848 181.905 317.99 180.675 318.133 179.482C319.162 170.886 320.207 164.247 324.852 158.09C333.719 146.403 361.098 136.43 372.143 150.61C382.98 164.523 369.706 162.085 365.675 157.425C365.598 157.336 365.524 157.246 365.454 157.155C361.72 152.324 350.831 153.259 344.764 155.44C335.897 158.557 330.608 163.699 328.741 172.893C324.852 191.592 322.83 213.719 330.141 231.795C337.453 249.871 340.408 248.625 350.364 250.027C360.32 251.429 362.187 250.027 365.298 245.041C368.409 240.054 367.943 235.535 368.565 231.328C370.587 219.173 371.21 206.863 371.521 194.553C371.719 186.687 372.045 177.93 370.266 169.583C369.868 167.716 369.364 165.869 368.73 164.057C367.934 161.781 366.932 159.561 365.675 157.425C365.406 156.967 365.125 156.514 364.831 156.064C357.209 144.377 369.654 146.403 372.921 151.389L372.765 151.701Z" fill="#222221"/>
<path d="M319.096 180.684C318.777 180.271 318.456 179.87 318.133 179.482C310.91 170.794 302.863 168.489 294.673 178.035C286.117 188.008 285.028 193.15 283.784 201.565C282.205 213.644 283.01 227.448 288.034 238.814C288.454 239.764 288.904 240.698 289.384 241.612C289.905 242.605 290.508 243.597 291.182 244.574C298.545 255.266 314.291 264.214 322.985 252.364C326.408 247.534 334.497 252.364 331.075 257.039C321.521 270.234 303.214 268.048 291.44 258.767C290.561 258.074 289.718 257.341 288.917 256.572C277.406 245.508 272.739 221.667 274.294 203.747C275.85 185.827 280.984 178.191 290.162 169.309C299.34 160.427 316.141 161.829 325.785 174.295C325.785 174.295 322.83 185.671 319.096 180.84V180.684Z" fill="#222221"/>
<path d="M352.542 367.208C344.242 366.628 336.96 364.294 330.505 360.689C316.152 352.672 305.891 338.373 297.629 323.11C285.65 300.982 286.895 300.982 284.873 288.204C282.85 275.427 281.917 259.844 281.917 245.508C281.917 236.833 285.334 236.432 288.034 238.814C289.57 240.169 290.873 242.427 291.182 244.574C291.227 244.889 291.251 245.201 291.251 245.508C291.251 249.951 291.296 254.373 291.44 258.767C292.095 278.723 294.784 298.091 304.473 316.097C309.951 326.334 316.202 336.914 324.422 344.899C325.437 345.885 326.483 346.832 327.56 347.733C334.36 353.421 342.447 357.313 352.387 358.015C376.654 359.729 358.453 367.832 352.387 367.364L352.542 367.208Z" fill="#222221"/>
<path d="M470.769 368.611C461.902 385.596 465.791 404.139 465.947 422.371C466.102 440.603 456.613 428.448 456.613 422.371C456.343 404.77 453.724 387.757 459.47 371.23C460.337 368.736 461.395 366.253 462.68 363.78C463.836 361.556 464.871 359.848 465.792 358.574C468.096 355.389 469.692 354.915 470.703 355.871C472.717 357.775 472.413 365.344 470.769 368.455V368.611Z" fill="#222221"/>
<path d="M320.963 420.033C322.363 408.97 322.519 397.594 322.363 386.531C322.207 375.467 322.052 363.157 319.252 351.937C317.435 344.66 321.183 343.349 324.422 344.899C325.652 345.488 326.809 346.489 327.56 347.733C327.881 348.264 328.127 348.838 328.274 349.444C329.174 353.101 329.913 356.86 330.505 360.689C333.497 380.028 332.764 401.147 330.297 419.878C327.341 442.317 320.185 425.955 320.963 419.878V420.033Z" fill="#222221"/>
<path d="M427.367 258.909C420.361 264.548 411.465 267.369 402.426 267.587C390.182 267.882 377.678 263.399 369.258 254.669C367.746 253.102 366.366 251.398 365.143 249.56C364.536 246.65 369.809 239.898 373.232 244.885C373.747 245.655 374.307 246.395 374.908 247.103C384.371 258.262 403.924 261.728 416.936 254.774C418.316 254.037 419.621 253.183 420.834 252.209C420.834 252.209 432.034 255.169 427.367 258.909Z" fill="#222221"/>
<path d="M432.968 264.363C432.297 264.472 431.629 264.594 430.964 264.728C420.23 266.895 410.379 272.315 402.322 279.946C393.766 288.049 388.166 295.84 388.944 304.878C389.721 313.916 380.077 310.955 379.61 304.878C378.676 294.126 386.921 282.127 394.077 274.803C396.658 272.218 399.456 269.794 402.426 267.587C410.733 261.414 420.395 256.932 430.479 255.325C430.479 255.325 438.879 263.428 432.968 264.363Z" fill="#222221"/>
<path d="M438.723 284.309C438.723 279.322 437.635 274.492 437.635 269.505C437.635 268.895 437.772 268.343 438.013 267.856C439.745 264.359 446.832 264.172 446.968 269.505C446.976 269.819 446.986 270.127 446.998 270.429C447.218 275.972 448.057 279.58 448.057 284.309C448.057 289.295 438.879 290.386 438.723 284.309Z" fill="#222221"/>
<path d="M445.257 364.404C452.351 363.992 459.257 361.844 465.792 358.574C467.454 357.742 469.092 356.838 470.703 355.871C481.926 349.135 491.833 339.364 499.393 329.966C516.038 309.241 523.194 284.932 516.038 259.065C508.882 233.198 508.104 235.691 500.637 226.341C493.326 217.148 479.636 213.096 468.902 209.668C458.169 206.24 444.324 203.591 431.723 203.747C419.123 203.902 415.078 203.747 410.722 210.136C403.1 221.511 411.811 235.847 419.745 244.417C427.679 252.988 430.323 253.923 436.701 257.195C443.079 260.467 451.324 261.558 458.635 263.584C465.947 265.61 462.058 274.18 456.146 272.622C453.528 271.932 450.33 271.241 446.998 270.429C444.003 269.7 440.901 268.871 438.013 267.856C436.861 267.45 435.742 267.015 434.679 266.545C433.428 265.991 432.189 265.383 430.964 264.728C425.944 262.042 421.174 258.56 416.936 254.774C416.678 254.543 416.421 254.311 416.167 254.078C406.833 245.508 398.277 233.042 398.433 219.797C398.673 199.236 415.862 194.448 432.634 194.478C435.816 194.484 438.983 194.663 442.017 194.941C443.716 195.097 445.374 195.283 446.968 195.488C460.605 197.259 474.037 200.98 486.682 206.485C489.615 207.763 492.507 209.136 495.348 210.603C510.438 218.394 512.927 226.653 518.216 238.028C531.127 266.077 532.061 295.217 516.193 322.175C504.206 342.536 483.378 363.771 459.47 371.23C454.834 372.677 450.082 373.605 445.257 373.909C415.545 375.779 439.19 364.871 445.257 364.559V364.404Z" fill="#222221"/>
<path d="M369.258 254.669C362.535 260.251 352.533 260.949 344.608 258.597C325.785 252.988 318.63 232.574 316.918 214.81C315.207 197.046 316.452 193.618 317.696 183.178C317.848 181.905 317.99 180.675 318.133 179.482C310.91 170.794 302.863 168.489 294.673 178.035C286.117 188.008 285.028 193.15 283.784 201.565C282.205 213.644 283.01 227.448 288.034 238.814C289.57 240.169 290.873 242.427 291.182 244.574C298.545 255.266 314.291 264.214 322.985 252.364C326.408 247.534 334.497 252.364 331.075 257.039C321.521 270.234 303.214 268.048 291.44 258.767C292.095 278.723 294.784 298.091 304.473 316.097C309.951 326.334 316.202 336.914 324.422 344.899C325.652 345.488 326.809 346.489 327.56 347.733C334.36 353.421 342.447 357.313 352.387 358.015C376.654 359.729 358.453 367.832 352.387 367.364L352.542 367.208C344.242 366.628 336.96 364.294 330.505 360.689C333.497 380.028 332.764 401.147 330.297 419.878L456.613 422.371C456.343 404.77 453.724 387.757 459.47 371.23C454.834 372.677 450.082 373.605 445.257 373.909C415.545 375.779 439.19 364.871 445.257 364.559V364.404C452.351 363.992 459.257 361.844 465.792 358.574C468.096 355.389 469.692 354.915 470.703 355.871C481.926 349.135 491.833 339.364 499.393 329.966C516.038 309.241 523.194 284.932 516.038 259.065C508.882 233.198 508.104 235.691 500.637 226.341C493.326 217.148 479.636 213.096 468.902 209.668C458.169 206.24 444.324 203.591 431.723 203.747C419.123 203.902 415.078 203.747 410.722 210.136C403.1 221.511 411.811 235.847 419.745 244.417C427.679 252.988 430.323 253.923 436.701 257.195C443.079 260.467 451.324 261.558 458.635 263.584C465.947 265.61 462.058 274.18 456.146 272.622C453.528 271.932 450.33 271.241 446.998 270.429C447.218 275.972 448.057 279.58 448.057 284.309C448.057 289.295 438.879 290.386 438.723 284.309C438.723 279.322 437.635 274.492 437.635 269.505C437.635 268.895 437.772 268.343 438.013 267.856C436.861 267.45 435.742 267.015 434.679 266.545C433.428 265.991 432.189 265.383 430.964 264.728C420.23 266.895 410.379 272.315 402.322 279.946C393.766 288.049 388.166 295.84 388.944 304.878C389.721 313.916 380.077 310.955 379.61 304.878C378.676 294.126 386.921 282.127 394.077 274.803C396.658 272.218 399.456 269.794 402.426 267.587C390.182 267.882 377.678 263.399 369.258 254.669Z" fill="#C0AB7F"/>
<path d="M368.721 164.563C368.721 164.587 368.721 164.61 368.721 164.634V164.478C368.721 164.506 368.721 164.535 368.721 164.563C368.723 164.394 368.726 164.225 368.73 164.057C367.934 161.781 366.932 159.561 365.675 157.425C365.598 157.336 365.524 157.246 365.454 157.155C361.72 152.324 350.831 153.259 344.764 155.44C335.897 158.557 330.608 163.699 328.741 172.893C324.852 191.592 322.83 213.719 330.141 231.795C337.453 249.871 340.408 248.625 350.364 250.027C360.32 251.429 362.187 250.027 365.298 245.041C368.409 240.054 367.943 235.535 368.565 231.328C370.587 219.173 371.21 206.863 371.521 194.553C371.719 186.687 372.045 177.93 370.266 169.583C369.359 167.978 368.743 166.128 368.721 164.563Z" fill="#C0AB7F"/>
<path d="M432.634 194.478C436.421 176.616 434.401 149.408 414.3 142.195C394.044 134.927 379.076 147.082 378.103 163.074C380.442 170.666 380.751 178.535 380.854 187.229C381.01 200.318 380.232 213.408 378.521 226.497C377.341 235.522 377.123 241.88 374.908 247.103C384.371 258.262 403.924 261.728 416.936 254.774C416.678 254.543 416.421 254.311 416.167 254.078C406.833 245.508 398.277 233.042 398.433 219.797C398.673 199.236 415.862 194.448 432.634 194.478Z" fill="#C0AB7F"/>
<path d="M486.682 206.485C488.824 178.887 488.954 151.057 490.837 123.496C491.926 108.225 493.015 92.9541 491.148 77.6832C489.281 62.4122 486.17 48.5436 474.347 42.9339C455.369 33.896 450.857 64.1263 449.768 76.2807C448.065 95.5149 447.441 114.904 446.821 134.139L446.813 134.404C446.19 153.726 446.346 169.465 444.013 186.606C443.578 189.799 442.965 191.922 442.26 193.223C442.188 193.802 442.107 194.375 442.017 194.941C443.716 195.097 445.374 195.283 446.968 195.488C460.605 197.259 474.037 200.98 486.682 206.485Z" fill="#C0AB7F"/>
<path d="M490.837 123.496L486.847 123.212L486.846 123.224L490.837 123.496ZM491.148 77.6832L495.118 77.1978L491.148 77.6832ZM474.347 42.9339L472.627 46.5453L472.632 46.5477L474.347 42.9339ZM449.768 76.2807L445.784 75.9238L445.784 75.9279L449.768 76.2807ZM444.013 186.606L447.976 187.145L444.013 186.606ZM414.3 142.195L412.949 145.96L414.3 142.195ZM380.854 187.229L384.854 187.181L380.854 187.229ZM378.521 226.497L382.487 227.016L378.521 226.497ZM344.608 258.597L343.466 262.431L343.47 262.432L344.608 258.597ZM316.918 214.81L312.937 215.194L316.918 214.81ZM317.696 183.178L321.668 183.651L317.696 183.178ZM365.454 157.155L362.289 159.601L362.289 159.601L365.454 157.155ZM344.764 155.44L346.09 159.214L346.104 159.209L346.117 159.205L344.764 155.44ZM328.741 172.893L332.657 173.707L332.659 173.698L332.661 173.689L328.741 172.893ZM330.141 231.795L333.849 230.295L330.141 231.795ZM350.364 250.027L349.806 253.988L350.364 250.027ZM365.298 245.041L361.905 242.923V242.923L365.298 245.041ZM368.565 231.328L364.619 230.671L364.613 230.707L364.608 230.743L368.565 231.328ZM371.521 194.553L367.522 194.452L371.521 194.553ZM294.673 178.035L291.637 175.431L294.673 178.035ZM283.784 201.565L279.827 200.98L279.822 201.013L279.817 201.047L283.784 201.565ZM322.985 252.364L326.21 254.731L326.23 254.704L326.249 254.677L322.985 252.364ZM331.075 257.039L327.847 254.676L327.841 254.685L327.835 254.693L331.075 257.039ZM352.542 367.208L355.373 370.034L361.566 363.829L352.821 363.218L352.542 367.208ZM304.473 316.097L308 314.21L307.996 314.202L304.473 316.097ZM352.387 358.015L352.105 362.005L352.387 358.015ZM352.387 367.364L349.555 364.539L343.421 370.685L352.079 371.352L352.387 367.364ZM402.322 279.946L399.571 277.041L402.322 279.946ZM388.944 304.878L384.958 305.221L388.944 304.878ZM379.61 304.878L383.598 304.572L383.597 304.552L383.595 304.532L379.61 304.878ZM394.077 274.803L391.246 271.977L391.231 271.993L391.216 272.008L394.077 274.803ZM438.723 284.309H434.723V284.36L434.725 284.411L438.723 284.309ZM445.257 364.404L445.025 360.41L441.257 360.629V364.404H445.257ZM499.393 329.966L502.509 332.473L502.511 332.471L499.393 329.966ZM516.038 259.065L512.183 260.131L516.038 259.065ZM500.637 226.341L497.506 228.831L497.512 228.838L500.637 226.341ZM468.902 209.668L467.686 213.478L468.902 209.668ZM431.723 203.747L431.773 207.746L431.723 203.747ZM410.722 210.136L407.417 207.882L407.408 207.896L407.399 207.909L410.722 210.136ZM456.146 272.622L457.166 268.754L456.146 272.622ZM434.679 266.545L433.06 270.202H433.06L434.679 266.545ZM416.167 254.078L413.462 257.025L413.465 257.028L416.167 254.078ZM398.433 219.797L402.433 219.844V219.843L398.433 219.797ZM446.968 195.488L447.483 191.521L447.477 191.52L446.968 195.488ZM445.257 373.909L445.006 369.917L445.257 373.909ZM445.257 364.559L445.462 368.554L449.257 368.359V364.559H445.257ZM369.258 254.669L372.137 251.892L369.559 249.22L366.703 251.592L369.258 254.669ZM318.133 179.482L322.105 179.957L322.309 178.248L321.209 176.925L318.133 179.482ZM288.034 238.814L284.375 240.431L284.729 241.233L285.387 241.813L288.034 238.814ZM291.182 244.574L287.222 245.143L287.355 246.071L287.887 246.843L291.182 244.574ZM291.44 258.767L293.917 255.626L287.16 250.3L287.443 258.899L291.44 258.767ZM324.422 344.899L321.635 347.769L322.105 348.225L322.695 348.507L324.422 344.899ZM327.56 347.733L324.136 349.801L324.481 350.373L324.994 350.801L327.56 347.733ZM330.505 360.689L332.455 357.196L325.299 353.199L326.552 361.3L330.505 360.689ZM459.47 371.23L463.248 372.544L465.854 365.048L458.278 367.412L459.47 371.23ZM465.792 358.574L467.582 362.151L468.459 361.713L469.033 360.918L465.792 358.574ZM470.703 355.871L467.955 358.778L470.16 360.862L472.762 359.301L470.703 355.871ZM446.998 270.429L447.946 266.543L442.792 265.287L443.001 270.588L446.998 270.429ZM438.013 267.856L441.598 269.631L443.604 265.582L439.34 264.082L438.013 267.856ZM430.964 264.728L432.851 261.201L431.583 260.522L430.172 260.807L430.964 264.728ZM402.426 267.587L404.812 270.797L414.922 263.285L402.33 263.588L402.426 267.587ZM368.73 164.057L372.729 164.163L372.748 163.429L372.506 162.736L368.73 164.057ZM365.675 157.425L369.123 155.396L368.938 155.083L368.701 154.808L365.675 157.425ZM370.266 169.583L374.178 168.749L374.05 168.15L373.749 167.616L370.266 169.583ZM432.634 194.478L432.627 198.478L435.874 198.484L436.547 195.308L432.634 194.478ZM378.103 163.074L374.111 162.831L374.067 163.557L374.281 164.251L378.103 163.074ZM374.908 247.103L371.226 245.542L370.264 247.811L371.858 249.69L374.908 247.103ZM416.936 254.774L418.822 258.302L423.87 255.604L419.601 251.791L416.936 254.774ZM486.682 206.485L485.085 210.153L490.235 212.395L490.67 206.795L486.682 206.485ZM442.26 193.223L438.743 191.319L438.384 191.981L438.291 192.727L442.26 193.223ZM442.017 194.941L438.066 194.314L437.396 198.534L441.652 198.924L442.017 194.941ZM494.827 123.781C495.911 108.574 497.04 92.9164 495.118 77.1978L487.177 78.1685C488.989 92.9918 487.94 107.876 486.847 123.212L494.827 123.781ZM495.118 77.1978C494.18 69.5186 492.889 61.7766 490.183 55.1695C487.437 48.4666 483.127 42.6722 476.062 39.3201L472.632 46.5477C477.39 48.8053 480.547 52.75 482.779 58.2016C485.051 63.7489 486.249 70.5767 487.177 78.1685L495.118 77.1978ZM476.067 39.3225C470.384 36.6161 465.143 36.6264 460.689 39.138C456.508 41.4955 453.677 45.7016 451.712 49.9959C447.77 58.6105 446.333 69.7999 445.784 75.9238L453.752 76.6377C454.293 70.607 455.656 60.6041 458.986 53.3244C460.658 49.6716 462.581 47.2551 464.618 46.1065C466.382 45.112 468.821 44.7327 472.627 46.5453L476.067 39.3225ZM442.815 134.275C442.186 153.803 442.346 169.196 440.049 186.066L447.976 187.145C450.346 169.734 450.195 153.649 450.811 134.533L442.815 134.275ZM376.855 187.277C377.008 200.175 376.242 213.075 374.555 225.979L382.487 227.016C384.223 213.74 385.012 200.462 384.854 187.181L376.855 187.277ZM345.751 254.764C337.595 252.334 331.847 246.696 327.862 239.354C323.845 231.953 321.724 222.98 320.9 214.427L312.937 215.194C313.824 224.405 316.136 234.521 320.831 243.17C325.557 251.878 332.798 259.252 343.466 262.431L345.751 254.764ZM320.9 214.427C320.055 205.656 319.956 200.58 320.192 196.478C320.436 192.251 321.015 189.133 321.668 183.651L313.724 182.704C313.133 187.662 312.467 191.479 312.206 196.017C311.937 200.68 312.07 206.201 312.937 215.194L320.9 214.427ZM368.619 154.708C365.583 150.781 360.28 149.773 356.083 149.669C351.623 149.559 346.892 150.424 343.41 151.676L346.117 159.205C348.703 158.275 352.45 157.582 355.885 157.667C359.583 157.758 361.591 158.698 362.289 159.601L368.619 154.708ZM343.438 151.667C338.599 153.367 334.444 155.723 331.218 159.143C327.964 162.592 325.879 166.888 324.821 172.097L332.661 173.689C333.47 169.704 334.963 166.832 337.037 164.632C339.139 162.404 342.062 160.63 346.09 159.214L343.438 151.667ZM324.825 172.079C320.903 190.937 318.654 214.064 326.433 233.295L333.849 230.295C327.005 213.375 328.801 192.247 332.657 173.707L324.825 172.079ZM326.433 233.295C330.057 242.254 332.969 247.512 336.897 250.39C338.964 251.905 341.099 252.616 343.238 253.049C345.175 253.441 347.607 253.678 349.806 253.988L350.922 246.066C348.143 245.675 346.473 245.542 344.826 245.208C343.383 244.916 342.455 244.545 341.625 243.937C339.758 242.569 337.537 239.413 333.849 230.295L326.433 233.295ZM349.806 253.988C354.77 254.687 358.662 254.869 361.82 253.668C365.268 252.357 367.111 249.691 368.692 247.158L361.905 242.923C360.374 245.376 359.728 245.905 358.976 246.191C357.934 246.587 355.914 246.769 350.922 246.066L349.806 253.988ZM368.692 247.158C372.391 241.229 372.054 235.079 372.522 231.913L364.608 230.743C363.832 235.991 364.428 238.88 361.905 242.923L368.692 247.158ZM372.511 231.984C374.58 219.547 375.207 207.012 375.519 194.654L367.522 194.452C367.212 206.714 366.595 218.799 364.619 230.671L372.511 231.984ZM291.637 175.431C287.198 180.605 284.509 184.741 282.796 188.843C281.088 192.93 280.451 196.759 279.827 200.98L287.741 202.15C288.361 197.957 288.89 195.007 290.177 191.926C291.459 188.86 293.592 185.438 297.709 180.64L291.637 175.431ZM326.249 254.677C326.365 254.514 326.453 254.452 326.494 254.428C326.539 254.401 326.598 254.378 326.687 254.367C326.896 254.339 327.236 254.39 327.57 254.586C327.92 254.791 327.955 254.966 327.925 254.874C327.904 254.808 327.892 254.708 327.91 254.609C327.927 254.513 327.95 254.535 327.847 254.676L334.302 259.402C335.871 257.259 336.287 254.759 335.546 252.44C334.856 250.279 333.296 248.671 331.623 247.688C328.351 245.766 322.965 245.474 319.721 250.052L326.249 254.677ZM352.105 362.005C355.026 362.211 357.2 362.507 358.773 362.841C359.556 363.007 360.154 363.175 360.599 363.33C361.052 363.489 361.288 363.613 361.379 363.669C361.477 363.73 361.319 363.656 361.116 363.374C360.883 363.051 360.665 362.55 360.652 361.936C360.639 361.356 360.815 360.943 360.919 360.754C361.016 360.577 361.079 360.539 360.994 360.62C360.81 360.797 360.375 361.119 359.62 361.507C358.899 361.879 358.03 362.237 357.103 362.544C356.178 362.849 355.254 363.084 354.435 363.227C353.582 363.376 352.995 363.399 352.694 363.376L352.079 371.352C354.369 371.529 357.233 370.927 359.614 370.14C361.966 369.362 364.74 368.112 366.53 366.395C367.387 365.573 368.698 363.993 368.65 361.763C368.596 359.286 366.95 357.706 365.577 356.859C364.201 356.011 362.428 355.438 360.433 355.015C358.38 354.579 355.814 354.247 352.668 354.025L352.105 362.005ZM355.218 370.19L355.373 370.034L349.711 364.383L349.555 364.539L355.218 370.19ZM399.571 277.041C390.942 285.214 384.008 294.177 384.958 305.221L392.929 304.535C392.324 297.503 396.59 290.883 405.072 282.85L399.571 277.041ZM384.958 305.221C385.102 306.888 384.683 307.119 384.895 306.881C385.004 306.759 385.16 306.665 385.303 306.621C385.425 306.585 385.455 306.609 385.36 306.594C385.133 306.558 384.676 306.373 384.251 305.933C383.853 305.521 383.634 305.043 383.598 304.572L375.622 305.184C376.008 310.22 380.071 313.865 384.127 314.498C386.331 314.842 388.959 314.342 390.863 312.209C392.679 310.175 393.174 307.387 392.929 304.535L384.958 305.221ZM383.595 304.532C383.223 300.247 384.678 295.369 387.33 290.455C389.955 285.592 393.56 281.057 396.938 277.599L391.216 272.008C387.439 275.874 383.343 281 380.29 286.655C377.265 292.26 375.063 298.757 375.625 305.224L383.595 304.532ZM442.723 284.309C442.723 281.558 442.423 278.885 442.155 276.466C441.878 273.976 441.635 271.741 441.635 269.505H433.635C433.635 272.256 433.935 274.929 434.203 277.348C434.48 279.838 434.723 282.073 434.723 284.309H442.723ZM444.057 284.309C444.057 284.311 444.057 284.294 444.064 284.264C444.072 284.234 444.083 284.205 444.095 284.18C444.122 284.128 444.135 284.133 444.082 284.176C443.948 284.286 443.629 284.44 443.213 284.465C442.795 284.489 442.639 284.367 442.677 284.396C442.709 284.421 442.744 284.463 442.76 284.497C442.775 284.527 442.728 284.455 442.722 284.206L434.725 284.411C434.792 287.045 435.901 289.286 437.818 290.752C439.62 292.129 441.789 292.562 443.684 292.451C447.12 292.248 452.057 289.788 452.057 284.309H444.057ZM502.511 332.471C519.8 310.945 527.455 285.336 519.893 257.998L512.183 260.131C518.932 284.529 512.276 307.537 496.274 327.461L502.511 332.471ZM519.893 257.998C516.336 245.14 514.248 238.859 511.981 234.622C510.8 232.415 509.601 230.813 508.263 229.204C506.868 227.526 505.629 226.182 503.763 223.845L497.512 228.838C499.379 231.176 501.037 233.026 502.111 234.318C503.243 235.68 504.086 236.825 504.927 238.396C506.705 241.717 508.584 247.123 512.183 260.131L519.893 257.998ZM503.768 223.852C499.553 218.551 493.658 214.916 487.714 212.204C481.77 209.492 475.402 207.545 470.119 205.858L467.686 213.478C473.136 215.219 478.98 217.012 484.393 219.482C489.804 221.951 494.41 224.938 497.506 228.831L503.768 223.852ZM470.119 205.858C459.074 202.33 444.796 199.585 431.674 199.747L431.773 207.746C443.852 207.597 457.263 210.15 467.686 213.478L470.119 205.858ZM431.674 199.747C425.64 199.822 420.868 199.8 417.165 200.722C412.909 201.781 410.039 204.036 407.417 207.882L414.027 212.389C415.761 209.846 417.092 208.984 419.097 208.485C421.655 207.849 425.206 207.828 431.773 207.746L431.674 199.747ZM407.399 207.909C402.638 215.014 403.159 222.891 405.642 229.699C408.106 236.453 412.638 242.628 416.809 247.135L422.68 241.7C418.918 237.636 415.128 232.358 413.158 226.958C411.207 221.611 411.184 216.633 414.045 212.362L407.399 207.909ZM416.809 247.135C420.865 251.515 423.73 254.123 426.513 256.07C429.25 257.985 431.842 259.198 434.875 260.754L438.527 253.636C435.182 251.92 433.262 251.029 431.099 249.515C428.982 248.034 426.559 245.89 422.68 241.7L416.809 247.135ZM434.875 260.754C438.487 262.607 442.508 263.786 446.356 264.739C450.419 265.746 453.932 266.431 457.567 267.439L459.703 259.729C456.028 258.711 451.762 257.837 448.281 256.974C444.584 256.058 441.293 255.055 438.527 253.636L434.875 260.754ZM457.567 267.439C458.09 267.584 458.375 267.749 458.51 267.847C458.638 267.941 458.652 267.988 458.638 267.962C458.595 267.881 458.659 267.891 458.589 268.085C458.511 268.299 458.326 268.535 458.078 268.676C457.882 268.788 457.605 268.87 457.166 268.754L455.127 276.49C460.324 277.86 464.696 274.715 466.11 270.809C466.837 268.802 466.872 266.386 465.687 264.178C464.486 261.942 462.33 260.457 459.703 259.729L457.567 267.439ZM418.872 251.132C409.876 242.872 402.297 231.416 402.433 219.844L394.433 219.75C394.258 234.668 403.79 248.144 413.462 257.025L418.872 251.132ZM445.006 369.917C441.38 370.145 438.669 370.171 436.697 370.063C435.713 370.009 434.954 369.923 434.383 369.825C433.797 369.724 433.495 369.624 433.385 369.579C433.246 369.522 433.548 369.611 433.904 370.026C434.098 370.253 434.3 370.567 434.437 370.97C434.575 371.377 434.617 371.784 434.589 372.152C434.537 372.847 434.259 373.243 434.231 373.283C434.189 373.343 434.227 373.274 434.442 373.09C434.874 372.72 435.613 372.227 436.646 371.673C437.651 371.135 438.811 370.604 439.999 370.131C441.186 369.658 442.354 369.262 443.366 368.982C443.871 368.841 444.316 368.736 444.69 368.663C445.075 368.589 445.328 368.561 445.462 368.554L445.052 360.565C442.848 360.678 439.726 361.629 437.04 362.698C434.324 363.779 431.228 365.309 429.237 367.014C428.713 367.463 428.152 368.019 427.685 368.684C427.233 369.328 426.704 370.309 426.611 371.557C426.507 372.947 426.977 374.239 427.834 375.237C428.602 376.132 429.558 376.657 430.353 376.982C431.917 377.623 433.946 377.924 436.258 378.051C438.656 378.182 441.705 378.14 445.508 377.901L445.006 369.917ZM449.257 364.559V364.404H441.257V364.559H449.257ZM366.703 251.592C361.309 256.069 352.819 256.862 345.747 254.763L343.47 262.432C352.247 265.037 363.76 264.432 371.813 257.747L366.703 251.592ZM321.668 183.651C321.825 182.331 321.958 181.179 322.105 179.957L314.161 179.007C314.022 180.171 313.87 181.48 313.724 182.704L321.668 183.651ZM321.209 176.925C317.349 172.281 312.685 168.597 307.239 167.949C301.509 167.267 296.242 170.063 291.637 175.431L297.709 180.64C301.294 176.461 304.145 175.637 306.293 175.893C308.723 176.182 311.694 177.994 315.057 182.039L321.209 176.925ZM279.817 201.047C278.178 213.589 278.964 228.188 284.375 240.431L291.692 237.196C287.056 226.708 286.231 213.699 287.75 202.084L279.817 201.047ZM285.387 241.813C286.261 242.584 287.058 244 287.222 245.143L295.141 244.006C294.689 240.854 292.878 237.754 290.68 235.814L285.387 241.813ZM287.887 246.843C291.947 252.737 298.36 258.268 305.256 260.695C308.746 261.924 312.556 262.422 316.297 261.544C320.11 260.649 323.518 258.4 326.21 254.731L319.76 249.998C318.106 252.253 316.285 253.33 314.47 253.756C312.583 254.198 310.366 254.013 307.913 253.149C302.921 251.392 297.78 247.103 294.476 242.305L287.887 246.843ZM327.835 254.693C323.931 260.085 318.278 262.38 312.121 262.331C305.859 262.282 299.183 259.777 293.917 255.626L288.964 261.909C295.471 267.038 303.835 270.266 312.058 270.331C320.387 270.397 328.665 267.188 334.314 259.385L327.835 254.693ZM287.443 258.899C288.105 279.094 290.831 299.187 300.951 317.993L307.996 314.202C298.737 296.995 296.085 278.353 295.438 258.636L287.443 258.899ZM300.947 317.985C306.441 328.253 312.935 339.318 321.635 347.769L327.209 342.03C319.468 334.511 313.46 324.414 308 314.21L300.947 317.985ZM322.695 348.507C323.262 348.779 323.811 349.263 324.136 349.801L330.984 345.665C329.807 343.716 328.042 342.197 326.149 341.291L322.695 348.507ZM324.994 350.801C332.337 356.944 341.201 361.235 352.105 362.005L352.668 354.025C343.693 353.391 336.384 349.899 330.127 344.665L324.994 350.801ZM352.821 363.218C345.128 362.68 338.414 360.525 332.455 357.196L328.554 364.181C335.505 368.063 343.356 370.576 352.263 371.199L352.821 363.218ZM326.552 361.3C329.468 380.151 328.766 400.869 326.331 419.355L334.262 420.4C336.762 401.425 337.525 379.904 334.458 360.077L326.552 361.3ZM460.613 422.309C460.544 417.836 460.326 413.401 460.133 409.1C459.94 404.772 459.771 400.565 459.785 396.412C459.814 388.115 460.578 380.223 463.248 372.544L455.692 369.917C452.615 378.765 451.816 387.643 451.785 396.384C451.77 400.75 451.948 405.129 452.141 409.458C452.336 413.814 452.547 418.105 452.614 422.432L460.613 422.309ZM458.278 367.412C453.92 368.772 449.484 369.635 445.006 369.917L445.508 377.901C450.681 377.575 455.748 376.582 460.661 375.049L458.278 367.412ZM445.489 368.397C453.237 367.947 460.674 365.608 467.582 362.151L464.002 354.997C457.841 358.08 451.464 360.036 445.025 360.41L445.489 368.397ZM469.033 360.918C469.515 360.252 469.9 359.813 470.182 359.537C470.476 359.251 470.58 359.219 470.487 359.264C470.375 359.319 469.96 359.488 469.345 359.412C468.701 359.333 468.225 359.033 467.955 358.778L473.451 352.964C472.675 352.231 471.621 351.632 470.321 351.472C469.051 351.316 467.903 351.623 466.978 352.075C465.264 352.912 463.816 354.481 462.551 356.23L469.033 360.918ZM472.762 359.301C484.513 352.248 494.761 342.105 502.509 332.473L496.276 327.459C488.904 336.622 479.339 346.023 468.645 352.442L472.762 359.301ZM457.166 268.754C454.525 268.058 451.102 267.313 447.946 266.543L446.051 274.316C449.558 275.17 452.531 275.805 455.127 276.49L457.166 268.754ZM443.001 270.588C443.118 273.521 443.399 275.949 443.633 278.106C443.87 280.283 444.057 282.18 444.057 284.309H452.057C452.057 281.709 451.825 279.438 451.587 277.243C451.346 275.029 451.099 272.881 450.995 270.271L443.001 270.588ZM441.635 269.505C441.635 269.503 441.635 269.519 441.628 269.548C441.621 269.577 441.61 269.606 441.598 269.631L434.429 266.08C433.915 267.118 433.635 268.277 433.635 269.505H441.635ZM439.34 264.082C438.267 263.705 437.248 263.308 436.298 262.887L433.06 270.202C434.236 270.723 435.454 271.196 436.686 271.629L439.34 264.082ZM436.298 262.887C435.144 262.376 433.994 261.812 432.851 261.201L429.077 268.255C430.384 268.954 431.713 269.606 433.06 270.202L436.298 262.887ZM430.172 260.807C418.631 263.137 408.118 268.947 399.571 277.041L405.072 282.85C412.64 275.683 421.828 270.653 431.756 268.649L430.172 260.807ZM396.908 277.629C399.352 275.181 402.001 272.886 404.812 270.797L400.04 264.376C396.91 266.702 393.965 269.254 391.246 271.977L396.908 277.629ZM402.33 263.588C391.051 263.86 379.679 259.712 372.137 251.892L366.379 257.446C375.677 267.086 389.314 271.904 402.522 271.586L402.33 263.588ZM364.721 164.526C364.721 164.553 364.721 164.58 364.721 164.606L372.72 164.662C372.721 164.641 372.721 164.62 372.721 164.6L364.721 164.526ZM364.721 164.478C364.721 164.525 364.721 164.571 364.722 164.618L372.721 164.508C372.721 164.498 372.721 164.488 372.721 164.478H364.721ZM372.721 164.6C372.722 164.454 372.725 164.308 372.729 164.163L364.732 163.95C364.727 164.141 364.723 164.333 364.721 164.525L372.721 164.6ZM372.506 162.736C371.632 160.237 370.524 157.777 369.123 155.396L362.228 159.454C363.341 161.345 364.236 163.325 364.955 165.378L372.506 162.736ZM368.701 154.808C368.669 154.772 368.642 154.739 368.619 154.708L362.289 159.601C362.406 159.752 362.527 159.9 362.65 160.042L368.701 154.808ZM375.519 194.654C375.715 186.917 376.076 177.65 374.178 168.749L366.354 170.417C368.015 178.21 367.724 186.456 367.522 194.452L375.519 194.654ZM373.749 167.616C373.053 166.384 372.73 165.196 372.721 164.508L364.722 164.618C364.755 167.059 365.665 169.572 366.783 171.551L373.749 167.616ZM436.547 195.308C438.536 185.924 439.031 174.016 436.3 163.351C433.56 152.65 427.384 142.64 415.651 138.43L412.949 145.96C421.317 148.963 426.201 156.163 428.55 165.335C430.908 174.543 430.518 185.169 428.721 193.649L436.547 195.308ZM415.651 138.43C404.515 134.434 394.381 135.657 386.801 140.551C379.27 145.414 374.669 153.646 374.111 162.831L382.096 163.317C382.51 156.51 385.88 150.669 391.14 147.272C396.351 143.908 403.829 142.688 412.949 145.96L415.651 138.43ZM374.281 164.251C376.431 171.232 376.751 178.575 376.855 187.277L384.854 187.181C384.751 178.495 384.453 170.1 381.926 161.896L374.281 164.251ZM374.555 225.979C373.92 230.836 373.636 234.186 373.142 237.663C372.68 240.917 372.13 243.408 371.226 245.542L378.591 248.664C379.901 245.575 380.567 242.275 381.063 238.788C381.527 235.525 381.942 231.183 382.487 227.016L374.555 225.979ZM371.858 249.69C377.313 256.123 385.478 260.148 393.879 261.667C402.284 263.187 411.373 262.283 418.822 258.302L415.051 251.247C409.487 254.22 402.293 255.059 395.303 253.795C388.31 252.53 381.967 249.242 377.959 244.516L371.858 249.69ZM419.601 251.791C419.355 251.571 419.111 251.35 418.869 251.129L413.465 257.028C413.732 257.272 414.001 257.516 414.271 257.757L419.601 251.791ZM402.433 219.843C402.537 210.921 406.182 205.899 411.356 202.867C416.861 199.642 424.492 198.463 432.627 198.478L432.641 190.478C424.004 190.462 414.654 191.663 407.312 195.965C399.639 200.46 394.569 208.112 394.433 219.75L402.433 219.843ZM490.67 206.795C491.748 192.909 492.318 178.98 492.854 165.131C493.39 151.259 493.891 137.477 494.827 123.769L486.846 123.224C485.9 137.076 485.395 150.989 484.86 164.822C484.324 178.679 483.758 192.464 482.694 206.176L490.67 206.795ZM445.784 75.9279C444.069 95.2927 443.442 114.794 442.823 134.01L450.819 134.268C451.439 115.013 452.061 95.7372 453.753 76.6336L445.784 75.9279ZM440.049 186.066C439.637 189.097 439.103 190.653 438.743 191.319L445.778 195.128C446.826 193.191 447.519 190.502 447.976 187.145L440.049 186.066ZM438.291 192.727C438.224 193.263 438.149 193.792 438.066 194.314L445.967 195.568C446.064 194.957 446.152 194.341 446.229 193.72L438.291 192.727ZM441.652 198.924C443.298 199.075 444.907 199.256 446.46 199.455L447.477 191.52C445.84 191.31 444.135 191.118 442.382 190.958L441.652 198.924ZM446.453 199.455C459.716 201.177 472.784 204.797 485.085 210.153L488.279 202.818C475.291 197.163 461.495 193.34 447.483 191.521L446.453 199.455ZM486.17 212.629L478.202 211.917L478.197 211.967L478.193 212.016L486.17 212.629ZM446.813 134.404L438.817 134.147L454.809 134.661L446.813 134.404ZM434.99 184.113L427.07 182.983L427.064 183.027L427.058 183.071L434.99 184.113ZM437.635 130.82L445.627 131.173L445.628 131.144L445.629 131.116L437.635 130.82ZM441.368 67.7103L449.312 68.6572V68.6572L441.368 67.7103ZM472.636 32.4935L471.192 40.3621L472.636 32.4935ZM501.571 99.0313L493.571 98.913L501.571 99.0313ZM498.77 154.194L490.778 153.856L498.77 154.194ZM495.659 212.629L499.827 219.457L503.275 217.353L503.628 213.329L495.659 212.629ZM368.721 164.634H360.721L376.72 164.699L368.721 164.634ZM415.234 132.846L417.287 125.114L415.234 132.846ZM441.212 198.916L443.712 206.515L447.905 205.136L448.974 200.853L441.212 198.916ZM432.19 196.423L424.42 194.518L424.412 194.55L424.405 194.582L432.19 196.423ZM378.054 164.478L386.054 164.553L378.054 164.478ZM368.721 164.478L376.72 164.423L360.721 164.478H368.721ZM372.765 151.701L365.607 148.128L363.56 152.229L366.063 156.068L372.765 151.701ZM370.432 253.611L376.026 259.329H376.026L370.432 253.611ZM324.852 158.09L318.479 153.254L318.472 153.263L318.465 153.272L324.852 158.09ZM372.143 150.61L365.831 155.526L372.143 150.61ZM364.831 156.064L358.131 160.434L364.831 156.064ZM372.921 151.389L380.079 154.962L382.131 150.849L379.612 147.005L372.921 151.389ZM319.096 180.684H327.096V177.953L325.426 175.792L319.096 180.684ZM289.384 241.612L296.466 237.891L289.384 241.612ZM288.917 256.572L294.461 250.804H294.461L288.917 256.572ZM274.294 203.747L266.324 203.055L274.294 203.747ZM290.162 169.309L284.598 163.56H284.598L290.162 169.309ZM325.785 174.295L333.528 176.307L334.516 172.506L332.113 169.4L325.785 174.295ZM319.096 180.84H311.096V183.571L312.766 185.732L319.096 180.84ZM297.629 323.11L304.664 319.301L297.629 323.11ZM284.873 288.204L276.971 289.455H276.971L284.873 288.204ZM470.769 368.611L477.861 372.313L478.769 370.573V368.611H470.769ZM465.947 422.371L457.947 422.439L465.947 422.371ZM456.613 422.371H464.613V414.527L456.771 414.372L456.613 422.371ZM462.68 363.78L455.582 360.091L462.68 363.78ZM470.769 368.455L463.696 364.717L462.769 366.471V368.455H470.769ZM320.963 420.033H312.963L328.9 421.038L320.963 420.033ZM322.363 386.531L314.364 386.643L322.363 386.531ZM319.252 351.937L327.014 350L319.252 351.937ZM328.274 349.444L320.5 351.332L320.503 351.344L320.506 351.356L328.274 349.444ZM330.297 419.878L330.455 411.879L323.3 411.738L322.365 418.833L330.297 419.878ZM320.963 419.878H328.963L313.028 418.862L320.963 419.878ZM427.367 258.909L422.365 252.666L422.358 252.672L422.352 252.677L427.367 258.909ZM365.143 249.56L357.311 251.193L357.627 252.706L358.483 253.992L365.143 249.56ZM373.232 244.885L379.88 240.436L379.854 240.396L379.828 240.358L373.232 244.885ZM420.834 252.209L422.878 244.474L418.972 243.442L415.822 245.973L420.834 252.209ZM432.968 264.363L431.718 256.461L431.701 256.464L431.685 256.467L432.968 264.363ZM430.479 255.325L436.033 249.567L433.161 246.797L429.22 247.425L430.479 255.325ZM446.968 269.505L454.966 269.301L446.968 269.505ZM495.348 210.603L499.018 203.495L495.348 210.603ZM518.216 238.028L525.483 234.683L525.476 234.669L525.47 234.655L518.216 238.028ZM516.193 322.175L523.087 326.233L523.088 326.233L516.193 322.175ZM369.258 254.669L363.5 260.223L368.655 265.567L374.368 260.824L369.258 254.669ZM318.133 179.482L310.19 178.531L309.781 181.949L311.981 184.596L318.133 179.482ZM288.034 238.814L295.351 235.579L294.642 233.975L293.327 232.815L288.034 238.814ZM291.182 244.574L299.101 243.438L298.834 241.581L297.77 240.037L291.182 244.574ZM291.44 258.767L286.488 265.05L300 275.702L299.436 258.505L291.44 258.767ZM324.422 344.899L329.996 339.161L329.057 338.249L327.876 337.683L324.422 344.899ZM327.56 347.733L334.408 343.597L333.718 342.454L332.693 341.597L327.56 347.733ZM330.505 360.689L326.604 367.673L340.917 375.668L338.411 359.466L330.505 360.689ZM459.47 371.23L451.913 368.603L446.701 383.594L461.852 378.867L459.47 371.23ZM465.792 358.574L462.212 351.42L460.459 352.297L459.31 353.886L465.792 358.574ZM470.703 355.871L476.199 350.058L471.789 345.889L466.586 349.012L470.703 355.871ZM446.998 270.429L445.104 278.202L455.412 280.714L454.992 270.113L446.998 270.429ZM438.013 267.856L430.845 264.305L426.833 272.404L435.359 275.403L438.013 267.856ZM430.964 264.728L427.19 271.782L429.727 273.139L432.548 272.57L430.964 264.728ZM402.426 267.587L397.654 261.166L377.434 276.191L402.619 275.585L402.426 267.587ZM368.721 164.563L376.721 164.628L376.721 164.568L376.721 164.508L368.721 164.563ZM368.73 164.057L360.733 163.843L360.694 165.312L361.179 166.699L368.73 164.057ZM365.675 157.425L358.781 161.483L359.149 162.109L359.625 162.659L365.675 157.425ZM370.266 169.583L362.442 171.251L362.697 172.451L363.301 173.519L370.266 169.583ZM432.634 194.478L432.648 186.478L426.155 186.466L424.808 192.819L432.634 194.478ZM378.103 163.074L386.089 163.559L386.177 162.108L385.749 160.719L378.103 163.074ZM374.908 247.103L382.274 250.226L384.197 245.688L381.01 241.929L374.908 247.103ZM416.936 254.774L413.166 247.719L403.069 253.114L411.607 260.741L416.936 254.774ZM486.682 206.485L489.875 199.15L479.575 194.666L478.706 205.866L486.682 206.485ZM446.821 134.139L454.817 134.396L438.825 133.882L446.821 134.139ZM442.26 193.223L449.295 197.032L450.012 195.709L450.198 194.216L442.26 193.223ZM442.017 194.941L449.918 196.195L451.258 187.754L442.747 186.974L442.017 194.941ZM442.91 185.242C445.468 167.302 444.888 147.896 445.627 131.173L429.642 130.467C428.825 148.961 429.49 166.018 427.07 182.983L442.91 185.242ZM445.629 131.116C446.414 109.895 446.872 89.1264 449.312 68.6572L433.424 66.7634C430.886 88.0556 430.411 109.671 429.64 130.524L445.629 131.116ZM449.312 68.6572C450.496 58.7238 452.992 50.6417 456.711 45.646C458.483 43.2652 460.411 41.7454 462.506 40.8973C464.583 40.0561 467.358 39.6585 471.192 40.3621L474.08 24.6249C467.725 23.4586 461.808 23.9181 456.501 26.0668C451.211 28.2087 447.062 31.8117 443.876 36.0924C437.678 44.4199 434.729 55.8161 433.424 66.7634L449.312 68.6572ZM471.192 40.3621C473.673 40.8174 476.486 42.5486 479.472 46.4065C482.45 50.2534 485.109 55.6109 487.309 61.9126C491.717 74.5415 493.713 89.3069 493.571 98.913L509.57 99.1496C509.739 87.7192 507.457 71.0856 502.415 56.6398C499.889 49.404 496.531 42.3052 492.124 36.6126C487.726 30.931 481.788 26.0396 474.08 24.6249L471.192 40.3621ZM493.571 98.913C493.26 119.979 491.588 134.693 490.778 153.856L506.763 154.532C507.508 136.92 509.259 120.157 509.57 99.1496L493.571 98.913ZM490.778 153.856C489.994 172.385 489.38 192.686 487.69 211.929L503.628 213.329C505.36 193.615 505.991 172.777 506.763 154.532L490.778 153.856ZM495.659 212.629C491.491 205.8 491.492 205.799 491.494 205.799C491.494 205.798 491.495 205.798 491.496 205.797C491.498 205.796 491.499 205.795 491.501 205.794C491.503 205.793 491.505 205.792 491.507 205.791C491.51 205.789 491.511 205.788 491.51 205.789C491.507 205.791 491.496 205.797 491.477 205.808C491.44 205.831 491.371 205.87 491.277 205.924C491.088 206.032 490.803 206.189 490.461 206.364C490.116 206.541 489.736 206.724 489.352 206.891C488.962 207.06 488.623 207.188 488.353 207.272C488.061 207.363 487.997 207.357 488.125 207.344C488.201 207.336 488.394 207.32 488.678 207.338C488.96 207.356 489.407 207.413 489.951 207.592C490.508 207.775 491.178 208.09 491.842 208.616C492.519 209.153 493.066 209.812 493.46 210.53C494.224 211.924 494.16 213.058 494.146 213.241L478.193 212.016C478.063 213.718 478.209 215.992 479.427 218.217C480.754 220.64 482.857 222.103 484.96 222.793C488.398 223.922 491.732 222.979 493.126 222.543C494.962 221.97 496.649 221.172 497.761 220.602C498.344 220.303 498.834 220.033 499.187 219.832C499.365 219.731 499.51 219.646 499.618 219.583C499.672 219.551 499.717 219.524 499.752 219.503C499.769 219.492 499.784 219.483 499.797 219.475C499.803 219.472 499.809 219.468 499.814 219.465C499.817 219.464 499.819 219.462 499.821 219.461C499.822 219.46 499.824 219.459 499.824 219.459C499.826 219.458 499.827 219.457 495.659 212.629ZM441.212 198.916C438.713 191.317 438.715 191.316 438.716 191.315C438.717 191.315 438.718 191.315 438.719 191.314C438.721 191.314 438.723 191.313 438.725 191.312C438.729 191.311 438.732 191.31 438.734 191.31C438.739 191.308 438.741 191.307 438.741 191.307C438.742 191.307 438.734 191.31 438.717 191.315C438.685 191.325 438.621 191.344 438.531 191.371C438.349 191.424 438.073 191.5 437.742 191.579C437.408 191.659 437.045 191.736 436.685 191.795C436.318 191.856 436.016 191.888 435.792 191.899C435.547 191.911 435.54 191.889 435.714 191.918C435.813 191.934 436.015 191.973 436.287 192.068C436.56 192.163 436.952 192.329 437.394 192.619C437.846 192.915 438.342 193.335 438.792 193.908C439.249 194.489 439.585 195.135 439.797 195.797C440.213 197.101 440.024 198.057 439.975 198.264L424.405 194.582C424.006 196.269 423.836 198.413 424.555 200.663C425.319 203.056 426.856 204.843 428.624 206.002C431.639 207.978 435.018 207.955 436.56 207.881C438.483 207.788 440.286 207.423 441.47 207.139C442.094 206.989 442.621 206.844 443.004 206.733C443.196 206.677 443.355 206.629 443.474 206.591C443.534 206.573 443.584 206.557 443.624 206.544C443.644 206.538 443.661 206.532 443.676 206.527C443.683 206.525 443.69 206.523 443.696 206.521C443.699 206.52 443.702 206.519 443.705 206.518C443.706 206.518 443.708 206.517 443.708 206.517C443.71 206.516 443.712 206.515 441.212 198.916ZM331.225 162.925C334.263 158.922 341.496 154.311 349.502 152.44C357.657 150.533 363.174 152.114 365.831 155.526L378.454 145.694C370.067 134.925 356.372 134.402 345.86 136.859C335.198 139.351 324.308 145.57 318.479 153.254L331.225 162.925ZM371.532 151.693C370.801 150.572 370.489 149.882 370.375 149.57C370.247 149.217 370.473 149.629 370.376 150.545C370.259 151.646 369.704 153.05 368.462 154.142C367.352 155.118 366.257 155.351 365.816 155.408C365.364 155.466 365.17 155.403 365.289 155.428C365.378 155.447 365.567 155.501 365.803 155.612C366.412 155.899 366.454 156.117 366.229 155.773L379.612 147.005C377.754 144.168 375.015 142.263 372.61 141.133C370.26 140.027 367.06 139.115 363.769 139.54C362.045 139.762 359.836 140.421 357.898 142.125C355.827 143.946 354.727 146.381 354.465 148.858C354.012 153.128 356.023 157.203 358.131 160.434L371.532 151.693ZM365.763 147.816L365.607 148.128L379.923 155.273L380.079 154.962L365.763 147.816ZM294.461 250.804C290.234 246.742 286.698 239.658 284.464 230.778C282.268 222.05 281.564 212.503 282.264 204.438L266.324 203.055C265.469 212.91 266.321 224.244 268.947 234.682C271.536 244.97 276.089 255.338 283.374 262.34L294.461 250.804ZM282.264 204.438C282.985 196.133 284.485 190.803 286.527 186.711C288.568 182.623 291.416 179.228 295.725 175.058L284.598 163.56C279.73 168.272 275.421 173.136 272.212 179.566C269.004 185.993 267.159 193.44 266.324 203.055L282.264 204.438ZM295.725 175.058C300.92 170.031 312.234 169.854 319.458 179.191L332.113 169.4C320.047 153.804 297.76 150.823 284.598 163.56L295.725 175.058ZM325.785 174.295C318.043 172.284 318.043 172.282 318.043 172.281C318.043 172.28 318.044 172.279 318.044 172.278C318.044 172.276 318.045 172.275 318.045 172.273C318.046 172.27 318.047 172.268 318.047 172.267C318.048 172.263 318.048 172.263 318.048 172.265C318.047 172.268 318.043 172.281 318.037 172.303C318.025 172.347 318.003 172.425 317.972 172.531C317.909 172.746 317.813 173.062 317.688 173.432C317.561 173.805 317.414 174.208 317.253 174.601C317.089 175.001 316.932 175.335 316.796 175.588C316.648 175.863 316.599 175.903 316.684 175.799C316.734 175.739 316.866 175.586 317.092 175.392C317.315 175.2 317.694 174.914 318.239 174.651C318.799 174.381 319.545 174.131 320.444 174.057C321.361 173.981 322.258 174.105 323.066 174.384C323.851 174.655 324.425 175.027 324.795 175.324C325.158 175.616 325.358 175.86 325.426 175.948L312.766 185.732C313.787 187.052 315.418 188.67 317.845 189.508C320.529 190.434 323.141 190.051 325.194 189.06C328.484 187.472 330.218 184.41 330.885 183.171C331.791 181.488 332.443 179.744 332.843 178.562C333.053 177.942 333.217 177.407 333.33 177.018C333.387 176.823 333.433 176.661 333.466 176.541C333.482 176.481 333.496 176.43 333.506 176.391C333.511 176.372 333.516 176.355 333.52 176.341C333.521 176.334 333.523 176.328 333.525 176.322C333.525 176.319 333.526 176.317 333.527 176.314C333.527 176.313 333.527 176.311 333.527 176.311C333.528 176.309 333.528 176.307 325.785 174.295ZM327.096 180.84V180.684H311.096V180.84H327.096ZM304.664 319.301C298.631 308.157 296.296 303.229 295.115 299.645C293.945 296.099 293.897 294.048 292.774 286.954L276.971 289.455C277.87 295.139 278.211 299.476 279.92 304.657C281.616 309.799 284.648 315.935 290.593 326.918L304.664 319.301ZM292.774 286.954C290.836 274.706 289.917 259.562 289.917 245.508H273.917C273.917 260.127 274.865 276.148 276.971 289.455L292.774 286.954ZM463.677 364.909C458.436 374.949 457.1 385.236 456.975 394.92C456.913 399.738 457.152 404.54 457.4 409.102C457.651 413.743 457.91 418.107 457.947 422.439L473.947 422.303C473.906 417.519 473.62 412.728 473.376 408.234C473.128 403.66 472.919 399.346 472.974 395.127C473.082 386.735 474.236 379.258 477.861 372.313L463.677 364.909ZM457.947 422.439C457.964 424.412 457.845 425.703 457.71 426.478C457.559 427.342 457.459 427.151 457.855 426.544C458.364 425.765 459.714 424.353 462.032 424.052C464.05 423.79 465.379 424.573 465.678 424.766C466.033 424.996 466.057 425.104 465.843 424.837C465.662 424.611 465.425 424.259 465.194 423.813C464.964 423.369 464.795 422.942 464.693 422.599C464.582 422.223 464.613 422.154 464.613 422.371H448.613C448.613 425.644 449.778 428.844 450.993 431.184C452.174 433.46 454.153 436.37 456.999 438.207C458.474 439.16 460.977 440.323 464.092 439.919C467.507 439.475 469.877 437.398 471.253 435.29C472.517 433.353 473.133 431.168 473.471 429.231C473.825 427.205 473.969 424.887 473.947 422.303L457.947 422.439ZM462.769 368.455V368.611H478.769V368.455H462.769ZM328.9 421.038C330.371 409.413 330.519 397.594 330.362 386.418L314.364 386.643C314.518 397.595 314.355 408.527 313.026 419.029L328.9 421.038ZM330.362 386.418C330.209 375.547 330.078 362.279 327.014 350L311.49 353.875C314.026 364.035 314.206 375.388 314.364 386.643L330.362 386.418ZM322.365 418.833C322.027 421.399 321.656 423.194 321.317 424.394C320.951 425.689 320.733 425.888 320.94 425.595C321.143 425.306 322.542 423.51 325.402 423.353C328.083 423.206 329.626 424.655 329.865 424.892C330.191 425.216 330.164 425.311 329.941 424.869C329.754 424.497 329.537 423.959 329.344 423.311C329.153 422.669 329.021 422.042 328.954 421.52C328.88 420.947 328.916 420.755 328.898 420.893L313.028 418.862C312.634 421.94 313.247 425.32 314.011 427.883C314.738 430.32 316.124 433.798 318.595 436.25C319.864 437.51 322.496 439.536 326.277 439.329C330.237 439.112 332.747 436.618 334.024 434.803C336.333 431.523 337.486 426.555 338.228 420.922L322.365 418.833ZM312.963 419.878V420.033H328.963V419.878H312.963ZM372.974 247.926C373.185 248.939 373.065 249.667 373.013 249.924C372.98 250.083 372.945 250.194 372.924 250.256C372.902 250.319 372.886 250.353 372.882 250.361C372.878 250.37 372.891 250.342 372.919 250.305C372.948 250.267 372.944 250.283 372.875 250.341C372.873 250.343 371.979 251.141 370.25 251.1C369.319 251.078 368.433 250.805 367.712 250.365C367.033 249.951 366.711 249.522 366.636 249.412L379.828 240.358C377.882 237.522 374.744 235.202 370.627 235.105C366.966 235.018 364.15 236.751 362.477 238.181C360.723 239.681 359.357 241.562 358.456 243.44C357.676 245.067 356.637 247.96 357.311 251.193L372.974 247.926ZM420.834 252.209C418.789 259.943 418.788 259.943 418.786 259.942C418.786 259.942 418.784 259.942 418.784 259.941C418.782 259.941 418.78 259.941 418.779 259.94C418.776 259.939 418.774 259.939 418.772 259.938C418.769 259.937 418.768 259.937 418.769 259.938C418.772 259.938 418.785 259.942 418.806 259.948C418.849 259.96 418.925 259.981 419.028 260.012C419.237 260.074 419.547 260.17 419.91 260.295C420.275 260.421 420.67 260.567 421.055 260.727C421.448 260.891 421.775 261.046 422.024 261.182C422.293 261.329 422.335 261.379 422.237 261.298C422.179 261.25 422.033 261.123 421.847 260.906C421.663 260.691 421.388 260.327 421.132 259.805C420.869 259.27 420.621 258.553 420.536 257.686C420.449 256.799 420.548 255.919 420.807 255.11C421.308 253.545 422.214 252.787 422.365 252.666L432.37 265.152C433.688 264.096 435.265 262.428 436.046 259.985C436.901 257.312 436.474 254.754 435.499 252.764C433.918 249.538 430.929 247.813 429.678 247.131C428.009 246.222 426.282 245.567 425.112 245.164C424.498 244.953 423.969 244.789 423.584 244.674C423.39 244.617 423.23 244.571 423.111 244.538C423.051 244.521 423.001 244.507 422.962 244.497C422.943 244.492 422.926 244.487 422.912 244.483C422.905 244.481 422.899 244.48 422.893 244.478C422.89 244.477 422.888 244.477 422.885 244.476C422.884 244.476 422.882 244.475 422.882 244.475C422.88 244.475 422.878 244.474 420.834 252.209ZM430.479 255.325C424.925 261.083 424.924 261.082 424.922 261.081C424.922 261.081 424.921 261.08 424.92 261.079C424.919 261.078 424.918 261.077 424.917 261.076C424.915 261.073 424.913 261.072 424.912 261.071C424.91 261.069 424.909 261.068 424.91 261.069C424.913 261.072 424.923 261.081 424.939 261.097C424.971 261.129 425.028 261.186 425.104 261.264C425.259 261.423 425.486 261.661 425.746 261.95C426.008 262.242 426.286 262.567 426.549 262.899C426.817 263.238 427.032 263.538 427.187 263.783C427.356 264.049 427.372 264.119 427.328 264.007C427.301 263.94 427.235 263.759 427.177 263.48C427.12 263.205 427.053 262.75 427.082 262.164C427.112 261.563 427.243 260.804 427.598 259.99C427.96 259.157 428.488 258.423 429.124 257.835C430.351 256.7 431.534 256.49 431.718 256.461L434.217 272.265C435.879 272.002 438.093 271.335 439.992 269.577C442.078 267.647 442.954 265.175 443.063 262.949C443.239 259.361 441.451 256.398 440.692 255.204C439.673 253.6 438.481 252.185 437.652 251.261C437.216 250.776 436.833 250.374 436.552 250.086C436.41 249.941 436.292 249.823 436.204 249.736C436.16 249.692 436.123 249.656 436.095 249.628C436.08 249.613 436.068 249.601 436.057 249.591C436.052 249.586 436.048 249.582 436.043 249.578C436.041 249.576 436.039 249.574 436.038 249.572C436.037 249.571 436.036 249.57 436.035 249.57C436.034 249.568 436.033 249.567 430.479 255.325ZM491.678 217.711C498.252 221.106 501.605 224.326 503.936 227.606C506.55 231.284 508.052 235.145 510.961 241.401L525.47 234.655C523.09 229.537 520.703 223.58 516.978 218.338C512.97 212.697 507.534 207.891 499.018 203.495L491.678 217.711ZM510.949 241.374C522.977 267.504 523.599 293.822 509.299 318.117L523.088 326.233C540.523 296.611 539.277 264.65 525.483 234.683L510.949 241.374ZM330.139 427.876L456.455 430.369L456.771 414.372L330.455 411.879L330.139 427.876ZM445.182 271.407C444.653 272.476 443.892 272.958 443.516 273.134C443.141 273.309 442.772 273.374 442.363 273.336C441.949 273.298 441.083 273.105 440.233 272.294C439.264 271.37 438.985 270.277 438.971 269.71L454.966 269.301C454.883 266.066 453.667 262.997 451.277 260.717C449.006 258.551 446.234 257.623 443.815 257.402C439.497 257.009 433.57 258.803 430.845 264.305L445.182 271.407ZM448.893 262.657C445.985 261.948 443.182 261.193 440.667 260.309L435.359 275.403C438.619 276.549 442.022 277.451 445.104 278.202L448.893 262.657ZM438.971 269.71C438.98 270.062 438.991 270.407 439.005 270.746L454.992 270.113C454.982 269.847 454.973 269.577 454.966 269.301L438.971 269.71ZM469.778 367.47C470.821 365.465 471.654 364.12 472.275 363.262L459.31 353.886C458.087 355.576 456.851 357.648 455.582 360.091L469.778 367.47ZM465.208 361.685C464.494 361.01 464.178 360.381 464.079 360.165C463.968 359.922 463.959 359.823 463.986 359.946C464.044 360.206 464.118 360.781 464.108 361.616C464.099 362.421 464.014 363.24 463.882 363.921C463.734 364.687 463.6 364.899 463.696 364.717L477.842 372.193C479.518 369.023 480.071 364.889 480.107 361.805C480.127 360.121 480.002 358.252 479.602 356.46C479.266 354.953 478.464 352.199 476.199 350.058L465.208 361.685ZM469.372 365.728C471.228 364.8 473.045 363.796 474.82 362.731L466.586 349.012C465.139 349.88 463.68 350.685 462.212 351.42L469.372 365.728ZM467.026 373.858C467.771 371.716 468.677 369.589 469.778 367.47L455.582 360.091C454.113 362.917 452.903 365.756 451.913 368.603L467.026 373.858ZM320.506 351.356C321.345 354.765 322.039 358.293 322.599 361.912L338.411 359.466C337.786 355.427 337.003 351.437 336.043 347.533L320.506 351.356ZM431.685 256.467C430.913 256.592 430.145 256.732 429.381 256.886L432.548 272.57C433.113 272.456 433.68 272.352 434.25 272.26L431.685 256.467ZM334.406 353.704C322.082 346.821 312.72 334.182 304.664 319.301L290.593 326.918C299.063 342.563 310.223 358.524 326.604 367.673L334.406 353.704ZM282.302 245.333C282.982 246.628 283.753 247.892 284.593 249.112L297.77 240.037C297.264 239.301 296.828 238.581 296.466 237.891L282.302 245.333ZM327.014 350C326.712 348.792 326.794 348.403 326.771 348.585C326.738 348.83 326.515 349.911 325.409 350.948C324.284 352.001 323 352.3 322.183 352.319C321.445 352.337 321.038 352.149 320.968 352.115L327.876 337.683C324.926 336.271 319.094 334.941 314.473 339.268C310.016 343.441 310.41 349.548 311.49 353.875L327.014 350ZM320.712 351.869C320.652 351.77 320.563 351.592 320.5 351.332L336.048 347.556C335.691 346.085 335.109 344.758 334.408 343.597L320.712 351.869ZM407.198 274.008C414.647 268.473 423.127 264.598 431.738 263.225L429.22 247.425C417.662 249.267 406.82 254.355 397.654 261.166L407.198 274.008ZM509.299 318.116C497.906 337.468 478.444 356.93 457.087 363.594L461.852 378.867C488.313 370.612 510.506 347.603 523.087 326.233L509.299 318.116ZM283.251 245.508C283.251 250.002 283.297 254.519 283.445 259.03L299.436 258.505C299.296 254.228 299.251 249.899 299.251 245.508H283.251ZM318.848 350.638C319.997 351.753 321.189 352.833 322.427 353.869L332.693 341.597C331.777 340.83 330.878 340.017 329.996 339.161L318.848 350.638ZM296.393 252.485C295.714 251.949 295.068 251.388 294.461 250.804L283.374 262.34C284.367 263.294 285.408 264.199 286.488 265.05L296.393 252.485ZM289.917 245.508C289.917 243.794 290.094 242.974 290.162 242.746C290.246 242.461 290.03 243.471 288.74 244.432C287.192 245.584 285.391 245.719 284.138 245.429C283.6 245.305 283.233 245.125 283.041 245.016C282.845 244.904 282.75 244.821 282.74 244.812L293.327 232.815C292.03 231.671 290.148 230.397 287.74 229.84C285.087 229.227 281.926 229.558 279.186 231.597C276.704 233.445 275.465 236.033 274.824 238.189C274.167 240.401 273.917 242.885 273.917 245.508H289.917ZM283.263 245.711C283.259 245.682 283.251 245.613 283.251 245.508H299.251C299.251 244.789 299.195 244.096 299.101 243.438L283.263 245.711ZM280.716 242.048C281.207 243.157 281.735 244.254 282.302 245.333L296.466 237.891C296.072 237.142 295.701 236.371 295.351 235.579L280.716 242.048ZM326.076 180.432C327.115 171.753 328.036 167.153 331.239 162.907L318.465 153.272C312.378 161.342 311.208 170.019 310.19 178.531L326.076 180.432ZM325.426 175.792C325.051 175.307 324.671 174.832 324.285 174.368L311.981 184.596C312.24 184.908 312.502 185.235 312.766 185.577L325.426 175.792ZM422.352 252.677C416.913 257.054 409.785 259.407 402.233 259.589L402.619 275.585C413.144 275.331 423.81 272.041 432.383 265.141L422.352 252.677ZM375.016 249.115C373.827 247.883 372.751 246.553 371.802 245.127L358.483 253.992C359.981 256.242 361.665 258.321 363.5 260.223L375.016 249.115ZM364.837 247.893C364.616 248.109 364.386 248.316 364.148 248.514L374.368 260.824C374.936 260.353 375.49 259.854 376.026 259.329L364.837 247.893ZM376.721 164.634V164.478H360.721V164.634H376.721ZM365.831 155.526C366.996 157.021 367.688 158.109 368.075 158.838C368.49 159.62 368.399 159.7 368.339 159.237C368.268 158.699 368.228 157.143 369.376 155.509C370.516 153.887 372.023 153.334 372.753 153.172C373.427 153.022 373.771 153.111 373.618 153.086C373.52 153.07 373.27 153.012 372.919 152.87C372.088 152.533 371.684 152.143 371.726 152.192L359.625 162.659C361.682 165.037 364.449 166.7 366.901 167.695C369.172 168.617 372.676 169.578 376.216 168.793C378.179 168.357 380.688 167.24 382.467 164.709C384.254 162.166 384.49 159.355 384.203 157.162C383.692 153.257 381.311 149.362 378.454 145.694L365.831 155.526ZM378.09 167.915C377.63 165.755 377.039 163.579 376.281 161.415L361.179 166.699C361.69 168.158 362.106 169.676 362.442 171.251L378.09 167.915ZM372.57 153.368C372.239 152.805 371.893 152.247 371.532 151.693L358.131 160.434C358.356 160.78 358.573 161.129 358.781 161.483L372.57 153.368ZM360.721 164.533L360.721 164.618L376.721 164.508L376.72 164.423L360.721 164.533ZM360.721 164.498L360.721 164.569L376.72 164.699L376.721 164.628L360.721 164.498ZM370.055 164.404C370.043 165.684 369.967 166.636 369.872 167.318C369.824 167.655 369.775 167.905 369.734 168.079C369.692 168.254 369.664 168.331 369.664 168.33C369.665 168.327 369.675 168.3 369.698 168.253C369.72 168.205 369.756 168.132 369.81 168.039C369.916 167.857 370.104 167.573 370.408 167.251C371.065 166.553 372.131 165.826 373.56 165.546C374.927 165.278 376.038 165.533 376.686 165.778C377.303 166.012 377.631 166.279 377.69 166.329C377.785 166.408 377.552 166.216 377.231 165.648L363.301 173.519C364.291 175.271 365.673 177.144 367.456 178.627C369.017 179.926 372.334 182.091 376.641 181.246C381.374 180.318 383.673 176.549 384.651 173.933C385.655 171.248 386.022 168.027 386.054 164.553L370.055 164.404ZM376.727 164.27C376.935 156.469 381.543 149.524 388.855 144.886C396.227 140.209 405.427 138.518 413.18 140.578L417.287 125.114C404.683 121.766 390.927 124.623 380.284 131.375C369.58 138.166 361.115 149.529 360.733 163.843L376.727 164.27ZM366.583 249.334C367.272 250.364 368.016 251.345 368.807 252.277L381.01 241.929C380.599 241.444 380.222 240.946 379.88 240.436L366.583 249.334ZM420.707 261.83C422.501 260.871 424.226 259.746 425.845 258.444L415.822 245.973C415.017 246.62 414.13 247.203 413.166 247.719L420.707 261.83ZM366.063 156.068C368.094 159.185 369.485 162.271 370.458 165.429L385.749 160.719C384.357 156.2 382.347 151.751 379.468 147.333L366.063 156.068ZM370.118 162.588C370.082 163.191 370.06 163.796 370.055 164.404L386.054 164.553C386.057 164.219 386.069 163.887 386.089 163.559L370.118 162.588ZM367.543 243.981C366.956 245.366 366.153 246.605 364.837 247.893L376.026 259.329C378.865 256.552 380.867 253.546 382.274 250.226L367.543 243.981ZM434.738 257.674C430.372 255.338 426.117 252.248 422.266 248.808L411.607 260.741C416.232 264.872 421.516 268.746 427.19 271.782L434.738 257.674ZM439.96 198.328C440.136 197.61 440.303 196.879 440.46 196.137L424.808 192.819C424.685 193.4 424.555 193.967 424.42 194.518L439.96 198.328ZM438.825 133.882L438.817 134.147L454.809 134.661L454.817 134.396L438.825 133.882ZM432.619 202.478C435.517 202.483 438.441 202.647 441.287 202.908L442.747 186.974C439.526 186.679 436.115 186.484 432.648 186.478L432.619 202.478ZM435.225 189.415C435.231 189.404 435.662 188.576 436.845 187.849C438.26 186.978 440.01 186.711 441.614 187.099C442.959 187.423 443.704 188.079 443.884 188.246C444.104 188.451 444.117 188.523 443.991 188.324C443.735 187.919 443.388 187.165 443.15 186.283C442.888 185.314 442.952 184.924 442.922 185.154L427.058 183.071C426.711 185.71 427.141 188.374 427.703 190.453C428.288 192.619 429.221 194.907 430.476 196.888C431.442 198.412 433.772 201.665 437.859 202.652C440.339 203.25 442.966 202.869 445.232 201.474C447.265 200.223 448.52 198.464 449.295 197.032L435.225 189.415ZM413.18 140.578C418.987 142.12 425.099 148.521 429.523 159.3C433.801 169.726 435.579 182.179 434.322 192.231L450.198 194.216C451.828 181.185 449.552 165.962 444.325 153.225C439.243 140.843 430.398 128.596 417.287 125.114L413.18 140.578ZM434.116 193.687C433.933 194.838 433.711 195.937 433.451 196.979L448.974 200.853C449.355 199.33 449.668 197.773 449.918 196.195L434.116 193.687ZM438.825 133.882C438.822 133.998 438.821 134.031 438.817 134.146L454.809 134.661C454.811 134.6 454.815 134.457 454.817 134.397L438.825 133.882ZM483.488 213.82C486.262 215.028 488.994 216.325 491.678 217.711L499.018 203.495C496.019 201.946 492.969 200.497 489.875 199.15L483.488 213.82ZM494.138 213.34C494.324 211.261 494.497 209.182 494.658 207.104L478.706 205.866C478.549 207.887 478.381 209.903 478.202 211.917L494.138 213.34Z" fill="white" mask="url(#path-1-outside-1_4461_36071)"/>
</g>
<defs>
<clipPath id="clip0_4461_36071">
<rect width="272" height="416" fill="white" transform="matrix(-1 0 0 1 536 24)"/>
</clipPath>
</defs>
</svg>
