<svg width="800" height="440" viewBox="0 0 800 440" fill="none" xmlns="http://www.w3.org/2000/svg">
<mask id="path-1-outside-1_4461_36102" maskUnits="userSpaceOnUse" x="262" y="4" width="276" height="435" fill="black">
<rect fill="white" x="262" y="4" width="276" height="435"/>
<path d="M376.557 183.841C373.39 153.937 374.295 123.429 372.938 93.374C371.581 63.319 369.772 60.6005 370.224 44.4403C370.676 28.2801 371.883 25.1085 378.969 18.7653C392.539 6.38083 413.647 12.271 423.146 26.1657C432.644 40.0605 432.343 50.7836 433.247 63.4701C434.152 76.1566 434.454 93.676 434.454 108.779C434.454 123.882 434.454 137.173 434.906 151.218C435.358 165.264 435.207 162.092 435.66 167.53C436.112 172.967 435.66 176.44 437.62 179.461C439.58 182.482 437.62 181.726 439.881 180.971C442.143 180.216 441.238 180.216 441.992 179.159C444.103 176.591 445.159 172.816 446.063 169.795C448.928 161.035 450.888 151.973 452.697 143.063C456.919 121.919 459.934 100.472 463.854 79.3282C467.775 58.184 472.449 40.8156 492.2 39.3053C505.016 38.3991 514.364 48.9712 519.188 59.6943C526.275 75.4014 523.259 93.374 519.188 109.534C515.118 125.694 514.364 126.903 512.554 135.813C510.745 144.724 509.84 153.182 508.182 161.941C504.714 180.518 500.191 198.793 496.874 217.369C496.874 217.369 487.074 220.692 488.129 214.953C488.276 214.129 488.425 213.305 488.575 212.481C491.217 198.066 494.482 183.772 497.477 169.342C500.643 154.088 502.151 139.287 505.92 124.637C509.69 109.987 515.268 94.1291 514.514 78.422C513.911 67.3968 507.277 47.0078 492.954 48.2161C478.63 49.4243 473.353 77.6669 471.092 90.6554C467.624 111.044 464.608 131.433 460.236 151.671C455.863 171.909 456.617 167.681 453.753 175.383C450.888 183.086 449.531 186.71 444.254 188.976C425.86 197.131 426.463 167.832 426.01 157.713C424.804 130.376 425.709 103.191 424.653 75.8545C423.598 48.5181 423.296 19.5204 397.062 21.0307C370.827 22.541 379.421 38.7012 379.421 38.7012C377.612 54.7104 380.778 71.7767 381.683 87.7859C383.143 118.652 382.199 149.801 385.152 180.547C385.248 181.545 385.348 182.542 385.452 183.539C385.452 183.539 377.009 189.278 376.406 183.539L376.557 183.841Z"/>
<path d="M449.682 364.17C470.187 362.962 489.034 346.802 501.548 331.699C514.062 316.596 524.918 289.109 519.188 264.189C513.459 239.269 512.705 242.44 506.373 233.076C500.04 223.713 487.827 222.051 477.123 219.031C466.418 216.01 451.34 212.234 438.223 210.875C425.106 209.516 420.13 208.308 415.908 215.557C409.124 226.884 418.019 240.628 425.859 248.633C433.7 256.637 435.66 257.241 441.54 260.262C447.42 263.282 455.713 264.491 462.799 266.454C469.885 268.417 466.116 276.724 460.387 275.214C457.796 274.531 454.65 273.848 451.368 273.039C448.487 272.329 445.5 271.523 442.692 270.535C442.459 270.453 442.228 270.37 441.999 270.286C441.172 269.982 440.363 269.663 439.58 269.324C439.036 269.088 438.495 268.843 437.959 268.587C431.961 265.732 426.482 261.678 421.638 257.241C413.044 249.237 405.203 237.909 404.45 225.827C403.696 213.745 408.671 205.136 418.622 202.417C428.573 199.699 443.349 202.115 454.506 204.23C465.664 206.344 470.338 207.704 478.178 209.818C481.374 210.68 484.945 211.516 488.575 212.481C493.852 213.884 499.254 215.558 503.809 217.974C511.499 222.051 518.133 234.436 521.902 243.346C533.21 270.532 533.361 298.472 517.982 323.996C503.413 348.176 480.86 369.103 454.298 372.781C452.822 372.986 451.333 373.137 449.833 373.232C421.336 375.044 443.952 364.472 449.833 364.17H449.682Z"/>
<path d="M363.288 151.822C372.033 160.884 374.898 170.852 377.31 182.935C377.738 185.076 378.147 187.251 378.535 189.45C380.336 199.661 381.692 210.405 382.437 220.843C383.341 233.53 385 241.383 379.723 248.935C374.446 256.486 362.987 259.809 353.94 258.903C345.411 258.082 338.548 253.952 333.13 248.149C330.725 245.572 328.603 242.666 326.747 239.573C323.548 234.243 321.137 228.358 319.413 222.655C316.549 212.99 315.041 203.022 314.438 193.054C314.325 191.182 314.195 189.38 314.084 187.637C313.603 180.096 313.459 173.663 316.398 167.53C323.333 153.635 349.417 139.891 363.138 151.822C376.858 163.754 361.027 162.092 356.654 158.166C356.397 157.934 356.108 157.734 355.79 157.561C350.713 154.803 338.402 159.268 333.435 162.395C325.143 167.681 323.032 173.722 323.032 183.237C323.032 201.36 325.293 222.353 335.848 237.607C346.402 252.861 349.568 251.049 359.519 249.841C369.47 248.633 370.224 247.424 372.636 243.044C375.049 238.665 373.692 232.623 373.541 228.395C373.089 216.463 371.732 204.381 369.621 192.6C367.51 180.82 365.701 167.681 356.504 158.317C356.25 158.059 356.013 157.807 355.79 157.561C347.941 148.89 359.028 147.861 362.987 151.973L363.288 151.822Z"/>
<path d="M311.422 186.106C307.502 182.028 302.074 177.497 296.043 179.31C290.012 181.122 288.203 185.049 285.791 188.976C280.815 197.282 278.554 206.193 279.157 215.708C280.061 229.452 283.831 247.273 295.893 255.58C307.954 263.887 323.032 251.955 326.349 240.779C326.476 240.349 326.609 239.948 326.747 239.573C330.198 230.203 336.688 237.677 335.094 243.195C334.591 244.89 333.93 246.548 333.13 248.149C326.731 260.961 311.422 270.179 296.948 266.152C295.574 265.77 294.254 265.236 292.989 264.569C279.263 257.331 271.93 234.431 270.412 219.635C268.753 203.475 272.07 191.241 280.966 179.763C289.862 168.285 306.145 167.832 317.755 179.461C327.393 189.116 319.469 190.026 314.084 187.637C312.983 187.149 311.988 186.522 311.271 185.804L311.422 186.106Z"/>
<path d="M352.885 375.649C345.698 375.129 339.24 373.147 333.445 370.082C317.358 361.574 306.375 344.72 299.059 327.621C289.108 304.363 283.831 279.443 283.529 255.127C283.529 255.127 292.576 249.237 292.576 255.127C292.62 258.247 292.759 261.399 292.989 264.569C294.342 283.188 298.821 302.43 305.391 319.466C313.684 340.459 327.857 364.774 352.734 366.587C377.612 368.399 358.614 376.102 352.734 375.649H352.885Z"/>
<path d="M464.91 368.852C459.331 385.314 460.839 401.022 460.99 417.937C461.141 434.852 451.943 423.827 451.943 417.937C451.811 402.33 450.639 387.65 454.298 372.781C454.818 370.671 455.434 368.557 456.165 366.436C456.165 366.436 466.719 363.264 464.91 368.852Z"/>
<path d="M331.777 359.79C332.575 363.17 333.114 366.607 333.445 370.082C335.052 386.949 331.766 404.703 329.515 421.109C326.801 440.893 320.016 424.431 320.77 418.692C323.183 400.569 327.404 380.18 323.032 362.056C318.659 343.932 331.777 359.639 331.777 359.639V359.79Z"/>
<path d="M437.318 277.932C428.574 280.5 420.582 284.88 414.401 291.676C408.219 298.472 403.545 306.024 404.148 313.575C404.751 321.127 395.554 319.465 395.102 313.575C394.348 304.362 400.982 293.639 406.561 286.843C412.139 280.047 424.05 272.344 434.906 269.173C436.079 268.83 437.093 268.644 437.959 268.587C440.219 268.44 441.483 269.171 441.999 270.286C443.115 272.7 440.722 276.919 437.318 277.932Z"/>
<path d="M443.349 286.541C443.349 281.708 442.294 277.026 442.294 272.193C442.294 271.577 442.439 271.022 442.692 270.535C444.421 267.204 451.209 267.054 451.34 272.193C451.348 272.48 451.357 272.762 451.368 273.039C451.577 278.44 452.396 281.944 452.396 286.541C452.396 291.374 443.5 292.431 443.349 286.541Z"/>
<path d="M405.656 187.465C397.966 188.523 389.975 188.825 382.286 189.882C380.749 190.093 379.502 189.9 378.535 189.45C374.663 187.649 375.289 181.726 379.874 181.122C381.38 180.924 383.179 180.735 385.152 180.547C390.681 180.018 397.576 179.485 403.243 178.706C410.933 177.649 411.385 186.71 405.656 187.465Z"/>
<path d="M488.575 212.481C491.217 198.066 494.482 183.772 497.477 169.342C500.643 154.088 502.151 139.287 505.92 124.637C509.69 109.987 515.268 94.1291 514.514 78.422C513.911 67.3968 507.277 47.0078 492.954 48.2161C478.63 49.4243 473.353 77.6669 471.092 90.6554C467.624 111.044 464.608 131.433 460.236 151.671C455.863 171.909 456.617 167.681 453.753 175.383C450.888 183.086 449.531 186.71 444.254 188.976C425.86 197.131 426.463 167.832 426.01 157.713C424.804 130.376 425.709 103.191 424.653 75.8545C423.598 48.5181 423.296 19.5204 397.062 21.0307C370.827 22.541 379.421 38.7012 379.421 38.7012C377.612 54.7104 380.778 71.7767 381.683 87.7859C383.143 118.652 382.199 149.801 385.152 180.547C390.681 180.018 397.576 179.485 403.243 178.706C410.933 177.649 411.385 186.71 405.656 187.465C397.966 188.523 389.975 188.825 382.286 189.882C380.749 190.093 379.502 189.9 378.535 189.45C380.336 199.661 381.692 210.405 382.437 220.843C383.341 233.53 385 241.383 379.723 248.935C374.446 256.486 362.987 259.809 353.94 258.903C345.411 258.082 338.548 253.952 333.13 248.149C326.731 260.961 311.422 270.179 296.948 266.152C295.574 265.77 294.254 265.236 292.989 264.569C294.342 283.188 298.821 302.43 305.391 319.466C313.684 340.459 327.857 364.774 352.734 366.587C377.612 368.399 358.614 376.102 352.734 375.649H352.885C345.698 375.129 339.24 373.147 333.445 370.082C335.052 386.949 331.766 404.703 329.515 421.109L451.943 417.937C451.811 402.33 450.639 387.65 454.298 372.781C452.822 372.986 451.333 373.137 449.833 373.232C421.336 375.044 443.952 364.472 449.833 364.17H449.682C470.187 362.962 489.034 346.802 501.548 331.699C514.062 316.596 524.918 289.109 519.188 264.189C513.459 239.269 512.705 242.44 506.373 233.076C500.04 223.713 487.827 222.051 477.123 219.031C466.418 216.01 451.34 212.234 438.223 210.875C425.106 209.516 420.13 208.308 415.908 215.557C409.124 226.884 418.019 240.628 425.859 248.633C433.7 256.637 435.66 257.241 441.54 260.262C447.42 263.282 455.713 264.491 462.799 266.454C469.885 268.417 466.116 276.724 460.387 275.214C457.796 274.531 454.65 273.848 451.368 273.039C451.577 278.44 452.396 281.944 452.396 286.541C452.396 291.374 443.5 292.431 443.349 286.541C443.349 281.708 442.294 277.026 442.294 272.193C442.294 271.577 442.439 271.022 442.692 270.535C442.459 270.453 442.228 270.37 441.999 270.286C443.115 272.7 440.722 276.919 437.318 277.932C428.574 280.5 420.582 284.88 414.401 291.676C408.219 298.472 403.545 306.024 404.148 313.575C404.751 321.127 395.554 319.465 395.102 313.575C394.348 304.362 400.982 293.639 406.561 286.843C412.139 280.047 424.05 272.344 434.906 269.173C436.079 268.83 437.093 268.644 437.959 268.587C431.961 265.732 426.482 261.678 421.638 257.241C413.044 249.237 405.203 237.909 404.45 225.827C403.696 213.745 408.671 205.136 418.622 202.417C428.573 199.699 443.349 202.115 454.506 204.23C465.664 206.344 470.338 207.704 478.178 209.818C481.374 210.68 484.945 211.516 488.575 212.481Z"/>
<path d="M355.79 157.561C350.713 154.803 338.402 159.268 333.435 162.395C325.143 167.681 323.032 173.722 323.032 183.237C323.032 201.36 325.293 222.353 335.848 237.607C346.402 252.861 349.568 251.049 359.519 249.841C369.47 248.633 370.224 247.424 372.636 243.044C375.049 238.665 373.692 232.623 373.541 228.395C373.089 216.463 371.732 204.381 369.621 192.6C367.51 180.82 365.701 167.681 356.504 158.317C356.25 158.059 356.013 157.807 355.79 157.561Z"/>
<path d="M319.413 222.655C316.549 212.99 315.041 203.022 314.438 193.054C314.325 191.182 314.195 189.38 314.084 187.637C312.983 187.149 311.988 186.522 311.271 185.804L311.422 186.106C307.502 182.028 302.074 177.497 296.043 179.31C290.012 181.122 288.203 185.049 285.791 188.976C280.815 197.282 278.554 206.193 279.157 215.708C280.061 229.452 283.831 247.273 295.893 255.58C307.954 263.887 323.032 251.955 326.349 240.779C326.476 240.349 326.609 239.948 326.747 239.573C323.548 234.243 321.137 228.358 319.413 222.655Z"/>
</mask>
<path d="M376.557 183.841C373.39 153.937 374.295 123.429 372.938 93.374C371.581 63.319 369.772 60.6005 370.224 44.4403C370.676 28.2801 371.883 25.1085 378.969 18.7653C392.539 6.38083 413.647 12.271 423.146 26.1657C432.644 40.0605 432.343 50.7836 433.247 63.4701C434.152 76.1566 434.454 93.676 434.454 108.779C434.454 123.882 434.454 137.173 434.906 151.218C435.358 165.264 435.207 162.092 435.66 167.53C436.112 172.967 435.66 176.44 437.62 179.461C439.58 182.482 437.62 181.726 439.881 180.971C442.143 180.216 441.238 180.216 441.992 179.159C444.103 176.591 445.159 172.816 446.063 169.795C448.928 161.035 450.888 151.973 452.697 143.063C456.919 121.919 459.934 100.472 463.854 79.3282C467.775 58.184 472.449 40.8156 492.2 39.3053C505.016 38.3991 514.364 48.9712 519.188 59.6943C526.275 75.4014 523.259 93.374 519.188 109.534C515.118 125.694 514.364 126.903 512.554 135.813C510.745 144.724 509.84 153.182 508.182 161.941C504.714 180.518 500.191 198.793 496.874 217.369C496.874 217.369 487.074 220.692 488.129 214.953C488.276 214.129 488.425 213.305 488.575 212.481C491.217 198.066 494.482 183.772 497.477 169.342C500.643 154.088 502.151 139.287 505.92 124.637C509.69 109.987 515.268 94.1291 514.514 78.422C513.911 67.3968 507.277 47.0078 492.954 48.2161C478.63 49.4243 473.353 77.6669 471.092 90.6554C467.624 111.044 464.608 131.433 460.236 151.671C455.863 171.909 456.617 167.681 453.753 175.383C450.888 183.086 449.531 186.71 444.254 188.976C425.86 197.131 426.463 167.832 426.01 157.713C424.804 130.376 425.709 103.191 424.653 75.8545C423.598 48.5181 423.296 19.5204 397.062 21.0307C370.827 22.541 379.421 38.7012 379.421 38.7012C377.612 54.7104 380.778 71.7767 381.683 87.7859C383.143 118.652 382.199 149.801 385.152 180.547C385.248 181.545 385.348 182.542 385.452 183.539C385.452 183.539 377.009 189.278 376.406 183.539L376.557 183.841Z" fill="#222221"/>
<path d="M449.682 364.17C470.187 362.962 489.034 346.802 501.548 331.699C514.062 316.596 524.918 289.109 519.188 264.189C513.459 239.269 512.705 242.44 506.373 233.076C500.04 223.713 487.827 222.051 477.123 219.031C466.418 216.01 451.34 212.234 438.223 210.875C425.106 209.516 420.13 208.308 415.908 215.557C409.124 226.884 418.019 240.628 425.859 248.633C433.7 256.637 435.66 257.241 441.54 260.262C447.42 263.282 455.713 264.491 462.799 266.454C469.885 268.417 466.116 276.724 460.387 275.214C457.796 274.531 454.65 273.848 451.368 273.039C448.487 272.329 445.5 271.523 442.692 270.535C442.459 270.453 442.228 270.37 441.999 270.286C441.172 269.982 440.363 269.663 439.58 269.324C439.036 269.088 438.495 268.843 437.959 268.587C431.961 265.732 426.482 261.678 421.638 257.241C413.044 249.237 405.203 237.909 404.45 225.827C403.696 213.745 408.671 205.136 418.622 202.417C428.573 199.699 443.349 202.115 454.506 204.23C465.664 206.344 470.338 207.704 478.178 209.818C481.374 210.68 484.945 211.516 488.575 212.481C493.852 213.884 499.254 215.558 503.809 217.974C511.499 222.051 518.133 234.436 521.902 243.346C533.21 270.532 533.361 298.472 517.982 323.996C503.413 348.176 480.86 369.103 454.298 372.781C452.822 372.986 451.333 373.137 449.833 373.232C421.336 375.044 443.952 364.472 449.833 364.17H449.682Z" fill="#222221"/>
<path d="M363.288 151.822C372.033 160.884 374.898 170.852 377.31 182.935C377.738 185.076 378.147 187.251 378.535 189.45C380.336 199.661 381.692 210.405 382.437 220.843C383.341 233.53 385 241.383 379.723 248.935C374.446 256.486 362.987 259.809 353.94 258.903C345.411 258.082 338.548 253.952 333.13 248.149C330.725 245.572 328.603 242.666 326.747 239.573C323.548 234.243 321.137 228.358 319.413 222.655C316.549 212.99 315.041 203.022 314.438 193.054C314.325 191.182 314.195 189.38 314.084 187.637C313.603 180.096 313.459 173.663 316.398 167.53C323.333 153.635 349.417 139.891 363.138 151.822C376.858 163.754 361.027 162.092 356.654 158.166C356.397 157.934 356.108 157.734 355.79 157.561C350.713 154.803 338.402 159.268 333.435 162.395C325.143 167.681 323.032 173.722 323.032 183.237C323.032 201.36 325.293 222.353 335.848 237.607C346.402 252.861 349.568 251.049 359.519 249.841C369.47 248.633 370.224 247.424 372.636 243.044C375.049 238.665 373.692 232.623 373.541 228.395C373.089 216.463 371.732 204.381 369.621 192.6C367.51 180.82 365.701 167.681 356.504 158.317C356.25 158.059 356.013 157.807 355.79 157.561C347.941 148.89 359.028 147.861 362.987 151.973L363.288 151.822Z" fill="#222221"/>
<path d="M311.422 186.106C307.502 182.028 302.074 177.497 296.043 179.31C290.012 181.122 288.203 185.049 285.791 188.976C280.815 197.282 278.554 206.193 279.157 215.708C280.061 229.452 283.831 247.273 295.893 255.58C307.954 263.887 323.032 251.955 326.349 240.779C326.476 240.349 326.609 239.948 326.747 239.573C330.198 230.203 336.688 237.677 335.094 243.195C334.591 244.89 333.93 246.548 333.13 248.149C326.731 260.961 311.422 270.179 296.948 266.152C295.574 265.77 294.254 265.236 292.989 264.569C279.263 257.331 271.93 234.431 270.412 219.635C268.753 203.475 272.07 191.241 280.966 179.763C289.862 168.285 306.145 167.832 317.755 179.461C327.393 189.116 319.469 190.026 314.084 187.637C312.983 187.149 311.988 186.522 311.271 185.804L311.422 186.106Z" fill="#222221"/>
<path d="M352.885 375.649C345.698 375.129 339.24 373.147 333.445 370.082C317.358 361.574 306.375 344.72 299.059 327.621C289.108 304.363 283.831 279.443 283.529 255.127C283.529 255.127 292.576 249.237 292.576 255.127C292.62 258.247 292.759 261.399 292.989 264.569C294.342 283.188 298.821 302.43 305.391 319.466C313.684 340.459 327.857 364.774 352.734 366.587C377.612 368.399 358.614 376.102 352.734 375.649H352.885Z" fill="#222221"/>
<path d="M464.91 368.852C459.331 385.314 460.839 401.022 460.99 417.937C461.141 434.852 451.943 423.827 451.943 417.937C451.811 402.33 450.639 387.65 454.298 372.781C454.818 370.671 455.434 368.557 456.165 366.436C456.165 366.436 466.719 363.264 464.91 368.852Z" fill="#222221"/>
<path d="M331.777 359.79C332.575 363.17 333.114 366.607 333.445 370.082C335.052 386.949 331.766 404.703 329.515 421.109C326.801 440.893 320.016 424.431 320.77 418.692C323.183 400.569 327.404 380.18 323.032 362.056C318.659 343.932 331.777 359.639 331.777 359.639V359.79Z" fill="#222221"/>
<path d="M437.318 277.932C428.574 280.5 420.582 284.88 414.401 291.676C408.219 298.472 403.545 306.024 404.148 313.575C404.751 321.127 395.554 319.465 395.102 313.575C394.348 304.362 400.982 293.639 406.561 286.843C412.139 280.047 424.05 272.344 434.906 269.173C436.079 268.83 437.093 268.644 437.959 268.587C440.219 268.44 441.483 269.171 441.999 270.286C443.115 272.7 440.722 276.919 437.318 277.932Z" fill="#222221"/>
<path d="M443.349 286.541C443.349 281.708 442.294 277.026 442.294 272.193C442.294 271.577 442.439 271.022 442.692 270.535C444.421 267.204 451.209 267.054 451.34 272.193C451.348 272.48 451.357 272.762 451.368 273.039C451.577 278.44 452.396 281.944 452.396 286.541C452.396 291.374 443.5 292.431 443.349 286.541Z" fill="#222221"/>
<path d="M405.656 187.465C397.966 188.523 389.975 188.825 382.286 189.882C380.749 190.093 379.502 189.9 378.535 189.45C374.663 187.649 375.289 181.726 379.874 181.122C381.38 180.924 383.179 180.735 385.152 180.547C390.681 180.018 397.576 179.485 403.243 178.706C410.933 177.649 411.385 186.71 405.656 187.465Z" fill="#222221"/>
<path d="M488.575 212.481C491.217 198.066 494.482 183.772 497.477 169.342C500.643 154.088 502.151 139.287 505.92 124.637C509.69 109.987 515.268 94.1291 514.514 78.422C513.911 67.3968 507.277 47.0078 492.954 48.2161C478.63 49.4243 473.353 77.6669 471.092 90.6554C467.624 111.044 464.608 131.433 460.236 151.671C455.863 171.909 456.617 167.681 453.753 175.383C450.888 183.086 449.531 186.71 444.254 188.976C425.86 197.131 426.463 167.832 426.01 157.713C424.804 130.376 425.709 103.191 424.653 75.8545C423.598 48.5181 423.296 19.5204 397.062 21.0307C370.827 22.541 379.421 38.7012 379.421 38.7012C377.612 54.7104 380.778 71.7767 381.683 87.7859C383.143 118.652 382.199 149.801 385.152 180.547C390.681 180.018 397.576 179.485 403.243 178.706C410.933 177.649 411.385 186.71 405.656 187.465C397.966 188.523 389.975 188.825 382.286 189.882C380.749 190.093 379.502 189.9 378.535 189.45C380.336 199.661 381.692 210.405 382.437 220.843C383.341 233.53 385 241.383 379.723 248.935C374.446 256.486 362.987 259.809 353.94 258.903C345.411 258.082 338.548 253.952 333.13 248.149C326.731 260.961 311.422 270.179 296.948 266.152C295.574 265.77 294.254 265.236 292.989 264.569C294.342 283.188 298.821 302.43 305.391 319.466C313.684 340.459 327.857 364.774 352.734 366.587C377.612 368.399 358.614 376.102 352.734 375.649H352.885C345.698 375.129 339.24 373.147 333.445 370.082C335.052 386.949 331.766 404.703 329.515 421.109L451.943 417.937C451.811 402.33 450.639 387.65 454.298 372.781C452.822 372.986 451.333 373.137 449.833 373.232C421.336 375.044 443.952 364.472 449.833 364.17H449.682C470.187 362.962 489.034 346.802 501.548 331.699C514.062 316.596 524.918 289.109 519.188 264.189C513.459 239.269 512.705 242.44 506.373 233.076C500.04 223.713 487.827 222.051 477.123 219.031C466.418 216.01 451.34 212.234 438.223 210.875C425.106 209.516 420.13 208.308 415.908 215.557C409.124 226.884 418.019 240.628 425.859 248.633C433.7 256.637 435.66 257.241 441.54 260.262C447.42 263.282 455.713 264.491 462.799 266.454C469.885 268.417 466.116 276.724 460.387 275.214C457.796 274.531 454.65 273.848 451.368 273.039C451.577 278.44 452.396 281.944 452.396 286.541C452.396 291.374 443.5 292.431 443.349 286.541C443.349 281.708 442.294 277.026 442.294 272.193C442.294 271.577 442.439 271.022 442.692 270.535C442.459 270.453 442.228 270.37 441.999 270.286C443.115 272.7 440.722 276.919 437.318 277.932C428.574 280.5 420.582 284.88 414.401 291.676C408.219 298.472 403.545 306.024 404.148 313.575C404.751 321.127 395.554 319.465 395.102 313.575C394.348 304.362 400.982 293.639 406.561 286.843C412.139 280.047 424.05 272.344 434.906 269.173C436.079 268.83 437.093 268.644 437.959 268.587C431.961 265.732 426.482 261.678 421.638 257.241C413.044 249.237 405.203 237.909 404.45 225.827C403.696 213.745 408.671 205.136 418.622 202.417C428.573 199.699 443.349 202.115 454.506 204.23C465.664 206.344 470.338 207.704 478.178 209.818C481.374 210.68 484.945 211.516 488.575 212.481Z" fill="#C0AB7F"/>
<path d="M355.79 157.561C350.713 154.803 338.402 159.268 333.435 162.395C325.143 167.681 323.032 173.722 323.032 183.237C323.032 201.36 325.293 222.353 335.848 237.607C346.402 252.861 349.568 251.049 359.519 249.841C369.47 248.633 370.224 247.424 372.636 243.044C375.049 238.665 373.692 232.623 373.541 228.395C373.089 216.463 371.732 204.381 369.621 192.6C367.51 180.82 365.701 167.681 356.504 158.317C356.25 158.059 356.013 157.807 355.79 157.561Z" fill="#C0AB7F"/>
<path d="M319.413 222.655C316.549 212.99 315.041 203.022 314.438 193.054C314.325 191.182 314.195 189.38 314.084 187.637C312.983 187.149 311.988 186.522 311.271 185.804L311.422 186.106C307.502 182.028 302.074 177.497 296.043 179.31C290.012 181.122 288.203 185.049 285.791 188.976C280.815 197.282 278.554 206.193 279.157 215.708C280.061 229.452 283.831 247.273 295.893 255.58C307.954 263.887 323.032 251.955 326.349 240.779C326.476 240.349 326.609 239.948 326.747 239.573C323.548 234.243 321.137 228.358 319.413 222.655Z" fill="#C0AB7F"/>
<path d="M497.477 169.342L501.394 170.155L497.477 169.342ZM505.92 124.637L509.794 125.634L505.92 124.637ZM514.514 78.422L518.51 78.2303L518.509 78.2169L518.508 78.2035L514.514 78.422ZM471.092 90.6554L467.151 89.9693L467.15 89.977L467.148 89.9847L471.092 90.6554ZM460.236 151.671L456.326 150.827L460.236 151.671ZM444.254 188.976L442.676 185.3L442.654 185.31L442.633 185.319L444.254 188.976ZM426.01 157.713L422.014 157.889L422.014 157.891L426.01 157.713ZM424.653 75.8545L420.656 76.0088L424.653 75.8545ZM379.421 38.7012L383.396 39.1504L383.535 37.918L382.953 36.823L379.421 38.7012ZM381.683 87.7859L385.678 87.5968L385.678 87.5785L385.676 87.5602L381.683 87.7859ZM449.682 364.17L449.446 360.177L449.682 368.17V364.17ZM501.548 331.699L504.628 334.251L501.548 331.699ZM519.188 264.189L523.087 263.292L519.188 264.189ZM477.123 219.031L476.036 222.88L477.123 219.031ZM438.223 210.875L437.811 214.854L438.223 210.875ZM415.908 215.557L419.34 217.612L419.353 217.591L419.365 217.57L415.908 215.557ZM441.54 260.262L439.712 263.82L441.54 260.262ZM462.799 266.454L461.731 270.309L462.799 266.454ZM460.387 275.214L461.406 271.346L461.406 271.346L460.387 275.214ZM421.638 257.241L418.912 260.168L418.924 260.18L418.936 260.191L421.638 257.241ZM404.45 225.827L408.442 225.578L404.45 225.827ZM418.622 202.417L419.677 206.276L418.622 202.417ZM478.178 209.818L479.219 205.956L478.178 209.818ZM449.833 373.232L449.579 369.24H449.579L449.833 373.232ZM449.833 364.17L450.038 368.165L449.833 360.17V364.17ZM382.437 220.843L378.447 221.128L382.437 220.843ZM379.723 248.935L376.444 246.643V246.643L379.723 248.935ZM353.94 258.903L354.339 254.922L354.331 254.922L354.323 254.921L353.94 258.903ZM319.413 222.655L315.578 223.792L315.581 223.802L315.584 223.813L319.413 222.655ZM314.438 193.054L310.445 193.295L314.438 193.054ZM333.435 162.395L331.304 159.01L331.295 159.016L331.285 159.022L333.435 162.395ZM335.848 237.607L339.137 235.331L335.848 237.607ZM359.519 249.841L359.037 245.87L359.519 249.841ZM372.636 243.044L369.133 241.115H369.133L372.636 243.044ZM373.541 228.395L377.539 228.252L377.538 228.243L373.541 228.395ZM369.621 192.6L373.558 191.895L369.621 192.6ZM356.504 158.317L359.357 155.514L359.357 155.514L356.504 158.317ZM311.422 186.106L308.539 188.878L315.001 184.319L311.422 186.106ZM296.043 179.31L294.892 175.479L296.043 179.31ZM285.791 188.976L282.383 186.882L282.371 186.901L282.359 186.92L285.791 188.976ZM279.157 215.708L275.165 215.961L275.165 215.971L279.157 215.708ZM295.893 255.58L298.161 252.286H298.161L295.893 255.58ZM326.349 240.779L330.184 241.917L330.184 241.917L326.349 240.779ZM296.948 266.152L298.02 262.298H298.02L296.948 266.152ZM311.271 185.804L314.102 182.978L307.693 187.591L311.271 185.804ZM352.885 375.649V379.649L353.174 371.659L352.885 375.649ZM305.391 319.466L301.659 320.905L301.665 320.92L301.671 320.935L305.391 319.466ZM352.734 366.587L352.444 370.576L352.734 366.587ZM352.734 375.649V371.649L352.427 379.637L352.734 375.649ZM437.318 277.932L438.445 281.77L438.453 281.768L438.46 281.766L437.318 277.932ZM404.148 313.575L400.161 313.894L404.148 313.575ZM395.102 313.575L399.09 313.269L399.089 313.259L399.088 313.249L395.102 313.575ZM434.906 269.173L433.784 265.333H433.784L434.906 269.173ZM443.349 286.541H439.349V286.592L439.351 286.643L443.349 286.541ZM405.656 187.465L405.133 183.5L405.122 183.501L405.111 183.503L405.656 187.465ZM382.286 189.882L381.741 185.919L382.286 189.882ZM403.243 178.706L403.788 182.668L403.243 178.706ZM488.575 212.481L487.548 216.347L491.73 217.459L492.51 213.202L488.575 212.481ZM385.152 180.547L381.171 180.929L381.553 184.909L385.533 184.529L385.152 180.547ZM378.535 189.45L380.222 185.824L373.262 182.586L374.595 190.145L378.535 189.45ZM333.13 248.149L336.054 245.419L332.125 241.211L329.552 246.362L333.13 248.149ZM292.989 264.569L294.855 261.03L288.478 257.668L289 264.858L292.989 264.569ZM333.445 370.082L335.315 366.546L328.76 363.079L329.463 370.462L333.445 370.082ZM454.298 372.781L458.182 373.737L459.592 368.01L453.75 368.819L454.298 372.781ZM451.368 273.039L452.324 269.155L447.164 267.884L447.371 273.194L451.368 273.039ZM442.692 270.535L446.242 272.378L448.364 268.29L444.019 266.761L442.692 270.535ZM441.999 270.286L443.377 266.531L434.318 263.207L438.368 271.965L441.999 270.286ZM437.959 268.587L438.22 272.579L453.55 271.579L439.679 264.976L437.959 268.587ZM355.79 157.561L358.755 154.877L358.298 154.372L357.7 154.046L355.79 157.561ZM314.084 187.637L318.076 187.383L317.922 184.964L315.707 183.981L314.084 187.637ZM326.747 239.573L330.501 240.956L331.163 239.158L330.177 237.515L326.747 239.573ZM501.394 170.155C502.997 162.429 504.184 154.801 505.418 147.423C506.659 140.001 507.955 132.781 509.794 125.634L502.047 123.64C500.116 131.143 498.774 138.649 497.527 146.103C496.273 153.602 495.123 161.001 493.56 168.529L501.394 170.155ZM509.794 125.634C513.432 111.494 519.302 94.7284 518.51 78.2303L510.519 78.6138C511.235 93.5298 505.947 108.48 502.047 123.64L509.794 125.634ZM518.508 78.2035C518.179 72.1838 516.238 63.7203 512.373 56.7844C508.551 49.9256 502.119 43.4288 492.618 44.2302L493.29 52.2019C498.113 51.7951 502.159 54.8887 505.385 60.6786C508.569 66.3915 510.247 73.635 510.52 78.6405L518.508 78.2035ZM492.618 44.2302C487.64 44.6501 483.728 47.423 480.754 50.9535C477.804 54.4554 475.538 58.9663 473.765 63.5843C470.216 72.8284 468.278 83.4949 467.151 89.9693L475.032 91.3416C476.167 84.8274 477.998 74.8783 481.234 66.4519C482.853 62.2347 484.734 58.6467 486.872 56.1074C488.987 53.5967 491.106 52.3861 493.29 52.2019L492.618 44.2302ZM467.148 89.9847C463.661 110.487 460.674 130.704 456.326 150.827L464.146 152.516C468.543 132.163 471.586 111.602 475.035 91.3261L467.148 89.9847ZM456.326 150.827C454.124 161.017 453.256 164.841 452.591 167.1C451.916 169.397 451.605 169.683 450.004 173.989L457.502 176.777C458.765 173.38 459.51 171.93 460.266 169.357C461.034 166.745 461.975 162.563 464.146 152.516L456.326 150.827ZM450.004 173.989C448.518 177.984 447.611 180.362 446.524 182.085C445.603 183.546 444.577 184.484 442.676 185.3L445.832 192.651C449.208 191.202 451.499 189.195 453.292 186.352C454.919 183.77 456.123 180.485 457.502 176.777L450.004 173.989ZM442.633 185.319C438.887 186.98 437.041 186.398 435.985 185.667C434.591 184.701 433.265 182.582 432.244 179.079C430.213 172.105 430.248 162.951 430.006 157.534L422.014 157.891C422.225 162.593 422.184 173.148 424.563 181.316C425.748 185.383 427.748 189.692 431.429 192.242C435.447 195.027 440.424 195.049 445.875 192.632L442.633 185.319ZM430.006 157.536C429.407 143.959 429.332 130.405 429.275 116.767C429.219 103.153 429.181 89.4504 428.65 75.7002L420.656 76.0088C421.181 89.595 421.219 103.153 421.275 116.8C421.332 130.423 421.407 144.13 422.014 157.889L430.006 157.536ZM428.65 75.7002C428.133 62.2957 427.806 47.5128 424.095 36.3621C422.208 30.6912 419.329 25.5569 414.763 21.9701C410.122 18.3242 404.17 16.6149 396.832 17.0373L397.292 25.0241C403.071 24.6914 406.994 26.0404 409.821 28.2611C412.723 30.5408 414.905 34.0813 416.504 38.8881C419.767 48.6927 420.118 62.077 420.656 76.0088L428.65 75.7002ZM396.832 17.0373C389.907 17.436 384.818 18.8195 381.182 20.9975C377.431 23.2447 375.38 26.2542 374.539 29.399C373.734 32.4114 374.12 35.2258 374.614 37.149C374.867 38.1323 375.166 38.9484 375.406 39.531C375.527 39.824 375.636 40.0627 375.72 40.2391C375.762 40.3275 375.798 40.4006 375.827 40.4575C375.841 40.486 375.854 40.5105 375.864 40.5308C375.869 40.541 375.874 40.5501 375.878 40.5582C375.881 40.5622 375.883 40.566 375.884 40.5696C375.885 40.5713 375.887 40.5738 375.887 40.5746C375.888 40.577 375.89 40.5793 379.421 38.7012C382.953 36.823 382.954 36.8252 382.955 36.8274C382.956 36.828 382.957 36.8301 382.957 36.8314C382.959 36.8339 382.96 36.8362 382.961 36.8383C382.963 36.8425 382.965 36.8458 382.966 36.8482C382.969 36.8529 382.969 36.8542 382.968 36.8521C382.966 36.8477 382.957 36.8299 382.943 36.7995C382.913 36.7385 382.863 36.6285 382.8 36.4767C382.673 36.1696 382.505 35.7115 382.362 35.1561C382.065 34.0021 381.942 32.6821 382.268 31.4656C382.558 30.3816 383.278 29.0678 385.293 27.8603C387.425 26.5835 391.1 25.3806 397.292 25.0241L396.832 17.0373ZM375.447 38.252C374.498 46.6462 374.863 55.2219 375.548 63.5706C376.248 72.1024 377.238 80.0316 377.689 88.0115L385.676 87.5602C385.223 79.531 384.178 70.9224 383.521 62.9164C382.849 54.7274 382.535 46.7653 383.396 39.1504L375.447 38.252ZM449.917 368.163C472.183 366.851 491.976 349.52 504.628 334.251L498.468 329.147C486.091 344.084 468.19 359.073 449.446 360.177L449.917 368.163ZM504.628 334.251C517.702 318.472 529.169 289.745 523.087 263.292L515.29 265.085C520.667 288.472 510.422 314.72 498.468 329.147L504.628 334.251ZM523.087 263.292C520.238 250.903 518.532 245.019 516.605 241.052C515.6 238.982 514.566 237.493 513.447 235.992C512.333 234.498 511.2 233.075 509.686 230.836L503.059 235.317C504.711 237.76 506.047 239.452 507.035 240.775C508.017 242.092 508.718 243.124 509.409 244.546C510.874 247.564 512.409 252.554 515.29 265.085L523.087 263.292ZM509.686 230.836C505.874 225.199 500.383 222.048 494.804 219.934C489.42 217.895 483.151 216.576 478.209 215.181L476.036 222.88C481.799 224.506 486.989 225.528 491.97 227.415C496.757 229.229 500.538 231.59 503.059 235.317L509.686 230.836ZM478.209 215.181C467.454 212.146 452.107 208.292 438.635 206.896L437.811 214.854C450.574 216.176 465.381 219.874 476.036 222.88L478.209 215.181ZM438.635 206.896C435.448 206.566 432.553 206.223 430.117 206.027C427.668 205.83 425.351 205.749 423.225 206.02C421.028 206.299 418.948 206.963 417.039 208.298C415.159 209.613 413.699 211.403 412.452 213.544L419.365 217.57C420.229 216.087 420.974 215.309 421.624 214.854C422.246 214.419 423.02 214.11 424.235 213.956C425.52 213.792 427.17 213.816 429.475 214.001C431.793 214.187 434.439 214.504 437.811 214.854L438.635 206.896ZM412.477 213.502C408.218 220.612 409.056 228.293 411.689 234.834C414.308 241.34 418.865 247.208 423.002 251.431L428.717 245.834C425.014 242.053 421.203 237.047 419.11 231.847C417.032 226.684 416.814 221.83 419.34 217.612L412.477 213.502ZM423.002 251.431C426.981 255.494 429.639 257.858 432.155 259.603C434.64 261.326 436.935 262.393 439.712 263.82L443.368 256.704C440.264 255.11 438.64 254.364 436.714 253.029C434.82 251.716 432.578 249.775 428.717 245.834L423.002 251.431ZM439.712 263.82C443.081 265.551 446.998 266.696 450.745 267.635C454.715 268.629 458.202 269.331 461.731 270.309L463.867 262.599C460.31 261.614 456.108 260.73 452.689 259.874C449.049 258.963 445.879 257.994 443.368 256.704L439.712 263.82ZM461.731 270.309C462.226 270.446 462.488 270.6 462.605 270.686C462.715 270.766 462.716 270.798 462.693 270.755C462.632 270.642 462.696 270.614 462.638 270.774C462.573 270.955 462.413 271.16 462.198 271.282C462.101 271.337 461.999 271.373 461.889 271.388C461.782 271.402 461.625 271.404 461.406 271.346L459.367 279.082C464.473 280.428 468.77 277.337 470.16 273.499C470.874 271.525 470.91 269.147 469.742 266.971C468.559 264.769 466.438 263.312 463.867 262.599L461.731 270.309ZM424.364 254.314C416.108 246.625 409.104 236.19 408.442 225.578L400.457 226.076C401.303 239.629 409.979 251.849 418.912 260.168L424.364 254.314ZM408.442 225.578C408.101 220.115 409.079 215.799 410.955 212.664C412.789 209.597 415.641 207.379 419.677 206.276L417.568 198.559C411.653 200.175 407.042 203.62 404.089 208.558C401.177 213.427 400.044 219.457 400.457 226.076L408.442 225.578ZM419.677 206.276C423.976 205.102 429.603 204.982 435.779 205.497C441.893 206.008 448.206 207.107 453.762 208.16L455.251 200.3C449.649 199.238 442.996 198.072 436.445 197.525C429.956 196.983 423.22 197.015 417.568 198.559L419.677 206.276ZM453.762 208.16C464.756 210.243 469.302 211.567 477.136 213.68L479.219 205.956C471.374 203.84 466.571 202.445 455.251 200.3L453.762 208.16ZM449.579 369.24C446.106 369.461 443.514 369.486 441.631 369.382C440.692 369.33 439.971 369.248 439.432 369.154C438.878 369.058 438.601 368.964 438.51 368.926C438.471 368.91 438.514 368.923 438.606 368.984C438.699 369.045 438.872 369.174 439.061 369.395C439.257 369.623 439.458 369.938 439.594 370.339C439.732 370.744 439.775 371.149 439.75 371.517C439.702 372.214 439.427 372.617 439.39 372.671C439.34 372.743 439.365 372.687 439.564 372.515C439.749 372.354 440.018 372.149 440.383 371.91C440.743 371.673 441.165 371.423 441.641 371.165C442.596 370.647 443.702 370.136 444.836 369.68C445.97 369.224 447.085 368.843 448.052 368.573C448.534 368.439 448.958 368.337 449.313 368.268C449.679 368.197 449.916 368.171 450.038 368.165L449.627 360.176C447.465 360.287 444.439 361.218 441.853 362.257C439.239 363.307 436.247 364.799 434.319 366.474C433.811 366.915 433.264 367.464 432.809 368.122C432.367 368.762 431.854 369.732 431.769 370.965C431.551 374.107 433.989 375.714 435.458 376.321C436.988 376.952 438.962 377.246 441.189 377.369C443.5 377.497 446.435 377.456 450.086 377.224L449.579 369.24ZM449.833 360.17H449.682V368.17H449.833V360.17ZM378.447 221.128C378.922 227.788 379.524 232.471 379.4 236.697C379.284 240.651 378.516 243.678 376.444 246.643L383.002 251.226C386.207 246.639 387.248 241.964 387.396 236.932C387.536 232.172 386.856 226.584 386.427 220.559L378.447 221.128ZM376.444 246.643C374.415 249.547 371.027 251.85 366.901 253.323C362.792 254.789 358.261 255.315 354.339 254.922L353.542 262.883C358.667 263.396 364.388 262.714 369.59 260.857C374.774 259.007 379.753 255.874 383.002 251.226L376.444 246.643ZM323.248 221.519C320.487 212.202 319.019 202.544 318.431 192.812L310.445 193.295C311.063 203.5 312.61 213.777 315.578 223.792L323.248 221.519ZM331.285 159.022C326.657 161.972 323.455 165.336 321.498 169.542C319.577 173.667 319.032 178.23 319.032 183.237H327.032C327.032 178.728 327.542 175.513 328.75 172.918C329.921 170.403 331.921 168.103 335.585 165.768L331.285 159.022ZM319.032 183.237C319.032 201.488 321.264 223.559 332.558 239.883L339.137 235.331C329.323 221.147 327.032 201.232 327.032 183.237H319.032ZM332.558 239.883C337.825 247.495 341.853 251.837 346.462 253.626C348.847 254.552 351.123 254.698 353.324 254.578C355.359 254.467 357.759 254.084 360.001 253.812L359.037 245.87C356.304 246.202 354.576 246.498 352.889 246.59C351.368 246.673 350.327 246.545 349.357 246.169C347.256 245.353 344.425 242.974 339.137 235.331L332.558 239.883ZM360.001 253.812C364.895 253.217 368.366 252.561 370.904 251.097C373.742 249.459 375.002 247.041 376.14 244.974L369.133 241.115C367.858 243.428 367.535 243.804 366.906 244.167C365.976 244.704 364.094 245.256 359.037 245.87L360.001 253.812ZM376.14 244.974C377.857 241.857 378.111 238.399 378.049 235.575C378.017 234.133 377.897 232.724 377.786 231.493C377.671 230.208 377.571 229.173 377.539 228.252L369.544 228.537C369.586 229.731 369.713 231.037 369.819 232.211C369.929 233.438 370.026 234.606 370.051 235.75C370.102 238.1 369.828 239.852 369.133 241.115L376.14 244.974ZM377.538 228.243C377.078 216.114 375.7 203.847 373.558 191.895L365.684 193.306C367.764 204.915 369.099 216.812 369.544 228.546L377.538 228.243ZM373.558 191.895C371.521 180.525 369.601 165.943 359.357 155.514L353.65 161.12C361.801 169.418 363.499 181.116 365.684 193.306L373.558 191.895ZM314.306 183.334C312.264 181.21 309.586 178.701 306.437 176.986C303.224 175.237 299.238 174.173 294.892 175.479L297.195 183.141C298.88 182.634 300.623 182.93 302.612 184.012C304.664 185.13 306.66 186.924 308.539 188.878L314.306 183.334ZM294.892 175.479C287.15 177.806 284.607 183.26 282.383 186.882L289.199 191.07C291.799 186.838 292.875 184.439 297.195 183.141L294.892 175.479ZM282.359 186.92C276.986 195.891 274.508 205.602 275.165 215.961L283.149 215.455C282.599 206.784 284.645 198.674 289.222 191.031L282.359 186.92ZM275.165 215.971C275.632 223.056 276.842 231.343 279.572 239.022C282.293 246.679 286.647 254.07 293.624 258.874L298.161 252.286C293.076 248.783 289.515 243.11 287.11 236.343C284.713 229.599 283.586 222.104 283.148 215.445L275.165 215.971ZM293.624 258.874C301.305 264.164 309.83 262.807 316.425 258.935C322.914 255.125 328.212 248.56 330.184 241.917L322.514 239.641C321.169 244.175 317.269 249.163 312.375 252.036C307.587 254.847 302.542 255.303 298.161 252.286L293.624 258.874ZM307.693 187.591L307.844 187.893L315.001 184.319L314.85 184.017L307.693 187.591ZM301.671 320.935C305.888 331.61 311.701 343.409 319.812 352.829C327.964 362.296 338.637 369.57 352.444 370.576L353.025 362.597C341.954 361.791 333.101 356.001 325.875 347.609C318.607 339.169 313.188 328.315 309.112 317.996L301.671 320.935ZM352.444 370.576C355.448 370.795 357.686 371.096 359.307 371.432C360.114 371.599 360.732 371.768 361.195 371.924C361.665 372.083 361.911 372.209 362.007 372.266C362.114 372.33 361.938 372.251 361.716 371.948C361.598 371.786 361.468 371.563 361.369 371.276C361.269 370.986 361.216 370.674 361.217 370.357C361.219 369.718 361.434 369.278 361.548 369.091C361.655 368.915 361.72 368.881 361.622 368.968C361.534 369.046 361.369 369.172 361.105 369.336C360.846 369.496 360.527 369.67 360.151 369.851C359.393 370.213 358.488 370.561 357.531 370.857C356.576 371.153 355.626 371.379 354.791 371.517C354.375 371.586 354.008 371.629 353.697 371.651C353.38 371.673 353.164 371.67 353.042 371.66L352.427 379.637C354.643 379.808 357.502 379.241 359.896 378.5C362.266 377.767 365.078 376.588 366.915 374.966C367.763 374.218 369.21 372.67 369.217 370.383C369.226 367.791 367.449 366.197 366.106 365.396C364.729 364.575 362.946 364.016 360.929 363.598C358.85 363.168 356.24 362.832 353.025 362.597L352.444 370.576ZM352.734 379.649H352.885V371.649H352.734V379.649ZM436.192 274.094C426.903 276.821 418.219 281.533 411.442 288.985L417.36 294.367C422.946 288.226 430.244 284.178 438.445 281.77L436.192 274.094ZM411.442 288.985C405.15 295.902 399.416 304.563 400.161 313.894L408.135 313.257C407.674 307.485 411.289 301.042 417.36 294.367L411.442 288.985ZM400.161 313.894C400.205 314.448 400.145 314.748 400.112 314.863C400.083 314.963 400.078 314.912 400.172 314.814C400.398 314.58 400.579 314.65 400.383 314.632C400.168 314.613 399.827 314.487 399.538 314.215C399.287 313.977 399.121 313.674 399.09 313.269L391.113 313.882C391.508 319.014 395.684 322.238 399.658 322.599C401.743 322.789 404.139 322.227 405.933 320.365C407.737 318.493 408.348 315.92 408.135 313.257L400.161 313.894ZM399.088 313.249C398.794 309.653 399.943 305.422 402.058 301.043C404.146 296.72 407.004 292.607 409.652 289.381L403.469 284.305C400.538 287.875 397.29 292.522 394.855 297.563C392.447 302.548 390.655 308.285 391.115 313.902L399.088 313.249ZM409.652 289.381C414.647 283.296 425.826 275.993 436.028 273.012L433.784 265.333C422.275 268.696 409.631 276.797 403.469 284.305L409.652 289.381ZM447.349 286.541C447.349 283.867 447.057 281.269 446.797 278.926C446.529 276.512 446.294 274.352 446.294 272.193H438.294C438.294 274.867 438.586 277.465 438.846 279.808C439.114 282.222 439.349 284.382 439.349 286.541H447.349ZM448.396 286.541C448.396 286.513 448.407 286.438 448.446 286.36C448.48 286.293 448.504 286.285 448.465 286.317C448.423 286.352 448.331 286.412 448.182 286.468C448.033 286.523 447.864 286.559 447.694 286.569C447.311 286.592 447.191 286.478 447.256 286.528C447.302 286.563 447.348 286.619 447.373 286.669C447.396 286.716 447.354 286.663 447.348 286.439L439.351 286.643C439.417 289.23 440.507 291.439 442.397 292.883C444.172 294.24 446.305 294.665 448.164 294.555C451.529 294.357 456.396 291.943 456.396 286.541H448.396ZM405.111 183.503C401.383 184.015 397.563 184.347 393.625 184.689C389.723 185.027 385.702 185.375 381.741 185.919L382.831 193.845C386.559 193.332 390.379 193 394.316 192.659C398.219 192.32 402.24 191.973 406.201 191.428L405.111 183.503ZM403.788 182.668C404.93 182.512 405.346 182.778 405.4 182.816C405.467 182.862 405.513 182.921 405.532 183.041C405.557 183.192 405.513 183.317 405.477 183.37C405.465 183.387 405.452 183.4 405.429 183.415C405.407 183.428 405.324 183.475 405.133 183.5L406.179 191.431C411.573 190.72 414.098 185.918 413.431 181.771C413.092 179.664 411.942 177.608 409.94 176.229C407.926 174.841 405.402 174.371 402.699 174.743L403.788 182.668ZM492.51 213.202C495.141 198.845 498.376 184.692 501.394 170.155L493.56 168.529C490.588 182.851 487.293 197.288 484.641 211.761L492.51 213.202ZM377.687 87.9749C379.124 118.345 378.213 150.134 381.171 180.929L389.134 180.164C386.185 149.468 387.162 118.958 385.678 87.5968L377.687 87.9749ZM385.533 184.529C390.945 184.011 398.012 183.463 403.788 182.668L402.699 174.743C397.141 175.507 390.416 176.025 384.771 176.565L385.533 184.529ZM381.741 185.919C380.821 186.046 380.371 185.893 380.222 185.824L376.847 193.077C378.632 193.908 380.678 194.141 382.831 193.845L381.741 185.919ZM374.595 190.145C376.374 200.226 377.713 210.834 378.447 221.128L386.427 220.559C385.672 209.976 384.298 199.095 382.474 188.756L374.595 190.145ZM354.323 254.921C346.958 254.213 340.952 250.665 336.054 245.419L330.207 250.879C336.145 257.239 343.863 261.952 353.558 262.884L354.323 254.921ZM329.552 246.362C323.789 257.899 310.214 265.691 298.02 262.298L295.876 270.006C312.63 274.668 329.673 264.023 336.709 249.937L329.552 246.362ZM298.02 262.298C296.937 261.997 295.883 261.572 294.855 261.03L291.124 268.107C292.626 268.899 294.21 269.542 295.876 270.006L298.02 262.298ZM289 264.858C290.382 283.891 294.953 303.519 301.659 320.905L309.123 318.026C302.688 301.341 298.301 282.486 296.979 264.279L289 264.858ZM353.174 371.659C346.562 371.181 340.641 369.363 335.315 366.546L331.575 373.618C337.84 376.931 344.834 379.077 352.596 379.638L353.174 371.659ZM329.463 370.462C331.014 386.734 327.844 403.859 325.552 420.565L333.478 421.652C335.687 405.548 339.091 387.163 337.427 369.703L329.463 370.462ZM455.943 417.903C455.808 401.911 454.679 387.973 458.182 373.737L450.414 371.825C446.599 387.328 447.815 402.749 447.943 417.971L455.943 417.903ZM453.75 368.819C452.37 369.01 450.979 369.151 449.579 369.24L450.086 377.224C451.687 377.122 453.274 376.961 454.847 376.743L453.75 368.819ZM461.406 271.346C458.811 270.662 455.415 269.917 452.324 269.155L450.411 276.923C453.885 277.779 456.781 278.4 459.367 279.082L461.406 271.346ZM447.371 273.194C447.482 276.058 447.756 278.425 447.984 280.523C448.214 282.641 448.396 284.478 448.396 286.541H456.396C456.396 284.007 456.169 281.793 455.937 279.66C455.703 277.507 455.463 275.421 455.365 272.884L447.371 273.194ZM446.294 272.193C446.294 272.2 446.293 272.227 446.283 272.267C446.273 272.307 446.258 272.345 446.242 272.378L439.142 268.691C438.595 269.744 438.294 270.93 438.294 272.193H446.294ZM444.019 266.761C443.803 266.685 443.588 266.608 443.377 266.531L440.621 274.041C440.868 274.132 441.116 274.221 441.364 274.308L444.019 266.761ZM438.368 271.965C438.231 271.668 438.297 271.538 438.268 271.723C438.24 271.897 438.144 272.207 437.918 272.586C437.433 273.399 436.723 273.936 436.177 274.099L438.46 281.766C441.318 280.915 443.506 278.836 444.789 276.683C445.987 274.674 446.985 271.537 445.629 268.607L438.368 271.965ZM436.028 273.012C436.989 272.731 437.709 272.612 438.22 272.579L437.699 264.596C436.476 264.676 435.169 264.928 433.784 265.333L436.028 273.012ZM439.679 264.976C434.139 262.339 428.985 258.546 424.339 254.291L418.936 260.191C423.979 264.809 429.784 269.126 436.24 272.199L439.679 264.976ZM477.136 213.68C478.775 214.122 480.501 214.555 482.241 214.991C483.993 215.43 485.765 215.873 487.548 216.347L489.603 208.616C487.755 208.125 485.926 207.667 484.186 207.231C482.434 206.792 480.777 206.376 479.219 205.956L477.136 213.68ZM357.7 154.046C355.511 152.857 352.945 152.624 350.69 152.716C348.356 152.812 345.88 153.278 343.535 153.907C338.884 155.155 334.182 157.198 331.304 159.01L335.567 165.779C337.655 164.464 341.592 162.711 345.607 161.634C347.596 161.101 349.459 160.773 351.017 160.71C352.654 160.643 353.531 160.886 353.881 161.076L357.7 154.046ZM359.357 155.514C359.14 155.292 358.939 155.08 358.755 154.877L352.825 160.246C353.086 160.534 353.361 160.825 353.65 161.12L359.357 155.514ZM318.431 192.812C318.318 190.947 318.184 189.069 318.076 187.383L310.092 187.892C310.207 189.691 310.332 191.417 310.445 193.295L318.431 192.812ZM315.707 183.981C314.905 183.625 314.37 183.247 314.102 182.978L308.441 188.63C309.606 189.798 311.062 190.672 312.462 191.294L315.707 183.981ZM330.184 241.917C330.289 241.563 330.395 241.244 330.501 240.956L322.994 238.191C322.824 238.652 322.664 239.136 322.514 239.641L330.184 241.917ZM330.177 237.515C327.182 232.524 324.892 226.957 323.242 221.498L315.584 223.813C317.382 229.76 319.914 235.961 323.318 241.632L330.177 237.515ZM376.557 183.841L369.398 187.413L384.512 182.998L376.557 183.841ZM370.224 44.4403L362.227 44.2165L370.224 44.4403ZM378.969 18.7653L384.305 24.726L384.333 24.7003L384.362 24.6743L378.969 18.7653ZM423.146 26.1657L416.541 30.6805L423.146 26.1657ZM433.247 63.4701L425.268 64.0391L433.247 63.4701ZM434.906 151.218L442.902 150.961L434.906 151.218ZM441.992 179.159L435.813 174.078L435.638 174.291L435.479 174.514L441.992 179.159ZM446.063 169.795L438.46 167.308L438.428 167.404L438.4 167.5L446.063 169.795ZM452.697 143.063L460.537 144.655L460.54 144.642L460.542 144.629L452.697 143.063ZM492.2 39.3053L491.636 31.3252L491.613 31.3268L491.59 31.3286L492.2 39.3053ZM519.188 59.6943L511.893 62.9769L511.896 62.9842L519.188 59.6943ZM508.182 161.941L500.322 160.453L500.32 160.463L500.318 160.473L508.182 161.941ZM496.874 217.369L499.443 224.946L503.919 223.428L504.749 218.776L496.874 217.369ZM488.129 214.953L495.997 216.4L496.001 216.377L496.005 216.354L488.129 214.953ZM385.452 183.539L389.949 190.155L393.906 187.465L393.409 182.707L385.452 183.539ZM376.406 183.539L383.564 179.967L368.45 184.375L376.406 183.539ZM439.58 269.324L442.756 261.981L439.58 269.324ZM503.809 217.974L507.558 210.906L503.809 217.974ZM521.902 243.346L529.289 240.274L529.28 240.252L529.27 240.23L521.902 243.346ZM517.982 323.996L524.835 328.125L517.982 323.996ZM363.288 151.822L369.045 146.267L364.962 142.037L359.706 144.67L363.288 151.822ZM377.31 182.935L369.465 184.501L377.31 182.935ZM316.398 167.53L309.24 163.957L309.211 164.014L309.183 164.072L316.398 167.53ZM363.138 151.822L357.888 157.859L363.138 151.822ZM356.654 158.166L351.309 164.118L356.654 158.166ZM362.987 151.973L357.223 157.522L361.306 161.763L366.57 159.126L362.987 151.973ZM335.094 243.195L342.764 245.47L342.772 245.443L342.779 245.416L335.094 243.195ZM270.412 219.635L262.454 220.452L270.412 219.635ZM280.966 179.763L287.289 184.664L280.966 179.763ZM317.755 179.461L323.416 173.809L317.755 179.461ZM299.059 327.621L306.414 324.474L299.059 327.621ZM283.529 255.127L279.164 248.423L275.475 250.824L275.53 255.226L283.529 255.127ZM292.576 255.127H284.576V255.183L284.576 255.239L292.576 255.127ZM464.91 368.852L472.487 371.42L472.504 371.368L472.521 371.316L464.91 368.852ZM460.99 417.937L452.99 418.008L460.99 417.937ZM451.943 417.937H459.943V409.727L451.736 409.94L451.943 417.937ZM456.165 366.436L453.863 358.774L449.937 359.954L448.601 363.83L456.165 366.436ZM331.777 359.79H323.777V360.723L323.991 361.63L331.777 359.79ZM329.515 421.109L329.308 413.111L322.513 413.287L321.589 420.021L329.515 421.109ZM320.77 418.692L312.84 417.637L312.838 417.65L320.77 418.692ZM323.032 362.056L315.255 363.932L323.032 362.056ZM331.777 359.639H339.777V356.738L337.917 354.511L331.777 359.639ZM451.34 272.193L459.338 271.988L451.34 272.193ZM379.874 181.122L378.828 173.191L379.874 181.122ZM488.575 212.481L490.631 204.75L482.266 202.527L480.706 211.04L488.575 212.481ZM385.152 180.547L393.116 179.782L392.351 171.822L384.39 172.583L385.152 180.547ZM378.535 189.45L375.16 196.704L389.08 203.18L386.413 188.061L378.535 189.45ZM333.13 248.149L327.283 253.609L335.142 262.025L340.287 251.724L333.13 248.149ZM292.989 264.569L289.258 271.645L302.013 278.37L300.968 263.989L292.989 264.569ZM333.445 370.082L329.705 377.154L342.816 384.088L341.409 369.323L333.445 370.082ZM454.298 372.781L446.53 370.869L443.711 382.323L455.395 380.706L454.298 372.781ZM451.368 273.039L449.454 280.807L459.774 283.349L459.362 272.729L451.368 273.039ZM442.692 270.535L435.592 266.848L431.347 275.023L440.036 278.081L442.692 270.535ZM441.999 270.286L439.243 277.796L457.36 284.443L449.26 266.928L441.999 270.286ZM437.959 268.587L437.438 260.604L406.778 262.605L434.521 275.811L437.959 268.587ZM355.79 157.561L349.859 162.93L350.774 163.94L351.971 164.591L355.79 157.561ZM314.084 187.637L306.101 188.147L306.409 192.984L310.84 194.95L314.084 187.637ZM326.747 239.573L319.24 236.809L317.916 240.405L319.888 243.69L326.747 239.573ZM384.512 182.998C381.37 153.324 382.327 123.964 380.93 93.0131L364.946 93.7348C366.263 122.894 365.41 154.549 368.601 184.683L384.512 182.998ZM380.93 93.0131C380.243 77.8022 379.438 69.4622 378.872 62.9987C378.32 56.6981 378.007 52.3157 378.221 44.6642L362.227 44.2165C361.989 52.7251 362.354 57.7821 362.933 64.3945C363.498 70.8441 364.276 78.8908 364.946 93.7348L380.93 93.0131ZM378.221 44.6642C378.452 36.4254 378.888 32.802 379.671 30.5303C380.247 28.863 381.099 27.5955 384.305 24.726L373.633 12.8045C369.753 16.2783 366.459 19.7683 364.546 25.3126C362.842 30.2526 362.449 36.2951 362.227 44.2165L378.221 44.6642ZM384.362 24.6743C388.977 20.4627 394.931 19.217 400.988 20.45C407.174 21.7093 413.002 25.5029 416.541 30.6805L429.75 21.6509C423.791 12.9338 414.315 6.83494 404.18 4.7716C393.915 2.68191 382.531 4.68344 373.576 12.8563L384.362 24.6743ZM416.541 30.6805C424.613 42.488 424.333 50.9267 425.268 64.0391L441.227 62.9011C440.353 50.6405 440.676 37.6329 429.75 21.6509L416.541 30.6805ZM425.268 64.0391C426.151 76.4328 426.454 93.7219 426.454 108.779H442.454C442.454 93.6302 442.153 75.8803 441.227 62.9011L425.268 64.0391ZM426.454 108.779C426.454 123.862 426.453 137.28 426.91 151.476L442.902 150.961C442.454 137.065 442.454 123.902 442.454 108.779H426.454ZM426.91 151.476C427.362 165.503 427.216 162.525 427.687 168.193L443.632 166.866C443.199 161.66 443.355 165.025 442.902 150.961L426.91 151.476ZM427.687 168.193C427.786 169.383 427.837 170.48 427.89 171.627C427.939 172.712 427.994 173.971 428.112 175.181C428.358 177.693 428.933 180.771 430.909 183.816L444.331 175.106C444.317 175.085 444.286 175.039 444.239 174.875C444.18 174.673 444.103 174.308 444.036 173.622C443.966 172.907 443.927 172.088 443.873 170.899C443.822 169.771 443.759 168.394 443.632 166.866L427.687 168.193ZM430.909 183.816C431.157 184.198 431.105 184.192 430.984 183.865C430.917 183.685 430.854 183.475 430.803 183.252C430.783 183.166 430.765 183.074 430.78 183.15C430.782 183.16 430.809 183.298 430.848 183.462C430.876 183.58 430.985 184.041 431.208 184.599C431.365 184.991 431.998 186.566 433.637 187.882C434.572 188.633 435.769 189.246 437.179 189.51C438.551 189.767 439.754 189.624 440.65 189.394C442.219 188.99 443.25 188.204 443.483 188.028C443.839 187.76 444.096 187.518 444.146 187.471C444.432 187.205 444.065 187.555 443.797 187.765C443.129 188.291 442.581 188.504 442.415 188.559L437.348 173.383C436.051 173.816 434.9 174.407 433.902 175.192C433.47 175.532 433.006 175.982 433.231 175.772C433.266 175.739 433.511 175.508 433.856 175.249C434.078 175.081 435.099 174.301 436.661 173.899C437.553 173.669 438.753 173.527 440.121 173.783C441.527 174.046 442.722 174.658 443.654 175.406C445.287 176.718 445.915 178.285 446.067 178.665C446.285 179.211 446.39 179.657 446.413 179.756C446.433 179.839 446.447 179.904 446.454 179.937C446.461 179.97 446.466 179.995 446.466 179.997C446.471 180.018 446.439 179.854 446.398 179.679C446.306 179.275 446.175 178.812 445.981 178.29C445.605 177.279 445.063 176.234 444.331 175.106L430.909 183.816ZM442.415 188.559C443.029 188.355 443.855 188.065 444.642 187.671C445.49 187.246 446.996 186.362 448.162 184.611C448.694 183.811 448.976 183.094 449.109 182.728C449.169 182.562 449.218 182.414 449.224 182.394C449.241 182.342 449.227 182.387 449.208 182.441C449.058 182.865 448.822 183.36 448.506 183.804L435.479 174.514C435.16 174.961 434.879 175.423 434.637 175.904C434.391 176.391 434.226 176.813 434.117 177.123C434.07 177.257 434.031 177.377 434.024 177.398C434.007 177.449 434.033 177.369 434.07 177.268C434.155 177.032 434.386 176.432 434.842 175.746C435.322 175.025 435.877 174.466 436.406 174.051C436.887 173.673 437.294 173.457 437.477 173.365C437.665 173.271 437.769 173.234 437.718 173.254C437.675 173.27 437.564 173.311 437.348 173.383L442.415 188.559ZM448.172 184.239C451.531 180.154 452.991 174.549 453.727 172.09L438.4 167.5C437.326 171.083 436.675 173.029 435.813 174.078L448.172 184.239ZM453.667 172.282C456.688 163.044 458.724 153.586 460.537 144.655L444.857 141.471C443.052 150.361 441.168 159.027 438.46 167.308L453.667 172.282ZM460.542 144.629C464.727 123.672 467.934 101.212 471.72 80.7865L455.989 77.8698C451.935 99.7324 449.111 120.165 444.852 141.496L460.542 144.629ZM471.72 80.7865C473.707 70.0696 475.677 61.7629 479.025 55.9436C481.972 50.8211 485.838 47.8151 492.81 47.282L491.59 31.3286C478.81 32.3058 470.464 38.7392 465.156 47.9645C460.249 56.493 457.922 67.4426 455.989 77.8698L471.72 80.7865ZM492.764 47.2854C500.336 46.75 507.451 53.1043 511.893 62.9769L526.484 56.4118C521.277 44.8381 509.695 30.0483 491.636 31.3252L492.764 47.2854ZM511.896 62.9842C517.742 75.9417 515.496 91.4407 511.431 107.58L526.946 111.488C531.022 95.3072 534.808 74.8611 526.481 56.4044L511.896 62.9842ZM511.431 107.58C507.517 123.118 506.562 125.124 504.714 134.221L520.394 137.405C522.166 128.681 522.718 128.271 526.946 111.488L511.431 107.58ZM504.714 134.221C503.767 138.889 503.063 143.404 502.403 147.727C501.736 152.101 501.118 156.245 500.322 160.453L516.042 163.43C516.904 158.878 517.568 154.413 518.22 150.141C518.88 145.818 519.533 141.649 520.394 137.405L504.714 134.221ZM500.318 160.473C498.608 169.633 496.636 178.729 494.65 187.975C492.673 197.181 490.685 206.52 488.998 215.963L504.749 218.776C506.38 209.642 508.312 200.556 510.293 191.336C512.265 182.156 514.288 172.827 516.046 163.409L500.318 160.473ZM496.874 217.369C494.305 209.793 494.307 209.792 494.309 209.792C494.309 209.792 494.311 209.791 494.312 209.791C494.314 209.79 494.316 209.789 494.318 209.789C494.322 209.787 494.325 209.786 494.328 209.785C494.333 209.784 494.336 209.783 494.338 209.782C494.34 209.781 494.334 209.783 494.321 209.787C494.295 209.796 494.239 209.813 494.16 209.837C493.998 209.886 493.749 209.957 493.449 210.03C493.147 210.105 492.82 210.175 492.497 210.23C492.167 210.285 491.903 210.314 491.715 210.323C491.508 210.333 491.53 210.313 491.724 210.345C491.833 210.362 492.036 210.403 492.306 210.497C492.577 210.59 492.954 210.751 493.378 211.024C493.81 211.302 494.282 211.691 494.716 212.218C495.156 212.751 495.493 213.347 495.719 213.967C496.168 215.199 496.045 216.137 495.997 216.4L480.261 213.506C479.949 215.204 479.902 217.293 480.685 219.443C481.508 221.702 483.015 223.381 484.722 224.48C487.684 226.385 490.951 226.379 492.496 226.304C494.379 226.212 496.127 225.848 497.269 225.568C497.871 225.419 498.38 225.275 498.75 225.165C498.936 225.109 499.09 225.061 499.207 225.023C499.265 225.005 499.315 224.988 499.354 224.975C499.374 224.969 499.391 224.963 499.406 224.958C499.413 224.956 499.42 224.953 499.426 224.951C499.429 224.95 499.432 224.949 499.435 224.948C499.436 224.948 499.438 224.947 499.439 224.947C499.441 224.946 499.443 224.946 496.874 217.369ZM385.452 183.539C380.955 176.922 380.957 176.921 380.958 176.92C380.959 176.92 380.96 176.919 380.961 176.918C380.963 176.917 380.965 176.916 380.966 176.915C380.97 176.912 380.973 176.91 380.975 176.909C380.98 176.906 380.983 176.904 380.984 176.903C380.987 176.901 380.982 176.904 380.971 176.911C380.949 176.926 380.902 176.956 380.834 176.999C380.695 177.087 380.479 177.218 380.216 177.365C379.95 177.514 379.66 177.665 379.371 177.8C379.075 177.938 378.834 178.033 378.661 178.09C378.47 178.152 378.488 178.127 378.683 178.106C378.852 178.088 379.512 178.033 380.421 178.312C380.9 178.459 381.445 178.699 381.993 179.075C382.548 179.456 383.028 179.924 383.412 180.446C384.179 181.489 384.332 182.416 384.362 182.703L368.45 184.375C368.63 186.096 369.179 188.099 370.523 189.927C371.93 191.84 373.815 193.021 375.726 193.608C379.06 194.631 382.172 193.777 383.649 193.292C385.433 192.707 387.012 191.897 388.031 191.327C388.569 191.026 389.018 190.753 389.343 190.549C389.506 190.446 389.641 190.359 389.743 190.292C389.794 190.259 389.837 190.23 389.872 190.207C389.889 190.196 389.904 190.186 389.917 190.177C389.924 190.173 389.93 190.169 389.935 190.165C389.938 190.163 389.94 190.161 389.943 190.16C389.944 190.159 389.946 190.158 389.946 190.157C389.948 190.156 389.949 190.155 385.452 183.539ZM369.248 187.111L369.398 187.413L383.715 180.269L383.564 179.967L369.248 187.111ZM500.061 225.041C502.079 226.111 504.75 228.828 507.633 233.231C510.378 237.421 512.765 242.281 514.534 246.463L529.27 240.23C527.27 235.501 524.456 229.714 521.019 224.465C517.72 219.428 513.229 213.914 507.558 210.906L500.061 225.041ZM514.516 246.419C525.034 271.707 524.963 296.91 511.13 319.868L524.835 328.125C541.759 300.035 541.386 269.357 529.289 240.274L514.516 246.419ZM357.532 157.378C364.613 164.716 367.121 172.757 369.465 184.501L385.156 181.368C382.676 168.947 379.453 157.052 369.045 146.267L357.532 157.378ZM323.556 171.102C325.928 166.35 332.401 160.571 340.223 157.408C348.162 154.197 354.373 154.803 357.888 157.859L368.387 145.786C358.182 136.911 344.491 138.423 334.224 142.575C323.84 146.774 313.803 154.814 309.24 163.957L323.556 171.102ZM357.888 157.859C359.381 159.157 360.258 160.089 360.733 160.681C361.277 161.361 360.996 161.228 360.782 160.398C360.658 159.918 360.532 159.102 360.7 158.078C360.876 157.002 361.334 155.966 362.033 155.096C363.334 153.477 364.845 153.152 365.038 153.111C365.356 153.045 365.358 153.097 364.948 153.061C364.588 153.029 364.108 152.946 363.575 152.799C363.044 152.652 362.576 152.473 362.228 152.305C361.841 152.118 361.816 152.049 362 152.214L351.309 164.118C353.694 166.26 356.831 167.534 359.308 168.219C361.759 168.897 365.144 169.438 368.324 168.77C369.912 168.437 372.534 167.571 374.504 165.12C376.774 162.296 376.938 158.972 376.274 156.4C375.683 154.11 374.422 152.18 373.223 150.682C371.954 149.097 370.324 147.47 368.387 145.786L357.888 157.859ZM366.57 159.126L366.871 158.975L359.706 144.67L359.404 144.821L366.57 159.126ZM278.37 218.818C276.899 204.489 279.779 194.354 287.289 184.664L274.643 174.862C264.362 188.128 260.607 202.461 262.454 220.452L278.37 218.818ZM287.289 184.664C292.764 177.599 303.326 176.331 312.093 185.113L323.416 173.809C308.965 159.333 286.959 158.97 274.643 174.862L287.289 184.664ZM306.414 324.474C296.866 302.159 291.817 278.273 291.529 255.028L275.53 255.226C275.845 280.613 281.349 306.567 291.704 330.768L306.414 324.474ZM283.529 255.127C287.894 261.831 287.893 261.832 287.891 261.833C287.891 261.833 287.89 261.834 287.889 261.835C287.887 261.836 287.885 261.837 287.884 261.838C287.881 261.84 287.878 261.841 287.876 261.843C287.873 261.845 287.871 261.846 287.871 261.846C287.87 261.847 287.878 261.842 287.892 261.833C287.921 261.814 287.978 261.779 288.057 261.731C288.218 261.634 288.462 261.491 288.758 261.33C289.056 261.168 289.382 261.002 289.709 260.853C290.043 260.701 290.321 260.593 290.529 260.525C290.758 260.45 290.762 260.472 290.576 260.492C290.472 260.503 290.258 260.519 289.958 260.5C289.658 260.48 289.215 260.421 288.686 260.249C288.145 260.073 287.52 259.78 286.902 259.31C286.274 258.833 285.758 258.253 285.371 257.623C284.611 256.388 284.576 255.351 284.576 255.127H300.576C300.576 253.43 300.257 251.289 299.003 249.248C297.659 247.059 295.674 245.697 293.639 245.035C290.222 243.922 286.974 244.856 285.576 245.311C283.787 245.893 282.175 246.699 281.127 247.267C280.575 247.567 280.113 247.837 279.779 248.039C279.611 248.141 279.473 248.226 279.369 248.292C279.318 248.324 279.274 248.352 279.24 248.374C279.223 248.385 279.208 248.394 279.195 248.403C279.189 248.407 279.183 248.41 279.178 248.414C279.175 248.415 279.173 248.417 279.171 248.418C279.169 248.419 279.168 248.42 279.167 248.421C279.166 248.422 279.164 248.423 283.529 255.127ZM457.333 366.285C451.197 384.393 452.847 401.981 452.99 418.008L468.989 417.866C468.831 400.062 467.466 386.236 472.487 371.42L457.333 366.285ZM452.99 418.008C453.006 419.802 452.893 420.947 452.773 421.606C452.639 422.346 452.567 422.085 452.997 421.443C453.541 420.632 454.866 419.32 457.056 419.005C458.985 418.727 460.298 419.423 460.661 419.642C461.062 419.885 461.134 420.033 460.963 419.83C460.823 419.664 460.624 419.382 460.423 419.009C459.926 418.087 459.943 417.624 459.943 417.937H443.943C443.943 421.195 445.11 424.318 446.334 426.592C447.522 428.8 449.514 431.6 452.385 433.336C453.888 434.244 456.339 435.272 459.332 434.842C462.584 434.375 464.897 432.423 466.282 430.36C468.59 426.922 469.028 422.24 468.989 417.866L452.99 418.008ZM456.165 366.436C458.467 374.097 458.466 374.098 458.464 374.098C458.464 374.098 458.462 374.099 458.461 374.099C458.459 374.1 458.458 374.1 458.456 374.101C458.453 374.102 458.45 374.102 458.448 374.103C458.444 374.104 458.443 374.105 458.443 374.104C458.444 374.104 458.454 374.101 458.472 374.096C458.508 374.086 458.576 374.067 458.671 374.042C458.863 373.991 459.15 373.918 459.494 373.843C459.84 373.767 460.217 373.695 460.591 373.639C460.972 373.582 461.29 373.552 461.529 373.542C461.791 373.532 461.809 373.554 461.642 373.526C461.547 373.511 461.341 373.471 461.058 373.372C460.776 373.275 460.356 373.097 459.879 372.78C459.39 372.455 458.841 371.983 458.351 371.323C457.853 370.651 457.503 369.903 457.307 369.14C456.923 367.652 457.232 366.594 457.299 366.388L472.521 371.316C473.04 369.713 473.415 367.532 472.801 365.148C472.136 362.568 470.547 360.659 468.735 359.454C465.742 357.465 462.336 357.498 460.903 357.555C459.029 357.628 457.251 357.956 456.078 358.212C455.461 358.347 454.938 358.478 454.559 358.579C454.368 358.63 454.212 358.673 454.094 358.707C454.035 358.724 453.986 358.738 453.947 358.749C453.928 358.755 453.911 358.76 453.897 358.764C453.89 358.766 453.884 358.768 453.878 358.77C453.875 358.771 453.872 358.771 453.87 358.772C453.868 358.772 453.867 358.773 453.866 358.773C453.864 358.774 453.863 358.774 456.165 366.436ZM321.589 420.021C321.285 422.239 320.958 423.682 320.688 424.553C320.374 425.565 320.298 425.278 320.878 424.616C321.222 424.223 321.921 423.559 323.057 423.086C324.273 422.58 325.61 422.454 326.868 422.696C328.036 422.92 328.848 423.403 329.286 423.72C329.723 424.038 329.957 424.312 330.021 424.39C330.13 424.522 330.01 424.404 329.771 423.88C329.555 423.406 329.331 422.793 329.14 422.113C328.949 421.433 328.822 420.792 328.758 420.274C328.687 419.698 328.727 419.543 328.702 419.734L312.838 417.65C312.445 420.643 313.04 423.959 313.734 426.433C314.429 428.91 315.664 432.123 317.664 434.554C318.593 435.684 320.61 437.785 323.846 438.408C327.88 439.184 331.086 437.246 332.918 435.154C334.503 433.342 335.397 431.14 335.971 429.289C336.589 427.295 337.067 424.924 337.441 422.196L321.589 420.021ZM328.7 419.748C329.85 411.108 331.586 400.918 332.417 391.045C333.261 381.022 333.281 370.428 330.809 360.18L315.255 363.932C317.155 371.807 317.251 380.47 316.474 389.703C315.684 399.086 314.103 408.153 312.84 417.637L328.7 419.748ZM330.809 360.18C330.572 359.199 330.41 358.397 330.304 357.75C330.198 357.097 330.156 356.654 330.144 356.383C330.131 356.096 330.155 356.108 330.121 356.326C330.103 356.444 330.063 356.654 329.975 356.93C329.887 357.206 329.741 357.579 329.5 358.001C329.255 358.429 328.912 358.909 328.439 359.377C327.96 359.851 327.393 360.268 326.752 360.594C325.441 361.261 324.205 361.364 323.368 361.311C322.957 361.284 322.624 361.221 322.383 361.161C322.141 361.101 321.959 361.036 321.843 360.991C321.625 360.905 321.542 360.847 321.609 360.887C321.666 360.922 321.787 361.001 321.973 361.143C322.156 361.281 322.368 361.454 322.606 361.661C323.088 362.08 323.593 362.567 324.072 363.058C324.545 363.542 324.954 363.99 325.241 364.313C325.384 364.474 325.493 364.6 325.562 364.68C325.596 364.72 325.62 364.748 325.633 364.763C325.639 364.771 325.643 364.775 325.644 364.776C325.644 364.776 325.643 364.776 325.642 364.774C325.642 364.774 325.641 364.773 325.64 364.772C325.639 364.771 325.639 364.77 325.638 364.77C325.637 364.769 325.636 364.767 331.777 359.639C337.917 354.511 337.916 354.51 337.915 354.509C337.915 354.508 337.913 354.507 337.912 354.506C337.911 354.504 337.909 354.501 337.907 354.499C337.902 354.494 337.897 354.487 337.891 354.48C337.879 354.466 337.864 354.448 337.846 354.427C337.809 354.383 337.76 354.326 337.699 354.255C337.578 354.114 337.41 353.92 337.202 353.686C336.79 353.222 336.207 352.584 335.519 351.879C334.279 350.61 332.194 348.598 329.92 347.215C328.882 346.584 326.89 345.503 324.386 345.343C322.995 345.254 321.251 345.441 319.494 346.335C317.699 347.248 316.428 348.628 315.608 350.064C314.155 352.605 314.08 355.35 314.161 357.115C314.253 359.129 314.647 361.414 315.255 363.932L330.809 360.18ZM323.777 359.639V359.79H339.777V359.639H323.777ZM329.722 429.106L452.151 425.934L451.736 409.94L329.308 413.111L329.722 429.106ZM438.48 276.57C438.716 276.555 438.183 276.64 437.302 276.237C436.288 275.772 435.307 274.876 434.738 273.644L449.26 266.928C446.822 261.656 441.515 260.338 437.438 260.604L438.48 276.57ZM443.343 272.398C443.351 272.721 443.361 273.038 443.374 273.349L459.362 272.729C459.352 272.486 459.344 272.24 459.338 271.988L443.343 272.398ZM511.13 319.868C497.158 343.056 476.354 361.651 453.201 364.857L455.395 380.706C485.367 376.556 509.668 353.297 524.835 328.125L511.13 319.868ZM323.991 361.63C324.696 364.613 325.181 367.685 325.481 370.841L341.409 369.323C341.048 365.53 340.455 361.728 339.563 357.951L323.991 361.63ZM449.791 274.221C449.24 275.284 448.469 275.764 448.074 275.944C447.679 276.125 447.28 276.193 446.837 276.15C446.387 276.106 445.493 275.893 444.628 275.06C443.646 274.115 443.358 273 443.343 272.398L459.338 271.988C459.256 268.817 458.071 265.793 455.726 263.535C453.497 261.389 450.772 260.458 448.394 260.226C444.144 259.81 438.352 261.531 435.592 266.848L449.791 274.221ZM496.005 216.354C496.15 215.544 496.296 214.734 496.444 213.923L480.706 211.04C480.553 211.876 480.402 212.713 480.253 213.552L496.005 216.354ZM337.185 363.01C323.511 355.779 313.468 340.961 306.414 324.474L291.704 330.768C299.281 348.479 311.204 367.37 329.705 377.154L337.185 363.01ZM327.424 240.921C327.06 242.147 326.575 243.371 325.974 244.574L340.287 251.724C341.286 249.725 342.122 247.633 342.764 245.47L327.424 240.921ZM442.756 261.981C442.302 261.785 441.849 261.579 441.398 261.364L434.521 275.811C435.142 276.106 435.769 276.392 436.404 276.666L442.756 261.981ZM381.909 182.197C383.517 182.945 384.136 184.641 383.958 185.93C383.867 186.592 383.564 187.334 382.951 187.971C382.292 188.657 381.505 188.976 380.919 189.054L378.828 173.191C365.736 174.916 364.556 191.77 375.16 196.704L381.909 182.197ZM453.281 265.271C450.494 264.585 447.797 263.85 445.347 262.988L440.036 278.081C443.204 279.196 446.479 280.074 449.454 280.807L453.281 265.271ZM444.754 262.775C444.05 262.517 443.384 262.253 442.756 261.981L436.404 276.666C437.343 277.073 438.294 277.448 439.243 277.796L444.754 262.775ZM284.576 255.239C284.623 258.522 284.769 261.829 285.01 265.148L300.968 263.989C300.749 260.968 300.616 257.972 300.575 255.014L284.576 255.239ZM369.465 184.501C369.881 186.583 370.278 188.698 370.656 190.84L386.413 188.061C386.015 185.803 385.595 183.57 385.156 181.368L369.465 184.501ZM377.189 181.312C377.287 182.331 377.389 183.351 377.496 184.371L393.409 182.707C393.307 181.733 393.209 180.758 393.116 179.782L377.189 181.312ZM296.721 257.492C292.231 255.125 287.912 249.577 284.443 241.709C281.072 234.065 279.052 225.464 278.37 218.818L262.454 220.452C263.29 228.602 265.696 238.849 269.803 248.164C273.811 257.254 280.022 266.775 289.258 271.645L296.721 257.492ZM380.919 189.054C382.281 188.874 383.965 188.697 385.914 188.51L384.39 172.583C382.393 172.774 380.48 172.973 378.828 173.191L380.919 189.054ZM462.066 374.693C462.531 372.807 463.08 370.925 463.729 369.042L448.601 363.83C447.788 366.189 447.104 368.535 446.53 370.869L462.066 374.693ZM486.52 220.213C491.69 221.587 496.353 223.075 500.061 225.041L507.558 210.906C502.155 208.041 496.015 206.181 490.631 204.75L486.52 220.213ZM361.721 152.192C361.054 151.456 360.823 151.053 360.787 150.983C360.742 150.897 361.044 151.427 361.046 152.436C361.049 153.586 360.65 154.881 359.77 155.959C358.974 156.934 358.105 157.344 357.683 157.496C356.964 157.756 356.818 157.577 357.258 157.68C357.646 157.771 357.563 157.874 357.223 157.522L368.75 146.425C366.432 144.017 363.478 142.706 360.919 142.105C358.412 141.515 355.242 141.364 352.238 142.451C350.673 143.017 348.846 144.04 347.378 145.838C345.826 147.738 345.042 150.066 345.046 152.468C345.055 156.766 347.523 160.349 349.859 162.93L361.721 152.192ZM362 152.214C361.237 151.528 360.425 150.975 359.609 150.531L351.971 164.591C351.79 164.492 351.558 164.341 351.309 164.118L362 152.214ZM334.255 242.338C334.828 240.781 334.902 241.775 333.29 242.575C332.371 243.032 331.258 243.225 330.149 243.06C329.115 242.906 328.402 242.493 328.021 242.208C327.643 241.925 327.468 241.682 327.415 241.603C327.381 241.553 327.364 241.52 327.358 241.506C327.354 241.498 327.352 241.493 327.351 241.49C327.35 241.488 327.349 241.487 327.349 241.486C327.349 241.486 327.349 241.486 327.349 241.486C327.349 241.485 327.348 241.484 327.348 241.48C327.347 241.475 327.344 241.457 327.342 241.425C327.34 241.366 327.341 241.208 327.408 240.975L342.779 245.416C343.702 242.224 343.394 239.056 342.546 236.481C341.719 233.97 340.131 231.285 337.604 229.395C334.856 227.34 330.554 226.07 326.173 228.245C322.423 230.108 320.392 233.681 319.24 236.809L334.255 242.338ZM312.093 185.113C313.096 186.117 313.744 186.883 314.143 187.426C314.56 187.992 314.59 188.158 314.516 187.962C314.447 187.779 314.129 186.85 314.379 185.481C314.663 183.932 315.531 182.621 316.618 181.769C317.561 181.03 318.397 180.837 318.654 180.787C318.948 180.732 319.039 180.759 318.874 180.747C318.526 180.721 317.916 180.585 317.329 180.325L310.84 194.95C312.945 195.884 315.345 196.53 317.695 196.704C319.645 196.848 323.367 196.808 326.488 194.362C328.3 192.942 329.658 190.875 330.118 188.361C330.545 186.026 330.09 183.922 329.493 182.333C328.359 179.316 326.077 176.474 323.416 173.809L312.093 185.113ZM338.978 242.689C337.014 240.586 335.221 238.147 333.607 235.457L319.888 243.69C321.985 247.185 324.435 250.559 327.283 253.609L338.978 242.689ZM322.068 187.128C321.581 179.49 321.677 175.025 323.612 170.987L309.183 164.072C305.24 172.302 305.626 180.702 306.101 188.147L322.068 187.128Z" fill="white" mask="url(#path-1-outside-1_4461_36102)"/>
</svg>
