<svg width="800" height="440" viewBox="0 0 800 440" fill="none" xmlns="http://www.w3.org/2000/svg">
<mask id="path-1-outside-1_4461_36150" maskUnits="userSpaceOnUse" x="202" y="0" width="395" height="437" fill="black">
<rect fill="white" x="202" width="395" height="437"/>
<path d="M254.184 214.168C245.29 196.664 235.212 179.903 226.911 162.103C221.724 150.681 216.24 138.815 212.534 126.8C210.163 118.938 208.088 109.148 212.979 101.732C217.87 94.3151 226.17 92.0901 233.433 93.1284C240.696 94.1668 250.033 102.77 254.776 110.78C262.187 123.537 268.709 136.886 275.972 149.643C279.232 155.576 282.641 161.361 285.902 167.295C289.163 173.228 289.015 173.228 290.793 176.046C292.572 178.864 293.313 179.309 294.054 180.941L295.388 182.128C293.906 182.573 293.313 182.128 293.758 181.089C293.017 178.419 293.461 175.156 292.868 172.338C292.275 169.52 291.238 166.256 290.201 163.29C288.126 156.911 286.199 150.533 284.568 144.006C281.159 129.47 277.898 114.933 275.082 100.397C272.563 87.4918 269.154 74.1419 268.561 60.9403C267.968 47.7387 270.636 42.9921 277.454 37.0588C284.272 31.1255 294.944 28.4556 303.392 32.7572C312.878 37.5038 318.362 48.0354 321.474 57.5287C330.664 85.2668 334.369 114.933 339.854 143.413C340.891 148.901 342.077 154.538 343.114 160.026C344.152 165.515 345.041 171.3 348.45 174.859C357.195 183.759 353.638 159.433 353.341 156.466C350.525 129.915 350.229 103.512 349.191 76.9602C348.154 50.4087 342.373 33.4989 355.861 18.6656C369.349 3.8324 382.688 6.20572 392.619 15.254C407.144 28.3072 406.107 54.562 406.7 72.2136C407.293 89.8651 407.589 120.125 408.627 144.155C409.664 168.185 409.22 162.4 410.85 171.448C412.48 180.496 411.295 177.233 412.628 178.419C414.407 180.051 415.889 177.974 417.223 176.046C420.929 170.855 422.411 163.438 424.041 157.356C426.413 148.753 428.191 140.15 429.97 131.398C433.379 113.895 436.195 96.2434 439.901 78.7402C442.865 65.0936 448.645 47.1454 464.505 44.1788C480.364 41.2121 495.779 68.9503 495.63 84.9702C495.63 98.7651 491.48 112.115 487.923 125.317C484.366 138.518 482.439 153.203 479.178 167.146C475.918 181.089 471.767 196.516 468.951 211.498C466.413 225 460.624 216.815 460.266 210.94C460.226 210.297 460.252 209.681 460.355 209.124C463.022 194.588 467.024 180.496 470.285 166.108C473.398 152.61 475.028 138.815 478.585 125.317C482.143 111.818 486.737 98.6167 486.737 84.8218C486.737 71.0269 482.736 57.3803 471.323 53.227C455.019 47.2938 449.683 74.7352 447.608 85.4151C444.199 102.177 441.531 119.235 438.122 135.996C435.306 150.088 432.786 165.811 425.82 178.716C425.347 179.611 424.812 180.442 424.227 181.206C419.645 187.194 412.011 189.04 407.147 184.602C405.634 183.22 404.389 181.231 403.587 178.568C399.882 166.256 399.882 144.006 399.437 127.69C398.844 104.253 398.844 80.6685 397.214 57.232C397.21 57.1823 397.207 57.1325 397.203 57.0825C396.163 42.6526 394.178 15.119 373.499 18.9623C352.748 22.8189 356.454 48.0354 357.492 64.0553C358.974 89.2718 358.233 114.637 360.456 139.853C361.345 150.236 363.717 160.768 363.272 171.151C363.186 173.168 363.049 174.916 362.831 176.43C361.93 182.712 359.638 184.971 353.786 185.688C350.97 186.037 348.53 185.621 346.409 184.619C334.129 178.815 332.538 153.362 330.516 143.116C325.18 115.378 321.623 86.6018 312.581 59.7537C308.876 48.4804 299.983 34.3888 286.347 41.3605C272.711 48.3321 276.713 59.457 278.343 69.6919C282.641 96.8367 287.533 124.723 295.388 151.126C302.249 174.186 303.796 172.92 302.794 179.245C302.649 180.162 302.45 181.239 302.206 182.573C301.047 188.663 296.206 192.768 290.451 189.347C290.318 189.269 290.186 189.186 290.052 189.099C284.124 185.243 283.827 181.831 281.604 177.974C278.195 171.745 274.638 165.515 271.08 159.285C263.966 146.973 257 134.513 250.478 121.905C245.735 112.708 238.028 97.2817 225.133 102.473C212.238 107.665 218.611 117.307 221.131 125.168C227.653 145.045 236.99 164.18 247.069 182.424C254.874 196.553 256.457 199.474 258.908 204.343C259.622 205.762 260.41 207.346 261.446 209.421C266.041 218.618 256.407 219.063 253.739 213.871L254.184 214.168Z"/>
<path d="M326.958 369.916C320.272 369.479 313.944 367.983 308.048 365.613C287.935 357.53 272.851 339.288 265.745 318.297C257.148 292.784 256.407 263.71 255.221 237.011C254.035 210.311 254.628 220.991 254.628 213.129C254.628 205.742 262.48 207.13 263.428 212.123C263.489 212.444 263.521 212.78 263.521 213.129C263.67 238.197 265.003 263.562 268.412 288.334C270.487 302.574 273.304 316.368 280.418 328.977C287.533 341.585 306.208 359.681 326.958 361.016C347.709 362.351 332.739 370.361 326.958 369.916Z"/>
<path d="M442.568 367.246C437.084 383.415 438.566 398.841 438.715 415.454C438.715 421.239 429.821 421.239 429.821 415.454C429.69 399.936 428.51 385.349 432.273 370.559C432.754 368.668 433.316 366.773 433.972 364.873C433.972 364.873 444.347 361.758 442.568 367.246Z"/>
<path d="M306.505 357.16C307.173 359.938 307.679 362.76 308.048 365.613C310.303 383.026 307.463 401.619 305.171 418.569C302.503 438.298 295.833 421.833 296.574 416.196C298.946 398.099 302.355 377.481 297.908 359.385C296.574 353.748 305.171 351.523 306.505 357.011V357.16Z"/>
<path d="M432.342 264.452C418.262 267.567 405.663 274.687 395.288 284.774C388.618 291.3 378.539 302.722 379.28 312.957C380.021 323.192 370.832 318.742 370.387 312.957C369.762 305.715 373.282 298.043 377.93 291.336C379.716 288.76 381.667 286.326 383.614 284.114C385.009 282.53 386.401 281.059 387.728 279.73C399.289 267.864 413.963 259.261 430.119 255.849C435.751 254.662 438.123 263.266 432.49 264.452H432.342Z"/>
<path d="M375.574 288.482C371.127 270.682 350.673 262.079 334.221 258.964C317.769 255.849 330.96 249.322 336.593 250.361C355.526 253.949 377.513 264.484 383.614 284.114C383.817 284.769 384.003 285.434 384.171 286.109C385.142 290.211 380.852 292.506 377.93 291.336C376.838 290.898 375.937 289.976 375.574 288.482Z"/>
<path d="M419.743 362.5C434.268 361.758 449.831 359.978 461.095 349.892C471.619 340.547 478.14 327.79 487.034 317.11C503.486 297.679 528.386 280.62 554.028 276.912C579.67 273.204 564.996 276.17 570.48 275.132C578.188 273.649 580.707 269.051 578.484 261.337C574.038 246.059 558.475 241.609 544.246 241.016C530.313 240.422 516.974 243.092 504.227 248.729C491.48 254.366 481.105 264.897 468.803 261.931C449.138 257.224 456.873 225.507 460.266 210.94C460.402 210.356 460.531 209.799 460.651 209.273C463.763 195.626 470.581 206.009 469.247 211.646C467.024 221.288 464.801 231.226 465.246 241.312C465.69 251.399 465.69 250.509 469.247 252.882C475.621 257.036 485.996 248.284 491.332 245.317C513.861 233.154 544.987 225.886 569.146 237.752C593.306 249.619 587.822 254.217 588.118 266.084C588.415 277.95 580.114 282.994 569.443 284.477C558.771 285.96 558.475 285.219 552.99 286.257C545.135 287.889 537.28 290.855 530.165 294.415C516.529 301.239 503.93 311.325 493.852 322.895C483.773 334.465 476.362 349.743 463.615 359.385C454.374 366.375 443.418 369.233 432.273 370.559C428.046 371.062 423.792 371.344 419.594 371.548C404.328 372.29 413.814 362.945 419.594 362.648L419.743 362.5Z"/>
<path d="M443.457 196.071C434.564 189.544 422.41 190.731 412.183 187.913C409.17 187.083 407.65 185.866 407.147 184.602C405.944 181.572 410.581 178.263 414.554 179.309C417.693 180.189 420.949 180.725 424.227 181.206C432.56 182.428 441.031 183.29 448.052 188.506C457.834 195.774 448.052 199.631 443.605 196.219L443.457 196.071Z"/>
<path d="M384.17 185.985C373.795 185.985 363.123 184.353 352.748 185.836C349.445 186.308 347.434 185.698 346.409 184.619C344.213 182.306 346.537 177.84 350.377 177.233C354.528 176.632 358.68 176.433 362.831 176.43C369.944 176.424 377.057 176.991 384.17 177.085C395.435 177.233 389.951 185.985 384.17 185.985Z"/>
<path d="M327.403 188.358C317.176 186.429 307.838 185.391 298.204 190.434C293.299 193.002 290.93 191.648 290.451 189.347C289.989 187.129 291.284 184.032 293.758 182.721C296.789 181.128 299.791 180.001 302.794 179.245C311.538 177.043 320.286 177.988 329.774 179.754C342.521 182.128 333.035 189.396 327.403 188.358Z"/>
<path d="M280.121 206.158C274.378 207.381 268.233 208.704 263.428 212.123C262.404 212.851 261.442 213.675 260.557 214.613C255.517 219.953 250.329 212.536 254.331 208.234C255.722 206.74 257.261 205.456 258.908 204.343C264.456 200.592 271.235 198.779 277.75 197.406C286.198 195.626 285.754 204.823 280.121 206.009V206.158Z"/>
<path fill-rule="evenodd" clip-rule="evenodd" d="M460.266 210.94C460.226 210.297 460.252 209.681 460.355 209.124C463.022 194.588 467.024 180.496 470.285 166.108C473.398 152.61 475.028 138.815 478.585 125.317C482.143 111.818 486.737 98.6167 486.737 84.8218C486.737 71.0269 482.736 57.3803 471.323 53.227C455.019 47.2938 449.683 74.7352 447.608 85.4151C444.199 102.177 441.531 119.235 438.122 135.996C435.306 150.088 432.786 165.811 425.82 178.716C425.347 179.611 424.812 180.442 424.227 181.206C432.56 182.428 441.031 183.29 448.052 188.506C457.834 195.774 448.052 199.631 443.605 196.219L443.457 196.071C434.564 189.544 422.41 190.731 412.183 187.913C409.17 187.083 407.65 185.866 407.147 184.602C405.634 183.22 404.389 181.231 403.587 178.568C399.882 166.256 399.882 144.006 399.437 127.69C398.844 104.253 398.844 80.6685 397.214 57.232L397.203 57.0825C396.163 42.6526 394.178 15.119 373.499 18.9623C352.748 22.8189 356.454 48.0354 357.492 64.0553C358.974 89.2718 358.233 114.637 360.456 139.853C361.345 150.236 363.717 160.768 363.272 171.151C363.186 173.168 363.049 174.916 362.831 176.43C369.944 176.424 377.057 176.991 384.17 177.085C395.435 177.233 389.951 185.985 384.17 185.985C373.795 185.985 363.123 184.353 352.748 185.836C349.445 186.308 347.434 185.698 346.409 184.619C334.129 178.815 332.538 153.362 330.516 143.116C325.18 115.378 321.623 86.6018 312.581 59.7537C308.876 48.4804 299.983 34.3888 286.347 41.3605C272.711 48.3321 276.713 59.457 278.343 69.6919C282.641 96.8367 287.533 124.723 295.388 151.126C302.249 174.186 303.796 172.92 302.794 179.245C311.538 177.043 320.286 177.988 329.774 179.754C342.521 182.128 333.035 189.396 327.403 188.358C317.176 186.429 307.838 185.391 298.204 190.434C293.299 193.002 290.93 191.648 290.451 189.347C290.318 189.269 290.186 189.186 290.052 189.099C284.124 185.243 283.827 181.831 281.604 177.974C278.195 171.745 274.638 165.515 271.08 159.285C263.966 146.973 257 134.513 250.478 121.905C245.735 112.708 238.028 97.2817 225.133 102.473C212.238 107.665 218.611 117.307 221.131 125.168C227.653 145.045 236.99 164.18 247.069 182.424C254.874 196.553 256.457 199.474 258.908 204.343C264.456 200.592 271.235 198.779 277.75 197.406C286.198 195.626 285.754 204.823 280.121 206.009V206.158C274.378 207.381 268.233 208.704 263.428 212.123C263.489 212.444 263.521 212.78 263.521 213.129C263.67 238.197 265.003 263.562 268.412 288.334C270.487 302.574 273.304 316.368 280.418 328.977C287.533 341.585 306.208 359.681 326.958 361.016C347.709 362.351 332.739 370.361 326.958 369.916C320.272 369.479 313.944 367.983 308.048 365.613C310.303 383.026 307.463 401.619 305.171 418.569L429.821 415.454C429.69 399.936 428.51 385.349 432.273 370.559C428.046 371.062 423.792 371.344 419.594 371.548C404.328 372.29 413.814 362.945 419.594 362.648L419.743 362.5C434.268 361.758 449.831 359.978 461.095 349.892C471.619 340.547 478.14 327.79 487.034 317.11C503.486 297.679 528.386 280.62 554.028 276.912C579.67 273.204 564.996 276.17 570.48 275.132C578.188 273.649 580.707 269.051 578.484 261.337C574.038 246.059 558.475 241.609 544.246 241.016C530.313 240.422 516.974 243.092 504.227 248.729C491.48 254.366 481.105 264.897 468.803 261.931C449.138 257.224 456.873 225.507 460.266 210.94ZM432.342 264.452C418.262 267.567 405.663 274.687 395.288 284.774C388.618 291.3 378.539 302.722 379.28 312.957C380.021 323.192 370.832 318.742 370.387 312.957C369.762 305.715 373.282 298.043 377.93 291.336C376.838 290.898 375.937 289.976 375.574 288.482C371.127 270.682 350.673 262.079 334.221 258.964C317.769 255.849 330.96 249.322 336.593 250.361C355.526 253.949 377.513 264.484 383.614 284.114C385.009 282.53 386.401 281.059 387.728 279.73C399.289 267.864 413.963 259.261 430.119 255.849C435.751 254.662 438.123 263.266 432.49 264.452H432.342Z"/>
</mask>
<path d="M254.184 214.168C245.29 196.664 235.212 179.903 226.911 162.103C221.724 150.681 216.24 138.815 212.534 126.8C210.163 118.938 208.088 109.148 212.979 101.732C217.87 94.3151 226.17 92.0901 233.433 93.1284C240.696 94.1668 250.033 102.77 254.776 110.78C262.187 123.537 268.709 136.886 275.972 149.643C279.232 155.576 282.641 161.361 285.902 167.295C289.163 173.228 289.015 173.228 290.793 176.046C292.572 178.864 293.313 179.309 294.054 180.941L295.388 182.128C293.906 182.573 293.313 182.128 293.758 181.089C293.017 178.419 293.461 175.156 292.868 172.338C292.275 169.52 291.238 166.256 290.201 163.29C288.126 156.911 286.199 150.533 284.568 144.006C281.159 129.47 277.898 114.933 275.082 100.397C272.563 87.4918 269.154 74.1419 268.561 60.9403C267.968 47.7387 270.636 42.9921 277.454 37.0588C284.272 31.1255 294.944 28.4556 303.392 32.7572C312.878 37.5038 318.362 48.0354 321.474 57.5287C330.664 85.2668 334.369 114.933 339.854 143.413C340.891 148.901 342.077 154.538 343.114 160.026C344.152 165.515 345.041 171.3 348.45 174.859C357.195 183.759 353.638 159.433 353.341 156.466C350.525 129.915 350.229 103.512 349.191 76.9602C348.154 50.4087 342.373 33.4989 355.861 18.6656C369.349 3.8324 382.688 6.20572 392.619 15.254C407.144 28.3072 406.107 54.562 406.7 72.2136C407.293 89.8651 407.589 120.125 408.627 144.155C409.664 168.185 409.22 162.4 410.85 171.448C412.48 180.496 411.295 177.233 412.628 178.419C414.407 180.051 415.889 177.974 417.223 176.046C420.929 170.855 422.411 163.438 424.041 157.356C426.413 148.753 428.191 140.15 429.97 131.398C433.379 113.895 436.195 96.2434 439.901 78.7402C442.865 65.0936 448.645 47.1454 464.505 44.1788C480.364 41.2121 495.779 68.9503 495.63 84.9702C495.63 98.7651 491.48 112.115 487.923 125.317C484.366 138.518 482.439 153.203 479.178 167.146C475.918 181.089 471.767 196.516 468.951 211.498C466.413 225 460.624 216.815 460.266 210.94C460.226 210.297 460.252 209.681 460.355 209.124C463.022 194.588 467.024 180.496 470.285 166.108C473.398 152.61 475.028 138.815 478.585 125.317C482.143 111.818 486.737 98.6167 486.737 84.8218C486.737 71.0269 482.736 57.3803 471.323 53.227C455.019 47.2938 449.683 74.7352 447.608 85.4151C444.199 102.177 441.531 119.235 438.122 135.996C435.306 150.088 432.786 165.811 425.82 178.716C425.347 179.611 424.812 180.442 424.227 181.206C419.645 187.194 412.011 189.04 407.147 184.602C405.634 183.22 404.389 181.231 403.587 178.568C399.882 166.256 399.882 144.006 399.437 127.69C398.844 104.253 398.844 80.6685 397.214 57.232C397.21 57.1823 397.207 57.1325 397.203 57.0825C396.163 42.6526 394.178 15.119 373.499 18.9623C352.748 22.8189 356.454 48.0354 357.492 64.0553C358.974 89.2718 358.233 114.637 360.456 139.853C361.345 150.236 363.717 160.768 363.272 171.151C363.186 173.168 363.049 174.916 362.831 176.43C361.93 182.712 359.638 184.971 353.786 185.688C350.97 186.037 348.53 185.621 346.409 184.619C334.129 178.815 332.538 153.362 330.516 143.116C325.18 115.378 321.623 86.6018 312.581 59.7537C308.876 48.4804 299.983 34.3888 286.347 41.3605C272.711 48.3321 276.713 59.457 278.343 69.6919C282.641 96.8367 287.533 124.723 295.388 151.126C302.249 174.186 303.796 172.92 302.794 179.245C302.649 180.162 302.45 181.239 302.206 182.573C301.047 188.663 296.206 192.768 290.451 189.347C290.318 189.269 290.186 189.186 290.052 189.099C284.124 185.243 283.827 181.831 281.604 177.974C278.195 171.745 274.638 165.515 271.08 159.285C263.966 146.973 257 134.513 250.478 121.905C245.735 112.708 238.028 97.2817 225.133 102.473C212.238 107.665 218.611 117.307 221.131 125.168C227.653 145.045 236.99 164.18 247.069 182.424C254.874 196.553 256.457 199.474 258.908 204.343C259.622 205.762 260.41 207.346 261.446 209.421C266.041 218.618 256.407 219.063 253.739 213.871L254.184 214.168Z" fill="#222221"/>
<path d="M326.958 369.916C320.272 369.479 313.944 367.983 308.048 365.613C287.935 357.53 272.851 339.288 265.745 318.297C257.148 292.784 256.407 263.71 255.221 237.011C254.035 210.311 254.628 220.991 254.628 213.129C254.628 205.742 262.48 207.13 263.428 212.123C263.489 212.444 263.521 212.78 263.521 213.129C263.67 238.197 265.003 263.562 268.412 288.334C270.487 302.574 273.304 316.368 280.418 328.977C287.533 341.585 306.208 359.681 326.958 361.016C347.709 362.351 332.739 370.361 326.958 369.916Z" fill="#222221"/>
<path d="M442.568 367.246C437.084 383.415 438.566 398.841 438.715 415.454C438.715 421.239 429.821 421.239 429.821 415.454C429.69 399.936 428.51 385.349 432.273 370.559C432.754 368.668 433.316 366.773 433.972 364.873C433.972 364.873 444.347 361.758 442.568 367.246Z" fill="#222221"/>
<path d="M306.505 357.16C307.173 359.938 307.679 362.76 308.048 365.613C310.303 383.026 307.463 401.619 305.171 418.569C302.503 438.298 295.833 421.833 296.574 416.196C298.946 398.099 302.355 377.481 297.908 359.385C296.574 353.748 305.171 351.523 306.505 357.011V357.16Z" fill="#222221"/>
<path d="M432.342 264.452C418.262 267.567 405.663 274.687 395.288 284.774C388.618 291.3 378.539 302.722 379.28 312.957C380.021 323.192 370.832 318.742 370.387 312.957C369.762 305.715 373.282 298.043 377.93 291.336C379.716 288.76 381.667 286.326 383.614 284.114C385.009 282.53 386.401 281.059 387.728 279.73C399.289 267.864 413.963 259.261 430.119 255.849C435.751 254.662 438.123 263.266 432.49 264.452H432.342Z" fill="#222221"/>
<path d="M375.574 288.482C371.127 270.682 350.673 262.079 334.221 258.964C317.769 255.849 330.96 249.322 336.593 250.361C355.526 253.949 377.513 264.484 383.614 284.114C383.817 284.769 384.003 285.434 384.171 286.109C385.142 290.211 380.852 292.506 377.93 291.336C376.838 290.898 375.937 289.976 375.574 288.482Z" fill="#222221"/>
<path d="M419.743 362.5C434.268 361.758 449.831 359.978 461.095 349.892C471.619 340.547 478.14 327.79 487.034 317.11C503.486 297.679 528.386 280.62 554.028 276.912C579.67 273.204 564.996 276.17 570.48 275.132C578.188 273.649 580.707 269.051 578.484 261.337C574.038 246.059 558.475 241.609 544.246 241.016C530.313 240.422 516.974 243.092 504.227 248.729C491.48 254.366 481.105 264.897 468.803 261.931C449.138 257.224 456.873 225.507 460.266 210.94C460.402 210.356 460.531 209.799 460.651 209.273C463.763 195.626 470.581 206.009 469.247 211.646C467.024 221.288 464.801 231.226 465.246 241.312C465.69 251.399 465.69 250.509 469.247 252.882C475.621 257.036 485.996 248.284 491.332 245.317C513.861 233.154 544.987 225.886 569.146 237.752C593.306 249.619 587.822 254.217 588.118 266.084C588.415 277.95 580.114 282.994 569.443 284.477C558.771 285.96 558.475 285.219 552.99 286.257C545.135 287.889 537.28 290.855 530.165 294.415C516.529 301.239 503.93 311.325 493.852 322.895C483.773 334.465 476.362 349.743 463.615 359.385C454.374 366.375 443.418 369.233 432.273 370.559C428.046 371.062 423.792 371.344 419.594 371.548C404.328 372.29 413.814 362.945 419.594 362.648L419.743 362.5Z" fill="#222221"/>
<path d="M443.457 196.071C434.564 189.544 422.41 190.731 412.183 187.913C409.17 187.083 407.65 185.866 407.147 184.602C405.944 181.572 410.581 178.263 414.554 179.309C417.693 180.189 420.949 180.725 424.227 181.206C432.56 182.428 441.031 183.29 448.052 188.506C457.834 195.774 448.052 199.631 443.605 196.219L443.457 196.071Z" fill="#222221"/>
<path d="M384.17 185.985C373.795 185.985 363.123 184.353 352.748 185.836C349.445 186.308 347.434 185.698 346.409 184.619C344.213 182.306 346.537 177.84 350.377 177.233C354.528 176.632 358.68 176.433 362.831 176.43C369.944 176.424 377.057 176.991 384.17 177.085C395.435 177.233 389.951 185.985 384.17 185.985Z" fill="#222221"/>
<path d="M327.403 188.358C317.176 186.429 307.838 185.391 298.204 190.434C293.299 193.002 290.93 191.648 290.451 189.347C289.989 187.129 291.284 184.032 293.758 182.721C296.789 181.128 299.791 180.001 302.794 179.245C311.538 177.043 320.286 177.988 329.774 179.754C342.521 182.128 333.035 189.396 327.403 188.358Z" fill="#222221"/>
<path d="M280.121 206.158C274.378 207.381 268.233 208.704 263.428 212.123C262.404 212.851 261.442 213.675 260.557 214.613C255.517 219.953 250.329 212.536 254.331 208.234C255.722 206.74 257.261 205.456 258.908 204.343C264.456 200.592 271.235 198.779 277.75 197.406C286.198 195.626 285.754 204.823 280.121 206.009V206.158Z" fill="#222221"/>
<path fill-rule="evenodd" clip-rule="evenodd" d="M460.266 210.94C460.226 210.297 460.252 209.681 460.355 209.124C463.022 194.588 467.024 180.496 470.285 166.108C473.398 152.61 475.028 138.815 478.585 125.317C482.143 111.818 486.737 98.6167 486.737 84.8218C486.737 71.0269 482.736 57.3803 471.323 53.227C455.019 47.2938 449.683 74.7352 447.608 85.4151C444.199 102.177 441.531 119.235 438.122 135.996C435.306 150.088 432.786 165.811 425.82 178.716C425.347 179.611 424.812 180.442 424.227 181.206C432.56 182.428 441.031 183.29 448.052 188.506C457.834 195.774 448.052 199.631 443.605 196.219L443.457 196.071C434.564 189.544 422.41 190.731 412.183 187.913C409.17 187.083 407.65 185.866 407.147 184.602C405.634 183.22 404.389 181.231 403.587 178.568C399.882 166.256 399.882 144.006 399.437 127.69C398.844 104.253 398.844 80.6685 397.214 57.232L397.203 57.0825C396.163 42.6526 394.178 15.119 373.499 18.9623C352.748 22.8189 356.454 48.0354 357.492 64.0553C358.974 89.2718 358.233 114.637 360.456 139.853C361.345 150.236 363.717 160.768 363.272 171.151C363.186 173.168 363.049 174.916 362.831 176.43C369.944 176.424 377.057 176.991 384.17 177.085C395.435 177.233 389.951 185.985 384.17 185.985C373.795 185.985 363.123 184.353 352.748 185.836C349.445 186.308 347.434 185.698 346.409 184.619C334.129 178.815 332.538 153.362 330.516 143.116C325.18 115.378 321.623 86.6018 312.581 59.7537C308.876 48.4804 299.983 34.3888 286.347 41.3605C272.711 48.3321 276.713 59.457 278.343 69.6919C282.641 96.8367 287.533 124.723 295.388 151.126C302.249 174.186 303.796 172.92 302.794 179.245C311.538 177.043 320.286 177.988 329.774 179.754C342.521 182.128 333.035 189.396 327.403 188.358C317.176 186.429 307.838 185.391 298.204 190.434C293.299 193.002 290.93 191.648 290.451 189.347C290.318 189.269 290.186 189.186 290.052 189.099C284.124 185.243 283.827 181.831 281.604 177.974C278.195 171.745 274.638 165.515 271.08 159.285C263.966 146.973 257 134.513 250.478 121.905C245.735 112.708 238.028 97.2817 225.133 102.473C212.238 107.665 218.611 117.307 221.131 125.168C227.653 145.045 236.99 164.18 247.069 182.424C254.874 196.553 256.457 199.474 258.908 204.343C264.456 200.592 271.235 198.779 277.75 197.406C286.198 195.626 285.754 204.823 280.121 206.009V206.158C274.378 207.381 268.233 208.704 263.428 212.123C263.489 212.444 263.521 212.78 263.521 213.129C263.67 238.197 265.003 263.562 268.412 288.334C270.487 302.574 273.304 316.368 280.418 328.977C287.533 341.585 306.208 359.681 326.958 361.016C347.709 362.351 332.739 370.361 326.958 369.916C320.272 369.479 313.944 367.983 308.048 365.613C310.303 383.026 307.463 401.619 305.171 418.569L429.821 415.454C429.69 399.936 428.51 385.349 432.273 370.559C428.046 371.062 423.792 371.344 419.594 371.548C404.328 372.29 413.814 362.945 419.594 362.648L419.743 362.5C434.268 361.758 449.831 359.978 461.095 349.892C471.619 340.547 478.14 327.79 487.034 317.11C503.486 297.679 528.386 280.62 554.028 276.912C579.67 273.204 564.996 276.17 570.48 275.132C578.188 273.649 580.707 269.051 578.484 261.337C574.038 246.059 558.475 241.609 544.246 241.016C530.313 240.422 516.974 243.092 504.227 248.729C491.48 254.366 481.105 264.897 468.803 261.931C449.138 257.224 456.873 225.507 460.266 210.94ZM432.342 264.452C418.262 267.567 405.663 274.687 395.288 284.774C388.618 291.3 378.539 302.722 379.28 312.957C380.021 323.192 370.832 318.742 370.387 312.957C369.762 305.715 373.282 298.043 377.93 291.336C376.838 290.898 375.937 289.976 375.574 288.482C371.127 270.682 350.673 262.079 334.221 258.964C317.769 255.849 330.96 249.322 336.593 250.361C355.526 253.949 377.513 264.484 383.614 284.114C385.009 282.53 386.401 281.059 387.728 279.73C399.289 267.864 413.963 259.261 430.119 255.849C435.751 254.662 438.123 263.266 432.49 264.452H432.342Z" fill="#C0AB7F"/>
<path d="M460.355 209.124L464.288 209.848L464.289 209.846L460.355 209.124ZM470.285 166.108L466.388 165.209L466.386 165.216L466.384 165.224L470.285 166.108ZM478.585 125.317L482.453 126.336L478.585 125.317ZM471.323 53.227L472.691 49.4682L471.323 53.227ZM447.608 85.4151L451.528 86.2124L451.531 86.1952L451.534 86.1781L447.608 85.4151ZM438.122 135.996L434.202 135.199L434.199 135.213L438.122 135.996ZM425.82 178.716L422.3 176.816L422.292 176.831L422.284 176.846L425.82 178.716ZM403.587 178.568L399.757 179.721V179.721L403.587 178.568ZM399.437 127.69L395.438 127.791L395.439 127.799L399.437 127.69ZM373.499 18.9623L372.768 15.0296L373.499 18.9623ZM357.492 64.0553L361.485 63.8206L361.484 63.8087L361.483 63.7968L357.492 64.0553ZM360.456 139.853L364.441 139.512L364.44 139.502L360.456 139.853ZM363.272 171.151L359.276 170.98L363.272 171.151ZM330.516 143.116L326.588 143.872L326.59 143.882L326.591 143.891L330.516 143.116ZM312.581 59.7537L308.781 61.0027L308.786 61.0165L308.791 61.0303L312.581 59.7537ZM286.347 41.3605L284.526 37.7989L286.347 41.3605ZM278.343 69.6919L282.294 69.0663L282.293 69.0627L278.343 69.6919ZM295.388 151.126L299.222 149.986V149.986L295.388 151.126ZM290.052 189.099L292.234 185.746L292.234 185.746L290.052 189.099ZM281.604 177.974L278.095 179.895L278.116 179.934L278.138 179.972L281.604 177.974ZM271.08 159.285L274.554 157.301L274.549 157.292L274.544 157.283L271.08 159.285ZM250.478 121.905L246.923 123.738L246.925 123.743L250.478 121.905ZM225.133 102.473L226.627 106.184H226.627L225.133 102.473ZM221.131 125.168L217.322 126.389L217.326 126.402L217.33 126.415L221.131 125.168ZM247.069 182.424L250.57 180.49H250.57L247.069 182.424ZM326.958 369.916L327.265 365.928L327.242 365.926L327.219 365.925L326.958 369.916ZM263.521 213.129H259.521V213.141L259.521 213.153L263.521 213.129ZM268.412 288.334L264.45 288.879L264.452 288.895L264.454 288.91L268.412 288.334ZM280.418 328.977L283.902 327.011L280.418 328.977ZM326.958 361.016L327.215 357.025L326.958 361.016ZM432.342 264.452V260.452H431.905L431.478 260.547L432.342 264.452ZM395.288 284.774L392.499 281.906L392.49 281.915L395.288 284.774ZM370.387 312.957L374.375 312.65L374.374 312.632L374.372 312.613L370.387 312.957ZM387.728 279.73L390.558 282.558L390.576 282.54L390.594 282.522L387.728 279.73ZM430.119 255.849L429.294 251.935L429.292 251.935L430.119 255.849ZM432.49 264.452V268.452H432.907L433.315 268.366L432.49 264.452ZM375.574 288.482L379.461 287.537L379.458 287.525L379.455 287.513L375.574 288.482ZM334.221 258.964L333.477 262.894L334.221 258.964ZM336.593 250.361L337.337 246.431L337.328 246.429L337.318 246.427L336.593 250.361ZM419.743 362.5L419.539 358.505L418.003 358.583L416.915 359.671L419.743 362.5ZM461.095 349.892L458.439 346.901L458.433 346.906L458.427 346.912L461.095 349.892ZM487.034 317.11L483.981 314.525L483.97 314.538L483.96 314.551L487.034 317.11ZM570.48 275.132L571.224 279.062L571.236 279.06L570.48 275.132ZM578.484 261.337L582.328 260.229L582.325 260.219L578.484 261.337ZM544.246 241.016L544.076 245.012L544.079 245.012L544.246 241.016ZM468.803 261.931L469.741 258.042L469.734 258.04L468.803 261.931ZM419.594 371.548L419.788 375.543H419.788L419.594 371.548ZM419.594 362.648L419.799 366.643L421.335 366.564L422.422 365.477L419.594 362.648ZM443.457 196.071L446.287 193.244L446.07 193.027L445.824 192.846L443.457 196.071ZM412.183 187.913L413.245 184.056V184.056L412.183 187.913ZM448.052 188.506L445.666 191.717L448.052 188.506ZM443.605 196.219L440.775 199.046L440.961 199.232L441.17 199.393L443.605 196.219ZM352.748 185.836L352.182 181.876L352.748 185.836ZM384.17 177.085L384.223 173.085H384.223L384.17 177.085ZM327.403 188.358L326.662 192.288L326.67 192.29L326.678 192.291L327.403 188.358ZM298.204 190.434L296.349 186.891H296.349L298.204 190.434ZM329.774 179.754L330.507 175.822L329.774 179.754ZM280.121 206.158L280.954 210.07L284.121 209.396V206.158H280.121ZM277.75 197.406L278.574 201.32L277.75 197.406ZM280.121 206.009L279.297 202.095L276.121 202.764V206.009H280.121ZM460.266 210.94L464.161 211.847L464.294 211.279L464.258 210.696L460.266 210.94ZM424.227 181.206L421.05 178.775L416.917 184.177L423.647 185.164L424.227 181.206ZM407.147 184.602L410.865 183.125L410.524 182.268L409.844 181.647L407.147 184.602ZM362.831 176.43L358.872 175.861L358.216 180.434L362.835 180.43L362.831 176.43ZM346.409 184.619L349.31 181.864L348.794 181.322L348.118 181.002L346.409 184.619ZM302.794 179.245L298.844 178.619L297.896 184.603L303.771 183.124L302.794 179.245ZM290.451 189.347L294.367 188.532L294.008 186.809L292.495 185.909L290.451 189.347ZM258.908 204.343L255.335 206.141L257.38 210.204L261.148 207.657L258.908 204.343ZM263.428 212.123L261.109 208.864L259.02 210.35L259.498 212.869L263.428 212.123ZM308.048 365.613L309.54 361.902L303.205 359.356L304.081 366.127L308.048 365.613ZM432.273 370.559L436.15 371.545L437.586 365.899L431.801 366.587L432.273 370.559ZM377.93 291.336L381.218 293.614L384.077 289.49L379.418 287.623L377.93 291.336ZM383.614 284.114L379.794 285.302L381.909 292.106L386.617 286.757L383.614 284.114ZM464.289 209.846C466.943 195.384 470.855 181.693 474.186 166.992L466.384 165.224C463.194 179.3 459.102 193.791 456.42 208.402L464.289 209.846ZM474.183 167.007C475.766 160.143 476.971 153.203 478.204 146.428C479.444 139.61 480.718 132.921 482.453 126.336L474.717 124.297C472.896 131.21 471.575 138.168 470.333 144.996C469.083 151.868 467.917 158.575 466.388 165.209L474.183 167.007ZM482.453 126.336C485.898 113.264 490.737 99.295 490.737 84.8218H482.737C482.737 97.9384 478.387 110.373 474.717 124.297L482.453 126.336ZM490.737 84.8218C490.737 77.5934 489.697 70.1481 486.986 63.8313C484.251 57.4592 479.704 52.0204 472.691 49.4682L469.955 56.9859C474.355 58.587 477.515 62.0481 479.634 66.9864C481.777 71.9799 482.737 78.2553 482.737 84.8218H490.737ZM472.691 49.4682C467.433 47.5548 462.7 48.3016 458.795 50.935C455.124 53.41 452.48 57.3436 450.533 61.3392C446.633 69.3445 444.701 79.4017 443.681 84.6522L451.534 86.1781C452.589 80.7486 454.363 71.7452 457.725 64.843C459.41 61.385 461.287 58.9033 463.267 57.5679C465.013 56.391 467.061 55.9326 469.955 56.9859L472.691 49.4682ZM443.688 84.6179C441.973 93.051 440.446 101.551 438.928 109.998C437.407 118.461 435.896 126.871 434.202 135.199L442.042 136.794C443.757 128.361 445.284 119.861 446.802 111.413C448.322 102.951 449.834 94.5408 451.528 86.2124L443.688 84.6179ZM434.199 135.213C431.324 149.599 428.909 164.573 422.3 176.816L429.34 180.616C436.663 167.049 439.287 150.577 442.044 136.78L434.199 135.213ZM407.418 177.415C405.712 171.75 404.8 163.522 404.283 154.404C403.769 145.341 403.66 135.828 403.436 127.581L395.439 127.799C395.658 135.869 395.773 145.638 396.296 154.857C396.816 164.021 397.757 173.074 399.757 179.721L407.418 177.415ZM403.436 127.589C402.846 104.288 402.843 80.5081 401.204 56.9544L393.223 57.5096C394.846 80.8289 394.842 104.219 395.438 127.791L403.436 127.589ZM372.768 15.0296C366.714 16.1548 362.185 18.9157 358.988 22.8661C355.859 26.7334 354.222 31.4708 353.385 36.2582C351.74 45.6566 353.004 56.654 353.5 64.3138L361.483 63.7968C360.942 55.4367 359.834 45.816 361.265 37.637C361.965 33.6357 363.228 30.3446 365.207 27.8985C367.119 25.5355 369.908 23.6981 374.23 22.8949L372.768 15.0296ZM353.498 64.29C354.234 76.8048 354.418 89.3532 354.697 102.042C354.975 114.694 355.347 127.454 356.471 140.204L364.44 139.502C363.341 127.036 362.973 114.505 362.695 101.866C362.418 89.2646 362.231 76.5222 361.485 63.8206L353.498 64.29ZM356.47 140.194C356.923 145.481 357.768 150.939 358.395 155.994C359.036 161.164 359.483 166.128 359.276 170.98L367.268 171.322C367.505 165.791 366.989 160.298 366.334 155.01C365.664 149.608 364.878 144.608 364.441 139.512L356.47 140.194ZM334.444 142.361C329.177 114.983 325.528 85.6664 316.372 58.4771L308.791 61.0303C317.717 87.5373 321.183 115.773 326.588 143.872L334.444 142.361ZM316.381 58.5046C314.432 52.5738 311.009 45.4993 305.904 40.7785C303.306 38.3759 300.138 36.4614 296.401 35.774C292.618 35.0778 288.615 35.7085 284.526 37.7989L288.168 44.922C290.897 43.5266 293.119 43.3044 294.954 43.6419C296.836 43.9882 298.679 44.9939 300.472 46.652C304.149 50.0524 307.025 55.6603 308.781 61.0027L316.381 58.5046ZM284.526 37.7989C280.657 39.7771 277.795 42.1781 275.829 45.0068C273.856 47.8477 272.946 50.8909 272.641 53.8988C272.341 56.8552 272.623 59.807 273.033 62.5251C273.24 63.8921 273.487 65.2518 273.726 66.5462C273.968 67.8604 274.198 69.1 274.393 70.3212L282.293 69.0627C282.08 67.7252 281.829 66.3782 281.594 65.0978C281.354 63.7975 281.128 62.5544 280.943 61.3303C280.571 58.866 280.399 56.6818 280.6 54.7061C280.795 52.7819 281.339 51.0971 282.399 49.5715C283.468 48.0337 285.219 46.4297 288.168 44.922L284.526 37.7989ZM274.392 70.3175C278.693 97.4789 283.617 125.591 291.554 152.267L299.222 149.986C291.448 123.856 286.59 96.1946 282.294 69.0663L274.392 70.3175ZM292.234 185.746C287.374 182.586 287.834 180.773 285.069 175.977L278.138 179.972C279.82 182.889 280.873 187.9 287.871 192.452L292.234 185.746ZM285.113 176.054C281.683 169.787 278.108 163.526 274.554 157.301L267.607 161.268C271.167 167.503 274.706 173.702 278.095 179.895L285.113 176.054ZM274.544 157.283C267.447 145.002 260.514 132.601 254.031 120.067L246.925 123.743C253.486 136.426 260.485 148.944 267.617 161.286L274.544 157.283ZM254.033 120.071C251.734 115.614 248.366 108.894 243.765 104.041C241.424 101.572 238.565 99.3626 235.118 98.2269C231.574 97.0593 227.702 97.1271 223.639 98.7628L226.627 106.184C229.012 105.224 230.939 105.273 232.615 105.825C234.387 106.409 236.169 107.657 237.96 109.546C241.622 113.408 244.479 118.999 246.923 123.738L254.033 120.071ZM223.639 98.7628C219.935 100.254 217.149 102.251 215.39 104.878C213.597 107.555 213.166 110.442 213.362 113.112C213.552 115.696 214.337 118.22 215.115 120.387C215.983 122.804 216.703 124.459 217.322 126.389L224.94 123.947C224.299 121.947 223.278 119.448 222.645 117.684C221.922 115.67 221.448 113.985 221.341 112.527C221.24 111.155 221.476 110.167 222.037 109.33C222.63 108.444 223.883 107.289 226.627 106.184L223.639 98.7628ZM217.33 126.415C223.962 146.628 233.431 166.008 243.568 184.359L250.57 180.49C240.55 162.351 231.343 143.462 224.932 123.921L217.33 126.415ZM259.521 213.153C259.67 238.341 261.01 263.888 264.45 288.879L272.375 287.788C268.996 263.236 267.669 238.054 267.521 213.106L259.521 213.153ZM264.454 288.91C266.542 303.241 269.437 317.656 276.935 330.942L283.902 327.011C277.17 315.081 274.432 301.906 272.371 287.757L264.454 288.91ZM276.935 330.942C280.776 337.75 287.593 345.827 296.137 352.395C304.675 358.959 315.275 364.273 326.702 365.008L327.215 357.025C317.891 356.425 308.778 352.023 301.013 346.053C293.253 340.087 287.175 332.811 283.902 327.011L276.935 330.942ZM326.702 365.008C329.169 365.167 330.988 365.418 332.29 365.706C332.937 365.849 333.421 365.993 333.771 366.123C334.127 366.255 334.293 366.352 334.336 366.38C334.381 366.41 334.224 366.319 334.037 366.05C333.829 365.753 333.644 365.319 333.61 364.798C333.577 364.297 333.696 363.915 333.79 363.705C333.877 363.509 333.952 363.438 333.913 363.483C333.878 363.521 333.785 363.615 333.608 363.753C333.435 363.888 333.209 364.042 332.93 364.207C332.368 364.54 331.672 364.871 330.911 365.156C330.152 365.44 329.389 365.657 328.707 365.79C328.368 365.856 328.068 365.897 327.813 365.918C327.554 365.939 327.373 365.936 327.265 365.928L326.651 373.905C328.923 374.079 331.571 373.452 333.719 372.647C335.83 371.855 338.322 370.571 339.903 368.785C340.697 367.888 341.727 366.329 341.593 364.275C341.448 362.053 340.045 360.555 338.715 359.685C337.423 358.84 335.793 358.287 334.016 357.895C332.188 357.491 329.935 357.2 327.215 357.025L326.702 365.008ZM431.478 260.547C416.617 263.834 403.365 271.342 392.499 281.906L398.076 287.642C407.961 278.032 419.906 271.3 433.206 268.358L431.478 260.547ZM392.49 281.915C389.069 285.263 384.652 289.979 381.164 295.274C377.742 300.47 374.824 306.804 375.291 313.246L383.27 312.668C382.995 308.875 384.746 304.381 387.845 299.675C390.879 295.069 394.837 290.811 398.085 287.633L392.49 281.915ZM375.291 313.246C375.364 314.256 375.3 314.911 375.218 315.295C375.136 315.678 375.059 315.691 375.173 315.551C375.232 315.48 375.326 315.387 375.46 315.301C375.593 315.214 375.735 315.154 375.869 315.118C376.135 315.046 376.279 315.091 376.234 315.08C376.187 315.069 376.033 315.018 375.804 314.866C375.581 314.717 375.338 314.507 375.113 314.242C374.641 313.689 374.41 313.101 374.375 312.65L366.399 313.263C366.586 315.705 367.671 317.843 369.024 319.431C370.354 320.992 372.208 322.328 374.322 322.848C376.576 323.403 379.395 323.019 381.358 320.625C383.081 318.525 383.484 315.63 383.27 312.668L375.291 313.246ZM390.594 282.522C401.658 271.165 415.641 262.994 430.945 259.763L429.292 251.935C412.285 255.527 396.921 264.563 384.863 276.939L390.594 282.522ZM430.944 259.763C431.133 259.723 431.226 259.74 431.25 259.745C431.277 259.75 431.304 259.76 431.341 259.786C431.437 259.855 431.594 260.037 431.673 260.324C431.754 260.618 431.675 260.721 431.717 260.639C431.744 260.584 431.792 260.527 431.841 260.49C431.888 260.455 431.857 260.498 431.666 260.538L433.315 268.366C435.834 267.836 437.795 266.351 438.859 264.242C439.864 262.25 439.897 260.054 439.385 258.198C438.373 254.526 434.666 250.803 429.294 251.935L430.944 259.763ZM432.49 260.452H432.342V268.452H432.49V260.452ZM379.455 287.513C376.897 277.273 369.779 269.918 361.5 264.812C353.232 259.712 343.501 256.65 334.965 255.034L333.477 262.894C341.393 264.393 350.116 267.19 357.3 271.621C364.472 276.044 369.805 281.891 371.693 289.451L379.455 287.513ZM334.965 255.034C333.062 254.673 331.73 254.289 330.836 253.936C330.394 253.762 330.099 253.611 329.914 253.499C329.726 253.386 329.698 253.341 329.749 253.394C329.806 253.453 329.968 253.643 330.094 253.981C330.227 254.337 330.273 254.737 330.222 255.126C330.173 255.494 330.051 255.748 329.977 255.872C329.907 255.991 329.865 256.02 329.913 255.973C330.024 255.865 330.315 255.639 330.845 255.369C331.353 255.11 331.974 254.866 332.648 254.67C333.321 254.475 333.991 254.344 334.59 254.285C335.207 254.225 335.635 254.251 335.867 254.294L337.318 246.427C335.066 246.012 332.51 246.38 330.417 246.988C328.344 247.589 325.975 248.645 324.337 250.237C323.51 251.041 322.524 252.321 322.291 254.072C322.032 256.025 322.812 257.716 323.969 258.925C325.026 260.03 326.435 260.8 327.9 261.378C329.412 261.975 331.267 262.476 333.477 262.894L334.965 255.034ZM419.947 366.495C434.417 365.756 451.339 363.997 463.764 352.872L458.427 346.912C448.323 355.959 434.119 357.761 419.539 358.505L419.947 366.495ZM463.751 352.883C469.363 347.899 473.836 342.07 477.933 336.323C482.108 330.467 485.789 324.856 490.107 319.67L483.96 314.551C479.385 320.045 475.359 326.152 471.419 331.68C467.4 337.317 463.351 342.539 458.439 346.901L463.751 352.883ZM490.086 319.695C506.109 300.771 530.195 284.4 554.601 280.871L553.456 272.953C526.577 276.84 500.862 294.587 483.981 314.525L490.086 319.695ZM554.601 280.871C561.001 279.945 564.84 279.443 567.091 279.191C568.226 279.063 568.896 279.007 569.264 278.988C569.459 278.978 569.485 278.983 569.416 278.979C569.385 278.978 569.24 278.971 569.036 278.935C568.951 278.92 568.294 278.816 567.593 278.348C567.198 278.085 566.553 277.548 566.153 276.616C565.712 275.592 565.768 274.563 566.042 273.76C566.468 272.513 567.373 271.904 567.438 271.856C567.681 271.679 567.883 271.578 567.945 271.547C568.03 271.505 568.09 271.48 568.108 271.473C568.141 271.46 568.143 271.46 568.081 271.481C568.078 271.483 567.914 271.539 567.834 271.568C567.802 271.58 567.647 271.635 567.472 271.716C567.422 271.739 567.139 271.866 566.821 272.09C566.701 272.174 566.248 272.494 565.847 273.066C565.428 273.665 564.538 275.427 565.66 277.367C566.481 278.785 567.818 279.151 568.006 279.206C568.408 279.323 568.737 279.349 568.864 279.358C569.15 279.377 569.376 279.361 569.442 279.356C569.616 279.343 569.768 279.322 569.831 279.312C570.106 279.272 570.571 279.186 571.224 279.062L569.736 271.202C569.397 271.266 569.145 271.313 568.961 271.346C568.869 271.363 568.799 271.375 568.747 271.384C568.721 271.389 568.702 271.392 568.688 271.394C568.674 271.396 568.668 271.397 568.67 271.397C568.67 271.397 568.685 271.395 568.711 271.392C568.732 271.389 568.79 271.382 568.869 271.377C568.914 271.373 569.125 271.357 569.399 271.376C569.521 271.384 569.846 271.409 570.246 271.526C570.431 271.58 571.766 271.945 572.585 273.361C573.707 275.3 572.817 277.06 572.399 277.657C572 278.227 571.549 278.545 571.432 278.627C571.121 278.847 570.849 278.968 570.813 278.985C570.723 279.026 570.654 279.053 570.629 279.063C570.598 279.076 570.576 279.083 570.57 279.086C570.416 279.142 570.925 278.964 571.144 278.875C571.218 278.844 571.683 278.661 572.149 278.323C572.25 278.249 573.179 277.614 573.613 276.345C573.891 275.53 573.947 274.49 573.501 273.455C573.096 272.513 572.442 271.966 572.033 271.693C571.305 271.207 570.6 271.088 570.445 271.06C570.169 271.011 569.93 270.995 569.778 270.988C569.466 270.973 569.142 270.983 568.848 270.999C568.239 271.03 567.381 271.108 566.2 271.24C563.818 271.507 559.876 272.025 553.456 272.953L554.601 280.871ZM571.236 279.06C575.69 278.203 579.555 276.267 581.678 272.557C583.764 268.912 583.577 264.566 582.328 260.229L574.641 262.445C575.614 265.822 575.279 267.631 574.734 268.584C574.226 269.473 572.978 270.578 569.724 271.204L571.236 279.06ZM582.325 260.219C577.081 242.201 558.846 237.621 544.412 237.019L544.079 245.012C558.103 245.597 570.994 249.917 574.643 262.455L582.325 260.219ZM544.416 237.019C529.841 236.399 515.891 239.197 502.609 245.071L505.845 252.387C518.056 246.987 530.786 244.446 544.076 245.012L544.416 237.019ZM502.609 245.071C499.203 246.577 496 248.39 493.022 250.136C489.98 251.919 487.248 253.584 484.508 255.005C479.051 257.832 474.467 259.182 469.741 258.042L467.865 265.819C475.44 267.646 482.195 265.213 488.189 262.107C491.173 260.561 494.194 258.722 497.067 257.038C500.003 255.317 502.878 253.699 505.845 252.387L502.609 245.071ZM419.4 367.553C417.666 367.637 416.431 367.569 415.589 367.438C415.173 367.374 414.891 367.299 414.714 367.239C414.535 367.179 414.502 367.146 414.556 367.182C414.616 367.221 414.778 367.344 414.947 367.585C415.122 367.836 415.249 368.141 415.305 368.464C415.411 369.088 415.202 369.427 415.251 369.333C415.291 369.255 415.446 369.016 415.804 368.67C416.148 368.339 416.597 367.99 417.115 367.669C417.631 367.349 418.167 367.089 418.666 366.909C419.177 366.724 419.563 366.655 419.799 366.643L419.389 358.653C417.052 358.773 414.719 359.743 412.903 360.867C411.117 361.973 409.206 363.616 408.153 365.642C407.609 366.688 407.136 368.151 407.418 369.808C407.722 371.59 408.788 372.953 410.126 373.843C412.447 375.387 415.874 375.734 419.788 375.543L419.4 367.553ZM422.422 365.477L422.57 365.329L416.915 359.671L416.767 359.819L422.422 365.477ZM445.824 192.846C440.588 189.004 434.546 187.55 428.954 186.652C423.036 185.702 418.091 185.392 413.245 184.056L411.12 191.769C416.501 193.252 422.747 193.758 427.686 194.551C432.951 195.396 437.433 196.612 441.09 199.296L445.824 192.846ZM445.666 191.717C446.704 192.488 447.368 193.131 447.775 193.62C447.975 193.862 448.101 194.05 448.176 194.183C448.251 194.315 448.27 194.381 448.27 194.38C448.261 194.35 448.21 194.108 448.321 193.775C448.426 193.461 448.596 193.3 448.641 193.264C448.673 193.238 448.606 193.3 448.387 193.366C448.175 193.43 447.891 193.477 447.565 193.476C446.868 193.473 446.324 193.264 446.04 193.046L441.17 199.393C443.109 200.881 445.456 201.469 447.538 201.475C449.576 201.482 451.893 200.93 453.688 199.471C455.725 197.815 456.825 195.131 455.948 192.134C455.198 189.568 453.149 187.31 450.437 185.295L445.666 191.717ZM446.435 193.392L446.287 193.244L440.627 198.898L440.775 199.046L446.435 193.392ZM384.17 181.985C379.089 181.985 374.086 181.588 368.628 181.358C363.298 181.132 357.741 181.082 352.182 181.876L353.314 189.796C358.13 189.107 363.097 189.131 368.29 189.351C373.356 189.565 378.877 189.985 384.17 189.985V181.985ZM384.118 181.084C385.28 181.1 386.071 181.225 386.576 181.365C387.084 181.506 387.197 181.63 387.129 181.572C387.091 181.539 387.016 181.465 386.938 181.34C386.859 181.214 386.797 181.069 386.759 180.915C386.683 180.604 386.741 180.409 386.742 180.403C386.744 180.4 386.734 180.431 386.7 180.493C386.667 180.554 386.614 180.636 386.537 180.734C386.381 180.933 386.154 181.155 385.867 181.361C385.581 181.565 385.271 181.727 384.965 181.835C384.659 181.942 384.39 181.985 384.17 181.985V189.985C386.599 189.985 388.822 189.082 390.519 187.869C392.181 186.681 393.716 184.921 394.382 182.777C395.12 180.404 394.72 177.546 392.342 175.503C390.306 173.755 387.393 173.127 384.223 173.085L384.118 181.084ZM328.144 184.427C317.819 182.48 307.279 181.169 296.349 186.891L300.059 193.978C308.398 189.613 316.533 190.379 326.662 192.288L328.144 184.427ZM329.042 183.687C330.431 183.946 331.354 184.242 331.933 184.501C332.531 184.768 332.59 184.916 332.474 184.775C332.406 184.691 332.298 184.53 332.217 184.29C332.135 184.046 332.103 183.789 332.118 183.546C332.147 183.078 332.329 182.871 332.276 182.941C332.229 183.005 332.066 183.186 331.724 183.421C331.395 183.647 330.975 183.871 330.501 184.054C330.027 184.237 329.549 184.36 329.112 184.419C328.668 184.479 328.338 184.463 328.128 184.424L326.678 192.291C329.018 192.723 331.436 192.269 333.383 191.517C335.305 190.774 337.351 189.516 338.685 187.729C339.374 186.808 340.009 185.556 340.103 184.041C340.203 182.432 339.664 180.932 338.673 179.717C336.911 177.558 333.879 176.45 330.507 175.822L329.042 183.687ZM278.574 201.32C280.058 201.008 280.502 201.312 280.43 201.269C280.395 201.249 280.33 201.194 280.28 201.111C280.236 201.038 280.236 200.999 280.239 201.026C280.248 201.109 280.224 201.355 280.039 201.618C279.883 201.841 279.651 202.021 279.297 202.095L280.946 209.923C285.887 208.882 288.642 204.315 288.193 200.165C287.953 197.951 286.784 195.742 284.524 194.396C282.334 193.092 279.666 192.915 276.925 193.492L278.574 201.32ZM276.121 206.009V206.158H284.121V206.009H276.121ZM464.258 210.696C464.234 210.301 464.257 210.019 464.288 209.848L456.421 208.4C456.247 209.342 456.219 210.292 456.273 211.184L464.258 210.696ZM422.284 176.846C421.915 177.544 421.5 178.188 421.05 178.775L427.404 183.637C428.124 182.696 428.779 181.677 429.356 180.587L422.284 176.846ZM423.647 185.164C432.336 186.438 439.63 187.232 445.666 191.717L450.437 185.295C442.432 179.348 432.783 178.418 424.808 177.248L423.647 185.164ZM413.245 184.056C412.031 183.722 411.344 183.368 410.997 183.129C410.661 182.897 410.758 182.855 410.865 183.125L403.43 186.078C404.637 189.118 407.715 190.831 411.12 191.769L413.245 184.056ZM409.844 181.647C408.951 180.832 408.047 179.508 407.418 177.415L399.757 179.721C400.73 182.954 402.317 185.609 404.451 187.556L409.844 181.647ZM401.193 56.7949C400.682 49.7175 399.913 38.5877 396.44 29.7124C394.688 25.2341 392.1 20.9237 388.136 18.0351C384.033 15.0458 378.886 13.8925 372.768 15.0296L374.23 22.8949C378.451 22.1104 381.307 22.9576 383.425 24.5008C385.681 26.1448 387.532 28.8991 388.99 32.6275C391.94 40.1657 392.683 50.0177 393.213 57.3701L401.193 56.7949ZM359.276 170.98C359.192 172.927 359.063 174.53 358.872 175.861L366.791 176.998C367.034 175.302 367.179 173.408 367.268 171.322L359.276 170.98ZM362.835 180.43C366.294 180.427 369.772 180.564 373.329 180.716C376.861 180.868 380.488 181.036 384.118 181.084L384.223 173.085C380.74 173.039 377.253 172.877 373.673 172.724C370.117 172.571 366.482 172.427 362.828 172.43L362.835 180.43ZM352.182 181.876C350.859 182.066 350.032 182.001 349.58 181.902C349.145 181.807 349.161 181.708 349.31 181.864L343.508 187.373C345.86 189.85 349.517 190.339 353.314 189.796L352.182 181.876ZM348.118 181.002C346.055 180.027 344.18 178.099 342.509 175.152C340.841 172.213 339.535 168.538 338.486 164.522C337.443 160.527 336.694 156.354 336.075 152.477C335.474 148.71 334.964 144.995 334.44 142.342L326.591 143.891C327.079 146.36 327.526 149.669 328.175 153.738C328.807 157.696 329.603 162.17 330.746 166.544C331.882 170.897 333.402 175.314 335.55 179.1C337.694 182.878 340.623 186.308 344.7 188.235L348.118 181.002ZM291.554 152.267C295.008 163.875 297.173 169.512 298.245 172.726C298.787 174.35 298.978 175.154 299.044 175.818C299.106 176.445 299.075 177.159 298.844 178.619L306.745 179.871C307.015 178.168 307.166 176.668 307.005 175.034C306.848 173.435 306.412 171.928 305.834 170.196C304.668 166.697 302.629 161.436 299.222 149.986L291.554 152.267ZM303.771 183.124C311.637 181.143 319.672 181.942 329.042 183.687L330.507 175.822C320.901 174.034 311.438 172.943 301.818 175.366L303.771 183.124ZM296.349 186.891C295.355 187.411 294.63 187.657 294.148 187.761C293.665 187.865 293.52 187.807 293.605 187.828C293.728 187.857 293.96 187.962 294.159 188.186C294.338 188.386 294.369 188.544 294.367 188.532L286.535 190.163C287.035 192.564 288.717 194.878 291.73 195.605C294.373 196.242 297.253 195.447 300.059 193.978L296.349 186.891ZM292.495 185.909C292.409 185.858 292.322 185.804 292.234 185.746L287.871 192.452C288.049 192.568 288.227 192.679 288.407 192.786L292.495 185.909ZM243.568 184.359C251.38 198.5 252.925 201.353 255.335 206.141L262.481 202.545C259.989 197.595 258.368 194.605 250.57 180.49L243.568 184.359ZM261.148 207.657C266.004 204.374 272.114 202.681 278.574 201.32L276.925 193.492C270.357 194.876 262.909 196.81 256.668 201.029L261.148 207.657ZM279.288 202.245C273.712 203.433 266.707 204.881 261.109 208.864L265.747 215.382C269.759 212.528 275.045 211.328 280.954 210.07L279.288 202.245ZM259.498 212.869C259.512 212.942 259.521 213.028 259.521 213.129H267.521C267.521 212.531 267.466 211.946 267.358 211.377L259.498 212.869ZM327.219 365.925C320.967 365.516 315.054 364.118 309.54 361.902L306.557 369.325C312.835 371.848 319.577 373.442 326.697 373.908L327.219 365.925ZM304.081 366.127C306.253 382.901 303.524 400.903 301.207 418.033L309.135 419.105C311.403 402.335 314.352 383.152 312.015 365.1L304.081 366.127ZM433.821 415.421C433.687 399.511 432.552 385.684 436.15 371.545L428.397 369.573C424.468 385.014 425.693 400.36 425.822 415.488L433.821 415.421ZM431.801 366.587C427.706 367.074 423.556 367.351 419.4 367.553L419.788 375.543C424.029 375.337 428.387 375.049 432.746 374.531L431.801 366.587ZM469.734 258.04C466.035 257.155 463.747 255.102 462.253 252.197C460.67 249.121 459.935 244.969 459.888 240.095C459.793 230.327 462.438 219.248 464.161 211.847L456.37 210.033C454.701 217.2 451.782 229.263 451.888 240.172C451.941 245.636 452.747 251.206 455.139 255.856C457.618 260.677 461.738 264.353 467.872 265.821L469.734 258.04ZM374.372 312.613C373.869 306.79 376.729 300.092 381.218 293.614L374.643 289.057C369.835 295.994 365.654 304.64 366.402 313.301L374.372 312.613ZM379.418 287.623C379.42 287.623 379.433 287.629 379.453 287.643C379.473 287.657 379.493 287.675 379.507 287.692C379.522 287.709 379.523 287.715 379.515 287.699C379.507 287.682 379.484 287.632 379.461 287.537L371.687 289.427C372.352 292.163 374.138 294.125 376.443 295.049L379.418 287.623ZM335.848 254.291C344.933 256.013 354.654 259.389 362.755 264.588C370.849 269.782 377.103 276.642 379.794 285.302L387.434 282.927C384.024 271.956 376.234 263.733 367.076 257.855C357.925 251.982 347.186 248.297 337.337 246.431L335.848 254.291ZM386.617 286.757C387.951 285.241 389.285 283.832 390.558 282.558L384.899 276.903C383.517 278.286 382.067 279.818 380.611 281.472L386.617 286.757ZM254.184 214.168L249.743 220.822L275.154 237.781L261.316 210.544L254.184 214.168ZM226.911 162.103L219.628 165.411L219.644 165.448L219.661 165.484L226.911 162.103ZM212.534 126.8L204.875 129.11L204.882 129.134L204.89 129.158L212.534 126.8ZM212.979 101.732L206.301 97.3273L206.301 97.3273L212.979 101.732ZM233.433 93.1284L232.301 101.048H232.301L233.433 93.1284ZM254.776 110.78L261.694 106.761L261.677 106.733L261.66 106.704L254.776 110.78ZM275.972 149.643L282.983 145.79L282.954 145.737L282.924 145.685L275.972 149.643ZM285.902 167.295L278.891 171.148L278.891 171.148L285.902 167.295ZM294.054 180.941L286.77 184.249L287.471 185.792L288.737 186.918L294.054 180.941ZM295.388 182.128L297.689 189.79L311.408 185.671L300.705 176.15L295.388 182.128ZM293.758 181.089L301.112 184.239L302.218 181.657L301.466 178.95L293.758 181.089ZM292.868 172.338L285.04 173.985L285.04 173.985L292.868 172.338ZM290.201 163.29L282.593 165.765L282.62 165.848L282.649 165.931L290.201 163.29ZM284.568 144.006L276.78 145.833L276.793 145.889L276.807 145.945L284.568 144.006ZM275.082 100.397L282.936 98.8752L282.934 98.8637L275.082 100.397ZM268.561 60.9403L260.569 61.2992V61.2992L268.561 60.9403ZM277.454 37.0588L282.706 43.0937L282.706 43.0937L277.454 37.0588ZM303.392 32.7572L299.762 39.8863L299.787 39.899L299.812 39.9115L303.392 32.7572ZM321.474 57.5287L313.873 60.0211L313.877 60.0329L313.88 60.0446L321.474 57.5287ZM339.854 143.413L347.714 141.927L347.712 141.914L347.709 141.9L339.854 143.413ZM343.114 160.026L335.253 161.512V161.512L343.114 160.026ZM348.45 174.859L342.672 180.393L342.708 180.43L342.744 180.466L348.45 174.859ZM353.341 156.466L361.302 155.671L361.299 155.647L361.297 155.623L353.341 156.466ZM349.191 76.9602L357.185 76.6478L349.191 76.9602ZM355.861 18.6656L349.942 13.2836V13.2836L355.861 18.6656ZM392.619 15.254L387.231 21.1674L387.251 21.186L387.272 21.2043L392.619 15.254ZM406.7 72.2136L414.695 71.945L406.7 72.2136ZM408.627 144.155L416.619 143.81L408.627 144.155ZM410.85 171.448L418.723 170.029L418.723 170.029L410.85 171.448ZM412.628 178.419L418.037 172.524L417.991 172.483L417.946 172.442L412.628 178.419ZM417.223 176.046L410.712 171.399L410.677 171.447L410.644 171.495L417.223 176.046ZM424.041 157.356L416.329 155.23L416.321 155.258L416.314 155.285L424.041 157.356ZM429.97 131.398L437.81 132.991L437.816 132.96L437.822 132.928L429.97 131.398ZM439.901 78.7402L432.083 77.042L432.078 77.0626L432.074 77.0833L439.901 78.7402ZM464.505 44.1788L465.976 52.0424L464.505 44.1788ZM495.63 84.9702L487.631 84.8961L487.63 84.9332V84.9702H495.63ZM487.923 125.317L480.199 123.235L487.923 125.317ZM479.178 167.146L471.389 165.324L479.178 167.146ZM468.951 211.498L476.814 212.975L468.951 211.498ZM397.214 57.232L389.235 57.8074L405.193 56.657L397.214 57.232ZM353.786 185.688L352.813 177.747L352.801 177.749L353.786 185.688ZM302.206 182.573L310.065 184.069L310.07 184.041L310.076 184.013L302.206 182.573ZM261.446 209.421L268.603 205.845L261.446 209.421ZM253.739 213.871L258.18 207.217L232.527 190.097L246.624 217.527L253.739 213.871ZM265.745 318.297L258.163 320.851L258.167 320.862L265.745 318.297ZM255.221 237.011L247.229 237.366L255.221 237.011ZM442.568 367.246L450.144 369.816L450.162 369.765L450.178 369.713L442.568 367.246ZM438.715 415.454H446.715V415.419L446.714 415.383L438.715 415.454ZM429.821 415.454H437.821V407.252L429.622 407.457L429.821 415.454ZM433.972 364.873L431.671 357.211L427.745 358.39L426.409 362.265L433.972 364.873ZM306.505 357.16H298.505V358.108L298.727 359.03L306.505 357.16ZM305.171 418.569L304.971 410.572L298.157 410.742L297.243 417.497L305.171 418.569ZM296.574 416.196L304.506 417.239L304.506 417.235L296.574 416.196ZM297.908 359.385L290.123 361.227L290.131 361.26L290.139 361.294L297.908 359.385ZM306.505 357.011H314.505V356.053L314.279 355.122L306.505 357.011ZM384.171 286.109L391.956 284.266L391.946 284.224L391.935 284.183L384.171 286.109ZM460.651 209.273L452.851 207.494L460.651 209.273ZM469.247 211.646L461.462 209.804L461.457 209.826L461.452 209.848L469.247 211.646ZM469.247 252.882L464.807 259.537L464.843 259.561L464.88 259.585L469.247 252.882ZM491.332 245.317L487.531 238.278L487.488 238.301L487.444 238.325L491.332 245.317ZM569.146 237.752L572.673 230.572L569.146 237.752ZM569.443 284.477L568.341 276.553L569.443 284.477ZM552.99 286.257L551.502 278.397L551.433 278.41L551.364 278.424L552.99 286.257ZM530.165 294.415L526.585 287.261V287.261L530.165 294.415ZM463.615 359.385L458.789 353.005L463.615 359.385ZM414.554 179.309L416.713 171.606L416.653 171.589L416.592 171.573L414.554 179.309ZM350.377 177.233L349.23 169.316L349.179 169.323L349.128 169.331L350.377 177.233ZM293.758 182.721L290.037 175.639L290.025 175.646L290.012 175.652L293.758 182.721ZM260.557 214.613L254.738 209.122L260.557 214.613ZM254.331 208.234L248.476 202.783L248.474 202.785L254.331 208.234ZM460.266 210.94L452.474 209.126L452.209 210.263L452.28 211.428L460.266 210.94ZM424.227 181.206L430.581 186.068L438.847 175.265L425.388 173.291L424.227 181.206ZM407.147 184.602L399.713 187.555L400.393 189.268L401.755 190.511L407.147 184.602ZM397.203 57.0825L405.182 56.5073L389.224 57.6575L397.203 57.0825ZM362.831 176.43L370.75 177.567L372.063 168.422L362.825 168.43L362.831 176.43ZM346.409 184.619L340.608 190.127L341.638 191.212L342.99 191.851L346.409 184.619ZM302.794 179.245L310.696 180.496L312.591 168.528L300.841 171.487L302.794 179.245ZM290.451 189.347L282.619 190.978L283.337 194.425L286.363 196.224L290.451 189.347ZM258.908 204.343L266.054 200.746L261.964 192.62L254.427 197.715L258.908 204.343ZM263.428 212.123L268.066 218.641L272.244 215.668L271.287 210.63L263.428 212.123ZM308.048 365.613L305.065 373.036L317.735 378.128L315.982 364.586L308.048 365.613ZM432.273 370.559L424.52 368.586L421.647 379.879L433.218 378.503L432.273 370.559ZM377.93 291.336L371.355 286.779L365.638 295.028L374.955 298.762L377.93 291.336ZM383.614 284.114L391.254 281.74L387.024 268.131L377.609 278.829L383.614 284.114ZM261.316 210.544C251.974 192.157 242.484 176.569 234.162 158.722L219.661 165.484C227.939 183.236 238.607 201.171 247.051 217.791L261.316 210.544ZM234.195 158.795C228.945 147.236 223.703 135.87 220.179 124.442L204.89 129.158C208.776 141.759 214.502 154.127 219.628 165.411L234.195 158.795ZM220.193 124.489C219.061 120.735 218.181 117.079 218.024 113.725C217.87 110.423 218.443 107.978 219.658 106.136L206.301 97.3273C202.624 102.902 201.789 109.06 202.042 114.473C202.293 119.833 203.636 125.004 204.875 129.11L220.193 124.489ZM219.657 106.136C222.43 101.932 227.28 100.33 232.301 101.048L234.565 85.209C225.061 83.8501 213.31 86.6984 206.301 97.3273L219.657 106.136ZM232.301 101.048C233.707 101.249 236.448 102.508 239.848 105.418C243.062 108.168 245.998 111.656 247.893 114.856L261.66 106.704C258.812 101.894 254.708 97.0753 250.251 93.2616C245.981 89.6077 240.422 86.0463 234.565 85.209L232.301 101.048ZM247.859 114.799C251.478 121.028 254.895 127.428 258.364 133.962C261.81 140.455 265.317 147.098 269.019 153.601L282.924 145.685C279.364 139.431 275.978 133.021 272.496 126.46C269.035 119.941 265.486 113.289 261.694 106.761L247.859 114.799ZM268.961 153.496C270.625 156.524 272.322 159.505 273.984 162.426C275.657 165.364 277.294 168.242 278.891 171.148L292.913 163.442C291.249 160.414 289.552 157.433 287.89 154.512C286.217 151.573 284.58 148.696 282.983 145.79L268.961 153.496ZM278.891 171.148C281.934 176.683 282.081 177.23 284.028 180.316L297.559 171.777C295.949 169.226 296.392 169.772 292.913 163.441L278.891 171.148ZM284.028 180.316C285.109 182.028 285.917 183.077 286.411 183.736C286.817 184.278 286.766 184.241 286.77 184.249L301.338 177.633C300.601 176.01 299.809 174.934 299.215 174.141C298.708 173.465 298.257 172.882 297.559 171.777L284.028 180.316ZM288.737 186.918L290.071 188.105L300.705 176.15L299.371 174.964L288.737 186.918ZM293.088 174.466C293.15 174.447 293.593 174.313 294.301 174.301C294.921 174.289 296.559 174.355 298.291 175.51C300.361 176.892 301.406 179.051 301.585 181.038C301.732 182.68 301.278 183.851 301.112 184.239L286.404 177.94C286.015 178.847 285.469 180.463 285.648 182.467C285.859 184.815 287.061 187.252 289.41 188.82C291.419 190.16 293.456 190.318 294.59 190.298C295.812 190.276 296.885 190.031 297.689 189.79L293.088 174.466ZM301.466 178.95C301.384 178.653 301.312 178.083 301.252 176.473C301.206 175.22 301.166 172.918 300.697 170.691L285.04 173.985C285.164 174.576 285.198 175.315 285.263 177.065C285.315 178.459 285.391 180.856 286.049 183.229L301.466 178.95ZM300.697 170.691C299.995 167.356 298.82 163.701 297.752 160.649L282.649 165.931C283.656 168.811 284.556 171.683 285.04 173.985L300.697 170.691ZM297.808 160.815C295.766 154.537 293.899 148.35 292.33 142.068L276.807 145.945C278.498 152.716 280.485 159.285 282.593 165.765L297.808 160.815ZM292.357 142.18C288.958 127.687 285.724 113.264 282.936 98.8752L267.228 101.918C270.073 116.602 273.36 131.253 276.78 145.833L292.357 142.18ZM282.934 98.8637C280.29 85.3249 277.11 72.9968 276.553 60.5814L260.569 61.2992C261.197 75.287 264.835 89.6587 267.23 101.93L282.934 98.8637ZM276.553 60.5814C276.277 54.4407 276.83 51.2918 277.646 49.2696C278.403 47.3948 279.689 45.7185 282.706 43.0937L272.202 31.024C268.4 34.3325 264.943 37.9961 262.81 43.2783C260.737 48.4132 260.252 54.2384 260.569 61.2992L276.553 60.5814ZM282.706 43.0937C287.73 38.7211 294.935 37.4287 299.762 39.8863L307.022 25.6281C294.952 19.4824 280.814 23.53 272.202 31.024L282.706 43.0937ZM299.812 39.9115C306.307 43.1614 310.917 51.0067 313.873 60.0211L329.076 55.0363C325.807 45.0642 319.449 31.8463 306.972 25.6029L299.812 39.9115ZM313.88 60.0446C322.852 87.1254 326.377 115.737 331.998 144.926L347.709 141.9C342.362 114.13 338.476 83.4083 329.069 55.0128L313.88 60.0446ZM331.993 144.899C332.521 147.691 333.085 150.513 333.639 153.287C334.196 156.076 334.744 158.816 335.253 161.512L350.975 158.54C350.447 155.748 349.883 152.926 349.329 150.152C348.772 147.363 348.224 144.623 347.714 141.927L331.993 144.899ZM335.253 161.512C335.727 164.019 336.3 167.384 337.234 170.478C338.184 173.625 339.729 177.319 342.672 180.393L354.228 169.326C353.762 168.84 353.158 167.862 352.551 165.854C351.929 163.794 351.539 161.522 350.975 158.54L335.253 161.512ZM342.744 180.466C344.153 181.901 346.345 183.798 349.282 184.517C350.932 184.92 352.862 184.958 354.822 184.27C356.751 183.594 358.152 182.411 359.104 181.264C360.819 179.195 361.46 176.786 361.757 175.336C362.096 173.677 362.233 171.937 362.282 170.363C362.471 164.328 361.394 156.596 361.302 155.671L345.381 157.262C345.585 159.303 346.435 165.218 346.29 169.863C346.256 170.958 346.168 171.703 346.081 172.13C345.951 172.766 345.963 172.044 346.787 171.051C347.292 170.441 348.182 169.643 349.527 169.172C350.902 168.69 352.173 168.752 353.084 168.975C354.543 169.332 354.933 170.043 354.156 169.253L342.744 180.466ZM361.297 155.623C358.518 129.423 358.234 103.494 357.185 76.6478L341.197 77.2726C342.223 103.53 342.532 130.407 345.386 157.31L361.297 155.623ZM357.185 76.6478C356.917 69.7827 356.341 63.5387 355.87 58.0512C355.389 52.4613 355.028 47.767 355.078 43.5132C355.175 35.3545 356.766 29.5616 361.78 24.0477L349.942 13.2836C341.468 22.6028 339.205 32.6815 339.08 43.324C339.019 48.4707 339.455 53.9093 339.928 59.4212C340.411 65.0354 340.947 70.862 341.197 77.2726L357.185 76.6478ZM361.78 24.0477C367.493 17.7644 372.259 16.0747 375.74 16.0025C379.344 15.9278 383.263 17.5516 387.231 21.1674L398.007 9.34053C392.045 3.90811 384.329 -0.178921 375.408 0.0059638C366.365 0.1934 357.717 4.73363 349.942 13.2836L361.78 24.0477ZM387.272 21.2043C392.485 25.8895 395.451 33.4873 396.981 43.2482C398.511 53.0122 398.391 63.1666 398.704 72.4821L414.695 71.945C414.415 63.609 414.518 51.8102 412.788 40.7706C411.057 29.7279 407.278 17.6717 397.966 9.30364L387.272 21.2043ZM398.704 72.4821C399.282 89.6749 399.601 120.575 400.634 144.5L416.619 143.81C415.577 119.675 415.304 90.0553 414.695 71.945L398.704 72.4821ZM400.634 144.5C401.144 156.313 401.304 161.181 401.543 164.079C401.807 167.275 402.268 168.932 402.977 172.867L418.723 170.029C417.802 164.916 417.669 164.941 417.489 162.76C417.284 160.281 417.147 156.026 416.619 143.81L400.634 144.5ZM402.977 172.867C403.805 177.466 403.769 178.01 403.951 179.144C403.974 179.291 404.049 179.759 404.216 180.314C404.356 180.781 404.81 182.21 406.089 183.566C407.669 185.242 409.533 185.824 410.759 186.01C411.445 186.113 412.382 186.112 411.835 186.1C411.21 186.086 410.204 185.981 409.096 185.508C408.173 185.114 407.577 184.634 407.311 184.397L417.946 172.442C417.346 171.909 416.496 171.27 415.376 170.793C414.797 170.545 414.192 170.361 413.571 170.246C412.948 170.13 412.447 170.11 412.199 170.104C412.173 170.103 412.151 170.103 412.136 170.103C412.129 170.103 412.123 170.103 412.119 170.103C412.117 170.103 412.115 170.103 412.114 170.102C412.113 170.102 412.112 170.102 412.112 170.102C412.101 170.102 412.148 170.103 412.205 170.104C412.295 170.107 412.67 170.117 413.148 170.189C413.656 170.266 414.43 170.433 415.302 170.838C416.217 171.263 417.041 171.859 417.73 172.59C418.387 173.286 418.802 173.979 419.06 174.499C419.313 175.008 419.459 175.444 419.54 175.713C419.688 176.206 419.745 176.588 419.75 176.619C419.763 176.7 419.767 176.738 419.756 176.655C419.746 176.574 419.737 176.5 419.717 176.335C419.68 176.035 419.627 175.622 419.55 175.07C419.394 173.97 419.146 172.376 418.723 170.029L402.977 172.867ZM407.22 184.315C408.722 185.692 410.959 186.975 413.819 187.008C416.546 187.039 418.606 185.911 419.819 185.022C421.89 183.506 423.371 181.221 423.802 180.597L410.644 171.495C410.295 172 410.107 172.262 409.96 172.445C409.79 172.656 409.931 172.432 410.366 172.113C410.82 171.781 412.092 170.987 414 171.009C416.039 171.032 417.424 171.963 418.037 172.524L407.22 184.315ZM423.735 180.694C426.292 177.111 427.893 173.049 429.034 169.459C430.143 165.972 431.055 162.089 431.768 159.428L416.314 155.285C415.397 158.705 414.753 161.572 413.786 164.611C412.853 167.547 411.86 169.79 410.712 171.399L423.735 180.694ZM431.754 159.482C434.207 150.581 436.035 141.726 437.81 132.991L422.13 129.805C420.348 138.574 418.618 146.926 416.329 155.23L431.754 159.482ZM437.822 132.928C441.322 114.958 444.017 97.924 447.727 80.3971L432.074 77.0833C428.374 94.5628 425.436 112.832 422.117 129.869L437.822 132.928ZM447.718 80.4384C449.157 73.8174 451.135 66.9152 454.291 61.4613C457.375 56.1327 461.101 52.9543 465.976 52.0424L463.034 36.3152C452.049 38.3699 444.956 45.6489 440.443 53.4478C436.003 61.1213 433.609 70.0164 432.083 77.042L447.718 80.4384ZM465.976 52.0424C467.316 51.7916 469.157 52.0583 471.661 53.7171C474.207 55.4042 476.924 58.2259 479.452 61.9491C484.63 69.5732 487.686 78.9431 487.631 84.8961L503.63 85.0442C503.723 74.9774 499.146 62.4682 492.689 52.96C489.4 48.117 485.298 43.5591 480.498 40.3791C475.656 37.1708 469.623 35.0826 463.034 36.3152L465.976 52.0424ZM487.63 84.9702C487.63 97.4394 483.891 109.534 480.199 123.235L495.648 127.398C499.07 114.696 503.63 100.091 503.63 84.9702H487.63ZM480.199 123.235C478.332 130.163 476.912 137.406 475.579 144.469C474.227 151.625 472.969 158.565 471.389 165.324L486.968 168.968C488.648 161.784 489.984 154.41 491.301 147.438C492.635 140.372 493.957 133.671 495.648 127.398L480.199 123.235ZM471.389 165.324C468.214 178.899 463.947 194.817 461.089 210.02L476.814 212.975C479.588 198.215 483.621 183.279 486.968 168.968L471.389 165.324ZM254.29 212.996C255.029 214.477 254.456 214.203 254.773 212.872C254.952 212.121 255.373 211.277 256.097 210.559C256.795 209.866 257.555 209.508 258.143 209.342C259.208 209.042 259.845 209.295 260.006 209.368C260.251 209.478 260.6 209.72 260.854 210.214L246.624 217.527C249.612 223.342 256.48 226.437 262.489 224.741C266.064 223.732 269.298 220.946 270.338 216.58C271.252 212.741 270.16 208.963 268.603 205.845L254.29 212.996ZM249.298 220.525L249.743 220.822L258.624 207.513L258.18 207.217L249.298 220.525ZM273.326 315.742C265.17 291.537 264.417 263.761 263.213 236.656L247.229 237.366C248.397 263.66 249.126 294.03 258.163 320.851L273.326 315.742ZM263.213 236.656C262.615 223.184 262.48 219.427 262.48 218.006C262.48 217.544 262.484 217.692 262.534 216.99C262.59 216.201 262.628 215.184 262.628 213.129H246.628C246.628 215.005 246.592 215.601 246.574 215.856C246.55 216.196 246.48 216.817 246.48 218.006C246.48 219.885 246.642 224.138 247.229 237.366L263.213 236.656ZM434.992 364.677C428.949 382.493 430.575 399.802 430.715 415.526L446.714 415.383C446.558 397.881 445.219 384.337 450.144 369.816L434.992 364.677ZM430.715 415.454C430.715 414.66 431.106 413.512 432.083 412.665C432.898 411.958 433.727 411.793 434.268 411.793C434.809 411.793 435.638 411.958 436.453 412.665C437.43 413.512 437.821 414.66 437.821 415.454H421.821C421.821 419.141 423.325 422.459 425.969 424.752C428.452 426.905 431.504 427.793 434.268 427.793C437.032 427.793 440.084 426.905 442.567 424.752C445.211 422.459 446.715 419.141 446.715 415.454H430.715ZM433.972 364.873C436.272 372.535 436.27 372.536 436.269 372.536C436.268 372.536 436.267 372.537 436.266 372.537C436.264 372.538 436.262 372.538 436.261 372.539C436.258 372.54 436.255 372.54 436.253 372.541C436.249 372.542 436.247 372.543 436.247 372.543C436.248 372.542 436.257 372.54 436.275 372.535C436.31 372.525 436.376 372.506 436.468 372.482C436.655 372.432 436.936 372.361 437.271 372.288C437.61 372.214 437.977 372.144 438.341 372.089C438.713 372.034 439.02 372.005 439.249 371.996C439.36 371.991 439.426 371.993 439.453 371.994C439.481 371.995 439.438 371.995 439.335 371.978C439.236 371.962 439.025 371.921 438.739 371.822C438.454 371.723 438.03 371.544 437.55 371.225C437.059 370.899 436.507 370.424 436.014 369.761C435.513 369.086 435.161 368.334 434.963 367.566C434.769 366.816 434.752 366.167 434.789 365.694C434.825 365.231 434.914 364.916 434.958 364.78L450.178 369.713C450.694 368.122 451.069 365.949 450.456 363.571C449.792 360.998 448.206 359.095 446.401 357.896C443.421 355.917 440.036 355.953 438.624 356.008C436.771 356.08 435.015 356.404 433.859 356.656C433.249 356.789 432.733 356.919 432.36 357.018C432.172 357.068 432.017 357.111 431.901 357.144C431.842 357.161 431.794 357.175 431.755 357.186C431.736 357.192 431.719 357.197 431.705 357.201C431.698 357.203 431.692 357.205 431.686 357.207C431.683 357.207 431.681 357.208 431.678 357.209C431.677 357.209 431.675 357.21 431.675 357.21C431.673 357.211 431.671 357.211 433.972 364.873ZM297.243 417.497C296.944 419.712 296.621 421.153 296.355 422.024C296.044 423.039 295.969 422.748 296.549 422.079C296.892 421.682 297.599 421.002 298.753 420.518C299.992 419.999 301.356 419.873 302.636 420.126C303.822 420.361 304.641 420.858 305.077 421.18C305.514 421.503 305.747 421.78 305.809 421.858C305.917 421.99 305.798 421.871 305.562 421.346C305.348 420.87 305.127 420.258 304.938 419.58C304.75 418.902 304.625 418.264 304.562 417.751C304.491 417.177 304.533 417.034 304.506 417.239L288.642 415.153C288.253 418.117 288.842 421.411 289.521 423.858C290.202 426.312 291.414 429.507 293.379 431.931C294.284 433.048 296.285 435.18 299.53 435.822C303.609 436.629 306.833 434.645 308.647 432.549C310.215 430.737 311.093 428.54 311.656 426.702C312.262 424.719 312.731 422.359 313.099 419.641L297.243 417.497ZM304.506 417.235C306.792 399.794 310.568 377.381 305.677 357.476L290.139 361.294C294.141 377.581 291.099 396.405 288.642 415.156L304.506 417.235ZM305.693 357.542C305.873 358.304 305.753 359.452 305.06 360.444C304.484 361.27 303.776 361.62 303.273 361.755C302.78 361.887 301.918 361.96 300.9 361.462C299.67 360.861 298.942 359.77 298.731 358.901L314.279 355.122C313.4 351.509 311.098 348.637 307.923 347.086C304.96 345.639 301.782 345.591 299.139 346.298C296.487 347.007 293.797 348.627 291.942 351.284C289.971 354.107 289.276 357.647 290.123 361.227L305.693 357.542ZM298.505 357.011V357.16H314.505V357.011H298.505ZM468.451 211.052C468.753 209.724 469.036 208.991 469.191 208.666C469.368 208.294 469.245 208.729 468.538 209.304C467.682 209.999 466.238 210.654 464.469 210.516C462.886 210.393 461.889 209.7 461.516 209.391C461.133 209.075 461.031 208.863 461.088 208.958C461.127 209.024 461.212 209.188 461.29 209.431C461.494 210.065 461.362 210.229 461.462 209.804L477.032 213.488C477.8 210.244 477.315 206.997 476.519 204.525C475.744 202.119 474.26 199.169 471.717 197.065C470.381 195.959 468.351 194.77 465.712 194.564C462.887 194.344 460.364 195.331 458.452 196.883C455.188 199.534 453.701 203.766 452.851 207.494L468.451 211.052ZM461.452 209.848C459.259 219.356 456.753 230.326 457.253 241.665L473.238 240.96C472.848 232.125 474.789 223.219 477.043 213.443L461.452 209.848ZM457.253 241.665C457.362 244.122 457.452 246.151 457.588 247.728C457.715 249.203 457.93 251.041 458.588 252.797C459.414 255.002 460.718 256.558 462.17 257.726C463.037 258.423 464.513 259.341 464.807 259.537L473.687 246.227C473.21 245.909 472.647 245.55 472.441 245.416C472.131 245.214 472.121 245.196 472.198 245.258C472.317 245.354 472.612 245.609 472.926 246.026C473.251 246.457 473.454 246.873 473.571 247.183C473.728 247.604 473.638 247.624 473.529 246.356C473.428 245.188 473.352 243.546 473.238 240.96L457.253 241.665ZM464.88 259.585C468.547 261.975 472.506 262.262 475.783 261.787C478.95 261.328 481.89 260.115 484.272 258.918C486.701 257.696 488.995 256.26 490.855 255.063C492.905 253.744 494.183 252.885 495.219 252.309L487.444 238.325C485.812 239.233 483.793 240.581 482.198 241.607C480.413 242.756 478.714 243.804 477.086 244.622C475.409 245.465 474.227 245.845 473.49 245.952C472.863 246.043 473.134 245.867 473.615 246.18L464.88 259.585ZM495.132 252.357C516.746 240.688 544.888 234.75 565.619 244.933L572.673 230.572C545.085 217.021 510.976 225.62 487.531 238.278L495.132 252.357ZM565.619 244.933C577.775 250.904 579.751 253.909 580.178 254.95C580.362 255.401 580.513 256.072 580.433 257.988C580.369 259.528 580.039 263.005 580.121 266.284L596.116 265.884C596.049 263.229 596.293 261.682 596.419 258.652C596.53 255.997 596.485 252.552 594.984 248.886C592.039 241.695 584.677 236.468 572.673 230.572L565.619 244.933ZM580.121 266.284C580.215 270.072 579.043 271.922 577.647 273.135C575.915 274.64 572.904 275.919 568.341 276.553L570.544 292.401C576.654 291.552 583.129 289.568 588.14 285.213C593.488 280.567 596.318 273.963 596.116 265.884L580.121 266.284ZM568.341 276.553C563.248 277.261 560.713 277.429 558.776 277.549C556.621 277.683 554.761 277.78 551.502 278.397L554.479 294.117C556.704 293.696 557.735 293.645 559.766 293.519C562.017 293.379 564.966 293.176 570.544 292.401L568.341 276.553ZM551.364 278.424C542.696 280.225 534.182 283.46 526.585 287.261L533.745 301.57C540.377 298.251 547.574 295.553 554.617 294.09L551.364 278.424ZM526.585 287.261C511.934 294.592 498.521 305.356 487.819 317.64L499.884 328.15C509.34 317.295 521.124 307.885 533.745 301.57L526.585 287.261ZM487.819 317.64C482.474 323.777 477.633 331.15 473.264 337.158C468.665 343.482 464.188 348.921 458.789 353.005L468.441 365.765C475.789 360.207 481.391 353.186 486.204 346.568C491.247 339.634 495.151 333.583 499.884 328.15L487.819 317.64ZM254.738 209.122C254.581 209.289 255.323 208.457 256.977 208.474C258.592 208.491 259.698 209.312 260.217 209.939C261.066 210.965 261.217 212.577 260.189 213.683L248.474 202.785C243.443 208.193 244.188 215.664 247.89 220.139C249.835 222.491 252.934 224.434 256.813 224.473C260.732 224.513 264.013 222.606 266.375 220.103L254.738 209.122ZM305.371 426.567L430.021 423.452L429.622 407.457L304.971 410.572L305.371 426.567ZM405.193 56.657L405.182 56.5075L389.224 57.6575L389.234 57.807L405.193 56.657ZM376.386 287.951C376.271 287.465 376.253 286.684 376.594 285.835C376.916 285.035 377.424 284.501 377.86 284.19C378.529 283.712 379.579 283.378 380.906 283.91L374.955 298.762C379.203 300.464 383.858 299.568 387.16 297.209C390.872 294.558 393.258 289.767 391.956 284.266L376.386 287.951ZM352.21 179.11C353.123 180.071 353.515 181.258 353.556 182.246C353.593 183.142 353.35 183.746 353.196 184.037C352.926 184.544 352.438 185.006 351.625 185.135L349.128 169.331C344.476 170.066 340.906 173.065 339.064 176.535C337.286 179.884 336.342 185.635 340.608 190.127L352.21 179.11ZM440.026 372.531C440.455 370.846 440.954 369.164 441.535 367.481L426.409 362.265C425.678 364.382 425.054 366.489 424.52 368.586L440.026 372.531ZM311.032 358.19C293.487 351.139 279.831 334.957 273.322 315.731L258.167 320.862C265.871 343.62 282.383 363.921 305.065 373.036L311.032 358.19ZM258.79 205.605C257.374 206.612 256.009 207.775 254.738 209.122L266.375 220.103C266.874 219.575 267.435 219.09 268.066 218.641L258.79 205.605ZM262.628 213.129C262.628 212.655 262.742 213.481 261.805 214.518C260.81 215.618 259.482 216.004 258.489 215.981C256.985 215.947 255.833 215.007 255.568 213.616L271.287 210.63C270.075 204.246 264.523 200.115 258.856 199.986C255.782 199.915 252.431 201.027 249.935 203.789C247.496 206.487 246.628 209.91 246.628 213.129H262.628ZM384.506 295.893C386.085 293.614 387.838 291.424 389.619 289.4L377.609 278.829C375.496 281.229 373.346 283.906 371.355 286.779L384.506 295.893ZM260.186 213.686C261.127 212.676 262.193 211.778 263.388 210.971L254.427 197.715C252.328 199.134 250.318 200.805 248.476 202.783L260.186 213.686ZM251.762 207.939C252.469 209.345 253.243 210.902 254.29 212.996L268.603 205.845C267.576 203.79 266.775 202.179 266.054 200.746L251.762 207.939ZM298.283 187.716C298.391 188.235 298.359 188.6 298.333 188.768C298.306 188.948 298.263 189.055 298.234 189.116C298.202 189.185 298.04 189.506 297.503 189.79L290.012 175.652C287.002 177.247 284.956 179.772 283.772 182.272C282.62 184.707 281.96 187.817 282.619 190.978L298.283 187.716ZM461.089 210.02C460.831 211.392 460.573 212.257 460.386 212.748C460.182 213.285 460.162 213.115 460.541 212.679C460.967 212.19 462.062 211.206 463.897 210.908C465.741 210.608 467.18 211.186 467.927 211.637C468.29 211.856 468.53 212.065 468.661 212.19C468.795 212.318 468.863 212.406 468.876 212.424C468.895 212.448 468.813 212.341 468.691 212.075C468.425 211.493 468.274 210.84 468.251 210.452L452.28 211.428C452.436 213.978 453.144 216.55 454.143 218.734C455.029 220.669 456.714 223.557 459.655 225.333C461.307 226.331 463.685 227.153 466.468 226.7C469.241 226.248 471.275 224.716 472.607 223.186C474.98 220.461 476.124 216.644 476.814 212.975L461.089 210.02ZM297.479 189.803C299.95 188.505 302.359 187.604 304.748 187.003L300.841 171.487C297.224 172.398 293.628 173.752 290.037 175.639L297.479 189.803ZM298.727 359.03C299.321 361.504 299.778 364.043 300.115 366.64L315.982 364.586C315.58 361.476 315.024 358.371 314.283 355.29L298.727 359.03ZM351.523 185.15C355.18 184.621 358.928 184.433 362.838 184.43L362.825 168.43C358.432 168.433 353.876 168.643 349.23 169.316L351.523 185.15ZM468.057 212.755C468.194 212.167 468.326 211.596 468.451 211.052L452.851 207.494C452.735 208.002 452.609 208.545 452.474 209.126L468.057 212.755ZM294.893 177.994C294.766 178.792 294.589 179.753 294.337 181.133L310.076 184.013C310.311 182.725 310.532 181.532 310.696 180.496L294.893 177.994ZM412.396 187.013C416.059 188.039 419.744 188.634 423.066 189.121L425.388 173.291C422.154 172.817 419.327 172.339 416.713 171.606L412.396 187.013ZM352.801 177.749C351.391 177.924 350.49 177.699 349.827 177.386L342.99 191.851C346.57 193.543 350.549 194.151 354.772 193.627L352.801 177.749ZM354.913 175.293C354.547 177.837 354.09 177.914 354.464 177.534C354.908 177.083 355.018 177.477 352.813 177.747L354.759 193.628C358.406 193.181 362.589 192.088 365.866 188.758C369.075 185.499 370.214 181.305 370.75 177.567L354.913 175.293ZM414.582 181.648C415.196 183.192 414.961 184.692 414.52 185.663C414.138 186.502 413.668 186.859 413.559 186.937C413.438 187.023 413.175 187.219 412.517 187.046L416.592 171.573C411.96 170.353 407.392 171.68 404.26 173.917C401.446 175.926 397.113 181.013 399.713 187.555L414.582 181.648ZM417.874 176.345C416.608 177.999 415.147 178.773 414.133 178.988C413.242 179.177 412.835 178.961 412.54 178.692L401.755 190.511C411.402 199.315 424.359 194.198 430.581 186.068L417.874 176.345ZM294.347 181.077C294.215 181.773 294 182.279 293.815 182.591C293.626 182.908 293.53 182.925 293.666 182.836C293.739 182.788 293.862 182.722 294.034 182.669C294.21 182.615 294.391 182.588 294.559 182.588C294.924 182.589 294.936 182.707 294.539 182.471L286.363 196.224C291.618 199.348 297.571 199.408 302.438 196.217C306.804 193.355 309.201 188.609 310.065 184.069L294.347 181.077ZM458.789 353.005C451.168 358.769 441.83 361.366 431.328 362.615L433.218 378.503C445.005 377.101 457.579 373.981 468.441 365.765L458.789 353.005ZM375.974 286.489C376.132 286.996 376.276 287.511 376.406 288.035L391.935 284.183C391.73 283.357 391.503 282.543 391.254 281.74L375.974 286.489ZM405.193 56.6566C405.189 56.6057 405.186 56.5598 405.182 56.5073L389.224 57.6578C389.227 57.7052 389.231 57.759 389.235 57.8074L405.193 56.6566Z" fill="white" mask="url(#path-1-outside-1_4461_36150)"/>
</svg>
