<svg width="100" height="100" viewBox="0 0 100 100" fill="none" xmlns="http://www.w3.org/2000/svg">
<rect x="2" y="2" width="96" height="96" rx="48" fill="#FF6104"/>
<rect x="2" y="2" width="96" height="96" rx="48" stroke="white" stroke-width="4"/>
<path d="M37.3391 49.17C37.3391 43.98 38.2691 39.915 40.1291 36.975C42.0191 34.035 45.1391 32.565 49.4891 32.565C53.8391 32.565 56.9441 34.035 58.8041 36.975C60.6941 39.915 61.6391 43.98 61.6391 49.17C61.6391 54.39 60.6941 58.485 58.8041 61.455C56.9441 64.425 53.8391 65.91 49.4891 65.91C45.1391 65.91 42.0191 64.425 40.1291 61.455C38.2691 58.485 37.3391 54.39 37.3391 49.17ZM55.4291 49.17C55.4291 46.95 55.2791 45.09 54.9791 43.59C54.7091 42.06 54.1391 40.815 53.2691 39.855C52.4291 38.895 51.1691 38.415 49.4891 38.415C47.8091 38.415 46.5341 38.895 45.6641 39.855C44.8241 40.815 44.2541 42.06 43.9541 43.59C43.6841 45.09 43.5491 46.95 43.5491 49.17C43.5491 51.45 43.6841 53.37 43.9541 54.93C44.2241 56.46 44.7941 57.705 45.6641 58.665C46.5341 59.595 47.8091 60.06 49.4891 60.06C51.1691 60.06 52.4441 59.595 53.3141 58.665C54.1841 57.705 54.7541 56.46 55.0241 54.93C55.2941 53.37 55.4291 51.45 55.4291 49.17Z" fill="white"/>
</svg>
