<svg width="100" height="100" viewBox="0 0 100 100" fill="none" xmlns="http://www.w3.org/2000/svg">
<g clip-path="url(#clip0_5382_50603)">
<rect x="2" y="2" width="96" height="96" rx="48" fill="#E31C3D" stroke="white" stroke-width="4"/>
<path d="M27.9222 38V32.195H38.7672V65H32.2872V38H27.9222ZM44.991 48.17C44.991 42.98 45.921 38.915 47.781 35.975C49.671 33.035 52.791 31.565 57.141 31.565C61.491 31.565 64.596 33.035 66.456 35.975C68.346 38.915 69.291 42.98 69.291 48.17C69.291 53.39 68.346 57.485 66.456 60.455C64.596 63.425 61.491 64.91 57.141 64.91C52.791 64.91 49.671 63.425 47.781 60.455C45.921 57.485 44.991 53.39 44.991 48.17ZM63.081 48.17C63.081 45.95 62.931 44.09 62.631 42.59C62.361 41.06 61.791 39.815 60.921 38.855C60.081 37.895 58.821 37.415 57.141 37.415C55.461 37.415 54.186 37.895 53.316 38.855C52.476 39.815 51.906 41.06 51.606 42.59C51.336 44.09 51.201 45.95 51.201 48.17C51.201 50.45 51.336 52.37 51.606 53.93C51.876 55.46 52.446 56.705 53.316 57.665C54.186 58.595 55.461 59.06 57.141 59.06C58.821 59.06 60.096 58.595 60.966 57.665C61.836 56.705 62.406 55.46 62.676 53.93C62.946 52.37 63.081 50.45 63.081 48.17Z" fill="white"/>
</g>
<defs>
<clipPath id="clip0_5382_50603">
<rect width="100" height="100" fill="white"/>
</clipPath>
</defs>
</svg>
