<svg width="100" height="100" viewBox="0 0 100 100" fill="none" xmlns="http://www.w3.org/2000/svg">
<g clip-path="url(#clip0_5382_50693)">
<rect x="2" y="2" width="96" height="96" rx="48" fill="#72A315" stroke="white" stroke-width="4"/>
<path d="M13.8763 38V32.195H24.7213V65H18.2413V38H13.8763ZM30.9451 48.17C30.9451 42.98 31.8751 38.915 33.7351 35.975C35.6251 33.035 38.7451 31.565 43.0951 31.565C47.4451 31.565 50.5501 33.035 52.4101 35.975C54.3001 38.915 55.2451 42.98 55.2451 48.17C55.2451 53.39 54.3001 57.485 52.4101 60.455C50.5501 63.425 47.4451 64.91 43.0951 64.91C38.7451 64.91 35.6251 63.425 33.7351 60.455C31.8751 57.485 30.9451 53.39 30.9451 48.17ZM49.0351 48.17C49.0351 45.95 48.8851 44.09 48.5851 42.59C48.3151 41.06 47.7451 39.815 46.8751 38.855C46.0351 37.895 44.7751 37.415 43.0951 37.415C41.4151 37.415 40.1401 37.895 39.2701 38.855C38.4301 39.815 37.8601 41.06 37.5601 42.59C37.2901 44.09 37.1551 45.95 37.1551 48.17C37.1551 50.45 37.2901 52.37 37.5601 53.93C37.8301 55.46 38.4001 56.705 39.2701 57.665C40.1401 58.595 41.4151 59.06 43.0951 59.06C44.7751 59.06 46.0501 58.595 46.9201 57.665C47.7901 56.705 48.3601 55.46 48.6301 53.93C48.9001 52.37 49.0351 50.45 49.0351 48.17ZM60.0369 48.17C60.0369 42.98 60.9669 38.915 62.8269 35.975C64.7169 33.035 67.8369 31.565 72.1869 31.565C76.5369 31.565 79.6419 33.035 81.5019 35.975C83.3919 38.915 84.3369 42.98 84.3369 48.17C84.3369 53.39 83.3919 57.485 81.5019 60.455C79.6419 63.425 76.5369 64.91 72.1869 64.91C67.8369 64.91 64.7169 63.425 62.8269 60.455C60.9669 57.485 60.0369 53.39 60.0369 48.17ZM78.1269 48.17C78.1269 45.95 77.9769 44.09 77.6769 42.59C77.4069 41.06 76.8369 39.815 75.9669 38.855C75.1269 37.895 73.8669 37.415 72.1869 37.415C70.5069 37.415 69.2319 37.895 68.3619 38.855C67.5219 39.815 66.9519 41.06 66.6519 42.59C66.3819 44.09 66.2469 45.95 66.2469 48.17C66.2469 50.45 66.3819 52.37 66.6519 53.93C66.9219 55.46 67.4919 56.705 68.3619 57.665C69.2319 58.595 70.5069 59.06 72.1869 59.06C73.8669 59.06 75.1419 58.595 76.0119 57.665C76.8819 56.705 77.4519 55.46 77.7219 53.93C77.9919 52.37 78.1269 50.45 78.1269 48.17Z" fill="white"/>
</g>
<defs>
<clipPath id="clip0_5382_50693">
<rect width="100" height="100" fill="white"/>
</clipPath>
</defs>
</svg>
