<svg width="100" height="100" viewBox="0 0 100 100" fill="none" xmlns="http://www.w3.org/2000/svg">
<g clip-path="url(#clip0_5382_50605)">
<rect x="2" y="2" width="96" height="96" rx="48" fill="#E31C3D" stroke="white" stroke-width="4"/>
<path d="M30.0482 38V32.195H40.8932V65H34.4132V38H30.0482ZM49.0969 57.89C51.9769 55.49 54.2719 53.495 55.9819 51.905C57.6919 50.285 59.1169 48.605 60.2569 46.865C61.3969 45.125 61.9669 43.415 61.9669 41.735C61.9669 40.205 61.6069 39.005 60.8869 38.135C60.1669 37.265 59.0569 36.83 57.5569 36.83C56.0569 36.83 54.9019 37.34 54.0919 38.36C53.2819 39.35 52.8619 40.715 52.8319 42.455H46.7119C46.8319 38.855 47.8969 36.125 49.9069 34.265C51.9469 32.405 54.5269 31.475 57.6469 31.475C61.0669 31.475 63.6919 32.39 65.5219 34.22C67.3519 36.02 68.2669 38.405 68.2669 41.375C68.2669 43.715 67.6369 45.95 66.3769 48.08C65.1169 50.21 63.6769 52.07 62.0569 53.66C60.4369 55.22 58.3219 57.11 55.7119 59.33H68.9869V64.55H46.7569V59.87L49.0969 57.89Z" fill="white"/>
</g>
<defs>
<clipPath id="clip0_5382_50605">
<rect width="100" height="100" fill="white"/>
</clipPath>
</defs>
</svg>
