<svg width="100" height="100" viewBox="0 0 100 100" fill="none" xmlns="http://www.w3.org/2000/svg">
<g clip-path="url(#clip0_5382_50606)">
<rect x="2" y="2" width="96" height="96" rx="48" fill="#E31C3D" stroke="white" stroke-width="4"/>
<path d="M28.9989 38V32.195H39.8439V65H33.3639V38H28.9989ZM46.1576 40.835C46.3076 37.835 47.3576 35.525 49.3076 33.905C51.2876 32.255 53.8826 31.43 57.0926 31.43C59.2826 31.43 61.1576 31.82 62.7176 32.6C64.2776 33.35 65.4476 34.385 66.2276 35.705C67.0376 36.995 67.4426 38.465 67.4426 40.115C67.4426 42.005 66.9476 43.61 65.9576 44.93C64.9976 46.22 63.8426 47.09 62.4926 47.54V47.72C64.2326 48.26 65.5826 49.22 66.5426 50.6C67.5326 51.98 68.0276 53.75 68.0276 55.91C68.0276 57.71 67.6076 59.315 66.7676 60.725C65.9576 62.135 64.7426 63.245 63.1226 64.055C61.5326 64.835 59.6126 65.225 57.3626 65.225C53.9726 65.225 51.2126 64.37 49.0826 62.66C46.9526 60.95 45.8276 58.43 45.7076 55.1H51.8276C51.8876 56.57 52.3826 57.755 53.3126 58.655C54.2726 59.525 55.5776 59.96 57.2276 59.96C58.7576 59.96 59.9276 59.54 60.7376 58.7C61.5776 57.83 61.9976 56.72 61.9976 55.37C61.9976 53.57 61.4276 52.28 60.2876 51.5C59.1476 50.72 57.3776 50.33 54.9776 50.33H53.6726V45.155H54.9776C59.2376 45.155 61.3676 43.73 61.3676 40.88C61.3676 39.59 60.9776 38.585 60.1976 37.865C59.4476 37.145 58.3526 36.785 56.9126 36.785C55.5026 36.785 54.4076 37.175 53.6276 37.955C52.8776 38.705 52.4426 39.665 52.3226 40.835H46.1576Z" fill="white"/>
</g>
<defs>
<clipPath id="clip0_5382_50606">
<rect width="100" height="100" fill="white"/>
</clipPath>
</defs>
</svg>
