<svg width="100" height="100" viewBox="0 0 100 100" fill="none" xmlns="http://www.w3.org/2000/svg">
<g clip-path="url(#clip0_5382_50608)">
<rect x="2" y="2" width="96" height="96" rx="48" fill="#E31C3D" stroke="white" stroke-width="4"/>
<path d="M27.9882 38V32.195H38.8332V65H32.3532V38H27.9882ZM67.1069 37.64H52.5269V45.335C53.1569 44.555 54.0569 43.925 55.2269 43.445C56.3969 42.935 57.6419 42.68 58.9619 42.68C61.3619 42.68 63.3269 43.205 64.8569 44.255C66.3869 45.305 67.4969 46.655 68.1869 48.305C68.8769 49.925 69.2219 51.665 69.2219 53.525C69.2219 56.975 68.2319 59.75 66.2519 61.85C64.3019 63.95 61.5119 65 57.8819 65C54.4619 65 51.7319 64.145 49.6919 62.435C47.6519 60.725 46.4969 58.49 46.2269 55.73H52.3469C52.6169 56.93 53.2169 57.89 54.1469 58.61C55.1069 59.33 56.3219 59.69 57.7919 59.69C59.5619 59.69 60.8969 59.135 61.7969 58.025C62.6969 56.915 63.1469 55.445 63.1469 53.615C63.1469 51.755 62.6819 50.345 61.7519 49.385C60.8519 48.395 59.5169 47.9 57.7469 47.9C56.4869 47.9 55.4369 48.215 54.5969 48.845C53.7569 49.475 53.1569 50.315 52.7969 51.365H46.7669V32.105H67.1069V37.64Z" fill="white"/>
</g>
<defs>
<clipPath id="clip0_5382_50608">
<rect width="100" height="100" fill="white"/>
</clipPath>
</defs>
</svg>
