<svg width="100" height="100" viewBox="0 0 100 100" fill="none" xmlns="http://www.w3.org/2000/svg">
<g clip-path="url(#clip0_5382_50609)">
<rect x="2" y="2" width="96" height="96" rx="48" fill="#E31C3D" stroke="white" stroke-width="4"/>
<path d="M28.0761 38V32.195H38.9211V65H32.4411V38H28.0761ZM62.1548 40.385C61.8548 39.125 61.3298 38.18 60.5798 37.55C59.8598 36.92 58.8098 36.605 57.4298 36.605C55.3598 36.605 53.8298 37.445 52.8398 39.125C51.8798 40.775 51.3848 43.475 51.3548 47.225C52.0748 46.025 53.1248 45.095 54.5048 44.435C55.8848 43.745 57.3848 43.4 59.0048 43.4C60.9548 43.4 62.6798 43.82 64.1798 44.66C65.6798 45.5 66.8498 46.73 67.6898 48.35C68.5298 49.94 68.9498 51.86 68.9498 54.11C68.9498 56.24 68.5148 58.145 67.6448 59.825C66.8048 61.475 65.5598 62.765 63.9098 63.695C62.2598 64.625 60.2948 65.09 58.0148 65.09C54.8948 65.09 52.4348 64.4 50.6348 63.02C48.8648 61.64 47.6198 59.72 46.8998 57.26C46.2098 54.77 45.8648 51.71 45.8648 48.08C45.8648 42.59 46.8098 38.45 48.6998 35.66C50.5898 32.84 53.5748 31.43 57.6548 31.43C60.8048 31.43 63.2498 32.285 64.9898 33.995C66.7298 35.705 67.7348 37.835 68.0048 40.385H62.1548ZM57.5648 48.575C55.9748 48.575 54.6398 49.04 53.5598 49.97C52.4798 50.9 51.9398 52.25 51.9398 54.02C51.9398 55.79 52.4348 57.185 53.4248 58.205C54.4448 59.225 55.8698 59.735 57.6998 59.735C59.3198 59.735 60.5948 59.24 61.5248 58.25C62.4848 57.26 62.9648 55.925 62.9648 54.245C62.9648 52.505 62.4998 51.125 61.5698 50.105C60.6698 49.085 59.3348 48.575 57.5648 48.575Z" fill="white"/>
</g>
<defs>
<clipPath id="clip0_5382_50609">
<rect width="100" height="100" fill="white"/>
</clipPath>
</defs>
</svg>
