<svg width="100" height="100" viewBox="0 0 100 100" fill="none" xmlns="http://www.w3.org/2000/svg">
<g clip-path="url(#clip0_5382_50611)">
<rect x="2" y="2" width="96" height="96" rx="48" fill="#E31C3D" stroke="white" stroke-width="4"/>
<path d="M28.0101 38V32.195H38.8551V65H32.3751V38H28.0101ZM50.5688 47.63C47.5688 46.07 46.0688 43.655 46.0688 40.385C46.0688 38.765 46.4738 37.295 47.2838 35.975C48.1238 34.625 49.3688 33.56 51.0188 32.78C52.6988 31.97 54.7388 31.565 57.1388 31.565C59.5388 31.565 61.5638 31.97 63.2138 32.78C64.8938 33.56 66.1388 34.625 66.9488 35.975C67.7888 37.295 68.2088 38.765 68.2088 40.385C68.2088 42.035 67.8038 43.49 66.9938 44.75C66.1838 45.98 65.1038 46.94 63.7538 47.63C65.4038 48.35 66.6938 49.4 67.6238 50.78C68.5538 52.16 69.0188 53.795 69.0188 55.685C69.0188 57.725 68.4938 59.51 67.4438 61.04C66.4238 62.54 65.0138 63.695 63.2138 64.505C61.4138 65.315 59.3888 65.72 57.1388 65.72C54.8888 65.72 52.8638 65.315 51.0638 64.505C49.2938 63.695 47.8838 62.54 46.8338 61.04C45.8138 59.51 45.3038 57.725 45.3038 55.685C45.3038 53.795 45.7688 52.16 46.6988 50.78C47.6288 49.37 48.9188 48.32 50.5688 47.63ZM62.0888 41.285C62.0888 39.815 61.6388 38.675 60.7388 37.865C59.8688 37.055 58.6688 36.65 57.1388 36.65C55.6388 36.65 54.4388 37.055 53.5388 37.865C52.6688 38.675 52.2338 39.83 52.2338 41.33C52.2338 42.68 52.6838 43.76 53.5838 44.57C54.5138 45.38 55.6988 45.785 57.1388 45.785C58.5788 45.785 59.7638 45.38 60.6938 44.57C61.6238 43.73 62.0888 42.635 62.0888 41.285ZM57.1388 50.375C55.4288 50.375 54.0338 50.81 52.9538 51.68C51.9038 52.55 51.3788 53.795 51.3788 55.415C51.3788 56.915 51.8888 58.145 52.9088 59.105C53.9588 60.035 55.3688 60.5 57.1388 60.5C58.9088 60.5 60.3038 60.02 61.3238 59.06C62.3438 58.1 62.8538 56.885 62.8538 55.415C62.8538 53.825 62.3288 52.595 61.2788 51.725C60.2288 50.825 58.8488 50.375 57.1388 50.375Z" fill="white"/>
</g>
<defs>
<clipPath id="clip0_5382_50611">
<rect width="100" height="100" fill="white"/>
</clipPath>
</defs>
</svg>
