<svg width="100" height="100" viewBox="0 0 100 100" fill="none" xmlns="http://www.w3.org/2000/svg">
<g clip-path="url(#clip0_5382_50612)">
<rect x="2" y="2" width="96" height="96" rx="48" fill="#E31C3D" stroke="white" stroke-width="4"/>
<path d="M28.8837 38V32.195H39.7287V65H33.2487V38H28.8837ZM53.2424 55.775C53.4824 57.095 54.0224 58.115 54.8624 58.835C55.7324 59.525 56.8874 59.87 58.3274 59.87C60.1874 59.87 61.5374 59.105 62.3774 57.575C63.2174 56.015 63.6374 53.405 63.6374 49.745C62.9474 50.705 61.9724 51.455 60.7124 51.995C59.4824 52.535 58.1474 52.805 56.7074 52.805C54.7874 52.805 53.0474 52.415 51.4874 51.635C49.9574 50.825 48.7424 49.64 47.8424 48.08C46.9424 46.49 46.4924 44.57 46.4924 42.32C46.4924 38.99 47.4824 36.35 49.4624 34.4C51.4424 32.42 54.1424 31.43 57.5624 31.43C61.8224 31.43 64.8224 32.795 66.5624 35.525C68.3324 38.255 69.2174 42.365 69.2174 47.855C69.2174 51.755 68.8724 54.95 68.1824 57.44C67.5224 59.93 66.3674 61.82 64.7174 63.11C63.0974 64.4 60.8774 65.045 58.0574 65.045C55.8374 65.045 53.9474 64.625 52.3874 63.785C50.8274 62.915 49.6274 61.79 48.7874 60.41C47.9774 59 47.5124 57.455 47.3924 55.775H53.2424ZM58.0124 47.675C59.5724 47.675 60.8024 47.195 61.7024 46.235C62.6024 45.275 63.0524 43.985 63.0524 42.365C63.0524 40.595 62.5724 39.23 61.6124 38.27C60.6824 37.28 59.4074 36.785 57.7874 36.785C56.1674 36.785 54.8774 37.295 53.9174 38.315C52.9874 39.305 52.5224 40.625 52.5224 42.275C52.5224 43.865 52.9724 45.17 53.8724 46.19C54.8024 47.18 56.1824 47.675 58.0124 47.675Z" fill="white"/>
</g>
<defs>
<clipPath id="clip0_5382_50612">
<rect width="100" height="100" fill="white"/>
</clipPath>
</defs>
</svg>
