<svg width="100" height="100" viewBox="0 0 100 100" fill="none" xmlns="http://www.w3.org/2000/svg">
<rect x="2" y="2" width="96" height="96" rx="48" fill="#FF6104"/>
<rect x="2" y="2" width="96" height="96" rx="48" stroke="white" stroke-width="4"/>
<path d="M40.9451 58.89C43.8251 56.49 46.1201 54.495 47.8301 52.905C49.5401 51.285 50.9651 49.605 52.1051 47.865C53.2451 46.125 53.8151 44.415 53.8151 42.735C53.8151 41.205 53.4551 40.005 52.7351 39.135C52.0151 38.265 50.9051 37.83 49.4051 37.83C47.9051 37.83 46.7501 38.34 45.9401 39.36C45.1301 40.35 44.7101 41.715 44.6801 43.455H38.5601C38.6801 39.855 39.7451 37.125 41.7551 35.265C43.7951 33.405 46.3751 32.475 49.4951 32.475C52.9151 32.475 55.5401 33.39 57.3701 35.22C59.2001 37.02 60.1151 39.405 60.1151 42.375C60.1151 44.715 59.4851 46.95 58.2251 49.08C56.9651 51.21 55.5251 53.07 53.9051 54.66C52.2851 56.22 50.1701 58.11 47.5601 60.33H60.8351V65.55H38.6051V60.87L40.9451 58.89Z" fill="white"/>
</svg>
