<svg width="100" height="100" viewBox="0 0 100 100" fill="none" xmlns="http://www.w3.org/2000/svg">
<g clip-path="url(#clip0_5382_50613)">
<rect x="2" y="2" width="96" height="96" rx="48" fill="#E31C3D" stroke="white" stroke-width="4"/>
<path d="M26.3992 57.89C29.2792 55.49 31.5742 53.495 33.2842 51.905C34.9942 50.285 36.4192 48.605 37.5592 46.865C38.6992 45.125 39.2692 43.415 39.2692 41.735C39.2692 40.205 38.9092 39.005 38.1892 38.135C37.4692 37.265 36.3592 36.83 34.8592 36.83C33.3592 36.83 32.2042 37.34 31.3942 38.36C30.5842 39.35 30.1642 40.715 30.1342 42.455H24.0142C24.1342 38.855 25.1992 36.125 27.2092 34.265C29.2492 32.405 31.8292 31.475 34.9492 31.475C38.3692 31.475 40.9942 32.39 42.8242 34.22C44.6542 36.02 45.5692 38.405 45.5692 41.375C45.5692 43.715 44.9392 45.95 43.6792 48.08C42.4192 50.21 40.9792 52.07 39.3592 53.66C37.7392 55.22 35.6242 57.11 33.0142 59.33H46.2892V64.55H24.0592V59.87L26.3992 57.89ZM50.259 48.17C50.259 42.98 51.189 38.915 53.049 35.975C54.939 33.035 58.059 31.565 62.409 31.565C66.759 31.565 69.864 33.035 71.724 35.975C73.614 38.915 74.559 42.98 74.559 48.17C74.559 53.39 73.614 57.485 71.724 60.455C69.864 63.425 66.759 64.91 62.409 64.91C58.059 64.91 54.939 63.425 53.049 60.455C51.189 57.485 50.259 53.39 50.259 48.17ZM68.349 48.17C68.349 45.95 68.199 44.09 67.899 42.59C67.629 41.06 67.059 39.815 66.189 38.855C65.349 37.895 64.089 37.415 62.409 37.415C60.729 37.415 59.454 37.895 58.584 38.855C57.744 39.815 57.174 41.06 56.874 42.59C56.604 44.09 56.469 45.95 56.469 48.17C56.469 50.45 56.604 52.37 56.874 53.93C57.144 55.46 57.714 56.705 58.584 57.665C59.454 58.595 60.729 59.06 62.409 59.06C64.089 59.06 65.364 58.595 66.234 57.665C67.104 56.705 67.674 55.46 67.944 53.93C68.214 52.37 68.349 50.45 68.349 48.17Z" fill="white"/>
</g>
<defs>
<clipPath id="clip0_5382_50613">
<rect width="100" height="100" fill="white"/>
</clipPath>
</defs>
</svg>
