<svg width="100" height="100" viewBox="0 0 100 100" fill="none" xmlns="http://www.w3.org/2000/svg">
<g clip-path="url(#clip0_5382_50614)">
<rect x="2" y="2" width="96" height="96" rx="48" fill="#E31C3D" stroke="white" stroke-width="4"/>
<path d="M32.7932 57.89C35.6732 55.49 37.9682 53.495 39.6782 51.905C41.3882 50.285 42.8132 48.605 43.9532 46.865C45.0932 45.125 45.6632 43.415 45.6632 41.735C45.6632 40.205 45.3032 39.005 44.5832 38.135C43.8632 37.265 42.7532 36.83 41.2532 36.83C39.7532 36.83 38.5982 37.34 37.7882 38.36C36.9782 39.35 36.5582 40.715 36.5282 42.455H30.4082C30.5282 38.855 31.5932 36.125 33.6032 34.265C35.6432 32.405 38.2232 31.475 41.3432 31.475C44.7632 31.475 47.3882 32.39 49.2182 34.22C51.0482 36.02 51.9632 38.405 51.9632 41.375C51.9632 43.715 51.3332 45.95 50.0732 48.08C48.8132 50.21 47.3732 52.07 45.7532 53.66C44.1332 55.22 42.0182 57.11 39.4082 59.33H52.6832V64.55H30.4532V59.87L32.7932 57.89ZM55.8881 38V32.195H66.7331V65H60.2531V38H55.8881Z" fill="white"/>
</g>
<defs>
<clipPath id="clip0_5382_50614">
<rect width="100" height="100" fill="white"/>
</clipPath>
</defs>
</svg>
