<svg width="100" height="100" viewBox="0 0 100 100" fill="none" xmlns="http://www.w3.org/2000/svg">
<g clip-path="url(#clip0_5382_50615)">
<rect x="2" y="2" width="96" height="96" rx="48" fill="#E31C3D" stroke="white" stroke-width="4"/>
<path d="M27.5252 57.89C30.4052 55.49 32.7002 53.495 34.4102 51.905C36.1202 50.285 37.5452 48.605 38.6852 46.865C39.8252 45.125 40.3952 43.415 40.3952 41.735C40.3952 40.205 40.0352 39.005 39.3152 38.135C38.5952 37.265 37.4852 36.83 35.9852 36.83C34.4852 36.83 33.3302 37.34 32.5202 38.36C31.7102 39.35 31.2902 40.715 31.2602 42.455H25.1402C25.2602 38.855 26.3252 36.125 28.3352 34.265C30.3752 32.405 32.9552 31.475 36.0752 31.475C39.4952 31.475 42.1202 32.39 43.9502 34.22C45.7802 36.02 46.6952 38.405 46.6952 41.375C46.6952 43.715 46.0652 45.95 44.8052 48.08C43.5452 50.21 42.1052 52.07 40.4852 53.66C38.8652 55.22 36.7502 57.11 34.1402 59.33H47.4152V64.55H25.1852V59.87L27.5252 57.89ZM53.365 57.89C56.245 55.49 58.54 53.495 60.25 51.905C61.96 50.285 63.385 48.605 64.525 46.865C65.665 45.125 66.235 43.415 66.235 41.735C66.235 40.205 65.875 39.005 65.155 38.135C64.435 37.265 63.325 36.83 61.825 36.83C60.325 36.83 59.17 37.34 58.36 38.36C57.55 39.35 57.13 40.715 57.1 42.455H50.98C51.1 38.855 52.165 36.125 54.175 34.265C56.215 32.405 58.795 31.475 61.915 31.475C65.335 31.475 67.96 32.39 69.79 34.22C71.62 36.02 72.535 38.405 72.535 41.375C72.535 43.715 71.905 45.95 70.645 48.08C69.385 50.21 67.945 52.07 66.325 53.66C64.705 55.22 62.59 57.11 59.98 59.33H73.255V64.55H51.025V59.87L53.365 57.89Z" fill="white"/>
</g>
<defs>
<clipPath id="clip0_5382_50615">
<rect width="100" height="100" fill="white"/>
</clipPath>
</defs>
</svg>
