<svg width="100" height="100" viewBox="0 0 100 100" fill="none" xmlns="http://www.w3.org/2000/svg">
<g clip-path="url(#clip0_5382_50616)">
<rect x="2" y="2" width="96" height="96" rx="48" fill="#E31C3D" stroke="white" stroke-width="4"/>
<path d="M27.4758 57.89C30.3558 55.49 32.6508 53.495 34.3608 51.905C36.0708 50.285 37.4958 48.605 38.6358 46.865C39.7758 45.125 40.3458 43.415 40.3458 41.735C40.3458 40.205 39.9858 39.005 39.2658 38.135C38.5458 37.265 37.4358 36.83 35.9358 36.83C34.4358 36.83 33.2808 37.34 32.4708 38.36C31.6608 39.35 31.2408 40.715 31.2108 42.455H25.0908C25.2108 38.855 26.2758 36.125 28.2858 34.265C30.3258 32.405 32.9058 31.475 36.0258 31.475C39.4458 31.475 42.0708 32.39 43.9008 34.22C45.7308 36.02 46.6458 38.405 46.6458 41.375C46.6458 43.715 46.0158 45.95 44.7558 48.08C43.4958 50.21 42.0558 52.07 40.4358 53.66C38.8158 55.22 36.7008 57.11 34.0908 59.33H47.3658V64.55H25.1358V59.87L27.4758 57.89ZM51.4257 40.835C51.5757 37.835 52.6257 35.525 54.5757 33.905C56.5557 32.255 59.1507 31.43 62.3607 31.43C64.5507 31.43 66.4257 31.82 67.9857 32.6C69.5457 33.35 70.7157 34.385 71.4957 35.705C72.3057 36.995 72.7107 38.465 72.7107 40.115C72.7107 42.005 72.2157 43.61 71.2257 44.93C70.2657 46.22 69.1107 47.09 67.7607 47.54V47.72C69.5007 48.26 70.8507 49.22 71.8107 50.6C72.8007 51.98 73.2957 53.75 73.2957 55.91C73.2957 57.71 72.8757 59.315 72.0357 60.725C71.2257 62.135 70.0107 63.245 68.3907 64.055C66.8007 64.835 64.8807 65.225 62.6307 65.225C59.2407 65.225 56.4807 64.37 54.3507 62.66C52.2207 60.95 51.0957 58.43 50.9757 55.1H57.0957C57.1557 56.57 57.6507 57.755 58.5807 58.655C59.5407 59.525 60.8457 59.96 62.4957 59.96C64.0257 59.96 65.1957 59.54 66.0057 58.7C66.8457 57.83 67.2657 56.72 67.2657 55.37C67.2657 53.57 66.6957 52.28 65.5557 51.5C64.4157 50.72 62.6457 50.33 60.2457 50.33H58.9407V45.155H60.2457C64.5057 45.155 66.6357 43.73 66.6357 40.88C66.6357 39.59 66.2457 38.585 65.4657 37.865C64.7157 37.145 63.6207 36.785 62.1807 36.785C60.7707 36.785 59.6757 37.175 58.8957 37.955C58.1457 38.705 57.7107 39.665 57.5907 40.835H51.4257Z" fill="white"/>
</g>
<defs>
<clipPath id="clip0_5382_50616">
<rect width="100" height="100" fill="white"/>
</clipPath>
</defs>
</svg>
