<svg width="100" height="100" viewBox="0 0 100 100" fill="none" xmlns="http://www.w3.org/2000/svg">
<g clip-path="url(#clip0_5382_50617)">
<rect x="2" y="2" width="96" height="96" rx="48" fill="#E31C3D" stroke="white" stroke-width="4"/>
<path d="M25.5696 57.89C28.4496 55.49 30.7446 53.495 32.4546 51.905C34.1646 50.285 35.5896 48.605 36.7296 46.865C37.8696 45.125 38.4396 43.415 38.4396 41.735C38.4396 40.205 38.0796 39.005 37.3596 38.135C36.6396 37.265 35.5296 36.83 34.0296 36.83C32.5296 36.83 31.3746 37.34 30.5646 38.36C29.7546 39.35 29.3346 40.715 29.3046 42.455H23.1846C23.3046 38.855 24.3696 36.125 26.3796 34.265C28.4196 32.405 30.9996 31.475 34.1196 31.475C37.5396 31.475 40.1646 32.39 41.9946 34.22C43.8246 36.02 44.7396 38.405 44.7396 41.375C44.7396 43.715 44.1096 45.95 42.8496 48.08C41.5896 50.21 40.1496 52.07 38.5296 53.66C36.9096 55.22 34.7946 57.11 32.1846 59.33H45.4596V64.55H23.2296V59.87L25.5696 57.89ZM49.1594 58.61V53.66L63.8744 32.6H71.2094V53.12H75.1694V58.61H71.2094V65H64.9094V58.61H49.1594ZM65.3144 39.35L56.0894 53.12H65.3144V39.35Z" fill="white"/>
</g>
<defs>
<clipPath id="clip0_5382_50617">
<rect width="100" height="100" fill="white"/>
</clipPath>
</defs>
</svg>
