<svg width="100" height="100" viewBox="0 0 100 100" fill="none" xmlns="http://www.w3.org/2000/svg">
<g clip-path="url(#clip0_5382_50618)">
<rect x="2" y="2" width="96" height="96" rx="48" fill="#E31C3D" stroke="white" stroke-width="4"/>
<path d="M26.4651 57.89C29.3451 55.49 31.6401 53.495 33.3501 51.905C35.0601 50.285 36.4851 48.605 37.6251 46.865C38.7651 45.125 39.3351 43.415 39.3351 41.735C39.3351 40.205 38.9751 39.005 38.2551 38.135C37.5351 37.265 36.4251 36.83 34.9251 36.83C33.4251 36.83 32.2701 37.34 31.4601 38.36C30.6501 39.35 30.2301 40.715 30.2001 42.455H24.0801C24.2001 38.855 25.2651 36.125 27.2751 34.265C29.3151 32.405 31.8951 31.475 35.0151 31.475C38.4351 31.475 41.0601 32.39 42.8901 34.22C44.7201 36.02 45.6351 38.405 45.6351 41.375C45.6351 43.715 45.0051 45.95 43.7451 48.08C42.4851 50.21 41.0451 52.07 39.4251 53.66C37.8051 55.22 35.6901 57.11 33.0801 59.33H46.3551V64.55H24.1251V59.87L26.4651 57.89ZM72.3749 37.64H57.7949V45.335C58.4249 44.555 59.3249 43.925 60.4949 43.445C61.6649 42.935 62.9099 42.68 64.2299 42.68C66.6299 42.68 68.5949 43.205 70.1249 44.255C71.6549 45.305 72.7649 46.655 73.4549 48.305C74.1449 49.925 74.4899 51.665 74.4899 53.525C74.4899 56.975 73.4999 59.75 71.5199 61.85C69.5699 63.95 66.7799 65 63.1499 65C59.7299 65 56.9999 64.145 54.9599 62.435C52.9199 60.725 51.7649 58.49 51.4949 55.73H57.6149C57.8849 56.93 58.4849 57.89 59.4149 58.61C60.3749 59.33 61.5899 59.69 63.0599 59.69C64.8299 59.69 66.1649 59.135 67.0649 58.025C67.9649 56.915 68.4149 55.445 68.4149 53.615C68.4149 51.755 67.9499 50.345 67.0199 49.385C66.1199 48.395 64.7849 47.9 63.0149 47.9C61.7549 47.9 60.7049 48.215 59.8649 48.845C59.0249 49.475 58.4249 50.315 58.0649 51.365H52.0349V32.105H72.3749V37.64Z" fill="white"/>
</g>
<defs>
<clipPath id="clip0_5382_50618">
<rect width="100" height="100" fill="white"/>
</clipPath>
</defs>
</svg>
