<svg width="100" height="100" viewBox="0 0 100 100" fill="none" xmlns="http://www.w3.org/2000/svg">
<g clip-path="url(#clip0_5382_50619)">
<rect x="2" y="2" width="96" height="96" rx="48" fill="#E31C3D" stroke="white" stroke-width="4"/>
<path d="M26.553 57.89C29.433 55.49 31.728 53.495 33.438 51.905C35.148 50.285 36.573 48.605 37.713 46.865C38.853 45.125 39.423 43.415 39.423 41.735C39.423 40.205 39.063 39.005 38.343 38.135C37.623 37.265 36.513 36.83 35.013 36.83C33.513 36.83 32.358 37.34 31.548 38.36C30.738 39.35 30.318 40.715 30.288 42.455H24.168C24.288 38.855 25.353 36.125 27.363 34.265C29.403 32.405 31.983 31.475 35.103 31.475C38.523 31.475 41.148 32.39 42.978 34.22C44.808 36.02 45.723 38.405 45.723 41.375C45.723 43.715 45.093 45.95 43.833 48.08C42.573 50.21 41.133 52.07 39.513 53.66C37.893 55.22 35.778 57.11 33.168 59.33H46.443V64.55H24.213V59.87L26.553 57.89ZM67.4228 40.385C67.1228 39.125 66.5978 38.18 65.8478 37.55C65.1278 36.92 64.0778 36.605 62.6978 36.605C60.6278 36.605 59.0978 37.445 58.1078 39.125C57.1478 40.775 56.6528 43.475 56.6228 47.225C57.3428 46.025 58.3928 45.095 59.7728 44.435C61.1528 43.745 62.6528 43.4 64.2728 43.4C66.2228 43.4 67.9478 43.82 69.4478 44.66C70.9478 45.5 72.1178 46.73 72.9578 48.35C73.7978 49.94 74.2178 51.86 74.2178 54.11C74.2178 56.24 73.7828 58.145 72.9128 59.825C72.0728 61.475 70.8278 62.765 69.1778 63.695C67.5278 64.625 65.5628 65.09 63.2828 65.09C60.1628 65.09 57.7028 64.4 55.9028 63.02C54.1328 61.64 52.8878 59.72 52.1678 57.26C51.4778 54.77 51.1328 51.71 51.1328 48.08C51.1328 42.59 52.0778 38.45 53.9678 35.66C55.8578 32.84 58.8428 31.43 62.9228 31.43C66.0728 31.43 68.5178 32.285 70.2578 33.995C71.9978 35.705 73.0028 37.835 73.2728 40.385H67.4228ZM62.8328 48.575C61.2428 48.575 59.9078 49.04 58.8278 49.97C57.7478 50.9 57.2078 52.25 57.2078 54.02C57.2078 55.79 57.7028 57.185 58.6928 58.205C59.7128 59.225 61.1378 59.735 62.9678 59.735C64.5878 59.735 65.8628 59.24 66.7928 58.25C67.7528 57.26 68.2328 55.925 68.2328 54.245C68.2328 52.505 67.7678 51.125 66.8378 50.105C65.9378 49.085 64.6028 48.575 62.8328 48.575Z" fill="white"/>
</g>
<defs>
<clipPath id="clip0_5382_50619">
<rect width="100" height="100" fill="white"/>
</clipPath>
</defs>
</svg>
