<svg width="100" height="100" viewBox="0 0 100 100" fill="none" xmlns="http://www.w3.org/2000/svg">
<g clip-path="url(#clip0_5382_50620)">
<rect x="2" y="2" width="96" height="96" rx="48" fill="#E31C3D" stroke="white" stroke-width="4"/>
<path d="M28.6184 57.89C31.4984 55.49 33.7934 53.495 35.5034 51.905C37.2134 50.285 38.6384 48.605 39.7784 46.865C40.9184 45.125 41.4884 43.415 41.4884 41.735C41.4884 40.205 41.1284 39.005 40.4084 38.135C39.6884 37.265 38.5784 36.83 37.0784 36.83C35.5784 36.83 34.4234 37.34 33.6134 38.36C32.8034 39.35 32.3834 40.715 32.3534 42.455H26.2334C26.3534 38.855 27.4184 36.125 29.4284 34.265C31.4684 32.405 34.0484 31.475 37.1684 31.475C40.5884 31.475 43.2134 32.39 45.0434 34.22C46.8734 36.02 47.7884 38.405 47.7884 41.375C47.7884 43.715 47.1584 45.95 45.8984 48.08C44.6384 50.21 43.1984 52.07 41.5784 53.66C39.9584 55.22 37.8434 57.11 35.2334 59.33H48.5084V64.55H26.2784V59.87L28.6184 57.89ZM73.3583 36.965L61.3883 65H54.9983L67.0583 37.685H51.6683V32.285H73.3583V36.965Z" fill="white"/>
</g>
<defs>
<clipPath id="clip0_5382_50620">
<rect width="100" height="100" fill="white"/>
</clipPath>
</defs>
</svg>
