<svg width="100" height="100" viewBox="0 0 100 100" fill="none" xmlns="http://www.w3.org/2000/svg">
<g clip-path="url(#clip0_5382_50621)">
<rect x="2" y="2" width="96" height="96" rx="48" fill="#E31C3D" stroke="white" stroke-width="4"/>
<path d="M26.4871 57.89C29.3671 55.49 31.6621 53.495 33.3721 51.905C35.0821 50.285 36.5071 48.605 37.6471 46.865C38.7871 45.125 39.3571 43.415 39.3571 41.735C39.3571 40.205 38.9971 39.005 38.2771 38.135C37.5571 37.265 36.4471 36.83 34.9471 36.83C33.4471 36.83 32.2921 37.34 31.4821 38.36C30.6721 39.35 30.2521 40.715 30.2221 42.455H24.1021C24.2221 38.855 25.2871 36.125 27.2971 34.265C29.3371 32.405 31.9171 31.475 35.0371 31.475C38.4571 31.475 41.0821 32.39 42.9121 34.22C44.7421 36.02 45.6571 38.405 45.6571 41.375C45.6571 43.715 45.0271 45.95 43.7671 48.08C42.5071 50.21 41.0671 52.07 39.4471 53.66C37.8271 55.22 35.7121 57.11 33.1021 59.33H46.3771V64.55H24.1471V59.87L26.4871 57.89ZM55.8369 47.63C52.8369 46.07 51.3369 43.655 51.3369 40.385C51.3369 38.765 51.7419 37.295 52.5519 35.975C53.3919 34.625 54.6369 33.56 56.2869 32.78C57.9669 31.97 60.0069 31.565 62.4069 31.565C64.8069 31.565 66.8319 31.97 68.4819 32.78C70.1619 33.56 71.4069 34.625 72.2169 35.975C73.0569 37.295 73.4769 38.765 73.4769 40.385C73.4769 42.035 73.0719 43.49 72.2619 44.75C71.4519 45.98 70.3719 46.94 69.0219 47.63C70.6719 48.35 71.9619 49.4 72.8919 50.78C73.8219 52.16 74.2869 53.795 74.2869 55.685C74.2869 57.725 73.7619 59.51 72.7119 61.04C71.6919 62.54 70.2819 63.695 68.4819 64.505C66.6819 65.315 64.6569 65.72 62.4069 65.72C60.1569 65.72 58.1319 65.315 56.3319 64.505C54.5619 63.695 53.1519 62.54 52.1019 61.04C51.0819 59.51 50.5719 57.725 50.5719 55.685C50.5719 53.795 51.0369 52.16 51.9669 50.78C52.8969 49.37 54.1869 48.32 55.8369 47.63ZM67.3569 41.285C67.3569 39.815 66.9069 38.675 66.0069 37.865C65.1369 37.055 63.9369 36.65 62.4069 36.65C60.9069 36.65 59.7069 37.055 58.8069 37.865C57.9369 38.675 57.5019 39.83 57.5019 41.33C57.5019 42.68 57.9519 43.76 58.8519 44.57C59.7819 45.38 60.9669 45.785 62.4069 45.785C63.8469 45.785 65.0319 45.38 65.9619 44.57C66.8919 43.73 67.3569 42.635 67.3569 41.285ZM62.4069 50.375C60.6969 50.375 59.3019 50.81 58.2219 51.68C57.1719 52.55 56.6469 53.795 56.6469 55.415C56.6469 56.915 57.1569 58.145 58.1769 59.105C59.2269 60.035 60.6369 60.5 62.4069 60.5C64.1769 60.5 65.5719 60.02 66.5919 59.06C67.6119 58.1 68.1219 56.885 68.1219 55.415C68.1219 53.825 67.5969 52.595 66.5469 51.725C65.4969 50.825 64.1169 50.375 62.4069 50.375Z" fill="white"/>
</g>
<defs>
<clipPath id="clip0_5382_50621">
<rect width="100" height="100" fill="white"/>
</clipPath>
</defs>
</svg>
