<svg width="100" height="100" viewBox="0 0 100 100" fill="none" xmlns="http://www.w3.org/2000/svg">
<g clip-path="url(#clip0_5382_50622)">
<rect x="2" y="2" width="96" height="96" rx="48" fill="#E31C3D" stroke="white" stroke-width="4"/>
<path d="M26.8606 57.89C29.7406 55.49 32.0356 53.495 33.7456 51.905C35.4556 50.285 36.8806 48.605 38.0206 46.865C39.1606 45.125 39.7306 43.415 39.7306 41.735C39.7306 40.205 39.3706 39.005 38.6506 38.135C37.9306 37.265 36.8206 36.83 35.3206 36.83C33.8206 36.83 32.6656 37.34 31.8556 38.36C31.0456 39.35 30.6256 40.715 30.5956 42.455H24.4756C24.5956 38.855 25.6606 36.125 27.6706 34.265C29.7106 32.405 32.2906 31.475 35.4106 31.475C38.8306 31.475 41.4556 32.39 43.2856 34.22C45.1156 36.02 46.0306 38.405 46.0306 41.375C46.0306 43.715 45.4006 45.95 44.1406 48.08C42.8806 50.21 41.4406 52.07 39.8206 53.66C38.2006 55.22 36.0856 57.11 33.4756 59.33H46.7506V64.55H24.5206V59.87L26.8606 57.89ZM58.0104 55.775C58.2504 57.095 58.7904 58.115 59.6304 58.835C60.5004 59.525 61.6554 59.87 63.0954 59.87C64.9554 59.87 66.3054 59.105 67.1454 57.575C67.9854 56.015 68.4054 53.405 68.4054 49.745C67.7154 50.705 66.7404 51.455 65.4804 51.995C64.2504 52.535 62.9154 52.805 61.4755 52.805C59.5555 52.805 57.8154 52.415 56.2554 51.635C54.7254 50.825 53.5104 49.64 52.6104 48.08C51.7104 46.49 51.2604 44.57 51.2604 42.32C51.2604 38.99 52.2504 36.35 54.2304 34.4C56.2104 32.42 58.9104 31.43 62.3305 31.43C66.5904 31.43 69.5905 32.795 71.3305 35.525C73.1005 38.255 73.9855 42.365 73.9855 47.855C73.9855 51.755 73.6405 54.95 72.9505 57.44C72.2905 59.93 71.1355 61.82 69.4855 63.11C67.8654 64.4 65.6454 65.045 62.8255 65.045C60.6054 65.045 58.7154 64.625 57.1554 63.785C55.5954 62.915 54.3954 61.79 53.5554 60.41C52.7454 59 52.2804 57.455 52.1604 55.775H58.0104ZM62.7804 47.675C64.3405 47.675 65.5705 47.195 66.4705 46.235C67.3705 45.275 67.8205 43.985 67.8205 42.365C67.8205 40.595 67.3405 39.23 66.3805 38.27C65.4504 37.28 64.1754 36.785 62.5554 36.785C60.9355 36.785 59.6455 37.295 58.6854 38.315C57.7554 39.305 57.2904 40.625 57.2904 42.275C57.2904 43.865 57.7404 45.17 58.6404 46.19C59.5705 47.18 60.9504 47.675 62.7804 47.675Z" fill="white"/>
</g>
<defs>
<clipPath id="clip0_5382_50622">
<rect width="100" height="100" fill="white"/>
</clipPath>
</defs>
</svg>
