<svg width="100" height="100" viewBox="0 0 100 100" fill="none" xmlns="http://www.w3.org/2000/svg">
<rect x="2" y="2" width="96" height="96" rx="48" fill="#FF6104"/>
<rect x="2" y="2" width="96" height="96" rx="48" stroke="white" stroke-width="4"/>
<path d="M39.0058 41.835C39.1558 38.835 40.2058 36.525 42.1558 34.905C44.1358 33.255 46.7308 32.43 49.9408 32.43C52.1308 32.43 54.0058 32.82 55.5658 33.6C57.1258 34.35 58.2958 35.385 59.0758 36.705C59.8858 37.995 60.2908 39.465 60.2908 41.115C60.2908 43.005 59.7958 44.61 58.8058 45.93C57.8458 47.22 56.6908 48.09 55.3408 48.54V48.72C57.0808 49.26 58.4308 50.22 59.3908 51.6C60.3808 52.98 60.8758 54.75 60.8758 56.91C60.8758 58.71 60.4558 60.315 59.6158 61.725C58.8058 63.135 57.5908 64.245 55.9708 65.055C54.3808 65.835 52.4608 66.225 50.2108 66.225C46.8208 66.225 44.0608 65.37 41.9308 63.66C39.8008 61.95 38.6758 59.43 38.5558 56.1H44.6758C44.7358 57.57 45.2308 58.755 46.1608 59.655C47.1208 60.525 48.4258 60.96 50.0758 60.96C51.6058 60.96 52.7758 60.54 53.5858 59.7C54.4258 58.83 54.8458 57.72 54.8458 56.37C54.8458 54.57 54.2758 53.28 53.1358 52.5C51.9958 51.72 50.2258 51.33 47.8258 51.33H46.5208V46.155H47.8258C52.0858 46.155 54.2158 44.73 54.2158 41.88C54.2158 40.59 53.8258 39.585 53.0458 38.865C52.2958 38.145 51.2008 37.785 49.7608 37.785C48.3508 37.785 47.2558 38.175 46.4758 38.955C45.7258 39.705 45.2908 40.665 45.1708 41.835H39.0058Z" fill="white"/>
</svg>
