<svg width="100" height="100" viewBox="0 0 100 100" fill="none" xmlns="http://www.w3.org/2000/svg">
<g clip-path="url(#clip0_5382_50623)">
<rect x="2" y="2" width="96" height="96" rx="48" fill="#E31C3D" stroke="white" stroke-width="4"/>
<path d="M23.9599 40.835C24.1099 37.835 25.1599 35.525 27.1099 33.905C29.0899 32.255 31.6849 31.43 34.8949 31.43C37.0849 31.43 38.9599 31.82 40.5199 32.6C42.0799 33.35 43.2499 34.385 44.0299 35.705C44.8399 36.995 45.2449 38.465 45.2449 40.115C45.2449 42.005 44.7499 43.61 43.7599 44.93C42.7999 46.22 41.6449 47.09 40.2949 47.54V47.72C42.0349 48.26 43.3849 49.22 44.3449 50.6C45.3349 51.98 45.8299 53.75 45.8299 55.91C45.8299 57.71 45.4099 59.315 44.5699 60.725C43.7599 62.135 42.5449 63.245 40.9249 64.055C39.3349 64.835 37.4149 65.225 35.1649 65.225C31.7749 65.225 29.0149 64.37 26.8849 62.66C24.7549 60.95 23.6299 58.43 23.5099 55.1H29.6299C29.6899 56.57 30.1849 57.755 31.1149 58.655C32.0749 59.525 33.3799 59.96 35.0299 59.96C36.5599 59.96 37.7299 59.54 38.5399 58.7C39.3799 57.83 39.7999 56.72 39.7999 55.37C39.7999 53.57 39.2299 52.28 38.0899 51.5C36.9499 50.72 35.1799 50.33 32.7799 50.33H31.4749V45.155H32.7799C37.0399 45.155 39.1699 43.73 39.1699 40.88C39.1699 39.59 38.7799 38.585 37.9999 37.865C37.2499 37.145 36.1549 36.785 34.7149 36.785C33.3049 36.785 32.2099 37.175 31.4299 37.955C30.6799 38.705 30.2449 39.665 30.1249 40.835H23.9599ZM50.8083 48.17C50.8083 42.98 51.7383 38.915 53.5983 35.975C55.4883 33.035 58.6083 31.565 62.9583 31.565C67.3083 31.565 70.4133 33.035 72.2733 35.975C74.1633 38.915 75.1083 42.98 75.1083 48.17C75.1083 53.39 74.1633 57.485 72.2733 60.455C70.4133 63.425 67.3083 64.91 62.9583 64.91C58.6083 64.91 55.4883 63.425 53.5983 60.455C51.7383 57.485 50.8083 53.39 50.8083 48.17ZM68.8983 48.17C68.8983 45.95 68.7483 44.09 68.4483 42.59C68.1783 41.06 67.6083 39.815 66.7383 38.855C65.8983 37.895 64.6383 37.415 62.9583 37.415C61.2783 37.415 60.0033 37.895 59.1333 38.855C58.2933 39.815 57.7233 41.06 57.4233 42.59C57.1533 44.09 57.0183 45.95 57.0183 48.17C57.0183 50.45 57.1533 52.37 57.4233 53.93C57.6933 55.46 58.2633 56.705 59.1333 57.665C60.0033 58.595 61.2783 59.06 62.9583 59.06C64.6383 59.06 65.9133 58.595 66.7833 57.665C67.6533 56.705 68.2233 55.46 68.4933 53.93C68.7633 52.37 68.8983 50.45 68.8983 48.17Z" fill="white"/>
</g>
<defs>
<clipPath id="clip0_5382_50623">
<rect width="100" height="100" fill="white"/>
</clipPath>
</defs>
</svg>
