<svg width="100" height="100" viewBox="0 0 100 100" fill="none" xmlns="http://www.w3.org/2000/svg">
<g clip-path="url(#clip0_5382_50624)">
<rect x="2" y="2" width="96" height="96" rx="48" fill="#E31C3D" stroke="white" stroke-width="4"/>
<path d="M29.8539 40.835C30.0039 37.835 31.0539 35.525 33.0039 33.905C34.9839 32.255 37.5789 31.43 40.7889 31.43C42.9789 31.43 44.8539 31.82 46.4139 32.6C47.9739 33.35 49.1439 34.385 49.9239 35.705C50.7339 36.995 51.1389 38.465 51.1389 40.115C51.1389 42.005 50.6439 43.61 49.6539 44.93C48.6939 46.22 47.5389 47.09 46.1889 47.54V47.72C47.9289 48.26 49.2789 49.22 50.2389 50.6C51.2289 51.98 51.7239 53.75 51.7239 55.91C51.7239 57.71 51.3039 59.315 50.4639 60.725C49.6539 62.135 48.4389 63.245 46.8189 64.055C45.2289 64.835 43.3089 65.225 41.0589 65.225C37.6689 65.225 34.9089 64.37 32.7789 62.66C30.6489 60.95 29.5239 58.43 29.4039 55.1H35.5239C35.5839 56.57 36.0789 57.755 37.0089 58.655C37.9689 59.525 39.2739 59.96 40.9239 59.96C42.4539 59.96 43.6239 59.54 44.4339 58.7C45.2739 57.83 45.6939 56.72 45.6939 55.37C45.6939 53.57 45.1239 52.28 43.9839 51.5C42.8439 50.72 41.0739 50.33 38.6739 50.33H37.3689V45.155H38.6739C42.9339 45.155 45.0639 43.73 45.0639 40.88C45.0639 39.59 44.6739 38.585 43.8939 37.865C43.1439 37.145 42.0489 36.785 40.6089 36.785C39.1989 36.785 38.1039 37.175 37.3239 37.955C36.5739 38.705 36.1389 39.665 36.0189 40.835H29.8539ZM55.9374 38V32.195H66.7824V65H60.3024V38H55.9374Z" fill="white"/>
</g>
<defs>
<clipPath id="clip0_5382_50624">
<rect width="100" height="100" fill="white"/>
</clipPath>
</defs>
</svg>
