<svg width="100" height="100" viewBox="0 0 100 100" fill="none" xmlns="http://www.w3.org/2000/svg">
<g clip-path="url(#clip0_5382_50625)">
<rect x="2" y="2" width="96" height="96" rx="48" fill="#E31C3D" stroke="white" stroke-width="4"/>
<path d="M25.5858 40.835C25.7358 37.835 26.7858 35.525 28.7358 33.905C30.7158 32.255 33.3108 31.43 36.5208 31.43C38.7108 31.43 40.5858 31.82 42.1458 32.6C43.7058 33.35 44.8758 34.385 45.6558 35.705C46.4658 36.995 46.8708 38.465 46.8708 40.115C46.8708 42.005 46.3758 43.61 45.3858 44.93C44.4258 46.22 43.2708 47.09 41.9208 47.54V47.72C43.6608 48.26 45.0108 49.22 45.9708 50.6C46.9608 51.98 47.4558 53.75 47.4558 55.91C47.4558 57.71 47.0358 59.315 46.1958 60.725C45.3858 62.135 44.1708 63.245 42.5508 64.055C40.9608 64.835 39.0408 65.225 36.7908 65.225C33.4008 65.225 30.6408 64.37 28.5108 62.66C26.3808 60.95 25.2558 58.43 25.1358 55.1H31.2558C31.3158 56.57 31.8108 57.755 32.7408 58.655C33.7008 59.525 35.0058 59.96 36.6558 59.96C38.1858 59.96 39.3558 59.54 40.1658 58.7C41.0058 57.83 41.4258 56.72 41.4258 55.37C41.4258 53.57 40.8558 52.28 39.7158 51.5C38.5758 50.72 36.8058 50.33 34.4058 50.33H33.1008V45.155H34.4058C38.6658 45.155 40.7958 43.73 40.7958 40.88C40.7958 39.59 40.4058 38.585 39.6258 37.865C38.8758 37.145 37.7808 36.785 36.3408 36.785C34.9308 36.785 33.8358 37.175 33.0558 37.955C32.3058 38.705 31.8708 39.665 31.7508 40.835H25.5858ZM54.4143 57.89C57.2943 55.49 59.5893 53.495 61.2993 51.905C63.0093 50.285 64.4343 48.605 65.5743 46.865C66.7143 45.125 67.2843 43.415 67.2843 41.735C67.2843 40.205 66.9243 39.005 66.2043 38.135C65.4843 37.265 64.3743 36.83 62.8743 36.83C61.3743 36.83 60.2193 37.34 59.4093 38.36C58.5993 39.35 58.1793 40.715 58.1493 42.455H52.0293C52.1493 38.855 53.2143 36.125 55.2243 34.265C57.2643 32.405 59.8443 31.475 62.9643 31.475C66.3843 31.475 69.0093 32.39 70.8393 34.22C72.6693 36.02 73.5843 38.405 73.5843 41.375C73.5843 43.715 72.9543 45.95 71.6943 48.08C70.4343 50.21 68.9943 52.07 67.3743 53.66C65.7543 55.22 63.6393 57.11 61.0293 59.33H74.3043V64.55H52.0743V59.87L54.4143 57.89Z" fill="white"/>
</g>
<defs>
<clipPath id="clip0_5382_50625">
<rect width="100" height="100" fill="white"/>
</clipPath>
</defs>
</svg>
