<svg width="100" height="100" viewBox="0 0 100 100" fill="none" xmlns="http://www.w3.org/2000/svg">
<g clip-path="url(#clip0_5382_50626)">
<rect x="2" y="2" width="96" height="96" rx="48" fill="#E31C3D" stroke="white" stroke-width="4"/>
<path d="M24.5365 40.835C24.6865 37.835 25.7365 35.525 27.6865 33.905C29.6665 32.255 32.2615 31.43 35.4715 31.43C37.6615 31.43 39.5365 31.82 41.0965 32.6C42.6565 33.35 43.8265 34.385 44.6065 35.705C45.4165 36.995 45.8215 38.465 45.8215 40.115C45.8215 42.005 45.3265 43.61 44.3365 44.93C43.3765 46.22 42.2215 47.09 40.8715 47.54V47.72C42.6115 48.26 43.9615 49.22 44.9215 50.6C45.9115 51.98 46.4065 53.75 46.4065 55.91C46.4065 57.71 45.9865 59.315 45.1465 60.725C44.3365 62.135 43.1215 63.245 41.5015 64.055C39.9115 64.835 37.9915 65.225 35.7415 65.225C32.3515 65.225 29.5915 64.37 27.4615 62.66C25.3315 60.95 24.2065 58.43 24.0865 55.1H30.2065C30.2665 56.57 30.7615 57.755 31.6915 58.655C32.6515 59.525 33.9565 59.96 35.6065 59.96C37.1365 59.96 38.3065 59.54 39.1165 58.7C39.9565 57.83 40.3765 56.72 40.3765 55.37C40.3765 53.57 39.8065 52.28 38.6665 51.5C37.5265 50.72 35.7565 50.33 33.3565 50.33H32.0515V45.155H33.3565C37.6165 45.155 39.7465 43.73 39.7465 40.88C39.7465 39.59 39.3565 38.585 38.5765 37.865C37.8265 37.145 36.7315 36.785 35.2915 36.785C33.8815 36.785 32.7865 37.175 32.0065 37.955C31.2565 38.705 30.8215 39.665 30.7015 40.835H24.5365ZM51.475 40.835C51.625 37.835 52.675 35.525 54.625 33.905C56.605 32.255 59.2 31.43 62.41 31.43C64.6 31.43 66.475 31.82 68.035 32.6C69.595 33.35 70.765 34.385 71.545 35.705C72.355 36.995 72.76 38.465 72.76 40.115C72.76 42.005 72.265 43.61 71.275 44.93C70.315 46.22 69.16 47.09 67.81 47.54V47.72C69.55 48.26 70.9 49.22 71.86 50.6C72.85 51.98 73.345 53.75 73.345 55.91C73.345 57.71 72.925 59.315 72.085 60.725C71.275 62.135 70.06 63.245 68.44 64.055C66.85 64.835 64.93 65.225 62.68 65.225C59.29 65.225 56.53 64.37 54.4 62.66C52.27 60.95 51.145 58.43 51.025 55.1H57.145C57.205 56.57 57.7 57.755 58.63 58.655C59.59 59.525 60.895 59.96 62.545 59.96C64.075 59.96 65.245 59.54 66.055 58.7C66.895 57.83 67.315 56.72 67.315 55.37C67.315 53.57 66.745 52.28 65.605 51.5C64.465 50.72 62.695 50.33 60.295 50.33H58.99V45.155H60.295C64.555 45.155 66.685 43.73 66.685 40.88C66.685 39.59 66.295 38.585 65.515 37.865C64.765 37.145 63.67 36.785 62.23 36.785C60.82 36.785 59.725 37.175 58.945 37.955C58.195 38.705 57.76 39.665 57.64 40.835H51.475Z" fill="white"/>
</g>
<defs>
<clipPath id="clip0_5382_50626">
<rect width="100" height="100" fill="white"/>
</clipPath>
</defs>
</svg>
