<svg width="100" height="100" viewBox="0 0 100 100" fill="none" xmlns="http://www.w3.org/2000/svg">
<g clip-path="url(#clip0_5382_50627)">
<rect x="2" y="2" width="96" height="96" rx="48" fill="#E31C3D" stroke="white" stroke-width="4"/>
<path d="M23.6303 40.835C23.7803 37.835 24.8303 35.525 26.7803 33.905C28.7603 32.255 31.3553 31.43 34.5653 31.43C36.7553 31.43 38.6303 31.82 40.1903 32.6C41.7503 33.35 42.9203 34.385 43.7003 35.705C44.5103 36.995 44.9153 38.465 44.9153 40.115C44.9153 42.005 44.4203 43.61 43.4303 44.93C42.4703 46.22 41.3153 47.09 39.9653 47.54V47.72C41.7053 48.26 43.0553 49.22 44.0153 50.6C45.0053 51.98 45.5003 53.75 45.5003 55.91C45.5003 57.71 45.0803 59.315 44.2403 60.725C43.4303 62.135 42.2153 63.245 40.5953 64.055C39.0053 64.835 37.0853 65.225 34.8353 65.225C31.4453 65.225 28.6853 64.37 26.5553 62.66C24.4253 60.95 23.3003 58.43 23.1803 55.1H29.3003C29.3603 56.57 29.8553 57.755 30.7853 58.655C31.7453 59.525 33.0503 59.96 34.7003 59.96C36.2303 59.96 37.4003 59.54 38.2103 58.7C39.0503 57.83 39.4703 56.72 39.4703 55.37C39.4703 53.57 38.9003 52.28 37.7603 51.5C36.6203 50.72 34.8503 50.33 32.4503 50.33H31.1453V45.155H32.4503C36.7103 45.155 38.8403 43.73 38.8403 40.88C38.8403 39.59 38.4503 38.585 37.6703 37.865C36.9203 37.145 35.8253 36.785 34.3853 36.785C32.9753 36.785 31.8803 37.175 31.1003 37.955C30.3503 38.705 29.9153 39.665 29.7953 40.835H23.6303ZM50.2088 58.61V53.66L64.9238 32.6H72.2588V53.12H76.2188V58.61H72.2588V65H65.9588V58.61H50.2088ZM66.3638 39.35L57.1388 53.12H66.3638V39.35Z" fill="white"/>
</g>
<defs>
<clipPath id="clip0_5382_50627">
<rect width="100" height="100" fill="white"/>
</clipPath>
</defs>
</svg>
