<svg width="100" height="100" viewBox="0 0 100 100" fill="none" xmlns="http://www.w3.org/2000/svg">
<g clip-path="url(#clip0_5382_50628)">
<rect x="2" y="2" width="96" height="96" rx="48" fill="#E31C3D" stroke="white" stroke-width="4"/>
<path d="M23.5258 40.835C23.6758 37.835 24.7258 35.525 26.6758 33.905C28.6558 32.255 31.2508 31.43 34.4608 31.43C36.6508 31.43 38.5258 31.82 40.0858 32.6C41.6458 33.35 42.8158 34.385 43.5958 35.705C44.4058 36.995 44.8108 38.465 44.8108 40.115C44.8108 42.005 44.3158 43.61 43.3258 44.93C42.3658 46.22 41.2108 47.09 39.8608 47.54V47.72C41.6008 48.26 42.9508 49.22 43.9108 50.6C44.9008 51.98 45.3958 53.75 45.3958 55.91C45.3958 57.71 44.9758 59.315 44.1358 60.725C43.3258 62.135 42.1108 63.245 40.4908 64.055C38.9008 64.835 36.9808 65.225 34.7308 65.225C31.3408 65.225 28.5808 64.37 26.4508 62.66C24.3208 60.95 23.1958 58.43 23.0758 55.1H29.1958C29.2558 56.57 29.7508 57.755 30.6808 58.655C31.6408 59.525 32.9458 59.96 34.5958 59.96C36.1258 59.96 37.2958 59.54 38.1058 58.7C38.9458 57.83 39.3658 56.72 39.3658 55.37C39.3658 53.57 38.7958 52.28 37.6558 51.5C36.5158 50.72 34.7458 50.33 32.3458 50.33H31.0408V45.155H32.3458C36.6058 45.155 38.7358 43.73 38.7358 40.88C38.7358 39.59 38.3458 38.585 37.5658 37.865C36.8158 37.145 35.7208 36.785 34.2808 36.785C32.8708 36.785 31.7758 37.175 30.9958 37.955C30.2458 38.705 29.8108 39.665 29.6908 40.835H23.5258ZM72.4243 37.64H57.8443V45.335C58.4743 44.555 59.3743 43.925 60.5443 43.445C61.7143 42.935 62.9593 42.68 64.2793 42.68C66.6793 42.68 68.6443 43.205 70.1743 44.255C71.7043 45.305 72.8143 46.655 73.5043 48.305C74.1943 49.925 74.5393 51.665 74.5393 53.525C74.5393 56.975 73.5493 59.75 71.5693 61.85C69.6193 63.95 66.8293 65 63.1993 65C59.7793 65 57.0493 64.145 55.0093 62.435C52.9693 60.725 51.8143 58.49 51.5443 55.73H57.6643C57.9343 56.93 58.5343 57.89 59.4643 58.61C60.4243 59.33 61.6393 59.69 63.1093 59.69C64.8793 59.69 66.2143 59.135 67.1143 58.025C68.0143 56.915 68.4643 55.445 68.4643 53.615C68.4643 51.755 67.9993 50.345 67.0693 49.385C66.1693 48.395 64.8343 47.9 63.0643 47.9C61.8043 47.9 60.7543 48.215 59.9143 48.845C59.0743 49.475 58.4743 50.315 58.1143 51.365H52.0843V32.105H72.4243V37.64Z" fill="white"/>
</g>
<defs>
<clipPath id="clip0_5382_50628">
<rect width="100" height="100" fill="white"/>
</clipPath>
</defs>
</svg>
