<svg width="100" height="100" viewBox="0 0 100 100" fill="none" xmlns="http://www.w3.org/2000/svg">
<g clip-path="url(#clip0_5382_50629)">
<rect x="2" y="2" width="96" height="96" rx="48" fill="#E31C3D" stroke="white" stroke-width="4"/>
<path d="M23.6137 40.835C23.7637 37.835 24.8137 35.525 26.7637 33.905C28.7437 32.255 31.3387 31.43 34.5487 31.43C36.7387 31.43 38.6137 31.82 40.1737 32.6C41.7337 33.35 42.9037 34.385 43.6837 35.705C44.4937 36.995 44.8987 38.465 44.8987 40.115C44.8987 42.005 44.4037 43.61 43.4137 44.93C42.4537 46.22 41.2987 47.09 39.9487 47.54V47.72C41.6887 48.26 43.0387 49.22 43.9987 50.6C44.9887 51.98 45.4837 53.75 45.4837 55.91C45.4837 57.71 45.0637 59.315 44.2237 60.725C43.4137 62.135 42.1987 63.245 40.5787 64.055C38.9887 64.835 37.0687 65.225 34.8187 65.225C31.4287 65.225 28.6687 64.37 26.5387 62.66C24.4087 60.95 23.2837 58.43 23.1637 55.1H29.2837C29.3437 56.57 29.8387 57.755 30.7687 58.655C31.7287 59.525 33.0337 59.96 34.6837 59.96C36.2137 59.96 37.3837 59.54 38.1937 58.7C39.0337 57.83 39.4537 56.72 39.4537 55.37C39.4537 53.57 38.8837 52.28 37.7437 51.5C36.6037 50.72 34.8337 50.33 32.4337 50.33H31.1287V45.155H32.4337C36.6937 45.155 38.8237 43.73 38.8237 40.88C38.8237 39.59 38.4337 38.585 37.6537 37.865C36.9037 37.145 35.8087 36.785 34.3687 36.785C32.9587 36.785 31.8637 37.175 31.0837 37.955C30.3337 38.705 29.8987 39.665 29.7787 40.835H23.6137ZM67.4721 40.385C67.1721 39.125 66.6471 38.18 65.8971 37.55C65.1771 36.92 64.1271 36.605 62.7471 36.605C60.6771 36.605 59.1471 37.445 58.1571 39.125C57.1971 40.775 56.7021 43.475 56.6721 47.225C57.3921 46.025 58.4421 45.095 59.8221 44.435C61.2021 43.745 62.7021 43.4 64.3221 43.4C66.2721 43.4 67.9971 43.82 69.4971 44.66C70.9971 45.5 72.1671 46.73 73.0071 48.35C73.8471 49.94 74.2671 51.86 74.2671 54.11C74.2671 56.24 73.8321 58.145 72.9621 59.825C72.1222 61.475 70.8771 62.765 69.2271 63.695C67.5771 64.625 65.6121 65.09 63.3321 65.09C60.2121 65.09 57.7521 64.4 55.9521 63.02C54.1821 61.64 52.9371 59.72 52.2171 57.26C51.5271 54.77 51.1821 51.71 51.1821 48.08C51.1821 42.59 52.1271 38.45 54.0171 35.66C55.9071 32.84 58.8921 31.43 62.9721 31.43C66.1221 31.43 68.5671 32.285 70.3071 33.995C72.0472 35.705 73.0522 37.835 73.3222 40.385H67.4721ZM62.8821 48.575C61.2921 48.575 59.9571 49.04 58.8771 49.97C57.7971 50.9 57.2571 52.25 57.2571 54.02C57.2571 55.79 57.7521 57.185 58.7421 58.205C59.7621 59.225 61.1871 59.735 63.0171 59.735C64.6371 59.735 65.9121 59.24 66.8421 58.25C67.8021 57.26 68.2821 55.925 68.2821 54.245C68.2821 52.505 67.8171 51.125 66.8871 50.105C65.9871 49.085 64.6521 48.575 62.8821 48.575Z" fill="white"/>
</g>
<defs>
<clipPath id="clip0_5382_50629">
<rect width="100" height="100" fill="white"/>
</clipPath>
</defs>
</svg>
