<svg width="100" height="100" viewBox="0 0 100 100" fill="none" xmlns="http://www.w3.org/2000/svg">
<g clip-path="url(#clip0_5382_50630)">
<rect x="2" y="2" width="96" height="96" rx="48" fill="#E31C3D" stroke="white" stroke-width="4"/>
<path d="M25.6791 40.835C25.8291 37.835 26.8791 35.525 28.8291 33.905C30.8091 32.255 33.4041 31.43 36.6141 31.43C38.8041 31.43 40.6791 31.82 42.2391 32.6C43.7991 33.35 44.9691 34.385 45.7491 35.705C46.5591 36.995 46.9641 38.465 46.9641 40.115C46.9641 42.005 46.4691 43.61 45.4791 44.93C44.5191 46.22 43.3641 47.09 42.0141 47.54V47.72C43.7541 48.26 45.1041 49.22 46.0641 50.6C47.0541 51.98 47.5491 53.75 47.5491 55.91C47.5491 57.71 47.1291 59.315 46.2891 60.725C45.4791 62.135 44.2641 63.245 42.6441 64.055C41.0541 64.835 39.1341 65.225 36.8841 65.225C33.4941 65.225 30.7341 64.37 28.6041 62.66C26.4741 60.95 25.3491 58.43 25.2291 55.1H31.3491C31.4091 56.57 31.9041 57.755 32.8341 58.655C33.7941 59.525 35.0991 59.96 36.7491 59.96C38.2791 59.96 39.4491 59.54 40.2591 58.7C41.0991 57.83 41.5191 56.72 41.5191 55.37C41.5191 53.57 40.9491 52.28 39.8091 51.5C38.6691 50.72 36.8991 50.33 34.4991 50.33H33.1941V45.155H34.4991C38.7591 45.155 40.8891 43.73 40.8891 40.88C40.8891 39.59 40.4991 38.585 39.7191 37.865C38.9691 37.145 37.8741 36.785 36.4341 36.785C35.0241 36.785 33.9291 37.175 33.1491 37.955C32.3991 38.705 31.9641 39.665 31.8441 40.835H25.6791ZM73.4076 36.965L61.4376 65H55.0476L67.1076 37.685H51.7176V32.285H73.4076V36.965Z" fill="white"/>
</g>
<defs>
<clipPath id="clip0_5382_50630">
<rect width="100" height="100" fill="white"/>
</clipPath>
</defs>
</svg>
