<svg width="100" height="100" viewBox="0 0 100 100" fill="none" xmlns="http://www.w3.org/2000/svg">
<g clip-path="url(#clip0_5382_50631)">
<rect x="2" y="2" width="96" height="96" rx="48" fill="#E31C3D" stroke="white" stroke-width="4"/>
<path d="M23.5478 40.835C23.6978 37.835 24.7478 35.525 26.6978 33.905C28.6778 32.255 31.2728 31.43 34.4828 31.43C36.6728 31.43 38.5478 31.82 40.1078 32.6C41.6678 33.35 42.8378 34.385 43.6178 35.705C44.4278 36.995 44.8328 38.465 44.8328 40.115C44.8328 42.005 44.3378 43.61 43.3478 44.93C42.3878 46.22 41.2328 47.09 39.8828 47.54V47.72C41.6228 48.26 42.9728 49.22 43.9328 50.6C44.9228 51.98 45.4178 53.75 45.4178 55.91C45.4178 57.71 44.9978 59.315 44.1578 60.725C43.3478 62.135 42.1328 63.245 40.5128 64.055C38.9228 64.835 37.0028 65.225 34.7528 65.225C31.3628 65.225 28.6028 64.37 26.4728 62.66C24.3428 60.95 23.2178 58.43 23.0978 55.1H29.2178C29.2778 56.57 29.7728 57.755 30.7028 58.655C31.6628 59.525 32.9678 59.96 34.6178 59.96C36.1478 59.96 37.3178 59.54 38.1278 58.7C38.9678 57.83 39.3878 56.72 39.3878 55.37C39.3878 53.57 38.8178 52.28 37.6778 51.5C36.5378 50.72 34.7678 50.33 32.3678 50.33H31.0628V45.155H32.3678C36.6278 45.155 38.7578 43.73 38.7578 40.88C38.7578 39.59 38.3678 38.585 37.5878 37.865C36.8378 37.145 35.7428 36.785 34.3028 36.785C32.8928 36.785 31.7978 37.175 31.0178 37.955C30.2678 38.705 29.8328 39.665 29.7128 40.835H23.5478ZM55.8862 47.63C52.8862 46.07 51.3862 43.655 51.3862 40.385C51.3862 38.765 51.7912 37.295 52.6012 35.975C53.4412 34.625 54.6862 33.56 56.3362 32.78C58.0162 31.97 60.0562 31.565 62.4562 31.565C64.8562 31.565 66.8812 31.97 68.5312 32.78C70.2112 33.56 71.4562 34.625 72.2662 35.975C73.1062 37.295 73.5262 38.765 73.5262 40.385C73.5262 42.035 73.1212 43.49 72.3112 44.75C71.5012 45.98 70.4212 46.94 69.0712 47.63C70.7212 48.35 72.0112 49.4 72.9412 50.78C73.8712 52.16 74.3362 53.795 74.3362 55.685C74.3362 57.725 73.8112 59.51 72.7612 61.04C71.7412 62.54 70.3312 63.695 68.5312 64.505C66.7312 65.315 64.7062 65.72 62.4562 65.72C60.2062 65.72 58.1812 65.315 56.3812 64.505C54.6112 63.695 53.2012 62.54 52.1512 61.04C51.1312 59.51 50.6212 57.725 50.6212 55.685C50.6212 53.795 51.0862 52.16 52.0162 50.78C52.9462 49.37 54.2362 48.32 55.8862 47.63ZM67.4062 41.285C67.4062 39.815 66.9562 38.675 66.0562 37.865C65.1862 37.055 63.9862 36.65 62.4562 36.65C60.9562 36.65 59.7562 37.055 58.8562 37.865C57.9862 38.675 57.5512 39.83 57.5512 41.33C57.5512 42.68 58.0012 43.76 58.9012 44.57C59.8312 45.38 61.0162 45.785 62.4562 45.785C63.8962 45.785 65.0812 45.38 66.0112 44.57C66.9412 43.73 67.4062 42.635 67.4062 41.285ZM62.4562 50.375C60.7462 50.375 59.3512 50.81 58.2712 51.68C57.2212 52.55 56.6962 53.795 56.6962 55.415C56.6962 56.915 57.2062 58.145 58.2262 59.105C59.2762 60.035 60.6862 60.5 62.4562 60.5C64.2262 60.5 65.6212 60.02 66.6412 59.06C67.6612 58.1 68.1712 56.885 68.1712 55.415C68.1712 53.825 67.6462 52.595 66.5962 51.725C65.5462 50.825 64.1662 50.375 62.4562 50.375Z" fill="white"/>
</g>
<defs>
<clipPath id="clip0_5382_50631">
<rect width="100" height="100" fill="white"/>
</clipPath>
</defs>
</svg>
