<svg width="100" height="100" viewBox="0 0 100 100" fill="none" xmlns="http://www.w3.org/2000/svg">
<g clip-path="url(#clip0_5382_50632)">
<rect x="2" y="2" width="96" height="96" rx="48" fill="#E31C3D" stroke="white" stroke-width="4"/>
<path d="M23.9213 40.835C24.0713 37.835 25.1213 35.525 27.0713 33.905C29.0513 32.255 31.6463 31.43 34.8563 31.43C37.0463 31.43 38.9213 31.82 40.4813 32.6C42.0413 33.35 43.2113 34.385 43.9913 35.705C44.8013 36.995 45.2063 38.465 45.2063 40.115C45.2063 42.005 44.7113 43.61 43.7213 44.93C42.7613 46.22 41.6063 47.09 40.2563 47.54V47.72C41.9963 48.26 43.3463 49.22 44.3063 50.6C45.2963 51.98 45.7913 53.75 45.7913 55.91C45.7913 57.71 45.3713 59.315 44.5313 60.725C43.7213 62.135 42.5063 63.245 40.8863 64.055C39.2963 64.835 37.3763 65.225 35.1263 65.225C31.7363 65.225 28.9763 64.37 26.8463 62.66C24.7163 60.95 23.5913 58.43 23.4713 55.1H29.5913C29.6513 56.57 30.1463 57.755 31.0763 58.655C32.0363 59.525 33.3413 59.96 34.9913 59.96C36.5213 59.96 37.6913 59.54 38.5013 58.7C39.3413 57.83 39.7613 56.72 39.7613 55.37C39.7613 53.57 39.1913 52.28 38.0513 51.5C36.9113 50.72 35.1413 50.33 32.7413 50.33H31.4363V45.155H32.7413C37.0013 45.155 39.1313 43.73 39.1313 40.88C39.1313 39.59 38.7413 38.585 37.9613 37.865C37.2113 37.145 36.1163 36.785 34.6763 36.785C33.2663 36.785 32.1713 37.175 31.3913 37.955C30.6413 38.705 30.2063 39.665 30.0863 40.835H23.9213ZM58.0598 55.775C58.2998 57.095 58.8398 58.115 59.6798 58.835C60.5498 59.525 61.7048 59.87 63.1448 59.87C65.0048 59.87 66.3548 59.105 67.1948 57.575C68.0348 56.015 68.4548 53.405 68.4548 49.745C67.7648 50.705 66.7898 51.455 65.5298 51.995C64.2998 52.535 62.9648 52.805 61.5248 52.805C59.6048 52.805 57.8648 52.415 56.3048 51.635C54.7748 50.825 53.5598 49.64 52.6598 48.08C51.7598 46.49 51.3098 44.57 51.3098 42.32C51.3098 38.99 52.2998 36.35 54.2798 34.4C56.2598 32.42 58.9598 31.43 62.3798 31.43C66.6398 31.43 69.6398 32.795 71.3798 35.525C73.1498 38.255 74.0348 42.365 74.0348 47.855C74.0348 51.755 73.6898 54.95 72.9998 57.44C72.3398 59.93 71.1848 61.82 69.5348 63.11C67.9148 64.4 65.6948 65.045 62.8748 65.045C60.6548 65.045 58.7648 64.625 57.2048 63.785C55.6448 62.915 54.4448 61.79 53.6048 60.41C52.7948 59 52.3298 57.455 52.2098 55.775H58.0598ZM62.8298 47.675C64.3898 47.675 65.6198 47.195 66.5198 46.235C67.4198 45.275 67.8698 43.985 67.8698 42.365C67.8698 40.595 67.3898 39.23 66.4298 38.27C65.4998 37.28 64.2248 36.785 62.6048 36.785C60.9848 36.785 59.6948 37.295 58.7348 38.315C57.8048 39.305 57.3398 40.625 57.3398 42.275C57.3398 43.865 57.7898 45.17 58.6898 46.19C59.6198 47.18 60.9998 47.675 62.8298 47.675Z" fill="white"/>
</g>
<defs>
<clipPath id="clip0_5382_50632">
<rect width="100" height="100" fill="white"/>
</clipPath>
</defs>
</svg>
