<svg width="100" height="100" viewBox="0 0 100 100" fill="none" xmlns="http://www.w3.org/2000/svg">
<g clip-path="url(#clip0_5382_50633)">
<rect x="2" y="2" width="96" height="96" rx="48" fill="#E31C3D" stroke="white" stroke-width="4"/>
<path d="M22.1936 58.61V53.66L36.9086 32.6H44.2436V53.12H48.2036V58.61H44.2436V65H37.9436V58.61H22.1936ZM38.3486 39.35L29.1236 53.12H38.3486V39.35ZM52.2146 48.17C52.2146 42.98 53.1446 38.915 55.0046 35.975C56.8946 33.035 60.0146 31.565 64.3646 31.565C68.7146 31.565 71.8196 33.035 73.6796 35.975C75.5696 38.915 76.5146 42.98 76.5146 48.17C76.5146 53.39 75.5696 57.485 73.6796 60.455C71.8196 63.425 68.7146 64.91 64.3646 64.91C60.0146 64.91 56.8946 63.425 55.0046 60.455C53.1446 57.485 52.2146 53.39 52.2146 48.17ZM70.3046 48.17C70.3046 45.95 70.1546 44.09 69.8546 42.59C69.5846 41.06 69.0146 39.815 68.1446 38.855C67.3046 37.895 66.0446 37.415 64.3646 37.415C62.6846 37.415 61.4096 37.895 60.5396 38.855C59.6996 39.815 59.1296 41.06 58.8296 42.59C58.5596 44.09 58.4246 45.95 58.4246 48.17C58.4246 50.45 58.5596 52.37 58.8296 53.93C59.0996 55.46 59.6696 56.705 60.5396 57.665C61.4096 58.595 62.6846 59.06 64.3646 59.06C66.0446 59.06 67.3196 58.595 68.1896 57.665C69.0596 56.705 69.6296 55.46 69.8996 53.93C70.1696 52.37 70.3046 50.45 70.3046 48.17Z" fill="white"/>
</g>
<defs>
<clipPath id="clip0_5382_50633">
<rect width="100" height="100" fill="white"/>
</clipPath>
</defs>
</svg>
