<svg width="100" height="100" viewBox="0 0 100 100" fill="none" xmlns="http://www.w3.org/2000/svg">
<g clip-path="url(#clip0_5382_50635)">
<rect x="2" y="2" width="96" height="96" rx="48" fill="#E31C3D" stroke="white" stroke-width="4"/>
<path d="M23.3196 58.61V53.66L38.0346 32.6H45.3696V53.12H49.3296V58.61H45.3696V65H39.0696V58.61H23.3196ZM39.4746 39.35L30.2496 53.12H39.4746V39.35ZM55.3206 57.89C58.2006 55.49 60.4956 53.495 62.2056 51.905C63.9156 50.285 65.3406 48.605 66.4806 46.865C67.6206 45.125 68.1906 43.415 68.1906 41.735C68.1906 40.205 67.8306 39.005 67.1106 38.135C66.3906 37.265 65.2806 36.83 63.7806 36.83C62.2806 36.83 61.1256 37.34 60.3156 38.36C59.5056 39.35 59.0856 40.715 59.0556 42.455H52.9356C53.0556 38.855 54.1206 36.125 56.1306 34.265C58.1706 32.405 60.7506 31.475 63.8706 31.475C67.2906 31.475 69.9156 32.39 71.7456 34.22C73.5756 36.02 74.4906 38.405 74.4906 41.375C74.4906 43.715 73.8606 45.95 72.6006 48.08C71.3406 50.21 69.9006 52.07 68.2806 53.66C66.6606 55.22 64.5456 57.11 61.9356 59.33H75.2106V64.55H52.9806V59.87L55.3206 57.89Z" fill="white"/>
</g>
<defs>
<clipPath id="clip0_5382_50635">
<rect width="100" height="100" fill="white"/>
</clipPath>
</defs>
</svg>
