<svg width="100" height="100" viewBox="0 0 100 100" fill="none" xmlns="http://www.w3.org/2000/svg">
<g clip-path="url(#clip0_5382_50636)">
<rect x="2" y="2" width="96" height="96" rx="48" fill="#E31C3D" stroke="white" stroke-width="4"/>
<path d="M23.2703 58.61V53.66L37.9853 32.6H45.3203V53.12H49.2803V58.61H45.3203V65H39.0203V58.61H23.2703ZM39.4253 39.35L30.2003 53.12H39.4253V39.35ZM53.3813 40.835C53.5313 37.835 54.5813 35.525 56.5312 33.905C58.5113 32.255 61.1063 31.43 64.3163 31.43C66.5063 31.43 68.3813 31.82 69.9413 32.6C71.5013 33.35 72.6713 34.385 73.4513 35.705C74.2613 36.995 74.6662 38.465 74.6662 40.115C74.6662 42.005 74.1713 43.61 73.1813 44.93C72.2213 46.22 71.0663 47.09 69.7163 47.54V47.72C71.4563 48.26 72.8063 49.22 73.7663 50.6C74.7563 51.98 75.2513 53.75 75.2513 55.91C75.2513 57.71 74.8313 59.315 73.9913 60.725C73.1813 62.135 71.9663 63.245 70.3463 64.055C68.7563 64.835 66.8363 65.225 64.5863 65.225C61.1963 65.225 58.4363 64.37 56.3063 62.66C54.1763 60.95 53.0513 58.43 52.9313 55.1H59.0513C59.1113 56.57 59.6063 57.755 60.5363 58.655C61.4963 59.525 62.8013 59.96 64.4513 59.96C65.9813 59.96 67.1513 59.54 67.9613 58.7C68.8013 57.83 69.2213 56.72 69.2213 55.37C69.2213 53.57 68.6513 52.28 67.5113 51.5C66.3713 50.72 64.6013 50.33 62.2013 50.33H60.8963V45.155H62.2013C66.4613 45.155 68.5913 43.73 68.5913 40.88C68.5913 39.59 68.2013 38.585 67.4213 37.865C66.6713 37.145 65.5763 36.785 64.1362 36.785C62.7263 36.785 61.6313 37.175 60.8513 37.955C60.1013 38.705 59.6663 39.665 59.5463 40.835H53.3813Z" fill="white"/>
</g>
<defs>
<clipPath id="clip0_5382_50636">
<rect width="100" height="100" fill="white"/>
</clipPath>
</defs>
</svg>
