<svg width="100" height="100" viewBox="0 0 100 100" fill="none" xmlns="http://www.w3.org/2000/svg">
<g clip-path="url(#clip0_5382_50638)">
<rect x="2" y="2" width="96" height="96" rx="48" fill="#E31C3D" stroke="white" stroke-width="4"/>
<path d="M22.2595 58.61V53.66L36.9745 32.6H44.3095V53.12H48.2695V58.61H44.3095V65H38.0095V58.61H22.2595ZM38.4145 39.35L29.1895 53.12H38.4145V39.35ZM74.3305 37.64H59.7505V45.335C60.3805 44.555 61.2805 43.925 62.4505 43.445C63.6205 42.935 64.8655 42.68 66.1855 42.68C68.5855 42.68 70.5505 43.205 72.0805 44.255C73.6105 45.305 74.7205 46.655 75.4105 48.305C76.1005 49.925 76.4455 51.665 76.4455 53.525C76.4455 56.975 75.4555 59.75 73.4755 61.85C71.5255 63.95 68.7355 65 65.1055 65C61.6855 65 58.9555 64.145 56.9155 62.435C54.8755 60.725 53.7205 58.49 53.4505 55.73H59.5705C59.8405 56.93 60.4405 57.89 61.3705 58.61C62.3305 59.33 63.5455 59.69 65.0155 59.69C66.7855 59.69 68.1205 59.135 69.0205 58.025C69.9205 56.915 70.3705 55.445 70.3705 53.615C70.3705 51.755 69.9055 50.345 68.9755 49.385C68.0755 48.395 66.7405 47.9 64.9705 47.9C63.7105 47.9 62.6605 48.215 61.8205 48.845C60.9805 49.475 60.3805 50.315 60.0205 51.365H53.9905V32.105H74.3305V37.64Z" fill="white"/>
</g>
<defs>
<clipPath id="clip0_5382_50638">
<rect width="100" height="100" fill="white"/>
</clipPath>
</defs>
</svg>
