<svg width="100" height="100" viewBox="0 0 100 100" fill="none" xmlns="http://www.w3.org/2000/svg">
<g clip-path="url(#clip0_5382_50639)">
<rect x="2" y="2" width="96" height="96" rx="48" fill="#E31C3D" stroke="white" stroke-width="4"/>
<path d="M22.3474 58.61V53.66L37.0624 32.6H44.3974V53.12H48.3574V58.61H44.3974V65H38.0974V58.61H22.3474ZM38.5024 39.35L29.2774 53.12H38.5024V39.35ZM69.3784 40.385C69.0784 39.125 68.5534 38.18 67.8034 37.55C67.0834 36.92 66.0334 36.605 64.6534 36.605C62.5834 36.605 61.0534 37.445 60.0634 39.125C59.1034 40.775 58.6084 43.475 58.5784 47.225C59.2984 46.025 60.3484 45.095 61.7284 44.435C63.1084 43.745 64.6084 43.4 66.2284 43.4C68.1784 43.4 69.9034 43.82 71.4034 44.66C72.9034 45.5 74.0734 46.73 74.9134 48.35C75.7534 49.94 76.1734 51.86 76.1734 54.11C76.1734 56.24 75.7384 58.145 74.8684 59.825C74.0284 61.475 72.7834 62.765 71.1334 63.695C69.4834 64.625 67.5184 65.09 65.2384 65.09C62.1184 65.09 59.6584 64.4 57.8584 63.02C56.0884 61.64 54.8434 59.72 54.1234 57.26C53.4334 54.77 53.0884 51.71 53.0884 48.08C53.0884 42.59 54.0334 38.45 55.9234 35.66C57.8134 32.84 60.7984 31.43 64.8784 31.43C68.0284 31.43 70.4734 32.285 72.2134 33.995C73.9534 35.705 74.9584 37.835 75.2284 40.385H69.3784ZM64.7884 48.575C63.1984 48.575 61.8634 49.04 60.7834 49.97C59.7034 50.9 59.1634 52.25 59.1634 54.02C59.1634 55.79 59.6584 57.185 60.6484 58.205C61.6684 59.225 63.0934 59.735 64.9234 59.735C66.5434 59.735 67.8184 59.24 68.7484 58.25C69.7084 57.26 70.1884 55.925 70.1884 54.245C70.1884 52.505 69.7234 51.125 68.7934 50.105C67.8934 49.085 66.5584 48.575 64.7884 48.575Z" fill="white"/>
</g>
<defs>
<clipPath id="clip0_5382_50639">
<rect width="100" height="100" fill="white"/>
</clipPath>
</defs>
</svg>
