<svg width="100" height="100" viewBox="0 0 100 100" fill="none" xmlns="http://www.w3.org/2000/svg">
<g clip-path="url(#clip0_5382_50641)">
<rect x="2" y="2" width="96" height="96" rx="48" fill="#E31C3D" stroke="white" stroke-width="4"/>
<path d="M22.2815 58.61V53.66L36.9965 32.6H44.3315V53.12H48.2915V58.61H44.3315V65H38.0315V58.61H22.2815ZM38.4365 39.35L29.2115 53.12H38.4365V39.35ZM57.7925 47.63C54.7925 46.07 53.2925 43.655 53.2925 40.385C53.2925 38.765 53.6975 37.295 54.5075 35.975C55.3475 34.625 56.5925 33.56 58.2425 32.78C59.9225 31.97 61.9625 31.565 64.3625 31.565C66.7625 31.565 68.7875 31.97 70.4375 32.78C72.1175 33.56 73.3625 34.625 74.1725 35.975C75.0125 37.295 75.4325 38.765 75.4325 40.385C75.4325 42.035 75.0275 43.49 74.2175 44.75C73.4075 45.98 72.3275 46.94 70.9775 47.63C72.6275 48.35 73.9175 49.4 74.8475 50.78C75.7775 52.16 76.2425 53.795 76.2425 55.685C76.2425 57.725 75.7175 59.51 74.6675 61.04C73.6475 62.54 72.2375 63.695 70.4375 64.505C68.6375 65.315 66.6125 65.72 64.3625 65.72C62.1125 65.72 60.0875 65.315 58.2875 64.505C56.5175 63.695 55.1075 62.54 54.0575 61.04C53.0375 59.51 52.5275 57.725 52.5275 55.685C52.5275 53.795 52.9925 52.16 53.9225 50.78C54.8525 49.37 56.1425 48.32 57.7925 47.63ZM69.3125 41.285C69.3125 39.815 68.8625 38.675 67.9625 37.865C67.0925 37.055 65.8925 36.65 64.3625 36.65C62.8625 36.65 61.6625 37.055 60.7625 37.865C59.8925 38.675 59.4575 39.83 59.4575 41.33C59.4575 42.68 59.9075 43.76 60.8075 44.57C61.7375 45.38 62.9225 45.785 64.3625 45.785C65.8025 45.785 66.9875 45.38 67.9175 44.57C68.8475 43.73 69.3125 42.635 69.3125 41.285ZM64.3625 50.375C62.6525 50.375 61.2575 50.81 60.1775 51.68C59.1275 52.55 58.6025 53.795 58.6025 55.415C58.6025 56.915 59.1125 58.145 60.1325 59.105C61.1825 60.035 62.5925 60.5 64.3625 60.5C66.1325 60.5 67.5275 60.02 68.5475 59.06C69.5675 58.1 70.0775 56.885 70.0775 55.415C70.0775 53.825 69.5525 52.595 68.5025 51.725C67.4525 50.825 66.0725 50.375 64.3625 50.375Z" fill="white"/>
</g>
<defs>
<clipPath id="clip0_5382_50641">
<rect width="100" height="100" fill="white"/>
</clipPath>
</defs>
</svg>
