<svg width="100" height="100" viewBox="0 0 100 100" fill="none" xmlns="http://www.w3.org/2000/svg">
<g clip-path="url(#clip0_5382_50642)">
<rect x="2" y="2" width="96" height="96" rx="48" fill="#E31C3D" stroke="white" stroke-width="4"/>
<path d="M22.155 58.61V53.66L36.87 32.6H44.205V53.12H48.165V58.61H44.205V65H37.905V58.61H22.155ZM38.31 39.35L29.085 53.12H38.31V39.35ZM59.466 55.775C59.706 57.095 60.246 58.115 61.086 58.835C61.956 59.525 63.111 59.87 64.551 59.87C66.411 59.87 67.761 59.105 68.601 57.575C69.441 56.015 69.861 53.405 69.861 49.745C69.171 50.705 68.196 51.455 66.936 51.995C65.706 52.535 64.371 52.805 62.931 52.805C61.011 52.805 59.271 52.415 57.711 51.635C56.181 50.825 54.966 49.64 54.066 48.08C53.166 46.49 52.716 44.57 52.716 42.32C52.716 38.99 53.706 36.35 55.686 34.4C57.666 32.42 60.366 31.43 63.786 31.43C68.046 31.43 71.046 32.795 72.786 35.525C74.556 38.255 75.441 42.365 75.441 47.855C75.441 51.755 75.096 54.95 74.406 57.44C73.746 59.93 72.591 61.82 70.941 63.11C69.321 64.4 67.101 65.045 64.281 65.045C62.061 65.045 60.171 64.625 58.611 63.785C57.051 62.915 55.851 61.79 55.011 60.41C54.201 59 53.736 57.455 53.616 55.775H59.466ZM64.236 47.675C65.796 47.675 67.026 47.195 67.926 46.235C68.826 45.275 69.276 43.985 69.276 42.365C69.276 40.595 68.796 39.23 67.836 38.27C66.906 37.28 65.631 36.785 64.011 36.785C62.391 36.785 61.101 37.295 60.141 38.315C59.211 39.305 58.746 40.625 58.746 42.275C58.746 43.865 59.196 45.17 60.096 46.19C61.026 47.18 62.406 47.675 64.236 47.675Z" fill="white"/>
</g>
<defs>
<clipPath id="clip0_5382_50642">
<rect width="100" height="100" fill="white"/>
</clipPath>
</defs>
</svg>
