<svg width="100" height="100" viewBox="0 0 100 100" fill="none" xmlns="http://www.w3.org/2000/svg">
<rect x="2" y="2" width="96" height="96" rx="48" fill="#FF6104"/>
<rect x="2" y="2" width="96" height="96" rx="48" stroke="white" stroke-width="4"/>
<path d="M59.955 38.64H45.375V46.335C46.005 45.555 46.905 44.925 48.075 44.445C49.245 43.935 50.49 43.68 51.81 43.68C54.21 43.68 56.175 44.205 57.705 45.255C59.235 46.305 60.345 47.655 61.035 49.305C61.725 50.925 62.07 52.665 62.07 54.525C62.07 57.975 61.08 60.75 59.1 62.85C57.15 64.95 54.36 66 50.73 66C47.31 66 44.58 65.145 42.54 63.435C40.5 61.725 39.345 59.49 39.075 56.73H45.195C45.465 57.93 46.065 58.89 46.995 59.61C47.955 60.33 49.17 60.69 50.64 60.69C52.41 60.69 53.745 60.135 54.645 59.025C55.545 57.915 55.995 56.445 55.995 54.615C55.995 52.755 55.53 51.345 54.6 50.385C53.7 49.395 52.365 48.9 50.595 48.9C49.335 48.9 48.285 49.215 47.445 49.845C46.605 50.475 46.005 51.315 45.645 52.365H39.615V33.105H59.955V38.64Z" fill="white"/>
</svg>
