<svg width="100" height="100" viewBox="0 0 100 100" fill="none" xmlns="http://www.w3.org/2000/svg">
<g clip-path="url(#clip0_5382_50644)">
<rect x="2" y="2" width="96" height="96" rx="48" fill="#E31C3D" stroke="white" stroke-width="4"/>
<path d="M50.8032 37.64H36.2232V45.335C36.8532 44.555 37.7532 43.925 38.9232 43.445C40.0932 42.935 41.3382 42.68 42.6582 42.68C45.0582 42.68 47.0232 43.205 48.5532 44.255C50.0832 45.305 51.1932 46.655 51.8832 48.305C52.5732 49.925 52.9182 51.665 52.9182 53.525C52.9182 56.975 51.9282 59.75 49.9482 61.85C47.9982 63.95 45.2082 65 41.5782 65C38.1582 65 35.4282 64.145 33.3882 62.435C31.3482 60.725 30.1932 58.49 29.9232 55.73H36.0432C36.3132 56.93 36.9132 57.89 37.8432 58.61C38.8032 59.33 40.0182 59.69 41.4882 59.69C43.2582 59.69 44.5932 59.135 45.4932 58.025C46.3932 56.915 46.8432 55.445 46.8432 53.615C46.8432 51.755 46.3782 50.345 45.4482 49.385C44.5482 48.395 43.2132 47.9 41.4432 47.9C40.1832 47.9 39.1332 48.215 38.2932 48.845C37.4532 49.475 36.8532 50.315 36.4932 51.365H30.4632V32.105H50.8032V37.64ZM56.9481 38V32.195H67.7931V65H61.3131V38H56.9481Z" fill="white"/>
</g>
<defs>
<clipPath id="clip0_5382_50644">
<rect width="100" height="100" fill="white"/>
</clipPath>
</defs>
</svg>
