<svg width="100" height="100" viewBox="0 0 100 100" fill="none" xmlns="http://www.w3.org/2000/svg">
<g clip-path="url(#clip0_5382_50645)">
<rect x="2" y="2" width="96" height="96" rx="48" fill="#E31C3D" stroke="white" stroke-width="4"/>
<path d="M46.5351 37.64H31.9551V45.335C32.5851 44.555 33.4851 43.925 34.6551 43.445C35.8251 42.935 37.0701 42.68 38.3901 42.68C40.7901 42.68 42.7551 43.205 44.2851 44.255C45.8151 45.305 46.9251 46.655 47.6151 48.305C48.3051 49.925 48.6501 51.665 48.6501 53.525C48.6501 56.975 47.6601 59.75 45.6801 61.85C43.7301 63.95 40.9401 65 37.3101 65C33.8901 65 31.1601 64.145 29.1201 62.435C27.0801 60.725 25.9251 58.49 25.6551 55.73H31.7751C32.0451 56.93 32.6451 57.89 33.5751 58.61C34.5351 59.33 35.7501 59.69 37.2201 59.69C38.9901 59.69 40.3251 59.135 41.2251 58.025C42.1251 56.915 42.5751 55.445 42.5751 53.615C42.5751 51.755 42.1101 50.345 41.1801 49.385C40.2801 48.395 38.9451 47.9 37.1751 47.9C35.9151 47.9 34.8651 48.215 34.0251 48.845C33.1851 49.475 32.5851 50.315 32.2251 51.365H26.1951V32.105H46.5351V37.64ZM55.4251 57.89C58.3051 55.49 60.6001 53.495 62.3101 51.905C64.0201 50.285 65.4451 48.605 66.5851 46.865C67.7251 45.125 68.2951 43.415 68.2951 41.735C68.2951 40.205 67.9351 39.005 67.2151 38.135C66.4951 37.265 65.3851 36.83 63.8851 36.83C62.3851 36.83 61.2301 37.34 60.4201 38.36C59.6101 39.35 59.1901 40.715 59.1601 42.455H53.0401C53.1601 38.855 54.2251 36.125 56.2351 34.265C58.2751 32.405 60.8551 31.475 63.9751 31.475C67.3951 31.475 70.0201 32.39 71.8501 34.22C73.6801 36.02 74.5951 38.405 74.5951 41.375C74.5951 43.715 73.9651 45.95 72.7051 48.08C71.4451 50.21 70.0051 52.07 68.3851 53.66C66.7651 55.22 64.6501 57.11 62.0401 59.33H75.3151V64.55H53.0851V59.87L55.4251 57.89Z" fill="white"/>
</g>
<defs>
<clipPath id="clip0_5382_50645">
<rect width="100" height="100" fill="white"/>
</clipPath>
</defs>
</svg>
