<svg width="100" height="100" viewBox="0 0 100 100" fill="none" xmlns="http://www.w3.org/2000/svg">
<g clip-path="url(#clip0_5382_50646)">
<rect x="2" y="2" width="96" height="96" rx="48" fill="#E31C3D" stroke="white" stroke-width="4"/>
<path d="M45.4858 37.64H30.9058V45.335C31.5358 44.555 32.4358 43.925 33.6058 43.445C34.7758 42.935 36.0208 42.68 37.3408 42.68C39.7408 42.68 41.7058 43.205 43.2358 44.255C44.7658 45.305 45.8758 46.655 46.5658 48.305C47.2558 49.925 47.6008 51.665 47.6008 53.525C47.6008 56.975 46.6108 59.75 44.6308 61.85C42.6808 63.95 39.8908 65 36.2608 65C32.8408 65 30.1108 64.145 28.0708 62.435C26.0308 60.725 24.8758 58.49 24.6058 55.73H30.7258C30.9958 56.93 31.5958 57.89 32.5258 58.61C33.4858 59.33 34.7008 59.69 36.1708 59.69C37.9408 59.69 39.2758 59.135 40.1758 58.025C41.0758 56.915 41.5258 55.445 41.5258 53.615C41.5258 51.755 41.0608 50.345 40.1308 49.385C39.2308 48.395 37.8958 47.9 36.1258 47.9C34.8658 47.9 33.8158 48.215 32.9758 48.845C32.1358 49.475 31.5358 50.315 31.1758 51.365H25.1458V32.105H45.4858V37.64ZM52.4857 40.835C52.6357 37.835 53.6857 35.525 55.6357 33.905C57.6157 32.255 60.2107 31.43 63.4207 31.43C65.6107 31.43 67.4857 31.82 69.0457 32.6C70.6057 33.35 71.7757 34.385 72.5557 35.705C73.3657 36.995 73.7707 38.465 73.7707 40.115C73.7707 42.005 73.2757 43.61 72.2857 44.93C71.3257 46.22 70.1707 47.09 68.8207 47.54V47.72C70.5607 48.26 71.9107 49.22 72.8707 50.6C73.8607 51.98 74.3557 53.75 74.3557 55.91C74.3557 57.71 73.9357 59.315 73.0957 60.725C72.2857 62.135 71.0707 63.245 69.4507 64.055C67.8607 64.835 65.9407 65.225 63.6907 65.225C60.3007 65.225 57.5407 64.37 55.4107 62.66C53.2807 60.95 52.1557 58.43 52.0357 55.1H58.1557C58.2157 56.57 58.7107 57.755 59.6407 58.655C60.6007 59.525 61.9057 59.96 63.5557 59.96C65.0857 59.96 66.2557 59.54 67.0657 58.7C67.9057 57.83 68.3257 56.72 68.3257 55.37C68.3257 53.57 67.7557 52.28 66.6157 51.5C65.4757 50.72 63.7057 50.33 61.3057 50.33H60.0007V45.155H61.3057C65.5657 45.155 67.6957 43.73 67.6957 40.88C67.6957 39.59 67.3057 38.585 66.5257 37.865C65.7757 37.145 64.6807 36.785 63.2407 36.785C61.8307 36.785 60.7357 37.175 59.9557 37.955C59.2057 38.705 58.7707 39.665 58.6507 40.835H52.4857Z" fill="white"/>
</g>
<defs>
<clipPath id="clip0_5382_50646">
<rect width="100" height="100" fill="white"/>
</clipPath>
</defs>
</svg>
