<svg width="100" height="100" viewBox="0 0 100 100" fill="none" xmlns="http://www.w3.org/2000/svg">
<g clip-path="url(#clip0_5382_50647)">
<rect x="2" y="2" width="96" height="96" rx="48" fill="#E31C3D" stroke="white" stroke-width="4"/>
<path d="M44.5795 37.64H29.9995V45.335C30.6295 44.555 31.5295 43.925 32.6995 43.445C33.8695 42.935 35.1145 42.68 36.4345 42.68C38.8345 42.68 40.7995 43.205 42.3295 44.255C43.8595 45.305 44.9695 46.655 45.6595 48.305C46.3495 49.925 46.6945 51.665 46.6945 53.525C46.6945 56.975 45.7045 59.75 43.7245 61.85C41.7745 63.95 38.9845 65 35.3545 65C31.9345 65 29.2045 64.145 27.1645 62.435C25.1245 60.725 23.9695 58.49 23.6995 55.73H29.8195C30.0895 56.93 30.6895 57.89 31.6195 58.61C32.5795 59.33 33.7945 59.69 35.2645 59.69C37.0345 59.69 38.3695 59.135 39.2695 58.025C40.1695 56.915 40.6195 55.445 40.6195 53.615C40.6195 51.755 40.1545 50.345 39.2245 49.385C38.3245 48.395 36.9895 47.9 35.2195 47.9C33.9595 47.9 32.9095 48.215 32.0695 48.845C31.2295 49.475 30.6295 50.315 30.2695 51.365H24.2395V32.105H44.5795V37.64ZM51.2195 58.61V53.66L65.9345 32.6H73.2695V53.12H77.2295V58.61H73.2695V65H66.9695V58.61H51.2195ZM67.3745 39.35L58.1495 53.12H67.3745V39.35Z" fill="white"/>
</g>
<defs>
<clipPath id="clip0_5382_50647">
<rect width="100" height="100" fill="white"/>
</clipPath>
</defs>
</svg>
