<svg width="100" height="100" viewBox="0 0 100 100" fill="none" xmlns="http://www.w3.org/2000/svg">
<g clip-path="url(#clip0_5382_50648)">
<rect x="2" y="2" width="96" height="96" rx="48" fill="#E31C3D" stroke="white" stroke-width="4"/>
<path d="M44.475 37.64H29.895V45.335C30.525 44.555 31.425 43.925 32.595 43.445C33.765 42.935 35.01 42.68 36.33 42.68C38.73 42.68 40.695 43.205 42.225 44.255C43.755 45.305 44.865 46.655 45.555 48.305C46.245 49.925 46.59 51.665 46.59 53.525C46.59 56.975 45.6 59.75 43.62 61.85C41.67 63.95 38.88 65 35.25 65C31.83 65 29.1 64.145 27.06 62.435C25.02 60.725 23.865 58.49 23.595 55.73H29.715C29.985 56.93 30.585 57.89 31.515 58.61C32.475 59.33 33.69 59.69 35.16 59.69C36.93 59.69 38.265 59.135 39.165 58.025C40.065 56.915 40.515 55.445 40.515 53.615C40.515 51.755 40.05 50.345 39.12 49.385C38.22 48.395 36.885 47.9 35.115 47.9C33.855 47.9 32.805 48.215 31.965 48.845C31.125 49.475 30.525 50.315 30.165 51.365H24.135V32.105H44.475V37.64ZM73.435 37.64H58.855V45.335C59.485 44.555 60.385 43.925 61.555 43.445C62.725 42.935 63.97 42.68 65.29 42.68C67.69 42.68 69.655 43.205 71.185 44.255C72.715 45.305 73.825 46.655 74.515 48.305C75.205 49.925 75.55 51.665 75.55 53.525C75.55 56.975 74.56 59.75 72.58 61.85C70.63 63.95 67.84 65 64.21 65C60.79 65 58.06 64.145 56.02 62.435C53.98 60.725 52.825 58.49 52.555 55.73H58.675C58.945 56.93 59.545 57.89 60.475 58.61C61.435 59.33 62.65 59.69 64.12 59.69C65.89 59.69 67.225 59.135 68.125 58.025C69.025 56.915 69.475 55.445 69.475 53.615C69.475 51.755 69.01 50.345 68.08 49.385C67.18 48.395 65.845 47.9 64.075 47.9C62.815 47.9 61.765 48.215 60.925 48.845C60.085 49.475 59.485 50.315 59.125 51.365H53.095V32.105H73.435V37.64Z" fill="white"/>
</g>
<defs>
<clipPath id="clip0_5382_50648">
<rect width="100" height="100" fill="white"/>
</clipPath>
</defs>
</svg>
