<svg width="100" height="100" viewBox="0 0 100 100" fill="none" xmlns="http://www.w3.org/2000/svg">
<g clip-path="url(#clip0_5382_50649)">
<rect x="2" y="2" width="96" height="96" rx="48" fill="#E31C3D" stroke="white" stroke-width="4"/>
<path d="M44.5629 37.64H29.9829V45.335C30.6129 44.555 31.5129 43.925 32.6829 43.445C33.8529 42.935 35.0979 42.68 36.4179 42.68C38.8179 42.68 40.7829 43.205 42.3129 44.255C43.8429 45.305 44.9529 46.655 45.6429 48.305C46.3329 49.925 46.6779 51.665 46.6779 53.525C46.6779 56.975 45.6879 59.75 43.7079 61.85C41.7579 63.95 38.9679 65 35.3379 65C31.9179 65 29.1879 64.145 27.1479 62.435C25.1079 60.725 23.9529 58.49 23.6829 55.73H29.8029C30.0729 56.93 30.6729 57.89 31.6029 58.61C32.5629 59.33 33.7779 59.69 35.2479 59.69C37.0179 59.69 38.3529 59.135 39.2529 58.025C40.1529 56.915 40.6029 55.445 40.6029 53.615C40.6029 51.755 40.1379 50.345 39.2079 49.385C38.3079 48.395 36.9729 47.9 35.2029 47.9C33.9429 47.9 32.8929 48.215 32.0529 48.845C31.2129 49.475 30.6129 50.315 30.2529 51.365H24.2229V32.105H44.5629V37.64ZM68.4829 40.385C68.1829 39.125 67.6579 38.18 66.9079 37.55C66.1879 36.92 65.1379 36.605 63.7579 36.605C61.6879 36.605 60.1579 37.445 59.1679 39.125C58.2079 40.775 57.7129 43.475 57.6829 47.225C58.4029 46.025 59.4529 45.095 60.8329 44.435C62.2129 43.745 63.7129 43.4 65.3329 43.4C67.2829 43.4 69.0079 43.82 70.5079 44.66C72.0079 45.5 73.1779 46.73 74.0179 48.35C74.8579 49.94 75.2779 51.86 75.2779 54.11C75.2779 56.24 74.8429 58.145 73.9729 59.825C73.1329 61.475 71.8879 62.765 70.2379 63.695C68.5879 64.625 66.6229 65.09 64.3429 65.09C61.2229 65.09 58.7629 64.4 56.9629 63.02C55.1929 61.64 53.9479 59.72 53.2279 57.26C52.5379 54.77 52.1929 51.71 52.1929 48.08C52.1929 42.59 53.1379 38.45 55.0279 35.66C56.9179 32.84 59.9029 31.43 63.9829 31.43C67.1329 31.43 69.5779 32.285 71.3179 33.995C73.0579 35.705 74.0629 37.835 74.3329 40.385H68.4829ZM63.8929 48.575C62.3029 48.575 60.9679 49.04 59.8879 49.97C58.8079 50.9 58.2679 52.25 58.2679 54.02C58.2679 55.79 58.7629 57.185 59.7529 58.205C60.7729 59.225 62.1979 59.735 64.0279 59.735C65.6479 59.735 66.9229 59.24 67.8529 58.25C68.8129 57.26 69.2929 55.925 69.2929 54.245C69.2929 52.505 68.8279 51.125 67.8979 50.105C66.9979 49.085 65.6629 48.575 63.8929 48.575Z" fill="white"/>
</g>
<defs>
<clipPath id="clip0_5382_50649">
<rect width="100" height="100" fill="white"/>
</clipPath>
</defs>
</svg>
