<svg width="100" height="100" viewBox="0 0 100 100" fill="none" xmlns="http://www.w3.org/2000/svg">
<g clip-path="url(#clip0_5382_50650)">
<rect x="2" y="2" width="96" height="96" rx="48" fill="#E31C3D" stroke="white" stroke-width="4"/>
<path d="M46.6284 37.64H32.0484V45.335C32.6784 44.555 33.5784 43.925 34.7484 43.445C35.9184 42.935 37.1634 42.68 38.4834 42.68C40.8834 42.68 42.8484 43.205 44.3784 44.255C45.9084 45.305 47.0184 46.655 47.7084 48.305C48.3984 49.925 48.7434 51.665 48.7434 53.525C48.7434 56.975 47.7534 59.75 45.7734 61.85C43.8234 63.95 41.0334 65 37.4034 65C33.9834 65 31.2534 64.145 29.2134 62.435C27.1734 60.725 26.0184 58.49 25.7484 55.73H31.8684C32.1384 56.93 32.7384 57.89 33.6684 58.61C34.6284 59.33 35.8434 59.69 37.3134 59.69C39.0834 59.69 40.4184 59.135 41.3184 58.025C42.2184 56.915 42.6684 55.445 42.6684 53.615C42.6684 51.755 42.2034 50.345 41.2734 49.385C40.3734 48.395 39.0384 47.9 37.2684 47.9C36.0084 47.9 34.9584 48.215 34.1184 48.845C33.2784 49.475 32.6784 50.315 32.3184 51.365H26.2884V32.105H46.6284V37.64ZM74.4183 36.965L62.4483 65H56.0583L68.1183 37.685H52.7283V32.285H74.4183V36.965Z" fill="white"/>
</g>
<defs>
<clipPath id="clip0_5382_50650">
<rect width="100" height="100" fill="white"/>
</clipPath>
</defs>
</svg>
