<svg width="100" height="100" viewBox="0 0 100 100" fill="none" xmlns="http://www.w3.org/2000/svg">
<g clip-path="url(#clip0_5382_50651)">
<rect x="2" y="2" width="96" height="96" rx="48" fill="#E31C3D" stroke="white" stroke-width="4"/>
<path d="M44.497 37.64H29.917V45.335C30.547 44.555 31.447 43.925 32.617 43.445C33.787 42.935 35.032 42.68 36.352 42.68C38.752 42.68 40.717 43.205 42.247 44.255C43.777 45.305 44.887 46.655 45.577 48.305C46.267 49.925 46.612 51.665 46.612 53.525C46.612 56.975 45.622 59.75 43.642 61.85C41.692 63.95 38.902 65 35.272 65C31.852 65 29.122 64.145 27.082 62.435C25.042 60.725 23.887 58.49 23.617 55.73H29.737C30.007 56.93 30.607 57.89 31.537 58.61C32.497 59.33 33.712 59.69 35.182 59.69C36.952 59.69 38.287 59.135 39.187 58.025C40.087 56.915 40.537 55.445 40.537 53.615C40.537 51.755 40.072 50.345 39.142 49.385C38.242 48.395 36.907 47.9 35.137 47.9C33.877 47.9 32.827 48.215 31.987 48.845C31.147 49.475 30.547 50.315 30.187 51.365H24.157V32.105H44.497V37.64ZM56.897 47.63C53.897 46.07 52.397 43.655 52.397 40.385C52.397 38.765 52.802 37.295 53.612 35.975C54.452 34.625 55.697 33.56 57.347 32.78C59.027 31.97 61.067 31.565 63.467 31.565C65.867 31.565 67.892 31.97 69.542 32.78C71.222 33.56 72.467 34.625 73.277 35.975C74.117 37.295 74.537 38.765 74.537 40.385C74.537 42.035 74.132 43.49 73.322 44.75C72.512 45.98 71.432 46.94 70.082 47.63C71.732 48.35 73.022 49.4 73.952 50.78C74.882 52.16 75.347 53.795 75.347 55.685C75.347 57.725 74.822 59.51 73.772 61.04C72.752 62.54 71.342 63.695 69.542 64.505C67.742 65.315 65.717 65.72 63.467 65.72C61.217 65.72 59.192 65.315 57.392 64.505C55.622 63.695 54.212 62.54 53.162 61.04C52.142 59.51 51.632 57.725 51.632 55.685C51.632 53.795 52.097 52.16 53.027 50.78C53.957 49.37 55.247 48.32 56.897 47.63ZM68.417 41.285C68.417 39.815 67.967 38.675 67.067 37.865C66.197 37.055 64.997 36.65 63.467 36.65C61.967 36.65 60.767 37.055 59.867 37.865C58.997 38.675 58.562 39.83 58.562 41.33C58.562 42.68 59.012 43.76 59.912 44.57C60.842 45.38 62.027 45.785 63.467 45.785C64.907 45.785 66.092 45.38 67.022 44.57C67.952 43.73 68.417 42.635 68.417 41.285ZM63.467 50.375C61.757 50.375 60.362 50.81 59.282 51.68C58.232 52.55 57.707 53.795 57.707 55.415C57.707 56.915 58.217 58.145 59.237 59.105C60.287 60.035 61.697 60.5 63.467 60.5C65.237 60.5 66.632 60.02 67.652 59.06C68.672 58.1 69.182 56.885 69.182 55.415C69.182 53.825 68.657 52.595 67.607 51.725C66.557 50.825 65.177 50.375 63.467 50.375Z" fill="white"/>
</g>
<defs>
<clipPath id="clip0_5382_50651">
<rect width="100" height="100" fill="white"/>
</clipPath>
</defs>
</svg>
