<svg width="100" height="100" viewBox="0 0 100 100" fill="none" xmlns="http://www.w3.org/2000/svg">
<g clip-path="url(#clip0_5382_50652)">
<rect x="2" y="2" width="96" height="96" rx="48" fill="#E31C3D" stroke="white" stroke-width="4"/>
<path d="M44.8705 37.64H30.2905V45.335C30.9205 44.555 31.8205 43.925 32.9905 43.445C34.1605 42.935 35.4055 42.68 36.7255 42.68C39.1255 42.68 41.0905 43.205 42.6205 44.255C44.1505 45.305 45.2605 46.655 45.9505 48.305C46.6405 49.925 46.9855 51.665 46.9855 53.525C46.9855 56.975 45.9955 59.75 44.0155 61.85C42.0655 63.95 39.2755 65 35.6455 65C32.2255 65 29.4955 64.145 27.4555 62.435C25.4155 60.725 24.2605 58.49 23.9905 55.73H30.1105C30.3805 56.93 30.9805 57.89 31.9105 58.61C32.8705 59.33 34.0855 59.69 35.5555 59.69C37.3255 59.69 38.6605 59.135 39.5605 58.025C40.4605 56.915 40.9105 55.445 40.9105 53.615C40.9105 51.755 40.4455 50.345 39.5155 49.385C38.6155 48.395 37.2805 47.9 35.5105 47.9C34.2505 47.9 33.2005 48.215 32.3605 48.845C31.5205 49.475 30.9205 50.315 30.5605 51.365H24.5305V32.105H44.8705V37.64ZM59.0705 55.775C59.3105 57.095 59.8505 58.115 60.6905 58.835C61.5605 59.525 62.7155 59.87 64.1555 59.87C66.0155 59.87 67.3655 59.105 68.2055 57.575C69.0455 56.015 69.4655 53.405 69.4655 49.745C68.7755 50.705 67.8005 51.455 66.5405 51.995C65.3105 52.535 63.9755 52.805 62.5355 52.805C60.6155 52.805 58.8755 52.415 57.3155 51.635C55.7855 50.825 54.5705 49.64 53.6705 48.08C52.7705 46.49 52.3205 44.57 52.3205 42.32C52.3205 38.99 53.3105 36.35 55.2905 34.4C57.2705 32.42 59.9705 31.43 63.3905 31.43C67.6505 31.43 70.6505 32.795 72.3905 35.525C74.1605 38.255 75.0455 42.365 75.0455 47.855C75.0455 51.755 74.7005 54.95 74.0105 57.44C73.3505 59.93 72.1955 61.82 70.5455 63.11C68.9255 64.4 66.7055 65.045 63.8855 65.045C61.6655 65.045 59.7755 64.625 58.2155 63.785C56.6555 62.915 55.4555 61.79 54.6155 60.41C53.8055 59 53.3405 57.455 53.2205 55.775H59.0705ZM63.8405 47.675C65.4005 47.675 66.6305 47.195 67.5305 46.235C68.4305 45.275 68.8805 43.985 68.8805 42.365C68.8805 40.595 68.4005 39.23 67.4405 38.27C66.5105 37.28 65.2355 36.785 63.6155 36.785C61.9955 36.785 60.7055 37.295 59.7455 38.315C58.8155 39.305 58.3505 40.625 58.3505 42.275C58.3505 43.865 58.8005 45.17 59.7005 46.19C60.6305 47.18 62.0105 47.675 63.8405 47.675Z" fill="white"/>
</g>
<defs>
<clipPath id="clip0_5382_50652">
<rect width="100" height="100" fill="white"/>
</clipPath>
</defs>
</svg>
