<svg width="100" height="100" viewBox="0 0 100 100" fill="none" xmlns="http://www.w3.org/2000/svg">
<rect x="2" y="2" width="96" height="96" rx="48" fill="#FF6104"/>
<rect x="2" y="2" width="96" height="96" rx="48" stroke="white" stroke-width="4"/>
<path d="M55.0029 41.385C54.7029 40.125 54.1779 39.18 53.4279 38.55C52.7079 37.92 51.6579 37.605 50.2779 37.605C48.2079 37.605 46.6779 38.445 45.6879 40.125C44.7279 41.775 44.2329 44.475 44.2029 48.225C44.9229 47.025 45.9729 46.095 47.3529 45.435C48.7329 44.745 50.2329 44.4 51.8529 44.4C53.8029 44.4 55.5279 44.82 57.0279 45.66C58.5279 46.5 59.6979 47.73 60.5379 49.35C61.3779 50.94 61.7979 52.86 61.7979 55.11C61.7979 57.24 61.3629 59.145 60.4929 60.825C59.6529 62.475 58.4079 63.765 56.7579 64.695C55.1079 65.625 53.1429 66.09 50.8629 66.09C47.7429 66.09 45.2829 65.4 43.4829 64.02C41.7129 62.64 40.4679 60.72 39.7479 58.26C39.0579 55.77 38.7129 52.71 38.7129 49.08C38.7129 43.59 39.6579 39.45 41.5479 36.66C43.4379 33.84 46.4229 32.43 50.5029 32.43C53.6529 32.43 56.0979 33.285 57.8379 34.995C59.5779 36.705 60.5829 38.835 60.8529 41.385H55.0029ZM50.4129 49.575C48.8229 49.575 47.4879 50.04 46.4079 50.97C45.3279 51.9 44.7879 53.25 44.7879 55.02C44.7879 56.79 45.2829 58.185 46.2729 59.205C47.2929 60.225 48.7179 60.735 50.5479 60.735C52.1679 60.735 53.4429 60.24 54.3729 59.25C55.3329 58.26 55.8129 56.925 55.8129 55.245C55.8129 53.505 55.3479 52.125 54.4179 51.105C53.5179 50.085 52.1829 49.575 50.4129 49.575Z" fill="white"/>
</svg>
