<svg width="100" height="100" viewBox="0 0 100 100" fill="none" xmlns="http://www.w3.org/2000/svg">
<g clip-path="url(#clip0_5382_50653)">
<rect x="2" y="2" width="96" height="96" rx="48" fill="#E31C3D" stroke="white" stroke-width="4"/>
<path d="M39.457 40.385C39.157 39.125 38.632 38.18 37.882 37.55C37.162 36.92 36.112 36.605 34.732 36.605C32.662 36.605 31.132 37.445 30.142 39.125C29.182 40.775 28.687 43.475 28.657 47.225C29.377 46.025 30.427 45.095 31.807 44.435C33.187 43.745 34.687 43.4 36.307 43.4C38.257 43.4 39.982 43.82 41.482 44.66C42.982 45.5 44.152 46.73 44.992 48.35C45.832 49.94 46.252 51.86 46.252 54.11C46.252 56.24 45.817 58.145 44.947 59.825C44.107 61.475 42.862 62.765 41.212 63.695C39.562 64.625 37.597 65.09 35.317 65.09C32.197 65.09 29.737 64.4 27.937 63.02C26.167 61.64 24.922 59.72 24.202 57.26C23.512 54.77 23.167 51.71 23.167 48.08C23.167 42.59 24.112 38.45 26.002 35.66C27.892 32.84 30.877 31.43 34.957 31.43C38.107 31.43 40.552 32.285 42.292 33.995C44.032 35.705 45.037 37.835 45.307 40.385H39.457ZM34.867 48.575C33.277 48.575 31.942 49.04 30.862 49.97C29.782 50.9 29.242 52.25 29.242 54.02C29.242 55.79 29.737 57.185 30.727 58.205C31.747 59.225 33.172 59.735 35.002 59.735C36.622 59.735 37.897 59.24 38.827 58.25C39.787 57.26 40.267 55.925 40.267 54.245C40.267 52.505 39.802 51.125 38.872 50.105C37.972 49.085 36.637 48.575 34.867 48.575ZM51.2312 48.17C51.2312 42.98 52.1612 38.915 54.0212 35.975C55.9112 33.035 59.0312 31.565 63.3812 31.565C67.7312 31.565 70.8362 33.035 72.6962 35.975C74.5862 38.915 75.5312 42.98 75.5312 48.17C75.5312 53.39 74.5862 57.485 72.6962 60.455C70.8362 63.425 67.7312 64.91 63.3812 64.91C59.0312 64.91 55.9112 63.425 54.0212 60.455C52.1612 57.485 51.2312 53.39 51.2312 48.17ZM69.3212 48.17C69.3212 45.95 69.1712 44.09 68.8712 42.59C68.6012 41.06 68.0312 39.815 67.1612 38.855C66.3212 37.895 65.0612 37.415 63.3812 37.415C61.7012 37.415 60.4262 37.895 59.5562 38.855C58.7162 39.815 58.1462 41.06 57.8462 42.59C57.5762 44.09 57.4412 45.95 57.4412 48.17C57.4412 50.45 57.5762 52.37 57.8462 53.93C58.1162 55.46 58.6862 56.705 59.5562 57.665C60.4262 58.595 61.7012 59.06 63.3812 59.06C65.0612 59.06 66.3362 58.595 67.2062 57.665C68.0762 56.705 68.6462 55.46 68.9162 53.93C69.1862 52.37 69.3212 50.45 69.3212 48.17Z" fill="white"/>
</g>
<defs>
<clipPath id="clip0_5382_50653">
<rect width="100" height="100" fill="white"/>
</clipPath>
</defs>
</svg>
