<svg width="100" height="100" viewBox="0 0 100 100" fill="none" xmlns="http://www.w3.org/2000/svg">
<g clip-path="url(#clip0_5382_50654)">
<rect x="2" y="2" width="96" height="96" rx="48" fill="#E31C3D" stroke="white" stroke-width="4"/>
<path d="M45.8511 40.385C45.5511 39.125 45.0261 38.18 44.2761 37.55C43.5561 36.92 42.5061 36.605 41.1261 36.605C39.0561 36.605 37.5261 37.445 36.5361 39.125C35.5761 40.775 35.0811 43.475 35.0511 47.225C35.7711 46.025 36.8211 45.095 38.2011 44.435C39.5811 43.745 41.0811 43.4 42.7011 43.4C44.6511 43.4 46.3761 43.82 47.8761 44.66C49.3761 45.5 50.5461 46.73 51.3861 48.35C52.2261 49.94 52.6461 51.86 52.6461 54.11C52.6461 56.24 52.2111 58.145 51.3411 59.825C50.5011 61.475 49.2561 62.765 47.6061 63.695C45.9561 64.625 43.9911 65.09 41.7111 65.09C38.5911 65.09 36.1311 64.4 34.3311 63.02C32.5611 61.64 31.3161 59.72 30.5961 57.26C29.9061 54.77 29.5611 51.71 29.5611 48.08C29.5611 42.59 30.5061 38.45 32.3961 35.66C34.2861 32.84 37.2711 31.43 41.3511 31.43C44.5011 31.43 46.9461 32.285 48.6861 33.995C50.4261 35.705 51.4311 37.835 51.7011 40.385H45.8511ZM41.2611 48.575C39.6711 48.575 38.3361 49.04 37.2561 49.97C36.1761 50.9 35.6361 52.25 35.6361 54.02C35.6361 55.79 36.1311 57.185 37.1211 58.205C38.1411 59.225 39.5661 59.735 41.3961 59.735C43.0161 59.735 44.2911 59.24 45.2211 58.25C46.1811 57.26 46.6611 55.925 46.6611 54.245C46.6611 52.505 46.1961 51.125 45.2661 50.105C44.3661 49.085 43.0311 48.575 41.2611 48.575ZM56.8602 38V32.195H67.7052V65H61.2252V38H56.8602Z" fill="white"/>
</g>
<defs>
<clipPath id="clip0_5382_50654">
<rect width="100" height="100" fill="white"/>
</clipPath>
</defs>
</svg>
