<svg width="100" height="100" viewBox="0 0 100 100" fill="none" xmlns="http://www.w3.org/2000/svg">
<g clip-path="url(#clip0_5382_50655)">
<rect x="2" y="2" width="96" height="96" rx="48" fill="#E31C3D" stroke="white" stroke-width="4"/>
<path d="M41.583 40.385C41.283 39.125 40.758 38.18 40.008 37.55C39.288 36.92 38.238 36.605 36.858 36.605C34.788 36.605 33.258 37.445 32.268 39.125C31.308 40.775 30.813 43.475 30.783 47.225C31.503 46.025 32.553 45.095 33.933 44.435C35.313 43.745 36.813 43.4 38.433 43.4C40.383 43.4 42.108 43.82 43.608 44.66C45.108 45.5 46.278 46.73 47.118 48.35C47.958 49.94 48.378 51.86 48.378 54.11C48.378 56.24 47.943 58.145 47.073 59.825C46.233 61.475 44.988 62.765 43.338 63.695C41.688 64.625 39.723 65.09 37.443 65.09C34.323 65.09 31.863 64.4 30.063 63.02C28.293 61.64 27.048 59.72 26.328 57.26C25.638 54.77 25.293 51.71 25.293 48.08C25.293 42.59 26.238 38.45 28.128 35.66C30.018 32.84 33.003 31.43 37.083 31.43C40.233 31.43 42.678 32.285 44.418 33.995C46.158 35.705 47.163 37.835 47.433 40.385H41.583ZM36.993 48.575C35.403 48.575 34.068 49.04 32.988 49.97C31.908 50.9 31.368 52.25 31.368 54.02C31.368 55.79 31.863 57.185 32.853 58.205C33.873 59.225 35.298 59.735 37.128 59.735C38.748 59.735 40.023 59.24 40.953 58.25C41.913 57.26 42.393 55.925 42.393 54.245C42.393 52.505 41.928 51.125 40.998 50.105C40.098 49.085 38.763 48.575 36.993 48.575ZM55.3372 57.89C58.2172 55.49 60.5122 53.495 62.2222 51.905C63.9322 50.285 65.3572 48.605 66.4972 46.865C67.6372 45.125 68.2072 43.415 68.2072 41.735C68.2072 40.205 67.8472 39.005 67.1272 38.135C66.4072 37.265 65.2972 36.83 63.7972 36.83C62.2972 36.83 61.1422 37.34 60.3322 38.36C59.5222 39.35 59.1022 40.715 59.0722 42.455H52.9522C53.0722 38.855 54.1372 36.125 56.1472 34.265C58.1872 32.405 60.7672 31.475 63.8872 31.475C67.3072 31.475 69.9322 32.39 71.7622 34.22C73.5922 36.02 74.5072 38.405 74.5072 41.375C74.5072 43.715 73.8772 45.95 72.6172 48.08C71.3572 50.21 69.9172 52.07 68.2972 53.66C66.6772 55.22 64.5622 57.11 61.9522 59.33H75.2272V64.55H52.9972V59.87L55.3372 57.89Z" fill="white"/>
</g>
<defs>
<clipPath id="clip0_5382_50655">
<rect width="100" height="100" fill="white"/>
</clipPath>
</defs>
</svg>
