<svg width="100" height="100" viewBox="0 0 100 100" fill="none" xmlns="http://www.w3.org/2000/svg">
<g clip-path="url(#clip0_5382_50656)">
<rect x="2" y="2" width="96" height="96" rx="48" fill="#E31C3D" stroke="white" stroke-width="4"/>
<path d="M40.5337 40.385C40.2337 39.125 39.7087 38.18 38.9587 37.55C38.2387 36.92 37.1887 36.605 35.8087 36.605C33.7387 36.605 32.2087 37.445 31.2187 39.125C30.2587 40.775 29.7637 43.475 29.7337 47.225C30.4537 46.025 31.5037 45.095 32.8837 44.435C34.2637 43.745 35.7637 43.4 37.3837 43.4C39.3337 43.4 41.0587 43.82 42.5587 44.66C44.0587 45.5 45.2287 46.73 46.0687 48.35C46.9087 49.94 47.3287 51.86 47.3287 54.11C47.3287 56.24 46.8937 58.145 46.0237 59.825C45.1837 61.475 43.9387 62.765 42.2887 63.695C40.6387 64.625 38.6737 65.09 36.3937 65.09C33.2737 65.09 30.8137 64.4 29.0137 63.02C27.2437 61.64 25.9987 59.72 25.2787 57.26C24.5887 54.77 24.2437 51.71 24.2437 48.08C24.2437 42.59 25.1887 38.45 27.0787 35.66C28.9687 32.84 31.9537 31.43 36.0337 31.43C39.1837 31.43 41.6287 32.285 43.3687 33.995C45.1087 35.705 46.1137 37.835 46.3837 40.385H40.5337ZM35.9437 48.575C34.3537 48.575 33.0187 49.04 31.9387 49.97C30.8587 50.9 30.3187 52.25 30.3187 54.02C30.3187 55.79 30.8137 57.185 31.8037 58.205C32.8237 59.225 34.2487 59.735 36.0787 59.735C37.6987 59.735 38.9737 59.24 39.9037 58.25C40.8637 57.26 41.3437 55.925 41.3437 54.245C41.3437 52.505 40.8787 51.125 39.9487 50.105C39.0487 49.085 37.7137 48.575 35.9437 48.575ZM52.3979 40.835C52.5479 37.835 53.5979 35.525 55.5479 33.905C57.5279 32.255 60.1229 31.43 63.3329 31.43C65.5229 31.43 67.3979 31.82 68.9579 32.6C70.5179 33.35 71.6879 34.385 72.4679 35.705C73.2779 36.995 73.6829 38.465 73.6829 40.115C73.6829 42.005 73.1879 43.61 72.1979 44.93C71.2379 46.22 70.0829 47.09 68.7329 47.54V47.72C70.4729 48.26 71.8229 49.22 72.7829 50.6C73.7729 51.98 74.2679 53.75 74.2679 55.91C74.2679 57.71 73.8479 59.315 73.0079 60.725C72.1979 62.135 70.9829 63.245 69.3629 64.055C67.7729 64.835 65.8529 65.225 63.6029 65.225C60.2129 65.225 57.4529 64.37 55.3229 62.66C53.1929 60.95 52.0679 58.43 51.9479 55.1H58.0679C58.1279 56.57 58.6229 57.755 59.5529 58.655C60.5129 59.525 61.8179 59.96 63.4679 59.96C64.9979 59.96 66.1679 59.54 66.9779 58.7C67.8179 57.83 68.2379 56.72 68.2379 55.37C68.2379 53.57 67.6679 52.28 66.5279 51.5C65.3879 50.72 63.6179 50.33 61.2179 50.33H59.9129V45.155H61.2179C65.4779 45.155 67.6079 43.73 67.6079 40.88C67.6079 39.59 67.2179 38.585 66.4379 37.865C65.6879 37.145 64.5929 36.785 63.1529 36.785C61.7429 36.785 60.6479 37.175 59.8679 37.955C59.1179 38.705 58.6829 39.665 58.5629 40.835H52.3979Z" fill="white"/>
</g>
<defs>
<clipPath id="clip0_5382_50656">
<rect width="100" height="100" fill="white"/>
</clipPath>
</defs>
</svg>
