<svg width="100" height="100" viewBox="0 0 100 100" fill="none" xmlns="http://www.w3.org/2000/svg">
<g clip-path="url(#clip0_5382_50657)">
<rect x="2" y="2" width="96" height="96" rx="48" fill="#E31C3D" stroke="white" stroke-width="4"/>
<path d="M39.6274 40.385C39.3274 39.125 38.8024 38.18 38.0524 37.55C37.3324 36.92 36.2824 36.605 34.9024 36.605C32.8324 36.605 31.3024 37.445 30.3124 39.125C29.3524 40.775 28.8574 43.475 28.8274 47.225C29.5474 46.025 30.5974 45.095 31.9774 44.435C33.3574 43.745 34.8574 43.4 36.4774 43.4C38.4274 43.4 40.1524 43.82 41.6524 44.66C43.1524 45.5 44.3224 46.73 45.1624 48.35C46.0024 49.94 46.4224 51.86 46.4224 54.11C46.4224 56.24 45.9874 58.145 45.1174 59.825C44.2774 61.475 43.0324 62.765 41.3824 63.695C39.7324 64.625 37.7674 65.09 35.4874 65.09C32.3674 65.09 29.9074 64.4 28.1074 63.02C26.3374 61.64 25.0924 59.72 24.3724 57.26C23.6824 54.77 23.3374 51.71 23.3374 48.08C23.3374 42.59 24.2824 38.45 26.1724 35.66C28.0624 32.84 31.0474 31.43 35.1274 31.43C38.2774 31.43 40.7224 32.285 42.4624 33.995C44.2024 35.705 45.2074 37.835 45.4774 40.385H39.6274ZM35.0374 48.575C33.4474 48.575 32.1124 49.04 31.0324 49.97C29.9524 50.9 29.4124 52.25 29.4124 54.02C29.4124 55.79 29.9074 57.185 30.8974 58.205C31.9174 59.225 33.3424 59.735 35.1724 59.735C36.7924 59.735 38.0674 59.24 38.9974 58.25C39.9574 57.26 40.4374 55.925 40.4374 54.245C40.4374 52.505 39.9724 51.125 39.0424 50.105C38.1424 49.085 36.8074 48.575 35.0374 48.575ZM51.1316 58.61V53.66L65.8466 32.6H73.1816V53.12H77.1416V58.61H73.1816V65H66.8816V58.61H51.1316ZM67.2866 39.35L58.0616 53.12H67.2866V39.35Z" fill="white"/>
</g>
<defs>
<clipPath id="clip0_5382_50657">
<rect width="100" height="100" fill="white"/>
</clipPath>
</defs>
</svg>
