<svg width="100" height="100" viewBox="0 0 100 100" fill="none" xmlns="http://www.w3.org/2000/svg">
<g clip-path="url(#clip0_5382_50658)">
<rect x="2" y="2" width="96" height="96" rx="48" fill="#E31C3D" stroke="white" stroke-width="4"/>
<path d="M39.5229 40.385C39.2229 39.125 38.6979 38.18 37.9479 37.55C37.2279 36.92 36.1779 36.605 34.7979 36.605C32.7279 36.605 31.1979 37.445 30.2079 39.125C29.2479 40.775 28.7529 43.475 28.7229 47.225C29.4429 46.025 30.4929 45.095 31.8729 44.435C33.2529 43.745 34.7529 43.4 36.3729 43.4C38.3229 43.4 40.0479 43.82 41.5479 44.66C43.0479 45.5 44.2179 46.73 45.0579 48.35C45.8979 49.94 46.3179 51.86 46.3179 54.11C46.3179 56.24 45.8829 58.145 45.0129 59.825C44.1729 61.475 42.9279 62.765 41.2779 63.695C39.6279 64.625 37.6629 65.09 35.3829 65.09C32.2629 65.09 29.8029 64.4 28.0029 63.02C26.2329 61.64 24.9879 59.72 24.2679 57.26C23.5779 54.77 23.2329 51.71 23.2329 48.08C23.2329 42.59 24.1779 38.45 26.0679 35.66C27.9579 32.84 30.9429 31.43 35.0229 31.43C38.1729 31.43 40.6179 32.285 42.3579 33.995C44.0979 35.705 45.1029 37.835 45.3729 40.385H39.5229ZM34.9329 48.575C33.3429 48.575 32.0079 49.04 30.9279 49.97C29.8479 50.9 29.3079 52.25 29.3079 54.02C29.3079 55.79 29.8029 57.185 30.7929 58.205C31.8129 59.225 33.2379 59.735 35.0679 59.735C36.6879 59.735 37.9629 59.24 38.8929 58.25C39.8529 57.26 40.3329 55.925 40.3329 54.245C40.3329 52.505 39.8679 51.125 38.9379 50.105C38.0379 49.085 36.7029 48.575 34.9329 48.575ZM73.3471 37.64H58.7671V45.335C59.3971 44.555 60.2971 43.925 61.4671 43.445C62.6371 42.935 63.8821 42.68 65.2021 42.68C67.6021 42.68 69.5671 43.205 71.0971 44.255C72.6271 45.305 73.7371 46.655 74.4271 48.305C75.1171 49.925 75.4621 51.665 75.4621 53.525C75.4621 56.975 74.4721 59.75 72.4921 61.85C70.5421 63.95 67.7521 65 64.1221 65C60.7021 65 57.9721 64.145 55.9321 62.435C53.8921 60.725 52.7371 58.49 52.4671 55.73H58.5871C58.8571 56.93 59.4571 57.89 60.3871 58.61C61.3471 59.33 62.5621 59.69 64.0321 59.69C65.8021 59.69 67.1371 59.135 68.0371 58.025C68.9371 56.915 69.3871 55.445 69.3871 53.615C69.3871 51.755 68.9221 50.345 67.9921 49.385C67.0921 48.395 65.7571 47.9 63.9871 47.9C62.7271 47.9 61.6771 48.215 60.8371 48.845C59.9971 49.475 59.3971 50.315 59.0371 51.365H53.0071V32.105H73.3471V37.64Z" fill="white"/>
</g>
<defs>
<clipPath id="clip0_5382_50658">
<rect width="100" height="100" fill="white"/>
</clipPath>
</defs>
</svg>
