<svg width="100" height="100" viewBox="0 0 100 100" fill="none" xmlns="http://www.w3.org/2000/svg">
<g clip-path="url(#clip0_5382_50659)">
<rect x="2" y="2" width="96" height="96" rx="48" fill="#E31C3D" stroke="white" stroke-width="4"/>
<path d="M39.6108 40.385C39.3108 39.125 38.7858 38.18 38.0358 37.55C37.3158 36.92 36.2658 36.605 34.8858 36.605C32.8158 36.605 31.2858 37.445 30.2958 39.125C29.3358 40.775 28.8408 43.475 28.8108 47.225C29.5308 46.025 30.5808 45.095 31.9608 44.435C33.3408 43.745 34.8408 43.4 36.4608 43.4C38.4108 43.4 40.1358 43.82 41.6358 44.66C43.1358 45.5 44.3058 46.73 45.1458 48.35C45.9858 49.94 46.4058 51.86 46.4058 54.11C46.4058 56.24 45.9708 58.145 45.1008 59.825C44.2608 61.475 43.0158 62.765 41.3658 63.695C39.7158 64.625 37.7508 65.09 35.4708 65.09C32.3508 65.09 29.8908 64.4 28.0908 63.02C26.3208 61.64 25.0758 59.72 24.3558 57.26C23.6658 54.77 23.3208 51.71 23.3208 48.08C23.3208 42.59 24.2658 38.45 26.1558 35.66C28.0458 32.84 31.0308 31.43 35.1108 31.43C38.2608 31.43 40.7058 32.285 42.4458 33.995C44.1858 35.705 45.1908 37.835 45.4608 40.385H39.6108ZM35.0208 48.575C33.4308 48.575 32.0958 49.04 31.0158 49.97C29.9358 50.9 29.3958 52.25 29.3958 54.02C29.3958 55.79 29.8908 57.185 30.8808 58.205C31.9008 59.225 33.3258 59.735 35.1558 59.735C36.7758 59.735 38.0508 59.24 38.9808 58.25C39.9408 57.26 40.4208 55.925 40.4208 54.245C40.4208 52.505 39.9558 51.125 39.0258 50.105C38.1258 49.085 36.7908 48.575 35.0208 48.575ZM68.395 40.385C68.095 39.125 67.57 38.18 66.82 37.55C66.1 36.92 65.05 36.605 63.67 36.605C61.6 36.605 60.07 37.445 59.08 39.125C58.12 40.775 57.625 43.475 57.595 47.225C58.315 46.025 59.365 45.095 60.745 44.435C62.125 43.745 63.625 43.4 65.245 43.4C67.195 43.4 68.92 43.82 70.42 44.66C71.92 45.5 73.09 46.73 73.93 48.35C74.77 49.94 75.19 51.86 75.19 54.11C75.19 56.24 74.755 58.145 73.885 59.825C73.045 61.475 71.8 62.765 70.15 63.695C68.5 64.625 66.535 65.09 64.255 65.09C61.135 65.09 58.675 64.4 56.875 63.02C55.105 61.64 53.86 59.72 53.14 57.26C52.45 54.77 52.105 51.71 52.105 48.08C52.105 42.59 53.05 38.45 54.94 35.66C56.83 32.84 59.815 31.43 63.895 31.43C67.045 31.43 69.49 32.285 71.23 33.995C72.97 35.705 73.975 37.835 74.245 40.385H68.395ZM63.805 48.575C62.215 48.575 60.88 49.04 59.8 49.97C58.72 50.9 58.18 52.25 58.18 54.02C58.18 55.79 58.675 57.185 59.665 58.205C60.685 59.225 62.11 59.735 63.94 59.735C65.56 59.735 66.835 59.24 67.765 58.25C68.725 57.26 69.205 55.925 69.205 54.245C69.205 52.505 68.74 51.125 67.81 50.105C66.91 49.085 65.575 48.575 63.805 48.575Z" fill="white"/>
</g>
<defs>
<clipPath id="clip0_5382_50659">
<rect width="100" height="100" fill="white"/>
</clipPath>
</defs>
</svg>
