<svg width="100" height="100" viewBox="0 0 100 100" fill="none" xmlns="http://www.w3.org/2000/svg">
<g clip-path="url(#clip0_5382_50660)">
<rect x="2" y="2" width="96" height="96" rx="48" fill="#E31C3D" stroke="white" stroke-width="4"/>
<path d="M41.6763 40.385C41.3763 39.125 40.8513 38.18 40.1013 37.55C39.3813 36.92 38.3313 36.605 36.9513 36.605C34.8813 36.605 33.3513 37.445 32.3613 39.125C31.4013 40.775 30.9063 43.475 30.8763 47.225C31.5963 46.025 32.6463 45.095 34.0263 44.435C35.4063 43.745 36.9063 43.4 38.5263 43.4C40.4763 43.4 42.2013 43.82 43.7013 44.66C45.2013 45.5 46.3713 46.73 47.2113 48.35C48.0513 49.94 48.4713 51.86 48.4713 54.11C48.4713 56.24 48.0363 58.145 47.1663 59.825C46.3263 61.475 45.0813 62.765 43.4313 63.695C41.7813 64.625 39.8163 65.09 37.5363 65.09C34.4163 65.09 31.9563 64.4 30.1563 63.02C28.3863 61.64 27.1413 59.72 26.4213 57.26C25.7313 54.77 25.3863 51.71 25.3863 48.08C25.3863 42.59 26.3313 38.45 28.2212 35.66C30.1113 32.84 33.0963 31.43 37.1763 31.43C40.3263 31.43 42.7713 32.285 44.5113 33.995C46.2513 35.705 47.2563 37.835 47.5263 40.385H41.6763ZM37.0863 48.575C35.4963 48.575 34.1613 49.04 33.0813 49.97C32.0013 50.9 31.4613 52.25 31.4613 54.02C31.4613 55.79 31.9563 57.185 32.9463 58.205C33.9663 59.225 35.3913 59.735 37.2213 59.735C38.8413 59.735 40.1163 59.24 41.0463 58.25C42.0063 57.26 42.4863 55.925 42.4863 54.245C42.4863 52.505 42.0213 51.125 41.0913 50.105C40.1913 49.085 38.8563 48.575 37.0863 48.575ZM74.3304 36.965L62.3604 65H55.9704L68.0304 37.685H52.6404V32.285H74.3304V36.965Z" fill="white"/>
</g>
<defs>
<clipPath id="clip0_5382_50660">
<rect width="100" height="100" fill="white"/>
</clipPath>
</defs>
</svg>
