<svg width="100" height="100" viewBox="0 0 100 100" fill="none" xmlns="http://www.w3.org/2000/svg">
<g clip-path="url(#clip0_5382_50661)">
<rect x="2" y="2" width="96" height="96" rx="48" fill="#E31C3D" stroke="white" stroke-width="4"/>
<path d="M39.5449 40.385C39.2449 39.125 38.7199 38.18 37.9699 37.55C37.2499 36.92 36.1999 36.605 34.8199 36.605C32.7499 36.605 31.2199 37.445 30.2299 39.125C29.2699 40.775 28.7749 43.475 28.7449 47.225C29.4649 46.025 30.5149 45.095 31.8949 44.435C33.2749 43.745 34.7749 43.4 36.3949 43.4C38.3449 43.4 40.0699 43.82 41.5699 44.66C43.0699 45.5 44.2399 46.73 45.0799 48.35C45.9199 49.94 46.3399 51.86 46.3399 54.11C46.3399 56.24 45.9049 58.145 45.0349 59.825C44.1949 61.475 42.9499 62.765 41.2999 63.695C39.6499 64.625 37.6849 65.09 35.4049 65.09C32.2849 65.09 29.8249 64.4 28.0249 63.02C26.2549 61.64 25.0099 59.72 24.2899 57.26C23.5999 54.77 23.2549 51.71 23.2549 48.08C23.2549 42.59 24.1999 38.45 26.0899 35.66C27.9799 32.84 30.9649 31.43 35.0449 31.43C38.1949 31.43 40.6399 32.285 42.3799 33.995C44.1199 35.705 45.1249 37.835 45.3949 40.385H39.5449ZM34.9549 48.575C33.3649 48.575 32.0299 49.04 30.9499 49.97C29.8699 50.9 29.3299 52.25 29.3299 54.02C29.3299 55.79 29.8249 57.185 30.8149 58.205C31.8349 59.225 33.2599 59.735 35.0899 59.735C36.7099 59.735 37.9849 59.24 38.9149 58.25C39.8749 57.26 40.3549 55.925 40.3549 54.245C40.3549 52.505 39.8899 51.125 38.9599 50.105C38.0599 49.085 36.7249 48.575 34.9549 48.575ZM56.8091 47.63C53.8091 46.07 52.3091 43.655 52.3091 40.385C52.3091 38.765 52.7141 37.295 53.5241 35.975C54.3641 34.625 55.6091 33.56 57.2591 32.78C58.9391 31.97 60.9791 31.565 63.3791 31.565C65.7791 31.565 67.8041 31.97 69.4541 32.78C71.1341 33.56 72.3791 34.625 73.1891 35.975C74.0291 37.295 74.4491 38.765 74.4491 40.385C74.4491 42.035 74.0441 43.49 73.2341 44.75C72.4241 45.98 71.3441 46.94 69.9941 47.63C71.6441 48.35 72.9341 49.4 73.8641 50.78C74.7941 52.16 75.2591 53.795 75.2591 55.685C75.2591 57.725 74.7341 59.51 73.6841 61.04C72.6641 62.54 71.2541 63.695 69.4541 64.505C67.6541 65.315 65.6291 65.72 63.3791 65.72C61.1291 65.72 59.1041 65.315 57.3041 64.505C55.5341 63.695 54.1241 62.54 53.0741 61.04C52.0541 59.51 51.5441 57.725 51.5441 55.685C51.5441 53.795 52.0091 52.16 52.9391 50.78C53.8691 49.37 55.1591 48.32 56.8091 47.63ZM68.3291 41.285C68.3291 39.815 67.8791 38.675 66.9791 37.865C66.1091 37.055 64.9091 36.65 63.3791 36.65C61.8791 36.65 60.6791 37.055 59.7791 37.865C58.9091 38.675 58.4741 39.83 58.4741 41.33C58.4741 42.68 58.9241 43.76 59.8241 44.57C60.7541 45.38 61.9391 45.785 63.3791 45.785C64.8191 45.785 66.0041 45.38 66.9341 44.57C67.8641 43.73 68.3291 42.635 68.3291 41.285ZM63.3791 50.375C61.6691 50.375 60.2741 50.81 59.1941 51.68C58.1441 52.55 57.6191 53.795 57.6191 55.415C57.6191 56.915 58.1291 58.145 59.1491 59.105C60.1991 60.035 61.6091 60.5 63.3791 60.5C65.1491 60.5 66.5441 60.02 67.5641 59.06C68.5841 58.1 69.0941 56.885 69.0941 55.415C69.0941 53.825 68.5691 52.595 67.5191 51.725C66.4691 50.825 65.0891 50.375 63.3791 50.375Z" fill="white"/>
</g>
<defs>
<clipPath id="clip0_5382_50661">
<rect width="100" height="100" fill="white"/>
</clipPath>
</defs>
</svg>
