<svg width="100" height="100" viewBox="0 0 100 100" fill="none" xmlns="http://www.w3.org/2000/svg">
<g clip-path="url(#clip0_5382_50662)">
<rect x="2" y="2" width="96" height="96" rx="48" fill="#E31C3D" stroke="white" stroke-width="4"/>
<path d="M40.4184 40.385C40.1184 39.125 39.5934 38.18 38.8434 37.55C38.1234 36.92 37.0734 36.605 35.6934 36.605C33.6234 36.605 32.0934 37.445 31.1034 39.125C30.1434 40.775 29.6484 43.475 29.6184 47.225C30.3384 46.025 31.3884 45.095 32.7684 44.435C34.1484 43.745 35.6484 43.4 37.2684 43.4C39.2184 43.4 40.9434 43.82 42.4434 44.66C43.9434 45.5 45.1134 46.73 45.9534 48.35C46.7934 49.94 47.2134 51.86 47.2134 54.11C47.2134 56.24 46.7784 58.145 45.9084 59.825C45.0684 61.475 43.8234 62.765 42.1734 63.695C40.5234 64.625 38.5584 65.09 36.2784 65.09C33.1584 65.09 30.6984 64.4 28.8984 63.02C27.1284 61.64 25.8834 59.72 25.1634 57.26C24.4734 54.77 24.1284 51.71 24.1284 48.08C24.1284 42.59 25.0734 38.45 26.9634 35.66C28.8534 32.84 31.8384 31.43 35.9184 31.43C39.0684 31.43 41.5134 32.285 43.2534 33.995C44.9934 35.705 45.9984 37.835 46.2684 40.385H40.4184ZM35.8284 48.575C34.2384 48.575 32.9034 49.04 31.8234 49.97C30.7434 50.9 30.2034 52.25 30.2034 54.02C30.2034 55.79 30.6984 57.185 31.6884 58.205C32.7084 59.225 34.1334 59.735 35.9634 59.735C37.5834 59.735 38.8584 59.24 39.7884 58.25C40.7484 57.26 41.2284 55.925 41.2284 54.245C41.2284 52.505 40.7634 51.125 39.8334 50.105C38.9334 49.085 37.5984 48.575 35.8284 48.575ZM59.4826 55.775C59.7226 57.095 60.2626 58.115 61.1026 58.835C61.9726 59.525 63.1276 59.87 64.5676 59.87C66.4276 59.87 67.7776 59.105 68.6176 57.575C69.4576 56.015 69.8776 53.405 69.8776 49.745C69.1876 50.705 68.2126 51.455 66.9526 51.995C65.7226 52.535 64.3876 52.805 62.9476 52.805C61.0276 52.805 59.2876 52.415 57.7276 51.635C56.1976 50.825 54.9826 49.64 54.0826 48.08C53.1826 46.49 52.7326 44.57 52.7326 42.32C52.7326 38.99 53.7226 36.35 55.7026 34.4C57.6826 32.42 60.3826 31.43 63.8026 31.43C68.0626 31.43 71.0626 32.795 72.8026 35.525C74.5726 38.255 75.4576 42.365 75.4576 47.855C75.4576 51.755 75.1126 54.95 74.4226 57.44C73.7626 59.93 72.6076 61.82 70.9576 63.11C69.3376 64.4 67.1176 65.045 64.2976 65.045C62.0776 65.045 60.1876 64.625 58.6276 63.785C57.0676 62.915 55.8676 61.79 55.0276 60.41C54.2176 59 53.7526 57.455 53.6326 55.775H59.4826ZM64.2526 47.675C65.8126 47.675 67.0426 47.195 67.9426 46.235C68.8426 45.275 69.2926 43.985 69.2926 42.365C69.2926 40.595 68.8126 39.23 67.8526 38.27C66.9226 37.28 65.6476 36.785 64.0276 36.785C62.4076 36.785 61.1176 37.295 60.1576 38.315C59.2276 39.305 58.7626 40.625 58.7626 42.275C58.7626 43.865 59.2126 45.17 60.1126 46.19C61.0426 47.18 62.4226 47.675 64.2526 47.675Z" fill="white"/>
</g>
<defs>
<clipPath id="clip0_5382_50662">
<rect width="100" height="100" fill="white"/>
</clipPath>
</defs>
</svg>
