<svg width="100" height="100" viewBox="0 0 100 100" fill="none" xmlns="http://www.w3.org/2000/svg">
<g clip-path="url(#clip0_5382_50663)">
<rect x="2" y="2" width="96" height="96" rx="48" fill="#E31C3D" stroke="white" stroke-width="4"/>
<path d="M45.3924 36.965L33.4224 65H27.0324L39.0924 37.685H23.7024V32.285H45.3924V36.965ZM49.1658 48.17C49.1658 42.98 50.0958 38.915 51.9558 35.975C53.8458 33.035 56.9658 31.565 61.3158 31.565C65.6658 31.565 68.7708 33.035 70.6308 35.975C72.5208 38.915 73.4658 42.98 73.4658 48.17C73.4658 53.39 72.5208 57.485 70.6308 60.455C68.7708 63.425 65.6658 64.91 61.3158 64.91C56.9658 64.91 53.8458 63.425 51.9558 60.455C50.0958 57.485 49.1658 53.39 49.1658 48.17ZM67.2558 48.17C67.2558 45.95 67.1058 44.09 66.8058 42.59C66.5358 41.06 65.9658 39.815 65.0958 38.855C64.2558 37.895 62.9958 37.415 61.3158 37.415C59.6358 37.415 58.3608 37.895 57.4908 38.855C56.6508 39.815 56.0808 41.06 55.7808 42.59C55.5108 44.09 55.3758 45.95 55.3758 48.17C55.3758 50.45 55.5108 52.37 55.7808 53.93C56.0508 55.46 56.6208 56.705 57.4908 57.665C58.3608 58.595 59.6358 59.06 61.3158 59.06C62.9958 59.06 64.2708 58.595 65.1408 57.665C66.0108 56.705 66.5808 55.46 66.8508 53.93C67.1208 52.37 67.2558 50.45 67.2558 48.17Z" fill="white"/>
</g>
<defs>
<clipPath id="clip0_5382_50663">
<rect width="100" height="100" fill="white"/>
</clipPath>
</defs>
</svg>
