<svg width="100" height="100" viewBox="0 0 100 100" fill="none" xmlns="http://www.w3.org/2000/svg">
<g clip-path="url(#clip0_5382_50665)">
<rect x="2" y="2" width="96" height="96" rx="48" fill="#E31C3D" stroke="white" stroke-width="4"/>
<path d="M47.5184 36.965L35.5484 65H29.1584L41.2184 37.685H25.8284V32.285H47.5184V36.965ZM53.2717 57.89C56.1517 55.49 58.4467 53.495 60.1567 51.905C61.8667 50.285 63.2917 48.605 64.4317 46.865C65.5717 45.125 66.1417 43.415 66.1417 41.735C66.1417 40.205 65.7817 39.005 65.0617 38.135C64.3417 37.265 63.2317 36.83 61.7317 36.83C60.2317 36.83 59.0767 37.34 58.2667 38.36C57.4567 39.35 57.0367 40.715 57.0067 42.455H50.8867C51.0067 38.855 52.0717 36.125 54.0817 34.265C56.1217 32.405 58.7017 31.475 61.8217 31.475C65.2417 31.475 67.8667 32.39 69.6967 34.22C71.5267 36.02 72.4417 38.405 72.4417 41.375C72.4417 43.715 71.8117 45.95 70.5517 48.08C69.2917 50.21 67.8517 52.07 66.2317 53.66C64.6117 55.22 62.4967 57.11 59.8867 59.33H73.1617V64.55H50.9317V59.87L53.2717 57.89Z" fill="white"/>
</g>
<defs>
<clipPath id="clip0_5382_50665">
<rect width="100" height="100" fill="white"/>
</clipPath>
</defs>
</svg>
