<svg width="100" height="100" viewBox="0 0 100 100" fill="none" xmlns="http://www.w3.org/2000/svg">
<g clip-path="url(#clip0_5382_50666)">
<rect x="2" y="2" width="96" height="96" rx="48" fill="#E31C3D" stroke="white" stroke-width="4"/>
<path d="M46.4691 36.965L34.4991 65H28.1091L40.1691 37.685H24.7791V32.285H46.4691V36.965ZM50.3324 40.835C50.4824 37.835 51.5324 35.525 53.4824 33.905C55.4624 32.255 58.0574 31.43 61.2674 31.43C63.4574 31.43 65.3324 31.82 66.8924 32.6C68.4524 33.35 69.6224 34.385 70.4024 35.705C71.2124 36.995 71.6174 38.465 71.6174 40.115C71.6174 42.005 71.1224 43.61 70.1324 44.93C69.1724 46.22 68.0174 47.09 66.6674 47.54V47.72C68.4074 48.26 69.7574 49.22 70.7174 50.6C71.7074 51.98 72.2024 53.75 72.2024 55.91C72.2024 57.71 71.7824 59.315 70.9424 60.725C70.1324 62.135 68.9174 63.245 67.2974 64.055C65.7074 64.835 63.7874 65.225 61.5374 65.225C58.1474 65.225 55.3874 64.37 53.2574 62.66C51.1274 60.95 50.0024 58.43 49.8824 55.1H56.0024C56.0624 56.57 56.5574 57.755 57.4874 58.655C58.4474 59.525 59.7524 59.96 61.4024 59.96C62.9324 59.96 64.1024 59.54 64.9124 58.7C65.7524 57.83 66.1724 56.72 66.1724 55.37C66.1724 53.57 65.6024 52.28 64.4624 51.5C63.3224 50.72 61.5524 50.33 59.1524 50.33H57.8474V45.155H59.1524C63.4124 45.155 65.5424 43.73 65.5424 40.88C65.5424 39.59 65.1524 38.585 64.3724 37.865C63.6224 37.145 62.5274 36.785 61.0874 36.785C59.6774 36.785 58.5824 37.175 57.8024 37.955C57.0524 38.705 56.6174 39.665 56.4974 40.835H50.3324Z" fill="white"/>
</g>
<defs>
<clipPath id="clip0_5382_50666">
<rect width="100" height="100" fill="white"/>
</clipPath>
</defs>
</svg>
