<svg width="100" height="100" viewBox="0 0 100 100" fill="none" xmlns="http://www.w3.org/2000/svg">
<g clip-path="url(#clip0_5382_50668)">
<rect x="2" y="2" width="96" height="96" rx="48" fill="#E31C3D" stroke="white" stroke-width="4"/>
<path d="M45.4584 36.965L33.4884 65H27.0984L39.1584 37.685H23.7684V32.285H45.4584V36.965ZM71.2817 37.64H56.7017V45.335C57.3317 44.555 58.2317 43.925 59.4017 43.445C60.5717 42.935 61.8167 42.68 63.1367 42.68C65.5367 42.68 67.5017 43.205 69.0317 44.255C70.5617 45.305 71.6717 46.655 72.3617 48.305C73.0517 49.925 73.3967 51.665 73.3967 53.525C73.3967 56.975 72.4067 59.75 70.4267 61.85C68.4767 63.95 65.6867 65 62.0567 65C58.6367 65 55.9067 64.145 53.8667 62.435C51.8267 60.725 50.6717 58.49 50.4017 55.73H56.5217C56.7917 56.93 57.3917 57.89 58.3217 58.61C59.2817 59.33 60.4967 59.69 61.9667 59.69C63.7367 59.69 65.0717 59.135 65.9717 58.025C66.8717 56.915 67.3217 55.445 67.3217 53.615C67.3217 51.755 66.8567 50.345 65.9267 49.385C65.0267 48.395 63.6917 47.9 61.9217 47.9C60.6617 47.9 59.6117 48.215 58.7717 48.845C57.9317 49.475 57.3317 50.315 56.9717 51.365H50.9417V32.105H71.2817V37.64Z" fill="white"/>
</g>
<defs>
<clipPath id="clip0_5382_50668">
<rect width="100" height="100" fill="white"/>
</clipPath>
</defs>
</svg>
