<svg width="100" height="100" viewBox="0 0 100 100" fill="none" xmlns="http://www.w3.org/2000/svg">
<g clip-path="url(#clip0_5382_50669)">
<rect x="2" y="2" width="96" height="96" rx="48" fill="#E31C3D" stroke="white" stroke-width="4"/>
<path d="M45.5463 36.965L33.5763 65H27.1863L39.2463 37.685H23.8563V32.285H45.5463V36.965ZM66.3296 40.385C66.0296 39.125 65.5046 38.18 64.7546 37.55C64.0346 36.92 62.9846 36.605 61.6046 36.605C59.5346 36.605 58.0046 37.445 57.0146 39.125C56.0546 40.775 55.5596 43.475 55.5296 47.225C56.2496 46.025 57.2996 45.095 58.6796 44.435C60.0596 43.745 61.5596 43.4 63.1796 43.4C65.1296 43.4 66.8546 43.82 68.3546 44.66C69.8546 45.5 71.0246 46.73 71.8646 48.35C72.7046 49.94 73.1246 51.86 73.1246 54.11C73.1246 56.24 72.6896 58.145 71.8196 59.825C70.9796 61.475 69.7346 62.765 68.0846 63.695C66.4346 64.625 64.4696 65.09 62.1896 65.09C59.0696 65.09 56.6096 64.4 54.8096 63.02C53.0396 61.64 51.7946 59.72 51.0746 57.26C50.3846 54.77 50.0396 51.71 50.0396 48.08C50.0396 42.59 50.9846 38.45 52.8746 35.66C54.7646 32.84 57.7496 31.43 61.8296 31.43C64.9796 31.43 67.4246 32.285 69.1646 33.995C70.9046 35.705 71.9096 37.835 72.1796 40.385H66.3296ZM61.7396 48.575C60.1496 48.575 58.8146 49.04 57.7346 49.97C56.6546 50.9 56.1146 52.25 56.1146 54.02C56.1146 55.79 56.6096 57.185 57.5996 58.205C58.6196 59.225 60.0446 59.735 61.8746 59.735C63.4946 59.735 64.7696 59.24 65.6996 58.25C66.6596 57.26 67.1396 55.925 67.1396 54.245C67.1396 52.505 66.6746 51.125 65.7446 50.105C64.8446 49.085 63.5096 48.575 61.7396 48.575Z" fill="white"/>
</g>
<defs>
<clipPath id="clip0_5382_50669">
<rect width="100" height="100" fill="white"/>
</clipPath>
</defs>
</svg>
