<svg width="100" height="100" viewBox="0 0 100 100" fill="none" xmlns="http://www.w3.org/2000/svg">
<g clip-path="url(#clip0_5382_50671)">
<rect x="2" y="2" width="96" height="96" rx="48" fill="#E31C3D" stroke="white" stroke-width="4"/>
<path d="M45.4803 36.965L33.5103 65H27.1203L39.1803 37.685H23.7903V32.285H45.4803V36.965ZM54.7437 47.63C51.7437 46.07 50.2437 43.655 50.2437 40.385C50.2437 38.765 50.6487 37.295 51.4587 35.975C52.2987 34.625 53.5437 33.56 55.1937 32.78C56.8737 31.97 58.9137 31.565 61.3137 31.565C63.7137 31.565 65.7387 31.97 67.3887 32.78C69.0687 33.56 70.3137 34.625 71.1237 35.975C71.9637 37.295 72.3837 38.765 72.3837 40.385C72.3837 42.035 71.9787 43.49 71.1687 44.75C70.3587 45.98 69.2787 46.94 67.9287 47.63C69.5787 48.35 70.8687 49.4 71.7987 50.78C72.7287 52.16 73.1937 53.795 73.1937 55.685C73.1937 57.725 72.6687 59.51 71.6187 61.04C70.5987 62.54 69.1887 63.695 67.3887 64.505C65.5887 65.315 63.5637 65.72 61.3137 65.72C59.0637 65.72 57.0387 65.315 55.2387 64.505C53.4687 63.695 52.0587 62.54 51.0087 61.04C49.9887 59.51 49.4787 57.725 49.4787 55.685C49.4787 53.795 49.9437 52.16 50.8737 50.78C51.8037 49.37 53.0937 48.32 54.7437 47.63ZM66.2637 41.285C66.2637 39.815 65.8137 38.675 64.9137 37.865C64.0437 37.055 62.8437 36.65 61.3137 36.65C59.8137 36.65 58.6137 37.055 57.7137 37.865C56.8437 38.675 56.4087 39.83 56.4087 41.33C56.4087 42.68 56.8587 43.76 57.7587 44.57C58.6887 45.38 59.8737 45.785 61.3137 45.785C62.7537 45.785 63.9387 45.38 64.8687 44.57C65.7987 43.73 66.2637 42.635 66.2637 41.285ZM61.3137 50.375C59.6037 50.375 58.2087 50.81 57.1287 51.68C56.0787 52.55 55.5537 53.795 55.5537 55.415C55.5537 56.915 56.0637 58.145 57.0837 59.105C58.1337 60.035 59.5437 60.5 61.3137 60.5C63.0837 60.5 64.4787 60.02 65.4987 59.06C66.5187 58.1 67.0287 56.885 67.0287 55.415C67.0287 53.825 66.5037 52.595 65.4537 51.725C64.4037 50.825 63.0237 50.375 61.3137 50.375Z" fill="white"/>
</g>
<defs>
<clipPath id="clip0_5382_50671">
<rect width="100" height="100" fill="white"/>
</clipPath>
</defs>
</svg>
