<svg width="100" height="100" viewBox="0 0 100 100" fill="none" xmlns="http://www.w3.org/2000/svg">
<g clip-path="url(#clip0_5382_50672)">
<rect x="2" y="2" width="96" height="96" rx="48" fill="#E31C3D" stroke="white" stroke-width="4"/>
<path d="M46.3539 36.965L34.3839 65H27.9939L40.0539 37.685H24.6639V32.285H46.3539V36.965ZM57.4172 55.775C57.6572 57.095 58.1972 58.115 59.0372 58.835C59.9072 59.525 61.0622 59.87 62.5022 59.87C64.3622 59.87 65.7122 59.105 66.5522 57.575C67.3922 56.015 67.8122 53.405 67.8122 49.745C67.1222 50.705 66.1472 51.455 64.8872 51.995C63.6572 52.535 62.3222 52.805 60.8822 52.805C58.9622 52.805 57.2222 52.415 55.6622 51.635C54.1322 50.825 52.9172 49.64 52.0172 48.08C51.1172 46.49 50.6672 44.57 50.6672 42.32C50.6672 38.99 51.6572 36.35 53.6372 34.4C55.6172 32.42 58.3172 31.43 61.7372 31.43C65.9972 31.43 68.9972 32.795 70.7372 35.525C72.5072 38.255 73.3922 42.365 73.3922 47.855C73.3922 51.755 73.0472 54.95 72.3572 57.44C71.6972 59.93 70.5422 61.82 68.8922 63.11C67.2722 64.4 65.0522 65.045 62.2322 65.045C60.0122 65.045 58.1222 64.625 56.5622 63.785C55.0022 62.915 53.8022 61.79 52.9622 60.41C52.1522 59 51.6872 57.455 51.5672 55.775H57.4172ZM62.1872 47.675C63.7472 47.675 64.9772 47.195 65.8772 46.235C66.7772 45.275 67.2272 43.985 67.2272 42.365C67.2272 40.595 66.7472 39.23 65.7872 38.27C64.8572 37.28 63.5822 36.785 61.9622 36.785C60.3422 36.785 59.0522 37.295 58.0922 38.315C57.1622 39.305 56.6972 40.625 56.6972 42.275C56.6972 43.865 57.1472 45.17 58.0472 46.19C58.9772 47.18 60.3572 47.675 62.1872 47.675Z" fill="white"/>
</g>
<defs>
<clipPath id="clip0_5382_50672">
<rect width="100" height="100" fill="white"/>
</clipPath>
</defs>
</svg>
