<svg width="100" height="100" viewBox="0 0 100 100" fill="none" xmlns="http://www.w3.org/2000/svg">
<rect x="2" y="2" width="96" height="96" rx="48" fill="#FF6104"/>
<rect x="2" y="2" width="96" height="96" rx="48" stroke="white" stroke-width="4"/>
<path d="M43.417 48.63C40.417 47.07 38.917 44.655 38.917 41.385C38.917 39.765 39.322 38.295 40.132 36.975C40.972 35.625 42.217 34.56 43.867 33.78C45.547 32.97 47.587 32.565 49.987 32.565C52.387 32.565 54.412 32.97 56.062 33.78C57.742 34.56 58.987 35.625 59.797 36.975C60.637 38.295 61.057 39.765 61.057 41.385C61.057 43.035 60.652 44.49 59.842 45.75C59.032 46.98 57.952 47.94 56.602 48.63C58.252 49.35 59.542 50.4 60.472 51.78C61.402 53.16 61.867 54.795 61.867 56.685C61.867 58.725 61.342 60.51 60.292 62.04C59.272 63.54 57.862 64.695 56.062 65.505C54.262 66.315 52.237 66.72 49.987 66.72C47.737 66.72 45.712 66.315 43.912 65.505C42.142 64.695 40.732 63.54 39.682 62.04C38.662 60.51 38.152 58.725 38.152 56.685C38.152 54.795 38.617 53.16 39.547 51.78C40.477 50.37 41.767 49.32 43.417 48.63ZM54.937 42.285C54.937 40.815 54.487 39.675 53.587 38.865C52.717 38.055 51.517 37.65 49.987 37.65C48.487 37.65 47.287 38.055 46.387 38.865C45.517 39.675 45.082 40.83 45.082 42.33C45.082 43.68 45.532 44.76 46.432 45.57C47.362 46.38 48.547 46.785 49.987 46.785C51.427 46.785 52.612 46.38 53.542 45.57C54.472 44.73 54.937 43.635 54.937 42.285ZM49.987 51.375C48.277 51.375 46.882 51.81 45.802 52.68C44.752 53.55 44.227 54.795 44.227 56.415C44.227 57.915 44.737 59.145 45.757 60.105C46.807 61.035 48.217 61.5 49.987 61.5C51.757 61.5 53.152 61.02 54.172 60.06C55.192 59.1 55.702 57.885 55.702 56.415C55.702 54.825 55.177 53.595 54.127 52.725C53.077 51.825 51.697 51.375 49.987 51.375Z" fill="white"/>
</svg>
