<svg width="100" height="100" viewBox="0 0 100 100" fill="none" xmlns="http://www.w3.org/2000/svg">
<g clip-path="url(#clip0_5382_50673)">
<rect x="2" y="2" width="96" height="96" rx="48" fill="#E31C3D" stroke="white" stroke-width="4"/>
<path d="M28.3711 47.63C25.3711 46.07 23.8711 43.655 23.8711 40.385C23.8711 38.765 24.2761 37.295 25.0861 35.975C25.9261 34.625 27.1711 33.56 28.8211 32.78C30.5011 31.97 32.5411 31.565 34.9411 31.565C37.3411 31.565 39.3661 31.97 41.0161 32.78C42.6961 33.56 43.9411 34.625 44.7511 35.975C45.5911 37.295 46.0111 38.765 46.0111 40.385C46.0111 42.035 45.6061 43.49 44.7961 44.75C43.9861 45.98 42.9061 46.94 41.5561 47.63C43.2061 48.35 44.4961 49.4 45.4261 50.78C46.3561 52.16 46.8211 53.795 46.8211 55.685C46.8211 57.725 46.2961 59.51 45.2461 61.04C44.2261 62.54 42.8161 63.695 41.0161 64.505C39.2161 65.315 37.1911 65.72 34.9411 65.72C32.6911 65.72 30.6661 65.315 28.8661 64.505C27.0961 63.695 25.6861 62.54 24.6361 61.04C23.6161 59.51 23.1061 57.725 23.1061 55.685C23.1061 53.795 23.5711 52.16 24.5011 50.78C25.4311 49.37 26.7211 48.32 28.3711 47.63ZM39.8911 41.285C39.8911 39.815 39.4411 38.675 38.5411 37.865C37.6711 37.055 36.4711 36.65 34.9411 36.65C33.4411 36.65 32.2411 37.055 31.3411 37.865C30.4711 38.675 30.0361 39.83 30.0361 41.33C30.0361 42.68 30.4861 43.76 31.3861 44.57C32.3161 45.38 33.5011 45.785 34.9411 45.785C36.3811 45.785 37.5661 45.38 38.4961 44.57C39.4261 43.73 39.8911 42.635 39.8911 41.285ZM34.9411 50.375C33.2311 50.375 31.8361 50.81 30.7561 51.68C29.7061 52.55 29.1811 53.795 29.1811 55.415C29.1811 56.915 29.6911 58.145 30.7111 59.105C31.7611 60.035 33.1711 60.5 34.9411 60.5C36.7111 60.5 38.1061 60.02 39.1261 59.06C40.1461 58.1 40.6561 56.885 40.6561 55.415C40.6561 53.825 40.1311 52.595 39.0811 51.725C38.0311 50.825 36.6511 50.375 34.9411 50.375ZM51.7971 48.17C51.7971 42.98 52.7271 38.915 54.5871 35.975C56.4771 33.035 59.5971 31.565 63.9471 31.565C68.2971 31.565 71.4021 33.035 73.2621 35.975C75.1521 38.915 76.0971 42.98 76.0971 48.17C76.0971 53.39 75.1521 57.485 73.2621 60.455C71.4021 63.425 68.2971 64.91 63.9471 64.91C59.5971 64.91 56.4771 63.425 54.5871 60.455C52.7271 57.485 51.7971 53.39 51.7971 48.17ZM69.8871 48.17C69.8871 45.95 69.7371 44.09 69.4371 42.59C69.1671 41.06 68.5971 39.815 67.7271 38.855C66.8871 37.895 65.6271 37.415 63.9471 37.415C62.2671 37.415 60.9921 37.895 60.1221 38.855C59.2821 39.815 58.7121 41.06 58.4121 42.59C58.1421 44.09 58.0071 45.95 58.0071 48.17C58.0071 50.45 58.1421 52.37 58.4121 53.93C58.6821 55.46 59.2521 56.705 60.1221 57.665C60.9921 58.595 62.2671 59.06 63.9471 59.06C65.6271 59.06 66.9021 58.595 67.7721 57.665C68.6421 56.705 69.2121 55.46 69.4821 53.93C69.7521 52.37 69.8871 50.45 69.8871 48.17Z" fill="white"/>
</g>
<defs>
<clipPath id="clip0_5382_50673">
<rect width="100" height="100" fill="white"/>
</clipPath>
</defs>
</svg>
