<svg width="100" height="100" viewBox="0 0 100 100" fill="none" xmlns="http://www.w3.org/2000/svg">
<g clip-path="url(#clip0_5382_50674)">
<rect x="2" y="2" width="96" height="96" rx="48" fill="#E31C3D" stroke="white" stroke-width="4"/>
<path d="M34.2651 47.63C31.2651 46.07 29.7651 43.655 29.7651 40.385C29.7651 38.765 30.1701 37.295 30.9801 35.975C31.8201 34.625 33.0651 33.56 34.7151 32.78C36.3951 31.97 38.4351 31.565 40.8351 31.565C43.2351 31.565 45.2601 31.97 46.9101 32.78C48.5901 33.56 49.8351 34.625 50.6451 35.975C51.4851 37.295 51.9051 38.765 51.9051 40.385C51.9051 42.035 51.5001 43.49 50.6901 44.75C49.8801 45.98 48.8001 46.94 47.4501 47.63C49.1001 48.35 50.3901 49.4 51.3201 50.78C52.2501 52.16 52.7151 53.795 52.7151 55.685C52.7151 57.725 52.1901 59.51 51.1401 61.04C50.1201 62.54 48.7101 63.695 46.9101 64.505C45.1101 65.315 43.0851 65.72 40.8351 65.72C38.5851 65.72 36.5601 65.315 34.7601 64.505C32.9901 63.695 31.5801 62.54 30.5301 61.04C29.5101 59.51 29.0001 57.725 29.0001 55.685C29.0001 53.795 29.4651 52.16 30.3951 50.78C31.3251 49.37 32.6151 48.32 34.2651 47.63ZM45.7851 41.285C45.7851 39.815 45.3351 38.675 44.4351 37.865C43.5651 37.055 42.3651 36.65 40.8351 36.65C39.3351 36.65 38.1351 37.055 37.2351 37.865C36.3651 38.675 35.9301 39.83 35.9301 41.33C35.9301 42.68 36.3801 43.76 37.2801 44.57C38.2101 45.38 39.3951 45.785 40.8351 45.785C42.2751 45.785 43.4601 45.38 44.3901 44.57C45.3201 43.73 45.7851 42.635 45.7851 41.285ZM40.8351 50.375C39.1251 50.375 37.7301 50.81 36.6501 51.68C35.6001 52.55 35.0751 53.795 35.0751 55.415C35.0751 56.915 35.5851 58.145 36.6051 59.105C37.6551 60.035 39.0651 60.5 40.8351 60.5C42.6051 60.5 44.0001 60.02 45.0201 59.06C46.0401 58.1 46.5501 56.885 46.5501 55.415C46.5501 53.825 46.0251 52.595 44.9751 51.725C43.9251 50.825 42.5451 50.375 40.8351 50.375ZM56.9262 38V32.195H67.7712V65H61.2912V38H56.9262Z" fill="white"/>
</g>
<defs>
<clipPath id="clip0_5382_50674">
<rect width="100" height="100" fill="white"/>
</clipPath>
</defs>
</svg>
