<svg width="100" height="100" viewBox="0 0 100 100" fill="none" xmlns="http://www.w3.org/2000/svg">
<g clip-path="url(#clip0_5382_50675)">
<rect x="2" y="2" width="96" height="96" rx="48" fill="#E31C3D" stroke="white" stroke-width="4"/>
<path d="M29.9971 47.63C26.9971 46.07 25.4971 43.655 25.4971 40.385C25.4971 38.765 25.9021 37.295 26.7121 35.975C27.5521 34.625 28.7971 33.56 30.4471 32.78C32.1271 31.97 34.1671 31.565 36.5671 31.565C38.9671 31.565 40.9921 31.97 42.6421 32.78C44.3221 33.56 45.5671 34.625 46.3771 35.975C47.2171 37.295 47.6371 38.765 47.6371 40.385C47.6371 42.035 47.2321 43.49 46.4221 44.75C45.6121 45.98 44.5321 46.94 43.1821 47.63C44.8321 48.35 46.1221 49.4 47.0521 50.78C47.9821 52.16 48.4471 53.795 48.4471 55.685C48.4471 57.725 47.9221 59.51 46.8721 61.04C45.8521 62.54 44.4421 63.695 42.6421 64.505C40.8421 65.315 38.8171 65.72 36.5671 65.72C34.3171 65.72 32.2921 65.315 30.4921 64.505C28.7221 63.695 27.3121 62.54 26.2621 61.04C25.2421 59.51 24.7321 57.725 24.7321 55.685C24.7321 53.795 25.1971 52.16 26.1271 50.78C27.0571 49.37 28.3471 48.32 29.9971 47.63ZM41.5171 41.285C41.5171 39.815 41.0671 38.675 40.1671 37.865C39.2971 37.055 38.0971 36.65 36.5671 36.65C35.0671 36.65 33.8671 37.055 32.9671 37.865C32.0971 38.675 31.6621 39.83 31.6621 41.33C31.6621 42.68 32.1121 43.76 33.0121 44.57C33.9421 45.38 35.1271 45.785 36.5671 45.785C38.0071 45.785 39.1921 45.38 40.1221 44.57C41.0521 43.73 41.5171 42.635 41.5171 41.285ZM36.5671 50.375C34.8571 50.375 33.4621 50.81 32.3821 51.68C31.3321 52.55 30.8071 53.795 30.8071 55.415C30.8071 56.915 31.3171 58.145 32.3371 59.105C33.3871 60.035 34.7971 60.5 36.5671 60.5C38.3371 60.5 39.7321 60.02 40.7521 59.06C41.7721 58.1 42.2821 56.885 42.2821 55.415C42.2821 53.825 41.7571 52.595 40.7071 51.725C39.6571 50.825 38.2771 50.375 36.5671 50.375ZM55.4031 57.89C58.2831 55.49 60.5781 53.495 62.2881 51.905C63.9981 50.285 65.4231 48.605 66.5631 46.865C67.7031 45.125 68.2731 43.415 68.2731 41.735C68.2731 40.205 67.9131 39.005 67.1931 38.135C66.4731 37.265 65.3631 36.83 63.8631 36.83C62.3631 36.83 61.2081 37.34 60.3981 38.36C59.5881 39.35 59.1681 40.715 59.1381 42.455H53.0181C53.1381 38.855 54.2031 36.125 56.2131 34.265C58.2531 32.405 60.8331 31.475 63.9531 31.475C67.3731 31.475 69.9981 32.39 71.8281 34.22C73.6581 36.02 74.5731 38.405 74.5731 41.375C74.5731 43.715 73.9431 45.95 72.6831 48.08C71.4231 50.21 69.9831 52.07 68.3631 53.66C66.7431 55.22 64.6281 57.11 62.0181 59.33H75.2931V64.55H53.0631V59.87L55.4031 57.89Z" fill="white"/>
</g>
<defs>
<clipPath id="clip0_5382_50675">
<rect width="100" height="100" fill="white"/>
</clipPath>
</defs>
</svg>
