<svg width="100" height="100" viewBox="0 0 100 100" fill="none" xmlns="http://www.w3.org/2000/svg">
<g clip-path="url(#clip0_5382_50676)">
<rect x="2" y="2" width="96" height="96" rx="48" fill="#E31C3D" stroke="white" stroke-width="4"/>
<path d="M28.9478 47.63C25.9478 46.07 24.4478 43.655 24.4478 40.385C24.4478 38.765 24.8528 37.295 25.6628 35.975C26.5028 34.625 27.7478 33.56 29.3978 32.78C31.0778 31.97 33.1178 31.565 35.5178 31.565C37.9178 31.565 39.9428 31.97 41.5928 32.78C43.2728 33.56 44.5178 34.625 45.3278 35.975C46.1678 37.295 46.5878 38.765 46.5878 40.385C46.5878 42.035 46.1828 43.49 45.3728 44.75C44.5628 45.98 43.4828 46.94 42.1328 47.63C43.7828 48.35 45.0728 49.4 46.0028 50.78C46.9328 52.16 47.3978 53.795 47.3978 55.685C47.3978 57.725 46.8728 59.51 45.8228 61.04C44.8028 62.54 43.3928 63.695 41.5928 64.505C39.7928 65.315 37.7678 65.72 35.5178 65.72C33.2678 65.72 31.2428 65.315 29.4428 64.505C27.6728 63.695 26.2628 62.54 25.2128 61.04C24.1928 59.51 23.6828 57.725 23.6828 55.685C23.6828 53.795 24.1478 52.16 25.0778 50.78C26.0078 49.37 27.2978 48.32 28.9478 47.63ZM40.4678 41.285C40.4678 39.815 40.0178 38.675 39.1178 37.865C38.2478 37.055 37.0478 36.65 35.5178 36.65C34.0178 36.65 32.8178 37.055 31.9178 37.865C31.0478 38.675 30.6128 39.83 30.6128 41.33C30.6128 42.68 31.0628 43.76 31.9628 44.57C32.8928 45.38 34.0778 45.785 35.5178 45.785C36.9578 45.785 38.1428 45.38 39.0728 44.57C40.0028 43.73 40.4678 42.635 40.4678 41.285ZM35.5178 50.375C33.8078 50.375 32.4128 50.81 31.3328 51.68C30.2828 52.55 29.7578 53.795 29.7578 55.415C29.7578 56.915 30.2678 58.145 31.2878 59.105C32.3378 60.035 33.7478 60.5 35.5178 60.5C37.2878 60.5 38.6828 60.02 39.7028 59.06C40.7228 58.1 41.2328 56.885 41.2328 55.415C41.2328 53.825 40.7078 52.595 39.6578 51.725C38.6078 50.825 37.2278 50.375 35.5178 50.375ZM52.4638 40.835C52.6138 37.835 53.6638 35.525 55.6138 33.905C57.5938 32.255 60.1888 31.43 63.3988 31.43C65.5888 31.43 67.4638 31.82 69.0238 32.6C70.5838 33.35 71.7538 34.385 72.5338 35.705C73.3438 36.995 73.7488 38.465 73.7488 40.115C73.7488 42.005 73.2538 43.61 72.2638 44.93C71.3038 46.22 70.1488 47.09 68.7988 47.54V47.72C70.5388 48.26 71.8888 49.22 72.8488 50.6C73.8388 51.98 74.3338 53.75 74.3338 55.91C74.3338 57.71 73.9138 59.315 73.0738 60.725C72.2638 62.135 71.0488 63.245 69.4288 64.055C67.8388 64.835 65.9188 65.225 63.6688 65.225C60.2788 65.225 57.5188 64.37 55.3888 62.66C53.2588 60.95 52.1338 58.43 52.0138 55.1H58.1338C58.1938 56.57 58.6888 57.755 59.6188 58.655C60.5788 59.525 61.8838 59.96 63.5338 59.96C65.0638 59.96 66.2338 59.54 67.0438 58.7C67.8838 57.83 68.3038 56.72 68.3038 55.37C68.3038 53.57 67.7338 52.28 66.5938 51.5C65.4538 50.72 63.6838 50.33 61.2838 50.33H59.9788V45.155H61.2838C65.5438 45.155 67.6738 43.73 67.6738 40.88C67.6738 39.59 67.2838 38.585 66.5038 37.865C65.7538 37.145 64.6588 36.785 63.2188 36.785C61.8088 36.785 60.7138 37.175 59.9338 37.955C59.1838 38.705 58.7488 39.665 58.6288 40.835H52.4638Z" fill="white"/>
</g>
<defs>
<clipPath id="clip0_5382_50676">
<rect width="100" height="100" fill="white"/>
</clipPath>
</defs>
</svg>
