<svg width="100" height="100" viewBox="0 0 100 100" fill="none" xmlns="http://www.w3.org/2000/svg">
<g clip-path="url(#clip0_5382_50677)">
<rect x="2" y="2" width="96" height="96" rx="48" fill="#E31C3D" stroke="white" stroke-width="4"/>
<path d="M28.0415 47.63C25.0415 46.07 23.5415 43.655 23.5415 40.385C23.5415 38.765 23.9465 37.295 24.7565 35.975C25.5965 34.625 26.8415 33.56 28.4915 32.78C30.1715 31.97 32.2115 31.565 34.6115 31.565C37.0115 31.565 39.0365 31.97 40.6865 32.78C42.3665 33.56 43.6115 34.625 44.4215 35.975C45.2615 37.295 45.6815 38.765 45.6815 40.385C45.6815 42.035 45.2765 43.49 44.4665 44.75C43.6565 45.98 42.5765 46.94 41.2265 47.63C42.8765 48.35 44.1665 49.4 45.0965 50.78C46.0265 52.16 46.4915 53.795 46.4915 55.685C46.4915 57.725 45.9665 59.51 44.9165 61.04C43.8965 62.54 42.4865 63.695 40.6865 64.505C38.8865 65.315 36.8615 65.72 34.6115 65.72C32.3615 65.72 30.3365 65.315 28.5365 64.505C26.7665 63.695 25.3565 62.54 24.3065 61.04C23.2865 59.51 22.7765 57.725 22.7765 55.685C22.7765 53.795 23.2415 52.16 24.1715 50.78C25.1015 49.37 26.3915 48.32 28.0415 47.63ZM39.5615 41.285C39.5615 39.815 39.1115 38.675 38.2115 37.865C37.3415 37.055 36.1415 36.65 34.6115 36.65C33.1115 36.65 31.9115 37.055 31.0115 37.865C30.1415 38.675 29.7065 39.83 29.7065 41.33C29.7065 42.68 30.1565 43.76 31.0565 44.57C31.9865 45.38 33.1715 45.785 34.6115 45.785C36.0515 45.785 37.2365 45.38 38.1665 44.57C39.0965 43.73 39.5615 42.635 39.5615 41.285ZM34.6115 50.375C32.9015 50.375 31.5065 50.81 30.4265 51.68C29.3765 52.55 28.8515 53.795 28.8515 55.415C28.8515 56.915 29.3615 58.145 30.3815 59.105C31.4315 60.035 32.8415 60.5 34.6115 60.5C36.3815 60.5 37.7765 60.02 38.7965 59.06C39.8165 58.1 40.3265 56.885 40.3265 55.415C40.3265 53.825 39.8015 52.595 38.7515 51.725C37.7015 50.825 36.3215 50.375 34.6115 50.375ZM51.1975 58.61V53.66L65.9125 32.6H73.2475V53.12H77.2075V58.61H73.2475V65H66.9475V58.61H51.1975ZM67.3525 39.35L58.1275 53.12H67.3525V39.35Z" fill="white"/>
</g>
<defs>
<clipPath id="clip0_5382_50677">
<rect width="100" height="100" fill="white"/>
</clipPath>
</defs>
</svg>
