<svg width="100" height="100" viewBox="0 0 100 100" fill="none" xmlns="http://www.w3.org/2000/svg">
<g clip-path="url(#clip0_5382_50678)">
<rect x="2" y="2" width="96" height="96" rx="48" fill="#E31C3D" stroke="white" stroke-width="4"/>
<path d="M27.937 47.63C24.937 46.07 23.437 43.655 23.437 40.385C23.437 38.765 23.842 37.295 24.652 35.975C25.492 34.625 26.737 33.56 28.387 32.78C30.067 31.97 32.107 31.565 34.507 31.565C36.907 31.565 38.932 31.97 40.582 32.78C42.262 33.56 43.507 34.625 44.317 35.975C45.157 37.295 45.577 38.765 45.577 40.385C45.577 42.035 45.172 43.49 44.362 44.75C43.552 45.98 42.472 46.94 41.122 47.63C42.772 48.35 44.062 49.4 44.992 50.78C45.922 52.16 46.387 53.795 46.387 55.685C46.387 57.725 45.862 59.51 44.812 61.04C43.792 62.54 42.382 63.695 40.582 64.505C38.782 65.315 36.757 65.72 34.507 65.72C32.257 65.72 30.232 65.315 28.432 64.505C26.662 63.695 25.252 62.54 24.202 61.04C23.182 59.51 22.672 57.725 22.672 55.685C22.672 53.795 23.137 52.16 24.067 50.78C24.997 49.37 26.287 48.32 27.937 47.63ZM39.457 41.285C39.457 39.815 39.007 38.675 38.107 37.865C37.237 37.055 36.037 36.65 34.507 36.65C33.007 36.65 31.807 37.055 30.907 37.865C30.037 38.675 29.602 39.83 29.602 41.33C29.602 42.68 30.052 43.76 30.952 44.57C31.882 45.38 33.067 45.785 34.507 45.785C35.947 45.785 37.132 45.38 38.062 44.57C38.992 43.73 39.457 42.635 39.457 41.285ZM34.507 50.375C32.797 50.375 31.402 50.81 30.322 51.68C29.272 52.55 28.747 53.795 28.747 55.415C28.747 56.915 29.257 58.145 30.277 59.105C31.327 60.035 32.737 60.5 34.507 60.5C36.277 60.5 37.672 60.02 38.692 59.06C39.712 58.1 40.222 56.885 40.222 55.415C40.222 53.825 39.697 52.595 38.647 51.725C37.597 50.825 36.217 50.375 34.507 50.375ZM73.413 37.64H58.833V45.335C59.463 44.555 60.363 43.925 61.533 43.445C62.703 42.935 63.948 42.68 65.268 42.68C67.668 42.68 69.633 43.205 71.163 44.255C72.693 45.305 73.803 46.655 74.493 48.305C75.183 49.925 75.528 51.665 75.528 53.525C75.528 56.975 74.538 59.75 72.558 61.85C70.608 63.95 67.818 65 64.188 65C60.768 65 58.038 64.145 55.998 62.435C53.958 60.725 52.803 58.49 52.533 55.73H58.653C58.923 56.93 59.523 57.89 60.453 58.61C61.413 59.33 62.628 59.69 64.098 59.69C65.868 59.69 67.203 59.135 68.103 58.025C69.003 56.915 69.453 55.445 69.453 53.615C69.453 51.755 68.988 50.345 68.058 49.385C67.158 48.395 65.823 47.9 64.053 47.9C62.793 47.9 61.743 48.215 60.903 48.845C60.063 49.475 59.463 50.315 59.103 51.365H53.073V32.105H73.413V37.64Z" fill="white"/>
</g>
<defs>
<clipPath id="clip0_5382_50678">
<rect width="100" height="100" fill="white"/>
</clipPath>
</defs>
</svg>
