<svg width="100" height="100" viewBox="0 0 100 100" fill="none" xmlns="http://www.w3.org/2000/svg">
<g clip-path="url(#clip0_5382_50679)">
<rect x="2" y="2" width="96" height="96" rx="48" fill="#E31C3D" stroke="white" stroke-width="4"/>
<path d="M28.0249 47.63C25.0249 46.07 23.5249 43.655 23.5249 40.385C23.5249 38.765 23.9299 37.295 24.7399 35.975C25.5799 34.625 26.8249 33.56 28.4749 32.78C30.1549 31.97 32.1949 31.565 34.5949 31.565C36.9949 31.565 39.0199 31.97 40.6699 32.78C42.3499 33.56 43.5949 34.625 44.4049 35.975C45.2449 37.295 45.6649 38.765 45.6649 40.385C45.6649 42.035 45.2599 43.49 44.4499 44.75C43.6399 45.98 42.5599 46.94 41.2099 47.63C42.8599 48.35 44.1499 49.4 45.0799 50.78C46.0099 52.16 46.4749 53.795 46.4749 55.685C46.4749 57.725 45.9499 59.51 44.8999 61.04C43.8799 62.54 42.4699 63.695 40.6699 64.505C38.8699 65.315 36.8449 65.72 34.5949 65.72C32.3449 65.72 30.3199 65.315 28.5199 64.505C26.7499 63.695 25.3399 62.54 24.2899 61.04C23.2699 59.51 22.7599 57.725 22.7599 55.685C22.7599 53.795 23.2249 52.16 24.1549 50.78C25.0849 49.37 26.3749 48.32 28.0249 47.63ZM39.5449 41.285C39.5449 39.815 39.0949 38.675 38.1949 37.865C37.3249 37.055 36.1249 36.65 34.5949 36.65C33.0949 36.65 31.8949 37.055 30.9949 37.865C30.1249 38.675 29.6899 39.83 29.6899 41.33C29.6899 42.68 30.1399 43.76 31.0399 44.57C31.9699 45.38 33.1549 45.785 34.5949 45.785C36.0349 45.785 37.2199 45.38 38.1499 44.57C39.0799 43.73 39.5449 42.635 39.5449 41.285ZM34.5949 50.375C32.8849 50.375 31.4899 50.81 30.4099 51.68C29.3599 52.55 28.8349 53.795 28.8349 55.415C28.8349 56.915 29.3449 58.145 30.3649 59.105C31.4149 60.035 32.8249 60.5 34.5949 60.5C36.3649 60.5 37.7599 60.02 38.7799 59.06C39.7999 58.1 40.3099 56.885 40.3099 55.415C40.3099 53.825 39.7849 52.595 38.7349 51.725C37.6849 50.825 36.3049 50.375 34.5949 50.375ZM68.4609 40.385C68.1609 39.125 67.6359 38.18 66.8859 37.55C66.1659 36.92 65.1159 36.605 63.7359 36.605C61.6659 36.605 60.1359 37.445 59.1459 39.125C58.1859 40.775 57.6909 43.475 57.6609 47.225C58.3809 46.025 59.4309 45.095 60.8109 44.435C62.1909 43.745 63.6909 43.4 65.3109 43.4C67.2609 43.4 68.9859 43.82 70.4859 44.66C71.9859 45.5 73.1559 46.73 73.9959 48.35C74.8359 49.94 75.2559 51.86 75.2559 54.11C75.2559 56.24 74.8209 58.145 73.9509 59.825C73.1109 61.475 71.8659 62.765 70.2159 63.695C68.5659 64.625 66.6009 65.09 64.3209 65.09C61.2009 65.09 58.7409 64.4 56.9409 63.02C55.1709 61.64 53.9259 59.72 53.2059 57.26C52.5159 54.77 52.1709 51.71 52.1709 48.08C52.1709 42.59 53.1159 38.45 55.0059 35.66C56.8959 32.84 59.8809 31.43 63.9609 31.43C67.1109 31.43 69.5559 32.285 71.2959 33.995C73.0359 35.705 74.0409 37.835 74.3109 40.385H68.4609ZM63.8709 48.575C62.2809 48.575 60.9459 49.04 59.8659 49.97C58.7859 50.9 58.2459 52.25 58.2459 54.02C58.2459 55.79 58.7409 57.185 59.7309 58.205C60.7509 59.225 62.1759 59.735 64.0059 59.735C65.6259 59.735 66.9009 59.24 67.8309 58.25C68.7909 57.26 69.2709 55.925 69.2709 54.245C69.2709 52.505 68.8059 51.125 67.8759 50.105C66.9759 49.085 65.6409 48.575 63.8709 48.575Z" fill="white"/>
</g>
<defs>
<clipPath id="clip0_5382_50679">
<rect width="100" height="100" fill="white"/>
</clipPath>
</defs>
</svg>
