<svg width="100" height="100" viewBox="0 0 100 100" fill="none" xmlns="http://www.w3.org/2000/svg">
<g clip-path="url(#clip0_5382_50680)">
<rect x="2" y="2" width="96" height="96" rx="48" fill="#E31C3D" stroke="white" stroke-width="4"/>
<path d="M30.0903 47.63C27.0903 46.07 25.5903 43.655 25.5903 40.385C25.5903 38.765 25.9953 37.295 26.8053 35.975C27.6453 34.625 28.8903 33.56 30.5403 32.78C32.2203 31.97 34.2603 31.565 36.6603 31.565C39.0603 31.565 41.0853 31.97 42.7353 32.78C44.4153 33.56 45.6603 34.625 46.4703 35.975C47.3103 37.295 47.7303 38.765 47.7303 40.385C47.7303 42.035 47.3253 43.49 46.5153 44.75C45.7053 45.98 44.6253 46.94 43.2753 47.63C44.9253 48.35 46.2153 49.4 47.1453 50.78C48.0753 52.16 48.5403 53.795 48.5403 55.685C48.5403 57.725 48.0153 59.51 46.9653 61.04C45.9453 62.54 44.5353 63.695 42.7353 64.505C40.9353 65.315 38.9103 65.72 36.6603 65.72C34.4103 65.72 32.3853 65.315 30.5853 64.505C28.8153 63.695 27.4053 62.54 26.3553 61.04C25.3353 59.51 24.8253 57.725 24.8253 55.685C24.8253 53.795 25.2903 52.16 26.2203 50.78C27.1503 49.37 28.4403 48.32 30.0903 47.63ZM41.6103 41.285C41.6103 39.815 41.1603 38.675 40.2603 37.865C39.3903 37.055 38.1903 36.65 36.6603 36.65C35.1603 36.65 33.9603 37.055 33.0603 37.865C32.1903 38.675 31.7553 39.83 31.7553 41.33C31.7553 42.68 32.2053 43.76 33.1053 44.57C34.0353 45.38 35.2203 45.785 36.6603 45.785C38.1003 45.785 39.2853 45.38 40.2153 44.57C41.1453 43.73 41.6103 42.635 41.6103 41.285ZM36.6603 50.375C34.9503 50.375 33.5553 50.81 32.4753 51.68C31.4253 52.55 30.9003 53.795 30.9003 55.415C30.9003 56.915 31.4103 58.145 32.4303 59.105C33.4803 60.035 34.8903 60.5 36.6603 60.5C38.4303 60.5 39.8253 60.02 40.8453 59.06C41.8653 58.1 42.3753 56.885 42.3753 55.415C42.3753 53.825 41.8503 52.595 40.8003 51.725C39.7503 50.825 38.3703 50.375 36.6603 50.375ZM74.3963 36.965L62.4263 65H56.0363L68.0963 37.685H52.7063V32.285H74.3963V36.965Z" fill="white"/>
</g>
<defs>
<clipPath id="clip0_5382_50680">
<rect width="100" height="100" fill="white"/>
</clipPath>
</defs>
</svg>
