<svg width="100" height="100" viewBox="0 0 100 100" fill="none" xmlns="http://www.w3.org/2000/svg">
<g clip-path="url(#clip0_5382_50681)">
<rect x="2" y="2" width="96" height="96" rx="48" fill="#E31C3D" stroke="white" stroke-width="4"/>
<path d="M27.959 47.63C24.959 46.07 23.459 43.655 23.459 40.385C23.459 38.765 23.864 37.295 24.674 35.975C25.514 34.625 26.759 33.56 28.409 32.78C30.089 31.97 32.129 31.565 34.529 31.565C36.929 31.565 38.954 31.97 40.604 32.78C42.284 33.56 43.529 34.625 44.339 35.975C45.179 37.295 45.599 38.765 45.599 40.385C45.599 42.035 45.194 43.49 44.384 44.75C43.574 45.98 42.494 46.94 41.144 47.63C42.794 48.35 44.084 49.4 45.014 50.78C45.944 52.16 46.409 53.795 46.409 55.685C46.409 57.725 45.884 59.51 44.834 61.04C43.814 62.54 42.404 63.695 40.604 64.505C38.804 65.315 36.779 65.72 34.529 65.72C32.279 65.72 30.254 65.315 28.454 64.505C26.684 63.695 25.274 62.54 24.224 61.04C23.204 59.51 22.694 57.725 22.694 55.685C22.694 53.795 23.159 52.16 24.089 50.78C25.019 49.37 26.309 48.32 27.959 47.63ZM39.479 41.285C39.479 39.815 39.029 38.675 38.129 37.865C37.259 37.055 36.059 36.65 34.529 36.65C33.029 36.65 31.829 37.055 30.929 37.865C30.059 38.675 29.624 39.83 29.624 41.33C29.624 42.68 30.074 43.76 30.974 44.57C31.904 45.38 33.089 45.785 34.529 45.785C35.969 45.785 37.154 45.38 38.084 44.57C39.014 43.73 39.479 42.635 39.479 41.285ZM34.529 50.375C32.819 50.375 31.424 50.81 30.344 51.68C29.294 52.55 28.769 53.795 28.769 55.415C28.769 56.915 29.279 58.145 30.299 59.105C31.349 60.035 32.759 60.5 34.529 60.5C36.299 60.5 37.694 60.02 38.714 59.06C39.734 58.1 40.244 56.885 40.244 55.415C40.244 53.825 39.719 52.595 38.669 51.725C37.619 50.825 36.239 50.375 34.529 50.375ZM56.875 47.63C53.875 46.07 52.375 43.655 52.375 40.385C52.375 38.765 52.78 37.295 53.59 35.975C54.43 34.625 55.675 33.56 57.325 32.78C59.005 31.97 61.045 31.565 63.445 31.565C65.845 31.565 67.87 31.97 69.52 32.78C71.2 33.56 72.445 34.625 73.255 35.975C74.095 37.295 74.515 38.765 74.515 40.385C74.515 42.035 74.11 43.49 73.3 44.75C72.49 45.98 71.41 46.94 70.06 47.63C71.71 48.35 73 49.4 73.93 50.78C74.86 52.16 75.325 53.795 75.325 55.685C75.325 57.725 74.8 59.51 73.75 61.04C72.73 62.54 71.32 63.695 69.52 64.505C67.72 65.315 65.695 65.72 63.445 65.72C61.195 65.72 59.17 65.315 57.37 64.505C55.6 63.695 54.19 62.54 53.14 61.04C52.12 59.51 51.61 57.725 51.61 55.685C51.61 53.795 52.075 52.16 53.005 50.78C53.935 49.37 55.225 48.32 56.875 47.63ZM68.395 41.285C68.395 39.815 67.945 38.675 67.045 37.865C66.175 37.055 64.975 36.65 63.445 36.65C61.945 36.65 60.745 37.055 59.845 37.865C58.975 38.675 58.54 39.83 58.54 41.33C58.54 42.68 58.99 43.76 59.89 44.57C60.82 45.38 62.005 45.785 63.445 45.785C64.885 45.785 66.07 45.38 67 44.57C67.93 43.73 68.395 42.635 68.395 41.285ZM63.445 50.375C61.735 50.375 60.34 50.81 59.26 51.68C58.21 52.55 57.685 53.795 57.685 55.415C57.685 56.915 58.195 58.145 59.215 59.105C60.265 60.035 61.675 60.5 63.445 60.5C65.215 60.5 66.61 60.02 67.63 59.06C68.65 58.1 69.16 56.885 69.16 55.415C69.16 53.825 68.635 52.595 67.585 51.725C66.535 50.825 65.155 50.375 63.445 50.375Z" fill="white"/>
</g>
<defs>
<clipPath id="clip0_5382_50681">
<rect width="100" height="100" fill="white"/>
</clipPath>
</defs>
</svg>
