<svg width="100" height="100" viewBox="0 0 100 100" fill="none" xmlns="http://www.w3.org/2000/svg">
<g clip-path="url(#clip0_5382_50682)">
<rect x="2" y="2" width="96" height="96" rx="48" fill="#E31C3D" stroke="white" stroke-width="4"/>
<path d="M28.3325 47.63C25.3325 46.07 23.8325 43.655 23.8325 40.385C23.8325 38.765 24.2375 37.295 25.0475 35.975C25.8875 34.625 27.1325 33.56 28.7825 32.78C30.4625 31.97 32.5025 31.565 34.9025 31.565C37.3025 31.565 39.3275 31.97 40.9775 32.78C42.6575 33.56 43.9025 34.625 44.7125 35.975C45.5525 37.295 45.9725 38.765 45.9725 40.385C45.9725 42.035 45.5675 43.49 44.7575 44.75C43.9475 45.98 42.8675 46.94 41.5175 47.63C43.1675 48.35 44.4575 49.4 45.3875 50.78C46.3175 52.16 46.7825 53.795 46.7825 55.685C46.7825 57.725 46.2575 59.51 45.2075 61.04C44.1875 62.54 42.7775 63.695 40.9775 64.505C39.1775 65.315 37.1525 65.72 34.9025 65.72C32.6525 65.72 30.6275 65.315 28.8275 64.505C27.0575 63.695 25.6475 62.54 24.5975 61.04C23.5775 59.51 23.0675 57.725 23.0675 55.685C23.0675 53.795 23.5325 52.16 24.4625 50.78C25.3925 49.37 26.6825 48.32 28.3325 47.63ZM39.8525 41.285C39.8525 39.815 39.4025 38.675 38.5025 37.865C37.6325 37.055 36.4325 36.65 34.9025 36.65C33.4025 36.65 32.2025 37.055 31.3025 37.865C30.4325 38.675 29.9975 39.83 29.9975 41.33C29.9975 42.68 30.4475 43.76 31.3475 44.57C32.2775 45.38 33.4625 45.785 34.9025 45.785C36.3425 45.785 37.5275 45.38 38.4575 44.57C39.3875 43.73 39.8525 42.635 39.8525 41.285ZM34.9025 50.375C33.1925 50.375 31.7975 50.81 30.7175 51.68C29.6675 52.55 29.1425 53.795 29.1425 55.415C29.1425 56.915 29.6525 58.145 30.6725 59.105C31.7225 60.035 33.1325 60.5 34.9025 60.5C36.6725 60.5 38.0675 60.02 39.0875 59.06C40.1075 58.1 40.6175 56.885 40.6175 55.415C40.6175 53.825 40.0925 52.595 39.0425 51.725C37.9925 50.825 36.6125 50.375 34.9025 50.375ZM59.0485 55.775C59.2885 57.095 59.8285 58.115 60.6685 58.835C61.5385 59.525 62.6935 59.87 64.1335 59.87C65.9935 59.87 67.3435 59.105 68.1835 57.575C69.0235 56.015 69.4435 53.405 69.4435 49.745C68.7535 50.705 67.7785 51.455 66.5185 51.995C65.2885 52.535 63.9535 52.805 62.5135 52.805C60.5935 52.805 58.8535 52.415 57.2935 51.635C55.7635 50.825 54.5485 49.64 53.6485 48.08C52.7485 46.49 52.2985 44.57 52.2985 42.32C52.2985 38.99 53.2885 36.35 55.2685 34.4C57.2485 32.42 59.9485 31.43 63.3685 31.43C67.6285 31.43 70.6285 32.795 72.3685 35.525C74.1385 38.255 75.0235 42.365 75.0235 47.855C75.0235 51.755 74.6785 54.95 73.9885 57.44C73.3285 59.93 72.1735 61.82 70.5235 63.11C68.9035 64.4 66.6835 65.045 63.8635 65.045C61.6435 65.045 59.7535 64.625 58.1935 63.785C56.6335 62.915 55.4335 61.79 54.5935 60.41C53.7835 59 53.3185 57.455 53.1985 55.775H59.0485ZM63.8185 47.675C65.3785 47.675 66.6085 47.195 67.5085 46.235C68.4085 45.275 68.8585 43.985 68.8585 42.365C68.8585 40.595 68.3785 39.23 67.4185 38.27C66.4885 37.28 65.2135 36.785 63.5935 36.785C61.9735 36.785 60.6835 37.295 59.7235 38.315C58.7935 39.305 58.3285 40.625 58.3285 42.275C58.3285 43.865 58.7785 45.17 59.6785 46.19C60.6085 47.18 61.9885 47.675 63.8185 47.675Z" fill="white"/>
</g>
<defs>
<clipPath id="clip0_5382_50682">
<rect width="100" height="100" fill="white"/>
</clipPath>
</defs>
</svg>
