<svg width="100" height="100" viewBox="0 0 100 100" fill="none" xmlns="http://www.w3.org/2000/svg">
<rect x="2" y="2" width="96" height="96" rx="48" fill="#FF6104"/>
<rect x="2" y="2" width="96" height="96" rx="48" stroke="white" stroke-width="4"/>
<path d="M45.5905 56.775C45.8305 58.095 46.3705 59.115 47.2105 59.835C48.0805 60.525 49.2355 60.87 50.6755 60.87C52.5355 60.87 53.8855 60.105 54.7255 58.575C55.5655 57.015 55.9855 54.405 55.9855 50.745C55.2955 51.705 54.3205 52.455 53.0605 52.995C51.8305 53.535 50.4955 53.805 49.0555 53.805C47.1355 53.805 45.3955 53.415 43.8355 52.635C42.3055 51.825 41.0905 50.64 40.1905 49.08C39.2905 47.49 38.8405 45.57 38.8405 43.32C38.8405 39.99 39.8305 37.35 41.8105 35.4C43.7905 33.42 46.4905 32.43 49.9105 32.43C54.1705 32.43 57.1705 33.795 58.9105 36.525C60.6805 39.255 61.5655 43.365 61.5655 48.855C61.5655 52.755 61.2205 55.95 60.5305 58.44C59.8705 60.93 58.7155 62.82 57.0655 64.11C55.4455 65.4 53.2255 66.045 50.4055 66.045C48.1855 66.045 46.2955 65.625 44.7355 64.785C43.1755 63.915 41.9755 62.79 41.1355 61.41C40.3255 60 39.8605 58.455 39.7405 56.775H45.5905ZM50.3605 48.675C51.9205 48.675 53.1505 48.195 54.0505 47.235C54.9505 46.275 55.4005 44.985 55.4005 43.365C55.4005 41.595 54.9205 40.23 53.9605 39.27C53.0305 38.28 51.7555 37.785 50.1355 37.785C48.5155 37.785 47.2255 38.295 46.2655 39.315C45.3355 40.305 44.8705 41.625 44.8705 43.275C44.8705 44.865 45.3205 46.17 46.2205 47.19C47.1505 48.18 48.5305 48.675 50.3605 48.675Z" fill="white"/>
</svg>
