<svg width="100" height="100" viewBox="0 0 100 100" fill="none" xmlns="http://www.w3.org/2000/svg">
<g clip-path="url(#clip0_5382_50683)">
<rect x="2" y="2" width="96" height="96" rx="48" fill="#E31C3D" stroke="white" stroke-width="4"/>
<path d="M30.0446 55.775C30.2846 57.095 30.8246 58.115 31.6646 58.835C32.5346 59.525 33.6896 59.87 35.1296 59.87C36.9896 59.87 38.3396 59.105 39.1796 57.575C40.0196 56.015 40.4396 53.405 40.4396 49.745C39.7496 50.705 38.7746 51.455 37.5146 51.995C36.2846 52.535 34.9496 52.805 33.5096 52.805C31.5896 52.805 29.8496 52.415 28.2896 51.635C26.7596 50.825 25.5446 49.64 24.6446 48.08C23.7446 46.49 23.2946 44.57 23.2946 42.32C23.2946 38.99 24.2846 36.35 26.2646 34.4C28.2446 32.42 30.9446 31.43 34.3646 31.43C38.6246 31.43 41.6246 32.795 43.3646 35.525C45.1346 38.255 46.0196 42.365 46.0196 47.855C46.0196 51.755 45.6746 54.95 44.9846 57.44C44.3246 59.93 43.1696 61.82 41.5196 63.11C39.8996 64.4 37.6796 65.045 34.8596 65.045C32.6396 65.045 30.7496 64.625 29.1896 63.785C27.6296 62.915 26.4296 61.79 25.5896 60.41C24.7796 59 24.3146 57.455 24.1946 55.775H30.0446ZM34.8146 47.675C36.3746 47.675 37.6046 47.195 38.5046 46.235C39.4046 45.275 39.8546 43.985 39.8546 42.365C39.8546 40.595 39.3746 39.23 38.4146 38.27C37.4846 37.28 36.2096 36.785 34.5896 36.785C32.9696 36.785 31.6796 37.295 30.7196 38.315C29.7896 39.305 29.3246 40.625 29.3246 42.275C29.3246 43.865 29.7746 45.17 30.6746 46.19C31.6046 47.18 32.9846 47.675 34.8146 47.675ZM50.9236 48.17C50.9236 42.98 51.8536 38.915 53.7136 35.975C55.6036 33.035 58.7236 31.565 63.0736 31.565C67.4236 31.565 70.5286 33.035 72.3886 35.975C74.2786 38.915 75.2236 42.98 75.2236 48.17C75.2236 53.39 74.2786 57.485 72.3886 60.455C70.5286 63.425 67.4236 64.91 63.0736 64.91C58.7236 64.91 55.6036 63.425 53.7136 60.455C51.8536 57.485 50.9236 53.39 50.9236 48.17ZM69.0136 48.17C69.0136 45.95 68.8636 44.09 68.5636 42.59C68.2936 41.06 67.7236 39.815 66.8536 38.855C66.0136 37.895 64.7536 37.415 63.0736 37.415C61.3936 37.415 60.1186 37.895 59.2486 38.855C58.4086 39.815 57.8386 41.06 57.5386 42.59C57.2686 44.09 57.1336 45.95 57.1336 48.17C57.1336 50.45 57.2686 52.37 57.5386 53.93C57.8086 55.46 58.3786 56.705 59.2486 57.665C60.1186 58.595 61.3936 59.06 63.0736 59.06C64.7536 59.06 66.0286 58.595 66.8986 57.665C67.7686 56.705 68.3386 55.46 68.6086 53.93C68.8786 52.37 69.0136 50.45 69.0136 48.17Z" fill="white"/>
</g>
<defs>
<clipPath id="clip0_5382_50683">
<rect width="100" height="100" fill="white"/>
</clipPath>
</defs>
</svg>
