<svg width="100" height="100" viewBox="0 0 100 100" fill="none" xmlns="http://www.w3.org/2000/svg">
<g clip-path="url(#clip0_5382_50684)">
<rect x="2" y="2" width="96" height="96" rx="48" fill="#E31C3D" stroke="white" stroke-width="4"/>
<path d="M36.9387 55.775C37.1787 57.095 37.7187 58.115 38.5587 58.835C39.4287 59.525 40.5837 59.87 42.0237 59.87C43.8837 59.87 45.2337 59.105 46.0737 57.575C46.9137 56.015 47.3337 53.405 47.3337 49.745C46.6437 50.705 45.6687 51.455 44.4087 51.995C43.1787 52.535 41.8437 52.805 40.4037 52.805C38.4837 52.805 36.7437 52.415 35.1837 51.635C33.6537 50.825 32.4387 49.64 31.5387 48.08C30.6387 46.49 30.1887 44.57 30.1887 42.32C30.1887 38.99 31.1787 36.35 33.1587 34.4C35.1387 32.42 37.8387 31.43 41.2587 31.43C45.5187 31.43 48.5187 32.795 50.2587 35.525C52.0287 38.255 52.9137 42.365 52.9137 47.855C52.9137 51.755 52.5687 54.95 51.8787 57.44C51.2187 59.93 50.0637 61.82 48.4137 63.11C46.7937 64.4 44.5737 65.045 41.7537 65.045C39.5337 65.045 37.6437 64.625 36.0837 63.785C34.5237 62.915 33.3237 61.79 32.4837 60.41C31.6737 59 31.2087 57.455 31.0887 55.775H36.9387ZM41.7087 47.675C43.2687 47.675 44.4987 47.195 45.3987 46.235C46.2987 45.275 46.7487 43.985 46.7487 42.365C46.7487 40.595 46.2687 39.23 45.3087 38.27C44.3787 37.28 43.1037 36.785 41.4837 36.785C39.8637 36.785 38.5737 37.295 37.6137 38.315C36.6837 39.305 36.2187 40.625 36.2187 42.275C36.2187 43.865 36.6687 45.17 37.5687 46.19C38.4987 47.18 39.8787 47.675 41.7087 47.675ZM57.0526 38V32.195H67.8976V65H61.4176V38H57.0526Z" fill="white"/>
</g>
<defs>
<clipPath id="clip0_5382_50684">
<rect width="100" height="100" fill="white"/>
</clipPath>
</defs>
</svg>
