<svg width="100" height="100" viewBox="0 0 100 100" fill="none" xmlns="http://www.w3.org/2000/svg">
<g clip-path="url(#clip0_5382_50685)">
<rect x="2" y="2" width="96" height="96" rx="48" fill="#E31C3D" stroke="white" stroke-width="4"/>
<path d="M32.1706 55.775C32.4106 57.095 32.9506 58.115 33.7906 58.835C34.6606 59.525 35.8156 59.87 37.2556 59.87C39.1156 59.87 40.4656 59.105 41.3056 57.575C42.1456 56.015 42.5656 53.405 42.5656 49.745C41.8756 50.705 40.9006 51.455 39.6406 51.995C38.4106 52.535 37.0756 52.805 35.6356 52.805C33.7156 52.805 31.9756 52.415 30.4156 51.635C28.8856 50.825 27.6706 49.64 26.7706 48.08C25.8706 46.49 25.4206 44.57 25.4206 42.32C25.4206 38.99 26.4106 36.35 28.3906 34.4C30.3706 32.42 33.0706 31.43 36.4906 31.43C40.7506 31.43 43.7506 32.795 45.4906 35.525C47.2606 38.255 48.1456 42.365 48.1456 47.855C48.1456 51.755 47.8006 54.95 47.1106 57.44C46.4506 59.93 45.2956 61.82 43.6456 63.11C42.0256 64.4 39.8056 65.045 36.9856 65.045C34.7656 65.045 32.8756 64.625 31.3156 63.785C29.7556 62.915 28.5556 61.79 27.7156 60.41C26.9056 59 26.4406 57.455 26.3206 55.775H32.1706ZM36.9406 47.675C38.5006 47.675 39.7306 47.195 40.6306 46.235C41.5306 45.275 41.9806 43.985 41.9806 42.365C41.9806 40.595 41.5006 39.23 40.5406 38.27C39.6106 37.28 38.3356 36.785 36.7156 36.785C35.0956 36.785 33.8056 37.295 32.8456 38.315C31.9156 39.305 31.4506 40.625 31.4506 42.275C31.4506 43.865 31.9006 45.17 32.8006 46.19C33.7306 47.18 35.1106 47.675 36.9406 47.675ZM55.0296 57.89C57.9096 55.49 60.2046 53.495 61.9146 51.905C63.6246 50.285 65.0496 48.605 66.1896 46.865C67.3296 45.125 67.8996 43.415 67.8996 41.735C67.8996 40.205 67.5396 39.005 66.8196 38.135C66.0996 37.265 64.9896 36.83 63.4896 36.83C61.9896 36.83 60.8346 37.34 60.0246 38.36C59.2146 39.35 58.7946 40.715 58.7646 42.455H52.6446C52.7646 38.855 53.8296 36.125 55.8396 34.265C57.8796 32.405 60.4596 31.475 63.5796 31.475C66.9996 31.475 69.6246 32.39 71.4546 34.22C73.2846 36.02 74.1996 38.405 74.1996 41.375C74.1996 43.715 73.5696 45.95 72.3096 48.08C71.0496 50.21 69.6096 52.07 67.9896 53.66C66.3696 55.22 64.2546 57.11 61.6446 59.33H74.9196V64.55H52.6896V59.87L55.0296 57.89Z" fill="white"/>
</g>
<defs>
<clipPath id="clip0_5382_50685">
<rect width="100" height="100" fill="white"/>
</clipPath>
</defs>
</svg>
