<svg width="100" height="100" viewBox="0 0 100 100" fill="none" xmlns="http://www.w3.org/2000/svg">
<g clip-path="url(#clip0_5382_50686)">
<rect x="2" y="2" width="96" height="96" rx="48" fill="#E31C3D" stroke="white" stroke-width="4"/>
<path d="M31.1213 55.775C31.3613 57.095 31.9013 58.115 32.7413 58.835C33.6113 59.525 34.7663 59.87 36.2063 59.87C38.0663 59.87 39.4163 59.105 40.2563 57.575C41.0963 56.015 41.5163 53.405 41.5163 49.745C40.8263 50.705 39.8513 51.455 38.5913 51.995C37.3613 52.535 36.0263 52.805 34.5863 52.805C32.6663 52.805 30.9263 52.415 29.3663 51.635C27.8363 50.825 26.6213 49.64 25.7213 48.08C24.8213 46.49 24.3713 44.57 24.3713 42.32C24.3713 38.99 25.3613 36.35 27.3413 34.4C29.3213 32.42 32.0213 31.43 35.4413 31.43C39.7013 31.43 42.7013 32.795 44.4413 35.525C46.2113 38.255 47.0963 42.365 47.0963 47.855C47.0963 51.755 46.7513 54.95 46.0613 57.44C45.4013 59.93 44.2463 61.82 42.5963 63.11C40.9763 64.4 38.7563 65.045 35.9363 65.045C33.7163 65.045 31.8263 64.625 30.2663 63.785C28.7063 62.915 27.5063 61.79 26.6663 60.41C25.8563 59 25.3913 57.455 25.2713 55.775H31.1213ZM35.8913 47.675C37.4513 47.675 38.6813 47.195 39.5813 46.235C40.4813 45.275 40.9313 43.985 40.9313 42.365C40.9313 40.595 40.4513 39.23 39.4913 38.27C38.5613 37.28 37.2863 36.785 35.6663 36.785C34.0463 36.785 32.7563 37.295 31.7963 38.315C30.8663 39.305 30.4013 40.625 30.4013 42.275C30.4013 43.865 30.8513 45.17 31.7513 46.19C32.6813 47.18 34.0613 47.675 35.8913 47.675ZM52.0902 40.835C52.2402 37.835 53.2902 35.525 55.2402 33.905C57.2202 32.255 59.8152 31.43 63.0252 31.43C65.2152 31.43 67.0902 31.82 68.6502 32.6C70.2102 33.35 71.3802 34.385 72.1602 35.705C72.9702 36.995 73.3752 38.465 73.3752 40.115C73.3752 42.005 72.8802 43.61 71.8902 44.93C70.9302 46.22 69.7752 47.09 68.4252 47.54V47.72C70.1652 48.26 71.5152 49.22 72.4752 50.6C73.4652 51.98 73.9602 53.75 73.9602 55.91C73.9602 57.71 73.5402 59.315 72.7002 60.725C71.8902 62.135 70.6752 63.245 69.0552 64.055C67.4652 64.835 65.5452 65.225 63.2952 65.225C59.9052 65.225 57.1452 64.37 55.0152 62.66C52.8852 60.95 51.7602 58.43 51.6402 55.1H57.7602C57.8202 56.57 58.3152 57.755 59.2452 58.655C60.2052 59.525 61.5102 59.96 63.1602 59.96C64.6902 59.96 65.8602 59.54 66.6702 58.7C67.5102 57.83 67.9302 56.72 67.9302 55.37C67.9302 53.57 67.3602 52.28 66.2202 51.5C65.0802 50.72 63.3102 50.33 60.9102 50.33H59.6052V45.155H60.9102C65.1702 45.155 67.3002 43.73 67.3002 40.88C67.3002 39.59 66.9102 38.585 66.1302 37.865C65.3802 37.145 64.2852 36.785 62.8452 36.785C61.4352 36.785 60.3402 37.175 59.5602 37.955C58.8102 38.705 58.3752 39.665 58.2552 40.835H52.0902Z" fill="white"/>
</g>
<defs>
<clipPath id="clip0_5382_50686">
<rect width="100" height="100" fill="white"/>
</clipPath>
</defs>
</svg>
