<svg width="100" height="100" viewBox="0 0 100 100" fill="none" xmlns="http://www.w3.org/2000/svg">
<g clip-path="url(#clip0_5382_50687)">
<rect x="2" y="2" width="96" height="96" rx="48" fill="#E31C3D" stroke="white" stroke-width="4"/>
<path d="M29.715 55.775C29.955 57.095 30.495 58.115 31.335 58.835C32.205 59.525 33.36 59.87 34.8 59.87C36.66 59.87 38.01 59.105 38.85 57.575C39.69 56.015 40.11 53.405 40.11 49.745C39.42 50.705 38.445 51.455 37.185 51.995C35.955 52.535 34.62 52.805 33.18 52.805C31.26 52.805 29.52 52.415 27.96 51.635C26.43 50.825 25.215 49.64 24.315 48.08C23.415 46.49 22.965 44.57 22.965 42.32C22.965 38.99 23.955 36.35 25.935 34.4C27.915 32.42 30.615 31.43 34.035 31.43C38.295 31.43 41.295 32.795 43.035 35.525C44.805 38.255 45.69 42.365 45.69 47.855C45.69 51.755 45.345 54.95 44.655 57.44C43.995 59.93 42.84 61.82 41.19 63.11C39.57 64.4 37.35 65.045 34.53 65.045C32.31 65.045 30.42 64.625 28.86 63.785C27.3 62.915 26.1 61.79 25.26 60.41C24.45 59 23.985 57.455 23.865 55.775H29.715ZM34.485 47.675C36.045 47.675 37.275 47.195 38.175 46.235C39.075 45.275 39.525 43.985 39.525 42.365C39.525 40.595 39.045 39.23 38.085 38.27C37.155 37.28 35.88 36.785 34.26 36.785C32.64 36.785 31.35 37.295 30.39 38.315C29.46 39.305 28.995 40.625 28.995 42.275C28.995 43.865 29.445 45.17 30.345 46.19C31.275 47.18 32.655 47.675 34.485 47.675ZM50.324 58.61V53.66L65.039 32.6H72.374V53.12H76.334V58.61H72.374V65H66.074V58.61H50.324ZM66.479 39.35L57.254 53.12H66.479V39.35Z" fill="white"/>
</g>
<defs>
<clipPath id="clip0_5382_50687">
<rect width="100" height="100" fill="white"/>
</clipPath>
</defs>
</svg>
