<svg width="100" height="100" viewBox="0 0 100 100" fill="none" xmlns="http://www.w3.org/2000/svg">
<g clip-path="url(#clip0_5382_50688)">
<rect x="2" y="2" width="96" height="96" rx="48" fill="#E31C3D" stroke="white" stroke-width="4"/>
<path d="M30.1105 55.775C30.3505 57.095 30.8905 58.115 31.7305 58.835C32.6005 59.525 33.7555 59.87 35.1955 59.87C37.0555 59.87 38.4055 59.105 39.2455 57.575C40.0855 56.015 40.5055 53.405 40.5055 49.745C39.8155 50.705 38.8405 51.455 37.5805 51.995C36.3505 52.535 35.0155 52.805 33.5755 52.805C31.6555 52.805 29.9155 52.415 28.3555 51.635C26.8255 50.825 25.6105 49.64 24.7105 48.08C23.8105 46.49 23.3605 44.57 23.3605 42.32C23.3605 38.99 24.3505 36.35 26.3305 34.4C28.3105 32.42 31.0105 31.43 34.4305 31.43C38.6905 31.43 41.6905 32.795 43.4305 35.525C45.2005 38.255 46.0855 42.365 46.0855 47.855C46.0855 51.755 45.7405 54.95 45.0505 57.44C44.3905 59.93 43.2355 61.82 41.5855 63.11C39.9655 64.4 37.7455 65.045 34.9255 65.045C32.7055 65.045 30.8155 64.625 29.2555 63.785C27.6955 62.915 26.4955 61.79 25.6555 60.41C24.8455 59 24.3805 57.455 24.2605 55.775H30.1105ZM34.8805 47.675C36.4405 47.675 37.6705 47.195 38.5705 46.235C39.4705 45.275 39.9205 43.985 39.9205 42.365C39.9205 40.595 39.4405 39.23 38.4805 38.27C37.5505 37.28 36.2755 36.785 34.6555 36.785C33.0355 36.785 31.7455 37.295 30.7855 38.315C29.8555 39.305 29.3905 40.625 29.3905 42.275C29.3905 43.865 29.8405 45.17 30.7405 46.19C31.6705 47.18 33.0505 47.675 34.8805 47.675ZM73.0395 37.64H58.4595V45.335C59.0895 44.555 59.9895 43.925 61.1595 43.445C62.3295 42.935 63.5745 42.68 64.8945 42.68C67.2945 42.68 69.2595 43.205 70.7895 44.255C72.3195 45.305 73.4295 46.655 74.1195 48.305C74.8095 49.925 75.1545 51.665 75.1545 53.525C75.1545 56.975 74.1645 59.75 72.1845 61.85C70.2345 63.95 67.4445 65 63.8145 65C60.3945 65 57.6645 64.145 55.6245 62.435C53.5845 60.725 52.4295 58.49 52.1595 55.73H58.2795C58.5495 56.93 59.1495 57.89 60.0795 58.61C61.0395 59.33 62.2545 59.69 63.7245 59.69C65.4945 59.69 66.8295 59.135 67.7295 58.025C68.6295 56.915 69.0795 55.445 69.0795 53.615C69.0795 51.755 68.6145 50.345 67.6845 49.385C66.7845 48.395 65.4495 47.9 63.6795 47.9C62.4195 47.9 61.3695 48.215 60.5295 48.845C59.6895 49.475 59.0895 50.315 58.7295 51.365H52.6995V32.105H73.0395V37.64Z" fill="white"/>
</g>
<defs>
<clipPath id="clip0_5382_50688">
<rect width="100" height="100" fill="white"/>
</clipPath>
</defs>
</svg>
