<svg width="100" height="100" viewBox="0 0 100 100" fill="none" xmlns="http://www.w3.org/2000/svg">
<g clip-path="url(#clip0_5382_50689)">
<rect x="2" y="2" width="96" height="96" rx="48" fill="#E31C3D" stroke="white" stroke-width="4"/>
<path d="M30.6984 55.775C30.9384 57.095 31.4784 58.115 32.3184 58.835C33.1884 59.525 34.3434 59.87 35.7834 59.87C37.6434 59.87 38.9934 59.105 39.8334 57.575C40.6734 56.015 41.0934 53.405 41.0934 49.745C40.4034 50.705 39.4284 51.455 38.1684 51.995C36.9384 52.535 35.6034 52.805 34.1634 52.805C32.2434 52.805 30.5034 52.415 28.9434 51.635C27.4134 50.825 26.1984 49.64 25.2984 48.08C24.3984 46.49 23.9484 44.57 23.9484 42.32C23.9484 38.99 24.9384 36.35 26.9184 34.4C28.8984 32.42 31.5984 31.43 35.0184 31.43C39.2784 31.43 42.2784 32.795 44.0184 35.525C45.7884 38.255 46.6734 42.365 46.6734 47.855C46.6734 51.755 46.3284 54.95 45.6384 57.44C44.9784 59.93 43.8234 61.82 42.1734 63.11C40.5534 64.4 38.3334 65.045 35.5134 65.045C33.2934 65.045 31.4034 64.625 29.8434 63.785C28.2834 62.915 27.0834 61.79 26.2434 60.41C25.4334 59 24.9684 57.455 24.8484 55.775H30.6984ZM35.4684 47.675C37.0284 47.675 38.2584 47.195 39.1584 46.235C40.0584 45.275 40.5084 43.985 40.5084 42.365C40.5084 40.595 40.0284 39.23 39.0684 38.27C38.1384 37.28 36.8634 36.785 35.2434 36.785C33.6234 36.785 32.3334 37.295 31.3734 38.315C30.4434 39.305 29.9784 40.625 29.9784 42.275C29.9784 43.865 30.4284 45.17 31.3284 46.19C32.2584 47.18 33.6384 47.675 35.4684 47.675ZM68.5874 40.385C68.2874 39.125 67.7624 38.18 67.0124 37.55C66.2924 36.92 65.2424 36.605 63.8624 36.605C61.7924 36.605 60.2624 37.445 59.2724 39.125C58.3124 40.775 57.8174 43.475 57.7874 47.225C58.5074 46.025 59.5574 45.095 60.9374 44.435C62.3174 43.745 63.8174 43.4 65.4374 43.4C67.3874 43.4 69.1124 43.82 70.6124 44.66C72.1124 45.5 73.2824 46.73 74.1224 48.35C74.9624 49.94 75.3824 51.86 75.3824 54.11C75.3824 56.24 74.9474 58.145 74.0774 59.825C73.2374 61.475 71.9924 62.765 70.3424 63.695C68.6924 64.625 66.7274 65.09 64.4474 65.09C61.3274 65.09 58.8674 64.4 57.0674 63.02C55.2974 61.64 54.0524 59.72 53.3324 57.26C52.6424 54.77 52.2974 51.71 52.2974 48.08C52.2974 42.59 53.2424 38.45 55.1324 35.66C57.0224 32.84 60.0074 31.43 64.0874 31.43C67.2374 31.43 69.6824 32.285 71.4224 33.995C73.1624 35.705 74.1674 37.835 74.4374 40.385H68.5874ZM63.9974 48.575C62.4074 48.575 61.0724 49.04 59.9924 49.97C58.9124 50.9 58.3724 52.25 58.3724 54.02C58.3724 55.79 58.8674 57.185 59.8574 58.205C60.8774 59.225 62.3024 59.735 64.1324 59.735C65.7524 59.735 67.0274 59.24 67.9574 58.25C68.9174 57.26 69.3974 55.925 69.3974 54.245C69.3974 52.505 68.9324 51.125 68.0024 50.105C67.1024 49.085 65.7674 48.575 63.9974 48.575Z" fill="white"/>
</g>
<defs>
<clipPath id="clip0_5382_50689">
<rect width="100" height="100" fill="white"/>
</clipPath>
</defs>
</svg>
