<svg width="100" height="100" viewBox="0 0 100 100" fill="none" xmlns="http://www.w3.org/2000/svg">
<g clip-path="url(#clip0_5382_50690)">
<rect x="2" y="2" width="96" height="96" rx="48" fill="#E31C3D" stroke="white" stroke-width="4"/>
<path d="M32.7639 55.775C33.0039 57.095 33.5439 58.115 34.3839 58.835C35.2539 59.525 36.4089 59.87 37.8489 59.87C39.7089 59.87 41.0589 59.105 41.8989 57.575C42.7389 56.015 43.1589 53.405 43.1589 49.745C42.4689 50.705 41.4939 51.455 40.2339 51.995C39.0039 52.535 37.6689 52.805 36.2289 52.805C34.3089 52.805 32.5689 52.415 31.0089 51.635C29.4789 50.825 28.2639 49.64 27.3639 48.08C26.4639 46.49 26.0139 44.57 26.0139 42.32C26.0139 38.99 27.0039 36.35 28.9839 34.4C30.9639 32.42 33.6639 31.43 37.0839 31.43C41.3439 31.43 44.3439 32.795 46.0839 35.525C47.8539 38.255 48.7389 42.365 48.7389 47.855C48.7389 51.755 48.3939 54.95 47.7039 57.44C47.0439 59.93 45.8889 61.82 44.2389 63.11C42.6189 64.4 40.3989 65.045 37.5789 65.045C35.3589 65.045 33.4689 64.625 31.9089 63.785C30.3489 62.915 29.1489 61.79 28.3089 60.41C27.4989 59 27.0339 57.455 26.9139 55.775H32.7639ZM37.5339 47.675C39.0939 47.675 40.3239 47.195 41.2239 46.235C42.1239 45.275 42.5739 43.985 42.5739 42.365C42.5739 40.595 42.0939 39.23 41.1339 38.27C40.2039 37.28 38.9289 36.785 37.3089 36.785C35.6889 36.785 34.3989 37.295 33.4389 38.315C32.5089 39.305 32.0439 40.625 32.0439 42.275C32.0439 43.865 32.4939 45.17 33.3939 46.19C34.3239 47.18 35.7039 47.675 37.5339 47.675ZM74.5228 36.965L62.5528 65H56.1628L68.2228 37.685H52.8328V32.285H74.5228V36.965Z" fill="white"/>
</g>
<defs>
<clipPath id="clip0_5382_50690">
<rect width="100" height="100" fill="white"/>
</clipPath>
</defs>
</svg>
