<svg width="100" height="100" viewBox="0 0 100 100" fill="none" xmlns="http://www.w3.org/2000/svg">
<g clip-path="url(#clip0_5382_50691)">
<rect x="2" y="2" width="96" height="96" rx="48" fill="#E31C3D" stroke="white" stroke-width="4"/>
<path d="M30.1325 55.775C30.3725 57.095 30.9125 58.115 31.7525 58.835C32.6225 59.525 33.7775 59.87 35.2175 59.87C37.0775 59.87 38.4275 59.105 39.2675 57.575C40.1075 56.015 40.5275 53.405 40.5275 49.745C39.8375 50.705 38.8625 51.455 37.6025 51.995C36.3725 52.535 35.0375 52.805 33.5975 52.805C31.6775 52.805 29.9375 52.415 28.3775 51.635C26.8475 50.825 25.6325 49.64 24.7325 48.08C23.8325 46.49 23.3825 44.57 23.3825 42.32C23.3825 38.99 24.3725 36.35 26.3525 34.4C28.3325 32.42 31.0325 31.43 34.4525 31.43C38.7125 31.43 41.7125 32.795 43.4525 35.525C45.2225 38.255 46.1075 42.365 46.1075 47.855C46.1075 51.755 45.7625 54.95 45.0725 57.44C44.4125 59.93 43.2575 61.82 41.6075 63.11C39.9875 64.4 37.7675 65.045 34.9475 65.045C32.7275 65.045 30.8375 64.625 29.2775 63.785C27.7175 62.915 26.5175 61.79 25.6775 60.41C24.8675 59 24.4025 57.455 24.2825 55.775H30.1325ZM34.9025 47.675C36.4625 47.675 37.6925 47.195 38.5925 46.235C39.4925 45.275 39.9425 43.985 39.9425 42.365C39.9425 40.595 39.4625 39.23 38.5025 38.27C37.5725 37.28 36.2975 36.785 34.6775 36.785C33.0575 36.785 31.7675 37.295 30.8075 38.315C29.8775 39.305 29.4125 40.625 29.4125 42.275C29.4125 43.865 29.8625 45.17 30.7625 46.19C31.6925 47.18 33.0725 47.675 34.9025 47.675ZM56.5015 47.63C53.5015 46.07 52.0015 43.655 52.0015 40.385C52.0015 38.765 52.4065 37.295 53.2165 35.975C54.0565 34.625 55.3015 33.56 56.9515 32.78C58.6315 31.97 60.6715 31.565 63.0715 31.565C65.4715 31.565 67.4965 31.97 69.1465 32.78C70.8265 33.56 72.0715 34.625 72.8815 35.975C73.7215 37.295 74.1415 38.765 74.1415 40.385C74.1415 42.035 73.7365 43.49 72.9265 44.75C72.1165 45.98 71.0365 46.94 69.6865 47.63C71.3365 48.35 72.6265 49.4 73.5565 50.78C74.4865 52.16 74.9515 53.795 74.9515 55.685C74.9515 57.725 74.4265 59.51 73.3765 61.04C72.3565 62.54 70.9465 63.695 69.1465 64.505C67.3465 65.315 65.3215 65.72 63.0715 65.72C60.8215 65.72 58.7965 65.315 56.9965 64.505C55.2265 63.695 53.8165 62.54 52.7665 61.04C51.7465 59.51 51.2365 57.725 51.2365 55.685C51.2365 53.795 51.7015 52.16 52.6315 50.78C53.5615 49.37 54.8515 48.32 56.5015 47.63ZM68.0215 41.285C68.0215 39.815 67.5715 38.675 66.6715 37.865C65.8015 37.055 64.6015 36.65 63.0715 36.65C61.5715 36.65 60.3715 37.055 59.4715 37.865C58.6015 38.675 58.1665 39.83 58.1665 41.33C58.1665 42.68 58.6165 43.76 59.5165 44.57C60.4465 45.38 61.6315 45.785 63.0715 45.785C64.5115 45.785 65.6965 45.38 66.6265 44.57C67.5565 43.73 68.0215 42.635 68.0215 41.285ZM63.0715 50.375C61.3615 50.375 59.9665 50.81 58.8865 51.68C57.8365 52.55 57.3115 53.795 57.3115 55.415C57.3115 56.915 57.8215 58.145 58.8415 59.105C59.8915 60.035 61.3015 60.5 63.0715 60.5C64.8415 60.5 66.2365 60.02 67.2565 59.06C68.2765 58.1 68.7865 56.885 68.7865 55.415C68.7865 53.825 68.2615 52.595 67.2115 51.725C66.1615 50.825 64.7815 50.375 63.0715 50.375Z" fill="white"/>
</g>
<defs>
<clipPath id="clip0_5382_50691">
<rect width="100" height="100" fill="white"/>
</clipPath>
</defs>
</svg>
