<svg width="100" height="100" viewBox="0 0 100 100" fill="none" xmlns="http://www.w3.org/2000/svg">
<g clip-path="url(#clip0_5382_50692)">
<rect x="2" y="2" width="96" height="96" rx="48" fill="#E31C3D" stroke="white" stroke-width="4"/>
<path d="M31.0061 55.775C31.2461 57.095 31.7861 58.115 32.6261 58.835C33.4961 59.525 34.6511 59.87 36.0911 59.87C37.9511 59.87 39.3011 59.105 40.1411 57.575C40.9811 56.015 41.4011 53.405 41.4011 49.745C40.7111 50.705 39.7361 51.455 38.4761 51.995C37.2461 52.535 35.9111 52.805 34.4711 52.805C32.5511 52.805 30.8111 52.415 29.2511 51.635C27.7211 50.825 26.5061 49.64 25.6061 48.08C24.7061 46.49 24.2561 44.57 24.2561 42.32C24.2561 38.99 25.2461 36.35 27.2261 34.4C29.2061 32.42 31.9061 31.43 35.3261 31.43C39.5861 31.43 42.5861 32.795 44.3261 35.525C46.0961 38.255 46.9811 42.365 46.9811 47.855C46.9811 51.755 46.6361 54.95 45.9461 57.44C45.2861 59.93 44.1311 61.82 42.4811 63.11C40.8611 64.4 38.6411 65.045 35.8211 65.045C33.6011 65.045 31.7111 64.625 30.1511 63.785C28.5911 62.915 27.3911 61.79 26.5511 60.41C25.7411 59 25.2761 57.455 25.1561 55.775H31.0061ZM35.7761 47.675C37.3361 47.675 38.5661 47.195 39.4661 46.235C40.3661 45.275 40.8161 43.985 40.8161 42.365C40.8161 40.595 40.3361 39.23 39.3761 38.27C38.4461 37.28 37.1711 36.785 35.5511 36.785C33.9311 36.785 32.6411 37.295 31.6811 38.315C30.7511 39.305 30.2861 40.625 30.2861 42.275C30.2861 43.865 30.7361 45.17 31.6361 46.19C32.5661 47.18 33.9461 47.675 35.7761 47.675ZM59.175 55.775C59.415 57.095 59.955 58.115 60.795 58.835C61.665 59.525 62.82 59.87 64.26 59.87C66.12 59.87 67.47 59.105 68.31 57.575C69.15 56.015 69.57 53.405 69.57 49.745C68.88 50.705 67.905 51.455 66.645 51.995C65.415 52.535 64.08 52.805 62.64 52.805C60.72 52.805 58.98 52.415 57.42 51.635C55.89 50.825 54.675 49.64 53.775 48.08C52.875 46.49 52.425 44.57 52.425 42.32C52.425 38.99 53.415 36.35 55.395 34.4C57.375 32.42 60.075 31.43 63.495 31.43C67.755 31.43 70.755 32.795 72.495 35.525C74.265 38.255 75.15 42.365 75.15 47.855C75.15 51.755 74.805 54.95 74.115 57.44C73.455 59.93 72.3 61.82 70.65 63.11C69.03 64.4 66.81 65.045 63.99 65.045C61.77 65.045 59.88 64.625 58.32 63.785C56.76 62.915 55.56 61.79 54.72 60.41C53.91 59 53.445 57.455 53.325 55.775H59.175ZM63.945 47.675C65.505 47.675 66.735 47.195 67.635 46.235C68.535 45.275 68.985 43.985 68.985 42.365C68.985 40.595 68.505 39.23 67.545 38.27C66.615 37.28 65.34 36.785 63.72 36.785C62.1 36.785 60.81 37.295 59.85 38.315C58.92 39.305 58.455 40.625 58.455 42.275C58.455 43.865 58.905 45.17 59.805 46.19C60.735 47.18 62.115 47.675 63.945 47.675Z" fill="white"/>
</g>
<defs>
<clipPath id="clip0_5382_50692">
<rect width="100" height="100" fill="white"/>
</clipPath>
</defs>
</svg>
