<svg width="180" height="420" viewBox="0 0 180 420" fill="none" xmlns="http://www.w3.org/2000/svg">
<g clip-path="url(#clip0_4723_65003)">
<path fill-rule="evenodd" clip-rule="evenodd" d="M10 22C10 15.3726 15.3726 10 22 10H158C164.627 10 170 15.3726 170 22V398C170 404.627 164.627 410 158 410H22C15.3726 410 10 404.627 10 398V22ZM80 49.9976C80 66.5692 66.5692 80 50.0024 80C33.4308 80 20 66.5692 20 49.9976C20 33.4308 33.4308 20 50.0024 20C66.5692 20 80 33.4308 80 49.9976ZM50.0024 240C66.5692 240 80 226.569 80 209.998C80 193.431 66.5692 180 50.0024 180C33.4308 180 20 193.431 20 209.998C20 226.569 33.4308 240 50.0024 240ZM80 369.998C80 386.569 66.5692 400 50.0024 400C33.4308 400 20 386.569 20 369.998C20 353.431 33.4308 340 50.0024 340C66.5692 340 80 353.431 80 369.998ZM50.0024 320C66.5692 320 80 306.569 80 289.998C80 273.431 66.5692 260 50.0024 260C33.4308 260 20 273.431 20 289.998C20 306.569 33.4308 320 50.0024 320ZM80 129.998C80 146.569 66.5692 160 50.0024 160C33.4308 160 20 146.569 20 129.998C20 113.431 33.4308 100 50.0024 100C66.5692 100 80 113.431 80 129.998ZM130.002 80C146.569 80 160 66.5692 160 49.9975C160 33.4308 146.569 20 130.002 20C113.431 20 100 33.4308 100 49.9975C100 66.5692 113.431 80 130.002 80ZM160 209.998C160 226.569 146.569 240 130.002 240C113.431 240 100 226.569 100 209.998C100 193.431 113.431 180 130.002 180C146.569 180 160 193.431 160 209.998ZM130.002 320C146.569 320 160 306.569 160 289.998C160 273.431 146.569 260 130.002 260C113.431 260 100 273.431 100 289.998C100 306.569 113.431 320 130.002 320ZM160 369.998C160 386.569 146.569 400 130.002 400C113.431 400 100 386.569 100 369.998C100 353.431 113.431 340 130.002 340C146.569 340 160 353.431 160 369.998ZM130.002 160C146.569 160 160 146.569 160 129.998C160 113.431 146.569 100 130.002 100C113.431 100 100 113.431 100 129.998C100 146.569 113.431 160 130.002 160Z" fill="#006380" stroke="white" stroke-width="4"/>
<path d="M80 49.9976C80 66.5692 66.5692 80 50.0024 80C33.4308 80 20 66.5692 20 49.9976C20 33.4308 33.4308 20 50.0024 20C66.5692 20 80 33.4308 80 49.9976Z" fill="#FEAD0D"/>
<path d="M80 209.998C80 226.569 66.5692 240 50.0024 240C33.4308 240 20 226.569 20 209.998C20 193.431 33.4308 180 50.0024 180C66.5692 180 80 193.431 80 209.998Z" fill="#FEAD0D"/>
<path d="M80 369.998C80 386.569 66.5692 400 50.0024 400C33.4308 400 20 386.569 20 369.998C20 353.431 33.4308 340 50.0024 340C66.5692 340 80 353.431 80 369.998Z" fill="#FEAD0D"/>
<path d="M80 289.998C80 306.569 66.5692 320 50.0024 320C33.4308 320 20 306.569 20 289.998C20 273.431 33.4308 260 50.0024 260C66.5692 260 80 273.431 80 289.998Z" fill="#FEAD0D"/>
<path d="M80 129.998C80 146.569 66.5692 160 50.0024 160C33.4308 160 20 146.569 20 129.998C20 113.431 33.4308 100 50.0024 100C66.5692 100 80 113.431 80 129.998Z" fill="#FEAD0D"/>
<path d="M160 49.9975C160 66.5692 146.569 80 130.002 80C113.431 80 100 66.5692 100 49.9975C100 33.4308 113.431 20 130.002 20C146.569 20 160 33.4308 160 49.9975Z" fill="#FEAD0D"/>
<path d="M160 209.998C160 226.569 146.569 240 130.002 240C113.431 240 100 226.569 100 209.998C100 193.431 113.431 180 130.002 180C146.569 180 160 193.431 160 209.998Z" fill="#FEAD0D"/>
<path d="M160 289.998C160 306.569 146.569 320 130.002 320C113.431 320 100 306.569 100 289.998C100 273.431 113.431 260 130.002 260C146.569 260 160 273.431 160 289.998Z" fill="#FEAD0D"/>
<path d="M160 369.998C160 386.569 146.569 400 130.002 400C113.431 400 100 386.569 100 369.998C100 353.431 113.431 340 130.002 340C146.569 340 160 353.431 160 369.998Z" fill="#FEAD0D"/>
<path d="M160 129.998C160 146.569 146.569 160 130.002 160C113.431 160 100 146.569 100 129.998C100 113.431 113.431 100 130.002 100C146.569 100 160 113.431 160 129.998Z" fill="#FEAD0D"/>
</g>
<defs>
<clipPath id="clip0_4723_65003">
<rect width="180" height="420" fill="white"/>
</clipPath>
</defs>
</svg>
