<svg width="320" height="320" viewBox="0 0 320 320" fill="none" xmlns="http://www.w3.org/2000/svg">
<g clip-path="url(#clip0_4451_18274)">
<g clip-path="url(#clip1_4451_18274)">
<path d="M314 90H6V230H314V90Z" fill="#CAB6D8"/>
<path d="M156 170.802V216.573H313.435V170.802H263.556C252.566 170.802 242.026 166.784 234.252 159.631C226.478 152.478 222.107 142.775 222.099 132.656C211.112 132.656 200.574 136.675 192.805 143.828C185.036 150.982 180.671 160.685 180.671 170.802H156Z" fill="#3483BA"/>
<path d="M156 191.15V227.762H313.435V191.15H243.662C234.87 191.15 226.439 187.935 220.222 182.211C214.005 176.486 210.513 168.723 210.513 160.628C206.16 160.628 201.849 161.417 197.828 162.951C193.806 164.485 190.151 166.733 187.073 169.568C183.995 172.402 181.553 175.767 179.888 179.47C178.222 183.173 177.364 187.142 177.364 191.15H156Z" fill="#58A5DB"/>
<path d="M156 209.677V229.973H314V209.677H270.819C261.076 209.677 251.731 206.113 244.842 199.769C237.952 193.426 234.082 184.822 234.082 175.85C224.338 175.85 214.994 179.414 208.104 185.758C201.214 192.102 197.344 200.706 197.344 209.677H156Z" fill="#B7DBF5"/>
<path d="M209.496 135.752C211.353 135.752 212.859 134.366 212.859 132.656C212.859 130.945 211.353 129.559 209.496 129.559C207.638 129.559 206.133 130.945 206.133 132.656C206.133 134.366 207.638 135.752 209.496 135.752Z" fill="white"/>
<path d="M204.324 139.993C206.181 139.993 207.687 138.607 207.687 136.897C207.687 135.187 206.181 133.8 204.324 133.8C202.467 133.8 200.961 135.187 200.961 136.897C200.961 138.607 202.467 139.993 204.324 139.993Z" fill="white"/>
<path d="M194.179 144.755C195.49 144.755 196.552 143.777 196.552 142.57C196.552 141.362 195.49 140.384 194.179 140.384C192.867 140.384 191.805 141.362 191.805 142.57C191.805 143.777 192.867 144.755 194.179 144.755Z" fill="white"/>
<path d="M251.008 127.009C252.319 127.009 253.381 126.031 253.381 124.823C253.381 123.616 252.319 122.638 251.008 122.638C249.697 122.638 248.634 123.616 248.634 124.823C248.634 126.031 249.697 127.009 251.008 127.009Z" fill="white"/>
<path d="M233.686 184.801C234.997 184.801 236.06 183.823 236.06 182.616C236.06 181.409 234.997 180.43 233.686 180.43C232.375 180.43 231.312 181.409 231.312 182.616C231.312 183.823 232.375 184.801 233.686 184.801Z" fill="white"/>
<path d="M223.145 181.184C224.456 181.184 225.519 180.206 225.519 178.999C225.519 177.792 224.456 176.813 223.145 176.813C221.834 176.813 220.771 177.792 220.771 178.999C220.771 180.206 221.834 181.184 223.145 181.184Z" fill="white"/>
<path d="M211.416 186.987C212.727 186.987 213.79 186.009 213.79 184.801C213.79 183.594 212.727 182.616 211.416 182.616C210.105 182.616 209.042 183.594 209.042 184.801C209.042 186.009 210.105 186.987 211.416 186.987Z" fill="white"/>
<path d="M236.879 174.549C237.909 174.549 238.744 173.78 238.744 172.832C238.744 171.883 237.909 171.114 236.879 171.114C235.849 171.114 235.014 171.883 235.014 172.832C235.014 173.78 235.849 174.549 236.879 174.549Z" fill="white"/>
<path d="M216.899 159.925C218.21 159.925 219.273 158.947 219.273 157.74C219.273 156.533 218.21 155.554 216.899 155.554C215.588 155.554 214.525 156.533 214.525 157.74C214.525 158.947 215.588 159.925 216.899 159.925Z" fill="white"/>
<path d="M208.733 139.447C210.59 139.447 212.096 138.061 212.096 136.35C212.096 134.64 210.59 133.254 208.733 133.254C206.876 133.254 205.37 134.64 205.37 136.35C205.37 138.061 206.876 139.447 208.733 139.447Z" fill="white"/>
<path d="M214.78 134.139C216.638 134.139 218.143 132.752 218.143 131.042C218.143 129.332 216.638 127.946 214.78 127.946C212.923 127.946 211.417 129.332 211.417 131.042C211.417 132.752 212.923 134.139 214.78 134.139Z" fill="white"/>
<path d="M216.9 137.261C218.757 137.261 220.262 135.875 220.262 134.165C220.262 132.455 218.757 131.068 216.9 131.068C215.042 131.068 213.537 132.455 213.537 134.165C213.537 135.875 215.042 137.261 216.9 137.261Z" fill="white"/>
<path d="M221.534 133.228C223.391 133.228 224.897 131.841 224.897 130.131C224.897 128.421 223.391 127.035 221.534 127.035C219.677 127.035 218.171 128.421 218.171 130.131C218.171 131.841 219.677 133.228 221.534 133.228Z" fill="white"/>
<path d="M219.783 138.848C221.64 138.848 223.146 137.462 223.146 135.752C223.146 134.042 221.64 132.656 219.783 132.656C217.926 132.656 216.42 134.042 216.42 135.752C216.42 137.462 217.926 138.848 219.783 138.848Z" fill="white"/>
<path d="M218.17 133.228C220.027 133.228 221.532 131.841 221.532 130.131C221.532 128.421 220.027 127.035 218.17 127.035C216.312 127.035 214.807 128.421 214.807 130.131C214.807 131.841 216.312 133.228 218.17 133.228Z" fill="white"/>
<path d="M229.926 127.92C231.784 127.92 233.289 126.533 233.289 124.823C233.289 123.113 231.784 121.727 229.926 121.727C228.069 121.727 226.563 123.113 226.563 124.823C226.563 126.533 228.069 127.92 229.926 127.92Z" fill="white"/>
<path d="M227.411 179.441C229.269 179.441 230.774 178.055 230.774 176.345C230.774 174.634 229.269 173.248 227.411 173.248C225.554 173.248 224.048 174.634 224.048 176.345C224.048 178.055 225.554 179.441 227.411 179.441Z" fill="white"/>
<path d="M239.449 131.042C241.307 131.042 242.812 129.656 242.812 127.946C242.812 126.236 241.307 124.849 239.449 124.849C237.592 124.849 236.086 126.236 236.086 127.946C236.086 129.656 237.592 131.042 239.449 131.042Z" fill="white"/>
<path d="M232.301 179.024C234.159 179.024 235.664 177.638 235.664 175.928C235.664 174.218 234.159 172.832 232.301 172.832C230.444 172.832 228.938 174.218 228.938 175.928C228.938 177.638 230.444 179.024 232.301 179.024Z" fill="white"/>
<path d="M209.496 167.445C211.353 167.445 212.859 166.059 212.859 164.349C212.859 162.639 211.353 161.252 209.496 161.252C207.638 161.252 206.133 162.639 206.133 164.349C206.133 166.059 207.638 167.445 209.496 167.445Z" fill="white"/>
<path d="M199.377 164.141C200.392 164.141 201.214 163.383 201.214 162.449C201.214 161.515 200.392 160.758 199.377 160.758C198.363 160.758 197.541 161.515 197.541 162.449C197.541 163.383 198.363 164.141 199.377 164.141Z" fill="white"/>
<path d="M203.589 164.063C205.29 164.063 206.669 162.793 206.669 161.226C206.669 159.66 205.29 158.39 203.589 158.39C201.887 158.39 200.508 159.66 200.508 161.226C200.508 162.793 201.887 164.063 203.589 164.063Z" fill="white"/>
<path d="M211.417 162.423C213.274 162.423 214.78 161.037 214.78 159.327C214.78 157.617 213.274 156.23 211.417 156.23C209.559 156.23 208.054 157.617 208.054 159.327C208.054 161.037 209.559 162.423 211.417 162.423Z" fill="white"/>
<path d="M223.682 155.528C224.712 155.528 225.547 154.759 225.547 153.81C225.547 152.862 224.712 152.093 223.682 152.093C222.651 152.093 221.816 152.862 221.816 153.81C221.816 154.759 222.651 155.528 223.682 155.528Z" fill="white"/>
<g style="mix-blend-mode:lighten" opacity="0.73">
<path d="M156 90H16V230H156V90Z" fill="white"/>
</g>
<path d="M310.92 92.5338V227.44H9.08V92.5338H310.92ZM314 90H6V229.973H314V90Z" fill="#212342"/>
<path d="M31.5401 160V116.363L24 120.232V114.686L31.5401 110H36V160H31.5401Z" fill="#7C5CA9" stroke="#562B9E" stroke-width="0.96" stroke-miterlimit="10"/>
<path d="M59.0861 159.999C56.9333 160.032 54.8089 159.431 52.915 158.251C51.0212 157.072 49.4209 155.355 48.2664 153.262C45.2442 147.813 43.7664 141.418 44.0372 134.96C43.7446 128.53 45.1847 122.152 48.1607 116.699C49.3428 114.64 50.9498 112.95 52.838 111.781C54.7261 110.612 56.8365 110 58.9804 110C61.1242 110 63.2346 110.612 65.1228 111.781C67.011 112.95 68.618 114.64 69.8001 116.699C72.8057 122.138 74.2597 128.523 73.9588 134.96C74.2695 141.412 72.815 147.813 69.8001 153.262C68.6551 155.337 67.0716 157.044 65.1978 158.222C63.3239 159.4 61.2211 160.011 59.0861 159.999ZM59.0861 155.291C60.7435 155.311 62.3636 154.725 63.7127 153.616C65.0619 152.508 66.0704 150.934 66.593 149.123C68.207 144.651 68.999 139.843 68.919 135.001C68.999 130.159 68.207 125.351 66.593 120.879C66.0595 119.074 65.0487 117.507 63.7024 116.397C62.3561 115.287 60.7419 114.69 59.0861 114.69C57.4304 114.69 55.8161 115.287 54.4698 116.397C53.1236 117.507 52.1128 119.074 51.5793 120.879C49.9652 125.351 49.1732 130.159 49.2532 135.001C49.1732 139.843 49.9652 144.651 51.5793 149.123C52.1018 150.934 53.1104 152.508 54.4595 153.616C55.8087 154.725 57.4287 155.311 59.0861 155.291Z" fill="#7C5CA9" stroke="#562B9E" stroke-width="0.96" stroke-miterlimit="10"/>
<path d="M97 159.999C94.8494 160.032 92.7271 159.431 90.8352 158.251C88.9432 157.072 87.3445 155.355 86.1912 153.262C83.1967 147.804 81.7452 141.41 82.0367 134.96C81.7549 128.525 83.206 122.147 86.1912 116.699C87.3721 114.64 88.9775 112.95 90.8638 111.781C92.75 110.612 94.8583 110 97 110C99.1417 110 101.25 110.612 103.136 111.781C105.022 112.95 106.628 114.64 107.809 116.699C110.794 122.147 112.245 128.525 111.963 134.96C112.255 141.41 110.803 147.804 107.809 153.262C106.655 155.355 105.057 157.072 103.165 158.251C101.273 159.431 99.1506 160.032 97 159.999ZM97 155.291C98.6557 155.311 100.274 154.725 101.622 153.616C102.97 152.508 103.977 150.934 104.499 149.123C106.112 144.651 106.903 139.843 106.823 135.001C106.903 130.159 106.112 125.351 104.499 120.879C103.966 119.074 102.957 117.507 101.612 116.397C100.267 115.287 98.6541 114.69 97 114.69C95.3459 114.69 93.7333 115.287 92.3884 116.397C91.0435 117.507 90.0337 119.074 89.5007 120.879C87.8883 125.351 87.0971 130.159 87.177 135.001C87.0971 139.843 87.8883 144.651 89.5007 149.123C90.0227 150.934 91.0303 152.508 92.3781 153.616C93.7259 154.725 95.3443 155.311 97 155.291Z" fill="#7C5CA9" stroke="#562B9E" stroke-width="0.96" stroke-miterlimit="10"/>
<path d="M134.931 159.997C132.791 160.023 130.682 159.418 128.801 158.24C126.921 157.061 125.332 155.347 124.185 153.261C121.181 147.811 119.731 141.411 120.041 134.959C119.741 128.522 121.19 122.138 124.185 116.699C125.363 114.64 126.964 112.95 128.845 111.781C130.727 110.612 132.83 110 134.966 110C137.102 110 139.205 110.612 141.086 111.781C142.968 112.95 144.569 114.64 145.747 116.699C148.749 122.137 150.221 128.516 149.961 134.959C150.262 141.404 148.826 147.798 145.852 153.261C144.684 155.371 143.066 157.099 141.154 158.279C139.241 159.459 137.098 160.05 134.931 159.997ZM134.931 155.29C136.588 155.318 138.21 154.736 139.562 153.626C140.913 152.517 141.923 150.939 142.446 149.122C144.054 144.65 144.843 139.842 144.763 135C144.843 130.158 144.054 125.35 142.446 120.879C141.914 119.074 140.907 117.507 139.565 116.397C138.224 115.287 136.616 114.69 134.966 114.69C133.316 114.69 131.707 115.287 130.366 116.397C129.025 117.507 128.017 119.074 127.486 120.879C125.878 125.35 125.088 130.158 125.168 135C125.088 139.842 125.878 144.65 127.486 149.122C128.005 150.926 129.004 152.494 130.342 153.602C131.679 154.71 133.285 155.301 134.931 155.29Z" fill="#7C5CA9" stroke="#562B9E" stroke-width="0.96" stroke-miterlimit="10"/>
</g>
</g>
<defs>
<clipPath id="clip0_4451_18274">
<rect width="308" height="140" fill="white" transform="translate(6 90)"/>
</clipPath>
<clipPath id="clip1_4451_18274">
<rect width="308" height="140" fill="white" transform="translate(6 90)"/>
</clipPath>
</defs>
</svg>
