<svg width="130" height="130" viewBox="0 0 130 130" fill="none" xmlns="http://www.w3.org/2000/svg">
<g clip-path="url(#clip0_6212_47176)">
<circle cx="65" cy="65" r="60" fill="white"/>
<g clip-path="url(#clip1_6212_47176)">
<circle cx="65" cy="65" r="57.5" fill="#FDFBED"/>
<path d="M112.8 85.2C108.701 95.4533 101.948 104.179 93.3686 110.307C84.789 116.436 74.756 119.7 64.5002 119.7C54.2444 119.7 44.2114 116.436 35.6318 110.307C27.0523 104.179 20.299 95.4533 16.2002 85.2H112.8Z" fill="#F6F0CA"/>
<path d="M13.25 84.55H116.75" stroke="#B97E13" stroke-width="3.45"/>
<path d="M43.4886 75.5208V31.9166L33.3542 35.8937V30.3593L43.4647 25.7114H49.4063V75.5208H43.4886Z" fill="#B97E13" stroke="#765623" stroke-width="2.3" stroke-miterlimit="10"/>
<path d="M77.4382 79.3302C74.8156 79.3488 72.2316 78.6986 69.9302 77.441C67.6288 76.1834 65.6859 74.3599 64.2851 72.1427C60.9309 67.351 59.2538 60.9142 59.2538 52.8323C58.9162 46.0776 60.6734 39.3836 64.2851 33.6656C65.7198 31.4809 67.6753 29.6872 69.9755 28.4459C72.2757 27.2046 74.8484 26.5547 77.4622 26.5547C80.0759 26.5547 82.6486 27.2046 84.9488 28.4459C87.249 29.6872 89.2045 31.4809 90.6392 33.6656C94.2509 39.3836 96.0081 46.0776 95.6705 52.8323C95.6705 60.9781 93.9934 67.4149 90.6392 72.1427C89.2341 74.3668 87.2836 76.1947 84.9731 77.4527C82.6626 78.7107 80.0688 79.357 77.4382 79.3302ZM77.4382 74.3469C79.4525 74.3638 81.4209 73.7456 83.0639 72.5801C84.7068 71.4145 85.9407 69.7609 86.5903 67.8542C88.5343 63.1225 89.4883 58.0427 89.3934 52.9281C89.4831 47.8295 88.5292 42.7664 86.5903 38.05C85.9776 36.106 84.761 34.408 83.1173 33.2026C81.4736 31.9973 79.4884 31.3474 77.4502 31.3474C75.4119 31.3474 73.4267 31.9973 71.783 33.2026C70.1393 34.408 68.9228 36.106 68.3101 38.05C66.3597 42.7721 65.3976 47.8438 65.483 52.9521C65.3957 58.0683 66.3578 63.1482 68.3101 67.8781C68.9624 69.7765 70.1944 71.4221 71.8322 72.5828C73.47 73.7434 75.4309 74.3605 77.4382 74.3469Z" fill="#B97E13" stroke="#765623" stroke-width="2.3" stroke-miterlimit="10"/>
<circle cx="65" cy="65" r="55.2" stroke="#765623" stroke-width="4.6"/>
</g>
</g>
<defs>
<clipPath id="clip0_6212_47176">
<rect width="120" height="120" fill="white" transform="translate(5 5)"/>
</clipPath>
<clipPath id="clip1_6212_47176">
<rect width="115" height="115" fill="white" transform="translate(7.5 7.5)"/>
</clipPath>
</defs>
</svg>
