<svg width="130" height="130" viewBox="0 0 130 130" fill="none" xmlns="http://www.w3.org/2000/svg">
<g clip-path="url(#clip0_6212_47178)">
<circle cx="65" cy="65" r="28.5" stroke="white" stroke-width="43"/>
<g clip-path="url(#clip1_6212_47178)">
<path d="M56.0254 19.8838C64.9485 18.1089 74.1981 19.0203 82.6035 22.502C91.0086 25.9835 98.1926 31.879 103.247 39.4434C108.302 47.008 111 55.9021 111 65C111 77.1999 106.154 88.9007 97.5273 97.5273C88.9007 106.154 77.1999 111 65 111C55.9021 111 47.008 108.303 39.4434 103.248C31.8788 98.1936 25.9836 91.0088 22.502 82.6035C19.0203 74.1981 18.1089 64.9485 19.8838 56.0254C21.6588 47.1024 26.0395 38.9058 32.4727 32.4727C38.9058 26.0395 47.1024 21.6588 56.0254 19.8838ZM75.5469 64.9902C75.5334 62.1997 74.4195 59.5269 72.4463 57.5537C70.4731 55.5805 67.8003 54.4666 65.0098 54.4531H65C62.914 54.4531 60.875 55.0716 59.1406 56.2305C57.4062 57.3894 56.0541 59.0366 55.2559 60.9639C54.4576 62.8911 54.2483 65.0117 54.6553 67.0576C55.0622 69.1036 56.067 70.983 57.542 72.458C59.017 73.933 60.8965 74.9378 62.9424 75.3447C64.9883 75.7517 67.1089 75.5424 69.0361 74.7441C70.9634 73.9459 72.6106 72.5938 73.7695 70.8594C74.9284 69.125 75.5469 67.0859 75.5469 65V64.9902Z" fill="#E4E8DA" stroke="#666C5C" stroke-width="4"/>
<path d="M96.0799 77.94C95.5191 75.9138 94.4823 74.0509 93.056 72.5063C91.6297 70.9617 89.8551 69.7802 87.8799 69.06C85.913 68.3334 83.8059 68.0665 81.7199 68.28C81.6358 69.657 81.3179 71.0096 80.7799 72.28C80.3047 73.5645 79.6297 74.7659 78.78 75.84C78.62 76.02 78.4999 76.22 78.3399 76.4C77.3859 77.3988 76.2869 78.2484 75.08 78.92C74.68 79.12 74.3 79.32 73.9 79.48C72.6202 79.9958 71.2732 80.3258 69.9 80.46C69.7366 82.5117 70.08 84.5721 70.9 86.46C71.7489 88.3895 73.0436 90.09 74.6778 91.4216C76.3119 92.7533 78.2388 93.6781 80.2999 94.12C81.8281 91.7457 82.531 88.934 82.2999 86.12C84.8724 87.2201 87.72 87.5063 90.4599 86.94C90.7316 84.5722 90.3368 82.1755 89.3199 80.02C91.7166 79.9312 94.0479 79.2139 96.0799 77.94Z" stroke="#8D8E89" stroke-width="2" stroke-miterlimit="10" stroke-linejoin="round"/>
<path d="M63.9142 50.6599V28.82L57.8799 30.8999V28.035L63.9142 25.7H67.4799V50.6599H63.9142Z" fill="#838B77" stroke="#41423B" stroke-width="2" stroke-linejoin="round"/>
</g>
</g>
<defs>
<clipPath id="clip0_6212_47178">
<rect width="100" height="100" fill="white" transform="translate(15 15)"/>
</clipPath>
<clipPath id="clip1_6212_47178">
<rect width="95.9999" height="95.9999" fill="white" transform="translate(17 17)"/>
</clipPath>
</defs>
</svg>
