<svg width="320" height="320" viewBox="0 0 320 320" fill="none" xmlns="http://www.w3.org/2000/svg">
<g clip-path="url(#clip0_4451_21261)">
<g clip-path="url(#clip1_4451_21261)">
<path d="M292 90H26V230H292V90Z" fill="#F2DED5"/>
<path d="M289.34 92.5343V227.466H28.66V92.5343H289.34ZM292 90H26V230H292V90Z" fill="#AF2F17"/>
<g style="mix-blend-mode:lighten" opacity="0.73">
<path d="M152 90H36V230H152V90Z" fill="white"/>
</g>
<g style="mix-blend-mode:lighten" opacity="0.73">
<path d="M179 104H161V174H179V104Z" fill="white"/>
</g>
<g style="mix-blend-mode:lighten" opacity="0.73">
<path d="M213 104H195V174H213V104Z" fill="white"/>
</g>
<g style="mix-blend-mode:lighten" opacity="0.73">
<path d="M247 104H229V174H247V104Z" fill="white"/>
</g>
<g style="mix-blend-mode:lighten" opacity="0.73">
<path d="M281 104H263V174H281V104Z" fill="white"/>
</g>
<path d="M221.26 148.151C223.429 159.471 228.957 169.999 237.261 178.362C247.77 188.947 261.941 195.275 276.965 196.126C276.041 206.624 272.082 216.653 265.544 225.04H170.456C166.823 220.391 163.968 215.208 162.002 209.681L162.001 209.677L161.692 208.797C160.299 204.708 159.408 200.471 159.037 196.177H161.193C176.521 196.365 191.351 190.839 202.673 180.717C212.34 172.074 218.829 160.631 221.26 148.151Z" fill="#DD3E1C" stroke="#AF2F17" stroke-width="1.92" stroke-linecap="round" stroke-linejoin="round"/>
<mask id="path-9-inside-1_4451_21261" fill="white">
<path d="M221 226V209.953V141.323V134"/>
</mask>
<path d="M219.08 226C219.08 227.06 219.94 227.92 221 227.92C222.06 227.92 222.92 227.06 222.92 226H219.08ZM222.92 134C222.92 132.94 222.06 132.08 221 132.08C219.94 132.08 219.08 132.94 219.08 134H222.92ZM222.92 226V209.953H219.08V226H222.92ZM222.92 209.953V141.323H219.08V209.953H222.92ZM222.92 141.323V134H219.08V141.323H222.92Z" fill="#AF2F17" mask="url(#path-9-inside-1_4451_21261)"/>
<path d="M291.52 212.48V229.52H152.48V212.48H291.52Z" fill="#B7DBF5" stroke="#B7DBF5" stroke-width="0.96" stroke-miterlimit="10"/>
<path d="M54.7318 160V116.229L46 120.236V114.68L54.7318 110H60V160H54.7318Z" fill="#DD3E1C" stroke="#8C1904" stroke-width="0.96" stroke-miterlimit="10"/>
<path d="M83.9832 159.999C81.6866 160.021 79.4223 159.414 77.4021 158.236C75.3819 157.058 73.6717 155.346 72.4313 153.262C69.2589 147.803 67.7255 141.421 68.0404 134.988C67.7278 128.565 69.2612 122.194 72.4313 116.746C73.688 114.674 75.4035 112.972 77.4229 111.795C79.4424 110.617 81.7021 110 83.9979 110C86.2938 110 88.5535 110.617 90.5729 111.795C92.5923 112.972 94.3079 114.674 95.5646 116.746C98.7531 122.198 100.288 128.585 99.9555 135.02C100.284 141.455 98.7495 147.841 95.5646 153.293C94.3159 155.375 92.5991 157.081 90.574 158.253C88.5489 159.426 86.2815 160.027 83.9832 159.999ZM83.9832 155.296C85.757 155.32 87.4921 154.736 88.9381 153.628C90.3841 152.52 91.4662 150.945 92.0283 149.13C93.745 144.65 94.5876 139.835 94.5037 134.988C94.5853 130.151 93.7426 125.348 92.0283 120.878C91.4554 119.072 90.3734 117.504 88.9334 116.394C87.4935 115.284 85.7679 114.687 83.9979 114.687C82.228 114.687 80.5023 115.284 79.0624 116.394C77.6225 117.504 76.5404 119.072 75.9676 120.878C74.2935 125.357 73.4911 130.16 73.61 134.988C73.5261 139.835 74.3687 144.65 76.0854 149.13C76.6396 150.919 77.6993 152.475 79.1159 153.581C80.5324 154.687 82.2345 155.287 83.9832 155.296Z" fill="#DD3E1C" stroke="#8C1904" stroke-width="0.96" stroke-miterlimit="10"/>
<path d="M124 159.999C121.706 160.021 119.443 159.414 117.425 158.236C115.406 157.058 113.697 155.346 112.458 153.262C109.265 147.812 107.722 141.426 108.041 134.988C107.724 128.56 109.268 122.185 112.458 116.746C113.714 114.674 115.428 112.972 117.446 111.795C119.463 110.617 121.721 110 124.015 110C126.309 110 128.567 110.617 130.585 111.795C132.603 112.972 134.317 114.674 135.572 116.746C138.74 122.194 140.272 128.565 139.96 134.988C140.274 141.421 138.742 147.803 135.572 153.262C134.328 155.349 132.614 157.061 130.591 158.24C128.567 159.418 126.3 160.023 124 159.999ZM124 155.296C125.772 155.315 127.503 154.729 128.947 153.622C130.391 152.514 131.473 150.942 132.039 149.13C133.754 144.65 134.596 139.835 134.512 134.988C134.594 130.151 133.752 125.348 132.039 120.878C131.467 119.072 130.385 117.504 128.947 116.394C127.508 115.284 125.784 114.687 124.015 114.687C122.247 114.687 120.522 115.284 119.084 116.394C117.645 117.504 116.564 119.072 115.991 120.878C114.258 125.344 113.396 130.147 113.459 134.988C113.375 139.835 114.217 144.65 115.932 149.13C116.492 150.953 117.576 152.534 119.028 153.644C120.48 154.753 122.222 155.332 124 155.296Z" fill="#DD3E1C" stroke="#8C1904" stroke-width="0.96" stroke-miterlimit="10"/>
<path d="M289.34 92.5343V227.466H28.66V92.5343H289.34ZM292 90H26V230H292V90Z" fill="#8C1904"/>
</g>
</g>
<defs>
<clipPath id="clip0_4451_21261">
<rect width="266" height="140" fill="white" transform="translate(27 90)"/>
</clipPath>
<clipPath id="clip1_4451_21261">
<rect width="266" height="140" fill="white" transform="translate(27 90)"/>
</clipPath>
</defs>
</svg>
