<svg width="130" height="130" viewBox="0 0 130 130" fill="none" xmlns="http://www.w3.org/2000/svg">
<g clip-path="url(#clip0_6212_47175)">
<circle cx="65" cy="65" r="65" fill="white"/>
<g clip-path="url(#clip1_6212_47175)">
<circle cx="65" cy="65" r="62.5" fill="#FDFBED"/>
<path d="M117.5 87.5C113.045 98.6449 105.704 108.13 96.3786 114.791C87.053 121.452 76.1477 125 65 125C53.8523 125 42.947 121.452 33.6214 114.791C24.2957 108.13 16.9552 98.6449 12.5 87.5H117.5Z" fill="#F6F0CA"/>
<path d="M8.75 86.25H121.25" stroke="#B97E13" stroke-width="3.75"/>
<circle cx="65" cy="65" r="60" stroke="#765623" stroke-width="5"/>
<path d="M25 77.5V71.9539C25.1028 68.6415 26.0136 65.4021 27.6555 62.5098C29.9561 58.5694 33.0786 55.1544 36.8171 52.4901L40.5615 49.6647C44.002 47.2775 47.1324 44.4836 49.8824 41.3455C51.1388 39.6801 51.8268 37.665 51.8475 35.5901C51.8318 34.5439 51.5863 33.5135 51.1279 32.5696C50.6695 31.6258 50.009 30.7909 49.192 30.1225C47.073 28.4222 44.3765 27.5803 41.6502 27.768C39.306 27.5817 36.9666 28.1809 35.0114 29.4684C34.3656 29.8941 33.8315 30.4647 33.4529 31.1332C33.0744 31.8017 32.8622 32.5491 32.8338 33.3141V33.6542H26.434V33.3141C26.4737 31.4066 27.1556 29.5661 28.3725 28.0819C29.7738 26.317 31.5991 24.9234 33.6836 24.027C36.3208 22.939 39.1643 22.4215 42.022 22.5096C48.1563 22.5096 52.5114 23.7915 55.1404 26.3553C56.3961 27.5508 57.3902 28.9869 58.0615 30.575C58.7329 32.1632 59.0672 33.8699 59.044 35.5901C59.0329 37.5699 58.6175 39.5272 57.8225 41.3455C56.6663 43.6535 55.0177 45.6881 52.9894 47.3102C51.1078 48.9788 49.1401 50.5505 47.0941 52.0192L44.4385 53.7982C35.9762 59.4489 31.7451 64.9514 31.7451 70.3057V71.6138H60V77.5H25Z" fill="#B97E13" stroke="#765623" stroke-width="2.5" stroke-miterlimit="10"/>
<path d="M85.9118 77.4988C83.1341 77.5256 80.395 76.8595 77.9526 75.5632C75.5101 74.2668 73.4444 72.3829 71.9501 70.0887C68.0933 64.0907 66.2291 57.0689 66.6141 49.99C66.2276 42.919 68.0922 35.9048 71.9501 29.9167C73.4688 27.639 75.5431 25.7681 77.9853 24.4731C80.4276 23.1781 83.1608 22.5 85.9377 22.5C88.7147 22.5 91.4479 23.1781 93.8902 24.4731C96.3324 25.7681 98.4066 27.639 99.9253 29.9167C103.794 35.9001 105.66 42.9178 105.261 49.99C105.66 57.0703 103.795 64.0961 99.9253 70.0887C98.4246 72.3886 96.3503 74.2758 93.8985 75.5724C91.4466 76.8689 88.6979 77.5319 85.9118 77.4988ZM85.9118 72.4234C88.0597 72.4552 90.1619 71.8154 91.9133 70.597C93.6647 69.3785 94.9741 67.6448 95.6513 65.6477C97.753 60.698 98.7849 55.3753 98.682 50.0154C98.7766 44.6915 97.7538 39.4053 95.6772 34.4846C94.9412 32.542 93.616 30.8665 91.8796 29.6834C90.1431 28.5003 88.0787 27.8661 85.9636 27.8661C83.8486 27.8661 81.7841 28.5003 80.0477 29.6834C78.3113 30.8665 76.9861 32.542 76.25 34.4846C74.1734 39.4053 73.1507 44.6915 73.2453 50.0154C73.1485 55.3395 74.1713 60.6261 76.25 65.5462C76.9232 67.5308 78.2208 69.2555 79.9566 70.4728C81.6924 71.6901 83.7772 72.3374 85.9118 72.3219V72.4234Z" fill="#B97E13" stroke="#765623" stroke-width="2.5" stroke-miterlimit="10"/>
</g>
</g>
<defs>
<clipPath id="clip0_6212_47175">
<rect width="130" height="130" fill="white"/>
</clipPath>
<clipPath id="clip1_6212_47175">
<rect width="125" height="125" fill="white" transform="translate(2.5 2.5)"/>
</clipPath>
</defs>
</svg>
