<svg width="320" height="320" viewBox="0 0 320 320" fill="none" xmlns="http://www.w3.org/2000/svg">
<g clip-path="url(#clip0_4391_18253)">
<g clip-path="url(#clip1_4391_18253)">
<path d="M286 90H34V230H286V90Z" fill="#C5E0C8"/>
<path d="M283.48 92.5343V227.466H36.52V92.5343H283.48ZM286 90H34V230H286V90Z" fill="#30672C"/>
<path d="M218 212C251.137 212 278 185.137 278 152C278 118.863 251.137 92 218 92C184.863 92 158 118.863 158 152C158 185.137 184.863 212 218 212Z" fill="#EBE6A6"/>
<path d="M241.891 139H196.073V159H241.891V139Z" fill="#EBE6A6" stroke="#639549" stroke-width="1.92" stroke-linecap="round" stroke-linejoin="round"/>
<g style="mix-blend-mode:lighten" opacity="0.73">
<path d="M218 166C225.732 166 232 159.732 232 152C232 144.268 225.732 138 218 138C210.268 138 204 144.268 204 152C204 159.732 210.268 166 218 166Z" fill="white"/>
</g>
<path d="M254 228L249.232 178H189.567L184 228H254Z" fill="#639549" stroke="#30672C" stroke-width="2" stroke-linecap="round" stroke-linejoin="round"/>
<path d="M218.982 115.667L196.073 139H241.891L218.982 115.667Z" fill="#639549" stroke="#30672C" stroke-width="1.92" stroke-linecap="round" stroke-linejoin="round"/>
<path d="M254 158H184V178H254V158Z" fill="#639549" stroke="#30672C" stroke-width="2" stroke-linecap="round" stroke-linejoin="round"/>
<g style="mix-blend-mode:lighten" opacity="0.73">
<path d="M152 90H44V230H152V90Z" fill="white"/>
</g>
<path d="M283.48 92.5343V227.466H36.52V92.5343H283.48ZM286 90H34V230H286V90Z" fill="#30672C"/>
<path d="M63.2601 133.526V110H88.0365V115.326H68.4762V128.396H69.9432C73.8981 128.216 77.8479 128.85 81.549 130.258C84.1199 131.333 86.3113 133.153 87.8409 135.486C89.3356 137.93 90.0836 140.758 89.9926 143.623C90.0493 147.754 88.6657 151.775 86.0805 154.993C84.6128 156.702 82.7658 158.041 80.6878 158.903C78.6099 159.766 76.359 160.128 74.1161 159.96C70.4922 160.141 66.9055 159.156 63.8795 157.15C62.7222 156.419 61.7627 155.414 61.086 154.223C60.4093 153.031 60.0363 151.691 60 150.321V149.994H65.8029V150.321C65.829 151.04 66.0489 151.739 66.4392 152.343C66.8295 152.947 67.3757 153.434 68.0198 153.752C69.8568 154.75 71.9313 155.224 74.0183 155.124C75.4439 155.233 76.8747 154.993 78.1868 154.424C79.4989 153.854 80.6529 152.973 81.549 151.857C83.1196 149.719 83.9548 147.127 83.9289 144.472C83.9581 143.019 83.6831 141.577 83.1216 140.237C82.56 138.898 81.7245 137.691 80.6688 136.695C78.4846 134.604 74.1487 133.428 67.6285 133.428L63.2601 133.526Z" fill="#639549" stroke="#30672C" stroke-miterlimit="10"/>
<path d="M116.001 159.999C113.417 160.029 110.869 159.426 108.596 158.247C106.324 157.067 104.403 155.35 103.015 153.259C99.4235 147.807 97.687 141.419 98.0464 134.978C97.687 128.537 99.4235 122.148 103.015 116.697C104.438 114.638 106.37 112.949 108.639 111.78C110.908 110.612 113.442 110 116.017 110C118.592 110 121.126 110.612 123.395 111.78C125.664 112.949 127.596 114.638 129.019 116.697C132.585 122.158 134.309 128.542 133.955 134.978C134.309 141.414 132.585 147.798 129.019 153.259C127.626 155.353 125.699 157.071 123.421 158.25C121.143 159.43 118.589 160.032 116.001 159.999ZM116.001 155.293C117.99 155.316 119.935 154.731 121.555 153.622C123.175 152.513 124.385 150.938 125.011 149.126C126.971 144.651 127.931 139.831 127.826 134.978C127.916 130.136 126.957 125.329 125.011 120.862C124.36 119.066 123.142 117.51 121.528 116.408C119.913 115.307 117.981 114.715 116.001 114.715C114.02 114.715 112.088 115.307 110.473 116.408C108.859 117.51 107.641 119.066 106.99 120.862C105.067 125.335 104.12 130.139 104.208 134.978C104.141 139.834 105.122 144.651 107.09 149.126C107.71 150.923 108.905 152.486 110.505 153.594C112.105 154.701 114.028 155.296 116.001 155.293Z" fill="#639549" stroke="#30672C" stroke-miterlimit="10"/>
</g>
</g>
<defs>
<clipPath id="clip0_4391_18253">
<rect width="252" height="140" fill="white" transform="translate(34 90)"/>
</clipPath>
<clipPath id="clip1_4391_18253">
<rect width="252" height="140" fill="white" transform="translate(34 90)"/>
</clipPath>
</defs>
</svg>
