<svg width="320" height="320" viewBox="0 0 320 320" fill="none" xmlns="http://www.w3.org/2000/svg">
<g clip-path="url(#clip0_4451_19021)">
<g clip-path="url(#clip1_4451_19021)">
<path d="M307 90H13V230H307V90Z" fill="#F6F0CA"/>
<path d="M304.06 92.5343V227.466H15.94V92.5343H304.06ZM307 90H13V230H307V90Z" fill="#765623"/>
<g style="mix-blend-mode:lighten" opacity="0.73">
<path d="M155 90H23V230H155V90Z" fill="white"/>
</g>
<path d="M275.297 176.193H198.321C198.46 157.753 206.591 140.086 220.988 127.022C235.399 113.946 254.913 106.55 275.297 106.435V176.193Z" fill="#FDFAD7" stroke="#765623" stroke-width="0.96" stroke-linecap="round" stroke-linejoin="round"/>
<path d="M205.208 176.193H152.928C153.066 163.697 158.596 151.728 168.361 142.867C178.141 133.994 191.374 128.961 205.208 128.847V176.193Z" fill="#FDFAD7" stroke="#765623" stroke-width="0.96" stroke-linecap="round" stroke-linejoin="round"/>
<path d="M298.142 184.33V188.072C298.053 188.134 297.985 188.224 297.954 188.332L297.938 188.421C297.227 196.264 294.686 203.882 290.48 210.77C286.3 217.619 280.568 223.59 273.659 228.292H199.809C192.9 223.591 187.168 217.618 182.987 210.77C178.782 203.882 176.242 196.264 175.531 188.421C175.509 188.174 175.301 187.984 175.053 187.984H139.519V184.33H298.142Z" fill="#B97E13" stroke="#765623" stroke-width="0.96" stroke-linecap="round" stroke-linejoin="round"/>
<path d="M305.295 203.857C300.139 203.928 295.01 204.537 290.007 205.671C251.081 215.408 209.48 199.535 188.018 197.668C162.235 195.427 150.739 204.79 150.739 204.79C150.737 212.94 152.136 221.041 154.885 228.8H305.295V203.857Z" fill="#B7DBF5"/>
<path d="M37.9211 133.433V110H61.1988V115.337H42.9418V128.356H44.3111C48.0121 128.182 51.7076 128.813 55.174 130.211C57.5467 131.315 59.5665 133.136 60.9858 135.451C62.3744 137.887 63.072 140.702 62.9941 143.555C63.0651 147.708 61.761 151.754 59.3123 154.978C57.9517 156.693 56.2301 158.039 54.2888 158.905C52.3476 159.771 50.242 160.131 48.1451 159.958C44.7577 160.145 41.405 159.151 38.5906 157.126C37.5124 156.399 36.6198 155.397 35.9932 154.209C35.3665 153.022 35.0252 151.687 35 150.324V149.999H40.4163V150.324C40.4323 151.043 40.6304 151.743 40.9895 152.351C41.3485 152.958 41.855 153.45 42.455 153.774C44.1726 154.756 46.1087 155.218 48.0538 155.108C49.3853 155.226 50.7233 154.99 51.9493 154.422C53.1754 153.855 54.2516 152.972 55.0827 151.854C56.5635 149.73 57.3543 147.147 57.3344 144.498C57.3594 143.057 57.1015 141.625 56.5774 140.297C56.0533 138.968 55.2746 137.772 54.2916 136.785C52.2529 134.67 48.2059 133.53 42.1202 133.53L37.9211 133.433Z" fill="#B97E13" stroke="#765623" stroke-width="0.96" stroke-miterlimit="10"/>
<path d="M86.8528 159.997C84.5826 159.995 82.3494 159.377 80.3584 158.2C78.3674 157.023 76.6825 155.325 75.4586 153.262C72.2621 147.804 70.7186 141.409 71.0422 134.962C70.7228 128.526 72.2662 122.142 75.4586 116.694C76.7201 114.636 78.4345 112.948 80.4485 111.78C82.4625 110.611 84.7135 110 87 110C89.2865 110 91.5375 110.611 93.5515 111.78C95.5655 112.948 97.2799 114.636 98.5414 116.694C101.734 122.142 103.277 128.526 102.958 134.962C103.281 141.409 101.738 147.804 98.5414 153.262C97.291 155.371 95.5593 157.098 93.5126 158.277C91.4658 159.456 89.1726 160.049 86.8528 159.997ZM86.8528 155.263C88.6184 155.293 90.3469 154.714 91.787 153.612C93.2272 152.509 94.304 150.94 94.8611 149.131C96.5739 144.651 97.4156 139.839 97.3343 134.994C97.4183 130.158 96.5764 125.356 94.8611 120.888C94.2966 119.078 93.2201 117.506 91.7833 116.392C90.3465 115.278 88.622 114.679 86.8528 114.679C85.0836 114.679 83.359 115.278 81.9222 116.392C80.4855 117.506 79.4089 119.078 78.8445 120.888C77.1292 125.356 76.2872 130.158 76.3713 134.994C76.2899 139.839 77.1317 144.651 78.8445 149.131C79.3964 150.946 80.4711 152.522 81.9117 153.631C83.3523 154.739 85.0835 155.322 86.8528 155.295V155.263Z" fill="#B97E13" stroke="#765623" stroke-width="0.96" stroke-miterlimit="10"/>
<path d="M127 159.999C124.704 160.029 122.439 159.427 120.419 158.248C118.399 157.069 116.692 155.354 115.459 153.263C112.262 147.806 110.719 141.41 111.042 134.963C110.723 128.526 112.266 122.142 115.459 116.694C116.72 114.636 118.434 112.948 120.449 111.78C122.463 110.611 124.713 110 127 110C129.287 110 131.537 110.611 133.551 111.78C135.566 112.948 137.28 114.636 138.541 116.694C141.734 122.142 143.277 128.526 142.958 134.963C143.281 141.41 141.738 147.806 138.541 153.263C137.3 155.345 135.591 157.054 133.573 158.232C131.555 159.41 129.294 160.018 127 159.999ZM127 155.265C128.77 155.297 130.503 154.719 131.948 153.617C133.393 152.514 134.475 150.944 135.038 149.133C136.751 144.653 137.592 139.84 137.511 134.995C137.595 130.159 136.753 125.357 135.038 120.888C134.473 119.079 133.397 117.506 131.96 116.392C130.523 115.278 128.799 114.679 127.029 114.679C125.26 114.679 123.536 115.278 122.099 116.392C120.662 117.506 119.586 119.079 119.021 120.888C117.296 125.354 116.444 130.157 116.519 134.995C116.446 139.843 117.298 144.655 119.021 149.133C119.568 150.945 120.637 152.52 122.072 153.629C123.508 154.738 125.235 155.322 127 155.297V155.265Z" fill="#B97E13" stroke="#765623" stroke-width="0.96" stroke-miterlimit="10"/>
<path d="M304.06 92.5343V227.466H15.94V92.5343H304.06ZM307 90H13V230H307V90Z" fill="#765623"/>
</g>
</g>
<defs>
<clipPath id="clip0_4451_19021">
<rect width="294" height="140" fill="white" transform="translate(13 90)"/>
</clipPath>
<clipPath id="clip1_4451_19021">
<rect width="294" height="140" fill="white" transform="translate(13 90)"/>
</clipPath>
</defs>
</svg>
