<svg width="130" height="130" viewBox="0 0 130 130" fill="none" xmlns="http://www.w3.org/2000/svg">
<g clip-path="url(#clip0_6212_47177)">
<circle cx="65" cy="65" r="31.5" stroke="white" stroke-width="47"/>
<g clip-path="url(#clip1_6212_47177)">
<path d="M55.167 15.5684C64.9436 13.6237 75.0777 14.6219 84.2871 18.4365C93.4965 22.2512 101.368 28.7108 106.906 36.999C112.444 45.2873 115.4 55.0318 115.4 65C115.4 78.3669 110.09 91.1859 100.638 100.638C91.1859 110.09 78.3669 115.4 65 115.4C55.0318 115.4 45.2873 112.444 36.999 106.906C28.7108 101.368 22.2512 93.4965 18.4365 84.2871C14.6219 75.0777 13.6237 64.9436 15.5684 55.167C17.5131 45.3905 22.3138 36.4108 29.3623 29.3623C36.4108 22.3138 45.3905 17.5131 55.167 15.5684ZM76.4482 64.9902C76.4337 61.9611 75.224 59.0599 73.082 56.918C70.9401 54.776 68.0389 53.5663 65.0098 53.5518H65C62.7357 53.5518 60.5223 54.2235 58.6396 55.4814C56.7571 56.7394 55.2893 58.5273 54.4229 60.6191C53.5565 62.711 53.3298 65.0128 53.7715 67.2334C54.2132 69.4542 55.3032 71.4946 56.9043 73.0957C58.5054 74.6968 60.5458 75.7868 62.7666 76.2285C64.9872 76.6702 67.289 76.4435 69.3809 75.5771C71.4727 74.7107 73.2606 73.2429 74.5186 71.3604C75.7765 69.4777 76.4482 67.2643 76.4482 65V64.9902Z" fill="#E4E8DA" stroke="#666C5C" stroke-width="4.2"/>
<path d="M48.7903 71.1469C48.1159 69.4037 47.7173 67.566 47.6091 65.7V65.7C47.6091 65.4156 47.6091 65.1312 47.6091 64.8469C47.615 62.9824 47.9102 61.1302 48.4841 59.3562C49.1063 57.6043 50.0075 55.9644 51.1528 54.5C48.2535 51.3825 44.3241 49.4193 40.0903 48.973C35.8564 48.5267 31.6041 49.6274 28.1185 52.0719C28.9065 54.813 30.3391 57.3257 32.2966 59.4C29.7946 60.681 27.6347 62.5409 25.9966 64.825C27.8789 67.4534 30.4429 69.5182 33.4122 70.7969C31.1409 73.0471 29.5294 75.8766 28.7528 78.9781C31.114 80.5088 33.8054 81.4559 36.6049 81.7412C39.4043 82.0265 42.2314 81.6417 44.8528 80.6187C47.4379 79.6142 49.7472 78.0097 51.5903 75.9375C50.4133 74.4961 49.4686 72.8798 48.7903 71.1469V71.1469Z" stroke="#8D8E89" stroke-width="2.1" stroke-miterlimit="10"/>
<path d="M82.2665 63.727V44H103.269V48.4786H86.7793V59.4617H87.9984C91.3427 59.3138 94.6823 59.8434 97.8155 61.0185C99.9659 61.9316 101.802 63.4512 103.098 65.3904C104.34 67.4469 104.963 69.8155 104.895 72.2149C104.929 75.6627 103.765 79.0159 101.601 81.7052C100.375 83.1594 98.8211 84.3038 97.0666 85.0451C95.3122 85.7864 93.4068 86.1034 91.506 85.9704C88.4756 86.0985 85.4818 85.2701 82.9509 83.6032C81.9771 82.993 81.1704 82.1515 80.603 81.154C80.0357 80.1565 79.7254 79.0342 79.7 77.8877V77.6318H84.5978V77.8877C84.6154 78.4939 84.7979 79.0839 85.1256 79.5947C85.4533 80.1055 85.914 80.518 86.4585 80.7881C88.006 81.6171 89.7516 82.008 91.506 81.9184C92.7225 82.0253 93.9464 81.8277 95.0668 81.3436C96.1873 80.8594 97.1688 80.1041 97.9224 79.146C99.309 77.381 100.062 75.2034 100.061 72.9613C100.069 71.7647 99.8306 70.5791 99.3596 69.4785C98.8887 68.3778 98.1956 67.3855 97.3235 66.5634C95.5056 64.7933 91.8055 63.9189 86.266 63.9189L82.2665 63.727Z" fill="#838B77" stroke="#41423B" stroke-width="2.1" stroke-linejoin="round"/>
</g>
</g>
<defs>
<clipPath id="clip0_6212_47177">
<rect width="110" height="110" fill="white" transform="translate(10 10)"/>
</clipPath>
<clipPath id="clip1_6212_47177">
<rect width="105" height="105" fill="white" transform="translate(12.5 12.5)"/>
</clipPath>
</defs>
</svg>
