<svg width="136" height="72" viewBox="0 0 136 72" fill="none" xmlns="http://www.w3.org/2000/svg">
<g clip-path="url(#clip0_4320_3820)">
<path d="M122.025 60.9824H18.3465C10.9092 60.9824 4.87988 54.9531 4.87988 47.5158V13.4664C4.87988 6.02911 10.9092 -0.00022423 18.3465 -0.00022423H122.025C129.464 -0.00022423 135.492 6.02911 135.492 13.4664V47.5158C135.492 54.9531 129.464 60.9824 122.025 60.9824Z" fill="black"/>
<path d="M8.08548 13.3828C7.52815 13.3828 7.07617 12.9308 7.07617 12.3735C7.07617 12.2815 7.19081 3.24149 17.6801 1.76016C18.2241 1.68416 18.7428 2.06682 18.8202 2.61882C18.8988 3.17082 18.5135 3.68149 17.9615 3.76016C9.19079 4.99882 9.09616 12.0722 9.09616 12.3722C9.09616 12.9295 8.64281 13.3815 8.08548 13.3828Z" fill="#616161"/>
<path d="M17.8229 59.2324L17.6801 59.2217C7.19081 57.7404 7.07617 48.6991 7.07617 48.6084C7.07617 48.0511 7.52815 47.5991 8.08548 47.5991C8.64281 47.6004 9.09349 48.0511 9.09616 48.6084C9.09883 48.9297 9.26012 55.9924 17.9615 57.2217C18.5135 57.3004 18.8988 57.8111 18.8202 58.3631C18.7495 58.8684 18.3175 59.2324 17.8229 59.2324Z" fill="#616161"/>
<path d="M18.3465 6.39557C10.9092 6.39557 4.87988 12.3929 4.87988 19.7902V30.4902H39.3745V6.39557H18.3465Z" fill="#FEE52E"/>
<path d="M4.87988 30.5524C4.87988 30.5524 4.87988 33.8564 4.87988 41.2538C4.87988 48.6511 10.9092 54.6484 18.3465 54.6484H39.3745V30.5524H4.87988Z" fill="#FEE52E"/>
<path d="M6.53333 47.666C2.924 47.666 0 41.638 0 34.1993V26.782C0 19.3447 2.924 13.314 6.53333 13.314H13.068V47.666C13.068 47.666 10.1427 47.666 6.53333 47.666Z" fill="black"/>
<path d="M73.4674 58.0977H39.374V2.88431H73.4674V58.0977Z" fill="#333333"/>
<path d="M73.4674 11.6582H39.374V2.88486H73.4674V11.6582Z" fill="#404040"/>
<path d="M110.137 58.0977H80.8252V2.88431H110.137V58.0977Z" fill="#333333"/>
<path d="M110.245 11.6582H76.1504V2.88486H110.245V11.6582Z" fill="#404040"/>
<path d="M73.4674 57.8027H39.374V49.0294H73.4674V57.8027Z" fill="#404040"/>
<path d="M110.245 57.8027H76.1504V49.0294H110.245V57.8027Z" fill="#404040"/>
<path d="M80.9561 2.76062V58.2246C85.1747 58.2246 88.5934 54.8046 88.5934 50.5859V10.398C88.5934 6.18062 85.1747 2.76062 80.9561 2.76062Z" fill="black"/>
<path d="M122.025 -0.00022423H117.942V60.9824H122.025C129.464 60.9824 135.492 54.9531 135.492 47.5158V13.4664C135.492 6.02911 129.464 -0.00022423 122.025 -0.00022423Z" fill="#333333"/>
<path d="M115.885 2.76062V58.2246C120.103 58.2246 123.523 54.8046 123.523 50.5859V10.398C123.523 6.18062 120.103 2.76062 115.885 2.76062Z" fill="black"/>
<path d="M74.6875 2.76062V58.2246C70.4675 58.2246 67.0488 54.8046 67.0488 50.5859V10.398C67.0488 6.18062 70.4675 2.76062 74.6875 2.76062Z" fill="black"/>
<path d="M28.13 39.9238H13.0674V21.0585H28.13V39.9238Z" fill="#FEB014"/>
<path d="M28.13 37.2461H13.0674V23.7355H28.13V37.2461Z" fill="black"/>
<path d="M78.7126 54.9375H76.9179C73.1992 54.9375 70.1846 51.9228 70.1846 48.2055V12.7788C70.1846 9.06014 73.1992 6.04547 76.9179 6.04547H78.7126C82.4312 6.04547 85.4473 9.06014 85.4473 12.7788V48.2055C85.4473 51.9228 82.4312 54.9375 78.7126 54.9375Z" fill="#FEE52E"/>
<path d="M114.918 54.9375H110.137V6.04547C110.137 6.04547 112.278 6.04547 114.918 6.04547C117.562 6.04547 119.702 9.06014 119.702 12.7788V48.2055C119.702 51.9228 117.562 54.9375 114.918 54.9375Z" fill="#FEE52E"/>
<path d="M126.718 57.8828C126.281 57.8828 125.854 57.6721 125.595 57.2815C125.182 56.6615 125.351 55.8255 125.97 55.4135C129.075 53.3521 130.926 49.9055 130.926 46.1895V14.7948C130.926 11.0788 129.075 7.63084 125.97 5.5695C125.351 5.1575 125.182 4.3215 125.595 3.70284C126.007 3.08284 126.841 2.91616 127.463 3.32549C131.317 5.88816 133.622 10.1748 133.622 14.7948V46.1895C133.622 50.8082 131.317 55.0962 127.463 57.6575C127.231 57.8095 126.973 57.8828 126.718 57.8828Z" fill="#616161"/>
<path d="M107.224 64.5312H62.4238V60.9832H107.224V64.5312Z" fill="black"/>
<path d="M107.224 71.168H62.4238V64.5306H107.224V71.168Z" fill="#5A5A5A"/>
<path d="M107.224 66.0723H62.4238V64.5296H107.224V66.0723Z" fill="#D9D9D9"/>
<path d="M107.224 71.168H62.4238V69.6266H107.224V71.168Z" fill="#949494"/>
<path d="M62.4241 69.627L53.3574 60.9816H62.4241V69.627Z" fill="#5A5A5A"/>
<path d="M62.424 66.0605L57.0986 60.9819H62.424V66.0605Z" fill="black"/>
</g>
<defs>
<clipPath id="clip0_4320_3820">
<rect width="135.492" height="71.1682" fill="white"/>
</clipPath>
</defs>
</svg>
