<svg width="40" height="47" viewBox="0 0 40 47" fill="none" xmlns="http://www.w3.org/2000/svg">
<g clip-path="url(#clip0_4375_5)">
<path d="M0 47H40V-1.9297e-06H0V47Z" fill="#FEE52E"/>
<path d="M0.6875 39.9463L1.66457 23.2943L0.6875 6.72093L1.47297 6.7916C1.53337 6.79694 1.84017 6.82629 2.34324 6.91029V39.7569C1.84017 39.8409 1.53337 39.8716 1.47297 39.8756L0.6875 39.9463Z" fill="#EBEBEB"/>
<path d="M2.34375 39.7568V6.91019C3.17348 7.05019 4.53908 7.34084 6.22348 7.92084L7.58335 8.42884C10.3751 9.55284 13.7761 11.4315 17.0256 14.5568H35.0636C37.6885 14.5568 39.8245 16.6782 39.8245 19.2848V27.3809C39.8245 29.9875 37.6885 32.1102 35.0636 32.1102H17.0256C13.7761 35.2355 10.3751 37.1142 7.58335 38.2382L6.22348 38.7462C4.53908 39.3262 3.17348 39.6155 2.34375 39.7568Z" fill="#EAD32A"/>
<path d="M1 7L1.9373 23L1 39C1 39 9.20229 38.2699 16.4457 31.1647H34.8908C37.1588 31.1647 39 29.336 39 27.081V23C39 23 39 21.1726 39 18.9176C39 16.6626 37.1588 14.8339 34.8908 14.8339H16.4457C9.20229 7.73015 1 7 1 7Z" fill="#ACACAC"/>
<path d="M2.32913 23.5975L1.41406 39.2002C1.41406 39.2002 9.55833 38.4762 16.7505 31.4309H35.0651C37.3171 31.4309 39.1453 29.6175 39.1453 27.3815V23.5975H2.32913Z" fill="#D2D1D9"/>
<path d="M33.3827 23.3355C33.3827 25.4369 31.6771 27.1436 29.5739 27.1436C27.4714 27.1436 25.7656 25.4369 25.7656 23.3355C25.7656 21.2329 27.4714 19.5275 29.5739 19.5275C31.6771 19.5275 33.3827 21.2329 33.3827 23.3355Z" fill="#CCCCCC"/>
<path d="M31.4742 20.0529C31.7992 20.6142 31.9992 21.2569 31.9992 21.9502C31.9992 24.0542 30.2946 25.7595 28.1919 25.7595C27.4966 25.7595 26.8544 25.5595 26.293 25.2342C26.9512 26.3702 28.167 27.1436 29.5752 27.1436C31.6784 27.1436 33.384 25.4369 33.384 23.3355C33.384 21.9275 32.6107 20.7129 31.4742 20.0529Z" fill="#787878"/>
<path d="M29.8856 21.9031C29.8856 22.7511 29.1981 23.4404 28.3487 23.4404C27.4987 23.4404 26.8105 22.7511 26.8105 21.9031C26.8105 21.0538 27.4987 20.3658 28.3487 20.3658C29.1981 20.3658 29.8856 21.0538 29.8856 21.9031Z" fill="#FAFAFA"/>
<path d="M15.6351 23.3355C15.6351 25.4369 13.931 27.1436 11.8269 27.1436C9.72367 27.1436 8.01953 25.4369 8.01953 23.3355C8.01953 21.2329 9.72367 19.5275 11.8269 19.5275C13.931 19.5275 15.6351 21.2329 15.6351 23.3355Z" fill="#CCCCCC"/>
<path d="M12.1291 21.9031C12.1291 22.7511 11.4416 23.4404 10.5922 23.4404C9.74269 23.4404 9.05469 22.7511 9.05469 21.9031C9.05469 21.0538 9.74269 20.3658 10.5922 20.3658C11.4416 20.3658 12.1291 21.0538 12.1291 21.9031Z" fill="#FAFAFA"/>
<path d="M13.7658 20.0529C14.0902 20.6142 14.2903 21.2569 14.2903 21.9502C14.2903 24.0542 12.5861 25.7595 10.482 25.7595C9.78718 25.7595 9.14438 25.5595 8.58398 25.2342C9.24292 26.3702 10.4585 27.1436 11.8662 27.1436C13.9694 27.1436 15.6736 25.4369 15.6736 23.3355C15.6736 21.9275 14.9017 20.7129 13.7658 20.0529Z" fill="#787878"/>
<path d="M0 47H2V-1.37091e-06H0V47Z" fill="#ACACAC"/>
<path d="M0 46.667H0.482265V0.000328302H0V46.667Z" fill="#D2D1D9"/>
</g>
<defs>
<clipPath id="clip0_4375_5">
<rect width="40" height="47" fill="white"/>
</clipPath>
</defs>
</svg>
