<svg width="606" height="47" viewBox="0 0 606 47" fill="none" xmlns="http://www.w3.org/2000/svg">
<g clip-path="url(#clip0_4320_4658)">
<path d="M0 42.168H605.925V4.5013H0V42.168Z" fill="#FEE52E"/>
<path d="M0.688477 39.9473L1.66554 23.2952L0.688477 6.72191L1.47394 6.79258C1.53434 6.79791 1.84115 6.82726 2.34421 6.91126V39.7579C1.84115 39.8419 1.53434 39.8726 1.47394 39.8766L0.688477 39.9473Z" fill="#F2CF2A"/>
<path d="M2.34473 39.7578V6.91117C3.17446 7.05117 4.54006 7.34181 6.22446 7.92181V15.2618H7.58433V8.42982C10.3761 9.55382 13.7771 11.4325 17.0266 14.5578H35.0646C37.6895 14.5578 39.8255 16.6791 39.8255 19.2858V27.3818C39.8255 29.9885 37.6895 32.1112 35.0646 32.1112H17.0266C13.7771 35.2365 10.3761 37.1152 7.58433 38.2392V31.4098H6.22446V38.7472C4.54006 39.3272 3.17446 39.6165 2.34473 39.7578Z" fill="#EAD32A"/>
<path d="M1.41406 7.47051L2.34473 23.3358L1.41406 39.2012C1.41406 39.2012 9.55833 38.4772 16.7505 31.4318H35.0651C37.3171 31.4318 39.1453 29.6185 39.1453 27.3825V23.3358C39.1453 23.3358 39.1453 21.5238 39.1453 19.2878C39.1453 17.0518 37.3171 15.2385 35.0651 15.2385H16.7505C9.55833 8.19451 1.41406 7.47051 1.41406 7.47051Z" fill="#ACACAC"/>
<path d="M2.32913 23.5985L1.41406 39.2012C1.41406 39.2012 9.55833 38.4772 16.7505 31.4318H35.0651C37.3171 31.4318 39.1453 29.6185 39.1453 27.3825V23.5985H2.32913Z" fill="#D2D1D9"/>
<path d="M33.3827 23.3365C33.3827 25.4379 31.6771 27.1445 29.5739 27.1445C27.4714 27.1445 25.7656 25.4379 25.7656 23.3365C25.7656 21.2339 27.4714 19.5285 29.5739 19.5285C31.6771 19.5285 33.3827 21.2339 33.3827 23.3365Z" fill="#CCCCCC"/>
<path d="M31.4732 20.0538C31.7983 20.6152 31.9983 21.2579 31.9983 21.9512C31.9983 24.0552 30.2936 25.7605 28.1909 25.7605C27.4956 25.7605 26.8535 25.5605 26.292 25.2352C26.9503 26.3712 28.166 27.1445 29.5743 27.1445C31.6775 27.1445 33.3831 25.4379 33.3831 23.3365C33.3831 21.9285 32.6097 20.7138 31.4732 20.0538Z" fill="#787878"/>
<path d="M29.8856 21.9041C29.8856 22.7521 29.1981 23.4414 28.3487 23.4414C27.4987 23.4414 26.8105 22.7521 26.8105 21.9041C26.8105 21.0547 27.4987 20.3667 28.3487 20.3667C29.1981 20.3667 29.8856 21.0547 29.8856 21.9041Z" fill="#FAFAFA"/>
<path d="M15.6351 23.3365C15.6351 25.4379 13.931 27.1445 11.8269 27.1445C9.72367 27.1445 8.01953 25.4379 8.01953 23.3365C8.01953 21.2339 9.72367 19.5285 11.8269 19.5285C13.931 19.5285 15.6351 21.2339 15.6351 23.3365Z" fill="#CCCCCC"/>
<path d="M12.1291 21.9041C12.1291 22.7521 11.4416 23.4414 10.5922 23.4414C9.74269 23.4414 9.05469 22.7521 9.05469 21.9041C9.05469 21.0547 9.74269 20.3667 10.5922 20.3667C11.4416 20.3667 12.1291 21.0547 12.1291 21.9041Z" fill="#FAFAFA"/>
<path d="M13.7658 20.0538C14.0902 20.6152 14.2903 21.2579 14.2903 21.9512C14.2903 24.0552 12.5861 25.7605 10.482 25.7605C9.78718 25.7605 9.14438 25.5605 8.58398 25.2352C9.24292 26.3712 10.4585 27.1445 11.8662 27.1445C13.9694 27.1445 15.6736 25.4379 15.6736 23.3365C15.6736 21.9285 14.9017 20.7138 13.7658 20.0538Z" fill="#787878"/>
<path d="M0.482422 46.668H2.34442V0.00130486H0.482422V46.668Z" fill="#ACACAC"/>
<path d="M0 46.668H0.482265V0.00130486H0V46.668Z" fill="#D2D1D9"/>
</g>
<defs>
<clipPath id="clip0_4320_4658">
<rect width="605.925" height="46.6667" fill="white"/>
</clipPath>
</defs>
</svg>
