<svg width="606" height="47" viewBox="0 0 606 47" fill="none" xmlns="http://www.w3.org/2000/svg">
<g clip-path="url(#clip0_4320_3821)">
<path d="M2.34473 42.168H605.925V4.5013H2.34473V42.168Z" fill="#FEE52E"/>
<path d="M50.5322 9.82227H51.8921V4.503H50.5322V9.82227Z" fill="#635912"/>
<path d="M55.4541 9.82227H56.8156V4.503H55.4541V9.82227Z" fill="#635912"/>
<path d="M60.377 9.82227H61.7379V4.503H60.377V9.82227Z" fill="#635912"/>
<path d="M70.3242 9.82227H71.6857V4.503H70.3242V9.82227Z" fill="#635912"/>
<path d="M75.248 9.82227H76.6079V4.503H75.248V9.82227Z" fill="#635912"/>
<path d="M80.1699 9.82227H81.5293V4.503H80.1699V9.82227Z" fill="#635912"/>
<path d="M65.3008 13.9023H66.6602V4.50287H65.3008V13.9023Z" fill="#635912"/>
<path d="M84.9932 15.2617H86.3531V4.50182H84.9932V15.2617Z" fill="#635912"/>
<path d="M89.915 9.82227H91.2765V4.503H89.915V9.82227Z" fill="#635912"/>
<path d="M94.8389 9.82227H96.1988V4.503H94.8389V9.82227Z" fill="#635912"/>
<path d="M99.7617 9.82227H101.121V4.503H99.7617V9.82227Z" fill="#635912"/>
<path d="M109.709 9.82227H111.069V4.503H109.709V9.82227Z" fill="#635912"/>
<path d="M114.632 9.82227H115.993V4.503H114.632V9.82227Z" fill="#635912"/>
<path d="M119.556 9.82227H120.915V4.503H119.556V9.82227Z" fill="#635912"/>
<path d="M104.686 13.9023H106.045V4.50287H104.686V13.9023Z" fill="#635912"/>
<path d="M124.375 15.2617H125.736V4.50182H124.375V15.2617Z" fill="#635912"/>
<path d="M129.3 9.82227H130.66V4.503H129.3V9.82227Z" fill="#635912"/>
<path d="M134.222 9.82227H135.583V4.503H134.222V9.82227Z" fill="#635912"/>
<path d="M139.146 9.82227H140.507V4.503H139.146V9.82227Z" fill="#635912"/>
<path d="M149.093 9.82227H150.454V4.503H149.093V9.82227Z" fill="#635912"/>
<path d="M154.017 9.82227H155.375V4.503H154.017V9.82227Z" fill="#635912"/>
<path d="M158.938 9.82227H160.298V4.503H158.938V9.82227Z" fill="#635912"/>
<path d="M144.068 13.9023H145.428V4.50287H144.068V13.9023Z" fill="#635912"/>
<path d="M163.761 15.2617H165.121V4.50182H163.761V15.2617Z" fill="#635912"/>
<path d="M168.684 9.82227H170.045V4.503H168.684V9.82227Z" fill="#635912"/>
<path d="M173.607 9.82227H174.966V4.503H173.607V9.82227Z" fill="#635912"/>
<path d="M178.53 9.82227H179.89V4.503H178.53V9.82227Z" fill="#635912"/>
<path d="M188.477 9.82227H189.837V4.503H188.477V9.82227Z" fill="#635912"/>
<path d="M193.4 9.82227H194.759V4.503H193.4V9.82227Z" fill="#635912"/>
<path d="M198.323 9.82227H199.682V4.503H198.323V9.82227Z" fill="#635912"/>
<path d="M183.453 13.9023H184.813V4.50287H183.453V13.9023Z" fill="#635912"/>
<path d="M203.146 15.2617H204.505V4.50182H203.146V15.2617Z" fill="#635912"/>
<path d="M208.067 9.82227H209.429V4.503H208.067V9.82227Z" fill="#635912"/>
<path d="M212.991 9.82227H214.351V4.503H212.991V9.82227Z" fill="#635912"/>
<path d="M217.914 9.82227H219.274V4.503H217.914V9.82227Z" fill="#635912"/>
<path d="M227.862 9.82227H229.221V4.503H227.862V9.82227Z" fill="#635912"/>
<path d="M232.783 9.82227H234.145V4.503H232.783V9.82227Z" fill="#635912"/>
<path d="M237.706 9.82227H239.066V4.503H237.706V9.82227Z" fill="#635912"/>
<path d="M222.837 13.9023H224.198V4.50287H222.837V13.9023Z" fill="#635912"/>
<path d="M242.528 15.2617H243.888V4.50182H242.528V15.2617Z" fill="#635912"/>
<path d="M247.453 9.82227H248.813V4.503H247.453V9.82227Z" fill="#635912"/>
<path d="M252.374 9.82227H253.735V4.503H252.374V9.82227Z" fill="#635912"/>
<path d="M257.298 9.82227H258.658V4.503H257.298V9.82227Z" fill="#635912"/>
<path d="M267.245 9.82227H268.605V4.503H267.245V9.82227Z" fill="#635912"/>
<path d="M272.167 9.82227H273.527V4.503H272.167V9.82227Z" fill="#635912"/>
<path d="M277.09 9.82227H278.451V4.503H277.09V9.82227Z" fill="#635912"/>
<path d="M262.22 13.9023H263.583V4.50287H262.22V13.9023Z" fill="#635912"/>
<path d="M281.914 15.2617H283.273V4.50182H281.914V15.2617Z" fill="#635912"/>
<path d="M286.837 9.82227H288.198V4.503H286.837V9.82227Z" fill="#635912"/>
<path d="M291.761 9.82227H293.119V4.503H291.761V9.82227Z" fill="#635912"/>
<path d="M296.682 9.82227H298.043V4.503H296.682V9.82227Z" fill="#635912"/>
<path d="M306.632 9.82227H307.991V4.503H306.632V9.82227Z" fill="#635912"/>
<path d="M311.553 9.82227H312.914V4.503H311.553V9.82227Z" fill="#635912"/>
<path d="M316.477 9.82227H317.837V4.503H316.477V9.82227Z" fill="#635912"/>
<path d="M301.604 13.9023H302.964V4.50287H301.604V13.9023Z" fill="#635912"/>
<path d="M321.297 15.2617H322.657V4.50182H321.297V15.2617Z" fill="#635912"/>
<path d="M326.222 9.82227H327.581V4.503H326.222V9.82227Z" fill="#635912"/>
<path d="M331.144 9.82227H332.507V4.503H331.144V9.82227Z" fill="#635912"/>
<path d="M336.068 9.82227H337.427V4.503H336.068V9.82227Z" fill="#635912"/>
<path d="M346.013 9.82227H347.373V4.503H346.013V9.82227Z" fill="#635912"/>
<path d="M350.936 9.82227H352.294V4.503H350.936V9.82227Z" fill="#635912"/>
<path d="M355.856 9.82227H357.219V4.503H355.856V9.82227Z" fill="#635912"/>
<path d="M340.99 13.9023H342.349V4.50287H340.99V13.9023Z" fill="#635912"/>
<path d="M360.682 15.2617H362.042V4.50182H360.682V15.2617Z" fill="#635912"/>
<path d="M365.604 9.82227H366.966V4.503H365.604V9.82227Z" fill="#635912"/>
<path d="M370.528 9.82227H371.888V4.503H370.528V9.82227Z" fill="#635912"/>
<path d="M375.451 9.82227H376.81V4.503H375.451V9.82227Z" fill="#635912"/>
<path d="M385.399 9.82227H386.758V4.503H385.399V9.82227Z" fill="#635912"/>
<path d="M390.32 9.82227H391.682V4.503H390.32V9.82227Z" fill="#635912"/>
<path d="M395.245 9.82227H396.605V4.503H395.245V9.82227Z" fill="#635912"/>
<path d="M380.373 13.9023H381.733V4.50287H380.373V13.9023Z" fill="#635912"/>
<path d="M400.066 15.2617H401.425V4.50182H400.066V15.2617Z" fill="#635912"/>
<path d="M404.99 9.82227H406.349V4.503H404.99V9.82227Z" fill="#635912"/>
<path d="M409.911 9.82227H411.274V4.503H409.911V9.82227Z" fill="#635912"/>
<path d="M414.837 9.82227H416.195V4.503H414.837V9.82227Z" fill="#635912"/>
<path d="M424.782 9.82227H426.141V4.503H424.782V9.82227Z" fill="#635912"/>
<path d="M429.703 9.82227H431.066V4.503H429.703V9.82227Z" fill="#635912"/>
<path d="M434.625 9.82227H435.988V4.503H434.625V9.82227Z" fill="#635912"/>
<path d="M419.758 13.9023H421.118V4.50287H419.758V13.9023Z" fill="#635912"/>
<path d="M439.451 15.2617H440.81V4.50182H439.451V15.2617Z" fill="#635912"/>
<path d="M444.373 9.82227H445.734V4.503H444.373V9.82227Z" fill="#635912"/>
<path d="M449.297 9.82227H450.657V4.503H449.297V9.82227Z" fill="#635912"/>
<path d="M454.22 9.82227H455.579V4.503H454.22V9.82227Z" fill="#635912"/>
<path d="M464.167 9.82227H465.526V4.503H464.167V9.82227Z" fill="#635912"/>
<path d="M469.089 9.82227H470.452V4.503H469.089V9.82227Z" fill="#635912"/>
<path d="M474.013 9.82227H475.373V4.503H474.013V9.82227Z" fill="#635912"/>
<path d="M459.141 13.9023H460.501V4.50287H459.141V13.9023Z" fill="#635912"/>
<path d="M478.834 15.2617H480.193V4.50182H478.834V15.2617Z" fill="#635912"/>
<path d="M483.758 9.82227H485.118V4.503H483.758V9.82227Z" fill="#635912"/>
<path d="M488.68 9.82227H490.042V4.503H488.68V9.82227Z" fill="#635912"/>
<path d="M493.604 9.82227H494.963V4.503H493.604V9.82227Z" fill="#635912"/>
<path d="M503.55 9.82227H504.909V4.503H503.55V9.82227Z" fill="#635912"/>
<path d="M508.472 9.82227H509.834V4.503H508.472V9.82227Z" fill="#635912"/>
<path d="M513.394 9.82227H514.754V4.503H513.394V9.82227Z" fill="#635912"/>
<path d="M498.526 13.9023H499.886V4.50287H498.526V13.9023Z" fill="#635912"/>
<path d="M518.22 15.2617H519.579V4.50182H518.22V15.2617Z" fill="#635912"/>
<path d="M523.141 9.82227H524.504V4.503H523.141V9.82227Z" fill="#635912"/>
<path d="M528.064 9.82227H529.425V4.503H528.064V9.82227Z" fill="#635912"/>
<path d="M532.987 9.82227H534.346V4.503H532.987V9.82227Z" fill="#635912"/>
<path d="M542.936 9.82227H544.294V4.503H542.936V9.82227Z" fill="#635912"/>
<path d="M547.856 9.82227H549.216V4.503H547.856V9.82227Z" fill="#635912"/>
<path d="M552.782 9.82227H554.141V4.503H552.782V9.82227Z" fill="#635912"/>
<path d="M537.908 13.9023H539.268V4.50287H537.908V13.9023Z" fill="#635912"/>
<path d="M557.602 15.2617H558.96V4.50182H557.602V15.2617Z" fill="#635912"/>
<path d="M562.526 9.82227H563.886V4.503H562.526V9.82227Z" fill="#635912"/>
<path d="M567.448 9.82227H568.809V4.503H567.448V9.82227Z" fill="#635912"/>
<path d="M572.373 9.82227H573.733V4.503H572.373V9.82227Z" fill="#635912"/>
<path d="M582.318 9.82227H583.678V4.503H582.318V9.82227Z" fill="#635912"/>
<path d="M587.239 9.82227H588.602V4.503H587.239V9.82227Z" fill="#635912"/>
<path d="M592.162 9.82227H593.524V4.503H592.162V9.82227Z" fill="#635912"/>
<path d="M577.294 13.9023H578.654V4.50287H577.294V13.9023Z" fill="#635912"/>
<path d="M596.987 15.2617H598.346V4.50182H596.987V15.2617Z" fill="#635912"/>
<path d="M7.58448 8.42969C7.11261 8.24035 6.65794 8.07101 6.22461 7.92168V4.50169H7.58448V8.42969Z" fill="#635912"/>
<path d="M11.1465 9.82227H12.5079V4.503H11.1465V9.82227Z" fill="#635912"/>
<path d="M16.0713 9.82227H17.4312V4.503H16.0713V9.82227Z" fill="#635912"/>
<path d="M20.9932 9.82227H22.3525V4.503H20.9932V9.82227Z" fill="#635912"/>
<path d="M30.9404 9.82227H32.3003V4.503H30.9404V9.82227Z" fill="#635912"/>
<path d="M35.8633 9.82227H37.2247V4.503H35.8633V9.82227Z" fill="#635912"/>
<path d="M40.7852 9.82227H42.1461V4.503H40.7852V9.82227Z" fill="#635912"/>
<path d="M25.917 13.9023H27.2764V4.50287H25.917V13.9023Z" fill="#635912"/>
<path d="M45.6074 15.2617H46.9689V4.50182H45.6074V15.2617Z" fill="#635912"/>
<path d="M50.5322 42.1699H51.8921V42.1683H50.5322V42.1699Z" fill="#636363"/>
<path d="M50.5322 42.168H51.8921V36.8497H50.5322V42.168Z" fill="#635912"/>
<path d="M55.4541 42.1699H56.8156V42.1683H55.4541V42.1699Z" fill="#636363"/>
<path d="M55.4541 42.168H56.8156V36.8497H55.4541V42.168Z" fill="#635912"/>
<path d="M60.377 42.1699H61.7379V42.1683H60.377V42.1699Z" fill="#636363"/>
<path d="M60.377 42.168H61.7379V36.8497H60.377V42.168Z" fill="#635912"/>
<path d="M70.3242 42.1699H71.6857V42.1683H70.3242V42.1699Z" fill="#636363"/>
<path d="M70.3242 42.168H71.6857V36.8497H70.3242V42.168Z" fill="#635912"/>
<path d="M75.248 42.1699H76.6079V42.1683H75.248V42.1699Z" fill="#636363"/>
<path d="M75.248 42.168H76.6079V36.8497H75.248V42.168Z" fill="#635912"/>
<path d="M80.1699 42.1699H81.5293V42.1683H80.1699V42.1699Z" fill="#636363"/>
<path d="M80.1699 42.168H81.5293V36.8497H80.1699V42.168Z" fill="#635912"/>
<path d="M65.3008 42.1699H66.6602V42.1683H65.3008V42.1699Z" fill="#636363"/>
<path d="M65.3008 42.168H66.6602V32.769H65.3008V42.168Z" fill="#635912"/>
<path d="M84.9932 42.1699H86.3531V42.1683H84.9932V42.1699Z" fill="#636363"/>
<path d="M84.9932 42.168H86.3531V31.4102H84.9932V42.168Z" fill="#635912"/>
<path d="M89.915 42.1699H91.2765V42.1683H89.915V42.1699Z" fill="#636363"/>
<path d="M89.915 42.168H91.2765V36.8497H89.915V42.168Z" fill="#635912"/>
<path d="M94.8389 42.1699H96.1988V42.1683H94.8389V42.1699Z" fill="#636363"/>
<path d="M94.8389 42.168H96.1988V36.8497H94.8389V42.168Z" fill="#635912"/>
<path d="M99.7617 42.1699H101.121V42.1683H99.7617V42.1699Z" fill="#636363"/>
<path d="M99.7617 42.168H101.121V36.8497H99.7617V42.168Z" fill="#635912"/>
<path d="M109.709 42.1699H111.069V42.1683H109.709V42.1699Z" fill="#636363"/>
<path d="M109.709 42.168H111.069V36.8497H109.709V42.168Z" fill="#635912"/>
<path d="M114.632 42.1699H115.993V42.1683H114.632V42.1699Z" fill="#636363"/>
<path d="M114.632 42.168H115.993V36.8497H114.632V42.168Z" fill="#635912"/>
<path d="M119.556 42.1699H120.915V42.1683H119.556V42.1699Z" fill="#636363"/>
<path d="M119.556 42.168H120.915V36.8497H119.556V42.168Z" fill="#635912"/>
<path d="M104.686 42.1699H106.045V42.1683H104.686V42.1699Z" fill="#636363"/>
<path d="M104.686 42.168H106.045V32.769H104.686V42.168Z" fill="#635912"/>
<path d="M124.375 42.1699H125.736V42.1683H124.375V42.1699Z" fill="#636363"/>
<path d="M124.375 42.168H125.736V31.4102H124.375V42.168Z" fill="#635912"/>
<path d="M129.3 42.1699H130.66V42.1683H129.3V42.1699Z" fill="#636363"/>
<path d="M129.3 42.168H130.66V36.8497H129.3V42.168Z" fill="#635912"/>
<path d="M134.222 42.1699H135.583V42.1683H134.222V42.1699Z" fill="#636363"/>
<path d="M134.222 42.168H135.583V36.8497H134.222V42.168Z" fill="#635912"/>
<path d="M139.146 42.1699H140.507V42.1683H139.146V42.1699Z" fill="#636363"/>
<path d="M139.146 42.168H140.507V36.8497H139.146V42.168Z" fill="#635912"/>
<path d="M149.093 42.1699H150.454V42.1683H149.093V42.1699Z" fill="#636363"/>
<path d="M149.093 42.168H150.454V36.8497H149.093V42.168Z" fill="#635912"/>
<path d="M154.017 42.1699H155.375V42.1683H154.017V42.1699Z" fill="#636363"/>
<path d="M154.017 42.168H155.375V36.8497H154.017V42.168Z" fill="#635912"/>
<path d="M158.938 42.1699H160.298V42.1683H158.938V42.1699Z" fill="#636363"/>
<path d="M158.938 42.168H160.298V36.8497H158.938V42.168Z" fill="#635912"/>
<path d="M144.068 42.1699H145.428V42.1683H144.068V42.1699Z" fill="#636363"/>
<path d="M144.068 42.168H145.428V32.769H144.068V42.168Z" fill="#635912"/>
<path d="M163.761 42.1699H165.121V42.1683H163.761V42.1699Z" fill="#636363"/>
<path d="M163.761 42.168H165.121V31.4102H163.761V42.168Z" fill="#635912"/>
<path d="M168.684 42.1699H170.045V42.1683H168.684V42.1699Z" fill="#636363"/>
<path d="M168.684 42.168H170.045V36.8497H168.684V42.168Z" fill="#635912"/>
<path d="M173.607 42.1699H174.966V42.1683H173.607V42.1699Z" fill="#636363"/>
<path d="M173.607 42.168H174.966V36.8497H173.607V42.168Z" fill="#635912"/>
<path d="M178.53 42.1699H179.89V42.1683H178.53V42.1699Z" fill="#636363"/>
<path d="M178.53 42.168H179.89V36.8497H178.53V42.168Z" fill="#635912"/>
<path d="M188.477 42.1699H189.837V42.1683H188.477V42.1699Z" fill="#636363"/>
<path d="M188.477 42.168H189.837V36.8497H188.477V42.168Z" fill="#635912"/>
<path d="M193.4 42.1699H194.759V42.1683H193.4V42.1699Z" fill="#636363"/>
<path d="M193.4 42.168H194.759V36.8497H193.4V42.168Z" fill="#635912"/>
<path d="M198.323 42.1699H199.682V42.1683H198.323V42.1699Z" fill="#636363"/>
<path d="M198.323 42.168H199.682V36.8497H198.323V42.168Z" fill="#635912"/>
<path d="M183.453 42.1699H184.813V42.1683H183.453V42.1699Z" fill="#636363"/>
<path d="M183.453 42.168H184.813V32.769H183.453V42.168Z" fill="#635912"/>
<path d="M203.146 42.1699H204.505V42.1683H203.146V42.1699Z" fill="#636363"/>
<path d="M203.146 42.168H204.505V31.4102H203.146V42.168Z" fill="#635912"/>
<path d="M208.067 42.1699H209.429V42.1683H208.067V42.1699Z" fill="#636363"/>
<path d="M208.067 42.168H209.429V36.8497H208.067V42.168Z" fill="#635912"/>
<path d="M212.991 42.1699H214.351V42.1683H212.991V42.1699Z" fill="#636363"/>
<path d="M212.991 42.168H214.351V36.8497H212.991V42.168Z" fill="#635912"/>
<path d="M217.914 42.1699H219.274V42.1683H217.914V42.1699Z" fill="#636363"/>
<path d="M217.914 42.168H219.274V36.8497H217.914V42.168Z" fill="#635912"/>
<path d="M227.862 42.1699H229.221V42.1683H227.862V42.1699Z" fill="#636363"/>
<path d="M227.862 42.168H229.221V36.8497H227.862V42.168Z" fill="#635912"/>
<path d="M232.783 42.1699H234.145V42.1683H232.783V42.1699Z" fill="#636363"/>
<path d="M232.783 42.168H234.145V36.8497H232.783V42.168Z" fill="#635912"/>
<path d="M237.706 42.1699H239.066V42.1683H237.706V42.1699Z" fill="#636363"/>
<path d="M237.706 42.168H239.066V36.8497H237.706V42.168Z" fill="#635912"/>
<path d="M222.837 42.1699H224.198V42.1683H222.837V42.1699Z" fill="#636363"/>
<path d="M222.837 42.168H224.198V32.769H222.837V42.168Z" fill="#635912"/>
<path d="M242.528 42.1699H243.888V42.1683H242.528V42.1699Z" fill="#636363"/>
<path d="M242.528 42.168H243.888V31.4102H242.528V42.168Z" fill="#635912"/>
<path d="M247.453 42.1699H248.813V42.1683H247.453V42.1699Z" fill="#636363"/>
<path d="M247.453 42.168H248.813V36.8497H247.453V42.168Z" fill="#635912"/>
<path d="M252.374 42.1699H253.735V42.1683H252.374V42.1699Z" fill="#636363"/>
<path d="M252.374 42.168H253.735V36.8497H252.374V42.168Z" fill="#635912"/>
<path d="M257.298 42.1699H258.658V42.1683H257.298V42.1699Z" fill="#636363"/>
<path d="M257.298 42.168H258.658V36.8497H257.298V42.168Z" fill="#635912"/>
<path d="M267.245 42.1699H268.605V42.1683H267.245V42.1699Z" fill="#636363"/>
<path d="M267.245 42.168H268.605V36.8497H267.245V42.168Z" fill="#635912"/>
<path d="M272.167 42.1699H273.527V42.1683H272.167V42.1699Z" fill="#636363"/>
<path d="M272.167 42.168H273.527V36.8497H272.167V42.168Z" fill="#635912"/>
<path d="M277.09 42.1699H278.451V42.1683H277.09V42.1699Z" fill="#636363"/>
<path d="M277.09 42.168H278.451V36.8497H277.09V42.168Z" fill="#635912"/>
<path d="M262.22 42.1699H263.583V42.1683H262.22V42.1699Z" fill="#636363"/>
<path d="M262.22 42.168H263.583V32.769H262.22V42.168Z" fill="#635912"/>
<path d="M281.914 42.1699H283.273V42.1683H281.914V42.1699Z" fill="#636363"/>
<path d="M281.914 42.168H283.273V31.4102H281.914V42.168Z" fill="#635912"/>
<path d="M286.837 42.1699H288.198V42.1683H286.837V42.1699Z" fill="#636363"/>
<path d="M286.837 42.168H288.198V36.8497H286.837V42.168Z" fill="#635912"/>
<path d="M291.761 42.1699H293.119V42.1683H291.761V42.1699Z" fill="#636363"/>
<path d="M291.761 42.168H293.119V36.8497H291.761V42.168Z" fill="#635912"/>
<path d="M296.682 42.1699H298.043V42.1683H296.682V42.1699Z" fill="#636363"/>
<path d="M296.682 42.168H298.043V36.8497H296.682V42.168Z" fill="#635912"/>
<path d="M306.632 42.1699H307.991V42.1683H306.632V42.1699Z" fill="#636363"/>
<path d="M306.632 42.168H307.991V36.8497H306.632V42.168Z" fill="#635912"/>
<path d="M311.553 42.1699H312.914V42.1683H311.553V42.1699Z" fill="#636363"/>
<path d="M311.553 42.168H312.914V36.8497H311.553V42.168Z" fill="#635912"/>
<path d="M316.477 42.1699H317.837V42.1683H316.477V42.1699Z" fill="#636363"/>
<path d="M316.477 42.168H317.837V36.8497H316.477V42.168Z" fill="#635912"/>
<path d="M301.604 42.1699H302.964V42.1683H301.604V42.1699Z" fill="#636363"/>
<path d="M301.604 42.168H302.964V32.769H301.604V42.168Z" fill="#635912"/>
<path d="M321.297 42.1699H322.657V42.1683H321.297V42.1699Z" fill="#636363"/>
<path d="M321.297 42.168H322.657V31.4102H321.297V42.168Z" fill="#635912"/>
<path d="M326.222 42.1699H327.581V42.1683H326.222V42.1699Z" fill="#636363"/>
<path d="M326.222 42.168H327.581V36.8497H326.222V42.168Z" fill="#635912"/>
<path d="M331.144 42.1699H332.507V42.1683H331.144V42.1699Z" fill="#636363"/>
<path d="M331.144 42.168H332.507V36.8497H331.144V42.168Z" fill="#635912"/>
<path d="M336.068 42.1699H337.427V42.1683H336.068V42.1699Z" fill="#636363"/>
<path d="M336.068 42.168H337.427V36.8497H336.068V42.168Z" fill="#635912"/>
<path d="M346.013 42.1699H347.373V42.1683H346.013V42.1699Z" fill="#636363"/>
<path d="M346.013 42.168H347.373V36.8497H346.013V42.168Z" fill="#635912"/>
<path d="M350.936 42.1699H352.294V42.1683H350.936V42.1699Z" fill="#636363"/>
<path d="M350.936 42.168H352.294V36.8497H350.936V42.168Z" fill="#635912"/>
<path d="M355.856 42.1699H357.219V42.1683H355.856V42.1699Z" fill="#636363"/>
<path d="M355.856 42.168H357.219V36.8497H355.856V42.168Z" fill="#635912"/>
<path d="M340.99 42.1699H342.349V42.1683H340.99V42.1699Z" fill="#636363"/>
<path d="M340.99 42.168H342.349V32.769H340.99V42.168Z" fill="#635912"/>
<path d="M360.682 42.1699H362.042V42.1683H360.682V42.1699Z" fill="#636363"/>
<path d="M360.682 42.168H362.042V31.4102H360.682V42.168Z" fill="#635912"/>
<path d="M365.604 42.1699H366.966V42.1683H365.604V42.1699Z" fill="#636363"/>
<path d="M365.604 42.168H366.966V36.8497H365.604V42.168Z" fill="#635912"/>
<path d="M370.528 42.1699H371.888V42.1683H370.528V42.1699Z" fill="#636363"/>
<path d="M370.528 42.168H371.888V36.8497H370.528V42.168Z" fill="#635912"/>
<path d="M375.451 42.1699H376.81V42.1683H375.451V42.1699Z" fill="#636363"/>
<path d="M375.451 42.168H376.81V36.8497H375.451V42.168Z" fill="#635912"/>
<path d="M385.399 42.1699H386.758V42.1683H385.399V42.1699Z" fill="#636363"/>
<path d="M385.399 42.168H386.758V36.8497H385.399V42.168Z" fill="#635912"/>
<path d="M390.32 42.1699H391.682V42.1683H390.32V42.1699Z" fill="#636363"/>
<path d="M390.32 42.168H391.682V36.8497H390.32V42.168Z" fill="#635912"/>
<path d="M395.245 42.1699H396.605V42.1683H395.245V42.1699Z" fill="#636363"/>
<path d="M395.245 42.168H396.605V36.8497H395.245V42.168Z" fill="#635912"/>
<path d="M380.373 42.1699H381.733V42.1683H380.373V42.1699Z" fill="#636363"/>
<path d="M380.373 42.168H381.733V32.769H380.373V42.168Z" fill="#635912"/>
<path d="M400.066 42.1699H401.425V42.1683H400.066V42.1699Z" fill="#636363"/>
<path d="M400.066 42.168H401.425V31.4102H400.066V42.168Z" fill="#635912"/>
<path d="M404.99 42.1699H406.349V42.1683H404.99V42.1699Z" fill="#636363"/>
<path d="M404.99 42.168H406.349V36.8497H404.99V42.168Z" fill="#635912"/>
<path d="M409.911 42.1699H411.274V42.1683H409.911V42.1699Z" fill="#636363"/>
<path d="M409.911 42.168H411.274V36.8497H409.911V42.168Z" fill="#635912"/>
<path d="M414.837 42.1699H416.195V42.1683H414.837V42.1699Z" fill="#636363"/>
<path d="M414.837 42.168H416.195V36.8497H414.837V42.168Z" fill="#635912"/>
<path d="M424.782 42.1699H426.141V42.1683H424.782V42.1699Z" fill="#636363"/>
<path d="M424.782 42.168H426.141V36.8497H424.782V42.168Z" fill="#635912"/>
<path d="M429.703 42.1699H431.066V42.1683H429.703V42.1699Z" fill="#636363"/>
<path d="M429.703 42.168H431.066V36.8497H429.703V42.168Z" fill="#635912"/>
<path d="M434.625 42.1699H435.988V42.1683H434.625V42.1699Z" fill="#636363"/>
<path d="M434.625 42.168H435.988V36.8497H434.625V42.168Z" fill="#635912"/>
<path d="M419.758 42.1699H421.118V42.1683H419.758V42.1699Z" fill="#636363"/>
<path d="M419.758 42.168H421.118V32.769H419.758V42.168Z" fill="#635912"/>
<path d="M439.451 42.1699H440.81V42.1683H439.451V42.1699Z" fill="#636363"/>
<path d="M439.451 42.168H440.81V31.4102H439.451V42.168Z" fill="#635912"/>
<path d="M444.373 42.1699H445.734V42.1683H444.373V42.1699Z" fill="#636363"/>
<path d="M444.373 42.168H445.734V36.8497H444.373V42.168Z" fill="#635912"/>
<path d="M449.297 42.1699H450.657V42.1683H449.297V42.1699Z" fill="#636363"/>
<path d="M449.297 42.168H450.657V36.8497H449.297V42.168Z" fill="#635912"/>
<path d="M454.22 42.1699H455.579V42.1683H454.22V42.1699Z" fill="#636363"/>
<path d="M454.22 42.168H455.579V36.8497H454.22V42.168Z" fill="#635912"/>
<path d="M464.167 42.1699H465.526V42.1683H464.167V42.1699Z" fill="#636363"/>
<path d="M464.167 42.168H465.526V36.8497H464.167V42.168Z" fill="#635912"/>
<path d="M469.089 42.1699H470.452V42.1683H469.089V42.1699Z" fill="#636363"/>
<path d="M469.089 42.168H470.452V36.8497H469.089V42.168Z" fill="#635912"/>
<path d="M474.013 42.1699H475.373V42.1683H474.013V42.1699Z" fill="#636363"/>
<path d="M474.013 42.168H475.373V36.8497H474.013V42.168Z" fill="#635912"/>
<path d="M459.141 42.1699H460.501V42.1683H459.141V42.1699Z" fill="#636363"/>
<path d="M459.141 42.168H460.501V32.769H459.141V42.168Z" fill="#635912"/>
<path d="M478.834 42.1699H480.193V42.1683H478.834V42.1699Z" fill="#636363"/>
<path d="M478.834 42.168H480.193V31.4102H478.834V42.168Z" fill="#635912"/>
<path d="M483.758 42.1699H485.118V42.1683H483.758V42.1699Z" fill="#636363"/>
<path d="M483.758 42.168H485.118V36.8497H483.758V42.168Z" fill="#635912"/>
<path d="M488.68 42.1699H490.042V42.1683H488.68V42.1699Z" fill="#636363"/>
<path d="M488.68 42.168H490.042V36.8497H488.68V42.168Z" fill="#635912"/>
<path d="M493.604 42.1699H494.963V42.1683H493.604V42.1699Z" fill="#636363"/>
<path d="M493.604 42.168H494.963V36.8497H493.604V42.168Z" fill="#635912"/>
<path d="M503.55 42.1699H504.909V42.1683H503.55V42.1699Z" fill="#636363"/>
<path d="M503.55 42.168H504.909V36.8497H503.55V42.168Z" fill="#635912"/>
<path d="M508.472 42.1699H509.834V42.1683H508.472V42.1699Z" fill="#636363"/>
<path d="M508.472 42.168H509.834V36.8497H508.472V42.168Z" fill="#635912"/>
<path d="M513.394 42.1699H514.754V42.1683H513.394V42.1699Z" fill="#636363"/>
<path d="M513.394 42.168H514.754V36.8497H513.394V42.168Z" fill="#635912"/>
<path d="M498.526 42.1699H499.886V42.1683H498.526V42.1699Z" fill="#636363"/>
<path d="M498.526 42.168H499.886V32.769H498.526V42.168Z" fill="#635912"/>
<path d="M518.22 42.1699H519.579V42.1683H518.22V42.1699Z" fill="#636363"/>
<path d="M518.22 42.168H519.579V31.4102H518.22V42.168Z" fill="#635912"/>
<path d="M523.141 42.1699H524.504V42.1683H523.141V42.1699Z" fill="#636363"/>
<path d="M523.141 42.168H524.504V36.8497H523.141V42.168Z" fill="#635912"/>
<path d="M528.064 42.1699H529.425V42.1683H528.064V42.1699Z" fill="#636363"/>
<path d="M528.064 42.168H529.425V36.8497H528.064V42.168Z" fill="#635912"/>
<path d="M532.987 42.1699H534.346V42.1683H532.987V42.1699Z" fill="#636363"/>
<path d="M532.987 42.168H534.346V36.8497H532.987V42.168Z" fill="#635912"/>
<path d="M542.936 42.1699H544.294V42.1683H542.936V42.1699Z" fill="#636363"/>
<path d="M542.936 42.168H544.294V36.8497H542.936V42.168Z" fill="#635912"/>
<path d="M547.856 42.1699H549.216V42.1683H547.856V42.1699Z" fill="#636363"/>
<path d="M547.856 42.168H549.216V36.8497H547.856V42.168Z" fill="#635912"/>
<path d="M552.782 42.1699H554.141V42.1683H552.782V42.1699Z" fill="#636363"/>
<path d="M552.782 42.168H554.141V36.8497H552.782V42.168Z" fill="#635912"/>
<path d="M537.908 42.1699H539.268V42.1683H537.908V42.1699Z" fill="#636363"/>
<path d="M537.908 42.168H539.268V32.769H537.908V42.168Z" fill="#635912"/>
<path d="M557.602 42.1699H558.96V42.1683H557.602V42.1699Z" fill="#636363"/>
<path d="M557.602 42.168H558.96V31.4102H557.602V42.168Z" fill="#635912"/>
<path d="M562.526 42.1699H563.886V42.1683H562.526V42.1699Z" fill="#636363"/>
<path d="M562.526 42.168H563.886V36.8497H562.526V42.168Z" fill="#635912"/>
<path d="M567.448 42.1699H568.809V42.1683H567.448V42.1699Z" fill="#636363"/>
<path d="M567.448 42.168H568.809V36.8497H567.448V42.168Z" fill="#635912"/>
<path d="M572.373 42.1699H573.733V42.1683H572.373V42.1699Z" fill="#636363"/>
<path d="M572.373 42.168H573.733V36.8497H572.373V42.168Z" fill="#635912"/>
<path d="M582.318 42.1699H583.678V42.1683H582.318V42.1699Z" fill="#636363"/>
<path d="M582.318 42.168H583.678V36.8497H582.318V42.168Z" fill="#635912"/>
<path d="M587.239 42.1699H588.602V42.1683H587.239V42.1699Z" fill="#636363"/>
<path d="M587.239 42.168H588.602V36.8497H587.239V42.168Z" fill="#635912"/>
<path d="M592.162 42.1699H593.524V42.1683H592.162V42.1699Z" fill="#636363"/>
<path d="M592.162 42.168H593.524V36.8497H592.162V42.168Z" fill="#635912"/>
<path d="M577.294 42.1699H578.654V42.1683H577.294V42.1699Z" fill="#636363"/>
<path d="M577.294 42.168H578.654V32.769H577.294V42.168Z" fill="#635912"/>
<path d="M596.987 42.1699H598.346V42.1683H596.987V42.1699Z" fill="#636363"/>
<path d="M596.987 42.168H598.346V31.4102H596.987V42.168Z" fill="#635912"/>
<path d="M6.22461 42.1699H7.5845V42.1683H6.22461V42.1699Z" fill="#636363"/>
<path d="M7.58448 42.168H6.22461V38.7466C6.65794 38.5973 7.11261 38.428 7.58448 38.2386V42.168Z" fill="#635912"/>
<path d="M11.1465 42.1699H12.5079V42.1683H11.1465V42.1699Z" fill="#636363"/>
<path d="M11.1465 42.168H12.5079V36.8497H11.1465V42.168Z" fill="#635912"/>
<path d="M16.0713 42.1699H17.4312V42.1683H16.0713V42.1699Z" fill="#636363"/>
<path d="M16.0713 42.168H17.4312V36.8497H16.0713V42.168Z" fill="#635912"/>
<path d="M20.9932 42.1699H22.3525V42.1683H20.9932V42.1699Z" fill="#636363"/>
<path d="M20.9932 42.168H22.3525V36.8497H20.9932V42.168Z" fill="#635912"/>
<path d="M30.9404 42.1699H32.3003V42.1683H30.9404V42.1699Z" fill="#636363"/>
<path d="M30.9404 42.168H32.3003V36.8497H30.9404V42.168Z" fill="#635912"/>
<path d="M35.8633 42.1699H37.2247V42.1683H35.8633V42.1699Z" fill="#636363"/>
<path d="M35.8633 42.168H37.2247V36.8497H35.8633V42.168Z" fill="#635912"/>
<path d="M40.7852 42.1699H42.1461V42.1683H40.7852V42.1699Z" fill="#636363"/>
<path d="M40.7852 42.168H42.1461V36.8497H40.7852V42.168Z" fill="#635912"/>
<path d="M25.917 42.1699H27.2764V42.1683H25.917V42.1699Z" fill="#636363"/>
<path d="M25.917 42.168H27.2764V32.769H25.917V42.168Z" fill="#635912"/>
<path d="M45.6074 42.1699H46.9689V42.1683H45.6074V42.1699Z" fill="#636363"/>
<path d="M45.6074 42.168H46.9689V31.4102H45.6074V42.168Z" fill="#635912"/>
<path d="M47.2811 19.9402V27.7402H46.2071V21.1002L44.7451 21.9882V20.8175L46.2071 19.9402H47.2811Z" fill="black"/>
<path d="M83.5191 20.3871C83.9961 19.9631 84.6352 19.7791 85.2623 19.7791C85.9675 19.7791 86.6169 20.0284 87.0617 20.5378C87.4956 20.9924 87.7336 21.5991 87.7336 22.2284C87.7336 23.1378 87.3221 23.7018 86.5529 24.4378L84.2879 26.7338H87.6576V27.7324H82.6748V26.7338L85.9571 23.5498C86.4551 23.0724 86.6497 22.6284 86.6497 22.2164C86.6497 21.8498 86.5092 21.4911 86.2701 21.2311C85.9997 20.9391 85.6321 20.7764 85.2087 20.7764C84.8404 20.7764 84.4945 20.9284 84.2445 21.1658C83.9628 21.4258 83.7899 21.8058 83.7899 22.2164H82.7175C82.7071 21.5138 83.0201 20.8417 83.5191 20.3871Z" fill="black"/>
<path d="M127.543 25.3361C127.532 26.0934 127.24 26.8201 126.666 27.2974C126.19 27.6974 125.571 27.9041 124.975 27.8921C124.37 27.9041 123.751 27.6974 123.275 27.2974C122.896 26.9934 122.624 26.5708 122.484 26.1054L123.492 25.8241C123.59 26.1161 123.74 26.3654 123.968 26.5494C124.25 26.7774 124.596 26.8961 124.964 26.8961C125.334 26.8841 125.691 26.7654 125.962 26.5374C126.319 26.2361 126.471 25.7908 126.471 25.3361C126.471 24.8814 126.33 24.4481 125.995 24.1441C125.711 23.8841 125.344 23.7641 124.955 23.7641C124.704 23.7641 124.412 23.8521 124.184 23.9708L123.687 23.1361L126.015 20.9374H122.787V19.9401H127.435V20.9694L125.41 22.8867C126.026 22.9414 126.558 23.2014 126.948 23.6134C127.371 24.0788 127.554 24.7068 127.543 25.3361Z" fill="black"/>
<path d="M166.298 25.3469V26.3442H165.507V27.7402H164.446V26.3442H161.013V25.3469L163.567 19.9402H164.663L162.105 25.3469H164.446V23.2016H165.507V25.3469H166.298Z" fill="black"/>
<path d="M206.218 19.9402V20.9375H203.045L202.915 23.2015C203.315 22.8989 203.815 22.7242 204.313 22.7242C204.93 22.7242 205.558 22.9522 206.025 23.3642C206.577 23.8615 206.87 24.5442 206.847 25.2816C206.837 25.9856 206.543 26.6682 206.057 27.1455C205.569 27.6229 204.886 27.9042 204.182 27.8922C203.511 27.9042 202.839 27.6322 202.363 27.1762C202.015 26.8629 201.755 26.4295 201.626 25.9642L202.634 25.6935C202.709 25.9855 202.873 26.2562 203.09 26.4629C203.381 26.7215 203.77 26.8842 204.182 26.8842C204.615 26.8842 205.017 26.7122 205.319 26.4295C205.613 26.1362 205.797 25.7269 205.797 25.2816C205.797 24.8376 205.602 24.4042 205.277 24.1109C204.985 23.8415 204.595 23.6895 204.182 23.6895C203.793 23.6895 203.425 23.8296 203.131 24.0789C203.002 24.1989 202.893 24.3389 202.807 24.4802L201.874 23.9496L202.113 19.9402H206.218Z" fill="black"/>
<path d="M244.933 25.8895C245.085 25.5429 245.096 25.1522 244.965 24.7829C244.824 24.4042 244.542 24.1002 244.197 23.9389C243.838 23.7762 243.437 23.7549 243.058 23.8949C242.669 24.0255 242.365 24.3176 242.204 24.6749C242.052 25.0216 242.041 25.4229 242.17 25.7909C242.301 26.1482 242.572 26.4509 242.906 26.6029C243.254 26.7882 243.676 26.8202 244.066 26.6802C244.468 26.5602 244.769 26.2562 244.933 25.8895ZM245.008 21.4682C244.694 21.0456 244.197 20.7749 243.665 20.7749C243.092 20.7749 242.561 21.0776 242.29 21.5336C242.052 21.8576 241.965 22.2376 241.965 22.6709V23.4949C242.397 23.0175 243.026 22.7242 243.698 22.7242C244.337 22.7242 244.977 22.9736 245.453 23.4069C245.974 23.9056 246.245 24.5442 246.233 25.2922C246.222 25.9855 245.93 26.6576 245.442 27.1336C244.965 27.6229 244.272 27.9042 243.556 27.8922C242.853 27.9042 242.15 27.6109 241.661 27.1029C241.076 26.5162 240.892 25.8456 240.892 25.0096V22.6709C240.892 21.8576 241.086 21.2082 241.606 20.6336C242.15 20.0389 242.885 19.7669 243.665 19.7882C244.498 19.7775 245.258 20.1255 245.778 20.7522L245.008 21.4682Z" fill="black"/>
<path d="M284.437 20.9482H280.873V19.9402H285.509V20.9482L282.736 27.7402H281.664L284.437 20.9482Z" fill="black"/>
<path d="M321.493 22.779C321.73 22.9856 322.075 23.071 322.425 23.071C322.771 23.071 323.118 22.9856 323.357 22.779C323.583 22.5843 323.703 22.2696 323.693 21.9336C323.693 21.587 323.583 21.283 323.346 21.0776C323.118 20.8723 322.771 20.7856 322.425 20.7856C322.075 20.7856 321.739 20.8723 321.503 21.0776C321.253 21.283 321.157 21.587 321.157 21.9336C321.146 22.2696 321.253 22.5843 321.493 22.779ZM323.899 25.4976C323.899 25.0976 323.779 24.707 323.498 24.459C323.227 24.199 322.826 24.079 322.425 24.079C322.023 24.079 321.623 24.199 321.342 24.459C321.07 24.707 320.951 25.0976 320.951 25.4976C320.951 25.8896 321.07 26.279 321.342 26.527C321.623 26.7883 322.023 26.9056 322.425 26.9056C322.826 26.9056 323.227 26.7883 323.498 26.527C323.779 26.279 323.899 25.8896 323.899 25.4976ZM320.81 20.2763C321.277 19.9083 321.859 19.7776 322.425 19.7776C322.998 19.7776 323.594 19.919 324.039 20.2763C324.547 20.667 324.807 21.2936 324.807 21.9336C324.807 22.335 324.687 22.7576 324.417 23.1043C324.307 23.2776 324.167 23.4176 324.006 23.559C324.255 23.7323 324.461 23.9603 324.613 24.2096C324.894 24.5883 325.003 25.0656 325.003 25.4976C324.99 26.1816 324.753 26.8523 324.211 27.2976C323.725 27.731 323.053 27.9043 322.425 27.9043C321.785 27.9043 321.113 27.719 320.635 27.2976C320.105 26.8523 319.845 26.171 319.845 25.4976C319.845 25.0656 319.954 24.5883 320.235 24.2096C320.386 23.9603 320.594 23.7323 320.842 23.559C320.679 23.4176 320.539 23.2776 320.419 23.1043C320.162 22.7576 320.042 22.335 320.042 21.9336C320.063 21.2523 320.29 20.6763 320.81 20.2763Z" fill="black"/>
<path d="M359.607 21.7933C359.456 22.1387 359.443 22.54 359.572 22.8987C359.703 23.288 359.998 23.5906 360.344 23.7546C360.7 23.9053 361.102 23.9267 361.471 23.7973C361.862 23.6667 362.175 23.3747 362.336 23.0053C362.49 22.6707 362.5 22.2587 362.37 21.9027C362.239 21.5333 361.958 21.24 361.632 21.088C361.284 20.9053 360.862 20.872 360.474 21.0027C360.072 21.132 359.771 21.424 359.607 21.7933ZM359.531 26.224C359.834 26.6466 360.334 26.9053 360.872 26.9053C361.448 26.9053 361.979 26.6133 362.25 26.148C362.49 25.8333 362.575 25.4546 362.575 25.0213V24.1987C362.143 24.6747 361.512 24.9667 360.842 24.9667C360.203 24.9667 359.563 24.7173 359.088 24.2853C358.558 23.776 358.296 23.148 358.307 22.4C358.318 21.7067 358.61 21.024 359.088 20.5573C359.572 20.0706 360.268 19.788 360.971 19.8C361.687 19.788 362.391 20.0707 362.878 20.58C363.463 21.164 363.646 21.848 363.646 22.6813V25.0213C363.646 25.8333 363.454 26.4853 362.922 27.0467C362.391 27.6427 361.654 27.9147 360.872 27.904C360.039 27.9147 359.282 27.568 358.76 26.928L359.531 26.224Z" fill="black"/>
<path d="M397.058 19.9402V27.7402H395.985V21.1002L394.523 21.9882V20.8175L395.985 19.9402H397.058Z" fill="#FF2828"/>
<path d="M401.993 20.7753C401.441 20.7753 400.922 21.0779 400.638 21.5339C400.444 21.8246 400.392 22.1619 400.392 22.5739V25.0979C400.392 25.4766 400.433 25.8459 400.652 26.1713C400.944 26.6139 401.441 26.9059 401.993 26.8966C402.545 26.9059 403.056 26.6139 403.346 26.1592C403.553 25.8579 403.597 25.5312 403.597 25.0979V22.5739C403.597 22.1726 403.564 21.8699 403.357 21.5339C403.076 21.0779 402.545 20.7753 401.993 20.7753ZM401.993 27.8926C401.225 27.8926 400.464 27.6006 399.966 27.0272C399.48 26.4512 399.318 25.8779 399.318 25.0979V22.5739C399.318 21.7939 399.48 21.2192 399.977 20.6232C400.464 20.0819 401.204 19.7673 401.993 19.7779C402.75 19.7673 403.488 20.0606 403.998 20.6232C404.506 21.1872 404.67 21.7833 404.67 22.5739V25.0979C404.67 25.8579 404.518 26.4632 404.018 27.0272C403.521 27.6006 402.794 27.8926 401.993 27.8926Z" fill="#FF2828"/>
<path d="M439.66 19.9402V27.7402H438.586V21.1002L437.125 21.9882V20.8175L438.586 19.9402H439.66Z" fill="black"/>
<path d="M444.367 19.9402V27.7402H443.294V21.1002L441.831 21.9882V20.8175L443.294 19.9402H444.367Z" fill="black"/>
<path d="M476.461 19.9402V27.7402H475.389V21.1002L473.928 21.9882V20.8175L475.389 19.9402H476.461Z" fill="black"/>
<path d="M479.673 20.3871C480.149 19.9631 480.79 19.7791 481.417 19.7791C482.124 19.7791 482.772 20.0284 483.217 20.5378C483.649 20.9924 483.889 21.5991 483.889 22.2284C483.889 23.1378 483.477 23.7018 482.706 24.4378L480.444 26.7338H483.813V27.7324H478.829V26.7338L482.11 23.5498C482.61 23.0724 482.802 22.6284 482.802 22.2164C482.802 21.8498 482.662 21.4911 482.425 21.2311C482.154 20.9391 481.788 20.7764 481.365 20.7764C480.996 20.7764 480.649 20.9284 480.4 21.1658C480.118 21.4258 479.946 21.8058 479.946 22.2164H478.873C478.86 21.5138 479.176 20.8417 479.673 20.3871Z" fill="black"/>
<path d="M515.744 19.9402V27.7402H514.672V21.1002L513.211 21.9882V20.8175L514.672 19.9402H515.744Z" fill="black"/>
<path d="M523.279 25.3361C523.268 26.0934 522.974 26.8201 522.402 27.2974C521.924 27.6974 521.307 27.9041 520.711 27.8921C520.104 27.9041 519.487 27.6974 519.011 27.2974C518.632 26.9934 518.362 26.5708 518.222 26.1054L519.227 25.8241C519.326 26.1161 519.476 26.3654 519.703 26.5494C519.984 26.7774 520.334 26.8961 520.7 26.8961C521.068 26.8841 521.427 26.7654 521.698 26.5374C522.055 26.2361 522.206 25.7908 522.206 25.3361C522.206 24.8814 522.066 24.4481 521.73 24.1441C521.448 23.8841 521.08 23.7641 520.69 23.7641C520.44 23.7641 520.146 23.8521 519.919 23.9708L519.422 23.1361L521.752 20.9374H518.523V19.9401H523.17V20.9694L521.146 22.8867C521.763 22.9414 522.291 23.2014 522.682 23.6134C523.104 24.0788 523.29 24.7068 523.279 25.3361Z" fill="black"/>
<path d="M555.123 19.9402V27.7402H554.05V21.1002L552.586 21.9882V20.8175L554.05 19.9402H555.123Z" fill="black"/>
<path d="M562.777 25.3469V26.3442H561.985V27.7402H560.922V26.3442H557.487V25.3469L560.047 19.9402H561.141L558.583 25.3469H560.922V23.2016H561.985V25.3469H562.777Z" fill="black"/>
<path d="M594.461 19.9402V27.7402H593.389V21.1002L591.925 21.9882V20.8175L593.389 19.9402H594.461Z" fill="black"/>
<path d="M601.42 19.9402V20.9375H598.245L598.116 23.2015C598.516 22.8989 599.016 22.7242 599.513 22.7242C600.13 22.7242 600.758 22.9522 601.228 23.3642C601.78 23.8615 602.07 24.5442 602.05 25.2816C602.04 25.9856 601.748 26.6682 601.258 27.1455C600.769 27.6229 600.089 27.9042 599.384 27.8922C598.714 27.9042 598.042 27.6322 597.564 27.1762C597.217 26.8629 596.957 26.4295 596.829 25.9642L597.834 25.6935C597.912 25.9855 598.073 26.2562 598.292 26.4629C598.584 26.7215 598.974 26.8842 599.384 26.8842C599.818 26.8842 600.217 26.7122 600.521 26.4295C600.816 26.1362 600.998 25.7269 600.998 25.2816C600.998 24.8376 600.802 24.4042 600.477 24.1109C600.185 23.8415 599.794 23.6895 599.384 23.6895C598.996 23.6895 598.625 23.8296 598.334 24.0789C598.204 24.1989 598.094 24.3389 598.009 24.4802L597.076 23.9496L597.316 19.9402H601.42Z" fill="black"/>
<path d="M0.688477 39.9473L1.66554 23.2952L0.688477 6.72191L1.47394 6.79258C1.53434 6.79791 1.84115 6.82726 2.34421 6.91126V39.7579C1.84115 39.8419 1.53434 39.8726 1.47394 39.8766L0.688477 39.9473Z" fill="#EBEBEB"/>
<path d="M2.34473 39.7578V6.91117C3.17446 7.05117 4.54006 7.34181 6.22446 7.92181V15.2618H7.58433V8.42982C10.3761 9.55382 13.7771 11.4325 17.0266 14.5578H35.0646C37.6895 14.5578 39.8255 16.6791 39.8255 19.2858V27.3818C39.8255 29.9885 37.6895 32.1112 35.0646 32.1112H17.0266C13.7771 35.2365 10.3761 37.1152 7.58433 38.2392V31.4098H6.22446V38.7472C4.54006 39.3272 3.17446 39.6165 2.34473 39.7578Z" fill="#EAD32A"/>
<path d="M7.58448 15.2617H6.22461V7.92171C6.65794 8.07105 7.11261 8.24039 7.58448 8.42972V15.2617Z" fill="#5B5211"/>
<path d="M6.22461 38.748V31.4107H7.58448V38.24C7.11261 38.4294 6.65794 38.5987 6.22461 38.748Z" fill="#5B5211"/>
<path d="M1.41406 7.47051L2.34473 23.3358L1.41406 39.2012C1.41406 39.2012 9.55833 38.4772 16.7505 31.4318H35.0651C37.3171 31.4318 39.1453 29.6185 39.1453 27.3825V23.3358C39.1453 23.3358 39.1453 21.5238 39.1453 19.2878C39.1453 17.0518 37.3171 15.2385 35.0651 15.2385H16.7505C9.55833 8.19451 1.41406 7.47051 1.41406 7.47051Z" fill="#ACACAC"/>
<path d="M2.32913 23.5985L1.41406 39.2012C1.41406 39.2012 9.55833 38.4772 16.7505 31.4318H35.0651C37.3171 31.4318 39.1453 29.6185 39.1453 27.3825V23.5985H2.32913Z" fill="#D2D1D9"/>
<path d="M33.3827 23.3365C33.3827 25.4379 31.6771 27.1445 29.5739 27.1445C27.4714 27.1445 25.7656 25.4379 25.7656 23.3365C25.7656 21.2339 27.4714 19.5285 29.5739 19.5285C31.6771 19.5285 33.3827 21.2339 33.3827 23.3365Z" fill="#CCCCCC"/>
<path d="M31.4732 20.0538C31.7983 20.6152 31.9983 21.2579 31.9983 21.9512C31.9983 24.0552 30.2936 25.7605 28.1909 25.7605C27.4956 25.7605 26.8535 25.5605 26.292 25.2352C26.9503 26.3712 28.166 27.1445 29.5743 27.1445C31.6775 27.1445 33.3831 25.4379 33.3831 23.3365C33.3831 21.9285 32.6097 20.7138 31.4732 20.0538Z" fill="#787878"/>
<path d="M29.8856 21.9041C29.8856 22.7521 29.1981 23.4414 28.3487 23.4414C27.4987 23.4414 26.8105 22.7521 26.8105 21.9041C26.8105 21.0547 27.4987 20.3667 28.3487 20.3667C29.1981 20.3667 29.8856 21.0547 29.8856 21.9041Z" fill="#FAFAFA"/>
<path d="M15.6351 23.3365C15.6351 25.4379 13.931 27.1445 11.8269 27.1445C9.72367 27.1445 8.01953 25.4379 8.01953 23.3365C8.01953 21.2339 9.72367 19.5285 11.8269 19.5285C13.931 19.5285 15.6351 21.2339 15.6351 23.3365Z" fill="#CCCCCC"/>
<path d="M12.1291 21.9041C12.1291 22.7521 11.4416 23.4414 10.5922 23.4414C9.74269 23.4414 9.05469 22.7521 9.05469 21.9041C9.05469 21.0547 9.74269 20.3667 10.5922 20.3667C11.4416 20.3667 12.1291 21.0547 12.1291 21.9041Z" fill="#FAFAFA"/>
<path d="M13.7658 20.0538C14.0902 20.6152 14.2903 21.2579 14.2903 21.9512C14.2903 24.0552 12.5861 25.7605 10.482 25.7605C9.78718 25.7605 9.14438 25.5605 8.58398 25.2352C9.24292 26.3712 10.4585 27.1445 11.8662 27.1445C13.9694 27.1445 15.6736 25.4379 15.6736 23.3365C15.6736 21.9285 14.9017 20.7138 13.7658 20.0538Z" fill="#787878"/>
<path d="M0.482422 46.668H2.34442V0.00130486H0.482422V46.668Z" fill="#ACACAC"/>
<path d="M0 46.668H0.482265V0.00130486H0V46.668Z" fill="#D2D1D9"/>
</g>
<defs>
<clipPath id="clip0_4320_3821">
<rect width="605.925" height="46.6667" fill="white"/>
</clipPath>
</defs>
</svg>
