<svg width="606" height="47" viewBox="0 0 606 47" fill="none" xmlns="http://www.w3.org/2000/svg">
<g clip-path="url(#clip0_4320_4221)">
<path d="M2.34473 42.168H605.925V4.5013H2.34473V42.168Z" fill="#FEE52E"/>
<path d="M50.5322 9.82227H51.8921V4.503H50.5322V9.82227Z" fill="#635912"/>
<path d="M55.4541 9.82227H56.8156V4.503H55.4541V9.82227Z" fill="#635912"/>
<path d="M60.377 9.82227H61.7379V4.503H60.377V9.82227Z" fill="#635912"/>
<path d="M70.3242 9.82227H71.6857V4.503H70.3242V9.82227Z" fill="#635912"/>
<path d="M75.248 9.82227H76.6079V4.503H75.248V9.82227Z" fill="#635912"/>
<path d="M80.1699 9.82227H81.5293V4.503H80.1699V9.82227Z" fill="#635912"/>
<path d="M65.3008 13.9023H66.6602V4.50287H65.3008V13.9023Z" fill="#635912"/>
<path d="M84.9932 15.2617H86.3531V4.50182H84.9932V15.2617Z" fill="#635912"/>
<path d="M89.915 9.82227H91.2765V4.503H89.915V9.82227Z" fill="#635912"/>
<path d="M94.8389 9.82227H96.1988V4.503H94.8389V9.82227Z" fill="#635912"/>
<path d="M99.7617 9.82227H101.121V4.503H99.7617V9.82227Z" fill="#635912"/>
<path d="M109.709 9.82227H111.069V4.503H109.709V9.82227Z" fill="#635912"/>
<path d="M114.632 9.82227H115.993V4.503H114.632V9.82227Z" fill="#635912"/>
<path d="M119.556 9.82227H120.915V4.503H119.556V9.82227Z" fill="#635912"/>
<path d="M104.686 13.9023H106.045V4.50287H104.686V13.9023Z" fill="#635912"/>
<path d="M124.375 15.2617H125.736V4.50182H124.375V15.2617Z" fill="#635912"/>
<path d="M129.3 9.82227H130.66V4.503H129.3V9.82227Z" fill="#635912"/>
<path d="M134.222 9.82227H135.583V4.503H134.222V9.82227Z" fill="#635912"/>
<path d="M139.146 9.82227H140.507V4.503H139.146V9.82227Z" fill="#635912"/>
<path d="M149.093 9.82227H150.454V4.503H149.093V9.82227Z" fill="#635912"/>
<path d="M154.017 9.82227H155.375V4.503H154.017V9.82227Z" fill="#635912"/>
<path d="M158.938 9.82227H160.298V4.503H158.938V9.82227Z" fill="#635912"/>
<path d="M144.068 13.9023H145.428V4.50287H144.068V13.9023Z" fill="#635912"/>
<path d="M163.761 15.2617H165.121V4.50182H163.761V15.2617Z" fill="#635912"/>
<path d="M168.684 9.82227H170.045V4.503H168.684V9.82227Z" fill="#635912"/>
<path d="M173.607 9.82227H174.966V4.503H173.607V9.82227Z" fill="#635912"/>
<path d="M178.53 9.82227H179.89V4.503H178.53V9.82227Z" fill="#635912"/>
<path d="M188.477 9.82227H189.837V4.503H188.477V9.82227Z" fill="#635912"/>
<path d="M193.4 9.82227H194.759V4.503H193.4V9.82227Z" fill="#635912"/>
<path d="M198.323 9.82227H199.682V4.503H198.323V9.82227Z" fill="#635912"/>
<path d="M183.453 13.9023H184.813V4.50287H183.453V13.9023Z" fill="#635912"/>
<path d="M203.146 15.2617H204.505V4.50182H203.146V15.2617Z" fill="#635912"/>
<path d="M208.067 9.82227H209.429V4.503H208.067V9.82227Z" fill="#635912"/>
<path d="M212.991 9.82227H214.351V4.503H212.991V9.82227Z" fill="#635912"/>
<path d="M217.914 9.82227H219.274V4.503H217.914V9.82227Z" fill="#635912"/>
<path d="M227.862 9.82227H229.221V4.503H227.862V9.82227Z" fill="#635912"/>
<path d="M232.783 9.82227H234.145V4.503H232.783V9.82227Z" fill="#635912"/>
<path d="M237.706 9.82227H239.066V4.503H237.706V9.82227Z" fill="#635912"/>
<path d="M222.837 13.9023H224.198V4.50287H222.837V13.9023Z" fill="#635912"/>
<path d="M242.528 15.2617H243.888V4.50182H242.528V15.2617Z" fill="#635912"/>
<path d="M247.453 9.82227H248.813V4.503H247.453V9.82227Z" fill="#635912"/>
<path d="M252.374 9.82227H253.735V4.503H252.374V9.82227Z" fill="#635912"/>
<path d="M257.298 9.82227H258.658V4.503H257.298V9.82227Z" fill="#635912"/>
<path d="M267.245 9.82227H268.605V4.503H267.245V9.82227Z" fill="#635912"/>
<path d="M272.167 9.82227H273.527V4.503H272.167V9.82227Z" fill="#635912"/>
<path d="M277.09 9.82227H278.451V4.503H277.09V9.82227Z" fill="#635912"/>
<path d="M262.22 13.9023H263.583V4.50287H262.22V13.9023Z" fill="#635912"/>
<path d="M281.914 15.2617H283.273V4.50182H281.914V15.2617Z" fill="#635912"/>
<path d="M286.837 9.82227H288.198V4.503H286.837V9.82227Z" fill="#635912"/>
<path d="M291.761 9.82227H293.119V4.503H291.761V9.82227Z" fill="#635912"/>
<path d="M296.682 9.82227H298.043V4.503H296.682V9.82227Z" fill="#635912"/>
<path d="M306.632 9.82227H307.991V4.503H306.632V9.82227Z" fill="#635912"/>
<path d="M311.553 9.82227H312.914V4.503H311.553V9.82227Z" fill="#635912"/>
<path d="M316.477 9.82227H317.837V4.503H316.477V9.82227Z" fill="#635912"/>
<path d="M301.604 13.9023H302.964V4.50287H301.604V13.9023Z" fill="#635912"/>
<path d="M321.297 15.2617H322.657V4.50182H321.297V15.2617Z" fill="#635912"/>
<path d="M326.222 9.82227H327.581V4.503H326.222V9.82227Z" fill="#635912"/>
<path d="M331.144 9.82227H332.507V4.503H331.144V9.82227Z" fill="#635912"/>
<path d="M336.068 9.82227H337.427V4.503H336.068V9.82227Z" fill="#635912"/>
<path d="M346.013 9.82227H347.373V4.503H346.013V9.82227Z" fill="#635912"/>
<path d="M350.936 9.82227H352.294V4.503H350.936V9.82227Z" fill="#635912"/>
<path d="M355.856 9.82227H357.219V4.503H355.856V9.82227Z" fill="#635912"/>
<path d="M340.99 13.9023H342.349V4.50287H340.99V13.9023Z" fill="#635912"/>
<path d="M360.682 15.2617H362.042V4.50182H360.682V15.2617Z" fill="#635912"/>
<path d="M365.604 9.82227H366.966V4.503H365.604V9.82227Z" fill="#635912"/>
<path d="M370.528 9.82227H371.888V4.503H370.528V9.82227Z" fill="#635912"/>
<path d="M375.451 9.82227H376.81V4.503H375.451V9.82227Z" fill="#635912"/>
<path d="M385.399 9.82227H386.758V4.503H385.399V9.82227Z" fill="#635912"/>
<path d="M390.32 9.82227H391.682V4.503H390.32V9.82227Z" fill="#635912"/>
<path d="M395.245 9.82227H396.605V4.503H395.245V9.82227Z" fill="#635912"/>
<path d="M380.373 13.9023H381.733V4.50287H380.373V13.9023Z" fill="#635912"/>
<path d="M400.066 15.2617H401.425V4.50182H400.066V15.2617Z" fill="#635912"/>
<path d="M404.99 9.82227H406.349V4.503H404.99V9.82227Z" fill="#635912"/>
<path d="M409.911 9.82227H411.274V4.503H409.911V9.82227Z" fill="#635912"/>
<path d="M414.837 9.82227H416.195V4.503H414.837V9.82227Z" fill="#635912"/>
<path d="M424.782 9.82227H426.141V4.503H424.782V9.82227Z" fill="#635912"/>
<path d="M429.703 9.82227H431.066V4.503H429.703V9.82227Z" fill="#635912"/>
<path d="M434.625 9.82227H435.988V4.503H434.625V9.82227Z" fill="#635912"/>
<path d="M419.758 13.9023H421.118V4.50287H419.758V13.9023Z" fill="#635912"/>
<path d="M439.451 15.2617H440.81V4.50182H439.451V15.2617Z" fill="#635912"/>
<path d="M444.373 9.82227H445.734V4.503H444.373V9.82227Z" fill="#635912"/>
<path d="M449.297 9.82227H450.657V4.503H449.297V9.82227Z" fill="#635912"/>
<path d="M454.22 9.82227H455.579V4.503H454.22V9.82227Z" fill="#635912"/>
<path d="M464.167 9.82227H465.526V4.503H464.167V9.82227Z" fill="#635912"/>
<path d="M469.089 9.82227H470.452V4.503H469.089V9.82227Z" fill="#635912"/>
<path d="M474.013 9.82227H475.373V4.503H474.013V9.82227Z" fill="#635912"/>
<path d="M459.141 13.9023H460.501V4.50287H459.141V13.9023Z" fill="#635912"/>
<path d="M478.834 15.2617H480.193V4.50182H478.834V15.2617Z" fill="#635912"/>
<path d="M483.758 9.82227H485.118V4.503H483.758V9.82227Z" fill="#635912"/>
<path d="M488.68 9.82227H490.042V4.503H488.68V9.82227Z" fill="#635912"/>
<path d="M493.604 9.82227H494.963V4.503H493.604V9.82227Z" fill="#635912"/>
<path d="M503.55 9.82227H504.909V4.503H503.55V9.82227Z" fill="#635912"/>
<path d="M508.472 9.82227H509.834V4.503H508.472V9.82227Z" fill="#635912"/>
<path d="M513.394 9.82227H514.754V4.503H513.394V9.82227Z" fill="#635912"/>
<path d="M498.526 13.9023H499.886V4.50287H498.526V13.9023Z" fill="#635912"/>
<path d="M518.22 15.2617H519.579V4.50182H518.22V15.2617Z" fill="#635912"/>
<path d="M523.141 9.82227H524.504V4.503H523.141V9.82227Z" fill="#635912"/>
<path d="M528.064 9.82227H529.425V4.503H528.064V9.82227Z" fill="#635912"/>
<path d="M532.987 9.82227H534.346V4.503H532.987V9.82227Z" fill="#635912"/>
<path d="M542.936 9.82227H544.294V4.503H542.936V9.82227Z" fill="#635912"/>
<path d="M547.856 9.82227H549.216V4.503H547.856V9.82227Z" fill="#635912"/>
<path d="M552.782 9.82227H554.141V4.503H552.782V9.82227Z" fill="#635912"/>
<path d="M537.908 13.9023H539.268V4.50287H537.908V13.9023Z" fill="#635912"/>
<path d="M557.602 15.2617H558.96V4.50182H557.602V15.2617Z" fill="#635912"/>
<path d="M562.526 9.82227H563.886V4.503H562.526V9.82227Z" fill="#635912"/>
<path d="M567.448 9.82227H568.809V4.503H567.448V9.82227Z" fill="#635912"/>
<path d="M572.373 9.82227H573.733V4.503H572.373V9.82227Z" fill="#635912"/>
<path d="M582.318 9.82227H583.678V4.503H582.318V9.82227Z" fill="#635912"/>
<path d="M587.239 9.82227H588.602V4.503H587.239V9.82227Z" fill="#635912"/>
<path d="M592.162 9.82227H593.524V4.503H592.162V9.82227Z" fill="#635912"/>
<path d="M577.294 13.9023H578.654V4.50287H577.294V13.9023Z" fill="#635912"/>
<path d="M596.987 15.2617H598.346V4.50182H596.987V15.2617Z" fill="#635912"/>
<path d="M7.58448 8.42969C7.11261 8.24035 6.65794 8.07101 6.22461 7.92168V4.50169H7.58448V8.42969Z" fill="#635912"/>
<path d="M11.1465 9.82227H12.5079V4.503H11.1465V9.82227Z" fill="#635912"/>
<path d="M16.0713 9.82227H17.4312V4.503H16.0713V9.82227Z" fill="#635912"/>
<path d="M20.9932 9.82227H22.3525V4.503H20.9932V9.82227Z" fill="#635912"/>
<path d="M30.9404 9.82227H32.3003V4.503H30.9404V9.82227Z" fill="#635912"/>
<path d="M35.8633 9.82227H37.2247V4.503H35.8633V9.82227Z" fill="#635912"/>
<path d="M40.7852 9.82227H42.1461V4.503H40.7852V9.82227Z" fill="#635912"/>
<path d="M25.917 13.9023H27.2764V4.50287H25.917V13.9023Z" fill="#635912"/>
<path d="M45.6074 15.2617H46.9689V4.50182H45.6074V15.2617Z" fill="#635912"/>
<path d="M50.5322 42.1699H51.8921V42.1683H50.5322V42.1699Z" fill="#636363"/>
<path d="M50.5322 42.168H51.8921V36.8497H50.5322V42.168Z" fill="#635912"/>
<path d="M55.4541 42.1699H56.8156V42.1683H55.4541V42.1699Z" fill="#636363"/>
<path d="M55.4541 42.168H56.8156V36.8497H55.4541V42.168Z" fill="#635912"/>
<path d="M60.377 42.1699H61.7379V42.1683H60.377V42.1699Z" fill="#636363"/>
<path d="M60.377 42.168H61.7379V36.8497H60.377V42.168Z" fill="#635912"/>
<path d="M70.3242 42.1699H71.6857V42.1683H70.3242V42.1699Z" fill="#636363"/>
<path d="M70.3242 42.168H71.6857V36.8497H70.3242V42.168Z" fill="#635912"/>
<path d="M75.248 42.1699H76.6079V42.1683H75.248V42.1699Z" fill="#636363"/>
<path d="M75.248 42.168H76.6079V36.8497H75.248V42.168Z" fill="#635912"/>
<path d="M80.1699 42.1699H81.5293V42.1683H80.1699V42.1699Z" fill="#636363"/>
<path d="M80.1699 42.168H81.5293V36.8497H80.1699V42.168Z" fill="#635912"/>
<path d="M65.3008 42.1699H66.6602V42.1683H65.3008V42.1699Z" fill="#636363"/>
<path d="M65.3008 42.168H66.6602V32.769H65.3008V42.168Z" fill="#635912"/>
<path d="M84.9932 42.1699H86.3531V42.1683H84.9932V42.1699Z" fill="#636363"/>
<path d="M84.9932 42.168H86.3531V31.4102H84.9932V42.168Z" fill="#635912"/>
<path d="M89.915 42.1699H91.2765V42.1683H89.915V42.1699Z" fill="#636363"/>
<path d="M89.915 42.168H91.2765V36.8497H89.915V42.168Z" fill="#635912"/>
<path d="M94.8389 42.1699H96.1988V42.1683H94.8389V42.1699Z" fill="#636363"/>
<path d="M94.8389 42.168H96.1988V36.8497H94.8389V42.168Z" fill="#635912"/>
<path d="M99.7617 42.1699H101.121V42.1683H99.7617V42.1699Z" fill="#636363"/>
<path d="M99.7617 42.168H101.121V36.8497H99.7617V42.168Z" fill="#635912"/>
<path d="M109.709 42.1699H111.069V42.1683H109.709V42.1699Z" fill="#636363"/>
<path d="M109.709 42.168H111.069V36.8497H109.709V42.168Z" fill="#635912"/>
<path d="M114.632 42.1699H115.993V42.1683H114.632V42.1699Z" fill="#636363"/>
<path d="M114.632 42.168H115.993V36.8497H114.632V42.168Z" fill="#635912"/>
<path d="M119.556 42.1699H120.915V42.1683H119.556V42.1699Z" fill="#636363"/>
<path d="M119.556 42.168H120.915V36.8497H119.556V42.168Z" fill="#635912"/>
<path d="M104.686 42.1699H106.045V42.1683H104.686V42.1699Z" fill="#636363"/>
<path d="M104.686 42.168H106.045V32.769H104.686V42.168Z" fill="#635912"/>
<path d="M124.375 42.1699H125.736V42.1683H124.375V42.1699Z" fill="#636363"/>
<path d="M124.375 42.168H125.736V31.4102H124.375V42.168Z" fill="#635912"/>
<path d="M129.3 42.1699H130.66V42.1683H129.3V42.1699Z" fill="#636363"/>
<path d="M129.3 42.168H130.66V36.8497H129.3V42.168Z" fill="#635912"/>
<path d="M134.222 42.1699H135.583V42.1683H134.222V42.1699Z" fill="#636363"/>
<path d="M134.222 42.168H135.583V36.8497H134.222V42.168Z" fill="#635912"/>
<path d="M139.146 42.1699H140.507V42.1683H139.146V42.1699Z" fill="#636363"/>
<path d="M139.146 42.168H140.507V36.8497H139.146V42.168Z" fill="#635912"/>
<path d="M149.093 42.1699H150.454V42.1683H149.093V42.1699Z" fill="#636363"/>
<path d="M149.093 42.168H150.454V36.8497H149.093V42.168Z" fill="#635912"/>
<path d="M154.017 42.1699H155.375V42.1683H154.017V42.1699Z" fill="#636363"/>
<path d="M154.017 42.168H155.375V36.8497H154.017V42.168Z" fill="#635912"/>
<path d="M158.938 42.1699H160.298V42.1683H158.938V42.1699Z" fill="#636363"/>
<path d="M158.938 42.168H160.298V36.8497H158.938V42.168Z" fill="#635912"/>
<path d="M144.068 42.1699H145.428V42.1683H144.068V42.1699Z" fill="#636363"/>
<path d="M144.068 42.168H145.428V32.769H144.068V42.168Z" fill="#635912"/>
<path d="M163.761 42.1699H165.121V42.1683H163.761V42.1699Z" fill="#636363"/>
<path d="M163.761 42.168H165.121V31.4102H163.761V42.168Z" fill="#635912"/>
<path d="M168.684 42.1699H170.045V42.1683H168.684V42.1699Z" fill="#636363"/>
<path d="M168.684 42.168H170.045V36.8497H168.684V42.168Z" fill="#635912"/>
<path d="M173.607 42.1699H174.966V42.1683H173.607V42.1699Z" fill="#636363"/>
<path d="M173.607 42.168H174.966V36.8497H173.607V42.168Z" fill="#635912"/>
<path d="M178.53 42.1699H179.89V42.1683H178.53V42.1699Z" fill="#636363"/>
<path d="M178.53 42.168H179.89V36.8497H178.53V42.168Z" fill="#635912"/>
<path d="M188.477 42.1699H189.837V42.1683H188.477V42.1699Z" fill="#636363"/>
<path d="M188.477 42.168H189.837V36.8497H188.477V42.168Z" fill="#635912"/>
<path d="M193.4 42.1699H194.759V42.1683H193.4V42.1699Z" fill="#636363"/>
<path d="M193.4 42.168H194.759V36.8497H193.4V42.168Z" fill="#635912"/>
<path d="M198.323 42.1699H199.682V42.1683H198.323V42.1699Z" fill="#636363"/>
<path d="M198.323 42.168H199.682V36.8497H198.323V42.168Z" fill="#635912"/>
<path d="M183.453 42.1699H184.813V42.1683H183.453V42.1699Z" fill="#636363"/>
<path d="M183.453 42.168H184.813V32.769H183.453V42.168Z" fill="#635912"/>
<path d="M203.146 42.1699H204.505V42.1683H203.146V42.1699Z" fill="#636363"/>
<path d="M203.146 42.168H204.505V31.4102H203.146V42.168Z" fill="#635912"/>
<path d="M208.067 42.1699H209.429V42.1683H208.067V42.1699Z" fill="#636363"/>
<path d="M208.067 42.168H209.429V36.8497H208.067V42.168Z" fill="#635912"/>
<path d="M212.991 42.1699H214.351V42.1683H212.991V42.1699Z" fill="#636363"/>
<path d="M212.991 42.168H214.351V36.8497H212.991V42.168Z" fill="#635912"/>
<path d="M217.914 42.1699H219.274V42.1683H217.914V42.1699Z" fill="#636363"/>
<path d="M217.914 42.168H219.274V36.8497H217.914V42.168Z" fill="#635912"/>
<path d="M227.862 42.1699H229.221V42.1683H227.862V42.1699Z" fill="#636363"/>
<path d="M227.862 42.168H229.221V36.8497H227.862V42.168Z" fill="#635912"/>
<path d="M232.783 42.1699H234.145V42.1683H232.783V42.1699Z" fill="#636363"/>
<path d="M232.783 42.168H234.145V36.8497H232.783V42.168Z" fill="#635912"/>
<path d="M237.706 42.1699H239.066V42.1683H237.706V42.1699Z" fill="#636363"/>
<path d="M237.706 42.168H239.066V36.8497H237.706V42.168Z" fill="#635912"/>
<path d="M222.837 42.1699H224.198V42.1683H222.837V42.1699Z" fill="#636363"/>
<path d="M222.837 42.168H224.198V32.769H222.837V42.168Z" fill="#635912"/>
<path d="M242.528 42.1699H243.888V42.1683H242.528V42.1699Z" fill="#636363"/>
<path d="M242.528 42.168H243.888V31.4102H242.528V42.168Z" fill="#635912"/>
<path d="M247.453 42.1699H248.813V42.1683H247.453V42.1699Z" fill="#636363"/>
<path d="M247.453 42.168H248.813V36.8497H247.453V42.168Z" fill="#635912"/>
<path d="M252.374 42.1699H253.735V42.1683H252.374V42.1699Z" fill="#636363"/>
<path d="M252.374 42.168H253.735V36.8497H252.374V42.168Z" fill="#635912"/>
<path d="M257.298 42.1699H258.658V42.1683H257.298V42.1699Z" fill="#636363"/>
<path d="M257.298 42.168H258.658V36.8497H257.298V42.168Z" fill="#635912"/>
<path d="M267.245 42.1699H268.605V42.1683H267.245V42.1699Z" fill="#636363"/>
<path d="M267.245 42.168H268.605V36.8497H267.245V42.168Z" fill="#635912"/>
<path d="M272.167 42.1699H273.527V42.1683H272.167V42.1699Z" fill="#636363"/>
<path d="M272.167 42.168H273.527V36.8497H272.167V42.168Z" fill="#635912"/>
<path d="M277.09 42.1699H278.451V42.1683H277.09V42.1699Z" fill="#636363"/>
<path d="M277.09 42.168H278.451V36.8497H277.09V42.168Z" fill="#635912"/>
<path d="M262.22 42.1699H263.583V42.1683H262.22V42.1699Z" fill="#636363"/>
<path d="M262.22 42.168H263.583V32.769H262.22V42.168Z" fill="#635912"/>
<path d="M281.914 42.1699H283.273V42.1683H281.914V42.1699Z" fill="#636363"/>
<path d="M281.914 42.168H283.273V31.4102H281.914V42.168Z" fill="#635912"/>
<path d="M286.837 42.1699H288.198V42.1683H286.837V42.1699Z" fill="#636363"/>
<path d="M286.837 42.168H288.198V36.8497H286.837V42.168Z" fill="#635912"/>
<path d="M291.761 42.1699H293.119V42.1683H291.761V42.1699Z" fill="#636363"/>
<path d="M291.761 42.168H293.119V36.8497H291.761V42.168Z" fill="#635912"/>
<path d="M296.682 42.1699H298.043V42.1683H296.682V42.1699Z" fill="#636363"/>
<path d="M296.682 42.168H298.043V36.8497H296.682V42.168Z" fill="#635912"/>
<path d="M306.632 42.1699H307.991V42.1683H306.632V42.1699Z" fill="#636363"/>
<path d="M306.632 42.168H307.991V36.8497H306.632V42.168Z" fill="#635912"/>
<path d="M311.553 42.1699H312.914V42.1683H311.553V42.1699Z" fill="#636363"/>
<path d="M311.553 42.168H312.914V36.8497H311.553V42.168Z" fill="#635912"/>
<path d="M316.477 42.1699H317.837V42.1683H316.477V42.1699Z" fill="#636363"/>
<path d="M316.477 42.168H317.837V36.8497H316.477V42.168Z" fill="#635912"/>
<path d="M301.604 42.1699H302.964V42.1683H301.604V42.1699Z" fill="#636363"/>
<path d="M301.604 42.168H302.964V32.769H301.604V42.168Z" fill="#635912"/>
<path d="M321.297 42.1699H322.657V42.1683H321.297V42.1699Z" fill="#636363"/>
<path d="M321.297 42.168H322.657V31.4102H321.297V42.168Z" fill="#635912"/>
<path d="M326.222 42.1699H327.581V42.1683H326.222V42.1699Z" fill="#636363"/>
<path d="M326.222 42.168H327.581V36.8497H326.222V42.168Z" fill="#635912"/>
<path d="M331.144 42.1699H332.507V42.1683H331.144V42.1699Z" fill="#636363"/>
<path d="M331.144 42.168H332.507V36.8497H331.144V42.168Z" fill="#635912"/>
<path d="M336.068 42.1699H337.427V42.1683H336.068V42.1699Z" fill="#636363"/>
<path d="M336.068 42.168H337.427V36.8497H336.068V42.168Z" fill="#635912"/>
<path d="M346.013 42.1699H347.373V42.1683H346.013V42.1699Z" fill="#636363"/>
<path d="M346.013 42.168H347.373V36.8497H346.013V42.168Z" fill="#635912"/>
<path d="M350.936 42.1699H352.294V42.1683H350.936V42.1699Z" fill="#636363"/>
<path d="M350.936 42.168H352.294V36.8497H350.936V42.168Z" fill="#635912"/>
<path d="M355.856 42.1699H357.219V42.1683H355.856V42.1699Z" fill="#636363"/>
<path d="M355.856 42.168H357.219V36.8497H355.856V42.168Z" fill="#635912"/>
<path d="M340.99 42.1699H342.349V42.1683H340.99V42.1699Z" fill="#636363"/>
<path d="M340.99 42.168H342.349V32.769H340.99V42.168Z" fill="#635912"/>
<path d="M360.682 42.1699H362.042V42.1683H360.682V42.1699Z" fill="#636363"/>
<path d="M360.682 42.168H362.042V31.4102H360.682V42.168Z" fill="#635912"/>
<path d="M365.604 42.1699H366.966V42.1683H365.604V42.1699Z" fill="#636363"/>
<path d="M365.604 42.168H366.966V36.8497H365.604V42.168Z" fill="#635912"/>
<path d="M370.528 42.1699H371.888V42.1683H370.528V42.1699Z" fill="#636363"/>
<path d="M370.528 42.168H371.888V36.8497H370.528V42.168Z" fill="#635912"/>
<path d="M375.451 42.1699H376.81V42.1683H375.451V42.1699Z" fill="#636363"/>
<path d="M375.451 42.168H376.81V36.8497H375.451V42.168Z" fill="#635912"/>
<path d="M385.399 42.1699H386.758V42.1683H385.399V42.1699Z" fill="#636363"/>
<path d="M385.399 42.168H386.758V36.8497H385.399V42.168Z" fill="#635912"/>
<path d="M390.32 42.1699H391.682V42.1683H390.32V42.1699Z" fill="#636363"/>
<path d="M390.32 42.168H391.682V36.8497H390.32V42.168Z" fill="#635912"/>
<path d="M395.245 42.1699H396.605V42.1683H395.245V42.1699Z" fill="#636363"/>
<path d="M395.245 42.168H396.605V36.8497H395.245V42.168Z" fill="#635912"/>
<path d="M380.373 42.1699H381.733V42.1683H380.373V42.1699Z" fill="#636363"/>
<path d="M380.373 42.168H381.733V32.769H380.373V42.168Z" fill="#635912"/>
<path d="M400.066 42.1699H401.425V42.1683H400.066V42.1699Z" fill="#636363"/>
<path d="M400.066 42.168H401.425V31.4102H400.066V42.168Z" fill="#635912"/>
<path d="M404.99 42.1699H406.349V42.1683H404.99V42.1699Z" fill="#636363"/>
<path d="M404.99 42.168H406.349V36.8497H404.99V42.168Z" fill="#635912"/>
<path d="M409.911 42.1699H411.274V42.1683H409.911V42.1699Z" fill="#636363"/>
<path d="M409.911 42.168H411.274V36.8497H409.911V42.168Z" fill="#635912"/>
<path d="M414.837 42.1699H416.195V42.1683H414.837V42.1699Z" fill="#636363"/>
<path d="M414.837 42.168H416.195V36.8497H414.837V42.168Z" fill="#635912"/>
<path d="M424.782 42.1699H426.141V42.1683H424.782V42.1699Z" fill="#636363"/>
<path d="M424.782 42.168H426.141V36.8497H424.782V42.168Z" fill="#635912"/>
<path d="M429.703 42.1699H431.066V42.1683H429.703V42.1699Z" fill="#636363"/>
<path d="M429.703 42.168H431.066V36.8497H429.703V42.168Z" fill="#635912"/>
<path d="M434.625 42.1699H435.988V42.1683H434.625V42.1699Z" fill="#636363"/>
<path d="M434.625 42.168H435.988V36.8497H434.625V42.168Z" fill="#635912"/>
<path d="M419.758 42.1699H421.118V42.1683H419.758V42.1699Z" fill="#636363"/>
<path d="M419.758 42.168H421.118V32.769H419.758V42.168Z" fill="#635912"/>
<path d="M439.451 42.1699H440.81V42.1683H439.451V42.1699Z" fill="#636363"/>
<path d="M439.451 42.168H440.81V31.4102H439.451V42.168Z" fill="#635912"/>
<path d="M444.373 42.1699H445.734V42.1683H444.373V42.1699Z" fill="#636363"/>
<path d="M444.373 42.168H445.734V36.8497H444.373V42.168Z" fill="#635912"/>
<path d="M449.297 42.1699H450.657V42.1683H449.297V42.1699Z" fill="#636363"/>
<path d="M449.297 42.168H450.657V36.8497H449.297V42.168Z" fill="#635912"/>
<path d="M454.22 42.1699H455.579V42.1683H454.22V42.1699Z" fill="#636363"/>
<path d="M454.22 42.168H455.579V36.8497H454.22V42.168Z" fill="#635912"/>
<path d="M464.167 42.1699H465.526V42.1683H464.167V42.1699Z" fill="#636363"/>
<path d="M464.167 42.168H465.526V36.8497H464.167V42.168Z" fill="#635912"/>
<path d="M469.089 42.1699H470.452V42.1683H469.089V42.1699Z" fill="#636363"/>
<path d="M469.089 42.168H470.452V36.8497H469.089V42.168Z" fill="#635912"/>
<path d="M474.013 42.1699H475.373V42.1683H474.013V42.1699Z" fill="#636363"/>
<path d="M474.013 42.168H475.373V36.8497H474.013V42.168Z" fill="#635912"/>
<path d="M459.141 42.1699H460.501V42.1683H459.141V42.1699Z" fill="#636363"/>
<path d="M459.141 42.168H460.501V32.769H459.141V42.168Z" fill="#635912"/>
<path d="M478.834 42.1699H480.193V42.1683H478.834V42.1699Z" fill="#636363"/>
<path d="M478.834 42.168H480.193V31.4102H478.834V42.168Z" fill="#635912"/>
<path d="M483.758 42.1699H485.118V42.1683H483.758V42.1699Z" fill="#636363"/>
<path d="M483.758 42.168H485.118V36.8497H483.758V42.168Z" fill="#635912"/>
<path d="M488.68 42.1699H490.042V42.1683H488.68V42.1699Z" fill="#636363"/>
<path d="M488.68 42.168H490.042V36.8497H488.68V42.168Z" fill="#635912"/>
<path d="M493.604 42.1699H494.963V42.1683H493.604V42.1699Z" fill="#636363"/>
<path d="M493.604 42.168H494.963V36.8497H493.604V42.168Z" fill="#635912"/>
<path d="M503.55 42.1699H504.909V42.1683H503.55V42.1699Z" fill="#636363"/>
<path d="M503.55 42.168H504.909V36.8497H503.55V42.168Z" fill="#635912"/>
<path d="M508.472 42.1699H509.834V42.1683H508.472V42.1699Z" fill="#636363"/>
<path d="M508.472 42.168H509.834V36.8497H508.472V42.168Z" fill="#635912"/>
<path d="M513.394 42.1699H514.754V42.1683H513.394V42.1699Z" fill="#636363"/>
<path d="M513.394 42.168H514.754V36.8497H513.394V42.168Z" fill="#635912"/>
<path d="M498.526 42.1699H499.886V42.1683H498.526V42.1699Z" fill="#636363"/>
<path d="M498.526 42.168H499.886V32.769H498.526V42.168Z" fill="#635912"/>
<path d="M518.22 42.1699H519.579V42.1683H518.22V42.1699Z" fill="#636363"/>
<path d="M518.22 42.168H519.579V31.4102H518.22V42.168Z" fill="#635912"/>
<path d="M523.141 42.1699H524.504V42.1683H523.141V42.1699Z" fill="#636363"/>
<path d="M523.141 42.168H524.504V36.8497H523.141V42.168Z" fill="#635912"/>
<path d="M528.064 42.1699H529.425V42.1683H528.064V42.1699Z" fill="#636363"/>
<path d="M528.064 42.168H529.425V36.8497H528.064V42.168Z" fill="#635912"/>
<path d="M532.987 42.1699H534.346V42.1683H532.987V42.1699Z" fill="#636363"/>
<path d="M532.987 42.168H534.346V36.8497H532.987V42.168Z" fill="#635912"/>
<path d="M542.936 42.1699H544.294V42.1683H542.936V42.1699Z" fill="#636363"/>
<path d="M542.936 42.168H544.294V36.8497H542.936V42.168Z" fill="#635912"/>
<path d="M547.856 42.1699H549.216V42.1683H547.856V42.1699Z" fill="#636363"/>
<path d="M547.856 42.168H549.216V36.8497H547.856V42.168Z" fill="#635912"/>
<path d="M552.782 42.1699H554.141V42.1683H552.782V42.1699Z" fill="#636363"/>
<path d="M552.782 42.168H554.141V36.8497H552.782V42.168Z" fill="#635912"/>
<path d="M537.908 42.1699H539.268V42.1683H537.908V42.1699Z" fill="#636363"/>
<path d="M537.908 42.168H539.268V32.769H537.908V42.168Z" fill="#635912"/>
<path d="M557.602 42.1699H558.96V42.1683H557.602V42.1699Z" fill="#636363"/>
<path d="M557.602 42.168H558.96V31.4102H557.602V42.168Z" fill="#635912"/>
<path d="M562.526 42.1699H563.886V42.1683H562.526V42.1699Z" fill="#636363"/>
<path d="M562.526 42.168H563.886V36.8497H562.526V42.168Z" fill="#635912"/>
<path d="M567.448 42.1699H568.809V42.1683H567.448V42.1699Z" fill="#636363"/>
<path d="M567.448 42.168H568.809V36.8497H567.448V42.168Z" fill="#635912"/>
<path d="M572.373 42.1699H573.733V42.1683H572.373V42.1699Z" fill="#636363"/>
<path d="M572.373 42.168H573.733V36.8497H572.373V42.168Z" fill="#635912"/>
<path d="M582.318 42.1699H583.678V42.1683H582.318V42.1699Z" fill="#636363"/>
<path d="M582.318 42.168H583.678V36.8497H582.318V42.168Z" fill="#635912"/>
<path d="M587.239 42.1699H588.602V42.1683H587.239V42.1699Z" fill="#636363"/>
<path d="M587.239 42.168H588.602V36.8497H587.239V42.168Z" fill="#635912"/>
<path d="M592.162 42.1699H593.524V42.1683H592.162V42.1699Z" fill="#636363"/>
<path d="M592.162 42.168H593.524V36.8497H592.162V42.168Z" fill="#635912"/>
<path d="M577.294 42.1699H578.654V42.1683H577.294V42.1699Z" fill="#636363"/>
<path d="M577.294 42.168H578.654V32.769H577.294V42.168Z" fill="#635912"/>
<path d="M596.987 42.1699H598.346V42.1683H596.987V42.1699Z" fill="#636363"/>
<path d="M596.987 42.168H598.346V31.4102H596.987V42.168Z" fill="#635912"/>
<path d="M6.22461 42.1699H7.5845V42.1683H6.22461V42.1699Z" fill="#636363"/>
<path d="M7.58448 42.168H6.22461V38.7466C6.65794 38.5973 7.11261 38.428 7.58448 38.2386V42.168Z" fill="#635912"/>
<path d="M11.1465 42.1699H12.5079V42.1683H11.1465V42.1699Z" fill="#636363"/>
<path d="M11.1465 42.168H12.5079V36.8497H11.1465V42.168Z" fill="#635912"/>
<path d="M16.0713 42.1699H17.4312V42.1683H16.0713V42.1699Z" fill="#636363"/>
<path d="M16.0713 42.168H17.4312V36.8497H16.0713V42.168Z" fill="#635912"/>
<path d="M20.9932 42.1699H22.3525V42.1683H20.9932V42.1699Z" fill="#636363"/>
<path d="M20.9932 42.168H22.3525V36.8497H20.9932V42.168Z" fill="#635912"/>
<path d="M30.9404 42.1699H32.3003V42.1683H30.9404V42.1699Z" fill="#636363"/>
<path d="M30.9404 42.168H32.3003V36.8497H30.9404V42.168Z" fill="#635912"/>
<path d="M35.8633 42.1699H37.2247V42.1683H35.8633V42.1699Z" fill="#636363"/>
<path d="M35.8633 42.168H37.2247V36.8497H35.8633V42.168Z" fill="#635912"/>
<path d="M40.7852 42.1699H42.1461V42.1683H40.7852V42.1699Z" fill="#636363"/>
<path d="M40.7852 42.168H42.1461V36.8497H40.7852V42.168Z" fill="#635912"/>
<path d="M25.917 42.1699H27.2764V42.1683H25.917V42.1699Z" fill="#636363"/>
<path d="M25.917 42.168H27.2764V32.769H25.917V42.168Z" fill="#635912"/>
<path d="M45.6074 42.1699H46.9689V42.1683H45.6074V42.1699Z" fill="#636363"/>
<path d="M45.6074 42.168H46.9689V31.4102H45.6074V42.168Z" fill="#635912"/>
<path d="M0.688477 39.9473L1.66554 23.2952L0.688477 6.72191L1.47394 6.79258C1.53434 6.79791 1.84115 6.82726 2.34421 6.91126V39.7579C1.84115 39.8419 1.53434 39.8726 1.47394 39.8766L0.688477 39.9473Z" fill="#EBEBEB"/>
<path d="M2.34473 39.7578V6.91117C3.17446 7.05117 4.54006 7.34181 6.22446 7.92181V15.2618H7.58433V8.42982C10.3761 9.55382 13.7771 11.4325 17.0266 14.5578H35.0646C37.6895 14.5578 39.8255 16.6791 39.8255 19.2858V27.3818C39.8255 29.9885 37.6895 32.1112 35.0646 32.1112H17.0266C13.7771 35.2365 10.3761 37.1152 7.58433 38.2392V31.4098H6.22446V38.7472C4.54006 39.3272 3.17446 39.6165 2.34473 39.7578Z" fill="#EAD32A"/>
<path d="M7.58448 15.2617H6.22461V7.92171C6.65794 8.07105 7.11261 8.24039 7.58448 8.42972V15.2617Z" fill="#5B5211"/>
<path d="M6.22461 38.748V31.4107H7.58448V38.24C7.11261 38.4294 6.65794 38.5987 6.22461 38.748Z" fill="#5B5211"/>
<path d="M1.41406 7.47051L2.34473 23.3358L1.41406 39.2012C1.41406 39.2012 9.55833 38.4772 16.7505 31.4318H35.0651C37.3171 31.4318 39.1453 29.6185 39.1453 27.3825V23.3358C39.1453 23.3358 39.1453 21.5238 39.1453 19.2878C39.1453 17.0518 37.3171 15.2385 35.0651 15.2385H16.7505C9.55833 8.19451 1.41406 7.47051 1.41406 7.47051Z" fill="#ACACAC"/>
<path d="M2.32913 23.5985L1.41406 39.2012C1.41406 39.2012 9.55833 38.4772 16.7505 31.4318H35.0651C37.3171 31.4318 39.1453 29.6185 39.1453 27.3825V23.5985H2.32913Z" fill="#D2D1D9"/>
<path d="M33.3827 23.3365C33.3827 25.4379 31.6771 27.1445 29.5739 27.1445C27.4714 27.1445 25.7656 25.4379 25.7656 23.3365C25.7656 21.2339 27.4714 19.5285 29.5739 19.5285C31.6771 19.5285 33.3827 21.2339 33.3827 23.3365Z" fill="#CCCCCC"/>
<path d="M31.4732 20.0538C31.7983 20.6152 31.9983 21.2579 31.9983 21.9512C31.9983 24.0552 30.2936 25.7605 28.1909 25.7605C27.4956 25.7605 26.8535 25.5605 26.292 25.2352C26.9503 26.3712 28.166 27.1445 29.5743 27.1445C31.6775 27.1445 33.3831 25.4379 33.3831 23.3365C33.3831 21.9285 32.6097 20.7138 31.4732 20.0538Z" fill="#787878"/>
<path d="M29.8856 21.9041C29.8856 22.7521 29.1981 23.4414 28.3487 23.4414C27.4987 23.4414 26.8105 22.7521 26.8105 21.9041C26.8105 21.0547 27.4987 20.3667 28.3487 20.3667C29.1981 20.3667 29.8856 21.0547 29.8856 21.9041Z" fill="#FAFAFA"/>
<path d="M15.6351 23.3365C15.6351 25.4379 13.931 27.1445 11.8269 27.1445C9.72367 27.1445 8.01953 25.4379 8.01953 23.3365C8.01953 21.2339 9.72367 19.5285 11.8269 19.5285C13.931 19.5285 15.6351 21.2339 15.6351 23.3365Z" fill="#CCCCCC"/>
<path d="M12.1291 21.9041C12.1291 22.7521 11.4416 23.4414 10.5922 23.4414C9.74269 23.4414 9.05469 22.7521 9.05469 21.9041C9.05469 21.0547 9.74269 20.3667 10.5922 20.3667C11.4416 20.3667 12.1291 21.0547 12.1291 21.9041Z" fill="#FAFAFA"/>
<path d="M13.7658 20.0538C14.0902 20.6152 14.2903 21.2579 14.2903 21.9512C14.2903 24.0552 12.5861 25.7605 10.482 25.7605C9.78718 25.7605 9.14438 25.5605 8.58398 25.2352C9.24292 26.3712 10.4585 27.1445 11.8662 27.1445C13.9694 27.1445 15.6736 25.4379 15.6736 23.3365C15.6736 21.9285 14.9017 20.7138 13.7658 20.0538Z" fill="#787878"/>
<path d="M0.482422 46.668H2.34442V0.00130486H0.482422V46.668Z" fill="#ACACAC"/>
<path d="M0 46.668H0.482265V0.00130486H0V46.668Z" fill="#D2D1D9"/>
</g>
<defs>
<clipPath id="clip0_4320_4221">
<rect width="605.925" height="46.6667" fill="white"/>
</clipPath>
</defs>
</svg>
