<svg width="737" height="72" viewBox="0 0 737 72" fill="none" xmlns="http://www.w3.org/2000/svg">
<g clip-path="url(#clip0_4320_5085)">
<path d="M2.34473 49.3242H605.925V11.6576H2.34473V49.3242Z" fill="#FEE52E"/>
<path d="M50.5322 16.9785H51.8921V11.6592H50.5322V16.9785Z" fill="#635912"/>
<path d="M55.4541 16.9785H56.8156V11.6592H55.4541V16.9785Z" fill="#635912"/>
<path d="M60.377 16.9785H61.7379V11.6592H60.377V16.9785Z" fill="#635912"/>
<path d="M70.3242 16.9785H71.6857V11.6592H70.3242V16.9785Z" fill="#635912"/>
<path d="M75.248 16.9785H76.6079V11.6592H75.248V16.9785Z" fill="#635912"/>
<path d="M80.1699 16.9785H81.5293V11.6592H80.1699V16.9785Z" fill="#635912"/>
<path d="M65.3008 21.0586H66.6602V11.6591H65.3008V21.0586Z" fill="#635912"/>
<path d="M84.9932 22.418H86.3531V11.6581H84.9932V22.418Z" fill="#635912"/>
<path d="M89.915 16.9785H91.2765V11.6592H89.915V16.9785Z" fill="#635912"/>
<path d="M94.8389 16.9785H96.1988V11.6592H94.8389V16.9785Z" fill="#635912"/>
<path d="M99.7617 16.9785H101.121V11.6592H99.7617V16.9785Z" fill="#635912"/>
<path d="M109.709 16.9785H111.069V11.6592H109.709V16.9785Z" fill="#635912"/>
<path d="M114.632 16.9785H115.993V11.6592H114.632V16.9785Z" fill="#635912"/>
<path d="M119.556 16.9785H120.915V11.6592H119.556V16.9785Z" fill="#635912"/>
<path d="M104.686 21.0586H106.045V11.6591H104.686V21.0586Z" fill="#635912"/>
<path d="M124.375 22.418H125.736V11.6581H124.375V22.418Z" fill="#635912"/>
<path d="M129.3 16.9785H130.66V11.6592H129.3V16.9785Z" fill="#635912"/>
<path d="M134.222 16.9785H135.583V11.6592H134.222V16.9785Z" fill="#635912"/>
<path d="M139.146 16.9785H140.507V11.6592H139.146V16.9785Z" fill="#635912"/>
<path d="M149.093 16.9785H150.454V11.6592H149.093V16.9785Z" fill="#635912"/>
<path d="M154.017 16.9785H155.375V11.6592H154.017V16.9785Z" fill="#635912"/>
<path d="M158.938 16.9785H160.298V11.6592H158.938V16.9785Z" fill="#635912"/>
<path d="M144.068 21.0586H145.428V11.6591H144.068V21.0586Z" fill="#635912"/>
<path d="M163.761 22.418H165.121V11.6581H163.761V22.418Z" fill="#635912"/>
<path d="M168.684 16.9785H170.045V11.6592H168.684V16.9785Z" fill="#635912"/>
<path d="M173.607 16.9785H174.966V11.6592H173.607V16.9785Z" fill="#635912"/>
<path d="M178.53 16.9785H179.89V11.6592H178.53V16.9785Z" fill="#635912"/>
<path d="M188.477 16.9785H189.837V11.6592H188.477V16.9785Z" fill="#635912"/>
<path d="M193.4 16.9785H194.759V11.6592H193.4V16.9785Z" fill="#635912"/>
<path d="M198.323 16.9785H199.682V11.6592H198.323V16.9785Z" fill="#635912"/>
<path d="M183.453 21.0586H184.813V11.6591H183.453V21.0586Z" fill="#635912"/>
<path d="M203.146 22.418H204.505V11.6581H203.146V22.418Z" fill="#635912"/>
<path d="M208.067 16.9785H209.429V11.6592H208.067V16.9785Z" fill="#635912"/>
<path d="M212.991 16.9785H214.351V11.6592H212.991V16.9785Z" fill="#635912"/>
<path d="M217.914 16.9785H219.274V11.6592H217.914V16.9785Z" fill="#635912"/>
<path d="M227.862 16.9785H229.221V11.6592H227.862V16.9785Z" fill="#635912"/>
<path d="M232.783 16.9785H234.145V11.6592H232.783V16.9785Z" fill="#635912"/>
<path d="M237.706 16.9785H239.066V11.6592H237.706V16.9785Z" fill="#635912"/>
<path d="M222.837 21.0586H224.198V11.6591H222.837V21.0586Z" fill="#635912"/>
<path d="M242.528 22.418H243.888V11.6581H242.528V22.418Z" fill="#635912"/>
<path d="M247.453 16.9785H248.813V11.6592H247.453V16.9785Z" fill="#635912"/>
<path d="M252.374 16.9785H253.735V11.6592H252.374V16.9785Z" fill="#635912"/>
<path d="M257.298 16.9785H258.658V11.6592H257.298V16.9785Z" fill="#635912"/>
<path d="M267.245 16.9785H268.605V11.6592H267.245V16.9785Z" fill="#635912"/>
<path d="M272.167 16.9785H273.527V11.6592H272.167V16.9785Z" fill="#635912"/>
<path d="M277.09 16.9785H278.451V11.6592H277.09V16.9785Z" fill="#635912"/>
<path d="M262.22 21.0586H263.583V11.6591H262.22V21.0586Z" fill="#635912"/>
<path d="M281.914 22.418H283.273V11.6581H281.914V22.418Z" fill="#635912"/>
<path d="M286.837 16.9785H288.198V11.6592H286.837V16.9785Z" fill="#635912"/>
<path d="M291.761 16.9785H293.119V11.6592H291.761V16.9785Z" fill="#635912"/>
<path d="M296.682 16.9785H298.043V11.6592H296.682V16.9785Z" fill="#635912"/>
<path d="M306.632 16.9785H307.991V11.6592H306.632V16.9785Z" fill="#635912"/>
<path d="M311.553 16.9785H312.914V11.6592H311.553V16.9785Z" fill="#635912"/>
<path d="M316.477 16.9785H317.837V11.6592H316.477V16.9785Z" fill="#635912"/>
<path d="M301.604 21.0586H302.964V11.6591H301.604V21.0586Z" fill="#635912"/>
<path d="M321.297 22.418H322.657V11.6581H321.297V22.418Z" fill="#635912"/>
<path d="M326.222 16.9785H327.581V11.6592H326.222V16.9785Z" fill="#635912"/>
<path d="M331.144 16.9785H332.507V11.6592H331.144V16.9785Z" fill="#635912"/>
<path d="M336.068 16.9785H337.427V11.6592H336.068V16.9785Z" fill="#635912"/>
<path d="M346.013 16.9785H347.373V11.6592H346.013V16.9785Z" fill="#635912"/>
<path d="M350.936 16.9785H352.294V11.6592H350.936V16.9785Z" fill="#635912"/>
<path d="M355.856 16.9785H357.219V11.6592H355.856V16.9785Z" fill="#635912"/>
<path d="M340.99 21.0586H342.349V11.6591H340.99V21.0586Z" fill="#635912"/>
<path d="M360.682 22.418H362.042V11.6581H360.682V22.418Z" fill="#635912"/>
<path d="M365.604 16.9785H366.966V11.6592H365.604V16.9785Z" fill="#635912"/>
<path d="M370.528 16.9785H371.888V11.6592H370.528V16.9785Z" fill="#635912"/>
<path d="M375.451 16.9785H376.81V11.6592H375.451V16.9785Z" fill="#635912"/>
<path d="M385.399 16.9785H386.758V11.6592H385.399V16.9785Z" fill="#635912"/>
<path d="M390.32 16.9785H391.682V11.6592H390.32V16.9785Z" fill="#635912"/>
<path d="M395.245 16.9785H396.605V11.6592H395.245V16.9785Z" fill="#635912"/>
<path d="M380.373 21.0586H381.733V11.6591H380.373V21.0586Z" fill="#635912"/>
<path d="M400.066 22.418H401.425V11.6581H400.066V22.418Z" fill="#635912"/>
<path d="M404.99 16.9785H406.349V11.6592H404.99V16.9785Z" fill="#635912"/>
<path d="M409.911 16.9785H411.274V11.6592H409.911V16.9785Z" fill="#635912"/>
<path d="M414.837 16.9785H416.195V11.6592H414.837V16.9785Z" fill="#635912"/>
<path d="M424.782 16.9785H426.141V11.6592H424.782V16.9785Z" fill="#635912"/>
<path d="M429.703 16.9785H431.066V11.6592H429.703V16.9785Z" fill="#635912"/>
<path d="M434.625 16.9785H435.988V11.6592H434.625V16.9785Z" fill="#635912"/>
<path d="M419.758 21.0586H421.118V11.6591H419.758V21.0586Z" fill="#635912"/>
<path d="M439.451 22.418H440.81V11.6581H439.451V22.418Z" fill="#635912"/>
<path d="M444.373 16.9785H445.734V11.6592H444.373V16.9785Z" fill="#635912"/>
<path d="M449.297 16.9785H450.657V11.6592H449.297V16.9785Z" fill="#635912"/>
<path d="M454.22 16.9785H455.579V11.6592H454.22V16.9785Z" fill="#635912"/>
<path d="M464.167 16.9785H465.526V11.6592H464.167V16.9785Z" fill="#635912"/>
<path d="M469.089 16.9785H470.452V11.6592H469.089V16.9785Z" fill="#635912"/>
<path d="M474.013 16.9785H475.373V11.6592H474.013V16.9785Z" fill="#635912"/>
<path d="M459.141 21.0586H460.501V11.6591H459.141V21.0586Z" fill="#635912"/>
<path d="M478.834 22.418H480.193V11.6581H478.834V22.418Z" fill="#635912"/>
<path d="M483.758 16.9785H485.118V11.6592H483.758V16.9785Z" fill="#635912"/>
<path d="M488.68 16.9785H490.042V11.6592H488.68V16.9785Z" fill="#635912"/>
<path d="M493.604 16.9785H494.963V11.6592H493.604V16.9785Z" fill="#635912"/>
<path d="M503.55 16.9785H504.909V11.6592H503.55V16.9785Z" fill="#635912"/>
<path d="M508.472 16.9785H509.834V11.6592H508.472V16.9785Z" fill="#635912"/>
<path d="M513.394 16.9785H514.754V11.6592H513.394V16.9785Z" fill="#635912"/>
<path d="M498.526 21.0586H499.886V11.6591H498.526V21.0586Z" fill="#635912"/>
<path d="M518.22 22.418H519.579V11.6581H518.22V22.418Z" fill="#635912"/>
<path d="M523.141 16.9785H524.504V11.6592H523.141V16.9785Z" fill="#635912"/>
<path d="M528.064 16.9785H529.425V11.6592H528.064V16.9785Z" fill="#635912"/>
<path d="M532.987 16.9785H534.346V11.6592H532.987V16.9785Z" fill="#635912"/>
<path d="M542.936 16.9785H544.294V11.6592H542.936V16.9785Z" fill="#635912"/>
<path d="M547.856 16.9785H549.216V11.6592H547.856V16.9785Z" fill="#635912"/>
<path d="M552.782 16.9785H554.141V11.6592H552.782V16.9785Z" fill="#635912"/>
<path d="M537.908 21.0586H539.268V11.6591H537.908V21.0586Z" fill="#635912"/>
<path d="M557.602 22.418H558.96V11.6581H557.602V22.418Z" fill="#635912"/>
<path d="M562.526 16.9785H563.886V11.6592H562.526V16.9785Z" fill="#635912"/>
<path d="M567.448 16.9785H568.809V11.6592H567.448V16.9785Z" fill="#635912"/>
<path d="M572.373 16.9785H573.733V11.6592H572.373V16.9785Z" fill="#635912"/>
<path d="M582.318 16.9785H583.678V11.6592H582.318V16.9785Z" fill="#635912"/>
<path d="M587.239 16.9785H588.602V11.6592H587.239V16.9785Z" fill="#635912"/>
<path d="M592.162 16.9785H593.524V11.6592H592.162V16.9785Z" fill="#635912"/>
<path d="M577.294 21.0586H578.654V11.6591H577.294V21.0586Z" fill="#635912"/>
<path d="M596.987 22.418H598.346V11.6581H596.987V22.418Z" fill="#635912"/>
<path d="M7.58448 15.5859C7.11261 15.3966 6.65794 15.2273 6.22461 15.0779V11.6579H7.58448V15.5859Z" fill="#635912"/>
<path d="M11.1465 16.9785H12.5079V11.6592H11.1465V16.9785Z" fill="#635912"/>
<path d="M16.0713 16.9785H17.4312V11.6592H16.0713V16.9785Z" fill="#635912"/>
<path d="M20.9932 16.9785H22.3525V11.6592H20.9932V16.9785Z" fill="#635912"/>
<path d="M30.9404 16.9785H32.3003V11.6592H30.9404V16.9785Z" fill="#635912"/>
<path d="M35.8633 16.9785H37.2247V11.6592H35.8633V16.9785Z" fill="#635912"/>
<path d="M40.7852 16.9785H42.1461V11.6592H40.7852V16.9785Z" fill="#635912"/>
<path d="M25.917 21.0586H27.2764V11.6591H25.917V21.0586Z" fill="#635912"/>
<path d="M45.6074 22.418H46.9689V11.6581H45.6074V22.418Z" fill="#635912"/>
<path d="M50.5322 49.3262H51.8921V49.3246H50.5322V49.3262Z" fill="#636363"/>
<path d="M50.5322 49.3242H51.8921V44.006H50.5322V49.3242Z" fill="#635912"/>
<path d="M55.4541 49.3262H56.8156V49.3246H55.4541V49.3262Z" fill="#636363"/>
<path d="M55.4541 49.3242H56.8156V44.006H55.4541V49.3242Z" fill="#635912"/>
<path d="M60.377 49.3262H61.7379V49.3246H60.377V49.3262Z" fill="#636363"/>
<path d="M60.377 49.3242H61.7379V44.006H60.377V49.3242Z" fill="#635912"/>
<path d="M70.3242 49.3262H71.6857V49.3246H70.3242V49.3262Z" fill="#636363"/>
<path d="M70.3242 49.3242H71.6857V44.006H70.3242V49.3242Z" fill="#635912"/>
<path d="M75.248 49.3262H76.6079V49.3246H75.248V49.3262Z" fill="#636363"/>
<path d="M75.248 49.3242H76.6079V44.006H75.248V49.3242Z" fill="#635912"/>
<path d="M80.1699 49.3262H81.5293V49.3246H80.1699V49.3262Z" fill="#636363"/>
<path d="M80.1699 49.3242H81.5293V44.006H80.1699V49.3242Z" fill="#635912"/>
<path d="M65.3008 49.3262H66.6602V49.3246H65.3008V49.3262Z" fill="#636363"/>
<path d="M65.3008 49.3242H66.6602V39.9253H65.3008V49.3242Z" fill="#635912"/>
<path d="M84.9932 49.3262H86.3531V49.3246H84.9932V49.3262Z" fill="#636363"/>
<path d="M84.9932 49.3242H86.3531V38.5664H84.9932V49.3242Z" fill="#635912"/>
<path d="M89.915 49.3262H91.2765V49.3246H89.915V49.3262Z" fill="#636363"/>
<path d="M89.915 49.3242H91.2765V44.006H89.915V49.3242Z" fill="#635912"/>
<path d="M94.8389 49.3262H96.1988V49.3246H94.8389V49.3262Z" fill="#636363"/>
<path d="M94.8389 49.3242H96.1988V44.006H94.8389V49.3242Z" fill="#635912"/>
<path d="M99.7617 49.3262H101.121V49.3246H99.7617V49.3262Z" fill="#636363"/>
<path d="M99.7617 49.3242H101.121V44.006H99.7617V49.3242Z" fill="#635912"/>
<path d="M109.709 49.3262H111.069V49.3246H109.709V49.3262Z" fill="#636363"/>
<path d="M109.709 49.3242H111.069V44.006H109.709V49.3242Z" fill="#635912"/>
<path d="M114.632 49.3262H115.993V49.3246H114.632V49.3262Z" fill="#636363"/>
<path d="M114.632 49.3242H115.993V44.006H114.632V49.3242Z" fill="#635912"/>
<path d="M119.556 49.3262H120.915V49.3246H119.556V49.3262Z" fill="#636363"/>
<path d="M119.556 49.3242H120.915V44.006H119.556V49.3242Z" fill="#635912"/>
<path d="M104.686 49.3262H106.045V49.3246H104.686V49.3262Z" fill="#636363"/>
<path d="M104.686 49.3242H106.045V39.9253H104.686V49.3242Z" fill="#635912"/>
<path d="M124.375 49.3262H125.736V49.3246H124.375V49.3262Z" fill="#636363"/>
<path d="M124.375 49.3242H125.736V38.5664H124.375V49.3242Z" fill="#635912"/>
<path d="M129.3 49.3262H130.66V49.3246H129.3V49.3262Z" fill="#636363"/>
<path d="M129.3 49.3242H130.66V44.006H129.3V49.3242Z" fill="#635912"/>
<path d="M134.222 49.3262H135.583V49.3246H134.222V49.3262Z" fill="#636363"/>
<path d="M134.222 49.3242H135.583V44.006H134.222V49.3242Z" fill="#635912"/>
<path d="M139.146 49.3262H140.507V49.3246H139.146V49.3262Z" fill="#636363"/>
<path d="M139.146 49.3242H140.507V44.006H139.146V49.3242Z" fill="#635912"/>
<path d="M149.093 49.3262H150.454V49.3246H149.093V49.3262Z" fill="#636363"/>
<path d="M149.093 49.3242H150.454V44.006H149.093V49.3242Z" fill="#635912"/>
<path d="M154.017 49.3262H155.375V49.3246H154.017V49.3262Z" fill="#636363"/>
<path d="M154.017 49.3242H155.375V44.006H154.017V49.3242Z" fill="#635912"/>
<path d="M158.938 49.3262H160.298V49.3246H158.938V49.3262Z" fill="#636363"/>
<path d="M158.938 49.3242H160.298V44.006H158.938V49.3242Z" fill="#635912"/>
<path d="M144.068 49.3262H145.428V49.3246H144.068V49.3262Z" fill="#636363"/>
<path d="M144.068 49.3242H145.428V39.9253H144.068V49.3242Z" fill="#635912"/>
<path d="M163.761 49.3262H165.121V49.3246H163.761V49.3262Z" fill="#636363"/>
<path d="M163.761 49.3242H165.121V38.5664H163.761V49.3242Z" fill="#635912"/>
<path d="M168.684 49.3262H170.045V49.3246H168.684V49.3262Z" fill="#636363"/>
<path d="M168.684 49.3242H170.045V44.006H168.684V49.3242Z" fill="#635912"/>
<path d="M173.607 49.3262H174.966V49.3246H173.607V49.3262Z" fill="#636363"/>
<path d="M173.607 49.3242H174.966V44.006H173.607V49.3242Z" fill="#635912"/>
<path d="M178.53 49.3262H179.89V49.3246H178.53V49.3262Z" fill="#636363"/>
<path d="M178.53 49.3242H179.89V44.006H178.53V49.3242Z" fill="#635912"/>
<path d="M188.477 49.3262H189.837V49.3246H188.477V49.3262Z" fill="#636363"/>
<path d="M188.477 49.3242H189.837V44.006H188.477V49.3242Z" fill="#635912"/>
<path d="M193.4 49.3262H194.759V49.3246H193.4V49.3262Z" fill="#636363"/>
<path d="M193.4 49.3242H194.759V44.006H193.4V49.3242Z" fill="#635912"/>
<path d="M198.323 49.3262H199.682V49.3246H198.323V49.3262Z" fill="#636363"/>
<path d="M198.323 49.3242H199.682V44.006H198.323V49.3242Z" fill="#635912"/>
<path d="M183.453 49.3262H184.813V49.3246H183.453V49.3262Z" fill="#636363"/>
<path d="M183.453 49.3242H184.813V39.9253H183.453V49.3242Z" fill="#635912"/>
<path d="M203.146 49.3262H204.505V49.3246H203.146V49.3262Z" fill="#636363"/>
<path d="M203.146 49.3242H204.505V38.5664H203.146V49.3242Z" fill="#635912"/>
<path d="M208.067 49.3262H209.429V49.3246H208.067V49.3262Z" fill="#636363"/>
<path d="M208.067 49.3242H209.429V44.006H208.067V49.3242Z" fill="#635912"/>
<path d="M212.991 49.3262H214.351V49.3246H212.991V49.3262Z" fill="#636363"/>
<path d="M212.991 49.3242H214.351V44.006H212.991V49.3242Z" fill="#635912"/>
<path d="M217.914 49.3262H219.274V49.3246H217.914V49.3262Z" fill="#636363"/>
<path d="M217.914 49.3242H219.274V44.006H217.914V49.3242Z" fill="#635912"/>
<path d="M227.862 49.3262H229.221V49.3246H227.862V49.3262Z" fill="#636363"/>
<path d="M227.862 49.3242H229.221V44.006H227.862V49.3242Z" fill="#635912"/>
<path d="M232.783 49.3262H234.145V49.3246H232.783V49.3262Z" fill="#636363"/>
<path d="M232.783 49.3242H234.145V44.006H232.783V49.3242Z" fill="#635912"/>
<path d="M237.706 49.3262H239.066V49.3246H237.706V49.3262Z" fill="#636363"/>
<path d="M237.706 49.3242H239.066V44.006H237.706V49.3242Z" fill="#635912"/>
<path d="M222.837 49.3262H224.198V49.3246H222.837V49.3262Z" fill="#636363"/>
<path d="M222.837 49.3242H224.198V39.9253H222.837V49.3242Z" fill="#635912"/>
<path d="M242.528 49.3262H243.888V49.3246H242.528V49.3262Z" fill="#636363"/>
<path d="M242.528 49.3242H243.888V38.5664H242.528V49.3242Z" fill="#635912"/>
<path d="M247.453 49.3262H248.813V49.3246H247.453V49.3262Z" fill="#636363"/>
<path d="M247.453 49.3242H248.813V44.006H247.453V49.3242Z" fill="#635912"/>
<path d="M252.374 49.3262H253.735V49.3246H252.374V49.3262Z" fill="#636363"/>
<path d="M252.374 49.3242H253.735V44.006H252.374V49.3242Z" fill="#635912"/>
<path d="M257.298 49.3262H258.658V49.3246H257.298V49.3262Z" fill="#636363"/>
<path d="M257.298 49.3242H258.658V44.006H257.298V49.3242Z" fill="#635912"/>
<path d="M267.245 49.3262H268.605V49.3246H267.245V49.3262Z" fill="#636363"/>
<path d="M267.245 49.3242H268.605V44.006H267.245V49.3242Z" fill="#635912"/>
<path d="M272.167 49.3262H273.527V49.3246H272.167V49.3262Z" fill="#636363"/>
<path d="M272.167 49.3242H273.527V44.006H272.167V49.3242Z" fill="#635912"/>
<path d="M277.09 49.3262H278.451V49.3246H277.09V49.3262Z" fill="#636363"/>
<path d="M277.09 49.3242H278.451V44.006H277.09V49.3242Z" fill="#635912"/>
<path d="M262.22 49.3262H263.583V49.3246H262.22V49.3262Z" fill="#636363"/>
<path d="M262.22 49.3242H263.583V39.9253H262.22V49.3242Z" fill="#635912"/>
<path d="M281.914 49.3262H283.273V49.3246H281.914V49.3262Z" fill="#636363"/>
<path d="M281.914 49.3242H283.273V38.5664H281.914V49.3242Z" fill="#635912"/>
<path d="M286.837 49.3262H288.198V49.3246H286.837V49.3262Z" fill="#636363"/>
<path d="M286.837 49.3242H288.198V44.006H286.837V49.3242Z" fill="#635912"/>
<path d="M291.761 49.3262H293.119V49.3246H291.761V49.3262Z" fill="#636363"/>
<path d="M291.761 49.3242H293.119V44.006H291.761V49.3242Z" fill="#635912"/>
<path d="M296.682 49.3262H298.043V49.3246H296.682V49.3262Z" fill="#636363"/>
<path d="M296.682 49.3242H298.043V44.006H296.682V49.3242Z" fill="#635912"/>
<path d="M306.632 49.3262H307.991V49.3246H306.632V49.3262Z" fill="#636363"/>
<path d="M306.632 49.3242H307.991V44.006H306.632V49.3242Z" fill="#635912"/>
<path d="M311.553 49.3262H312.914V49.3246H311.553V49.3262Z" fill="#636363"/>
<path d="M311.553 49.3242H312.914V44.006H311.553V49.3242Z" fill="#635912"/>
<path d="M316.477 49.3262H317.837V49.3246H316.477V49.3262Z" fill="#636363"/>
<path d="M316.477 49.3242H317.837V44.006H316.477V49.3242Z" fill="#635912"/>
<path d="M301.604 49.3262H302.964V49.3246H301.604V49.3262Z" fill="#636363"/>
<path d="M301.604 49.3242H302.964V39.9253H301.604V49.3242Z" fill="#635912"/>
<path d="M321.297 49.3262H322.657V49.3246H321.297V49.3262Z" fill="#636363"/>
<path d="M321.297 49.3242H322.657V38.5664H321.297V49.3242Z" fill="#635912"/>
<path d="M326.222 49.3262H327.581V49.3246H326.222V49.3262Z" fill="#636363"/>
<path d="M326.222 49.3242H327.581V44.006H326.222V49.3242Z" fill="#635912"/>
<path d="M331.144 49.3262H332.507V49.3246H331.144V49.3262Z" fill="#636363"/>
<path d="M331.144 49.3242H332.507V44.006H331.144V49.3242Z" fill="#635912"/>
<path d="M336.068 49.3262H337.427V49.3246H336.068V49.3262Z" fill="#636363"/>
<path d="M336.068 49.3242H337.427V44.006H336.068V49.3242Z" fill="#635912"/>
<path d="M346.013 49.3262H347.373V49.3246H346.013V49.3262Z" fill="#636363"/>
<path d="M346.013 49.3242H347.373V44.006H346.013V49.3242Z" fill="#635912"/>
<path d="M350.936 49.3262H352.294V49.3246H350.936V49.3262Z" fill="#636363"/>
<path d="M350.936 49.3242H352.294V44.006H350.936V49.3242Z" fill="#635912"/>
<path d="M355.856 49.3262H357.219V49.3246H355.856V49.3262Z" fill="#636363"/>
<path d="M355.856 49.3242H357.219V44.006H355.856V49.3242Z" fill="#635912"/>
<path d="M340.99 49.3262H342.349V49.3246H340.99V49.3262Z" fill="#636363"/>
<path d="M340.99 49.3242H342.349V39.9253H340.99V49.3242Z" fill="#635912"/>
<path d="M360.682 49.3262H362.042V49.3246H360.682V49.3262Z" fill="#636363"/>
<path d="M360.682 49.3242H362.042V38.5664H360.682V49.3242Z" fill="#635912"/>
<path d="M365.604 49.3262H366.966V49.3246H365.604V49.3262Z" fill="#636363"/>
<path d="M365.604 49.3242H366.966V44.006H365.604V49.3242Z" fill="#635912"/>
<path d="M370.528 49.3262H371.888V49.3246H370.528V49.3262Z" fill="#636363"/>
<path d="M370.528 49.3242H371.888V44.006H370.528V49.3242Z" fill="#635912"/>
<path d="M375.451 49.3262H376.81V49.3246H375.451V49.3262Z" fill="#636363"/>
<path d="M375.451 49.3242H376.81V44.006H375.451V49.3242Z" fill="#635912"/>
<path d="M385.399 49.3262H386.758V49.3246H385.399V49.3262Z" fill="#636363"/>
<path d="M385.399 49.3242H386.758V44.006H385.399V49.3242Z" fill="#635912"/>
<path d="M390.32 49.3262H391.682V49.3246H390.32V49.3262Z" fill="#636363"/>
<path d="M390.32 49.3242H391.682V44.006H390.32V49.3242Z" fill="#635912"/>
<path d="M395.245 49.3262H396.605V49.3246H395.245V49.3262Z" fill="#636363"/>
<path d="M395.245 49.3242H396.605V44.006H395.245V49.3242Z" fill="#635912"/>
<path d="M380.373 49.3262H381.733V49.3246H380.373V49.3262Z" fill="#636363"/>
<path d="M380.373 49.3242H381.733V39.9253H380.373V49.3242Z" fill="#635912"/>
<path d="M400.066 49.3262H401.425V49.3246H400.066V49.3262Z" fill="#636363"/>
<path d="M400.066 49.3242H401.425V38.5664H400.066V49.3242Z" fill="#635912"/>
<path d="M404.99 49.3262H406.349V49.3246H404.99V49.3262Z" fill="#636363"/>
<path d="M404.99 49.3242H406.349V44.006H404.99V49.3242Z" fill="#635912"/>
<path d="M409.911 49.3262H411.274V49.3246H409.911V49.3262Z" fill="#636363"/>
<path d="M409.911 49.3242H411.274V44.006H409.911V49.3242Z" fill="#635912"/>
<path d="M414.837 49.3262H416.195V49.3246H414.837V49.3262Z" fill="#636363"/>
<path d="M414.837 49.3242H416.195V44.006H414.837V49.3242Z" fill="#635912"/>
<path d="M424.782 49.3262H426.141V49.3246H424.782V49.3262Z" fill="#636363"/>
<path d="M424.782 49.3242H426.141V44.006H424.782V49.3242Z" fill="#635912"/>
<path d="M429.703 49.3262H431.066V49.3246H429.703V49.3262Z" fill="#636363"/>
<path d="M429.703 49.3242H431.066V44.006H429.703V49.3242Z" fill="#635912"/>
<path d="M434.625 49.3262H435.988V49.3246H434.625V49.3262Z" fill="#636363"/>
<path d="M434.625 49.3242H435.988V44.006H434.625V49.3242Z" fill="#635912"/>
<path d="M419.758 49.3262H421.118V49.3246H419.758V49.3262Z" fill="#636363"/>
<path d="M419.758 49.3242H421.118V39.9253H419.758V49.3242Z" fill="#635912"/>
<path d="M439.451 49.3262H440.81V49.3246H439.451V49.3262Z" fill="#636363"/>
<path d="M439.451 49.3242H440.81V38.5664H439.451V49.3242Z" fill="#635912"/>
<path d="M444.373 49.3262H445.734V49.3246H444.373V49.3262Z" fill="#636363"/>
<path d="M444.373 49.3242H445.734V44.006H444.373V49.3242Z" fill="#635912"/>
<path d="M449.297 49.3262H450.657V49.3246H449.297V49.3262Z" fill="#636363"/>
<path d="M449.297 49.3242H450.657V44.006H449.297V49.3242Z" fill="#635912"/>
<path d="M454.22 49.3262H455.579V49.3246H454.22V49.3262Z" fill="#636363"/>
<path d="M454.22 49.3242H455.579V44.006H454.22V49.3242Z" fill="#635912"/>
<path d="M464.167 49.3262H465.526V49.3246H464.167V49.3262Z" fill="#636363"/>
<path d="M464.167 49.3242H465.526V44.006H464.167V49.3242Z" fill="#635912"/>
<path d="M469.089 49.3262H470.452V49.3246H469.089V49.3262Z" fill="#636363"/>
<path d="M469.089 49.3242H470.452V44.006H469.089V49.3242Z" fill="#635912"/>
<path d="M474.013 49.3262H475.373V49.3246H474.013V49.3262Z" fill="#636363"/>
<path d="M474.013 49.3242H475.373V44.006H474.013V49.3242Z" fill="#635912"/>
<path d="M459.141 49.3262H460.501V49.3246H459.141V49.3262Z" fill="#636363"/>
<path d="M459.141 49.3242H460.501V39.9253H459.141V49.3242Z" fill="#635912"/>
<path d="M478.834 49.3262H480.193V49.3246H478.834V49.3262Z" fill="#636363"/>
<path d="M478.834 49.3242H480.193V38.5664H478.834V49.3242Z" fill="#635912"/>
<path d="M483.758 49.3262H485.118V49.3246H483.758V49.3262Z" fill="#636363"/>
<path d="M483.758 49.3242H485.118V44.006H483.758V49.3242Z" fill="#635912"/>
<path d="M488.68 49.3262H490.042V49.3246H488.68V49.3262Z" fill="#636363"/>
<path d="M488.68 49.3242H490.042V44.006H488.68V49.3242Z" fill="#635912"/>
<path d="M493.604 49.3262H494.963V49.3246H493.604V49.3262Z" fill="#636363"/>
<path d="M493.604 49.3242H494.963V44.006H493.604V49.3242Z" fill="#635912"/>
<path d="M503.55 49.3262H504.909V49.3246H503.55V49.3262Z" fill="#636363"/>
<path d="M503.55 49.3242H504.909V44.006H503.55V49.3242Z" fill="#635912"/>
<path d="M508.472 49.3262H509.834V49.3246H508.472V49.3262Z" fill="#636363"/>
<path d="M508.472 49.3242H509.834V44.006H508.472V49.3242Z" fill="#635912"/>
<path d="M513.394 49.3262H514.754V49.3246H513.394V49.3262Z" fill="#636363"/>
<path d="M513.394 49.3242H514.754V44.006H513.394V49.3242Z" fill="#635912"/>
<path d="M498.526 49.3262H499.886V49.3246H498.526V49.3262Z" fill="#636363"/>
<path d="M498.526 49.3242H499.886V39.9253H498.526V49.3242Z" fill="#635912"/>
<path d="M518.22 49.3262H519.579V49.3246H518.22V49.3262Z" fill="#636363"/>
<path d="M518.22 49.3242H519.579V38.5664H518.22V49.3242Z" fill="#635912"/>
<path d="M523.141 49.3262H524.504V49.3246H523.141V49.3262Z" fill="#636363"/>
<path d="M523.141 49.3242H524.504V44.006H523.141V49.3242Z" fill="#635912"/>
<path d="M528.064 49.3262H529.425V49.3246H528.064V49.3262Z" fill="#636363"/>
<path d="M528.064 49.3242H529.425V44.006H528.064V49.3242Z" fill="#635912"/>
<path d="M532.987 49.3262H534.346V49.3246H532.987V49.3262Z" fill="#636363"/>
<path d="M532.987 49.3242H534.346V44.006H532.987V49.3242Z" fill="#635912"/>
<path d="M542.936 49.3262H544.294V49.3246H542.936V49.3262Z" fill="#636363"/>
<path d="M542.936 49.3242H544.294V44.006H542.936V49.3242Z" fill="#635912"/>
<path d="M547.856 49.3262H549.216V49.3246H547.856V49.3262Z" fill="#636363"/>
<path d="M547.856 49.3242H549.216V44.006H547.856V49.3242Z" fill="#635912"/>
<path d="M552.782 49.3262H554.141V49.3246H552.782V49.3262Z" fill="#636363"/>
<path d="M552.782 49.3242H554.141V44.006H552.782V49.3242Z" fill="#635912"/>
<path d="M537.908 49.3262H539.268V49.3246H537.908V49.3262Z" fill="#636363"/>
<path d="M537.908 49.3242H539.268V39.9253H537.908V49.3242Z" fill="#635912"/>
<path d="M557.602 49.3262H558.96V49.3246H557.602V49.3262Z" fill="#636363"/>
<path d="M557.602 49.3242H558.96V38.5664H557.602V49.3242Z" fill="#635912"/>
<path d="M562.526 49.3262H563.886V49.3246H562.526V49.3262Z" fill="#636363"/>
<path d="M562.526 49.3242H563.886V44.006H562.526V49.3242Z" fill="#635912"/>
<path d="M567.448 49.3262H568.809V49.3246H567.448V49.3262Z" fill="#636363"/>
<path d="M567.448 49.3242H568.809V44.006H567.448V49.3242Z" fill="#635912"/>
<path d="M572.373 49.3262H573.733V49.3246H572.373V49.3262Z" fill="#636363"/>
<path d="M572.373 49.3242H573.733V44.006H572.373V49.3242Z" fill="#635912"/>
<path d="M582.318 49.3262H583.678V49.3246H582.318V49.3262Z" fill="#636363"/>
<path d="M582.318 49.3242H583.678V44.006H582.318V49.3242Z" fill="#635912"/>
<path d="M587.239 49.3262H588.602V49.3246H587.239V49.3262Z" fill="#636363"/>
<path d="M587.239 49.3242H588.602V44.006H587.239V49.3242Z" fill="#635912"/>
<path d="M592.162 49.3262H593.524V49.3246H592.162V49.3262Z" fill="#636363"/>
<path d="M592.162 49.3242H593.524V44.006H592.162V49.3242Z" fill="#635912"/>
<path d="M577.294 49.3262H578.654V49.3246H577.294V49.3262Z" fill="#636363"/>
<path d="M577.294 49.3242H578.654V39.9253H577.294V49.3242Z" fill="#635912"/>
<path d="M596.987 49.3262H598.346V49.3246H596.987V49.3262Z" fill="#636363"/>
<path d="M596.987 49.3242H598.346V38.5664H596.987V49.3242Z" fill="#635912"/>
<path d="M6.22461 49.3262H7.5845V49.3246H6.22461V49.3262Z" fill="#636363"/>
<path d="M7.58448 49.3242H6.22461V45.9029C6.65794 45.7536 7.11261 45.5842 7.58448 45.3949V49.3242Z" fill="#635912"/>
<path d="M11.1465 49.3262H12.5079V49.3246H11.1465V49.3262Z" fill="#636363"/>
<path d="M11.1465 49.3242H12.5079V44.006H11.1465V49.3242Z" fill="#635912"/>
<path d="M16.0713 49.3262H17.4312V49.3246H16.0713V49.3262Z" fill="#636363"/>
<path d="M16.0713 49.3242H17.4312V44.006H16.0713V49.3242Z" fill="#635912"/>
<path d="M20.9932 49.3262H22.3525V49.3246H20.9932V49.3262Z" fill="#636363"/>
<path d="M20.9932 49.3242H22.3525V44.006H20.9932V49.3242Z" fill="#635912"/>
<path d="M30.9404 49.3262H32.3003V49.3246H30.9404V49.3262Z" fill="#636363"/>
<path d="M30.9404 49.3242H32.3003V44.006H30.9404V49.3242Z" fill="#635912"/>
<path d="M35.8633 49.3262H37.2247V49.3246H35.8633V49.3262Z" fill="#636363"/>
<path d="M35.8633 49.3242H37.2247V44.006H35.8633V49.3242Z" fill="#635912"/>
<path d="M40.7852 49.3262H42.1461V49.3246H40.7852V49.3262Z" fill="#636363"/>
<path d="M40.7852 49.3242H42.1461V44.006H40.7852V49.3242Z" fill="#635912"/>
<path d="M25.917 49.3262H27.2764V49.3246H25.917V49.3262Z" fill="#636363"/>
<path d="M25.917 49.3242H27.2764V39.9253H25.917V49.3242Z" fill="#635912"/>
<path d="M45.6074 49.3262H46.9689V49.3246H45.6074V49.3262Z" fill="#636363"/>
<path d="M45.6074 49.3242H46.9689V38.5664H45.6074V49.3242Z" fill="#635912"/>
<path d="M47.2811 27.0965V34.8965H46.2071V28.2565L44.7451 29.1445V27.9738L46.2071 27.0965H47.2811Z" fill="black"/>
<path d="M83.5191 27.5433C83.9961 27.1193 84.6352 26.9354 85.2623 26.9354C85.9675 26.9354 86.6169 27.1847 87.0617 27.694C87.4956 28.1487 87.7336 28.7553 87.7336 29.3847C87.7336 30.294 87.3221 30.858 86.5529 31.594L84.2879 33.89H87.6576V34.8887H82.6748V33.89L85.9571 30.706C86.4551 30.2287 86.6497 29.7847 86.6497 29.3727C86.6497 29.006 86.5092 28.6473 86.2701 28.3873C85.9997 28.0953 85.6321 27.9327 85.2087 27.9327C84.8404 27.9327 84.4945 28.0847 84.2445 28.322C83.9628 28.582 83.7899 28.962 83.7899 29.3727H82.7175C82.7071 28.67 83.0201 27.998 83.5191 27.5433Z" fill="black"/>
<path d="M127.543 32.4923C127.532 33.2497 127.24 33.9763 126.666 34.4537C126.19 34.8537 125.571 35.0603 124.975 35.0483C124.37 35.0603 123.751 34.8537 123.275 34.4537C122.896 34.1497 122.624 33.727 122.484 33.2617L123.492 32.9803C123.59 33.2723 123.74 33.5217 123.968 33.7057C124.25 33.9337 124.596 34.0523 124.964 34.0523C125.334 34.0403 125.691 33.9217 125.962 33.6937C126.319 33.3923 126.471 32.947 126.471 32.4923C126.471 32.0377 126.33 31.6044 125.995 31.3004C125.711 31.0404 125.344 30.9203 124.955 30.9203C124.704 30.9203 124.412 31.0083 124.184 31.127L123.687 30.2923L126.015 28.0937H122.787V27.0963H127.435V28.1257L125.41 30.043C126.026 30.0977 126.558 30.3577 126.948 30.7697C127.371 31.235 127.554 31.863 127.543 32.4923Z" fill="black"/>
<path d="M166.298 32.5032V33.5005H165.507V34.8965H164.446V33.5005H161.013V32.5032L163.567 27.0965H164.663L162.105 32.5032H164.446V30.3578H165.507V32.5032H166.298Z" fill="black"/>
<path d="M206.218 27.0965V28.0938H203.045L202.915 30.3578C203.315 30.0551 203.815 29.8804 204.313 29.8804C204.93 29.8804 205.558 30.1085 206.025 30.5205C206.577 31.0178 206.87 31.7005 206.847 32.4378C206.837 33.1418 206.543 33.8245 206.057 34.3018C205.569 34.7791 204.886 35.0604 204.182 35.0484C203.511 35.0604 202.839 34.7885 202.363 34.3325C202.015 34.0191 201.755 33.5858 201.626 33.1205L202.634 32.8498C202.709 33.1418 202.873 33.4125 203.09 33.6191C203.381 33.8778 203.77 34.0404 204.182 34.0404C204.615 34.0404 205.017 33.8685 205.319 33.5858C205.613 33.2925 205.797 32.8831 205.797 32.4378C205.797 31.9938 205.602 31.5605 205.277 31.2671C204.985 30.9978 204.595 30.8458 204.182 30.8458C203.793 30.8458 203.425 30.9858 203.131 31.2351C203.002 31.3551 202.893 31.4951 202.807 31.6365L201.874 31.1058L202.113 27.0965H206.218Z" fill="black"/>
<path d="M244.933 33.0458C245.085 32.6991 245.096 32.3085 244.965 31.9391C244.824 31.5605 244.542 31.2565 244.197 31.0951C243.838 30.9325 243.437 30.9111 243.058 31.0511C242.669 31.1818 242.365 31.4738 242.204 31.8311C242.052 32.1778 242.041 32.5791 242.17 32.9471C242.301 33.3045 242.572 33.6071 242.906 33.7591C243.254 33.9445 243.676 33.9765 244.066 33.8365C244.468 33.7165 244.769 33.4125 244.933 33.0458ZM245.008 28.6245C244.694 28.2018 244.197 27.9311 243.665 27.9311C243.092 27.9311 242.561 28.2338 242.29 28.6898C242.052 29.0138 241.965 29.3938 241.965 29.8271V30.6511C242.397 30.1738 243.026 29.8805 243.698 29.8805C244.337 29.8805 244.977 30.1298 245.453 30.5631C245.974 31.0618 246.245 31.7005 246.233 32.4485C246.222 33.1418 245.93 33.8138 245.442 34.2898C244.965 34.7791 244.272 35.0605 243.556 35.0485C242.853 35.0605 242.15 34.7671 241.661 34.2591C241.076 33.6725 240.892 33.0018 240.892 32.1658V29.8271C240.892 29.0138 241.086 28.3645 241.606 27.7898C242.15 27.1951 242.885 26.9231 243.665 26.9445C244.498 26.9338 245.258 27.2818 245.778 27.9085L245.008 28.6245Z" fill="black"/>
<path d="M284.437 28.1045H280.873V27.0965H285.509V28.1045L282.736 34.8965H281.664L284.437 28.1045Z" fill="black"/>
<path d="M321.493 29.9352C321.73 30.1419 322.075 30.2272 322.425 30.2272C322.771 30.2272 323.118 30.1419 323.357 29.9352C323.583 29.7406 323.703 29.4259 323.693 29.0899C323.693 28.7432 323.583 28.4392 323.346 28.2339C323.118 28.0286 322.771 27.9419 322.425 27.9419C322.075 27.9419 321.739 28.0286 321.503 28.2339C321.253 28.4392 321.157 28.7432 321.157 29.0899C321.146 29.4259 321.253 29.7406 321.493 29.9352ZM323.899 32.6539C323.899 32.2539 323.779 31.8632 323.498 31.6152C323.227 31.3552 322.826 31.2352 322.425 31.2352C322.023 31.2352 321.623 31.3552 321.342 31.6152C321.07 31.8632 320.951 32.2539 320.951 32.6539C320.951 33.0459 321.07 33.4352 321.342 33.6832C321.623 33.9445 322.023 34.0619 322.425 34.0619C322.826 34.0619 323.227 33.9445 323.498 33.6832C323.779 33.4352 323.899 33.0459 323.899 32.6539ZM320.81 27.4326C321.277 27.0646 321.859 26.9339 322.425 26.9339C322.998 26.9339 323.594 27.0752 324.039 27.4326C324.547 27.8232 324.807 28.4499 324.807 29.0899C324.807 29.4912 324.687 29.9139 324.417 30.2605C324.307 30.4339 324.167 30.5739 324.006 30.7152C324.255 30.8885 324.461 31.1166 324.613 31.3659C324.894 31.7446 325.003 32.2219 325.003 32.6539C324.99 33.3379 324.753 34.0085 324.211 34.4539C323.725 34.8872 323.053 35.0605 322.425 35.0605C321.785 35.0605 321.113 34.8752 320.635 34.4539C320.105 34.0085 319.845 33.3272 319.845 32.6539C319.845 32.2219 319.954 31.7446 320.235 31.3659C320.386 31.1166 320.594 30.8885 320.842 30.7152C320.679 30.5739 320.539 30.4339 320.419 30.2605C320.162 29.9139 320.042 29.4912 320.042 29.0899C320.063 28.4085 320.29 27.8326 320.81 27.4326Z" fill="black"/>
<path d="M359.607 28.9496C359.456 29.2949 359.443 29.6962 359.572 30.0549C359.703 30.4442 359.998 30.7469 360.344 30.9109C360.7 31.0616 361.102 31.0829 361.471 30.9536C361.862 30.8229 362.175 30.5309 362.336 30.1616C362.49 29.8269 362.5 29.4149 362.37 29.0589C362.239 28.6896 361.958 28.3962 361.632 28.2442C361.284 28.0616 360.862 28.0282 360.474 28.1589C360.072 28.2882 359.771 28.5802 359.607 28.9496ZM359.531 33.3802C359.834 33.8029 360.334 34.0616 360.872 34.0616C361.448 34.0616 361.979 33.7696 362.25 33.3043C362.49 32.9896 362.575 32.6109 362.575 32.1776V31.3549C362.143 31.8309 361.512 32.1229 360.842 32.1229C360.203 32.1229 359.563 31.8736 359.088 31.4416C358.558 30.9322 358.296 30.3042 358.307 29.5562C358.318 28.8629 358.61 28.1802 359.088 27.7136C359.572 27.2269 360.268 26.9442 360.971 26.9562C361.687 26.9442 362.391 27.2269 362.878 27.7363C363.463 28.3203 363.646 29.0043 363.646 29.8376V32.1776C363.646 32.9896 363.454 33.6416 362.922 34.2029C362.391 34.7989 361.654 35.0709 360.872 35.0602C360.039 35.0709 359.282 34.7242 358.76 34.0842L359.531 33.3802Z" fill="black"/>
<path d="M397.058 27.0965V34.8965H395.985V28.2565L394.523 29.1445V27.9738L395.985 27.0965H397.058Z" fill="#FF2828"/>
<path d="M401.993 27.9315C401.441 27.9315 400.922 28.2342 400.638 28.6902C400.444 28.9808 400.392 29.3182 400.392 29.7302V32.2542C400.392 32.6328 400.433 33.0022 400.652 33.3275C400.944 33.7702 401.441 34.0622 401.993 34.0528C402.545 34.0622 403.056 33.7702 403.346 33.3155C403.553 33.0142 403.597 32.6875 403.597 32.2542V29.7302C403.597 29.3288 403.564 29.0262 403.357 28.6902C403.076 28.2342 402.545 27.9315 401.993 27.9315ZM401.993 35.0488C401.225 35.0488 400.464 34.7568 399.966 34.1835C399.48 33.6075 399.318 33.0342 399.318 32.2542V29.7302C399.318 28.9502 399.48 28.3755 399.977 27.7795C400.464 27.2382 401.204 26.9235 401.993 26.9342C402.75 26.9235 403.488 27.2168 403.998 27.7795C404.506 28.3435 404.67 28.9395 404.67 29.7302V32.2542C404.67 33.0142 404.518 33.6195 404.018 34.1835C403.521 34.7568 402.794 35.0488 401.993 35.0488Z" fill="#FF2828"/>
<path d="M439.66 27.0965V34.8965H438.586V28.2565L437.125 29.1445V27.9738L438.586 27.0965H439.66Z" fill="black"/>
<path d="M444.367 27.0965V34.8965H443.294V28.2565L441.831 29.1445V27.9738L443.294 27.0965H444.367Z" fill="black"/>
<path d="M476.461 27.0965V34.8965H475.389V28.2565L473.928 29.1445V27.9738L475.389 27.0965H476.461Z" fill="black"/>
<path d="M479.673 27.5433C480.149 27.1193 480.79 26.9354 481.417 26.9354C482.124 26.9354 482.772 27.1847 483.217 27.694C483.649 28.1487 483.889 28.7553 483.889 29.3847C483.889 30.294 483.477 30.858 482.706 31.594L480.444 33.89H483.813V34.8887H478.829V33.89L482.11 30.706C482.61 30.2287 482.802 29.7847 482.802 29.3727C482.802 29.006 482.662 28.6473 482.425 28.3873C482.154 28.0953 481.788 27.9327 481.365 27.9327C480.996 27.9327 480.649 28.0847 480.4 28.322C480.118 28.582 479.946 28.962 479.946 29.3727H478.873C478.86 28.67 479.176 27.998 479.673 27.5433Z" fill="black"/>
<path d="M515.744 27.0965V34.8965H514.672V28.2565L513.211 29.1445V27.9738L514.672 27.0965H515.744Z" fill="black"/>
<path d="M523.279 32.4923C523.268 33.2497 522.974 33.9763 522.402 34.4537C521.924 34.8537 521.307 35.0603 520.711 35.0483C520.104 35.0603 519.487 34.8537 519.011 34.4537C518.632 34.1497 518.362 33.727 518.222 33.2617L519.227 32.9803C519.326 33.2723 519.476 33.5217 519.703 33.7057C519.984 33.9337 520.334 34.0523 520.7 34.0523C521.068 34.0403 521.427 33.9217 521.698 33.6937C522.055 33.3923 522.206 32.947 522.206 32.4923C522.206 32.0377 522.066 31.6044 521.73 31.3004C521.448 31.0404 521.08 30.9203 520.69 30.9203C520.44 30.9203 520.146 31.0083 519.919 31.127L519.422 30.2923L521.752 28.0937H518.523V27.0963H523.17V28.1257L521.146 30.043C521.763 30.0977 522.291 30.3577 522.682 30.7697C523.104 31.235 523.29 31.863 523.279 32.4923Z" fill="black"/>
<path d="M555.123 27.0965V34.8965H554.05V28.2565L552.586 29.1445V27.9738L554.05 27.0965H555.123Z" fill="black"/>
<path d="M562.777 32.5032V33.5005H561.985V34.8965H560.922V33.5005H557.487V32.5032L560.047 27.0965H561.141L558.583 32.5032H560.922V30.3578H561.985V32.5032H562.777Z" fill="black"/>
<path d="M594.461 27.0965V34.8965H593.389V28.2565L591.925 29.1445V27.9738L593.389 27.0965H594.461Z" fill="black"/>
<path d="M601.42 27.0965V28.0938H598.245L598.116 30.3578C598.516 30.0551 599.016 29.8804 599.513 29.8804C600.13 29.8804 600.758 30.1085 601.228 30.5205C601.78 31.0178 602.07 31.7005 602.05 32.4378C602.04 33.1418 601.748 33.8245 601.258 34.3018C600.769 34.7791 600.089 35.0604 599.384 35.0484C598.714 35.0604 598.042 34.7885 597.564 34.3325C597.217 34.0191 596.957 33.5858 596.829 33.1205L597.834 32.8498C597.912 33.1418 598.073 33.4125 598.292 33.6191C598.584 33.8778 598.974 34.0404 599.384 34.0404C599.818 34.0404 600.217 33.8685 600.521 33.5858C600.816 33.2925 600.998 32.8831 600.998 32.4378C600.998 31.9938 600.802 31.5605 600.477 31.2671C600.185 30.9978 599.794 30.8458 599.384 30.8458C598.996 30.8458 598.625 30.9858 598.334 31.2351C598.204 31.3551 598.094 31.4951 598.009 31.6365L597.076 31.1058L597.316 27.0965H601.42Z" fill="black"/>
<path d="M0.688477 47.1035L1.66554 30.4515L0.688477 13.8782L1.47394 13.9488C1.53434 13.9542 1.84115 13.9835 2.34421 14.0675V46.9142C1.84115 46.9982 1.53434 47.0288 1.47394 47.0328L0.688477 47.1035Z" fill="#EBEBEB"/>
<path d="M2.34473 46.9141V14.0674C3.17446 14.2074 4.54006 14.4981 6.22446 15.0781V22.4181H7.58433V15.5861C10.3761 16.7101 13.7771 18.5887 17.0266 21.7141H35.0646C37.6895 21.7141 39.8255 23.8354 39.8255 26.4421V34.5381C39.8255 37.1448 37.6895 39.2674 35.0646 39.2674H17.0266C13.7771 42.3927 10.3761 44.2714 7.58433 45.3954V38.5661H6.22446V45.9034C4.54006 46.4834 3.17446 46.7727 2.34473 46.9141Z" fill="#EAD32A"/>
<path d="M7.58448 22.418H6.22461V15.078C6.65794 15.2273 7.11261 15.3966 7.58448 15.586V22.418Z" fill="#5B5211"/>
<path d="M6.22461 45.9043V38.567H7.58448V45.3963C7.11261 45.5856 6.65794 45.755 6.22461 45.9043Z" fill="#5B5211"/>
<path d="M1.41406 14.6268L2.34473 30.4921L1.41406 46.3574C1.41406 46.3574 9.55833 45.6334 16.7505 38.5881H35.0651C37.3171 38.5881 39.1453 36.7748 39.1453 34.5388V30.4921C39.1453 30.4921 39.1453 28.6801 39.1453 26.4441C39.1453 24.2081 37.3171 22.3948 35.0651 22.3948H16.7505C9.55833 15.3508 1.41406 14.6268 1.41406 14.6268Z" fill="#ACACAC"/>
<path d="M2.32913 30.7548L1.41406 46.3574C1.41406 46.3574 9.55833 45.6334 16.7505 38.5881H35.0651C37.3171 38.5881 39.1453 36.7748 39.1453 34.5388V30.7548H2.32913Z" fill="#D2D1D9"/>
<path d="M33.3827 30.4928C33.3827 32.5941 31.6771 34.3008 29.5739 34.3008C27.4714 34.3008 25.7656 32.5941 25.7656 30.4928C25.7656 28.3901 27.4714 26.6848 29.5739 26.6848C31.6771 26.6848 33.3827 28.3901 33.3827 30.4928Z" fill="#CCCCCC"/>
<path d="M31.4732 27.2101C31.7983 27.7714 31.9983 28.4141 31.9983 29.1075C31.9983 31.2115 30.2936 32.9168 28.1909 32.9168C27.4956 32.9168 26.8535 32.7168 26.292 32.3914C26.9503 33.5274 28.166 34.3008 29.5743 34.3008C31.6775 34.3008 33.3831 32.5941 33.3831 30.4928C33.3831 29.0848 32.6097 27.8701 31.4732 27.2101Z" fill="#787878"/>
<path d="M29.8856 29.0603C29.8856 29.9083 29.1981 30.5977 28.3487 30.5977C27.4987 30.5977 26.8105 29.9083 26.8105 29.0603C26.8105 28.211 27.4987 27.523 28.3487 27.523C29.1981 27.523 29.8856 28.211 29.8856 29.0603Z" fill="#FAFAFA"/>
<path d="M15.6351 30.4928C15.6351 32.5941 13.931 34.3008 11.8269 34.3008C9.72367 34.3008 8.01953 32.5941 8.01953 30.4928C8.01953 28.3901 9.72367 26.6848 11.8269 26.6848C13.931 26.6848 15.6351 28.3901 15.6351 30.4928Z" fill="#CCCCCC"/>
<path d="M12.1291 29.0603C12.1291 29.9083 11.4416 30.5977 10.5922 30.5977C9.74269 30.5977 9.05469 29.9083 9.05469 29.0603C9.05469 28.211 9.74269 27.523 10.5922 27.523C11.4416 27.523 12.1291 28.211 12.1291 29.0603Z" fill="#FAFAFA"/>
<path d="M13.7658 27.2101C14.0902 27.7714 14.2903 28.4141 14.2903 29.1075C14.2903 31.2115 12.5861 32.9168 10.482 32.9168C9.78718 32.9168 9.14438 32.7168 8.58398 32.3914C9.24292 33.5274 10.4585 34.3008 11.8662 34.3008C13.9694 34.3008 15.6736 32.5941 15.6736 30.4928C15.6736 29.0848 14.9017 27.8701 13.7658 27.2101Z" fill="#787878"/>
<path d="M0.482422 53.8242H2.34442V7.15755H0.482422V53.8242Z" fill="#ACACAC"/>
<path d="M0 53.8242H0.482265V7.15755H0V53.8242Z" fill="#D2D1D9"/>
<path d="M723.07 60.9824H619.391C611.954 60.9824 605.925 54.9531 605.925 47.5158V13.4664C605.925 6.02911 611.954 -0.00022423 619.391 -0.00022423H723.07C730.509 -0.00022423 736.537 6.02911 736.537 13.4664V47.5158C736.537 54.9531 730.509 60.9824 723.07 60.9824Z" fill="black"/>
<path d="M609.13 13.3828C608.573 13.3828 608.121 12.9308 608.121 12.3735C608.121 12.2815 608.236 3.24149 618.725 1.76016C619.269 1.68416 619.788 2.06682 619.865 2.61882C619.944 3.17082 619.558 3.68149 619.006 3.76016C610.236 4.99882 610.141 12.0722 610.141 12.3722C610.141 12.9295 609.688 13.3815 609.13 13.3828Z" fill="#616161"/>
<path d="M618.868 59.2324L618.725 59.2217C608.236 57.7404 608.121 48.6991 608.121 48.6084C608.121 48.0511 608.573 47.5991 609.13 47.5991C609.688 47.6004 610.138 48.0511 610.141 48.6084C610.144 48.9297 610.305 55.9924 619.006 57.2217C619.558 57.3004 619.944 57.8111 619.865 58.3631C619.794 58.8684 619.362 59.2324 618.868 59.2324Z" fill="#616161"/>
<path d="M619.391 6.39557C611.954 6.39557 605.925 12.3929 605.925 19.7902V30.4902H640.419V6.39557H619.391Z" fill="#FEE52E"/>
<path d="M605.925 30.5524C605.925 30.5524 605.925 33.8564 605.925 41.2538C605.925 48.6511 611.954 54.6484 619.391 54.6484H640.419V30.5524H605.925Z" fill="#FEE52E"/>
<path d="M607.578 47.666C603.969 47.666 601.045 41.638 601.045 34.1993V26.782C601.045 19.3447 603.969 13.314 607.578 13.314H614.113V47.666C614.113 47.666 611.188 47.666 607.578 47.666Z" fill="black"/>
<path d="M674.512 58.0977H640.419V2.88431H674.512V58.0977Z" fill="#333333"/>
<path d="M674.512 11.6582H640.419V2.88486H674.512V11.6582Z" fill="#404040"/>
<path d="M711.182 58.0977H681.87V2.88431H711.182V58.0977Z" fill="#333333"/>
<path d="M711.29 11.6582H677.195V2.88486H711.29V11.6582Z" fill="#404040"/>
<path d="M674.512 57.8027H640.419V49.0294H674.512V57.8027Z" fill="#404040"/>
<path d="M711.29 57.8027H677.195V49.0294H711.29V57.8027Z" fill="#404040"/>
<path d="M682.001 2.76062V58.2246C686.22 58.2246 689.638 54.8046 689.638 50.5859V10.398C689.638 6.18062 686.22 2.76062 682.001 2.76062Z" fill="black"/>
<path d="M723.07 -0.00022423H718.987V60.9824H723.07C730.509 60.9824 736.537 54.9531 736.537 47.5158V13.4664C736.537 6.02911 730.509 -0.00022423 723.07 -0.00022423Z" fill="#333333"/>
<path d="M716.93 2.76062V58.2246C721.148 58.2246 724.568 54.8046 724.568 50.5859V10.398C724.568 6.18062 721.148 2.76062 716.93 2.76062Z" fill="black"/>
<path d="M675.732 2.76062V58.2246C671.512 58.2246 668.094 54.8046 668.094 50.5859V10.398C668.094 6.18062 671.512 2.76062 675.732 2.76062Z" fill="black"/>
<path d="M629.175 39.9238H614.112V21.0585H629.175V39.9238Z" fill="#FEB014"/>
<path d="M629.175 37.2461H614.112V23.7355H629.175V37.2461Z" fill="black"/>
<path d="M679.757 54.9375H677.963C674.244 54.9375 671.229 51.9228 671.229 48.2055V12.7788C671.229 9.06014 674.244 6.04547 677.963 6.04547H679.757C683.476 6.04547 686.492 9.06014 686.492 12.7788V48.2055C686.492 51.9228 683.476 54.9375 679.757 54.9375Z" fill="#FEE52E"/>
<path d="M715.963 54.9375H711.182V6.04547C711.182 6.04547 713.323 6.04547 715.963 6.04547C718.607 6.04547 720.747 9.06014 720.747 12.7788V48.2055C720.747 51.9228 718.607 54.9375 715.963 54.9375Z" fill="#FEE52E"/>
<path d="M727.763 57.8828C727.326 57.8828 726.899 57.6721 726.64 57.2815C726.227 56.6615 726.396 55.8255 727.015 55.4135C730.12 53.3521 731.971 49.9055 731.971 46.1895V14.7948C731.971 11.0788 730.12 7.63084 727.015 5.5695C726.396 5.1575 726.227 4.3215 726.64 3.70284C727.052 3.08284 727.886 2.91616 728.508 3.32549C732.362 5.88816 734.667 10.1748 734.667 14.7948V46.1895C734.667 50.8082 732.362 55.0962 728.508 57.6575C728.276 57.8095 728.018 57.8828 727.763 57.8828Z" fill="#616161"/>
<path d="M708.269 64.5312H663.469V60.9832H708.269V64.5312Z" fill="black"/>
<path d="M708.269 71.168H663.469V64.5306H708.269V71.168Z" fill="#5A5A5A"/>
<path d="M708.269 66.0723H663.469V64.5296H708.269V66.0723Z" fill="#D9D9D9"/>
<path d="M708.269 71.168H663.469V69.6266H708.269V71.168Z" fill="#949494"/>
<path d="M663.469 69.627L654.402 60.9816H663.469V69.627Z" fill="#5A5A5A"/>
<path d="M663.469 66.0605L658.144 60.9819H663.469V66.0605Z" fill="black"/>
</g>
<defs>
<clipPath id="clip0_4320_5085">
<rect width="736.537" height="71.1682" fill="white"/>
</clipPath>
</defs>
</svg>
