<svg width="1000" height="360" viewBox="0 0 1000 360" fill="none" xmlns="http://www.w3.org/2000/svg">
<g clip-path="url(#clip0_2175_855)">
<path d="M168.478 15.8783L177.649 6.60064C179.209 5.02178 181.165 3.78245 183.431 3.04785C185.696 2.31325 188.014 2.17969 190.218 2.53961L196.131 3.51461L179.542 19.8775L168.478 15.8783Z" fill="#4F5837"/>
<path d="M151.94 13.8519L158.63 4.9074C159.772 3.3897 161.275 2.1061 163.12 1.22037C164.961 0.341662 166.914 -0.0527148 168.828 0.00563121L173.973 0.14974L161.818 15.9735L151.94 13.8519Z" fill="#4F5837"/>
<path d="M134.83 16.6432L139.744 7.33105C140.58 5.74868 141.798 4.33434 143.386 3.23982C144.97 2.15164 146.741 1.51334 148.534 1.27926L153.354 0.671875L144.36 17.1887L134.83 16.6432Z" fill="#4F5837"/>
<path d="M119.735 20.0264L123.902 12.1181C124.615 10.7761 125.645 9.57122 126.993 8.64823C128.339 7.72453 129.84 7.17553 131.361 6.98363L135.451 6.46484L127.821 20.4904L119.735 20.0264Z" fill="#4F5837"/>
<path d="M181.472 21.7825L192.011 15.5212C193.539 14.6116 195.311 14.0387 197.221 13.929C199.129 13.8123 200.956 14.1687 202.592 14.8935L208.029 17.2997L190.058 27.6656L181.472 21.7825Z" fill="#4F5837"/>
<path d="M190.545 31.3101L200.97 26.9271C202.487 26.2924 204.165 25.9936 205.909 26.1237C207.667 26.2614 209.281 26.814 210.673 27.6716L215.334 30.5516L197.611 37.7493L190.545 31.3101Z" fill="#4F5837"/>
<path d="M197.203 41.1673L207.203 38.1811C208.648 37.7445 210.221 37.6349 211.808 37.9301C213.402 38.2324 214.829 38.8946 216.009 39.8246L219.998 42.9212L203.019 47.7639L197.203 41.1673Z" fill="#4F5837"/>
<path d="M205.362 52.3005L213.132 49.9772C214.256 49.6405 215.474 49.5582 216.709 49.7846C217.948 50.0179 219.062 50.5367 219.985 51.2537L223.079 53.667L209.877 57.4286L205.362 52.3005Z" fill="#4F5837"/>
<path d="M210.151 62.8497L217.923 60.5264C219.051 60.1826 220.273 60.1109 221.506 60.3337C222.748 60.5706 223.851 61.0824 224.774 61.8029L227.871 64.2127L214.676 67.9743L210.151 62.8497Z" fill="#4F5837"/>
<path d="M270.931 195.298L206.73 220.658L188.411 245.961L187.04 259.056L181.21 251.474C180.58 249.833 180.266 248.051 180.319 246.202C180.381 244.341 180.813 242.584 181.537 240.984L189.779 226.307L176.727 240.761L170.848 252.39C170.848 252.39 169.104 239.731 169.741 237.713C170.378 235.685 171.057 233.906 172.376 232.4L182.453 221.79L172.606 227.886L164.13 236.471L165.61 228.645C165.881 226.393 166.692 224.169 168.095 222.171C169.494 220.173 171.317 218.636 173.358 217.592L244.161 181.239C244.161 181.239 215.954 153.237 219.796 130.957C221.353 121.937 230.517 115.587 240.312 113.988C250.114 112.388 260.182 115.902 265.282 123.543C278.063 142.714 270.931 195.298 270.931 195.298Z" fill="#667247"/>
<path d="M169.933 237.144C169.87 237.335 169.811 237.521 169.741 237.713C169.105 239.731 170.848 252.39 170.848 252.39L176.727 240.761L169.933 237.144Z" fill="#4E4731"/>
<path d="M168.095 222.17C166.692 224.168 165.881 226.392 165.61 228.644L164.13 236.47L172.606 227.886C172.606 227.886 168.356 221.789 168.095 222.17Z" fill="#4E4731"/>
<path d="M180.395 245.276C180.367 245.582 180.332 245.884 180.318 246.2C180.266 248.05 180.58 249.832 181.209 251.472L187.039 259.054L188.411 245.96L188.818 245.276H180.395Z" fill="#4E4731"/>
<path d="M425.201 181.366C432.218 204.731 466.52 242.945 506.265 284.12L494.571 322.742C493.325 326.843 491.156 330.722 488.034 334.083C484.902 337.433 481.156 339.88 477.122 341.438L458.869 348.479L443.064 360.001H505.723C509.008 360.001 512.308 358.889 514.998 356.61C517.682 354.331 519.3 351.283 519.792 348.084L529.475 285.507C529.739 283.76 529.809 281.958 529.628 280.122C529.451 278.285 529.05 276.52 528.455 274.866L487.028 159.681L425.201 181.366Z" fill="#667247"/>
<path d="M498.194 341.438C502.218 339.88 506.265 284.12 506.265 284.12L494.571 322.742C493.325 326.843 491.156 330.722 488.034 334.083C484.902 337.433 481.156 339.88 477.122 341.438L458.869 348.479L443.063 360.001H466.882L482.68 348.479L498.194 341.438Z" fill="#5B663F"/>
<path d="M459.551 348.221L458.869 348.478L443.063 360H459.551V348.221Z" fill="#4E4731"/>
<path d="M484.278 348.221L483.593 348.478L467.797 360H484.278V348.221Z" fill="#4E4731"/>
<path d="M101.384 21.5861C101.384 21.5861 161.336 7.04674 176.354 14.3744C194.725 23.3506 215.251 65.8891 227.472 74.6585C239.695 83.4287 264.147 82.3335 264.147 82.3335L259.695 155.757C259.695 155.757 214.137 159.038 193.02 143.706C171.903 128.359 161.353 97.2855 144.12 96.5748C117.454 95.4796 82.8389 96.7914 82.8389 96.7914L101.384 21.5861Z" fill="#73804F"/>
<path d="M231.92 122.919C219.685 121.415 206.639 118.261 197.83 111.859C176.716 96.5162 173.517 69.5751 148.93 64.7317C116.397 58.327 101.133 58.2237 92.1115 58.5119L82.8389 96.7911C82.8389 96.7911 117.454 95.4794 144.12 96.5746C161.353 97.2853 171.903 128.359 193.02 143.706C202.992 150.948 218.418 154.033 231.92 155.28V122.919Z" fill="#9F9C4F"/>
<path d="M15.294 83.3046C12.9516 83.0093 10.6477 82.1616 8.60827 80.6959C6.56455 79.2302 5.03337 77.3252 4.03468 75.2177L0 62.7823L3.62052 52.1344C4.78958 48.8326 6.58594 45.6784 9.01887 42.8427C11.4554 40.0146 14.3231 37.7595 17.4561 36.0773C17.4561 36.0773 40.9713 25.3649 49.1162 23.9751C56.5019 22.7288 76.3382 23.9751 76.3382 23.9751L104.389 20.5664C108.594 20.0483 112.982 20.8582 116.895 23.1583C120.818 25.4647 123.606 28.8973 125.148 32.7896L125.774 34.3649C128.514 43.2068 128.879 52.8866 126.279 62.4765C123.679 72.06 113.017 90.7905 91.1211 98.3733C80.4976 102.06 54.7369 88.1684 54.7369 88.1684L15.294 83.3046Z" fill="#83925A"/>
<path d="M1.45491 58.5095L0 62.78L4.03468 75.2155C5.03337 77.323 6.56455 79.228 8.60827 80.6937C10.6477 82.1593 12.9516 83.0071 15.294 83.3024L54.7369 88.1662C54.7369 88.1662 80.4976 102.057 91.1211 98.3711C113.017 90.7882 123.679 72.0578 126.279 62.4743C126.631 61.1562 123.024 57.1612 114.956 56.646C108.552 56.2446 89.3632 58.5095 89.3632 58.5095C89.3632 58.5095 82.6311 51.4356 79.5716 50.7186C70.428 48.5766 42.8161 58.5095 42.8161 58.5095H1.45491Z" fill="#A9A453"/>
<path d="M222.299 114.518C226.486 99.7448 241.077 79.2906 259.396 72.062C282.48 62.9488 327.519 53.6226 352.376 53.9973C439.42 55.3048 467.342 83.3509 507.185 92.8353C547.035 102.323 593.293 118.132 660.164 115.421C718.622 113.052 825.416 93.0237 862.603 97.8053C925.819 105.94 956.034 122.192 999.999 191.305C940.013 131.683 901.04 122.261 849.895 128.635C806.08 134.089 713.296 170.525 648.25 176.391C600.046 180.747 523.221 181.818 523.221 181.818C523.221 181.818 445.006 212.679 417.415 216.592C370.29 223.278 270.385 207.613 234.21 176.844C221.707 166.217 217.857 130.197 222.299 114.518Z" fill="#83925A"/>
<path d="M850.243 117.23C806.426 122.687 717.874 149.289 652.834 155.165C604.634 159.524 518.18 157.87 518.18 157.87C518.18 157.87 452.34 184.677 424.745 188.593C380.169 194.916 288.373 181.238 247.959 153.7H223.079C225.32 163.612 229.014 172.427 234.21 176.844C270.385 207.613 370.29 223.278 417.415 216.592C445.007 212.679 523.221 181.818 523.221 181.818C523.221 181.818 600.046 180.747 648.25 176.391C713.297 170.525 806.081 134.09 849.895 128.635C901.04 122.262 940.013 131.684 999.999 191.305C938.642 125.358 898.684 111.189 850.243 117.23Z" fill="#A9A453"/>
<path d="M290.315 204.851L242.908 240.082L229.852 285.476L231.23 294.28L224.269 284.669C223.239 283.248 222.466 281.607 222.035 279.801C221.606 277.993 221.565 276.184 221.839 274.454L225.049 254.989L212.567 274.533L208.561 285.476L206.138 279.334C205.404 277.485 205.035 275.456 205.125 273.335C205.209 271.217 205.745 269.223 206.629 267.431L214.742 250.924L201.69 263.793L198.251 270.569L197.283 263.865C196.953 261.616 197.158 259.266 197.987 256.976C198.819 254.69 200.18 252.744 201.881 251.21L260.771 198.085C260.771 198.085 226.191 178.201 224.078 155.701C223.225 146.585 230.416 138.114 239.459 134.08C248.509 130.04 259.163 130.875 266.079 136.967C283.444 152.232 290.315 204.851 290.315 204.851Z" fill="#8D9F62"/>
<path d="M198.564 255.664C198.356 256.097 198.157 256.522 197.987 256.976C197.158 259.265 196.953 261.616 197.283 263.865L198.251 270.568L205.467 260.072L198.564 255.664Z" fill="#4E4731"/>
<path d="M205.302 271.587C205.212 272.156 205.149 272.74 205.125 273.334C205.034 275.455 205.404 277.484 206.138 279.334L208.561 285.475L212.567 274.532L205.302 271.587Z" fill="#4E4731"/>
<path d="M231.415 280.06H222.107C222.547 281.761 223.291 283.316 224.269 284.669L231.23 294.28L231.415 280.06Z" fill="#4E4731"/>
<path d="M89.4832 33.6193C90.1718 39.7976 84.9823 45.434 77.8432 46.2375C70.687 47.0058 64.342 42.6397 63.6562 36.4719C64.4568 31.4471 73.7152 25.3819 79.1698 23.2773C86.2804 22.4878 88.7867 27.4409 89.4832 33.6193Z" fill="#4F5837"/>
<path d="M52.3934 41.3013C51.0882 47.3834 47.8825 53.1126 40.7541 53.9125C33.5944 54.6914 26.2713 51.5098 26.56 44.1575C27.357 39.1214 34.2837 32.9916 42.07 30.9593C48.986 29.1576 53.9809 33.8942 52.3934 41.3013Z" fill="#73804F"/>
<path d="M82.588 34.4961C82.9045 37.3692 80.4751 40.0018 77.1754 40.3525C73.8514 40.723 70.9209 38.6907 70.583 35.8212C71.2509 33.46 74.7945 30.9335 77.092 30.0415C80.4124 29.6738 82.2537 31.6266 82.588 34.4961Z" fill="#F1CE30"/>
<path d="M78.9861 34.8917C79.1672 36.4706 76.8975 38.0115 76.8975 38.0115C76.8975 38.0115 74.374 36.9992 74.183 35.4239C73.9948 33.8415 76.2574 32.29 76.2574 32.29C76.2574 32.29 78.7944 33.3129 78.9861 34.8917Z" fill="black"/>
<path d="M9.293 48.5819C8.13107 50.3667 7.6606 52.11 8.24584 52.4805C8.83037 52.8552 10.2503 51.7157 11.413 49.9301C12.5792 48.1453 13.0454 46.3985 12.4609 46.028C11.8792 45.6505 10.4592 46.7963 9.293 48.5819Z" fill="#606B43"/>
<path d="M86.0418 43.1564C86.0418 43.1564 91.3739 38.1653 93.9843 28.2592C95.6623 21.9269 89.7065 11.5434 89.7065 11.5434C89.3515 10.3969 87.4162 8.74278 86.2051 8.26195C84.9939 7.77831 83.6887 7.89852 82.6373 8.48479L57.695 22.232L51.2067 22.3416C49.8045 22.3761 48.3739 22.5378 46.9503 22.8668C45.5268 23.1964 44.1652 23.6667 42.9057 24.2572L17.4551 36.0783L47.7957 26.8968L65.6624 25.5408L59.244 39.3154C59.244 39.3154 65.2026 31.8668 71.1548 27.7994C72.8778 26.6255 79.7346 23.8931 81.9237 24.4084C93.3684 27.1197 86.0418 43.1564 86.0418 43.1564Z" fill="#B75C44"/>
<path d="M465.849 77.4814L467.564 109.321L474.091 81.2057C472.953 80.7249 467.011 77.9721 465.849 77.4814Z" fill="#556B3F"/>
<path d="M489.378 87.1396L492.295 126.939L496.301 89.7448C494.887 89.2816 490.77 87.6338 489.378 87.1396Z" fill="#556B3F"/>
<path d="M377.221 55.1885L381.004 101.873L389.02 56.3659C386.002 56.0257 380.409 55.4493 377.221 55.1885Z" fill="#556B3F"/>
<path d="M352.375 53.9974C351.853 53.9869 351.313 53.9869 350.773 53.9904L357.641 106.616L363.304 54.3095C359.772 54.1584 356.134 54.0558 352.375 53.9974Z" fill="#556B3F"/>
<path d="M428.407 97.1296L433.676 65.7366C432.232 65.3282 425.577 63.3782 424.08 62.9873L428.407 97.1296Z" fill="#556B3F"/>
<path d="M442.49 68.6729L445.581 101.195L450.739 71.3842C449.549 70.9483 443.711 69.1087 442.49 68.6729Z" fill="#556B3F"/>
<path d="M328.557 55.6389L335.661 115.422L341.686 54.3271C337.561 54.609 333.144 55.0547 328.557 55.6389Z" fill="#556B3F"/>
<path d="M917.449 110.668L915.614 121.394L920.752 112.072C919.649 111.587 918.555 111.124 917.449 110.668Z" fill="#556B3F"/>
<path d="M518.41 95.6123L519.089 126.26L526.148 97.5926C523.538 96.9128 520.955 96.2576 518.41 95.6123Z" fill="#556B3F"/>
<path d="M883.104 112.651L886.031 101.561C884.761 101.31 883.483 101.053 882.192 100.819L883.104 112.651Z" fill="#556B3F"/>
<path d="M308.707 58.8008L315.045 109.323L320.527 56.7686C316.636 57.3696 312.671 58.0486 308.707 58.8008Z" fill="#556B3F"/>
<path d="M286.271 63.7425L291.687 101.194L296.476 61.3193C293.009 62.0947 289.591 62.8947 286.271 63.7425Z" fill="#556B3F"/>
<path d="M270.393 90.3563L273.939 67.1191C271.346 67.9015 268.861 68.6875 266.515 69.4734L270.393 90.3563Z" fill="#556B3F"/>
<path d="M772.6 103.535L778.9 123.278L779.439 102.718C777.17 102.986 774.886 103.26 772.6 103.535Z" fill="#556B3F"/>
<path d="M803.651 100.017L809.133 117.186L809.589 99.4268C807.64 99.6152 805.653 99.8106 803.651 100.017Z" fill="#556B3F"/>
<path d="M742.302 107.269L749.357 129.377L749.963 106.321C747.411 106.637 744.853 106.953 742.302 107.269Z" fill="#556B3F"/>
<path d="M410.204 59.8656C408.456 59.5331 401.589 58.1391 399.779 57.834L404.359 97.8045L410.204 59.8656Z" fill="#556B3F"/>
<path d="M841.11 97.2022L845.544 111.083L845.91 97.0918C844.361 97.1094 842.76 97.1466 841.11 97.2022Z" fill="#556B3F"/>
<path d="M711.229 110.998L717.428 136.346L719.948 109.988C717.018 110.331 714.101 110.672 711.229 110.998Z" fill="#556B3F"/>
<path d="M680.707 114.086L684.804 142.528L690.516 113.194C687.171 113.513 683.903 113.809 680.707 114.086Z" fill="#556B3F"/>
<path d="M567.787 107.554L568.56 144.326L576.673 109.284C573.67 108.728 570.7 108.151 567.787 107.554Z" fill="#556B3F"/>
<path d="M595.132 112.278L596.956 148.841L604.213 113.421C601.136 113.075 598.108 112.683 595.132 112.278Z" fill="#556B3F"/>
<path d="M623.73 115.1L627.187 149.743L633.167 115.521C629.975 115.422 626.821 115.281 623.73 115.1Z" fill="#556B3F"/>
<path d="M544.745 137.101L551.334 103.899C548.559 103.24 545.834 102.578 543.137 101.912L544.745 137.101Z" fill="#556B3F"/>
<path d="M650.126 115.683L654.571 146.595L660.645 115.397C660.488 115.408 660.317 115.415 660.164 115.422C656.76 115.563 653.422 115.638 650.126 115.683Z" fill="#556B3F"/>
<path d="M208.37 50.6045L189.4 73.0565L214.12 58.9009C212.254 56.2718 210.337 53.4775 208.37 50.6045Z" fill="#556B3F"/>
<path d="M217.946 64.1953L196.877 84.9377L223.671 71.1842C221.875 69.2651 219.964 66.887 217.946 64.1953Z" fill="#556B3F"/>
<path d="M153.716 12.6895C149.543 13.0121 145.147 13.5063 140.744 14.1136L148.113 43.1559L153.716 12.6895Z" fill="#556B3F"/>
<path d="M171.767 59.591L198.753 36.9366C196.41 33.7585 194.043 30.6929 191.659 27.8613L171.767 59.591Z" fill="#556B3F"/>
<path d="M369.765 200.02C369.629 208.749 371.289 217.625 375.007 226.159C378.724 234.685 384.123 241.985 390.621 247.89L438.028 290.895L393.747 330.965C391.856 332.678 389.747 334.229 387.436 335.554C385.121 336.876 382.72 337.919 380.273 338.691L349.4 348.477L333.594 360H408.481L463.294 293.661C464.93 291.681 466.047 289.236 466.388 286.518C466.736 283.786 466.256 281.153 465.166 278.836L431.153 206.882C431.153 206.882 481.303 172.636 487.975 151.651C494.989 129.569 474.571 99.337 451.961 88.2569C429.347 77.1803 391.742 78.9173 378.561 98.0632C362.713 121.092 369.765 200.02 369.765 200.02Z" fill="#8D9F62"/>
<path d="M437.773 290.672L438.028 290.895L393.747 330.966C391.856 332.678 389.747 334.23 387.436 335.555C385.121 336.876 382.72 337.92 380.273 338.692L349.4 348.478L333.594 360H367.489L369.545 348.478C369.545 348.478 389.072 345.564 394.516 342.156C408.832 333.203 437.773 290.672 437.773 290.672Z" fill="#7A8A4B"/>
<path d="M349.626 348.408L349.4 348.477L333.594 359.999H349.626V348.408Z" fill="#4E4731"/>
<path d="M369.779 348.408L369.545 348.477L353.75 359.999H369.779V348.408Z" fill="#4E4731"/>
<path d="M19.6016 65.9766C20.4441 70.9086 23.2499 74.6434 26.633 78.1034L25.7455 66.4019L19.6016 65.9766Z" fill="#FBF3EC"/>
<path d="M27.6807 65.4688C28.5268 70.4113 31.3254 74.1391 34.7086 77.5956L33.8246 65.9046L27.6807 65.4688Z" fill="#FBF3EC"/>
<path d="M34.709 65.6885C35.3391 69.3924 37.4449 72.1895 39.9819 74.7849L39.3211 66.0147L34.709 65.6885Z" fill="#FBF3EC"/>
<path d="M40.5449 66.3066C41.4224 69.29 43.2808 71.6822 45.4699 73.9197L44.8997 66.3066H40.5449Z" fill="#FBF3EC"/>
<path d="M44.8545 64.6113C45.7106 67.6798 47.6011 70.1169 49.8287 72.4065L49.2506 64.6113H44.8545Z" fill="#FBF3EC"/>
<path d="M49.3447 64.0999C50.2707 66.8562 51.7221 67.9198 53.7793 70.0308L53.2532 62.9189L49.3447 64.0999Z" fill="#FBF3EC"/>
<path d="M53.6367 62.5806C54.6176 65.0311 56.0133 65.893 57.9002 67.8282L57.4233 61.3926L53.6367 62.5806Z" fill="#FBF3EC"/>
<path d="M12.9688 64.1758C13.6018 67.8797 15.6975 70.6768 18.2381 73.2651L17.5837 64.5055L12.9688 64.1758Z" fill="#FBF3EC"/>
<path d="M6.60254 64.1758C7.23269 67.8797 9.33486 71.971 11.8726 74.5726L11.2111 64.5055L6.60254 64.1758Z" fill="#FBF3EC"/>
<path d="M0.670898 64.6113C1.2483 67.9785 3.55933 73.0863 5.86751 75.451L4.87167 64.9066L0.670898 64.6113Z" fill="#FBF3EC"/>
<path d="M121.444 63.0602C121.437 62.5006 121.016 62.0269 120.4 62.055L82.436 62.6384C81.4965 61.5123 79.4599 59.2712 78.0884 58.893C69.2755 56.4151 43.9747 64.921 41.2773 65.8475L0.211914 63.4314L0.884125 65.5044L41.5695 67.9001L41.7606 67.8249C42.0357 67.7321 69.0282 58.4537 77.5317 60.8501C78.1511 61.0216 79.9054 62.7685 81.1551 64.2925L81.4715 64.6805L120.435 64.0936C120.995 64.083 121.454 63.6198 121.444 63.0602Z" fill="#606B43"/>
</g>
<defs>
<clipPath id="clip0_2175_855">
<rect width="1000" height="360" fill="white"/>
</clipPath>
</defs>
</svg>
