<svg width="1000" height="358" viewBox="0 0 1000 358" fill="none" xmlns="http://www.w3.org/2000/svg">
<g clip-path="url(#clip0_2175_458)">
<path d="M401.162 202.716L418.926 318.967C419.364 321.958 419.211 325.067 418.348 328.149C417.492 331.259 416.002 334.051 414.059 336.398L397.082 357.147H448.216L459.835 321.575C460.217 320.403 460.552 319.191 460.851 317.966C461.137 316.728 461.366 315.463 461.54 314.251L477.551 202.716H401.162Z" fill="#AB743A"/>
<path d="M405.825 346.463L397.082 357.148H412.125V352.18C412.125 350.731 411.506 349.255 410.35 348.149C409.16 347.016 407.607 346.463 406.062 346.463H405.825Z" fill="#858C8D"/>
<path d="M260.462 204.14L259.898 315.925C259.891 319.231 259.237 322.526 257.838 325.766C256.453 328.954 254.441 331.787 252.039 334.106L235.388 350.27C234.192 351.127 233.649 352.656 234.157 354.064C234.659 355.526 236.057 356.397 237.554 356.397H286.426C288.674 356.397 290.916 355.606 292.621 353.986C294.333 352.378 298.329 332.459 298.329 332.459C298.329 332.459 321.182 205.721 321.884 204.14H260.462Z" fill="#AB743A"/>
<path d="M245.202 341.469H244.473L235.387 350.269C234.191 351.125 233.648 352.654 234.156 354.062C234.658 355.525 236.056 356.395 237.553 356.395H245.202V341.469Z" fill="#858C8D"/>
<path d="M687.337 230.448C629.512 221.765 530.174 192.729 530.174 192.729C530.174 192.729 488.534 209.671 475.788 213.373C391.465 237.93 303.382 238.866 228.141 217.181C214.596 213.281 176.004 196.286 176.004 196.286L89.293 198.065V225.243L183.523 223.347C183.523 223.347 222.114 240.329 235.652 244.175C310.906 265.887 398.969 264.952 483.286 240.42C496.059 236.705 531.433 222.424 531.433 222.424C531.433 222.424 628.684 241.396 686.822 248.009C746.867 254.847 877.077 253.845 913.698 253.385V243.292C872.796 243.516 751.426 240.118 687.337 230.448Z" fill="#BB7B37"/>
<path d="M253.139 274.4C252.053 278.97 250.263 283.49 247.764 287.838C245.258 292.145 242.218 296.005 238.729 299.338L196.302 340.048C196.302 340.048 189.773 356.397 187.525 356.397H126.652C125.136 356.397 123.736 355.527 123.235 354.065C122.719 352.656 123.283 351.128 124.494 350.271L157.948 326.53L195.232 273.911C197.437 270.815 199.115 267.272 200.117 263.425C201.092 259.552 201.3 255.692 200.834 251.95C200.834 251.95 188.904 214.64 191.04 192.731C192.544 177.303 218.035 171.322 235.402 172.1C252.797 172.89 268.279 185.801 269.245 201.307C270.423 220.332 253.139 274.4 253.139 274.4Z" fill="#C68B4F"/>
<path d="M136.132 342.007L124.494 350.267C123.283 351.124 122.719 352.652 123.235 354.061C123.736 355.523 125.136 356.393 126.652 356.393H136.132V342.007Z" fill="#858C8D"/>
<path d="M263.606 343.955H263.007L255.469 351.32C254.459 352.018 254.007 353.27 254.397 354.482C254.836 355.641 255.998 356.392 257.279 356.392H263.606V343.955Z" fill="#858C8D"/>
<path d="M154.948 343.655L144.631 350.979C143.554 351.744 143.059 353.101 143.504 354.34C143.943 355.617 145.196 356.394 146.525 356.394H154.948V343.655Z" fill="#858C8D"/>
<path d="M467.77 263.185C477.419 275.701 516.017 305.014 516.017 305.014C520.012 308.466 522.922 313.089 524.113 318.465C525.289 323.853 524.543 329.189 522.35 333.866L511.38 357.146H562.522L563.128 316.699C563.162 313.893 562.913 311.034 562.377 308.189C561.805 305.317 560.955 302.589 559.856 300.021L534.7 241.143C537.637 224.321 538.472 190.699 532.235 174.679C526.75 155.879 501.712 147.46 480.224 150.938C458.742 154.377 437.532 170.134 439.391 189.566C441.277 209.064 455.547 247.375 467.77 263.185Z" fill="#C68B4F"/>
<path d="M516.426 346.463L511.379 357.148H524.918V352.509C524.918 350.928 524.292 349.374 523.039 348.241C521.786 347.055 520.143 346.463 518.548 346.463H516.426Z" fill="#858C8D"/>
<path d="M421.989 347.647L414.207 357.146H427.593V352.746C427.593 351.415 427.043 350.136 425.999 349.135C424.94 348.16 423.549 347.647 422.204 347.647H421.989Z" fill="#858C8D"/>
<path d="M532.812 348.03L528.523 357.147H540.045V353.195C540.045 351.877 539.515 350.546 538.443 349.545C537.399 348.517 535.986 348.03 534.608 348.03H532.812Z" fill="#858C8D"/>
<path d="M745.983 207.205C704.238 195.058 559.744 49.942 452.226 37.3863C281.781 17.4403 180.522 118.015 136.397 142.677C120.345 151.689 89.293 160.712 89.293 160.712L88.2695 202.462L191.04 202.713C191.04 202.713 214.596 213.279 228.141 217.179C303.382 238.864 391.465 237.928 475.788 213.371C488.534 209.669 533.919 197.733 533.919 197.733C533.919 197.733 629.512 221.763 687.337 230.446C751.426 240.116 872.796 243.514 913.698 243.29V229.694L913.649 229.628C886.167 228.259 800.172 222.988 745.983 207.205Z" fill="#858C8D"/>
<path d="M913.648 229.63L913.7 229.7V229.63H913.648Z" fill="#C68B4F"/>
<path d="M976.117 224.028C974.892 224.028 973.695 224.106 972.539 224.225C965.509 217.637 954.588 213.396 942.266 213.396C921.035 213.396 903.85 225.963 903.85 241.496C903.85 256.989 921.035 269.558 942.266 269.558C954.588 269.558 965.509 265.329 972.539 258.742C973.695 258.874 974.892 258.952 976.117 258.952C989.3 258.952 1000 251.114 1000 241.496C1000 231.84 989.3 224.028 976.117 224.028Z" fill="#B4ACA3"/>
<path d="M533.51 197.853C533.781 197.762 533.92 197.736 533.92 197.736C533.92 197.736 535.208 198.052 537.422 198.605V67.4135C536.12 66.7147 534.79 66.0429 533.51 65.3711V197.853Z" fill="#767B7F"/>
<path d="M235.716 219.209C237.01 219.539 238.326 219.907 239.621 220.25V77.0303C238.326 77.6886 237.003 78.3874 235.716 79.0849V219.209Z" fill="#767B7F"/>
<path d="M591.555 100.11C590.233 99.2139 588.952 98.3573 587.636 97.502V210.539C588.924 210.815 590.226 211.131 591.555 211.395V100.11Z" fill="#767B7F"/>
<path d="M192.51 203.36V104.881C191.181 105.738 189.872 106.62 188.591 107.476V202.715H191.041C191.041 202.715 191.599 202.939 192.51 203.36Z" fill="#767B7F"/>
<path d="M286.745 56.2773C285.436 56.7522 284.142 57.2256 282.833 57.7261V228.599C284.162 228.77 285.436 229.021 286.745 229.179V56.2773Z" fill="#767B7F"/>
<path d="M645.696 138.49C644.402 137.514 643.106 136.539 641.777 135.577V222.226C643.093 222.476 644.402 222.779 645.696 223.017V138.49Z" fill="#767B7F"/>
<path d="M155.491 202.612L159.416 202.626V127.676C158.087 128.572 156.779 129.481 155.491 130.35V202.612Z" fill="#767B7F"/>
<path d="M347.904 39.957C346.602 40.181 345.294 40.3927 343.992 40.6423V232.594C345.315 232.594 346.602 232.608 347.904 232.608V39.957Z" fill="#767B7F"/>
<path d="M845.216 224.415C843.929 224.271 842.626 224.125 841.297 223.993V241.884C842.626 241.937 843.914 241.964 845.216 242.003V224.415Z" fill="#767B7F"/>
<path d="M881.308 227.587C880.028 227.522 878.733 227.404 877.41 227.311V242.896C878.733 242.923 880.028 242.949 881.308 242.976V227.587Z" fill="#767B7F"/>
<path d="M469.336 215.123C470.623 214.78 471.932 214.451 473.255 214.082V41.3386C471.932 41.0351 470.623 40.7196 469.336 40.416V215.123Z" fill="#767B7F"/>
<path d="M405.149 34.7939V228.315C406.445 228.116 407.754 227.984 409.07 227.787V34.7939H405.149Z" fill="#767B7F"/>
<path d="M769.113 238.363C770.422 238.429 771.737 238.521 773.046 238.613V213.792C771.709 213.516 770.408 213.252 769.113 212.963V238.363Z" fill="#767B7F"/>
<path d="M737.936 203.899C736.697 203.266 735.388 202.595 734.017 201.87V235.729C735.325 235.834 736.613 235.965 737.936 236.072V203.899Z" fill="#767B7F"/>
<path d="M695.926 231.689C697.227 231.847 698.487 232.005 699.83 232.176V178.951C698.543 178.003 697.249 177.066 695.926 176.065V231.689Z" fill="#767B7F"/>
<path d="M809.13 219.987C807.816 219.816 806.52 219.592 805.198 219.407V240.381C806.52 240.473 807.816 240.526 809.13 240.578V219.987Z" fill="#767B7F"/>
<path d="M163.217 150.755L173.896 137.291C174.502 136.54 175.475 136.079 176.554 136.185C177.605 136.263 178.503 136.843 178.962 137.687L185.778 150.044C180.522 154.563 169.238 155.96 163.217 150.755Z" fill="#B4ACA3"/>
<path d="M208.354 122.841L218.621 109.864C219.219 109.14 220.145 108.678 221.168 108.783C222.212 108.875 223.068 109.455 223.508 110.246L230.064 122.169C225.003 126.476 214.144 127.86 208.354 122.841Z" fill="#B4ACA3"/>
<path d="M258.978 99.9828L268.863 87.5187C269.413 86.8078 270.338 86.3989 271.313 86.465C272.315 86.5311 273.136 87.0842 273.554 87.8613L279.868 99.3364C274.988 103.474 264.553 104.791 258.978 99.9828Z" fill="#B4ACA3"/>
<path d="M313.496 84.181L322.969 72.2054C323.512 71.4931 324.382 71.1114 325.328 71.164C326.282 71.2571 327.076 71.7832 327.494 72.5481L333.543 83.5348C328.851 87.5402 318.842 88.7921 313.496 84.181Z" fill="#B4ACA3"/>
<path d="M361.707 75.6748L378.358 56.8485C379.297 55.7949 380.751 55.1757 382.311 55.4253C383.856 55.6236 385.095 56.545 385.701 57.7835L394.618 76.267C386.578 82.4593 370.06 83.6856 361.707 75.6748Z" fill="#B4ACA3"/>
<path d="M423.019 75.9486L443.149 59.6654C444.27 58.7696 445.849 58.4135 447.375 58.8749C448.913 59.3093 449.998 60.4291 450.374 61.8132L456.005 81.8374C446.824 86.7911 429.958 85.3691 423.019 75.9486Z" fill="#B4ACA3"/>
<path d="M488.235 90.6251L508.38 80.3883C509.501 79.8082 510.941 79.7827 512.111 80.441C513.316 81.0737 514.019 82.246 514.074 83.4709L514.944 101.349C506.222 103.919 492.265 99.7812 488.235 90.6251Z" fill="#B4ACA3"/>
<path d="M550.771 119.044L569.356 111.455C570.4 111.007 571.64 111.087 572.649 111.759C573.651 112.405 574.18 113.459 574.118 114.551L573.477 130.388C565.604 132.047 553.603 127.423 550.771 119.044Z" fill="#B4ACA3"/>
<path d="M606.813 149.953L624 144.353C624.961 144.051 626.082 144.196 626.931 144.842C627.774 145.487 628.163 146.488 628.052 147.463L626.333 161.626C619.135 162.548 608.749 157.661 606.813 149.953Z" fill="#B4ACA3"/>
<path d="M661.449 183.375L675.189 178.791C675.962 178.54 676.853 178.659 677.536 179.16C678.217 179.687 678.531 180.49 678.454 181.241L677.152 192.584C671.396 193.402 663.029 189.529 661.449 183.375Z" fill="#B4ACA3"/>
<path d="M709.717 208.905L719.706 202.766C720.283 202.437 721 202.345 721.633 202.608C722.268 202.924 722.692 203.49 722.775 204.109L723.924 213.398C719.539 215.071 712.175 213.516 709.717 208.905Z" fill="#B4ACA3"/>
<path d="M748.237 220.842L755.163 215.415C755.559 215.086 756.095 215.033 756.59 215.164C757.105 215.323 757.488 215.691 757.592 216.166L759.403 223.003C756.249 224.637 750.548 224.07 748.237 220.842Z" fill="#B4ACA3"/>
<path d="M787.295 223.515L793.08 220.3C793.406 220.129 793.81 220.115 794.186 220.275C794.548 220.458 794.756 220.787 794.799 221.144L795.266 226.387C792.738 227.244 788.582 226.189 787.295 223.515Z" fill="#B4ACA3"/>
<path d="M184.274 180.645C184.274 180.645 180.522 174.254 178.455 171.752C177.648 170.803 176.227 169.182 174.843 169.129C173.505 169.076 171.856 170.868 170.931 171.752C168.118 174.4 163.217 179.946 163.217 179.946C169.454 184.241 178.26 183.49 184.274 180.645Z" fill="#B4ACA3"/>
<path d="M228.74 160.846C228.74 160.846 224.384 154.865 222.218 152.783C221.376 151.914 219.845 150.583 218.55 150.635C217.242 150.715 215.912 152.573 215.153 153.508C212.871 156.208 208.658 162.204 208.658 162.204C215.028 165.668 223.269 164.126 228.74 160.846Z" fill="#B4ACA3"/>
<path d="M274.224 146.485C274.224 146.485 269.789 139.767 267.722 137.659C266.886 136.763 265.384 135.314 264.039 135.327C262.689 135.366 261.227 137.211 260.441 138.147C258.068 140.795 253.236 147.145 253.236 147.145C259.724 151.005 268.279 149.739 274.224 146.485Z" fill="#B4ACA3"/>
<path d="M331.399 135.223C331.399 135.223 325.991 128.042 323.603 126.013C322.643 125.065 320.854 123.643 319.135 123.643C317.421 123.668 315.521 125.421 314.463 126.369C311.568 128.899 304.795 135.63 304.795 135.63C312.765 139.61 323.534 138.477 331.399 135.223Z" fill="#B4ACA3"/>
<path d="M391.312 133.115C391.312 133.115 385.584 125.725 383.182 123.801C382.179 122.866 380.279 121.43 378.316 121.35C376.374 121.245 374.112 122.76 372.88 123.643C369.58 125.645 360.887 131.97 360.887 131.97C369.643 136.132 381.901 135.724 391.312 133.115Z" fill="#B4ACA3"/>
<path d="M452.052 141.176C452.052 141.176 447.284 134.43 445.398 132.888C444.646 132.019 443.065 130.807 441.332 130.635C439.627 130.464 437.594 131.544 436.466 132.177C433.675 133.599 425.176 138.606 425.176 138.606C432.652 142.506 443.393 142.809 452.052 141.176Z" fill="#B4ACA3"/>
<path d="M512.584 153.378C512.584 153.378 508.533 146.304 507.016 144.867C506.444 144.011 505.073 142.799 503.445 142.523C501.851 142.219 499.874 143.037 498.809 143.615C496.33 144.63 487.414 149.005 487.414 149.005C494.096 153.18 504.043 154.313 512.584 153.378Z" fill="#B4ACA3"/>
<path d="M570.006 172.073C570.006 172.073 566.742 165.078 565.607 163.852C565.189 163.075 564.083 161.941 562.746 161.692C561.403 161.427 559.746 162.14 558.841 162.679C556.969 163.536 548.789 167.949 548.789 167.949C554.282 171.862 562.579 172.916 570.006 172.073Z" fill="#B4ACA3"/>
<path d="M623.485 191.084C623.485 191.084 620.359 184.062 619.475 183.073C619.127 182.336 618.125 181.308 616.824 181.032C615.556 180.742 614.032 181.322 613.197 181.834C611.652 182.547 603.236 186.868 603.236 186.868C608.401 190.609 616.162 191.755 623.485 191.084Z" fill="#B4ACA3"/>
<path d="M675.761 213.264C675.761 213.264 674.028 205.86 673.637 205.32C673.569 204.608 672.865 203.726 671.78 203.251C670.701 202.83 669.363 203.015 668.591 203.356C667.742 203.555 658.282 206.413 658.282 206.413C662.23 210.379 668.626 212.566 675.761 213.264Z" fill="#B4ACA3"/>
<path d="M352.979 210.067C365.502 198.448 390.31 199.858 398.58 209.83L380.538 270.327C380.245 271.579 379.048 272.567 377.621 272.567C376.18 272.567 374.982 271.593 374.67 270.327L352.979 210.067Z" fill="#B4ACA3"/>
<path d="M292.036 207.207C304.587 195.613 333.913 198.446 339.94 211.962L311.353 272.67C310.873 273.897 309.612 274.687 308.207 274.528C306.78 274.37 305.728 273.317 305.547 272.039L292.036 207.207Z" fill="#B4ACA3"/>
<path d="M244.688 203.307C254.071 194.612 276.012 196.746 280.112 209.197L257.21 257.968C256.729 259.18 255.421 259.984 254.008 259.787C252.595 259.615 251.543 258.535 251.405 257.257L244.688 203.307Z" fill="#B4ACA3"/>
<path d="M197.555 196.682C206.938 187.96 228.886 190.094 232.986 202.572L210.607 246.586C210.036 247.719 208.741 248.444 207.363 248.194C206.006 247.984 205.018 246.942 204.878 245.69L197.555 196.682Z" fill="#B4ACA3"/>
<path d="M162.347 198.417C167.859 192.067 182.443 191.988 186.07 199.879L175.224 229.983C174.799 231.208 173.582 231.985 172.189 231.933C170.812 231.841 169.711 230.893 169.433 229.68L162.347 198.417Z" fill="#B4ACA3"/>
<path d="M415.966 204.611C427.187 191.845 452.03 190.897 461.338 200L449.727 255.135C449.497 256.335 448.495 257.31 447.131 257.454C445.779 257.639 444.533 256.94 444.011 255.807L415.966 204.611Z" fill="#B4ACA3"/>
<path d="M476.29 190.61C485.311 176.856 514.617 175.328 523.916 184.445L515.375 238.051C515.25 239.264 514.325 240.265 512.995 240.528C511.7 240.752 510.419 240.16 509.807 239.132L476.29 190.61Z" fill="#B4ACA3"/>
<path d="M541.32 192.278C550.23 182.225 578.324 187.035 580.566 197.733L570.487 234.661C570.194 235.753 569.214 236.61 567.925 236.754C566.652 236.914 565.468 236.254 564.918 235.266L541.32 192.278Z" fill="#B4ACA3"/>
<path d="M597.61 205.454C605.491 196.561 630.369 200.843 632.346 210.289L623.666 242.185C623.374 243.278 622.364 244.148 621.104 244.292C619.823 244.438 618.654 243.792 618.096 242.778L597.61 205.454Z" fill="#B4ACA3"/>
<path d="M654.016 220.66C660.357 213.519 680.328 216.944 681.929 224.533L675.337 248.722C675.045 249.841 674.028 250.724 672.768 250.842C671.5 250.973 670.332 250.342 669.754 249.327L654.016 220.66Z" fill="#B4ACA3"/>
<path d="M703.513 226.636C708.957 220.484 726.13 223.448 727.508 229.969L722.12 249.744C721.82 250.89 720.832 251.734 719.545 251.892C718.263 252.01 717.094 251.391 716.537 250.377L703.513 226.636Z" fill="#B4ACA3"/>
<path d="M741.472 233.003C745.984 227.405 761.165 229.354 762.648 235.007L758.937 251.672C758.687 252.805 757.741 253.714 756.473 253.898C755.206 254.083 753.988 253.516 753.383 252.501L741.472 233.003Z" fill="#B4ACA3"/>
<path d="M779.583 234.399C784.079 228.826 799.262 230.763 800.75 236.441L797.048 253.094C796.776 254.2 795.829 255.123 794.563 255.294C793.303 255.518 792.112 254.911 791.485 253.924L779.583 234.399Z" fill="#B4ACA3"/>
<path d="M117.749 147.293C121.827 150.639 125.273 154.882 127.675 159.861C130.07 164.842 131.169 170.032 131.169 175.197V206.855C131.169 213.812 128.378 220.807 122.747 226.142C117.129 231.478 109.737 234.112 102.344 234.112H71.0066C68.8896 234.112 66.7469 233.982 64.6028 233.639C62.4516 233.296 60.3559 232.809 58.3587 232.177L48.9328 229.225L32.0039 231.109C28.3159 231.53 24.5281 231.228 20.756 230.068C16.9896 228.909 13.7179 226.999 11.0249 224.614L-0.00195312 214.865L1.30669 203.153C2.20481 194.998 5.11449 186.936 10.2238 179.624C15.3188 172.337 22.0362 166.647 29.589 162.681C29.589 162.681 58.567 146.608 69.698 143.157C74.8344 141.576 91.9029 138.585 91.9029 138.585C95.9545 138.098 100.207 138.4 104.37 139.613C108.561 140.825 112.263 142.787 115.361 145.344L117.749 147.293Z" fill="#C37930"/>
<path d="M33.7659 215.274C38.8681 207.974 18.8486 189.333 26.4213 185.341C26.4213 185.341 53.8339 164.447 73.1706 160.771C89.0559 157.768 110.983 162.167 130.23 167.042C129.638 164.618 128.81 162.207 127.675 159.861C125.273 154.882 121.827 150.639 117.749 147.293L115.361 145.344C112.263 142.787 108.561 140.825 104.37 139.613C100.207 138.4 95.9545 138.098 91.9029 138.585C91.9029 138.585 74.8344 141.576 69.698 143.157C58.567 146.608 29.589 162.681 29.589 162.681C22.0362 166.647 15.3188 172.337 10.2238 179.624C5.11449 186.936 2.20481 194.998 1.30669 203.153L-0.00195312 214.865L11.0249 224.614C13.7179 226.999 16.9896 228.909 20.756 230.068C21.6812 230.344 22.6422 230.609 23.5745 230.78C26.8534 225.537 29.1641 221.86 33.7659 215.274Z" fill="#858C8D"/>
<path d="M85.9453 174.494C85.9453 168.395 80.7104 163.441 74.2582 163.441C67.7988 163.441 62.5713 168.395 62.5713 174.494C62.5713 180.62 67.7988 185.574 74.2582 185.574C80.7104 185.574 85.9453 180.62 85.9453 174.494Z" fill="#876139"/>
<path d="M82.1931 174.497C82.1931 170.347 78.6292 167 74.2569 167C69.8789 167 66.335 170.347 66.335 174.497C66.335 178.673 69.8789 182.033 74.2569 182.033C78.6292 182.033 82.1931 178.673 82.1931 174.497Z" fill="black"/>
<path d="M76.1308 174.494C76.1308 173.518 75.2739 172.741 74.2574 172.741C73.221 172.741 72.3984 173.518 72.3984 174.494C72.3984 175.481 73.221 176.272 74.2574 176.272C75.2739 176.272 76.1308 175.481 76.1308 174.494Z" fill="white"/>
<path d="M97.4082 137.831L162.805 126.344C164.046 126.12 165.347 126.673 165.973 127.74C166.601 128.86 166.37 130.177 165.5 131.061L129.894 166.131C115.841 161.321 105.553 151.112 97.4082 137.831Z" fill="#B4ACA3"/>
<path d="M116.044 180.87L141.43 221.802C142.112 222.896 141.994 224.332 141.012 225.307C140.051 226.294 138.548 226.493 137.33 225.926L91.792 204.241C96.6789 190.817 104.558 182.687 116.044 180.87Z" fill="#B4ACA3"/>
<path d="M30.1465 213.005L0.026543 214.599L-0.00195312 214.862L3.22137 217.707L30.3346 216.311C31.2884 216.258 32.0254 215.481 31.977 214.586C31.9071 213.676 31.0859 212.952 30.1465 213.005Z" fill="#63676A"/>
<path d="M12.5485 190.699C10.6339 194.111 8.83203 201.16 8.83203 201.16C8.83203 201.16 14.3092 196.008 16.1268 192.543C17.1703 190.541 16.9066 189.381 15.9315 188.867C14.9364 188.367 13.5792 188.855 12.5485 190.699Z" fill="#63676A"/>
<path d="M636.808 131.903L652.116 120.388C653.034 119.703 653.5 118.504 653.145 117.371C652.79 116.225 651.775 115.46 650.604 115.342L606.668 110.362C613.545 118.82 620.777 127.146 636.808 131.903Z" fill="#B4ACA3"/>
<path d="M688.645 170.697L703.751 159.288C704.676 158.563 705.115 157.432 704.78 156.246C704.447 155.126 703.409 154.375 702.254 154.256L660.475 149.513C665.793 158.129 672.934 165.863 688.645 170.697Z" fill="#B4ACA3"/>
<path d="M526.472 61.7976L533.44 37.7667C533.732 36.8183 533.44 35.7511 532.612 34.9606C531.755 34.2226 530.6 34.0122 529.576 34.3414L490.832 46.6733C498.586 53.2203 508.325 59.7551 526.472 61.7976Z" fill="#B4ACA3"/>
<path d="M581.928 93.7901L592.168 73.4879C592.649 72.5651 592.572 71.4334 591.89 70.5767C591.2 69.6931 590.108 69.3113 589.043 69.4435L550.562 74.6211C558.095 82.5252 567.66 89.5338 581.928 93.7901Z" fill="#B4ACA3"/>
<path d="M745.983 207.208C752.344 209.053 759.159 210.766 766.273 212.347L770.554 204.468C771.042 203.612 770.93 202.478 770.219 201.649C769.489 200.858 768.347 200.582 767.309 200.858L745.947 207.195C745.969 207.208 745.976 207.208 745.983 207.208Z" fill="#B4ACA3"/>
<path d="M802.775 219.039L805.679 213.715C806.089 212.952 806.012 211.99 805.392 211.291C804.78 210.607 803.819 210.356 802.936 210.646L784.677 216.034C789.786 218.155 795.528 219.539 802.775 219.039Z" fill="#B4ACA3"/>
<path d="M731.49 200.411L742.996 189.226C743.929 188.343 744.242 186.986 743.692 185.761C743.129 184.549 741.876 183.863 740.56 183.863L706.91 184.101C712.688 192.295 720.374 198.171 731.49 200.411Z" fill="#B4ACA3"/>
<path d="M277.968 59.5866L271.975 30.5372C271.731 29.3905 270.729 28.403 269.413 28.2316C268.083 28.0994 266.866 28.759 266.301 29.8262L242.87 75.3301C254.628 74.8688 266.197 68.7036 277.968 59.5866Z" fill="#B4ACA3"/>
<path d="M231.789 81.1781L224.502 54.9737C224.188 53.8148 223.094 52.9191 221.773 52.853C220.422 52.8139 219.238 53.5909 218.794 54.7242L200.778 99.5037C210.927 95.5388 221.544 90.3342 231.789 81.1781Z" fill="#B4ACA3"/>
<path d="M186.648 108.781L181.386 88.044C181.087 86.8447 179.979 85.9355 178.601 85.8573C177.265 85.7911 176.06 86.6087 175.635 87.7676L161.275 126.355C169.886 122.166 181.114 119.15 186.648 108.781Z" fill="#B4ACA3"/>
<path d="M457.203 38.0849L458.852 9.56152C458.915 8.4418 458.289 7.34902 457.154 6.83502C456.005 6.33452 454.732 6.54513 453.861 7.26957L420.846 34.9886C431.858 40.8773 459.465 41.1675 457.203 38.0849Z" fill="#B4ACA3"/>
<path d="M395.231 35.0439L388.068 2.27925C387.839 1.17166 386.914 0.250252 385.673 0.0519396C384.407 -0.172005 383.224 0.408025 382.577 1.35642L358.422 38.2844C368.689 40.907 380.105 42.1845 395.231 35.0439Z" fill="#B4ACA3"/>
<path d="M330.744 43.3416L328.002 14.8452C327.89 13.6459 326.979 12.5923 325.642 12.3157C324.334 12.0392 323.053 12.6329 322.406 13.6865L298.815 52.1024C309.423 51.9715 320.456 52.0376 330.744 43.3416Z" fill="#B4ACA3"/>
</g>
<defs>
<clipPath id="clip0_2175_458">
<rect width="1000" height="357.143" fill="white"/>
</clipPath>
</defs>
</svg>
