<svg width="600" height="600" viewBox="0 0 600 600" fill="none" xmlns="http://www.w3.org/2000/svg">
<g clip-path="url(#clip0_1956_1775)">
<g opacity="0.3">
<path d="M301.162 599.625C266.911 595.942 236.349 566.793 204.934 550.563C172.43 533.687 133.893 524.975 107.07 498.672C80.1681 472.463 70.2566 433.914 52.4599 401.788C35.3331 370.732 5.67111 341.054 0.711133 306.772C-4.25012 272.498 17.9962 241.753 28.7471 210.213C39.8464 177.578 41.3146 139.115 66.8132 111.884C92.3792 84.5571 137.053 73.765 174.058 55.1502C209.703 37.2479 245.192 6.55255 288.159 0.596021C331.134 -5.36125 368.367 35.0558 405.171 45.3878C443.361 56.0372 489.155 56.7973 516.584 82.5246C543.931 108.335 547.386 135.53 560.16 173.267C572.548 209.618 596.428 245.764 592.677 289.672C588.916 333.586 559.984 371.637 543.828 409.092C527.026 447.968 518.262 494.418 492.154 522.229C466.142 549.956 427.959 553.507 395.993 566.496C365.104 579.087 335.413 603.298 301.162 599.625Z" fill="#D1BE8F"/>
</g>
<path d="M599.642 301.383C596.132 334.84 568.347 364.695 552.875 395.382C536.789 427.133 528.484 464.777 503.411 490.979C478.429 517.258 441.683 526.94 411.059 544.325C381.456 561.055 353.166 590.03 320.488 594.875C287.816 599.722 258.51 577.991 228.445 567.489C197.337 556.647 160.673 555.212 134.715 530.304C108.667 505.33 98.3794 461.691 80.6353 425.543C63.5705 390.723 34.3108 356.056 28.633 314.085C22.9543 272.104 43.7875 235.734 53.6363 199.782C63.7877 162.477 64.5122 117.743 89.0361 90.9493C113.639 64.2358 157.255 60.8608 193.227 48.3825C227.878 36.2816 262.333 12.9537 304.188 16.6179C346.047 20.2927 382.319 48.5539 418.021 64.3364C455.079 80.7495 499.356 89.3102 525.866 114.814C552.296 140.224 555.682 177.522 568.063 208.747C580.066 238.922 603.144 267.925 599.642 301.383Z" fill="#D1BE8F"/>
<path d="M31.5205 205.218C39.5614 165.71 73.196 142.321 95.7503 114.742C119.064 86.0877 136.121 47.9249 170.881 34.1262C205.704 20.4014 250.702 33.0599 291.08 34.4747C330.012 35.8059 373.278 27.044 412.588 43.0405C451.844 58.9751 475.064 93.9654 502.374 118.007C530.752 143.005 568.426 162.323 582.087 192.26C595.677 222.122 583.285 257.594 581.99 290.576C580.77 322.4 589.555 356.611 573.895 388.988C558.293 421.427 523.808 443.933 500.181 470.444C475.615 497.862 456.701 534.208 427.315 552.922C398.007 571.695 363.17 568.452 330.925 574.573C299.796 580.471 266.595 598.553 234.989 589.759C203.318 580.918 180.955 546.819 154.72 523.85C127.601 500.095 91.7907 482.601 72.7347 447.724C53.6062 412.79 55.8088 367.87 48.9677 327.349C42.3788 288.29 23.5408 244.771 31.5205 205.218Z" fill="#F4E3B3"/>
<path d="M259.225 502.882C247.005 499.881 235.091 499.782 225.304 501.953C215.001 504.239 206.653 506.869 202.411 513.727C201.036 515.952 200.055 518.378 199.558 521.001C197.856 529.99 206.228 537.088 214.303 545.341C222.749 553.972 231.268 563.637 246.225 567.309C275.482 574.492 302.024 565.405 305.508 547.012C305.953 544.665 305.996 542.28 305.68 539.89C304.487 530.868 299.474 517.466 289.708 510.074C281.787 504.078 270.657 505.688 259.225 502.882Z" fill="#D1BE8F"/>
<path d="M249.25 552.914C240.787 550.836 227.167 546.603 220.492 542.643C207.035 534.658 203.856 524.65 202.412 513.727C201.036 515.951 200.056 518.377 199.559 521C197.856 529.99 203.708 538.944 211.783 547.197C220.228 555.828 231.269 563.637 246.226 567.309C253.255 569.035 261.961 571.614 268.394 571.558C288.739 571.381 302.862 560.986 305.509 547.012C305.954 544.665 305.996 542.28 305.68 539.89C300.662 548.003 289.705 550.739 276.645 552.301C268.18 553.313 259.115 555.336 249.25 552.914Z" fill="#AF9A6D"/>
<path d="M108.067 270.977C106.638 261.535 103.307 253.135 99.0273 246.878C94.5209 240.29 90.3366 235.176 84.4241 234.151C82.5068 233.819 80.5638 233.823 78.6237 234.222C71.9743 235.59 69.4962 243.497 66.1411 251.525C62.632 259.921 58.4356 268.664 60.1845 280.22C63.6054 302.826 77.407 318.883 91.0117 316.084C92.7477 315.727 94.395 315.077 95.9437 314.173C101.789 310.761 109.548 303.416 111.831 294.446C113.682 287.17 109.404 279.809 108.067 270.977Z" fill="#D1BE8F"/>
<path d="M70.916 278.239C69.9264 271.7 68.9432 260.923 69.7546 255.103C71.3905 243.37 77.3455 238.282 84.4231 234.151C82.5057 233.819 80.5628 233.823 78.6227 234.222C71.9733 235.59 67.5033 242.255 64.1483 250.283C60.6392 258.679 58.4346 268.664 60.1834 280.22C61.0054 285.651 61.7199 292.504 63.5934 297.008C69.5182 311.253 80.6745 318.21 91.0107 316.084C92.7467 315.727 94.394 315.077 95.9426 314.173C88.9481 312.962 83.9466 306.043 79.1507 297.312C76.0419 291.653 72.0695 285.861 70.916 278.239Z" fill="#AF9A6D"/>
<path d="M402.785 155.039C411.903 163.805 422.184 169.901 431.738 172.955C441.796 176.171 450.328 178.102 457.382 174.296C459.669 173.061 461.714 171.452 463.435 169.429C469.337 162.494 465.572 152.116 462.633 140.888C459.56 129.144 456.931 116.468 445.771 105.739C423.941 84.7524 396.456 79.2421 384.381 93.4311C382.84 95.2418 381.629 97.2879 380.727 99.5195C377.32 107.944 375.069 122.092 379.897 133.426C383.813 142.621 394.255 146.839 402.785 155.039Z" fill="#D1BE8F"/>
<path d="M436.062 116.694C442.377 122.764 452.102 133.305 455.94 140.105C463.677 153.816 461.506 164.097 457.381 174.296C459.669 173.061 461.713 171.453 463.435 169.429C469.336 162.494 468.67 151.779 465.732 140.551C462.659 128.807 456.931 116.468 445.771 105.739C440.526 100.697 434.248 94.069 428.642 90.8721C410.916 80.7627 393.554 82.6513 384.38 93.4314C382.84 95.242 381.629 97.2881 380.726 99.5198C389.071 95.0166 399.918 98.1721 412.009 103.406C419.847 106.799 428.701 109.618 436.062 116.694Z" fill="#AF9A6D"/>
<path d="M210.083 122.151C220.147 115.111 224.46 105.297 228.666 96.6191C232.764 88.1628 236.917 80.8446 234.379 73.7317C233.524 71.3347 232.276 69.0899 230.586 67.0632C218.733 52.8502 187.752 48.5248 164.575 64.7358C141.399 80.9469 134.804 111.555 146.657 125.768C148.169 127.582 149.954 129.134 151.96 130.435C159.674 135.436 173.805 133.976 185.577 131.576C194.733 129.71 201.237 128.338 210.083 122.151Z" fill="#D1BE8F"/>
<path d="M174.882 79.4503C183.304 73.5591 192.407 71.8371 201.163 69.8601C213.427 67.0913 226.378 68.5442 234.379 73.7321C233.524 71.3351 232.276 69.0904 230.586 67.0637C222.785 57.7098 211.284 48.9933 195.357 53.0003C187.082 55.082 172.263 56.2746 164.339 61.817C155.823 67.7731 149.498 79.3344 145.111 86.6351C137.557 99.2047 135.858 111.491 143.356 120.482C144.053 121.318 144.868 123.556 146.433 125.493C148.262 127.758 150.879 129.734 151.96 130.435C148.416 120.501 147.098 107.912 156.088 96.465C160.141 91.3044 168.707 83.7692 174.882 79.4503Z" fill="#AF9A6D"/>
<path d="M392.159 265.991C392.159 278.15 364.831 318.001 353.483 327.013C344.601 334.067 336.12 383.393 322.589 387.139C311.14 390.309 297.42 384.784 283.979 384.784C270.538 384.784 238.485 353.186 227.035 350.017C213.504 346.271 205.022 334.067 196.139 327.013C184.791 318.001 185.507 310.051 185.507 297.892C185.507 285.733 203.127 277.09 214.475 268.078C223.358 261.025 231.839 230.259 245.369 226.513C256.819 223.344 270.538 228.868 283.979 228.868C297.42 228.868 311.138 204.782 322.587 207.952C336.119 211.697 344.601 261.024 353.484 268.078C364.832 277.09 392.159 253.832 392.159 265.991Z" fill="#AF9A6D"/>
<path d="M392.158 265.993C392.158 278.152 361.163 305.009 349.815 314.021C340.932 321.075 332.451 370.402 318.921 374.147C307.471 377.317 293.752 371.792 280.311 371.792C266.87 371.792 234.816 340.194 223.367 337.025C209.836 333.279 201.353 321.075 192.471 314.021C181.123 305.009 186.799 296.713 186.799 284.554C186.799 272.395 199.459 264.098 210.807 255.086C219.689 248.033 228.17 217.267 241.701 213.522C253.151 210.352 266.87 215.877 280.311 215.877C293.752 215.877 307.47 191.791 318.919 194.96C332.45 198.706 340.933 248.033 349.815 255.087C361.163 264.099 392.158 253.834 392.158 265.993Z" fill="#D1BE8F"/>
<path d="M432.214 486.645C452.385 487.529 447.699 467.541 451.575 454.845C454.863 438.37 466.41 443.137 477.511 432.024C485.547 424.362 494.477 406.531 494.538 395.356C495.106 388.885 488.958 385.536 493.179 379.394C495.411 374.936 505.862 371.219 510.672 368.856C519.378 364.05 535.552 358.052 537.439 347.041C538.921 340.652 531.94 336.297 533.585 328.059C535.898 322.677 546.349 318.959 546.918 312.489C547.815 307.183 541.47 296.734 539.573 294.313C529.328 281.243 490.564 312.248 483.441 322.613C476.074 333.131 475.587 338.677 463.066 345.004C450.545 351.33 445.898 351.844 439.2 365.217C433.741 374.974 431.935 385.061 422.153 391.634C413.285 398.29 401.17 399.994 394.797 409.669C379.07 431.547 409.306 443.586 411.172 464.252C412.186 473.661 393.945 483.02 403.259 492.245C409.996 499.373 426.755 496.402 431.139 488.411L432.214 486.645Z" fill="#AF9A6D"/>
<path d="M427.223 480.605C447.394 481.489 442.707 461.501 446.584 448.806C449.872 432.331 461.418 437.097 472.519 425.984C480.556 418.322 489.485 400.491 489.547 389.316C490.115 382.845 483.967 379.496 488.188 373.354C490.42 368.897 500.871 365.179 505.681 362.817C514.387 358.01 530.56 352.012 532.448 341.001C533.93 334.613 526.949 330.257 528.593 322.02C530.907 316.638 541.358 312.92 541.927 306.449C547.671 272.492 486.892 304.29 478.45 316.574C471.083 327.091 470.596 332.638 458.075 338.964C445.554 345.291 440.907 345.804 434.209 359.177C428.75 368.935 426.943 379.021 417.162 385.595C408.294 392.25 396.179 393.954 389.806 403.63C374.078 425.507 404.314 437.546 406.18 458.213C407.194 467.621 393.029 482.185 402.343 491.409C409.08 498.538 421.764 490.363 426.147 482.372L427.223 480.605Z" fill="#D1BE8F"/>
<path d="M177.632 429.332C171.214 417.267 166.63 406.13 155.629 396.849C147.378 389.425 138.21 377.36 128.126 370.863C120.791 366.223 107.956 352.302 100.622 358.799C100.622 358.799 75.869 384.785 80.453 394.993C85.0369 407.058 99.7054 416.339 103.373 430.26C107.04 445.109 101.539 455.318 113.457 467.383C121.708 476.663 137.293 486.872 149.212 485.016C159.296 483.16 184.049 476.053 191.384 461.814C200.551 448.821 183.133 440.469 177.632 429.332Z" fill="#AF9A6D"/>
<path d="M183.133 423.763C176.715 411.698 172.132 400.561 161.13 391.281C152.879 383.856 143.711 371.791 133.627 365.295C126.292 360.654 107.957 352.302 100.623 358.798C100.623 358.798 83.2037 382.928 87.7876 393.137C92.3715 405.202 107.04 408.914 110.707 422.835C114.374 437.684 107.04 449.749 118.958 461.814C127.209 471.095 142.794 477.591 154.713 475.735C164.797 473.879 186.8 469.239 191.384 461.814C200.552 448.821 188.634 434.9 183.133 423.763Z" fill="#D1BE8F"/>
<g opacity="0.5">
<path d="M509.575 233.544C510.161 238.896 508.619 240.888 503.677 245.31C498.827 249.18 490.577 255.48 479.884 256.697C469.808 257.428 465.082 256.347 459.394 252.534C454.336 248.799 448.316 242.332 450.192 234.066C455.771 221.176 465.243 211.161 479.884 210.912C486.847 212.636 490.084 215.673 495.766 219.422C500.83 223.221 508.34 227.733 509.575 233.544Z" fill="#D1BE8F"/>
</g>
<g opacity="0.5">
<path d="M148.088 259.242C149.956 258.505 173.071 285.928 190.618 249.177C214.55 210.332 197.487 180.808 256.046 162.316C319.809 142.003 325.589 109.583 298.613 110.705C286.702 110.806 252.253 121.987 224.345 136.382C195.554 150.877 173.305 192.718 165.395 208.196C157.608 223.71 140.799 192.959 125.447 189.019C110.679 184.899 97.3684 183.46 110.027 205.166C132.737 249.475 140.822 254.301 148.088 259.242Z" fill="#D1BE8F"/>
</g>
<g opacity="0.5">
<path d="M340.205 449.194C340.947 469.758 324.338 483.061 309.179 475.291C294.751 473.332 278.169 459.219 278.153 450.124C271.506 440.978 288.118 427.672 309.179 424.026C318.21 420.831 330.342 419.422 335.992 424.622C342.243 429.243 342.012 440.473 340.205 449.194Z" fill="#D1BE8F"/>
</g>
</g>
<defs>
<clipPath id="clip0_1956_1775">
<rect width="600" height="600" fill="white"/>
</clipPath>
</defs>
</svg>
