<svg width="701" height="701" viewBox="0 0 701 701" fill="none" xmlns="http://www.w3.org/2000/svg">
<g clip-path="url(#clip0_1276_7645)">
<path d="M700.5 350.814C700.433 425.203 676.666 497.636 632.648 557.604C588.63 617.573 526.65 661.956 455.7 684.316C384.751 706.675 308.522 705.847 238.075 681.952C167.628 658.058 106.626 612.339 63.9208 551.429C21.2152 490.519 -0.972816 417.587 0.575897 343.213C2.12461 268.84 27.3295 196.895 72.5337 137.815C117.738 78.736 180.59 35.5962 251.971 14.6548C323.352 -6.28671 399.548 -3.94037 469.505 21.3532C476.931 24.0413 484.233 26.9693 491.41 30.1374C545.768 54.1202 593.146 91.5136 629.101 138.812C629.661 139.495 630.186 140.199 630.711 140.919C676.134 201.457 700.629 275.129 700.5 350.814Z" fill="#C0C0DB"/>
<path d="M666.75 288.661C666.73 336.792 655.735 384.284 634.601 427.526C613.466 470.768 582.749 508.62 544.784 538.205C506.82 567.79 462.609 588.327 415.514 598.255C368.419 608.183 319.68 607.241 273.004 595.5C226.328 583.758 182.944 561.527 146.152 530.496C109.36 499.466 80.1287 460.455 60.6816 416.428C41.2346 372.402 32.0837 324.52 33.9251 276.425C35.7665 228.33 48.5516 181.288 71.3081 138.877C101.928 98.5902 140.888 65.3914 185.523 41.5511C211.113 27.871 238.323 17.467 266.511 10.5844C333.763 -5.87061 404.374 -2.12485 469.507 21.3528C476.933 24.0408 484.234 26.9689 491.411 30.137C545.769 54.1198 593.147 91.5132 629.103 138.812C653.904 184.859 666.842 236.36 666.75 288.661Z" fill="#D3D3DE"/>
<path d="M630.605 253.105C630.559 303.625 614.417 352.817 584.522 393.543C554.627 434.269 512.534 464.41 464.349 479.594C416.164 494.779 364.395 494.216 316.552 477.988C268.709 461.76 227.281 430.71 198.278 389.344C169.275 347.978 154.207 298.447 155.259 247.937C156.31 197.428 173.428 148.567 204.127 108.444C234.827 68.3209 277.512 39.0228 325.989 24.8002C374.466 10.5776 426.214 12.17 473.725 29.3471C478.765 31.178 483.724 33.1666 488.601 35.3123C525.519 51.6032 557.696 77.0012 582.115 109.126C582.495 109.584 582.853 110.07 583.207 110.55C614.056 151.666 630.693 201.702 630.605 253.105Z" fill="#DDDDFD"/>
<path d="M467.712 142.153C467.216 228.842 445.315 336.637 401.664 447.419C380.42 501.767 354.568 554.199 324.389 604.142C306.184 634.237 285.915 663.032 263.726 690.322C205.4 675.41 151.89 645.744 108.342 604.175C64.7946 562.607 32.6735 510.533 15.0676 452.962C21.8113 426.192 32.2548 400.492 46.0965 376.606C116.565 253.734 275.604 162.57 467.712 142.153Z" fill="#B7331C"/>
<path d="M638.473 549.883C650.199 515.098 656.155 478.628 656.104 441.92C656.113 423.181 654.572 404.473 651.497 385.988C642.54 331.785 620.303 280.643 586.772 237.126C553.24 193.608 509.456 159.068 459.328 136.589C484.537 131.145 510.255 128.405 536.046 128.416C567.837 128.36 599.494 132.534 630.184 140.827C630.362 140.851 630.538 140.892 630.708 140.951C674.653 199.719 699.042 270.799 700.435 344.167C701.828 417.536 680.155 489.49 638.473 549.884V549.883Z" fill="#3C6AB8"/>
<path d="M492.059 49.5302C492.057 63.5627 491.011 77.5758 488.931 91.4531C486.894 105.451 483.76 119.267 479.558 132.773C478.385 136.712 477.082 140.577 475.691 144.413C475.569 144.85 475.415 145.278 475.258 145.714L473.684 143.389C471.733 140.512 469.691 137.671 467.587 134.881C455.255 118.522 441.134 103.592 425.486 90.3703C393.339 63.4899 356.933 42.1604 317.767 27.2598C301.017 20.7175 283.902 15.1497 266.509 10.5844C333.76 -5.87061 404.371 -2.12485 469.504 21.3528C476.93 24.0408 484.231 26.9687 491.409 30.1368C491.561 32.3385 491.687 34.5326 491.78 36.7562C491.963 40.9933 492.059 45.2361 492.059 49.5302Z" fill="#6FAF44"/>
<path d="M666.747 288.662C666.779 321.702 661.634 354.542 651.497 385.987C646.64 356.859 637.955 328.5 625.668 301.647C592.149 228.223 533.009 169.539 459.328 136.589C505.142 126.727 552.427 125.779 598.599 133.799C609.332 135.659 619.861 138.001 630.184 140.825C654.281 186.371 666.835 237.134 666.747 288.662Z" fill="#4275CC"/>
<path d="M467.714 142.153C467.218 228.841 445.317 336.637 401.666 447.418C395.852 462.212 389.789 476.681 383.478 490.825C366.23 529.824 346.493 567.674 324.391 604.142C261.155 599.031 200.92 575.015 151.515 535.214C102.11 495.414 65.8211 441.672 47.3659 380.973C46.9338 379.52 46.4995 378.06 46.0981 376.607C71.619 332.126 108.742 291.793 154.834 257.477C236.072 197.003 345.147 155.173 467.714 142.153Z" fill="#DC3E22"/>
<path d="M492.06 49.5318C492.058 63.5643 491.012 77.5773 488.932 91.4547C486.895 105.452 483.761 119.268 479.559 132.775C478.386 136.713 477.083 140.579 475.692 144.415C475.57 144.851 475.416 145.28 475.259 145.715L473.684 143.39C471.734 140.513 469.692 137.672 467.588 134.882C455.256 118.524 441.135 103.594 425.487 90.3719C393.34 63.4914 356.934 42.1619 317.768 27.2613C323.677 25.2775 329.741 23.5175 335.865 22.0298C381.535 10.8718 429.48 13.4142 473.713 29.3392C478.756 31.1632 483.737 33.1682 488.592 35.297C489.642 35.7692 490.728 36.2637 491.78 36.7578C491.963 40.9949 492.06 45.2377 492.06 49.5318Z" fill="#7EC94D"/>
<path d="M467.713 142.153C467.217 228.842 445.317 336.637 401.665 447.419C395.851 462.212 389.789 476.681 383.477 490.825C322.759 488.533 265.226 463.07 222.701 419.67C180.176 376.27 155.89 318.229 154.834 257.477C236.071 197.003 345.147 155.174 467.713 142.153Z" fill="#DD4D27"/>
<path d="M630.621 253.118C630.63 269.42 628.972 285.681 625.673 301.647C592.154 228.223 533.014 169.539 459.333 136.589C505.147 126.727 552.432 125.779 598.604 133.799C619.638 170.042 630.685 211.214 630.621 253.118Z" fill="#4B84E9"/>
<path d="M500.342 99.2647C528.218 121.709 537.345 156.635 520.727 177.278C504.112 197.913 468.039 196.445 440.164 174.001C412.289 151.557 403.161 116.632 419.779 95.9954C436.395 75.3534 472.466 76.8136 500.342 99.2647Z" fill="#CECEEB"/>
</g>
<defs>
<clipPath id="clip0_1276_7645">
<rect width="701" height="701" fill="white"/>
</clipPath>
</defs>
</svg>
