<svg width="600" height="600" viewBox="0 0 600 600" fill="none" xmlns="http://www.w3.org/2000/svg">
<g clip-path="url(#clip0_1276_7608)">
<g clip-path="url(#clip1_1276_7608)">
<path d="M600 300.503C600.067 342.489 591.267 384.015 574.175 422.364C573.172 424.63 572.14 426.836 571.102 429.065V429.101C569.71 432.05 568.247 434.97 566.76 437.884C566.141 439.117 565.498 440.314 564.849 441.512C564.265 442.644 563.646 443.747 563.032 444.85C562.024 446.697 561.021 448.507 559.953 450.324C558.915 452.1 557.883 453.852 556.815 455.604C534.323 492.85 503.999 524.757 467.944 549.112C431.889 573.467 390.968 589.688 348.018 596.648C340.309 597.91 332.469 598.877 324.53 599.497C316.466 600.181 308.261 600.5 300.003 600.5C235.082 600.613 171.895 579.561 120.015 540.533C112.754 535.083 105.754 529.324 99.0158 523.256C67.8098 495.149 42.8669 460.791 25.808 422.414C8.74911 384.037 -0.0439376 342.5 0.000165083 300.503V299.919C0.0354944 291.885 0.353696 283.91 1.0028 276.07C1.29749 272.118 1.68686 268.225 2.1711 264.344C11.1631 189.807 47.8471 121.374 104.944 72.6239C105.203 72.3938 105.463 72.1752 105.723 71.9455C109.681 68.5418 113.698 65.3033 117.845 62.124C121.602 59.2453 125.425 56.4709 129.312 53.8008C129.672 53.5118 130.055 53.2463 130.445 52.9869C164.093 29.8446 202.145 13.8758 242.231 6.07449C252.213 4.10351 262.292 2.66608 272.427 1.76832C281.499 0.919111 290.691 0.496394 300.003 0.500195C336.333 0.458694 372.367 7.03695 406.339 19.9127C414.892 23.1451 423.253 26.763 431.421 30.7664C487.099 57.953 533.027 101.665 562.932 155.931C583.345 192.987 595.639 233.962 598.997 276.135C599.681 284.175 600 292.304 600 300.503Z" fill="#BF5E1B"/>
<path d="M598.998 276.135C596.331 309.767 587.937 342.696 574.176 373.499C570.873 380.985 567.266 388.297 563.358 395.437C562.255 397.478 561.128 399.483 559.954 401.465C559.925 401.524 559.854 401.624 559.824 401.69C556.326 407.718 552.622 413.617 548.711 419.386C547.479 421.226 546.216 423.073 544.924 424.889C521.926 457.439 492.666 485.075 458.855 506.177C425.045 527.279 387.364 541.423 348.02 547.783C340.31 549.051 332.471 550.024 324.531 550.638C316.467 551.322 308.262 551.641 300.004 551.641C235.082 551.756 171.892 530.699 120.017 491.663C112.755 486.224 105.755 480.471 99.0171 474.403C42.2237 423.23 7.15633 352.27 1.00391 276.07C1.2986 272.118 1.68797 268.225 2.1722 264.344C11.1254 189.794 47.8166 121.348 104.945 72.6238C105.205 72.3937 105.464 72.1752 105.724 71.9455C113.25 65.4721 121.125 59.4149 129.313 53.8008C129.673 53.5118 130.056 53.2464 130.445 52.9869C164.094 29.8446 202.145 13.8758 242.232 6.07446C252.213 4.10348 262.293 2.66605 272.427 1.7683C281.5 0.919083 290.692 0.496394 300.004 0.500195C336.334 0.458694 372.368 7.03692 406.34 19.9126C414.893 23.1451 423.254 26.763 431.421 30.7664C487.099 57.953 533.028 101.665 562.933 155.931C569.413 167.682 575.087 179.859 579.915 192.379C583.219 200.897 586.135 209.59 588.664 218.458C593.983 237.3 597.445 256.618 598.998 276.135Z" fill="#D16F21"/>
<path d="M588.662 218.458C584.794 232.083 579.952 245.413 574.175 258.345C569.949 267.92 565.202 277.256 559.953 286.31C515.76 362.876 438.676 418.088 348.018 432.628C340.308 433.897 332.469 434.87 324.529 435.483C316.466 436.162 308.261 436.486 300.002 436.486C235.081 436.604 171.891 415.549 120.015 376.514C112.754 371.075 105.754 365.318 99.0155 359.242C57.153 321.482 26.778 272.689 11.3726 218.458C26.6897 164.614 56.7835 116.137 98.243 78.5224C100.703 76.287 103.198 74.0864 105.722 71.9455C113.61 65.179 121.863 58.85 130.444 52.9869C164.092 29.8446 202.144 13.8758 242.23 6.07446C252.212 4.10348 262.291 2.66605 272.426 1.7683C281.498 0.919083 290.69 0.496394 300.002 0.500195C336.332 0.458694 372.366 7.03692 406.338 19.9126C414.891 23.1451 423.252 26.763 431.419 30.7664C487.083 57.9734 533.006 101.68 562.931 155.931C565.102 159.877 567.198 163.895 569.219 167.982C573.136 175.922 576.701 184.054 579.914 192.379C581.205 195.683 582.409 199.021 583.571 202.389C585.417 207.675 587.104 213.049 588.662 218.458Z" fill="#D77B23"/>
<path d="M511.39 141.603C511.436 171.186 505.241 200.445 493.21 227.471C490.221 234.214 486.865 240.789 483.159 247.167C467.492 274.362 445.963 297.725 420.137 315.56C394.312 333.394 364.838 345.251 333.856 350.27C328.418 351.137 322.873 351.857 317.305 352.282C311.601 352.766 305.831 352.99 300.004 352.99C254.271 353.069 209.759 338.236 173.217 310.737C168.097 306.885 163.141 302.833 158.411 298.556C136.419 278.756 118.841 254.547 106.822 227.506C94.802 200.464 88.6094 171.196 88.6467 141.603V141.184C88.6467 135.545 88.8825 129.906 89.3663 124.403C89.5551 121.613 89.8087 118.864 90.1745 116.139C91.7041 103.379 94.4053 90.7869 98.244 78.5224C100.704 76.287 103.199 74.0865 105.723 71.9455C113.611 65.179 121.864 58.85 130.445 52.9869C164.093 29.8446 202.145 13.8758 242.231 6.07446C252.213 4.10348 262.292 2.66605 272.427 1.7683C281.499 0.919083 290.691 0.496394 300.003 0.500195C336.333 0.458694 372.367 7.03692 406.339 19.9126C414.892 23.1451 423.253 26.763 431.421 30.7664C457.036 43.2465 480.733 59.3282 501.792 78.5223C506.474 93.4415 509.452 108.843 510.67 124.432C511.16 130.107 511.39 135.84 511.39 141.603Z" fill="#DD852A"/>
<path d="M559.823 401.69C555.323 391.096 550.851 380.985 547.578 374.149C497.314 268.925 416.338 181.406 315.328 123.135C308.491 119.153 301.589 115.331 294.553 111.668C270.552 99.0529 245.72 88.0874 220.229 78.8474C190.639 68.0902 160.236 59.7149 129.312 53.8013C125.425 56.4619 121.602 59.2363 117.845 62.1245C113.727 65.2685 109.686 68.5423 105.722 71.946C168.162 81.0191 228.677 100.329 284.831 129.099C291.839 132.667 298.74 136.383 305.536 140.247C404.687 196.205 484.206 281.334 533.285 384.065C538.859 395.726 544.001 407.5 548.71 419.386C552.792 429.62 556.54 439.933 559.953 450.325C561.021 448.508 562.024 446.697 563.032 444.851C563.646 443.748 564.265 442.645 564.849 441.512C565.498 440.315 566.141 439.117 566.76 437.884C568.247 434.97 569.71 432.05 571.102 429.101V429.066C567.828 420.872 563.811 411.122 559.823 401.69Z" fill="#844213"/>
<path d="M574.822 180.034C574.203 178.642 573.589 177.249 572.952 175.887C572.363 174.494 571.714 173.132 571.065 171.805C570.451 170.507 569.832 169.245 569.218 167.982C533.319 148.051 480.088 120.804 448.879 109.496C421.316 99.5028 394.451 87.6831 368.461 74.1159C361.141 70.2583 353.874 66.3062 346.754 62.2242C317.348 45.3897 289.349 26.2098 263.028 4.87109C256.48 5.46094 250.039 6.26303 243.65 7.30113C273.087 32.6311 304.741 55.2635 338.23 74.925C345.197 79.0363 352.262 83.012 359.424 86.8521C388.741 102.704 419.193 116.359 450.53 127.706C492.977 143.096 536.262 165.553 579.913 192.38C578.32 188.233 576.603 184.086 574.822 180.034Z" fill="#844213"/>
<path d="M406.339 19.9131C389.168 32.0528 372.439 45.1205 356.153 59.1161C350.124 64.2303 344.131 69.5156 338.232 74.9246C325.373 86.7162 312.868 99.0072 300.717 111.798C295.337 117.466 290.042 123.233 284.831 129.098C272.326 143.096 260.285 157.622 248.708 172.678C243.977 178.801 239.346 185.054 234.775 191.377C229.855 198.184 225.028 205.086 220.293 212.081C154.198 309.864 112.529 417.664 99.0156 523.256C103.876 527.633 108.867 531.845 113.987 535.891C124.905 432.729 164.438 322.83 232.929 221.413C238.114 213.733 243.438 206.161 248.902 198.697C253.373 192.575 257.939 186.516 262.576 180.582C274.368 165.423 286.639 150.853 299.39 136.873C304.604 131.104 309.917 125.447 315.328 119.902C327.639 107.196 340.283 95.0548 353.263 83.4777C359.333 78.0686 365.485 72.7598 371.702 67.6337C388.742 53.4204 406.488 40.0763 424.873 27.6522C418.815 24.8683 412.627 22.2727 406.339 19.9131Z" fill="#844213"/>
<path d="M359.945 392.777C351.775 291.36 319.763 218.788 268.733 183.956C262.405 179.612 255.703 175.837 248.707 172.678C245.634 171.257 242.49 169.988 239.287 168.826C224.636 163.539 209.171 160.863 193.595 160.922C134.006 160.922 68.3065 197.688 5.34389 261.129C4.17918 271.816 3.58643 282.557 3.56812 293.307C70.6011 218.234 139.191 176.99 197.158 176.99C210.091 176.933 222.933 179.15 235.098 183.538C236.201 183.921 237.275 184.346 238.337 184.764C245.461 187.593 252.262 191.176 258.623 195.453C304.343 226.008 333.241 293.047 340.892 387.987C345.912 450.159 341.405 519.858 328.092 592.891C335.188 592.336 342.184 591.493 349.085 590.419C361.013 520.183 364.835 453.108 359.945 392.777Z" fill="#844213"/>
<path d="M579.914 192.38C578.321 188.233 576.605 184.086 574.823 180.034C574.204 178.642 573.591 177.249 572.954 175.887C572.364 174.494 571.715 173.132 571.066 171.805C570.453 170.507 569.833 169.245 569.22 167.982C533.32 148.051 480.09 120.804 448.88 109.496C421.318 99.5028 394.453 87.6831 368.463 74.116C361.143 70.2583 353.875 66.3062 346.756 62.2242C317.35 45.3897 289.35 26.2098 263.03 4.87109C256.482 5.46094 250.04 6.26303 243.652 7.30113C240.025 7.85528 236.397 8.46945 232.834 9.18267C262.67 35.0099 294.804 58.0558 328.835 78.0325C335.802 82.1499 342.867 86.1256 350.03 89.9597C379.349 105.811 409.803 119.469 441.141 130.82C479.4 144.682 540.027 176.6 583.571 202.389C582.409 199.022 581.206 195.683 579.914 192.38Z" fill="#AE5517"/>
<path d="M559.823 404.928C555.322 394.339 550.851 384.223 547.577 377.392C497.315 272.165 416.339 184.645 315.327 126.372C308.491 122.397 301.589 118.568 294.552 114.905C242.613 87.6074 186.934 68.1111 129.311 57.0448C125.424 59.6992 121.602 62.4735 117.844 65.3677C113.727 68.5059 109.686 71.7777 105.722 75.1831C105.463 75.4133 105.203 75.6374 104.943 75.8675C141.617 81.5021 177.648 90.7249 212.518 103.403C235.155 111.603 257.253 121.223 278.678 132.206C285.68 135.775 292.584 139.491 299.389 143.355C398.532 199.321 478.047 284.448 527.132 387.172C532.252 397.902 538.765 412.932 544.923 428.127C549.229 438.756 553.405 449.516 556.814 458.848C557.882 457.096 558.915 455.344 559.953 453.562C561.02 451.745 562.023 449.941 563.032 448.082C563.645 446.985 564.265 445.882 564.849 444.75C565.497 443.552 566.14 442.355 566.76 441.116C568.246 438.208 569.709 435.288 571.101 432.339V432.309C567.827 424.116 563.81 414.354 559.823 404.928Z" fill="#AE5517"/>
<path d="M424.873 27.6519C418.815 24.868 412.627 22.2724 406.339 19.9131C389.168 32.0528 372.439 45.1204 356.153 59.116C350.124 64.2303 344.131 69.5156 338.232 74.9246C325.373 86.7162 312.868 99.0072 300.717 111.798C295.337 117.466 290.042 123.233 284.831 129.098C272.326 143.096 260.285 157.622 248.708 172.678C243.977 178.801 239.346 185.053 234.775 191.377C229.855 198.184 225.028 205.086 220.293 212.081C154.198 309.864 112.529 417.664 99.0156 523.256C103.876 527.633 108.867 531.845 113.987 535.891C115.992 537.449 117.968 539 120.015 540.533C130.739 437.005 170.301 326.617 239.087 224.781C244.271 217.101 249.596 209.531 255.06 202.071C259.531 195.943 264.103 189.884 268.733 183.956C280.531 168.791 292.798 154.221 305.536 140.247C310.756 134.478 316.071 128.819 321.48 123.27C333.796 110.57 346.445 98.4309 359.426 86.8517C365.484 81.4366 371.637 76.1221 377.86 71.002C395.021 56.6932 412.898 43.2642 431.42 30.7669C429.25 29.6929 427.078 28.6549 424.873 27.6519Z" fill="#AE5517"/>
<path d="M359.945 392.777C351.776 291.36 319.763 218.788 268.733 183.956C262.405 179.612 255.703 175.837 248.707 172.678C245.634 171.257 242.49 169.988 239.287 168.826C224.636 163.539 209.171 160.863 193.596 160.922C134.007 160.922 68.3068 197.689 5.34417 261.129C4.27644 262.167 3.24425 263.271 2.17054 264.344C0.742275 276.149 0.0174665 288.028 0 299.919C67.0387 224.846 135.629 183.597 193.596 183.597C206.528 183.54 219.371 185.756 231.536 190.144C232.639 190.534 233.707 190.952 234.775 191.377C241.899 194.208 248.699 197.793 255.06 202.072C300.781 232.621 329.685 299.66 337.324 394.594C342.349 456.772 337.849 526.465 324.529 599.497C332.469 598.878 340.308 597.911 348.018 596.648C348.378 594.572 348.732 592.501 349.086 590.419C361.013 520.183 364.835 453.109 359.945 392.777Z" fill="#AE5517"/>
</g>
</g>
<defs>
<clipPath id="clip0_1276_7608">
<rect width="600" height="600" fill="white"/>
</clipPath>
<clipPath id="clip1_1276_7608">
<rect width="600" height="600" fill="white" transform="translate(0 0.5)"/>
</clipPath>
</defs>
</svg>
