<svg width="1000" height="700" viewBox="0 0 1000 700" fill="none" xmlns="http://www.w3.org/2000/svg">
<g clip-path="url(#clip0_1276_7804)">
<path d="M0 236.302C19.4806 233.627 38.9612 237.193 57.63 243.435C41.3962 257.702 41.3962 283.562 41.3962 283.562C44.643 271.078 65.7469 259.486 81.169 252.352C92.5326 256.811 91.7211 256.811 220.78 312.096C225.65 329.038 237.013 343.305 251.624 350.439V296.937C240.26 286.237 240.26 268.403 222.403 271.97C200.487 276.428 113.637 208.659 63.312 205.093C38.9613 201.526 12.1753 212.226 0 236.302Z" fill="#353535"/>
<path d="M221.588 388.784C102.27 439.611 94.1529 443.178 81.9776 448.528C66.5555 441.394 45.4516 428.91 42.2048 417.318C42.2048 417.318 42.2048 443.178 58.4386 457.445C39.7698 463.687 20.2892 466.362 0.808594 464.578C46.2632 559.989 189.121 423.56 223.212 429.802C239.445 433.369 242.692 416.426 248.374 409.293C249.997 407.51 250.809 405.726 252.432 404.834V351.333C237.822 357.575 225.647 371.842 221.588 388.784Z" fill="#353535"/>
<path d="M324.677 94.5277C334.417 96.3111 360.392 83.8273 361.203 94.5277C362.015 109.686 375.814 120.387 389.612 116.82C396.918 114.145 389.613 127.52 400.165 137.329C410.716 147.138 421.268 137.329 420.457 145.354C419.645 163.188 436.69 173.889 441.56 189.048C444.807 198.856 442.372 211.34 435.879 219.365C429.385 227.39 418.833 230.957 409.093 228.282C410.716 221.148 414.775 214.015 420.457 209.557C413.963 206.881 410.716 199.748 409.905 192.614C402.599 156.055 406.658 161.405 327.924 131.087C318.184 127.521 306.008 119.495 306.82 107.903C293.833 71.3436 263.801 61.5348 193.184 8.03314C241.073 -32.0931 304.385 90.9609 324.677 94.5277Z" fill="#353535"/>
<path d="M514.614 229.171C504.062 230.062 494.321 230.954 483.77 231.846C485.393 216.687 491.886 173.886 507.308 173.886C515.425 173.886 524.354 167.643 531.659 161.402C600.653 106.116 682.634 80.2574 765.426 56.1817C758.932 65.9903 755.686 65.9904 753.251 71.3406C758.932 71.3406 763.802 74.0158 767.861 77.5826C723.218 90.0663 682.633 96.3078 648.542 112.358C578.737 147.134 520.295 155.16 514.614 229.171Z" fill="#353535"/>
<path d="M999.995 211.341C952.917 193.507 900.969 210.449 851.456 205.099C803.566 199.749 802.755 186.373 693.177 198.857C692.365 206.882 687.495 214.908 681.001 219.366C679.378 227.391 677.755 234.525 675.32 242.55C661.521 241.659 648.534 243.442 635.547 247.9C665.579 172.998 664.768 174.782 668.826 171.215C672.073 168.54 676.943 169.431 678.566 172.106C711.846 171.215 826.294 178.348 849.021 191.724C957.788 191.724 980.515 196.182 999.184 179.24C999.184 181.915 990.255 194.398 986.197 195.29C992.69 198.857 999.995 203.316 999.995 211.341Z" fill="#353535"/>
<path d="M324.674 605.472C336.849 603.688 349.025 613.497 359.577 609.039C362.823 607.255 359.576 594.772 372.564 586.746C384.739 578.721 394.479 588.53 394.479 581.396C393.668 567.129 405.031 556.429 418.018 559.104C424.512 560.887 418.018 551.079 429.382 535.028C436.687 524.328 456.979 503.819 438.31 481.527C431.817 473.501 421.265 469.935 411.525 472.61C413.148 479.743 417.207 486.876 422.888 491.335C409.09 496.685 413.148 517.194 407.466 528.786C394.479 558.212 306.005 562.67 309.252 592.096C296.265 628.656 266.232 638.465 195.615 691.966C241.882 732.093 302.758 609.039 324.674 605.472Z" fill="#353535"/>
<path d="M573.055 551.967C541.4 540.375 517.86 506.491 514.614 470.823C504.062 469.931 494.321 469.04 483.77 468.148C485.393 483.307 491.886 526.108 507.308 526.108C535.718 526.108 541.4 579.61 765.426 642.92C758.932 633.111 755.686 633.111 753.251 627.761C758.932 627.761 763.802 625.086 767.861 621.52C582.796 571.585 637.179 576.043 573.055 551.967Z" fill="#353535"/>
<path d="M999.995 487.764C952.917 505.598 900.969 488.656 851.456 494.006C803.566 499.356 802.755 512.732 693.177 500.248C692.365 492.223 687.495 484.197 681.001 479.739C679.378 471.714 677.755 464.58 675.32 456.555C661.521 457.447 648.534 455.663 635.547 451.205C644.475 473.497 653.404 495.789 662.333 518.082C668.014 532.349 676.131 530.565 678.566 526.999C711.846 527.89 826.294 520.757 849.021 507.381C957.788 507.381 980.515 502.923 999.184 519.865C999.184 517.19 990.255 504.706 986.197 503.815C992.69 501.14 999.995 496.681 999.995 487.764Z" fill="#353535"/>
<path d="M229.706 153.377C223.213 147.135 215.908 140.893 209.414 134.651C237.012 137.326 259.739 163.185 269.479 192.611C276.784 214.904 283.278 289.806 271.914 296.94C267.856 299.615 262.174 296.048 260.55 291.59C255.68 279.998 266.232 252.355 265.421 225.604C264.609 181.02 237.011 180.128 228.895 171.211C223.213 165.861 223.213 155.161 229.706 153.377Z" fill="#353535"/>
<path d="M229.706 546.625C223.213 552.867 215.908 559.109 209.414 565.35C237.012 562.675 259.739 536.816 269.479 507.39C276.784 485.098 283.278 410.196 271.914 403.062C267.044 400.387 257.304 403.954 259.739 423.571C262.174 440.514 266.232 457.456 265.421 474.398C264.609 518.983 237.011 519.874 228.895 528.791C223.213 534.141 223.213 544.842 229.706 546.625Z" fill="#353535"/>
<path d="M810.063 350.444C811.687 385.221 790.583 418.213 763.797 437.83C737.011 457.448 704.543 465.473 673.699 471.715C633.926 479.74 594.154 486.874 553.569 490.441C532.465 492.224 509.738 493.116 491.881 479.74C472.4 464.581 465.095 436.939 460.225 411.08C456.166 392.354 459.413 370.062 459.413 350.444C459.413 330.827 456.166 309.427 460.225 289.809C465.907 263.95 472.4 236.307 491.881 221.149C508.926 207.773 532.465 208.665 553.569 210.448C594.154 214.015 633.926 220.257 673.699 229.174C705.355 235.416 737.011 243.441 763.797 263.058C790.583 281.784 811.687 314.777 810.063 350.444Z" fill="#81BA41"/>
<g opacity="0.2">
<path d="M494.316 344.209V355.801H810.064V344.209H494.316Z" fill="#262626"/>
</g>
<path d="M500.007 367.393C469.974 438.728 474.033 467.262 434.26 482.421C370.136 507.388 355.526 514.522 320.623 459.237C283.286 400.385 256.5 446.753 235.396 429.811C225.656 421.786 230.526 406.627 237.831 396.818C257.312 370.959 256.5 327.266 237.831 302.298C230.526 292.49 226.467 277.331 235.396 269.306C255.688 252.364 284.097 297.84 320.623 239.88C345.786 200.645 357.961 187.27 410.721 207.779C439.13 218.479 469.163 227.396 475.656 265.739L500.007 332.616C501.63 344.208 501.63 355.801 500.007 367.393Z" fill="#67932E"/>
<path opacity="0.2" d="M513.804 281.788C515.427 296.055 529.226 319.239 521.921 360.257C517.051 385.225 503.252 421.785 535.72 436.943C567.375 451.21 717.538 431.593 749.194 374.525C794.649 290.705 628.252 265.738 540.59 259.496C522.733 257.712 511.369 263.954 513.804 281.788Z" fill="#262626"/>
<path opacity="0.2" d="M573.054 355.794C570.619 369.17 563.314 388.787 580.359 396.813C597.405 404.838 678.574 394.138 695.619 362.928C719.97 318.344 630.684 304.076 582.795 301.401C555.197 298.726 578.736 325.477 573.054 355.794Z" fill="white"/>
<path opacity="0.15" d="M422.086 213.127C448.06 222.936 469.164 235.42 474.846 266.629C489.456 314.781 507.313 329.048 500.008 367.391C464.294 452.994 478.093 463.694 423.709 485.986C422.086 484.203 371.761 427.135 370.138 425.351C326.307 375.416 337.67 344.207 411.534 227.395C414.781 222.045 418.028 216.694 422.086 213.127Z" fill="#262626"/>
<path opacity="0.2" d="M375.81 198.856C375.81 200.64 374.998 201.532 374.998 202.423C364.446 237.199 319.803 288.917 286.524 299.618C268.667 304.968 272.725 300.509 267.043 384.329C265.42 416.43 295.452 395.921 328.732 440.505C340.095 455.664 347.4 470.823 364.446 477.065C375.81 481.524 389.608 483.307 391.232 497.574C353.082 508.274 340.095 490.441 319.803 459.231C281.654 399.488 256.491 447.639 234.576 429.806C224.835 421.78 229.706 406.621 237.011 396.813C257.303 369.17 254.868 321.91 237.011 302.293C229.706 292.484 225.647 277.326 234.576 269.3C245.939 259.492 262.173 270.192 277.595 271.083C318.991 271.975 321.426 213.124 357.141 200.64C362.823 198.856 369.316 197.965 375.81 198.856Z" fill="white"/>
</g>
<defs>
<clipPath id="clip0_1276_7804">
<rect width="1000" height="700" fill="white"/>
</clipPath>
</defs>
</svg>
