<svg width="1000" height="250" viewBox="0 0 1000 250" fill="none" xmlns="http://www.w3.org/2000/svg">
<g clip-path="url(#clip0_1276_6333)">
<path fill-rule="evenodd" clip-rule="evenodd" d="M-6.10352e-05 125C-6.10352e-05 56.0876 72.65 0 161.913 0L802.47 0C811.646 0 819.082 5.74066 819.082 12.8249C819.082 19.9091 811.646 25.6498 802.47 25.6498L161.913 25.6498C90.9708 25.6498 33.2242 70.2316 33.2242 125C33.2242 179.793 90.9708 224.35 161.913 224.35L802.47 224.35C811.646 224.35 819.082 230.091 819.082 237.175C819.082 244.259 811.646 250 802.47 250L161.913 250C72.65 250 -6.10352e-05 193.937 -6.10352e-05 125Z" fill="#70A317"/>
<path fill-rule="evenodd" clip-rule="evenodd" d="M334.018 211.312V185.662L863.322 185.662C920.366 185.662 966.776 149.826 966.776 105.782C966.776 61.7619 920.366 25.9257 863.322 25.9257L334.018 25.9257V0.275879L863.322 0.275879C938.687 0.275879 1000 47.6179 1000 105.782C1000 163.97 938.687 211.312 863.322 211.312L334.018 211.312Z" fill="#70A317"/>
<path fill-rule="evenodd" clip-rule="evenodd" d="M225.327 130.15C225.327 85.3972 270.417 48.9746 325.854 48.9746L695.83 48.9746C705.006 48.9746 712.442 54.7153 712.442 61.7995C712.442 68.8837 705.006 74.6244 695.83 74.6244L325.854 74.6244C288.738 74.6244 258.551 99.5413 258.551 130.15C258.551 160.734 288.738 185.651 325.854 185.651L695.83 185.651C705.006 185.651 712.442 191.392 712.442 198.476C712.442 205.56 705.006 211.301 695.83 211.301L325.854 211.301C270.417 211.301 225.327 174.878 225.327 130.15Z" fill="#70A317"/>
</g>
<defs>
<clipPath id="clip0_1276_6333">
<rect width="250" height="1000" fill="white" transform="matrix(0 1 -1 0 1000 0)"/>
</clipPath>
</defs>
</svg>
