<svg width="1000" height="75" viewBox="0 0 1000 75" fill="none" xmlns="http://www.w3.org/2000/svg">
<g clip-path="url(#clip0_1276_6362)">
<path d="M839.997 -0.00488281H119.998V74.9951H839.997V-0.00488281Z" fill="#779C32"/>
<path d="M120.33 0.150206L-0.00488281 37.4045L121.05 74.9951L135.704 74.84C138.325 73.0493 140.025 70.3501 139.995 67.2968C139.964 64.038 137.999 61.1943 135.034 59.4853C137.957 56.785 139.851 52.3433 139.803 47.3473C139.766 43.4955 138.581 40.0125 136.681 37.4045C138.529 34.7567 139.647 31.2265 139.61 27.3758C139.562 22.3798 137.583 18.0219 134.61 15.3835C137.541 13.6126 139.45 10.706 139.418 7.4462C139.389 4.40437 137.65 1.73136 135.01 -0.00488281L120.33 0.150206Z" fill="url(#paint0_linear_1276_6362)"/>
<path d="M-0.00488281 37.4951C40.6186 49.5115 81.2452 62.9788 121.865 74.9951C126.875 74.6273 132.319 75.5061 137.069 74.3919C141.807 71.2185 140.43 63.7382 135.546 61.5336C134.496 58.0663 139.834 55.4061 139.619 51.3182C140.858 46.2452 138.646 41.4597 136.728 37.093C141.508 30.4035 140.178 20.6708 134.656 15.0001C135.715 12.0882 140.506 10.0117 139.42 5.77299C139.02 0.862729 134.398 -0.690875 130.324 0.260583C123.964 -0.259085 117.852 0.895249 111.928 3.2918L-0.00488281 37.4951Z" fill="url(#paint1_linear_1276_6362)"/>
<path d="M59.9956 18.7529L-0.00439453 37.4639L59.9956 56.2529C62.5868 51.6759 55.0554 42.8788 54.9956 37.5029C54.9359 32.1271 62.688 23.2808 59.9956 18.7529Z" fill="black"/>
<path d="M991.056 -0.004329L938.345 0.671173C933.685 0.730707 929.944 5.57582 929.998 11.4926L930.413 64.3895C930.458 70.3063 934.28 75.0541 938.931 74.9946L991.651 74.3191C996.311 74.2596 1000.04 69.4155 999.997 63.4988L999.574 10.6007C999.528 4.68396 995.716 -0.0638628 991.056 -0.004329Z" fill="#F8D8D2"/>
<path d="M840.002 0.868079L840.808 70.6396C841.696 69.3348 842.567 68.1161 843.483 66.6037C843 69.9379 842.887 72.7239 843.033 74.9951L853.584 74.9027C855.474 72.6118 857.458 69.9067 859.55 66.4615C859.063 69.7967 858.932 72.5827 859.086 74.8539L869.627 74.7615C871.517 72.4613 873.501 69.7417 875.605 66.2768C875.118 69.6306 874.987 72.4322 875.141 74.7127L885.694 74.6193C887.584 72.3232 889.556 69.6161 891.66 66.1574C891.172 69.4998 891.054 72.2962 891.208 74.5716L901.749 74.4782C903.638 72.1821 905.623 69.4739 907.726 66.0162C907.239 69.3576 907.108 72.1551 907.251 74.4294L917.816 74.337C919.705 72.0409 921.678 69.3327 923.769 65.8751C923.294 69.2165 923.163 72.0139 923.306 74.2882L934.001 74.1948C935.891 71.88 937.911 68.9279 940.002 65.4536L939.254 -0.00488281L935.297 0.0303984C933.407 2.32961 931.422 5.05232 929.319 8.51412C929.806 5.16858 929.937 2.35763 929.782 0.0791822L919.23 0.171563C917.34 2.46766 915.368 5.17482 913.264 8.6335C913.751 5.29212 913.882 2.49465 913.74 0.220347L903.175 0.312727C901.285 2.60986 899.301 5.31702 897.197 8.7757C897.685 5.43328 897.815 2.63685 897.673 0.361511L887.132 0.45496C885.231 2.7521 883.246 5.45611 881.155 8.91686C881.63 5.57548 881.761 2.77801 881.618 0.502675L871.065 0.596125C869.176 2.88703 867.203 5.59105 865.111 9.03728C865.599 5.70212 865.729 2.91609 865.587 0.644909L855.01 0.737289C853.121 3.0282 851.136 5.73326 849.045 9.17844C849.532 5.84329 849.663 3.05726 849.508 0.786073L840.002 0.870138V0.868079Z" fill="#8CBCE2"/>
<path opacity="0.4" d="M867.569 39.6868C865.829 44.2655 863.958 48.7539 862.053 52.8925C860.159 57.0321 858.265 60.7399 856.489 63.8052C854.714 66.8694 853.092 69.2299 851.719 70.7516C850.346 72.2723 849.245 72.9231 848.471 72.6667C847.704 72.4114 847.286 71.253 847.245 69.26C847.203 67.2659 847.537 64.4768 848.228 61.0503C848.914 57.6248 849.955 53.6305 851.269 49.2978C852.583 44.9641 854.157 40.3781 855.909 35.8015C857.638 31.2217 859.508 26.7333 861.414 22.5948C863.307 18.4562 865.201 14.7473 866.977 11.6831C868.752 8.61782 870.374 6.2574 871.747 4.7367C873.132 3.216 874.233 2.56412 875.002 2.82051C875.772 3.0769 876.186 4.23429 876.222 6.22833C876.269 8.22132 875.937 11.0115 875.239 14.437C874.553 17.8624 873.523 21.8567 872.197 26.1905C870.883 30.5232 869.309 35.1101 867.569 39.6868Z" fill="url(#paint2_linear_1276_6362)"/>
<path opacity="0.4" d="M866.786 39.6868C865.046 44.2655 863.176 48.7539 861.282 52.8925C859.376 57.0321 857.482 60.7399 855.719 63.8052C853.943 66.8694 852.322 69.2299 850.937 70.7516C849.564 72.2723 848.46 72.9231 847.693 72.6678C846.925 72.4114 846.508 71.253 846.466 69.26C846.424 67.2659 846.758 64.4768 847.449 61.0503C848.14 57.6248 849.173 53.6305 850.487 49.2978C851.813 44.9641 853.387 40.3781 855.127 35.8015C856.867 31.2217 858.737 26.7344 860.631 22.5948C862.537 18.4562 864.419 14.7474 866.195 11.6831C867.97 8.61786 869.592 6.2574 870.977 4.7367C872.35 3.216 873.451 2.56412 874.22 2.82051C874.989 3.0769 875.404 4.23429 875.451 6.22833C875.487 8.22132 875.155 11.0115 874.469 14.437C873.77 17.8624 872.74 21.8567 871.426 26.1905C870.101 30.5232 868.526 35.1102 866.786 39.6868Z" fill="url(#paint3_linear_1276_6362)"/>
<path opacity="0.4" d="M899.076 39.3935C897.336 43.9733 895.466 48.4606 893.56 52.6003C891.666 56.7388 889.772 60.4476 887.997 63.5119C886.221 66.5771 884.599 68.9376 883.226 70.4583C881.853 71.979 880.74 72.6299 879.983 72.3745C879.213 72.1181 878.787 70.9607 878.752 68.9667C878.705 66.9737 879.048 64.1835 879.734 60.758C880.421 57.3315 881.462 53.3383 882.776 49.0045C884.09 44.6718 885.665 40.0848 887.417 35.5082C889.145 30.9295 891.015 26.4411 892.921 22.3015C894.815 18.1629 896.709 14.4541 898.484 11.3898C900.26 8.32561 901.881 5.9641 903.254 4.4434C904.627 2.92271 905.74 2.27186 906.51 2.52721C907.267 2.7836 907.693 3.94204 907.729 5.93503C907.776 7.92907 907.433 10.7182 906.746 14.1447C906.06 17.5702 905.018 21.5645 903.704 25.8972C902.39 30.2309 900.816 34.8169 899.076 39.3935Z" fill="url(#paint4_linear_1276_6362)"/>
<path opacity="0.4" d="M915.2 39.2646C913.46 43.8443 911.589 48.3317 909.695 52.4713C907.79 56.6099 905.896 60.3187 904.12 63.383C902.357 66.4482 900.735 68.8087 899.35 70.3294C897.977 71.8501 896.876 72.5019 896.107 72.2455C895.337 71.9892 894.923 70.8318 894.876 68.8377C894.84 66.8447 895.172 64.0546 895.858 60.6291C896.556 57.2036 897.586 53.2093 898.9 48.8756C900.226 44.5429 901.8 39.9559 903.54 35.3793C905.269 30.8006 907.139 26.3122 909.044 22.1736C910.95 18.034 912.832 14.3262 914.608 11.2609C916.383 8.19666 918.005 5.8362 919.378 4.31446C920.763 2.79376 921.864 2.14296 922.633 2.39831C923.403 2.6547 923.817 3.81309 923.852 5.80609C923.9 7.80013 923.568 10.5893 922.87 14.0158C922.183 17.4413 921.154 21.4356 919.828 25.7683C918.514 30.102 916.94 34.6879 915.2 39.2646Z" fill="url(#paint5_linear_1276_6362)"/>
<path opacity="0.4" d="M931.335 39.1205C929.607 43.6992 927.725 48.1876 925.831 52.3262C923.925 56.4658 922.043 60.1736 920.267 63.2388C918.492 66.3031 916.87 68.6635 915.497 70.1842C914.112 71.7049 913.011 72.3568 912.242 72.1004C911.473 71.8451 911.058 70.6866 911.011 68.6926C910.975 66.6996 911.307 63.9094 912.005 60.4839C912.692 57.0585 913.722 53.0642 915.047 48.7304C916.361 44.3978 917.936 39.8107 919.676 35.2341C921.416 30.6554 923.286 26.167 925.18 22.0284C927.085 17.8888 928.979 14.181 930.743 11.1157C932.519 8.05152 934.14 5.69104 935.525 4.17035C936.898 2.64861 937.999 1.99776 938.769 2.25415C939.538 2.50951 939.952 3.66795 940 5.66095C940.035 7.65498 939.704 10.4452 939.017 13.8707C938.319 17.2961 937.289 21.2904 935.975 25.6231C934.649 29.9568 933.075 34.5438 931.335 39.1205Z" fill="url(#paint6_linear_1276_6362)"/>
<path opacity="0.4" d="M858.883 3.12785C856.338 2.27978 850.467 11.4839 844.524 24.7924L844.874 55.226C847.091 50.6058 849.343 45.5361 851.509 39.8208C858.8 20.6382 862.103 4.20012 858.883 3.12785Z" fill="url(#paint7_linear_1276_6362)"/>
<path opacity="0.4" d="M882.926 39.5473C881.198 44.127 879.328 48.6144 877.422 52.754C875.528 56.8926 873.634 60.6015 871.859 63.6657C870.083 66.731 868.462 69.0914 867.089 70.6121C865.704 72.1328 864.603 72.7837 863.833 72.5283C863.064 72.2719 862.65 71.1145 862.614 69.1205C862.567 67.1275 862.898 64.3373 863.597 60.9118C864.283 57.4853 865.313 53.491 866.639 49.1583C867.953 44.8257 869.527 40.2386 871.267 35.662C873.007 31.0823 874.877 26.5949 876.771 22.4553C878.677 18.3167 880.571 14.6078 882.347 11.5436C884.122 8.47937 885.744 6.11791 887.117 4.59721C888.49 3.07651 889.591 2.42567 890.36 2.68102C891.13 2.93741 891.544 4.09481 891.591 6.08884C891.627 8.08288 891.295 10.872 890.609 14.2975C889.91 17.724 888.881 21.7183 887.567 26.051C886.253 30.3837 884.667 34.9707 882.926 39.5473Z" fill="url(#paint8_linear_1276_6362)"/>
<path opacity="0.4" d="M114.28 13.7543L-0.00446034 36.9998L2.61269 37.4907L113.848 25.3284L999.995 18.0961L999.86 7.49072L130.038 14.5896C129.506 14.2394 128.913 13.9155 128.243 13.64L114.326 13.7536L114.28 13.7543Z" fill="white"/>
</g>
<defs>
<linearGradient id="paint0_linear_1276_6362" x1="102.86" y1="47.4143" x2="102.557" y2="92.1562" gradientUnits="userSpaceOnUse">
<stop stop-color="#997023" stop-opacity="0.65"/>
<stop offset="1" stop-color="#DCCA9A"/>
</linearGradient>
<linearGradient id="paint1_linear_1276_6362" x1="141.303" y1="46.0358" x2="102.719" y2="46.4111" gradientUnits="userSpaceOnUse">
<stop stop-color="#997023"/>
<stop offset="1" stop-color="#9B7E36" stop-opacity="0"/>
</linearGradient>
<linearGradient id="paint2_linear_1276_6362" x1="855.909" y1="35.8004" x2="867.39" y2="40.1605" gradientUnits="userSpaceOnUse">
<stop stop-color="white"/>
<stop offset="1" stop-color="white" stop-opacity="0"/>
</linearGradient>
<linearGradient id="paint3_linear_1276_6362" x1="855.127" y1="35.8005" x2="866.608" y2="40.1605" gradientUnits="userSpaceOnUse">
<stop stop-color="white"/>
<stop offset="1" stop-color="white" stop-opacity="0"/>
</linearGradient>
<linearGradient id="paint4_linear_1276_6362" x1="887.417" y1="35.5082" x2="898.898" y2="39.867" gradientUnits="userSpaceOnUse">
<stop stop-color="white"/>
<stop offset="1" stop-color="white" stop-opacity="0"/>
</linearGradient>
<linearGradient id="paint5_linear_1276_6362" x1="903.54" y1="35.3793" x2="915.021" y2="39.7381" gradientUnits="userSpaceOnUse">
<stop stop-color="white"/>
<stop offset="1" stop-color="white" stop-opacity="0"/>
</linearGradient>
<linearGradient id="paint6_linear_1276_6362" x1="919.676" y1="35.2341" x2="931.156" y2="39.5942" gradientUnits="userSpaceOnUse">
<stop stop-color="white"/>
<stop offset="1" stop-color="white" stop-opacity="0"/>
</linearGradient>
<linearGradient id="paint7_linear_1276_6362" x1="844.616" y1="32.8432" x2="849.496" y2="32.9377" gradientUnits="userSpaceOnUse">
<stop stop-color="white"/>
<stop offset="1" stop-color="white" stop-opacity="0"/>
</linearGradient>
<linearGradient id="paint8_linear_1276_6362" x1="871.267" y1="35.662" x2="882.748" y2="40.0209" gradientUnits="userSpaceOnUse">
<stop stop-color="white"/>
<stop offset="1" stop-color="white" stop-opacity="0"/>
</linearGradient>
<clipPath id="clip0_1276_6362">
<rect width="1000" height="75" fill="white"/>
</clipPath>
</defs>
</svg>
