<svg width="1000" height="50" viewBox="0 0 1000 50" fill="none" xmlns="http://www.w3.org/2000/svg">
<g clip-path="url(#clip0_1276_6378)">
<path d="M890 0H130V49.9945H890V0Z" fill="#DD3E1C"/>
<path d="M120.327 0.103381L-0.00732422 24.9369L121.048 49.9945L135.702 49.8911C138.323 48.6974 140.022 46.8982 139.992 44.8628C139.961 42.6906 137.997 40.795 135.032 39.6558C137.955 37.8558 139.848 34.895 139.8 31.5646C139.763 28.9971 138.579 26.6754 136.678 24.9369C138.527 23.1718 139.645 20.8187 139.608 18.2518C139.56 14.9215 137.58 12.0165 134.608 10.2578C137.538 9.07735 139.448 7.13979 139.416 4.96684C139.387 2.93918 137.647 1.15737 135.008 0L120.327 0.103381Z" fill="url(#paint0_linear_1276_6378)"/>
<path d="M-0.00732422 24.9973C40.6162 33.0073 81.2427 41.9845 121.863 49.9945C126.873 49.7494 132.317 50.3351 137.066 49.5924C141.804 47.4771 140.427 42.4907 135.543 41.0212C134.494 38.7099 139.831 36.9366 139.617 34.2117C140.855 30.83 138.644 27.64 136.725 24.7292C141.506 20.27 140.175 13.7823 134.654 10.0022C135.713 8.06116 140.504 6.67699 139.418 3.85149C139.017 0.578345 134.395 -0.457278 130.322 0.176958C123.961 -0.169449 117.85 0.600022 111.926 2.19754L-0.00732422 24.9973Z" fill="url(#paint1_linear_1276_6378)"/>
<path d="M59.9932 12.5044L-0.00683594 24.977L59.9932 37.5017C62.5843 34.4506 55.053 28.5865 54.9932 25.003C54.9335 21.4195 62.6856 15.5226 59.9932 12.5044Z" fill="black"/>
<path d="M993.608 0.000369168L955.957 0.450654C952.629 0.490339 949.957 3.72006 949.996 7.66413L950.292 42.9249C950.324 46.869 953.054 50.0338 956.376 49.9941L994.033 49.5439C997.362 49.5042 1000.03 46.2752 999.995 42.3311L999.692 7.06962C999.66 3.12555 996.937 -0.0393157 993.608 0.000369168Z" fill="#F8D8D2"/>
<path d="M889.995 0.584352L890.559 47.0936C891.181 46.2238 891.79 45.4115 892.432 44.4033C892.093 46.6258 892.014 48.483 892.116 49.997L899.503 49.9354C900.825 48.4083 902.214 46.6051 903.678 44.3085C903.337 46.5317 903.246 48.3889 903.354 49.9028L910.733 49.8412C912.055 48.3079 913.444 46.4951 914.917 44.1854C914.576 46.421 914.484 48.2885 914.592 49.8087L921.979 49.7465C923.302 48.2159 924.683 46.4113 926.155 44.1058C925.814 46.3338 925.731 48.1979 925.839 49.7146L933.218 49.6524C934.54 48.1218 935.93 46.3165 937.402 44.0117C937.061 46.239 936.969 48.1038 937.069 49.6198L944.465 49.5583C945.787 48.0277 947.168 46.2224 948.632 43.9176C948.299 46.1449 948.208 48.0097 948.308 49.5257L955.794 49.4635C957.117 47.9204 958.531 45.9526 959.995 43.6367L959.471 0.00244141L956.701 0.0259596C955.379 1.5586 953.989 3.37354 952.517 5.68115C952.858 3.45104 952.949 1.57728 952.841 0.0584786L945.454 0.120059C944.132 1.65062 942.751 3.4552 941.278 5.76073C941.62 3.53339 941.711 1.66861 941.611 0.152578L934.216 0.214158C932.893 1.74541 931.504 3.54999 930.032 5.85552C930.373 3.62748 930.464 1.7634 930.365 0.246677L922.986 0.30897C921.655 1.84023 920.266 3.6427 918.802 5.94962C919.134 3.72227 919.226 1.8575 919.126 0.340776L911.739 0.403069C910.417 1.93017 909.036 3.73266 907.571 6.02989C907.913 3.80669 908.004 1.94955 907.904 0.435588L900.501 0.497168C899.178 2.02427 897.789 3.82745 896.325 6.12399C896.666 3.90079 896.757 2.04365 896.649 0.529687L889.995 0.585725V0.584352Z" fill="#8CBCE2"/>
<path opacity="0.4" d="M909.293 26.4641C908.075 29.5162 906.766 32.5082 905.432 35.2669C904.106 38.0264 902.78 40.498 901.537 42.5413C900.294 44.5839 899.159 46.1573 898.198 47.1717C897.237 48.1854 896.466 48.6192 895.924 48.4483C895.387 48.2781 895.095 47.5059 895.066 46.1774C895.037 44.8482 895.271 42.9889 895.754 40.7049C896.234 38.4215 896.963 35.7589 897.883 32.8708C898.803 29.9819 899.905 26.9249 901.131 23.8742C902.341 20.8214 903.65 17.8294 904.984 15.0707C906.31 12.3119 907.636 9.83963 908.878 7.79703C910.121 5.75374 911.257 4.18029 912.218 3.16661C913.187 2.15292 913.958 1.71838 914.496 1.88929C915.035 2.06019 915.325 2.83171 915.35 4.16092C915.383 5.48944 915.151 7.34935 914.662 9.63274C914.182 11.9161 913.461 14.5787 912.533 17.4676C911.613 20.3557 910.511 23.4133 909.293 26.4641Z" fill="url(#paint2_linear_1276_6378)"/>
<path opacity="0.4" d="M908.745 26.4641C907.527 29.5163 906.218 32.5082 904.892 35.2669C903.558 38.0264 902.233 40.498 900.998 42.5413C899.755 44.5839 898.62 46.1573 897.651 47.1717C896.689 48.1854 895.917 48.6193 895.38 48.449C894.842 48.2781 894.551 47.5059 894.521 46.1774C894.492 44.8482 894.726 42.9889 895.21 40.7049C895.693 38.4215 896.416 35.7589 897.336 32.8708C898.264 29.9819 899.366 26.9249 900.584 23.8742C901.802 20.8214 903.111 17.8301 904.437 15.0707C905.771 12.3119 907.088 9.83965 908.331 7.79705C909.574 5.75376 910.709 4.18029 911.679 3.16661C912.64 2.15292 913.41 1.71838 913.949 1.88929C914.487 2.06019 914.777 2.83171 914.811 4.16092C914.835 5.48944 914.603 7.34935 914.123 9.63274C913.634 11.9161 912.913 14.5787 911.993 17.4676C911.065 20.3557 909.963 23.4134 908.745 26.4641Z" fill="url(#paint3_linear_1276_6378)"/>
<path opacity="0.4" d="M931.342 26.271C930.124 29.3239 928.815 32.3151 927.48 35.0746C926.155 37.8333 924.829 40.3056 923.586 42.3482C922.343 44.3915 921.208 45.9649 920.247 46.9786C919.286 47.9923 918.507 48.4262 917.977 48.2559C917.438 48.085 917.14 47.3135 917.115 45.9843C917.082 44.6558 917.322 42.7959 917.803 40.5125C918.283 38.2284 919.012 35.5665 919.932 32.6777C920.852 29.7895 921.954 26.7319 923.18 23.6811C924.39 20.629 925.699 17.6371 927.033 14.8776C928.359 12.1189 929.685 9.64656 930.927 7.60397C932.17 5.56137 933.305 3.98721 934.267 2.97352C935.228 1.95983 936.007 1.52598 936.545 1.6962C937.076 1.86711 937.374 2.63931 937.399 3.96783C937.432 5.29704 937.192 7.15628 936.711 9.44037C936.23 11.7238 935.501 14.3863 934.582 17.2745C933.662 20.1633 932.56 23.2203 931.342 26.271Z" fill="url(#paint4_linear_1276_6378)"/>
<path opacity="0.4" d="M942.628 26.1729C941.41 29.2257 940.1 32.2169 938.775 34.9764C937.441 37.7351 936.115 40.2074 934.872 42.25C933.637 44.2933 932.502 45.8668 931.533 46.8805C930.572 47.8942 929.801 48.3287 929.262 48.1578C928.724 47.9869 928.434 47.2154 928.401 45.8861C928.376 44.5576 928.608 42.6977 929.088 40.4143C929.577 38.1309 930.298 35.4683 931.218 32.5795C932.146 29.6914 933.248 26.6337 934.466 23.583C935.676 20.5308 936.985 17.5389 938.319 14.7801C939.653 12.0207 940.97 9.54909 942.213 7.5058C943.456 5.4632 944.591 3.88973 945.553 2.87535C946.522 1.86166 947.293 1.42784 947.831 1.59805C948.37 1.76896 948.66 2.54114 948.685 3.86966C948.718 5.19887 948.486 7.05811 947.997 9.3422C947.516 11.6256 946.795 14.2882 945.867 17.1763C944.948 20.0652 943.846 23.1221 942.628 26.1729Z" fill="url(#paint5_linear_1276_6378)"/>
<path opacity="0.4" d="M953.926 26.076C952.716 29.1281 951.398 32.1201 950.073 34.8788C948.739 37.6383 947.421 40.1099 946.178 42.1531C944.936 44.1957 943.8 45.7692 942.839 46.7829C941.87 47.7966 941.099 48.2311 940.561 48.0602C940.022 47.89 939.732 47.1178 939.699 45.7886C939.674 44.46 939.906 42.6001 940.395 40.3167C940.875 38.0334 941.596 35.3708 942.524 32.4819C943.444 29.5938 944.546 26.5361 945.764 23.4854C946.982 20.4332 948.291 17.4413 949.617 14.6826C950.951 11.9231 952.277 9.45151 953.511 7.40822C954.754 5.36562 955.889 3.79215 956.859 2.77846C957.82 1.76408 958.591 1.33023 959.129 1.50114C959.668 1.67135 959.958 2.44356 959.991 3.77208C960.016 5.10129 959.784 6.96123 959.303 9.24462C958.814 11.528 958.094 14.1906 957.174 17.0787C956.246 19.9676 955.144 23.0252 953.926 26.076Z" fill="url(#paint6_linear_1276_6378)"/>
<path opacity="0.4" d="M903.216 2.08685C901.434 1.52154 897.324 7.65695 893.164 16.5283L893.409 36.8152C894.961 33.7354 896.537 30.3559 898.054 26.5461C903.158 13.7591 905.469 2.80163 903.216 2.08685Z" fill="url(#paint7_linear_1276_6378)"/>
<path opacity="0.4" d="M920.04 26.3687C918.83 29.4215 917.521 32.4127 916.187 35.1722C914.861 37.9309 913.535 40.4032 912.292 42.4458C911.049 44.4891 909.914 46.0626 908.953 47.0763C907.984 48.09 907.213 48.5238 906.674 48.3536C906.136 48.1827 905.846 47.4112 905.821 46.082C905.788 44.7535 906.02 42.8935 906.509 40.6101C906.989 38.326 907.71 35.6635 908.638 32.7753C909.558 29.8872 910.66 26.8295 911.878 23.7788C913.096 20.7259 914.405 17.7347 915.731 14.9752C917.065 12.2165 918.391 9.74419 919.634 7.7016C920.876 5.659 922.012 4.08486 922.973 3.07118C923.934 2.05749 924.705 1.62364 925.243 1.79385C925.782 1.96476 926.072 2.73628 926.105 4.06549C926.13 5.3947 925.898 7.25392 925.417 9.53731C924.928 11.8214 924.207 14.484 923.288 17.3721C922.368 20.2603 921.258 23.3179 920.04 26.3687Z" fill="url(#paint8_linear_1276_6378)"/>
<path opacity="0.4" d="M112.698 9.27159L-0.00683594 25.1333L2.57415 25.4683L112.273 17.1692L986.175 12.2343L986.041 4.99756L128.239 9.84152C127.714 9.60255 127.129 9.38157 126.469 9.19359L112.744 9.27108L112.698 9.27159Z" fill="white"/>
</g>
<defs>
<linearGradient id="paint0_linear_1276_6378" x1="102.858" y1="31.6093" x2="102.723" y2="61.4347" gradientUnits="userSpaceOnUse">
<stop stop-color="#997023" stop-opacity="0.65"/>
<stop offset="1" stop-color="#DCCA9A"/>
</linearGradient>
<linearGradient id="paint1_linear_1276_6378" x1="141.3" y1="30.6904" x2="102.721" y2="31.2533" gradientUnits="userSpaceOnUse">
<stop stop-color="#997023"/>
<stop offset="1" stop-color="#9B7E36" stop-opacity="0"/>
</linearGradient>
<linearGradient id="paint2_linear_1276_6378" x1="901.131" y1="23.8735" x2="909.065" y2="27.0376" gradientUnits="userSpaceOnUse">
<stop stop-color="white"/>
<stop offset="1" stop-color="white" stop-opacity="0"/>
</linearGradient>
<linearGradient id="paint3_linear_1276_6378" x1="900.584" y1="23.8735" x2="908.518" y2="27.0376" gradientUnits="userSpaceOnUse">
<stop stop-color="white"/>
<stop offset="1" stop-color="white" stop-opacity="0"/>
</linearGradient>
<linearGradient id="paint4_linear_1276_6378" x1="923.18" y1="23.6811" x2="931.114" y2="26.8443" gradientUnits="userSpaceOnUse">
<stop stop-color="white"/>
<stop offset="1" stop-color="white" stop-opacity="0"/>
</linearGradient>
<linearGradient id="paint5_linear_1276_6378" x1="934.466" y1="23.583" x2="942.4" y2="26.7461" gradientUnits="userSpaceOnUse">
<stop stop-color="white"/>
<stop offset="1" stop-color="white" stop-opacity="0"/>
</linearGradient>
<linearGradient id="paint6_linear_1276_6378" x1="945.764" y1="23.4854" x2="953.698" y2="26.6494" gradientUnits="userSpaceOnUse">
<stop stop-color="white"/>
<stop offset="1" stop-color="white" stop-opacity="0"/>
</linearGradient>
<linearGradient id="paint7_linear_1276_6378" x1="893.229" y1="21.8949" x2="896.645" y2="21.9644" gradientUnits="userSpaceOnUse">
<stop stop-color="white"/>
<stop offset="1" stop-color="white" stop-opacity="0"/>
</linearGradient>
<linearGradient id="paint8_linear_1276_6378" x1="911.878" y1="23.7788" x2="919.812" y2="26.9419" gradientUnits="userSpaceOnUse">
<stop stop-color="white"/>
<stop offset="1" stop-color="white" stop-opacity="0"/>
</linearGradient>
<clipPath id="clip0_1276_6378">
<rect width="1000" height="49.9945" fill="white"/>
</clipPath>
</defs>
</svg>
