<svg width="1000" height="500" viewBox="0 0 1000 500" fill="none" xmlns="http://www.w3.org/2000/svg">
<g clip-path="url(#clip0_1276_6325)">
<path fill-rule="evenodd" clip-rule="evenodd" d="M661.382 499.999H930.466C968.848 499.999 999.994 471.969 999.994 437.397V62.6022C999.994 28.0304 968.848 0 930.466 0H605.919C605.935 0.715453 605.979 1.37967 605.979 2.09512C605.979 54.7831 558.527 97.5058 499.991 97.5058C441.455 97.5058 394.002 54.7831 394.002 2.09512C394.002 1.37967 394.043 0.715453 394.059 0H69.5189C31.1241 0 0 28.0304 0 62.6022V437.397C0 471.969 31.1241 499.999 69.5189 499.999H338.594C366.109 499.999 391.612 485.665 402.33 462.847C418.419 428.608 456.087 404.563 499.991 404.563C543.891 404.563 581.559 428.608 597.648 462.847C608.367 485.665 633.869 499.999 661.382 499.999Z" fill="#FE3C3D"/>
<path fill-rule="evenodd" clip-rule="evenodd" d="M1000 337.494H423.561C393.613 337.494 365.683 327.069 349.279 309.77L259.436 214.998L250.152 205.212C232.755 186.866 251.823 162.515 283.589 162.515H1000V337.494Z" fill="#E6E7E9"/>
<path fill-rule="evenodd" clip-rule="evenodd" d="M1000 214.998H259.437L237.679 192.052C225.642 179.353 238.837 162.515 260.812 162.515H1000V214.998Z" fill="#B50165"/>
<path fill-rule="evenodd" clip-rule="evenodd" d="M500.66 324.539C490.08 324.539 480.453 320.423 473.333 313.716C471.491 312.039 469.844 310.185 468.393 308.177C463.507 301.547 460.662 293.391 460.662 284.55C460.662 275.175 463.871 266.563 469.313 259.703C471.1 257.417 473.165 255.333 475.455 253.479C482.323 247.889 491.086 244.536 500.66 244.536C509.508 244.536 517.659 247.381 524.275 252.285C526.313 253.733 528.155 255.384 529.858 257.213C536.555 264.353 540.662 273.981 540.662 284.55C540.662 294.128 537.31 302.893 531.7 309.753C529.858 312.039 527.792 314.097 525.475 315.876C518.665 321.312 510.039 324.539 500.66 324.539Z" fill="#B50165"/>
<path fill-rule="evenodd" clip-rule="evenodd" d="M525.475 315.878L498.316 288.744L493.069 283.485L469.314 259.706C471.1 257.419 473.166 255.336 475.455 253.481L499.266 277.286L504.513 282.545L531.701 309.755C529.858 312.042 527.793 314.1 525.475 315.878Z" fill="white"/>
<path fill-rule="evenodd" clip-rule="evenodd" d="M473.34 313.719C471.498 312.042 469.852 310.187 468.401 308.18L524.283 252.287C526.321 253.735 528.163 255.387 529.865 257.216L473.34 313.719Z" fill="white"/>
</g>
<defs>
<clipPath id="clip0_1276_6325">
<rect width="1000" height="499.999" fill="white"/>
</clipPath>
</defs>
</svg>
