<svg width="1000" height="100" viewBox="0 0 1000 100" fill="none" xmlns="http://www.w3.org/2000/svg">
<g clip-path="url(#clip0_1276_6346)">
<path d="M839.997 -0.00488281H119.998V99.9963H839.997V-0.00488281Z" fill="#3F90CE"/>
<path d="M120.33 0.201416L-0.00439453 49.8744L121.051 99.9958L135.704 99.7891C138.326 97.4014 140.025 93.8025 139.995 89.7313C139.964 85.3862 137.999 81.5945 135.035 79.3158C137.957 75.7154 139.851 69.793 139.803 63.1316C139.766 57.9958 138.582 53.3518 136.681 49.8744C138.53 46.3439 139.648 41.637 139.611 36.5026C139.563 29.8412 137.583 24.0306 134.611 20.5127C137.541 18.1515 139.451 14.2759 139.419 9.92953C139.39 5.87371 137.65 2.30965 135.011 -0.00537109L120.33 0.201416Z" fill="url(#paint0_linear_1276_6346)"/>
<path d="M-0.00439453 49.9952C40.6191 66.0173 81.2457 83.9738 121.866 99.9958C126.876 99.5055 132.32 100.677 137.069 99.1915C141.807 94.9604 140.43 84.9864 135.546 82.047C134.497 77.4238 139.834 73.8769 139.62 68.4263C140.858 61.6622 138.647 55.2814 136.728 49.4591C141.509 40.5396 140.178 27.5626 134.657 20.0015C135.715 16.1189 140.507 13.3502 139.421 7.69856C139.02 1.15146 134.398 -0.920039 130.325 0.348588C123.964 -0.344311 117.853 1.19482 111.929 4.39025L-0.00439453 49.9952Z" fill="url(#paint1_linear_1276_6346)"/>
<path d="M59.9956 25.0044L-0.00439453 49.9527L59.9956 75.005C62.5868 68.9022 55.0554 57.1726 54.9956 50.0047C54.9359 42.8368 62.688 31.0416 59.9956 25.0044Z" fill="black"/>
<path d="M991.056 -0.00463267L938.345 0.896048C933.685 0.975427 929.944 7.43566 929.998 15.3248L930.413 85.8549C930.458 93.744 934.28 100.074 938.931 99.9951L991.651 99.0945C996.311 99.0151 1000.04 92.5563 999.997 84.6672L999.574 14.1356C999.528 6.2465 995.716 -0.0840121 991.056 -0.00463267Z" fill="#F8D8D2"/>
<path d="M840.003 1.15859L840.809 94.1884C841.696 92.4486 842.567 90.8238 843.484 88.8072C843 93.2528 842.887 96.9676 843.033 99.9958L853.585 99.8727C855.474 96.8181 857.459 93.2113 859.55 88.6176C859.063 93.0645 858.932 96.7793 859.087 99.8076L869.628 99.6844C871.517 96.6174 873.502 92.9912 875.605 88.3713C875.118 92.8431 874.987 96.5786 875.142 99.6194L885.695 99.4948C887.584 96.4333 889.557 92.8237 891.66 88.2121C891.173 92.6687 891.054 96.3973 891.209 99.4311L901.749 99.3066C903.639 96.2451 905.623 92.6341 907.727 88.0239C907.24 92.4791 907.109 96.2091 907.252 99.2415L917.816 99.1184C919.706 96.0569 921.678 92.4459 923.77 87.8356C923.295 92.2909 923.164 96.0209 923.306 99.0533L934.002 98.9287C935.891 95.8423 937.911 91.9061 940.003 87.2737L939.254 -0.00537109L935.297 0.0416711C933.408 3.10733 931.423 6.73765 929.319 11.3534C929.807 6.89267 929.937 3.14469 929.783 0.106717L919.23 0.229892C917.341 3.29139 915.368 6.90099 913.265 11.5126C913.752 7.05739 913.883 3.32738 913.74 0.294938L903.175 0.418114C901.286 3.481 899.301 7.09058 897.198 11.7022C897.685 7.2456 897.816 3.51698 897.673 0.48316L887.132 0.607761C885.231 3.67065 883.247 7.27604 881.155 11.8904C881.63 7.4352 881.761 3.7052 881.618 0.671381L871.066 0.795982C869.176 3.85056 867.203 7.45597 865.112 12.051C865.599 7.60406 865.73 3.88931 865.587 0.861028L855.011 0.984204C853.121 4.03879 851.137 7.64557 849.045 12.2392C849.532 7.79228 849.663 4.07753 849.509 1.04925L840.003 1.16134V1.15859Z" fill="#8CBCE2"/>
<path opacity="0.4" d="M867.569 52.9166C865.829 59.0216 863.959 65.0063 862.053 70.5244C860.159 76.044 858.265 80.9878 856.49 85.0749C854.714 89.1606 853.093 92.3079 851.72 94.3369C850.346 96.3645 849.246 97.2323 848.471 96.8904C847.704 96.5499 847.287 95.0054 847.245 92.348C847.204 89.6893 847.537 85.9703 848.229 81.4016C848.914 76.8343 849.956 71.5085 851.27 65.7315C852.584 59.9531 854.158 53.8384 855.91 47.7362C857.638 41.6298 859.508 35.6452 861.414 30.127C863.308 24.6088 865.202 19.6636 866.977 15.5779C868.753 11.4908 870.375 8.34358 871.748 6.31595C873.133 4.28833 874.233 3.41914 875.003 3.761C875.772 4.10286 876.187 5.64607 876.222 8.30482C876.269 10.9622 875.938 14.6825 875.24 19.2498C874.553 23.8171 873.523 29.143 872.197 34.9213C870.884 40.6983 869.309 46.8144 867.569 52.9166Z" fill="url(#paint2_linear_1276_6346)"/>
<path opacity="0.4" d="M866.787 52.9167C865.047 59.0217 863.177 65.0063 861.283 70.5244C859.377 76.044 857.483 80.9878 855.719 85.0749C853.944 89.1606 852.322 92.3079 850.937 94.3369C849.564 96.3645 848.461 97.2323 847.694 96.8919C846.926 96.55 846.509 95.0054 846.466 92.348C846.425 89.6893 846.759 85.9704 847.45 81.4016C848.14 76.8343 849.173 71.5085 850.487 65.7315C851.813 59.9531 853.387 53.8384 855.127 47.7362C856.867 41.6298 858.738 35.6466 860.632 30.127C862.537 24.6088 864.419 19.6637 866.195 15.578C867.971 11.4909 869.592 8.34358 870.977 6.31595C872.35 4.28833 873.451 3.41914 874.22 3.761C874.99 4.10286 875.404 5.64607 875.451 8.30482C875.487 10.9622 875.156 14.6825 874.469 19.2498C873.771 23.8171 872.741 29.143 871.427 34.9213C870.101 40.6983 868.527 46.8144 866.787 52.9167Z" fill="url(#paint3_linear_1276_6346)"/>
<path opacity="0.4" d="M899.076 52.5256C897.336 58.632 895.466 64.6152 893.56 70.1348C891.666 75.653 889.773 80.5981 887.997 84.6838C886.221 88.7709 884.6 91.9182 883.227 93.9458C881.854 95.9735 880.741 96.8413 879.983 96.5008C879.214 96.1589 878.788 94.6157 878.752 91.957C878.705 89.2996 879.048 85.5793 879.735 81.012C880.421 76.4433 881.463 71.1188 882.777 65.3405C884.091 59.5635 885.665 53.4474 887.417 47.3451C889.145 41.2401 891.015 35.2556 892.921 29.736C894.815 24.2178 896.709 19.2726 898.485 15.1869C900.26 11.1012 901.882 7.95252 903.255 5.9249C904.628 3.89727 905.741 3.02947 906.51 3.36994C907.268 3.7118 907.694 5.2564 907.729 7.91376C907.777 10.5725 907.433 14.2914 906.747 18.8602C906.06 23.4275 905.019 28.7533 903.705 34.5303C902.391 40.3087 900.817 46.4234 899.076 52.5256Z" fill="url(#paint4_linear_1276_6346)"/>
<path opacity="0.4" d="M915.2 52.3547C913.46 58.4611 911.59 64.4443 909.696 69.9638C907.79 75.482 905.896 80.4272 904.121 84.5129C902.357 88.6 900.735 91.7473 899.35 93.7749C897.977 95.8026 896.877 96.6717 896.107 96.3298C895.338 95.988 894.923 94.4448 894.876 91.786C894.841 89.1287 895.172 85.4084 895.859 80.841C896.557 76.2737 897.587 70.9479 898.901 65.1695C900.226 59.3925 901.801 53.2765 903.541 47.1742C905.269 41.0692 907.139 35.0846 909.045 29.5664C910.951 24.0469 912.833 19.1031 914.608 15.016C916.384 10.9303 918.006 7.78295 919.379 5.75395C920.764 3.72633 921.864 2.85857 922.634 3.19905C923.403 3.54091 923.817 5.08545 923.853 7.74281C923.9 10.4016 923.569 14.1205 922.871 18.6892C922.184 23.2566 921.154 28.5824 919.828 34.3594C918.515 40.1378 916.94 46.2524 915.2 52.3547Z" fill="url(#paint5_linear_1276_6346)"/>
<path opacity="0.4" d="M931.335 52.1624C929.607 58.2674 927.725 64.252 925.831 69.7702C923.925 75.2897 922.043 80.2335 920.268 84.3206C918.492 88.4063 916.871 91.5536 915.498 93.5812C914.113 95.6088 913.012 96.478 912.242 96.1362C911.473 95.7957 911.059 94.2511 911.011 91.5923C910.976 88.935 911.307 85.2147 912.006 80.6474C912.692 76.08 913.722 70.7542 915.048 64.9758C916.362 59.1988 917.936 53.0827 919.676 46.9805C921.416 40.8755 923.286 34.8909 925.18 29.3727C927.086 23.8532 928.98 18.9094 930.744 14.8223C932.519 10.7366 934.141 7.58925 935.526 5.56163C936.899 3.53263 938 2.66482 938.769 3.00668C939.538 3.34715 939.953 4.89176 940 7.54912C940.036 10.2079 939.704 13.9282 939.018 18.4955C938.319 23.0629 937.289 28.3886 935.976 34.1656C934.65 39.944 933.075 46.0601 931.335 52.1624Z" fill="url(#paint6_linear_1276_6346)"/>
<path opacity="0.4" d="M858.884 4.17323C856.339 3.04247 850.468 15.3148 844.524 33.0596L844.875 73.6383C847.092 67.478 849.343 60.7183 851.509 53.0978C858.801 27.5207 862.103 5.60295 858.884 4.17323Z" fill="url(#paint7_linear_1276_6346)"/>
<path opacity="0.4" d="M882.927 52.7331C881.199 58.8395 879.329 64.8227 877.423 70.3423C875.529 75.8605 873.635 80.8056 871.859 84.8913C870.084 88.9784 868.462 92.1257 867.089 94.1534C865.704 96.181 864.603 97.0488 863.834 96.7083C863.065 96.3665 862.65 94.8232 862.615 92.1645C862.567 89.5071 862.899 85.7868 863.597 81.2195C864.284 76.6507 865.314 71.325 866.639 65.548C867.953 59.771 869.528 53.6549 871.268 47.5526C873.008 41.4462 874.878 35.463 876.772 29.9435C878.678 24.4253 880.571 19.4801 882.347 15.3944C884.123 11.3087 885.744 8.16004 887.117 6.13242C888.49 4.10479 889.591 3.23699 890.361 3.57746C891.13 3.91932 891.544 5.46254 891.592 8.12128C891.627 10.78 891.296 14.4989 890.609 19.0663C889.911 23.635 888.881 28.9608 887.567 34.7378C886.253 40.5148 884.667 46.6308 882.927 52.7331Z" fill="url(#paint8_linear_1276_6346)"/>
<path opacity="0.4" d="M114.28 18.3394L-0.00446034 49.3338L2.61269 49.9883L113.848 33.7716L999.995 24.1285L999.86 9.98779L130.038 19.4531C129.506 18.9861 128.913 18.5543 128.243 18.187L114.326 18.3384L114.28 18.3394Z" fill="white"/>
</g>
<defs>
<linearGradient id="paint0_linear_1276_6346" x1="102.861" y1="63.221" x2="102.321" y2="122.875" gradientUnits="userSpaceOnUse">
<stop stop-color="#997023" stop-opacity="0.65"/>
<stop offset="1" stop-color="#DCCA9A"/>
</linearGradient>
<linearGradient id="paint1_linear_1276_6346" x1="141.303" y1="61.383" x2="102.718" y2="61.6645" gradientUnits="userSpaceOnUse">
<stop stop-color="#997023"/>
<stop offset="1" stop-color="#9B7E36" stop-opacity="0"/>
</linearGradient>
<linearGradient id="paint2_linear_1276_6346" x1="855.91" y1="47.7348" x2="868.061" y2="51.1957" gradientUnits="userSpaceOnUse">
<stop stop-color="white"/>
<stop offset="1" stop-color="white" stop-opacity="0"/>
</linearGradient>
<linearGradient id="paint3_linear_1276_6346" x1="855.127" y1="47.7348" x2="867.278" y2="51.1957" gradientUnits="userSpaceOnUse">
<stop stop-color="white"/>
<stop offset="1" stop-color="white" stop-opacity="0"/>
</linearGradient>
<linearGradient id="paint4_linear_1276_6346" x1="887.417" y1="47.3451" x2="899.568" y2="50.8049" gradientUnits="userSpaceOnUse">
<stop stop-color="white"/>
<stop offset="1" stop-color="white" stop-opacity="0"/>
</linearGradient>
<linearGradient id="paint5_linear_1276_6346" x1="903.541" y1="47.1742" x2="915.691" y2="50.634" gradientUnits="userSpaceOnUse">
<stop stop-color="white"/>
<stop offset="1" stop-color="white" stop-opacity="0"/>
</linearGradient>
<linearGradient id="paint6_linear_1276_6346" x1="919.676" y1="46.9805" x2="931.827" y2="50.4414" gradientUnits="userSpaceOnUse">
<stop stop-color="white"/>
<stop offset="1" stop-color="white" stop-opacity="0"/>
</linearGradient>
<linearGradient id="paint7_linear_1276_6346" x1="844.617" y1="43.7942" x2="849.497" y2="43.8651" gradientUnits="userSpaceOnUse">
<stop stop-color="white"/>
<stop offset="1" stop-color="white" stop-opacity="0"/>
</linearGradient>
<linearGradient id="paint8_linear_1276_6346" x1="871.268" y1="47.5526" x2="883.418" y2="51.0124" gradientUnits="userSpaceOnUse">
<stop stop-color="white"/>
<stop offset="1" stop-color="white" stop-opacity="0"/>
</linearGradient>
<clipPath id="clip0_1276_6346">
<rect width="1000" height="100.001" fill="white"/>
</clipPath>
</defs>
</svg>
