<svg width="1000" height="534" viewBox="0 0 1000 534" fill="none" xmlns="http://www.w3.org/2000/svg">
<g clip-path="url(#clip0_2175_202)">
<path d="M616.078 389.85L590.115 436.966L582.15 518.938C582.012 520.385 582.343 521.871 583.206 523.198C584.072 524.525 585.327 525.482 586.757 526.026L587.382 526.261C588.272 526.59 589.103 527.109 589.8 527.807C590.499 528.5 590.999 529.323 591.301 530.176L592.037 532.256H562.806C561.382 532.256 559.952 531.773 558.819 530.81C557.672 529.827 557.029 528.535 556.883 527.208L563.762 431.709L575.884 389.85H616.078Z" fill="#80945E"/>
<path d="M584.821 525.728H586.129C586.331 525.837 586.532 525.947 586.757 526.027L587.381 526.261C588.271 526.59 589.103 527.109 589.8 527.807C590.499 528.501 590.999 529.324 591.301 530.177L592.037 532.257H584.821V525.728Z" fill="#7C7C74"/>
<path d="M377.387 410.245C383.818 419.288 397.924 435.1 396.131 451.276C395.702 455.177 392.091 461.876 392.771 468.116C395.584 494.228 394.415 509.631 388.537 528.984C388.095 530.9 388.874 532.227 390.075 533.334H438.933L430.467 525.727C430.467 525.727 420.445 524.191 419.222 521.647C408.257 499.101 434.439 470.276 440.087 435.155C443.969 410.994 422.775 387.685 422.775 387.685L377.387 410.245Z" fill="#80945E"/>
<path d="M428.452 525.363C429.641 525.598 430.467 525.727 430.467 525.727L438.933 533.334H428.452V525.363Z" fill="#7C7C74"/>
<path d="M968.264 1.98933C968.264 1.98933 944.989 -4.35034 917.869 5.61068C910.174 8.43881 855.74 41.4846 800.922 129.717C760.637 194.555 722.591 211.529 709.176 219.201C676.864 237.682 594.343 246.376 564.917 255.618C553.75 259.115 379.691 355.084 379.691 355.084C379.691 355.084 288.888 427.569 252.74 443.126C206.002 463.233 120.026 492.039 0 483.33C62.899 500.189 183.227 491.405 250.434 480.078C313.49 469.443 388.341 428.986 388.341 428.986C388.341 428.986 490.52 444.114 542.412 441.491C610.501 438.049 663.592 372.467 668.203 359.428C672.823 346.38 672.823 325.186 672.823 325.186C672.823 325.186 759.376 270.288 790.537 238.769C821.698 207.245 879.977 98.0083 893.251 77.0888C900.782 65.2021 916.616 48.0035 937.106 38.2223C943.808 35.0248 957.302 34.4165 967.494 32.6059L968.264 1.98933Z" fill="#91A86A"/>
<path d="M243.127 469.568C305.414 455.472 380.645 414.501 380.645 414.501C380.645 414.501 483.218 419.653 535.104 417.029C603.194 413.593 655.895 357.972 660.511 344.933C665.124 331.89 665.124 310.686 665.124 310.686C665.124 310.686 751.682 255.803 782.84 224.274C814.004 192.755 869.068 84.6756 883.725 64.584C893.252 51.5404 909.693 36.0529 930.177 26.2665C935.574 23.6927 947.786 22.8444 956.723 21.6426L953.55 34.5466C947.095 35.3945 940.973 36.3721 937.107 38.2226C916.617 48.0039 900.783 65.2025 893.252 77.0891C879.977 98.0087 821.699 207.245 790.538 238.77C759.377 270.289 672.824 325.186 672.824 325.186C672.824 325.186 672.824 346.38 668.203 359.429C663.593 372.467 610.502 438.049 542.413 441.491C490.521 444.115 388.342 428.986 388.342 428.986C388.342 428.986 313.49 469.444 250.435 480.078C187.311 490.722 77.3336 499.107 12.0859 486.133C117.72 496.384 183.887 482.981 243.127 469.568Z" fill="#C9B87D"/>
<path d="M395.131 378.457C394.458 387.026 395.446 395.865 398.353 404.564C401.266 413.263 406.808 423.009 415.179 428.721C452.647 454.274 437.394 458.878 444.03 471.104C454.079 489.634 457.013 522.47 457.013 522.47L454.905 527.852C454.484 528.939 454.606 530.196 455.363 531.224C456.129 532.247 457.331 532.795 458.565 532.795H502.595L495.403 526.021C494.937 525.578 494.4 525.188 493.804 524.849C493.219 524.515 492.596 524.27 491.96 524.096L488.283 523.044C486.614 522.57 484.973 521.707 483.887 520.26C474.701 507.97 476.11 484.162 478.363 470.296C481.223 452.618 483.048 398.928 483.048 398.928C483.556 391.127 482.476 383.096 479.555 375.265C476.621 367.428 472.127 360.545 466.543 354.764L462.521 350.614C452.469 340.204 436.455 335.87 421.457 340.748C406.451 345.621 396.701 358.36 395.605 372.377L395.131 378.457Z" fill="#91A86A"/>
<path d="M491.341 523.911L491.96 524.096C492.596 524.27 493.218 524.515 493.803 524.849C494.399 525.188 494.937 525.577 495.403 526.021L502.595 532.795H491.341V523.911Z" fill="#7C7C74"/>
<path d="M479.224 523.911L479.843 524.096C480.479 524.27 481.091 524.515 481.692 524.849C482.282 525.188 482.811 525.577 483.281 526.021L490.477 532.795H479.224V523.911Z" fill="#7C7C74"/>
<path d="M646.822 295.976C654.729 300.739 661.714 307.124 667.103 315.06C672.5 322.981 675.743 331.615 677.022 340.364L677.189 341.526C678.38 349.676 677.274 358.23 673.479 366.316C669.679 374.401 663.703 380.921 656.487 385.57L639.734 396.374L618.391 443.48L623.454 519.288C623.547 520.684 624.045 522.066 624.972 523.288C625.904 524.49 627.148 525.368 628.525 525.886L629.505 526.261C630.389 526.59 631.218 527.109 631.928 527.807C632.624 528.5 633.119 529.323 633.427 530.176L634.157 532.256H602.618C601.193 532.256 599.766 531.772 598.625 530.81C597.483 529.827 596.848 528.535 596.702 527.208L587.707 440.956C587.612 440.073 587.604 439.161 587.683 438.248C587.773 437.34 587.938 436.457 588.181 435.589L600.584 392.767C601.865 388.353 602.289 383.624 601.667 378.796C601.055 373.953 599.446 369.463 597.091 365.458L590.278 353.886C587.36 348.918 585.133 343.481 583.762 337.67C582.388 331.839 581.969 326.033 582.388 320.377L583.385 306.894C584.084 297.392 589.945 288.469 599.631 283.865C609.327 279.261 620.428 280.129 628.957 285.256L646.822 295.976Z" fill="#91A86A"/>
<path d="M626.942 525.728H628.173C628.29 525.778 628.404 525.857 628.526 525.887L629.505 526.261C630.39 526.59 631.218 527.109 631.928 527.807C632.625 528.501 633.12 529.324 633.427 530.177L634.158 532.257H626.942V525.728Z" fill="#7C7C74"/>
<path d="M252.74 443.126C288.888 427.569 379.691 355.084 379.691 355.084C379.691 355.084 553.75 259.115 564.917 255.618C594.343 246.376 676.864 237.682 709.176 219.201C722.591 211.529 760.637 194.555 800.922 129.717C855.74 41.4846 910.174 8.43881 917.869 5.61068C944.989 -4.35034 968.264 1.98933 968.264 1.98933L967.936 15.113C967.202 15.0977 966.48 15.0232 965.765 14.8137C961.875 13.6962 955.793 12.3793 948.45 12.22C946.893 17.4973 941.756 21.3878 935.66 21.3878C934.029 21.3878 932.467 21.1033 931.032 20.5895C929.07 22.7593 926.305 24.3309 923.093 24.8345C921.758 25.0439 920.374 25.0587 919.068 24.8846C917.382 28.6954 913.735 31.6482 909.101 32.4261C908.508 32.516 907.912 32.5757 907.309 32.5905C906.53 37.1696 903.062 41.1551 898.044 42.5817C896.719 42.9658 895.303 43.1456 893.968 43.1155C893.423 47.2604 890.69 51.0615 886.388 52.9467C885.042 53.5254 883.626 53.8942 882.172 54.0342C882.174 54.6977 882.127 55.3759 882.013 56.0542C881.452 59.5009 879.498 62.5339 876.518 64.5938C874.959 65.671 873.209 66.4244 871.363 66.8131C871.406 69.776 870.391 72.6542 868.434 75.0237C866.062 77.8717 862.625 79.6472 858.844 79.9863C858.844 80.0114 858.846 80.0415 858.849 80.0711C859.301 83.528 858.301 86.9496 856.023 89.6981C853.746 92.4516 850.468 94.1873 846.849 94.6163C846.917 94.861 846.97 95.1102 847.029 95.3594C847.714 98.7811 846.943 102.268 844.855 105.141C842.622 108.233 839.114 110.244 835.227 110.733C835.348 111.007 835.454 111.291 835.552 111.581C836.733 114.982 836.426 118.613 834.702 121.806C832.309 126.245 827.576 129.023 822.323 129.108C823.054 130.146 823.644 131.283 824.06 132.505C825.252 135.917 824.942 139.568 823.213 142.746C820.708 147.379 815.661 150.247 810.132 150.088C810.767 151.035 811.281 152.053 811.663 153.15C812.849 156.567 812.536 160.213 810.81 163.406C808.366 167.93 803.494 170.743 798.094 170.743C796.72 170.743 795.346 170.548 794.03 170.179C794.904 171.666 795.467 173.317 795.688 175.068C796.148 178.624 795.1 182.14 792.748 184.948C790.031 188.226 785.94 190.096 781.526 190.096C779.998 190.096 778.489 189.862 777.046 189.413C778.166 191.458 778.717 193.738 778.624 196.097C778.481 199.688 776.85 203.01 774.056 205.434C771.419 207.739 767.977 209.016 764.373 209.016C761.828 209.016 759.336 208.362 757.168 207.17C758.108 209.55 758.341 212.133 757.817 214.697C757.073 218.398 754.84 221.605 751.533 223.72C746.523 226.922 739.602 226.838 734.74 223.75C735.682 227.142 735.312 230.673 733.638 233.851C731.827 237.307 728.679 239.896 724.81 241.113C723.219 241.617 721.564 241.881 719.89 241.881C715.924 241.881 712.219 240.44 709.455 238.016C709.759 240.944 709.148 243.892 707.633 246.545C705.628 250.082 702.284 252.67 698.233 253.808C696.726 254.252 695.163 254.461 693.594 254.461C689.619 254.461 685.941 253.11 683.121 250.78C682.994 253.194 682.3 255.568 681.053 257.753C678.831 261.679 675.116 264.557 670.596 265.834C668.928 266.318 667.199 266.562 665.456 266.562C659.186 266.562 653.575 263.52 650.424 258.666C650.668 262.282 649.704 265.849 647.625 268.971C644.999 272.917 640.899 275.645 636.091 276.683C634.738 276.972 633.35 277.126 631.965 277.126C624.805 277.126 618.596 273.261 615.545 267.44C615.352 267.55 615.14 267.639 614.904 267.674C614.499 267.734 614.097 267.834 613.692 267.924C613.978 271.59 613.131 275.256 611.182 278.533C608.55 282.928 604.255 286.11 599.091 287.457C597.327 287.915 595.511 288.16 593.692 288.16C586.256 288.16 579.539 284.229 576.086 278.234C576.062 278.244 576.019 278.244 575.993 278.249C575.758 278.319 575.522 278.383 575.271 278.394C576.332 282.379 576.009 286.544 574.269 290.395C572.161 295.028 568.261 298.615 563.283 300.49C560.897 301.388 558.395 301.852 555.835 301.852C549.347 301.852 543.469 298.929 539.751 294.186C539.428 294.365 539.113 294.554 538.781 294.714C539.557 298.106 539.224 301.628 537.743 304.89C535.871 309.035 532.382 312.237 527.941 313.913C525.809 314.716 523.564 315.125 521.281 315.125C516.285 315.125 511.677 313.2 508.367 309.947C509.429 313.614 509.154 317.47 507.554 321.006C505.667 325.156 502.182 328.368 497.741 330.029C495.61 330.842 493.369 331.251 491.084 331.251C484.801 331.251 479.14 328.198 475.914 323.29C475.522 323.615 475.136 323.909 474.712 324.188C476.017 327.65 476.054 331.381 474.773 334.912C473.274 339.028 470.157 342.334 466.008 344.245C463.665 345.317 461.041 345.896 458.441 345.896C453.343 345.896 448.667 343.851 445.442 340.359C446.604 343.701 446.578 347.283 445.346 350.669C443.845 354.784 440.726 358.101 436.579 360.002C434.233 361.084 431.611 361.653 429.016 361.653C423.564 361.653 418.594 359.313 415.366 355.378C416.595 358.775 416.595 362.436 415.338 365.883C413.836 369.993 410.725 373.31 406.581 375.215C404.226 376.308 401.605 376.866 399.007 376.866C394.09 376.866 389.568 374.971 386.358 371.709C387.867 375.19 387.989 379.021 386.679 382.613C385.241 386.543 382.273 389.71 378.316 391.526C373.293 393.831 367.097 393.456 362.561 390.882C363.276 393.402 363.281 396.05 362.535 398.634C361.428 402.485 358.796 405.692 355.139 407.677C349.721 410.605 342.617 410.101 337.761 406.669C339.005 409.642 339.201 412.889 338.304 416.027C337.197 419.867 334.564 423.08 330.902 425.06C325.62 427.918 318.717 427.514 313.884 424.312C314.324 426.442 314.247 428.651 313.627 430.806C312.555 434.517 310.021 437.61 306.491 439.51C301.598 442.174 295.232 441.914 290.635 439.141C290.9 440.917 290.773 442.733 290.262 444.508C289.255 448.01 286.867 450.928 283.538 452.723C281.368 453.896 278.892 454.509 276.389 454.509C272.598 454.509 269.002 453.102 266.348 450.663L266.341 450.669C266.571 452.793 266.258 454.978 265.398 457.033C263.976 460.39 261.251 463.043 257.737 464.47C252.68 466.535 246.635 465.543 242.644 462.3C237.16 473.563 220.621 474.281 216.795 469.323C216.715 469.343 216.638 469.383 216.551 469.404C213.312 476.99 198.887 478.99 193.199 475.942C192.984 475.987 192.783 476.042 192.577 476.087C190.035 481.888 171.578 482.626 168.496 479.359C168.12 480.302 160.031 487.51 145.417 484.247C143.669 487.076 129.256 489.315 124.448 486.417C123.38 487.769 111.364 490.039 104.058 487.689C103.325 488.388 88.0703 489.216 87.7075 488.951C86.8523 489.006 22.6556 489.41 0 483.33C120.026 492.039 206.002 463.233 252.74 443.126Z" fill="#758856"/>
<path d="M777.713 181.253L771.493 176.654C770.09 175.617 769.308 174.12 769.168 172.569C770.974 170.559 772.785 168.474 774.618 166.289C776.18 166.13 777.798 166.509 779.125 167.497L785.347 172.08C788.03 174.071 788.506 177.727 786.398 180.256C784.288 182.795 780.403 183.238 777.713 181.253Z" fill="#A64B3E"/>
<path d="M784.942 153.216C786.015 151.784 787.101 150.298 788.175 148.777C789.899 147.939 792.002 147.849 793.863 148.742L800.907 152.118C803.946 153.575 805.162 157.087 803.605 159.944C802.061 162.818 798.341 163.95 795.293 162.498L788.258 159.112C785.866 157.974 784.638 155.585 784.942 153.216Z" fill="#A64B3E"/>
<path d="M882.715 33.8718L885.513 39.5485C886.718 41.9925 885.582 44.9055 882.987 46.0424C880.384 47.1697 877.294 46.1073 876.084 43.6632L873.688 38.7951C876.23 36.3961 878.698 34.1261 881.086 32.0264C881.759 32.4901 882.339 33.0939 882.715 33.8718Z" fill="#A64B3E"/>
<path d="M763.539 186.155L768.909 191.622C771.223 193.971 771.083 197.667 768.568 199.852C766.068 202.032 762.165 201.892 759.837 199.533L754.465 194.076C753.061 192.645 752.577 190.744 752.953 188.978C754.549 187.522 756.162 186.011 757.809 184.419C759.84 184.04 762.019 184.619 763.539 186.155Z" fill="#A64B3E"/>
<path d="M601.139 252.352L605.237 266.224C607.017 272.22 603.299 278.449 596.92 280.125C590.549 281.806 583.961 278.29 582.177 272.304L578.073 258.413C577.44 256.298 577.53 254.153 578.154 252.188C584.199 250.811 591.124 249.434 598.602 248.003C599.732 249.225 600.635 250.681 601.139 252.352Z" fill="#A64B3E"/>
<path d="M726.775 225.227C728.059 228.808 726.028 232.708 722.223 233.906C718.426 235.118 714.292 233.208 713.016 229.621L710.037 221.331C709.748 220.528 709.653 219.715 709.682 218.922C712.349 217.405 715.918 215.545 720.219 213.046C721.842 213.829 723.165 215.176 723.804 216.942L726.775 225.227Z" fill="#A64B3E"/>
<path d="M695.881 246.535C691.74 247.722 687.371 245.517 686.118 241.622L683.203 232.593C682.891 231.636 682.805 230.648 682.909 229.715C687.619 228.274 692.06 226.787 696.162 225.206C697.07 226.044 697.796 227.076 698.195 228.314L701.098 237.332C702.358 241.227 700.028 245.357 695.881 246.535Z" fill="#A64B3E"/>
<path d="M634.29 269.265C628.697 270.467 623.134 267.17 621.855 261.892L618.902 249.707C618.428 247.756 618.617 245.826 619.3 244.09C624.948 243.028 630.715 241.925 636.496 240.769C637.759 242.005 638.72 243.547 639.17 245.352L642.114 257.543C643.388 262.815 639.893 268.073 634.29 269.265Z" fill="#A64B3E"/>
<path d="M748.811 208.382C750.956 211.355 750.14 215.401 746.987 217.421C743.841 219.441 739.543 218.678 737.394 215.7L732.436 208.826C731.816 207.983 731.47 207.036 731.34 206.093C734.314 204.062 737.494 201.783 740.828 199.194C742.011 199.654 743.076 200.442 743.857 201.509L748.811 208.382Z" fill="#A64B3E"/>
<path d="M868.598 45.2344L872.975 50.8462C874.864 53.2754 874.305 56.6772 871.736 58.4628C869.16 60.2433 865.537 59.7198 863.658 57.2957L859.918 52.4919C862.62 49.6586 865.254 46.9853 867.841 44.4365C868.119 44.6807 868.368 44.9453 868.598 45.2344Z" fill="#A64B3E"/>
<path d="M855.239 58.4293L861.049 62.6994C863.569 64.5448 864.025 67.9715 862.052 70.341C860.095 72.7099 856.468 73.1441 853.949 71.2885L848.121 67.0041C847.841 66.8044 847.589 66.57 847.359 66.3208C849.834 63.4676 852.281 60.7288 854.686 58.1055C854.871 58.2 855.056 58.3047 855.239 58.4293Z" fill="#A64B3E"/>
<path d="M901.695 20.9539L900.787 16.1108C903.964 13.8113 906.779 11.9209 909.186 10.3896C909.988 11.0976 910.569 12.0104 910.77 13.108L911.922 19.2531C912.414 21.9269 910.528 24.4557 907.709 24.9246C904.886 25.3884 902.185 23.6078 901.695 20.9539Z" fill="#A64B3E"/>
<path d="M889.239 32.0364L887.473 26.5298C890.108 24.3253 892.61 22.295 894.98 20.4746C896.028 21.0732 896.876 22.0155 897.26 23.2128L899.185 29.2037C900.014 31.7871 898.451 34.5207 895.708 35.2935C892.965 36.077 890.06 34.6203 889.239 32.0364Z" fill="#A64B3E"/>
<path d="M930.467 8.87236V2.62258C930.467 2.41776 930.504 2.20324 930.533 1.98871C933.928 1.27568 937.206 0.796545 940.307 0.482422C940.643 1.1311 940.852 1.85438 940.852 2.62258V8.87236C940.852 11.5759 938.527 13.7706 935.66 13.7706C932.792 13.7706 930.467 11.5759 930.467 8.87236Z" fill="#A64B3E"/>
<path d="M921.769 17.3231C918.941 17.7771 916.263 15.9664 915.789 13.3028L914.699 7.14237V7.12756C916.107 6.36958 917.182 5.87061 917.868 5.61114C919.976 4.83834 922.054 4.17485 924.104 3.58594C924.514 4.15953 924.819 4.8133 924.946 5.54115L926.04 11.6964C926.508 14.3652 924.591 16.8843 921.769 17.3231Z" fill="#A64B3E"/>
<path d="M830.55 89.3748L836.659 93.2954C839.296 94.9912 839.974 98.3684 838.184 100.857C836.391 103.341 832.793 103.99 830.153 102.294L824.042 98.3735C823.549 98.0543 823.141 97.6548 822.786 97.236C824.912 94.3328 827.031 91.495 829.128 88.7363C829.621 88.8962 830.106 89.0857 830.55 89.3748Z" fill="#A64B3E"/>
<path d="M842.828 73.0981L848.654 77.3727C851.164 79.2284 851.617 82.6501 849.655 85.0144C847.69 87.389 844.057 87.8129 841.536 85.9624L835.719 81.6877C835.475 81.4977 835.274 81.2986 835.073 81.0988C837.403 78.1762 839.709 75.343 841.994 72.6094C842.283 72.7493 842.561 72.8984 842.828 73.0981Z" fill="#A64B3E"/>
<path d="M817.813 107.201L824.818 110.563C827.842 112.009 829.043 115.496 827.505 118.354C825.964 121.197 822.26 122.329 819.238 120.888L812.232 117.521C811.292 117.072 810.545 116.408 809.981 115.631C812.015 112.588 814.04 109.585 816.053 106.677C816.654 106.781 817.249 106.931 817.813 107.201Z" fill="#A64B3E"/>
<path d="M806.272 128.075L813.31 131.462C816.35 132.929 817.565 136.43 816.011 139.293C814.467 142.166 810.744 143.309 807.704 141.842L800.661 138.47C799.106 137.722 798.044 136.45 797.565 134.999C798.688 133.268 799.798 131.512 800.923 129.716C801.373 128.993 801.818 128.3 802.273 127.587C803.584 127.337 804.985 127.467 806.272 128.075Z" fill="#A64B3E"/>
<path d="M656.287 252.541L652.733 241.488C652.291 240.126 652.238 238.75 652.463 237.437C658.286 236.161 663.998 234.824 669.521 233.412C670.194 234.245 670.747 235.178 671.094 236.231L674.645 247.289C676.183 252.057 673.329 257.12 668.248 258.566C663.182 260.008 657.831 257.315 656.287 252.541Z" fill="#A64B3E"/>
<path d="M157.266 482.318C154.234 482.871 151.3 481.011 150.707 478.143L150.008 474.79C153.712 474.067 157.372 473.309 160.944 472.531L161.682 476.123C162.281 478.976 160.303 481.749 157.266 482.318Z" fill="#A64B3E"/>
<path d="M135.341 484.48C132.304 485.039 129.367 483.173 128.775 480.32L128.409 478.565C132.153 477.991 135.821 477.387 139.441 476.754L139.761 478.295C140.354 481.153 138.376 483.927 135.341 484.48Z" fill="#A64B3E"/>
<path d="M180.348 478.235C177.316 478.789 174.383 476.929 173.789 474.076L172.895 469.761C176.572 468.873 180.208 467.956 183.735 467.013L184.768 472.045C185.361 474.904 183.389 477.672 180.348 478.235Z" fill="#A64B3E"/>
<path d="M246.251 454.394L243.057 447.426C243.023 447.356 243.01 447.266 242.978 447.196C246.396 445.81 249.659 444.443 252.741 443.126C253.283 442.892 253.847 442.637 254.419 442.378C254.483 442.488 254.568 442.592 254.629 442.717L257.812 449.68C259.191 452.698 257.73 456.19 254.523 457.487C251.335 458.784 247.63 457.397 246.251 454.394Z" fill="#A64B3E"/>
<path d="M353.982 391.092C356.111 394.598 354.832 399.063 351.112 401.073C347.394 403.083 342.651 401.876 340.518 398.374L335.579 390.269C335.391 389.955 335.256 389.635 335.121 389.301C339.138 386.328 343.014 383.41 346.698 380.627C347.63 381.215 348.448 381.998 349.052 382.971L353.982 391.092Z" fill="#A64B3E"/>
<path d="M538.223 268.956C545.325 265.225 551.381 262.078 555.964 259.783C558.271 261 560.201 262.901 561.273 265.39L566.945 278.762C569.4 284.553 566.439 291.113 560.286 293.432C554.15 295.752 547.191 292.938 544.719 287.152L539.033 273.775C538.355 272.193 538.127 270.547 538.223 268.956Z" fill="#A64B3E"/>
<path d="M91.4541 482.936C94.6423 482.662 97.7936 482.377 100.905 482.053C101.106 484.482 99.2046 486.627 96.6151 486.861C94.0387 487.086 91.7643 485.335 91.4541 482.936Z" fill="#A64B3E"/>
<path d="M73.043 484.178C76.1596 484.014 79.2366 483.834 82.2924 483.63C81.9611 485.605 80.2691 487.206 78.0478 487.406C75.7306 487.601 73.6655 486.214 73.043 484.178Z" fill="#A64B3E"/>
<path d="M229.806 466.969C226.43 467.757 223.023 465.807 222.196 462.619L220.398 455.721C224.481 454.294 228.398 452.863 232.145 451.441C232.29 451.756 232.425 452.08 232.518 452.424L234.422 459.796C235.253 462.968 233.191 466.19 229.806 466.969Z" fill="#A64B3E"/>
<path d="M204.436 472.166C201.428 472.859 198.401 471.128 197.666 468.3L196.405 463.452C200.059 462.37 203.615 461.282 207.079 460.175L208.535 465.801C209.274 468.615 207.442 471.468 204.436 472.166Z" fill="#A64B3E"/>
<path d="M114.817 486.513C111.738 486.782 109.018 484.647 108.73 481.749L108.674 481.21C112.421 480.776 116.128 480.307 119.771 479.813L119.867 480.766C120.163 483.659 117.905 486.243 114.817 486.513Z" fill="#A64B3E"/>
<path d="M461.557 315.863L466.696 325.819C468.929 330.114 467.04 335.306 462.465 337.401C457.905 339.506 452.397 337.72 450.173 333.421L445.012 323.455C444.395 322.263 444.123 320.996 444.106 319.744C448.635 317.265 453.263 314.751 457.939 312.207C459.444 313.035 460.72 314.277 461.557 315.863Z" fill="#A64B3E"/>
<path d="M432.122 331.629L437.267 341.575C439.496 345.875 437.611 351.067 433.036 353.167C428.476 355.262 422.971 353.477 420.744 349.182L415.586 339.226C415.021 338.134 414.725 336.991 414.664 335.864C419.1 333.43 423.824 330.841 428.764 328.133C430.155 328.961 431.338 330.138 432.122 331.629Z" fill="#A64B3E"/>
<path d="M495.544 299.946L500.204 310.929C502.224 315.668 499.788 321.065 494.731 322.981C489.697 324.876 483.983 322.577 481.965 317.818L477.292 306.834C476.606 305.238 476.476 303.567 476.735 301.991C481.182 299.567 485.619 297.158 489.999 294.788C492.43 295.691 494.49 297.477 495.544 299.946Z" fill="#A64B3E"/>
<path d="M329.743 408.479C331.879 411.986 330.605 416.46 326.875 418.465C323.157 420.476 318.412 419.273 316.278 415.762L311.334 407.656C311.183 407.402 311.093 407.138 310.974 406.878C314.977 404.035 318.968 401.162 322.898 398.304C323.649 398.857 324.309 399.546 324.812 400.369L329.743 408.479Z" fill="#A64B3E"/>
<path d="M524.93 306.85C519.894 308.75 514.185 306.441 512.16 301.692L507.483 290.703C506.779 289.042 506.649 287.287 506.953 285.64C511.463 283.216 515.837 280.862 520.047 278.612C522.536 279.495 524.657 281.306 525.741 283.82L530.406 294.808C532.427 299.557 529.983 304.949 524.93 306.85Z" fill="#A64B3E"/>
<path d="M281.844 438.024C283.582 440.867 282.538 444.494 279.522 446.135C276.506 447.756 272.659 446.773 270.927 443.935L266.913 437.346C266.677 436.967 266.502 436.563 266.364 436.154C269.603 434.303 273.032 432.238 276.591 430.023C277.068 430.437 277.502 430.896 277.843 431.44L281.844 438.024Z" fill="#A64B3E"/>
<path d="M305.127 423.677C307.1 426.91 305.916 431.065 302.458 432.915C299.021 434.791 294.628 433.669 292.647 430.421L288.069 422.9C288.027 422.844 288.013 422.765 287.974 422.71C291.755 420.191 295.624 417.582 299.529 414.889C299.913 415.268 300.268 415.677 300.551 416.151L305.127 423.677Z" fill="#A64B3E"/>
<path d="M374.771 384.694C370.598 386.614 365.566 384.983 363.52 381.047L358.803 371.929C358.737 371.8 358.703 371.655 358.637 371.5C363.469 367.794 367.677 364.522 371.031 361.898C372.223 362.656 373.251 363.674 373.937 364.986L378.644 374.089C380.681 378.015 378.954 382.768 374.771 384.694Z" fill="#A64B3E"/>
<path d="M384.841 352.23C388.323 350.32 393.444 347.507 399.77 344.03C400.723 344.788 401.541 345.721 402.119 346.843L407.266 356.804C409.488 361.099 407.608 366.292 403.032 368.391C398.467 370.476 392.965 368.701 390.738 364.401L385.579 354.445C385.209 353.732 384.992 352.989 384.841 352.23Z" fill="#A64B3E"/>
<path d="M922.476 8.87298C914.781 11.7062 860.358 44.7463 805.538 132.979C765.257 197.818 727.209 214.792 713.792 222.468C681.474 240.943 599.922 252.715 570.491 261.963C559.327 265.47 384.303 358.341 384.303 358.341C384.303 358.341 293.508 430.826 257.358 446.379C210.615 466.49 120.892 493.39 0 483.329C120.026 492.039 206.002 463.233 252.74 443.126C288.888 427.569 379.691 355.083 379.691 355.083C379.691 355.083 553.75 259.115 564.917 255.618C594.343 246.376 676.864 237.682 709.176 219.201C722.591 211.529 760.637 194.555 800.922 129.717C855.74 41.4845 910.174 8.43881 917.869 5.61068C944.989 -4.35034 968.264 1.98933 968.264 1.98933L968.124 7.53113C959.487 5.05696 941.774 1.79014 922.476 8.87298Z" fill="#A64B3E"/>
<path d="M995.2 42.7455L995.364 45.3443C995.364 45.3443 991.54 49.7139 989.7 50.2727C988.55 50.6267 986.146 49.8835 984.963 49.22C982.733 47.9881 982.979 47.1652 981.751 46.846C975.949 45.3443 964.455 48.1775 958.29 45.7386C945.027 40.4761 939.021 27.5874 940.488 16.5389C941.957 5.49559 960.379 -1.97181 975.035 0.58714C990.116 3.21096 983.52 17.681 986.877 24.7689C987.833 26.809 995.575 28.9691 997.662 31.5275C999.757 34.0967 999.969 42.3864 999.969 42.3864L995.2 42.7455Z" fill="#9EB873"/>
<path d="M962.298 21.5615C968.54 25.5465 968.842 29.3476 975.379 31.3376C981.745 33.278 987.054 33.2182 992.88 34.5948C996.725 35.5126 998.456 37.3136 999.722 38.9097C999.926 40.8599 999.968 42.3861 999.968 42.3861L995.199 42.7451L995.363 45.3439C995.363 45.3439 991.54 49.7136 989.699 50.2724C988.55 50.6263 986.146 49.8832 984.962 49.2197C982.733 47.9877 982.979 47.1649 981.75 46.8456C975.949 45.344 964.557 47.9279 958.29 45.7382C944.608 40.9395 937.225 23.2823 942.004 18.6532C945.915 14.8822 951.532 14.6727 962.298 21.5615Z" fill="#E4D18E"/>
<path d="M949.882 20.325C950.187 20.2152 950.504 20.3597 950.629 20.634C950.65 20.6892 952.694 25.5175 960.799 28.8442C962.296 29.4678 966.082 31.4281 970.083 33.4881C975.064 36.0618 980.702 38.9799 982.701 39.7082C990.944 42.7059 999.502 42.2171 999.579 42.2074C999.735 42.1921 999.889 42.2671 1000 42.3667V43.135C999.907 43.2147 999.799 43.2898 999.653 43.2944C999.566 43.2995 998.938 43.3393 997.932 43.3393C994.961 43.3393 988.611 43.0252 982.293 40.7257C980.209 39.9677 974.786 37.1493 969.527 34.4412C965.547 32.3807 961.787 30.4357 960.342 29.8468C951.754 26.3108 949.636 21.2327 949.548 21.0182C949.432 20.749 949.588 20.4348 949.882 20.325Z" fill="#A89A6B"/>
<path d="M959.224 14.3145C959.224 10.6083 962.402 7.60547 966.339 7.60547C970.274 7.60547 973.449 10.6083 973.449 14.3145C973.449 18.0109 970.274 21.0086 966.339 21.0086C962.402 21.0086 959.224 18.0109 959.224 14.3145Z" fill="#E4D18E"/>
<path d="M962.11 14.3144C962.11 12.115 964.007 10.3242 966.339 10.3242C968.669 10.3242 970.573 12.115 970.573 14.3144C970.573 16.5091 968.669 18.2998 966.339 18.2998C964.007 18.2998 962.11 16.5091 962.11 14.3144Z" fill="#82975E"/>
<path d="M964.032 14.3155C964.032 13.1137 965.063 12.1406 966.339 12.1406C967.607 12.1406 968.645 13.1137 968.645 14.3155C968.645 15.5128 967.607 16.4852 966.339 16.4852C965.063 16.4852 964.032 15.5128 964.032 14.3155Z" fill="black"/>
<path d="M965.704 14.3154C965.704 13.9911 965.99 13.7168 966.339 13.7168C966.684 13.7168 966.967 13.9911 966.967 14.3154C966.967 14.6398 966.684 14.9043 966.339 14.9043C965.99 14.9043 965.704 14.6398 965.704 14.3154Z" fill="white"/>
<path d="M969.419 2.89642C969.419 2.89642 979.375 2.34273 982.404 8.05875C985.688 14.259 982.346 24.3196 984.857 25.5868C977.349 23.5565 974.829 22.4441 974.749 20.0149C974.614 15.396 976.773 7.65475 969.419 2.89642Z" fill="#C13F31"/>
<path d="M613.895 304.046C615.529 309.942 621.924 313.499 628.197 311.962C634.472 310.426 638.241 304.396 636.607 298.5L634.163 290.694C632.532 284.783 626.129 281.227 619.861 282.768C613.588 284.299 609.82 290.335 611.446 296.235L613.895 304.046Z" fill="#758856"/>
<path d="M579.565 321.216C581.729 328.179 589.463 332.164 596.851 330.124C604.236 328.084 608.465 320.802 606.307 313.844L603.103 304.671C600.934 297.707 593.202 293.732 585.814 295.772C578.429 297.797 574.201 305.089 576.358 312.048L579.565 321.216Z" fill="#758856"/>
<path d="M479.308 357.519C481.289 363.893 488.37 367.54 495.13 365.674C501.898 363.808 505.769 357.14 503.789 350.775L500.852 342.375C498.874 336.006 491.783 332.354 485.025 334.215C478.265 336.085 474.391 342.749 476.375 349.129L479.308 357.519Z" fill="#758856"/>
<path d="M544.247 325.525C545.836 330.623 551.5 333.545 556.899 332.039C562.314 330.548 565.412 325.211 563.826 320.128L561.482 313.399C559.896 308.306 554.23 305.404 548.822 306.89C543.415 308.381 540.315 313.713 541.903 318.806L544.247 325.525Z" fill="#758856"/>
<path d="M451.286 369.803C453.603 374.646 459.646 376.801 464.777 374.616C469.911 372.442 472.202 366.75 469.893 361.907L466.583 355.572C464.274 350.724 458.231 348.564 453.097 350.754C447.955 352.928 445.661 358.609 447.984 363.453L451.286 369.803Z" fill="#758856"/>
<path d="M420.586 382.688C422.22 386.992 427.251 389.222 431.813 387.676C436.376 386.139 438.741 381.396 437.11 377.096L434.729 371.455C433.085 367.15 428.061 364.915 423.494 366.462C418.931 368.003 416.564 372.737 418.203 377.031L420.586 382.688Z" fill="#758856"/>
<path d="M391.313 393.841C392.624 397.298 396.677 399.104 400.35 397.856C404.012 396.61 405.919 392.799 404.608 389.337L402.694 384.793C401.37 381.331 397.329 379.546 393.653 380.783C389.978 382.02 388.08 385.835 389.398 389.292L391.313 393.841Z" fill="#758856"/>
<path d="M511.731 341.586C513.47 347.187 519.685 350.38 525.629 348.754C531.561 347.103 534.958 341.257 533.224 335.665L530.655 328.293C528.91 322.702 522.688 319.494 516.756 321.13C510.817 322.771 507.415 328.622 509.149 334.219L511.731 341.586Z" fill="#758856"/>
<path d="M650.04 285.821C651.253 289.752 655.614 292.001 659.777 290.844C663.936 289.702 666.325 285.591 665.107 281.671L663.298 276.499C662.08 272.578 657.717 270.338 653.557 271.481C649.394 272.633 647.006 276.733 648.226 280.654L650.04 285.821Z" fill="#758856"/>
<path d="M618.577 496.568C618.577 494.573 619.832 492.862 621.636 492.054L621.712 493.256C620.529 493.944 619.732 495.156 619.732 496.568C619.732 498.139 620.738 499.501 622.173 500.119L622.25 501.291C620.126 500.638 618.577 498.783 618.577 496.568Z" fill="#80945C"/>
<path d="M589.275 456.051L589.124 454.519C597.775 453.681 604.54 446.773 604.54 438.418C604.54 430.966 599.168 424.691 591.889 422.796L592.318 421.329C600.278 423.394 606.159 430.263 606.159 438.418C606.159 447.576 598.752 455.128 589.275 456.051Z" fill="#80945C"/>
<path d="M594.744 438.417C594.744 442.004 591.852 444.922 588.163 445.321L587.999 443.805C590.883 443.491 593.128 441.206 593.128 438.417C593.128 435.909 591.32 433.814 588.886 433.176L589.307 431.719C592.437 432.537 594.744 435.205 594.744 438.417Z" fill="#80945C"/>
<path d="M599.012 438.417C599.012 444.078 594.428 448.697 588.576 449.291L588.42 447.78C593.454 447.266 597.393 443.285 597.393 438.417C597.393 434.068 594.251 430.436 590.003 429.319L590.424 427.853C595.358 429.139 599.012 433.369 599.012 438.417Z" fill="#80945C"/>
<path d="M615.535 496.568C615.535 493.037 618.029 490.079 621.44 489.091L621.511 490.203C618.71 491.136 616.684 493.62 616.684 496.568C616.684 499.815 619.131 502.534 622.375 503.182L622.451 504.28C618.535 503.631 615.535 500.433 615.535 496.568Z" fill="#80945C"/>
<path d="M610.43 496.568C610.43 490.483 615.019 485.385 621.109 484.178L621.186 485.295C615.702 486.452 611.587 491.051 611.587 496.568C611.587 502.563 616.472 507.462 622.7 508.026L622.78 509.173C615.879 508.639 610.43 503.192 610.43 496.568Z" fill="#80945C"/>
<path d="M481.155 438.512C471.667 438.512 463.948 445.775 463.948 454.708C463.948 462.739 470.168 469.398 478.3 470.684C478.226 471.173 478.147 471.682 478.072 472.191C469.16 470.804 462.336 463.502 462.336 454.708C462.336 444.942 470.78 436.976 481.155 436.976C481.197 436.976 481.234 436.996 481.284 436.996C481.25 437.5 481.215 438.003 481.183 438.517C481.176 438.517 481.168 438.512 481.155 438.512Z" fill="#80945C"/>
<path d="M473.74 454.709C473.74 451.053 476.764 448.07 480.591 447.791C480.553 448.29 480.514 448.804 480.479 449.322C477.595 449.642 475.361 451.921 475.361 454.709C475.361 457.218 477.153 459.303 479.6 459.957C479.555 460.481 479.497 460.994 479.449 461.503C476.184 460.765 473.74 458.011 473.74 454.709Z" fill="#80945C"/>
<path d="M469.48 454.709C469.48 448.743 474.56 443.905 480.859 443.75C480.827 444.254 480.79 444.773 480.758 445.281C475.391 445.491 471.096 449.626 471.096 454.709C471.096 459.302 474.573 463.143 479.188 464.001C479.127 464.525 479.072 465.014 479.014 465.512C473.591 464.56 469.48 460.085 469.48 454.709Z" fill="#80945C"/>
</g>
<defs>
<clipPath id="clip0_2175_202">
<rect width="1000" height="533.333" fill="white"/>
</clipPath>
</defs>
</svg>
