<svg width="1000" height="250" viewBox="0 0 1000 250" fill="none" xmlns="http://www.w3.org/2000/svg">
<g clip-path="url(#clip0_1276_5965)">
<path d="M0 220H994.792L998.906 197.702C999.854 192.565 1000.19 187.312 999.9 182.078L991.178 23.7835C990.77 17.3268 988.174 11.282 983.913 6.86822C979.652 2.45441 974.043 2.47163e-06 968.217 0H23.0172C16.9127 0 11.0582 2.69419 6.74159 7.48986C2.42502 12.2855 0 18.7899 0 25.572V220Z" fill="#65AF7E"/>
<path d="M0 207.828H997.039L998.906 197.707C999.854 192.57 1000.19 187.317 999.9 182.083L998.993 165.624C979.728 160.035 963.899 150.816 957.223 131.924H0V207.828Z" fill="#C5EBFA"/>
<path d="M3.98976 17.6611H940.051V131.923H0V22.0938C-2.45803e-10 20.9182 0.420344 19.7908 1.16857 18.9595C1.91679 18.1282 2.9316 17.6612 3.98976 17.6611Z" fill="#2D4F7A"/>
<path d="M996.853 143.408C990.817 143.122 985.114 140.258 980.932 135.415C976.75 130.571 974.411 124.121 974.404 117.409V28.0097C974.406 26.2184 975.047 24.501 976.188 23.2344C977.328 21.9677 978.873 21.2553 980.486 21.2533L990.893 21.25C991.026 22.0922 991.12 22.9414 991.174 23.7943L997.767 143.444L996.853 143.408Z" fill="#7FA9BE"/>
<path d="M640.591 26.1865H725.106C726.897 26.1865 728.615 26.977 729.882 28.3841C731.148 29.7912 731.86 31.6996 731.86 33.6895V111.23C731.86 113.22 731.148 115.128 729.882 116.535C728.615 117.942 726.897 118.733 725.106 118.733H640.591C638.8 118.733 637.082 117.942 635.816 116.535C634.549 115.128 633.838 113.22 633.838 111.23V33.6895C633.838 31.6996 634.549 29.7912 635.816 28.3841C637.082 26.9771 638.8 26.1865 640.591 26.1865Z" fill="#7FA9BE"/>
<path d="M656.539 105.389L658.059 118.726H666.354L661.857 104.108C661.684 103.545 661.357 103.056 660.921 102.71C660.486 102.364 659.963 102.178 659.428 102.178H659.086C658.722 102.178 658.362 102.264 658.029 102.431C657.697 102.597 657.401 102.84 657.16 103.144C656.919 103.448 656.739 103.805 656.632 104.192C656.525 104.579 656.493 104.987 656.539 105.389Z" fill="#4F8298"/>
<path d="M697.974 105.389L699.494 118.726H707.79L703.293 104.108C703.12 103.545 702.792 103.056 702.357 102.71C701.921 102.364 701.399 102.178 700.864 102.178H700.522C700.157 102.178 699.797 102.264 699.465 102.431C699.133 102.597 698.836 102.84 698.595 103.144C698.355 103.448 698.175 103.805 698.067 104.192C697.96 104.579 697.929 104.987 697.974 105.389Z" fill="#4F8298"/>
<path d="M534.639 26.1865H619.154C620.945 26.1865 622.663 26.977 623.929 28.3841C625.196 29.7912 625.907 31.6996 625.907 33.6895V111.23C625.907 113.22 625.196 115.128 623.929 116.535C622.663 117.942 620.945 118.733 619.154 118.733H534.639C532.848 118.733 531.13 117.942 529.864 116.535C528.597 115.128 527.886 113.219 527.886 111.23V33.6896C527.886 31.6996 528.597 29.7912 529.864 28.3841C531.13 26.977 532.848 26.1865 534.639 26.1865Z" fill="#7FA9BE"/>
<path d="M553.507 105.389L555.026 118.726H563.322L558.825 104.108C558.652 103.545 558.325 103.056 557.889 102.71C557.453 102.364 556.931 102.178 556.396 102.178H556.054C555.69 102.178 555.329 102.264 554.997 102.43C554.665 102.597 554.369 102.84 554.128 103.144C553.887 103.448 553.707 103.805 553.6 104.192C553.493 104.579 553.461 104.987 553.507 105.389Z" fill="#4F8298"/>
<path d="M594.942 105.389L596.462 118.726H604.758L600.261 104.108C600.088 103.545 599.76 103.056 599.325 102.71C598.889 102.364 598.367 102.178 597.831 102.178H597.49C597.125 102.178 596.765 102.264 596.433 102.431C596.101 102.597 595.804 102.84 595.563 103.144C595.322 103.448 595.142 103.805 595.035 104.192C594.928 104.579 594.896 104.987 594.942 105.389Z" fill="#4F8298"/>
<path d="M305.547 26.1865H390.062C391.853 26.1865 393.571 26.977 394.838 28.3841C396.104 29.7912 396.816 31.6996 396.816 33.6895V111.23C396.816 113.22 396.104 115.128 394.838 116.535C393.571 117.942 391.853 118.733 390.062 118.733H305.547C303.756 118.733 302.038 117.942 300.772 116.535C299.505 115.128 298.794 113.22 298.794 111.23V33.6895C298.794 31.6996 299.505 29.7912 300.772 28.3841C302.038 26.977 303.756 26.1865 305.547 26.1865Z" fill="#7FA9BE"/>
<path d="M324.288 105.389L325.807 118.726H334.103L329.606 104.108C329.433 103.545 329.106 103.056 328.67 102.71C328.235 102.364 327.713 102.178 327.177 102.178H326.835C326.471 102.178 326.111 102.264 325.778 102.431C325.446 102.597 325.15 102.84 324.909 103.144C324.668 103.448 324.488 103.805 324.381 104.192C324.274 104.579 324.242 104.987 324.288 105.389Z" fill="#4F8298"/>
<path d="M365.723 105.389L367.243 118.726H375.539L371.042 104.108C370.869 103.545 370.541 103.056 370.106 102.71C369.67 102.364 369.148 102.178 368.613 102.178H368.271C367.906 102.178 367.546 102.264 367.214 102.431C366.882 102.597 366.585 102.84 366.345 103.144C366.104 103.448 365.924 103.805 365.816 104.192C365.709 104.579 365.678 104.987 365.723 105.389Z" fill="#4F8298"/>
<path d="M199.595 26.1865H284.11C285.901 26.1865 287.619 26.977 288.885 28.3841C290.152 29.7912 290.863 31.6996 290.863 33.6895V111.23C290.863 113.22 290.152 115.128 288.885 116.535C287.619 117.942 285.901 118.733 284.11 118.733H199.595C197.804 118.733 196.086 117.942 194.82 116.535C193.553 115.128 192.842 113.22 192.842 111.23V33.6895C192.842 31.6996 193.553 29.7912 194.82 28.3841C196.086 26.977 197.804 26.1865 199.595 26.1865Z" fill="#7FA9BE"/>
<path d="M217.393 105.389L218.913 118.726H227.209L222.712 104.108C222.539 103.545 222.211 103.056 221.776 102.71C221.34 102.364 220.818 102.178 220.282 102.178H219.941C219.576 102.178 219.216 102.264 218.884 102.43C218.552 102.597 218.255 102.84 218.014 103.144C217.773 103.448 217.593 103.805 217.486 104.192C217.379 104.579 217.348 104.987 217.393 105.389Z" fill="#4F8298"/>
<path d="M258.829 105.389L260.349 118.726H268.644L264.147 104.108C263.974 103.545 263.647 103.056 263.211 102.71C262.776 102.364 262.254 102.178 261.718 102.178H261.376C261.012 102.178 260.652 102.264 260.319 102.431C259.987 102.597 259.691 102.84 259.45 103.144C259.209 103.448 259.029 103.805 258.922 104.192C258.815 104.579 258.783 104.987 258.829 105.389Z" fill="#4F8298"/>
<path d="M22.721 26.1865H62.4034C63.3672 26.1865 64.2916 26.6119 64.9731 27.3691C65.6546 28.1263 66.0375 29.1532 66.0375 30.2241V114.695C66.0375 115.766 65.6546 116.793 64.9731 117.55C64.2916 118.307 63.3672 118.733 62.4034 118.733H22.721C21.7572 118.733 20.8328 118.307 20.1513 117.55C19.4698 116.793 19.0869 115.766 19.0869 114.695V30.224C19.0869 29.1532 19.4698 28.1262 20.1513 27.3691C20.8328 26.6119 21.7572 26.1865 22.721 26.1865Z" fill="#7FA9BE"/>
<path d="M29.3075 105.389L30.827 118.726H39.1228L34.6259 104.108C34.4527 103.545 34.1254 103.056 33.6898 102.71C33.2541 102.364 32.732 102.178 32.1965 102.178H31.8547C31.4903 102.178 31.1301 102.264 30.7979 102.431C30.4658 102.597 30.1694 102.84 29.9285 103.144C29.6875 103.448 29.5075 103.805 29.4005 104.192C29.2934 104.579 29.2617 104.987 29.3075 105.389Z" fill="#4F8298"/>
<path d="M0 26.1865V118.733H4.76263C6.50678 118.733 8.1795 117.963 9.41281 116.593C10.6461 115.222 11.339 113.364 11.339 111.426V33.4929C11.339 32.5335 11.1689 31.5834 10.8384 30.6969C10.5079 29.8105 10.0235 29.0051 9.41282 28.3266C8.80215 27.6482 8.07717 27.11 7.27929 26.7428C6.48141 26.3756 5.62624 26.1867 4.76263 26.1867L0 26.1865Z" fill="#7FA9BE"/>
<path d="M746.539 26.1865H831.053C832.845 26.1865 834.562 26.977 835.829 28.3841C837.095 29.7912 837.807 31.6996 837.807 33.6895V111.23C837.807 113.22 837.095 115.128 835.829 116.535C834.562 117.942 832.845 118.733 831.054 118.733H746.539C744.747 118.733 743.03 117.942 741.763 116.535C740.497 115.128 739.785 113.22 739.785 111.23V33.6895C739.785 31.6996 740.497 29.7912 741.763 28.3841C743.03 26.977 744.747 26.1865 746.539 26.1865Z" fill="#7FA9BE"/>
<path d="M763.184 105.389L764.704 118.726H773L768.503 104.108C768.33 103.545 768.002 103.056 767.567 102.71C767.131 102.364 766.609 102.178 766.073 102.178H765.732C765.367 102.178 765.007 102.264 764.675 102.431C764.343 102.597 764.046 102.84 763.805 103.144C763.564 103.448 763.384 103.805 763.277 104.192C763.17 104.579 763.139 104.987 763.184 105.389Z" fill="#4F8298"/>
<path d="M804.62 105.389L806.14 118.726H814.435L809.938 104.108C809.765 103.545 809.438 103.056 809.002 102.71C808.567 102.364 808.045 102.178 807.509 102.178H807.167C806.803 102.178 806.443 102.264 806.111 102.431C805.778 102.597 805.482 102.84 805.241 103.144C805 103.448 804.82 103.805 804.713 104.192C804.606 104.579 804.574 104.987 804.62 105.389Z" fill="#4F8298"/>
<path d="M976.705 190.586L977.717 194.935C978.152 196.803 979.133 198.457 980.506 199.638C981.879 200.819 983.566 201.459 985.302 201.459H998.182L998.908 197.529C999.55 194.045 999.911 190.504 999.986 186.948H979.239C978.84 186.948 978.445 187.05 978.086 187.246C977.728 187.441 977.414 187.725 977.169 188.077C976.924 188.428 976.755 188.837 976.675 189.272C976.594 189.707 976.604 190.156 976.705 190.586Z" fill="white"/>
<path d="M901.686 17.6611H854.007C852.976 17.6611 851.954 17.8869 851.001 18.3254C850.048 18.764 849.182 19.4068 848.453 20.2172C847.724 21.0276 847.145 21.9896 846.75 23.0484C846.355 24.1072 846.152 25.2421 846.152 26.3881V196.462C846.152 197.608 846.355 198.743 846.75 199.801C847.145 200.86 847.724 201.822 848.453 202.633C849.182 203.443 850.048 204.086 851.001 204.524C851.954 204.963 852.976 205.189 854.007 205.189H949.364C950.396 205.189 951.417 204.963 952.37 204.524C953.323 204.086 954.189 203.443 954.918 202.633C955.648 201.822 956.226 200.86 956.621 199.801C957.016 198.743 957.219 197.608 957.219 196.462V26.3881C957.219 25.2421 957.016 24.1072 956.621 23.0484C956.226 21.9896 955.648 21.0276 954.918 20.2172C954.189 19.4068 953.323 18.764 952.37 18.3254C951.417 17.8869 950.396 17.6611 949.364 17.6611H901.686Z" fill="#2D4F7A"/>
<path d="M908.276 19.7217H950.19C951.467 19.7217 952.691 20.2851 953.594 21.2881C954.497 22.291 955.004 23.6513 955.004 25.0696V196.937C955.004 198.355 954.497 199.716 953.594 200.719C952.691 201.722 951.467 202.285 950.19 202.285H908.276C906.999 202.285 905.775 201.722 904.872 200.719C903.969 199.716 903.462 198.355 903.462 196.937V25.0697C903.462 23.6513 903.969 22.291 904.872 21.2881C905.775 20.2851 906.999 19.7217 908.276 19.7217Z" fill="#65AF7E"/>
<path d="M853.671 19.7217H895.585C896.862 19.7217 898.087 20.2851 898.989 21.2881C899.892 22.291 900.399 23.6513 900.399 25.0697V196.937C900.399 198.355 899.892 199.716 898.989 200.719C898.087 201.722 896.862 202.285 895.585 202.285H853.671C852.394 202.285 851.17 201.722 850.267 200.719C849.365 199.716 848.857 198.355 848.857 196.937V25.0697C848.857 23.6514 849.364 22.2911 850.267 21.2882C851.17 20.2852 852.394 19.7217 853.671 19.7217Z" fill="#65AF7E"/>
<path d="M461.803 17.6611H414.125C412.041 17.6611 410.043 18.5806 408.57 20.2172C407.097 21.8538 406.27 24.0736 406.27 26.3881V196.462C406.27 198.776 407.097 200.996 408.57 202.633C410.043 204.269 412.041 205.189 414.125 205.189H509.482C511.565 205.189 513.563 204.269 515.036 202.633C516.509 200.996 517.337 198.776 517.337 196.462V26.3881C517.337 24.0736 516.509 21.8538 515.036 20.2172C513.563 18.5806 511.565 17.6611 509.482 17.6611H461.803Z" fill="#2D4F7A"/>
<path d="M468.393 19.7217H510.307C511.584 19.7217 512.808 20.2851 513.711 21.2881C514.614 22.291 515.121 23.6513 515.121 25.0697V196.937C515.121 198.355 514.614 199.716 513.711 200.719C512.808 201.722 511.584 202.285 510.307 202.285H468.393C467.116 202.285 465.892 201.722 464.989 200.719C464.086 199.716 463.579 198.355 463.579 196.937V25.0697C463.579 23.6513 464.086 22.291 464.989 21.2881C465.892 20.2851 467.116 19.7217 468.393 19.7217Z" fill="#65AF7E"/>
<path d="M413.788 19.7217H455.703C456.979 19.7217 458.204 20.2851 459.106 21.2881C460.009 22.291 460.516 23.6513 460.516 25.0697V196.937C460.516 198.355 460.009 199.716 459.106 200.719C458.204 201.722 456.979 202.285 455.703 202.285H413.788C412.512 202.285 411.287 201.722 410.385 200.719C409.482 199.716 408.975 198.355 408.975 196.937V25.0696C408.975 23.6513 409.482 22.291 410.385 21.2881C411.287 20.2851 412.512 19.7217 413.788 19.7217Z" fill="#65AF7E"/>
<path opacity="0.5" d="M973.496 0.67837C971.767 0.227061 969.995 -0.000569418 968.219 1.05236e-05H23.0191C20.4056 -0.00262591 17.8109 0.490125 15.3467 1.45705C15.3467 3.43895 16.0553 5.33967 17.3167 6.74109C18.5781 8.14251 20.2889 8.92984 22.0728 8.92986H966.77C968.554 8.92986 970.265 8.14256 971.526 6.74114C972.788 5.33973 973.496 3.43901 973.496 1.4571V0.67837Z" fill="#E2F5FF"/>
<path d="M7.31915 165.918H8.4051C9.18335 165.918 9.92972 166.261 10.48 166.873C11.0303 167.484 11.3395 168.313 11.3395 169.178V192.187C11.3395 193.052 11.0303 193.881 10.48 194.493C9.92974 195.104 9.18338 195.448 8.40514 195.448H7.31915C6.5409 195.448 5.79453 195.104 5.24422 194.493C4.69392 193.881 4.38477 193.052 4.38477 192.187V169.178C4.38477 168.313 4.69392 167.484 5.24422 166.873C5.79453 166.261 6.5409 165.918 7.31915 165.918Z" fill="#D14A4A"/>
<path d="M991.81 186.948H979.24C978.84 186.948 978.445 187.05 978.087 187.246C977.728 187.441 977.414 187.725 977.169 188.076C976.924 188.428 976.755 188.836 976.675 189.271C976.594 189.706 976.604 190.156 976.705 190.586L977.717 194.935C978.152 196.803 979.133 198.457 980.506 199.638C981.879 200.819 983.566 201.459 985.302 201.459H988.894L991.81 186.948Z" fill="#E27F46"/>
<path d="M129.44 17.6611H81.7613C79.678 17.6611 77.6801 18.5806 76.207 20.2172C74.7338 21.8538 73.9063 24.0736 73.9062 26.3881V196.462C73.9063 198.776 74.7338 200.996 76.207 202.633C77.6801 204.269 79.678 205.189 81.7613 205.189H177.118C178.15 205.189 179.171 204.963 180.124 204.524C181.077 204.086 181.943 203.443 182.673 202.633C183.402 201.822 183.981 200.86 184.375 199.801C184.77 198.743 184.973 197.608 184.973 196.462V26.3881C184.973 25.2421 184.77 24.1072 184.375 23.0484C183.981 21.9896 183.402 21.0276 182.673 20.2172C181.943 19.4068 181.077 18.764 180.124 18.3254C179.171 17.8869 178.15 17.6611 177.118 17.6611H129.44Z" fill="#2D4F7A"/>
<path d="M136.025 19.7217H177.939C179.216 19.7217 180.44 20.2851 181.343 21.2881C182.246 22.291 182.753 23.6513 182.753 25.0697V196.937C182.753 198.355 182.246 199.716 181.343 200.719C180.44 201.722 179.216 202.285 177.939 202.285H136.025C134.748 202.285 133.524 201.722 132.621 200.719C131.718 199.716 131.211 198.355 131.211 196.937V25.0697C131.211 23.6513 131.718 22.291 132.621 21.2881C133.524 20.2851 134.748 19.7217 136.025 19.7217Z" fill="#65AF7E"/>
<path d="M81.425 19.7217H123.339C123.972 19.7217 124.597 19.86 125.182 20.1288C125.766 20.3975 126.296 20.7915 126.743 21.2881C127.19 21.7847 127.545 22.3743 127.787 23.0231C128.029 23.672 128.153 24.3674 128.153 25.0697V196.937C128.153 198.355 127.646 199.716 126.743 200.719C125.84 201.722 124.616 202.285 123.339 202.285H81.425C80.1484 202.285 78.924 201.722 78.0212 200.719C77.1185 199.716 76.6113 198.355 76.6113 196.937V25.0697C76.6113 23.6513 77.1185 22.291 78.0212 21.2881C78.924 20.2851 80.1484 19.7217 81.425 19.7217Z" fill="#65AF7E"/>
<path d="M236.635 173.828C225.613 173.828 215.043 178.692 207.25 187.351C199.456 196.009 195.078 207.752 195.078 219.997H278.191C278.191 207.752 273.813 196.009 266.019 187.351C258.226 178.692 247.656 173.828 236.635 173.828Z" fill="#1F262F"/>
<path d="M789.384 173.828C778.362 173.828 767.792 178.692 759.999 187.351C752.205 196.009 747.827 207.752 747.827 219.997H830.94C830.94 207.752 826.562 196.009 818.769 187.351C810.975 178.692 800.405 173.828 789.384 173.828Z" fill="#1F262F"/>
<path d="M4.38477 175.156H5.09786C6.11995 175.156 7.10018 175.607 7.8229 176.41C8.54563 177.213 8.95166 178.302 8.95166 179.438V182.316C8.95166 183.452 8.54563 184.541 7.8229 185.344C7.10018 186.147 6.11995 186.598 5.09786 186.598H4.38477V175.156Z" fill="#DA6734"/>
<path d="M997.831 144.442L995.83 108.125L973.496 117.406C973.496 120.957 974.125 124.472 975.348 127.752C976.571 131.033 978.364 134.013 980.624 136.524C982.883 139.034 985.566 141.025 988.518 142.384C991.471 143.743 994.635 144.442 997.831 144.442Z" fill="#548BAE"/>
<path style="mix-blend-mode:screen" opacity="0.44" d="M997.07 130.693L991.175 23.7129C991.101 22.5404 990.955 21.3749 990.737 20.2246H984.263L985.535 112.911C985.589 116.83 986.724 120.636 988.786 123.816C990.849 126.996 993.74 129.396 997.07 130.693Z" fill="url(#paint0_linear_1276_5965)"/>
<path style="mix-blend-mode:screen" opacity="0.44" d="M59.8843 53.7207L25.1875 53.7207C24.6888 53.7207 24.195 53.6116 23.7343 53.3996C23.2736 53.1875 22.855 52.8768 22.5023 52.485C22.1497 52.0933 21.87 51.6282 21.6792 51.1163C21.4883 50.6045 21.3901 50.0559 21.3901 49.5019V32.9188C21.3901 31.7999 21.7902 30.7268 22.5024 29.9356C23.2145 29.1444 24.1804 28.7 25.1875 28.7L59.8843 28.7C60.8914 28.7 61.8573 29.1444 62.5694 29.9356C63.2816 30.7268 63.6816 31.7999 63.6816 32.9188V49.5018C63.6816 50.6207 63.2816 51.6938 62.5694 52.485C61.8573 53.2762 60.8914 53.7207 59.8843 53.7207Z" fill="url(#paint1_linear_1276_5965)"/>
<path d="M914.936 26.1865H943.242C944.721 26.1865 946.14 26.8392 947.185 28.001C948.231 29.1628 948.818 30.7385 948.818 32.3815V112.538C948.818 114.181 948.231 115.757 947.185 116.918C946.14 118.08 944.721 118.733 943.242 118.733H914.936C913.458 118.733 912.039 118.08 910.994 116.918C909.948 115.757 909.36 114.181 909.36 112.538V32.3815C909.36 30.7385 909.948 29.1628 910.994 28.001C912.039 26.8392 913.458 26.1865 914.936 26.1865Z" fill="#2D4F7A"/>
<path d="M947.905 32.3779V112.534C947.905 113.908 947.414 115.226 946.54 116.197C945.665 117.169 944.479 117.714 943.242 117.714H914.937C913.7 117.714 912.514 117.169 911.639 116.197C910.765 115.226 910.274 113.908 910.274 112.534V32.3776C910.274 31.0037 910.765 29.6861 911.639 28.7146C912.514 27.7431 913.7 27.1973 914.937 27.1973L943.243 27.1973C943.855 27.1973 944.461 27.3313 945.027 27.5917C945.593 27.8521 946.107 28.2337 946.54 28.7147C946.973 29.1958 947.316 29.7669 947.55 30.3954C947.785 31.0239 947.905 31.6976 947.905 32.3779Z" fill="#7FA9BE"/>
<path d="M859.404 26.1865H887.71C888.442 26.1865 889.167 26.3468 889.844 26.6581C890.52 26.9694 891.135 27.4257 891.653 28.001C892.171 28.5762 892.581 29.2591 892.862 30.0107C893.142 30.7623 893.286 31.5679 893.286 32.3814V112.538C893.286 113.351 893.142 114.157 892.862 114.908C892.581 115.66 892.171 116.343 891.653 116.918C891.135 117.493 890.52 117.95 889.844 118.261C889.167 118.572 888.442 118.733 887.71 118.733H859.404C857.925 118.733 856.507 118.08 855.461 116.918C854.416 115.756 853.828 114.181 853.828 112.538V32.3814C853.828 30.7384 854.416 29.1627 855.461 28.001C856.507 26.8392 857.925 26.1865 859.404 26.1865Z" fill="#2D4F7A"/>
<path d="M892.373 32.3779V112.534C892.373 113.908 891.882 115.226 891.007 116.197C890.133 117.169 888.947 117.714 887.71 117.714H859.404C858.792 117.714 858.186 117.58 857.62 117.32C857.054 117.06 856.54 116.678 856.107 116.197C855.674 115.716 855.331 115.145 855.096 114.517C854.862 113.888 854.741 113.214 854.741 112.534V32.3776C854.741 31.0037 855.233 29.6861 856.107 28.7146C856.982 27.7431 858.168 27.1973 859.404 27.1973L887.71 27.1973C888.323 27.1973 888.929 27.3314 889.495 27.5917C890.06 27.8521 890.574 28.2337 891.007 28.7147C891.44 29.1958 891.784 29.7669 892.018 30.3954C892.252 31.0239 892.373 31.6976 892.373 32.3779Z" fill="#7FA9BE"/>
<path style="mix-blend-mode:screen" opacity="0.44" d="M886.305 53.7207L860.806 53.7207C859.799 53.7207 858.833 53.2762 858.121 52.485C857.409 51.6938 857.009 50.6207 857.009 49.5018V32.9188C857.009 31.7999 857.409 30.7268 858.121 29.9356C858.833 29.1444 859.799 28.7 860.806 28.7L886.305 28.7C887.312 28.7 888.278 29.1444 888.99 29.9356C889.702 30.7268 890.103 31.7999 890.103 32.9188V49.5018C890.103 50.6207 889.702 51.6938 888.99 52.485C888.278 53.2762 887.312 53.7207 886.305 53.7207Z" fill="url(#paint2_linear_1276_5965)"/>
<path style="mix-blend-mode:screen" opacity="0.44" d="M941.837 53.7207L916.338 53.7207C915.84 53.7207 915.346 53.6116 914.885 53.3996C914.424 53.1875 914.006 52.8768 913.653 52.485C913.3 52.0933 913.021 51.6282 912.83 51.1163C912.639 50.6045 912.541 50.0559 912.541 49.5019V32.9188C912.541 31.7999 912.941 30.7268 913.653 29.9356C914.365 29.1444 915.331 28.7 916.338 28.7L941.837 28.7C942.844 28.7 943.81 29.1444 944.523 29.9356C945.235 30.7268 945.635 31.7999 945.635 32.9188V49.5018C945.635 50.6207 945.235 51.6938 944.523 52.485C943.81 53.2762 942.845 53.7207 941.837 53.7207Z" fill="url(#paint3_linear_1276_5965)"/>
<path style="mix-blend-mode:screen" opacity="0.44" d="M199.793 53.7207L284.235 53.7207C286.332 53.7207 288.032 51.8318 288.032 49.5018V32.9187C288.032 30.5887 286.332 28.6999 284.235 28.6999L199.793 28.6999C197.695 28.6999 195.995 30.5887 195.995 32.9187V49.5018C195.995 51.8318 197.695 53.7207 199.793 53.7207Z" fill="url(#paint4_linear_1276_5965)"/>
<path style="mix-blend-mode:screen" opacity="0.44" d="M390.065 53.7207L305.623 53.7207C305.124 53.7207 304.63 53.6116 304.17 53.3996C303.709 53.1875 303.29 52.8768 302.938 52.485C302.585 52.0933 302.305 51.6282 302.115 51.1163C301.924 50.6045 301.826 50.0559 301.826 49.5019V32.9188C301.826 31.7999 302.226 30.7268 302.938 29.9356C303.65 29.1444 304.616 28.7 305.623 28.7L390.065 28.7C391.072 28.7 392.038 29.1445 392.75 29.9357C393.462 30.7269 393.862 31.7999 393.862 32.9188V49.5018C393.862 50.6207 393.462 51.6938 392.75 52.485C392.038 53.2762 391.072 53.7207 390.065 53.7207Z" fill="url(#paint5_linear_1276_5965)"/>
<path style="mix-blend-mode:screen" opacity="0.44" d="M534.104 53.7207L618.546 53.7207C620.644 53.7207 622.344 51.8318 622.344 49.5018V32.9187C622.344 30.5887 620.644 28.6999 618.546 28.6999L534.104 28.6999C532.007 28.6999 530.307 30.5887 530.307 32.9187V49.5018C530.307 51.8318 532.007 53.7207 534.104 53.7207Z" fill="url(#paint6_linear_1276_5965)"/>
<path style="mix-blend-mode:screen" opacity="0.44" d="M724.376 53.7207L639.934 53.7207C639.436 53.7207 638.942 53.6116 638.481 53.3996C638.02 53.1875 637.602 52.8768 637.249 52.485C636.897 52.0933 636.617 51.6282 636.426 51.1163C636.235 50.6045 636.137 50.0559 636.137 49.5019V32.9188C636.137 31.7999 636.537 30.7268 637.249 29.9356C637.961 29.1444 638.927 28.7 639.934 28.7L724.376 28.7C725.384 28.7 726.349 29.1444 727.062 29.9356C727.774 30.7268 728.174 31.7999 728.174 32.9188V49.5018C728.174 50.6207 727.774 51.6938 727.062 52.485C726.349 53.2762 725.384 53.7207 724.376 53.7207Z" fill="url(#paint7_linear_1276_5965)"/>
<path style="mix-blend-mode:screen" opacity="0.44" d="M746.56 53.7207L831.002 53.7207C833.1 53.7207 834.8 51.8318 834.8 49.5018V32.9187C834.8 30.5887 833.1 28.6999 831.002 28.6999L746.56 28.6999C744.463 28.6999 742.763 30.5887 742.763 32.9187V49.5018C742.763 51.8318 744.463 53.7207 746.56 53.7207Z" fill="url(#paint8_linear_1276_5965)"/>
<path style="mix-blend-mode:screen" opacity="0.44" d="M602.423 111.421L618.559 37.8564H555.824L539.688 111.421H602.423Z" fill="url(#paint9_linear_1276_5965)"/>
<path style="mix-blend-mode:screen" opacity="0.44" d="M672.789 111.421L688.925 37.8564H657.558L641.421 111.421H672.789Z" fill="url(#paint10_linear_1276_5965)"/>
<path style="mix-blend-mode:screen" opacity="0.44" d="M266.305 111.421L282.441 37.8564H219.706L203.569 111.421H266.305Z" fill="url(#paint11_linear_1276_5965)"/>
<path style="mix-blend-mode:screen" opacity="0.44" d="M336.675 111.421L352.811 37.8564H321.444L305.308 111.421H336.675Z" fill="url(#paint12_linear_1276_5965)"/>
<path d="M503.726 26.1865H475.42C472.34 26.1865 469.844 28.9601 469.844 32.3815V112.538C469.844 115.959 472.34 118.733 475.42 118.733H503.726C506.805 118.733 509.302 115.959 509.302 112.538V32.3815C509.302 28.9601 506.805 26.1865 503.726 26.1865Z" fill="#2D4F7A"/>
<path d="M508.389 32.3776V112.534C508.389 113.908 507.897 115.226 507.023 116.197C506.149 117.169 504.963 117.714 503.726 117.714H475.42C474.183 117.714 472.997 117.169 472.123 116.197C471.248 115.226 470.757 113.908 470.757 112.534V32.3776C470.757 31.0037 471.248 29.6861 472.123 28.7146C472.997 27.7431 474.183 27.1973 475.42 27.1973L503.726 27.1973C504.338 27.1973 504.945 27.3313 505.51 27.5916C506.076 27.8519 506.59 28.2335 507.023 28.7146C507.456 29.1956 507.799 29.7667 508.034 30.3952C508.268 31.0237 508.389 31.6973 508.389 32.3776Z" fill="#7FA9BE"/>
<path d="M419.888 26.1865H448.193C449.672 26.1865 451.091 26.8392 452.136 28.001C453.182 29.1628 453.769 30.7385 453.769 32.3815V112.538C453.769 114.181 453.182 115.757 452.136 116.918C451.091 118.08 449.672 118.733 448.193 118.733H419.888C418.409 118.733 416.99 118.08 415.945 116.918C414.899 115.757 414.312 114.181 414.312 112.538V32.3815C414.312 31.568 414.456 30.7624 414.736 30.0108C415.016 29.2592 415.427 28.5763 415.945 28.001C416.462 27.4257 417.077 26.9694 417.754 26.6581C418.43 26.3468 419.155 26.1865 419.888 26.1865Z" fill="#2D4F7A"/>
<path d="M452.856 32.3776V112.534C452.856 113.908 452.365 115.225 451.491 116.197C450.616 117.168 449.43 117.714 448.194 117.714H419.888C418.651 117.714 417.465 117.168 416.591 116.197C415.716 115.225 415.225 113.908 415.225 112.534V32.3776C415.225 31.6973 415.345 31.0237 415.58 30.3952C415.814 29.7667 416.158 29.1956 416.591 28.7146C417.024 28.2335 417.538 27.8519 418.103 27.5916C418.669 27.3313 419.275 27.1973 419.888 27.1973L448.194 27.1973C448.806 27.1973 449.412 27.3313 449.978 27.5916C450.544 27.8519 451.058 28.2335 451.491 28.7146C451.924 29.1956 452.267 29.7667 452.502 30.3952C452.736 31.0237 452.856 31.6973 452.856 32.3776Z" fill="#7FA9BE"/>
<path style="mix-blend-mode:screen" opacity="0.44" d="M446.789 53.7207L421.289 53.7207C420.282 53.7207 419.316 53.2762 418.604 52.485C417.892 51.6938 417.492 50.6207 417.492 49.5018V32.9188C417.492 31.7999 417.892 30.7268 418.604 29.9356C419.316 29.1444 420.282 28.7 421.289 28.7L446.789 28.7C447.287 28.7 447.781 28.8091 448.242 29.0211C448.702 29.2331 449.121 29.5439 449.474 29.9356C449.826 30.3274 450.106 30.7925 450.297 31.3043C450.488 31.8162 450.586 32.3648 450.586 32.9188V49.5018C450.586 50.0559 450.488 50.6045 450.297 51.1163C450.106 51.6282 449.826 52.0933 449.474 52.485C449.121 52.8768 448.702 53.1875 448.242 53.3996C447.781 53.6116 447.287 53.7207 446.789 53.7207Z" fill="url(#paint13_linear_1276_5965)"/>
<path style="mix-blend-mode:screen" opacity="0.44" d="M502.321 53.7207L476.822 53.7207C476.323 53.7207 475.829 53.6116 475.368 53.3996C474.908 53.1875 474.489 52.8768 474.136 52.485C473.784 52.0933 473.504 51.6282 473.313 51.1163C473.122 50.6045 473.024 50.0559 473.024 49.5019V32.9188C473.024 31.7999 473.424 30.7268 474.136 29.9356C474.849 29.1444 475.814 28.7 476.822 28.7L502.321 28.7C503.328 28.7 504.294 29.1444 505.006 29.9356C505.718 30.7268 506.118 31.7999 506.118 32.9188V49.5018C506.118 50.6207 505.718 51.6938 505.006 52.485C504.294 53.2762 503.328 53.7207 502.321 53.7207Z" fill="url(#paint14_linear_1276_5965)"/>
<path d="M143.052 26.1865H171.358C172.836 26.1865 174.255 26.8392 175.3 28.001C176.346 29.1628 176.934 30.7385 176.934 32.3815V112.538C176.934 114.181 176.346 115.757 175.3 116.918C174.255 118.08 172.836 118.733 171.358 118.733H143.052C141.573 118.733 140.154 118.08 139.109 116.918C138.063 115.756 137.476 114.181 137.476 112.538V32.3813C137.476 30.7383 138.063 29.1626 139.109 28.0009C140.155 26.8392 141.573 26.1865 143.052 26.1865Z" fill="#2D4F7A"/>
<path d="M176.021 32.3776V112.534C176.021 113.908 175.529 115.225 174.655 116.197C173.78 117.168 172.594 117.714 171.358 117.714H143.052C141.815 117.714 140.629 117.168 139.755 116.197C138.88 115.225 138.389 113.908 138.389 112.534V32.3776C138.389 31.0037 138.88 29.6861 139.755 28.7146C140.629 27.7431 141.815 27.1973 143.052 27.1973L171.358 27.1973C171.97 27.1973 172.576 27.3313 173.142 27.5916C173.708 27.8519 174.222 28.2335 174.655 28.7146C175.088 29.1956 175.431 29.7667 175.666 30.3952C175.9 31.0237 176.021 31.6973 176.021 32.3776Z" fill="#7FA9BE"/>
<path d="M87.5194 26.1865H115.825C117.304 26.1865 118.722 26.8392 119.768 28.001C120.814 29.1627 121.401 30.7384 121.401 32.3814V112.538C121.401 114.181 120.814 115.756 119.768 116.918C118.722 118.08 117.304 118.733 115.825 118.733H87.5194C86.0406 118.733 84.6223 118.08 83.5765 116.918C82.5308 115.756 81.9434 114.181 81.9434 112.538V32.3813C81.9434 30.7383 82.5309 29.1627 83.5766 28.0009C84.6223 26.8392 86.0406 26.1865 87.5194 26.1865Z" fill="#2D4F7A"/>
<path d="M120.488 32.3776V112.534C120.488 113.908 119.997 115.225 119.123 116.197C118.248 117.168 117.062 117.714 115.825 117.714H87.5196C86.2829 117.714 85.0969 117.168 84.2224 116.197C83.348 115.225 82.8567 113.908 82.8567 112.534V32.3776C82.8567 31.0037 83.348 29.6861 84.2224 28.7146C85.0969 27.7431 86.2829 27.1973 87.5196 27.1973L115.825 27.1973C117.062 27.1973 118.248 27.7431 119.123 28.7146C119.997 29.6861 120.488 31.0037 120.488 32.3776Z" fill="#7FA9BE"/>
<path style="mix-blend-mode:screen" opacity="0.44" d="M114.42 53.7207L88.9212 53.7207C88.4225 53.7207 87.9288 53.6116 87.468 53.3996C87.0073 53.1875 86.5887 52.8768 86.2361 52.485C85.8834 52.0933 85.6037 51.6282 85.4129 51.1163C85.2221 50.6045 85.1238 50.0559 85.1238 49.5018V32.9188C85.1238 32.3648 85.2221 31.8162 85.4129 31.3043C85.6037 30.7925 85.8834 30.3274 86.2361 29.9356C86.5887 29.5439 87.0073 29.2331 87.468 29.0211C87.9288 28.8091 88.4225 28.7 88.9212 28.7L114.42 28.7C115.428 28.7 116.393 29.1444 117.106 29.9356C117.818 30.7268 118.218 31.7999 118.218 32.9188V49.5018C118.218 50.6207 117.818 51.6938 117.106 52.485C116.393 53.2762 115.428 53.7207 114.42 53.7207Z" fill="url(#paint15_linear_1276_5965)"/>
<path style="mix-blend-mode:screen" opacity="0.44" d="M169.957 53.7207L144.458 53.7207C143.96 53.7207 143.466 53.6116 143.005 53.3996C142.544 53.1875 142.126 52.8768 141.773 52.485C141.421 52.0933 141.141 51.6282 140.95 51.1163C140.759 50.6045 140.661 50.0559 140.661 49.5019V32.9188C140.661 31.7999 141.061 30.7268 141.773 29.9356C142.485 29.1444 143.451 28.7 144.458 28.7L169.958 28.7C170.965 28.7 171.931 29.1444 172.643 29.9356C173.355 30.7268 173.755 31.7999 173.755 32.9188V49.5018C173.755 50.0559 173.657 50.6045 173.466 51.1163C173.275 51.6282 172.995 52.0933 172.643 52.485C172.29 52.8768 171.871 53.1875 171.411 53.3996C170.95 53.6116 170.456 53.7207 169.957 53.7207Z" fill="url(#paint16_linear_1276_5965)"/>
<path d="M997.772 143.43L996.858 143.394C990.822 143.108 985.119 140.244 980.937 135.401C976.755 130.557 974.416 124.107 974.409 117.396V27.9959C974.411 26.2046 975.052 24.4872 976.193 23.2206C977.333 21.9539 978.878 21.2414 980.491 21.2394L990.897 21.2362C990.859 20.8929 990.804 20.5572 990.741 20.2246H980.491C978.636 20.2246 976.857 21.0434 975.545 22.5008C974.233 23.9583 973.496 25.9349 973.496 27.996V117.396C973.496 120.946 974.126 124.462 975.348 127.742C976.571 131.022 978.364 134.002 980.624 136.513C982.883 139.023 985.566 141.015 988.518 142.373C991.471 143.732 994.635 144.431 997.831 144.431L997.776 143.431L997.772 143.43Z" fill="#2D4F7A"/>
<path d="M235.052 250C254.382 250 270.041 234.33 270.026 215C270.012 195.67 254.33 180 235 180C215.67 180 200.012 195.67 200.026 215C200.041 234.33 215.722 250 235.052 250Z" fill="#2F343C"/>
<path d="M235 242.5C250.188 242.5 262.5 230.188 262.5 215C262.5 199.812 250.188 187.5 235 187.5C219.812 187.5 207.5 199.812 207.5 215C207.5 230.188 219.812 242.5 235 242.5Z" fill="white"/>
<path d="M235 232.5C244.665 232.5 252.5 224.665 252.5 215C252.5 205.335 244.665 197.5 235 197.5C225.335 197.5 217.5 205.335 217.5 215C217.5 224.665 225.335 232.5 235 232.5Z" fill="#6E757B"/>
<path d="M235.005 229.926C243.224 229.926 249.887 223.263 249.887 215.044C249.887 206.824 243.224 200.161 235.005 200.161C226.785 200.161 220.122 206.824 220.122 215.044C220.122 223.263 226.785 229.926 235.005 229.926Z" fill="white"/>
<path d="M235 222.5C239.142 222.5 242.5 219.142 242.5 215C242.5 210.858 239.142 207.5 235 207.5C230.858 207.5 227.5 210.858 227.5 215C227.5 219.142 230.858 222.5 235 222.5Z" fill="#6E757B"/>
<path d="M240 215C240 215.989 239.707 216.956 239.157 217.778C238.608 218.6 237.827 219.241 236.913 219.619C236 219.998 234.994 220.097 234.025 219.904C233.055 219.711 232.164 219.235 231.464 218.536C230.765 217.836 230.289 216.945 230.096 215.975C229.903 215.006 230.002 214 230.381 213.087C230.759 212.173 231.4 211.392 232.222 210.843C233.044 210.293 234.011 210 235 210C236.326 210 237.598 210.527 238.536 211.464C239.473 212.402 240 213.674 240 215Z" fill="#A3A7AA"/>
<path d="M232.867 190H237.13C237.631 190 238.112 190.199 238.467 190.554C238.821 190.908 239.02 191.389 239.02 191.89V192.59C239.02 193.091 238.821 193.572 238.467 193.927C238.112 194.281 237.631 194.48 237.13 194.48H232.867C232.365 194.48 231.884 194.281 231.53 193.927C231.176 193.572 230.977 193.091 230.977 192.59V191.89C230.977 191.389 231.176 190.908 231.53 190.554C231.885 190.199 232.365 190 232.867 190Z" fill="#2F343C"/>
<path d="M232.867 235.52H237.13C237.632 235.52 238.113 235.719 238.467 236.073C238.822 236.428 239.021 236.908 239.021 237.41V238.11C239.021 238.611 238.822 239.092 238.467 239.446C238.113 239.801 237.632 240 237.13 240H232.867C232.366 240 231.885 239.801 231.53 239.446C231.176 239.092 230.977 238.611 230.977 238.11V237.41C230.977 237.162 231.025 236.916 231.12 236.687C231.215 236.457 231.355 236.249 231.53 236.073C231.706 235.898 231.914 235.758 232.143 235.663C232.373 235.568 232.619 235.52 232.867 235.52Z" fill="#2F343C"/>
<path d="M260 217.086V212.823C260 211.779 259.154 210.933 258.11 210.933H257.41C256.366 210.933 255.52 211.779 255.52 212.823V217.086C255.52 218.13 256.366 218.977 257.41 218.977H258.11C259.154 218.977 260 218.13 260 217.086Z" fill="#2F343C"/>
<path d="M214.48 212.823V217.086C214.48 217.588 214.281 218.068 213.926 218.423C213.572 218.777 213.091 218.977 212.59 218.977H211.89C211.389 218.977 210.908 218.777 210.553 218.423C210.199 218.068 210 217.588 210 217.086V212.823C210 212.322 210.199 211.841 210.553 211.486C210.908 211.132 211.389 210.933 211.89 210.933H212.59C213.091 210.933 213.572 211.132 213.926 211.486C214.281 211.841 214.48 212.322 214.48 212.823Z" fill="#2F343C"/>
<path d="M215.831 198.795L218.846 195.781C219.021 195.605 219.23 195.466 219.459 195.371C219.688 195.276 219.934 195.227 220.183 195.227C220.431 195.227 220.677 195.276 220.906 195.371C221.135 195.466 221.344 195.605 221.519 195.781L222.014 196.275C222.368 196.63 222.568 197.111 222.568 197.612C222.568 198.113 222.368 198.594 222.014 198.949L218.999 201.963C218.645 202.318 218.164 202.517 217.663 202.517C217.161 202.517 216.68 202.318 216.326 201.963L215.831 201.468C215.477 201.114 215.278 200.633 215.278 200.132C215.278 199.631 215.477 199.15 215.831 198.795L215.831 198.795Z" fill="#2F343C"/>
<path d="M248.014 230.982L251.028 227.968C251.383 227.613 251.864 227.414 252.365 227.414C252.866 227.414 253.347 227.613 253.701 227.968L254.196 228.462C254.551 228.817 254.75 229.298 254.75 229.799C254.75 230.3 254.551 230.781 254.196 231.136L251.182 234.15C251.006 234.326 250.798 234.465 250.568 234.56C250.339 234.655 250.093 234.704 249.845 234.704C249.597 234.704 249.351 234.655 249.122 234.56C248.892 234.465 248.684 234.326 248.508 234.15L248.014 233.655C247.659 233.301 247.46 232.82 247.46 232.319C247.46 231.818 247.659 231.337 248.014 230.982Z" fill="#2F343C"/>
<path d="M251.151 195.746L254.166 198.76C254.52 199.115 254.719 199.596 254.719 200.097C254.719 200.599 254.52 201.079 254.166 201.434L253.671 201.929C253.317 202.283 252.836 202.482 252.334 202.482C251.833 202.482 251.352 202.283 250.998 201.929L247.983 198.914C247.629 198.559 247.429 198.079 247.429 197.577C247.429 197.076 247.629 196.595 247.983 196.241L248.478 195.746C248.832 195.391 249.313 195.192 249.814 195.192C250.316 195.192 250.796 195.391 251.151 195.746L251.151 195.746Z" fill="#2F343C"/>
<path d="M218.966 227.936L221.981 230.95C222.335 231.305 222.534 231.786 222.534 232.287C222.534 232.788 222.335 233.269 221.981 233.624L221.486 234.118C221.132 234.473 220.651 234.672 220.149 234.672C219.648 234.672 219.167 234.473 218.813 234.118L215.798 231.104C215.443 230.749 215.244 230.268 215.244 229.767C215.244 229.266 215.443 228.785 215.798 228.431L216.293 227.936C216.647 227.581 217.128 227.382 217.629 227.382C218.131 227.382 218.612 227.581 218.966 227.936Z" fill="#2F343C"/>
<path opacity="0.21" d="M256.865 195C256.617 195 256.372 194.953 256.143 194.86C255.915 194.768 255.707 194.632 255.532 194.461C250.082 189.156 242.698 186.177 235 186.177C227.302 186.177 219.918 189.156 214.468 194.461C214.115 194.806 213.635 195 213.135 195C212.635 195 212.156 194.806 211.802 194.461C211.449 194.116 211.25 193.648 211.25 193.161C211.25 192.673 211.449 192.205 211.802 191.86C217.959 185.866 226.302 182.5 235 182.5C243.698 182.5 252.041 185.866 258.198 191.86C258.461 192.117 258.641 192.445 258.714 192.802C258.787 193.158 258.749 193.528 258.607 193.864C258.464 194.2 258.222 194.488 257.912 194.69C257.602 194.892 257.238 195 256.865 195H256.865Z" fill="white"/>
<path d="M790.052 250C809.382 250 825.041 234.33 825.026 215C825.012 195.67 809.33 180 790 180C770.67 180 755.012 195.67 755.026 215C755.041 234.33 770.722 250 790.052 250Z" fill="#2F343C"/>
<path d="M790 242.5C805.188 242.5 817.5 230.188 817.5 215C817.5 199.812 805.188 187.5 790 187.5C774.812 187.5 762.5 199.812 762.5 215C762.5 230.188 774.812 242.5 790 242.5Z" fill="white"/>
<path d="M790 232.5C799.665 232.5 807.5 224.665 807.5 215C807.5 205.335 799.665 197.5 790 197.5C780.335 197.5 772.5 205.335 772.5 215C772.5 224.665 780.335 232.5 790 232.5Z" fill="#6E757B"/>
<path d="M790.005 229.926C798.224 229.926 804.887 223.263 804.887 215.044C804.887 206.824 798.224 200.161 790.005 200.161C781.785 200.161 775.122 206.824 775.122 215.044C775.122 223.263 781.785 229.926 790.005 229.926Z" fill="white"/>
<path d="M790 222.5C794.142 222.5 797.5 219.142 797.5 215C797.5 210.858 794.142 207.5 790 207.5C785.858 207.5 782.5 210.858 782.5 215C782.5 219.142 785.858 222.5 790 222.5Z" fill="#6E757B"/>
<path d="M795 215C795 215.989 794.707 216.956 794.157 217.778C793.608 218.6 792.827 219.241 791.913 219.619C791 219.998 789.994 220.097 789.025 219.904C788.055 219.711 787.164 219.235 786.464 218.536C785.765 217.836 785.289 216.945 785.096 215.975C784.903 215.006 785.002 214 785.381 213.087C785.759 212.173 786.4 211.392 787.222 210.843C788.044 210.293 789.011 210 790 210C791.326 210 792.598 210.527 793.536 211.464C794.473 212.402 795 213.674 795 215Z" fill="#A3A7AA"/>
<path d="M787.867 190H792.13C792.631 190 793.112 190.199 793.467 190.554C793.821 190.908 794.02 191.389 794.02 191.89V192.59C794.02 193.091 793.821 193.572 793.467 193.927C793.112 194.281 792.631 194.48 792.13 194.48H787.867C787.365 194.48 786.884 194.281 786.53 193.927C786.176 193.572 785.977 193.091 785.977 192.59V191.89C785.977 191.389 786.176 190.908 786.53 190.554C786.885 190.199 787.365 190 787.867 190Z" fill="#2F343C"/>
<path d="M787.867 235.52H792.13C792.632 235.52 793.113 235.719 793.467 236.073C793.822 236.428 794.021 236.908 794.021 237.41V238.11C794.021 238.611 793.822 239.092 793.467 239.446C793.113 239.801 792.632 240 792.13 240H787.867C787.366 240 786.885 239.801 786.53 239.446C786.176 239.092 785.977 238.611 785.977 238.11V237.41C785.977 237.162 786.025 236.916 786.12 236.687C786.215 236.457 786.355 236.249 786.53 236.073C786.706 235.898 786.914 235.758 787.143 235.663C787.373 235.568 787.619 235.52 787.867 235.52Z" fill="#2F343C"/>
<path d="M815 217.086V212.823C815 211.779 814.154 210.933 813.11 210.933H812.41C811.366 210.933 810.52 211.779 810.52 212.823V217.086C810.52 218.13 811.366 218.977 812.41 218.977H813.11C814.154 218.977 815 218.13 815 217.086Z" fill="#2F343C"/>
<path d="M769.48 212.823V217.086C769.48 217.588 769.281 218.068 768.926 218.423C768.572 218.777 768.091 218.977 767.59 218.977H766.89C766.389 218.977 765.908 218.777 765.553 218.423C765.199 218.068 765 217.588 765 217.086V212.823C765 212.322 765.199 211.841 765.553 211.486C765.908 211.132 766.389 210.933 766.89 210.933H767.59C768.091 210.933 768.572 211.132 768.926 211.486C769.281 211.841 769.48 212.322 769.48 212.823Z" fill="#2F343C"/>
<path d="M770.831 198.795L773.846 195.781C774.021 195.605 774.23 195.466 774.459 195.371C774.688 195.276 774.934 195.227 775.183 195.227C775.431 195.227 775.677 195.276 775.906 195.371C776.135 195.466 776.344 195.605 776.519 195.781L777.014 196.275C777.368 196.63 777.568 197.111 777.568 197.612C777.568 198.113 777.368 198.594 777.014 198.949L773.999 201.963C773.645 202.318 773.164 202.517 772.663 202.517C772.161 202.517 771.68 202.318 771.326 201.963L770.831 201.468C770.477 201.114 770.278 200.633 770.278 200.132C770.278 199.631 770.477 199.15 770.831 198.795L770.831 198.795Z" fill="#2F343C"/>
<path d="M803.014 230.982L806.028 227.968C806.383 227.613 806.864 227.414 807.365 227.414C807.866 227.414 808.347 227.613 808.701 227.968L809.196 228.462C809.551 228.817 809.75 229.298 809.75 229.799C809.75 230.3 809.551 230.781 809.196 231.136L806.182 234.15C806.006 234.326 805.798 234.465 805.568 234.56C805.339 234.655 805.093 234.704 804.845 234.704C804.597 234.704 804.351 234.655 804.122 234.56C803.892 234.465 803.684 234.326 803.508 234.15L803.014 233.655C802.659 233.301 802.46 232.82 802.46 232.319C802.46 231.818 802.659 231.337 803.014 230.982Z" fill="#2F343C"/>
<path d="M806.151 195.746L809.166 198.76C809.52 199.115 809.719 199.596 809.719 200.097C809.719 200.599 809.52 201.079 809.166 201.434L808.671 201.929C808.317 202.283 807.836 202.482 807.334 202.482C806.833 202.482 806.352 202.283 805.998 201.929L802.983 198.914C802.629 198.559 802.429 198.079 802.429 197.577C802.429 197.076 802.629 196.595 802.983 196.241L803.478 195.746C803.832 195.391 804.313 195.192 804.814 195.192C805.316 195.192 805.796 195.391 806.151 195.746L806.151 195.746Z" fill="#2F343C"/>
<path d="M773.966 227.936L776.981 230.95C777.335 231.305 777.534 231.786 777.534 232.287C777.534 232.788 777.335 233.269 776.981 233.624L776.486 234.118C776.132 234.473 775.651 234.672 775.149 234.672C774.648 234.672 774.167 234.473 773.813 234.118L770.798 231.104C770.443 230.749 770.244 230.268 770.244 229.767C770.244 229.266 770.443 228.785 770.798 228.431L771.293 227.936C771.647 227.581 772.128 227.382 772.629 227.382C773.131 227.382 773.612 227.581 773.966 227.936Z" fill="#2F343C"/>
<path opacity="0.21" d="M811.865 195C811.617 195 811.372 194.953 811.143 194.86C810.915 194.768 810.707 194.632 810.532 194.461C805.082 189.156 797.698 186.177 790 186.177C782.302 186.177 774.918 189.156 769.468 194.461C769.115 194.806 768.635 195 768.135 195C767.635 195 767.156 194.806 766.802 194.461C766.449 194.116 766.25 193.648 766.25 193.161C766.25 192.673 766.449 192.205 766.802 191.86C772.959 185.866 781.302 182.5 790 182.5C798.698 182.5 807.041 185.866 813.198 191.86C813.461 192.117 813.641 192.445 813.714 192.802C813.787 193.158 813.749 193.528 813.607 193.864C813.464 194.2 813.222 194.488 812.912 194.69C812.602 194.892 812.238 195 811.865 195H811.865Z" fill="white"/>
</g>
<defs>
<linearGradient id="paint0_linear_1276_5965" x1="984.263" y1="75.4587" x2="997.07" y2="75.4587" gradientUnits="userSpaceOnUse">
<stop/>
<stop offset="1" stop-color="white"/>
</linearGradient>
<linearGradient id="paint1_linear_1276_5965" x1="42.5359" y1="28.6999" x2="42.5359" y2="53.7207" gradientUnits="userSpaceOnUse">
<stop stop-color="white"/>
<stop offset="1"/>
</linearGradient>
<linearGradient id="paint2_linear_1276_5965" x1="873.556" y1="28.6999" x2="873.556" y2="53.7207" gradientUnits="userSpaceOnUse">
<stop stop-color="white"/>
<stop offset="1"/>
</linearGradient>
<linearGradient id="paint3_linear_1276_5965" x1="929.088" y1="28.6999" x2="929.088" y2="53.7207" gradientUnits="userSpaceOnUse">
<stop stop-color="white"/>
<stop offset="1"/>
</linearGradient>
<linearGradient id="paint4_linear_1276_5965" x1="242.014" y1="28.6999" x2="242.014" y2="53.7207" gradientUnits="userSpaceOnUse">
<stop stop-color="white"/>
<stop offset="1"/>
</linearGradient>
<linearGradient id="paint5_linear_1276_5965" x1="347.844" y1="28.6999" x2="347.844" y2="53.7207" gradientUnits="userSpaceOnUse">
<stop stop-color="white"/>
<stop offset="1"/>
</linearGradient>
<linearGradient id="paint6_linear_1276_5965" x1="576.325" y1="28.6999" x2="576.325" y2="53.7207" gradientUnits="userSpaceOnUse">
<stop stop-color="white"/>
<stop offset="1"/>
</linearGradient>
<linearGradient id="paint7_linear_1276_5965" x1="682.155" y1="28.6999" x2="682.155" y2="53.7207" gradientUnits="userSpaceOnUse">
<stop stop-color="white"/>
<stop offset="1"/>
</linearGradient>
<linearGradient id="paint8_linear_1276_5965" x1="788.781" y1="28.6999" x2="788.781" y2="53.7207" gradientUnits="userSpaceOnUse">
<stop stop-color="white"/>
<stop offset="1"/>
</linearGradient>
<linearGradient id="paint9_linear_1276_5965" x1="579.123" y1="111.421" x2="579.123" y2="37.8564" gradientUnits="userSpaceOnUse">
<stop stop-color="white"/>
<stop offset="1"/>
</linearGradient>
<linearGradient id="paint10_linear_1276_5965" x1="665.173" y1="111.421" x2="665.173" y2="37.8564" gradientUnits="userSpaceOnUse">
<stop stop-color="white"/>
<stop offset="1"/>
</linearGradient>
<linearGradient id="paint11_linear_1276_5965" x1="243.005" y1="111.421" x2="243.005" y2="37.8564" gradientUnits="userSpaceOnUse">
<stop stop-color="white"/>
<stop offset="1"/>
</linearGradient>
<linearGradient id="paint12_linear_1276_5965" x1="329.059" y1="111.421" x2="329.059" y2="37.8564" gradientUnits="userSpaceOnUse">
<stop stop-color="white"/>
<stop offset="1"/>
</linearGradient>
<linearGradient id="paint13_linear_1276_5965" x1="434.039" y1="28.6999" x2="434.039" y2="53.7207" gradientUnits="userSpaceOnUse">
<stop stop-color="white"/>
<stop offset="1"/>
</linearGradient>
<linearGradient id="paint14_linear_1276_5965" x1="489.571" y1="28.6999" x2="489.571" y2="53.7207" gradientUnits="userSpaceOnUse">
<stop stop-color="white"/>
<stop offset="1"/>
</linearGradient>
<linearGradient id="paint15_linear_1276_5965" x1="101.671" y1="28.6999" x2="101.671" y2="53.7207" gradientUnits="userSpaceOnUse">
<stop stop-color="white"/>
<stop offset="1"/>
</linearGradient>
<linearGradient id="paint16_linear_1276_5965" x1="157.208" y1="28.6999" x2="157.208" y2="53.7207" gradientUnits="userSpaceOnUse">
<stop stop-color="white"/>
<stop offset="1"/>
</linearGradient>
<clipPath id="clip0_1276_5965">
<rect width="1000" height="250" fill="white"/>
</clipPath>
</defs>
</svg>
