<svg width="1000" height="500" viewBox="0 0 1000 500" fill="none" xmlns="http://www.w3.org/2000/svg">
<g clip-path="url(#clip0_1276_5336)">
<path d="M384.419 379.823H268.042V450.344H384.419V379.823Z" fill="#222223"/>
<path d="M945.867 379.823H829.49V450.344H945.867V379.823Z" fill="#222223"/>
<path d="M982.108 360.367L890.958 304.7L765.432 171.344C756.343 163.415 744.753 159.055 732.766 159.055H644.355V450.344H831.93C832.008 434.864 838.125 420.046 848.942 409.129C859.76 398.211 874.398 392.082 889.656 392.082C904.915 392.082 919.553 398.211 930.371 409.129C941.188 420.046 947.304 434.864 947.383 450.344H982.689C984.452 450.344 986.197 449.991 987.825 449.307C989.454 448.623 990.933 447.62 992.179 446.355C993.426 445.091 994.415 443.59 995.089 441.938C995.764 440.286 996.11 438.516 996.11 436.728V391.321C996.111 385.443 994.86 379.634 992.443 374.292C990.026 368.95 986.501 364.2 982.108 360.367Z" fill="#EAF7FF"/>
<path d="M828.613 276.308L749.017 189.005C746.33 186.059 743.073 183.708 739.448 182.1C735.823 180.492 731.909 179.662 727.953 179.662H670.902C669.543 179.662 668.199 179.958 666.962 180.532C665.725 181.105 664.624 181.941 663.734 182.984C662.844 184.026 662.185 185.251 661.802 186.575C661.419 187.898 661.321 189.29 661.515 190.655L672.954 271.159C673.655 276.09 676.084 280.6 679.795 283.861C683.507 287.123 688.254 288.919 693.165 288.919H823.178C824.617 288.919 826.026 288.492 827.231 287.693C828.435 286.893 829.384 285.755 829.961 284.417C830.538 283.078 830.717 281.599 830.478 280.158C830.239 278.718 829.591 277.38 828.613 276.308Z" fill="#7FA9BE"/>
<path d="M673.041 271.159C673.742 276.09 676.171 280.6 679.883 283.861C683.595 287.123 688.341 288.919 693.252 288.919H704.255L687.852 231.006C686.222 225.259 683.166 220.031 678.977 215.823C674.787 211.615 669.603 208.568 663.921 206.973L673.041 271.159Z" fill="#68A1AA"/>
<path d="M773.449 179.662L876.034 288.919C873.682 288.919 871.355 288.434 869.194 287.492C867.033 286.551 865.083 285.174 863.464 283.444L771.224 184.917C770.811 184.475 770.534 183.921 770.429 183.322C770.323 182.723 770.393 182.105 770.63 181.546C770.867 180.987 771.26 180.51 771.761 180.175C772.262 179.84 772.849 179.662 773.449 179.662Z" fill="#7FA9BE"/>
<path d="M984.347 388.004H955.513L961.388 403.569C962.145 405.573 963.483 407.298 965.226 408.514C966.969 409.731 969.035 410.382 971.151 410.382H988.421L984.347 388.004Z" fill="#B4D8F0"/>
<path d="M968.091 388.004H955.513L961.388 403.569C962.144 405.573 963.483 407.298 965.226 408.514C966.97 409.731 969.036 410.382 971.151 410.382H972.165L968.091 388.004Z" fill="#E27F46"/>
<path d="M961.105 450.343H960.112C960.112 431.387 952.689 413.208 939.477 399.804C926.264 386.4 908.344 378.87 889.659 378.87C870.974 378.87 853.054 386.4 839.841 399.804C826.629 413.208 819.206 431.387 819.206 450.343H818.213C818.213 431.12 825.74 412.684 839.139 399.091C852.538 385.499 870.71 377.863 889.659 377.863C908.608 377.863 926.781 385.499 940.179 399.091C953.578 412.684 961.105 431.12 961.105 450.343Z" fill="#BCDDF7"/>
<path d="M988.421 411.375C988.809 413.597 989.707 415.695 991.043 417.499C992.38 419.303 994.116 420.763 996.112 421.759V391.321C996.112 390.208 996.052 389.104 995.964 388.004H984.346L988.421 411.375Z" fill="#345975"/>
<g style="mix-blend-mode:multiply">
<path d="M806.411 440.591H668.563C664.049 440.586 659.721 438.764 656.528 435.526C653.336 432.288 651.541 427.897 651.536 423.317V190.197C651.541 185.618 653.336 181.227 656.528 177.989C659.72 174.75 664.048 172.929 668.562 172.924H731.699C736.631 172.931 741.508 173.965 746.03 175.961C750.552 177.958 754.622 180.875 757.988 184.531L847.859 282.443C851.569 286.473 853.628 291.784 853.622 297.298V373.821L853.341 373.958C840.669 380.1 829.73 389.386 821.536 400.956C813.342 412.526 808.158 426.006 806.464 440.149L806.411 440.591ZM668.562 173.931C664.311 173.936 660.236 175.651 657.23 178.701C654.224 181.75 652.534 185.885 652.529 190.197V423.317C652.534 427.63 654.224 431.764 657.23 434.814C660.236 437.863 664.312 439.578 668.563 439.583H805.533C807.305 425.411 812.542 411.912 820.767 400.316C828.992 388.72 839.945 379.395 852.629 373.188V297.298C852.635 292.039 850.67 286.973 847.132 283.129L757.26 185.218C753.988 181.663 750.03 178.826 745.634 176.885C741.237 174.943 736.494 173.938 731.699 173.931H668.562Z" fill="#BCDDF7"/>
</g>
<path d="M832.241 444.582L382.82 443.374L383.495 450.345H831.933C831.944 448.344 832.047 446.423 832.241 444.582Z" fill="#373738"/>
<path d="M956.16 426.724H1000V438.234C1000 442.061 998.503 445.73 995.836 448.436C993.169 451.142 989.552 452.661 985.78 452.661H960.161C960.361 443.843 959.006 435.059 956.16 426.724Z" fill="#373738"/>
<path style="mix-blend-mode:multiply" opacity="0.83" d="M828.613 276.308L749.017 189.005C746.33 186.059 743.073 183.708 739.448 182.1C735.823 180.492 731.909 179.662 727.953 179.662H670.902C669.543 179.662 668.199 179.958 666.962 180.532C665.725 181.105 664.624 181.941 663.734 182.984C662.844 184.026 662.185 185.251 661.802 186.575C661.419 187.898 661.321 189.29 661.515 190.655L672.954 271.159C673.655 276.09 676.084 280.6 679.795 283.861C683.507 287.123 688.254 288.919 693.165 288.919H823.178C824.617 288.919 826.026 288.492 827.231 287.693C828.435 286.893 829.384 285.755 829.961 284.417C830.538 283.078 830.717 281.599 830.478 280.158C830.239 278.718 829.591 277.38 828.613 276.308Z" fill="url(#paint0_linear_1276_5336)"/>
<path style="mix-blend-mode:screen" opacity="0.44" d="M749.015 189.005C746.392 186.13 743.224 183.821 739.7 182.218C736.176 180.615 732.369 179.751 728.508 179.676H721.853L697.722 280.132H761.061L775.875 218.464L749.015 189.005Z" fill="url(#paint1_linear_1276_5336)"/>
<path style="mix-blend-mode:screen" opacity="0.44" d="M828.609 276.308L794.13 238.49L784.126 280.133H830.48C830.24 278.7 829.59 277.369 828.609 276.308Z" fill="url(#paint2_linear_1276_5336)"/>
<g style="mix-blend-mode:multiply">
<path d="M765.432 171.344C756.343 163.415 744.753 159.055 732.766 159.055H644.355V450.344H670.204V258.474C670.204 245.436 674.735 232.816 682.999 222.831C691.263 212.847 702.732 206.137 715.39 203.882L784.473 191.573L765.432 171.344Z" fill="#B4D7E6"/>
</g>
<path d="M849.272 56.3908L837.441 40.4931C828.079 27.9139 815.968 17.7098 802.06 10.6834C788.152 3.65704 772.827 -5.76165e-06 757.29 0H615.173C585.002 3.06538e-05 555.529 9.21225 530.59 26.4381C512.352 39.035 490.799 45.7718 468.735 45.7718H20.3289C14.9374 45.7718 9.7667 47.9445 5.95428 51.8121C2.14187 55.6797 2.13685e-05 60.9253 0 66.3949V422.75C4.2737e-05 428.219 2.14187 433.465 5.95428 437.332C9.76669 441.2 14.9374 443.373 20.3289 443.373H268.717C270.462 429.272 277.221 416.302 287.726 406.899C298.231 397.497 311.758 392.308 325.768 392.308C339.777 392.308 353.304 397.497 363.809 406.899C374.314 416.302 381.073 429.272 382.818 443.373L644.358 444.072V159.055H835.192C840.634 159.055 845.95 157.402 850.458 154.31C854.966 151.217 858.458 146.827 860.485 141.703C866.02 127.708 867.897 112.499 865.932 97.552C863.968 82.6046 858.229 68.4257 849.272 56.3908Z" fill="#EAF7FF"/>
<path d="M58.867 161.823H199.751C202.513 161.823 205.161 162.936 207.114 164.917C209.067 166.898 210.164 169.585 210.164 172.387V260.517C210.164 263.319 209.067 266.006 207.114 267.987C205.161 269.968 202.513 271.081 199.751 271.081H58.8668C56.1052 271.081 53.4567 269.968 51.5039 267.987C49.5512 266.006 48.4542 263.319 48.4542 260.517V172.387C48.4542 169.585 49.5512 166.898 51.5039 164.917C53.4567 162.936 56.1054 161.823 58.867 161.823Z" fill="#7FA9BE"/>
<path style="mix-blend-mode:screen" opacity="0.44" d="M168.19 262.294L192.321 161.838H98.5026L74.37 262.294H168.19Z" fill="url(#paint3_linear_1276_5336)"/>
<path d="M561.529 161.824H613.237C615.998 161.824 618.647 162.937 620.6 164.918C622.552 166.899 623.65 169.586 623.65 172.387V260.517C623.65 263.319 622.553 266.006 620.6 267.987C618.647 269.968 615.999 271.081 613.237 271.081H561.529C558.767 271.081 556.118 269.968 554.165 267.987C552.213 266.006 551.116 263.319 551.116 260.517V172.387C551.116 169.586 552.213 166.899 554.165 164.918C556.118 162.937 558.767 161.824 561.529 161.824Z" fill="#7FA9BE"/>
<path style="mix-blend-mode:screen" opacity="0.44" d="M587.386 262.294L611.517 161.838H580.457L560.469 245.042C559.976 247.095 559.949 249.235 560.39 251.299C560.831 253.364 561.729 255.301 563.015 256.962C564.302 258.624 565.944 259.967 567.817 260.891C569.69 261.814 571.746 262.294 573.829 262.294H587.386Z" fill="url(#paint4_linear_1276_5336)"/>
<g style="mix-blend-mode:multiply" opacity="0.56">
<path d="M20.3291 443.111H268.717C270.464 429.011 277.224 416.042 287.729 406.64C298.233 397.238 311.759 392.049 325.768 392.046C355.099 392.046 379.284 414.589 382.819 443.373L644.358 444.072V450.081H831.932C832.01 434.602 838.127 419.784 848.944 408.866C859.762 397.949 874.4 391.82 889.658 391.82C904.917 391.82 919.556 397.949 930.373 408.866C941.19 419.784 947.307 434.602 947.385 450.081H982.691C986.251 450.081 989.665 448.647 992.182 446.093C994.699 443.54 996.113 440.077 996.113 436.466V411.847L951.145 385.005C905.127 357.537 852.706 343.053 799.314 343.053H291.785C263.378 343.053 235.312 336.777 209.538 324.662C183.764 312.547 160.9 294.883 142.534 272.898L0 102.272V422.488C0.000128211 427.958 2.14201 433.203 5.95448 437.071C9.76695 440.938 14.9376 443.111 20.3291 443.111Z" fill="#B4D7E6"/>
</g>
<g style="mix-blend-mode:multiply">
<path d="M684.605 41.4961C633.244 41.4961 596.029 53.9517 570.106 68.4486C547.37 81.2126 521.819 87.9276 495.834 87.9673H37.6711L48.4546 112.76H807.305C807.305 112.76 784.127 41.4961 684.605 41.4961Z" fill="#AADFF2"/>
</g>
<path d="M422.759 285.518H423.072C425.544 285.518 427.915 286.514 429.663 288.287C431.411 290.061 432.394 292.466 432.394 294.974V304.986C432.394 307.494 431.411 309.9 429.663 311.673C427.915 313.447 425.544 314.443 423.072 314.443H422.759C420.287 314.443 417.916 313.447 416.168 311.673C414.419 309.9 413.438 307.495 413.438 304.987V294.974C413.437 293.732 413.679 292.502 414.147 291.355C414.615 290.208 415.302 289.165 416.168 288.287C417.033 287.409 418.061 286.713 419.192 286.237C420.323 285.762 421.535 285.518 422.759 285.518Z" fill="#95BED8"/>
<path d="M422.914 316.192C422.492 316.192 422.074 316.107 421.685 315.944C421.295 315.78 420.941 315.54 420.643 315.237C420.345 314.935 420.108 314.576 419.947 314.18C419.785 313.785 419.702 313.361 419.702 312.934V292.178C419.702 291.314 420.04 290.485 420.643 289.874C421.245 289.263 422.062 288.92 422.914 288.92C423.766 288.92 424.582 289.263 425.185 289.874C425.787 290.485 426.125 291.314 426.125 292.178V312.934C426.125 313.798 425.787 314.626 425.185 315.237C424.582 315.848 423.766 316.192 422.914 316.192Z" fill="#EAF7FF"/>
<path d="M268.041 443.273H23.0222V450.344H268.041V443.273Z" fill="#373738"/>
<path d="M0 422.571C2.13685e-05 428.041 2.14187 433.286 5.95428 437.154C9.7667 441.021 14.9374 443.194 20.3289 443.194H268.716C270.462 429.093 277.221 416.123 287.726 406.721C298.231 397.318 311.758 392.13 325.767 392.13C339.776 392.13 353.304 397.318 363.809 406.721C374.314 416.123 381.073 429.093 382.818 443.194L644.357 443.893V360.393H0V422.571Z" fill="#98AFCE"/>
<g style="mix-blend-mode:multiply">
<path d="M255.673 443.118C257.438 425.504 265.584 409.181 278.534 397.311C291.484 385.442 308.315 378.87 325.767 378.87C343.22 378.87 360.051 385.442 373.001 397.311C385.951 409.181 394.097 425.504 395.861 443.118H396.857C395.091 425.235 386.84 408.656 373.703 396.598C360.567 384.54 343.483 377.863 325.767 377.863C308.052 377.863 290.968 384.54 277.831 396.598C264.695 408.656 256.443 425.235 254.678 443.118H255.673Z" fill="#BCDDF7"/>
</g>
<g style="mix-blend-mode:multiply">
<path d="M423.03 161.822H514.174C516.936 161.822 519.584 162.935 521.537 164.916C523.49 166.897 524.587 169.584 524.587 172.385V260.515C524.587 263.317 523.49 266.004 521.537 267.985C519.584 269.966 516.936 271.079 514.174 271.079H423.03C420.269 271.079 417.62 269.966 415.667 267.985C413.715 266.004 412.618 263.317 412.618 260.515V172.385C412.618 169.584 413.715 166.897 415.667 164.916C417.62 162.935 420.269 161.822 423.03 161.822Z" fill="#7FA9BE"/>
<path style="mix-blend-mode:multiply" opacity="0.83" d="M514.219 271.08H422.988C420.238 271.08 417.601 269.971 415.656 267.999C413.712 266.026 412.619 263.35 412.619 260.56V172.343C412.619 169.553 413.712 166.877 415.656 164.904C417.601 162.932 420.238 161.823 422.988 161.823H514.219C516.969 161.823 519.606 162.932 521.551 164.904C523.495 166.877 524.588 169.553 524.588 172.343V260.56C524.588 261.941 524.32 263.309 523.799 264.585C523.278 265.862 522.514 267.021 521.551 267.998C520.588 268.975 519.445 269.75 518.187 270.279C516.929 270.807 515.58 271.08 514.219 271.08Z" fill="url(#paint5_linear_1276_5336)"/>
<g style="mix-blend-mode:multiply">
<path d="M513.84 422.753H422.072C417.291 422.747 412.706 420.818 409.325 417.387C405.943 413.957 404.041 409.306 404.036 404.455V173.382C404.041 168.531 405.943 163.88 409.325 160.45C412.706 157.02 417.291 155.09 422.072 155.085H513.84C518.622 155.09 523.207 157.02 526.588 160.45C529.969 163.88 531.872 168.531 531.877 173.382V404.455C531.872 409.306 529.969 413.957 526.588 417.387C523.207 420.818 518.622 422.747 513.84 422.753ZM422.072 156.093C417.554 156.098 413.222 157.921 410.027 161.162C406.832 164.404 405.035 168.798 405.029 173.382V404.455C405.035 409.039 406.832 413.434 410.027 416.675C413.222 419.916 417.554 421.74 422.072 421.745H513.84C518.359 421.74 522.691 419.916 525.886 416.675C529.081 413.434 530.878 409.039 530.884 404.455V173.382C530.878 168.798 529.081 164.404 525.886 161.162C522.691 157.921 518.359 156.098 513.84 156.093H422.072Z" fill="#95BED8"/>
</g>
<path style="mix-blend-mode:screen" opacity="0.44" d="M482.61 262.294L506.741 161.838H462.663L438.531 262.294H482.61Z" fill="url(#paint6_linear_1276_5336)"/>
</g>
<g clip-path="url(#clip1_1276_5336)">
<path d="M325 497.5C352.614 497.5 375 475.114 375 447.5C375 419.886 352.614 397.5 325 397.5C297.386 397.5 275 419.886 275 447.5C275 475.114 297.386 497.5 325 497.5Z" fill="#2B2B2C"/>
<path d="M325 494.375C350.888 494.375 371.875 473.388 371.875 447.5C371.875 421.612 350.888 400.625 325 400.625C299.112 400.625 278.125 421.612 278.125 447.5C278.125 473.388 299.112 494.375 325 494.375Z" fill="#373738"/>
<path d="M324.999 489.167C348.011 489.167 366.666 470.512 366.666 447.5C366.666 424.489 348.011 405.834 324.999 405.834C301.987 405.834 283.333 424.489 283.333 447.5C283.333 470.512 301.987 489.167 324.999 489.167Z" fill="#1E1E1F"/>
<path d="M324.999 486.042C346.285 486.042 363.541 468.786 363.541 447.5C363.541 426.214 346.285 408.959 324.999 408.959C303.713 408.959 286.458 426.214 286.458 447.5C286.458 468.786 303.713 486.042 324.999 486.042Z" fill="white"/>
<path d="M325 481.875C343.985 481.875 359.375 466.485 359.375 447.5C359.375 428.515 343.985 413.125 325 413.125C306.015 413.125 290.625 428.515 290.625 447.5C290.625 466.485 306.015 481.875 325 481.875Z" fill="#8FB5D3"/>
<path d="M325 478.75C342.259 478.75 356.25 464.759 356.25 447.5C356.25 430.241 342.259 416.25 325 416.25C307.741 416.25 293.75 430.241 293.75 447.5C293.75 464.759 307.741 478.75 325 478.75Z" fill="white"/>
<path d="M325.001 468.333C336.507 468.333 345.834 459.006 345.834 447.5C345.834 435.994 336.507 426.666 325.001 426.666C313.495 426.666 304.167 435.994 304.167 447.5C304.167 459.006 313.495 468.333 325.001 468.333Z" fill="#8FB5D3"/>
<path d="M324.999 454.792C329.026 454.792 332.291 451.527 332.291 447.5C332.291 443.473 329.026 440.209 324.999 440.209C320.972 440.209 317.708 443.473 317.708 447.5C317.708 451.527 320.972 454.792 324.999 454.792Z" fill="#5684A6"/>
<path d="M326.871 423.174C325.707 422.972 324.517 422.972 323.354 423.174C322.817 423.271 322.263 423.177 321.788 422.911C321.313 422.644 320.947 422.22 320.753 421.714L320.736 421.67C320.615 421.347 320.568 421.002 320.597 420.658C320.626 420.315 320.731 419.983 320.905 419.685C321.079 419.387 321.317 419.131 321.602 418.935C321.887 418.74 322.212 418.609 322.553 418.553C324.247 418.261 325.978 418.261 327.671 418.553C328.013 418.609 328.338 418.74 328.623 418.935C328.908 419.131 329.145 419.387 329.319 419.685C329.493 419.983 329.598 420.315 329.628 420.658C329.657 421.001 329.609 421.347 329.488 421.67L329.472 421.713C329.277 422.22 328.911 422.644 328.436 422.911C327.961 423.177 327.407 423.271 326.871 423.174Z" fill="#252F3A"/>
<path d="M323.354 471.828C324.517 472.03 325.707 472.03 326.871 471.828C327.408 471.731 327.961 471.825 328.436 472.091C328.911 472.358 329.277 472.782 329.472 473.288L329.489 473.332C329.609 473.655 329.657 474 329.628 474.344C329.598 474.687 329.493 475.019 329.319 475.317C329.146 475.615 328.908 475.871 328.623 476.067C328.338 476.262 328.013 476.393 327.671 476.449C325.978 476.741 324.247 476.741 322.553 476.449C322.212 476.393 321.887 476.262 321.602 476.067C321.317 475.871 321.079 475.615 320.905 475.317C320.731 475.019 320.626 474.687 320.597 474.344C320.568 474.001 320.615 473.655 320.736 473.332L320.753 473.289C320.947 472.782 321.313 472.358 321.788 472.091C322.263 471.825 322.817 471.731 323.354 471.828Z" fill="#252F3A"/>
<path d="M349.322 449.242C349.524 448.09 349.524 446.911 349.322 445.759C349.225 445.227 349.319 444.679 349.586 444.208C349.853 443.738 350.276 443.375 350.784 443.183L350.828 443.166C351.151 443.046 351.496 442.999 351.84 443.028C352.183 443.057 352.516 443.162 352.814 443.334C353.113 443.506 353.369 443.741 353.564 444.024C353.76 444.306 353.891 444.628 353.947 444.966C354.24 446.643 354.24 448.358 353.947 450.035C353.891 450.373 353.76 450.695 353.564 450.977C353.369 451.259 353.113 451.495 352.814 451.667C352.516 451.839 352.183 451.943 351.84 451.972C351.496 452.001 351.151 451.954 350.828 451.835L350.784 451.818C350.276 451.626 349.853 451.263 349.586 450.793C349.319 450.322 349.225 449.774 349.322 449.242Z" fill="#252F3A"/>
<path d="M300.677 445.759C300.475 446.911 300.475 448.09 300.677 449.242C300.774 449.774 300.68 450.322 300.413 450.793C300.146 451.263 299.723 451.626 299.215 451.818L299.171 451.835C298.848 451.955 298.503 452.002 298.159 451.973C297.816 451.944 297.483 451.839 297.185 451.667C296.886 451.495 296.63 451.259 296.434 450.977C296.239 450.695 296.108 450.373 296.052 450.035C295.759 448.358 295.759 446.643 296.052 444.966C296.108 444.628 296.239 444.306 296.434 444.024C296.63 443.742 296.886 443.506 297.185 443.334C297.483 443.162 297.816 443.057 298.159 443.028C298.503 442.999 298.848 443.046 299.171 443.166L299.215 443.183C299.723 443.375 300.146 443.738 300.413 444.208C300.68 444.679 300.774 445.227 300.677 445.759Z" fill="#252F3A"/>
<path d="M345.189 461.11C345.943 460.212 346.534 459.191 346.938 458.092C347.121 457.583 347.478 457.155 347.945 456.88C348.413 456.605 348.962 456.501 349.498 456.587L349.545 456.594C349.885 456.651 350.208 456.782 350.491 456.978C350.774 457.174 351.01 457.429 351.182 457.727C351.353 458.024 351.457 458.355 351.485 458.697C351.513 459.039 351.464 459.383 351.343 459.704C350.754 461.302 349.893 462.787 348.797 464.094C348.579 464.36 348.304 464.574 347.993 464.721C347.682 464.868 347.341 464.945 346.997 464.946C346.652 464.947 346.311 464.872 345.999 464.726C345.687 464.581 345.411 464.368 345.191 464.104L345.162 464.068C344.819 463.649 344.634 463.124 344.639 462.584C344.644 462.044 344.838 461.522 345.189 461.11Z" fill="#252F3A"/>
<path d="M304.802 433.889C304.048 434.787 303.457 435.808 303.053 436.907C302.87 437.415 302.513 437.844 302.046 438.119C301.578 438.393 301.029 438.497 300.493 438.412L300.447 438.404C300.107 438.347 299.783 438.216 299.5 438.021C299.217 437.825 298.981 437.569 298.81 437.272C298.638 436.975 298.534 436.643 298.506 436.301C298.478 435.96 298.527 435.616 298.648 435.295C299.237 433.697 300.098 432.211 301.194 430.904C301.412 430.639 301.687 430.425 301.998 430.277C302.309 430.13 302.65 430.053 302.994 430.052C303.339 430.052 303.68 430.127 303.992 430.272C304.304 430.418 304.58 430.63 304.8 430.895L304.829 430.931C305.172 431.35 305.357 431.875 305.352 432.415C305.347 432.955 305.153 433.476 304.802 433.889Z" fill="#252F3A"/>
<path d="M335.668 469.34C336.772 468.937 337.797 468.347 338.698 467.595C339.113 467.246 339.636 467.052 340.179 467.046C340.722 467.04 341.25 467.223 341.672 467.564L341.708 467.593C341.974 467.811 342.188 468.085 342.335 468.396C342.482 468.706 342.558 469.045 342.558 469.388C342.557 469.731 342.481 470.069 342.333 470.379C342.186 470.689 341.971 470.963 341.704 471.18C340.392 472.273 338.9 473.132 337.295 473.719C336.972 473.841 336.627 473.89 336.283 473.862C335.94 473.835 335.606 473.733 335.307 473.562C335.008 473.392 334.75 473.157 334.553 472.876C334.356 472.595 334.224 472.274 334.166 471.936L334.158 471.89C334.072 471.356 334.175 470.81 334.451 470.344C334.726 469.879 335.157 469.524 335.668 469.34Z" fill="#252F3A"/>
<path d="M314.327 425.667C313.223 426.07 312.197 426.66 311.296 427.412C310.882 427.761 310.358 427.955 309.815 427.961C309.272 427.967 308.744 427.784 308.322 427.443L308.286 427.414C308.02 427.196 307.806 426.921 307.659 426.611C307.512 426.301 307.436 425.962 307.437 425.619C307.437 425.276 307.514 424.938 307.661 424.628C307.809 424.318 308.023 424.044 308.29 423.826C309.602 422.734 311.094 421.875 312.7 421.288C313.022 421.166 313.368 421.117 313.711 421.145C314.055 421.172 314.388 421.274 314.687 421.445C314.986 421.615 315.244 421.85 315.441 422.131C315.638 422.412 315.771 422.733 315.828 423.071L315.836 423.117C315.923 423.651 315.819 424.197 315.544 424.663C315.268 425.128 314.838 425.483 314.327 425.667Z" fill="#252F3A"/>
<path d="M304.83 461.162C304.073 460.261 303.478 459.235 303.073 458.131C302.889 457.621 302.531 457.19 302.061 456.914C301.592 456.638 301.04 456.534 300.501 456.62L300.455 456.627C300.113 456.684 299.789 456.816 299.505 457.013C299.22 457.209 298.983 457.466 298.811 457.765C298.638 458.063 298.534 458.396 298.506 458.739C298.478 459.083 298.527 459.428 298.649 459.75C299.24 461.356 300.105 462.848 301.205 464.16C301.425 464.427 301.701 464.642 302.013 464.79C302.326 464.938 302.668 465.015 303.014 465.016C303.36 465.016 303.702 464.941 304.016 464.795C304.329 464.649 304.606 464.435 304.827 464.17L304.857 464.134C305.201 463.713 305.387 463.186 305.382 462.643C305.377 462.101 305.182 461.577 304.83 461.162Z" fill="#252F3A"/>
<path d="M345.399 433.837C346.156 434.738 346.751 435.764 347.156 436.867C347.34 437.378 347.698 437.809 348.168 438.085C348.637 438.361 349.189 438.465 349.727 438.379L349.774 438.372C350.115 438.314 350.44 438.183 350.724 437.986C351.008 437.789 351.245 437.533 351.418 437.234C351.591 436.936 351.695 436.603 351.723 436.259C351.751 435.916 351.702 435.571 351.58 435.249C350.989 433.643 350.124 432.151 349.024 430.839C348.804 430.572 348.528 430.357 348.216 430.209C347.903 430.061 347.561 429.984 347.215 429.983C346.869 429.982 346.527 430.058 346.213 430.204C345.9 430.35 345.623 430.564 345.402 430.829L345.372 430.865C345.028 431.286 344.842 431.813 344.847 432.356C344.852 432.898 345.047 433.422 345.399 433.837Z" fill="#252F3A"/>
<path d="M314.401 469.434C313.292 469.029 312.262 468.436 311.357 467.681C310.941 467.331 310.415 467.135 309.87 467.13C309.324 467.124 308.794 467.308 308.37 467.65L308.334 467.679C308.067 467.898 307.852 468.174 307.704 468.485C307.557 468.797 307.481 469.137 307.481 469.481C307.481 469.826 307.558 470.166 307.707 470.477C307.855 470.789 308.07 471.063 308.338 471.282C309.656 472.379 311.154 473.242 312.767 473.832C313.091 473.954 313.438 474.003 313.783 473.976C314.128 473.948 314.463 473.845 314.763 473.674C315.064 473.503 315.322 473.267 315.52 472.985C315.718 472.703 315.851 472.38 315.909 472.04L315.917 471.994C316.004 471.459 315.9 470.91 315.623 470.442C315.346 469.975 314.914 469.618 314.401 469.434Z" fill="#252F3A"/>
<path d="M335.823 425.571C336.932 425.976 337.962 426.568 338.867 427.323C339.283 427.674 339.809 427.869 340.355 427.875C340.9 427.881 341.43 427.697 341.854 427.355L341.89 427.325C342.157 427.106 342.372 426.831 342.52 426.519C342.667 426.208 342.743 425.868 342.743 425.523C342.743 425.179 342.666 424.839 342.518 424.527C342.369 424.216 342.154 423.941 341.886 423.723C340.568 422.626 339.07 421.763 337.457 421.173C337.133 421.051 336.786 421.002 336.441 421.029C336.096 421.056 335.761 421.159 335.461 421.331C335.161 421.502 334.902 421.737 334.704 422.02C334.506 422.302 334.373 422.625 334.315 422.964L334.307 423.011C334.22 423.546 334.324 424.095 334.601 424.563C334.878 425.03 335.31 425.387 335.823 425.571Z" fill="#252F3A"/>
<path d="M325.001 436.051C324.588 436.051 324.184 435.928 323.841 435.699C323.497 435.47 323.23 435.144 323.072 434.762C322.914 434.381 322.872 433.961 322.953 433.556C323.033 433.151 323.232 432.779 323.524 432.487C323.816 432.195 324.188 431.996 324.593 431.915C324.998 431.835 325.418 431.876 325.799 432.034C326.181 432.192 326.507 432.459 326.736 432.803C326.966 433.146 327.088 433.55 327.089 433.962C327.088 434.516 326.868 435.047 326.476 435.438C326.085 435.829 325.554 436.05 325.001 436.051Z" fill="#5684A6"/>
<path d="M325.001 463.126C324.588 463.126 324.184 463.004 323.841 462.774C323.497 462.545 323.23 462.219 323.072 461.837C322.914 461.456 322.872 461.036 322.953 460.631C323.033 460.226 323.232 459.854 323.524 459.562C323.816 459.27 324.188 459.071 324.593 458.99C324.998 458.91 325.418 458.951 325.8 459.109C326.181 459.267 326.507 459.535 326.737 459.878C326.966 460.222 327.089 460.625 327.089 461.038C327.088 461.592 326.868 462.122 326.476 462.514C326.085 462.905 325.554 463.125 325.001 463.126Z" fill="#5684A6"/>
<path d="M338.536 449.971C338.123 449.971 337.72 449.848 337.376 449.619C337.033 449.39 336.765 449.064 336.607 448.682C336.449 448.301 336.408 447.881 336.488 447.476C336.569 447.071 336.768 446.699 337.06 446.407C337.352 446.115 337.724 445.916 338.129 445.835C338.534 445.755 338.953 445.796 339.335 445.954C339.716 446.112 340.043 446.38 340.272 446.723C340.502 447.066 340.624 447.47 340.624 447.883C340.623 448.436 340.403 448.967 340.012 449.358C339.621 449.75 339.09 449.97 338.536 449.971Z" fill="#5684A6"/>
<path d="M311.463 449.969C311.05 449.969 310.646 449.846 310.303 449.617C309.959 449.387 309.692 449.061 309.534 448.68C309.376 448.298 309.335 447.878 309.415 447.473C309.496 447.068 309.695 446.696 309.987 446.404C310.279 446.113 310.651 445.914 311.056 445.833C311.461 445.753 311.88 445.794 312.262 445.952C312.643 446.11 312.969 446.377 313.199 446.721C313.428 447.064 313.551 447.468 313.551 447.88C313.55 448.434 313.33 448.965 312.939 449.356C312.547 449.748 312.016 449.968 311.463 449.969Z" fill="#5684A6"/>
<path d="M334.705 439.882C334.222 439.882 333.754 439.714 333.381 439.408C333.007 439.102 332.752 438.675 332.657 438.202C332.563 437.728 332.636 437.236 332.864 436.81C333.091 436.384 333.46 436.05 333.906 435.865C334.352 435.68 334.849 435.656 335.311 435.796C335.773 435.936 336.173 436.232 336.441 436.634C336.709 437.035 336.83 437.517 336.783 437.998C336.736 438.479 336.523 438.928 336.182 439.27C335.989 439.464 335.758 439.619 335.505 439.724C335.252 439.829 334.98 439.882 334.705 439.882Z" fill="#5684A6"/>
<path d="M315.563 459.026C315.08 459.026 314.612 458.859 314.238 458.553C313.865 458.246 313.609 457.82 313.515 457.346C313.42 456.872 313.493 456.381 313.721 455.955C313.949 455.529 314.317 455.195 314.763 455.01C315.209 454.825 315.706 454.8 316.168 454.94C316.631 455.08 317.03 455.377 317.298 455.778C317.567 456.18 317.688 456.662 317.641 457.143C317.593 457.623 317.381 458.073 317.039 458.414C316.846 458.609 316.616 458.763 316.362 458.868C316.109 458.973 315.837 459.027 315.563 459.026Z" fill="#5684A6"/>
<path d="M334.48 459.358C333.989 459.358 333.512 459.188 333.133 458.877C332.753 458.565 332.493 458.132 332.397 457.651C332.301 457.169 332.375 456.669 332.607 456.236C332.838 455.803 333.213 455.464 333.667 455.276C334.121 455.088 334.626 455.064 335.096 455.206C335.566 455.349 335.973 455.65 336.246 456.058C336.518 456.466 336.641 456.956 336.593 457.445C336.545 457.933 336.328 458.39 335.981 458.737C335.784 458.934 335.55 459.091 335.293 459.198C335.035 459.304 334.759 459.359 334.48 459.358Z" fill="#5684A6"/>
<path d="M315.292 440.149C314.808 440.149 314.34 439.981 313.967 439.675C313.593 439.368 313.338 438.942 313.243 438.468C313.149 437.994 313.222 437.503 313.45 437.077C313.677 436.651 314.046 436.317 314.492 436.132C314.938 435.947 315.435 435.923 315.897 436.063C316.36 436.203 316.759 436.499 317.027 436.901C317.296 437.303 317.416 437.785 317.369 438.266C317.322 438.746 317.109 439.196 316.767 439.537C316.574 439.732 316.344 439.886 316.09 439.99C315.837 440.095 315.566 440.149 315.292 440.149Z" fill="#5684A6"/>
<path opacity="0.29" d="M368.13 441.125C367.743 441.119 367.37 440.979 367.075 440.727C366.781 440.475 366.584 440.128 366.518 439.747C364.709 430.057 359.567 421.306 351.985 415.008C344.402 408.711 334.856 405.264 324.999 405.264C315.143 405.264 305.596 408.711 298.014 415.008C290.431 421.306 285.29 430.057 283.48 439.747C283.415 440.128 283.218 440.475 282.923 440.727C282.629 440.979 282.256 441.119 281.869 441.125H281.789C281.549 441.125 281.312 441.072 281.095 440.97C280.877 440.868 280.685 440.719 280.532 440.535C280.378 440.35 280.267 440.134 280.207 439.902C280.146 439.67 280.137 439.427 280.18 439.191C282.123 428.724 287.669 419.266 295.855 412.46C304.042 405.653 314.352 401.926 324.999 401.926C335.645 401.926 345.956 405.653 354.143 412.46C362.329 419.266 367.875 428.724 369.818 439.191C369.861 439.427 369.852 439.67 369.791 439.902C369.731 440.134 369.62 440.35 369.466 440.535C369.313 440.719 369.121 440.868 368.903 440.97C368.686 441.072 368.449 441.125 368.209 441.125H368.13Z" fill="white"/>
</g>
<path d="M890.024 495C917.638 495 940.018 472.614 940.012 445C940.005 417.386 917.614 395 890 395C862.386 395 840.005 417.386 840.012 445C840.018 472.614 862.409 495 890.024 495Z" fill="#2B2B2C"/>
<path d="M890.068 491C915.473 491 936.052 470.405 936.033 445C936.014 419.595 915.404 399 889.999 399C864.594 399 844.014 419.595 844.033 445C844.052 470.405 864.663 491 890.068 491Z" fill="#373738"/>
<path d="M889.792 485.364C911.809 485.364 929.657 467.529 929.657 445.529C929.657 423.528 911.809 405.693 889.792 405.693C867.775 405.693 849.927 423.528 849.927 445.529C849.927 467.529 867.775 485.364 889.792 485.364Z" fill="#1E1E1F"/>
<path d="M890 482C910.435 482 927 465.435 927 445C927 424.565 910.435 408 890 408C869.566 408 853 424.565 853 445C853 465.435 869.566 482 890 482Z" fill="white"/>
<path d="M890 480C909.33 480 925 464.33 925 445C925 425.67 909.33 410 890 410C870.67 410 855 425.67 855 445C855 464.33 870.67 480 890 480Z" fill="#8FB5D3"/>
<path d="M890.031 476C907.151 476 921.022 462.121 921.013 445C921.004 427.879 907.118 414 889.998 414C872.878 414 859.006 427.879 859.015 445C859.024 462.121 872.91 476 890.031 476Z" fill="white"/>
<path d="M890.009 465C901.055 465 910.007 456.046 910.005 445C910.002 433.954 901.046 425 890 425C878.954 425 870.002 433.954 870.005 445C870.007 456.046 878.964 465 890.009 465Z" fill="#8FB5D3"/>
<path d="M889.793 452.493C893.642 452.493 896.763 449.375 896.763 445.528C896.763 441.681 893.642 438.563 889.793 438.563C885.943 438.563 882.822 441.681 882.822 445.528C882.822 449.375 885.943 452.493 889.793 452.493Z" fill="white"/>
<path d="M891.59 422.117C890.474 421.922 889.332 421.922 888.217 422.117C887.702 422.21 887.171 422.12 886.715 421.863C886.26 421.606 885.908 421.198 885.722 420.71L885.706 420.668C885.59 420.357 885.544 420.024 885.573 419.693C885.601 419.363 885.702 419.042 885.868 418.755C886.035 418.468 886.263 418.222 886.536 418.033C886.81 417.845 887.121 417.719 887.449 417.665C889.073 417.383 890.733 417.383 892.357 417.665C892.685 417.719 892.997 417.845 893.27 418.033C893.543 418.222 893.772 418.468 893.938 418.755C894.105 419.042 894.206 419.363 894.234 419.693C894.262 420.024 894.216 420.357 894.1 420.668L894.084 420.71C893.898 421.198 893.547 421.606 893.091 421.863C892.635 422.12 892.104 422.21 891.59 422.117Z" fill="#252F3A"/>
<path d="M888.217 468.94C889.333 469.135 890.474 469.135 891.59 468.94C892.105 468.848 892.636 468.937 893.091 469.194C893.547 469.451 893.898 469.859 894.084 470.348L894.1 470.39C894.216 470.701 894.262 471.034 894.234 471.364C894.206 471.695 894.105 472.015 893.938 472.302C893.771 472.589 893.543 472.836 893.27 473.024C892.997 473.213 892.685 473.338 892.357 473.392C890.733 473.674 889.073 473.674 887.449 473.392C887.121 473.338 886.81 473.213 886.536 473.024C886.263 472.836 886.035 472.589 885.868 472.302C885.702 472.015 885.601 471.695 885.572 471.364C885.544 471.034 885.59 470.701 885.706 470.39L885.722 470.348C885.908 469.859 886.26 469.451 886.715 469.194C887.171 468.937 887.702 468.848 888.217 468.94Z" fill="#252F3A"/>
<path d="M913.119 447.206C913.314 446.096 913.314 444.96 913.119 443.85C913.027 443.338 913.117 442.809 913.373 442.356C913.629 441.903 914.035 441.553 914.522 441.368L914.564 441.352C914.874 441.237 915.205 441.192 915.535 441.219C915.864 441.247 916.183 441.348 916.469 441.514C916.755 441.679 917.001 441.906 917.189 442.178C917.376 442.45 917.502 442.76 917.555 443.086C917.836 444.702 917.836 446.354 917.555 447.969C917.502 448.295 917.377 448.606 917.189 448.878C917.001 449.149 916.755 449.376 916.469 449.542C916.183 449.708 915.864 449.809 915.535 449.836C915.205 449.864 914.874 449.819 914.564 449.704L914.522 449.688C914.035 449.502 913.629 449.153 913.373 448.7C913.117 448.246 913.027 447.718 913.119 447.206Z" fill="#252F3A"/>
<path d="M866.465 443.85C866.271 444.96 866.271 446.096 866.465 447.206C866.557 447.718 866.468 448.247 866.212 448.7C865.956 449.153 865.549 449.502 865.063 449.688L865.02 449.704C864.711 449.819 864.379 449.864 864.05 449.836C863.72 449.809 863.401 449.708 863.115 449.542C862.829 449.376 862.583 449.149 862.396 448.878C862.208 448.606 862.083 448.295 862.029 447.969C861.748 446.354 861.748 444.702 862.029 443.086C862.083 442.76 862.208 442.45 862.396 442.178C862.583 441.906 862.829 441.679 863.115 441.514C863.401 441.348 863.72 441.247 864.05 441.219C864.379 441.192 864.711 441.237 865.02 441.352L865.063 441.368C865.549 441.554 865.956 441.903 866.212 442.356C866.468 442.809 866.557 443.338 866.465 443.85Z" fill="#252F3A"/>
<path d="M909.162 458.626C909.885 457.761 910.453 456.778 910.84 455.719C911.016 455.229 911.358 454.816 911.806 454.551C912.254 454.286 912.781 454.187 913.295 454.269L913.34 454.276C913.666 454.331 913.976 454.457 914.247 454.646C914.519 454.834 914.745 455.081 914.91 455.367C915.075 455.653 915.174 455.973 915.201 456.302C915.228 456.631 915.181 456.963 915.064 457.272C914.5 458.812 913.674 460.243 912.623 461.502C912.414 461.758 912.15 461.964 911.852 462.106C911.553 462.247 911.227 462.321 910.896 462.322C910.566 462.323 910.239 462.251 909.939 462.111C909.64 461.97 909.376 461.766 909.165 461.511L909.136 461.476C908.807 461.073 908.63 460.567 908.635 460.047C908.64 459.526 908.826 459.024 909.162 458.626Z" fill="#252F3A"/>
<path d="M870.423 432.431C869.7 433.296 869.132 434.28 868.745 435.338C868.569 435.828 868.228 436.241 867.779 436.506C867.331 436.771 866.804 436.871 866.29 436.788L866.245 436.781C865.919 436.726 865.609 436.6 865.338 436.412C865.066 436.223 864.84 435.977 864.675 435.69C864.51 435.404 864.411 435.084 864.384 434.755C864.358 434.426 864.404 434.095 864.521 433.785C865.085 432.246 865.911 430.815 866.962 429.555C867.171 429.3 867.435 429.094 867.733 428.952C868.032 428.81 868.358 428.736 868.689 428.735C869.019 428.734 869.346 428.806 869.645 428.947C869.945 429.087 870.209 429.292 870.42 429.546L870.449 429.581C870.778 429.985 870.955 430.49 870.95 431.011C870.946 431.531 870.759 432.033 870.423 432.431Z" fill="#252F3A"/>
<path d="M900.023 466.545C901.082 466.157 902.065 465.588 902.93 464.864C903.327 464.527 903.829 464.34 904.35 464.335C904.871 464.329 905.377 464.505 905.782 464.833L905.816 464.862C906.072 465.072 906.277 465.336 906.418 465.635C906.559 465.934 906.631 466.26 906.631 466.591C906.631 466.921 906.557 467.247 906.416 467.546C906.274 467.845 906.068 468.108 905.813 468.318C904.554 469.37 903.124 470.198 901.583 470.764C901.274 470.881 900.943 470.928 900.613 470.902C900.284 470.876 899.964 470.777 899.677 470.613C899.39 470.448 899.143 470.222 898.954 469.952C898.765 469.681 898.638 469.371 898.583 469.045L898.575 469.001C898.492 468.487 898.592 467.961 898.856 467.512C899.12 467.064 899.533 466.722 900.023 466.545Z" fill="#252F3A"/>
<path d="M879.562 424.513C878.503 424.901 877.52 425.47 876.656 426.194C876.258 426.53 875.756 426.717 875.235 426.723C874.714 426.729 874.208 426.552 873.804 426.224L873.769 426.196C873.514 425.986 873.308 425.722 873.168 425.423C873.027 425.124 872.954 424.797 872.954 424.467C872.954 424.137 873.028 423.81 873.17 423.512C873.311 423.213 873.517 422.95 873.772 422.74C875.031 421.687 876.462 420.86 878.002 420.294C878.311 420.177 878.642 420.13 878.972 420.156C879.302 420.182 879.621 420.281 879.908 420.445C880.195 420.609 880.442 420.835 880.631 421.106C880.82 421.377 880.947 421.686 881.003 422.012L881.01 422.057C881.093 422.57 880.994 423.097 880.729 423.546C880.465 423.994 880.052 424.336 879.562 424.513Z" fill="#252F3A"/>
<path d="M870.449 458.684C869.723 457.816 869.153 456.828 868.764 455.764C868.587 455.272 868.244 454.858 867.794 454.592C867.344 454.326 866.814 454.225 866.298 454.308L866.253 454.315C865.926 454.37 865.615 454.497 865.342 454.686C865.069 454.876 864.842 455.123 864.676 455.411C864.511 455.699 864.411 456.019 864.384 456.35C864.357 456.681 864.404 457.013 864.521 457.324C865.088 458.871 865.917 460.308 866.973 461.573C867.183 461.829 867.448 462.036 867.748 462.179C868.048 462.321 868.375 462.396 868.707 462.397C869.04 462.397 869.368 462.325 869.668 462.184C869.969 462.043 870.235 461.837 870.446 461.582L870.475 461.547C870.805 461.142 870.984 460.634 870.979 460.111C870.974 459.588 870.787 459.084 870.449 458.684Z" fill="#252F3A"/>
<path d="M909.356 432.375C910.082 433.244 910.652 434.232 911.041 435.295C911.218 435.787 911.561 436.202 912.011 436.468C912.461 436.734 912.991 436.834 913.507 436.751L913.552 436.744C913.879 436.689 914.19 436.562 914.463 436.373C914.736 436.183 914.963 435.936 915.129 435.648C915.294 435.361 915.394 435.04 915.421 434.709C915.448 434.378 915.401 434.046 915.284 433.735C914.717 432.189 913.888 430.751 912.832 429.487C912.622 429.23 912.357 429.023 912.057 428.88C911.757 428.738 911.43 428.663 911.098 428.663C910.766 428.662 910.437 428.734 910.137 428.875C909.836 429.016 909.57 429.222 909.359 429.477L909.33 429.512C909 429.918 908.822 430.426 908.826 430.948C908.831 431.471 909.018 431.976 909.356 432.375Z" fill="#252F3A"/>
<path d="M879.627 466.637C878.564 466.247 877.576 465.675 876.708 464.948C876.309 464.61 875.804 464.422 875.281 464.417C874.758 464.411 874.249 464.588 873.843 464.918L873.808 464.946C873.552 465.157 873.346 465.423 873.205 465.723C873.063 466.023 872.99 466.351 872.99 466.683C872.991 467.014 873.064 467.342 873.206 467.642C873.349 467.942 873.555 468.207 873.812 468.417C875.076 469.474 876.513 470.305 878.06 470.874C878.37 470.991 878.703 471.039 879.034 471.012C879.365 470.986 879.686 470.887 879.974 470.722C880.263 470.557 880.51 470.33 880.7 470.058C880.89 469.786 881.018 469.475 881.074 469.148L881.081 469.103C881.164 468.587 881.065 468.058 880.799 467.608C880.534 467.158 880.119 466.814 879.627 466.637Z" fill="#252F3A"/>
<path d="M900.179 424.422C901.242 424.812 902.23 425.383 903.098 426.11C903.497 426.448 904.002 426.636 904.525 426.642C905.048 426.647 905.557 426.47 905.963 426.141L905.998 426.112C906.254 425.901 906.46 425.636 906.601 425.336C906.743 425.035 906.816 424.708 906.816 424.376C906.815 424.044 906.741 423.716 906.599 423.416C906.457 423.117 906.251 422.852 905.994 422.641C904.73 421.584 903.293 420.753 901.746 420.185C901.436 420.067 901.103 420.02 900.772 420.046C900.441 420.072 900.12 420.172 899.832 420.337C899.543 420.502 899.295 420.728 899.105 421C898.915 421.272 898.788 421.583 898.732 421.91L898.725 421.955C898.642 422.471 898.741 423 899.007 423.45C899.272 423.901 899.687 424.244 900.179 424.422Z" fill="#252F3A"/>
<path d="M889.792 434.098C889.385 434.098 888.987 433.978 888.648 433.752C888.309 433.526 888.045 433.204 887.889 432.828C887.733 432.452 887.693 432.039 887.772 431.639C887.851 431.24 888.047 430.874 888.335 430.586C888.623 430.298 888.99 430.102 889.39 430.023C889.789 429.943 890.203 429.984 890.579 430.139C890.956 430.295 891.277 430.559 891.504 430.897C891.73 431.235 891.851 431.633 891.851 432.04C891.85 432.586 891.633 433.109 891.247 433.494C890.861 433.88 890.338 434.097 889.792 434.098Z" fill="white"/>
<path d="M889.792 460.338C889.384 460.338 888.986 460.218 888.648 459.992C888.309 459.766 888.045 459.444 887.889 459.068C887.733 458.692 887.693 458.278 887.772 457.879C887.851 457.48 888.048 457.114 888.336 456.826C888.624 456.538 888.99 456.342 889.39 456.263C889.789 456.183 890.203 456.224 890.58 456.38C890.956 456.536 891.277 456.799 891.504 457.138C891.73 457.476 891.851 457.874 891.851 458.281C891.85 458.826 891.633 459.349 891.247 459.735C890.861 460.121 890.338 460.338 889.792 460.338Z" fill="white"/>
<path d="M902.924 447.587C902.517 447.587 902.118 447.466 901.78 447.24C901.441 447.014 901.177 446.693 901.021 446.317C900.865 445.941 900.824 445.527 900.904 445.128C900.983 444.729 901.179 444.362 901.467 444.075C901.755 443.787 902.122 443.591 902.521 443.511C902.921 443.432 903.335 443.473 903.711 443.628C904.087 443.784 904.409 444.048 904.635 444.386C904.862 444.724 904.982 445.122 904.983 445.529C904.982 446.074 904.765 446.597 904.379 446.983C903.993 447.369 903.47 447.586 902.924 447.587Z" fill="white"/>
<path d="M876.66 447.586C876.253 447.586 875.855 447.466 875.517 447.24C875.178 447.013 874.914 446.692 874.758 446.316C874.602 445.94 874.562 445.526 874.641 445.127C874.721 444.728 874.917 444.362 875.205 444.074C875.493 443.786 875.859 443.59 876.259 443.511C876.658 443.431 877.072 443.472 877.448 443.628C877.825 443.783 878.146 444.047 878.373 444.385C878.599 444.724 878.72 445.122 878.72 445.528C878.719 446.074 878.502 446.597 878.116 446.983C877.73 447.369 877.207 447.586 876.66 447.586Z" fill="white"/>
<path d="M899.207 437.81C898.73 437.81 898.268 437.645 897.9 437.343C897.531 437.041 897.279 436.621 897.186 436.154C897.093 435.687 897.165 435.202 897.389 434.782C897.614 434.362 897.977 434.033 898.418 433.851C898.858 433.668 899.348 433.644 899.804 433.782C900.26 433.92 900.654 434.212 900.919 434.608C901.183 435.004 901.303 435.479 901.256 435.953C901.21 436.427 901 436.87 900.663 437.207C900.472 437.399 900.245 437.551 899.995 437.655C899.745 437.758 899.477 437.811 899.207 437.81Z" fill="white"/>
<path d="M880.639 456.367C880.163 456.368 879.701 456.203 879.332 455.901C878.964 455.599 878.712 455.178 878.619 454.711C878.526 454.244 878.598 453.759 878.822 453.339C879.047 452.919 879.41 452.59 879.85 452.408C880.29 452.225 880.78 452.201 881.236 452.339C881.692 452.478 882.086 452.769 882.351 453.165C882.616 453.561 882.735 454.037 882.689 454.51C882.642 454.984 882.433 455.427 882.096 455.764C881.905 455.956 881.678 456.108 881.428 456.212C881.178 456.315 880.91 456.368 880.639 456.367Z" fill="white"/>
<path d="M898.947 456.627C898.47 456.627 898.008 456.462 897.64 456.159C897.271 455.857 897.019 455.437 896.926 454.97C896.833 454.503 896.905 454.018 897.13 453.598C897.355 453.178 897.718 452.849 898.158 452.667C898.599 452.485 899.088 452.461 899.545 452.599C900.001 452.737 900.394 453.029 900.659 453.425C900.924 453.821 901.043 454.297 900.996 454.771C900.949 455.244 900.739 455.687 900.402 456.024C900.212 456.216 899.985 456.367 899.735 456.471C899.485 456.574 899.217 456.627 898.947 456.627Z" fill="white"/>
<path d="M880.376 438.072C879.899 438.072 879.437 437.907 879.069 437.605C878.7 437.303 878.448 436.882 878.355 436.415C878.262 435.948 878.334 435.463 878.559 435.043C878.783 434.623 879.147 434.294 879.587 434.112C880.027 433.93 880.517 433.905 880.974 434.044C881.43 434.182 881.824 434.474 882.088 434.87C882.353 435.266 882.472 435.742 882.425 436.216C882.379 436.69 882.169 437.133 881.832 437.469C881.641 437.661 881.414 437.813 881.164 437.916C880.914 438.02 880.646 438.072 880.376 438.072Z" fill="white"/>
<path opacity="0.29" d="M931.864 439.309C931.486 439.304 931.122 439.166 930.835 438.921C930.547 438.675 930.355 438.337 930.291 437.965C928.526 428.521 923.511 419.992 916.115 413.854C908.719 407.715 899.408 404.355 889.793 404.355C880.179 404.355 870.867 407.715 863.471 413.854C856.075 419.992 851.06 428.521 849.295 437.965C849.231 438.337 849.039 438.675 848.752 438.921C848.465 439.166 848.101 439.303 847.723 439.309H847.645C847.411 439.309 847.18 439.257 846.968 439.157C846.756 439.058 846.569 438.913 846.419 438.733C846.27 438.554 846.161 438.343 846.102 438.117C846.043 437.891 846.034 437.654 846.076 437.424C847.971 427.221 853.381 418.003 861.366 411.369C869.351 404.735 879.408 401.102 889.793 401.102C900.178 401.102 910.235 404.735 918.22 411.369C926.205 418.003 931.614 427.221 933.51 437.424C933.552 437.654 933.543 437.891 933.484 438.117C933.425 438.343 933.317 438.554 933.167 438.734C933.017 438.914 932.83 439.058 932.618 439.158C932.406 439.257 932.175 439.309 931.941 439.309H931.864Z" fill="white"/>
<path opacity="0.11" d="M889.791 476.509C898.013 476.509 905.899 473.245 911.713 467.435C917.527 461.626 920.793 453.746 920.793 445.53H858.789C858.789 453.746 862.055 461.626 867.869 467.435C873.683 473.245 881.569 476.509 889.791 476.509Z" fill="#8FB5D3"/>
</g>
<defs>
<linearGradient id="paint0_linear_1276_5336" x1="661.417" y1="234.291" x2="830.596" y2="234.291" gradientUnits="userSpaceOnUse">
<stop stop-color="#7FA9BE"/>
<stop offset="1" stop-color="white"/>
</linearGradient>
<linearGradient id="paint1_linear_1276_5336" x1="736.798" y1="280.133" x2="736.798" y2="179.677" gradientUnits="userSpaceOnUse">
<stop stop-color="white"/>
<stop offset="1"/>
</linearGradient>
<linearGradient id="paint2_linear_1276_5336" x1="807.303" y1="280.133" x2="807.303" y2="238.49" gradientUnits="userSpaceOnUse">
<stop stop-color="white"/>
<stop offset="1"/>
</linearGradient>
<linearGradient id="paint3_linear_1276_5336" x1="133.346" y1="262.294" x2="133.346" y2="161.838" gradientUnits="userSpaceOnUse">
<stop stop-color="white"/>
<stop offset="1"/>
</linearGradient>
<linearGradient id="paint4_linear_1276_5336" x1="585.794" y1="262.294" x2="585.794" y2="161.838" gradientUnits="userSpaceOnUse">
<stop stop-color="white"/>
<stop offset="1"/>
</linearGradient>
<linearGradient id="paint5_linear_1276_5336" x1="468.604" y1="161.822" x2="468.604" y2="271.08" gradientUnits="userSpaceOnUse">
<stop stop-color="#7FA9BE"/>
<stop offset="1" stop-color="white"/>
</linearGradient>
<linearGradient id="paint6_linear_1276_5336" x1="472.636" y1="262.294" x2="472.636" y2="161.838" gradientUnits="userSpaceOnUse">
<stop stop-color="white"/>
<stop offset="1"/>
</linearGradient>
<clipPath id="clip0_1276_5336">
<rect width="1000" height="500" fill="white"/>
</clipPath>
<clipPath id="clip1_1276_5336">
<rect width="100" height="100" fill="white" transform="translate(275 397.5)"/>
</clipPath>
</defs>
</svg>
