<svg width="1000" height="420" viewBox="0 0 1000 420" fill="none" xmlns="http://www.w3.org/2000/svg">
<g clip-path="url(#clip0_2175_789)">
<path d="M254.933 211.238C255.344 213.627 255.004 216.141 253.874 218.429C252.716 220.756 250.92 222.53 248.775 223.671L217.194 240.647L224.481 268.292L214.457 279.6L207.611 250.032C206.954 247.126 206.982 244.016 207.87 240.941C208.785 237.876 210.437 235.211 212.573 233.125L234.066 212.12C234.066 212.12 219.16 190.233 220.085 175.743C220.381 170.992 224.231 164.924 229.212 163.668C234.184 162.402 242.53 165.335 245.024 169.397C250.625 178.603 254.933 211.238 254.933 211.238Z" fill="#965324"/>
<path d="M211.894 268.43L214.459 279.596L224.368 268.43H211.894Z" fill="#715944"/>
<path d="M396.461 234.926L469.746 310.498C474.027 314.909 477.346 320.353 479.241 326.601C481.106 332.876 481.323 339.229 480.209 345.244L472.492 385.58C471.396 391.345 468.919 396.951 464.943 401.835C460.995 406.744 456.042 410.371 450.62 412.698L433.525 420.005H482.803L494.336 404.302L498.607 319.151L460.304 209.562L396.461 234.926Z" fill="#965324"/>
<path d="M450.254 412.912H450.12L433.526 420.006H450.254V412.912Z" fill="#715944"/>
<path d="M469.486 412.912H469.324L452.74 420.006H469.486V412.912Z" fill="#715944"/>
<path d="M149.469 25.0053C163.154 44.4685 181.337 100.88 188.472 108.41C197.895 118.383 221.758 136.625 250.511 130.742C221.758 136.625 202.463 116.547 193.021 106.574C185.886 99.0526 171.743 41.0555 156.091 21.6014C143.968 6.52221 107.98 3.26074 107.98 3.26074C107.98 3.26074 138.34 9.16866 149.469 25.0053Z" fill="#6E4B5D"/>
<path d="M167.791 119.576C152.812 90.0347 144.574 54.6272 129.488 43.4793C116.385 33.828 101.209 31.0922 101.209 31.0922L80.2178 48.3086L107.977 3.26074C107.977 3.26074 138.336 9.16866 149.465 25.0053C163.15 44.4685 181.333 100.88 188.468 108.41C197.891 118.383 221.754 136.625 250.507 130.742C243.688 141.704 235.548 160.793 230.809 172.574C217.14 166.435 182.526 148.576 167.791 119.576Z" fill="#9D5825"/>
<path d="M101.21 31.0928C101.21 31.0928 116.386 33.8286 129.489 43.4798C144.575 54.6277 152.813 90.0353 167.792 119.577C182.527 148.576 217.141 166.435 230.81 172.575C228.333 178.689 228.162 189.169 228.162 189.169C228.162 189.169 176.605 163.959 158.055 127.438C143.059 97.8944 134.038 66.4364 119.446 54.6734C113.074 49.5138 80.2188 48.3092 80.2188 48.3092L101.21 31.0928Z" fill="#C2C5C7"/>
<path d="M98.4558 26.1309H0.481445C0.858227 24.9811 1.39678 23.9208 2.23121 23.0922L4.53785 20.8107C6.89963 18.4673 9.60878 16.3902 12.669 14.7056C15.72 13.0046 18.9254 11.7653 22.1455 10.9988C22.1455 10.9988 58.2063 0.955088 70.5721 0.0826762C79.2694 -0.532393 104.999 2.70176 104.999 2.70176C108.373 3.04123 111.649 4.57428 114.09 7.25539C116.574 9.93834 117.778 13.3168 117.778 16.675V20.2759C117.778 24.7402 116.773 29.4636 114.143 33.3401C114.628 30.2046 107.96 26.7369 98.4558 26.1309Z" fill="#B36229"/>
<path d="M0.399463 26.127H0.48009C0.302278 26.6422 0.0951526 27.1501 0.0419922 27.6927C0.0786545 27.1592 0.230817 26.6258 0.399463 26.127Z" fill="#CBCDCF"/>
<path d="M112.464 35.6232C113.146 34.9114 113.622 34.1175 114.142 33.3418C114.026 34.1357 113.585 34.9114 112.464 35.6232Z" fill="#CBCDCF"/>
<path d="M0.481619 26.127H98.456C107.96 26.7329 114.628 30.2006 114.143 33.3362C113.623 34.1118 113.147 34.9058 112.465 35.6176C101.121 47.417 87.4448 49.2002 79.9147 49.2002C74.2335 49.2002 58.0172 43.3179 58.0172 43.3179L14.0237 41.376C11.8972 41.2865 9.7707 40.7061 7.78754 39.5928C5.80437 38.4959 4.19799 36.9809 2.99596 35.2087L1.26278 32.6499C0.347474 31.2428 -0.154299 29.5235 0.0423627 27.6965C0.0956636 27.1526 0.303336 26.6435 0.481619 26.127Z" fill="#CBCDCF"/>
<path d="M227.409 206.211C221.684 195.864 219.396 183.576 221.765 171.063C224.134 158.551 227.994 147.633 238.628 138.312C242.091 135.283 249.81 130.167 254.135 128.473C288.472 115.133 401.468 121.246 401.468 121.246L573.391 144.328C712.361 163.961 773.172 65.5297 893.571 63.7302C934.253 63.1151 967.612 82.3465 1000 107.789C966.149 87.0243 929.586 71.1 889.919 78.2016C775.908 98.6376 754.307 169.396 576.146 191.738C524.562 198.208 472.788 218.313 472.788 218.313L463.598 227.769C456.535 235.006 447.641 240.709 437.286 244.033C426.938 247.347 416.366 247.857 406.377 246.055L313.457 229.186L258.138 225.665C251.981 225.282 245.851 223.411 240.26 219.881C234.715 216.371 230.398 211.639 227.446 206.282L227.409 206.211Z" fill="#B36229"/>
<path d="M886.276 74.585C772.273 95.0465 755.536 154.907 577.359 177.267C525.773 183.728 470.32 191.738 470.32 191.738L461.157 201.194C454.112 208.458 445.228 214.153 434.88 217.458C424.523 220.765 413.935 221.291 403.945 219.482L311.007 202.62L255.688 199.092C250.196 198.752 227.705 188.727 220.875 182.792C221.189 191.132 223.487 199.126 227.409 206.212L227.446 206.283C230.398 211.639 234.715 216.372 240.26 219.882C245.851 223.412 251.981 225.282 258.138 225.666L313.457 229.186L406.377 246.056C416.366 247.857 426.938 247.348 437.286 244.034C447.641 240.71 456.535 235.007 463.598 227.77L472.788 218.314C472.788 218.314 524.561 198.208 576.146 191.738C754.307 169.397 775.908 98.6383 889.919 78.2023C911.638 74.3258 932.403 77.3483 952.318 84.2545C931.014 74.3715 908.657 70.5843 886.276 74.585Z" fill="#C2C5C7"/>
<path d="M342.633 245.778C349.031 279.304 391.344 317.661 391.344 317.661C395.438 323.096 398.274 329.619 399.207 336.856C400.176 344.092 399.154 351.106 396.586 357.425L384.184 387.955C382.076 393.133 378.861 397.955 374.555 402.073C370.246 406.207 365.247 409.183 359.952 411.072L334.717 420.003H393.096L404.646 404.3L421.678 337.275L397.349 253.334C397.349 253.334 438.407 228.123 451.115 197.726C457.801 181.729 444.338 163.032 428.787 152.747C413.244 142.446 388.508 140.057 375.918 152.052C357.261 169.759 338.091 221.947 342.633 245.778Z" fill="#BF682B"/>
<path d="M355.403 412.912H354.73L334.717 420.006H355.403V412.912Z" fill="#715944"/>
<path d="M376.968 413.112L357.529 420.002H376.968V413.112Z" fill="#715944"/>
<path d="M94.3554 11.871C94.3554 6.7369 90.1631 2.56641 85.0131 2.56641C79.8337 2.56641 75.6523 6.7369 75.6523 11.871C75.6523 16.985 79.8337 21.1389 85.0131 21.1389C90.1631 21.1389 94.3554 16.985 94.3554 11.871Z" fill="#7A451F"/>
<path d="M91.6178 11.8724C91.6178 8.21847 88.6661 5.30371 85.0141 5.30371C81.3694 5.30371 78.3809 8.21847 78.3809 11.8724C78.3809 15.4898 81.3694 18.4227 85.0141 18.4227C88.6661 18.4227 91.6178 15.4898 91.6178 11.8724Z" fill="#B3E436"/>
<path d="M87.9638 11.872C87.9638 9.64356 85.012 7.86035 85.012 7.86035C85.012 7.86035 82.04 9.64356 82.04 11.872C82.04 14.064 85.012 15.8727 85.012 15.8727C85.012 15.8727 87.9638 14.064 87.9638 11.872Z" fill="black"/>
<path d="M220.698 177.265C220.698 195.909 233.36 211.067 248.968 211.067C264.592 211.067 277.245 195.909 277.245 177.265C277.245 158.578 264.592 143.437 248.968 143.437C233.36 143.437 220.698 158.578 220.698 177.265Z" fill="#BF682B"/>
<path d="M265.436 217.733C265.829 220.111 265.489 222.625 264.375 224.924C263.21 227.242 261.396 228.996 259.288 230.146L227.706 247.151L234.993 274.785L224.951 286.104L218.121 256.534C217.439 253.621 217.457 250.493 218.373 247.417C219.288 244.353 220.94 241.704 223.076 239.611L244.551 218.615C244.551 218.615 229.672 196.728 230.569 182.22C230.884 177.478 234.725 171.435 239.732 170.161C244.694 168.887 253.033 171.837 255.509 175.883C261.1 185.098 265.436 217.733 265.436 217.733Z" fill="#BF682B"/>
<path d="M224.951 286.104L234.993 274.784H222.339L224.951 286.104Z" fill="#715944"/>
<path d="M91.7432 29.9082C91.7432 29.2402 91.2305 28.7236 90.5669 28.7236H0.0234375C0.0601967 29.5522 0.231125 30.3463 0.499468 31.0763H90.5669C91.2305 31.0763 91.7432 30.5598 91.7432 29.9082Z" fill="#877388"/>
<path d="M850.863 68.5254L852.846 83.0516L854.471 67.8027C853.269 68.0437 852.065 68.2754 850.863 68.5254Z" fill="#6E4B5D"/>
<path d="M810.567 80.4891L812.687 96.3167L814.561 79.0107C813.232 79.4999 811.887 79.9817 810.567 80.4891Z" fill="#6E4B5D"/>
<path d="M270.854 154.309L274.157 123.741C271.617 124.106 269.185 124.533 266.888 124.97L270.854 154.309Z" fill="#6E4B5D"/>
<path d="M289.737 121.88L295.185 162.153L299.618 121.113C296.253 121.336 292.941 121.595 289.737 121.88Z" fill="#6E4B5D"/>
<path d="M774.391 95.9431L776.804 113.839L778.976 93.8223C777.451 94.5268 775.907 95.2295 774.391 95.9431Z" fill="#6E4B5D"/>
<path d="M664.221 140.487L666.752 159.131L668.878 139.33C667.343 139.739 665.792 140.113 664.221 140.487Z" fill="#6E4B5D"/>
<path d="M626 167.573L628.316 146.159C626.603 146.302 624.897 146.407 623.147 146.506L626 167.573Z" fill="#6E4B5D"/>
<path d="M705.171 127.483L707.494 144.621L709.532 125.736C708.051 126.342 706.625 126.904 705.171 127.483Z" fill="#6E4B5D"/>
<path d="M740.404 112.086L742.748 129.543L744.865 109.983C743.393 110.677 741.895 111.4 740.404 112.086Z" fill="#6E4B5D"/>
<path d="M585.874 171.809L588.647 146.02C586.548 145.85 584.42 145.653 582.303 145.421L585.874 171.809Z" fill="#6E4B5D"/>
<path d="M544.188 140.415L548.774 174.227L552.301 141.503L544.188 140.415Z" fill="#6E4B5D"/>
<path d="M505.545 135.229L511.083 176.035L515.328 136.528L505.545 135.229Z" fill="#6E4B5D"/>
<path d="M455.162 128.456L446.673 127.315L451.492 162.739L455.162 128.456Z" fill="#6E4B5D"/>
<path d="M429.359 124.982L422.853 124.119L426.541 151.273L429.359 124.982Z" fill="#6E4B5D"/>
<path d="M401.468 121.243C401.468 121.243 400.032 121.156 397.474 121.039L401.001 147.053L403.748 121.539L401.468 121.243Z" fill="#6E4B5D"/>
<path d="M343.134 119.845L348.688 160.954L353.13 119.871C349.855 119.845 346.527 119.836 343.134 119.845Z" fill="#6E4B5D"/>
<path d="M477.616 170.599L481.781 132.03L472.222 130.738L477.616 170.599Z" fill="#6E4B5D"/>
<path d="M371.601 120.158L376.07 153.096L379.588 120.372C377.085 120.3 374.427 120.229 371.601 120.158Z" fill="#6E4B5D"/>
<path d="M321.352 163.353L326.002 120.041C322.494 120.096 318.992 120.211 315.521 120.335L321.352 163.353Z" fill="#6E4B5D"/>
<path d="M342.633 245.776C342.767 246.497 342.929 247.229 343.098 247.95L393.284 240.116L341.968 237.791C341.977 240.697 342.175 243.387 342.633 245.776Z" fill="#80586C"/>
<path d="M357 181.035C355.231 184.806 353.572 188.717 352.037 192.701L413.888 207.735L357 181.035Z" fill="#80586C"/>
<path d="M402.294 224.88L346.995 207.705C345.899 211.529 344.931 215.307 344.168 218.988L402.294 224.88Z" fill="#80586C"/>
<path d="M384.812 311.352L402.158 296.869L381.544 307.973C382.711 309.222 383.806 310.326 384.812 311.352Z" fill="#80586C"/>
<path d="M363.848 167.963L427.754 191.133L371.565 156.797C368.954 159.996 366.369 163.765 363.848 167.963Z" fill="#80586C"/>
<path d="M390.728 279.502L365.114 288.976C366.235 290.438 367.403 291.882 368.542 293.262L390.728 279.502Z" fill="#80586C"/>
<path d="M390.752 259.225L349.631 265.124C350.87 267.575 352.27 270.026 353.696 272.431L390.752 259.225Z" fill="#80586C"/>
<path d="M126.634 9.01855L120.514 29.7649L134.927 12.9317C132.181 11.4515 129.371 10.1593 126.634 9.01855Z" fill="#6E4B5D"/>
<path d="M156.645 37.4629L142.852 49.673L159.652 43.7194C158.629 41.5621 157.632 39.4687 156.645 37.4629Z" fill="#6E4B5D"/>
<path d="M166.573 59.4795L151.719 69.1563L169.409 66.3055C168.485 64.0241 167.551 61.7427 166.573 59.4795Z" fill="#6E4B5D"/>
<path d="M135.78 39.488L153.495 31.5213C152.122 29.0701 150.795 26.8781 149.493 25.042L135.78 39.488Z" fill="#6E4B5D"/>
<path d="M217.564 127.771L209.899 151.575L227.193 130.604C223.846 129.91 220.633 128.929 217.564 127.771Z" fill="#6E4B5D"/>
<path d="M196.151 115.424L186.173 135.725L204.749 121.474C201.573 119.523 198.71 117.446 196.151 115.424Z" fill="#6E4B5D"/>
<path d="M177.575 86.1338L163.396 97.9332L180.492 93.0858C179.549 90.9102 178.562 88.5849 177.575 86.1338Z" fill="#6E4B5D"/>
<path d="M184.59 102.059L171.614 112.885L188.252 108.155C187.255 106.977 186.009 104.875 184.59 102.059Z" fill="#6E4B5D"/>
<path d="M384.938 386.104L404.054 387.396L386.445 382.396L384.938 386.104Z" fill="#80586C"/>
<path d="M402.508 393.447L384.082 388.198C383.518 389.509 382.917 390.81 382.217 392.057L402.508 393.447Z" fill="#80586C"/>
<path d="M381.257 393.73C380.431 395.094 379.534 396.413 378.511 397.696L400.39 399.159L381.257 393.73Z" fill="#80586C"/>
<path d="M390.035 373.52L407.696 374.723L391.434 370.107L390.035 373.52Z" fill="#80586C"/>
<path d="M388.779 376.589L387.353 380.126L405.58 381.338L388.779 376.589Z" fill="#80586C"/>
<path d="M70.8052 6.962L71.0827 0.0556641C70.8952 0.0647897 70.7335 0.0739699 70.5718 0.0830956C58.2059 0.955508 22.1451 10.9992 22.1451 10.9992C21.0865 11.2492 20.0186 11.5869 18.96 11.9447L70.8052 6.962Z" fill="#6E4B5D"/>
<path d="M17.7225 17.5529C17.9468 18.2574 16.5738 19.3432 14.6531 19.9328C12.7324 20.5551 10.9919 20.4585 10.7677 19.754C10.5526 19.0312 11.898 17.9616 13.8279 17.3648C15.7669 16.7424 17.5167 16.8393 17.7225 17.5529Z" fill="#7A451F"/>
</g>
<defs>
<clipPath id="clip0_2175_789">
<rect width="1000" height="420" fill="white"/>
</clipPath>
</defs>
</svg>
