<svg width="1000" height="700" viewBox="0 0 1000 700" fill="none" xmlns="http://www.w3.org/2000/svg">
<g clip-path="url(#clip0_1276_8368)">
<path fill-rule="evenodd" clip-rule="evenodd" d="M148.087 322.367C137.432 322.581 126.86 323.737 121.177 326.546C109.251 332.417 99.4064 342.03 88.6867 350.107C79.3944 357.086 68.7207 363.122 57.5036 363.871C62.1451 366.369 67.3761 367.827 72.6347 368.352C53.1752 380.55 37.952 402.391 17.0098 411.8C21.4487 412.412 26.035 412.082 30.4371 411.168C34.2959 410.361 38.0441 409.136 41.7371 407.717C36.8745 411.761 33.2092 417.476 30.5753 423.464C27.0757 431.366 25.0957 439.91 22.2499 448.103C17.9307 460.564 11.6039 472.238 3.63772 482.502C9.99222 479.538 15.9047 475.533 21.6237 471.237C17.9215 482.56 19.8647 495.702 17.1019 507.58C14.689 517.999 8.43582 527.369 0 533.337C0.79201 533.036 1.58402 532.715 2.35761 532.375C11.0973 528.565 19.2293 523.219 26.3481 516.648C25.7311 534.854 28.1532 553.856 21.8539 570.127C28.715 564.217 34.7471 557.17 40.7609 550.065C46.5352 543.242 52.3003 536.37 58.7561 530.382C68.4536 521.391 79.818 514.403 92.0021 509.893C91.781 517.785 91.3298 525.697 89.451 533.318C88.5117 537.167 87.1487 540.967 85.3529 544.486C98.1355 541.171 109.039 530.596 117.531 519.496C125.34 509.29 132.33 497.986 141.337 489.131C141.853 502.574 138.565 516.191 131.952 527.69L132.487 528.04C146.172 521.411 157.905 510.359 165.696 496.752C170.641 488.12 173.993 478.566 178.69 469.769C182.521 462.596 187.494 455.724 193.996 451.34C194.061 457.435 193.775 463.509 192.643 469.478C191.933 473.181 190.884 476.865 189.419 480.335L189.852 480.383C199.918 471.878 205.665 458.854 209.155 445.751C212.13 434.573 213.723 423.046 216.403 411.8C219.451 415.493 221.975 419.692 223.862 424.193C227.445 396.073 212.995 366.145 189.079 353.043L188.931 352.528C194.908 350.564 201.217 349.709 207.47 350.049C190.589 335.693 166.856 330.57 146.043 337.073C153.981 329.394 164.425 324.593 175.182 323.873C169.094 322.872 158.549 322.153 148.087 322.367Z" fill="#F3B04B"/>
<path fill-rule="evenodd" clip-rule="evenodd" d="M229.739 509.785C234.463 514.762 237.576 521.43 238.608 528.409C243.894 522.489 247.089 514.616 249.383 506.772C252.072 497.577 253.803 487.993 257.634 479.265C260.379 473.015 264.155 467.3 266.623 460.914C267.884 457.628 268.768 454.032 268.934 450.494C269.874 452.156 270.675 453.915 271.301 455.723C273.078 460.778 274.395 469.846 275.095 476.339C279.672 465.686 279.009 452.807 277.223 440.998C275.602 430.296 273.253 419.381 273.732 408.689C275.906 414.064 277.379 419.74 278.696 425.426C284.498 396.918 276.532 360.867 255.507 342.37C258.997 342.613 262.478 343.089 265.914 343.77C258.27 334.468 248.278 327.362 237.53 322.464C224.351 316.476 206.55 312.112 185.727 312.394C171.554 314.62 152.748 316.564 137.636 313.035C140.583 316.641 143.834 319.742 148.088 322.366C158.55 322.153 169.095 322.872 175.182 323.873C164.426 324.592 153.982 329.394 146.044 337.073C166.857 330.57 190.59 335.692 207.471 350.049C201.217 349.708 194.909 350.564 188.932 352.527L189.079 353.042C212.996 366.145 227.446 396.072 223.863 424.192C221.975 419.692 219.452 415.493 216.404 411.799C213.724 423.045 212.131 434.573 209.156 445.751C205.666 458.853 199.919 471.878 189.853 480.383L189.42 480.334C190.884 476.864 191.934 473.18 192.643 469.477C193.776 463.509 194.062 457.434 193.997 451.34C187.495 455.723 182.522 462.595 178.691 469.769C173.994 478.565 170.642 488.12 165.697 496.751C157.905 510.359 146.173 521.41 132.488 528.039L131.953 527.689C138.566 516.191 141.853 502.573 141.338 489.131C132.331 497.985 125.341 509.29 117.531 519.496C109.04 530.596 98.1364 541.171 85.3537 544.485C87.1495 540.967 88.5125 537.166 89.4519 533.317C91.3306 525.697 91.7819 517.785 92.0029 509.892C79.8189 514.402 68.4544 521.391 58.7569 530.382C52.3011 536.369 46.536 543.241 40.7617 550.065C41.4893 551.523 42.2997 552.922 43.1838 554.273C48.3871 562.224 53.9957 565.723 58.4438 574.16C62.5788 581.965 62.8183 584.191 62.6157 589.362C62.3854 589.975 62.1644 590.587 61.9434 591.199C68.786 597.673 76.3745 603.485 85.3169 605.196C87.7666 605.672 90.3452 605.818 92.7305 605.031C94.7013 604.379 96.4326 603.135 98.2008 601.998C103.395 598.654 109.05 596.118 114.944 594.494C116.804 593.969 118.959 593.794 121.252 593.824C123.158 593.833 125.166 593.999 127.211 594.203C133.528 594.835 140.168 595.943 145.012 594.932C149.774 593.94 153.724 590.558 157.39 587.214C163.422 581.722 169.307 576.036 175.035 570.165C178.599 566.54 182.099 562.827 185.552 559.056C186.188 561.32 186.427 563.741 186.335 566.122C186.27 567.745 186.068 569.368 185.773 570.962C191.023 570.01 196.097 567.58 200.508 564.217C202.028 563.05 203.474 561.777 204.818 560.416C210.464 554.701 214.599 547.596 217.988 540.102C219.213 537.37 220.355 534.581 221.423 531.801C224.232 524.482 226.7 516.988 229.739 509.785Z" fill="#EA9432"/>
<path fill-rule="evenodd" clip-rule="evenodd" d="M115.715 677.016L115.835 676.977C117.999 680.457 120.191 683.975 121.508 687.912C122.751 691.605 123.166 695.756 121.968 699.469C126.941 699.682 131.896 699.721 136.777 698.798C138.941 698.38 141.179 697.738 142.809 696.174C145.452 693.676 145.904 689.418 145.241 685.744C143.638 676.646 139.402 668.919 132.099 663.602C129.271 661.551 126.103 659.948 123.055 658.217C119.15 656.021 115.43 653.639 112.851 649.917C108.605 643.832 108.495 635.609 109.471 628.115C111.074 615.985 115.117 604.223 121.25 593.823C118.957 593.794 116.802 593.969 114.942 594.494C109.048 596.117 103.393 598.654 98.1988 601.998C96.4306 603.135 94.6992 604.379 92.7284 605.03C90.3432 605.817 87.7645 605.672 85.3148 605.195C76.3725 603.485 68.7839 597.672 61.9413 591.199C55.946 607.761 52.1978 627.328 51.8847 644.911C51.8662 645.951 51.8755 647.049 52.4004 647.934C53.3213 649.469 55.5132 649.625 57.0143 648.77C58.5339 647.905 59.5377 646.32 60.4678 644.804C62.586 653.017 63.9306 661.444 64.4831 669.94C64.9436 677.045 65.2015 685.035 70.1561 689.846C73.711 693.296 75.3318 695.211 80.7009 697.894C89.3486 701.568 99.0829 699.381 108.403 699.09C111.331 699.012 114.26 699.119 117.198 699.245C118.303 696.368 118.662 693.131 118.496 690.001C118.248 685.559 117.014 681.263 115.715 677.016Z" fill="#FBE2BE"/>
<path fill-rule="evenodd" clip-rule="evenodd" d="M109.474 628.116C108.497 635.61 108.608 643.833 112.853 649.918C115.432 653.64 119.153 656.022 123.057 658.219C130.489 658.5 137.931 658.646 145.381 658.675C146.891 658.675 148.457 658.666 149.838 658.014C153.651 656.226 154.204 650.793 153.679 646.428C152.868 639.624 150.501 632.558 145.289 628.466C142.425 626.211 138.934 625.035 135.895 623.071C126.999 617.317 123.159 604.312 127.211 594.203C125.166 593.999 123.159 593.834 121.252 593.824C115.119 604.225 111.076 615.986 109.474 628.116Z" fill="#E5C89C"/>
<path fill-rule="evenodd" clip-rule="evenodd" d="M115.715 677.015C117.014 681.262 118.248 685.558 118.497 690C118.662 693.13 118.303 696.367 117.198 699.244C118.791 699.322 120.385 699.4 121.969 699.468C123.166 695.755 122.751 691.604 121.508 687.911C120.191 683.974 117.999 680.455 115.835 676.976L115.715 677.015Z" fill="#E5C89C"/>
<path fill-rule="evenodd" clip-rule="evenodd" d="M497.832 578.408C496.009 582.354 493.467 585.922 490.391 588.877C501.295 590.548 512.844 587.146 523.269 582.734C535.692 577.465 547.885 570.72 561.156 569.233C558.762 563.644 557.316 557.598 556.975 551.484C555.99 551.056 555.004 550.59 554.037 550.094C554.378 547.995 554.479 545.847 554.387 543.757C554.102 537.419 552.361 531.257 551.551 524.978C548.595 529.07 545.344 532.841 541.66 535.971C544.708 526.426 543.981 515.87 544.073 505.694C544.128 500.28 544.515 494.642 545.795 489.374C545.491 489.51 545.169 489.656 544.846 489.782C540.067 491.736 534.799 492.65 529.715 492.134L529.761 491.668C534.909 489.442 539.109 485.758 542.562 481.229L540.315 480.675C532.8 472.938 531.226 460.875 531.262 449.795C531.299 439.55 532.285 428.984 529.586 419.216L527.965 419.264C525.258 423.259 522.55 427.254 519.843 431.249C521.086 418.419 516.297 405.034 516.896 391.883C517.31 383.048 520.156 374.29 521.325 365.581C517.946 368.293 514.658 371.131 511.665 374.242C511.278 368.663 509.233 363.025 506.452 358.194C501.636 349.874 494.811 342.992 489.912 334.721C483.788 324.408 480.859 312.034 481.614 299.904C477.157 300.303 472.709 300.905 468.298 301.799C460.414 303.393 452.642 305.93 444.629 306.271C435.19 306.679 425.897 304.016 417.158 300.128C418.29 304.414 420.003 308.526 422.232 312.307C405.987 305.668 387.706 304.92 370.107 303.705C351.854 302.46 332.634 300.089 317.171 290.301C317.972 292.964 318.764 295.627 319.566 298.291C315.744 297.416 311.747 297.076 307.87 296.959C281.66 296.191 254.879 302.849 229.396 297.562C228.659 300.448 228.236 303.432 228.125 306.426C213.934 306.883 199.825 310.168 185.725 312.394C206.548 312.112 224.349 316.476 237.528 322.464C248.275 327.363 258.268 334.468 265.911 343.77C262.476 343.09 258.995 342.613 255.505 342.37C276.53 360.867 284.496 396.918 278.694 425.427C277.377 419.741 275.904 414.064 273.73 408.689C273.251 419.381 275.6 430.296 277.221 440.998C279.007 452.808 279.67 465.687 275.093 476.34C274.393 469.847 273.076 460.778 271.299 455.724C270.673 453.916 269.872 452.156 268.932 450.494C268.766 454.032 267.882 457.629 266.621 460.914C264.152 467.3 260.377 473.015 257.632 479.265C253.801 487.994 252.07 497.578 249.381 506.773C247.087 514.617 243.892 522.49 238.606 528.409C237.574 521.43 234.461 514.762 229.737 509.786C226.698 516.988 224.23 524.482 221.421 531.801C220.352 534.581 219.211 537.371 217.986 540.102C227.978 545.915 239.084 549.56 250.449 550.677C269.862 552.592 289.92 547.343 309.131 548.082C303.016 552.271 296.68 556.373 290.013 559.211C304.167 564.363 320.1 561.943 335.268 561.243C349.69 560.582 364.185 561.612 378.395 564.305C372.188 567.911 365.631 570.846 358.862 573.053C362.914 575.638 367.749 576.97 372.501 577.378C379.187 577.971 385.901 576.95 392.596 576.289C408.289 574.744 424.157 575.201 439.758 577.64C437.372 579.079 434.932 580.44 432.473 581.723C442.097 589.256 455.377 588.954 467.082 586.204C477.378 583.783 487.407 579.711 497.832 578.408Z" fill="#EEA03B"/>
<path fill-rule="evenodd" clip-rule="evenodd" d="M563.009 588.837C566.84 588.924 570.68 588.477 574.401 587.515C568.691 582.655 564.169 576.308 561.158 569.232C547.887 570.719 535.694 577.465 523.27 582.733C512.845 587.146 501.297 590.548 490.393 588.876C493.469 585.921 496.01 582.354 497.834 578.407C487.409 579.71 477.38 583.783 467.084 586.203C455.378 588.954 442.098 589.255 432.475 581.722C434.933 580.439 437.374 579.078 439.759 577.64C424.158 575.2 408.291 574.743 392.598 576.289C385.903 576.949 379.189 577.97 372.503 577.377C367.751 576.969 362.916 575.637 358.864 573.052C365.633 570.845 372.19 567.91 378.397 564.304C364.187 561.611 349.691 560.581 335.269 561.242C320.101 561.942 304.169 564.362 290.014 559.211C296.682 556.372 303.018 552.271 309.133 548.081C289.922 547.343 269.864 552.591 250.45 550.677C239.086 549.559 227.979 545.914 217.987 540.101C214.598 547.595 210.463 554.701 204.818 560.416C203.473 561.777 202.027 563.05 200.508 564.216C204.588 566.17 209.119 567.171 213.604 567.356C216.799 567.482 219.995 567.23 223.163 566.714C221.432 567.959 219.636 569.115 217.748 570.078C216.099 570.913 214.359 571.594 212.572 572.06C221.892 577.61 233.68 577.28 244.483 575.929C251.942 574.986 259.595 573.703 267.064 573.897C264.826 579.418 260.728 584.113 255.635 586.796C259.632 587.777 263.869 587.884 267.994 587.564C274.441 587.058 280.814 585.61 287.27 585.289C295.31 584.881 303.423 586.261 310.938 589.294C306.398 591.753 301.544 593.551 296.534 594.62C305.845 599.402 315.506 604 325.811 604.505C333.262 604.865 340.647 603.047 348.098 602.678C356.211 602.279 364.389 603.631 371.996 606.615C373.175 611.504 373.387 616.665 372.632 621.661C380.165 618.667 389.19 620.028 397.488 620.913C408.604 622.098 419.83 622.108 430.946 620.942C431.314 624.82 430.992 628.795 430.016 632.557C435.864 631.721 441.804 631.731 447.652 632.586C454.678 633.636 461.576 635.891 468.677 636.027C475.75 636.173 482.574 634.229 489.177 631.42C492.75 635.492 495.255 640.605 496.277 646.039L497.143 647.37C512.735 636.348 532.562 633.976 551.571 633.714L551.58 634.89C546.432 639.06 540.906 642.724 535.113 645.786L535.574 646.768C553.339 647.535 571.27 643.686 587.34 635.648C595.196 631.721 602.904 626.715 611.027 623.751C611.45 621.982 611.92 620.222 612.39 618.483C607.205 619.785 602.103 621.428 597.102 623.381C594.956 624.217 592.783 625.131 590.49 625.345C588.436 625.539 586.244 625.102 584.669 623.76C585.222 623.362 585.738 622.905 586.244 622.439C588.657 620.193 590.803 617.666 592.866 615.061C588.989 615.868 585.148 617.044 581.243 616.597C576.823 616.091 572.9 613.555 569.557 610.376C571.841 610.298 574.171 609.599 576.188 608.442C578.324 607.227 580.184 605.594 581.897 603.767C578.453 602.173 575.064 600.481 571.933 598.294C568.378 595.835 565.145 592.696 563.009 588.837Z" fill="#FCF2DF"/>
<path fill-rule="evenodd" clip-rule="evenodd" d="M682.575 390.669C680.991 388.608 679.176 386.8 676.975 385.468C673.163 383.175 668.678 382.63 664.395 381.59C652.303 378.664 641.243 371.326 633.369 361.217C632.402 362.267 631.49 363.365 630.643 364.532C629.28 366.437 628.11 368.546 627.309 370.782C622.05 369.528 616.101 369.052 610.124 369.392C596.798 370.13 583.288 374.961 576.759 384.652C572.154 391.475 569.492 399.504 565.578 406.794C561.664 414.074 552.934 421.034 545.207 422.929C550.935 426.36 557.603 428.08 564.178 427.808C559.371 437.12 556.839 447.899 553.643 458.095C551.092 466.241 547.62 474.619 542.564 481.229C539.11 485.758 534.911 489.442 529.763 491.668L529.717 492.135C534.8 492.65 540.068 491.736 544.848 489.782C545.17 489.656 545.493 489.51 545.796 489.374C544.516 494.642 544.13 500.28 544.074 505.694C543.982 515.871 544.71 526.426 541.661 535.971C545.345 532.841 548.596 529.07 551.552 524.978C552.363 531.257 554.103 537.42 554.389 543.757C554.481 545.847 554.38 547.995 554.039 550.094C555.006 550.59 555.991 551.057 556.977 551.484C567.908 556.247 580.249 557.413 591.816 554.857C587.745 556.646 583.583 558.22 579.227 558.92C578.858 558.988 578.481 559.037 578.112 559.085C580.166 559.843 582.155 560.825 584.034 561.953C588.998 564.927 593.428 568.786 598.244 571.993C606.229 577.32 615.281 580.838 624.629 582.219C620.872 584.435 616.902 586.33 612.85 587.603C623.819 590.889 634.649 596.205 645.369 592.949C650.968 591.248 658.934 584.921 663.787 579.157C663.557 586.145 661.356 593.066 657.442 598.694L657.553 598.946C668.447 593.581 674.544 580.965 677.97 568.737C678.375 567.26 678.762 565.782 679.13 564.295C681.7 554.041 683.588 543.465 688.183 534.154C690.136 539.189 691.13 544.651 691.066 550.104C693.681 546.79 695.063 542.454 695.698 538.158C696.444 533.152 696.269 528.04 696.555 522.976C696.914 516.891 699.17 509.387 702.329 501.573C708.241 487.022 717.303 471.392 723.05 461.808C731.007 447.297 730.961 427.818 721.577 414.288C716.825 407.426 710.138 402.4 703.673 397.336C697.227 392.302 690.679 386.79 685.964 380.064C685.282 383.738 684.149 387.306 682.575 390.669Z" fill="#F3B04B"/>
<path fill-rule="evenodd" clip-rule="evenodd" d="M622.824 247.854C603.917 268.013 577.108 279.987 550.18 279.375L549.581 279.57C550.972 281.436 552.593 283.108 554.398 284.536C544.967 287.54 535.445 290.213 525.72 291.71C513.075 293.654 499.942 293.527 487.758 289.591C490.678 292.769 494.131 295.578 497.465 298.173L497.483 299.175C492.179 299.233 486.883 299.437 481.616 299.904C480.86 312.034 483.789 324.407 489.913 334.72C494.813 342.992 501.637 349.874 506.453 358.194C509.235 363.025 511.279 368.662 511.666 374.241C514.659 371.131 517.947 368.293 521.327 365.581C520.157 374.29 517.311 383.048 516.897 391.883C516.298 405.034 521.087 418.418 519.844 431.248C522.551 427.254 525.259 423.259 527.967 419.264L529.587 419.215C532.286 428.984 531.3 439.549 531.264 449.794C531.227 460.875 532.802 472.937 540.316 480.674L542.564 481.228C547.62 474.619 551.091 466.24 553.642 458.095C556.838 447.899 559.371 437.119 564.178 427.808C557.603 428.08 550.935 426.359 545.207 422.928C552.933 421.033 561.664 414.073 565.578 406.793C569.492 399.503 572.153 391.475 576.758 384.651C583.288 374.961 596.798 370.13 610.124 369.391C609.746 364.453 608.696 359.564 606.983 354.947C604.331 347.745 600.049 340.367 600.03 332.99C597.194 335.614 594.238 338.093 591.06 340.222C588.509 341.932 585.783 343.42 582.947 344.557C589.126 338.705 591.88 329.403 593.759 320.675C594.182 318.692 594.597 316.67 595.048 314.668C590.204 317.817 585.083 320.335 579.733 321.53C585.728 317.458 589.835 310.537 592.635 303.5C595.914 295.277 597.894 286.48 601.872 278.607C605.887 270.637 615.649 256.368 622.824 247.854Z" fill="#D9802E"/>
<path fill-rule="evenodd" clip-rule="evenodd" d="M693.562 665.343L693.903 665.178C700.119 671.408 702.624 681.43 700.147 690.09C704.006 690.518 707.883 690.907 711.751 691.227C715.223 691.509 719.073 691.043 721.467 688.389C723.751 685.862 723.659 682.032 723.677 678.543C723.677 677.931 723.668 677.328 723.65 676.745C722.756 646.001 694.953 645.106 693.434 645.048C692.19 645.009 690.993 644.514 689.86 643.95C686.149 642.113 682.787 639.517 680.006 636.349C677.409 633.394 675.282 629.749 675.015 625.744C675.005 625.725 675.005 625.715 675.005 625.705C674.877 623.47 675.328 621.244 675.742 619.047C679.14 601.056 680.282 582.598 679.131 564.295C678.763 565.782 678.376 567.26 677.971 568.737C674.545 580.965 668.448 593.581 657.554 598.947L657.443 598.694C661.357 593.066 663.558 586.146 663.788 579.157C658.935 584.921 650.969 591.248 645.37 592.949C634.65 596.206 623.82 590.889 612.851 587.603C616.903 586.33 620.872 584.435 624.63 582.219C615.282 580.838 606.229 577.32 598.245 571.993C593.428 568.786 588.999 564.927 584.035 561.953C582.156 560.825 580.167 559.843 578.113 559.085C578.482 559.037 578.859 558.988 579.228 558.92C583.584 558.22 587.746 556.646 591.817 554.857C580.25 557.414 567.909 556.247 556.978 551.484C557.318 557.598 558.764 563.644 561.159 569.233C564.17 576.309 568.692 582.656 574.402 587.516C570.681 588.478 566.841 588.925 563.01 588.838C565.146 592.697 568.379 595.836 571.934 598.295C575.065 600.482 578.454 602.174 581.898 603.768C580.185 605.595 578.325 607.228 576.188 608.443C574.172 609.6 571.842 610.299 569.558 610.377C572.901 613.556 576.824 616.093 581.244 616.598C585.149 617.045 588.989 615.869 592.867 615.062C590.804 617.667 588.658 620.194 586.245 622.44C585.739 622.906 585.223 623.363 584.67 623.762C586.245 625.103 588.437 625.54 590.491 625.346C592.784 625.132 594.957 624.218 597.103 623.382C602.104 621.429 607.206 619.786 612.391 618.484C611.921 620.223 611.451 621.983 611.028 623.752C609.941 628.427 609.223 633.19 609.83 637.923C610.899 646.283 615.918 653.397 620.78 660.094C624.344 665.013 627.908 669.931 631.463 674.84C634.816 679.447 638.481 684.316 643.721 686.085C646.843 687.135 650.195 686.97 653.455 686.873C667.555 686.416 681.443 688.029 695.34 689.565C697.486 681.614 696.924 672.828 693.562 665.343Z" fill="#FBE2BE"/>
<path fill-rule="evenodd" clip-rule="evenodd" d="M622.825 247.853C623.93 246.677 625.007 245.471 626.048 244.233C625.072 245.254 623.976 246.475 622.825 247.853Z" fill="#EEA03B"/>
<path fill-rule="evenodd" clip-rule="evenodd" d="M922.914 233.229C913.198 233.506 902.588 234.978 895.322 237.939C889.879 240.155 883.12 243.506 878.92 239.238C874.933 235.186 877.926 227.35 883.018 225.047C888.12 222.744 893.968 224.224 899.291 225.87C907.165 228.311 914.975 231.073 922.914 233.229ZM940.209 236.623C950.164 237.627 960.35 236.752 969.449 232.511C982.333 226.502 992.095 213.636 995.023 199.117C989.056 205.896 981.218 192.415 979.367 188.156C978.013 185.03 976.991 181.584 977.083 177.948C977.175 174.321 978.52 170.476 981.071 168.208C983.281 166.242 985.906 165.758 988.54 166.069C973.98 159.065 953.047 152.788 937.418 149.196C936.286 148.935 935.153 148.684 934.002 148.425C936.608 159.974 940.522 176.087 937.004 186.9C935.705 190.883 933.458 194.788 929.885 196.649C927.564 197.861 924.875 198.104 922.306 197.887C909.938 196.831 899.927 185.991 887.623 184.364C881.665 183.576 875.384 184.978 869.775 182.701C856.956 177.472 855.04 156.459 842.036 151.749C840.959 151.36 839.762 151.108 838.693 151.533C837.634 151.94 836.898 152.936 836.29 153.94C829.687 164.84 833.03 180.441 825.45 190.615C820.754 196.909 812.926 199.558 805.411 200.762C798.31 201.905 790.989 202.078 784.183 204.433C783.796 204.562 783.419 204.701 783.032 204.848C772.155 209.048 763.701 219.549 761.537 231.549C758.71 247.24 766.648 261.548 772.579 275.292C779.293 290.844 786.089 306.395 791.477 322.53C797.122 339.424 801.22 357.114 801.902 374.96C798.817 366.62 793.834 359.058 787.48 353.119C787.517 358.319 788.64 363.568 790.197 368.544C792.499 375.932 795.75 382.969 797.951 390.385C800.336 398.423 801.441 406.87 801.266 415.297C798.955 408.338 795.593 401.757 791.366 395.887C793.042 404.975 793.586 414.364 791.753 423.404C790.261 430.742 787.065 437.847 782.277 443.339C782.231 438.197 781.107 433.055 779.063 428.38C761.261 444.661 752.521 470.399 733.863 485.747C724.626 493.358 713.593 497.868 702.33 501.571C699.171 509.386 696.914 516.889 696.555 522.974C696.27 528.038 696.445 533.151 695.699 538.157C695.063 542.453 693.682 546.788 691.067 550.102C691.131 544.65 690.136 539.187 688.184 534.152C683.589 543.464 681.701 554.039 679.131 564.293C680.282 582.596 679.14 601.054 675.742 619.046C675.328 621.242 674.876 623.468 675.005 625.704C675.005 625.713 675.005 625.723 675.015 625.743C681.866 622.827 689.068 620.659 694.999 616.071C695.321 615.819 695.644 615.566 695.948 615.313C701.768 610.424 705.774 603.601 709.246 596.554C712.635 600.15 715.297 604.505 716.963 609.258C721.587 599.684 724.23 588.856 730.98 580.846C735.705 575.238 742.013 571.544 747.953 567.355C748.985 570.106 749.316 573.187 749.123 576.171C748.985 578.339 748.598 580.477 748.064 582.586C755.33 579.797 761.905 575.034 766.961 568.862C770.627 564.371 773.491 559.171 777.331 554.846C780.775 550.977 784.892 547.915 789.174 545.116C792.923 547.925 796.063 551.648 798.301 555.905C800.327 549.918 803.882 544.494 808.551 540.451C814.196 535.571 821.251 532.743 826.813 527.756C829.484 525.336 831.768 522.449 833.545 519.222C834.273 521.613 834.651 524.16 834.669 526.658C834.697 529.555 834.319 532.393 833.72 535.211C838.537 529.399 841.198 521.468 842.129 513.682C843.409 503.136 842.083 492.463 842.073 481.83C842.064 473.325 845.039 460.806 847.231 451.513C850.472 457.054 852.71 463.265 853.742 469.68C855.639 462.847 856.495 455.644 856.643 448.5C856.827 439.305 855.887 430.149 854.764 421.032C857.186 423.569 859.12 426.689 860.566 429.974C862.067 433.376 863.089 436.963 863.9 440.627C865.935 429.663 863.246 417.776 860.676 406.656C857.987 395.109 855.611 382.483 858.825 371.402C862.629 375.154 865.594 379.985 868.136 385.097C867.804 374.201 866.81 363.267 862.5 353.449C859.857 347.413 856.044 341.99 853.465 335.924C850.187 328.226 848.999 319.556 850.03 311.197C854.423 313.209 858.438 316.106 861.855 319.644C859.848 313.306 857.343 307.008 855.565 300.661C852.986 291.388 851.964 281.639 852.572 271.977C852.572 262.413 865.106 257.981 875.393 253.966C885.671 249.952 896.731 248.902 907.589 247.298C918.005 245.748 930.953 242.32 940.209 236.623Z" fill="#FCF2DF"/>
<path fill-rule="evenodd" clip-rule="evenodd" d="M694.997 616.074C689.066 620.662 681.864 622.829 675.012 625.745C675.279 629.75 677.407 633.395 680.004 636.349C682.785 639.518 686.146 642.113 689.858 643.95C690.991 644.514 692.188 645.01 693.431 645.049C694.951 645.107 722.754 646.001 723.647 676.745C726.603 677.008 729.56 677.222 732.516 677.367C734.468 677.455 736.596 677.484 738.161 676.25C739.672 675.044 740.279 672.964 740.528 670.981C741.569 662.865 738.161 654.759 733.593 648.12C728.224 640.305 720.82 633.647 711.951 631.276C707.033 629.973 701.25 629.682 698.091 625.483C695.982 622.693 695.715 618.98 695.945 615.316C695.641 615.568 695.319 615.821 694.997 616.074Z" fill="#E5C89C"/>
<path fill-rule="evenodd" clip-rule="evenodd" d="M693.9 665.176L693.56 665.341C696.921 672.826 697.483 681.612 695.337 689.563C696.93 689.738 698.542 689.923 700.144 690.088C702.622 681.428 700.117 671.406 693.9 665.176Z" fill="#E5C89C"/>
<path fill-rule="evenodd" clip-rule="evenodd" d="M728.908 112.954C727.241 117.569 725.675 122.85 723.069 126.816C731.477 121.578 740.576 117.049 750.476 113.404H750.485C748.459 101.206 751.093 88.1839 757.669 77.9246C757.116 78.4786 756.545 79.0151 755.965 79.5351C752.484 82.6863 748.625 85.3525 745.125 88.4959C737.878 95.0151 732.297 103.561 728.908 112.954Z" fill="#EA9432"/>
<path fill-rule="evenodd" clip-rule="evenodd" d="M750.605 140.467C747.759 147.151 746.728 155.186 749.924 161.696C753.101 168.206 761.472 172.024 767.431 168.268C770.009 166.648 771.778 163.965 773.794 161.61C778.058 156.622 786.292 151.28 792.425 149.463L792.49 149.306C791.209 148.805 790.196 147.904 789.81 146.501C787.876 140.684 782.866 135.151 782.553 128.26C781.143 131.887 776.419 135.402 773.288 133.281C770.157 131.16 768.545 127.298 767.311 123.584C765.884 119.298 764.723 114.779 765.156 110.259C765.58 105.775 767.532 101.645 769.3 97.5408C773.021 88.8658 776.088 79.7486 776.907 70.2688C777.625 61.9485 776.613 53.3766 777.358 45.1438C772.735 57.247 766.685 69.0742 757.669 77.9222C751.093 88.1816 748.459 101.203 750.485 113.402C750.688 114.675 750.955 115.93 751.268 117.177C752.521 122.207 754.584 127.316 753.653 132.432C753.138 135.273 751.729 137.826 750.605 140.467Z" fill="#D9802E"/>
<path fill-rule="evenodd" clip-rule="evenodd" d="M793.483 54.9025C793.548 41.7077 791.734 28.0804 793.631 15.0246C794.239 10.8859 796.67 3.93327 802.592 4.6088C802.159 3.72623 801.652 2.89421 801.008 2.16716C799.47 0.409804 796.928 -0.611757 794.856 0.401056C793.134 1.24086 792.203 3.19747 791.439 5.03356C786.061 17.8901 782.515 31.5086 777.579 44.5653C777.505 44.7559 777.431 44.9551 777.358 45.1456C776.612 53.3784 777.625 61.9504 776.906 70.2706C776.087 79.7504 773.02 88.8677 769.3 97.5427C767.531 101.646 765.579 105.776 765.155 110.261C764.722 114.781 765.883 119.3 767.31 123.586C768.544 127.3 770.156 131.162 773.287 133.283C776.418 135.404 781.143 131.889 782.552 128.261C779.909 127.334 778.702 123.975 778.868 121.041C779.025 118.105 780.157 115.326 780.627 112.426C781.226 108.763 780.738 104.988 781.143 101.292C781.999 93.3087 786.807 86.5125 789.671 79.0758C792.636 71.3524 793.437 63.2139 793.483 54.9025Z" fill="#EEA03B"/>
<path fill-rule="evenodd" clip-rule="evenodd" d="M778.868 121.041C778.702 123.975 779.908 127.334 782.551 128.262C784.393 126.235 786.244 124.209 788.086 122.184C788.372 121.881 788.666 121.56 789.044 121.456C789.827 121.231 790.545 121.915 791.144 122.486C794.791 125.949 800.482 126.503 804.866 124.305C805.741 123.863 806.569 123.309 807.315 122.651C807.619 122.374 807.932 122.062 808.246 121.724C812.546 116.876 812.399 108.383 807.914 103.716C806.173 101.89 803.659 99.5947 804.829 97.3184C805.354 96.2793 806.487 95.803 807.472 95.2315C811.948 92.6431 814.269 86.504 812.703 81.3612C811.266 76.6169 807.15 73.2917 805.262 68.7292C802.554 62.1751 804.387 53.2056 799.064 48.7733C798.511 48.3145 797.839 47.916 797.148 48.0113C796.071 48.1493 795.444 49.3448 795.039 50.4092C794.459 51.8808 793.934 53.3786 793.483 54.9027C793.437 63.2142 792.636 71.3526 789.67 79.0761C786.806 86.5127 781.999 93.3089 781.142 101.292C780.737 104.988 781.225 108.764 780.627 112.426C780.157 115.326 779.024 118.105 778.868 121.041Z" fill="#D49E90"/>
<path fill-rule="evenodd" clip-rule="evenodd" d="M815.908 148.485C816.092 148.035 816.249 147.568 816.377 147.118C820.724 132.755 820.052 116.763 814.508 102.867C814.315 102.382 814.121 101.863 813.946 101.343C816.488 109.204 812.132 117.551 808.246 121.723C807.932 122.062 807.619 122.374 807.315 122.651C806.394 123.498 805.547 124.07 804.866 124.304C800.482 126.503 794.791 125.949 791.144 122.485C790.545 121.914 789.827 121.231 789.044 121.455C788.666 121.559 788.372 121.88 788.086 122.183C786.244 124.209 784.393 126.234 782.551 128.261C782.864 135.152 787.874 140.685 789.808 146.502C790.195 147.905 791.208 148.806 792.488 149.308C794.072 149.932 796.08 149.923 797.765 149.507C800.795 148.754 803.991 147.273 806.892 148.476C809.166 149.42 811.22 151.966 813.55 151.161C814.701 150.771 815.401 149.689 815.908 148.485Z" fill="#D9802E"/>
<path fill-rule="evenodd" clip-rule="evenodd" d="M793.629 15.0251C791.732 28.0809 793.546 41.7082 793.482 54.9029C793.933 53.3789 794.458 51.881 795.038 50.4094C795.443 49.3451 796.07 48.1496 797.147 48.0115C797.838 47.9163 798.51 48.3148 799.063 48.7736C804.386 53.2059 802.553 62.1754 805.261 68.7295C807.149 73.292 811.265 76.6172 812.702 81.3615C814.267 86.5043 811.947 92.6434 807.471 95.2318C806.485 95.8033 805.353 96.2796 804.828 97.3186C803.658 99.595 806.172 101.89 807.913 103.716C812.398 108.383 812.545 116.876 808.244 121.724C812.131 117.552 816.487 109.205 813.945 101.344C813.945 101.336 813.936 101.327 813.936 101.318C813.402 99.6815 813.125 97.9592 814.037 96.6081C814.636 95.7168 815.63 95.2318 816.413 94.5047C819.6 91.5693 818.329 86.201 817.224 81.898C815.584 75.5004 814.875 68.8335 815.142 62.2104C815.363 56.6 816.22 50.7302 815.925 45.1801C813.227 36.8687 810.538 28.5572 807.848 20.2369C806.587 16.3412 805.325 12.4358 804.063 8.53127C803.631 7.20645 803.188 5.85636 802.59 4.60929C796.668 3.93376 794.237 10.8864 793.629 15.0251Z" fill="#F0E4CF"/>
<path fill-rule="evenodd" clip-rule="evenodd" d="M807.315 122.649C806.569 123.307 805.741 123.861 804.866 124.303C805.547 124.069 806.394 123.497 807.315 122.649Z" fill="#EEA03B"/>
<path fill-rule="evenodd" clip-rule="evenodd" d="M815.926 45.1794C817.003 48.5211 818.081 51.855 819.158 55.188C820.586 42.7038 822.418 35.6384 820.346 22.4961C819.849 19.3877 819.269 16.1927 819.941 13.1281C820.503 10.5912 822.17 8.16702 824.408 7.30973C823.956 6.17542 823.404 5.11109 822.603 4.22755C821.304 2.80747 819.214 1.99392 817.501 2.81622C816.11 3.48301 815.318 5.01583 814.609 6.45243C812.352 11.0412 810.096 15.6475 807.849 20.2362C810.538 28.5564 813.227 36.8679 815.926 45.1794Z" fill="#EA9432"/>
<path fill-rule="evenodd" clip-rule="evenodd" d="M793.991 180.01C800.53 178.348 807.216 166.14 810.485 161.353C808.459 162.209 806.396 162.98 804.259 163.422C804.002 163.473 803.753 163.517 803.495 163.551C808.652 160.079 813.856 153.95 815.909 148.486C815.403 149.69 814.703 150.772 813.552 151.162C811.222 151.967 809.168 149.421 806.893 148.478C803.992 147.274 800.797 148.755 797.767 149.508C796.081 149.924 794.074 149.933 792.49 149.309L792.425 149.465C786.292 151.283 778.059 156.625 773.795 161.612C771.778 163.967 770.01 166.651 767.431 168.27C761.473 172.027 753.101 168.209 749.924 161.699C746.728 155.188 747.76 147.154 750.605 140.469C751.729 137.828 753.138 135.275 753.654 132.435C754.584 127.318 752.521 122.21 751.268 117.179C750.955 115.932 750.688 114.678 750.486 113.404H750.476C740.576 117.049 731.477 121.578 723.069 126.816C682.677 151.976 658.097 193.421 635.534 231.039C632.734 235.715 629.566 240.113 626.066 244.217C626.066 244.225 626.057 244.234 626.048 244.234C625.007 245.472 623.93 246.678 622.825 247.854C615.651 256.368 605.889 270.637 601.873 278.608C597.895 286.481 595.915 295.277 592.636 303.5C589.837 310.537 585.729 317.458 579.734 321.531C585.085 320.335 590.205 317.818 595.049 314.668C594.598 316.671 594.183 318.692 593.76 320.675C591.881 329.404 589.127 338.706 582.948 344.557C585.784 343.42 588.51 341.933 591.061 340.222C594.239 338.093 597.195 335.615 600.031 332.99C600.05 340.368 604.332 347.745 606.985 354.948C608.698 359.565 609.747 364.454 610.125 369.391C616.102 369.051 622.051 369.527 627.31 370.781C628.111 368.546 629.281 366.437 630.644 364.531C631.491 363.365 632.403 362.267 633.37 361.217C641.244 371.326 652.304 378.664 664.396 381.59C668.678 382.63 673.163 383.174 676.976 385.468C679.177 386.8 680.991 388.608 682.575 390.668C684.15 387.305 685.283 383.738 685.964 380.064C690.68 386.79 697.228 392.301 703.674 397.336C710.139 402.4 716.825 407.425 721.577 414.288C730.962 427.818 731.008 447.296 723.051 461.808C717.304 471.392 708.242 487.022 702.33 501.572C713.593 497.869 724.626 493.359 733.863 485.748C752.521 470.4 761.261 444.662 779.062 428.381C781.107 433.057 782.231 438.198 782.277 443.34C787.065 437.849 790.261 430.743 791.753 423.405C793.586 414.365 793.042 404.976 791.366 395.888C795.593 401.759 798.955 408.339 801.266 415.298C801.441 406.871 800.336 398.425 797.951 390.386C795.75 382.97 792.499 375.933 790.197 368.546C788.64 363.569 787.517 358.32 787.48 353.12C793.834 359.059 798.817 366.621 801.902 374.961C801.22 357.115 797.122 339.425 791.477 322.532C786.089 306.397 779.293 290.845 772.579 275.293C766.648 261.549 758.71 247.241 761.537 231.551C763.701 219.55 772.155 209.049 783.032 204.849C783.419 204.702 783.796 204.563 784.183 204.434V204.425C790.528 201.135 794.111 199.941 798.246 192.988C801.22 187.975 803.237 182.425 805.365 176.936C803.725 177.759 802.058 178.374 799.765 179.239C797.933 179.923 795.86 180.339 793.991 180.01Z" fill="#EA9432"/>
<path fill-rule="evenodd" clip-rule="evenodd" d="M819.158 55.1876C819.977 57.6895 820.788 60.1924 821.589 62.6943C827.409 66.5122 833.994 68.6078 840.827 70.1922C835.956 59.4993 831.415 48.547 829.905 36.8325C829.343 32.4518 829.214 28.0195 828.597 23.6465C827.916 18.807 826.654 14.0802 825.162 9.4477C824.932 8.7294 824.693 8.0111 824.407 7.30933C822.169 8.16662 820.502 10.5908 819.941 13.1277C819.268 16.1923 819.848 19.3873 820.346 22.4957C822.418 35.638 820.585 42.7034 819.158 55.1876Z" fill="#F0E4CF"/>
<path fill-rule="evenodd" clip-rule="evenodd" d="M883.017 225.047C877.924 227.351 874.931 235.186 878.919 239.238C883.118 243.506 889.878 240.156 895.321 237.94C902.587 234.978 913.196 233.507 922.912 233.23C914.974 231.074 907.164 228.311 899.29 225.871C893.967 224.225 888.119 222.745 883.017 225.047Z" fill="#4E4139"/>
<path fill-rule="evenodd" clip-rule="evenodd" d="M877.463 141.032C880.714 143.033 884.094 144.842 887.704 145.95C888.395 146.158 889.086 146.339 889.795 146.487C887.796 144.79 886.406 142.271 886.01 139.491C885.614 136.694 886.24 133.691 887.667 131.188C883.928 134.037 880.493 137.352 877.463 141.032Z" fill="#473126"/>
<path fill-rule="evenodd" clip-rule="evenodd" d="M891.831 128.279C890.588 130.071 889.98 132.375 890.22 134.469C890.496 136.893 893.268 143.691 900.58 140.348C900.24 135.188 897.891 130.149 894.033 126.946C893.287 127.37 892.559 127.82 891.831 128.279Z" fill="#21211F"/>
<path fill-rule="evenodd" clip-rule="evenodd" d="M891.831 128.278C890.403 129.179 889.013 130.148 887.668 131.187C886.24 133.69 885.614 136.693 886.01 139.49C886.406 142.27 887.797 144.789 889.795 146.486C893.221 147.222 896.813 147.222 900.11 146.088C900.561 144.217 900.718 142.278 900.58 140.347C893.267 143.69 890.495 136.893 890.219 134.468C889.98 132.374 890.587 130.07 891.831 128.278Z" fill="#793623"/>
<path fill-rule="evenodd" clip-rule="evenodd" d="M900.11 146.088C896.813 147.223 893.222 147.223 889.796 146.487C889.087 146.339 888.396 146.158 887.705 145.95C884.095 144.841 880.715 143.033 877.464 141.032C880.494 137.352 883.929 134.037 887.668 131.188C889.013 130.149 890.404 129.18 891.831 128.279C892.559 127.82 893.286 127.37 894.032 126.946C897.891 130.149 900.239 135.188 900.58 140.348C900.718 142.279 900.562 144.218 900.11 146.088ZM840.829 70.1936C833.996 68.6093 827.411 66.5137 821.591 62.6957C820.79 60.1938 819.979 57.6909 819.159 55.189C818.082 51.856 817.004 48.5221 815.927 45.1804C816.222 50.7305 815.365 56.6003 815.144 62.2107C814.877 68.8338 815.586 75.5007 817.226 81.8983C818.331 86.2013 819.602 91.5696 816.415 94.505C815.632 95.2321 814.638 95.7171 814.039 96.6084C813.127 97.9595 813.404 99.6818 813.938 101.319C813.938 101.327 813.947 101.336 813.947 101.344C814.122 101.864 814.315 102.383 814.509 102.868C820.053 116.765 820.725 132.756 816.378 147.119C816.249 147.569 816.093 148.036 815.909 148.486C813.855 153.95 808.652 160.079 803.494 163.551C803.752 163.517 804.001 163.473 804.259 163.422C806.395 162.98 808.458 162.209 810.484 161.353C807.215 166.14 800.529 178.348 793.99 180.01C795.86 180.339 797.932 179.923 799.764 179.239C802.058 178.374 803.725 177.759 805.364 176.937C803.236 182.425 801.22 187.975 798.245 192.988C794.11 199.941 790.527 201.135 784.182 204.425V204.434C790.988 202.079 798.309 201.906 805.41 200.763C812.925 199.56 820.753 196.91 825.45 190.616C833.029 180.442 829.686 164.841 836.289 153.941C836.897 152.937 837.634 151.941 838.693 151.535C839.761 151.11 840.958 151.362 842.036 151.75C855.039 156.461 856.955 177.473 869.774 182.702C875.383 184.98 881.664 183.577 887.622 184.365C899.926 185.993 909.937 196.832 922.305 197.889C924.874 198.105 927.564 197.862 929.884 196.65C933.458 194.789 935.705 190.885 937.003 186.901C940.521 176.088 936.607 159.975 934.001 148.426C926.615 146.747 919.109 144.799 913.519 139.569C906.953 133.43 904.347 124.019 901.28 115.353C896.648 102.296 889.879 89.3622 878.754 81.838C867.656 74.3401 853.796 73.197 840.829 70.1936Z" fill="#EEA03B"/>
<path fill-rule="evenodd" clip-rule="evenodd" d="M984.026 179.775C983.658 180.252 983.428 180.848 983.557 181.471C984.017 183.68 987.682 183.636 989.957 184.779C993.871 186.745 993.19 192.147 995.805 195.204C996.726 191.896 997.84 187.93 998.688 184.139C996.901 182.113 994.958 180.13 992.435 178.936C989.534 177.55 985.656 177.585 984.026 179.775Z" fill="#21211F"/>
<path fill-rule="evenodd" clip-rule="evenodd" d="M995.555 195.905L995.601 195.914C995.666 195.679 995.739 195.446 995.804 195.204C993.188 192.147 993.87 186.745 989.956 184.779C987.681 183.636 984.016 183.68 983.555 181.472C983.426 180.849 983.657 180.252 984.025 179.776C985.655 177.585 989.532 177.55 992.433 178.936C994.956 180.13 996.9 182.113 998.686 184.139C999.976 178.373 1000.65 172.978 999.119 170.814C998.327 169.706 997.158 169.1 996.016 168.537C993.704 167.403 991.098 166.364 988.538 166.07C985.904 165.759 983.279 166.243 981.069 168.208C978.518 170.477 977.173 174.321 977.081 177.948C976.989 181.584 978.011 185.03 979.365 188.156C981.216 192.415 989.053 205.896 995.021 199.117C995.233 198.052 995.417 196.988 995.555 195.905Z" fill="#46413C"/>
</g>
<defs>
<clipPath id="clip0_1276_8368">
<rect width="1000" height="700" fill="white"/>
</clipPath>
</defs>
</svg>
