<svg width="235" height="620" viewBox="0 0 235 620" fill="none" xmlns="http://www.w3.org/2000/svg">
<g clip-path="url(#clip0_1922_684)">
<path d="M228.51 120.342C225.827 118.862 217.7 113.619 219.413 99.4022C220.049 94.1386 216.344 92.4805 213.073 91.0148C208.614 89.0161 204.762 87.2899 208.489 77.8365C213.154 66.0175 209.813 56.1471 199.778 52.074C192 48.9203 183.604 42.2648 176.476 33.8108C173.669 28.8919 167.951 29.0712 166.357 25.5534C123.58 19.7033 57.0665 37.2987 35.9231 47.0475L34.452 40.4941C33.7317 50.9781 23.6559 62.4211 18.4625 69.6659C12.1714 78.4418 9.74032 87.4483 14.6554 96.532C16.6017 100.135 18.1346 103.354 17.1442 106.248C16.3064 108.697 13.6146 110.912 8.91481 113.013C4.26184 115.093 1.49271 117.576 0.459476 120.603C-1.00352 124.872 1.31689 129.163 3.35962 132.947C4.80018 135.616 4.87421 139.781 4.25985 141.962C1.99375 150.01 -0.604898 153.052 1.15675 158.531C0.392326 152.664 3.54565 149.372 5.64136 142.644C6.4234 140.132 6.62641 136.095 3.94144 131.161C2.03382 127.655 0.674074 124.734 1.91775 121.096C2.80773 118.493 5.30261 116.307 9.54899 114.41C14.7288 112.092 17.6065 109.655 18.6051 106.739C18.9819 105.636 18.99 104.507 18.861 103.365C21.734 108.758 21.9933 113.303 12.1925 118.41C-5.82276 127.797 13.0601 139.141 10.6766 144.78C6.58566 154.46 5.3474 156.364 6.58091 163.634C7.99429 171.964 16.8794 180.213 22.9526 181.503C22.9451 180.18 13.8475 169.201 18.1115 156.138C19.6844 163.077 29.4127 181.933 31.1947 182.816C57.7352 195.976 156.554 182.149 188.92 164.56C195.104 161.2 190.286 158.649 191.788 154.633C192.876 151.726 195.459 162.553 197.893 160.588C228.357 136 221.897 124.306 218.347 124.153C213.408 123.941 210.309 124.536 214.202 102.014C216.091 91.0912 196.348 97.9587 203.326 80.2611C207.509 69.6521 204.793 61.0243 195.04 55.489C191.622 53.5487 188.415 50.4555 185.438 46.9036C189.992 49.9155 194.579 52.393 198.882 54.1387C208.19 57.9137 211.441 66.16 207.056 77.2756C202.792 88.0891 208.14 90.486 212.438 92.4117C215.76 93.9009 218.419 95.0796 217.886 99.2201C215.843 115.086 226.972 119.964 228.51 120.342ZM15.0919 93.7738C11.9134 86.2607 13.6704 79.0096 19.1665 71.3422C22.2574 67.0314 27.2437 63.3079 31.0515 58.8171C26.4936 72.9579 14.5827 83.2508 15.0919 93.7738Z" fill="#858585"/>
<path d="M55.3553 370.341C53.2488 366.46 50.5726 364.061 47.669 364.129C45.0092 364.191 42.6394 366.329 40.7704 369.728C40.4425 375.022 40.2768 380.283 40.3841 385.106C40.583 394.015 48.3268 401.194 53.3451 403.436C58.7808 399.151 50.4233 392.629 49.9372 387.418C49.6012 383.808 49.5122 380.803 50.8434 376.565C51.3343 374.214 53.3913 371.67 55.3553 370.341Z" fill="#CC936E"/>
<path d="M60.1045 366.146C58.1392 362.525 55.6423 360.286 52.9329 360.349C50.4509 360.408 48.2398 362.402 46.4965 365.573C46.1897 370.513 46.0355 375.422 46.1353 379.922C46.3207 388.235 53.5466 394.933 58.2288 397.025C63.3007 393.027 55.5024 386.941 55.0489 382.079C54.7353 378.711 54.6524 375.907 55.8948 371.954C56.353 369.759 58.2722 367.385 60.1045 366.146Z" fill="#CC936E"/>
<path d="M42.1291 405.789C37.8997 402.229 31.6168 391.96 33.8034 383.334C37.2915 369.572 44.1706 354.528 50.8256 341.347C51.8676 339.283 64.4484 347.793 66.5522 350.713C72.0449 358.338 71.1557 361.783 65.9433 380.025C64.5462 384.914 63.2387 395.538 60.7968 394.505C55.972 392.463 55.6801 387.114 56.399 376.681C56.7479 371.608 48.3388 375.663 46.1352 379.922C43.7238 383.625 43.7645 385.86 43.125 389.427C42.2017 394.575 48.501 403.187 42.1291 405.789Z" fill="#EEBF9E"/>
<path d="M68.5715 306.78C62.8785 316.647 54.0302 335.062 49.2781 344.462C50.7003 353.011 60.4143 361.063 65.8683 360.471C75.247 348.121 83.6236 331.725 90.2792 317.799C83.3446 312.619 76.4308 309.396 68.5715 306.78Z" fill="#EEBF9E"/>
<path d="M46.3866 341.938C56.0795 348.843 68.6815 352.225 76.9698 354.979C108.837 288.274 108.258 266.288 102.535 204.417C91.5817 177.931 66.2185 188.024 66.9537 216.558C68.4248 273.652 68.7412 289.733 46.3866 341.938Z" fill="#703EA5"/>
<path d="M104.163 324.213C93.6686 384.226 81.4605 431.263 80.6852 456.253C80.0932 475.364 91.5146 533.04 98.6149 577.653C103.019 577.73 113.567 577.214 125.618 575.698C119.843 527.669 117.452 489.865 119.749 461.9C121.447 441.223 129.861 422.722 138.52 401.381C145.641 383.83 162.43 377.224 158.331 406.304C154.985 430.047 151.09 450.274 152.321 463.854C155.433 498.167 162.978 531.127 169.816 575.046C176.374 574.888 190.231 574.467 197.183 570.268C192.026 521.025 187.325 489.263 189.034 464.44C192.561 413.237 225.147 367.227 223.947 310.851C195.764 313.518 120.441 327.148 104.163 324.213Z" fill="#EEBF9E"/>
<path d="M196.524 318.607C183.28 318.607 172.545 330.611 172.545 345.418C172.545 360.224 183.28 372.23 196.524 372.23C202.857 372.23 198.43 318.607 196.524 318.607Z" fill="#202B31"/>
<path d="M191.101 490.705C154.47 514.448 89.0299 503.132 81.561 498.041C74.9861 456.971 70.7838 430.91 91.0095 339.483C103.716 323.417 152.567 315.909 193.576 337.743C237.703 371.493 190.394 432.647 191.101 490.705Z" fill="#E6982C"/>
<path d="M205.235 339.624C162.038 366.011 103.458 359.597 95.9881 354.621C95.9881 354.621 91.1396 300.931 87.9971 258.409C85.6435 226.551 89.099 197.75 88.2538 189.479C98.5353 175.969 135.853 169.604 177.673 178.671C194.637 246.121 203.799 316.349 205.235 339.624Z" fill="#E6982C"/>
<path opacity="0.19" d="M80.1565 348.225C82.2277 343.847 90.5439 324.443 95.245 316.185C96.6429 309.644 83.8807 243.425 77.7885 243.425C77.6792 248.516 79.665 330.767 80.1565 348.225Z" fill="#280013"/>
<path d="M103.377 375.361C104.368 333.664 94.378 280.919 91.0828 256.021C88.8554 239.19 92.3923 227.789 94.3984 183.232C82.047 187.92 75.6398 191.329 71.8448 196.316C73.819 215.627 75.1524 234.225 77.5522 252.835C78.5732 260.754 86.632 276.58 87.0638 284.414C89.6089 330.632 81.1379 367.494 81.1379 367.494C83.605 369.138 88.7942 373.741 103.377 375.361Z" fill="#703EA5"/>
<path d="M188.088 183.051C174.938 177.942 156.531 174.474 139.798 173.352C139.159 181.446 138.63 234.303 139.507 245.162C142.532 282.614 145.593 351.901 144.277 377.637C171.623 377.802 194.048 371.97 218.372 354.543C216.936 331.269 223.69 213.601 188.088 183.051Z" fill="#703EA5"/>
<path d="M95.4851 166.632L98.874 192.176C99.6024 197.668 109.176 200.873 120.257 199.333C131.338 197.792 139.73 192.089 139.001 186.597L135.612 161.053L95.4851 166.632Z" fill="#EEBF9E"/>
<path opacity="0.27" d="M64.8737 62.5389C62.6858 62.5389 60.7958 62.4215 59.3233 62.1658C58.9859 62.1039 58.7564 61.7718 58.8236 61.4264C58.8643 61.074 59.2153 60.8391 59.5398 60.9079C69.8159 62.7051 101.199 57.2997 105.399 55.8C105.71 55.6548 106.074 55.8619 106.196 56.1941C106.304 56.5256 106.128 56.8849 105.804 57.003C102.158 58.3019 78.1613 62.5389 64.8737 62.5389Z" fill="#71574B"/>
<path opacity="0.27" d="M57.9326 57.1967C56.0419 57.1967 54.3135 57.1279 52.7874 56.9618C52.4765 56.934 52.2606 56.6574 52.2877 56.3467C52.3149 56.0493 52.5844 55.8388 52.8681 55.8388C68.5596 57.4142 102.792 50.3334 107.276 48.0248C107.519 47.8795 107.87 48.0039 108.018 48.2735C108.153 48.5571 108.046 48.8955 107.762 49.0338C103.076 51.4599 74.5826 57.1967 57.9326 57.1967Z" fill="#71574B"/>
<path opacity="0.18" d="M134.933 168.481C136.874 177.744 126.237 187.937 111.172 191.247C96.1076 194.556 82.3203 189.73 80.3781 180.466C78.4358 171.203 89.0737 161.01 104.139 157.7C119.203 154.391 132.991 159.217 134.933 168.481Z" fill="#280013"/>
<path d="M25.5545 133.876C30.365 148.765 45.2662 157.327 55.9028 155.132C66.54 152.94 67.7864 140.374 64.9406 125.907C62.0955 111.44 51.1541 101.455 40.5223 103.686C25.991 106.739 21.0346 119.877 25.5545 133.876Z" fill="#E2AE8B"/>
<path d="M24.089 91.8174C35.2252 150.452 71.4062 168.947 118.645 159.533C148.601 153.562 188.077 126.487 183.891 60.4384C180.867 12.7232 136.019 -7.13084 88.7772 2.27252C41.5393 11.6717 12.9528 33.1811 24.089 91.8174Z" fill="#858585"/>
<path d="M32.1297 48.1749C37.2931 125.302 40.5585 118.855 44.2448 144.414C46.4205 168.169 74.3894 186.001 97.3916 184.288C120.312 182.58 160.785 164.369 162.226 145.427C167.29 106.085 163.282 41.7383 157.012 33.2745C146.291 18.8064 137.218 10.9409 96.1751 12.9632C69.0046 14.3045 31.1195 33.0841 32.1297 48.1749Z" fill="#EEBF9E"/>
<path d="M151.143 72.9155C151.574 91.0308 143.478 117.259 162.899 116.137C180.559 115.118 183.786 82.7108 178.49 54.8343C173.197 26.9558 154.158 0.700537 121.046 9.81343C103.974 14.512 149.988 24.3038 151.143 72.9155Z" fill="#858585"/>
<path d="M195.462 119.28C190.754 137.008 174.346 147.636 162.226 145.426C150.105 143.216 148.087 128.448 150.599 111.291C153.112 94.1314 164.982 81.9684 177.092 84.2214C193.649 87.3 199.887 102.617 195.462 119.28Z" fill="#EEBF9E"/>
<path d="M179.084 122.883C177.061 131.373 168.819 135.911 164.795 134.299C160.269 132.489 159.634 127.746 160.179 119.629C160.817 110.153 164.122 104.485 170.527 105.626C177.186 106.811 181.471 112.897 179.084 122.883Z" fill="#CC936E"/>
<path d="M41.0467 80.9875C40.6971 80.9646 40.3502 80.8291 40.0637 80.5817C39.357 79.9645 39.2715 78.879 39.8743 78.1563C45.0887 71.8858 55.5874 68.8849 64.8031 70.9955C65.7067 71.2054 66.2756 72.1248 66.0726 73.0519C65.8696 73.9747 65.0028 74.5773 64.0652 74.3535C55.9955 72.4987 46.8857 75.0304 42.435 80.3857C42.0745 80.8151 41.5572 81.0209 41.0467 80.9875Z" fill="#686868"/>
<path d="M109.051 67.2198C108.491 67.208 107.95 66.9099 107.641 66.3796C107.167 65.563 107.429 64.5067 108.227 64.0216C116.349 59.0736 127.231 58.6038 134.091 62.9104C134.881 63.4066 135.131 64.4671 134.642 65.2767C134.158 66.0843 133.125 66.3379 132.333 65.8438C126.489 62.1675 117.065 62.6436 109.944 66.9786C109.665 67.1503 109.357 67.226 109.051 67.2198Z" fill="#686868"/>
<path d="M97.1338 154.135L96.9091 154.167C89.102 155.4 82.0431 154.154 78.0194 150.825C77.4783 150.374 77.3949 149.562 77.8328 149.012C78.2652 148.457 79.0622 148.377 79.6121 148.822C83.0383 151.657 89.5148 152.73 96.5174 151.623L96.7278 151.593C103.69 150.452 109.508 147.416 111.937 143.641C112.333 143.052 113.112 142.888 113.687 143.273C114.268 143.661 114.429 144.46 114.049 145.057C111.198 149.477 104.885 152.865 97.1338 154.135Z" fill="#804543"/>
<path d="M85.9186 136.401C86.2594 136.346 86.5201 136.046 86.5234 135.681C86.5431 133.091 88.2397 131.146 90.8459 130.724C93.467 130.301 95.716 131.642 96.4438 134.062C96.5612 134.449 96.9652 134.668 97.3413 134.549C97.7201 134.429 97.9319 134.018 97.8158 133.629C96.8837 130.531 93.9252 128.739 90.6218 129.272C87.3368 129.803 85.1135 132.374 85.0877 135.669C85.085 136.076 85.4033 136.407 85.7998 136.411L85.9186 136.401Z" fill="#B37F5F"/>
<path opacity="0.27" d="M64.5809 63.714C62.2435 63.8085 60.2178 63.7647 58.634 63.5549C58.2708 63.5027 58.0121 63.158 58.0698 62.7863C58.0983 62.4075 58.4642 62.1413 58.8132 62.2011C69.8699 63.6772 103.187 56.5442 107.613 54.7603C107.94 54.5914 108.338 54.7971 108.482 55.1467C108.611 55.4962 108.437 55.8881 108.096 56.0279C104.253 57.5741 78.7822 63.1393 64.5809 63.714Z" fill="#71574B"/>
<path opacity="0.27" d="M56.9431 58.3039C54.9228 58.3852 53.0722 58.3866 51.4347 58.2747C51.1014 58.2587 50.8591 57.973 50.8754 57.6395C50.8924 57.3205 51.1428 57.0807 51.4463 57.069C68.2809 58.0745 104.603 49.0298 109.299 46.3688C109.553 46.2034 109.933 46.3209 110.103 46.6023C110.259 46.8997 110.158 47.266 109.861 47.4258C104.952 50.2216 74.7377 57.5839 56.9431 58.3039Z" fill="#71574B"/>
<path d="M156.531 26.6873C157.139 18.4173 139.804 -8.64258 80.0118 3.33764C49.1041 9.53033 26.7774 19.4479 21.6858 34.5054C20.992 48.6518 54.8691 60.3026 68.5856 60.4263C63.0501 57.6014 57.7047 52.6978 53.4747 46.5975C57.4488 48.8728 62.2471 51.1439 68.0759 52.9661C122.024 69.8318 155.195 44.8602 156.531 26.6873Z" fill="#858585"/>
<path d="M130.561 133.849C114.124 136.229 98.8966 124.765 96.6197 108.292C94.3434 91.8205 105.866 76.4822 122.303 74.1014C138.741 71.7212 153.967 83.1844 156.244 99.6567C158.521 116.129 146.999 131.468 130.561 133.849ZM122.656 76.6567C107.623 78.834 97.0881 92.8608 99.1695 107.923C101.252 122.987 115.175 133.471 130.207 131.294C145.241 129.116 155.777 115.089 153.694 100.026C151.612 84.9634 137.689 74.4794 122.656 76.6567Z" fill="#920000"/>
<path d="M82.9828 121.736C82.8497 121.755 82.7112 121.753 82.5721 121.727C81.8925 121.598 81.4513 120.942 81.5844 120.262C82.1817 117.189 85.3819 114.568 89.7335 113.584C93.6424 112.702 98.831 113.179 101.709 117.164C102.115 117.723 101.989 118.508 101.428 118.917C100.868 119.323 100.088 119.203 99.6823 118.645C97.5092 115.638 93.3635 115.325 90.2719 116.032C86.9441 116.783 84.4403 118.67 84.0384 120.727C83.9332 121.268 83.4987 121.661 82.9828 121.736Z" fill="#920000"/>
<path d="M59.2181 144.182C43.2429 146.496 28.4442 135.354 26.2317 119.345C24.0192 103.337 35.2173 88.4302 51.1925 86.1167C67.1677 83.8025 81.9657 94.944 84.1782 110.952C86.3913 126.961 75.1926 141.868 59.2181 144.182ZM51.5353 88.5997C36.9253 90.7159 26.6866 104.348 28.7103 118.986C30.7333 133.626 44.2646 143.815 58.8746 141.699C73.4846 139.583 83.7234 125.951 81.7003 111.311C79.6773 96.673 66.146 86.4836 51.5353 88.5997Z" fill="#920000"/>
<path d="M71.7457 106.319C76.9255 113.284 77.3586 121.568 73.9629 125.126C68.8463 130.488 55.5906 133.38 49.7876 127.155C44.1665 121.125 45.0979 108.841 52.3917 102.761C58.7772 97.438 66.7329 99.5771 71.7457 106.319Z" fill="#F9FDFF"/>
<path d="M46.5185 107.119C51.3113 94.8398 66.5717 97.0498 71.9199 106.555C66.7435 99.5933 58.5366 98.2374 52.6324 103.155C48.9842 106.197 46.7161 111.124 46.5654 116.333C46.4452 120.486 47.773 124.976 50.1077 127.481C47.5809 125.962 42.9937 116.148 46.5185 107.119Z" fill="#67290A"/>
<path d="M70.7504 111.477C73.121 116.443 71.7307 122.57 67.6445 125.163C63.5591 127.755 58.3244 125.831 55.9537 120.865C53.5824 115.899 54.9727 109.771 59.0588 107.179C63.1449 104.586 68.3791 106.511 70.7504 111.477Z" fill="#42566A"/>
<path d="M69.9549 110.667C70.6127 112.045 70.2264 113.745 69.0933 114.464C67.9596 115.183 66.5068 114.649 65.849 113.271C65.1912 111.894 65.5775 110.194 66.7105 109.475C67.8442 108.756 69.297 109.289 69.9549 110.667Z" fill="#FDFFFD"/>
<path d="M107.895 101.864C103.997 109.944 105.686 118.074 110.366 120.64C117.418 124.508 132.812 123.884 137.591 116.359C142.22 109.071 137.979 97.4232 128.335 93.4217C119.891 89.9192 111.666 94.0444 107.895 101.864Z" fill="#F9FDFF"/>
<path d="M135.96 96.121C127.456 85.475 111.183 91.5559 107.765 102.138C111.659 94.0618 120.367 90.6295 128.172 93.8638C132.996 95.8666 136.789 100.049 138.319 105.052C139.537 109.041 139.245 113.73 137.324 116.757C139.716 114.634 142.213 103.95 135.96 96.121Z" fill="#67290A"/>
<path d="M130.836 104.212C133.444 109.148 131.767 115.311 127.091 117.979C122.414 120.647 116.508 118.808 113.9 113.873C111.292 108.937 112.969 102.773 117.645 100.105C122.322 97.4373 128.228 99.2762 130.836 104.212Z" fill="#42566A"/>
<path d="M129.948 103.414C130.671 104.783 130.206 106.493 128.908 107.233C127.611 107.973 125.972 107.463 125.248 106.094C124.525 104.724 124.99 103.014 126.288 102.274C127.585 101.534 129.224 102.044 129.948 103.414Z" fill="#FDFFFD"/>
<path d="M212.487 378.689C215.66 375.663 218.929 374.227 221.671 375.209C224.182 376.108 225.792 378.89 226.545 382.713C225.26 387.853 223.832 392.91 222.276 397.462C219.4 405.874 209.87 410.256 204.42 410.803C200.543 405.01 210.459 401.446 212.492 396.643C213.9 393.316 214.891 390.486 214.901 386.035C215.144 383.642 213.954 380.572 212.487 378.689Z" fill="#CC936E"/>
<path d="M209.235 373.198C212.196 370.375 215.246 369.034 217.804 369.951C220.146 370.79 221.648 373.385 222.351 376.953C221.153 381.749 219.82 386.467 218.368 390.715C215.685 398.564 206.792 402.652 201.708 403.163C198.09 397.757 207.342 394.432 209.239 389.95C210.553 386.846 211.477 384.205 211.488 380.052C211.714 377.82 210.604 374.955 209.235 373.198Z" fill="#CC936E"/>
<path d="M214.379 416.584C219.476 414.534 228.547 406.752 229.069 397.857C229.9 383.664 227.893 367.181 225.537 352.541C225.168 350.248 210.636 354.368 207.754 356.481C200.23 361.998 197.627 366.425 200.676 385.733C201.47 390.761 200.025 399.954 202.66 399.742C207.865 399.324 208.824 394.223 209.582 384.389C209.973 379.32 217.556 385.968 218.368 390.714C219.545 394.999 218.832 397.112 218.366 400.706C217.691 405.895 209.103 412.096 214.379 416.584Z" fill="#EEBF9E"/>
<path d="M207.197 317.715C206.126 329.122 205.735 349.64 205.323 360.215C210.151 367.342 222.283 370.421 226.978 367.517C230.359 352.262 231.158 333.778 231.42 318.277C222.995 316.594 215.398 316.675 207.197 317.715Z" fill="#EEBF9E"/>
<path opacity="0.19" d="M188.06 356.265C199.239 358.395 222.351 356.982 230.78 354.299C233.486 276.837 234.839 251.75 194.637 197.819C173.518 178.85 160.276 203.296 172.545 228.928C188.779 282.861 187.917 316.88 188.06 356.265Z" fill="#280013"/>
<path d="M200.441 352.552C211.62 354.682 223.541 355.1 232.198 354.114C239.117 276.198 234.462 243.662 194.26 189.73C173.141 170.761 154.316 194.826 166.585 220.458C200.413 266.735 204.675 299.515 200.441 352.552Z" fill="#703EA5"/>
<path d="M96.1103 592.366L130.454 590.894C130.586 586.198 129.497 574.293 129.446 567.506L92.3568 570.455C93.3941 577.66 95.6269 587.283 96.1103 592.366Z" fill="#FDF9D7"/>
<path d="M89.1415 581.471C91.7389 577.504 107.859 578.012 107.464 582.587C106.973 588.278 127.062 583.108 131.799 582.399C131.793 590.265 131.969 602.439 131.298 610.996C131.298 610.996 125.279 612.083 117.153 612.569C116.819 611.098 115.542 606.955 113.496 607.239C111.835 607.469 101.083 615.227 99.3213 615.657C73.9838 621.844 44.4685 621.96 45.1657 612.478C45.6293 606.181 80.0535 595.353 89.1415 581.471Z" fill="#B2473A"/>
<path d="M113.496 607.24C115.54 606.956 116.819 611.098 117.153 612.569C125.278 612.084 131.298 610.997 131.298 610.997C131.404 609.635 131.499 608.159 131.588 606.644C126.747 607.118 119.882 607.724 119.258 607.801C117.866 605.083 115.949 604.347 113.766 604.511C111.275 604.698 100.057 611.241 96.3283 611.815C87.3034 613.205 57.3781 618.673 45.3885 611.892C45.3166 612.087 45.1788 612.291 45.1652 612.478C44.468 621.96 73.9833 621.844 99.3208 615.657C101.082 615.227 111.834 607.47 113.496 607.24Z" fill="#6B281F"/>
<path d="M167.825 592.366L202.169 590.894C202.301 586.198 201.212 574.293 201.161 567.506L164.072 570.455C165.109 577.66 167.342 587.283 167.825 592.366Z" fill="#FDF9D7"/>
<path d="M160.856 581.471C163.453 577.504 179.574 578.012 179.179 582.587C178.687 588.278 198.776 583.108 203.513 582.399C203.507 590.265 203.683 602.439 203.012 610.996C203.012 610.996 196.993 612.083 188.867 612.569C188.533 611.098 187.256 606.955 185.21 607.239C183.549 607.469 172.797 615.227 171.035 615.657C145.698 621.844 116.183 621.96 116.88 612.478C117.343 606.181 151.768 595.353 160.856 581.471Z" fill="#B2473A"/>
<path d="M185.21 607.24C187.255 606.956 188.533 611.098 188.867 612.569C196.993 612.084 203.012 610.997 203.012 610.997C203.119 609.635 203.213 608.159 203.303 606.644C198.461 607.118 191.597 607.724 190.973 607.801C189.581 605.083 187.664 604.347 185.481 604.511C182.99 604.698 171.771 611.241 168.043 611.815C159.018 613.205 129.093 618.673 117.103 611.892C117.031 612.087 116.893 612.291 116.88 612.478C116.183 621.96 145.698 621.844 171.035 615.657C172.797 615.227 183.549 607.47 185.21 607.24Z" fill="#6B281F"/>
<path opacity="0.1" d="M140.469 277.473C140.469 282.24 128.335 276.714 116.695 276.714C105.055 276.714 98.317 282.24 98.317 277.473C98.317 272.706 105.055 266.019 116.695 266.019C128.335 266.019 140.469 272.707 140.469 277.473Z" fill="#280013"/>
</g>
<defs>
<clipPath id="clip0_1922_684">
<rect width="234.848" height="620" fill="white"/>
</clipPath>
</defs>
</svg>
