<svg width="300" height="760" viewBox="0 0 300 760" fill="none" xmlns="http://www.w3.org/2000/svg">
<g clip-path="url(#clip0_1976_6261)">
<path d="M65.9331 424.412C64.6837 426.356 47.799 413.521 48.8165 411.431C63.2883 381.715 88.0007 328.564 92.4979 319.086C107.349 327.152 112.7 331.918 110.477 343.224C107.578 357.968 83.1333 397.659 65.9331 424.412Z" fill="#EEBF9E"/>
<path d="M19.0976 423.664C13.616 423.084 17.5146 419.016 20.2997 416.24C37.7146 398.884 42.8443 398.521 57.0557 399.713C66.8359 397.566 71.3546 407.707 71.2098 413.429C70.9158 425.054 59.9759 445.724 50.3802 458.689C46.8699 463.432 40.0093 469.056 38.7261 468.069C36.2883 466.191 42.1338 460.187 45.2748 455.153C47.5497 451.506 48.8453 446.256 48.9228 444.914C47.5938 446.672 42.1126 455.367 40.8305 457.006C36.4093 462.657 27.1539 470.447 26.0588 469.624C21.9397 466.529 29.8019 460.054 34.9421 453.049C36.6048 450.783 41.2282 442.817 43.0493 439.185C41.2367 440.649 36.5326 446.256 33.0555 450.368C25.2083 459.645 19.5037 466.948 18.1619 466.169C12.9185 463.129 19.1129 455.327 27.6446 444.356C29.6807 441.738 35.0695 434.425 36.5499 432.339C35.736 432.334 31.2462 435.995 27.1231 440.699C21.1983 447.458 16.1086 456.808 13.3331 454.524C11.5188 453.031 14.375 445.309 21.2821 435.692C25.9223 429.23 32.0773 422.043 36.682 415.667C35.6806 411.481 24.9728 424.286 19.0976 423.664Z" fill="#EEBF9E"/>
<path d="M183.656 373.202C192.714 373.233 202.994 372.267 221.724 368.988C235.281 366.615 237.31 355.754 235.163 348.75C233.93 344.728 218.819 325.698 212.343 323.085C208.073 321.362 199.272 318.226 198.383 318.862C194.088 321.939 198.711 327.518 205.697 330.679C207.664 331.8 209.262 333.184 210.695 336.557C210.281 338.29 196.866 331.506 190.639 329.764C185.664 328.373 171.618 330.779 170.951 332.36C169.309 336.253 181.243 337.454 186.034 338.374C187.7 338.693 192.318 341.061 194.991 342.945C191.093 343.48 183.983 342.826 181.34 342.974C176.248 343.257 165.059 342.363 163.655 345.639C162.559 348.197 169.555 350.383 178.363 351.538C180.498 351.818 188.396 353.094 193.523 354.077C193.521 354.299 181.38 355.261 179.677 354.993C174.621 354.196 167.851 352.47 165.013 356.846C164.238 358.043 175 362.833 180.282 363.199C182.639 363.362 187.828 363.932 194.084 363.939C190.496 364.806 183.718 365.573 182.289 365.715C174.849 363.335 171.79 362.647 169.604 365.89C168.927 366.893 179.339 373.186 183.656 373.202Z" fill="#EFC09F"/>
<path d="M299.811 346.055C299.848 348.479 271.39 353.067 271.044 350.664C266.226 317.259 254.695 263.44 252.485 253.362C252.485 253.362 274.783 238.201 284.703 254.689C289.88 276.122 297.219 309.974 299.811 346.055Z" fill="#EEBF9E"/>
<path d="M214.994 364.845C212.941 364.823 213.557 342.182 215.595 341.91C244.591 338.041 289.308 332.55 298.496 331.208C300.291 349.28 299.771 353.793 290.429 358.241C278.246 364.041 243.244 365.142 214.994 364.845Z" fill="#EEBF9E"/>
<path d="M183.808 536.242C185.225 598.661 184.679 670.823 184.565 692.922C179.591 695.62 162.578 695.362 160.051 694.11C157.027 671.659 148.083 632.317 146.341 606.536C144.462 578.747 146.488 547.075 146.855 541.096C151.043 538.525 184.321 535.94 183.808 536.242Z" fill="#EEBF9E"/>
<path d="M218.361 539.229C225.832 601.188 236.758 671.901 240.008 693.744C245.285 695.663 261.844 693.428 264.152 691.81C263.938 669.144 267.15 628.879 265.203 603.114C263.104 575.341 256.614 544.317 255.402 538.458C250.918 536.546 217.814 539.007 218.361 539.229Z" fill="#EEBF9E"/>
<path d="M104.572 282.693C100.803 294.473 89.7732 320.045 82.5983 337.16C85.6713 339.643 105.357 352.656 109.616 353.177C113.86 346.286 126.058 325.427 128.114 319.93C133.608 305.243 125.906 298.313 104.572 282.693Z" fill="#E48920"/>
<path d="M156.37 751.131C159.157 755.089 170.637 760.188 174.973 759.995C178.095 759.855 184.148 759.108 190.245 749.056C193.45 743.772 187.654 716.3 184.682 700.763C182.733 690.572 158.981 688.81 157.171 702.433C154.015 726.175 153.272 746.733 156.37 751.131Z" fill="#6B281F"/>
<path d="M155.135 745.948C157.393 750.629 170.45 755.891 174.787 755.698C177.908 755.559 184.436 755.154 190.085 745.415C192.477 741.291 188.79 716.926 186.56 700.098C185.281 690.448 159.02 688.61 157.174 701.371C153.956 723.612 153.391 742.332 155.135 745.948Z" fill="#9A4636"/>
<path d="M159.379 728.219C163.966 743.007 189.508 739.355 188.379 726.834C187.938 721.936 186.419 709.783 183.695 684.086C178.533 680.835 164.431 682.347 160.423 684.944C159.237 714.6 157.68 722.741 159.379 728.219Z" fill="#EEBF9E"/>
<path d="M272.293 749.04C269.615 752.54 257.334 759.785 252.994 759.842C249.87 759.883 243.786 759.484 237.155 749.799C233.67 744.707 237.972 716.944 240.1 701.261C241.495 690.975 265.116 687.849 267.66 701.346C272.092 724.87 275.558 744.771 272.293 749.04Z" fill="#6B281F"/>
<path d="M272.256 745.414C269.575 748.693 257.289 755.485 252.949 755.542C249.824 755.582 243.286 755.553 237.118 746.154C234.507 742.174 236.872 717.635 238.19 700.705C238.945 690.995 265.065 687.651 267.598 700.286C272.013 722.308 275.525 741.414 272.256 745.414Z" fill="#9A4636"/>
<path d="M266.847 727.22C263.066 742.249 237.368 740.071 237.818 727.504C237.994 722.588 238.854 710.367 240.185 684.554C245.163 681.011 259.325 681.709 263.467 684.072C266.254 713.614 268.248 721.653 266.847 727.22Z" fill="#EEBF9E"/>
<path d="M217.185 537.293C224.863 599.23 232.997 650.698 236.411 672.524C242.441 674.365 267.035 675.107 269.707 673.449C269.791 650.753 271.897 626.326 270.036 600.552C268.029 572.769 261.027 541.799 259.721 535.949C254.601 534.104 216.561 537.079 217.185 537.293Z" fill="#263848"/>
<path d="M182.639 324.67L238.697 320.296C257.195 356.62 271.057 374.254 274.556 401.952C277.931 428.664 271.338 461.226 268.758 478.67C266.178 496.113 263.408 518.189 260.594 542.631C244.434 547.354 228.776 547.846 218.312 546.9C212.397 512.596 204.828 446.964 200.83 430.921C199.968 427.459 196.744 424.663 192.709 428.014L182.639 324.67Z" fill="#263848"/>
<path d="M200.688 320.517L145.759 321.697C127.373 364.716 120.283 381.335 118.18 409.149C117.262 421.277 121.28 443.405 125.829 465.76C130.707 489.73 138.058 516.219 143.791 544.825C160.324 548.091 175.561 546.871 185.893 544.997C188.584 510.309 189.277 448.489 191.761 432.158C192.297 428.633 196.594 423.983 200.688 429.996V320.517Z" fill="#263848"/>
<path d="M186.381 534.062C187.597 596.491 186.908 647.18 186.635 669.286C180.933 672.019 156.331 671.677 153.451 670.442C150.14 648.005 144.927 630.414 143.102 604.637C141.134 576.85 143.655 545.157 144.114 539.173C148.916 536.572 186.968 533.757 186.381 534.062Z" fill="#263848"/>
<path d="M104.186 183.147C107.253 179.107 108.329 175.67 107.909 171.273C107.673 168.796 106.405 166.667 105.063 164.409C103.066 161.054 100.803 157.243 101.274 151.31C101.643 146.639 103.685 143.495 105.484 140.716C107.341 137.864 108.941 135.396 108.646 131.74C108.432 129.089 107.592 126.511 106.715 123.778C105.034 118.595 103.132 112.718 105.859 105.771C106.995 102.883 109.376 100.671 111.676 98.5316C114.86 95.5696 117.868 92.782 118.03 88.4036C118.524 74.8292 122.63 64.4551 131.344 54.7476L132.612 56.484C124.296 65.7345 120.382 75.6156 119.917 88.5133C119.711 93.9881 116.047 97.3979 112.811 100.405C110.592 102.462 108.491 104.409 107.555 106.795C105.196 112.809 106.781 117.718 108.461 122.91C109.354 125.67 110.283 128.531 110.518 131.502C110.894 136.118 108.889 139.208 106.958 142.187C105.24 144.829 103.464 147.562 103.146 151.547C102.749 156.575 104.702 159.857 106.582 163.019C108.012 165.423 109.42 167.913 109.781 170.999C110.521 177.318 107.214 182.067 104.186 183.147Z" fill="#8D2F14"/>
<path d="M283.186 172.58C283.629 170.167 284.351 167.964 285.118 165.624C286.467 161.529 287.853 157.297 287.823 151.437C287.802 147.352 286.003 144.71 284.1 141.904C282.133 139.006 280.091 135.999 280.459 131.502C280.695 128.531 281.624 125.67 282.516 122.91C284.196 117.718 285.782 112.809 283.423 106.795C282.442 104.29 280.334 102.252 278.115 100.104C274.967 97.0504 271.709 93.8968 270.824 88.8052C270.544 87.1692 270.301 85.6882 270.08 84.3263C269.003 77.7638 268.414 74.1531 265.937 69.2538L267.529 68.0103C270.197 73.2662 270.847 77.2514 271.922 83.8607C272.143 85.2132 272.387 86.6849 272.667 88.3115C273.412 92.5809 276.39 95.4689 279.272 98.2573C281.675 100.578 283.946 102.773 285.118 105.771C287.845 112.718 285.944 118.595 284.263 123.778C283.386 126.511 282.545 129.088 282.331 131.74C282.051 135.25 283.666 137.635 285.545 140.396C287.485 143.257 289.681 146.493 289.711 151.42C289.748 157.745 288.214 162.406 286.865 166.511C286.128 168.75 285.435 170.871 285.03 173.092C284.093 178.211 286.06 182.538 287.495 184.684C284.625 183.166 282.088 178.613 283.186 172.58Z" fill="#8D2F14"/>
<path d="M278.053 173.365C278.906 166.754 285.636 160.455 284.839 151.01C284.082 142.044 274.665 138.708 277.019 131.201C279.494 123.309 282.231 117.856 279.429 107.639C277.568 100.854 269.536 97.0216 269.536 89.5146C269.536 83.7143 271.879 78.5246 269.498 71.0674C266.969 63.1491 266.086 61.6604 263.478 52.1732C244.871 52.2658 219.569 52.9379 196.184 54.1603C173.772 51.3681 153.838 36.7627 133.488 41.6434C130.798 50.8176 126.307 60.8225 123.231 68.4378C120.334 75.6077 121.283 81.5746 121.633 88.8722C122.054 97.6298 114.542 101.063 112.244 107.639C109.693 114.937 112.179 123.309 114.654 131.201C117.009 138.708 108.432 142.461 107.676 151.427C106.879 160.873 114.486 166.754 115.34 173.365C116.42 181.735 108.846 180.782 111.011 190.628C113.397 201.483 119.854 204.414 125.164 205.224C124.263 202.71 123.819 198.865 124.66 195.112C125.818 200.323 129.349 206.168 131.975 207.206C141.54 210.987 177.379 217.636 194.783 217.346C213.533 217.033 238.983 213.296 248.907 209.603C251.547 208.621 254.166 202.838 255.324 197.627C257.129 202.453 255.952 205.878 255.051 208.393C269.99 208.16 278.763 200.359 281.342 191.046C284.014 181.393 276.972 181.735 278.053 173.365Z" fill="#A83A1B"/>
<path d="M154.077 181.621C141.62 184.975 125.873 186.826 118.361 196.308C112.449 203.772 101.726 285.813 95.1547 309.291C98.455 310.9 126.371 317.696 129.124 316.923C134.95 298.239 153.595 185.236 154.077 181.621Z" fill="#E48920"/>
<path d="M262.84 193.465C257.071 188.189 241.008 185.346 227.214 182C224.653 202.247 253.568 289.832 264.214 311.247C267.339 311.668 295.635 312.886 299.054 310.882C290.14 291.429 270.213 200.208 262.84 193.465Z" fill="#E48920"/>
<path d="M260.654 359.71C253.031 345.255 247.412 332.246 241.554 320.855C238.751 315.402 244.792 279.206 246.748 274.597C250.185 266.502 256.1 257.373 255.34 242.68C254.563 227.64 247.656 199.049 244.147 185.315C234.423 183.122 210.106 175.909 196.252 172.853L196.262 171.906C195.538 172.031 194.745 172.183 193.907 172.352C193.068 172.183 192.274 172.031 191.55 171.906L191.561 172.853C177.708 175.909 153.39 183.122 143.666 185.315C140.157 199.049 133.251 227.64 132.473 242.68C131.714 257.373 137.628 266.502 141.064 274.597C143.021 279.206 145.593 313.8 144.244 320.276C141.51 333.405 133.313 347.51 128.268 361.561C137.445 368.975 165.1 382.144 193.906 382.144C222.713 382.144 251.478 367.124 260.654 359.71Z" fill="#45667D"/>
<path d="M151.219 182.777C152.787 182.408 184.698 170.752 194.547 168.912C203.59 170.601 235.329 181.95 237.762 182.516C246.319 194.473 219.978 208.913 196.276 208.913C172.741 208.913 142.581 195.708 151.219 182.777Z" fill="#EEBF9E"/>
<path d="M196.313 193.698C206.98 193.698 215.627 188.52 215.627 182.132V150.577H177V182.132C177 188.52 185.646 193.698 196.313 193.698Z" fill="#EEBF9E"/>
<path d="M269.81 379.024C261.523 385.719 247.612 393.594 224.406 394.983C222.051 366.534 215.437 294.142 220.37 272.864C225.606 250.277 227.657 217.298 226.76 178.557C241.222 182.807 245.43 184.435 253.502 186.864C257.174 201.231 261.107 225.304 261.921 241.038C262.715 256.409 256.528 265.959 252.933 274.427C250.886 279.25 248.22 315.526 249.63 322.301C252.49 336.036 264.597 365.147 269.81 379.024Z" fill="#E48920"/>
<path d="M121.724 379.024C130.011 385.719 143.922 393.594 167.128 394.982C169.483 366.534 176.097 294.142 171.164 272.864C165.928 250.277 163.877 216.314 164.774 177.574C150.312 181.824 146.108 183.183 138.036 185.612C134.365 199.979 130.427 225.304 129.614 241.038C128.819 256.409 135.006 265.959 138.601 274.427C140.647 279.249 143.314 315.526 141.904 322.301C139.044 336.036 126.938 365.146 121.724 379.024Z" fill="#E48920"/>
<path opacity="0.23" d="M168.058 142.355C165.033 150.957 174.478 162.385 189.157 167.878C203.835 173.373 218.187 170.851 221.213 162.249C224.239 153.645 214.793 142.218 200.115 136.724C185.437 131.231 171.084 133.751 168.058 142.355Z" fill="#702525"/>
<path d="M269.498 71.0676C267.111 41.8094 255.676 11.743 230.9 13.7084C229.134 4.90873 196.879 -5.8858 172.783 3.83343C129.845 21.1516 125.293 54.8777 124.621 72.1078C122.783 119.19 152.621 150.429 195.483 150.429C238.345 150.429 266.975 90.0077 269.498 71.0676Z" fill="#A83A1B"/>
<path d="M135.678 93.4441C142.504 92.6389 147.897 98.9313 150.89 109.329C154.252 121.006 150.261 127.572 147.561 129.009C142.43 131.737 132.342 126.086 128.09 115.016C124.261 105.043 127.629 94.394 135.678 93.4441Z" fill="#EEBF9E"/>
<path d="M138.947 103.906C142.369 102.216 146.731 104.864 148.691 109.822C150.651 114.781 149.466 120.172 146.044 121.864C142.623 123.555 138.261 120.906 136.3 115.947C134.341 110.989 135.526 105.597 138.947 103.906Z" fill="#CC936E"/>
<path d="M256.02 93.4441C249.194 92.6389 243.801 98.9313 240.808 109.329C237.447 121.006 241.437 127.572 244.139 129.009C249.269 131.737 259.357 126.086 263.608 115.016C267.438 105.043 264.07 94.394 256.02 93.4441Z" fill="#EEBF9E"/>
<path d="M252.752 103.906C249.33 102.216 244.968 104.864 243.008 109.822C241.048 114.781 242.234 120.172 245.655 121.864C249.076 123.555 253.438 120.906 255.398 115.947C257.358 110.989 256.173 105.597 252.752 103.906Z" fill="#CC936E"/>
<path d="M253.578 51.4421C248.682 26.2026 202.272 27.4797 195.748 27.5419C189.223 27.4797 142.812 26.2026 137.917 51.4421C132.317 80.3179 144.57 122.967 151.038 133.997C159.258 148.012 170.019 155.712 176.852 159.419C181.163 161.757 189.2 164.946 195.695 164.5L195.8 164.505C202.295 164.95 210.332 161.757 214.643 159.419C221.475 155.712 232.238 148.012 240.457 133.997C246.925 122.967 259.179 80.3179 253.578 51.4421Z" fill="#EEBF9E"/>
<path d="M195.323 118.203C194.239 118.203 193.237 118.036 192.529 117.713C192.153 117.538 191.976 117.077 192.153 116.682C192.322 116.287 192.751 116.116 193.148 116.29C194.895 117.093 198.95 116.546 199.923 115.086C200.461 114.279 200.144 113.268 199.429 111.241C199.016 110.074 198.508 108.618 198.124 106.847C198.036 106.425 198.293 106.009 198.699 105.915C199.097 105.812 199.503 106.09 199.599 106.504C199.96 108.184 200.431 109.527 200.852 110.713C201.589 112.808 202.171 114.466 201.161 115.967C200.151 117.492 197.564 118.203 195.323 118.203Z" fill="#AF725C"/>
<path d="M217.457 128.234C216.93 123.39 209.047 124.761 197.53 124.681C196.927 124.676 194.584 124.676 193.981 124.681C182.464 124.761 175.584 123.587 174.534 128.35C173.522 132.941 178.238 140.217 185.034 144.42C188.239 146.403 191.906 147.091 195.654 147.103H195.857C199.606 147.091 203.257 146.464 206.456 144.533C213.239 140.438 218.005 133.258 217.457 128.234Z" fill="#611C11"/>
<path d="M195.835 147.402H195.65C192.181 147.387 188.584 146.768 185.235 144.665L185.031 144.541L185.203 144.365C187.983 141.518 191.727 139.947 195.746 139.947C199.758 139.947 203.502 141.518 206.287 144.365L206.456 144.534L206.256 144.665C202.902 146.768 199.298 147.387 195.835 147.402Z" fill="#C46B5C"/>
<path d="M178.773 124.956C180.193 129.231 187.22 131.275 195.757 131.275C204.422 131.275 211.219 129.491 212.819 124.786C209.302 124.291 204.028 124.727 197.53 124.681C196.927 124.677 194.584 124.677 193.981 124.681C187.211 124.729 182.096 124.318 178.773 124.956Z" fill="white"/>
<path fill-rule="evenodd" clip-rule="evenodd" d="M161.676 88.8536C153.769 92.3895 151.623 102.408 156.479 107.282C159.325 110.141 163.814 110.79 168.468 110.751C175.309 110.693 181.28 107.214 182.092 103.939C182.491 102.328 182.774 99.0867 179.607 94.0208C176.001 88.254 168.626 85.7467 161.676 88.8536Z" fill="#FAFCFF"/>
<path fill-rule="evenodd" clip-rule="evenodd" d="M156.704 91.8817C154.36 91.9557 152.419 89.1534 152.192 87.0518C153.939 90.8882 162.629 87.7611 163.406 87.7611C158.425 88.8956 157.707 90.5806 156.704 91.8817Z" fill="#5E231F"/>
<path fill-rule="evenodd" clip-rule="evenodd" d="M155.173 95.011C153.33 95.8114 151.341 94.6855 151.074 92.0085C152.481 95.1613 157.551 91.2329 158.327 91.2329C157.332 92.0583 156.177 93.7098 155.173 95.011Z" fill="#5E231F"/>
<path fill-rule="evenodd" clip-rule="evenodd" d="M155.832 90.9548C150.733 96.0978 153.191 105.059 156.63 107.436C154.274 104.456 153.836 100.501 154.692 97.4325C155.59 94.2119 158.378 90.2267 164.155 88.5783C170.049 86.8964 176.809 89.1148 180.382 95.1712C175.669 85.934 163.015 83.7109 155.832 90.9548Z" fill="#5E231F"/>
<path fill-rule="evenodd" clip-rule="evenodd" d="M165.968 92.6577C162.03 94.5008 160.259 99.302 162.089 103.455C163.918 107.606 168.529 109.419 172.482 107.606C176.433 105.794 178.148 100.949 176.361 96.8103C174.561 92.6436 169.933 90.8014 165.968 92.6577Z" fill="#4B8144"/>
<path fill-rule="evenodd" clip-rule="evenodd" d="M172.601 94.9233C171.511 95.4675 170.991 96.8108 171.503 97.9429C171.942 99.0751 173.259 99.6038 174.358 99.0751C175.456 98.5464 175.968 97.1876 175.456 96.0555C174.943 94.9233 173.632 94.4094 172.601 94.9233Z" fill="white"/>
<path fill-rule="evenodd" clip-rule="evenodd" d="M229.996 88.8536C237.904 92.3895 240.05 102.408 235.194 107.282C232.348 110.141 227.858 110.79 223.205 110.751C216.364 110.693 210.392 107.214 209.581 103.939C209.182 102.328 208.898 99.0867 212.066 94.0208C215.672 88.254 223.047 85.7467 229.996 88.8536Z" fill="#FAFCFF"/>
<path fill-rule="evenodd" clip-rule="evenodd" d="M234.969 91.8817C237.313 91.9557 239.254 89.1534 239.48 87.0518C237.734 90.8882 229.043 87.7611 228.267 87.7611C233.248 88.8956 233.965 90.5806 234.969 91.8817Z" fill="#5E231F"/>
<path fill-rule="evenodd" clip-rule="evenodd" d="M236.499 95.011C238.343 95.8114 240.332 94.6855 240.598 92.0085C239.192 95.1613 234.122 91.2329 233.346 91.2329C234.34 92.0583 235.496 93.7098 236.499 95.011Z" fill="#5E231F"/>
<path fill-rule="evenodd" clip-rule="evenodd" d="M235.84 90.9548C240.94 96.0978 238.482 105.059 235.042 107.436C237.398 104.456 237.836 100.501 236.98 97.4325C236.083 94.2119 233.294 90.2267 227.518 88.5783C221.624 86.8964 214.863 89.1148 211.291 95.1712C216.003 85.934 228.658 83.7109 235.84 90.9548Z" fill="#5E231F"/>
<path fill-rule="evenodd" clip-rule="evenodd" d="M219.223 92.6577C215.284 94.5008 213.514 99.302 215.344 103.455C217.173 107.606 221.784 109.419 225.736 107.606C229.688 105.794 231.403 100.949 229.615 96.8103C227.816 92.6436 223.188 90.8014 219.223 92.6577Z" fill="#4B8144"/>
<path fill-rule="evenodd" clip-rule="evenodd" d="M225.856 94.9233C224.766 95.4675 224.246 96.8108 224.758 97.9429C225.197 99.0751 226.514 99.6038 227.613 99.0751C228.71 98.5464 229.223 97.1876 228.71 96.0555C228.197 94.9233 226.887 94.4094 225.856 94.9233Z" fill="white"/>
<path d="M142.073 113.701C135.123 101.942 129.868 67.4436 134.506 44.1212C135.179 40.7387 144.985 34.4471 150.818 32.9902C141.011 51.6376 142.02 99.167 142.073 113.701Z" fill="#A83A1B"/>
<path d="M249.29 113.701C256.241 101.942 261.495 64.5524 256.857 41.23C256.184 37.8475 246.378 34.4471 240.546 32.9902C250.352 51.6376 249.344 99.167 249.29 113.701Z" fill="#A83A1B"/>
<path d="M225.734 26.9038C227.985 27.3391 249.552 30.6375 250.209 32.0017C250.783 33.1899 249.913 80.8478 250.028 85.361C248.682 70.5298 243.034 71.4268 236.996 63.7072C232.113 57.4623 222.645 39.4223 225.734 26.9038Z" fill="#A83A1B"/>
<path d="M242.825 74.6118C240.5 71.8896 236.548 69.3434 233.221 68.5601C226.39 66.9513 218.386 67.6747 213.721 69.2772C212.225 69.7911 211.398 72.7322 211.371 73.6276C211.35 74.3315 212.795 74.6889 213.748 74.3899C219.598 72.5515 226.125 71.4201 233.216 72.7617C236.149 73.3161 240.491 75.1732 242.07 76.071C242.988 76.5935 243.656 75.5844 242.825 74.6118Z" fill="#8D2914"/>
<path d="M149.949 74.6118C152.272 71.8896 156.225 69.3434 159.552 68.5601C166.384 66.9513 174.387 67.6747 179.052 69.2772C180.548 69.7911 181.376 72.7322 181.403 73.6276C181.424 74.3315 179.978 74.6889 179.026 74.3899C173.175 72.5515 166.648 71.4201 159.558 72.7617C156.625 73.3161 152.282 75.1732 150.703 76.071C149.785 76.5935 149.118 75.5844 149.949 74.6118Z" fill="#8D2914"/>
<path opacity="0.15" d="M249.977 299.577C251.479 288.775 251.469 276.919 252.53 274.503C255.155 268.535 259.096 261.98 260.851 253.212C252.498 269.883 235.444 275.477 196.907 275.849C173.016 276.08 155.773 274.081 144.143 269.148C139.649 267.241 133.385 260.027 133.385 244.242C127.985 258.986 137.435 271.056 139.085 274.806C140.29 277.546 141.839 292.765 141.971 302.43C151.753 290.325 178.05 286.455 197.576 286.259C218.448 286.051 239.838 289.805 249.977 299.577Z" fill="#280013"/>
<path d="M270.16 674.929C264.067 677.665 242.495 678.572 236.213 676.292C234.032 675.5 232.206 658.596 234.495 659.046C238.99 659.93 263.398 659.236 270.098 657.729C271.518 657.409 271.516 674.32 270.16 674.929Z" fill="#50738B"/>
<path d="M187.256 674.929C181.163 677.665 159.591 678.572 153.308 676.292C151.127 675.5 149.301 658.596 151.591 659.046C156.085 659.93 180.494 659.236 187.194 657.729C188.615 657.409 188.612 674.32 187.256 674.929Z" fill="#50738B"/>
<path d="M239.724 38.2385C238.415 45.6249 233.945 52.6188 226.554 58.201C212.516 68.804 193.057 69.212 187.922 67.9311C201.185 61.2494 210.411 41.3796 208.317 41.2231C196.138 59.2124 177.966 65.7127 174.887 65.1669C177.668 63.1478 181.128 57.4846 179.146 57.2401C177.006 59.7809 167.089 65.7641 163.004 65.8724C165.773 64.456 172.391 52.3533 171.613 49.9721C162.616 62.5623 141.987 60.7612 138.259 95.0503C132.272 79.7636 132.081 31.855 143.01 24.052C173.793 2.07596 242.942 20.1066 239.724 38.2385Z" fill="#A83A1B"/>
<path d="M166.437 326.643C160.057 355.128 176.364 383.78 202.861 390.64C229.358 397.499 256.01 379.968 262.39 351.483C268.771 322.998 252.464 294.346 225.967 287.487C199.47 280.627 172.817 298.158 166.437 326.643Z" fill="white"/>
<path d="M228.657 346.642L206.506 352.2L195.287 332.89L210.475 316.235L229.622 324.05L228.657 346.642Z" fill="#343A3C"/>
<path d="M179.708 331.841L175.756 315.332L167.206 323.641C166.928 324.629 166.668 325.627 166.44 326.643C165.104 332.609 164.775 338.578 165.314 344.356L172.769 350.016L179.708 331.841Z" fill="#343A3C"/>
<path d="M200.69 370.486L183.198 371.588L185.615 382.146C190.653 386.04 196.456 388.981 202.862 390.639C204.311 391.015 205.759 391.304 207.204 391.535L213.32 384.61L200.69 370.486Z" fill="#343A3C"/>
<path d="M240.936 360.391L235.102 379.147L243.216 382.127C249.35 377.39 254.502 371.141 258.117 363.722L255.878 352.041L240.936 360.391Z" fill="#343A3C"/>
<path d="M243.785 315.502L257.92 328.783L261.968 324.884C259.526 315.454 254.691 306.907 248.034 300.235L240.186 298.919L243.785 315.502Z" fill="#343A3C"/>
<path d="M205.191 299.603L221.836 289.981L212.614 286.05C205.566 286.322 198.763 288.213 192.611 291.476L189.09 298.46L205.191 299.603Z" fill="#343A3C"/>
<path d="M190.68 372.999C199.068 373.03 208.587 372.089 225.932 368.896C238.485 366.585 240.364 356.008 238.376 349.187C237.234 345.27 223.241 326.739 217.245 324.194C213.291 322.516 205.141 319.462 204.317 320.082C200.34 323.078 204.621 328.511 211.09 331.589C212.911 332.681 214.392 334.028 215.718 337.314C215.335 339.001 202.912 332.394 197.146 330.698C192.54 329.344 179.533 331.686 178.915 333.227C177.395 337.018 188.446 338.187 192.882 339.083C194.425 339.393 198.701 341.7 201.176 343.534C197.567 344.055 190.983 343.418 188.536 343.562C183.82 343.838 173.459 342.967 172.159 346.157C171.144 348.649 177.623 350.778 185.778 351.902C187.756 352.175 195.069 353.417 199.817 354.375C199.815 354.591 188.573 355.528 186.995 355.267C182.314 354.491 176.044 352.81 173.416 357.072C172.699 358.237 182.665 362.902 187.556 363.258C189.738 363.417 194.543 363.972 200.337 363.979C197.014 364.823 190.737 365.57 189.414 365.709C182.525 363.39 179.692 362.72 177.668 365.878C177.041 366.855 186.682 372.984 190.68 372.999Z" fill="#EFC09F"/>
<path d="M219.224 364.957C217.329 364.936 217.897 342.751 219.779 342.485C246.542 338.694 287.816 333.314 296.297 332C297.954 349.706 297.473 354.128 288.851 358.487C277.606 364.17 245.299 365.248 219.224 364.957Z" fill="#EEBF9E"/>
</g>
<defs>
<clipPath id="clip0_1976_6261">
<rect width="300" height="760" fill="white"/>
</clipPath>
</defs>
</svg>
