<svg width="1000" height="700" viewBox="0 0 1000 700" fill="none" xmlns="http://www.w3.org/2000/svg">
<g clip-path="url(#clip0_1276_8166)">
<path d="M334.839 334.814L325.765 355.898C323.95 352.525 321.228 348.308 318.505 344.935C296.727 320.477 256.8 317.947 236.836 333.971C253.17 301.079 305.801 300.236 331.21 329.754C333.024 331.441 333.932 333.127 334.839 334.814Z" fill="#6D6A66"/>
<path d="M334.839 367.708L325.765 346.624C323.95 349.997 321.228 354.214 318.505 357.587C296.727 382.045 256.8 384.575 236.836 368.551C253.17 401.443 305.801 402.286 331.21 372.768C333.024 371.081 333.932 369.395 334.839 367.708Z" fill="#6D6A66"/>
<path d="M0 134.933L97.096 158.548L357.531 318.789L401.088 304.452L83.4844 129.873L0 134.933Z" fill="#6D6A66"/>
<path d="M406.622 303.613C406.622 303.613 258.963 199.887 262.564 188.542C262.564 188.542 256.261 173.956 246.357 165.312C246.357 165.312 182.432 91.8395 191.435 79.414C191.435 79.414 196.838 7.02191 211.243 -0.00119019C211.243 -0.00119019 213.044 74.5521 214.845 79.9545C214.845 79.9545 263.465 166.933 280.571 173.416C280.571 173.416 415.626 290.107 417.426 303.073H406.622V303.613Z" fill="#6D6A66"/>
<path d="M426.494 312.75C426.494 312.75 536.469 151.806 582.441 115.26C582.441 115.26 696.923 43.5733 698.726 33.734L600.47 122.991C600.47 122.991 534.666 185.541 534.666 205.923L440.917 320.481L426.494 312.75Z" fill="#6D6A66"/>
<path d="M487.295 309.521C487.295 309.521 588.021 161.931 682.394 140.847C682.394 140.847 816.695 74.2203 836.659 73.3769C836.659 73.3769 925.588 129.039 941.922 130.726L999.998 192.293L928.31 147.594C928.31 147.594 870.234 106.269 850.271 106.269C850.271 106.269 708.71 147.594 700.543 160.244C700.543 160.244 522.685 249.642 509.073 301.931L487.295 309.521Z" fill="#6D6A66"/>
<path d="M0 567.59L97.096 543.132L357.531 382.891L401.088 397.228L83.4844 571.807L0 567.59Z" fill="#6D6A66"/>
<path d="M406.622 396.386C406.622 396.386 258.963 500.112 262.564 511.457C262.564 511.457 256.261 526.043 246.357 534.687C246.357 534.687 182.432 608.159 191.435 620.585C191.435 620.585 196.838 692.977 211.243 700C211.243 700 213.044 625.447 214.845 620.045C214.845 620.045 263.465 533.066 280.571 526.583C280.571 526.583 415.626 409.892 417.426 396.926H406.622V396.386Z" fill="#6D6A66"/>
<path d="M426.494 387.022C426.494 387.022 536.469 543.233 582.441 578.704C582.441 578.704 696.923 648.282 698.726 657.832L600.47 571.2C600.47 571.2 534.666 510.49 534.666 490.708L440.917 379.519L426.494 387.022Z" fill="#6D6A66"/>
<path d="M487.295 392.168C487.295 392.168 588.021 539.759 682.394 560.843C682.394 560.843 816.695 627.47 836.659 628.313C836.659 628.313 925.588 572.65 941.922 570.964L999.998 509.398L928.31 554.096C928.31 554.096 870.234 595.422 850.271 595.422C850.271 595.422 708.71 554.096 700.543 541.446C700.543 541.446 522.685 452.048 509.073 399.759L487.295 392.168Z" fill="#6D6A66"/>
<path d="M496.373 351.69C496.373 313.03 453.714 281.69 401.092 281.69C348.469 281.69 305.811 313.03 305.811 351.69C305.811 390.349 348.469 421.689 401.092 421.689C453.714 421.689 496.373 390.349 496.373 351.69Z" fill="#194351"/>
<path d="M763.159 351.684C763.159 283.68 699.373 228.552 620.69 228.552C542.008 228.552 478.223 283.68 478.223 351.684C478.223 419.688 542.008 474.817 620.69 474.817C699.373 474.817 763.159 419.688 763.159 351.684Z" fill="#14343D"/>
<path opacity="0.2" d="M408.357 377.83C408.357 388.794 384.764 395.541 371.152 393.854C383.856 392.167 393.838 385.42 393.838 377.83C393.838 370.24 383.856 363.493 371.152 361.806C384.764 360.119 408.357 366.866 408.357 377.83Z" fill="white"/>
<path opacity="0.2" d="M408.357 324.705C408.357 335.668 384.764 342.416 371.152 340.729C383.856 339.042 393.838 332.295 393.838 324.705C393.838 317.114 383.856 310.368 371.152 308.681C384.764 306.994 408.357 312.897 408.357 324.705Z" fill="white"/>
<path opacity="0.3" d="M724.135 374.455C696.912 450.359 578.945 463.852 529.943 396.383C527.221 392.166 531.758 387.106 536.295 389.636C599.816 426.744 623.409 393.009 636.113 396.383C642.466 398.069 645.188 404.817 650.633 408.19C663.337 415.78 720.505 379.515 724.135 374.455Z" fill="white"/>
<path opacity="0.3" d="M724.135 328.076C696.912 252.173 578.945 238.679 529.943 306.149C527.221 310.366 531.758 315.426 536.295 312.896C599.816 275.787 623.409 309.522 636.113 306.149C642.466 304.462 645.188 297.715 650.633 294.341C663.337 286.751 720.505 323.016 724.135 328.076Z" fill="white"/>
</g>
<defs>
<clipPath id="clip0_1276_8166">
<rect width="1000" height="700" fill="white"/>
</clipPath>
</defs>
</svg>
