<svg width="1000" height="530" viewBox="0 0 1000 530" fill="none" xmlns="http://www.w3.org/2000/svg">
<g clip-path="url(#clip0_2175_714)">
<path d="M677.273 342.45C678.931 361.458 706.567 404.126 723.692 412.931C767.762 435.602 862.945 427.775 862.945 427.775C862.945 427.775 856.311 402.736 810.999 388.824C765.694 374.912 746.908 380.47 739.164 372.127C731.44 363.777 714.132 343.71 706.009 334.1C696.623 322.973 676.038 328.24 677.273 342.45Z" fill="#689C95"/>
<path d="M491.055 348.478C491.055 372.391 501.295 421.071 521.454 437.982C550.995 462.769 681.329 481.873 681.329 481.873C681.329 481.873 655.544 411.391 554.606 395.313C534.721 384.182 533.793 360.071 531.402 346.163C526.959 320.367 491.055 326.681 491.055 348.478Z" fill="#689C95"/>
<path d="M473.934 307.523C472.307 278.592 498.491 240.068 572.295 241.259C709.331 243.483 793.319 309.373 793.319 309.373C871.418 324.179 939.201 342.686 998.142 415.982C1002.17 420.998 999.221 424.783 993.355 420.796C936.255 381.928 866.263 367.863 783.002 378.964C783.002 378.964 665.121 431.9 575.233 417.461C494.602 404.511 476.184 347.61 473.934 307.523Z" fill="#72ADAA"/>
<path d="M778.581 353.426C778.581 353.426 660.696 406.366 570.816 391.931C503.475 381.109 481.849 332.673 475.238 293.645C474.098 298.378 473.68 303.064 473.934 307.526C476.184 347.613 494.603 404.514 575.233 417.463C665.121 431.903 783.002 378.966 783.002 378.966C866.264 367.865 936.255 381.931 993.355 420.798C996.199 422.731 998.35 422.83 999.361 421.856C932.563 366.384 861.002 342.433 778.581 353.426Z" fill="#A6BD59"/>
<path d="M543.553 244.223C543.553 244.223 455.143 240.888 377.785 164.264C342.512 129.32 303.898 64.5153 248.481 35.4421C167.702 -6.93993 81.551 1.22668 81.551 1.22668L71.4434 49.6896C71.4434 49.6896 182.835 39.5172 250.69 84.6725C300.579 117.876 323.756 179.972 356.794 224.237C406.508 290.864 490.512 360.825 490.512 360.825L543.553 244.223Z" fill="#72ADAA"/>
<path d="M366.732 215.345C333.69 171.084 309.3 110.779 260.635 75.7893C234.2 56.7775 165.041 32.7541 95.5595 35.0079L89.3975 50.7802C156.355 46.6926 220.04 63.6149 249.653 84.2767C298.809 118.572 323.756 179.97 356.795 224.235C406.509 290.861 490.512 360.822 490.512 360.822L496.192 348.328C478.56 333.262 409.813 273.068 366.732 215.345Z" fill="#A6BD59"/>
<path d="M78.3008 0C66.9196 0 56.7545 3.64792 49.9883 9.36978L13.6164 25.0091C11.2139 26.0323 8.97873 27.5681 7.08614 29.6005C5.18498 31.6322 3.81644 33.9705 2.94215 36.4458L0 44.815L4.77478 47.2981C6.2384 48.0546 7.79312 48.6695 9.4506 49.1044C11.1081 49.5441 12.7725 49.7882 14.4152 49.8383C55.5031 51.4071 76.7983 52.2053 78.3008 52.2329C103.219 52.7453 115.197 40.5365 115.197 26.109C115.197 11.6925 98.6802 0 78.3008 0Z" fill="#7BBBB7"/>
<path d="M0 44.8158L4.77478 47.2989C6.2384 48.0554 7.79312 48.6703 9.4506 49.1052C11.1081 49.5449 12.7725 49.789 14.4152 49.8391C55.5031 51.4079 76.7983 52.2061 78.3008 52.2337C92.7993 52.5279 103.512 49.5566 108.659 42.6535C116.592 32.0226 94.8102 29.0052 89.682 29.4253C66.9655 31.2739 0 44.8158 0 44.8158Z" fill="#B9D261"/>
<path d="M732.539 363.048C734.199 385.819 761.824 436.902 778.957 447.453C823.012 474.589 918.198 465.223 918.198 465.223C918.198 465.223 911.565 435.237 866.263 418.578C820.943 401.916 802.16 408.581 794.421 398.585C786.689 388.592 769.389 364.561 761.277 353.055C751.88 339.728 731.303 346.026 732.539 363.048Z" fill="#7BBBB7"/>
<path d="M876.812 423.024C845.641 422.275 777.079 434.162 778.957 447.452C823.012 474.589 918.198 465.223 918.198 465.223C918.198 465.223 912.61 440.045 876.812 423.024Z" fill="#AEC55D"/>
<path d="M546.315 370.267C546.315 398.893 556.565 457.193 576.704 477.431C606.252 507.119 736.587 530 736.587 530C736.587 530 710.802 445.6 609.863 426.351C589.963 413.019 589.051 384.145 586.656 367.494C582.216 336.613 546.315 344.169 546.315 370.267Z" fill="#7BBBB7"/>
<path d="M697.626 470.769C617.607 448.557 617.607 489.651 631.964 504.484C679.204 519.928 736.586 530.001 736.586 530.001C736.586 530.001 727.2 499.35 697.626 470.769Z" fill="#AEC55D"/>
<path d="M77.2518 16.0973C77.2518 11.4941 73.5413 7.76953 68.9605 7.76953C64.3952 7.76953 60.6777 11.4941 60.6777 16.0973C60.6777 20.7043 64.3952 24.4243 68.9605 24.4243C73.5413 24.4243 77.2518 20.7043 77.2518 16.0973Z" fill="#F5DB34"/>
<path d="M72.2754 16.0967C72.2754 14.2552 70.7931 12.7656 68.9604 12.7656C67.1356 12.7656 65.6416 14.2552 65.6416 16.0967C65.6416 17.9344 67.1356 19.4239 68.9604 19.4239C70.7931 19.4239 72.2754 17.9344 72.2754 16.0967Z" fill="black"/>
<path d="M75.2483 29.5811L0.551201 43.2568L0 44.8152L2.10989 45.9073L75.7582 32.4155C76.5414 32.2747 77.0615 31.5182 76.9136 30.7429C76.7726 29.9481 76.0206 29.4474 75.2483 29.5811Z" fill="#648D8D"/>
<path d="M14.2402 31.2074C14.8482 32.0859 14.1795 33.6146 12.7384 34.6261C11.3021 35.6353 9.64852 35.7378 9.02103 34.8632C8.4169 33.9737 9.09345 32.4419 10.5228 31.4327C11.9748 30.4243 13.6322 30.3218 14.2402 31.2074Z" fill="#648D8D"/>
<path d="M578.183 263.838C578.183 271.604 571.922 277.906 564.187 277.906C556.446 277.906 550.186 271.604 550.186 263.838C550.186 256.072 556.446 249.772 564.187 249.772C571.922 249.772 578.183 256.072 578.183 263.838Z" fill="#6CA29C"/>
<path d="M620.919 263.661C620.919 270.709 615.231 276.428 608.207 276.428C601.182 276.428 595.491 270.709 595.491 263.661C595.491 256.606 601.185 250.884 608.207 250.884C615.228 250.884 620.919 256.606 620.919 263.661Z" fill="#6CA29C"/>
<path d="M661.805 268.099C661.805 273.309 657.601 277.538 652.416 277.538C647.227 277.538 643.019 273.309 643.019 268.099C643.019 262.885 647.227 258.656 652.416 258.656C657.601 258.656 661.805 262.885 661.805 268.099Z" fill="#6CA29C"/>
<path d="M700.489 275.319C700.489 280.838 696.038 285.311 690.534 285.311C685.044 285.311 680.593 280.838 680.593 275.319C680.593 269.795 685.044 265.321 690.534 265.321C696.038 265.321 700.489 269.795 700.489 275.319Z" fill="#6CA29C"/>
<path d="M736.951 284.201C736.951 288.498 733.492 291.975 729.219 291.975C724.954 291.975 721.483 288.498 721.483 284.201C721.483 279.907 724.954 276.428 729.219 276.428C733.492 276.428 736.951 279.907 736.951 284.201Z" fill="#6CA29C"/>
<path d="M772.319 301.975C772.319 306.261 768.86 309.741 764.588 309.741C760.315 309.741 756.844 306.261 756.844 301.975C756.844 297.678 760.314 294.193 764.588 294.193C768.861 294.193 772.319 297.678 772.319 301.975Z" fill="#6CA29C"/>
<path d="M597.893 304.932C597.893 311.375 592.693 316.59 586.287 316.59C579.87 316.59 574.686 311.375 574.686 304.932C574.686 298.495 579.87 293.27 586.287 293.27C592.693 293.27 597.893 298.495 597.893 304.932Z" fill="#6CA29C"/>
<path d="M640.811 294.565C640.811 300.085 636.348 304.558 630.863 304.558C625.37 304.558 620.919 300.085 620.919 294.565C620.919 289.042 625.37 284.572 630.863 284.572C636.348 284.572 640.811 289.042 640.811 294.565Z" fill="#6CA29C"/>
<path d="M677.273 292.529C677.273 297.131 673.567 300.86 668.994 300.86C664.414 300.86 660.695 297.131 660.695 292.529C660.695 287.934 664.414 284.201 668.994 284.201C673.567 284.201 677.273 287.934 677.273 292.529Z" fill="#6CA29C"/>
<path d="M714.854 303.076C714.854 307.377 711.391 310.853 707.114 310.853C702.853 310.853 699.379 307.377 699.379 303.076C699.379 298.79 702.853 295.31 707.114 295.31C711.391 295.31 714.854 298.79 714.854 303.076Z" fill="#6CA29C"/>
<path d="M744.699 316.406C744.699 320.088 741.723 323.072 738.061 323.072C734.397 323.072 731.44 320.088 731.44 316.406C731.44 312.727 734.397 309.74 738.061 309.74C741.723 309.74 744.699 312.727 744.699 316.406Z" fill="#6CA29C"/>
<path d="M536.193 261.247C536.193 266.16 532.224 270.133 527.347 270.133C522.466 270.133 518.501 266.16 518.501 261.247C518.501 256.343 522.466 252.366 527.347 252.366C532.224 252.366 536.193 256.343 536.193 261.247Z" fill="#6CA29C"/>
<path d="M501.562 256.995C501.562 262.205 497.354 266.43 492.161 266.43C486.972 266.43 482.771 262.205 482.771 256.995C482.771 251.777 486.972 247.552 492.161 247.552C497.354 247.552 501.562 251.777 501.562 256.995Z" fill="#6CA29C"/>
<path d="M467.304 241.446C467.304 246.657 463.096 250.885 457.9 250.885C452.719 250.885 448.507 246.657 448.507 241.446C448.507 236.236 452.719 232.003 457.9 232.003C463.096 232.003 467.304 236.236 467.304 241.446Z" fill="#6CA29C"/>
<path d="M434.148 220.895C434.148 225.804 430.184 229.787 425.299 229.787C420.421 229.787 416.457 225.804 416.457 220.895C416.457 215.997 420.421 212.014 425.299 212.014C430.184 212.014 434.148 215.997 434.148 220.895Z" fill="#6CA29C"/>
<path d="M409.823 198.138C409.823 202.738 406.12 206.466 401.543 206.466C396.959 206.466 393.257 202.738 393.257 198.138C393.257 193.539 396.959 189.808 401.543 189.808C406.12 189.808 409.823 193.539 409.823 198.138Z" fill="#6CA29C"/>
<path d="M560.499 305.673C560.499 311.804 555.558 316.778 549.456 316.778C543.34 316.778 538.401 311.804 538.401 305.673C538.401 299.538 543.34 294.564 549.456 294.564C555.558 294.564 560.499 299.538 560.499 305.673Z" fill="#6CA29C"/>
<path d="M515.927 289.753C515.927 293.431 512.962 296.414 509.29 296.414C505.633 296.414 502.664 293.431 502.664 289.753C502.664 286.078 505.633 283.095 509.29 283.095C512.962 283.095 515.927 286.078 515.927 289.753Z" fill="#6CA29C"/>
<path d="M479.45 273.834C479.45 277.513 476.497 280.496 472.828 280.496C469.164 280.496 466.194 277.513 466.194 273.834C466.194 270.156 469.164 267.176 472.828 267.176C476.497 267.176 479.45 270.156 479.45 273.834Z" fill="#6CA29C"/>
<path d="M447.59 266.43C447.59 270.418 444.378 273.65 440.405 273.65C436.441 273.65 433.232 270.418 433.232 266.43C433.232 262.442 436.441 259.215 440.405 259.215C444.378 259.215 447.59 262.443 447.59 266.43Z" fill="#6CA29C"/>
<path d="M420.884 243.668C420.884 247.037 418.162 249.772 414.802 249.772C411.445 249.772 408.72 247.037 408.72 243.668C408.72 240.295 411.445 237.56 414.802 237.56C418.162 237.56 420.884 240.295 420.884 243.668Z" fill="#6CA29C"/>
<path d="M393.256 212.567C393.256 215.944 390.527 218.683 387.178 218.683C383.814 218.683 381.096 215.944 381.096 212.567C381.096 209.202 383.814 206.467 387.178 206.467C390.527 206.467 393.256 209.202 393.256 212.567Z" fill="#6CA29C"/>
<path d="M383.31 185.919C383.31 190.522 379.596 194.25 375.019 194.25C370.442 194.25 366.732 190.522 366.732 185.919C366.732 181.319 370.442 177.599 375.019 177.599C379.596 177.599 383.31 181.319 383.31 185.919Z" fill="#6CA29C"/>
<path d="M365.625 162.594C365.625 165.962 362.896 168.705 359.543 168.705C356.193 168.705 353.472 165.962 353.472 162.594C353.472 159.22 356.193 156.485 359.543 156.485C362.896 156.485 365.625 159.22 365.625 162.594Z" fill="#6CA29C"/>
<path d="M345.724 142.055C345.724 145.737 342.763 148.709 339.102 148.709C335.437 148.709 332.465 145.737 332.465 142.055C332.465 138.368 335.437 135.389 339.102 135.389C342.763 135.389 345.724 138.368 345.724 142.055Z" fill="#6CA29C"/>
<path d="M799.955 324.18C799.955 329.084 795.991 333.064 791.11 333.064C786.228 333.064 782.275 329.084 782.275 324.18C782.275 319.27 786.229 315.294 791.11 315.294C795.99 315.294 799.955 319.27 799.955 324.18Z" fill="#6CA29C"/>
<path d="M538.758 332.325C538.758 337.841 534.314 342.318 528.822 342.318C523.329 342.318 518.873 337.841 518.873 332.325C518.873 326.805 523.328 322.328 528.822 322.328C534.315 322.328 538.758 326.805 538.758 332.325Z" fill="#6CA29C"/>
<path d="M504.878 311.966C504.878 316.253 501.411 319.733 497.146 319.733C492.861 319.733 489.402 316.253 489.402 311.966C489.402 307.673 492.861 304.189 497.146 304.189C501.411 304.189 504.878 307.673 504.878 311.966Z" fill="#6CA29C"/>
<path d="M466.195 295.311C466.195 298.989 463.222 301.977 459.565 301.977C455.905 301.977 452.932 298.989 452.932 295.311C452.932 291.629 455.905 288.646 459.565 288.646C463.222 288.646 466.195 291.629 466.195 295.311Z" fill="#6CA29C"/>
<path d="M619.812 335.29C619.812 341.421 614.863 346.39 608.758 346.39C602.649 346.39 597.711 341.421 597.711 335.29C597.711 329.155 602.649 324.182 608.758 324.182C614.863 324.182 619.812 329.155 619.812 335.29Z" fill="#6CA29C"/>
<path d="M667.33 328.07C667.33 332.054 664.114 335.29 660.153 335.29C656.185 335.29 652.969 332.054 652.969 328.07C652.969 324.086 656.185 320.851 660.153 320.851C664.114 320.851 667.33 324.086 667.33 328.07Z" fill="#6CA29C"/>
<path d="M717.796 335.653C717.796 339.336 714.838 342.319 711.17 342.319C707.501 342.319 704.533 339.336 704.533 335.653C704.533 331.978 707.501 328.995 711.17 328.995C714.838 328.995 717.796 331.978 717.796 335.653Z" fill="#6CA29C"/>
<path d="M843.417 335.289C843.417 340.603 839.133 344.912 833.837 344.912C828.558 344.912 824.273 340.603 824.273 335.289C824.273 329.972 828.558 325.655 833.837 325.655C839.133 325.655 843.417 329.972 843.417 335.289Z" fill="#6CA29C"/>
<path d="M883.206 344.17C883.206 348.67 879.58 352.314 875.102 352.314C870.624 352.314 867.001 348.67 867.001 344.17C867.001 339.674 870.624 336.026 875.102 336.026C879.58 336.026 883.206 339.674 883.206 344.17Z" fill="#6CA29C"/>
<path d="M915.624 355.271C915.624 358.548 912.986 361.203 909.728 361.203C906.478 361.203 903.836 358.548 903.836 355.271C903.836 352.005 906.478 349.354 909.728 349.354C912.986 349.354 915.624 352.005 915.624 355.271Z" fill="#6CA29C"/>
<path d="M684.276 356.02C684.276 358.877 681.973 361.203 679.125 361.203C676.277 361.203 673.962 358.877 673.962 356.02C673.962 353.151 676.278 350.84 679.125 350.84C681.972 350.84 684.276 353.151 684.276 356.02Z" fill="#6CA29C"/>
<path d="M634.182 366.384C634.182 370.884 630.551 374.536 626.077 374.536C621.603 374.536 617.976 370.884 617.976 366.384C617.976 361.888 621.603 358.24 626.077 358.24C630.551 358.24 634.182 361.888 634.182 366.384Z" fill="#6CA29C"/>
<path d="M327.686 113.913C327.686 117.187 325.041 119.841 321.776 119.841C318.532 119.841 315.895 117.187 315.895 113.913C315.895 110.647 318.532 107.992 321.776 107.992C325.041 107.992 327.686 110.647 327.686 113.913Z" fill="#6CA29C"/>
<path d="M302.632 90.2266C302.632 93.0875 300.321 95.4141 297.47 95.4141C294.623 95.4141 292.315 93.0875 292.315 90.2266C292.315 87.3657 294.623 85.0469 297.47 85.0469C300.321 85.0469 302.632 87.3657 302.632 90.2266Z" fill="#6CA29C"/>
<path d="M282.002 69.8685C282.002 73.3412 279.2 76.156 275.738 76.156C272.286 76.156 269.477 73.3412 269.477 69.8685C269.477 66.3927 272.286 63.5771 275.738 63.5771C279.2 63.5771 282.002 66.3927 282.002 69.8685Z" fill="#6CA29C"/>
<path d="M256.005 50.3923C256.005 54.4791 252.709 57.7993 248.638 57.7993C244.566 57.7993 241.274 54.4791 241.274 50.3923C241.274 46.3055 244.567 42.9893 248.638 42.9893C252.709 42.9893 256.005 46.3047 256.005 50.3923Z" fill="#6CA29C"/>
<path d="M204.909 31.6326C204.909 35.728 201.61 39.0356 197.542 39.0356C193.467 39.0356 190.183 35.728 190.183 31.6326C190.183 27.5496 193.467 24.2295 197.542 24.2295C201.61 24.2295 204.909 27.5496 204.909 31.6326Z" fill="#6CA29C"/>
<path d="M233.337 38.9519C233.337 42.0233 230.854 44.5056 227.805 44.5056C224.76 44.5056 222.278 42.0233 222.278 38.9519C222.278 35.8806 224.76 33.3936 227.805 33.3936C230.854 33.3936 233.337 35.8806 233.337 38.9519Z" fill="#6CA29C"/>
<path d="M138.347 19.24C138.347 22.3145 135.861 24.7976 132.817 24.7976C129.775 24.7976 127.289 22.3145 127.289 19.24C127.289 16.1765 129.775 13.6855 132.817 13.6855C135.861 13.6855 138.347 16.1765 138.347 19.24Z" fill="#6CA29C"/>
<path d="M169.451 22.0593C169.451 25.1229 166.977 27.6099 163.924 27.6099C160.882 27.6099 158.393 25.1229 158.393 22.0593C158.393 18.9879 160.882 16.5049 163.924 16.5049C166.977 16.5049 169.451 18.9879 169.451 22.0593Z" fill="#6CA29C"/>
<path d="M571.186 377.852C571.186 381.741 568.05 384.884 564.187 384.884C560.321 384.884 557.188 381.741 557.188 377.852C557.188 373.967 560.321 370.819 564.187 370.819C568.05 370.819 571.186 373.967 571.186 377.852Z" fill="#6CA39C"/>
<path d="M575.234 414.691C575.234 418.163 572.429 420.986 568.981 420.986C565.521 420.986 562.712 418.163 562.712 414.691C562.712 411.215 565.521 408.399 568.981 408.399C572.429 408.399 575.234 411.215 575.234 414.691Z" fill="#6CA39C"/>
<path d="M606.362 438.008C606.362 442.508 602.732 446.157 598.258 446.157C593.788 446.157 590.157 442.508 590.157 438.008C590.157 433.512 593.788 429.86 598.258 429.86C602.732 429.86 606.362 433.512 606.362 438.008Z" fill="#6CA39C"/>
<path d="M583.337 448.556C583.337 452.238 580.38 455.225 576.704 455.225C573.044 455.225 570.078 452.238 570.078 448.556C570.078 444.881 573.044 441.901 576.704 441.901C580.38 441.901 583.337 444.881 583.337 448.556Z" fill="#6CA39C"/>
<path d="M615.756 474.471C615.756 480.094 611.224 484.652 605.625 484.652C600.033 484.652 595.491 480.094 595.491 474.471C595.491 468.856 600.033 464.291 605.625 464.291C611.224 464.291 615.756 468.856 615.756 474.471Z" fill="#6CA39C"/>
<path d="M644.673 455.225C644.673 459.515 641.214 462.995 636.941 462.995C632.676 462.995 629.213 459.515 629.213 455.225C629.213 450.932 632.676 447.452 636.941 447.452C641.214 447.452 644.673 450.932 644.673 455.225Z" fill="#6CA39C"/>
<path d="M585.279 398.029C585.279 400.944 582.923 403.304 580.022 403.304C577.13 403.304 574.776 400.944 574.776 398.029C574.776 395.114 577.13 392.754 580.022 392.754C582.923 392.754 585.279 395.114 585.279 398.029Z" fill="#6CA39C"/>
<path d="M752.982 371.658C752.982 374.267 750.888 376.379 748.288 376.379C745.691 376.379 743.589 374.267 743.589 371.658C743.589 369.045 745.691 366.933 748.288 366.933C750.888 366.933 752.982 369.045 752.982 371.658Z" fill="#6CA39C"/>
<path d="M774.54 383.041C774.54 386.41 771.807 389.152 768.45 389.152C765.105 389.152 762.375 386.41 762.375 383.041C762.375 379.668 765.105 376.929 768.45 376.929C771.807 376.929 774.54 379.668 774.54 383.041Z" fill="#6CA39C"/>
<path d="M769.557 406.082C769.557 409.302 766.957 411.911 763.756 411.911C760.554 411.911 757.955 409.302 757.955 406.082C757.955 402.862 760.555 400.249 763.756 400.249C766.956 400.249 769.557 402.862 769.557 406.082Z" fill="#6CA39C"/>
<path d="M798.302 411.637C798.302 415.778 794.954 419.128 790.84 419.128C786.716 419.128 783.378 415.778 783.378 411.637C783.378 407.496 786.716 404.142 790.84 404.142C794.954 404.142 798.302 407.496 798.302 411.637Z" fill="#6CA39C"/>
<path d="M782.815 430.514C782.815 432.504 781.215 434.124 779.23 434.124C777.25 434.124 775.63 432.504 775.63 430.514C775.63 428.517 777.25 426.904 779.23 426.904C781.215 426.904 782.815 428.517 782.815 430.514Z" fill="#6CA39C"/>
<path d="M823.707 420.247C823.707 423.307 821.232 425.798 818.18 425.798C815.135 425.798 812.661 423.307 812.661 420.247C812.661 417.176 815.135 414.689 818.18 414.689C821.232 414.689 823.707 417.176 823.707 420.247Z" fill="#6CA39C"/>
</g>
<defs>
<clipPath id="clip0_2175_714">
<rect width="1000" height="530" fill="white"/>
</clipPath>
</defs>
</svg>
