<svg width="1000" height="750" viewBox="0 0 1000 750" fill="none" xmlns="http://www.w3.org/2000/svg">
<path d="M986.564 333.501C986.324 333.03 986.059 332.57 985.769 332.125C983.796 325.971 982.273 319.697 981.21 313.349C980.934 310.525 980.616 307.311 980.265 303.75C979.751 300.211 979.198 296.324 978.597 292.165C978.14 287.971 977.064 283.606 976.246 278.956C975.464 274.285 974.135 269.515 972.923 264.527C970.232 254.099 966.882 243.831 962.89 233.777C961.813 231.198 960.636 228.654 959.508 226.074C958.341 223.517 957.297 220.877 955.936 218.412C953.321 213.414 950.837 208.345 947.82 203.645C942.35 194.457 936.079 185.711 929.07 177.497C927.388 175.599 925.648 173.809 923.988 172.023C922.28 170.283 920.765 168.431 918.995 166.92C917.273 165.357 915.584 163.839 913.975 162.371C913.159 161.632 912.356 160.916 911.566 160.208C910.752 159.529 909.913 158.923 909.111 158.294C907.481 157.058 905.92 155.873 904.43 154.741C903.036 153.636 901.568 152.618 900.035 151.691C897.149 149.9 894.577 148.347 892.37 147.078C889.628 145.512 886.642 144.358 883.521 143.657C881.86 143.665 880.449 145.692 879.444 147.717C878.809 149.026 878.269 150.373 877.828 151.75C877.165 153.039 876.595 154.368 876.124 155.729C875.224 157.583 875.077 159.681 875.71 161.629C877.68 163.433 879.939 164.934 882.405 166.08C884.209 167.278 886.346 168.634 888.796 170.112C890.107 170.886 891.368 171.733 892.571 172.649C893.885 173.571 895.247 174.536 896.679 175.544C897.384 176.056 898.138 176.536 898.857 177.087C899.569 177.666 900.284 178.26 901.024 178.861C902.498 180.053 904.021 181.284 905.594 182.553C907.213 183.754 908.628 185.315 910.228 186.727C911.799 188.197 913.443 189.654 915.054 191.221C921.881 198.122 928.128 205.51 933.739 213.318C936.858 217.346 939.52 221.793 942.34 226.175C943.8 228.333 944.963 230.684 946.256 232.955C947.513 235.249 948.82 237.514 950.031 239.825C954.615 248.943 958.586 258.322 961.918 267.908C963.444 272.531 965.077 276.982 966.122 281.381C967.221 285.763 968.563 289.885 969.226 293.875C970.006 297.851 970.729 301.557 971.391 304.943C971.798 308.368 972.179 311.468 972.512 314.184C972.828 320.265 972.535 326.36 971.635 332.389C971.212 333.196 970.862 334.035 970.589 334.898C968.53 343.576 967.794 352.485 968.403 361.358C968.923 371.955 971.204 382.692 975.229 387.813C972.152 381.043 970.856 373.675 971.452 366.335C971.966 361.325 973.466 359.469 974.088 363.673C975.095 370.564 976.642 377.377 978.716 384.055C980.865 392.146 984.851 399.706 990.402 406.214C985.814 398.321 983.015 389.621 982.181 380.661C981.428 373.547 982.257 370.014 984.109 375.874C986.075 381.67 988.141 387.768 990.23 393.93C991.226 396.998 992.187 400.103 993.129 403.168L994.484 407.754C994.717 408.498 994.925 409.268 995.182 409.986C995.304 410.363 995.423 410.722 995.555 411.054C995.655 411.388 995.856 411.797 995.864 411.922C995.67 408.994 995.471 406.01 995.263 402.998C995.062 399.847 994.752 396.657 994.404 393.435C993.658 387.04 992.623 380.626 991.5 374.78C989.26 363.087 986.723 353.603 986.534 351.049C986.655 350.873 986.771 350.68 986.887 350.492C987.594 351.351 988.195 352.283 988.679 353.27C996.945 367.899 996.382 380.161 996.461 394.291C999.85 382.897 1000.08 370.879 997.139 359.377C994.598 350.425 991.053 341.751 986.564 333.501Z" fill="#745D45"/>
<path opacity="0.1" d="M993.211 354.077C990.418 347.5 987.082 341.139 983.232 335.051C979.12 327.699 976.443 319.715 975.329 311.477C974.968 308.985 974.389 304.473 973.004 298.55C972.326 295.586 971.747 292.222 970.782 288.613C969.809 285.016 968.738 281.114 967.604 276.966C966.311 272.866 964.801 268.565 963.338 264.066C961.697 259.622 959.798 255.078 957.963 250.38C955.806 245.823 953.774 241.06 951.374 236.42C948.856 231.846 946.575 227.058 943.691 222.625L939.57 215.871C938.076 213.717 936.568 211.562 935.089 209.414L932.874 206.201L930.503 203.162C928.919 201.14 927.346 199.132 925.808 197.147C919.819 189.953 913.28 183.178 906.243 176.877C904.638 175.443 903.089 174.045 901.568 172.692C899.977 171.443 898.428 170.235 896.95 169.066C895.447 167.926 894.093 166.657 892.654 165.7C891.236 164.695 889.883 163.735 888.596 162.823C887.316 161.874 886.119 160.985 884.988 160.149C883.804 159.398 882.71 158.668 881.715 157.975C880.011 156.815 878.392 155.55 876.866 154.188C875.898 156.564 874.818 160.041 875.869 161.63C877.84 163.433 880.099 164.935 882.564 166.081C884.368 167.278 886.506 168.634 888.955 170.112C890.267 170.886 891.527 171.733 892.73 172.649C894.045 173.571 895.406 174.536 896.839 175.544C897.544 176.056 898.297 176.536 899.016 177.087C899.728 177.666 900.444 178.26 901.183 178.861C902.658 180.054 904.181 181.284 905.753 182.553C907.373 183.754 908.787 185.315 910.392 186.728C911.958 188.197 913.603 189.654 915.213 191.221C922.042 198.124 928.293 205.511 933.912 213.318C937.018 217.346 939.678 221.794 942.5 226.175C943.96 228.334 945.122 230.684 946.415 232.955C947.672 235.249 948.98 237.514 950.19 239.825C954.775 248.942 958.746 258.321 962.079 267.906C963.605 272.529 965.238 276.98 966.283 281.379C967.382 285.761 968.724 289.884 969.387 293.873C970.167 297.849 970.89 301.555 971.552 304.941C971.959 308.367 972.339 311.466 972.673 314.182C972.989 320.263 972.695 326.358 971.796 332.387C971.372 333.194 971.023 334.034 970.75 334.896C968.691 343.574 967.955 352.483 968.564 361.356C969.084 371.953 971.365 382.69 975.383 387.812C972.312 381.04 971.017 373.675 971.609 366.336C972.127 361.323 973.627 359.466 974.256 363.671C975.365 371.303 977.144 378.836 979.576 386.193C978.398 380.395 978.222 374.457 979.054 368.607C979.307 366.78 979.849 364.998 980.661 363.321C980.661 363.321 982.133 365.551 984.104 369.416C986.753 374.521 989.01 379.798 990.86 385.205C988.944 364.604 984.159 350.193 984.988 349.011C985.916 347.824 987.642 348.299 993.211 354.077Z" fill="black"/>
<path opacity="0.1" d="M985.767 332.123C983.794 325.969 982.271 319.696 981.207 313.347C980.953 310.745 980.656 307.811 980.338 304.581C979.943 301.363 979.383 297.869 978.873 294.109C978.589 292.232 978.367 290.286 978.035 288.3C977.662 286.319 977.26 284.282 976.868 282.201C976.057 278.03 975.298 273.626 974.079 269.175C969.499 249.676 962.436 230.766 953.042 212.854C950.775 208.172 947.891 203.875 945.305 199.483C942.642 195.135 939.586 191.128 936.813 187.069C933.714 183.26 930.79 179.438 927.706 175.986C926.123 174.293 924.557 172.636 923.038 171.011C921.583 169.399 920.039 167.859 918.413 166.398C916.834 164.968 915.294 163.573 913.813 162.223C912.399 160.887 910.903 159.63 909.332 158.459C906.311 156.198 903.584 153.985 900.915 152.241C898.203 150.55 895.757 149.055 893.609 147.797C891.784 146.734 889.874 145.808 887.894 145.027C891.151 147.167 895.023 150.385 899.788 154.033C905.219 158.527 910.387 163.294 915.27 168.314C929.178 182.72 940.723 198.994 949.523 216.598C952.834 222.708 955.345 228.997 957.96 234.96C959.08 238.019 960.187 241.029 961.279 243.991C961.818 245.467 962.355 246.931 962.889 248.382C963.325 249.861 963.775 251.329 964.22 252.782C965.11 255.67 965.983 258.507 966.839 261.293C967.556 264.107 968.271 266.867 968.955 269.566C970.476 274.918 971.45 280.139 972.56 285.05C973.783 289.937 974.452 294.651 975.413 299.028C975.827 301.222 976.396 303.329 976.756 305.391C977.117 307.454 977.517 309.431 977.932 311.33C979.162 317.797 981.161 324.114 983.893 330.162C991.22 343.703 996.35 358.198 999.113 373.165C998.547 356.996 991.547 343.404 986.561 333.499C986.322 333.028 986.057 332.568 985.767 332.123Z" fill="white"/>
<path d="M690.847 331.122C755.069 240.795 797.075 110.446 825.778 151.329C853.144 190.301 852.556 236.942 842.958 292.383C833.359 347.824 822.052 373.632 824.155 418.414C826.249 463.199 798.111 482.973 806.036 523.549C817.541 582.542 817.778 600.876 804.121 673.601H711.116C715.407 662.069 718.71 650.233 720.991 638.207C722.526 632.33 724.07 625.544 725.542 617.666C730.887 589.205 725.065 591.127 725.119 558.573C725.174 526.019 731.543 512.349 701.089 487.301C670.653 462.252 671.726 469.653 659.277 452.004C646.838 434.358 602.987 450.955 568.46 440.945C533.934 430.936 626.619 421.455 690.847 331.122Z" fill="#745D45"/>
<path d="M811.681 652.55C811.681 665.109 831.011 674.361 831.011 697.125C831.011 711.549 791.62 712.313 768.184 712.313C744.754 712.313 705.358 707.376 705.358 700.547C705.358 693.717 701.126 688.781 720.711 656.138C741.566 621.401 811.681 629.018 811.681 652.55Z" fill="#745D45"/>
<path opacity="0.1" d="M818.61 702.019C818.547 699.217 822.724 698.265 818.485 684.206C814.241 670.152 802.731 660.306 804.351 646.455C804.523 644.937 804.668 643.077 804.792 640.976C806.822 642.266 808.502 643.984 809.699 645.993C810.895 648.002 811.574 650.247 811.68 652.547C811.68 664.707 829.772 673.813 830.898 695.074C827.116 702.998 818.659 704.091 818.61 702.019Z" fill="white"/>
<path opacity="0.1" d="M705.356 700.545C704.448 694.654 705.061 688.644 707.142 683.022C709.075 682.22 711.227 682.005 713.296 682.406C715.366 682.808 717.251 683.806 718.688 685.261C727.18 692.762 727.373 702.478 728.792 704.437C730.209 706.379 734.553 707.85 734.745 705.193C734.954 702.541 742.932 685.357 758.382 686.124C785.15 690.678 784.743 706.996 789.39 707.567C796.554 708.374 803.82 707.595 810.606 705.291C817.882 702.432 814.446 706.614 821.721 703.961C823.966 703.306 825.992 702.115 827.599 700.503C829.206 698.892 830.34 696.916 830.889 694.769C830.929 695.55 831.008 696.312 831.008 697.122C831.008 711.547 791.617 712.31 768.181 712.31C744.75 712.311 705.356 707.375 705.356 700.545Z" fill="black"/>
<path d="M725.126 709.181C731.301 708.236 724.765 687.827 715.969 683.223C707.172 678.619 703.106 682.901 699.046 688.941C694.994 694.976 693.302 701.014 693.97 703.081C694.654 705.147 710.257 711.462 725.126 709.181Z" fill="#AC957C"/>
<path d="M736.715 709.669C733.817 703.835 741.113 686.976 750.958 685.262C760.808 683.557 786.264 693.519 786.264 711.177C786.264 715.875 768.844 714.588 757.779 714.588C746.721 714.588 738.435 713.125 736.715 709.669Z" fill="#AC957C"/>
<path opacity="0.3" d="M707.782 682.275C711.815 681.378 714.312 694.774 709.991 706.247C708.292 706.549 706.539 706.456 704.887 705.975C703.234 705.495 701.732 704.641 700.512 703.489C698.178 701.207 697.764 701.301 695.8 701.682C693.845 702.062 699.9 684.031 707.782 682.275Z" fill="white"/>
<path opacity="0.1" d="M718.795 660.088C720.689 657.525 723.318 656.37 734.57 659.363C745.813 662.353 763.896 650.043 776.06 662.386C777.355 664.038 778.503 665.788 779.491 667.618C787.479 682.326 790.008 702.637 781.516 695.704C773.039 688.78 763.343 682.188 753.033 682.188C742.735 682.188 738.193 695.138 736.568 696.277C734.957 697.409 734.354 691.72 732.127 695.042C729.909 698.361 729.604 701.491 728.289 698.93C721.015 676.254 712.253 676.917 708.214 680.173C710.793 673.971 713.801 667.935 717.218 662.102C717.737 661.483 718.257 660.795 718.795 660.088Z" fill="white"/>
<path opacity="0.1" d="M747.83 682.564C751.822 680.378 759.496 679.813 774.191 689.199C778.181 691.578 771.827 685.695 764.343 681.613C756.876 677.527 750.505 677.601 746.578 681.222C742.629 684.839 744.809 684.219 747.83 682.564Z" fill="white"/>
<path opacity="0.1" d="M710.668 677.757C714.339 676.085 720.01 678.906 724.976 688.968C726.411 691.669 724.381 685.697 722.252 681.281C720.123 676.865 717.487 674.519 714.518 675.054C711.574 675.592 708.876 678.559 710.668 677.757Z" fill="white"/>
<path opacity="0.3" d="M752.474 685.698C749.572 685.686 743.665 689.116 739.895 698.288C736.134 707.461 739.454 708.828 741.791 710.533C744.149 712.239 749.978 709.468 755.435 710.315C760.891 711.178 768.913 713.444 772.171 710.745C775.43 708.046 771.423 685.771 752.474 685.698Z" fill="white"/>
<path opacity="0.2" d="M690.847 331.122C755.069 240.792 797.075 110.446 825.778 151.329C853.144 190.301 852.556 236.942 842.958 292.378C833.365 347.823 822.052 373.631 824.155 418.413C826.249 463.198 798.111 482.972 806.036 523.548C815.884 574.039 817.473 594.772 809.17 645.275C809.413 645.594 809.639 645.924 809.847 646.264C809.961 646.442 810.059 646.629 810.141 646.822C810.364 647.224 810.572 647.63 810.753 648.052C810.84 648.259 810.925 648.493 810.993 648.714C811.139 649.133 811.262 649.559 811.36 649.99C811.407 650.198 811.461 650.393 811.498 650.597C811.61 651.242 811.67 651.893 811.678 652.546V652.555C811.68 653.32 811.752 654.084 811.893 654.837C811.927 655.041 812.003 655.24 812.058 655.449C812.173 656.001 812.319 656.547 812.494 657.085C812.571 657.277 812.653 657.459 812.721 657.641C812.944 658.204 813.172 658.771 813.45 659.339C813.496 659.44 813.56 659.546 813.613 659.642C818.288 668.802 829.86 677.986 830.889 694.767C830.928 695.548 831.007 696.31 831.007 697.12C831.007 701.565 827.264 704.711 821.407 706.93C819.758 707.553 818.07 708.08 816.353 708.509C815.646 708.691 814.927 708.865 814.181 709.027C810.759 709.775 807.296 710.35 803.808 710.752C802.772 710.871 801.733 710.984 800.677 711.085C796.49 711.503 792.164 711.781 787.884 711.96C787.269 711.99 786.645 712.009 786.021 712.032C783.927 715.693 768.092 714.585 757.78 714.585C747.393 714.585 739.461 713.291 737.102 710.269C733.328 709.812 729.655 709.28 726.219 708.687C725.908 708.939 725.531 709.108 725.127 709.179C710.258 711.46 694.655 705.144 693.972 703.078C693.303 701.011 694.996 694.973 699.047 688.939C701.572 685.199 704.083 682.142 707.72 681.441C707.864 681.032 708.043 680.606 708.21 680.17C708.432 679.603 708.672 679.022 708.931 678.424C708.936 678.404 708.958 678.377 708.958 678.355C709.2 677.782 709.462 677.188 709.74 676.58C709.76 676.522 709.785 676.466 709.813 676.411C710.075 675.824 710.353 675.223 710.642 674.617C710.678 674.524 710.719 674.44 710.76 674.351C710.878 674.103 710.997 673.852 711.113 673.601C715.411 662.069 718.714 650.231 720.988 638.201C722.523 632.331 724.067 625.542 725.539 617.667C730.884 589.206 725.062 591.128 725.116 558.574C725.171 526.02 731.54 512.35 701.086 487.302C670.65 462.252 671.723 469.654 659.274 452.005C646.835 434.351 602.992 450.955 568.457 440.946C533.939 430.942 626.619 421.455 690.847 331.122Z" fill="black"/>
<path d="M322.944 207.737C345.826 312.984 337.483 392.118 315.059 445.63C292.634 499.142 253.241 573.723 250.219 593.644C247.185 613.577 242.336 673.892 238.698 691.826L331.352 701.532C331.352 701.532 324.904 630.976 333.452 607.062C342 583.149 361.73 555.79 388.996 525.616C416.272 495.444 427.839 484.898 431.442 466.403C435.053 447.909 456.877 375.04 481.717 334.905C506.571 294.768 468.681 223.888 425.965 194.859C383.237 165.82 317.582 183.135 322.944 207.737Z" fill="#745D45"/>
<path opacity="0.1" d="M291.832 562.531C273.037 591.183 254.662 593.644 247.459 616.617C248.468 607.144 249.4 598.954 250.214 593.644C253.236 573.724 292.632 499.143 315.054 445.631C323.842 424.056 329.825 401.563 332.875 378.641C333.025 405.667 334.297 429.568 341.117 452.178C350.814 484.342 305.566 545.26 301.52 563.479C297.489 581.691 270.817 594.79 272.433 591.372C290.624 577.328 298.091 556.455 291.832 562.531Z" fill="white"/>
<path opacity="0.1" d="M322.577 659.606C323.204 645.285 324.587 621.06 336.248 600.092C335.222 602.447 334.277 604.773 333.452 607.061C324.905 630.975 331.352 701.531 331.352 701.531L324.892 700.854C319.456 686.975 322.014 672.144 322.577 659.606Z" fill="white"/>
<path d="M329.466 671.184C329.466 683.739 348.801 692.988 348.801 715.76C348.801 730.188 309.403 730.941 285.965 730.941C262.539 730.941 223.148 726.008 223.148 719.176C223.148 712.349 218.902 707.413 238.501 674.765C259.349 640.04 329.466 647.652 329.466 671.184Z" fill="#745D45"/>
<path opacity="0.1" d="M336.39 720.652C336.336 717.862 340.513 716.902 336.266 702.845C332.035 688.79 320.513 678.952 322.123 665.095C322.303 663.579 322.45 661.71 322.575 659.606C324.605 660.897 326.286 662.616 327.482 664.627C328.678 666.637 329.357 668.883 329.464 671.183C329.464 683.347 347.552 692.448 348.677 713.708C344.891 721.643 336.429 722.731 336.39 720.652Z" fill="white"/>
<path opacity="0.3" d="M223.148 719.178C222.237 713.288 222.85 707.279 224.933 701.658C226.867 700.856 229.02 700.641 231.09 701.044C233.161 701.447 235.045 702.448 236.481 703.906C244.967 711.406 245.161 721.116 246.576 723.066C248 725.028 252.331 726.482 252.539 723.835C252.745 721.178 260.719 704.002 276.174 704.757C302.95 709.314 302.536 725.634 307.181 726.203C314.341 727.016 321.605 726.235 328.385 723.922C335.666 721.075 332.237 725.257 339.504 722.598C341.75 721.947 343.777 720.757 345.385 719.146C346.993 717.535 348.126 715.558 348.673 713.41C348.716 714.191 348.801 714.953 348.801 715.761C348.801 730.19 309.403 730.943 285.965 730.943C262.539 730.944 223.148 726.011 223.148 719.178Z" fill="black"/>
<path d="M242.908 727.809C249.084 726.866 242.549 706.465 233.754 701.857C224.965 697.243 220.899 701.537 216.839 707.579C212.787 713.614 211.091 719.655 211.77 721.717C212.441 723.785 228.048 730.099 242.908 727.809Z" fill="#AC957C"/>
<path d="M254.513 728.309C251.609 722.472 258.896 705.615 268.753 703.905C278.593 702.195 304.055 712.164 304.055 729.808C304.055 734.508 286.635 733.221 275.57 733.221C264.504 733.221 256.228 731.762 254.513 728.309Z" fill="#AC957C"/>
<path opacity="0.3" d="M225.566 700.91C229.6 700.022 232.095 713.407 227.77 724.883C226.071 725.184 224.32 725.089 222.669 724.608C221.018 724.126 219.518 723.272 218.299 722.12C215.968 719.843 215.544 719.937 213.582 720.314C211.626 720.696 217.697 702.673 225.566 700.91Z" fill="white"/>
<path opacity="0.1" d="M236.576 678.725C238.471 676.166 241.104 675.017 252.347 678.002C263.601 680.989 272.181 662.145 284.359 674.493C285.66 676.183 294.697 685.422 295.667 687.209C303.637 701.914 307.788 721.267 299.297 714.343C290.812 707.416 281.124 700.818 270.821 700.818C260.518 700.818 255.964 713.78 254.356 714.916C252.747 716.051 252.135 710.355 249.915 713.674C247.693 717.002 247.392 720.129 246.077 717.569C238.801 694.892 230.033 695.556 226.002 698.812C228.569 692.608 231.574 686.571 234.997 680.742C235.525 680.12 236.041 679.442 236.576 678.725Z" fill="white"/>
<path opacity="0.1" d="M265.618 701.202C269.611 699.018 277.288 698.45 291.982 707.846C295.972 710.218 289.602 704.327 282.134 700.25C274.657 696.168 268.287 696.242 264.357 699.859C260.418 703.483 262.583 702.858 265.618 701.202Z" fill="white"/>
<path opacity="0.1" d="M228.442 696.391C232.12 694.72 237.785 697.542 242.769 707.605C244.202 710.309 242.156 704.327 240.033 699.922C237.916 695.508 235.267 693.16 232.308 693.691C229.35 694.222 226.664 697.201 228.442 696.391Z" fill="white"/>
<path opacity="0.3" d="M270.265 704.326C267.36 704.319 261.447 707.761 257.681 716.926C253.924 726.095 257.229 727.459 259.588 729.171C261.932 730.879 267.764 728.101 273.219 728.948C278.675 729.807 286.702 732.082 289.952 729.383C293.218 726.674 289.2 704.404 270.265 704.326Z" fill="white"/>
<path opacity="0.2" d="M373.859 406.164C360.818 358.671 346.357 329.212 336.267 339.428C337.3 295.193 332.828 250.997 322.944 207.737C317.581 183.136 383.237 165.819 425.965 194.859C468.681 223.888 506.57 294.768 481.717 334.905C456.877 375.04 435.052 447.908 431.442 466.403C427.839 484.901 416.273 495.444 388.996 525.616C361.73 555.789 341.999 583.151 333.452 607.062C328.619 620.591 328.584 649.037 329.465 671.206C329.55 673.815 330.287 676.369 331.615 678.661L331.579 678.643C295.371 647.118 302.333 593.268 324.706 559.871C347.096 526.473 389.598 463.471 373.859 406.164Z" fill="black"/>
<path d="M369.404 50.5404C446.132 37.4012 467.097 44.4654 538.644 61.9223C610.203 79.3809 625.551 74.8292 668.783 65.7176C712.01 56.6119 752.009 62.3046 796.448 83.1762C840.887 104.048 845.338 91.526 893.814 148.836C942.305 206.146 949.572 232.713 952 283.95C954.421 335.188 815.478 499.142 636.869 467.266C458.249 435.385 388.996 380.16 381.126 347.712C373.237 315.261 333.846 253.925 322.944 207.739C312.042 161.552 326.164 57.9399 369.404 50.5404Z" fill="#745D45"/>
<path opacity="0.1" d="M529.529 53.6239C602.592 71.1744 618.265 66.5987 662.408 57.4392C706.548 48.2855 747.391 54.0082 792.768 74.9897C838.146 95.9712 842.691 83.3834 892.191 140.995C941.705 198.611 949.126 225.313 951.605 276.82C951.692 281.41 951.05 285.986 949.699 290.403C940.655 205.405 908.271 176.403 882.611 149.192C855.07 119.998 854.046 102.599 783.496 95.6437C712.954 88.6863 686.743 125.737 582.856 96.4567C504.792 74.4552 413.328 44.5337 338.71 51.6628C343.492 46.8428 349.786 43.5276 356.708 42.1821C435.054 28.9738 456.464 36.0751 529.529 53.6239Z" fill="white"/>
<path opacity="0.1" d="M388.919 363.621C395.571 371.041 404.596 376.245 414.651 378.457C431.62 382.255 431.484 354.352 427.906 340.403C424.346 326.462 429.196 290.022 501.916 280.919C574.644 271.81 602.57 297.753 605.175 322.734C607.112 341.389 600.094 400.853 608.577 421.344C617.064 441.829 689.505 468.697 765.936 457.955C724.535 471.672 680.015 474.885 636.869 467.27C484.912 440.148 412.121 396.134 388.919 363.621Z" fill="black"/>
<path d="M910.037 179.45C945.999 218.438 954.478 265.11 955.315 320.579C956.151 376.049 958.749 399.791 969.633 444.6C980.527 489.413 946.092 511.246 962.018 551.882C977.931 592.512 989.248 629.253 989.248 702.019H887.433C887.433 702.019 896.864 692.76 896.864 646.053C896.864 617.571 891.217 619.496 884.922 586.92C878.646 554.343 894.353 540.673 857.9 515.616C821.448 490.55 830.884 497.95 814.541 480.295C798.197 462.633 737.327 479.242 699.57 469.229C661.814 459.216 756.087 449.723 805.112 359.342C854.128 268.963 872.314 138.538 910.037 179.45Z" fill="#745D45"/>
<path opacity="0.1" d="M628.275 424.566C670.081 438.23 717.239 434.814 750.022 433.678C782.806 432.541 807.651 434.816 822.808 450.188C814.315 420.584 815.533 422.641 829.467 368.381C843.402 314.12 837.959 275.107 864.617 243.379C856.133 244.101 842.897 265.127 831.79 290.62C820.678 316.118 789.068 384.148 735.33 405.781C701.414 418.937 664.959 425.334 628.275 424.566Z" fill="black"/>
<path opacity="0.1" d="M986.66 701.719H978.398C978.846 692.913 979.074 683.091 979.463 669.091C980.394 635.157 969.268 598.344 953.523 561.907C945.62 544.328 957.017 505.064 961.273 462.891C963.619 496.823 947.049 516.362 960.401 551.667C975.747 592.274 986.66 628.994 986.66 701.719Z" fill="white"/>
<path opacity="0.1" d="M696.744 459.626C736.54 459.663 756.015 454.212 781.827 448.404C807.651 442.598 801.586 442.217 825.438 469.921C839.366 486.114 862.365 505.644 881.834 525.594C891.28 535.713 890.677 543.586 888.864 556.268C887.038 568.969 885.205 582.583 889.342 593.977C889.964 596.775 890.731 599.66 891.655 602.559C892.381 613.541 892.351 624.555 891.565 635.533C890.314 617.418 885.572 614.846 880.371 586.925C874.32 554.366 889.466 540.704 854.314 515.661C819.164 490.609 828.263 498.005 812.504 480.361C796.744 462.708 738.047 479.308 701.639 469.301C691.757 466.585 691.272 463.901 696.744 459.626Z" fill="black"/>
<path d="M978.29 680.66C978.29 693.214 997.612 702.47 997.612 725.243C997.612 739.665 958.222 740.422 934.794 740.422C911.358 740.422 871.976 735.488 871.976 728.656C871.976 721.825 867.722 716.893 887.314 684.243C908.162 649.511 978.29 657.136 978.29 680.66Z" fill="#745D45"/>
<path opacity="0.1" d="M985.212 730.134C985.158 727.339 989.335 726.381 985.089 712.327C980.842 698.273 969.335 688.424 970.955 674.577C971.125 673.061 971.277 671.192 971.381 669.091C973.416 670.377 975.101 672.095 976.301 674.104C977.501 676.114 978.182 678.36 978.29 680.661C978.29 692.825 996.38 701.928 997.51 723.189C993.71 731.121 985.268 732.206 985.212 730.134Z" fill="white"/>
<path opacity="0.3" d="M871.976 728.656C871.062 722.764 871.671 716.752 873.753 711.129C875.686 710.328 877.837 710.114 879.906 710.517C881.975 710.919 883.858 711.918 885.294 713.374C893.778 720.868 893.981 730.591 895.396 732.543C896.811 734.495 901.158 735.956 901.357 733.308C901.558 730.646 909.532 713.472 924.994 714.23C951.758 718.785 951.356 735.1 956.003 735.673C963.167 736.485 970.434 735.706 977.219 733.399C984.486 730.548 981.043 734.726 988.326 732.075C990.571 731.422 992.596 730.231 994.202 728.619C995.809 727.007 996.941 725.03 997.487 722.883C997.542 723.661 997.619 724.419 997.619 725.241C997.619 739.664 958.221 740.421 934.794 740.421C911.358 740.422 871.976 735.489 871.976 728.656Z" fill="black"/>
<path d="M894.114 737.53C900.296 736.576 893.753 716.184 884.964 711.571C876.167 706.964 872.103 711.253 868.043 717.293C863.983 723.333 862.289 729.372 862.974 731.434C863.644 733.503 879.246 739.818 894.114 737.53Z" fill="#AC957C"/>
<path d="M903.33 737.784C900.433 731.948 907.729 715.094 917.577 713.376C927.415 711.674 952.871 721.638 952.871 739.283C952.871 743.974 935.445 742.697 924.386 742.697C913.328 742.697 905.044 741.235 903.33 737.784Z" fill="#AC957C"/>
<path opacity="0.3" d="M876.768 710.633C880.793 709.739 883.303 723.127 878.974 734.597C877.276 734.904 875.523 734.813 873.871 734.332C872.219 733.851 870.718 732.996 869.501 731.841C867.172 729.564 866.748 729.657 864.785 730.041C862.828 730.412 868.893 712.392 876.768 710.633Z" fill="white"/>
<path opacity="0.1" d="M887.778 688.444C889.667 685.883 892.301 684.734 903.559 687.712C914.796 690.706 932.874 678.396 945.042 690.736C946.333 692.396 947.484 694.148 948.486 695.976C956.463 710.68 958.984 730.988 950.506 724.064C942.016 717.136 932.328 710.535 922.015 710.535C911.714 710.535 907.17 723.491 905.557 724.629C903.945 725.768 903.332 720.067 901.11 723.4C898.891 726.719 898.586 729.852 897.281 727.291C890.005 704.613 881.244 705.267 877.196 708.525C879.774 702.327 882.784 696.294 886.205 690.467C886.729 689.84 887.248 689.154 887.778 688.444Z" fill="white"/>
<path opacity="0.1" d="M914.435 710.675C918.425 708.494 926.099 707.925 940.802 717.32C944.792 719.696 938.424 713.809 930.954 709.729C923.472 705.647 917.12 705.721 913.174 709.338C909.236 712.949 911.413 712.337 914.435 710.675Z" fill="white"/>
<path opacity="0.1" d="M877.265 705.861C880.946 704.196 886.614 707.021 891.581 717.079C893.026 719.785 890.98 713.808 888.863 709.397C886.732 704.983 884.092 702.634 881.138 703.165C878.184 703.696 875.49 706.67 877.265 705.861Z" fill="white"/>
<path opacity="0.3" d="M919.088 713.806C916.186 713.799 910.277 717.229 906.509 726.399C902.74 735.57 906.051 736.933 908.397 738.637C910.754 740.346 916.577 737.573 922.034 738.435C927.495 739.281 935.524 741.555 938.783 738.853C942.031 736.149 938.023 713.873 919.088 713.806Z" fill="white"/>
<path opacity="0.1" d="M895.162 162.824C901.131 160.166 907.455 161.767 914.44 168.912C950.511 205.772 959.016 249.892 959.856 302.33C960.695 354.768 953.981 379.183 964.899 421.539C967.523 431.534 968.337 441.814 967.314 452.02C965.857 437.32 961.504 422.935 954.439 409.473C941.834 386.32 955.444 393.001 949.467 298.654C944.555 221.26 919.488 187.585 895.162 162.824Z" fill="white"/>
<path opacity="0.1" d="M279.785 252.015C325.349 254.913 343.918 172.082 346.606 124.688C347.492 108.985 371.404 117.684 402.98 136.316C402.116 198.075 382.078 243.259 347.306 252.7C319.029 260.377 301.742 254.24 279.778 252.036L279.785 252.015Z" fill="black"/>
<path d="M421.5 325.32C438.028 361.712 438.082 375.422 434.05 400.468C430.005 425.52 440.074 444.494 439.888 488.524C439.7 532.547 436.068 532.929 439.7 564.805C443.331 596.688 435.261 688.154 446.976 733.698H535.049C535.049 733.698 532.227 640.335 529.808 609.969C527.378 579.612 541.715 564.618 541.715 544.13C541.715 523.635 547.371 514.712 554.957 480.175C562.524 445.634 567.773 461.957 577.472 419.829C587.169 377.7 605.749 317.354 615.043 296.1C624.336 274.847 579.492 227.328 528.582 230.403C477.686 233.476 399.253 276.365 421.5 325.32Z" fill="#745D45"/>
<path opacity="0.1" d="M439.885 488.523C440.028 454.676 434.122 435.636 433.212 417.264C434.561 409.646 437.395 402.328 441.573 395.676C445.962 386.362 448.74 376.448 449.8 366.31C450.612 394.396 433.302 406.811 442.935 440.322C452.56 473.824 444.746 534.157 461.531 548.612C478.306 563.069 499.598 559.776 497.234 551.141C494.888 542.515 475.352 540.992 483.14 540.992C516.077 540.992 507.164 570.596 486.742 572.947C466.321 575.293 440.535 546.22 454.746 570.876C468.969 595.538 497.232 591.087 497.232 591.087C487.301 595.356 469.594 592.514 457.178 580.384C447.194 570.634 441.066 555.865 438.307 532.321C438.764 522.47 439.788 511.385 439.885 488.523Z" fill="white"/>
<path opacity="0.1" d="M529.807 609.967C531.369 629.658 533.112 675.831 534.141 705.87C529.673 697.934 525.102 690.574 526.162 681.519C527.598 658.24 527.125 634.892 524.749 611.682C522.555 597.288 528.206 590.801 532.814 580.097C530 589.819 528.983 599.922 529.807 609.967Z" fill="white"/>
<path opacity="0.1" d="M438.443 551.143C443.74 589.476 462.439 590.614 470.066 596.31C477.687 601.996 488.992 605.042 507.988 599.346C506.363 601.995 483.999 608.466 472.557 600.677C461.117 592.894 451.614 594.22 448.18 588.904C444.745 583.589 443.545 593.645 453.843 599.911C464.146 606.174 475.05 614.907 494.443 610.732C498.487 610.159 494.443 612.44 482.728 613.579C471.014 614.718 466.567 609.591 458.684 607.315C450.8 605.039 444.444 603.327 451.727 631.508C455.563 646.448 465.212 665.522 480.963 672.644C472.021 671.788 463.832 660.78 452.328 651.293C440.812 641.805 462.927 676.198 461.116 680.562C459.512 684.418 451.46 682.764 441.443 693.147C438.536 646.616 442.432 588.813 439.698 564.804C439.093 559.492 438.689 555.056 438.443 551.143Z" fill="black"/>
<path d="M533.498 687.598C533.498 700.152 552.827 709.402 552.827 732.179C552.827 746.601 513.429 747.358 490.007 747.358C466.566 747.358 427.182 742.424 427.182 735.593C427.182 728.766 422.928 723.833 442.528 691.181C463.377 656.455 533.498 664.071 533.498 687.598Z" fill="#745D45"/>
<path opacity="0.1" d="M540.425 737.076C540.362 734.279 544.538 733.323 540.294 719.265C536.049 705.208 524.54 695.371 526.16 681.519C526.33 680.001 526.482 678.137 526.594 676.028C528.626 677.317 530.308 679.035 531.506 681.044C532.705 683.053 533.386 685.298 533.495 687.599C533.495 699.763 551.587 708.864 552.715 730.128C548.916 738.057 540.473 739.145 540.425 737.076Z" fill="white"/>
<path opacity="0.3" d="M427.183 735.592C426.273 729.703 426.882 723.696 428.96 718.074C430.893 717.27 433.046 717.053 435.116 717.455C437.187 717.857 439.072 718.857 440.508 720.315C448.994 727.809 449.193 737.53 450.614 739.48C452.023 741.435 456.365 742.904 456.566 740.245C456.767 737.587 464.746 720.409 480.208 721.178C506.966 725.726 506.57 742.048 511.208 742.614C518.372 743.429 525.639 742.651 532.424 740.343C539.693 737.489 536.257 741.667 543.531 739.009C545.778 738.357 547.805 737.166 549.413 735.555C551.021 733.943 552.155 731.966 552.702 729.817C552.749 730.606 552.826 731.367 552.826 732.179C552.826 746.601 513.428 747.358 490.001 747.358C466.565 747.358 427.183 742.426 427.183 735.592Z" fill="black"/>
<path d="M446.946 744.224C453.114 743.281 446.579 722.879 437.788 718.273C428.993 713.66 424.934 717.956 420.868 723.987C416.808 730.032 415.121 736.067 415.8 738.134C416.484 740.198 432.076 746.515 446.946 744.224Z" fill="#AC957C"/>
<path d="M458.536 744.724C455.638 738.888 462.927 722.024 472.781 720.315C482.629 718.617 508.078 728.577 508.078 746.22C508.078 750.917 490.652 749.643 479.602 749.643C468.537 749.643 460.253 748.179 458.536 744.724Z" fill="#AC957C"/>
<path opacity="0.3" d="M429.597 717.327C433.629 716.43 436.132 729.831 431.801 741.294C430.102 741.599 428.351 741.506 426.699 741.026C425.048 740.545 423.547 739.691 422.33 738.538C419.997 736.261 419.575 736.358 417.611 736.738C415.657 737.109 421.72 719.089 429.597 717.327Z" fill="white"/>
<path opacity="0.1" d="M440.606 695.138C442.5 692.579 445.129 691.43 456.389 694.413C467.623 697.4 485.709 685.093 497.884 697.436C499.167 699.097 500.314 700.847 501.313 702.672C509.294 717.376 511.812 737.681 503.334 730.76C494.849 723.832 485.153 717.228 474.854 717.228C464.546 717.228 460.003 730.187 458.383 731.322C456.771 732.461 456.156 726.768 453.939 730.096C451.726 733.411 451.421 736.542 450.106 733.977C442.834 711.309 434.078 711.972 430.025 715.226C432.605 709.023 435.615 702.986 439.036 697.153C439.546 696.536 440.072 695.85 440.606 695.138Z" fill="white"/>
<path opacity="0.1" d="M469.658 717.609C473.632 715.429 481.31 714.863 496.012 724.251C500.001 726.623 493.638 720.74 486.165 716.666C478.691 712.592 472.332 712.653 468.385 716.275C464.45 719.898 466.62 719.281 469.658 717.609Z" fill="white"/>
<path opacity="0.1" d="M432.472 712.805C436.152 711.133 441.82 713.96 446.796 724.015C448.226 726.72 446.185 720.74 444.07 716.333C441.945 711.92 439.291 709.572 436.344 710.109C433.398 710.646 430.7 713.613 432.472 712.805Z" fill="white"/>
<path opacity="0.3" d="M474.293 720.74C471.39 720.727 465.493 724.17 461.716 733.349C457.953 742.51 461.259 743.872 463.61 745.583C465.962 747.294 471.792 744.518 477.247 745.374C482.705 746.22 490.732 748.498 493.987 745.792C497.242 743.086 493.229 720.821 474.293 720.74Z" fill="white"/>
<path opacity="0.3" d="M322.946 207.738C312.037 161.555 326.165 57.9407 369.406 50.5415C438.153 38.7704 462.156 43.2248 517.872 56.8325C526.235 60.928 534.898 65.3286 545.228 69.6867C592.509 89.6295 584.33 104.931 583.095 153.613C581.867 202.292 569.987 210.158 506.857 236.945C389.641 286.678 443.069 341.874 385.05 357.566C383.347 354.433 382.031 351.126 381.128 347.712C373.239 315.261 333.848 253.925 322.946 207.738Z" fill="black"/>
<path d="M176.002 258.74C174.594 258.081 172.239 257.686 169.282 257.791C166.339 257.895 162.846 258.492 159.188 259.772C151.877 262.331 143.926 267.611 138.396 277.112C127.196 296.353 108.894 326.226 73.8779 342.079C38.937 357.897 11.3649 357.49 9.02539 357.218C6.0893 356.876 3.17166 357.815 1.59668 358.889C1.20637 359.155 0.917154 359.417 0.732422 359.653C0.54239 359.895 0.498188 360.063 0.500977 360.153C0.502822 360.21 0.523975 360.303 0.702148 360.419C0.897212 360.547 1.24558 360.674 1.81152 360.75H1.8125C62.0714 368.803 114.707 351.244 148.86 317.112C165.961 300.017 174.163 285.994 177.351 275.935C178.945 270.904 179.279 266.885 178.863 263.976C178.445 261.046 177.287 259.341 176.002 258.74Z" fill="#FFEAC3" stroke="#826D58"/>
<path opacity="0.5" d="M0.104721 359.732C1.20279 358.552 2.60425 357.656 4.17555 357.129C5.74686 356.602 7.43556 356.462 9.08089 356.722C11.328 356.983 38.8103 357.404 73.6693 341.623C89.3171 334.353 103.101 323.982 114.071 311.226C121.175 304.249 127.348 296.486 132.452 288.106C141.641 273.88 150.46 265.728 151.78 271.23C153.1 276.732 139.125 310.109 111.069 331.52C86.2692 350.441 36.6315 358.861 0.104721 359.732Z" fill="white"/>
<path opacity="0.2" d="M172.812 267.562C170.805 264.182 166.221 259.618 150.48 263.534C160.756 256.766 172.049 256.335 176.214 258.286C182.243 261.107 183.486 283.202 149.214 317.465C118.317 348.331 72.4002 365.66 19.4352 362.885C142.772 355.939 174.524 270.458 172.812 267.562Z" fill="black"/>
<path d="M99.5145 671.385C110.221 666.401 119.845 659.587 127.895 651.292C128.207 650.995 128.542 650.721 128.898 650.473C182.171 580.01 146.151 465.908 101.139 359.665C69.4245 284.82 93.8579 210.512 115.682 167.243C137.492 123.976 129.615 126.826 137.492 109.174C145.368 91.5218 164.157 76.7227 184.158 39.1498C204.16 1.57682 250.219 5.55987 278.096 5.55987C305.973 5.55987 310.209 14.1015 332.636 14.1015C355.062 14.1015 398.491 41.428 402.531 114.297C406.571 187.166 386.101 242.17 347.312 252.699C313.545 261.871 295.468 251.313 266.377 251.313C258.704 251.313 255.675 259.756 237.788 255.201C227.795 263.454 230.829 270.286 212.644 268.01C194.459 265.734 179.918 272.763 174.67 298.089C169.415 323.42 174.523 387.597 195.673 459.676C217.567 534.318 192.063 619.314 164.042 661.287C164.031 661.313 164.018 661.337 164.001 661.36C163.919 661.472 163.834 661.601 163.766 661.708C163.427 662.199 163.101 662.679 162.776 663.147C157.348 671.411 150.17 686.447 142.841 697.286C134.969 708.958 121.339 708.102 121.845 700.416C122.337 692.734 126.797 685.044 115.885 681.63C104.974 678.217 86.7974 677.08 99.5145 671.385Z" fill="#745D45"/>
<path opacity="0.1" d="M119.962 406.43C116.569 397.459 113.05 388.502 109.404 379.559C127.772 374.985 154.881 361.194 172.762 320.738C172.806 335.123 173.741 349.492 175.562 363.774C166.74 383.024 150.274 401.531 119.962 406.43Z" fill="black"/>
<path opacity="0.05" d="M217.466 235.975C206.121 231.98 192.683 237.122 186.585 241.369C180.464 245.62 190.988 206.632 208.138 196.095C225.282 185.558 228.643 193.169 227.321 207.13C226.005 221.095 228.509 239.863 217.466 235.975Z" fill="white"/>
<path opacity="0.2" d="M203.622 508.149C206.599 568.498 186.102 628.233 164.041 661.288C164.03 661.313 164.017 661.338 164 661.36C163.918 661.473 163.833 661.602 163.765 661.709C163.426 662.199 163.1 662.679 162.775 663.148C157.54 671.113 150.661 685.4 143.612 696.126C148.598 682.98 139.898 676.162 143.509 673.349C189.29 620.619 202.248 553.051 203.622 508.149Z" fill="black"/>
<path opacity="0.2" d="M121.843 700.419C122.335 692.737 126.795 685.046 115.884 681.633C105.371 678.338 88.1109 677.165 98.2687 671.986C99.1869 673.723 102.342 675.213 110.426 675.362C124.978 675.627 136.083 676.008 139.714 680.755C141.693 683.635 142.808 686.963 142.943 690.388C143.078 693.813 142.227 697.208 140.48 700.217C132.519 708.705 121.388 707.382 121.843 700.419Z" fill="black"/>
<path opacity="0.3" d="M103.622 678.645C111.629 679.935 122.878 679.507 129.836 680.892C137.347 682.392 139.463 691.995 135.603 696.621C131.731 701.252 126.212 700.324 124.912 698.184C123.77 696.289 125.375 687.548 120.617 684.078C119.243 682.955 117.628 682.121 115.882 681.633C112.134 680.457 107.537 679.556 103.622 678.645Z" fill="black"/>
<path opacity="0.1" d="M99.3664 671.455L99.5133 671.386C99.6603 671.323 99.7914 671.248 99.9276 671.184C102.288 673.067 107.002 673.153 111.664 673.278C116.884 673.424 130.676 672.995 136.585 674.865C138.822 675.708 140.702 677.219 141.933 679.166C143.164 681.113 143.678 683.386 143.396 685.635C141.842 677.237 135.371 675.055 124.463 674.701C114.352 674.373 101.081 675.394 99.3664 671.455Z" fill="white"/>
<path opacity="0.2" d="M161.537 311.849C156.306 315.163 150.057 316.763 143.76 316.401C154.843 313.365 163.557 305.587 164.624 299.46C165.673 293.345 173.855 280.82 166.891 283.95C159.912 287.081 142.389 290.165 139.968 287.889C152.437 287.889 165.674 280.82 173.855 274.558C182.037 268.296 196.079 254.252 210.014 257.383C223.949 260.513 226.285 263.742 233.631 259.295C228.229 265.528 227.698 269.892 212.645 268.01C194.461 265.733 179.919 272.763 174.671 298.089C170.856 316.474 172.513 355.321 181.779 402.791C168.161 354.574 167.137 308.557 161.537 311.849Z" fill="black"/>
<path opacity="0.1" d="M99.5136 671.385C110.22 666.401 119.844 659.587 127.894 651.292C128.206 650.995 128.541 650.721 128.897 650.473C182.171 580.01 146.15 465.908 101.139 359.665C69.4236 284.82 93.8571 210.512 115.681 167.243C137.491 123.976 129.614 126.826 137.491 109.174C145.368 91.5218 164.156 76.7227 184.158 39.1498C204.159 1.57682 250.218 5.55987 278.095 5.55987C305.972 5.55987 310.208 14.1015 332.635 14.1015C344.094 14.1015 361.037 21.2616 375.415 37.9739C310.762 14.1553 244.721 35.1991 232.938 60.4061C229.683 66.7699 227.775 73.6676 227.321 80.7154C247.53 76.7262 256.884 83.2686 269.305 86.9708C281.734 90.6737 295.059 105.189 287.79 103.483C258.398 94.3718 235.205 99.1632 221.43 109.553C221.305 109.642 221.174 109.722 221.037 109.794C219.784 111.105 218.367 112.5 216.706 114.011C170.88 155.778 141.764 211.097 134.258 270.662C123.759 353.404 156.891 423.236 164.975 518.117C172.097 601.77 152.183 661.795 95.3243 675.359C94.7414 674.307 95.8139 673.04 99.5136 671.385Z" fill="white"/>
<path opacity="0.1" d="M232.431 113.359C231.78 114.728 231.47 116.219 231.525 117.717C234.963 114.753 239.314 112.892 243.952 112.404C254.25 112.404 258.894 121.225 262.133 124.47C259.305 124.012 257.68 123.501 252.029 129.105C249.76 131.059 246.909 132.316 243.858 132.705C240.807 133.095 237.703 132.599 234.961 131.285C240.418 139.162 253.044 137.264 260.314 132.331C250.825 142.768 239.808 143.43 231.026 136.031C229.218 134.617 227.789 132.825 226.853 130.799C225.917 128.772 225.501 126.567 225.638 124.362C225.774 122.156 226.46 120.012 227.64 118.101C228.82 116.19 230.461 114.565 232.431 113.359ZM250.742 118.16C251.54 117.914 247.79 114.104 243.662 114.209C239.533 114.314 239.756 116.097 233.737 118.37C236.654 118.653 242.029 116.593 250.742 118.16Z" fill="black"/>
<path opacity="0.5" d="M232.325 119.519C237.284 119.802 244.96 117.717 252.943 119.905C250.009 119.996 249.399 121.039 249.399 121.039L255.961 122.178C253.964 122.819 252.039 123.645 250.215 124.642C248.493 125.783 246.974 129.582 240.518 129.582C236.572 129.582 232.838 124.643 232.325 119.519Z" fill="black"/>
<path opacity="0.5" d="M236.574 121.029C234.908 121.37 234.913 124.66 236.726 126.688C237.943 127.737 239.515 128.348 241.164 128.413C242.814 128.479 244.436 127.994 245.742 127.045C248.356 124.981 247.596 121.564 246.572 121.173C243.304 120.34 239.867 120.291 236.574 121.029Z" fill="white"/>
<path opacity="0.5" d="M236.009 122.45C236.249 121.568 239.631 121.019 242.302 121.178C244.965 121.343 246.837 121.961 247.06 123.46C247.261 124.965 245.987 127.576 242.01 127.576C238.041 127.575 235.365 124.79 236.009 122.45Z" fill="white"/>
<path opacity="0.1" d="M226.877 142.676C235.417 148.017 237.216 156.713 245.532 159.986C253.848 163.26 272.785 161.41 272.785 161.41C272.785 161.41 255.366 167.388 245.208 162.834C235.064 158.279 235.347 149.027 226.877 142.676Z" fill="black"/>
<path d="M239.934 128.321C238.926 128.216 237.976 127.829 237.205 127.211C236.435 126.592 235.88 125.77 235.612 124.852C235.836 123.766 236.475 122.795 237.409 122.121C238.343 121.447 239.507 121.118 240.681 121.195C241.471 121.251 242.233 121.492 242.899 121.895C243.565 122.298 244.113 122.851 244.493 123.504C244.874 124.156 245.075 124.888 245.078 125.632C245.081 126.376 244.887 127.109 244.512 127.764C243.1 128.439 241.483 128.635 239.934 128.321Z" fill="#070300"/>
<path opacity="0.3" d="M241.315 125.208C240.846 125.175 240.398 125.012 240.027 124.74C239.656 124.468 239.38 124.098 239.233 123.678C239.086 123.258 239.074 122.807 239.2 122.381C239.326 121.955 239.584 121.574 239.94 121.285C240.297 120.997 240.737 120.814 241.204 120.761C241.671 120.707 242.144 120.785 242.565 120.984C242.985 121.183 243.333 121.495 243.564 121.88C243.796 122.264 243.901 122.705 243.865 123.146C243.817 123.737 243.522 124.286 243.044 124.672C242.566 125.059 241.944 125.251 241.315 125.208Z" fill="white"/>
<path opacity="0.3" d="M241.704 124.523C241.383 124.499 241.077 124.387 240.825 124.201C240.572 124.014 240.384 123.762 240.284 123.475C240.184 123.188 240.177 122.88 240.263 122.589C240.349 122.298 240.526 122.038 240.769 121.841C241.013 121.644 241.313 121.52 241.632 121.483C241.951 121.447 242.275 121.5 242.562 121.636C242.849 121.772 243.086 121.985 243.244 122.248C243.403 122.51 243.474 122.811 243.451 123.112C243.435 123.313 243.378 123.509 243.282 123.689C243.185 123.868 243.052 124.028 242.89 124.159C242.728 124.29 242.539 124.39 242.336 124.452C242.132 124.515 241.917 124.539 241.704 124.523Z" fill="white"/>
<path opacity="0.1" d="M265.963 201.783C269.403 201.783 265.161 204.248 262.134 206.717C259.103 209.182 257.084 216.962 253.848 230.625C250.613 244.289 255.461 241.254 263.551 240.304C271.634 239.354 279.706 228.349 282.333 224.55C284.968 220.76 282.74 227.589 278.094 232.712C273.447 237.835 289.007 238.409 301.121 215.065C303.549 212.408 300.719 221.897 295.057 230.626C289.396 239.355 303.549 233.662 309.807 225.123C313.445 223.228 308.191 228.539 309.807 233.096C311.216 237.08 377.764 232.923 401.678 159.708C396.62 209.308 377.521 244.498 347.309 252.701C313.542 261.872 295.465 251.314 266.374 251.314C258.701 251.314 255.672 259.758 237.785 255.203C247.182 242.586 250.41 228.159 255.461 210.512C258.093 202.545 261.115 201.783 265.963 201.783Z" fill="black"/>
<path opacity="0.1" d="M255.464 210.513C256.086 208.248 257.176 206.119 258.672 204.249C256.078 210.904 252.869 226.233 250.613 234.612C247.898 244.764 245.372 248.273 246.687 250.359C247.995 252.452 262.44 249.131 268.899 242.106C271.431 241.733 268.298 244.387 279.917 246.567C287.258 247.945 330.965 253.031 367.18 242.215C361.475 247.062 354.686 250.645 347.312 252.701C313.546 261.872 295.468 251.314 266.377 251.314C258.705 251.314 255.676 259.758 237.788 255.203C247.186 242.587 250.415 228.16 255.464 210.513Z" fill="black"/>
<path d="M332.634 14.1039C340.449 12.18 366.168 0.82021 425.147 0.0611398C484.134 -0.695515 506.36 5.37463 537.074 29.2826C567.771 53.1957 585.348 49.971 584.13 94.3753C582.929 138.785 573.224 176.927 522.324 194.007C471.412 211.081 409.604 260.043 385.36 290.213C361.117 320.383 332.632 278.829 339.901 224.745C347.177 170.661 350.005 131.761 343.537 102.157C337.074 72.5572 303.071 21.3803 332.634 14.1039Z" fill="#745D45"/>
<path opacity="0.1" d="M584.129 94.3755C583.076 107.633 580.761 120.775 577.214 133.644C575.321 139.915 572.822 146.009 569.746 151.851C566.685 157.577 562.834 162.898 558.293 167.679C556.049 170.052 553.64 172.283 551.082 174.358C549.808 175.387 548.399 176.277 547.064 177.247C545.747 178.245 544.363 179.161 542.92 179.992C540.093 181.752 537.143 183.332 534.089 184.719L529.512 186.83L524.72 188.562L514.763 192.12C511.313 193.275 508.027 194.733 504.722 196.138C501.375 197.487 498.16 199.052 494.937 200.611C493.339 201.392 491.705 202.14 490.109 202.953L485.392 205.451C460.441 218.979 437.308 235.272 416.488 253.978C405.99 263.22 396.298 273.239 387.506 283.939C385.335 286.67 383.337 289.537 381.275 291.961C379.224 294.442 376.645 296.493 373.703 297.983C370.732 299.43 367.298 299.798 364.056 299.018C360.683 298.114 357.592 296.459 355.046 294.193C357.454 296.669 360.465 298.561 363.821 299.705C367.246 300.722 370.949 300.523 374.228 299.146C377.463 297.741 380.347 295.712 382.693 293.19C385.057 290.692 387.18 288.008 389.42 285.419C398.581 275.195 408.507 265.598 419.123 256.703C440.156 238.684 463.168 222.815 487.77 209.362L492.394 206.88C493.958 206.083 495.549 205.34 497.133 204.562C500.278 203.022 503.428 201.465 506.697 200.131C513.08 197.179 519.828 195.04 526.39 192.459C539.783 187.786 551.71 180.026 561.078 169.894C565.69 164.803 569.53 159.137 572.488 153.056L574.633 148.468C575.316 146.931 575.82 145.319 576.421 143.75C577.689 140.621 578.428 137.348 579.389 134.132C582.37 121.06 583.957 107.743 584.129 94.3755Z" fill="white"/>
<path opacity="0.05" d="M358.09 178.905C343.941 195.404 338.348 234.978 341.558 266.848C338.456 253.004 337.896 238.764 339.902 224.743C344.598 189.868 347.419 161.334 347.116 137.507C357.109 97.6712 367.177 45.3706 461.509 45.3706C429.595 55.8547 411.422 87.1788 416.27 118.766C421.108 150.356 383.94 119.81 373.235 135.274C362.535 150.733 381.124 152.039 358.09 178.905Z" fill="black"/>
<path opacity="0.1" d="M407.9 53.2314C392.036 60.9205 388.331 69.6205 397.68 65.5315C409.389 60.4085 434.649 55.6636 413.039 65.5315C391.415 75.3956 400.517 98.3619 388.795 100.259C379.687 101.588 371.133 105.214 364.048 110.752C356.962 116.29 351.609 123.531 348.562 131.703C355.872 102.39 365.345 68.2938 407.9 53.2314Z" fill="black"/>
<path opacity="0.1" d="M332.636 14.1023C340.451 12.1784 366.17 0.818525 425.149 0.0615248C484.136 -0.697545 506.362 5.37018 537.076 29.2799C562.461 49.055 578.856 50.2951 583.094 75.2357C580.35 63.8034 576.505 56.9314 550.386 41.484C513.907 19.9026 529.288 15.2412 465.058 6.70132C400.829 -1.83856 331.156 18.9324 321.011 26.5134C321.254 23.5403 322.519 20.7219 324.616 18.4832C326.713 16.2445 329.528 14.7069 332.636 14.1023Z" fill="white"/>
<path opacity="0.1" d="M529.388 105.57C514.733 89.0026 554.996 93.5125 584.157 87.333C584.204 89.5433 584.204 91.875 584.128 94.3734C583.965 105.833 582.806 117.262 580.664 128.545C559.442 122.005 537.519 114.762 529.388 105.57Z" fill="black"/>
<path opacity="0.1" d="M526.354 192.556C508.594 178.414 490.893 162.495 484.951 148.32C471.431 116.111 517.697 152.419 566.934 162.611C557.149 176.4 542.932 186.891 526.354 192.556Z" fill="black"/>
<path opacity="0.1" d="M435.593 243.382C427.068 226.317 423.28 207.501 424.584 188.689C429.41 136.254 445.601 176.653 492.275 206.941C472.258 217.469 453.287 229.665 435.593 243.382Z" fill="black"/>
<path opacity="0.1" d="M400.646 273.554C395.221 278.832 390.118 284.394 385.361 290.214C370.835 308.296 354.79 300.607 345.822 279.912C352.493 259.343 359.396 228.728 375.869 206.153C401.157 171.472 369.549 243.257 400.646 273.554Z" fill="black"/>
<path opacity="0.1" d="M338.811 245.356C351.826 257.262 367.317 249.12 373.236 236.462C381.125 219.62 376.872 256.06 410.212 242.962C443.543 229.868 435.654 203.644 444.746 192.557C453.841 181.481 478.688 195.139 502.925 189.445C527.17 183.756 509.591 166.972 512.02 157.998C514.439 149.027 544.493 158.106 560.502 142.675C576.511 127.245 550.522 115.164 552.48 104.488C554.001 96.2021 577.362 103.912 583.792 80.7178C584.172 85.2606 584.285 89.8196 584.13 94.3741C582.929 138.784 573.225 176.926 522.324 194.006C471.412 211.08 409.604 260.042 385.361 290.212C364.315 316.406 340.09 288.54 338.811 245.356Z" fill="black"/>
<path d="M209.507 265.921C207.813 265.36 205.246 265.26 202.251 265.716C199.243 266.174 195.758 267.2 192.206 268.934C185.1 272.404 177.711 278.723 173.358 289.04C164.763 309.414 150.597 340.899 118.203 360.487C85.7366 380.118 58.4966 382.836 56.335 382.836C53.123 382.837 50.1157 384.196 48.5166 385.597C48.114 385.95 47.7838 386.321 47.5625 386.691C47.3454 387.054 47.2032 387.469 47.2715 387.884C47.3448 388.329 47.6391 388.661 48.0557 388.868C48.4558 389.066 48.9877 389.162 49.6318 389.173C110.752 390.23 161.012 366.631 190.673 328.542C205.479 309.529 211.885 294.522 213.773 283.964C214.717 278.687 214.535 274.501 213.69 271.477C212.852 268.474 211.326 266.524 209.507 265.921Z" fill="#FFEAC3" stroke="#826D58"/>
<path opacity="0.5" d="M47.8137 387.355C48.75 386.056 50.0249 385.005 51.5166 384.301C53.0083 383.597 54.6672 383.264 56.3349 383.333C58.5894 383.333 85.9174 380.587 118.461 360.911C133.043 351.895 145.369 340.013 154.587 326.086C160.725 318.343 165.841 309.929 169.823 301.029C177.08 285.851 184.758 276.739 186.792 282.053C188.831 287.366 179.308 322.093 154.262 346.577C132.116 368.213 83.9597 382.282 47.8137 387.355Z" fill="white"/>
<path opacity="0.2" d="M207.192 275.996C204.763 272.872 199.613 268.873 184.496 274.57C193.811 266.669 204.964 264.944 209.356 266.396C215.711 268.503 219.824 290.285 190.278 328.241C163.646 362.43 120.335 384.917 67.4057 388.262C188.899 367.166 209.26 278.673 207.192 275.996Z" fill="black"/>
</svg>
