<svg width="500" height="500" viewBox="0 0 500 500" fill="none" xmlns="http://www.w3.org/2000/svg">
<g clip-path="url(#clip0_1276_6343)">
<g clip-path="url(#clip1_1276_6343)">
<path d="M250 2.5C386.692 2.50001 497.5 113.311 497.5 250C497.5 386.689 386.692 497.5 250 497.5C113.308 497.5 2.5 386.689 2.5 250C2.5 113.311 113.308 2.5 250 2.5Z" fill="#B9A464" fill-opacity="0.99317" stroke="#4D4D4D" stroke-width="5"/>
<circle cx="250" cy="250" r="205" fill="#DFDEDA" stroke="#D0C27B" stroke-width="50"/>
<path d="M140 378.07L278.798 380L280.699 372.282L257.038 367.994C241.835 364.519 233.875 354.739 234.438 337.545L290 130H284.296C258.038 145.125 229.468 156.563 195.352 159.159L194.084 163.876L226.619 166.234C230.671 166.528 238.753 168.916 235.914 179.742L196.831 328.753C192.423 348.853 183.753 366.39 149.297 368.418L141.903 369.704L140 378.07Z" fill="#4D4D4D"/>
</g>
</g>
<defs>
<clipPath id="clip0_1276_6343">
<rect width="500" height="500" fill="white"/>
</clipPath>
<clipPath id="clip1_1276_6343">
<rect width="500" height="500" fill="white"/>
</clipPath>
</defs>
</svg>
