<svg width="1000" height="750" viewBox="0 0 1000 750" fill="none" xmlns="http://www.w3.org/2000/svg">
<g clip-path="url(#clip0_1276_8825)">
<path d="M278.588 506.365C308.215 511.278 356.328 493.187 378.516 446.331C400.717 399.479 351.761 329.721 256.379 334.481C160.997 339.24 170.415 459.931 173.504 471.289C176.6 482.665 192.122 492.012 278.588 506.365Z" fill="#48454C"/>
<path opacity="0.1" d="M317.879 454.117C315.584 438.34 294.266 390.94 225.49 393.018C212.288 393.752 221.734 384.641 248.71 385.6C275.691 386.548 303.975 396.917 316.553 418.197C329.125 439.454 320.152 469.817 317.879 454.117Z" fill="white"/>
<path opacity="0.2" d="M366.928 462.137C346.07 486.101 327.472 486.449 333.432 464.193C339.406 441.938 326.363 394.515 328.834 433.867C331.295 473.215 325.19 497.7 309.82 496.583C306.894 496.365 315.573 489.409 315.808 472.54C316.204 458.038 312.32 443.752 304.669 431.57C297.017 419.388 285.959 409.883 272.952 404.308C235.611 387.462 194.644 417.068 194.117 447.813C193.589 478.543 188.197 482.16 178.688 471.331C170.18 461.659 175.496 430.079 172.051 436.896C171.142 448.378 171.628 459.932 173.498 471.29C176.596 482.666 192.12 492.013 278.584 506.365C306.096 510.925 349.546 495.635 373.38 455.901C370.97 457.676 368.8 459.773 366.928 462.137Z" fill="black"/>
<path d="M240.576 398.032C280.326 400.925 325.944 451.984 306.625 502.356C316.314 537.729 288.103 587.005 291.277 599.853C294.465 612.683 292.427 643.607 291.739 655.262C291.031 666.922 302.727 680.378 282.182 686.08C261.627 691.782 206.466 685.063 198.756 669.201C191.042 653.33 197.868 632.662 197.841 613.754C197.805 594.837 194.811 579.305 195.506 572.154C185.226 558.8 198.193 497.874 192.801 475.156C186.598 449.004 179.077 393.545 240.576 398.032Z" fill="#48454C"/>
<path opacity="0.2" d="M305.277 483.927C302.445 471.728 297.365 460.201 290.313 449.974C277.116 430.551 243.278 428.982 264.356 440.988C285.434 452.994 301.8 484.575 306.626 502.35C312.864 486.018 312.707 467.831 306.188 451.616C310.936 471.116 306.336 485.65 305.277 483.927Z" fill="black"/>
<path opacity="0.2" d="M202.638 591.59C218.352 597.544 235.4 598.705 251.738 594.933C262.09 592.314 238.807 605.483 221.408 604.215C204 602.947 198.59 589.561 202.638 591.59Z" fill="black"/>
<path opacity="0.1" d="M199.752 570.049C198.801 566.167 206.551 550.783 235.718 558.988C264.884 567.193 256.217 590.549 249.37 591.562C242.523 592.574 219.044 594.245 206.839 588.79C194.629 583.343 209.769 569.756 224.581 572.195C231.687 573.551 214.414 573.732 212.646 579.639C210.879 585.545 237.783 589.033 244.473 584.616C251.147 580.21 240.451 568.964 222.309 567.297C204.161 565.642 201.402 576.745 199.752 570.049Z" fill="white"/>
<path d="M185.439 653.69C184.032 661.291 172.508 658.022 169.704 665.99C168.458 669.961 168.352 674.218 169.398 678.25C170.444 682.282 172.598 685.917 175.601 688.718C180.976 692.326 208.294 702.119 249.279 701.641C290.263 701.153 304.231 699.422 300.507 678.986C296.774 658.555 272.056 628.141 239.655 625.779C207.255 623.418 186.693 646.845 185.439 653.69Z" fill="#48454C"/>
<path opacity="0.05" d="M234.892 633.162C247.778 632.734 258.933 647.055 265.367 656.481C271.805 665.917 232.444 654.085 207.452 652.85C182.469 651.61 204.995 634.157 234.892 633.162Z" fill="white"/>
<g opacity="0.2">
<path d="M196.923 693.196C195.745 691.296 195.039 689.126 194.865 686.879C194.691 684.631 195.056 682.374 195.927 680.306C194.43 682.255 193.689 684.708 193.849 687.188C194.218 690.791 191.581 684.425 190.179 684.276C188.786 684.123 186.716 685.66 186.707 682.869C186.718 679.155 185.792 675.501 184.02 672.266C181.955 668.839 187.51 682.551 183.763 686.549C182.159 687.602 180.286 688.138 178.385 688.087C176.483 688.036 174.64 687.401 173.091 686.264C173.801 687.21 174.648 688.039 175.602 688.72C183.741 692.827 192.421 695.68 201.365 697.189C199.469 696.447 197.894 695.03 196.923 693.196Z" fill="black"/>
<path d="M245.043 687.132C245.511 682.864 242.982 692.068 242.901 694.705C242.82 697.343 239.249 692.239 235.849 691.408C232.436 690.582 229.289 697.278 229.122 693.479C228.741 688.87 227.388 684.401 225.159 680.385C223.184 677.33 231.305 696.302 224.961 697.779C220.675 698.704 216.304 699.148 211.926 699.102C224.293 700.965 236.784 701.815 249.281 701.642C290.265 701.155 304.233 699.423 300.509 678.987C300.491 678.903 297.931 683.928 297.921 683.853C296.726 689.559 287.172 687.192 282.208 683.835C276.171 679.749 290.689 691.645 281.32 696.312C271.951 700.979 250.656 700.073 247.64 699.061C244.624 698.048 244.574 691.399 245.043 687.132Z" fill="black"/>
</g>
<path opacity="0.2" d="M195.621 664.055C192.532 663.21 187.532 657.628 188.452 660.303C190.619 668.304 190.545 676.772 188.24 684.732C188.024 685.746 187.61 686.703 187.023 687.547C186.437 688.391 185.691 689.104 184.829 689.642C183.968 690.181 183.009 690.533 182.011 690.679C181.013 690.825 179.997 690.76 179.024 690.49C183.778 692.506 188.676 694.143 193.673 695.387C189.529 684.396 198.524 665.516 203.741 663.538C201.666 663.048 198.708 664.9 195.621 664.055Z" fill="black"/>
<path d="M225.639 698.183C230.315 690.127 218.178 671.047 212.25 669.886C206.304 668.73 195.248 675.881 191.524 687.02C187.8 698.169 192.178 701.726 200.704 702.343C209.21 702.97 222.096 704.279 225.639 698.183Z" fill="#2D3238"/>
<path opacity="0.1" d="M211.109 695.402C209.634 687.921 214.941 672.478 212.02 671.753C206.163 670.304 199.535 674.85 194.805 680.478C193.422 682.492 192.318 684.694 191.523 687.021C190.032 690.301 189.807 694.042 190.892 697.487C196.884 701.745 212.407 702.042 211.109 695.402Z" fill="white"/>
<path opacity="0.1" d="M211.802 672.885C210.882 672.23 202.262 675.462 199.752 698.894C199.711 700.394 208.472 699.289 209.405 697.483C210.329 695.676 208.955 689.881 209.523 684.138C210.102 678.406 213.254 673.926 211.802 672.885Z" fill="white"/>
<path d="M282.793 697.816C287.865 691.288 273.748 674.803 261.318 673.9C248.887 672.996 244.072 693.263 246.412 699.41C248.743 705.552 271.327 712.592 282.793 697.816Z" fill="#2D3238"/>
<path opacity="0.1" d="M265.972 675.779C270.616 677.515 279.435 684.569 279.652 692.095C279.85 699.622 267.798 701.057 264.548 700.816C261.283 700.582 251.576 670.393 265.972 675.779Z" fill="white"/>
<path opacity="0.2" d="M244.31 701.624C234.892 691.71 245.049 670.955 248.828 669.757C250.798 669.125 251.731 668.809 248.445 668.763C245.158 668.716 235.815 673.68 232.132 672.868C228.453 672.078 219.196 664.667 221.672 668.127C233.345 684.911 231.834 694.891 228.565 700.992C233.521 701.359 238.787 701.568 244.31 701.624Z" fill="black"/>
<path d="M295.859 670.782C298.384 670.563 311.225 683.11 312.803 690.467C314.89 700.262 308.094 699.08 298.736 698.653C288.578 698.197 286.873 686.617 287.892 679.178C288.933 671.729 291.836 671.101 295.859 670.782Z" fill="#2D3238"/>
<path opacity="0.1" d="M297.02 671.757C293.223 669.324 290.518 676.897 290.829 678.94C291.152 680.988 300.086 689.778 302.06 693.047C302.748 693.759 303.565 694.325 304.466 694.711C305.367 695.096 306.333 695.294 307.308 695.294C308.284 695.293 309.249 695.093 310.149 694.706C311.049 694.319 311.866 693.752 312.552 693.038C314.225 690.33 307.307 678.387 297.02 671.757Z" fill="white"/>
<path d="M174.471 664.936C171.454 662.879 164.723 666.237 157.171 674.246C149.619 682.256 151.761 687.81 152.586 688.539C153.417 689.282 174.692 692.862 179.809 690.08C184.911 687.304 184.629 671.883 174.471 664.936Z" fill="#2D3238"/>
<path opacity="0.1" d="M170.745 664.599C165.479 666.536 160.799 669.863 157.174 674.248C149.626 682.258 151.768 687.816 152.588 688.54C152.606 688.563 152.67 688.572 152.692 688.588C153.184 688.354 153.638 688.042 154.036 687.663C160.857 681.497 180.434 679.375 178.752 672.842C178.267 670.85 177.266 669.031 175.856 667.579C174.445 666.128 172.679 665.098 170.745 664.599Z" fill="white"/>
<path opacity="0.3" d="M256.377 334.481C173.727 338.604 169.763 429.749 172.198 461.412C172.195 461.451 172.197 461.49 172.203 461.528C172.253 462.183 172.311 462.812 172.365 463.409L172.37 463.504C172.492 464.748 172.613 465.886 172.739 466.889C172.738 466.92 172.741 466.951 172.749 466.982C172.803 467.41 172.866 467.813 172.92 468.194C172.93 468.306 172.946 468.417 172.969 468.526C173.015 468.815 173.062 469.089 173.105 469.344C173.123 469.465 173.137 469.567 173.159 469.673C173.199 469.905 173.24 470.128 173.281 470.323C173.308 470.412 173.312 470.519 173.334 470.593C173.393 470.857 173.448 471.099 173.502 471.29C174.268 474.094 175.808 476.61 177.934 478.533C178.701 479.264 179.513 479.943 180.364 480.567C181.943 481.701 183.597 482.719 185.315 483.613C188.176 485.071 191.116 486.357 194.121 487.465C194.874 514.852 186.74 560.774 195.506 572.156C194.813 579.306 197.805 594.836 197.841 613.756C197.85 622.462 196.425 631.553 195.623 640.367C191.093 643.748 187.567 648.363 185.442 653.693C184.112 660.849 173.828 658.383 170.293 664.712C169.003 665.11 167.764 665.666 166.604 666.37C166.392 666.49 166.18 666.625 165.964 666.76C165.563 667.015 165.157 667.266 164.738 667.558C164.116 668.004 163.484 668.468 162.831 668.975C162.578 669.179 162.339 669.407 162.087 669.611C161.533 670.08 160.955 670.577 160.369 671.111C160.125 671.334 159.878 671.552 159.638 671.798C158.823 672.559 157.997 673.363 157.172 674.249C156.313 675.155 155.513 676.118 154.778 677.133C154.449 677.588 154.156 678.037 153.876 678.475C152.982 679.697 152.343 681.098 152.001 682.587C151.66 684.077 151.622 685.623 151.891 687.129C151.995 687.655 152.234 688.142 152.584 688.541C152.602 688.564 152.665 688.573 152.688 688.588C154.103 689.368 172.702 692.46 178.897 690.445L178.996 690.487L179.023 690.491C179.451 690.687 179.929 690.887 180.416 691.1C180.772 691.239 181.133 691.383 181.512 691.532C181.89 691.681 182.283 691.824 182.684 691.977C183.293 692.2 183.937 692.437 184.614 692.67C184.961 692.781 185.306 692.907 185.651 693.018C186.521 693.315 187.427 693.598 188.396 693.886C188.704 693.988 189.02 694.086 189.343 694.178C189.637 694.273 189.902 694.359 190.214 694.443C190.461 699.858 194.474 701.896 200.701 702.346C207.87 702.869 218.136 703.879 223.308 700.531C223.362 700.536 223.425 700.54 223.474 700.54C224.241 700.61 225.017 700.693 225.806 700.763C226.716 700.842 227.627 700.93 228.565 700.995L228.619 701C228.659 701.004 228.7 701.004 228.745 701.013C230.513 701.139 232.298 701.255 234.129 701.346C234.697 701.365 235.269 701.394 235.824 701.406C237.425 701.485 239.048 701.536 240.684 701.574C241.331 701.592 241.969 701.602 242.614 701.615C244.417 701.639 246.243 701.657 248.105 701.639C252.94 705.073 258.729 706.792 264.596 706.534C270.464 706.277 276.09 704.058 280.623 700.212C281.213 700.142 281.795 700.073 282.35 699.984C283.81 699.776 285.195 699.534 286.484 699.256C287.773 698.977 288.96 698.671 290.064 698.341C291.219 697.988 292.348 697.549 293.441 697.026C295.035 698.037 296.859 698.597 298.73 698.652C308.09 699.08 314.885 700.263 312.797 690.466C311.557 684.643 303.261 675.602 298.603 672.171C296.87 667.528 294.614 663.112 291.881 659.011C291.717 657.768 291.669 656.512 291.737 655.26C292.427 643.605 294.465 612.68 291.275 599.85C288.173 587.308 314.991 540.015 307.218 504.86C307.398 504.823 307.579 504.772 307.75 504.726C307.935 504.684 308.097 504.637 308.278 504.595C310.288 504.089 312.309 503.532 314.346 502.891C314.38 502.872 314.417 502.858 314.454 502.85C321.14 500.712 327.601 497.893 333.743 494.434C333.784 494.406 333.81 494.397 333.851 494.364C335.934 493.194 338.007 491.934 340.069 490.585L340.235 490.473C342.291 489.117 344.325 487.692 346.309 486.164C346.354 486.139 346.396 486.109 346.435 486.076C360.082 475.683 371.086 462.046 378.51 446.328C400.715 399.479 351.759 329.721 256.377 334.481Z" fill="black"/>
<path d="M741.307 197.231C762.457 210.822 806.49 298.563 780.753 358.143C755.013 417.731 705.553 485.492 708.544 499.219C711.529 512.944 717.575 533.199 702.309 564.509C687.033 595.815 698.936 691.576 677.849 697.802C656.762 704.043 572.85 697.245 564.287 683.459C555.725 669.659 588.45 579.851 596.209 567.244C593.31 561.633 587.119 532.479 583.928 507.251C570.149 497.812 565.28 477.98 565.28 477.98C565.28 477.98 542.961 471.915 529.525 419.353C516.082 366.78 605.427 109.879 741.307 197.231Z" fill="#48454C"/>
<path opacity="0.2" d="M741.305 197.232C605.425 109.88 516.08 366.785 529.526 419.353C542.961 471.916 565.28 477.98 565.28 477.98C567.289 485.236 570.524 492.072 574.834 498.174C603.239 505.734 641.239 489.346 672.998 468.711C705.42 447.663 732.292 425.114 743.984 428.499C757.533 405.789 769.809 382.298 780.752 358.143C806.488 298.564 762.455 210.823 741.305 197.232Z" fill="black"/>
<path d="M521.036 390.109C519.341 414.747 531.086 453.877 537.615 460.661C544.139 467.431 579.673 465.741 617.014 458.334C654.355 450.928 693.852 437.597 712.315 427.456C730.779 417.315 786.277 372.3 792.42 360.006C802.695 339.482 797.771 301.3 791.044 275.148C784.313 248.983 775.201 228.812 766.278 186.928C757.355 145.045 682.965 136.32 626.02 184.138C569.055 231.96 526.695 307.675 521.036 390.109Z" fill="#48454C"/>
<path opacity="0.2" d="M600.285 510.242C610.101 513.831 660.549 516.891 691.101 479.493C721.647 442.087 682.98 480.668 655.45 495.587C617.757 516.018 587.976 505.743 600.285 510.242Z" fill="black"/>
<path opacity="0.2" d="M599.664 568.855C610.174 576.493 638.431 580.105 661.019 578.388C666.705 579.135 635.364 584.28 618.506 581.531C601.638 578.787 592.45 563.594 599.664 568.855Z" fill="black"/>
<path d="M566.97 650.29C563.795 659.057 550.81 655.272 545.916 664.466C541.029 673.66 542.765 686.518 548.378 690.692C553.991 694.866 584.371 706.193 632.939 705.676C681.499 705.161 689.226 702.505 688.875 678.94C688.532 655.351 674.505 620.907 636.65 618.144C598.795 615.381 569.819 642.391 566.97 650.29Z" fill="#48454C"/>
<path opacity="0.05" d="M640.182 627.859C655.51 627.376 665.864 643.911 671.59 654.795C677.325 665.688 633.13 651.989 603.823 650.537C574.516 649.074 604.626 628.982 640.182 627.859Z" fill="white"/>
<g opacity="0.2">
<path d="M572.695 695.889C571.741 693.48 571.367 690.868 571.605 688.277C571.844 685.686 572.688 683.194 574.066 681.012C571.991 683.167 570.651 685.956 570.247 688.962C569.967 693.094 568.123 685.767 566.487 685.586C564.868 685.414 562.114 687.192 562.664 683.956C563.427 679.858 563.057 675.621 561.595 671.73C559.841 667.769 563.678 683.594 558.439 688.209C556.538 689.41 554.339 690.017 552.11 689.956C549.881 689.895 547.717 689.169 545.881 687.866C546.535 688.959 547.38 689.918 548.374 690.693C557.388 695.537 567.103 698.849 577.144 700.5C576.13 700.097 575.209 699.477 574.443 698.683C573.676 697.888 573.081 696.937 572.695 695.889Z" fill="black"/>
<path d="M630.804 688.938C632.211 684.011 627.382 694.626 626.759 697.667C626.137 700.709 622.936 694.826 619.077 693.864C615.204 692.907 610.163 700.638 610.708 696.241C611.201 691.102 610.489 685.917 608.631 681.121C606.9 677.606 612.733 699.495 604.937 701.199C599.776 702.248 594.525 702.755 589.265 702.712C603.723 704.883 618.326 705.874 632.937 705.675C681.496 705.16 689.223 702.504 688.876 678.924C688.876 678.836 688.854 678.748 688.854 678.664C686.325 685.239 680.617 689.057 675.427 685.17C669.096 680.452 683.89 694.196 671.879 699.564C659.867 704.946 634.862 703.873 631.489 702.699C628.13 701.526 629.393 693.869 630.804 688.938Z" fill="black"/>
</g>
<path opacity="0.2" d="M576.948 662.267C573.463 661.273 568.657 654.837 569.211 657.93C570.147 667.632 568.376 677.408 564.107 686.111C563.175 688.5 561.456 690.474 559.252 691.689C557.047 692.903 554.498 693.279 552.051 692.75C557.345 695.099 562.819 696.991 568.418 698.406C565.69 685.734 580.082 663.947 586.66 661.677C584.293 661.106 580.429 663.247 576.948 662.267Z" fill="black"/>
<path d="M605.67 701.664C612.798 692.378 602.244 670.349 595.444 669.008C588.654 667.67 574.149 675.902 567.526 688.765C560.912 701.609 565.375 705.714 575.329 706.438C585.282 707.162 600.268 708.704 605.67 701.664Z" fill="#2D3238"/>
<path opacity="0.1" d="M589.024 698.453C588.776 689.811 598.131 671.99 594.808 671.154C588.181 669.496 579.425 674.716 572.72 681.207C570.697 683.501 568.953 686.039 567.526 688.767C565.15 692.28 564.141 696.584 564.699 700.826C570.948 705.733 589.245 706.105 589.024 698.453Z" fill="white"/>
<path opacity="0.1" d="M594.328 672.478C593.358 671.717 582.542 675.426 574.9 702.451C574.562 704.183 585.139 702.929 586.59 700.84C588.042 698.75 587.578 692.073 589.395 685.452C591.212 678.83 595.838 673.652 594.328 672.478Z" fill="white"/>
<path d="M673.338 701.308C680.632 693.781 667.214 674.743 652.692 673.682C638.169 672.622 628.435 696.012 629.982 703.108C631.528 710.203 656.829 718.335 673.338 701.308Z" fill="#2D3238"/>
<path opacity="0.1" d="M657.823 675.862C662.967 677.864 671.994 686.017 670.735 694.696C669.491 703.388 654.941 705.036 651.141 704.758C647.34 704.479 641.852 669.631 657.823 675.862Z" fill="white"/>
<path d="M552.917 663.479C549.377 660.497 540.283 663.534 533.777 673.861C527.267 684.197 529.259 691.014 538.881 692.495C548.494 693.981 554.927 695.369 558.485 685.92C559.765 682.026 559.921 677.832 558.932 673.849C557.944 669.865 555.854 666.263 552.917 663.479Z" fill="#2D3238"/>
<path opacity="0.1" d="M552.459 664.7C552.207 664.128 551.829 663.623 551.356 663.226C550.883 662.829 550.327 662.55 549.731 662.411C545.371 662.258 538.82 665.875 533.779 673.862C529.485 680.664 528.914 685.935 531.755 689.173C534.14 690.687 536.849 690.677 537.097 689.302C538.747 683.191 541.215 677.347 544.429 671.936C547.567 666.423 552.729 665.271 552.459 664.7Z" fill="white"/>
<path opacity="0.2" d="M627.056 705.654C617.89 694.209 634.023 670.278 638.737 668.893C641.19 668.164 642.363 667.816 638.481 667.752C634.602 667.704 622.578 673.408 618.381 672.483C614.183 671.559 604.71 662.988 606.946 666.981C617.402 686.367 613.647 697.897 608.562 704.904C614.342 705.343 620.541 705.589 627.056 705.654Z" fill="black"/>
<path opacity="0.3" d="M798.258 331.425C798.316 329.164 798.316 326.888 798.272 324.567C798.262 324.256 798.254 323.94 798.24 323.61C798.181 321.709 798.105 319.766 797.979 317.82C797.956 317.277 797.911 316.734 797.866 316.181C797.744 314.374 797.577 312.545 797.404 310.734C797.35 310.247 797.312 309.759 797.255 309.271C796.759 304.698 796.128 300.157 795.389 295.703C795.299 295.184 795.208 294.657 795.114 294.134C794.821 292.481 794.519 290.833 794.198 289.221C794.072 288.544 793.932 287.875 793.801 287.224C793.494 285.706 793.175 284.217 792.846 282.757C792.715 282.154 792.589 281.559 792.458 280.965C791.994 278.978 791.52 277.018 791.042 275.147C790.42 272.76 789.785 270.429 789.135 268.135C789 267.66 788.869 267.179 788.734 266.705C788.098 264.523 787.458 262.331 786.8 260.162C786.661 259.721 786.523 259.266 786.384 258.825C785.794 256.88 785.19 254.948 784.581 252.993C784.436 252.552 784.283 252.097 784.148 251.647C783.521 249.669 782.881 247.661 782.227 245.624C782.128 245.28 782.02 244.951 781.912 244.607C775.678 225.69 770.458 206.435 766.276 186.928C757.349 145.044 682.963 136.319 626.018 184.137C569.055 231.959 526.695 307.674 521.036 390.108C519.341 414.746 531.086 453.876 537.615 460.66C541.018 463.066 545.043 464.367 549.171 464.393C557.954 475.969 565.276 477.98 565.276 477.98C565.276 477.98 565.326 478.138 565.38 478.36C565.394 478.422 565.412 478.482 565.434 478.541C565.465 478.684 565.511 478.827 565.565 479.017C565.566 479.039 565.573 479.062 565.583 479.082C565.776 479.737 566.07 480.693 566.476 481.849L566.498 481.91C567.794 485.646 569.41 489.256 571.327 492.696C571.361 492.75 571.392 492.806 571.419 492.863C571.739 493.425 572.073 493.987 572.416 494.554C572.447 494.595 572.474 494.642 572.506 494.688C575.414 499.653 579.303 503.933 583.922 507.249C587.114 532.476 593.305 561.632 596.203 567.241C591.018 575.669 574.688 618.583 566.973 650.242L566.964 650.289C564.016 658.439 552.599 655.774 547.076 662.715C546.774 662.799 546.458 662.901 546.134 663.008L546.087 663.017C545.422 663.247 544.773 663.523 544.144 663.844C544.087 663.864 544.032 663.892 543.982 663.927C543.339 664.25 542.717 664.615 542.12 665.021C542.062 665.058 542.012 665.081 541.958 665.116C541.29 665.565 540.647 666.052 540.032 666.574C539.911 666.669 539.789 666.783 539.676 666.885C539.086 667.401 538.495 667.948 537.904 668.557C537.85 668.617 537.787 668.668 537.733 668.729C537.129 669.374 536.516 670.08 535.92 670.827C535.79 671.004 535.654 671.19 535.519 671.361C534.928 672.146 534.333 672.963 533.774 673.855L533.77 673.86L533.765 673.869C533.278 674.635 532.859 675.383 532.466 676.098L532.156 676.716C531.879 677.277 531.623 677.809 531.398 678.332C531.331 678.518 531.24 678.695 531.177 678.876C530.667 680.132 530.304 681.446 530.095 682.79C530.086 682.851 530.091 682.916 530.086 682.976C530.017 683.515 529.991 684.058 530.009 684.601C530.009 684.652 530.019 684.708 530.014 684.763C530.239 688.92 533.237 691.631 538.873 692.495C543.288 693.669 547.903 693.807 552.377 692.899C552.688 693.047 553.017 693.191 553.351 693.335C553.437 693.377 553.518 693.401 553.586 693.43C553.973 693.607 554.371 693.763 554.776 693.932C555.141 694.08 555.52 694.238 555.894 694.387C556.016 694.421 556.135 694.464 556.25 694.517C556.881 694.763 557.543 695.004 558.239 695.255C558.618 695.395 558.996 695.52 559.393 695.664C560.367 695.997 561.378 696.337 562.459 696.676C562.802 696.771 563.151 696.89 563.521 697.009C563.854 697.104 564.148 697.204 564.499 697.311C564.481 697.418 564.486 697.52 564.477 697.631C564.339 698.698 564.41 699.783 564.684 700.821H564.693C565.717 704.48 569.616 706.022 575.325 706.435C583.72 707.048 595.65 708.218 602.44 704.369C602.499 704.378 602.571 704.378 602.634 704.383C603.527 704.471 604.415 704.55 605.326 704.629C606.403 704.722 607.458 704.819 608.558 704.898L608.616 704.903C608.666 704.908 608.724 704.908 608.77 704.917C610.83 705.07 612.918 705.209 615.077 705.316C615.724 705.353 616.394 705.372 617.048 705.395C618.928 705.474 620.841 705.541 622.787 705.595C623.531 705.604 624.284 705.627 625.037 705.642C627.17 705.675 629.325 705.69 631.534 705.675C637.233 711.479 656.657 715.742 671.022 703.404C679.413 701.788 684.088 699.045 686.523 694.28C686.955 693.417 687.313 692.515 687.591 691.587C688.219 689.454 688.599 687.251 688.723 685.025C688.862 683.168 688.894 681.135 688.872 678.924C688.863 678.186 688.836 677.433 688.795 676.663C694.52 645.12 691.095 587.482 702.303 564.506C717.57 533.196 711.524 512.941 708.539 499.216C706.438 489.594 730.131 453.385 753.356 412.073C753.563 411.702 753.766 411.326 753.983 410.959C755.488 408.256 756.999 405.554 758.491 402.823C758.595 402.642 758.694 402.457 758.794 402.266C760.169 399.764 761.527 397.249 762.87 394.721C763.126 394.245 763.388 393.77 763.641 393.294C765.029 390.675 766.401 388.047 767.757 385.41L767.793 385.336C780.088 374.59 790.025 364.802 792.415 360.002C796.346 351.023 798.339 341.274 798.258 331.425Z" fill="black"/>
<path d="M975.419 377.114C984.422 241.193 947.636 138.704 855.306 73.8872C762.977 9.07884 604.283 -20.8519 474.561 15.989C285.262 69.7409 300.623 10.5238 175.654 105.439C50.6856 200.355 100.773 522.791 301.994 537.446C301.994 537.446 333.65 549.876 393.178 545.434C452.707 540.992 494.105 600.741 627.313 596.263C760.521 591.785 965.468 527.086 975.419 377.114Z" fill="#48454C"/>
<path opacity="0.1" d="M627.313 596.262C760.514 591.776 965.468 527.089 975.419 377.117C976.583 359.429 976.963 342.315 976.56 325.775C970.113 339.501 971.614 355.052 967.06 369.781C962.055 385.93 952.005 410.192 931.879 408.678C925.445 408.318 919.34 405.637 914.633 401.105C910.552 396.457 911.617 387.398 907.527 383.409C897.693 373.811 883.383 401.852 878.306 408.219C858.915 432.555 831.974 457.007 799.75 460.206C777.653 462.407 786.017 437.839 790.742 425.329C793.808 417.218 798.285 408.785 795.07 400.028C791.007 388.986 786.377 390.566 780.872 397.808C773.081 408.028 768.378 418.448 759.158 427.74C742.002 444.204 721.728 456.841 699.607 464.859C688.195 469.381 676.599 483.033 663.762 476.504C648.681 468.852 662.7 458.451 658.897 446.606C650.452 448.808 642.649 453.082 636.155 459.063C625.064 469.529 614.725 479.912 599.562 483.966C585.923 487.606 560.638 492.426 555.156 475.283C553.275 469.418 557.392 467.942 551.071 464.58C544.641 461.176 540.579 466.298 535.867 469.864C524.257 478.617 498.643 487.954 489.79 470.964C482.112 456.24 508.396 446.229 500.94 436.687C494.321 428.199 480.998 432.443 474.929 437.634C469.83 441.999 463.626 450.352 456.587 446.958C444.211 440.991 458.765 421.164 446.177 412.889C435.121 405.632 433.277 418.972 426.866 427.182C416.721 440.155 400.76 450.032 386.661 457.879C355.84 475.027 322.813 475.32 288.353 474.317C266.838 473.704 253.928 472.924 236.245 460.735C223.598 452.005 210.419 443.916 198.223 434.519C188.839 427.605 180.221 419.651 172.523 410.8C167.794 404.991 164.529 398.207 159.498 392.57C149.898 381.853 137.901 373.532 127.675 363.414C123.766 359.555 120.073 355.571 116.502 351.504C138.545 445.816 201.374 530.121 301.996 537.448C301.996 537.448 333.652 549.879 393.18 545.436C452.709 540.994 494.107 600.743 627.313 596.262Z" fill="#AE5862"/>
<path opacity="0.2" d="M974.263 289.212C830.439 314.56 782.7 535.442 589.316 520.582C305.311 498.767 408.489 376.237 326.903 284.577C269.813 220.419 163.524 199.051 107.647 275.876C108.008 395.907 174.787 528.184 301.992 537.447C301.992 537.447 333.648 549.878 393.177 545.435C452.705 540.993 494.103 600.742 627.311 596.264C760.52 591.786 965.466 527.091 975.417 377.119C977.513 347.838 977.127 318.424 974.263 289.212Z" fill="black"/>
<path d="M944.947 233.338C966.097 246.934 1010.13 334.671 984.403 394.26C958.665 453.844 909.197 521.61 912.191 535.326C915.18 549.067 921.213 569.306 905.95 600.621C890.689 631.922 902.58 727.687 881.495 733.914C860.408 740.155 776.491 733.362 767.929 719.561C759.372 705.78 792.1 615.963 799.851 603.353C796.956 597.743 790.766 568.593 787.582 543.366C773.795 533.925 768.925 514.089 768.925 514.089C768.925 514.089 746.612 508.039 733.171 455.462C719.731 402.885 809.076 145.992 944.947 233.338Z" fill="#48454C"/>
<path opacity="0.1" d="M935.483 227.817C804.95 157.981 720.046 404.126 733.171 455.459C746.611 508.036 768.925 514.086 768.925 514.086C768.925 514.086 773.795 533.923 787.582 543.363C790.766 568.591 796.955 597.742 799.851 603.351C790.824 622.393 783.296 642.151 777.339 662.434C799.269 643.15 820.375 625.184 823.143 620.652C827.467 613.539 827.345 618.227 823.175 602.423C819.541 585.101 821.21 567.045 827.954 550.741C781.051 498.253 844.965 257.182 935.483 227.817Z" fill="black"/>
<path opacity="0.1" d="M903.18 540.378C909.69 560.768 909.136 572.218 900.651 595.574C893.923 614.078 895.506 642.375 895.412 684.95C897.373 654.377 897.567 617.802 905.948 600.622C921.211 569.307 915.178 549.066 912.189 535.326C910.457 527.4 926.265 501.402 944.873 469.358C921.905 498.244 898.284 525.051 903.18 540.378Z" fill="black"/>
<path opacity="0.1" d="M885.653 533.794C873.804 541.019 848.718 554.953 821.233 552.952C810.935 552.2 825.561 558.919 846.22 557.271C866.893 555.622 898.877 525.765 885.653 533.794Z" fill="white"/>
<path opacity="0.2" d="M944.947 233.339C809.076 145.992 719.732 402.887 733.171 455.46C746.611 508.033 768.925 514.087 768.925 514.087C770.122 518.434 771.758 522.639 773.808 526.634C784.796 500.102 849.88 492.7 872.297 494.334C898.578 496.247 905.207 477.376 931.961 460.405C947.243 450.719 957.264 443.721 965.173 433.371C970.412 423.643 975.448 413.799 979.979 404.048C980.256 403.31 980.525 402.604 980.791 401.824L981.102 401.629C982.229 399.168 983.348 396.702 984.403 394.259C1010.13 334.671 966.099 246.935 944.947 233.339Z" fill="black"/>
<path d="M724.687 426.225C722.996 450.863 734.733 489.993 741.262 496.763C747.8 503.547 783.322 501.857 820.67 494.441C858.007 487.031 897.499 473.704 915.964 463.567C934.428 453.431 989.925 408.411 996.079 396.118C1006.34 375.589 993.681 341.117 989.871 314.352C985.443 283.32 989.077 266.302 969.929 223.045C925.617 122.924 886.621 172.432 829.666 220.25C772.711 268.067 730.346 343.778 724.687 426.225Z" fill="#48454C"/>
<path opacity="0.1" d="M989.869 314.352C989.535 312.035 989.264 309.835 989.007 307.67C985.481 311.743 982.266 316.092 979.39 320.676C969.615 335.544 972.181 353.184 967.059 369.78C962.054 385.929 952.004 410.191 931.878 408.677C925.444 408.317 919.338 405.636 914.632 401.104C910.551 396.456 911.615 387.397 907.526 383.408C897.692 373.81 883.382 401.851 878.305 408.218C862.664 427.845 839.408 454.401 812.396 453.721C805.204 453.536 801.508 450.708 801.291 443.343C801.047 435.204 805.854 424.807 809.006 417.549C812.206 410.179 820.395 401.307 821.675 393.715C810.179 391.76 807.342 409.489 800.173 413.617C804.988 395.298 811.774 376.925 813.104 357.529C814.027 344.105 818.122 321.264 811.012 309.187C804.091 310.705 804.663 325.666 803.604 331.378C799.903 349.362 793.709 366.705 785.213 382.872C777.976 397.341 770.505 416.291 759.157 427.737C749.422 437.412 738.423 445.638 726.478 452.177C729.836 472.185 736.773 492.106 741.261 496.763C747.799 503.547 783.322 501.857 820.669 494.441C858.007 487.03 897.498 473.704 915.963 463.567C934.428 453.43 989.924 408.411 996.079 396.118C1006.33 375.59 993.678 341.117 989.869 314.352Z" fill="#AE5862"/>
<path opacity="0.03" d="M811.469 283.998C803.349 293.647 834.242 431.008 678.073 523.309C655.344 544.269 743.599 499.372 784.804 444.288C826.009 389.204 815.878 278.782 811.469 283.998Z" fill="white"/>
<path opacity="0.2" d="M803.94 546.368C813.742 549.948 864.195 553.003 894.742 515.61C925.284 478.203 886.621 516.78 859.091 531.704C821.403 552.136 791.631 541.859 803.94 546.368Z" fill="black"/>
<path opacity="0.2" d="M803.313 604.962C813.827 612.615 842.075 616.227 864.668 614.5C870.354 615.252 839.013 620.393 822.146 617.648C805.292 614.9 796.099 599.706 803.313 604.962Z" fill="black"/>
<path d="M770.612 686.398C767.442 695.169 754.457 691.395 749.566 700.584C744.669 709.764 746.409 722.64 752.023 726.8C757.64 730.979 788.02 742.305 836.579 741.789C885.149 741.274 892.871 738.622 892.519 715.043C892.167 691.464 878.141 657.024 840.294 654.261C802.439 651.508 773.466 678.5 770.612 686.398Z" fill="#48454C"/>
<path opacity="0.05" d="M843.822 663.966C859.156 663.483 869.492 680.023 875.234 690.911C880.976 701.8 836.77 688.106 807.463 686.649C778.157 685.191 808.261 665.099 843.822 663.966Z" fill="white"/>
<g opacity="0.2">
<path d="M776.337 731.996C775.383 729.588 775.009 726.977 775.249 724.388C775.488 721.799 776.333 719.308 777.712 717.128C775.637 719.277 774.297 722.062 773.893 725.063C773.613 729.215 771.756 721.873 770.137 721.702C768.505 721.525 765.759 723.29 766.314 720.072C767.071 715.971 766.701 711.733 765.245 707.837C763.491 703.881 767.32 719.705 762.089 724.326C760.186 725.523 757.987 726.127 755.757 726.066C753.528 726.005 751.363 725.281 749.523 723.982C750.178 725.074 751.025 726.03 752.021 726.8C761.036 731.647 770.753 734.957 780.796 736.603C779.779 736.203 778.855 735.586 778.086 734.792C777.317 733.998 776.721 733.045 776.337 731.996Z" fill="black"/>
<path d="M834.452 725.055C835.854 720.128 831.03 730.743 830.399 733.785C829.781 736.828 826.593 730.938 822.716 729.973C818.843 729.022 813.811 736.743 814.359 732.359C814.847 727.219 814.135 722.034 812.281 717.235C810.563 713.721 816.391 735.609 808.588 737.314C803.425 738.368 798.17 738.874 792.906 738.823C807.366 741.001 821.971 741.993 836.583 741.79C885.153 741.274 892.874 738.623 892.523 715.044L892.509 714.779C889.98 721.355 884.281 725.166 879.069 721.28C872.744 716.558 887.536 730.307 875.538 735.684C863.513 741.057 838.513 739.993 835.149 738.813C831.783 737.643 833.045 729.973 834.452 725.055Z" fill="black"/>
</g>
<path opacity="0.2" d="M780.6 698.364C777.11 697.38 772.304 690.963 772.854 694.037C773.798 703.743 772.026 713.524 767.75 722.228C766.817 724.614 765.099 726.585 762.897 727.798C760.694 729.011 758.148 729.388 755.703 728.863C760.994 731.21 766.465 733.102 772.06 734.519C769.336 721.842 783.741 700.06 790.312 697.785C787.94 697.213 784.076 699.358 780.6 698.364Z" fill="black"/>
<path d="M809.31 737.782C816.438 728.49 805.884 706.457 799.093 705.111C792.303 703.783 777.799 712.016 771.18 724.868C764.552 737.721 769.02 741.831 778.975 742.551C788.931 743.28 803.913 744.821 809.31 737.782Z" fill="#2D3238"/>
<path opacity="0.1" d="M792.672 734.56C792.424 725.924 801.77 708.098 798.447 707.271C791.824 705.604 783.077 710.828 776.363 717.315C774.339 719.603 772.598 722.141 771.179 724.869C768.805 728.386 767.79 732.687 768.333 736.933C774.592 741.86 792.888 742.213 792.672 734.56Z" fill="white"/>
<path opacity="0.1" d="M797.978 708.594C797.018 707.833 786.197 711.538 778.541 738.567C778.208 740.299 788.781 739.043 790.241 736.951C791.689 734.866 791.224 728.189 793.041 721.572C794.863 714.946 799.489 709.773 797.978 708.594Z" fill="white"/>
<path d="M876.981 737.416C884.267 729.884 870.858 710.86 856.331 709.802C841.804 708.743 832.074 732.122 833.62 739.213C835.167 746.303 860.474 754.455 876.981 737.416Z" fill="#2D3238"/>
<path opacity="0.1" d="M861.479 711.984C866.609 713.981 875.645 722.134 874.392 730.817C873.138 739.5 858.593 741.144 854.792 740.87C850.975 740.587 845.511 705.743 861.479 711.984Z" fill="white"/>
<path d="M756.563 699.59C753.008 696.609 743.934 699.637 737.419 709.973C730.913 720.304 732.91 727.121 742.527 728.611C752.145 730.102 758.588 731.481 762.128 722.027C763.41 718.134 763.568 713.941 762.58 709.958C761.592 705.975 759.502 702.373 756.563 699.59Z" fill="#2D3238"/>
<path opacity="0.1" d="M756.106 700.816C755.852 700.245 755.475 699.742 755.002 699.345C754.53 698.948 753.976 698.668 753.382 698.527C749.026 698.384 742.457 701.991 737.416 709.973C733.129 716.78 732.56 722.05 735.401 725.287C737.782 726.801 740.5 726.782 740.748 725.417C742.388 719.303 744.851 713.457 748.067 708.047C751.209 702.534 756.367 701.378 756.106 700.816Z" fill="white"/>
<path opacity="0.2" d="M830.694 741.766C821.532 730.315 837.678 706.393 842.385 705.011C844.832 704.273 846.006 703.917 842.137 703.864C838.255 703.813 826.226 709.506 822.024 708.587C817.822 707.667 808.362 699.1 810.59 703.089C821.054 722.465 817.29 734.004 812.206 741.016C817.998 741.45 824.188 741.701 830.694 741.766Z" fill="black"/>
<path d="M467.72 552.274C496.883 557.158 548.67 539.333 579.117 493.08C609.565 446.827 571.894 377.892 474.519 382.516C377.13 387.128 366.106 506.318 367.31 517.541C368.496 528.769 382.617 538.033 467.72 552.274Z" fill="#48454C"/>
<path opacity="0.05" d="M519.613 496.595C519.974 481.008 506.466 434.179 436.481 436.176C423 436.872 434.105 427.892 461.257 428.862C488.399 429.828 515.28 440.095 524.388 461.1C533.505 482.122 519.244 512.104 519.613 496.595Z" fill="white"/>
<path opacity="0.2" d="M564.691 508.677C539.487 532.322 520.605 532.656 530.434 510.683C540.272 488.716 535.143 441.854 530.939 480.72C526.728 519.59 516.376 543.777 501.001 542.653C498.066 542.444 508.043 535.572 511.158 518.907C514.269 502.251 514.323 468.15 479.39 451.483C444.469 434.818 397.944 464.011 392.168 494.372C386.406 524.721 380.337 528.287 372.542 517.589C365.58 508.023 376.338 476.84 371.698 483.576C368.832 494.657 367.356 506.071 367.307 517.538C368.492 528.765 382.614 538.031 467.717 552.27C494.796 556.802 541.38 541.735 572.274 502.521C569.531 504.275 566.987 506.34 564.691 508.677Z" fill="black"/>
<path d="M447.699 445.258C487.448 448.151 524.929 498.61 496.795 548.345C500.568 583.287 463.615 631.931 464.647 644.603C465.675 657.284 458.349 687.828 455.657 699.344C452.965 710.845 462.51 724.149 440.737 729.767C418.956 735.39 364.26 728.699 359.161 713.023C354.048 697.332 364.486 676.939 367.673 658.255C370.847 639.579 370.487 624.246 372.39 617.179C364.269 603.983 387.778 543.818 386.186 521.377C384.366 495.536 386.2 440.778 447.699 445.258Z" fill="#48454C"/>
<path opacity="0.1" d="M471.122 495.049C464.578 488.398 456.368 483.751 447.408 481.628C438.447 479.505 429.09 479.99 420.382 483.028C405.364 488.721 438.002 483.65 457.615 492.834C477.236 502.028 477.795 502.376 471.122 495.049Z" fill="white"/>
<path opacity="0.1" d="M447.697 445.258C386.199 440.777 384.363 495.537 386.184 521.377C387.776 543.819 364.267 603.983 372.388 617.179C372.324 617.444 372.252 617.746 372.198 618.029C389.656 557.103 434.527 487.48 444.473 480.445C450.934 475.862 471.927 470.736 486.224 464.082C475.928 453.341 462.288 446.676 447.697 445.258Z" fill="black"/>
<path opacity="0.2" d="M498.568 530.143C497.837 518.393 494.637 506.946 489.19 496.594C479.144 477.399 445.148 475.829 464.455 487.707C483.747 499.58 494.939 530.786 496.791 548.345C505.716 533.362 508.654 515.4 504.988 498.234C506.481 517.499 499.344 531.852 498.568 530.143Z" fill="black"/>
<path opacity="0.2" d="M376.311 636.375C383.178 640.052 403.648 644.445 425.448 639.732C436.373 637.145 410.565 650.124 393.156 648.851C375.752 647.588 372.551 634.364 376.311 636.375Z" fill="black"/>
<path opacity="0.1" d="M377.054 615.099C376.752 611.263 387.226 596.084 415.347 604.206C443.486 612.336 430.735 635.391 423.62 636.393C416.519 637.387 392.465 639.012 381.031 633.621C369.597 628.23 387.235 614.825 401.834 617.244C408.791 618.586 391.275 618.749 388.475 624.58C385.675 630.412 412.331 633.877 419.842 629.525C427.349 625.184 418.454 614.058 400.346 612.401C382.275 610.752 377.581 621.72 377.054 615.099Z" fill="white"/>
<path d="M348.304 697.686C345.599 705.195 334.485 701.963 330.291 709.829C326.098 717.686 327.586 728.7 332.402 732.275C337.213 735.837 363.205 745.537 404.772 745.1C446.346 744.664 460.793 742.96 460.49 722.779C460.197 702.599 440.354 672.542 407.959 670.183C375.564 667.825 350.748 690.925 348.304 697.686Z" fill="#48454C"/>
<path opacity="0.1" d="M494.448 474.07C496.021 486.031 493.446 496.323 487.098 501.29C475.339 510.451 494.037 582.41 434.864 645.012C431.956 653.542 452.665 707.443 441.618 743.009C455.325 740.553 460.681 735.139 460.492 722.778C460.186 715.872 458.367 709.126 455.172 703.046C455.224 701.799 455.385 700.561 455.654 699.345C458.346 687.829 465.673 657.285 464.645 644.604C463.612 631.932 500.564 583.288 496.792 548.346C503.578 537.115 506.978 524.063 506.56 510.842C506.143 497.621 501.928 484.824 494.448 474.07Z" fill="black"/>
<path opacity="0.05" d="M401.875 677.46C414.995 677.043 423.851 691.196 428.769 700.529C433.675 709.848 395.824 698.133 370.746 696.884C345.678 695.63 371.445 678.422 401.875 677.46Z" fill="white"/>
<g opacity="0.2">
<path d="M353.203 736.718C352.387 734.654 352.069 732.417 352.277 730.198C352.484 727.98 353.21 725.847 354.393 723.981C352.612 725.823 351.463 728.213 351.12 730.788C350.872 734.335 349.29 728.049 347.897 727.9C346.503 727.751 344.157 729.265 344.632 726.516C345.284 723.003 344.964 719.371 343.709 716.036C342.216 712.646 345.49 726.2 341.017 730.147C339.388 731.173 337.505 731.692 335.596 731.64C333.687 731.588 331.834 730.968 330.26 729.854C330.818 730.792 331.545 731.612 332.401 732.269C340.117 736.418 348.433 739.255 357.028 740.669C356.156 740.325 355.365 739.794 354.706 739.113C354.047 738.433 353.535 737.616 353.203 736.718Z" fill="black"/>
<path d="M402.96 730.77C404.15 726.554 400.025 735.65 399.502 738.246C398.965 740.846 396.224 735.808 392.919 734.986C389.614 734.164 385.29 740.781 385.75 737.025C386.18 732.629 385.574 728.191 383.983 724.088C382.505 721.075 387.5 739.815 380.808 741.273C376.389 742.165 371.894 742.598 367.391 742.564C379.767 744.425 392.266 745.272 404.773 745.099C446.347 744.663 460.794 742.96 460.491 722.779C460.501 722.695 457.047 727.663 457.047 727.581C454.869 733.209 445.604 730.878 441.149 727.558C435.734 723.509 448.404 735.271 438.124 739.868C427.844 744.465 406.432 743.559 403.555 742.556C400.679 741.553 401.756 734.995 402.96 730.77Z" fill="black"/>
</g>
<path opacity="0.2" d="M356.854 707.939C353.873 707.089 349.752 701.586 350.235 704.23C351.032 712.536 349.513 720.904 345.857 728.352C345.064 730.397 343.595 732.089 341.709 733.127C339.823 734.165 337.642 734.484 335.55 734.027C340.075 736.048 344.758 737.67 349.549 738.877C347.223 728.025 359.545 709.387 365.163 707.431C363.139 706.945 359.829 708.779 356.854 707.939Z" fill="black"/>
<path d="M381.434 741.668C387.539 733.715 378.503 714.862 372.687 713.715C366.87 712.568 354.458 719.608 348.795 730.622C343.123 741.627 346.948 745.137 355.468 745.755C364.001 746.377 376.812 747.691 381.434 741.668Z" fill="#2D3238"/>
<path opacity="0.1" d="M367.196 738.92C366.984 731.518 374.987 716.269 372.151 715.545C366.466 714.128 358.972 718.605 353.233 724.158C351.506 726.12 350.016 728.291 348.796 730.622C346.765 733.634 345.897 737.318 346.362 740.953C351.713 745.151 367.372 745.468 367.196 738.92Z" fill="white"/>
<path opacity="0.1" d="M371.752 716.677C370.909 716.027 361.648 719.203 355.097 742.341C354.82 743.836 363.866 742.745 365.116 740.962C366.365 739.179 365.964 733.449 367.517 727.793C369.074 722.12 373.028 717.689 371.752 716.677Z" fill="white"/>
<path d="M439.361 741.358C445.619 734.917 434.131 718.624 421.695 717.714C409.26 716.813 400.932 736.821 402.254 742.895C403.575 748.968 425.23 755.943 439.361 741.358Z" fill="#2D3238"/>
<path opacity="0.1" d="M426.086 719.575C430.486 721.293 438.219 728.268 437.15 735.697C436.077 743.14 423.623 744.547 420.369 744.311C417.115 744.074 412.424 714.244 426.086 719.575Z" fill="white"/>
<path d="M336.289 708.975C333.245 706.426 325.472 709.026 319.898 717.872C314.317 726.713 316.025 732.545 324.267 733.822C332.5 735.094 338.01 736.278 341.04 728.185C342.138 724.853 342.274 721.264 341.431 717.854C340.587 714.444 338.801 711.36 336.289 708.975Z" fill="#2D3238"/>
<path opacity="0.1" d="M335.893 710.025C335.675 709.535 335.35 709.104 334.945 708.764C334.539 708.425 334.063 708.185 333.553 708.065C330.682 708.456 327.944 709.551 325.568 711.258C323.193 712.964 321.249 715.232 319.901 717.872C316.23 723.695 315.746 728.204 318.178 730.976C320.21 732.257 322.529 732.253 322.749 731.083C324.157 725.852 326.263 720.849 329.007 716.214C331.7 711.501 336.123 710.517 335.893 710.025Z" fill="white"/>
<path opacity="0.2" d="M399.754 745.087C391.909 735.28 405.714 714.803 409.754 713.619C411.855 712.992 412.856 712.695 409.533 712.643C406.224 712.588 395.922 717.477 392.319 716.679C388.726 715.889 380.623 708.558 382.535 711.975C391.484 728.566 388.275 738.433 383.92 744.446C388.874 744.812 394.172 745.03 399.754 745.087Z" fill="black"/>
<path d="M457.19 714.657C459.782 714.461 470.649 726.855 470.982 734.121C471.429 743.803 464.749 742.624 455.355 742.201C445.151 741.737 445.395 730.305 447.699 722.949C450.012 715.596 453.069 714.978 457.19 714.657Z" fill="#2D3238"/>
<path opacity="0.1" d="M458.201 715.638C454.77 713.223 450.753 720.704 450.708 722.733C450.681 724.757 458.229 733.431 459.676 736.672C461.123 739.923 468.162 739.338 470.308 736.677C472.458 733.993 467.476 722.189 458.201 715.638Z" fill="white"/>
<path opacity="0.03" d="M855.305 73.8886C762.975 9.0803 604.281 -20.8504 474.56 15.9905C285.26 69.7424 300.622 10.5253 175.653 105.441C132.77 138.011 110.501 197.38 107.882 261.914C127.919 257.804 147.658 247.788 164.94 238.288C179.832 230.102 179.277 224.483 191.469 211.189C215.844 184.661 220.447 203.509 244.839 209.132C271.076 215.187 253.027 210.135 270.228 193.27C300.969 163.139 313.485 223.606 346.331 207.827C347.404 192.279 337.598 178.704 342.237 162.554C376.549 159.782 382.635 203.676 404.843 200.602C414.428 199.283 415.168 183.306 424.361 181.597C440.466 178.592 458.348 198.503 465.805 210.446C478.443 230.733 485.477 300.5 516.543 247.772C526.931 230.164 522.36 198.686 524.775 178.557C547.495 177.499 540.439 206.348 554.736 212.644C575.634 221.838 576.188 199.711 576.797 185.049C579.98 185.36 583.15 185.207 586.383 185.801C589.755 191.84 608.183 223.686 618.729 212.198C625.09 205.266 611.42 179.625 614.63 168.89C648.626 165.894 670.335 194.405 686.885 220.403C693.995 231.562 693.534 249.703 712.779 242.966C725.372 238.554 723.384 228.046 723.924 215.519C724.731 197.038 712.585 161.911 747.126 181.522C765.004 191.672 767.398 227.607 790.852 226.835C791.564 214.906 786.876 204.392 788.657 192.311C814.081 194.113 847.754 215.84 862.099 237.701C875.224 257.681 871.96 280.197 902.944 275.53C909.716 247.524 889.653 231.32 887.339 207.602C957.24 215.951 926.479 372.298 956.693 371.296C956.855 362.106 960.173 354.217 961.869 345.483C968.136 346.834 972.68 354.993 976.017 366.425C982.415 235.813 945.2 136.992 855.305 73.8886Z" fill="white"/>
<path opacity="0.05" d="M855.305 73.8886C762.975 9.0803 604.281 -20.8504 474.559 15.9905C321.677 59.4021 302.267 29.1452 234.649 65.8881C252.71 68.2652 270.914 69.2971 289.12 68.9759C318.922 69.4685 343.202 72.4945 370.957 84.0963C399.398 95.9786 423.575 104.378 445.798 127.006C453.909 135.262 473.505 167.984 484.515 149.628C498.699 125.997 449.617 101.119 461.322 81.9419C475.367 81.5563 494.772 101.672 506.522 97.6328C520.341 92.8917 501.443 79.7884 505.741 67.7758C511.974 50.3494 552.763 57.4816 565.798 63.931C578.368 70.1442 591.422 90.1059 605.376 90.0964C605.132 77.1975 589.744 58.2058 613.586 63.9448C628.965 67.6598 638.452 86.4052 656.455 84.8076C657.145 75.9018 643.47 70.9054 649.782 63.3414C655.012 57.0589 697.818 67.9708 704.166 70.0557C728.802 78.1537 752.383 108.131 777.587 106.237C774.313 96.8901 766.405 91.3317 773.616 82.8158C781.886 73.0461 792.26 80.6614 800.142 86.1266C815.597 96.8668 819.502 112.478 827.094 129.607C831.417 130.966 835.979 131.315 840.449 130.629C843.681 116.079 824.723 86.7024 855.793 104.031C873.611 113.978 889.054 142.154 909.673 145.033C917.014 146.054 921.269 144.717 923.385 141.942C904.815 115.257 881.758 92.2087 855.305 73.8886Z" fill="white"/>
<path opacity="0.05" d="M671.131 113.836C665.851 107.372 668.176 98.7031 677.141 102.614C683.859 105.54 687.575 114.302 690.654 120.663C693.566 126.662 695.992 136.446 686.109 134.514C680.618 133.436 676.104 126.389 671.131 113.836Z" fill="white"/>
<path opacity="0.05" d="M613.031 105.219C617.697 101.652 625.556 114.278 624.555 118.717C623.721 122.441 619.095 122.891 615.745 122.97C611.826 123.077 609.663 120.105 608.314 116.521C607.21 113.605 606.908 109.644 613.031 105.219Z" fill="white"/>
<path opacity="0.2" d="M374.941 502.232C416.706 437.74 477.452 377.887 494.86 309.076C510.413 243.902 500.203 175.035 466.473 117.611C436.273 67.2441 367.822 30.1389 298.576 47.7555C229.331 65.3722 136.46 128.082 125.124 277.729C113.788 427.376 295.93 624.241 374.941 502.232Z" fill="black"/>
<path d="M295.006 500.784C347.862 504.635 356.189 505.59 469.701 362.569C583.205 219.552 415.989 -31.0465 231.46 64.2546C46.9303 159.556 102.036 358.478 109.791 410.168C117.552 461.872 125.346 488.428 295.006 500.784Z" fill="#48454C"/>
<path opacity="0.1" d="M466.614 360.224C461.479 364.895 458.129 374.089 453.647 379.623C448.968 386.06 443.692 392.013 437.894 397.398C431.738 401.778 425.092 405.377 418.1 408.12C412.153 410.962 407.347 415.229 400.12 413.455C397.739 389.407 380.231 428.978 371.921 426.392C368.31 425.273 363.765 409.1 361.93 404.856C357.371 393.929 351.159 383.815 343.525 374.892C327.772 356.435 302.541 355.185 299.033 384.759C297.82 395.016 299.434 403.992 295.471 413.901C292.637 420.423 288.876 426.475 284.312 431.857C273.583 445.61 265.984 461.666 262.075 478.843C260.488 485.022 259.646 491.379 259.568 497.77C270.529 498.852 282.297 499.86 295.003 500.783C347.682 504.623 356.15 505.566 468.554 364.012C468.414 362.536 467.718 361.176 466.614 360.224Z" fill="#AE5862"/>
<path opacity="0.03" d="M231.455 64.2543C134.698 114.222 103.843 192.686 97.4824 263.479C121.023 261.292 144.671 249.423 164.936 238.288C179.829 230.102 179.274 224.483 191.466 211.189C215.84 184.662 220.443 203.509 244.835 209.132C271.072 215.187 253.023 210.135 270.224 193.271C300.965 163.139 313.481 223.607 346.327 207.828C347.4 192.279 337.594 178.704 342.233 162.555C376.545 159.783 382.632 203.676 404.839 200.603C414.425 199.284 415.164 183.306 424.358 181.597C440.462 178.593 458.344 198.503 465.802 210.447C476.952 228.333 483.737 284.704 506.506 261.589C511.601 128.95 376.925 -10.8806 231.455 64.2543Z" fill="white"/>
<path opacity="0.05" d="M231.459 64.2544C211.269 74.515 192.388 87.3054 175.244 102.335C176.336 102.191 177.443 102.232 178.522 102.456C196.535 106.82 157.195 125.268 173.481 131.932C180.884 134.968 195.204 130.251 203.699 131.346C210.976 132.28 217.518 135.08 224.777 133.65C229.033 101.722 279.59 144.009 293.319 141.344C294.284 130.627 288.125 118.652 306.164 122.599C313.509 124.209 335.886 134.95 327.256 117.783C325.349 113.962 317.828 110.256 320.792 104.731C325.243 96.3585 354.063 103.625 359.766 104.87C372.977 107.958 385.862 112.369 398.239 118.041C405.325 122.017 413.211 124.241 421.274 124.537C423.249 113.629 409.867 106.465 411.977 98.0141C439.192 94.9306 456.429 133.723 467.209 152.717C473.278 163.397 477.746 160.435 480.776 153.431C435.366 67.5324 336.215 10.1497 231.459 64.2544Z" fill="white"/>
<path opacity="0.1" d="M360.406 451.977C358.9 425.083 342.069 376.522 340.473 360.391C338.868 344.264 283.681 257.029 184.773 285.4C109.009 307.141 123.535 419.376 165.949 481.008C192.618 489.858 232.987 496.266 295.002 500.784C312.411 502.051 324.981 503.012 338.061 498.606C347.844 493.368 357.335 487.568 366.489 481.235C374.957 473.858 383.004 465.982 390.589 457.647C382.634 465.982 361.912 478.844 360.406 451.977Z" fill="black"/>
<path opacity="0.1" d="M337.888 347.408C341.259 308.807 351.009 251.944 312.499 195.099C273.999 138.265 200.949 138.802 164.139 165.387C133.519 188.902 109.46 220.316 94.3889 256.462C86.9676 276.833 103.704 419.849 166.128 453.908C228.551 487.967 329.687 441.422 337.888 347.408Z" fill="black"/>
<path d="M46.2489 389.705C43.8823 392.676 40.6584 400.435 36.6366 401.717C34.4407 403.37 38.1739 411.854 40.6223 417.203C44.7655 426.323 46.8467 436.291 46.7094 446.358C45.9245 457.437 54.7975 430.056 52.9221 409.541C51.0555 389.036 47.773 387.791 46.2489 389.705Z" fill="#48454C"/>
<path opacity="0.05" d="M45.3141 425.217C45.4332 416.137 44.6003 407.07 42.8297 398.174C42.5727 397.183 42.5697 396.139 42.821 395.146L42.8078 395.151C41.4738 397.904 39.3627 400.176 36.752 401.671C36.9809 406.044 38.2623 410.29 40.4807 414.026C43.7541 420.764 44.6109 428.57 45.3141 425.217Z" fill="white"/>
<path d="M207.631 159.179C253.084 156.936 307.265 179.266 330.981 236.454C354.697 293.633 335.986 317.931 346.807 389.421C357.632 460.892 363.02 495.397 318.09 548.921C273.151 602.437 265.499 586.565 254.922 613.26C244.344 639.955 232.703 643.28 233.69 657.93C234.673 672.57 212.833 697.205 199.956 706.792C187.07 716.39 109.79 714.811 81.9802 712.331C54.1704 709.852 16.5989 703.04 7.67162 686.426C-1.2331 669.803 -1.47692 590.569 2.33299 579.8C6.12489 569.027 42.5374 557.721 43.994 536.547C44.4987 529.155 36.2209 492.077 46.6178 440.828C57.0332 389.588 32.2171 405.561 57.0739 361.955C81.926 318.34 70.1946 291.822 97.725 247.454C125.259 203.078 153.006 161.872 207.631 159.179Z" fill="#48454C"/>
<path opacity="0.03" d="M313.24 206.072C300.371 190.36 284.131 177.944 265.803 169.806C247.474 161.668 227.56 158.029 207.631 159.179C160.177 161.519 133.003 192.938 108.633 230.237C112.786 237.141 124.883 235.813 119.233 246.795C115.162 254.693 104.995 257.015 100.563 266.116C95.0353 277.474 100.639 273.244 104.102 279.865C110.044 291.2 95.1793 305.589 95.1387 318.855C100.599 317.29 105.887 313.821 111.735 315.702C111.14 321.632 104.76 328.578 112.272 331.875C119.946 335.246 127.362 325.028 130.832 319.955C135.344 313.185 138.72 305.682 140.819 297.76C142.645 291.626 143.461 279.233 148.718 275.75C149.994 283.746 142.248 293.659 143.455 303.423C144.177 309.241 148.916 328.539 154.619 331.857C166.481 338.729 165.561 321.033 167.888 314.825C171.874 304.206 175.918 308.7 184.715 311.639C206.888 319.041 187.614 292.905 194.78 282.024C209.587 259.534 236.066 290.563 252.235 276.182C266.217 263.738 233.884 257.089 238.348 245.685C243.668 242.467 258.827 246.599 260.382 241.687C262.267 235.766 248.686 231.123 261.342 226.698C269.156 223.963 285.406 229.34 292.656 232.553C299.266 235.492 307.079 244.152 314.564 239.216C315.801 231.797 304.204 210.414 313.24 206.072Z" fill="white"/>
<path opacity="0.1" d="M50.9189 378.332C48.917 381.536 46.5226 385.19 48.9396 397.774C51.3381 410.362 52.4837 416.032 57.4811 419.737C62.472 423.452 68.9194 395.82 68.6447 382.599C68.37 369.378 55.6213 370.851 50.9189 378.332Z" fill="white"/>
<path opacity="0.1" d="M306.374 201.41C285.557 177.45 246.201 156.17 194.936 162.563C143.672 168.966 105.564 236.755 104.333 240.396C103.107 244.017 128.969 193 171.301 176.011C213.634 159.03 288.97 192.374 311.266 221.019C333.571 249.655 326.74 224.845 306.374 201.41Z" fill="white"/>
<path opacity="0.2" d="M275.725 569.753C228.078 589.334 212.011 566.465 207.422 555.316C202.827 544.177 205.556 518.49 211.913 503.306C218.27 488.112 226.62 476.448 226.255 468.884C215.136 492.398 185.378 507.002 181.6 533.407C177.827 559.8 190.326 572.532 198.188 577.84C206.056 583.133 212.666 596.78 208.899 613.406C205.13 630.011 163.221 637.027 136.543 652.127C109.869 667.237 91.8835 646.174 79.1601 645.204C66.4367 644.233 49.312 656.158 34.5281 651.195C19.7349 646.222 17.5839 637.414 9.58549 630.69C2.97586 625.127 0.813181 602.904 1.195 585.965C-1.30738 607.812 -0.211688 671.691 7.67406 686.429C16.6014 703.043 54.1666 709.855 81.9823 712.334C109.798 714.814 187.072 716.393 199.958 706.795C212.835 697.206 234.677 672.573 233.693 657.932C232.705 643.282 244.347 639.963 254.924 613.263C265.501 586.564 273.153 602.439 318.092 548.924C330.799 534.676 340.848 518.137 347.733 500.136C347.044 501.513 322.711 550.455 275.725 569.753Z" fill="black"/>
<path opacity="0.2" d="M93.4155 647.472C96.6118 646.799 98.8257 652.988 101.499 650.746C103.145 649.38 102.74 647.676 101.351 646.269C100.409 645.322 99.2542 644.605 98.3036 643.706C97.654 643.107 96.9237 642.271 95.9906 642.211C94.1055 642.097 92.3605 643.878 93.4155 647.472Z" fill="black"/>
<path opacity="0.2" d="M103.782 641.748C103.769 642.282 104.562 643.076 104.972 643.304C105.306 643.127 105.211 642.714 105.414 642.426C105.603 642.152 105.82 642.096 105.968 641.767C106.383 641.105 106.692 640.379 106.884 639.617C106.956 638.646 105.738 638.066 104.936 638.321C104.564 638.467 104.224 638.688 103.937 638.972C103.651 639.256 103.423 639.597 103.268 639.974C103.137 640.392 103.34 640.921 103.782 641.748Z" fill="black"/>
<path opacity="0.2" d="M86.5235 643.034C87.7184 643.127 88.5029 643.168 89.2153 642.096C89.8284 641.192 90.2343 639.473 89.2246 638.683C88.5953 638.413 87.92 638.276 87.2385 638.28C86.5569 638.284 85.8831 638.429 85.2569 638.706C84.6797 638.901 84.3334 639.287 83.7281 639.352C83.2009 639.403 82.6372 639.3 82.1233 639.384C81.9389 639.429 81.7656 639.513 81.6149 639.631C81.4643 639.75 81.3395 639.899 81.2489 640.071C81.1582 640.242 81.1039 640.431 81.0891 640.626C81.0743 640.82 81.0994 641.016 81.1629 641.2C81.3938 641.91 82.0013 642.147 82.6283 642.384C83.9077 642.708 85.2103 642.925 86.5235 643.034Z" fill="black"/>
<path opacity="0.2" d="M74.0129 641.29C74.4459 641.276 75.2169 640.756 75.1716 640.296C75.113 639.868 74.1032 639.084 73.7288 638.838C72.8635 638.484 71.9032 638.462 71.0238 638.778C70.5504 638.904 70.0484 638.848 69.6123 638.62C69.0856 638.231 68.4769 637.977 67.8362 637.877C67.4996 637.858 67.1636 637.92 66.8538 638.057C66.5441 638.193 66.2691 638.402 66.0504 638.666C65.55 639.256 65.7577 639.997 65.9738 640.7C66.297 641.777 66.5374 642.479 67.7009 642.566C68.6025 642.595 69.4967 642.39 70.3022 641.972C70.6423 641.84 71.0026 641.77 71.3662 641.768C71.6368 641.777 71.8621 641.889 72.1147 641.884C72.7587 641.727 73.3928 641.528 74.0129 641.29Z" fill="black"/>
<path opacity="0.05" d="M78.9408 600.009C81.5964 600.589 84.2853 601.084 87.0072 601.494C87.6263 601.422 88.2397 601.303 88.8425 601.141C109.14 595.541 146.374 558.896 149.034 534.346C146.125 492.504 135.814 439.695 137.176 411.524C139.3 368.001 130.733 370.407 126.134 372.965C111.81 380.938 101.291 418.359 92.7871 440.425C88.1434 452.483 69.9187 487.425 55.8112 519.71C47.5736 554.053 62.0783 591.924 78.9408 600.009Z" fill="white"/>
<path opacity="0.05" d="M106.117 512.369C112.72 433.654 128.45 395.235 137.454 395.286C137.572 389.198 136.801 383.126 135.167 377.274C131.583 390.382 122.344 394.201 119.887 392.704C117.966 391.529 117.651 385.632 118.683 379.977C115.169 384.884 112.178 390.166 109.761 395.731C111.249 394.952 111.203 397.361 110.437 401.689C109.229 408.584 92.3797 476.587 85.4631 518.633C78.5557 560.674 62.7888 568.312 58.6451 559.908C57.4684 557.456 56.0041 555.162 54.2852 553.077C57.24 575.463 67.5456 594.543 78.9398 600.007C81.5955 600.588 84.2841 601.083 87.0059 601.493C87.625 601.42 88.2384 601.302 88.8413 601.14C100.632 597.885 118.13 584.15 131.259 568.404C131.229 568.423 131.197 568.439 131.164 568.452C108.246 580.162 101.496 567.542 106.117 512.369Z" fill="white"/>
<path opacity="0.2" d="M230.912 428.225C230.858 409.818 217.269 403.975 220.001 408.792C222.729 413.589 226.273 438.296 192.665 437.312C159.047 436.304 163.899 385.334 155.202 374.961C146.527 364.578 137.834 338.403 138.492 328.823C128.541 333.462 129.592 352.76 105.646 374.176C98.9819 380.119 92.9222 411.439 77.6673 428.229C64.8493 442.345 54.5964 435.877 49.2938 419.662C49.0885 425.515 48.4373 431.341 47.3463 437.089L47.3418 437.117C47.7112 453.74 58.095 464.963 62.3196 465.446C66.5487 465.921 85.6975 454.483 95.7657 417.726C105.834 380.969 108.548 379.613 118.769 369.147C128.522 359.187 131.826 347.578 134.13 348.844C134.204 349.729 134.335 350.609 134.523 351.476C136.877 361.813 151.421 379.102 149.735 397.408C148.04 415.717 146.85 474.404 175.336 476.481C203.837 478.555 230.967 446.626 230.912 428.225Z" fill="black"/>
<path opacity="0.1" d="M336.16 385.353C310.56 352.719 303.914 358.152 300.841 339.356C297.757 320.55 294.7 283.408 252.913 254.707C243.183 249.488 270.961 255.566 292.333 288.191C313.704 320.824 306.918 336.755 316.567 349.167C326.216 361.579 345.404 397.138 336.16 385.353Z" fill="black"/>
<path opacity="0.1" d="M271.184 272.306C283.409 286.081 291.866 302.95 295.693 321.191C300.328 344.496 300.851 348.782 303.255 351.982C305.658 355.181 324.748 373.29 327.771 378.236C330.793 383.181 312.062 364.598 302.571 357.15C293.08 349.702 292.011 324.804 287.3 307.405C282.591 290.015 265.367 265.215 271.184 272.306Z" fill="white"/>
<path opacity="0.2" d="M233.692 657.931C232.705 643.281 244.347 639.961 254.924 613.262C257.598 604.867 263.146 597.76 270.533 593.267C263.242 595.295 256.702 599.51 251.745 605.377C247.479 611.612 241.805 616.684 235.212 620.157C233.66 620.501 235.261 597.186 222.502 579.384C209.724 561.572 204.593 539.538 213.137 509.725C221.672 479.929 236.073 463.612 233.71 452.533C231.952 464.062 204.597 499.287 199.84 525.61C196.478 547.804 201.42 570.486 213.669 589.072C222.416 602.9 219.945 624.426 222.072 645.987C224.199 667.548 222.067 632.048 224.813 627.627C227.572 623.205 234.232 636.877 233.443 645.537C232.663 654.197 228.177 684.262 203.654 691.255C179.131 698.248 120.783 701.053 100.98 690.224C81.1783 679.41 88.1939 666.464 83.3563 660.456C78.5186 654.448 76.3268 676.16 77.048 683.51C77.765 690.874 30.148 696.734 12.2532 683.558C9.15399 681.278 6.45265 678.474 4.26367 675.264C4.90115 679.129 6.04788 682.887 7.67228 686.432C16.5996 703.046 54.1651 709.858 81.9808 712.337C109.797 714.817 187.07 716.396 199.956 706.798C212.835 697.206 234.675 672.57 233.692 657.931Z" fill="black"/>
<path opacity="0.2" d="M197.714 344.113C202.038 352.521 240.407 368.862 246.278 359.905C252.175 350.943 243.482 334.273 234.703 330.763C225.925 327.252 245.913 342.71 240.439 353.107C234.969 363.516 207.065 351.828 197.714 344.113Z" fill="black"/>
<path opacity="0.1" d="M203.063 328.306C197.373 330.252 196.23 339.445 210.038 347.373C202.404 340.235 200.601 333.177 203.063 328.306Z" fill="white"/>
<path d="M210.451 338.678C207.529 330.696 215.627 301.935 227.441 295.732C239.245 289.51 255.189 302.335 259.106 323.049C260.341 332.558 246.188 343.786 243.708 347.143C241.229 350.501 248.109 353.871 245.174 358.831C242.246 363.804 216.7 355.72 210.451 338.678Z" fill="#48454C"/>
<path d="M255.133 317.801C252.663 311.727 244.466 298.47 236.729 299.06C228.992 299.65 220.831 308.783 223.928 324.166C227.039 339.549 234.984 348.009 242.874 343.867C250.757 339.718 260.23 330.301 255.133 317.801Z" fill="#7C5862"/>
<path opacity="0.2" d="M256.09 320.872C245.463 323.582 235.859 326.56 235.138 331.036C234.351 335.508 234.694 340.113 236.135 344.409C237.234 344.807 238.401 344.964 239.562 344.871C240.723 344.778 241.853 344.438 242.879 343.87C250.107 340.063 258.624 331.83 256.09 320.872Z" fill="white"/>
<path opacity="0.2" d="M223.932 324.169C225.911 333.952 229.842 340.912 234.465 343.643C230.74 325.664 239.212 309.867 247.414 305.358C246.187 303.571 244.595 302.081 242.75 300.993C240.905 299.906 238.851 299.246 236.733 299.062C228.996 299.647 220.835 308.785 223.932 324.169Z" fill="black"/>
<path opacity="0.2" d="M215.067 372.096C211.037 367.922 263.671 376.749 252.382 355.255C250.542 349.762 260.425 362.986 258.32 374.223C256.227 385.469 221.051 378.295 215.067 372.096Z" fill="black"/>
<path opacity="0.1" d="M259.106 323.049C255.188 302.335 239.24 289.519 227.441 295.732C215.628 301.935 207.53 330.696 210.45 338.678C213.311 345.426 218.267 351.004 224.54 354.536C219.31 350.698 215.384 345.262 213.321 338.999C211.996 331.147 216.333 316.585 222.212 307.229C228.105 297.868 238.173 292.189 249.373 305.826C259.982 318.763 253.697 328.407 245.143 345.509C249.514 340.974 260.182 331.361 259.106 323.049Z" fill="white"/>
<path opacity="0.2" d="M85.8657 313.772C78.6383 330.252 71.5098 337.342 71.1492 329.666C70.7978 321.991 64.2871 337.528 65.5 346.594C66.7129 355.66 86.3662 322.483 85.8657 313.772Z" fill="black"/>
<path opacity="0.1" d="M84.9902 301.601C90.3103 299.307 94.6434 304.001 86.4511 317.003C89.9544 308.199 88.7909 302.961 84.9902 301.601Z" fill="white"/>
<path d="M82.7048 305.371C80.6803 297.12 58.0686 278.268 44.9348 280.12C31.801 281.972 25.836 301.875 34.0916 321.168C38.3655 329.707 56.2066 330.599 60.1019 331.885C64.0111 333.185 67.3837 334.383 65.3864 342.351C63.9616 347.969 87.0286 323.044 82.7048 305.371Z" fill="#48454C"/>
<path d="M34.4364 314.528C33.1104 308.107 32.4745 292.398 39.1432 288.326C45.8249 284.268 57.5883 286.956 63.5848 301.406C69.5726 315.866 67.7373 327.483 58.9679 328.714C50.1985 329.945 37.1909 327.799 34.4364 314.528Z" fill="#7C5862"/>
<path opacity="0.2" d="M35.3672 317.62C45.5887 313.594 55.1244 310.381 58.204 313.636C61.3296 316.839 63.6031 320.815 64.8062 325.184C64.1281 326.16 63.2582 326.979 62.2531 327.587C61.248 328.195 60.1302 328.579 58.9718 328.713C50.9264 329.851 39.3701 328.105 35.3672 317.62Z" fill="white"/>
<path opacity="0.2" d="M63.5874 301.406C67.3839 310.595 68.0244 318.618 65.738 323.583C58.8265 306.639 43.1223 298.652 33.8838 299.781C33.9002 297.592 34.3796 295.434 35.2885 293.455C36.1975 291.477 37.5144 289.726 39.1472 288.326C45.8274 284.267 57.5909 286.956 63.5874 301.406Z" fill="black"/>
<path opacity="0.1" d="M34.9988 322.598C35.1135 322.747 35.2354 322.89 35.364 323.026C35.6076 323.331 35.8697 323.62 36.1488 323.89C36.3062 324.033 36.4869 324.187 36.6448 324.331C36.9287 324.573 37.2125 324.806 37.515 325.032C37.7089 325.172 37.907 325.301 38.1101 325.446C38.4213 325.655 38.7412 325.859 39.075 326.054C39.2911 326.184 39.4988 326.305 39.7107 326.416C40.0801 326.611 40.4455 326.787 40.8154 326.968C41.0319 327.071 41.2344 327.168 41.4615 327.27C41.8853 327.456 42.3135 327.633 42.7544 327.804C42.9437 327.87 43.1061 327.944 43.2774 328.009C44.5355 328.473 45.843 328.872 47.1372 329.216C47.3352 329.267 47.5293 329.311 47.7278 329.364C48.1895 329.48 48.634 329.602 49.0847 329.694C49.3192 329.755 49.5536 329.81 49.7835 329.852C50.199 329.945 50.604 330.042 51.0144 330.117C51.2397 330.173 51.4697 330.219 51.7042 330.259C52.1101 330.338 52.5066 330.422 52.881 330.491C53.1063 330.524 53.3229 330.57 53.5275 330.603C53.9471 330.677 54.3391 330.746 54.7223 330.812C54.93 330.849 55.1378 330.886 55.3312 330.928C55.7819 331.002 56.2419 331.086 56.6523 331.151C57.1394 331.246 57.6039 331.327 58.0278 331.401C41.5028 322.393 31.0065 318.177 32.5421 301.317C34.158 283.528 45.568 282.27 55.5956 286.495C65.6319 290.711 77.26 300.1 80.5196 307.335C81.96 311.572 82.2055 316.143 81.2275 320.518C82.8784 316.317 83.5039 311.763 83.0493 307.256C82.9408 306.629 82.8553 306.007 82.7066 305.389V305.371C82.3798 304.259 81.8901 303.205 81.2545 302.246C80.8196 301.529 80.3471 300.838 79.8391 300.175C79.2301 299.367 78.5628 298.531 77.7918 297.681C71.9849 291.408 65.0717 286.331 57.4213 282.721C56.3483 282.245 55.2936 281.824 54.2382 281.457C52.8943 280.981 51.5203 280.6 50.1262 280.316C48.4156 279.984 46.6664 279.918 44.9369 280.121C43.3362 280.34 41.7852 280.847 40.3557 281.621C38.2049 282.821 36.3509 284.515 34.9365 286.571C33.9068 288.052 33.0559 289.656 32.4023 291.349C32.0736 292.235 31.7559 293.15 31.4918 294.106C30.9519 296.098 30.5971 298.138 30.4323 300.198C30.3423 301.267 30.297 302.353 30.3058 303.467C30.3729 309.573 31.6617 315.599 34.0917 321.168C34.3467 321.675 34.6505 322.154 34.9988 322.598Z" fill="white"/>
<path opacity="0.2" d="M160.456 635.954C159.64 653.631 147.282 663.071 131.402 667.533C114.422 672.302 108.993 665.416 107.671 657.755C107.424 660.132 107.677 662.536 108.414 664.803C112.184 674.326 131.508 674.628 144.34 666.071C149.346 662.937 153.467 658.507 156.294 653.224C159.122 647.94 160.557 641.986 160.456 635.954Z" fill="black"/>
<path opacity="0.1" d="M140.61 618.62C132.892 618.525 119.505 626.783 114.92 634.561C110.339 642.324 115.1 620.835 124.325 613.856C133.546 606.866 148.709 614.023 151.196 618.156C153.683 622.289 148.365 618.712 140.61 618.62Z" fill="white"/>
<path opacity="0.2" d="M139.843 624.915C141.051 620.411 117.182 639.699 114.685 654.689C114.685 654.689 123.77 657.627 132.431 646.219C141.083 634.805 138.454 630.102 139.843 624.915Z" fill="black"/>
<path opacity="0.2" d="M140.971 626.917C140.797 635.229 137.555 643.161 131.904 649.098C129.8 651.636 127.141 653.621 124.146 654.891C121.15 656.161 117.904 656.679 114.676 656.402C110.997 655.905 117.097 643.405 118.801 640.949C120.497 638.479 110.735 650.152 110.654 656.11C110.573 662.077 117.85 667.44 128.066 660.307C131.876 657.573 135.108 654.072 137.567 650.015C140.026 645.958 141.661 641.43 142.373 636.705C143.198 631.119 141.281 622.376 140.971 626.917Z" fill="white"/>
<path opacity="0.2" d="M53.5206 632.08C54.1369 635.548 54.5332 639.053 54.7064 642.574C55.0175 650.937 53.4033 671.075 28.5872 660.038C23.0529 657.696 17.9572 654.379 13.5283 650.236C15.0197 652.237 16.7037 654.077 18.555 655.729C30.0794 666.051 49.255 668.544 54.2958 659.675C57.1186 654.693 56.4916 642.825 53.5206 632.08Z" fill="black"/>
<path opacity="0.1" d="M50.079 638.423C45.999 627.228 37.2293 612.383 24.6726 610.827C12.1205 609.258 25.0331 603.607 33.6405 604.015C42.252 604.415 50.3182 614.463 52.658 631.908C55.0118 649.358 53.6636 648.257 50.079 638.423Z" fill="white"/>
<path opacity="0.2" d="M26.0405 616.631C25.4588 611.993 46.4563 634.55 46.889 649.753C46.889 649.753 37.4883 651.345 30.4816 638.785C23.4676 626.239 26.7137 621.966 26.0405 616.631Z" fill="black"/>
<path opacity="0.2" d="M24.663 618.442C23.6976 626.698 25.8246 635.022 30.6103 641.72C32.3431 644.536 34.7021 646.888 37.4924 648.579C40.2827 650.271 43.424 651.254 46.6564 651.447C50.3809 651.489 46.0387 638.229 44.6863 635.544C43.3516 632.86 51.4226 645.833 50.683 651.74C49.9618 657.661 42.0029 661.915 32.8641 653.374C29.4667 650.114 26.7467 646.178 24.8682 641.805C22.9897 637.431 21.9918 632.711 21.935 627.929C21.8948 622.287 24.9793 613.91 24.663 618.442Z" fill="white"/>
<path opacity="0.1" d="M164.689 612.549C165.394 613.043 166.038 613.625 166.605 614.281C167.228 615.228 167.11 616.259 168.16 616.969C168.547 617.252 168.991 617.441 169.459 617.521C169.927 617.601 170.407 617.571 170.861 617.433C171.316 617.295 171.735 617.053 172.086 616.724C172.436 616.395 172.71 615.988 172.886 615.535C173.655 614.615 174.125 613.47 174.231 612.261C174.336 611.052 174.073 609.839 173.477 608.792C172.933 607.904 172.134 607.211 171.191 606.81C170.248 606.409 169.207 606.32 168.213 606.554C166.109 606.707 163.209 607.79 164.689 612.549Z" fill="white"/>
<path opacity="0.1" d="M148.097 608.296C149.644 608.283 151.492 610.786 152.867 609.824C154.006 608.13 154.482 606.055 154.198 604.015C152.904 601.527 145.665 603.1 148.097 608.296Z" fill="white"/>
<path opacity="0.1" d="M160.142 598.29C160.224 598.177 160.314 598.072 160.412 597.974C160.83 597.688 161.319 597.53 161.82 597.521C162.322 597.511 162.816 597.649 163.244 597.918C163.651 598.202 163.934 598.639 164.033 599.136C164.131 599.632 164.037 600.149 163.771 600.574C163.573 601.144 163.168 601.612 162.642 601.88C162.115 602.149 161.508 602.197 160.949 602.014C160.595 601.913 160.285 601.69 160.071 601.382C159.857 601.075 159.751 600.702 159.772 600.324C159.746 599.915 159.748 599.506 159.777 599.098C159.852 598.809 159.976 598.535 160.142 598.29Z" fill="white"/>
<path opacity="0.1" d="M113.967 609.41C115.229 608.291 116.686 609.972 117.01 611.207C117.443 612.837 116.104 614.086 115.328 615.363C114.49 616.751 114.061 618.678 112.172 618.367C109.923 618.01 109.291 615.423 109.729 613.38C110.152 611.481 111.038 610.385 113.967 609.41Z" fill="white"/>
<path opacity="0.1" d="M109.724 622.63C110.283 621.892 109.498 620.559 108.646 620.378C107.514 620.14 106.923 621.246 106.536 621.989C106.238 622.551 105.607 623.489 105.846 624.218C106.112 625.058 107.406 625.295 108.132 625.634C108.491 625.352 108.788 624.994 109.002 624.585C109.13 623.895 109.374 623.233 109.724 622.63Z" fill="white"/>
<path opacity="0.1" d="M103.153 609.769C103.786 609.849 104.389 610.095 104.903 610.483C105.12 611.144 105.218 611.842 105.191 612.54C105.193 613.122 105.142 613.703 105.038 614.276C105.018 614.816 105.115 615.354 105.322 615.85C103.956 616.903 102.268 617.416 100.567 617.294C99.7645 617.423 98.9565 617.507 98.1456 617.545C96.8247 617.397 96.0309 616.185 95.4215 614.964C94.9655 614.218 94.7672 613.335 94.8587 612.459C94.9503 611.582 95.3265 610.763 95.9262 610.134C96.5109 609.607 97.2149 609.24 97.9734 609.066C98.6724 608.973 99.1588 609.582 99.7992 609.698C100.615 609.839 101.476 609.519 103.153 609.769Z" fill="white"/>
<path opacity="0.1" d="M96.9592 627.98C97.2987 627.402 97.5161 626.756 97.5969 626.086C97.6776 625.415 97.6199 624.735 97.4278 624.089C97.1662 622.942 96.5932 621.896 95.7756 621.072C94.9581 620.248 93.9298 619.681 92.8108 619.436C91.9821 619.385 91.161 619.625 90.4818 620.117C89.8025 620.608 89.3052 621.323 89.0711 622.143C88.9415 622.787 88.9466 623.452 89.0858 624.095C89.2249 624.737 89.495 625.341 89.8782 625.867C90.109 626.169 90.5246 626.299 90.7213 626.619C90.8792 626.889 90.8432 627.446 91.0445 627.78C92.1018 629.601 94.3515 629.601 96.9592 627.98Z" fill="white"/>
<path opacity="0.1" d="M88.5947 611.643C89.3117 611.393 90.6644 611.713 91.2143 611.295C92.2651 610.478 90.9982 609.013 90.4391 608.421C89.8262 607.926 89.1064 607.592 88.3408 607.447C87.5752 607.301 86.7869 607.348 86.043 607.585C85.0873 607.998 84.271 609.781 84.9113 610.691C85.4885 611.532 86.7105 611.475 88.5947 611.643Z" fill="white"/>
<path opacity="0.1" d="M81.8958 632.299C82.3141 631.898 82.8685 631.682 83.44 631.696C84.0115 631.711 84.5546 631.956 84.953 632.378C85.7914 632.973 86.8197 633.46 86.7384 631.909C86.4739 630.796 86.0614 629.725 85.5123 628.728C85.0728 627.565 84.3711 626.526 83.4651 625.696C81.1668 625.915 79.1233 630.386 81.8958 632.299Z" fill="white"/>
<path opacity="0.1" d="M83.9559 619.947C85.1914 620.37 86.7064 621.711 87.8653 620.342C88.4299 619.442 88.8271 618.443 89.0373 617.394C89.3032 614.766 83.2481 614.245 82.0352 615.987C81.4673 616.799 82.1706 618.605 83.9559 619.947Z" fill="white"/>
<path opacity="0.1" d="M75.2733 625.388C76.8241 623.382 80.314 622.142 77.9695 619.403C77.6935 619.063 77.3522 618.787 76.9672 618.59C76.5822 618.393 76.162 618.28 75.7326 618.259C75.3033 618.237 74.8744 618.308 74.4727 618.465C74.0711 618.623 73.7054 618.865 73.3988 619.175C72.4071 619.867 70.8198 621.093 71.203 622.555C71.5128 623.735 73.1227 624.348 75.2733 625.388Z" fill="white"/>
<path opacity="0.1" d="M71.7754 613.711C72.4832 610.637 74.1061 611.704 75.9308 612.081C76.9331 612.173 77.9389 611.946 78.8119 611.431C79.9255 610.762 79.8035 610.376 79.2734 608.965C78.4124 606.662 75.0398 606.09 72.7673 605.984C71.3152 605.787 69.8391 606.047 68.5336 606.731C67.6626 607.611 66.9401 608.634 66.3962 609.759C65.9003 611.732 68.5334 613.33 71.7754 613.711Z" fill="white"/>
<path opacity="0.1" d="M66.1213 618.958C66.7118 618.633 68.3211 618.048 68.5783 617.314C68.8355 616.58 66.7749 615.262 66.1433 614.904C64.8902 614.18 64.2093 614.886 63.2757 615.713C62.4867 616.409 61.3366 617.422 62.2886 618.613C62.7586 619.172 63.4217 619.521 64.1372 619.586C64.8526 619.65 65.5643 619.425 66.1213 618.958Z" fill="white"/>
<path opacity="0.1" d="M56.4026 612.076C57.0386 612.088 57.6736 612.134 58.3052 612.211C58.7877 612.294 59.3555 612.687 59.856 612.544C60.3384 612.386 60.2757 611.959 60.6044 611.736C61.2088 611.318 61.7858 611.55 61.8311 610.677C61.8717 610.036 61.0926 609.203 60.7264 608.732C59.9328 607.743 59.1528 606.563 58.3185 605.649C56.9883 604.158 55.2842 605.105 55.1263 606.932C55.1115 607.662 55.1689 608.392 55.2976 609.11C55.2643 609.657 55.346 610.205 55.5366 610.717C55.7272 611.229 56.0225 611.692 56.4026 612.076Z" fill="white"/>
<path opacity="0.1" d="M41.1743 598.142C42.5949 598.169 42.8698 598.648 43.8984 599.674C44.6108 598.23 45.5665 597.84 44.2456 596.438C43.7066 595.71 43.0213 595.111 42.2369 594.682C41.4526 594.252 40.5874 594.002 39.7005 593.948C38.0458 593.986 36.9817 594.863 37.4236 596.628C37.8613 598.258 38.7712 598.193 41.1743 598.142Z" fill="white"/>
<path opacity="0.1" d="M25.0472 598.299C23.5005 599.794 20.3443 598.857 18.8789 600.449C18.3923 600.972 18.4236 601.958 18.0857 602.469C17.3008 603.63 15.9486 603.017 14.6184 602.46C12.4993 601.563 13.0089 598.462 13.7573 596.567C14.9923 593.442 17.644 592.885 20.5905 592.602C21.2966 592.511 22.0132 592.608 22.6727 592.883C23.3322 593.158 23.9127 593.602 24.359 594.173C24.8053 594.743 25.1028 595.422 25.2233 596.144C25.3437 596.866 25.283 597.608 25.0472 598.299Z" fill="white"/>
<path opacity="0.1" d="M27.4379 588.951C28.4075 589.427 28.9885 590.79 30.3275 590.386C31.3016 590.093 31.5357 588.612 31.7702 587.767C31.4916 587.344 31.1223 586.994 30.6907 586.743C30.2591 586.491 29.7768 586.346 29.2817 586.318C28.5978 586.393 27.9496 586.671 27.4151 587.117C27.4059 587.335 27.388 587.632 27.4379 588.951Z" fill="white"/>
<path opacity="0.1" d="M165.569 625.947C165.624 625.58 165.792 625.242 166.046 624.98C166.3 624.718 166.629 624.546 166.984 624.489C167.168 624.498 167.348 624.55 167.509 624.641C167.671 624.731 167.81 624.859 167.917 625.013C168.024 625.167 168.096 625.344 168.127 625.53C168.159 625.717 168.149 625.909 168.098 626.091C167.954 626.49 167.535 626.764 167.368 627.177C167.237 627.516 167.322 627.879 167.201 628.176C166.89 628.96 165.253 629.885 164.654 629.137C164.176 628.552 164.811 627.224 165.569 625.947Z" fill="white"/>
<path opacity="0.1" d="M12.1995 612.74C12.568 612.536 12.889 612.252 13.1398 611.907C13.3906 611.562 13.5652 611.165 13.6516 610.743C13.7014 609.631 13.4011 608.531 12.7952 607.609C11.3251 606.699 8.98066 611.946 9.05546 613.065C9.19258 614.918 10.5406 614.022 12.1995 612.74Z" fill="white"/>
<path opacity="0.1" d="M92.3417 619.733C92.7923 619.975 93.3741 619.789 93.8191 620.058C94.2062 620.38 94.5515 620.751 94.8468 621.163C95.7171 622.111 96.7361 623.527 95.6677 624.725C94.7794 625.737 93.3232 625.366 92.1464 625.468C91.2987 625.542 90.4152 626.164 89.8514 625.23C89.5506 624.615 89.3537 623.953 89.2695 623.27C89.2922 622.402 89.6135 621.569 90.1761 620.922C90.7386 620.274 91.5059 619.853 92.3417 619.733Z" fill="white"/>
<path opacity="0.1" d="M99.6603 609.759C99.2411 609.742 98.8211 609.767 98.4065 609.834C97.9261 609.782 97.441 609.809 96.9685 609.912C96.7749 610.022 96.6075 610.175 96.4788 610.359C96.3501 610.544 96.2632 610.756 96.2246 610.98C95.9543 612.049 96.063 613.182 96.5312 614.175C97.4195 616.246 99.331 614.222 100.499 613.738C100.874 613.538 101.267 613.373 101.671 613.246C102.213 613.22 102.751 613.136 103.276 612.996C103.422 612.9 103.545 612.771 103.636 612.619C103.726 612.467 103.781 612.296 103.798 612.118C103.814 611.941 103.79 611.762 103.729 611.595C103.667 611.428 103.569 611.279 103.443 611.157C102.331 610.341 101.022 609.857 99.6603 609.759Z" fill="white"/>
<path opacity="0.1" d="M70.1666 611.816C70.843 610.144 72.3537 609.879 74.1617 609.508C74.6469 609.483 75.109 609.286 75.4692 608.951C76.1091 608.347 75.9019 608.022 75.4061 607.339C74.6208 606.612 73.6327 606.159 72.5828 606.044C71.5328 605.929 70.4744 606.158 69.5582 606.699C68.9245 607.127 68.3537 607.646 67.863 608.24C67.6134 608.456 67.3919 608.704 67.2044 608.979C66.9925 609.419 67.2969 609.624 67.3264 610.072C67.349 610.5 67.1098 610.621 67.5696 610.955C67.8059 611.09 68.0498 611.211 68.3 611.317C68.8539 611.686 69.5085 611.861 70.1666 611.816Z" fill="white"/>
<path opacity="0.5" d="M218.264 407.637C214.039 405.311 208.588 409.002 202.925 416.524C196.782 425.337 193.349 435.847 193.073 446.693C193.517 442.361 194.931 438.194 197.204 434.52C202.794 434.557 212.871 434.84 217.917 424.811C222.948 414.769 219.454 408.283 218.264 407.637Z" fill="black"/>
<path opacity="0.1" d="M212.975 393.991C204.508 396.698 191.911 406.254 188.114 429.183C185.305 446.127 172.388 419.432 176.544 399.298C180.715 379.168 222.543 390.954 212.975 393.991Z" fill="white"/>
<path opacity="0.2" d="M215.632 403.681C212.174 400.914 199.062 409.397 192.299 428.997C190.216 433.074 194.851 415.675 201.299 407.695C207.76 399.723 213.549 399.987 215.051 401.352C216.561 402.739 216.917 404.698 215.632 403.681Z" fill="black"/>
<path d="M216.757 409.828C219.318 409.733 219.66 420.842 214.864 427.027C212.962 429.127 210.448 430.532 207.702 431.032C204.956 431.531 202.128 431.097 199.642 429.794C199.141 428.476 207.167 410.232 216.757 409.828Z" fill="#A6391E"/>
<path opacity="0.5" d="M216.034 410.812C217.548 410.527 218.95 416.556 216.583 423.391C215.496 426.171 213.396 428.403 210.731 429.607C208.066 430.812 205.049 430.894 202.327 429.836C198.301 426.684 208.233 412.271 216.034 410.812Z" fill="white"/>
<path opacity="0.1" d="M215.515 404.601C213.483 403.3 208.882 404.865 203.039 410.944C199.135 414.466 196.688 419.394 196.199 424.715C196.713 425.505 202.412 414.858 207.146 410.855C209.385 408.576 212.24 407.047 215.337 406.467C216.245 406.323 217.065 405.599 215.515 404.601Z" fill="white"/>
<path d="M209.798 413.549C209.535 413.531 209.282 413.57 209.023 413.576C205.802 416.912 203.151 420.785 201.184 425.03C201.864 426.561 202.908 427.89 204.219 428.896C205.53 429.901 207.066 430.551 208.685 430.784C210.838 430.458 212.838 429.446 214.404 427.889C215.969 426.333 217.022 424.31 217.414 422.106C217.499 421.02 217.365 419.928 217.021 418.898C216.677 417.868 216.131 416.922 215.416 416.119C214.702 415.316 213.834 414.673 212.867 414.231C211.901 413.789 210.856 413.557 209.798 413.549Z" fill="#17130E"/>
<path opacity="0.3" d="M207.874 422.038C208.424 422.076 208.976 422.003 209.498 421.822C210.02 421.641 210.502 421.356 210.917 420.983C211.332 420.61 211.672 420.156 211.916 419.648C212.161 419.14 212.306 418.587 212.343 418.021C212.397 417.025 212.119 416.039 211.554 415.229C210.989 414.418 210.172 413.831 209.238 413.565C207.342 415.308 205.695 417.32 204.349 419.541C204.672 420.239 205.168 420.837 205.787 421.276C206.406 421.714 207.126 421.977 207.874 422.038Z" fill="white"/>
<path opacity="0.3" d="M207.374 420.64C208.132 420.686 208.878 420.423 209.45 419.908C210.021 419.393 210.374 418.666 210.43 417.886C210.458 417.161 210.232 416.449 209.793 415.881C209.354 415.314 208.731 414.927 208.039 414.792C206.86 416.018 205.788 417.349 204.836 418.769C205.057 419.286 205.409 419.733 205.856 420.062C206.302 420.392 206.826 420.591 207.374 420.64Z" fill="white"/>
<path opacity="0.1" d="M347.929 396.864C349.644 409.243 349.547 421.816 347.641 434.165C344.291 456.193 339.805 473.894 327.226 492.459C318.149 505.841 304.032 530.084 284.816 528.115C272.922 526.908 279.014 512.486 266.664 512.342C258.697 512.263 250.378 521.411 242.656 523.896C231.817 527.37 221.194 529.174 213.872 520.219C209.927 515.39 210.829 513.179 205.13 512.251C205.107 511.996 205.084 511.745 205.071 511.471C204.63 500.898 241.804 432.566 217.439 430.211C209.828 450.93 181.531 475.652 165.71 450.289C150.574 426.037 179.8 402.908 177.185 379.979C162.955 378.544 154.686 395.646 151.661 407.505C138.608 407.362 146.155 378.786 133.301 375.428C133.388 377.439 132.99 379.442 132.143 381.256C131.296 383.07 130.025 384.64 128.445 385.825C126.904 383.99 125.731 381.86 124.993 379.556C124.256 377.252 123.969 374.82 124.148 372.401C113.631 379.145 104.963 388.547 98.9669 399.714C93.1777 411.805 90.287 433.22 75.269 434.479C58.0907 435.927 54.4114 412.413 51.3411 400.196C50.0566 395.759 48.2614 391.495 45.9937 387.497C43.4235 401.904 54.1004 404.05 46.6204 440.83C41.4693 466.403 40.0727 492.626 42.4772 518.626C48.3134 506.282 53.4602 493.605 57.8923 480.657C64.0245 483.592 60.4315 495.207 60.3586 502.114C73.1771 496.765 70.1968 472.271 84.4623 469.09C84.3363 471.89 85.7697 474.249 85.7549 476.98C95.9039 471.76 96.0531 451.942 99.6193 442.279C107.487 420.887 106.761 438.397 110.846 449.249C113.845 457.194 121.541 462.167 126.879 470.595C133.444 480.903 137.1 493.449 143.967 503.14C152.324 498.692 150.244 485.207 151.262 476.687C172.061 475.415 164.19 516.207 162.516 549.319C161.514 551.914 160.668 554.571 159.982 557.273C156.718 570.511 144.868 578.642 132.912 583.731C126.929 586.863 120.55 589.12 113.961 590.435C109.308 590.741 104.209 587.695 99.4834 587.535C87.2605 587.126 76.7682 594.881 64.3832 591.305C58.328 589.569 42.1233 580.923 39.3416 575.086C35.8157 567.684 43.9674 552.514 44.5805 543.919C44.8172 540.076 44.5626 536.216 43.8233 532.441C43.8321 532.495 43.8368 532.549 43.8368 532.603C43.8682 532.993 43.9001 533.374 43.9315 533.718L43.9222 533.732C43.9629 534.317 43.9854 534.804 43.9947 535.269C44.0127 535.761 44.0168 536.202 43.9947 536.552C42.5606 557.41 7.23507 568.689 2.54102 579.322C5.34874 581.62 7.76798 584.38 9.7009 587.49C15.3234 596.043 26.546 614.505 31.7701 593.624C67.9078 590.717 60.238 648.917 91.2584 632.865C100.609 627.196 109.56 620.854 118.045 613.888C122.883 610.452 126.404 606.653 132.288 606.087C138.483 605.488 143.483 611.412 147.839 611.204C158.993 610.647 164.755 592.979 172.984 591.139C184.269 588.619 187.975 610.307 189.936 618.372C195.852 642.741 217.084 657.505 216.827 684.193C216.8 686.389 216.741 688.627 216.655 690.856C226.06 680.041 234.298 667.049 233.692 657.934C232.704 643.284 244.346 639.964 254.923 613.265C265.501 586.566 273.152 602.441 318.091 548.926C361.429 497.296 357.962 463.353 347.929 396.864Z" fill="#AE5862"/>
</g>
<defs>
<clipPath id="clip0_1276_8825">
<rect width="1000" height="750" fill="white"/>
</clipPath>
</defs>
</svg>
