<svg width="1000" height="700" viewBox="0 0 1000 700" fill="none" xmlns="http://www.w3.org/2000/svg">
<path d="M849.998 350.242C849.947 424.424 826.343 496.672 782.592 556.558C738.842 616.445 677.208 660.872 606.586 683.428C535.964 705.984 460.006 705.503 389.675 682.054C319.344 658.604 258.278 613.4 215.289 552.964C172.3 492.528 149.612 419.987 150.5 345.809C151.387 271.632 175.804 199.655 220.227 140.267C264.65 80.8783 326.781 37.1498 397.653 15.3924C468.525 -6.36506 544.472 -5.02618 614.534 19.2158C683.303 43.0477 742.937 87.738 785.139 147.068C827.342 206.398 850.013 277.417 849.998 350.242Z" fill="#C6C6D1"/>
<path d="M771.946 341.943C771.906 401.342 753.007 459.192 717.976 507.144C682.945 555.096 633.595 590.67 577.047 608.731C520.499 626.793 459.679 626.408 403.364 607.632C347.049 588.856 298.152 552.66 263.73 504.268C229.309 455.877 211.142 397.792 211.853 338.397C212.564 279.003 232.116 221.37 267.686 173.817C303.256 126.265 353.005 91.2512 409.754 73.8305C466.502 56.4098 527.314 57.4827 583.413 76.8944C638.475 95.9764 686.224 131.759 720.014 179.264C753.805 226.769 771.958 283.633 771.946 341.943Z" fill="#CFCFDC"/>
<path d="M679.238 277.603C679.212 315.593 667.124 352.593 644.719 383.261C622.314 413.93 590.75 436.682 554.583 448.234C518.416 459.785 479.517 459.538 443.499 447.53C407.482 435.521 376.208 412.37 354.193 381.42C332.178 350.47 320.559 313.32 321.014 275.333C321.468 237.345 333.973 200.485 356.723 170.071C379.473 139.657 411.291 117.263 447.586 106.121C483.881 94.9786 522.775 95.6645 558.655 108.079C593.872 120.284 624.411 143.171 646.024 173.555C667.636 203.938 679.246 240.308 679.238 277.603Z" fill="#D8D8E6"/>
<path d="M838.721 352.712L775.605 243.309L743.171 117.268L622.67 37.2141L500.004 52.9759L370.654 41.5007L256.829 117.271L224.895 241.353L160.688 348.607L203.969 518.58L315.292 582.008L398.657 673.334H601.348L685.597 581.08L795.435 518.58L838.721 352.712ZM587.974 487.152H411.434L357.165 318.235L500.002 216.62L642.356 317.887L587.974 487.152ZM735.971 118.207L766.469 240.604L648.337 312.066L504.124 209.477L504.109 60.7523L628.816 45.7323L735.971 118.207ZM264.031 118.207L371.192 45.7323L495.901 60.7523L495.878 209.477L351.66 312.069L233.463 240.912L264.031 118.207ZM169.449 357.958L230.264 248.581L349.302 320.592L403.746 490.063L371.837 520.54L316.516 573.101L206.999 505.129L169.449 357.958ZM589.642 669.229H410.363L323.176 578.366L377.832 526.17L410.25 495.364H589.319L676.538 578.667L589.642 669.229ZM683.248 572.876L595.759 489.748L650.106 320.592L650.819 320.159L769.289 248.846L829.959 357.958L792.404 505.129L683.248 572.876Z" fill="#837B7B"/>
<path d="M408.246 491.557L351.533 316.899L500.003 208.968L648.467 316.899L591.76 491.557H408.246Z" fill="black"/>
<path d="M629.848 41.4751L500.004 58.6867L370.163 41.4741L385.471 19.2157C459.68 -6.40522 540.329 -6.40522 614.538 19.2157L629.848 41.4751Z" fill="black"/>
<path d="M834.94 357.388L771.26 242.866L739.569 115.687L765.884 121.757C816.949 181.422 846.564 256.489 850 334.971L834.94 357.388Z" fill="black"/>
<path d="M165.067 357.387L228.747 242.865L260.43 115.687L234.125 121.757C183.052 181.418 153.433 256.486 150 334.97L165.067 357.387Z" fill="black"/>
<path d="M405.107 671.446L315.11 576.236L203.431 507.751L201.306 534.68C242.814 601.358 305.45 652.197 379.214 679.081L405.107 671.446Z" fill="black"/>
<path d="M593.852 671.446L683.852 576.235L795.531 507.75L797.656 534.68C756.145 601.356 693.51 652.194 619.748 679.081L593.852 671.446Z" fill="black"/>
<path d="M371.239 321.326L388.853 375.566C419.551 380.849 450.646 383.487 481.795 383.45C526.343 383.6 570.731 378.105 613.9 367.096L628.759 321.326L500.003 227.722L371.239 321.326Z" fill="#43434F"/>
</svg>
