<svg width="1000" height="700" viewBox="0 0 1000 700" fill="none" xmlns="http://www.w3.org/2000/svg">
<g clip-path="url(#clip0_1276_8401)">
<g clip-path="url(#clip1_1276_8401)">
<path d="M845.618 547.741C843.605 540.729 836.222 524.953 831.189 515.487C848.974 494.803 874.812 486.389 901.657 490.946C901.321 491.647 901.321 492.349 900.986 493.05C898.637 504.268 905.348 512.332 900.65 523.55C896.288 534.419 882.865 551.948 880.852 571.58C878.839 591.213 881.523 615.403 878.839 625.921C876.154 636.087 873.134 638.191 870.785 636.789C868.436 635.386 868.436 626.972 866.423 626.972C864.409 626.972 862.061 636.438 861.389 641.346C860.718 646.254 861.054 651.513 858.369 655.019C853 650.111 834.88 640.645 828.169 640.645C834.88 626.622 842.598 624.168 844.611 616.805C846.96 609.443 848.303 557.557 845.618 547.741Z" fill="#AA7B7B"/>
<path d="M844.61 618.909C844.946 618.208 845.281 617.507 845.281 616.805C846.959 609.443 848.301 557.206 845.952 547.741C843.939 540.729 836.557 524.953 831.523 515.487C849.308 494.803 875.146 486.389 901.991 490.946C901.656 491.647 901.656 492.349 901.32 493.05C898.971 504.268 905.683 512.332 900.985 523.55C896.622 534.419 883.2 551.948 881.186 571.58C879.173 591.213 881.858 615.403 879.173 625.921C876.489 636.087 873.469 638.191 871.12 636.789C868.771 635.386 868.771 626.972 866.757 626.972C864.744 626.972 862.395 636.438 861.724 641.346C861.053 646.254 861.388 651.513 858.704 655.019C856.69 652.915 851.657 650.111 846.624 647.306C852.328 637.49 855.348 623.817 844.61 618.909Z" fill="#A07272"/>
<path d="M844.61 618.909C844.946 618.208 845.281 617.507 845.281 616.805C846.959 609.443 848.301 557.206 845.952 547.741C843.939 540.729 836.557 524.953 831.523 515.487C849.308 494.803 875.146 486.389 901.991 490.946C901.656 491.647 901.656 492.349 901.32 493.05C898.971 504.268 905.683 512.332 900.985 523.55C896.622 534.419 883.2 551.948 881.186 571.58C879.173 591.213 876.489 611.196 873.804 621.363C873.804 621.363 875.482 629.777 871.455 628.375C868.771 627.323 868.1 623.466 866.757 621.714C864.744 619.259 858.704 627.673 857.362 635.737C856.355 640.645 855.684 649.059 853.335 652.214L846.959 647.306C852.328 637.49 855.348 623.817 844.61 618.909Z" fill="#AA7B7B"/>
<path d="M846.96 564.919C846.96 564.919 846.96 552.298 845.618 547.741C843.605 540.729 836.222 524.953 831.189 515.487C848.974 494.803 874.812 486.389 901.657 490.946C901.321 491.647 901.321 492.349 900.986 493.05C898.637 504.268 905.348 512.332 900.65 523.55C896.288 534.419 882.865 551.948 880.852 571.58C878.839 591.213 881.523 615.403 878.839 625.921C877.832 629.777 876.825 632.582 875.819 634.335C876.49 634.335 872.463 594.018 846.96 564.919Z" fill="#A07272"/>
<path d="M307.708 515.137L390.928 498.309C385.223 508.827 372.807 550.897 370.123 564.92C367.438 578.943 363.747 598.576 365.425 607.691C367.103 616.806 367.774 630.128 363.076 637.14C358.043 645.203 355.358 644.152 353.68 642.749C352.003 641.347 354.016 634.335 352.003 632.582C350.325 630.83 347.305 638.893 345.962 646.956C345.291 650.813 343.949 654.669 343.949 654.669L313.748 640.295C317.44 630.83 324.151 626.272 326.835 621.714C329.52 616.806 330.862 596.472 330.527 586.656C329.52 565.271 312.406 547.04 307.708 515.137Z" fill="#A07272"/>
<path d="M307.708 515.137L390.928 498.309C385.223 508.827 372.807 550.897 370.123 564.92C367.438 578.943 359.385 592.967 359.385 592.967C362.405 611.197 364.418 624.87 360.056 633.284C358.378 636.439 356.365 638.192 355.023 636.439C353.345 635.036 354.351 627.674 352.674 625.921C350.996 624.168 343.613 630.128 342.271 638.192C341.6 642.048 338.916 649.41 338.916 649.41L313.748 639.594C317.44 630.128 324.151 625.571 326.835 621.013C329.52 616.105 330.862 595.771 330.527 585.955C329.52 565.271 312.406 547.04 307.708 515.137Z" fill="#AF7E7E"/>
<path d="M336.234 626.623C336.905 633.635 332.542 644.853 332.542 644.853L313.415 639.945C317.107 630.48 323.818 625.922 326.502 621.364C327.173 620.663 335.562 619.962 336.234 626.623Z" fill="#BA8888"/>
<path d="M365.089 607.691C365.089 607.691 354.351 568.426 318.111 549.144C313.413 538.276 310.057 530.212 307.708 514.787L390.928 497.959C385.223 508.476 372.807 550.546 370.123 564.569C367.103 579.294 363.747 598.576 365.089 607.691Z" fill="#A07272"/>
<path d="M311.064 530.914C309.722 526.356 308.715 521.448 307.708 515.137L390.928 498.309C386.565 506.373 364.754 538.276 360.056 556.506C360.056 556.506 343.949 527.057 311.064 530.914Z" fill="#966969"/>
<path d="M972.46 248.694C972.46 248.694 995.613 249.746 998.633 224.504C1001.99 195.756 976.151 184.537 960.379 194.003C945.279 203.118 955.346 223.803 966.755 219.946C968.097 219.596 968.433 217.142 966.084 215.389C964.742 214.337 961.722 212.935 962.057 209.779C962.393 205.923 965.748 203.82 971.117 204.17C976.822 204.521 984.54 211.532 981.184 222.751C977.829 233.97 962.393 231.866 962.393 231.866L972.46 248.694Z" fill="#C18F8F"/>
<path d="M969.105 243.086C969.105 243.086 992.93 243.086 996.286 221.35C1000.65 195.757 975.817 183.838 960.045 193.654C946.287 202.418 956.354 219.597 965.414 217.143C966.085 216.792 966.421 215.741 965.75 215.39C963.401 213.637 960.381 211.884 961.387 207.677C962.394 202.068 966.085 199.614 971.454 199.964C977.159 200.315 986.89 207.327 981.186 222.752C977.159 233.62 962.394 231.867 962.394 231.867L969.105 243.086Z" fill="#D3A3A3"/>
<path d="M828.841 640.645C825.15 645.203 819.11 648.708 817.767 661.68C817.767 661.68 820.116 663.783 825.15 663.433L824.814 665.887C837.901 671.496 855.015 663.433 855.015 663.433C855.015 663.433 858.035 660.628 859.042 655.019C859.042 655.019 843.27 638.542 828.841 640.645Z" fill="#84675E"/>
<path d="M825.147 660.979L824.14 663.433C818.771 663.784 818.1 661.68 818.1 661.68C818.1 660.979 818.436 659.226 818.436 659.226C818.1 661.33 825.147 660.979 825.147 660.979Z" fill="#7C6259"/>
<path d="M825.484 665.536C826.49 666.588 837.564 666.939 840.248 665.536C845.282 663.433 847.966 645.904 847.966 645.904C855.013 650.111 859.375 655.019 859.375 655.019C859.04 660.628 857.698 663.433 857.027 664.134C854.678 666.939 829.846 671.146 824.813 666.939C824.477 666.588 824.813 664.485 825.148 663.433C825.148 663.082 824.813 664.835 825.484 665.536Z" fill="#7C6259"/>
<path d="M825.147 663.082C825.147 663.082 827.832 652.214 831.858 647.306C826.154 651.513 822.798 656.771 820.449 662.731C823.469 663.432 825.147 663.082 825.147 663.082Z" fill="#705949"/>
<path d="M313.752 639.594C310.061 644.152 304.021 647.658 302.679 660.629C302.679 660.629 305.028 662.733 310.061 662.382L309.726 664.836C322.813 670.445 339.926 662.382 339.926 662.382C339.926 662.382 342.946 659.577 343.953 653.968C343.953 653.968 328.182 637.491 313.752 639.594Z" fill="#8C7065"/>
<path d="M310.062 659.928L309.055 662.382C303.686 662.733 303.015 660.629 303.015 660.629C303.015 659.928 303.35 658.175 303.35 658.175C303.015 660.629 310.062 659.928 310.062 659.928Z" fill="#7C6259"/>
<path d="M310.396 664.486C311.402 665.537 322.476 665.888 325.161 664.486C330.194 662.382 332.879 644.853 332.879 644.853C339.925 649.06 344.288 653.968 344.288 653.968C343.952 659.577 342.61 662.382 341.939 663.083C339.59 665.888 314.758 670.095 309.725 665.888C309.389 665.537 309.725 663.434 310.06 662.382C310.06 662.382 309.725 663.784 310.396 664.486Z" fill="#7C6259"/>
<path d="M310.059 662.381C310.059 662.381 312.744 651.513 316.771 646.605C311.066 650.812 307.71 656.071 305.361 662.031C308.381 662.381 310.059 662.381 310.059 662.381Z" fill="#705949"/>
<path d="M342.61 514.787C342.61 514.787 325.161 517.242 311.403 526.707C295.967 537.225 257.042 544.236 231.203 534.771C248.317 484.287 266.773 474.47 296.973 474.47C327.174 474.47 339.59 496.207 342.61 514.787Z" fill="#A07272"/>
<path d="M342.273 504.621C342.273 504.621 320.797 511.983 306.703 521.449C289.925 532.667 260.396 539.679 234.558 530.213C251.671 479.729 266.772 474.47 296.637 474.47C327.173 474.47 339.253 486.39 342.273 504.621Z" fill="#AF7E7E"/>
<path d="M309.052 509.178C291.603 508.126 275.831 498.31 275.831 498.31C275.831 498.31 260.06 522.149 248.315 535.472L231.537 534.77C248.651 484.287 267.107 474.47 297.307 474.47C327.508 474.47 339.924 496.206 342.944 514.787C342.944 514.787 339.924 515.138 335.226 516.54C328.179 508.477 318.112 509.529 309.052 509.178Z" fill="#A07272"/>
<path d="M86.3392 403.681C59.9552 412.657 16.1888 391.82 14.3264 391.5C-1.19359 389.256 0.0479889 382.524 0.0479889 382.524C0.0479889 382.524 62.1281 365.854 87.2705 395.667L86.3392 403.681Z" fill="#AD6381"/>
<path d="M100.694 346.326C100.694 346.326 61.0051 355.888 40.6992 367.655C20.701 379.791 9.625 377.584 2.85637 380.159C-3.91225 382.733 2.2411 383.836 13.0094 385.675C23.7776 387.514 66.543 380.894 85.6182 398.914C93.6175 377.952 100.694 346.326 100.694 346.326Z" fill="#BF738E"/>
<path d="M2.39458 378.768C9.23985 376.543 20.4412 378.132 40.6659 367.96C52.4895 361.921 70.5361 356.835 83.9155 353.338C83.9155 353.338 78.9372 359.378 76.448 369.868C73.6476 382.583 71.4696 385.444 68.6693 384.808C43.4662 378.768 25.4196 383.536 13.2848 382.265C4.88377 381.629 -4.45069 380.993 2.39458 378.768Z" fill="#CE8099"/>
<path d="M33.5566 514.787L17.4496 487.792C17.4496 487.792 36.5768 477.975 49.9993 464.653C63.4218 451.331 80.1998 434.153 81.8776 421.532C83.5555 408.911 79.1931 377.709 83.2198 359.128C87.2466 340.547 97.9846 319.512 131.205 295.673C164.09 272.184 271.806 194.705 369.79 173.319C467.774 151.583 745.619 146.324 798.303 152.284C823.47 155.089 856.019 159.296 896.287 181.383C936.554 203.469 984.875 232.568 993.935 304.437C998.969 345.455 33.5566 514.787 33.5566 514.787Z" fill="#E2BABA"/>
<path d="M343.951 366.841L978.835 272.534C984.204 279.896 987.895 287.609 990.58 294.621C1015.08 362.283 988.231 409.261 950.983 471.665C940.916 487.792 933.87 494.804 932.192 507.074C930.514 519.344 938.232 527.758 934.205 540.029C930.178 552.299 917.091 572.282 916.42 594.018C915.749 615.404 920.447 642.048 918.434 653.267C916.42 664.836 913.065 666.94 910.38 665.888C907.696 664.486 905.682 654.669 903.333 654.669C900.985 655.02 900.649 666.238 900.313 671.497C899.978 677.106 899.307 680.963 895.951 685.52C889.911 680.612 873.133 670.796 865.751 671.147C869.106 658.526 878.166 649.761 879.509 641.347C880.851 632.933 877.16 579.294 873.468 569.127C869.777 558.96 858.368 533.017 852.999 527.057L442.942 521.798C442.942 521.798 441.264 531.615 435.56 542.483C429.855 553.351 423.815 564.92 420.795 579.294C418.111 593.668 414.419 613.3 416.097 622.766C417.775 632.232 418.446 645.554 413.748 652.566C408.715 660.629 406.03 659.928 404.353 658.175C402.675 656.422 404.688 649.41 402.675 647.658C400.997 645.905 395.964 654.669 395.628 660.279C394.957 665.888 392.272 672.549 392.272 672.549L362.072 658.175C365.763 648.359 375.159 640.996 377.843 636.088C380.528 631.18 382.877 610.145 381.534 600.329C380.192 590.513 370.461 578.943 366.099 569.478C361.736 560.362 349.992 531.264 349.992 531.264C349.992 531.264 339.589 507.425 328.851 501.114C318.113 494.804 292.946 504.97 276.168 487.441C270.463 495.855 252.679 522.5 230.867 533.368C209.055 544.236 181.539 555.104 134.896 549.845C87.9176 544.586 65.0994 546.69 57.0458 537.224C48.3212 537.925 29.8654 534.77 26.8453 531.615C25.8386 528.459 24.1608 520.396 22.483 511.982C30.5365 505.672 343.951 366.841 343.951 366.841Z" fill="#AF7E7E"/>
<path d="M386.232 479.378C410.056 481.832 429.855 495.155 427.506 522.851C426.499 538.276 414.083 563.869 411.399 578.593C408.714 592.967 411.734 612.6 413.412 622.065C415.09 631.531 414.419 641.348 412.405 648.359C411.734 650.463 409.05 654.67 407.036 652.216C405.694 650.463 407.372 644.853 405.359 643.451C400.325 639.595 391.936 655.721 391.265 660.98C390.258 666.589 386.903 673.952 386.903 673.952L363.078 659.928C366.769 650.112 376.165 642.75 378.849 637.842C381.534 632.934 383.883 611.899 382.54 602.082C381.198 592.266 371.467 580.697 367.104 571.231C362.742 562.116 341.266 515.138 341.266 515.138L332.877 504.971C332.206 504.62 353.346 475.873 386.232 479.378Z" fill="#C69595"/>
<path d="M345.293 336.69L989.908 284.453C1012.06 360.179 975.814 408.91 941.587 460.446C930.849 476.222 924.138 491.647 921.453 503.918C919.776 510.929 929.507 522.849 925.48 535.12C921.453 547.39 909.038 577.19 908.366 598.575C907.695 619.961 916.42 632.582 915.749 648.708C915.413 655.72 912.393 660.979 909.709 659.576C907.36 658.525 905.346 646.956 902.997 647.306C900.649 647.657 898.3 650.461 895.28 671.146C894.273 678.157 889.239 685.169 889.239 685.169C883.199 680.261 873.468 670.795 866.086 671.146C869.441 658.525 878.501 649.76 879.844 641.346C881.186 632.932 877.495 583.851 873.804 573.684C870.112 563.517 859.039 537.223 853.334 527.056C836.221 496.205 806.691 457.992 801.993 432.048C801.993 432.048 735.552 521.096 621.461 529.861C580.187 533.016 456.029 517.591 456.029 517.591L443.613 436.957C440.593 427.491 442.942 469.911 432.875 474.469C419.453 480.779 414.755 473.417 393.614 468.509C366.098 462.198 350.998 464.653 329.857 482.182C326.166 485.337 319.119 484.636 317.106 483.584C313.079 481.831 299.321 472.015 303.348 443.968C303.348 443.968 265.765 507.774 226.84 527.757C212.746 535.12 180.532 547.39 133.554 542.131C86.575 536.873 81.877 542.131 70.8035 537.223L71.139 532.666C58.0521 535.821 35.2339 534.068 31.5428 531.263C31.5428 531.263 22.8181 517.941 22.8181 517.591C30.5361 510.228 345.293 336.69 345.293 336.69Z" fill="#C69595"/>
<path d="M449.652 489.895C449.652 489.895 473.812 509.878 543.273 518.993C714.075 541.08 779.509 448.526 779.509 448.526C823.468 475.521 852.326 529.16 852.326 529.16C845.279 539.327 810.045 565.62 790.247 571.23C770.785 576.839 739.242 580.696 701.994 575.787C664.747 570.879 624.144 565.971 607.03 565.62C589.917 565.27 579.514 563.868 578.843 564.919C577.836 566.672 576.83 569.827 573.139 569.126C570.118 568.776 568.776 563.166 568.776 563.166C562.065 561.063 551.327 551.247 551.327 551.247C533.207 553.35 519.784 541.08 519.784 541.08C473.812 545.988 444.954 522.849 444.954 522.849C445.625 516.188 449.652 489.895 449.652 489.895Z" fill="#AF7E7E"/>
<path d="M549.314 536.171C723.807 551.597 783.872 459.043 783.872 459.043C813.737 479.377 816.422 508.125 806.69 521.447C782.53 554.752 735.551 564.569 697.968 559.66C660.721 554.752 622.131 556.155 605.018 555.804C587.904 555.453 579.515 557.206 579.515 557.206C577.502 558.609 576.495 568.776 571.797 567.373C567.77 565.971 567.77 555.103 567.77 555.103C548.643 542.482 549.314 536.171 549.314 536.171Z" fill="#C68591"/>
<path d="M82.8821 440.112C81.8754 432.75 77.8487 431.698 77.8487 431.698C80.1976 427.14 81.5399 422.583 81.8755 421.18C82.8821 413.818 81.5399 396.64 81.5399 382.967C81.5399 371.047 82.5465 361.932 82.5465 361.932C103.016 363.334 120.801 349.662 162.746 319.161C195.631 295.321 252.341 262.717 349.654 237.475C396.968 225.205 475.154 249.395 571.46 243.084C680.183 236.073 769.442 188.394 838.568 199.963C938.565 217.141 971.786 217.842 990.577 286.557C1004.34 336.69 980.175 377.708 940.579 399.795C916.754 413.117 861.051 395.938 821.119 382.967C753.335 360.88 787.562 395.237 737.564 441.865C700.987 476.222 633.204 491.647 608.372 490.245C490.254 483.935 471.463 436.255 450.323 416.272C435.558 402.249 431.196 418.726 429.518 429.945C425.827 450.629 418.109 443.968 406.028 440.112C379.855 431.698 360.056 430.646 336.231 446.072C330.862 449.578 324.151 450.279 319.453 443.968C315.091 437.658 312.742 412.416 291.937 398.042C291.937 398.042 273.817 449.578 253.348 470.262C202.342 521.447 129.525 521.798 104.022 513.734C104.022 513.734 83.5532 519.343 70.8019 521.096C47.3125 524.252 23.1521 516.889 23.1521 516.889C21.8099 510.579 21.8098 508.475 20.8032 503.217C47.6481 505.32 85.5666 463.25 82.8821 440.112Z" fill="#D8A7A7"/>
<path d="M385.897 654.32C383.212 662.734 376.501 670.096 376.501 670.096L362.408 659.228C366.099 649.411 375.495 642.049 378.179 637.141C380.864 632.233 392.608 634.687 385.897 654.32Z" fill="#D8A7A7"/>
<path d="M889.91 651.514C891.923 662.382 886.554 676.054 883.87 679.21C877.494 675.704 870.112 671.146 866.085 671.497C869.105 660.629 876.487 652.215 879.172 644.853C878.836 644.853 887.225 637.14 889.91 651.514Z" fill="#D8A7A7"/>
<path d="M362.741 659.228C359.05 663.786 353.01 667.292 351.668 680.263C351.668 680.263 354.017 682.367 359.05 682.016L358.379 685.873C371.466 691.482 390.593 683.068 390.593 683.068C390.593 683.068 391.935 679.562 392.942 673.953C392.942 673.602 377.17 657.125 362.741 659.228Z" fill="#8E7262"/>
<path d="M359.053 681.665C359.053 681.665 361.737 670.797 365.764 665.889C360.06 670.096 357.04 675.004 354.355 681.315C356.368 682.016 359.053 681.665 359.053 681.665Z" fill="#7A614F"/>
<path d="M865.751 671.498C862.06 676.056 856.02 679.562 854.678 692.533C854.678 692.533 855.013 693.936 862.06 694.286L861.389 698.143C862.06 701.999 887.898 699.194 892.596 695.689C893.938 694.637 894.945 691.482 895.952 686.223C896.287 685.872 880.516 669.395 865.751 671.498Z" fill="#8E7262"/>
<path d="M855.014 690.779C856.357 677.807 862.061 675.704 865.752 671.497C872.464 670.445 879.51 673.6 885.215 677.106C885.215 677.106 882.53 689.026 877.497 694.986C874.812 697.79 861.39 697.79 861.725 696.038C861.725 695.687 862.732 691.48 862.732 691.48C857.028 692.532 855.014 690.779 855.014 690.779Z" fill="#A58779"/>
<path d="M862.059 693.935C862.059 693.935 865.414 682.366 869.441 677.107C863.736 681.314 859.71 687.624 857.361 693.584C859.374 694.285 862.059 693.935 862.059 693.935Z" fill="#7A614F"/>
<path d="M13.4244 481.832C20.1356 481.832 25.1691 486.74 30.8737 497.257C35.9071 506.723 36.2427 519.344 36.2427 519.344C36.2427 519.344 2.0153 491.297 5.37092 486.389C5.37092 486.74 8.0554 481.832 13.4244 481.832Z" fill="#EFBFCE"/>
<path d="M11.4101 482.885C16.7791 482.534 21.8125 487.092 29.5305 497.259C36.2417 506.023 37.9195 523.202 35.235 527.759C29.866 536.875 14.0945 532.317 8.38999 528.11C2.68543 523.903 -1.00573 517.943 0.336517 503.569C1.00764 497.609 3.35664 483.937 11.4101 482.885Z" fill="#C1748A"/>
<path d="M34.564 517.24C34.564 517.24 34.8996 524.252 32.8862 527.757C27.5172 536.873 14.0946 532.666 8.39009 528.459C3.35665 524.602 0.00102997 519.343 0.00102997 508.125C20.1348 496.906 34.564 517.24 34.564 517.24Z" fill="#D3889A"/>
<path d="M57.381 538.626C57.381 538.626 92.2796 527.758 122.145 495.504C131.876 488.142 96.9774 537.925 74.1591 545.637C61.4078 543.884 57.381 538.626 57.381 538.626Z" fill="#AF7E7E"/>
<path d="M57.3824 538.627C57.3824 538.627 92.281 527.758 122.146 495.505C94.2943 531.965 62.4159 542.483 62.4159 542.483C59.0603 540.73 57.3824 538.627 57.3824 538.627Z" fill="#936969"/>
<path d="M853.335 527.407C853.335 527.407 826.49 483.584 785.216 452.031C785.216 452.031 822.799 489.894 842.597 538.976C848.637 534.769 853.335 527.407 853.335 527.407Z" fill="#996B6B"/>
<path d="M443.613 522.499C443.613 522.499 447.304 472.365 444.284 441.514C453.68 487.09 454.351 529.16 454.351 529.16C445.962 524.602 443.613 522.499 443.613 522.499Z" fill="#996B6B"/>
<path d="M231.204 534.769C231.204 534.769 260.733 523.901 303.35 444.319C289.256 488.142 251.337 538.976 251.337 538.976C240.599 538.626 231.204 534.769 231.204 534.769Z" fill="#996B6B"/>
<path d="M117.446 434.504C117.446 441.866 123.151 447.826 130.198 447.826C137.245 447.826 142.949 441.866 142.949 434.504C142.949 427.141 137.245 421.181 130.198 421.181C123.151 421.181 117.446 427.141 117.446 434.504Z" fill="#BF9090"/>
<path d="M129.862 443.617C124.673 443.617 120.466 439.222 120.466 433.801C120.466 428.379 124.673 423.984 129.862 423.984C135.051 423.984 139.258 428.379 139.258 433.801C139.258 439.222 135.051 443.617 129.862 443.617Z" fill="black"/>
<path d="M129.19 429.595C129.19 431.348 130.532 433.101 132.546 433.101C134.224 433.101 135.901 431.698 135.901 429.595C135.901 427.842 134.559 426.089 132.546 426.089C130.532 426.089 129.19 427.491 129.19 429.595Z" fill="white"/>
<path d="M506.029 419.779C521.465 446.774 593.275 465.705 653.341 452.383C723.809 436.607 760.385 385.071 747.298 344.404C734.211 303.736 668.106 290.765 600.322 315.656C531.867 340.547 485.895 385.071 506.029 419.779Z" fill="#DDB3B3"/>
<path d="M155.701 430.297C132.211 442.917 128.856 469.211 131.54 479.027C135.567 494.453 164.425 497.258 187.915 484.286C211.404 471.665 226.84 449.579 217.109 435.205C207.713 422.233 178.854 417.676 155.701 430.297Z" fill="#DDB3B3"/>
<path d="M817.429 416.624C817.429 416.624 793.269 429.595 779.175 448.527L783.537 459.044C783.873 459.044 803.671 426.79 817.429 416.624Z" fill="#AF7E7E"/>
<path d="M750.655 551.949C750.655 551.949 752.668 568.076 747.634 568.777C742.266 569.478 739.245 554.753 739.245 554.753C740.252 550.196 748.641 548.443 750.655 551.949Z" fill="#C68591"/>
<path d="M693.943 555.805C693.943 555.805 693.272 570.179 687.903 570.179C682.198 570.179 681.863 554.754 681.863 554.754C683.54 551.248 692.936 550.897 693.943 555.805Z" fill="#C68591"/>
<path d="M641.594 552.299C641.594 552.299 641.594 566.322 636.225 566.322C630.521 565.971 630.185 553.35 630.185 553.35C632.199 550.195 639.916 548.442 641.594 552.299Z" fill="#C68591"/>
<path d="M481.196 531.966C481.196 531.966 481.196 543.535 477.505 543.185C473.478 543.185 472.472 532.667 473.143 531.615C474.15 530.213 480.19 529.161 481.196 531.966Z" fill="#AF7E7E"/>
<path d="M541.262 549.846C541.262 549.846 540.255 561.064 536.564 560.714C532.538 560.363 530.86 548.794 531.531 547.742C532.538 546.34 539.92 547.041 541.262 549.846Z" fill="#AF7E7E"/>
<path d="M502.673 537.925C502.673 537.925 502.673 549.845 498.982 549.845C494.955 549.845 493.613 538.626 494.62 537.574C495.627 536.172 501.331 535.12 502.673 537.925Z" fill="#AF7E7E"/>
<path d="M799.98 528.46C799.98 528.46 803 541.432 799.645 543.185C794.947 544.938 791.256 534.771 791.256 534.771C789.914 530.213 796.289 525.655 799.98 528.46Z" fill="#C68591"/>
<path d="M29.5307 506.723C32.2152 513.384 30.2018 515.488 27.5173 514.436C24.8328 513.384 22.1483 510.93 21.1416 505.672C20.1349 501.114 20.806 497.959 22.4838 497.959C24.4972 498.309 27.8529 502.166 29.5307 506.723Z" fill="#703E51"/>
<path d="M22.1464 497.959C19.7974 503.217 27.5154 514.086 30.5354 510.93C30.871 514.086 29.1932 514.787 27.5154 514.086C24.8309 513.034 22.1464 510.58 21.1397 505.321C20.4686 501.815 20.4686 498.309 22.1464 497.959Z" fill="#8C5769"/>
<path d="M2.01464 506.723C1.34352 512.683 3.35689 514.085 5.37026 512.332C6.71251 511.281 7.71924 506.723 7.71924 503.217C7.71924 499.361 7.38368 496.556 6.04143 497.608C4.36362 498.309 2.68577 502.516 2.01464 506.723Z" fill="#8C5769"/>
<path d="M3.69245 504.27C4.02801 501.114 4.69918 498.31 6.04143 497.609C7.38368 496.907 7.71924 499.362 7.71924 503.218C7.71924 505.321 7.38361 507.776 6.71249 509.528C5.7058 511.281 2.68577 509.528 3.69245 504.27Z" fill="#703E51"/>
<path d="M35.9083 514.085C35.9083 514.085 39.2639 532.316 27.1836 533.367L32.8882 535.471C32.8882 535.471 39.5994 531.615 35.9083 514.085Z" fill="#AF7E7E"/>
<path d="M216.104 413.469C216.104 413.469 210.399 419.779 187.245 420.13C159.729 420.48 142.615 418.026 128.186 394.187C117.448 376.658 89.9322 373.502 89.9322 373.502C142.615 349.663 216.104 413.469 216.104 413.469Z" fill="#BF9090"/>
<path d="M216.101 413.467C216.101 413.467 213.081 354.92 162.747 342.299C130.197 334.236 91.943 358.075 85.5674 366.84C79.1917 375.604 95.9698 373.15 107.379 374.903C118.788 376.656 126.506 379.11 136.237 386.473C147.646 394.536 188.249 415.921 216.101 413.467Z" fill="#D3889C"/>
<path d="M85.5673 366.839C86.574 365.787 87.9163 364.034 89.9297 362.632C81.5407 372.799 106.708 357.022 146.975 381.213C182.209 402.248 211.403 391.029 211.403 391.029C216.101 403.299 216.101 413.817 216.101 413.817C175.162 422.581 144.626 398.041 133.553 389.977C123.821 382.966 118.788 377.356 107.379 375.603C96.3053 373.149 79.5272 375.603 85.5673 366.839Z" fill="#C47A91"/>
</g>
</g>
<defs>
<clipPath id="clip0_1276_8401">
<rect width="1000" height="700" fill="white"/>
</clipPath>
<clipPath id="clip1_1276_8401">
<rect width="1000" height="550" fill="white" transform="matrix(-1 0 0 1 1000 150)"/>
</clipPath>
</defs>
</svg>
