<svg width="270" height="480" viewBox="0 0 270 480" fill="none" xmlns="http://www.w3.org/2000/svg">
<g clip-path="url(#clip0_1976_5458)">
<path d="M231.635 451.025C231.728 451.025 231.821 451.019 231.914 451.01C233.244 450.853 233.579 450.139 233.428 448.771L231.098 427.816C230.945 426.444 229.726 425.472 228.416 425.62L215.298 426.888C213.967 427.045 213.014 428.282 213.165 429.649C213.319 431.017 214.542 431.97 215.847 431.845L227.178 430.337L229.231 448.814C229.373 450.086 230.421 451.025 231.635 451.025Z" fill="#97A1AF"/>
<path d="M207.312 457.3C208.898 469.077 217.106 477.636 225.644 476.417C234.183 475.198 239.819 464.663 238.232 452.887C236.646 441.11 228.438 432.552 219.9 433.77C211.361 434.989 205.725 445.524 207.312 457.3Z" fill="#292A2C"/>
<path d="M216.799 455.947C217.512 461.245 219.648 465.317 221.569 465.043C223.49 464.769 224.469 460.252 223.755 454.954C223.042 449.656 220.905 445.583 218.985 445.857C217.064 446.131 216.085 450.649 216.799 455.947Z" fill="#DFE0E0"/>
<path d="M218.349 458.818C218.442 458.818 218.535 458.812 218.628 458.803C219.958 458.645 220.912 457.409 220.76 456.041L217.685 429.098C217.534 427.727 216.322 426.753 215.002 426.903C213.672 427.06 212.718 428.297 212.869 429.664L215.945 456.607C216.087 457.879 217.135 458.818 218.349 458.818Z" fill="#97A1AF"/>
<path d="M195.037 414.849C184.634 406.037 176.441 384.495 174.165 359.966C170.949 325.315 180.13 296.984 195.065 295.462C198.95 295.049 202.814 296.483 206.575 299.668C216.977 308.478 225.169 330.02 227.446 354.551C230.661 389.2 221.483 417.533 206.547 419.056C206.216 419.091 205.884 419.11 205.552 419.118C202.009 419.195 198.477 417.763 195.037 414.849ZM195.419 299.143C182.913 300.416 174.816 328.108 177.741 359.613C179.931 383.214 187.616 403.775 197.319 411.992C200.319 414.531 203.32 415.664 206.194 415.375C218.699 414.101 226.794 386.407 223.87 354.904C221.68 331.301 213.995 310.741 204.292 302.525C201.536 300.19 198.791 299.04 196.119 299.099C195.886 299.104 195.652 299.12 195.419 299.143Z" fill="#ABB8C9"/>
<path d="M164.107 344.954L193.619 355.982L168.699 309.081C168.588 308.871 168.663 308.607 168.868 308.49C169.069 308.379 169.326 308.455 169.442 308.664L193.904 354.704L187.754 288.434C187.731 288.194 187.902 287.982 188.134 287.959C188.346 287.954 188.574 288.112 188.594 288.35L194.726 354.421L209.491 303.882C209.558 303.652 209.799 303.529 210.017 303.591C210.241 303.66 210.367 303.903 210.3 304.132L195.294 355.496L220.133 332.886C220.314 332.729 220.576 332.745 220.731 332.924C220.885 333.105 220.868 333.379 220.694 333.539L195.334 356.622L225.225 367.792C225.444 367.874 225.556 368.122 225.477 368.348C225.416 368.521 225.258 368.631 225.09 368.635C225.039 368.636 224.988 368.626 224.937 368.607L195.434 357.583L220.251 404.291C220.363 404.501 220.287 404.765 220.083 404.882C220.02 404.915 219.956 404.933 219.889 404.935C219.736 404.938 219.587 404.854 219.509 404.708L195.136 358.837L201.288 425.128C201.311 425.368 201.124 425.58 200.893 425.604C200.673 425.608 200.468 425.439 200.448 425.212L194.295 358.915L179.463 409.681C179.409 409.867 179.247 409.988 179.068 409.991C179.024 409.993 178.98 409.986 178.938 409.973C178.713 409.904 178.587 409.661 178.654 409.432L193.63 358.173L168.909 380.675C168.83 380.746 168.734 380.782 168.637 380.784C168.518 380.787 168.398 380.737 168.311 380.638C168.157 380.457 168.174 380.182 168.348 380.023L193.709 356.938L163.819 345.769C163.6 345.688 163.487 345.439 163.567 345.214C163.648 344.988 163.888 344.876 164.107 344.954Z" fill="#B4CAD5"/>
<path d="M185.112 424.876C172.233 413.971 162.565 389.223 159.88 360.29C155.971 318.164 167.907 284.881 187.644 282.871C193.128 282.314 198.777 284.322 203.93 288.686C216.809 299.592 226.477 324.34 229.162 353.273C233.071 395.398 221.135 428.682 201.398 430.691C200.927 430.739 200.454 430.768 199.98 430.778C194.932 430.889 189.821 428.866 185.112 424.876ZM188.704 293.913C177.386 295.064 167.172 322.176 170.611 359.235C172.96 384.548 181.539 407.485 191.958 416.309C194.893 418.793 197.71 419.933 200.338 419.649C211.656 418.498 221.87 391.387 218.431 354.328C216.082 329.014 207.503 306.078 197.083 297.253C194.37 294.956 191.755 293.823 189.302 293.877C189.102 293.881 188.902 293.893 188.704 293.913Z" fill="#292A2C"/>
<path d="M219.041 437.792C219.116 437.792 219.192 437.79 219.269 437.784C221.324 437.657 222.889 435.84 222.765 433.725L214.129 285.75C214.006 283.637 212.255 282.014 210.186 282.151C208.131 282.278 206.566 284.096 206.689 286.211L215.325 434.186C215.443 436.222 217.085 437.792 219.041 437.792Z" fill="#97A1AF"/>
<path d="M232.466 288.918L212.133 290.407L163.616 263.672L163.327 257.965L233 282.422L232.466 288.918Z" fill="#B6C0D3"/>
<path d="M233 282.423C233.495 279.197 229.833 274.7 223.388 271.843C207.568 264.83 183.523 254.739 180.758 253.302C177.897 251.815 171.209 252.803 165.873 254.055C163.028 254.723 162.534 257.056 163.393 259.028L212.178 283.861L233 282.423Z" fill="#7AB9DA"/>
<path d="M56.4746 286.583L168.086 284.981L163.12 204.888L52.6628 207.072L56.4746 286.583Z" fill="#5B91A7"/>
<path d="M174.453 376.089C174.509 376.089 174.566 376.087 174.624 376.085C176.678 375.989 178.273 374.196 178.18 372.08L171.107 210.724C170.367 204.017 169.349 194.83 161.187 187.548C153.722 180.886 137.508 177.289 125.67 174.665C123.555 174.194 121.651 173.773 120.077 173.389C118.081 172.906 116.066 174.174 115.591 176.238C115.116 178.301 116.355 180.367 118.359 180.856C119.975 181.25 121.928 181.684 124.099 182.166C133.892 184.337 150.282 187.973 156.306 193.346C162.272 198.67 162.998 205.238 163.702 211.591L170.733 372.424C170.822 374.481 172.472 376.089 174.453 376.089Z" fill="#97A1AF"/>
<path d="M124.291 425.503C124.377 425.503 124.463 425.499 124.55 425.494C126.603 425.349 128.155 423.517 128.013 421.404L124.681 371.339C124.615 370.341 124.173 369.41 123.449 368.743L88.1971 336.272C86.6593 334.855 84.3059 334.994 82.934 336.571C81.5616 338.151 81.6909 340.577 83.225 341.989L117.348 373.421L120.577 421.929C120.711 423.954 122.35 425.503 124.291 425.503Z" fill="#8C98A5"/>
<path d="M230.988 419.208C231.079 419.208 231.17 419.204 231.262 419.198C233.315 419.043 234.859 417.205 234.709 415.092L231.051 363.476C230.966 362.268 230.331 361.172 229.337 360.52L191.83 335.894C190.094 334.761 187.79 335.278 186.684 337.067C185.577 338.853 186.087 341.224 187.823 342.365L223.752 365.955L227.273 415.65C227.417 417.668 229.053 419.208 230.988 419.208Z" fill="#8C98A5"/>
<path d="M59.5186 304.007V314.958C59.7955 315.036 105.671 364.724 105.671 364.724L105.842 351.167L59.5186 304.007Z" fill="#A1ABBE"/>
<path d="M225.393 345.894V356.441C225.67 356.518 108.613 364.729 105.671 364.724L105.843 351.167L225.393 345.894Z" fill="#B6C0D3"/>
<path d="M225.393 346.21C231.163 327.426 164.758 301.145 164.758 301.145C164.758 301.145 130.695 300.743 98.201 301.449C72.27 302.013 58.7973 300.61 58.8216 305.606L105.671 353.365L225.393 346.21Z" fill="#5B91A7"/>
<path d="M47.2502 365.662C47.3464 365.662 47.4429 365.658 47.5395 365.651L58.1205 364.811C60.1735 364.649 61.7094 362.803 61.551 360.692C61.3926 358.577 59.5819 357.005 57.5491 357.16L46.9681 358C44.9152 358.163 43.3792 360.008 43.5376 362.119C43.6885 364.133 45.321 365.662 47.2502 365.662Z" fill="#97A1AF"/>
<path d="M98.0757 434.272C98.7675 434.272 99.4645 434.039 100.049 433.56C101.417 432.438 101.643 430.386 100.551 428.978L60.5528 377.321C59.4663 375.91 57.4738 375.674 56.1014 376.804C54.7328 377.926 54.5073 379.977 55.599 381.386L95.5972 433.043C96.2215 433.85 97.144 434.272 98.0757 434.272Z" fill="#97A1AF"/>
<path d="M219.605 427.385C220.297 427.385 220.994 427.153 221.578 426.673C222.947 425.551 223.173 423.499 222.08 422.091L176.347 370.434C175.26 369.023 173.268 368.787 171.896 369.917C170.527 371.039 170.301 373.09 171.393 374.499L217.127 426.156C217.751 426.963 218.673 427.385 219.605 427.385Z" fill="#97A1AF"/>
<path d="M58.6622 384.345L58.7714 384.343C60.8299 384.281 62.4494 382.514 62.3893 380.397L59.3476 212.82C58.6033 206.115 57.5858 196.932 49.4255 189.652C41.96 182.99 25.7468 179.393 13.9081 176.769C11.7934 176.298 9.88987 175.877 8.31552 175.493C6.32632 175.014 4.30618 176.278 3.82948 178.342C3.35427 180.405 4.59393 182.471 6.59767 182.96C8.21339 183.354 10.1664 183.788 12.3375 184.27C22.1303 186.441 38.5205 190.077 44.5444 195.45C50.5082 200.772 51.2362 207.341 51.9406 213.691L52.0241 214.433L54.9387 380.618C54.9969 382.7 56.6529 384.345 58.6622 384.345Z" fill="#97A1AF"/>
<path d="M158.75 196.629C161.981 196.629 164.958 194.45 165.904 191.097C167.054 187.026 164.781 182.768 160.829 181.586L121.3 169.755C117.346 168.575 113.209 170.913 112.06 174.98C110.91 179.051 113.183 183.309 117.136 184.491L156.665 196.322C157.36 196.529 158.06 196.629 158.75 196.629Z" fill="#7AB9DA"/>
<path d="M46.9886 198.732C50.219 198.732 53.1963 196.553 54.1426 193.2C55.2928 189.129 53.0196 184.871 49.0669 183.689L9.53837 171.858C5.58755 170.67 1.44702 173.014 0.298678 177.083C-0.851509 181.154 1.42169 185.412 5.37436 186.594L44.9029 198.425C45.598 198.632 46.2987 198.732 46.9886 198.732Z" fill="#7AB9DA"/>
<path d="M157.349 446.074L119.451 424.143V417.899L157.526 437.122L157.349 446.074Z" fill="#A9B5C6"/>
<path d="M157.35 446.074L267.477 437.961V429.369L157.526 437.122L157.35 446.074Z" fill="#B6C0D3"/>
<path d="M119.451 417.899L233.285 411.165L267.477 429.369L157.526 437.123L119.451 417.899Z" fill="#7D8CA2"/>
<path d="M211.646 405.386C208.066 407.921 186.925 413.258 187.659 407.833C187.236 403.807 187.875 393.842 188.198 383.396C197.624 384.264 206.217 386.083 213.377 388.618C212.667 395.736 211.928 401.748 211.646 405.386Z" fill="#EEBF9E"/>
<path d="M165.093 383.24C163.873 393.989 162.632 404.187 162.867 411.624C159.374 414.279 140.492 411.45 137.831 408.447C138.043 403.448 138.107 396.196 138.059 388.576C145.69 385.888 154.948 384.022 165.093 383.24Z" fill="#EEBF9E"/>
<path d="M186.647 390.089C187.238 375.208 187.519 357.258 185.45 352.442C181.999 344.408 159.078 331.058 130.526 332.079C121.287 317.013 119.329 301.305 156.618 292.714C183.206 303.35 200.953 319.443 208.04 327.198C218.15 338.265 216.245 371.243 214.124 391.433C205.249 391.743 195.058 390.386 186.647 390.089Z" fill="#64505D"/>
<path opacity="0.11" d="M172.484 332.458C174.533 335.232 174.803 339.181 174.173 343.583C167.307 339.433 143.02 329.073 131.826 327.198C136.058 314.69 151.812 304.482 172.484 332.458Z" fill="black"/>
<path d="M89.8561 290.407C122.352 294.272 153.575 322.657 160.904 330.169C171.513 341.043 167.9 369.869 165.532 393.169C156.989 393.288 145.129 393.499 136.524 393.169C136.57 375.993 137.476 355.508 136.571 353.022C133.58 344.796 95.193 344.528 86.6279 320.549C83.909 312.937 85.8523 301.609 89.8561 290.407Z" fill="#64505D"/>
<path d="M219.414 403.558C219.128 401.965 218.444 399.925 217.936 398.067C217.559 396.69 205.333 396.108 205.071 399.346C205.004 400.173 204.984 400.907 205 401.575C202.91 401.46 200.647 401.285 198.26 401.036C193.071 400.491 188.441 399.73 185.208 398.953C184.636 404.062 184.428 412.958 183.836 418.638C183.836 418.638 237.536 433.205 246.719 425.234C249.308 422.989 236.382 411.415 219.414 403.558Z" fill="#E8A234"/>
<path d="M184.134 415.072C184.043 416.337 183.948 417.557 183.835 418.638C183.835 418.638 237.535 433.205 246.719 425.234C247.083 424.919 247.135 424.413 246.916 423.763C231.638 426.303 197.504 418.417 184.134 415.072Z" fill="#C17A1D"/>
<path d="M223.111 405.464C223.507 405.586 223.941 405.335 224.065 404.897C224.187 404.458 223.958 404.001 223.553 403.878C220.451 402.913 216.646 404.268 214.315 407.159C214.035 407.505 214.067 408.027 214.385 408.321C214.506 408.435 214.652 408.499 214.803 408.515C215.042 408.539 215.291 408.443 215.463 408.23C217.411 405.81 220.562 404.684 223.111 405.464ZM227.153 407.819C227.559 407.887 227.97 407.598 228.049 407.15C228.129 406.701 227.858 406.274 227.443 406.193C224.152 405.57 220.749 406.691 218.143 409.287C217.832 409.597 217.809 410.12 218.092 410.451C218.223 410.604 218.395 410.689 218.573 410.708C218.783 410.731 219.003 410.658 219.173 410.489C222.247 407.426 225.487 407.499 227.153 407.819ZM231.706 408.775C228.748 408.02 224.77 409.256 222.035 411.775C221.711 412.074 221.669 412.594 221.94 412.938C222.073 413.104 222.253 413.2 222.441 413.219C222.642 413.241 222.851 413.175 223.017 413.023C225.401 410.827 228.814 409.742 231.335 410.38C231.742 410.479 232.159 410.21 232.261 409.766C232.364 409.323 232.117 408.878 231.706 408.775Z" fill="#E1E4EB"/>
<path d="M168.997 405.191C168.69 403.603 167.979 401.573 167.446 399.722C167.051 398.35 154.818 397.942 154.599 401.183C154.544 402.011 154.533 402.746 154.559 403.413C152.467 403.328 150.202 403.185 147.812 402.97C142.616 402.499 137.976 401.804 134.734 401.073C134.23 406.189 134.141 415.088 133.625 420.775C133.625 420.775 187.515 434.578 196.591 426.477C199.149 424.195 186.07 412.806 168.997 405.191Z" fill="#E8A234"/>
<path d="M133.876 417.206C133.801 418.472 133.723 419.693 133.625 420.775C133.625 420.775 187.515 434.578 196.591 426.477C196.951 426.157 196.996 425.651 196.768 425.003C181.526 427.76 147.29 420.361 133.876 417.206Z" fill="#C17A1D"/>
<path d="M172.72 407.044C173.118 407.161 173.548 406.904 173.666 406.464C173.782 406.023 173.547 405.57 173.141 405.452C170.026 404.531 166.24 405.94 163.948 408.864C163.673 409.214 163.712 409.735 164.033 410.025C164.155 410.137 164.303 410.199 164.454 410.213C164.693 410.234 164.941 410.134 165.11 409.919C167.025 407.472 170.161 406.301 172.72 407.044ZM176.794 409.341C177.2 409.404 177.608 409.109 177.68 408.66C177.754 408.209 177.478 407.786 177.062 407.712C173.762 407.135 170.375 408.305 167.804 410.937C167.497 411.252 167.481 411.775 167.769 412.102C167.902 412.253 168.075 412.335 168.253 412.353C168.464 412.372 168.682 412.296 168.85 412.125C171.883 409.018 175.123 409.045 176.794 409.341ZM181.359 410.232C178.391 409.52 174.43 410.812 171.729 413.37C171.409 413.673 171.374 414.194 171.65 414.534C171.785 414.698 171.966 414.791 172.154 414.808C172.356 414.827 172.564 414.759 172.728 414.604C175.082 412.374 178.48 411.24 181.009 411.842C181.417 411.936 181.832 411.661 181.927 411.215C182.025 410.771 181.77 410.33 181.359 410.232Z" fill="#E1E4EB"/>
<path d="M232.985 176.202C235.213 180.169 238.818 184.778 241.405 188.508C228.006 204.355 202.783 232.474 162.662 230.767C161.502 222.212 159.784 219.805 158.263 211.31C185.523 208.256 210.819 195.34 232.985 176.202Z" fill="#EEBF9E"/>
<path d="M189.15 236.982C191.384 231.486 186.357 207.863 183.461 203.841C169.924 207.3 164.05 208.566 149.141 209.197C149.979 222.259 150.017 240.979 158.264 243.096C167.136 245.375 189.15 236.982 189.15 236.982Z" fill="#B73333"/>
<path d="M84.5496 306.242C93.0088 312.258 112.579 299.023 126.988 305.176C151.468 315.629 158.863 302.312 176.357 300.942C173.916 299.322 174.796 298.162 172.58 297.344C171.688 297.014 174.42 295.44 172.243 293.349C170.902 292.061 170.73 289.292 170.144 286.716C168.755 280.609 162.859 226.51 159.402 208.727C146.246 209.73 118.059 207.808 91.7456 215.722C88.3293 233.139 86.7378 298.082 84.5496 306.242Z" fill="#B73333"/>
<path d="M144.089 193.333L143.332 215.903C143.169 220.756 136.585 224.462 128.626 224.179C120.668 223.896 114.348 219.732 114.51 214.879L115.267 192.309L144.089 193.333Z" fill="#CC936E"/>
<path d="M141.105 312.156C140.104 317.191 127.202 323.027 122.469 323.027C90.1665 304.007 80.5903 290.505 79.8184 244.333C87.7732 241.989 94.5858 237.912 102.446 235.303C104.25 273.091 102.446 296.008 141.105 312.156Z" fill="#EEBF9E"/>
<path d="M114.542 261.823C98.1661 267.635 81.6395 267.488 74.5314 266.476C74.0744 248.012 76.8631 220.321 92.5683 215.378C109.864 235.148 112.968 254.736 114.542 261.823Z" fill="#B73333"/>
<path d="M14.5906 349.793L45.9477 362.577L20.3025 310.623C20.1877 310.39 20.2741 310.103 20.4959 309.98C20.714 309.864 20.9883 309.953 21.1064 310.184L46.2816 361.185L41.1642 288.472C41.1456 288.209 41.3334 287.981 41.5813 287.962C41.8086 287.962 42.0494 288.14 42.0662 288.401L47.1679 360.894L64.0987 305.91C64.1758 305.659 64.4367 305.53 64.6678 305.604C64.9067 305.685 65.036 305.954 64.9592 306.203L47.752 362.086L74.8519 337.924C75.0491 337.756 75.329 337.78 75.4907 337.98C75.6521 338.182 75.6279 338.482 75.4378 338.652L47.7695 363.32L79.5303 376.268C79.7632 376.363 79.878 376.638 79.7878 376.883C79.7181 377.071 79.547 377.188 79.367 377.188C79.3122 377.188 79.2578 377.176 79.2034 377.154L47.8556 364.374L73.3957 416.115C73.5101 416.348 73.4237 416.634 73.2019 416.757C73.1344 416.793 73.0647 416.81 72.9935 416.81C72.8299 416.81 72.6723 416.716 72.5914 416.553L47.509 365.74L52.6275 438.475C52.6465 438.738 52.4415 438.967 52.1937 438.987C51.9589 438.987 51.7427 438.795 51.7259 438.546L46.6066 365.805L29.5995 421.037C29.5373 421.239 29.3606 421.367 29.169 421.367C29.1221 421.367 29.0751 421.359 29.03 421.344C28.7915 421.263 28.6618 420.994 28.7389 420.744L45.9108 364.977L18.9402 389.023C18.8537 389.098 18.7505 389.135 18.6472 389.135C18.5194 389.135 18.3916 389.078 18.3014 388.967C18.1396 388.766 18.1642 388.465 18.3539 388.295L46.0226 363.627L14.2633 350.679C14.0304 350.584 13.916 350.31 14.0062 350.064C14.0982 349.819 14.3573 349.702 14.5906 349.793Z" fill="#B4CAD5"/>
<path d="M35.3116 437.81C21.7625 425.559 11.9582 398.228 9.72411 366.483C6.47179 320.262 19.9906 284.104 41.1699 282.378C47.0547 281.899 53.06 284.233 58.4808 289.136C72.0298 301.386 81.8341 328.717 84.0682 360.463C87.3205 406.684 73.8017 442.841 52.622 444.568C52.1166 444.61 51.6093 444.629 51.1021 444.629C45.6943 444.629 40.2661 442.291 35.3116 437.81ZM42.0607 294.493C29.9153 295.483 18.3767 324.924 21.2381 365.585C23.1923 393.359 31.871 418.681 42.833 428.593C45.9198 431.384 48.9113 432.699 51.7316 432.452C63.877 431.463 75.4156 402.022 72.5538 361.36C70.5997 333.587 61.921 308.265 50.9593 298.352C48.1051 295.771 45.3298 294.468 42.7014 294.468C42.4871 294.468 42.2728 294.476 42.0607 294.493Z" fill="#292A2C"/>
<path d="M33.3571 426.782C22.4122 416.884 14.1167 393.099 12.2229 366.185C9.54714 328.166 20.0052 297.364 36.0328 296.057C40.2021 295.697 44.3075 297.36 48.2647 300.938C59.2077 310.835 67.5029 334.62 69.397 361.535C72.0728 399.552 61.6161 430.356 45.5889 431.666C45.2337 431.695 44.877 431.709 44.5218 431.709C40.7265 431.709 36.9758 430.056 33.3571 426.782ZM36.3295 300.095C22.9102 301.189 13.6262 331.317 16.0596 365.885C17.8822 391.78 25.6552 414.479 35.8636 423.709C39.0201 426.561 42.2088 427.874 45.2922 427.627C58.7116 426.532 67.9934 396.402 65.5603 361.836C63.7377 335.939 55.9646 313.242 45.7563 304.012C42.8569 301.389 39.9426 300.064 37.0813 300.064C36.8312 300.064 36.5796 300.075 36.3295 300.095Z" fill="#ABB8C9"/>
<path d="M98.7156 433.14C98.7901 433.14 98.8665 433.139 98.9429 433.133C100.998 433.005 102.563 431.188 102.439 429.073L94.0748 285.75C93.9526 283.637 92.2347 282.014 90.1307 282.151C88.0763 282.278 86.5113 284.096 86.635 286.211L94.9992 429.534C95.1173 431.57 96.7591 433.14 98.7156 433.14Z" fill="#97A1AF"/>
<path d="M108.739 454.494C108.832 454.494 108.925 454.488 109.018 454.479C110.348 454.321 110.683 453.607 110.532 452.24L108.202 431.284C108.05 429.913 106.83 428.941 105.52 429.089L92.4014 430.357C91.0712 430.514 90.1174 431.751 90.2684 433.118C90.423 434.486 91.6463 435.439 92.9512 435.314L104.282 433.806L106.335 452.283C106.477 453.555 107.525 454.494 108.739 454.494Z" fill="#97A1AF"/>
<path d="M84.4158 460.768C86.0024 472.545 94.21 481.103 102.749 479.885C111.287 478.666 116.923 468.131 115.336 456.354C113.75 444.578 105.542 436.019 97.0035 437.238C88.4653 438.457 82.8295 448.992 84.4158 460.768Z" fill="#292A2C"/>
<path d="M93.9025 459.413C94.6163 464.711 96.7523 468.784 98.6733 468.51C100.594 468.235 101.573 463.718 100.859 458.42C100.146 453.122 98.0098 449.05 96.0889 449.324C94.1675 449.598 93.1888 454.115 93.9025 459.413Z" fill="#DFE0E0"/>
<path d="M95.453 462.286C95.5458 462.286 95.6386 462.281 95.7314 462.271C97.062 462.114 98.0154 460.878 97.8645 459.51L94.7888 432.567C94.6375 431.196 93.4254 430.222 92.106 430.372C90.7758 430.529 89.822 431.765 89.9733 433.133L93.0489 460.076C93.191 461.348 94.239 462.286 95.453 462.286Z" fill="#97A1AF"/>
<path d="M103.106 288.918L82.7721 290.407L34.2554 263.672L33.9666 257.965L103.64 282.422L103.106 288.918Z" fill="#B6C0D3"/>
<path d="M103.64 282.423C104.134 279.197 100.472 274.7 94.0269 271.843C78.2069 264.83 54.1622 254.739 51.3966 253.302C48.5363 251.815 41.8487 252.803 36.5125 254.055C33.6672 254.723 33.1733 257.056 34.0317 259.028L82.8178 283.861L103.64 282.423Z" fill="#7AB9DA"/>
<path d="M184.783 391.369C184.897 389.42 185.006 381.696 185.134 380.156L217.507 381.727C217.507 381.727 217.445 391.486 217.349 393.099C213.586 393.443 186.426 392.478 184.783 391.369Z" fill="#4E3A48"/>
<path d="M134.307 393.443C134.42 391.493 134.512 383.767 134.64 382.228L168.088 383.889C168.088 383.889 168.049 393.649 167.954 395.262C164.068 395.597 136.007 394.556 134.307 393.443Z" fill="#4E3A48"/>
<path d="M217.815 147.401C216.745 166.052 207.377 179.833 199.349 179.94C191.322 180.047 188.397 165.643 188.119 147.981C187.839 130.318 194.123 115.869 202.151 115.805C213.126 115.723 218.82 129.866 217.815 147.401Z" fill="#EEBF9E"/>
<path d="M207.647 156.992C205.52 164.317 200.504 168.602 196.443 166.559C192.38 164.515 190.812 156.916 192.941 149.589C195.069 142.26 200.083 137.978 204.143 140.022C208.205 142.066 209.773 149.661 207.647 156.992Z" fill="#CC936E"/>
<path d="M199.234 104.151C200.448 162.019 165.877 188.829 116.697 189.922C67.5194 191.015 30.9059 165.787 29.6923 107.918C28.4787 50.0495 64.2645 35.8088 113.442 34.7161C162.621 33.6231 198.02 46.2819 199.234 104.151Z" fill="#874938"/>
<path d="M192.85 73.7094C194.718 75.4792 195.651 78.0502 195.235 83.882C192.084 128.115 201.56 132.587 202.133 159.895C202.697 186.769 186.596 203.653 165.391 208.961C144.692 214.143 90.2163 218.078 60.5245 164.135C47.924 141.243 47.4235 92.8732 50.7437 83.4269C61.9673 51.5276 78.3929 54.3506 118.401 53.4613C155.825 52.6295 171.659 53.6335 192.85 73.7094Z" fill="#EEBF9E"/>
<path d="M69.1585 116.555C72.4604 133.797 73.8589 148.093 62.3087 158.075C48.8376 169.719 35.1279 130.832 34.5509 103.32C33.974 75.8043 52.4776 54.9984 86.5562 56.6413C104.124 57.4884 60.2964 70.2818 69.1585 116.555Z" fill="#874938"/>
<path d="M114.074 168.705C113.717 172.229 108.063 174.509 101.449 173.797C94.8348 173.084 89.7625 169.65 90.1206 166.125C90.4788 162.601 96.1318 160.321 102.746 161.033C109.36 161.746 114.433 165.18 114.074 168.705Z" fill="#E69595"/>
<path d="M197.462 167.935C197.52 170.715 194.16 173.046 189.958 173.139C185.756 173.233 182.301 171.054 182.243 168.273C182.185 165.492 185.545 163.162 189.746 163.069C193.949 162.976 197.403 165.154 197.462 167.935Z" fill="#E69595"/>
<path d="M193.22 109.396C193.788 109.398 194.352 109.154 194.75 108.676C195.467 107.813 195.368 106.512 194.533 105.774C188.434 100.393 177.656 99.0908 168.89 102.672C167.862 103.093 167.362 104.29 167.769 105.348C168.177 106.406 169.347 106.918 170.364 106.501C177.701 103.501 186.974 104.526 191.926 108.899C192.304 109.231 192.762 109.394 193.22 109.396Z" fill="#874938"/>
<path d="M97.3507 107.805C97.8457 107.807 98.3358 107.624 98.723 107.25C103.493 102.668 112.704 101.22 120.162 103.894C121.239 104.277 122.346 103.697 122.71 102.626C123.074 101.553 122.521 100.379 121.481 100.007C112.592 96.8119 101.864 98.5986 95.9955 104.241C95.1848 105.017 95.1427 106.32 95.8949 107.152C96.2888 107.583 96.8192 107.802 97.3507 107.805Z" fill="#874938"/>
<path d="M123.505 174.68C123.848 184.359 135.516 194.237 148.502 193.627C161.488 193.016 172.888 182.284 172.544 172.605C172.201 162.926 160.079 167.653 147.07 167.62C134.077 167.587 123.162 165.001 123.505 174.68Z" fill="#551104"/>
<path d="M149.334 184.867C156.353 184.536 161.593 186.463 163.949 187.853C159.892 190.632 154.34 193.574 148.51 193.848C141.946 194.157 136.127 191.547 131.693 188.558C135.246 185.815 143.103 185.16 149.334 184.867Z" fill="#D06B5E"/>
<path d="M130.352 167.451C134.498 166.311 140.578 167.388 147.054 167.405C154.361 167.423 161.159 165.568 165.729 166.582C163.89 172.719 155.32 175.556 149.166 175.795C140.159 176.145 131.807 171.302 130.352 167.451Z" fill="white"/>
<path d="M155.045 159.909C154.705 159.917 154.401 159.671 154.336 159.317C153.877 156.8 151.902 155.211 149.307 155.268C146.696 155.326 144.746 157.035 144.453 159.52C144.406 159.918 144.052 160.204 143.667 160.154C143.28 160.106 143.005 159.744 143.051 159.345C143.426 156.162 145.986 153.887 149.276 153.814C152.547 153.741 155.139 155.845 155.724 159.048C155.796 159.442 155.544 159.822 155.161 159.897L155.045 159.909Z" fill="#B58A75"/>
<path d="M25.0514 161.981C31.7435 180.191 50.6321 189.98 63.7096 186.656C76.7909 183.333 77.7212 167.667 73.4823 149.871C69.2415 132.076 55.1916 120.299 42.1259 123.668C24.2642 128.273 18.761 144.864 25.0514 161.981Z" fill="#EEBF9E"/>
<path d="M46.8191 165.807C50.5999 173.847 59.7568 176.58 63.4356 174.092C67.5705 171.295 67.2186 166.415 64.9924 158.426C62.3886 149.096 57.9145 144.155 51.7669 146.694C45.3751 149.334 42.367 156.348 46.8191 165.807Z" fill="#CC936E"/>
<path d="M189.388 53.0615C197.43 49.6726 202.152 45.9161 201.705 42.5317C200.932 36.6838 185.022 33.8017 164.06 35.0924C172.608 26.9383 175.489 22.7667 173.128 15.1731C168.38 -0.0942278 139.341 -4.587 108.272 5.13055C77.2042 14.8497 57.6246 29.7253 62.3708 44.9872C52.1878 46.3826 46.3063 53.4939 44.6279 57.6797C47.9858 63.7524 53.1274 70.4809 62.8225 78.3441C76.6556 89.5634 93.303 89.9486 96.8844 83.9453C98.2545 81.6441 97.7044 78.4251 95.6612 74.8224C107.166 79.2296 121.907 82.8699 138.181 84.9471C176.748 89.8722 215.82 84.7633 217.35 72.8201C218.175 66.3841 206.441 55.2058 189.388 53.0615Z" fill="#874938"/>
<path d="M166.143 154.563C166.143 154.563 184.882 161.967 192.083 149.925C200.857 135.251 187.565 123.573 178.907 125.805C170.894 127.87 163.59 136.313 166.143 154.563Z" fill="#F9FDFF"/>
<path d="M193.571 131.155C190.116 125.796 185.446 124.094 180.372 124.691C175.185 125.302 169.915 129.771 168.412 134.398C171.222 129.191 176.036 127.302 179.032 126.531C183.802 125.295 190.04 127.936 192.829 133.209C195.309 137.9 195.068 144.92 191.847 150.305C195.64 146.652 197.172 136.739 193.571 131.155Z" fill="#874938"/>
<path d="M170.6 138.17C168.247 143.194 169.614 149.411 173.652 152.058C177.69 154.704 182.871 152.777 185.224 147.753C187.577 142.729 186.211 136.512 182.172 133.866C178.134 131.219 172.953 133.147 170.6 138.17Z" fill="#5A9794"/>
<path d="M171.476 136.632C170.824 138.026 171.203 139.751 172.323 140.486C173.444 141.22 174.881 140.685 175.534 139.291C176.187 137.897 175.808 136.172 174.687 135.438C173.567 134.704 172.129 135.239 171.476 136.632Z" fill="#FDFFFD"/>
<path d="M129.24 154.4C129.24 154.4 106.936 161.624 98.5011 149.512C88.2231 134.754 104.101 123.205 114.355 125.52C123.844 127.662 132.434 136.175 129.24 154.4Z" fill="#F9FDFF"/>
<path d="M96.9056 130.729C101.055 125.404 106.61 123.747 112.626 124.393C118.776 125.053 124.988 129.573 126.729 134.215C123.443 128.98 117.747 127.044 114.2 126.245C108.551 124.963 101.125 127.544 97.7677 132.79C94.7818 137.457 95.0044 144.479 98.777 149.895C94.3104 146.205 92.5821 136.278 96.9056 130.729Z" fill="#874938"/>
<path d="M102.916 138.835C100.85 144.114 103.331 150.117 108.459 152.244C113.586 154.372 119.419 151.817 121.485 146.539C123.552 141.26 121.07 135.257 115.942 133.129C110.815 131.002 104.982 133.557 102.916 138.835Z" fill="#5A9794"/>
<path d="M103.733 137.199C103.159 138.664 103.848 140.329 105.27 140.919C106.693 141.51 108.311 140.801 108.885 139.336C109.458 137.872 108.769 136.206 107.347 135.616C105.924 135.026 104.306 135.735 103.733 137.199Z" fill="#FDFFFD"/>
<path d="M252.191 186.575C252.864 187.674 254.81 187.945 257.83 188.473C260.446 188.931 264.39 189.493 265.807 190.953C267.321 192.511 265.701 194.083 262.643 194.648C257.592 195.58 246.111 197.26 240.355 197.677C230.591 199.028 220.819 192.256 219.869 182.837C218.445 168.711 218.736 163.141 218.172 154.427C218.033 152.28 222.464 153.875 223.733 156.52C226.449 162.183 225.583 164.343 227.205 167.13C228.786 169.847 231.187 168.979 233.47 167.015C241.832 154.254 245.308 145.995 249.812 146.553C253.452 147.615 248.845 157.206 243.168 167.775C253.086 159.493 261.707 153.689 263.413 156.656C265.431 160.167 258.637 168.439 249.931 174.824C259.638 173.756 268.63 170.995 269.951 175.021C271.135 178.629 250.294 183.478 252.191 186.575Z" fill="#EEBF9E"/>
<path d="M150.366 313.822C152.88 315.219 157.419 323.948 158.387 327.06C152.924 330.975 153.147 322.405 148.454 321.091C147.017 320.689 145.111 320.115 143.646 319.817C144.923 320.468 148.689 323.416 150.201 325.202C151.512 326.751 153.366 332.666 154.334 335.778C149.206 338.759 147.519 331.452 146.476 329.923C145.485 328.469 140.367 325.586 139.919 325.432C140.319 325.795 141.896 326.924 142.21 327.204C144.396 329.153 146.167 337.449 146.528 340.738C140.925 342.982 141.182 335.166 139.757 333.332C138.576 331.811 135.425 329.592 134.351 328.84C134.841 329.716 135.864 331.812 136.468 332.752C138.302 335.604 139.395 339.547 139.625 341.843C135.994 342.335 134.318 337.244 132.351 334.854C130.197 332.238 128.44 330.304 126.2 328.372C123.676 326.194 116.155 321.049 116.454 315.771C116.526 314.496 115.857 303.955 116.568 302.514C117.168 301.299 122.202 303.558 123.139 303.797C129.273 305.365 146.389 311.613 150.366 313.822Z" fill="#EEBF9E"/>
</g>
<defs>
<clipPath id="clip0_1976_5458">
<rect width="270" height="480" fill="white"/>
</clipPath>
</defs>
</svg>
