<svg width="270" height="500" viewBox="0 0 270 500" fill="none" xmlns="http://www.w3.org/2000/svg">
<g clip-path="url(#clip0_1976_5734)">
<path opacity="0.12" d="M67.3719 492.592C67.3719 496.683 108.748 500 159.789 500C210.83 500 252.206 496.683 252.206 492.592C252.206 488.501 210.83 485.183 159.789 485.183C108.748 485.183 67.3719 488.5 67.3719 492.592Z" fill="black"/>
<path d="M148.535 462.159C148.497 465.033 122.718 467.893 122.431 465.023C119.643 437.158 107.198 360.934 105.465 349.901L145.332 352.204C144.861 379.7 148.806 442.23 148.535 462.159Z" fill="#EEBF9E"/>
<path d="M174.022 461.095C174.365 463.949 200.472 463.878 200.455 460.995C200.282 432.992 199.627 357.721 200.187 346.567L161.762 351.464C165.146 378.758 171.639 441.305 174.022 461.095Z" fill="#EEBF9E"/>
<path d="M97.7377 297.894L203.89 300.911C205.876 325.286 208.316 360.256 210.545 390.784C201.286 393.526 171.222 395.223 162.85 394.117C159.897 379.01 157.1 360.384 155.421 353.857C154.143 348.883 148.803 348.815 148.735 354.223C148.573 367.224 148.793 383.188 149.093 393.806C138.946 394.861 110.297 395.181 101.505 393.8C100.822 383.295 98.7373 330.286 97.7377 297.894Z" fill="#4D594C"/>
<path opacity="0.37" d="M205.184 319.419C182.138 315.903 120.91 311.082 98.2947 311.413C98.4459 316.081 98.6085 320.957 98.7813 325.944C129.765 333.484 170.384 333.879 205.689 326.276C205.519 323.937 205.351 321.666 205.184 319.419Z" fill="black"/>
<path d="M36.3268 177.739C34.2712 176.338 46.3661 159.763 48.5118 161.038C80.5827 180.11 122.087 201.65 130.961 205.504L115.907 227.772C97.6257 216.433 63.4786 196.243 36.3268 177.739Z" fill="#EFC09F"/>
<path d="M93.4553 183.705C88.9552 191.443 81.3745 209.41 77.2408 217.72C94.4548 227.596 108.916 234.723 110.368 234.654C125.478 233.93 138.143 205.695 139.397 204.204C130.166 200.653 110.5 192.836 93.4553 183.705Z" fill="#73BA62"/>
<path d="M20.3933 170.185C19.6351 171.411 17.417 171.731 13.9738 172.347C10.992 172.882 6.49467 173.546 4.89098 175.178C3.17926 176.921 5.04318 178.646 8.5399 179.24C14.3149 180.221 27.4384 181.964 34.0129 182.366C45.172 183.762 56.2625 176.157 57.2546 165.708C58.7427 150.038 58.3556 143.869 58.9146 134.206C59.0527 131.825 54.0096 133.639 52.5873 136.583C49.5406 142.887 50.5514 145.272 48.727 148.377C46.9475 151.404 44.1987 150.468 41.5728 148.314C31.9028 134.259 27.8536 125.142 22.7185 125.807C18.5735 127.022 23.9267 137.603 30.5095 149.258C19.1062 140.181 9.20882 133.839 7.29039 137.144C5.02063 141.055 14.6963 149.071 22.8585 157.138C11.7661 156.056 0.580648 151.791 0.00572274 157.564C-0.415175 161.784 22.5277 166.733 20.3933 170.185Z" fill="#EFC09F"/>
<path d="M207.266 325.563C171.719 336.025 122.225 329.932 91.957 315.425C91.957 315.425 108.454 221.403 114.063 199.49C134.466 202.584 181.855 206.778 203.237 211.698C204.787 240.128 203.493 284.62 207.266 325.563Z" fill="#73BA62"/>
<path d="M132.007 209.12C132.022 207.719 133.444 203.545 133.856 202.239C148.353 204.745 168.35 205.874 183.738 207.947C183.823 208.556 184.048 209.134 184.042 209.761C183.928 220.592 172.06 229.249 157.535 229.096C143.008 228.945 131.893 219.951 132.007 209.12Z" fill="#639954"/>
<path d="M141.767 179.538L139.176 209.993C138.618 216.541 146.54 222.556 156.868 223.424C167.197 224.292 176.022 219.686 176.579 213.138L179.17 182.682L141.767 179.538Z" fill="#EFC09F"/>
<path opacity="0.19" d="M141.036 188.125L139.312 208.383C144.387 211.005 150.694 212.379 157.488 211.795C165.696 211.091 172.747 207.743 177.436 203.072L178.814 186.874C167.202 186.65 153.216 187.207 141.036 188.125Z" fill="#541E0F"/>
<path d="M216.895 305.72C215.871 306.881 201.61 295.827 202.537 294.587C216.404 276.049 234.954 244.08 238.08 238.279C238.08 238.279 251.967 248.932 251.544 261.416C251.208 271.356 230.423 290.389 216.895 305.72Z" fill="#EFC09F"/>
<path d="M242.126 239.951C236.518 247.232 226.124 262.432 219.639 268.542C213.05 265.497 200.14 259.33 198.961 258.694C188.608 243.743 183.995 208.818 183.737 207.947C196.295 210.005 202.061 210.582 205.671 211.963C213.571 217.668 228.678 229.455 242.126 239.951Z" fill="#73BA62"/>
<path d="M176.866 286.406C180.23 287.387 187.395 285.733 190.905 287.198C190.905 287.198 191.108 287.339 191.219 287.466C183.917 287.845 177.837 290.852 172.057 292.32C170.207 300.25 180.809 295.276 191.85 293.753C185.302 295.659 181.137 297.715 176.599 298.812C173.116 302.093 174.655 304.512 179.262 303.884C182.821 303.398 189.027 301.455 195.449 300.418C196.016 300.576 182.229 306.214 180.907 309.269C181.326 310.868 184.139 311.94 188.361 310.22C190.645 309.29 193.024 307.778 198.262 306.374C202.757 306.905 206.608 309.499 208.396 310.212C215.134 312.016 218.621 302.877 218.69 300.939C218.871 295.904 210.002 286.141 204.47 284.204C195.197 280.956 190.624 279.074 175.584 282.396C172.927 284.002 175.228 285.927 176.866 286.406Z" fill="#EFC09F"/>
<path d="M152.314 477.582C152.282 478.393 120.21 479.662 120.132 478.682C119.504 470.775 118.352 459.854 117.975 454.865L152.189 453.998C151.901 463.021 152.518 472.386 152.314 477.582Z" fill="#F3E7A8"/>
<path d="M110.872 468.38C111.344 466.6 112.336 464.344 113.102 462.281C113.669 460.75 128.689 460.871 128.761 464.538C128.78 465.477 128.748 466.306 128.677 467.058C131.246 467.062 134.032 467.008 136.974 466.877C143.37 466.593 149.101 466.029 153.119 465.359C153.428 471.156 153.001 481.201 153.292 487.646C153.292 487.646 86.402 500.664 75.7643 491.092C72.7664 488.394 89.4854 476.162 110.872 468.38Z" fill="#D34E23"/>
<path d="M153.198 483.604C153.212 485.037 153.236 486.419 153.291 487.646C153.291 487.646 86.4017 500.664 75.764 491.092C75.3412 490.712 75.3168 490.139 75.6353 489.419C94.1533 493.255 136.566 486.528 153.198 483.604Z" fill="#822916"/>
<path d="M115.352 473.897C115.545 474.149 115.842 474.274 116.138 474.261C116.323 474.253 116.508 474.19 116.665 474.07C117.076 473.757 117.154 473.171 116.839 472.763C114.208 469.356 109.66 467.603 105.776 468.475C105.271 468.591 104.955 469.091 105.072 469.593C105.186 470.094 105.685 470.398 106.195 470.293C109.387 469.552 113.152 471.048 115.352 473.897ZM110.634 476.211C110.829 476.412 111.092 476.508 111.352 476.497C111.571 476.487 111.789 476.401 111.96 476.238C112.333 475.881 112.344 475.29 111.985 474.92C108.994 471.825 104.932 470.33 100.834 470.843C100.319 470.906 99.9545 471.371 100.017 471.882C100.081 472.393 100.556 472.79 101.063 472.691C103.126 472.437 107.104 472.562 110.634 476.211ZM94.6568 474.564C94.7489 475.07 95.2224 475.417 95.7466 475.316C98.8601 474.711 102.981 476.198 105.729 478.824C105.923 479.008 106.175 479.094 106.422 479.083C106.654 479.073 106.882 478.976 107.056 478.798C107.415 478.426 107.403 477.836 107.03 477.479C103.872 474.466 99.1033 472.814 95.4131 473.482C94.9039 473.572 94.5657 474.058 94.6568 474.564Z" fill="#D2D8E3"/>
<path d="M172.194 478.446C172.27 479.255 203.058 478.892 203.145 477.91C203.824 470.179 204.747 458.082 205.246 453.916L171.035 454.89C171.813 463.885 171.706 473.27 172.194 478.446Z" fill="#F3E7A8"/>
<path d="M212.372 468.38C211.899 466.6 210.907 464.344 210.141 462.281C209.574 460.75 194.554 460.871 194.482 464.538C194.463 465.477 194.495 466.306 194.567 467.058C191.997 467.062 189.211 467.008 186.269 466.877C179.873 466.593 174.142 466.029 170.124 465.359C169.815 471.156 170.242 481.201 169.951 487.646C169.951 487.646 236.841 500.664 247.479 491.092C250.477 488.394 233.758 476.162 212.372 468.38Z" fill="#D34E23"/>
<path d="M170.044 483.604C170.031 485.037 170.006 486.419 169.951 487.646C169.951 487.646 236.841 500.664 247.478 491.092C247.901 490.712 247.926 490.139 247.607 489.419C229.089 493.255 186.676 486.528 170.044 483.604Z" fill="#822916"/>
<path d="M217.048 470.293C217.558 470.398 218.056 470.094 218.171 469.593C218.287 469.091 217.972 468.591 217.467 468.475C213.583 467.603 209.035 469.356 206.404 472.763C206.089 473.171 206.166 473.757 206.577 474.07C206.735 474.19 206.92 474.253 207.105 474.261C207.401 474.274 207.698 474.149 207.891 473.897C210.091 471.048 213.856 469.552 217.048 470.293ZM222.18 472.691C222.687 472.79 223.161 472.393 223.225 471.882C223.288 471.371 222.923 470.906 222.409 470.843C218.311 470.33 214.249 471.825 211.256 474.92C210.899 475.29 210.91 475.881 211.283 476.238C211.454 476.401 211.672 476.487 211.891 476.497C212.151 476.508 212.414 476.412 212.608 476.211C216.138 472.562 220.117 472.437 222.18 472.691ZM227.83 473.482C224.139 472.814 219.371 474.466 216.213 477.479C215.84 477.836 215.828 478.426 216.187 478.798C216.361 478.976 216.589 479.073 216.821 479.083C217.068 479.094 217.32 479.008 217.513 478.824C220.262 476.198 224.383 474.711 227.496 475.316C228.02 475.417 228.494 475.07 228.586 474.564C228.677 474.058 228.339 473.572 227.83 473.482Z" fill="#D2D8E3"/>
<path opacity="0.33" d="M204.303 256.361C170.873 256.494 137.354 253.236 104.364 247.078C103.93 249.378 103.497 251.69 103.066 254.009C136.15 260.178 169.73 263.548 203.355 263.452C203.708 263.452 204.06 263.448 204.411 263.446C204.37 261.034 204.337 258.721 204.303 256.361ZM204.197 249.403C204.163 246.956 204.126 244.661 204.09 242.295C171.635 242.32 139.062 239.258 106.963 233.432C106.525 235.705 106.082 238.017 105.633 240.37C138.028 246.27 170.873 249.501 203.729 249.408C203.885 249.405 204.041 249.403 204.197 249.403Z" fill="white"/>
<path d="M75.6606 140.511C78.2085 157.898 93.5595 170.323 106.175 170.035C118.787 169.744 122.712 156.138 122.33 139.613C121.945 123.088 111.409 109.885 98.7952 110.218C81.5567 110.672 73.2677 124.168 75.6606 140.511Z" fill="#EFC09F"/>
<path d="M90.2049 145.81C90.3749 153.056 95.7215 158.81 102.148 158.664C108.578 158.513 113.651 152.521 113.484 145.275C113.314 138.031 107.968 132.278 101.541 132.425C95.1118 132.571 90.0386 138.565 90.2049 145.81Z" fill="#CD946E"/>
<path d="M260.954 161.598C254.473 177.944 236.667 186.548 224.455 183.398C212.244 180.246 211.553 166.107 215.732 150.108C219.91 134.109 233.207 123.653 245.406 126.846C262.083 131.209 267.046 146.233 260.954 161.598Z" fill="#EFC09F"/>
<path d="M244.664 163.343C242.83 170.358 236.301 174.744 230.078 173.138C223.854 171.53 220.295 164.543 222.125 157.527C223.958 150.514 230.487 146.13 236.711 147.734C242.935 149.339 246.494 156.328 244.664 163.343Z" fill="#CD946E"/>
<path d="M260.899 105.788C254.708 158.793 216.967 178.61 168.015 172.976C119.061 167.342 85.9443 139.37 92.1354 86.3632C98.3267 33.3576 135.665 25.1806 184.619 30.8146C233.572 36.4487 267.09 52.7821 260.899 105.788Z" fill="#C83A0E"/>
<path d="M243.52 122.46C236.265 184.577 203.372 209.107 161.879 204.331C120.388 199.556 93.2196 168.113 100.475 105.996C107.73 43.8812 138.354 45.7443 179.845 50.5191C221.338 55.295 250.775 60.3453 243.52 122.46Z" fill="#EFC09F"/>
<path d="M110.884 153.736C110.31 156.879 114.237 160.219 119.656 161.198C125.073 162.177 129.934 160.424 130.508 157.281C131.083 154.14 127.154 150.798 121.736 149.82C116.317 148.841 111.459 150.595 110.884 153.736Z" fill="#E79696"/>
<path d="M201.734 165.573C201.606 168.764 205.964 171.528 211.468 171.746C216.97 171.964 221.536 169.553 221.664 166.362C221.792 163.171 217.432 160.408 211.931 160.191C206.427 159.972 201.862 162.383 201.734 165.573Z" fill="#E79696"/>
<path d="M189.159 127.057C183.019 134.147 182.758 142.673 187.048 146.391C193.513 151.996 209.901 155.188 216.83 148.869C223.543 142.748 221.996 130.082 212.832 123.703C204.809 118.118 195.1 120.194 189.159 127.057Z" fill="#FAFEFF"/>
<path d="M220.195 128.285C213.902 115.561 195.216 117.593 188.953 127.297C195.088 120.209 205.132 118.945 212.55 124.104C217.134 127.295 220.082 132.407 220.438 137.774C220.722 142.053 219.236 146.656 216.449 149.199C219.505 147.674 224.822 137.641 220.195 128.285Z" fill="#963E29"/>
<path d="M190.551 132.385C187.799 137.462 189.709 143.795 194.816 146.531C199.923 149.267 206.294 147.368 209.046 142.292C211.798 137.215 209.889 130.882 204.781 128.146C199.675 125.41 193.303 127.309 190.551 132.385Z" fill="#4B8144"/>
<path d="M191.503 131.563C190.739 132.971 191.269 134.729 192.686 135.488C194.102 136.247 195.87 135.721 196.634 134.312C197.397 132.903 196.867 131.146 195.45 130.387C194.034 129.628 192.266 130.155 191.503 131.563Z" fill="#FEFFFE"/>
<path d="M151.716 122.741C156.06 131.04 154.352 139.398 149.319 142.043C141.736 146.028 125.048 145.408 119.757 137.68C114.632 130.195 119.053 118.217 129.443 114.091C138.539 110.479 147.512 114.709 151.716 122.741Z" fill="#FAFEFF"/>
<path d="M121.221 116.877C130.275 105.922 147.999 112.151 151.861 123.022C147.52 114.728 138.034 111.212 129.625 114.546C124.428 116.611 120.382 120.915 118.8 126.059C117.539 130.161 117.925 134.979 120.053 138.088C117.429 135.91 114.562 124.933 121.221 116.877Z" fill="#963E29"/>
<path d="M129.745 125.377C126.992 130.453 128.902 136.787 134.009 139.522C139.116 142.258 145.487 140.36 148.239 135.283C150.991 130.206 149.082 123.873 143.975 121.138C138.868 118.402 132.496 120.3 129.745 125.377Z" fill="#4B8144"/>
<path d="M130.696 124.555C129.932 125.964 130.462 127.721 131.879 128.48C133.296 129.239 135.064 128.712 135.827 127.303C136.59 125.895 136.061 124.138 134.644 123.379C133.227 122.62 131.459 123.147 130.696 124.555Z" fill="#FEFFFE"/>
<path d="M226.728 104.398C225.92 104.306 225.137 103.946 224.548 103.326C219.957 98.4859 210.379 96.2109 202.246 98.0357C200.423 98.4531 198.545 97.3774 198.075 95.6516C197.61 93.9267 198.726 92.1906 200.562 91.7788C211.143 89.3984 223.376 92.4886 229.653 99.0892C230.919 100.427 230.804 102.46 229.397 103.629C228.64 104.257 227.665 104.507 226.728 104.398Z" fill="#A03213"/>
<path d="M120.776 92.1867C119.839 92.0783 118.947 91.6133 118.354 90.8297C117.254 89.372 117.61 87.3669 119.151 86.3528C126.772 81.3537 139.383 81.1314 149.157 85.8531C150.849 86.6712 151.537 88.6118 150.686 90.19C149.841 91.7636 147.762 92.3706 146.077 91.5619C138.576 87.9263 128.724 87.974 123.146 91.6385C122.429 92.1073 121.584 92.28 120.776 92.1867Z" fill="#A03213"/>
<path d="M173.473 150.633C173.12 150.592 172.837 150.303 172.819 149.937C172.692 147.346 170.862 145.469 168.155 145.157C165.433 144.843 163.168 146.28 162.517 148.734C162.413 149.127 162.005 149.362 161.612 149.259C161.216 149.155 160.98 148.752 161.084 148.358C161.918 145.217 164.896 143.298 168.326 143.694C171.736 144.086 174.138 146.567 174.3 149.866C174.32 150.272 174.005 150.617 173.596 150.638L173.473 150.633Z" fill="#B0725C"/>
<path d="M194.545 165.428C194.102 159.259 184.589 159.72 169.366 157.819C168.57 157.72 165.471 157.354 164.672 157.264C149.426 155.568 140.287 152.903 138.402 158.798C134.771 170.153 147.961 184.581 163.428 186.455L163.696 186.487C179.172 188.267 195.397 177.313 194.545 165.428Z" fill="#611C11"/>
<path d="M163.665 186.729L163.396 186.697C158.381 186.086 153.347 184.057 148.821 180.839L148.544 180.648L148.82 180.457C153.268 177.349 158.919 176.015 164.732 176.701C170.535 177.386 175.714 180 179.315 184.059L179.538 184.309L179.224 184.431C174.056 186.503 168.675 187.301 163.665 186.729Z" fill="#C46B5C"/>
<path d="M166.095 165.292C155.449 164.034 146.979 159.708 146.391 155.223L146.358 154.949L187.72 159.834L187.625 160.093C185.985 164.315 176.731 166.548 166.095 165.292Z" fill="white"/>
<path d="M261.974 55.366C251.025 37.0677 231.229 33.9961 218.278 40.8041C223.032 33.249 228.872 31.329 236.591 28.4246C244.705 25.3718 236.738 12.4695 226.544 17.038C217.274 21.1928 215.383 34.3473 216.008 39.4602C213.084 29.8386 206.311 19.8844 196.332 12.0884C177.305 -2.77505 154.219 -4.11708 144.767 9.09068C142.294 12.547 141.06 16.6738 140.838 21.1246C139.269 19.6425 137.453 18.3099 135.372 17.2528C126.389 12.6889 116.446 14.636 113.164 21.6027C111.472 25.1925 111.909 29.4071 113.932 33.2817C110.555 33.1939 106.96 33.6664 103.33 34.9346C91.0586 39.2221 83.3737 50.0774 86.1649 59.1817C87.2068 62.5791 89.5649 65.2482 92.7441 67.0422C92.1362 68.7661 91.5406 70.5254 90.9901 72.3652C85.8981 89.3756 85.511 104.351 90.1248 105.814C93.4562 106.869 98.4748 100.533 102.93 90.5598C109.673 91.3769 118.063 88.3549 125.124 81.7627C131.613 75.7047 135.404 68.1077 135.999 61.381C139.527 70.5936 152.022 76.5919 166.378 75.2434C172.398 74.6784 177.888 72.8798 182.418 70.2874C183.17 70.4956 183.927 70.772 184.673 70.9392C182.627 74.8362 182.145 78.609 183.768 81.3752C187.102 87.0578 197.931 86.3518 207.954 79.7979C217.417 73.61 219.749 67.1439 221.139 63.3412C225.612 62.9294 222.122 78.8706 227.262 88.7742C235.723 105.075 249.721 114.146 258.528 109.034C259.984 108.188 260.282 105.774 259.858 102.514C260.363 102.418 260.908 102.416 261.329 102.136C272.634 94.6035 272.921 73.6642 261.974 55.366Z" fill="#C83A0E"/>
</g>
<defs>
<clipPath id="clip0_1976_5734">
<rect width="270" height="500" fill="white"/>
</clipPath>
</defs>
</svg>
