<svg width="300" height="600" viewBox="0 0 300 600" fill="none" xmlns="http://www.w3.org/2000/svg">
<g clip-path="url(#clip0_1922_919)">
<path d="M156.975 222.921L151.64 222.36C152.743 209.744 145.798 202.492 138.93 199.906C131.566 197.132 121.517 198.808 115.682 208.822L111.158 205.671C118.561 192.97 131.321 190.834 140.675 194.362C151.735 198.524 158.13 209.733 156.975 222.921Z" fill="#528BAE"/>
<path d="M170.744 355.554C154.701 380.95 101.84 365.704 97.1304 359.288C97.1304 359.288 97.3688 240.442 99.1959 210.013C116.823 203.726 147.885 204.581 159.862 228.189C161.682 262.781 170.744 355.554 170.744 355.554Z" fill="#528BAE"/>
<path d="M159.335 572.981L133.048 575.858C132.656 569.244 132.252 549.211 131.741 541.418L159.187 539.764C159.187 551.853 159.502 568.787 159.335 572.981Z" fill="#EEBF9E"/>
<path d="M51.0076 572.981L77.295 575.858C77.687 569.244 78.0911 549.211 78.6016 541.418L51.1551 539.764C51.1551 551.853 50.8406 568.787 51.0076 572.981Z" fill="#EEBF9E"/>
<path d="M95.8774 348.857C85.2963 349.182 49.7929 345.839 49.7929 345.839C47.6486 424.099 46.4046 511.568 45.5547 546.133L82.2192 547.092C84.3905 522.947 89.0887 447.054 94.9642 404.812C96.1879 399.018 106.727 398.668 107.818 404.098C116.68 448.218 124.585 517.193 127.821 548.921L164.207 545.993C161.069 502.934 154.471 414.673 150.322 347.004C150.322 347.004 117.764 348.186 95.8774 348.857Z" fill="#7A473A"/>
<path d="M152.947 364.469C144.663 374.462 57.8076 373.523 51.7039 367.215C51.7039 367.215 52.0136 250.366 54.3809 220.448C77.2241 214.267 118.055 215.273 143.753 219.777C146.111 253.787 152.947 364.469 152.947 364.469Z" fill="#C62A2A"/>
<path d="M111.917 228.533L151.817 237.024L150.625 220.833L119.312 214.812L111.917 228.533Z" fill="#9F1515"/>
<path d="M89.864 228.533L49.9641 237.024L51.1562 220.833L82.4684 214.812L89.864 228.533Z" fill="#9F1515"/>
<path d="M123.381 220.133C123.381 218.408 122.917 216.778 122.251 215.211C107.794 213.924 91.882 213.695 77.7658 214.892C77.0094 216.551 76.4983 218.291 76.4983 220.133C76.4983 229.462 86.9939 237.025 99.9402 237.025C112.887 237.025 123.381 229.462 123.381 220.133Z" fill="#9F1515"/>
<path d="M81.335 189.512V219.754C81.335 226.256 89.4714 231.529 99.5083 231.529C109.545 231.529 117.682 226.256 117.682 219.754V189.512H81.335Z" fill="#CC936E"/>
<path d="M219.78 257.223C223.156 269.305 216.735 276.646 207.916 279.593C199.098 282.539 175.46 273.22 164.14 265.783C160.765 253.7 172.052 242.204 180.871 239.257C186.49 242.141 212.441 252.484 219.78 257.223Z" fill="#EEBF9E"/>
<path d="M254.868 273.557C222.97 283.174 197.798 279.806 197.798 279.806C178.455 273.452 191.128 245.34 205.13 250.25C218.02 252.776 232.567 254.113 253.121 253.308C256.207 253.187 257.864 272.654 254.868 273.557Z" fill="#EEBF9E"/>
<path d="M169.512 293.024C177.505 287.648 188.896 254.656 194.312 243.524C180.527 236.438 164.207 228.494 150.17 220.382C144.067 219.55 141.56 219.318 136.193 218.605C140.995 240.154 145.153 270.928 147.598 276.769C149.456 280.491 164.246 289.835 169.512 293.024Z" fill="#9F1515"/>
<path d="M160.454 327.813C126.475 299.695 128.009 241.843 129.821 221.569C130.041 219.13 130.222 217.122 130.296 215.641L146.646 216.263C146.566 217.912 146.371 220.157 146.126 222.882C144.507 240.999 143.937 279.593 162.161 305.429L160.454 327.813Z" fill="#355B75"/>
<path d="M9.53802 154.181C13.6881 172.217 29.6079 183.66 41.6518 182.005C53.6957 180.35 56.1135 165.599 54.1213 148.239C52.1264 130.878 40.7398 118.102 28.7007 119.8C12.2448 122.124 5.63855 137.227 9.53802 154.181Z" fill="#EEBF9E"/>
<path d="M23.9807 158.205C24.8569 165.817 30.5418 171.303 36.6812 170.461C42.8174 169.617 47.0853 162.762 46.209 155.15C45.3342 147.538 39.6493 142.052 33.5132 142.895C27.3737 143.737 23.1079 150.593 23.9807 158.205Z" fill="#CC936E"/>
<path d="M187.93 156.823C183.337 174.731 167.137 185.698 155.139 183.687C143.14 181.675 141.089 166.859 143.51 149.564C145.934 132.268 157.633 119.834 169.627 121.889C186.02 124.699 192.248 139.992 187.93 156.823Z" fill="#EEBF9E"/>
<path d="M172.509 160.405C171.446 167.989 165.627 173.304 159.513 172.281C153.398 171.255 149.302 164.276 150.365 156.693C151.427 149.11 157.246 143.794 163.361 144.818C169.475 145.842 173.571 152.822 172.509 160.405Z" fill="#CC936E"/>
<path d="M178.486 86.9233C183.765 145.655 144.215 183.947 99.0868 183.279C53.958 182.61 17.3186 139.339 22.6 82.3021C25.5317 50.6333 56.2358 26.2003 99.3448 27.1431C144.469 28.1301 174.733 45.1548 178.486 86.9233Z" fill="#9A5B44"/>
<path d="M164.819 75.0069C168.78 85.055 162.678 173.956 153.305 186.098C143.364 198.977 119.415 210.521 99.4054 210.521C81.0159 210.521 51.1052 198.349 43.7191 183.923C34.9806 166.85 30.5767 88.0712 33.5468 78.7862C43.5877 47.4237 68.4305 46.7299 100.908 47.2109C131.29 47.6609 154.545 48.9351 164.819 75.0069Z" fill="#EEBF9E"/>
<path d="M77.2051 172.201C77.4347 181.533 87.7188 189.774 99.4455 189.845C111.172 189.917 122.484 181.501 122.369 172.477C122.202 159.337 111.312 169.096 99.5889 168.4C87.8811 167.707 76.9094 160.206 77.2051 172.201Z" fill="#58160D"/>
<path d="M98.2469 180.974C104.586 181.013 110.07 182.883 113.242 185.949C109.479 188.425 104.71 190.091 99.4451 190.059C93.5184 190.023 88.4983 188.07 84.6177 184.959C87.9244 182.492 92.62 180.94 98.2469 180.974Z" fill="#D47C70"/>
<path d="M84.0991 165.566C87.9407 165.787 93.7636 166.792 99.5994 167.138C106.184 167.529 112.049 165.529 115.848 165.714C114.144 169.472 107.784 172.24 100.199 172.193C92.0665 172.144 85.1289 169.752 84.0991 165.566Z" fill="white"/>
<path d="M105.134 159.859C104.776 159.853 104.464 159.566 104.408 159.166C104.014 156.328 101.989 154.466 99.2496 154.426C96.4944 154.385 94.3763 156.221 93.9783 158.994C93.9136 159.437 93.5304 159.743 93.1263 159.672C92.7195 159.602 92.442 159.185 92.506 158.74C93.0158 155.189 95.7973 152.744 99.2698 152.796C102.722 152.847 105.38 155.309 105.882 158.921C105.943 159.367 105.664 159.781 105.257 159.85L105.134 159.859Z" fill="#AF725C"/>
<path d="M151.059 103.706C150.558 103.671 150.067 103.441 149.69 103.019C144.86 97.6552 135.213 95.5789 127.231 98.2069C126.124 98.5781 124.942 97.8865 124.601 96.6609C124.265 95.4411 124.897 94.1544 126.015 93.7839C135.538 90.6557 146.765 93.1777 152.7 99.7853C153.517 100.695 153.506 102.156 152.673 103.048C152.229 103.529 151.638 103.747 151.059 103.706Z" fill="#7B3D30"/>
<path d="M48.7397 102.757C48.1598 102.767 47.5793 102.518 47.157 102.014C46.365 101.078 46.4182 99.6189 47.2742 98.7534C53.4999 92.4677 64.8218 90.5445 74.1933 94.1699C75.2938 94.5985 75.8683 95.9177 75.4783 97.1175C75.0864 98.324 73.8782 98.9523 72.7831 98.5236C64.9296 95.4736 55.1937 97.0284 50.1385 102.143C49.7425 102.544 49.2428 102.748 48.7397 102.757Z" fill="#7B3D30"/>
<path d="M81.5368 127.883C86.5051 136.059 85.8693 145.017 81.5038 148.386C74.9259 153.461 59.3853 154.797 53.6041 147.333C48.004 140.103 50.7438 127.03 59.9079 121.473C67.9304 116.608 76.7288 119.97 81.5368 127.883Z" fill="#F9FDFF"/>
<path d="M52.6015 125.368C59.7532 112.817 76.8887 117.232 81.7027 128.161C76.7378 119.988 67.5454 117.434 60.1277 121.927C55.5439 124.708 52.2809 129.698 51.3973 135.274C50.6942 139.721 51.5987 144.722 53.9242 147.725C51.2445 145.755 47.3423 134.598 52.6015 125.368Z" fill="#67290A"/>
<path d="M79.694 133.291C81.7253 138.943 79.3007 145.341 74.2785 147.579C69.2557 149.819 63.5372 147.051 61.5059 141.399C59.474 135.747 61.8986 129.349 66.9214 127.111C71.9436 124.872 77.6621 127.639 79.694 133.291Z" fill="#67290A"/>
<path d="M78.8951 132.315C79.4588 133.883 78.786 135.658 77.3926 136.279C75.9991 136.9 74.4124 136.132 73.8487 134.564C73.2857 132.996 73.9578 131.221 75.3513 130.6C76.7447 129.978 78.3314 130.747 78.8951 132.315Z" fill="#FDFFFD"/>
<path d="M116.736 127.949C111.849 136.106 112.574 145.067 116.972 148.452C123.6 153.553 139.155 154.947 144.862 147.504C150.39 140.295 147.521 127.212 138.301 121.62C130.23 116.724 121.466 120.054 116.736 127.949Z" fill="#F9FDFF"/>
<path d="M145.647 125.543C138.371 112.965 121.278 117.316 116.573 128.226C121.457 120.072 130.624 117.552 138.086 122.074C142.698 124.872 146.011 129.874 146.949 135.454C147.697 139.903 146.842 144.901 144.546 147.895C147.207 145.936 150.998 134.793 145.647 125.543Z" fill="#67290A"/>
<path d="M136.86 133.399C138.892 139.052 136.467 145.449 131.444 147.688C126.422 149.926 120.704 147.159 118.672 141.507C116.641 135.854 119.065 129.457 124.087 127.218C129.11 124.979 134.829 127.746 136.86 133.399Z" fill="#67290A"/>
<path d="M136.061 132.422C136.625 133.991 135.953 135.765 134.558 136.387C133.165 137.008 131.579 136.241 131.015 134.672C130.452 133.104 131.124 131.329 132.518 130.708C133.911 130.087 135.497 130.854 136.061 132.422Z" fill="#FDFFFD"/>
<path d="M124.223 550.338L166.913 548.661L166.392 532.791L123.702 534.468L124.223 550.338Z" fill="#6F4842"/>
<path d="M85.3158 534.467L42.626 532.791L42.1049 548.661L84.7947 550.337L85.3158 534.467Z" fill="#6F4842"/>
<path d="M20.9804 330.012C14.746 358.33 30.6813 386.814 56.574 393.633C82.4668 400.452 108.512 383.024 114.746 354.707C120.982 326.389 105.046 297.905 79.1532 291.086C53.2605 284.267 27.2155 301.695 20.9804 330.012Z" fill="white"/>
<path d="M81.782 349.894L60.1356 355.419L49.1733 336.223L64.0142 319.666L82.7249 327.435L81.782 349.894Z" fill="#343A3C"/>
<path d="M33.9488 335.18L30.0877 318.768L21.7324 327.028C21.461 328.01 21.2065 329.003 20.9835 330.012C19.6783 335.943 19.3571 341.877 19.8831 347.622L27.1682 353.248L33.9488 335.18Z" fill="#343A3C"/>
<path d="M54.4531 373.598L37.3594 374.693L39.722 385.189C44.6451 389.061 50.3159 391.984 56.5752 393.633C57.9909 394.006 59.4059 394.293 60.8188 394.523L66.7946 387.639L54.4531 373.598Z" fill="#343A3C"/>
<path d="M93.7809 363.562L88.0806 382.208L96.0088 385.17C102.003 380.461 107.038 374.249 110.571 366.874L108.382 355.261L93.7809 363.562Z" fill="#343A3C"/>
<path d="M96.5655 318.936L110.378 332.14L114.333 328.263C111.947 318.889 107.222 310.392 100.718 303.759L93.0486 302.452L96.5655 318.936Z" fill="#343A3C"/>
<path d="M58.8515 303.131L75.1168 293.566L66.1049 289.658C59.2179 289.929 52.5699 291.808 46.5577 295.052L43.1169 301.995L58.8515 303.131Z" fill="#343A3C"/>
<path d="M45.4428 360.967C44.1996 365.804 33.9781 373.221 26.9988 371.667C15.2392 345.162 10.6534 324.246 13.8686 300.247C15.4398 288.518 26.85 266.21 33.3175 255.105C41.7286 256.458 46.2719 266.21 52.571 271.727C51.1998 275.127 42.7792 290.369 37.7645 304.448C33.9236 315.231 39.0279 343.904 45.4428 360.967Z" fill="#EEBF9E"/>
<path d="M50.4072 291.605C42.029 289.401 24.0275 275.499 16.7229 270.115C25.9651 253.561 39.1984 233.295 47.2378 221.747C53.248 220.319 55.8402 220.011 61.0126 218.942C57.9987 240.876 52.9125 273.754 52.5711 280.168C52.2821 282.613 51.0921 289.965 50.4072 291.605Z" fill="#9F1515"/>
<path d="M39.6497 394.687C33.8927 389.318 29.9892 383.087 27.4589 374.636C25.7685 368.991 24.7206 358.87 30.0236 353.957C31.6056 352.491 35.695 350.826 42.7612 351.542C48.374 353.038 57.629 356.777 61.7184 359.8C63.8937 361.408 68.396 366.679 68.396 366.679C66.8807 372.106 55.1391 361.561 52.4028 365.673C55.8665 369.696 57.957 372.08 60.9655 373.258C63.1348 374.107 73.2956 376.878 71.8146 382.416C62.7253 381.349 56.2497 379.868 48.8515 374.704C55.5432 382.195 70.2878 384.057 66.0873 390.16C59.3544 388.787 51.6855 386.846 44.4813 381.066C45.4895 382.781 50.8935 386.997 51.6909 387.436C55.6739 389.627 61.2705 390.241 59.2615 395.314C51.4922 393.907 45.1655 390.771 41.6937 387.995C42.6036 391.554 53.0648 394.95 49.7075 400.236C46.3165 398.245 42.1631 397.03 39.6497 394.687Z" fill="#EEBF9E"/>
<path d="M158.001 17.2044C158.992 24.7629 155.26 30.8704 148.967 35.8945C153.467 26.9298 154.202 15.1119 145.619 0C139.01 5.10949 131.99 10.5091 124.975 15.8661C125.77 12.0368 125.895 7.83913 125.109 3.22166C119.456 12.9074 117.085 17.9881 65.7383 26.8305C40.1837 31.2306 35.2423 52.6569 40.5574 55.6878C58.0249 65.6476 79.2942 69.3657 97.8096 70.3821C121.021 71.6563 135.863 68.4781 148.882 60.2589C160.718 52.7859 171.37 35.6845 158.001 17.2044Z" fill="#9A5B44"/>
<path d="M21.3994 98.036C22.7774 112.098 31.9246 128.878 36.0396 144.691C39.1255 130.48 36.9643 121.361 35.5002 103.221C32.6985 68.5282 52.6679 66.3973 71.844 62.1437C28.8145 39.9433 18.8469 71.9812 21.3994 98.036ZM127.981 62.1437C147.156 66.3973 165.823 68.347 164.325 103.221C163.659 118.72 159.584 132.334 163.785 144.691C167.9 128.878 177.048 112.098 178.425 98.036C180.978 71.9812 171.01 39.9433 127.981 62.1437Z" fill="#9A5B44"/>
<path d="M268.677 280.279C268.347 281.638 280.62 290.684 280.624 292.918C280.628 295.303 275.659 295.327 272.215 293.101C267.715 290.191 254.914 283.315 250.468 279.111C242.477 272.473 240.15 259.598 246.041 251.627C254.875 239.672 258.975 235.63 264.651 228.503C266.05 226.747 268.135 231.453 267.204 234.48C265.212 240.958 263.077 241.933 262.303 245.345C261.548 248.673 263.887 249.894 266.906 250.182C281.852 246.969 292.8 243.268 295.663 247.235C297.548 250.911 284.854 254.744 273.377 258.388C286.319 259.832 300.805 262.592 299.965 266.207C298.971 270.487 282.493 270.371 272.539 269.406C282.284 275.212 293.806 281.176 291.949 285.303C290.285 289.002 269.282 277.79 268.677 280.279Z" fill="#EEBF9E"/>
<path d="M132.084 566.092C127.293 571.459 122.483 578.981 124.196 585.425L125.105 588.47C125.105 588.47 125.918 589.796 131.334 589.92C136.75 590.044 143.21 586.503 152.045 588.367C160.879 590.23 175.05 593.929 182.554 594.298C192.512 595.124 198.943 596.451 207.136 592.221C207.136 592.221 210.468 588.24 208.259 586.846C206.05 585.451 200.995 585.059 193.195 583.532C185.395 582.005 166.966 568.237 161.985 566.277C157.003 564.318 155.037 565.221 154.138 565.748C153.239 566.276 150.125 573.125 144.567 572.28C139.009 571.435 138.729 566.134 132.084 566.092Z" fill="#344A65"/>
<path opacity="0.377" d="M148.199 583.626C141.813 583.274 134.583 585.997 131.841 586.544C129.271 587.056 125.718 585.694 124.081 584.971C124.116 585.133 124.154 585.295 124.197 585.457L125.105 588.493C125.105 588.493 125.918 589.815 131.334 589.938C136.749 590.062 143.208 586.532 152.041 588.39C160.873 590.248 175.042 593.935 182.545 594.303C192.501 595.126 198.932 596.45 207.123 592.232C207.123 592.232 210.454 588.264 208.245 586.873C208.164 586.822 208.077 586.772 207.988 586.724C207.397 587.863 206.024 589.865 203.133 591.537C198.82 594.033 191.143 593.656 185.13 593.219C179.118 592.781 159.867 587.42 152.829 584.582C151.399 584.005 149.826 583.716 148.199 583.626Z" fill="black"/>
<path d="M208.245 586.924C210.614 591.218 202.41 593.868 201.619 594.135C196.467 595.871 190.05 594.699 182.546 594.326C175.042 593.954 160.869 590.263 152.035 588.401C143.2 586.54 136.742 590.061 131.326 589.934C125.91 589.808 125.096 588.487 125.096 588.487L124.964 588.047L124.941 588.052C124.941 588.052 123.428 590.538 123.841 592.977C124.254 595.416 125.536 597.969 130.254 598.061C134.972 598.153 144.752 594.655 156.227 596.15C183.831 602.099 202.091 601.427 209.31 594.232C210.467 591.871 209.964 587.578 209.105 587.251L208.245 586.924Z" fill="#E6982C"/>
<path d="M157.279 565.07C155.585 564.97 154.676 565.416 154.142 565.73C153.765 565.951 152.998 567.283 151.826 568.693C162.296 574.895 175.332 580.282 187.164 583.581C190.043 584.01 191.197 583.611 191.792 583.151C183.376 580.484 166.691 568.11 161.989 566.259C159.965 565.462 158.439 565.138 157.279 565.07Z" fill="#E6982C"/>
<path d="M159.515 570.683C160.808 571.224 162.123 571.217 162.452 570.667C162.781 570.116 162 569.232 160.708 568.691C159.415 568.151 158.1 568.158 157.771 568.708C157.442 569.259 158.222 570.143 159.515 570.683Z" fill="white"/>
<path d="M159.742 570.303C160.665 570.69 161.63 570.642 161.897 570.196C162.164 569.751 161.631 569.076 160.708 568.69C159.784 568.303 158.819 568.351 158.553 568.797C158.286 569.242 158.818 569.917 159.742 570.303Z" fill="black"/>
<path d="M161.974 565.387L159.549 568.326C159.156 568.803 159.316 569.461 159.909 569.795C160.501 570.129 161.3 570.013 161.694 569.536L164.118 566.597C164.512 566.12 164.351 565.462 163.759 565.127C163.167 564.793 162.368 564.909 161.974 565.387Z" fill="#344A65"/>
<path d="M165.433 574.02C166.748 574.52 168.061 574.471 168.364 573.91C168.667 573.349 167.847 572.489 166.531 571.989C165.216 571.489 163.904 571.538 163.6 572.099C163.297 572.659 164.117 573.519 165.433 574.02Z" fill="white"/>
<path d="M165.642 573.632C166.582 573.99 167.543 573.911 167.789 573.457C168.034 573.003 167.472 572.345 166.532 571.988C165.592 571.631 164.631 571.709 164.385 572.163C164.14 572.617 164.703 573.275 165.642 573.632Z" fill="black"/>
<path d="M167.644 568.645L165.36 571.661C164.989 572.151 165.179 572.804 165.786 573.119C166.392 573.435 167.184 573.293 167.555 572.804L169.84 569.788C170.211 569.298 170.02 568.645 169.414 568.329C168.807 568.014 168.015 568.155 167.644 568.645Z" fill="#344A65"/>
<path d="M171.327 577.156C172.53 577.613 173.73 577.569 174.007 577.056C174.285 576.543 173.534 575.757 172.331 575.299C171.128 574.842 169.928 574.886 169.65 575.399C169.373 575.912 170.123 576.699 171.327 577.156Z" fill="white"/>
<path d="M171.518 576.802C172.378 577.129 173.257 577.057 173.481 576.642C173.706 576.227 173.191 575.625 172.332 575.298C171.472 574.971 170.593 575.043 170.368 575.458C170.144 575.873 170.659 576.475 171.518 576.802Z" fill="black"/>
<path d="M173.348 572.24L171.259 574.999C170.92 575.447 171.094 576.044 171.649 576.332C172.203 576.621 172.928 576.492 173.267 576.043L175.356 573.285C175.696 572.837 175.521 572.24 174.967 571.951C174.412 571.663 173.688 571.792 173.348 572.24Z" fill="#344A65"/>
<path d="M177.309 579.752C178.542 580.148 179.735 580.041 179.973 579.514C180.211 578.987 179.404 578.239 178.171 577.843C176.938 577.448 175.745 577.554 175.507 578.081C175.269 578.609 176.076 579.357 177.309 579.752Z" fill="white"/>
<path d="M177.473 579.388C178.354 579.671 179.224 579.554 179.417 579.127C179.61 578.7 179.052 578.125 178.171 577.842C177.29 577.56 176.42 577.677 176.227 578.104C176.034 578.53 176.592 579.106 177.473 579.388Z" fill="black"/>
<path d="M177.078 577.601L178.522 575.539C178.844 575.08 179.537 574.906 180.113 575.167C180.688 575.427 180.921 576.02 180.6 576.479L179.155 578.541C178.834 579 178.14 579.174 177.565 578.913C176.99 578.653 176.756 578.06 177.078 577.601Z" fill="#344A65"/>
<path d="M183.625 581.963C184.884 582.293 186.064 582.122 186.26 581.582C186.456 581.042 185.595 580.337 184.336 580.007C183.077 579.677 181.897 579.848 181.701 580.388C181.505 580.928 182.366 581.633 183.625 581.963Z" fill="white"/>
<path d="M183.761 581.59C184.66 581.825 185.518 581.662 185.677 581.224C185.836 580.787 185.236 580.242 184.336 580.006C183.437 579.771 182.579 579.934 182.42 580.372C182.261 580.809 182.862 581.354 183.761 581.59Z" fill="black"/>
<path d="M183.231 579.826L184.241 578.3C184.549 577.834 185.203 577.613 185.796 577.842C186.389 578.072 186.69 578.662 186.382 579.128L185.373 580.653C185.065 581.119 184.411 581.34 183.818 581.111C183.225 580.882 182.923 580.292 183.231 579.826Z" fill="#344A65"/>
<path d="M79.0215 566.116C83.813 571.482 88.6231 579.004 86.9102 585.448L86.0014 588.494C86.0014 588.494 85.1881 589.82 79.7718 589.943C74.3555 590.067 67.8955 586.526 59.0614 588.39C50.2274 590.254 36.056 593.952 28.5522 594.321C18.594 595.147 12.1625 596.475 3.96973 592.244C3.96973 592.244 0.637702 588.264 2.84705 586.869C5.05641 585.474 10.1105 585.083 17.9107 583.556C25.7109 582.029 44.1397 568.261 49.1215 566.301C54.1032 564.341 56.0688 565.245 56.9677 565.772C57.8666 566.299 60.9813 573.148 66.5392 572.303C72.0971 571.458 72.377 566.157 79.0215 566.116Z" fill="#344A65"/>
<path opacity="0.377" d="M62.9072 583.649C69.2927 583.297 76.5225 586.021 79.2652 586.568C81.835 587.08 85.3884 585.717 87.025 584.994C86.9901 585.157 86.9524 585.319 86.9094 585.48L86.0006 588.517C86.0006 588.517 85.1875 589.839 79.7721 589.962C74.3567 590.085 67.8978 586.555 59.0653 588.413C50.2327 590.271 36.0637 593.958 28.5612 594.326C18.6047 595.15 12.1744 596.473 3.98305 592.255C3.98305 592.255 0.651583 588.287 2.86055 586.897C2.94201 586.845 3.02851 586.796 3.11769 586.747C3.70923 587.886 5.08183 589.888 7.97298 591.561C12.2855 594.056 19.9626 593.679 25.9755 593.242C31.9884 592.805 51.2386 587.444 58.277 584.605C59.7066 584.029 61.2795 583.739 62.9072 583.649Z" fill="black"/>
<path d="M2.86059 586.947C0.49221 591.241 8.69644 593.892 9.48708 594.158C14.6387 595.894 21.0563 594.722 28.56 594.35C36.0637 593.977 50.2367 590.286 59.0714 588.425C67.9062 586.564 74.3638 590.084 79.78 589.958C85.1961 589.831 86.0101 588.51 86.0101 588.51L86.1422 588.071L86.1652 588.076C86.1652 588.076 87.6782 590.561 87.2652 593C86.8521 595.439 85.5697 597.993 80.8516 598.085C76.1335 598.177 66.3538 594.679 54.8787 596.173C27.2751 602.123 9.01505 601.451 1.79597 594.255C0.638476 591.894 1.14154 587.602 2.00106 587.274L2.86059 586.947Z" fill="#E6982C"/>
<path d="M53.8265 565.094C55.5205 564.994 56.4304 565.44 56.9642 565.753C57.3409 565.974 58.1084 567.306 59.2803 568.717C48.8102 574.919 35.7736 580.305 23.9418 583.604C21.0628 584.033 19.909 583.634 19.3136 583.174C27.7305 580.508 44.4145 568.133 49.1173 566.282C51.1413 565.486 52.6675 565.162 53.8265 565.094Z" fill="#E6982C"/>
<path d="M51.5909 570.707C50.2983 571.248 48.9835 571.24 48.6541 570.69C48.3247 570.14 49.1055 569.256 50.3981 568.715C51.6907 568.174 53.0056 568.182 53.335 568.732C53.6644 569.282 52.8835 570.166 51.5909 570.707Z" fill="white"/>
<path d="M51.364 570.327C50.4405 570.713 49.4756 570.665 49.2089 570.22C48.9422 569.774 49.4746 569.1 50.3981 568.713C51.3217 568.327 52.2865 568.375 52.5533 568.82C52.82 569.266 52.2875 569.94 51.364 570.327Z" fill="black"/>
<path d="M49.1322 565.41L51.5565 568.349C51.9503 568.826 51.7895 569.484 51.1974 569.819C50.6053 570.153 49.8061 570.037 49.4123 569.56L46.988 566.621C46.5942 566.143 46.755 565.485 47.3471 565.151C47.9392 564.817 48.7384 564.933 49.1322 565.41Z" fill="#344A65"/>
<path d="M45.673 574.043C44.3576 574.543 43.0453 574.494 42.7421 573.933C42.4388 573.373 43.2593 572.513 44.5747 572.013C45.8902 571.512 47.2024 571.561 47.5057 572.122C47.809 572.683 46.9885 573.543 45.673 574.043Z" fill="white"/>
<path d="M45.4635 573.656C44.5237 574.013 43.5627 573.935 43.3171 573.481C43.0716 573.027 43.6344 572.369 44.5742 572.011C45.514 571.654 46.475 571.732 46.7205 572.186C46.9661 572.64 46.4033 573.298 45.4635 573.656Z" fill="black"/>
<path d="M43.4619 568.669L45.7463 571.685C46.1174 572.175 45.9267 572.827 45.3204 573.143C44.7142 573.458 43.9219 573.317 43.5508 572.827L41.2664 569.811C40.8953 569.321 41.0859 568.668 41.6922 568.353C42.2985 568.037 43.0908 568.179 43.4619 568.669Z" fill="#344A65"/>
<path d="M39.7795 577.179C38.5764 577.637 37.3762 577.592 37.0988 577.079C36.8214 576.567 37.5719 575.78 38.775 575.322C39.9781 574.865 41.1782 574.91 41.4556 575.423C41.733 575.935 40.9826 576.722 39.7795 577.179Z" fill="white"/>
<path d="M39.5878 576.825C38.7282 577.152 37.8493 577.081 37.6247 576.665C37.4001 576.25 37.9149 575.648 38.7744 575.321C39.634 574.995 40.5129 575.066 40.7375 575.481C40.9621 575.897 40.4474 576.498 39.5878 576.825Z" fill="black"/>
<path d="M37.7576 572.264L39.8469 575.022C40.1863 575.47 40.0119 576.067 39.4574 576.356C38.9029 576.644 38.1783 576.515 37.8389 576.067L35.7495 573.308C35.4101 572.86 35.5845 572.263 36.139 571.975C36.6935 571.686 37.4182 571.816 37.7576 572.264Z" fill="#344A65"/>
<path d="M33.7969 579.776C32.5638 580.171 31.3713 580.065 31.1334 579.538C30.8955 579.01 31.7022 578.262 32.9353 577.867C34.1684 577.471 35.3608 577.578 35.5988 578.105C35.8367 578.632 35.03 579.38 33.7969 579.776Z" fill="white"/>
<path d="M33.6328 579.412C32.7519 579.695 31.8816 579.578 31.6889 579.151C31.4963 578.724 32.0542 578.149 32.9352 577.866C33.8161 577.583 34.6864 577.7 34.8791 578.127C35.0717 578.554 34.5138 579.129 33.6328 579.412Z" fill="black"/>
<path d="M34.028 577.624L32.5838 575.563C32.2622 575.103 31.5689 574.93 30.9934 575.19C30.418 575.45 30.1847 576.043 30.5064 576.502L31.9506 578.564C32.2722 579.023 32.9655 579.197 33.541 578.937C34.1164 578.677 34.3497 578.084 34.028 577.624Z" fill="#344A65"/>
<path d="M27.4806 581.986C26.2216 582.316 25.042 582.145 24.8458 581.605C24.6496 581.065 25.5112 580.36 26.7702 580.03C28.0292 579.701 29.2088 579.871 29.405 580.412C29.6012 580.952 28.7396 581.657 27.4806 581.986Z" fill="white"/>
<path d="M27.3449 581.613C26.4455 581.849 25.5876 581.685 25.4288 581.248C25.2699 580.81 25.8703 580.265 26.7697 580.029C27.6691 579.794 28.527 579.958 28.6858 580.395C28.8446 580.832 28.2443 581.378 27.3449 581.613Z" fill="black"/>
<path d="M27.8745 579.849L26.8653 578.324C26.557 577.858 25.9034 577.637 25.3102 577.866C24.717 578.095 24.4155 578.685 24.7238 579.151L25.733 580.676C26.0413 581.142 26.6949 581.363 27.2881 581.134C27.8813 580.905 28.1828 580.315 27.8745 579.849Z" fill="#344A65"/>
</g>
<defs>
<clipPath id="clip0_1922_919">
<rect width="300" height="600" fill="white"/>
</clipPath>
</defs>
</svg>
