<svg width="220" height="520" viewBox="0 0 220 520" fill="none" xmlns="http://www.w3.org/2000/svg">
<path d="M24.9922 305.06C33.074 309.337 39.7789 312.422 48.1315 314.848C63.8414 318.468 157.994 311.021 158.697 303.72C157.787 199.218 162.144 181.635 142.276 173.857C131.498 173.21 77.6956 175.43 44.5541 177.081C29.8733 177.812 21.0633 178.677 21.457 208.751C21.4673 209.531 26.832 209.472 27.5921 209.582C28.2341 233.236 25.653 288.473 24.9922 305.06Z" fill="#ECB42A"/>
<path d="M28.4683 199.173C28.6107 196.373 29.6117 183.372 38.5557 183.023C48.2176 182.647 48.8081 195.468 49.093 199.882C50.5138 221.887 49.2926 269.976 47.2842 313.392C40.0272 310.913 32.7327 307.643 25.5132 303.403C26.7916 263.378 27.4214 219.645 28.4683 199.173Z" fill="#77362D"/>
<path d="M28.4538 197.839C33.02 198.066 47.3633 197.711 48.9764 198.149C50.3888 219.312 49.7149 273.06 47.6923 314.827C40.4363 312.452 31.8878 309.657 24.6702 305.589C25.9617 267.086 26.3965 218.614 28.4538 197.839Z" fill="#E1781C"/>
<path d="M49.2697 269.461C48.9398 287.132 48.5012 298.139 47.6923 314.826C40.4363 312.451 31.8878 309.656 24.6702 305.588C25.0873 293.14 25.4059 278.229 25.7274 264.971C30.7312 266.68 43.472 268.429 49.2697 269.461Z" fill="#D16117"/>
<path d="M49.2513 269.961C48.9045 285.139 48.3778 300.667 47.6918 314.827C46.1351 314.866 44.8051 315.55 43.2671 315.232C36.4694 313.823 31.0493 310.283 24.6724 306.7C20.2862 304.235 23.1166 275.022 24.1748 266.274C24.3248 265.034 25.3866 264.435 25.7849 264.455C24.9845 272.207 41.4854 272.95 49.2513 269.961Z" fill="#E1781C"/>
<path d="M47.5917 271.064C48.2393 270.886 48.6657 270.756 49.2393 270.534L49.2693 269.462C43.3535 271.789 32.267 271.696 28.0504 268.37C26.7383 267.322 25.6314 265.971 25.7851 264.455C25.7851 264.455 25.1469 264.443 24.8469 264.93C25.2134 267.259 25.8151 267.941 27.4168 269.212C31.5716 272.501 41.1923 272.824 47.5917 271.064Z" fill="#E5A05E"/>
<path d="M188.969 242.455C180.834 248.169 165.944 254.957 156.615 258.525C142.577 243.199 128.605 196.611 128.496 195.031C139.778 194.885 149.025 195.003 152.784 196.676C159.827 204.577 177.603 227.856 188.969 242.455Z" fill="#60A4CF"/>
<path d="M79.7353 494.072C79.6191 494.946 46.6895 492.116 46.6904 491.049C46.6998 481.773 48.3006 463.149 48.4065 457.775L83.5846 460.768C82.1206 469.893 80.5723 487.77 79.7353 494.072Z" fill="#B56A2A"/>
<path d="M82.1783 498.015C82.0855 498.548 44.0254 496.061 43.9767 495.406C43.5559 489.716 44.5344 478.329 44.4069 475.034L85.064 477.672C84.018 483.743 82.8493 494.167 82.1783 498.015Z" fill="white"/>
<path d="M39.6576 486.983C40.1853 485.06 41.2791 482.623 42.1254 480.395C42.7543 478.743 59.0031 479.007 59.049 482.98C59.0602 483.997 59.019 484.895 58.9346 485.709C61.7145 485.736 64.7295 485.702 67.9142 485.587C74.8366 485.336 81.042 484.776 85.3964 484.086C85.6785 490.369 85.1265 501.247 85.3823 508.231C85.3823 508.231 12.8913 521.738 1.46736 511.273C-1.75203 508.325 16.448 495.223 39.6576 486.983Z" fill="#CC3D3D"/>
<path d="M85.3181 503.851C85.32 505.404 85.3331 506.901 85.3818 508.23C85.3818 508.23 12.8907 521.737 1.46683 511.273C1.01319 510.858 0.991633 510.237 1.34309 509.46C21.3446 513.779 67.2951 506.87 85.3181 503.851Z" fill="#822525"/>
<path d="M44.4547 492.999C44.6628 493.274 44.9824 493.412 45.3029 493.4C45.5026 493.393 45.7031 493.327 45.8756 493.198C46.3226 492.862 46.4117 492.23 46.0743 491.784C43.2598 488.069 38.3543 486.13 34.1433 487.04C33.596 487.16 33.2501 487.7 33.3711 488.244C33.491 488.789 34.028 489.122 34.5801 489.014C38.0403 488.239 42.1004 489.893 44.4547 492.999ZM39.33 495.464C39.539 495.684 39.8229 495.789 40.1041 495.779C40.3422 495.771 40.5784 495.679 40.7649 495.505C41.1716 495.121 41.1894 494.481 40.8042 494.077C37.5951 490.698 33.2127 489.042 28.7749 489.561C28.2172 489.625 27.8189 490.125 27.8826 490.68C27.9463 491.234 28.4562 491.669 29.0063 491.566C31.2407 491.309 35.5436 491.479 39.33 495.464ZM22.0577 493.537C22.1524 494.086 22.6613 494.467 23.2302 494.36C26.6042 493.734 31.0486 495.382 33.9999 498.251C34.208 498.452 34.4788 498.546 34.7459 498.537C34.9981 498.528 35.2455 498.426 35.4348 498.234C35.8275 497.835 35.82 497.196 35.4189 496.806C32.0289 493.512 26.8854 491.68 22.8862 492.372C22.3342 492.465 21.964 492.987 22.0577 493.537Z" fill="#D3D8E3"/>
<path d="M137.129 494.468C137.268 495.337 170.109 491.623 170.079 490.557C169.818 481.284 167.713 462.711 167.461 457.341L132.378 461.278C134.088 470.361 136.121 488.189 137.129 494.468Z" fill="#B56A2A"/>
<path d="M134.195 498.015C134.288 498.548 172.348 496.061 172.396 495.406C172.816 489.716 171.838 478.329 171.966 475.034L131.308 477.672C132.355 483.743 133.524 494.167 134.195 498.015Z" fill="white"/>
<path d="M176.716 486.983C176.188 485.06 175.095 482.623 174.247 480.395C173.619 478.743 157.37 479.007 157.325 482.98C157.313 483.997 157.355 484.895 157.439 485.709C154.658 485.736 151.643 485.702 148.459 485.587C141.537 485.336 135.331 484.776 130.977 484.086C130.695 490.369 131.246 501.247 130.991 508.231C130.991 508.231 203.482 521.738 214.906 511.273C218.126 508.325 199.926 495.223 176.716 486.983Z" fill="#CC3D3D"/>
<path d="M131.055 503.851C131.053 505.404 131.04 506.901 130.991 508.23C130.991 508.23 203.482 521.737 214.906 511.273C215.36 510.858 215.38 510.237 215.03 509.46C195.028 513.779 149.078 506.87 131.055 503.851Z" fill="#822525"/>
<path d="M181.793 489.014C182.345 489.122 182.882 488.789 183.002 488.244C183.123 487.7 182.777 487.16 182.23 487.04C178.019 486.13 173.113 488.069 170.299 491.784C169.961 492.23 170.049 492.862 170.497 493.198C170.669 493.327 170.87 493.393 171.07 493.4C171.39 493.412 171.71 493.274 171.917 492.999C174.272 489.893 178.332 488.239 181.793 489.014ZM187.367 491.566C187.917 491.669 188.427 491.234 188.49 490.68C188.554 490.125 188.155 489.625 187.598 489.561C183.159 489.042 178.778 490.698 175.569 494.077C175.184 494.481 175.201 495.121 175.608 495.505C175.795 495.679 176.031 495.771 176.269 495.779C176.55 495.789 176.834 495.684 177.042 495.464C180.829 491.479 185.132 491.309 187.367 491.566ZM193.487 492.372C189.488 491.68 184.343 493.512 180.954 496.806C180.553 497.196 180.545 497.835 180.937 498.234C181.127 498.426 181.375 498.528 181.626 498.537C181.894 498.546 182.165 498.452 182.372 498.251C185.324 495.382 189.769 493.734 193.143 494.36C193.711 494.467 194.221 494.086 194.314 493.537C194.409 492.987 194.039 492.465 193.487 492.372Z" fill="#D3D8E3"/>
<path d="M44.7795 466.334C50.506 467.187 80.5152 469.175 87.7478 469.275C89.493 451.854 96.7528 378.905 101.178 356.884C102.276 351.426 111.468 350.516 112.93 356.216C113.834 359.737 125.319 449.719 128.749 471.577C140.314 470.522 160.335 468.558 170.608 466.75C170.608 466.75 161.033 321.063 159.898 299.207C140.232 296.998 73.6416 297.017 52.4939 299.463C48.8734 322.042 46.5772 433.204 44.7795 466.334Z" fill="#344A65"/>
<path d="M160.645 307.354C150.76 307.685 142.834 315.713 142.834 325.631C142.834 335.758 151.083 343.967 161.259 343.967C161.787 343.967 162.284 343.856 162.8 343.813C161.946 329.539 161.188 316.737 160.645 307.354Z" fill="#13222A"/>
<path d="M51.2461 307.347C50.6219 316.793 50.1148 329.597 49.6687 343.863C50.0192 343.883 50.3511 343.967 50.7063 343.967C60.8827 343.967 69.1322 335.758 69.1322 325.63C69.1322 315.687 61.1657 307.638 51.2461 307.347Z" fill="#13222A"/>
<path opacity="0.2" d="M162.153 328.533C161.178 312.118 160.177 295.013 159.9 289.664C140.233 287.454 73.6425 287.474 52.4948 289.919C51.3373 297.14 50.6457 313.212 49.9624 333.772C83.3878 344.71 126.167 345.278 162.153 328.533Z" fill="black"/>
<path d="M48.9393 329.244C79.5052 344.206 144.486 336.137 165.714 320.377C165.714 320.377 150.563 217.527 144.278 195.29C96.307 194.179 94.6209 193.208 46.3563 203.293C45.2972 232.351 49.5054 286.401 48.9393 329.244Z" fill="#60A4CF"/>
<path opacity="0.55" d="M47.8577 240.931C47.8652 252.063 47.9701 263.935 48.1267 275.973C82.3871 277.354 118.456 274.439 159.309 265.263C157.352 254.763 154.556 242.998 152.261 231.107C124.548 238.31 82.3356 242.646 47.8577 240.931Z" fill="white"/>
<path d="M128.259 199.238C128.247 197.773 127.83 196.247 127.405 194.881C112.281 194.648 89.7234 195.625 73.6471 197.742C73.5562 198.378 73.3181 198.981 73.3228 199.637C73.4053 210.961 85.7702 220.052 100.94 219.942C116.11 219.832 128.341 210.562 128.259 199.238Z" fill="#487CA4"/>
<path d="M118.782 167.814L120.382 201.031C120.726 208.173 111.884 214.4 100.631 214.937C89.3798 215.475 79.9794 210.118 79.6355 202.976L78.0347 169.759L118.782 167.814Z" fill="#B56A2A"/>
<path d="M54.0914 283.317C69.1995 278.253 71.6326 259.887 70.3486 234.19L65.6024 234.415C67.1732 265.947 62.6361 278.215 48.0134 279.788L48.2515 284.521C50.334 284.301 52.3565 283.898 54.0914 283.317Z" fill="#973D35"/>
<path d="M61.5865 238.704L72.8483 238.193L73.9036 237.184C73.9036 237.184 71.6589 199.809 67.6429 198.118C65.1845 197.083 59.3456 196.969 56.7682 198.04C56.144 198.299 55.6595 200.041 55.5208 200.223C59.3015 203.309 61.5865 238.704 61.5865 238.704Z" fill="#C27A21"/>
<path d="M62.5123 237.7L73.9034 237.185C73.9034 237.185 71.1217 199.099 67.6764 196.771C66.6117 196.052 56.2028 196.917 56.7295 198.287C60.2891 201.332 62.5123 237.7 62.5123 237.7Z" fill="#E9BA4A"/>
<path d="M85.1761 277.407C85.9465 279.069 82.2135 290.928 66.0697 287.956C53.3646 285.615 44.5518 258.435 41.7495 251.122L60.7978 235.688C69.8317 249.437 76.9313 259.618 85.1761 277.407Z" fill="#B56A2A"/>
<path d="M150.983 265.804C151.243 267.945 151.241 273.294 150.015 272.889C142.532 264.664 141.813 251.197 141.046 231.133L145.794 230.943C146.392 246.536 147.479 259.173 149.991 264.503C150.224 264.999 150.725 265.41 150.983 265.804Z" fill="#973D35"/>
<path d="M137.28 234.86L148.507 233.849L149.517 232.793C149.517 232.793 145.595 195.557 141.506 194.045C138.398 192.896 130.092 194.163 129.421 195.134C133.337 198.048 137.28 234.86 137.28 234.86Z" fill="#C27A21"/>
<path d="M138.158 233.816L149.517 232.793C149.517 232.793 145.516 195.849 141.969 193.677C140.874 193.005 130.024 193.354 130.612 194.699C134.305 197.582 138.158 233.816 138.158 233.816Z" fill="#E9BA4A"/>
<path d="M94.4262 315.295L172.26 303.22L169.975 221.047L160.075 216.008C158.996 215.499 157.806 215.283 156.622 215.379L89.9612 221.578C89.0099 221.665 88.2948 222.504 88.3388 223.48L92.399 313.568C92.4477 314.641 93.3859 315.44 94.4262 315.295Z" fill="#E79B24"/>
<path d="M96.4376 313.324L108.669 320.327L171.255 309.511L167.576 223.063L158.67 218.71L93.175 225.453L96.4376 313.324Z" fill="#F3E5D6"/>
<path d="M105.05 322.481L172.92 310.905L169.976 221.047L100.825 229.164C99.3846 229.328 98.3133 230.603 98.3714 232.084L101.838 319.806C101.905 321.503 103.411 322.758 105.05 322.481Z" fill="#EDB52A"/>
<path d="M125.132 267.139C146.688 271.254 159.797 272.938 174.106 272.563C187.814 272.204 188.826 253.782 188.969 244.437C176.101 246.883 143.854 246.772 127.468 247.363C124.502 247.47 122.138 266.568 125.132 267.139Z" fill="#B56A2A"/>
<path d="M94.9996 268.964C101.771 269.688 109.523 269.771 123.753 268.807C134.051 268.108 136.309 260.269 135.181 254.946C134.535 251.889 124.533 236.709 119.869 234.283C116.794 232.685 110.426 229.694 109.718 230.095C106.297 232.027 109.373 236.492 114.382 239.361C115.775 240.338 116.876 241.481 117.718 244.075C117.29 245.319 107.722 239.287 103.183 237.522C99.5592 236.113 88.8916 236.797 88.2852 237.91C86.7922 240.649 95.6331 242.457 99.1544 243.505C100.377 243.868 103.669 245.97 105.54 247.564C102.588 247.656 97.3164 246.624 95.3304 246.528C91.5028 246.343 83.1971 244.819 81.9243 247.122C80.9299 248.921 86.0125 251.072 92.5187 252.603C94.097 252.976 99.9154 254.525 103.682 255.646C103.665 255.809 94.5216 255.579 93.2657 255.249C89.5402 254.271 84.5954 252.477 82.1745 255.479C81.5138 256.3 89.2337 260.66 93.1589 261.338C94.9106 261.64 98.7513 262.462 103.429 262.95C100.687 263.311 95.5666 263.351 94.4878 263.346C89.0875 261.018 86.8466 260.274 84.9909 262.492C84.4164 263.179 91.7727 268.619 94.9996 268.964Z" fill="#B56A2A"/>
<path d="M106.244 303.18C85.2231 296.896 72.8198 292.349 60.3115 285.424C48.328 278.789 56.0012 261.993 60.2225 253.645C70.4889 261.742 99.1241 276.501 113.374 284.575C115.952 286.036 109.163 304.054 106.244 303.18Z" fill="#B56A2A"/>
<path d="M138.507 311.793C131.721 311.217 124.097 309.824 110.314 306.171C100.339 303.527 99.6285 295.402 101.757 290.392C102.979 287.514 115.711 274.516 120.755 273.022C124.081 272.038 130.905 270.314 131.523 270.841C134.51 273.389 130.633 277.187 125.166 279.051C123.61 279.744 122.31 280.657 120.986 283.044C121.168 284.345 131.718 280.243 136.51 279.375C140.339 278.68 150.679 281.381 151.06 282.588C152 285.562 142.974 285.655 139.317 286.013C138.047 286.138 134.412 287.574 132.27 288.783C135.15 289.436 140.523 289.424 142.491 289.708C146.283 290.255 154.728 290.338 155.535 292.841C156.166 294.795 150.764 295.941 144.083 296.206C142.463 296.271 136.454 296.686 132.541 297.07C132.526 297.233 141.546 298.745 142.842 298.661C146.687 298.41 151.886 297.59 153.684 300.996C154.176 301.928 145.761 304.739 141.778 304.658C140.001 304.622 136.073 304.697 131.387 304.289C134.01 305.163 139.028 306.177 140.088 306.377C145.836 305.119 148.178 304.815 149.574 307.345C150.006 308.128 141.741 312.069 138.507 311.793Z" fill="#B56A2A"/>
<path d="M37.3102 274.004C47.8616 271.782 70.7515 262.039 78.8586 256.22C52.7192 208.476 55.7999 205.311 46.3564 203.293C43.7068 203.953 30.6512 223.699 29.9098 229.077C29.0269 235.484 30.3644 249.703 37.3102 274.004Z" fill="#60A4CF"/>
<path opacity="0.19" d="M126.25 178.17C126.204 176.707 125.85 175.32 125.392 173.963C110.266 174.093 87.6386 175.482 71.6186 177.983C71.5426 178.621 71.3196 179.23 71.3402 179.885C71.6963 191.204 84.2777 199.996 99.4412 199.522C114.604 199.049 126.607 189.49 126.25 178.17Z" fill="#541E0F"/>
<path d="M4.72367 141.239C9.47261 158.912 26.8452 169.912 39.838 168.093C52.8308 166.273 55.2283 151.728 52.8215 134.686C50.4109 117.644 37.9185 105.26 24.9313 107.122C7.18109 109.669 0.261531 124.627 4.72367 141.239Z" fill="#B56A2A"/>
<path d="M20.9989 145.452C22.057 152.924 28.2812 158.23 34.9046 157.303C41.5242 156.375 46.0361 149.566 44.9779 142.093C43.9207 134.621 37.6966 129.316 31.0778 130.243C24.4544 131.169 19.9445 137.98 20.9989 145.452Z" fill="#87491C"/>
<path d="M198.169 141.484C193.467 159.169 176.12 170.213 163.123 168.426C150.125 166.638 147.692 152.1 150.056 135.051C152.423 118.003 164.885 105.588 177.878 107.418C195.635 109.921 202.59 124.863 198.169 141.484Z" fill="#B56A2A"/>
<path d="M181.554 145.252C180.516 152.727 174.305 158.048 167.682 157.138C161.058 156.226 156.529 149.428 157.567 141.953C158.605 134.478 164.816 129.158 171.439 130.068C178.062 130.978 182.591 137.777 181.554 145.252Z" fill="#87491C"/>
<path d="M186.404 81.3039C186.123 133.538 151.535 156.848 103.277 156.591C55.0168 156.334 16.684 132.658 16.9661 80.4234C17.2473 28.1899 58.3552 13.4591 100.832 12.9321C144.476 12.3911 186.686 29.0704 186.404 81.3039Z" fill="black"/>
<path d="M170.357 73.9089C162.14 44.4903 134.467 36.1198 100.742 35.91L100.369 35.896C66.644 36.1059 38.9713 44.4903 30.7537 73.9089C23.8707 98.5509 32.018 151.763 41.4597 167.444C49.4402 180.695 78.0295 194.606 99.8745 194.363C100.093 194.36 100.328 194.326 100.556 194.305C100.784 194.326 101.019 194.36 101.237 194.363C123.082 194.606 151.672 180.695 159.652 167.444C169.094 151.763 177.241 98.5509 170.357 73.9089Z" fill="#B56A2A"/>
<path d="M43.4482 146.41C43.2204 149.782 47.7435 152.831 53.5524 153.22C59.3595 153.61 64.2547 151.193 64.4834 147.821C64.7111 144.449 60.1862 141.4 54.3791 141.01C48.5701 140.621 43.6769 143.038 43.4482 146.41Z" fill="#A74322"/>
<path d="M140.28 148.126C140.528 151.496 145.434 153.888 151.241 153.466C157.046 153.046 161.554 149.972 161.307 146.601C161.061 143.231 156.152 140.84 150.347 141.26C144.541 141.682 140.034 144.755 140.28 148.126Z" fill="#A74322"/>
<path d="M115.238 158.113C114.444 157.405 113.192 157.451 112.436 158.257C110.268 160.654 105.6 162.181 100.094 162.201C94.7429 162.218 90.0661 160.722 87.8908 158.325C87.1419 157.531 85.8898 157.462 85.0959 158.2C84.707 158.549 84.4774 159.032 84.4474 159.56C84.4239 160.088 84.6001 160.597 84.9591 160.988C87.8983 164.214 93.5479 166.14 100.052 166.14L100.304 166.143C106.802 166.102 112.436 164.142 115.376 160.897C116.101 160.096 116.04 158.846 115.238 158.113Z" fill="#611C11"/>
<path d="M106.139 141.688C105.752 141.688 105.411 141.411 105.345 141.018C104.88 138.232 102.667 136.432 99.705 136.433C96.7275 136.434 94.4631 138.27 94.0704 141.003C94.0067 141.441 93.5971 141.747 93.1594 141.683C92.7189 141.621 92.4134 141.215 92.4762 140.777C92.9786 137.276 95.9514 134.831 99.705 134.83C103.437 134.828 106.343 137.21 106.935 140.754C107.008 141.192 106.711 141.604 106.272 141.678L106.139 141.688Z" fill="#611C11"/>
<path d="M120.26 114.386C114.633 122.495 115.317 131.454 120.224 134.873C127.616 140.025 145.12 141.547 151.66 134.159C157.995 127.002 154.955 113.907 144.651 108.243C135.629 103.285 125.705 106.537 120.26 114.386Z" fill="#FAFEFF"/>
<path d="M152.869 112.225C144.855 99.597 125.534 103.801 120.072 114.662C125.694 106.556 136.06 104.115 144.401 108.695C149.554 111.53 153.213 116.554 154.189 122.138C154.966 126.589 153.929 131.575 151.298 134.548C154.324 132.611 158.76 121.511 152.869 112.225Z" fill="#611C11"/>
<path d="M122.314 119.789C120.005 125.413 122.715 131.834 128.365 134.132C134.016 136.43 140.468 133.734 142.777 128.111C145.086 122.487 142.378 116.066 136.727 113.768C131.077 111.47 124.624 114.166 122.314 119.789Z" fill="#40221B"/>
<path d="M123.218 118.824C122.577 120.384 123.328 122.166 124.896 122.803C126.464 123.441 128.254 122.693 128.894 121.132C129.536 119.573 128.784 117.791 127.216 117.153C125.649 116.515 123.858 117.263 123.218 118.824Z" fill="#FEFFFE"/>
<path d="M81.6497 114.026C87.1269 122.236 86.2787 131.181 81.3104 134.51C73.8238 139.527 56.2948 140.732 49.8916 133.225C43.689 125.954 46.9693 112.916 57.3764 107.44C66.4862 102.647 76.3497 106.079 81.6497 114.026Z" fill="#FAFEFF"/>
<path d="M49.0869 111.272C57.3298 98.7918 76.5712 103.346 81.8337 114.304C76.3603 106.098 66.0414 103.47 57.6176 107.896C52.4122 110.637 48.6623 115.595 47.5845 121.159C46.726 125.595 47.6717 130.6 50.2472 133.619C47.2574 131.629 43.0258 120.449 49.0869 111.272Z" fill="#611C11"/>
<path d="M58.9588 119.204C56.6494 124.827 59.3589 131.249 65.0095 133.547C70.6601 135.846 77.112 133.149 79.4214 127.526C81.7307 121.902 79.0212 115.481 73.3715 113.183C67.721 110.884 61.2681 113.58 58.9588 119.204Z" fill="#40221B"/>
<path d="M59.8622 118.238C59.2211 119.798 59.9728 121.58 61.5408 122.218C63.1088 122.855 64.8989 122.108 65.539 120.547C66.1801 118.987 65.4284 117.205 63.8604 116.567C62.2934 115.93 60.5023 116.678 59.8622 118.238Z" fill="#FEFFFE"/>
<path d="M149.649 85.159C148.677 85.1767 147.742 84.8512 147.037 84.2682C142.422 80.5522 133.42 79.6111 126.387 82.1994C125.471 82.4988 124.366 82.538 123.399 82.1462C122.44 81.7526 121.704 81.04 121.317 80.1325C120.534 78.253 121.518 76.132 123.521 75.4016C133.126 71.8348 145.296 73.2348 152.118 78.7455C152.918 79.3835 153.396 80.2733 153.471 81.2517C153.546 82.2246 153.214 83.1648 152.539 83.8951C152.068 84.4026 151.468 84.7719 150.801 84.9771C150.438 85.0881 150.041 85.1525 149.649 85.159Z" fill="#321C09"/>
<path d="M45.9648 82.9531C45.9311 83.9231 46.336 84.8494 47.1129 85.5592C47.9143 86.311 49.0774 86.7428 50.292 86.7242C51.3492 86.7065 52.353 86.353 53.1196 85.7457C58.0654 81.8142 67.6908 80.6455 75.5054 83.0156C76.4173 83.2926 77.3724 83.2814 78.2309 83.0398C79.4418 82.6994 80.4606 81.9019 80.9226 80.7975C81.3069 79.8722 81.2431 78.8817 80.7502 78.0012C80.2647 77.1179 79.3996 76.4538 78.3227 76.1283C67.5633 72.8646 54.5283 74.661 47.3163 80.3974C46.4756 81.0671 46.0023 81.9718 45.9648 82.9531Z" fill="#321C09"/>
<path d="M188.436 75.5916C189.874 74.3184 190.83 72.6777 190.856 70.8039C190.89 68.43 189.53 66.3071 187.403 64.9388C191.668 62.787 194.559 58.8527 194.624 54.3027C194.697 49.127 191.101 44.6331 185.901 42.6249C187.68 40.945 188.737 38.9219 188.768 36.729C188.853 30.7464 181.326 25.7889 171.957 25.6574C171.228 25.6462 170.515 25.6751 169.811 25.7226C170.156 24.9597 170.36 24.1379 170.372 23.2761C170.41 20.5618 168.63 18.1712 165.959 16.8691C165.516 14.1026 163.755 11.5879 160.858 10.1076C155.735 7.49039 148.982 9.07511 145.52 13.6157C142.733 11.8062 139.285 10.699 135.524 10.6468C132.846 10.6085 130.314 11.1178 128.048 12.0309C131.217 8.89789 132.521 5.72563 131.082 3.5309C128.63 -0.211278 119.179 0.305479 109.974 4.68562C106.845 6.17333 104.164 7.91757 102.062 9.71684C102.179 6.31047 100.341 3.04307 96.8621 1.26527C91.5986 -1.42381 84.6031 0.313869 81.2357 5.1464C80.0322 6.87476 79.4661 8.76449 79.4624 10.602C77.005 9.36053 74.1568 8.62177 71.1023 8.57888C64.5098 8.48562 58.7637 11.6252 55.8882 16.2777C54.6052 13.5588 51.4045 11.6019 47.6247 11.5497C42.6695 11.4788 38.6066 14.7014 38.5485 18.7458C38.5195 20.7745 39.5054 22.6241 41.1203 23.9737C40.0528 24.8151 39.2468 25.8747 38.7988 27.0649C33.2635 25.787 28.1687 26.8018 26.8228 29.6663C26.0749 31.2585 26.6307 33.1277 28.1265 34.8831C20.8836 36.1302 15.4955 40.612 15.4176 46.0424C15.4102 46.6058 15.4795 47.1552 15.5817 47.698C10.9077 47.1309 6.40804 48.5832 4.17556 51.7881C1.02743 56.3063 3.57761 62.5752 9.87018 65.7904C10.0258 65.8706 10.1861 65.935 10.3435 66.0096C10.291 66.1337 10.2263 66.2512 10.1785 66.378C8.76424 70.1071 9.67523 74.0041 12.2133 76.9469C10.6724 78.4141 9.68272 80.5407 9.64899 82.9276C9.58526 87.4225 12.9134 91.1134 17.0831 91.1721C17.8751 91.1833 18.6398 91.0611 19.3606 90.8279C20.1535 93.5394 21.5265 95.3237 23.3373 95.5569C23.5388 84.8537 25.3129 70.5651 34.868 58.4908C38.2196 59.5578 42.5486 58.9916 46.4259 56.3996C50.5001 53.676 52.7588 49.64 52.8254 46.0098C54.6539 47.0544 57.7309 47.2074 60.9643 46.1525C64.3617 45.0435 66.9044 42.9653 67.6261 40.9515C70.9411 41.6371 75.0293 41.8087 79.4484 41.25C85.5647 40.4758 90.7842 38.5329 93.8939 36.1862C96.1151 38.6113 100.727 40.2958 106.112 40.2958C110.276 40.2958 113.959 39.2754 116.462 37.7009C117.91 39.1121 119.892 39.9917 122.087 39.9917C124.525 39.9917 126.635 38.8566 128.106 37.159C130.714 41.2724 136.532 45.078 143.925 46.9099C146.303 47.4993 148.619 47.7913 150.836 47.8986L150.78 48.128C150.78 53.6685 156.273 58.1606 163.05 58.1606C164.611 58.1606 166.078 57.8686 167.451 57.434C173.084 64.7905 174.935 72.4614 175.678 78.6538C175.04 80.7264 175.008 83.116 175.877 85.4684C175.976 85.7361 176.17 85.9208 176.285 86.1764C176.43 89.2003 176.592 91.1171 177.686 90.9604C178.361 90.8634 178.891 90.4791 179.496 90.232C181.737 91.9557 184.462 92.7149 187.012 91.7831C191.295 90.217 193.254 84.85 191.388 79.7964C190.746 78.0569 189.66 76.7147 188.436 75.5916Z" fill="black"/>
</svg>
