<svg width="278" height="720" viewBox="0 0 278 720" fill="none" xmlns="http://www.w3.org/2000/svg">
<g clip-path="url(#clip0_1976_6159)">
<path d="M58.1854 686.155L99.1835 688.057C99.6415 681.3 99.8053 660.865 100.421 652.901L57.6459 652.291C57.9257 664.614 57.8291 681.887 58.1854 686.155Z" fill="#B7B7B7"/>
<path d="M213.52 682.245L174.552 686.16C173.815 679.433 172.753 659.029 171.813 651.104L212.532 648.393C212.812 660.716 213.671 677.965 213.52 682.245Z" fill="#B7B7B7"/>
<path d="M23.1231 695.761C31.891 691.966 50.2182 684.055 51.6988 675.454C52.1016 673.114 71.8078 672.59 72.2793 676.007C72.4661 677.364 72.2586 678.589 72.1598 679.687C75.6719 679.7 101.407 677.979 106.735 677.421C107.149 685.89 108.333 703.455 108.554 712.096C108.554 712.096 99.1104 713.882 88.0913 715.334C86.7925 715.505 83.5024 708.952 82.1113 709.127C79.1803 709.494 78.0025 716.592 74.7524 716.95C46.0414 720.115 1.27944 723.538 0.0565064 711.965C-0.866558 703.235 9.63453 701.598 23.1231 695.761Z" fill="#252A2C"/>
<path d="M253.222 689.969C244.291 686.62 225.626 679.639 223.756 671.124C223.247 668.806 203.54 669.275 203.225 672.711C203.099 674.076 203.363 675.29 203.511 676.381C200.003 676.571 174.219 676.146 168.872 675.857C168.844 684.336 168.459 701.942 168.63 710.583C168.63 710.583 178.144 711.892 189.217 712.788C190.522 712.894 193.511 706.183 194.907 706.288C197.852 706.508 199.351 713.537 202.614 713.732C231.435 715.449 276.302 716.616 276.998 704.995C277.523 696.228 266.96 695.121 253.222 689.969Z" fill="#252A2C"/>
<path d="M62.8372 366.766C74.0988 379.537 195.879 377.129 203.77 368.692C203.77 368.692 201.096 214.134 194.339 177.782C163.075 172.967 106.82 173.373 72.936 180.109C70.8237 224.591 62.8372 366.766 62.8372 366.766Z" fill="#A1DFFD"/>
<path d="M207.723 374.074C213.161 483.006 215.532 608.368 217.799 656.483L169.716 660.496C165.954 626.939 155.778 503.678 146.331 445.044C144.459 437.016 129.899 436.894 128.566 444.495C117.729 506.258 107.531 618.829 104.068 663.135L55.2296 660.283C58.1985 600.198 56.9964 469.154 60.5807 374.754C60.5807 374.754 108.62 376.437 140.061 376.232C178.331 375.983 207.723 374.074 207.723 374.074Z" fill="#292D2F"/>
<path d="M80.2163 369.75C79.1494 387.072 69.4899 400.081 58.3156 401.7C58.541 391.538 58.8 381.5 59.1077 371.7C59.2659 366.65 80.3158 368.138 80.2163 369.75Z" fill="#263338"/>
<path d="M168.112 377.958C185.535 377.519 199.62 376.814 210.569 375.164L209.466 361.612C171.827 367.289 69.9831 363.997 60.8216 361.292L56.3907 374.006C63.9458 376.647 121.73 379.125 168.112 377.958Z" fill="#321C1C"/>
<path d="M129.826 212.913H142.161L153.07 326.747L139.207 348.132L123.338 327.495L129.826 212.913Z" fill="#C54343"/>
<path opacity="0.27" d="M130.435 214.871C130.636 216.738 133.252 217.959 136.279 217.597C139.305 217.236 141.595 215.429 141.394 213.562C141.193 211.696 138.576 210.475 135.55 210.836C132.523 211.198 130.233 213.004 130.435 214.871Z" fill="#2F0606"/>
<path d="M128.647 213.879C132.882 215.71 141.99 214.638 143.105 213.515L147.52 195.711L123.981 196.304L128.647 213.879Z" fill="#C54343"/>
<path opacity="0.2" d="M113.793 228.079L101.976 178.076L108.556 168.263C108.556 168.263 118.146 188.022 135.748 195.925C128.528 203.742 113.793 228.079 113.793 228.079Z" fill="black"/>
<path opacity="0.2" d="M159.138 226.938L168.67 176.397L161.654 166.926C161.654 166.926 152.972 187.145 135.748 195.925C143.316 203.37 159.138 226.938 159.138 226.938Z" fill="black"/>
<path opacity="0.69" d="M207.195 362.64C207.293 368.184 208.735 400.503 208.735 400.503C204.133 402.064 156.063 407.303 135.119 409.226C135.156 399.767 136.034 378.6 136.871 361.965C142.16 362.114 195.72 361.871 207.195 362.64Z" fill="black"/>
<path d="M169.742 174.905C181.924 175.902 184.85 176.181 196.141 177.855C202.898 214.207 212.337 393.666 212.337 393.666C207.734 395.227 158.335 400.666 138.738 401.761C138.422 389.135 135.129 362.347 133.767 302.441C136.324 294.618 163.039 202.812 169.742 174.905Z" fill="#292D2F"/>
<path opacity="0.69" d="M115.567 405.728C85.1123 402.065 77.4492 379.793 71.0778 373.298C71.0778 373.298 113.338 288.608 122.084 273.6C127.551 276.794 137.17 290.912 142.586 307.32C145.203 360.567 121.196 397.219 115.567 405.728Z" fill="black"/>
<path d="M113.986 395.888C82.6477 395.714 62.7097 364.598 57.3336 358.5C57.3336 358.5 71.1256 303.524 72.9167 179.942C86.8131 177.733 94.2672 175.368 101.542 174.29C108 200.359 135.551 290.167 140.966 306.575C144.622 364.243 121.698 389.739 113.986 395.888Z" fill="#292D2F"/>
<path d="M56.9586 337.349C61.4481 353.619 72.2247 370.43 77.4534 381.581C75.6452 391.592 63.9977 402.447 57.7779 401.625C47.3263 386.902 38.1061 367.449 30.7994 350.936C38.8332 345.012 48.414 342.049 56.9586 337.349Z" fill="#D99255"/>
<path d="M42.522 387.433L72.6527 370.745L65.3567 356.438L35.8257 371.717L42.522 387.433Z" fill="#A1DFFD"/>
<path d="M46.5173 295.718C47.6257 303.976 62.3042 340.195 71.626 363.406C66.2972 366.291 40.2495 379.964 37.9575 381.695C22.6006 345.22 8.43377 306.875 7.45986 293.581C6.15825 275.817 24.9699 243.329 57.9779 183.241C60.3994 182.063 71.4392 180.213 77.4851 179.261C78.494 196.507 77.7505 229.342 77.7841 239.913C68.3636 256.758 49.6257 287.244 46.5173 295.718Z" fill="#292D2F"/>
<path d="M250.017 432.888C250.92 416.209 248.572 396.851 245.831 379.659C245.401 376.966 228.807 381.858 225.521 384.351C216.941 390.86 213.98 396.07 217.528 418.745C218.453 424.65 219.573 434.592 224.667 437.251C236.661 443.513 249.451 443.341 250.017 432.888Z" fill="#D99255"/>
<path d="M211.159 341.837C212.701 355.203 217.191 378.847 219.269 391.089C226.367 398.017 240.647 398.413 245.19 393.867C245.303 375.489 241.758 354.073 238.329 336.219C228.522 336.466 220.063 338.523 211.159 341.837Z" fill="#D99255"/>
<path d="M215.605 387.375L248.368 382.151L246.49 365.041L213.726 370.265L215.605 387.375Z" fill="#A1DFFD"/>
<path d="M214.027 381.218C219.397 380.918 246.267 375.742 248.574 374.032C240.759 320.199 231.271 231.311 218.902 182.574C213.979 181.102 196.254 177.651 190.044 176.98C188.495 194.181 189.99 226.691 189.625 237.255C196.707 257.421 206.7 344.255 214.027 381.218Z" fill="#292D2F"/>
<path d="M128.825 310.969C128.877 313.226 130.656 315.011 132.801 314.957C134.945 314.903 136.642 313.03 136.591 310.773C136.539 308.517 134.759 306.731 132.615 306.785C130.471 306.839 128.774 308.712 128.825 310.969Z" fill="#1A1C1C"/>
<path d="M129.389 335.764C129.44 338.021 131.22 339.807 133.364 339.753C135.509 339.699 137.205 337.826 137.154 335.569C137.103 333.312 135.323 331.527 133.179 331.581C131.034 331.634 129.337 333.508 129.389 335.764Z" fill="#1A1C1C"/>
<path d="M229.614 414.059C229.714 409.225 238.375 409.495 238.474 413.836L239.325 451.284L230.465 451.507L229.614 414.059Z" fill="#6E2519"/>
<path d="M256.626 519.927C256.694 522.922 250.807 524.309 248.959 520.67C248.541 517.831 248.137 505.204 248.137 505.204L255.179 505.08L256.626 519.927Z" fill="#EAA92A"/>
<path d="M253.262 512.85L246.075 513.031L244.619 449.007L249.829 448.876L253.262 512.85Z" fill="#6B271B"/>
<path d="M223.025 553.563L251.747 552.831L245.986 448.973L223.025 449.542V553.563Z" fill="#7C3A2A"/>
<path d="M107.503 178.506L164.544 177.07L164.025 154.268L106.985 155.704L107.503 178.506Z" fill="#68ACCF"/>
<path d="M135.304 190.625C121.669 190.625 110.616 183.429 110.616 174.551V130.695H159.993V174.551C159.993 183.429 148.94 190.625 135.304 190.625Z" fill="#D99255"/>
<path opacity="0.23" d="M110.616 169.373C116.961 172.662 126.851 173.612 137.399 171.325C147.256 169.188 155.361 164.7 159.993 159.534V142.447C154.087 137.695 142.642 135.952 130.308 138.626C122.283 140.366 115.411 143.669 110.616 147.617V169.373Z" fill="#702525"/>
<path d="M70.7188 35.7781C69.9887 37.2378 69.1303 46.7534 69.1762 47.212C73.879 51.6717 103.984 84.0297 138.89 84.0297C172.892 84.0297 200.918 41.4543 202.702 36.4275C190.052 14.0467 159.89 -2.93015 118.751 0.423741C117.16 0.553316 88.9107 5.61363 87.451 17.9386C81.9365 20.0599 75.7624 25.691 70.7188 35.7781Z" fill="#722717"/>
<path fill-rule="evenodd" clip-rule="evenodd" d="M188.507 36.056C181.786 27.992 157.52 15.4545 116.889 9.62028C96.6792 6.71849 80.4304 25.7199 83.635 28.6181C94.1822 38.1556 112.72 45.3969 126.303 49.9476C143.346 55.658 155.236 56.9822 167.081 54.9344C177.762 53.0874 193.829 49.6462 188.507 36.056Z" fill="#722717"/>
<path d="M70.7188 35.7781C69.9887 37.2378 69.1303 46.7534 69.1762 47.212C73.879 51.6717 103.984 84.0297 138.89 84.0297C172.892 84.0297 200.918 41.4543 202.702 36.4275C190.052 14.0467 159.89 -2.93015 118.751 0.423741C117.16 0.553316 88.9107 5.61363 87.451 17.9386C81.9365 20.0599 75.7624 25.691 70.7188 35.7781Z" fill="#722717"/>
<path d="M73.4983 88.0574C80.0815 87.3039 85.2823 93.1875 88.1689 102.908C91.4113 113.826 87.5624 119.964 84.9576 121.307C80.0095 123.859 70.2805 118.575 66.1805 108.226C62.4873 98.9016 65.7357 88.9448 73.4983 88.0574Z" fill="#D99255"/>
<path d="M76.6504 97.8397C79.9503 96.2592 84.1574 98.7352 86.0473 103.371C87.9379 108.007 86.795 113.048 83.495 114.629C80.1957 116.209 75.9886 113.733 74.098 109.097C72.2081 104.461 73.3511 99.4202 76.6504 97.8397Z" fill="#CC936E"/>
<path d="M195.81 88.0574C189.226 87.3039 184.026 93.1875 181.138 102.908C177.897 113.826 181.746 119.964 184.35 121.307C189.298 123.859 199.027 118.575 203.127 108.226C206.821 98.9016 203.572 88.9448 195.81 88.0574Z" fill="#D99255"/>
<path d="M192.656 97.8397C189.357 96.2592 185.15 98.7352 183.26 103.371C181.37 108.007 182.513 113.048 185.812 114.629C189.112 116.209 193.319 113.733 195.209 109.097C197.099 104.461 195.956 99.4202 192.656 97.8397Z" fill="#CC936E"/>
<path d="M195.489 57.4016C186.97 32.8987 140.844 32.6025 134.648 32.5369C128.792 32.4743 81.6009 32.9133 73.7371 57.4023C72.4857 61.3 84.8354 127.709 90.7686 139.386C93.0421 143.86 100.233 150.647 104.888 153.657C112.58 158.631 118.203 162.829 127.798 165.01C128.378 165.141 140.847 165.141 141.428 165.01C151.023 162.829 156.646 158.631 164.338 153.657C168.994 150.647 176.184 143.86 178.458 139.386C184.391 127.709 196.832 61.2687 195.489 57.4016Z" fill="#D99255"/>
<path d="M135.073 117.645C133.694 117.645 132.357 117.396 131.498 117.016C131.134 116.852 130.964 116.422 131.128 116.056C131.291 115.683 131.717 115.519 132.094 115.686C133.936 116.511 137.796 116.329 138.656 115.075C139.211 114.264 138.635 112.306 137.966 110.038C137.526 108.541 137.028 106.846 136.701 105.018C136.63 104.62 136.893 104.244 137.291 104.173C137.704 104.116 138.066 104.368 138.137 104.763C138.443 106.512 138.933 108.165 139.36 109.625C140.171 112.359 140.803 114.52 139.851 115.9C138.983 117.165 136.992 117.645 135.073 117.645Z" fill="#AF725C"/>
<path d="M111.202 20.3481C83.7396 21.0973 75.2301 33.0728 70.2571 41.1033C67.0132 59.0236 70.9837 84.4045 72.0626 88.0532C74.9818 89.3381 80.0909 105.398 82.1991 108.369C82.2407 107.805 81.908 104.74 81.3074 94.4705C80.0836 73.5654 79.6315 55.0961 83.2533 49.4214C85.4191 46.0274 95.3089 37.6628 114.068 35.4679C122.537 34.4771 114.986 25.5941 111.202 20.3481Z" fill="#722717"/>
<path d="M78.876 41.5931C80.9013 40.7115 107.635 35.5922 114.068 35.4678C98.0798 38.81 87.6171 44.4228 86.3911 49.9418C85.4302 54.269 81.7523 75.6684 81.1037 93.3463C80.8605 88.3887 78.0978 41.9324 78.876 41.5931Z" fill="#722717"/>
<path d="M158.406 20.3481C185.868 21.0973 194.377 33.0728 199.35 41.1033C202.594 59.0236 198.623 84.4045 197.544 88.0532C195.117 89.1219 191.175 100.407 188.704 105.887C188.203 106.996 187.764 107.869 187.408 108.369C187.367 107.805 187.699 104.74 188.3 94.4705C189.524 73.5654 189.976 55.0961 186.354 49.4214C184.188 46.0274 174.298 37.6628 155.54 35.4679C147.07 34.4771 154.622 25.5941 158.406 20.3481Z" fill="#722717"/>
<path d="M190.731 41.5931C188.706 40.7115 161.973 35.5922 155.54 35.4678C171.528 38.81 181.991 44.4228 183.217 49.9418C184.178 54.269 187.855 75.6684 188.504 93.3463C188.747 88.3887 191.51 41.9324 190.731 41.5931Z" fill="#722717"/>
<path d="M113.362 127.838C113.882 123.038 121.67 124.397 133.045 124.317C133.64 124.313 135.954 124.313 136.55 124.317C147.926 124.397 154.721 123.234 155.759 127.954C156.758 132.503 152.101 139.714 145.388 143.879C142.223 145.844 138.6 146.526 134.897 146.538H134.697C130.995 146.526 127.388 145.904 124.228 143.991C117.528 139.934 112.821 132.817 113.362 127.838Z" fill="#611C11"/>
<path d="M134.719 146.834H134.902C138.328 146.819 141.882 146.205 145.188 144.121L145.391 143.998L145.22 143.824C142.475 141.002 138.777 139.446 134.807 139.446C130.844 139.446 127.146 141.002 124.394 143.824L124.228 143.991L124.426 144.121C127.739 146.205 131.298 146.819 134.719 146.834Z" fill="#C46B5C"/>
<path d="M151.571 124.59C150.169 128.826 143.229 130.851 134.796 130.851C126.236 130.851 119.523 129.084 117.943 124.421C121.416 123.931 126.627 124.363 133.045 124.318C133.64 124.313 135.954 124.313 136.55 124.318C143.237 124.365 148.289 123.958 151.571 124.59Z" fill="white"/>
<path fill-rule="evenodd" clip-rule="evenodd" d="M168.54 84.3118C176.165 87.6169 178.235 96.9841 173.552 101.541C170.807 104.214 166.478 104.821 161.99 104.785C155.393 104.731 149.634 101.477 148.851 98.4146C148.466 96.9098 148.193 93.8792 151.247 89.1428C154.725 83.7513 161.838 81.4064 168.54 84.3118Z" fill="#FAFCFF"/>
<path fill-rule="evenodd" clip-rule="evenodd" d="M174.175 86.2763C179.094 91.0847 176.723 99.4632 173.406 101.685C175.678 98.8989 176.1 95.2007 175.275 92.3317C174.409 89.3214 171.72 85.5948 166.149 84.0544C160.465 82.4819 153.945 84.556 150.5 90.2176C155.044 81.5814 167.249 79.503 174.175 86.2763Z" fill="#5E231F"/>
<path fill-rule="evenodd" clip-rule="evenodd" d="M164.401 87.869C168.199 89.5922 169.907 94.0803 168.142 97.9627C166.377 101.845 161.931 103.539 158.12 101.845C154.308 100.151 152.655 95.6207 154.379 91.7514C156.113 87.8559 160.577 86.1335 164.401 87.869Z" fill="#5E231F"/>
<path fill-rule="evenodd" clip-rule="evenodd" d="M166.437 89.987C167.488 90.4958 167.99 91.7516 167.495 92.8101C167.072 93.8679 165.802 94.3629 164.742 93.8678C163.684 93.3743 163.19 92.1039 163.684 91.0455C164.179 89.987 165.443 89.5065 166.437 89.987Z" fill="white"/>
<path fill-rule="evenodd" clip-rule="evenodd" d="M118.092 89.1428C121.146 93.8792 120.873 96.9098 120.488 98.4146C119.705 101.477 113.946 104.731 107.349 104.785C102.861 104.821 98.5319 104.214 95.7859 101.541C91.1034 96.9841 93.1731 87.6169 100.799 84.3118C107.502 81.4064 114.613 83.7513 118.092 89.1428Z" fill="#FAFCFF"/>
<path fill-rule="evenodd" clip-rule="evenodd" d="M118.839 90.2176C115.394 84.556 108.874 82.4819 103.189 84.0544C97.6183 85.5948 94.9298 89.3214 94.0635 92.3317C93.2387 95.2007 93.6602 98.8989 95.933 101.685C92.6163 99.4632 90.2452 91.0847 95.1628 86.2763C102.09 79.503 114.294 81.5814 118.839 90.2176Z" fill="#5E231F"/>
<path fill-rule="evenodd" clip-rule="evenodd" d="M111.189 87.869C114.987 89.5922 116.695 94.0803 114.93 97.9627C113.166 101.845 108.719 103.539 104.908 101.845C101.097 100.151 99.4433 95.6207 101.166 91.7514C102.901 87.8559 107.365 86.1335 111.189 87.869Z" fill="#5E231F"/>
<path fill-rule="evenodd" clip-rule="evenodd" d="M113.225 89.987C114.276 90.4958 114.779 91.7516 114.284 92.8101C113.861 93.8679 112.59 94.3629 111.531 93.8678C110.473 93.3743 109.978 92.1039 110.473 91.0455C110.967 89.987 112.231 89.5065 113.225 89.987Z" fill="white"/>
<path d="M89.7201 69.3459C92.2929 67.1772 95.9941 65.2204 99.179 64.3927C105.486 62.7532 113.181 63.0007 118.07 63.9893C119.652 64.3089 120.678 69.1327 120.404 69.5287C120.083 69.9902 119.403 70.0717 118.287 69.9429C112.512 69.2761 107.025 68.144 99.2577 69.6509C96.4352 70.1984 93.1956 71.1382 91.5635 71.7374C90.933 71.9689 89.1371 72.7042 88.9733 72.5469C88.5736 72.1655 88.7934 70.1271 89.7201 69.3459Z" fill="#431304"/>
<path d="M179.516 69.3459C176.944 67.1772 173.242 65.2204 170.057 64.3927C163.75 62.7532 156.055 63.0007 151.167 63.9893C149.584 64.3089 148.558 69.1327 148.833 69.5287C149.153 69.9902 149.833 70.0717 150.95 69.9429C156.725 69.2761 162.212 68.144 169.979 69.6509C172.801 70.1984 176.041 71.1382 177.673 71.7374C178.303 71.9689 180.099 72.7042 180.263 72.5469C180.663 72.1655 180.443 70.1271 179.516 69.3459Z" fill="#431304"/>
<path fill-rule="evenodd" clip-rule="evenodd" d="M188.507 36.056C181.786 27.992 157.52 15.4545 116.889 9.62028C96.6792 6.71849 80.4304 25.7199 83.635 28.6181C94.1822 38.1556 112.72 45.3969 126.303 49.9476C143.346 55.658 155.236 56.9822 167.081 54.9344C177.762 53.0874 193.829 49.6462 188.507 36.056Z" fill="#722717"/>
<path d="M116.345 217.744L101.607 177.17L106.985 155.703C106.985 155.703 118.146 188.021 135.748 195.925C127.997 200.876 116.345 217.744 116.345 217.744Z" fill="#A1DFFD"/>
<path d="M156.12 216.743L168.999 175.474L164.406 154.258C164.406 154.258 152.972 187.145 135.748 195.925C143.715 200.48 156.12 216.743 156.12 216.743Z" fill="#A1DFFD"/>
</g>
<defs>
<clipPath id="clip0_1976_6159">
<rect width="277.017" height="720" fill="white"/>
</clipPath>
</defs>
</svg>
