<svg width="380" height="560" viewBox="0 0 380 560" fill="none" xmlns="http://www.w3.org/2000/svg">
<g clip-path="url(#clip0_2016_604)">
<path d="M216.224 530.55L193.976 526.148C197.516 490.154 203.763 417.027 209.369 362.352L249.399 370.633C238.919 420.763 223.848 494.022 216.224 530.55Z" fill="#EEBF9E"/>
<path d="M100.295 516.501L122.965 524.971C134.667 491.303 159.324 423.425 176.884 372.156L134.089 356.557C122.989 406.528 108.395 480.096 100.295 516.501Z" fill="#EEBF9E"/>
<path d="M367.113 513.106C367.859 512.434 368.938 512.575 369.533 513.423C370.099 514.276 370.004 515.512 369.255 516.191L357.079 527.26C356.334 527.932 355.254 527.79 354.66 526.944L354.531 526.727C354.092 525.893 354.253 524.797 354.938 524.174L367.113 513.106ZM377.611 537.404C378.571 537.391 379.349 538.274 379.349 539.349C379.357 540.438 378.593 541.33 377.641 541.339L362.085 541.521C361.452 541.526 360.896 541.141 360.593 540.564C360.438 540.271 360.348 539.935 360.346 539.572C360.338 538.483 361.101 537.591 362.052 537.579L377.611 537.404ZM345.829 499.608C346.781 499.551 347.58 500.398 347.637 501.475L348.396 519.228C348.441 520.313 347.71 521.237 346.757 521.29C346.102 521.327 345.512 520.939 345.198 520.339C345.056 520.069 344.969 519.757 344.951 519.423L344.191 501.671C344.146 500.585 344.877 499.662 345.829 499.608Z" fill="#8F8F8F"/>
<path d="M251.13 349.054C247.774 412.431 238.387 455.031 224.238 501.304C213.581 499.142 202.97 496.454 192.318 494.461C198.59 459.325 202.589 430.891 201.347 393.598C201.122 386.815 198 379.498 192.804 377.335C185.104 374.13 176.981 388.537 174.353 394.942C160.579 428.502 146.062 467.889 131.971 500.038C119.107 499.586 111.742 493.822 99.8811 489.671C112.107 444.05 122.243 393.844 133.246 346.955C174.562 353.358 210.069 346.506 251.13 349.054Z" fill="#849FBD"/>
<path d="M253.604 338.204C252.464 354.623 250.861 369.486 248.888 383.431C237.183 375.64 229.55 361.941 229.96 346.557C230.045 343.359 230.502 340.268 231.234 337.296C238.564 337.4 245.971 337.617 253.604 338.204Z" fill="#55779C"/>
<path d="M130.114 365.983C133.308 352.491 136.507 339.066 139.775 325.929C150.014 327.465 159.896 328.219 169.597 328.536C167.422 349.378 150.605 365.48 130.114 365.983Z" fill="#55779C"/>
<path d="M219.399 535.322L191.554 537.631C190.905 533.756 189.921 521.967 189.096 517.404L223.383 514.61C221.873 521.7 220.557 531.5 219.399 535.322Z" fill="white"/>
<path d="M231.44 528.208C230.829 526.174 229.656 523.628 228.728 521.289C228.039 519.554 212.825 520.956 213.023 525.235C213.074 526.33 213.167 527.294 213.295 528.164C210.691 528.384 207.862 528.556 204.871 528.651C198.368 528.857 192.517 528.681 188.395 528.239C188.51 535.019 189.68 546.701 189.863 554.234C189.863 554.234 258.631 563.768 268.706 551.721C271.544 548.325 253.693 535.478 231.44 528.208Z" fill="#DC5E34"/>
<path d="M189.656 549.528C189.747 551.2 189.829 552.799 189.863 554.233C189.863 554.233 258.614 563.85 268.696 551.811C269.097 551.333 269.08 550.663 268.704 549.851C250.214 555.861 206.73 551.551 189.656 549.528Z" fill="#9C2308"/>
<path d="M252.207 537.17C251.83 537.282 251.452 537.396 251.075 537.54C243.193 540.548 238.644 549.287 240.916 557.059C240.995 557.33 241.098 557.584 241.191 557.845C253.975 557.647 265.091 556.117 268.696 551.812C270.559 549.588 263.532 543.295 252.207 537.17Z" fill="#9C2308"/>
<path d="M227.309 535.07C227.131 535.38 226.839 535.551 226.538 535.56C226.351 535.565 226.158 535.507 225.989 535.381C225.55 535.05 225.429 534.375 225.718 533.872C228.135 529.683 232.616 527.262 236.618 527.956C237.138 528.048 237.495 528.605 237.414 529.199C237.334 529.793 236.851 530.189 236.327 530.109C233.036 529.511 229.33 531.568 227.309 535.07ZM232.26 537.374C232.078 537.624 231.817 537.758 231.553 537.767C231.33 537.773 231.103 537.691 230.918 537.516C230.513 537.13 230.459 536.443 230.795 535.981C233.601 532.127 237.61 530.046 241.801 530.303C242.327 530.334 242.731 530.845 242.704 531.446C242.677 532.047 242.226 532.55 241.703 532.477C239.594 532.353 235.571 532.828 232.26 537.374ZM248.334 534.125C248.279 534.722 247.824 535.166 247.285 535.091C244.085 534.647 240.017 536.722 237.422 540.01C237.24 540.242 236.992 540.362 236.74 540.37C236.504 540.377 236.266 540.284 236.076 540.09C235.685 539.687 235.654 538.999 236.007 538.552C238.987 534.778 243.699 532.455 247.489 532.928C248.012 532.991 248.39 533.527 248.334 534.125Z" fill="#D3D8E3"/>
<path d="M99.4581 528.003L127.297 530.411C127.956 526.538 128.972 514.752 129.81 510.192L95.531 507.277C97.0216 514.372 98.3106 524.178 99.4581 528.003Z" fill="white"/>
<path opacity="0.22" d="M127.257 378.108C192.222 392.375 242.77 374.81 250.868 368.456C251.551 360.856 249.769 347.651 238.485 331.386C218.214 329.349 153.35 344.623 134.268 347.462C132.134 359.392 128.558 371.39 127.257 378.108Z" fill="black"/>
<path d="M85.8837 526.669C86.2929 524.571 87.2104 521.892 87.9057 519.449C88.4213 517.637 103.678 517.098 103.897 521.375C103.953 522.47 103.955 523.439 103.912 524.32C106.522 524.209 109.349 524.02 112.331 523.734C118.815 523.112 124.611 522.195 128.665 521.231C129.21 527.984 129.175 539.717 129.726 547.227C129.726 547.227 62.3217 565.465 51.1375 554.772C47.9856 551.758 64.4761 536.723 85.8837 526.669Z" fill="#DC5E34"/>
<path d="M129.471 542.5C129.541 544.173 129.622 545.797 129.726 547.227C129.726 547.227 62.3042 565.382 51.1268 554.68C50.6826 554.255 50.6359 553.587 50.9314 552.732C69.8863 556.388 112.694 546.652 129.471 542.5Z" fill="#9C2308"/>
<path d="M66.1107 538.059C66.4965 538.124 66.8827 538.189 67.2708 538.285C75.3946 540.287 80.7554 548.403 79.2436 556.412C79.1911 556.691 79.113 556.957 79.0451 557.228C66.32 558.634 55.1233 558.507 51.1266 554.68C49.062 552.703 55.4426 545.567 66.1107 538.059Z" fill="#9C2308"/>
<path d="M81.2171 529.049C80.7042 529.194 80.1859 528.861 80.0494 528.281C79.912 527.7 80.2129 527.102 80.7209 526.945C84.6314 525.754 89.3189 527.599 92.1228 531.459C92.4592 531.922 92.4035 532.609 91.9984 532.993C91.8426 533.14 91.657 533.221 91.4698 533.239C91.1702 533.268 90.8639 533.135 90.6573 532.849C88.3119 529.621 84.4302 528.042 81.2171 529.049ZM76.1002 532.077C75.5882 532.215 75.091 531.772 75.0066 531.178C74.9221 530.584 75.2748 530.025 75.7944 529.929C79.9358 529.147 84.1203 530.713 87.2794 534.192C87.658 534.609 87.6698 535.299 87.3046 535.733C87.1376 535.93 86.9196 536.04 86.6973 536.061C86.4337 536.087 86.1625 535.987 85.9572 535.761C82.2299 531.657 78.1851 531.689 76.1002 532.077ZM70.3932 533.251C74.1147 532.306 79.0213 534.023 82.3462 537.401C82.7392 537.801 82.7743 538.489 82.4244 538.938C82.2551 539.155 82.0269 539.277 81.7912 539.3C81.541 539.323 81.2822 539.235 81.0788 539.028C78.1837 536.085 73.9413 534.532 70.8037 535.375C70.2746 535.517 69.7801 535.133 69.6674 534.546C69.5547 533.96 69.8794 533.378 70.3932 533.251Z" fill="#D3D8E3"/>
<path d="M94.8578 493.814C107.405 496.928 131.425 500.097 137.459 500.249L140.47 483.55C137.126 483.828 101.066 477.699 97.6172 477.077L94.8578 493.814Z" fill="#6E91B6"/>
<path d="M230.572 505.638C217.882 505.964 195.847 503.974 189.967 502.811L189.817 485.763C193.015 486.763 229.019 488.591 232.468 488.732L230.572 505.638Z" fill="#6E91B6"/>
<path d="M53.6893 139.344C50.3208 144.819 45.5951 156.737 43.7573 162.719C80.1138 192.753 114.422 214.835 155.82 233.91C157.389 220.964 159.578 207.731 161.712 194.992C123.631 182.01 89.1306 161.958 53.6893 139.344Z" fill="#EEBF9E"/>
<path d="M116.434 171.953C110.901 181.826 105.818 216.243 105.589 224.726C112.076 228.616 133.92 236.134 145.805 239.336C152.293 240.056 161.931 198.234 164.566 185.17C146.414 186.7 138.11 180.707 116.434 171.953Z" fill="#455964"/>
<path d="M23.4467 154.653C22.7629 156.332 20.4012 157.038 16.7494 158.284C13.5863 159.363 8.79988 160.809 7.24716 163.126C5.58949 165.599 7.79309 167.58 11.6372 167.888C17.9855 168.397 32.3572 168.926 39.5054 168.583C51.7167 168.922 62.8614 157.656 62.782 144.045C62.6631 123.633 61.565 115.724 61.1042 103.184C60.9907 100.093 55.742 103.095 54.5289 107.081C51.9325 115.613 53.2875 118.557 51.6582 122.802C50.0694 126.942 46.9955 126.093 43.9212 123.659C31.9238 106.794 26.5445 95.5611 21.0684 97.0919C16.7238 99.2022 23.6733 112.153 32.0707 126.326C18.7498 116.11 7.35658 109.225 5.64799 113.741C3.62639 119.085 13.0967 129.796 24.6729 137.497C12.5683 137.554 1.12097 135.074 0.0268059 141.041C-0.953819 146.389 25.3724 149.919 23.4467 154.653Z" fill="#EEBF9E"/>
<path d="M124.613 341.485C144.487 356.828 213.831 372.064 255.886 357.172C255.886 357.172 252.969 227.789 245.786 191.414C219.446 183.473 165.58 184.584 145.936 186C149.295 259.604 124.613 341.485 124.613 341.485Z" fill="#455964"/>
<path d="M316.828 319.717C318.591 320.947 332.441 303.924 330.918 302.268C311.409 281.062 271.261 235.826 263.972 219.78L245.422 247.038C251.781 259.186 298.231 306.744 316.828 319.717Z" fill="#EEBF9E"/>
<path d="M293.936 235.506C285.773 228.214 267.353 210.378 250.478 192.197C244.869 190.217 226.67 186.026 219.738 186.084C223.356 196.362 244.078 255.365 250.889 263.955C254.313 267.601 259.151 273.092 262.53 276.302C271.842 272.905 292.886 242.697 293.936 235.506Z" fill="#455964"/>
<path d="M174.079 194.69C174.113 191.281 175.45 187.829 177.416 185.035C193.581 182.399 209.359 184.97 224.863 186.879C226.61 189.632 227.38 192.208 227.347 195.46C227.235 206.7 215.221 215.64 200.511 215.428C185.801 215.216 173.968 205.931 174.079 194.69Z" fill="#2E3C41"/>
<path d="M219.738 158.027L218.898 191.974C218.717 199.273 210.029 204.903 199.492 204.546C188.955 204.19 180.559 197.981 180.74 190.682L181.581 156.736L219.738 158.027Z" fill="#CC936E"/>
<path d="M268.749 119.82C267.925 135.845 260.356 147.73 253.843 147.862C247.33 147.994 244.924 135.636 244.656 120.466C244.388 105.296 249.452 92.8527 255.965 92.7578C264.87 92.6319 269.523 104.752 268.749 119.82Z" fill="#E2AE8B"/>
<path d="M260.498 127.921C258.797 134.681 254.741 138.651 251.44 136.784C248.136 134.917 246.838 127.919 248.541 121.157C250.243 114.394 254.297 110.427 257.598 112.294C260.901 114.161 262.198 121.156 260.498 127.921Z" fill="#CC936E"/>
<path d="M253.494 78.0088C254.673 131.341 228.719 167.227 188.819 168.434C148.921 169.641 117.124 135.502 115.944 82.1702C114.764 28.8378 149.632 18.6139 183.65 14.3602C223.336 9.39735 252.314 24.6768 253.494 78.0088Z" fill="#794E3F"/>
<path d="M248.211 49.9774C249.733 51.6014 250.499 53.9671 250.181 59.3441C247.773 100.126 255.477 104.21 256.034 129.376C256.582 154.144 243.575 169.771 226.388 174.749C209.611 179.609 165.424 183.458 141.15 133.859C130.849 112.811 130.28 68.231 132.942 59.5115C141.941 30.0642 155.278 32.5993 187.737 31.6175C218.099 30.6993 230.95 31.5598 248.211 49.9774Z" fill="#EEBF9E"/>
<path d="M152.402 93.509C155.139 109.388 156.311 124.539 142.578 128.265C128.674 132.037 120.432 103.266 119.871 77.9111C119.31 52.5525 140.384 29.518 168.04 30.8941C182.298 31.6036 145.055 50.8953 152.402 93.509Z" fill="#794E3F"/>
<path d="M181.108 139.431C181.029 142.545 177.527 144.951 173.286 144.805C169.046 144.659 165.671 142.016 165.75 138.902C165.828 135.788 169.33 133.382 173.57 133.528C177.811 133.674 181.186 136.318 181.108 139.431Z" fill="#E69595"/>
<path d="M252.404 134.878C252.63 137.724 249.662 140.372 245.775 140.794C241.888 141.216 238.554 139.251 238.328 136.405C238.103 133.56 241.071 130.911 244.958 130.49C248.845 130.068 252.179 132.033 252.404 134.878Z" fill="#E69595"/>
<path d="M170.361 113.519C169.825 120.855 175.916 127.454 183.966 128.258C192.016 129.063 198.977 123.768 199.513 116.432C200.049 109.096 193.958 102.498 185.908 101.693C177.857 100.888 170.897 106.183 170.361 113.519Z" fill="#F9FDFF"/>
<path d="M175.806 125.042C172.354 122.295 170.583 117.605 170.877 113.571C171.387 106.581 177.794 101.178 185.545 101.957C189.324 102.335 193.642 103.671 198.145 109.784C195.204 103.024 188.141 100.029 182.505 100.33C176.919 100.627 170.891 104.139 169.839 110.984C168.928 116.918 171.888 123.141 175.806 125.042Z" fill="#552725"/>
<path d="M177.009 110.875C175.459 115.797 177.614 121.257 181.823 123.07C186.033 124.883 190.702 122.363 192.252 117.441C193.803 112.519 191.647 107.059 187.438 105.246C183.229 103.433 178.56 105.953 177.009 110.875Z" fill="#40221B"/>
<path d="M178.535 109.661C178.105 111.027 178.703 112.541 179.87 113.044C181.038 113.547 182.334 112.848 182.764 111.482C183.194 110.117 182.596 108.602 181.428 108.099C180.26 107.596 178.965 108.295 178.535 109.661Z" fill="#FDFFFD"/>
<path d="M248.437 111.158C249.186 118.455 244.334 125.384 237.599 126.636C230.865 127.888 224.797 122.987 224.048 115.69C223.298 108.394 228.15 101.464 234.885 100.212C241.62 98.9602 247.688 103.861 248.437 111.158Z" fill="#F9FDFF"/>
<path d="M244.329 122.969C247.119 120.033 248.417 115.251 248.005 111.238C247.292 104.284 241.686 99.2453 235.201 100.455C232.039 101.043 228.464 102.617 224.927 108.973C227.124 102.058 232.94 98.6732 237.691 98.6597C242.399 98.6459 247.609 101.817 248.772 108.596C249.78 114.472 247.545 120.852 244.329 122.969Z" fill="#552725"/>
<path d="M228.086 110.289C226.798 115.203 228.631 120.673 232.182 122.506C235.733 124.339 239.656 121.841 240.944 116.927C242.232 112.013 240.398 106.543 236.848 104.71C233.297 102.877 229.374 105.375 228.086 110.289Z" fill="#40221B"/>
<path d="M228.944 109.237C228.587 110.601 229.096 112.118 230.081 112.627C231.065 113.136 232.154 112.443 232.511 111.079C232.869 109.716 232.36 108.198 231.375 107.69C230.39 107.181 229.302 107.874 228.944 109.237Z" fill="#FDFFFD"/>
<path d="M248.632 82.8667C249.093 82.8667 249.55 82.6395 249.871 82.197C250.45 81.3987 250.365 80.2003 249.685 79.5232C244.719 74.5883 235.969 73.4317 228.868 76.7679C228.036 77.1608 227.634 78.2652 227.969 79.239C228.302 80.2125 229.253 80.6798 230.077 80.2916C236.02 77.4969 243.548 78.4036 247.58 82.4142C247.889 82.7182 248.26 82.8667 248.632 82.8667Z" fill="#794E3F"/>
<path d="M171.078 85.2123C171.479 85.2123 171.877 85.0415 172.189 84.6954C176.044 80.4525 183.513 79.081 189.574 81.5151C190.449 81.8636 191.345 81.3249 191.636 80.3363C191.928 79.3453 191.476 78.2655 190.63 77.9268C183.407 75.0186 174.709 76.7089 169.966 81.9327C169.311 82.6519 169.282 83.8529 169.894 84.6163C170.215 85.0119 170.647 85.2123 171.078 85.2123Z" fill="#794E3F"/>
<path d="M191.671 139.981C190.124 148.839 202.029 160.824 212.77 160.037C223.452 159.255 230.601 148.645 230.409 139.649C229.65 134.73 222.677 136.192 212.138 136.05C201.613 135.908 192.611 134.593 191.671 139.981Z" fill="#611C11"/>
<path d="M196.979 136.102C200.626 134.854 206.295 135.756 211.541 135.828C217.46 135.907 221.806 135.087 225.5 136.068C224.07 139.754 219.098 142.096 212.285 142.096C204.419 142.096 198.014 140.076 196.979 136.102Z" fill="white"/>
<path d="M217.827 129.58C217.552 129.588 217.305 129.364 217.25 129.037C216.869 126.719 215.262 125.262 213.156 125.326C211.038 125.39 209.462 126.973 209.233 129.265C209.195 129.632 208.909 129.896 208.597 129.852C208.282 129.81 208.058 129.477 208.095 129.109C208.388 126.174 210.457 124.067 213.126 123.986C215.781 123.906 217.89 125.834 218.376 128.783C218.436 129.147 218.232 129.498 217.922 129.569C217.89 129.576 217.859 129.579 217.827 129.58Z" fill="#B37E75"/>
<path d="M112.361 132.017C117.852 148.774 133.211 157.72 143.811 154.602C154.413 151.486 155.115 137.044 151.616 120.659C148.115 104.275 136.676 93.4762 126.086 96.6349C111.609 100.952 107.199 116.266 112.361 132.017Z" fill="#EEBF9E"/>
<path d="M130.036 136.699C133.131 144.094 140.569 146.576 143.546 144.268C146.891 141.672 146.589 137.177 144.756 129.822C142.612 121.234 138.965 116.697 133.985 119.062C128.808 121.522 126.391 127.999 130.036 136.699Z" fill="#CC936E"/>
<path d="M269.834 22.908C261.469 27.4667 250.827 22.8093 247.644 21.42C253.814 13.3675 251.129 2.2405 243.137 0C251.843 20.8513 173.233 6.15813 154.256 33.1706C154.924 33.1124 153.17 39.2807 158.245 43.7051C163.287 53.6226 178.812 69.2108 209.092 66.869C203.444 64.6763 197.722 60.1848 192.777 56.6382C194.611 57.0446 196.453 57.6764 198.41 57.7279C247.525 59.0299 271.354 44.4546 269.834 22.908Z" fill="#794E3F"/>
<path d="M221.164 92.8539C228.129 89.0639 252.773 88.9278 257.367 92.1821C259.176 96.3207 259.176 115.555 257.767 121.642C256.694 126.279 249.781 130.529 239.784 130.714C229.786 130.9 223.12 126.742 221.563 122.313C219.816 117.339 219.461 94.7738 221.164 92.8539Z" fill="#272828"/>
<path d="M164.085 93.9131C171.773 90.1093 198.956 89.9265 204.019 93.1721C206.008 97.3072 205.981 116.542 204.419 122.631C203.229 127.271 195.598 131.534 184.57 131.739C173.543 131.943 166.195 127.799 164.485 123.373C162.564 118.402 162.205 95.8364 164.085 93.9131Z" fill="#272828"/>
<path opacity="0.22" d="M238.551 89.9209C239.944 89.8799 241.336 89.8617 242.703 89.8792L229.65 129.144C228.31 128.652 227.134 128.056 226.093 127.396L238.551 89.9209ZM257.367 92.1823C257.513 92.515 257.642 92.9759 257.764 93.4894L245.607 130.06C243.806 130.423 241.882 130.675 239.784 130.715C238.049 130.747 236.456 130.608 234.932 130.4L248.319 90.1314C252.527 90.4779 255.929 91.1637 257.367 92.1823Z" fill="white"/>
<path opacity="0.22" d="M201.63 92.2537L188.593 131.471C187.31 131.62 185.969 131.714 184.57 131.74C182.225 131.783 180.086 131.595 178.093 131.284L191.486 90.9951C195.588 91.1759 199.193 91.5994 201.63 92.2537ZM181.648 90.9974C183.038 90.9389 184.431 90.9092 185.818 90.8994L172.829 129.974C171.492 129.494 170.287 128.943 169.24 128.321L181.648 90.9974Z" fill="white"/>
<path d="M162.805 110.486L163.253 103.974C159.987 103.668 156.615 103.435 153.193 103.199C148.034 102.843 142.7 102.475 137.538 101.832L136.949 108.331C142.239 108.988 147.641 109.361 152.863 109.722C156.247 109.955 159.58 110.184 162.805 110.486Z" fill="black"/>
<path d="M225.758 122.007C224.974 122.031 224.268 121.39 224.114 120.459C223.026 113.852 218.445 109.698 212.442 109.88C206.405 110.062 201.911 114.575 201.258 121.109C201.151 122.154 200.336 122.908 199.446 122.783C198.549 122.661 197.909 121.713 198.014 120.664C198.85 112.297 204.749 106.291 212.357 106.061C219.923 105.832 225.937 111.328 227.323 119.735C227.493 120.773 226.913 121.773 226.028 121.974C225.937 121.995 225.848 122.005 225.758 122.007Z" fill="#181818"/>
<path d="M239.137 131.946C239.358 131.946 239.579 131.943 239.8 131.939C249.657 131.758 257.46 127.653 258.781 121.962C260.131 116.115 260.355 96.324 258.301 91.6245L258.164 91.315L257.91 91.1349C252.786 87.5058 227.757 87.9142 220.72 91.7443L220.433 91.9723C218.073 94.633 218.955 118.122 220.595 122.78C222.161 127.24 228.616 131.946 239.137 131.946ZM256.557 93.0618C258.014 97.3209 258.175 115.193 256.756 121.321C255.872 125.144 249.616 129.307 239.767 129.489C230.308 129.666 223.912 125.779 222.532 121.849C220.835 117.021 220.66 96.6206 221.852 93.8353C228.861 90.3214 251.785 90.3213 256.557 93.0618Z" fill="black"/>
<path d="M183.781 132.971C184.049 132.971 184.316 132.968 184.586 132.963C195.398 132.762 203.968 128.66 205.423 122.984C206.926 117.125 207.199 97.2823 204.934 92.5716L204.787 92.2656L204.525 92.0965C198.896 88.493 171.416 88.9554 163.676 92.7855L163.395 92.9911C160.784 95.6633 161.728 119.21 163.531 123.877C165.245 128.307 172.292 132.971 183.781 132.971ZM203.24 94.0855C204.836 98.3224 204.986 116.163 203.414 122.279C202.429 126.12 195.486 130.311 184.553 130.513C173.942 130.673 166.966 126.815 165.441 122.869C163.648 118.232 163.463 97.5887 164.734 94.9263C172.472 91.3625 197.982 91.3258 203.24 94.0855Z" fill="black"/>
<path d="M346.214 327.315C346.74 328.835 342.189 341.145 328.487 340.401C321.351 340.013 311.96 329.537 307.293 310.987C306.866 309.287 309.942 310.286 312.13 310.327C314.318 310.368 343.48 317.048 339.993 317.874C336.556 318.689 330.03 317.171 333.493 323.216C337.634 330.442 344.859 323.396 346.214 327.315Z" fill="#EEBF9E"/>
<path d="M326.612 337.746C327.156 338.058 327.735 338.358 328.342 338.646C333.354 341.028 339.698 340.961 340.358 337.267C341.019 333.572 322.345 326.444 321.685 330.138C321.115 333.326 323.186 335.78 326.612 337.746Z" fill="#CC936E"/>
<path d="M324.85 559.999C326.668 560.004 328.668 558.322 328.677 556.244V278.935C328.686 276.85 327.725 275.151 325.902 275.146C324.084 275.141 322.083 276.823 322.075 278.901V556.21C322.066 558.295 323.027 559.994 324.85 559.999Z" fill="#5D6163"/>
<path d="M325.589 382.825C328.467 382.831 331.021 380.129 331.034 376.793V268.254C331.043 264.908 328.903 262.178 326.016 262.171C323.138 262.165 320.584 264.867 320.571 268.203V376.741C320.562 380.088 322.703 382.818 325.589 382.825Z" fill="#3C3E3F"/>
<path d="M315.223 325.357C321.448 327.534 334.551 320.009 332.386 340.215C336.436 341.216 345.069 338.744 346.024 333.362C346.116 330.661 348.644 331.913 349.444 326.22C349.94 322.695 349.179 320.25 350.074 319.054C353.814 314.059 349.616 311.265 351.02 308.938C353.032 305.606 351.373 302.279 350.185 300.491C346.841 295.459 333.724 289.739 314.58 290.501C306.666 290.816 306.302 298.729 306.302 301.877C306.304 314.857 311.123 323.923 315.223 325.357Z" fill="#EEBF9E"/>
</g>
<defs>
<clipPath id="clip0_2016_604">
<rect width="380" height="560" fill="white"/>
</clipPath>
</defs>
</svg>
