<svg width="1000" height="700" viewBox="0 0 1000 700" fill="none" xmlns="http://www.w3.org/2000/svg">
<g clip-path="url(#clip0_1276_8565)">
<path d="M777.58 378.638C777.58 378.638 823.266 443.677 858.249 472.061C858.249 472.061 860.859 497.764 864.775 507.151C868.691 516.538 859.554 555.874 857.727 561.908C855.899 567.943 835.014 624.041 832.665 626.5C827.443 632.311 810.474 636.11 796.116 653.096L795.855 659.354C795.855 659.354 813.085 693.326 846.501 667.4C846.501 667.4 840.758 650.861 854.333 646.391C867.908 641.921 867.908 643.262 874.696 624.935C881.222 606.608 888.532 571.742 895.059 551.627C895.059 551.627 901.585 534.641 902.891 524.584C904.196 514.526 921.687 467.368 921.687 467.368L834.753 381.096L781.496 360.981L777.58 378.638Z" fill="#89522C"/>
<path d="M826.4 348.242L777.581 378.415C791.678 397.859 814.652 433.619 858.249 471.838C858.249 471.838 889.316 484.577 890.882 509.609C891.404 518.326 884.095 554.756 878.612 576.659C872.347 603.032 869.214 634.099 862.426 637.899C858.51 640.134 845.718 639.687 841.28 646.392C838.409 650.862 831.36 667.624 831.36 667.624C831.36 667.624 842.586 670.083 848.59 666.507C848.59 666.507 845.718 650.415 854.856 647.509C868.431 643.263 870.519 651.755 876.785 634.322C880.701 623.147 888.533 575.542 899.497 537.323C906.546 512.291 918.816 489.718 918.816 489.718L826.4 348.242Z" fill="#774625"/>
<path d="M410.791 507.82C410.791 507.82 416.795 524.359 416.795 528.382C416.795 532.405 420.711 550.508 424.627 556.543C428.543 562.577 443.423 606.383 443.946 611.524C444.468 616.664 450.472 633.874 425.932 651.307C420.45 655.106 416.012 659.8 416.012 659.8C413.14 665.611 411.052 673.21 411.835 677.456C412.618 681.479 440.291 696.677 463.264 681.703C463.264 681.703 466.658 677.233 464.308 667.846C462.22 658.459 474.49 652.424 475.273 652.424C476.056 652.424 491.198 650.189 488.065 637.45C484.671 624.71 458.565 542.015 457.521 522.571C456.738 503.126 451.777 479.212 449.689 469.378C447.6 459.544 436.897 420.655 436.897 414.62C436.897 408.586 440.291 375.955 440.291 375.955L395.127 384.224L410.791 507.82Z" fill="#89522C"/>
<path d="M443.684 445.911C440.029 430.936 438.463 419.985 438.463 415.962C438.463 409.927 443.684 374.614 443.684 374.614L395.387 384.448L411.051 508.044C411.051 508.044 417.056 524.583 417.056 528.606C416.795 528.382 441.073 473.401 443.684 445.911Z" fill="#774625"/>
<path d="M491.457 642.59C488.064 629.85 458.302 541.791 457.519 522.347C456.736 502.902 451.776 478.988 449.687 469.154C447.599 459.32 436.895 420.431 436.895 414.396C436.895 410.149 438.723 392.046 439.767 382.212C420.97 404.785 430.108 433.393 436.373 458.202C440.289 474.294 442.639 490.61 444.988 507.149C447.077 522.347 457.78 563.918 462.479 578.669C467.44 594.09 477.621 628.286 477.882 636.555C478.143 641.919 466.917 645.719 464.307 648.177C459.347 652.871 458.563 659.799 457.258 669.857C457.258 669.857 469.006 674.103 469.267 674.55C469.528 672.315 469.267 670.08 468.745 667.622C466.656 658.235 476.577 655.553 477.099 655.553C477.882 655.776 494.59 655.329 491.457 642.59Z" fill="#774625"/>
<path d="M723.804 363.887C723.804 363.887 777.708 377.939 779.274 382.186C780.841 386.432 778.888 372.827 801.34 374.839C801.34 374.839 794.291 348.242 775.756 348.466C757.22 348.689 723.804 363.887 723.804 363.887Z" fill="#874C25"/>
<path d="M413.137 401.435C413.137 401.435 422.013 388.025 453.34 387.578C484.668 387.131 633.735 389.366 710.487 367.463C786.978 345.337 808.908 373.721 808.908 373.721L814.912 362.099L743.12 311.812L374.499 351.595L413.137 401.435Z" fill="#A86D42"/>
<path d="M991.914 595.434C989.565 587.388 987.998 568.614 988.259 561.462C988.781 547.605 989.565 495.306 990.348 485.471C991.131 475.638 985.649 474.073 985.649 474.073C946.228 458.875 902.892 405.905 920.644 354.724C938.396 303.542 942.834 228.893 920.644 201.403C898.454 173.912 855.117 163.855 798.728 155.362C742.338 146.869 599.276 168.325 552.807 166.537C506.338 164.749 466.134 146.422 447.076 140.611C428.019 135.023 370.846 99.4867 314.195 65.0677C257.806 30.6486 157.558 26.402 157.558 26.402C82.6329 6.28701 73.4957 65.0676 69.3187 75.7957C64.8807 86.7472 45.823 109.768 39.5575 113.567C33.5531 117.367 14.2345 143.069 9.27429 145.081C4.5752 146.869 1.96454 151.786 1.96454 151.786C1.44238 161.843 16.584 179.276 16.584 179.276C16.584 179.276 15.2787 184.64 25.7213 188.216C36.1638 191.792 42.6903 188.887 42.6903 188.887C42.6903 188.887 56.7877 191.122 68.0134 188.216C79.2391 185.311 83.155 168.548 83.155 168.548C98.0356 166.76 113.438 152.233 113.438 152.233C151.815 156.256 176.354 137.705 176.354 137.705C184.186 140.164 204.288 157.15 216.819 171.901C229.35 186.875 257.806 212.801 283.39 238.504C308.713 264.43 309.757 277.393 309.757 277.393C294.877 307.342 299.315 327.68 303.753 347.795C308.191 367.91 320.461 374.392 320.461 374.392C327.771 391.601 337.691 410.599 353.616 453.511C369.802 496.423 360.143 499.329 361.448 509.386C362.753 519.444 366.93 517.432 372.151 535.759C377.373 554.086 371.107 614.655 370.846 630.076C370.585 645.498 349.7 656.002 345.784 657.12C345.784 657.12 375.023 666.283 373.718 660.696C372.412 655.108 385.727 654.214 385.727 654.214C412.616 657.12 413.399 644.604 414.705 638.569C416.01 632.311 409.483 565.038 409.483 563.25C409.483 561.909 407.917 541.57 408.7 528.831C407.395 519.667 405.045 510.727 402.957 501.787C400.085 489.494 399.302 476.755 398.78 464.462C397.997 441.218 394.603 414.622 402.696 391.825C407.917 377.297 416.793 362.323 435.851 358.747C446.293 356.735 456.997 356.959 467.439 356.288C482.32 355.394 496.939 353.83 511.559 352.265C541.32 349.136 570.559 348.913 600.32 347.572C630.081 346.231 659.059 341.984 688.298 338.855C712.838 336.173 737.639 336.62 760.091 346.901C769.75 351.371 781.759 355.841 789.33 362.77C794.551 367.463 812.303 376.403 815.697 381.991C856.684 418.198 937.352 491.953 949.1 503.352C963.98 517.656 959.803 623.595 959.803 623.595C959.803 623.595 963.197 650.862 950.927 654.885C938.918 658.908 926.772 665.389 926.772 665.389L928.476 681.928C966.33 699.138 977.556 679.023 977.556 679.023C977.556 679.023 977.295 672.318 977.817 665.389C978.6 658.684 984.73 655.751 990.735 657.092C995.434 658.656 994.264 603.48 991.914 595.434Z" fill="#BC7D53"/>
<path d="M791.681 288.345C789.331 277.617 787.504 266.442 788.287 255.714C788.809 251.021 795.336 202.745 779.411 189.558C772.623 183.971 753.827 174.584 744.69 184.194C730.07 199.839 731.114 227.777 733.725 239.846C738.424 259.737 745.734 305.108 813.349 325.893C801.34 316.953 794.553 301.308 791.681 288.345Z" fill="#CE8D6A"/>
<path d="M994.021 561.528C993.231 554.394 999.081 493.687 999.872 483.878C996.129 474.36 991.386 474.36 991.386 474.36C951.602 459.2 907.865 406.363 925.781 355.311C943.697 304.258 948.176 229.797 925.781 202.375C903.386 174.954 859.649 164.922 802.739 156.45C802.739 156.45 808.008 158.011 811.433 159.125C844.631 170.272 860.703 182.757 879.673 202.598C914.188 238.268 921.565 297.793 875.457 329.004C855.17 342.826 836.727 344.164 810.643 341.489C785.613 338.813 755.577 321.647 741.086 302.252C726.068 281.964 718.163 273.938 712.894 250.53C704.199 213.076 720.798 178.298 718.163 180.973C699.457 201.261 693.133 229.128 693.924 254.32C694.451 272.155 696.295 290.882 688.918 308.048C680.75 327.221 659.936 335.469 637.277 340.151C618.043 343.941 546.115 351.298 478.402 343.941C464.174 342.38 446.521 338.367 432.294 342.157C426.497 343.718 418.33 351.744 417.539 353.081C407 369.356 390.928 391.427 367.743 395.885C346.928 399.675 331.91 391.65 321.634 379.165C321.371 379.165 321.371 378.942 321.107 378.942C324.005 385.63 327.431 392.764 331.383 401.682C356.413 421.969 371.695 457.193 371.958 485.506C371.958 492.863 371.431 498.883 373.802 506.017C375.647 510.921 377.755 516.049 377.755 521.177C377.755 527.419 375.383 532.1 371.431 535.444C371.695 535.89 371.695 536.336 371.958 536.782C377.228 555.063 372.222 605.224 371.168 620.607C369.85 640.002 341.395 650.48 331.119 662.519C331.119 662.519 383.815 685.036 386.186 681.246C388.557 677.456 385.132 665.863 383.815 660.29C382.497 654.716 385.395 654.939 385.395 654.939C412.533 657.837 413.324 645.353 414.641 639.334C415.958 633.091 409.372 565.987 409.372 564.203C409.372 562.866 407.527 539.457 408.845 526.973C403.048 502.227 401.994 476.589 404.102 451.397C405.419 432.893 407.791 419.517 413.851 402.351C416.222 391.65 422.545 374.26 433.875 366.012C449.683 354.196 728.439 345.279 741.876 343.495C755.05 341.712 772.439 358.655 784.295 363.114C795.361 367.349 896.535 467.448 945.805 507.354C958.979 518.055 964.373 614.587 962.265 639.334C961.211 652.264 932.895 665.194 932.895 665.194L981.596 680.558C981.596 680.558 981.638 672.105 982.428 665.194C983.219 658.506 988.337 662.224 993.343 659.326C998.565 652.621 999.872 639.334 999.872 639.334C1000.84 633.623 996.129 584.268 994.021 561.528Z" fill="#A86D42"/>
<path d="M364.582 506.479C365.104 499.998 365.626 493.516 365.365 487.035C364.843 480.777 364.321 474.295 363.538 468.037C359.361 454.18 353.356 440.77 347.091 427.583C342.653 417.973 338.215 408.139 334.821 398.305C332.21 390.259 332.732 380.872 326.467 374.167C299.578 345.559 303.755 308.681 316.024 275.603C316.286 274.709 318.113 259.958 318.635 259.288C301.405 262.417 296.967 250.124 286.002 238.726C273.471 225.986 263.029 212.129 252.064 198.496C241.883 185.756 228.046 175.252 216.56 163.63C205.856 152.902 197.241 140.609 181.316 136.363C180.533 136.139 179.489 135.692 178.705 135.469C177.922 136.586 177.139 137.48 176.356 138.374C184.188 140.833 204.29 157.819 216.56 172.57C229.091 187.544 257.546 213.47 283.131 239.173C308.454 265.099 309.498 278.062 309.498 278.062C294.617 308.011 299.055 328.349 303.493 348.464C307.931 368.579 320.201 375.061 320.201 375.061C327.511 392.27 337.432 411.268 353.356 454.18C369.542 497.092 359.883 499.998 361.188 510.055C362.233 517.207 364.582 518.325 367.715 525.03C365.887 518.772 364.06 512.514 364.582 506.479Z" fill="#CE8D6A"/>
<path d="M144.765 36.4584C144.765 36.4584 106.127 6.95644 113.176 0.0279375C113.176 0.0279375 114.742 -0.419063 117.875 2.26294C120.486 4.27444 153.902 26.401 158.079 26.6245C158.079 26.6245 159.123 33.7764 144.765 36.4584Z" fill="#BC7D53"/>
<path d="M119.446 13.8838C119.446 13.8838 127.539 28.8583 131.455 32.4343C131.455 32.4343 140.07 36.6808 144.769 36.4573C149.468 36.2338 126.233 21.2593 119.446 13.8838Z" fill="#996039"/>
<path d="M116.047 23.4954C116.047 23.4954 86.2862 14.7789 78.1933 9.19143C78.1933 9.19143 75.8437 7.62693 75.5826 9.19143C75.3216 10.7559 80.0207 24.6128 96.9897 30.8708L116.047 23.4954Z" fill="#995D30"/>
<path d="M77.1487 13.4375C77.1487 13.4375 83.9363 29.5295 92.8124 33.9995L104.038 32.2116C86.808 25.0596 77.1487 13.4375 77.1487 13.4375Z" fill="#93562C"/>
<path d="M956.406 471.836C956.406 471.836 970.243 480.105 975.464 482.787C979.38 484.799 972.331 493.739 972.07 509.831C972.07 509.831 969.198 501.338 968.676 491.951C967.893 482.564 958.756 477.647 956.406 471.836Z" fill="#8E542D"/>
<path d="M922.472 204.083C919.6 200.06 915.945 196.037 911.507 192.237C907.069 191.567 902.892 190.896 898.454 190.449C902.37 197.154 909.157 203.412 913.073 209.67C919.078 219.057 923.777 229.115 925.343 239.843C927.432 255.488 925.343 270.686 921.427 285.884C921.427 286.107 921.427 286.331 921.427 286.554C919.861 298.176 916.467 308.457 913.073 318.291C913.334 332.372 914.901 346.676 920.122 359.415C921.949 351.593 924.56 340.865 928.737 327.231C936.83 297.729 941.007 230.679 922.472 204.083Z" fill="#A86D42"/>
<path d="M922.733 419.538C913.857 412.833 906.547 405.01 900.803 396.294C904.98 412.162 914.379 430.043 931.609 451.946C927.171 441.441 924.299 430.713 922.733 419.538Z" fill="#A86D42"/>
<path d="M982.938 548.694C982.938 528.093 986.633 497.587 986.897 491.317C987.161 484.823 986.897 476.09 982.938 474.075C980.298 472.507 968.948 466.014 957.598 458.176L955.487 459.744C964.725 469.82 976.867 472.731 977.659 486.167C978.186 494.452 975.283 564.092 976.339 581.782C978.186 616.042 991.384 648.063 978.978 651.198C968.42 653.885 962.349 661.722 959.446 677.621C959.446 677.621 964.461 690.16 958.126 695.086L976.339 680.532C976.339 680.532 974.491 661.722 980.298 660.378C984.785 659.483 992.704 660.155 994.551 651.422C995.871 646.271 982.938 599.076 982.938 548.694Z" fill="#995D30"/>
<path d="M99.08 105.745C99.08 105.745 112.133 110.215 126.23 99.4873C126.23 99.7108 116.832 118.261 99.08 105.745Z" fill="#995D30"/>
<path d="M552.285 166.533C505.816 164.745 465.612 146.418 446.555 140.607C427.497 135.02 370.324 99.4834 313.674 65.0644C257.284 30.6453 157.036 26.3987 157.036 26.3987C153.12 25.2812 161.213 36.0093 157.036 46.7373C153.12 57.0183 145.027 61.9353 135.629 64.8408C127.797 68.4168 110.306 72.2164 102.213 76.2394C99.0801 77.8039 91.5093 80.4858 84.9828 95.0133C84.4606 95.9073 78.4561 112.893 78.7172 113.34C80.5446 112.67 91.2483 101.942 109.784 101.048C120.748 100.154 125.708 95.9074 128.58 87.4144C129.624 85.4029 129.102 80.2624 131.713 78.4744C136.412 75.1219 144.766 78.4743 148.682 79.8153C153.12 81.3798 160.952 83.8383 163.824 90.0963C172.961 109.317 145.81 121.386 125.708 123.621C122.054 128.985 104.824 139.043 82.3721 135.914C82.3721 137.031 76.8898 149.1 59.9207 158.264C59.9207 158.264 52.0889 182.849 34.8587 184.86C34.8587 184.86 31.4648 189.107 27.81 189.33C36.6861 191.789 42.4295 189.107 42.4295 189.107C42.4295 189.107 56.5269 191.342 67.7526 188.436C78.9783 185.531 82.8942 168.768 82.8942 168.768C97.7748 166.98 113.177 152.453 113.177 152.453C151.554 156.476 176.094 137.925 176.094 137.925C183.926 140.384 204.027 157.37 216.558 172.121C229.089 187.095 257.545 213.021 283.129 238.724C308.452 264.65 309.497 277.613 309.497 277.613C308.975 278.731 317.59 249.005 317.59 246.77C317.329 246.323 307.93 221.738 283.913 198.941C262.766 179.049 208.726 128.538 206.116 116.916C204.549 110.658 206.377 101.495 215.514 102.389C218.125 102.612 220.735 103.283 223.085 103.953C227.262 100.824 233.005 99.7068 237.965 102.836C240.054 104.177 241.881 105.518 243.97 106.859C244.753 107.082 245.275 107.529 245.797 107.753C248.147 107.976 250.496 109.094 252.324 110.658C253.629 111.776 254.935 112.67 256.24 113.787C260.939 116.693 265.377 119.822 270.076 122.504C274.253 124.962 276.081 128.315 276.081 131.667C277.125 132.338 277.908 133.232 278.952 133.902C279.736 134.349 280.519 134.796 281.302 135.467C281.563 135.69 281.824 135.914 282.085 135.914C287.828 139.49 293.05 143.289 297.749 147.759C298.01 147.983 298.271 148.206 298.532 148.43C298.793 148.653 299.315 148.877 299.576 149.1C300.359 149.547 301.143 149.994 301.665 150.441C306.886 154.241 311.324 158.487 315.501 163.181C324.899 169.439 333.776 176.591 342.13 183.743C351.789 192.236 364.32 201.176 366.93 213.468C369.541 224.643 361.448 234.03 359.36 244.758C358.576 249.228 358.054 253.698 357.793 258.168C357.793 259.286 357.793 260.18 357.532 261.298C358.054 261.074 358.576 260.627 359.099 260.403C370.063 240.288 386.771 223.526 411.311 213.915C441.333 202.07 477.099 202.964 509.21 202.964C544.975 202.74 582.046 204.081 617.29 196.929C649.661 190.224 675.246 177.485 695.608 156.476C638.958 160.946 579.435 167.651 552.285 166.533Z" fill="#A86D42"/>
<path d="M309.232 277.841C309.232 277.841 325.94 249.456 322.807 236.94C322.807 236.94 315.758 258.396 303.488 249.009C291.218 239.622 205.068 142.623 181.572 133.013C181.572 133.013 176.612 137.706 176.09 138.153C176.09 138.153 194.886 147.093 215.249 171.008C235.612 194.922 249.709 205.65 249.709 205.65L281.298 237.387C281.037 237.164 304.011 258.843 309.232 277.841Z" fill="#8E542D"/>
<path d="M42.6897 189.109C42.6897 189.109 61.7473 179.499 61.4863 158.937C61.4863 158.937 67.2297 159.383 75.8447 157.148C75.8447 157.148 72.1898 161.172 66.9685 161.842C66.7075 161.842 65.6633 183.298 42.6897 189.109Z" fill="#7C4825"/>
<path d="M43.4712 189.333C43.4712 189.333 72.4493 187.992 75.8431 164.748C75.8431 164.748 94.3785 162.736 100.383 150.22C100.383 150.22 91.5068 149.55 88.113 139.716C88.113 139.716 101.949 150.443 114.48 145.973C127.011 141.727 125.184 141.28 125.184 141.28C125.184 141.28 189.144 146.644 181.051 90.769C181.051 90.769 198.542 108.202 181.834 133.011C181.834 133.011 158.861 156.701 113.436 152.678C113.436 152.678 102.471 164.524 83.1528 169.665C83.1528 169.665 80.0201 184.192 70.0997 187.992C59.9182 191.791 43.4712 189.333 43.4712 189.333Z" fill="#8E542D"/>
<path d="M15.5403 179.051C15.5403 179.051 15.5403 186.65 28.8545 189.555C41.6465 192.237 31.7261 180.392 33.5536 177.71C35.6421 175.028 44.2571 170.558 42.4297 159.83C40.6022 148.878 29.6376 141.726 37.7306 132.563C45.8235 123.399 71.9298 114.683 81.328 96.1323C90.7263 77.5818 85.2439 68.4183 85.2439 68.4183C85.2439 68.4183 78.4563 58.1372 69.5802 73.7823C69.5802 73.7823 66.7085 83.3928 56.5271 95.4618C46.3456 107.531 39.819 114.459 34.3367 118.259C28.8544 122.282 18.934 135.915 18.934 135.915C18.934 135.915 9.79686 145.079 6.14198 147.09C2.74817 149.102 -1.68991 152.007 0.659653 158.489C3.7924 166.088 15.5403 179.051 15.5403 179.051Z" fill="#DDC0B1"/>
<path d="M0.39695 156.699C2.48545 166.757 15.5386 179.049 15.5386 179.049C15.5386 179.049 15.5386 186.648 28.8528 189.554C33.813 190.671 36.6847 190.001 35.1183 185.084C35.1183 185.084 21.282 186.872 17.8882 177.038C17.105 174.803 11.8837 172.791 6.92352 166.757C1.70226 160.275 0.39695 156.699 0.39695 156.699Z" fill="#C1A193"/>
<path d="M81.3262 60.1488C79.4987 59.4783 77.1492 59.4783 74.5386 59.9253C71.6669 67.0773 70.1005 73.1119 69.0563 75.7939C64.6182 86.7454 45.2996 108.648 39.2952 112.671C27.2863 121.164 13.1888 142.62 8.48971 144.632C3.52952 146.867 1.96314 148.878 0.657829 150.89C0.396767 151.337 0.13575 152.007 0.13575 152.678C0.13575 152.678 0.396797 154.242 3.79061 153.795C7.44549 153.348 8.48972 151.784 11.3614 148.431C18.6712 139.491 29.3748 132.563 37.7288 124.07C56.0031 105.296 70.8837 87.1923 79.7599 63.7248C80.0209 62.8308 80.543 61.9369 81.0652 61.2664C81.0652 61.0428 81.0652 60.5958 81.0652 60.3723C80.8041 61.4898 79.7598 59.7018 81.3262 60.1488Z" fill="#EFDFD5"/>
<path d="M19.7185 150.444C23.3734 144.633 27.8114 144.409 27.8114 144.409C27.8114 144.409 36.4265 149.103 34.5991 157.596C32.7716 166.089 29.1167 166.312 26.5061 166.312C24.4176 166.536 16.0637 156.255 19.7185 150.444Z" fill="#683D1F"/>
<path d="M31.7224 147.539C33.8109 152.456 31.7225 159.832 28.8508 162.514C27.0234 164.078 24.4127 163.855 22.0632 162.29C23.8906 164.749 25.718 166.537 26.7623 166.313C29.3729 166.313 33.0278 166.09 34.8552 157.597C35.6384 153.127 33.5499 149.774 31.7224 147.539Z" fill="#845434"/>
<path d="M416.009 660.024C416.009 660.024 435.066 658.683 469.266 674.328C469.266 674.328 468.221 683.715 465.611 687.067C465.611 687.067 435.589 700.701 402.173 686.62C402.173 686.62 400.345 679.692 410.004 665.388C411.571 663.153 416.009 660.024 416.009 660.024Z" fill="#353535"/>
<path d="M796.642 652.872C796.642 652.872 814.917 651.084 849.116 666.729C849.116 666.729 848.594 676.563 846.244 679.916C846.244 679.916 816.222 693.549 782.806 679.469C782.806 679.469 781.762 671.199 790.638 658.236C792.465 656.225 796.642 652.872 796.642 652.872Z" fill="#353535"/>
<path d="M331.167 662.259C331.167 662.259 351.269 661.365 387.817 677.904C387.817 677.904 387.817 685.503 384.424 691.091C384.424 691.091 352.052 705.395 316.547 690.644C316.547 690.644 314.72 683.268 324.901 668.294C326.729 665.835 331.167 662.259 331.167 662.259Z" fill="#4F4F4F"/>
<path d="M927.167 664.94C927.167 664.94 946.746 664.046 981.99 680.585C981.99 680.585 981.99 688.184 978.857 693.772C978.857 693.772 947.529 708.076 913.33 693.325C913.33 693.325 911.503 685.949 921.423 670.975C922.729 668.516 927.167 664.94 927.167 664.94Z" fill="#4F4F4F"/>
<path d="M101.953 77.1348C101.953 77.1348 115.528 74.2293 123.882 81.1578C123.882 81.1578 112.135 76.9113 101.953 77.1348Z" fill="#995D30"/>
<path d="M97.7757 81.1572C97.7757 81.1572 115.006 87.6387 124.143 90.0972C124.143 90.0972 111.873 103.06 96.7315 98.8138C96.7315 98.8138 93.0766 101.719 88.8996 99.9313C84.7226 98.3668 90.9881 93.0028 90.9881 93.0028C90.9881 93.0028 90.2049 82.9452 97.7757 81.1572Z" fill="#8E542D"/>
<path d="M97.7745 81.1572C97.7745 81.1572 92.0311 82.7218 91.509 88.5328C90.9869 94.3438 94.1196 99.0373 100.385 99.4843C106.651 99.9313 116.571 99.0373 118.398 88.3093L97.7745 81.1572Z" fill="black"/>
<path d="M103.521 87.6405C103.521 89.205 101.954 90.3226 99.8656 90.3226C97.7771 90.3226 96.2108 89.205 96.2108 87.6405C96.2108 86.076 97.7771 84.9585 99.8656 84.9585C101.954 84.9585 103.521 86.2995 103.521 87.6405Z" fill="white"/>
<path d="M124.404 22.6024C124.404 22.6024 97.2533 19.2498 79.24 36.4593C61.2266 53.6688 68.0143 78.0305 68.0143 78.0305L71.9302 66.8554C71.9302 66.8554 73.2355 80.2654 80.8063 84.9589C80.8063 84.9589 77.9347 75.1249 81.0674 69.3139C81.0674 69.3139 84.4612 77.36 88.8993 79.595C88.8993 79.595 89.4214 62.6089 94.9037 55.2334C94.9037 55.2334 98.2975 65.9614 102.997 70.4314C102.997 70.4314 101.169 57.4684 103.78 52.1043C103.78 52.1043 104.824 65.2909 112.134 70.8784C112.134 70.8784 108.479 50.54 115.267 38.2474C115.267 38.2474 118.138 52.1044 131.191 58.5859C131.191 58.5859 120.749 46.2935 128.581 29.3074L124.404 22.6024Z" fill="#2D1C06"/>
<path d="M158.083 26.6249C158.083 26.6249 192.805 51.2098 193.588 100.603C193.588 100.603 198.548 90.3223 197.765 74.4538C197.765 74.4538 217.867 127.87 217.083 149.997C217.083 149.997 222.827 119.601 222.044 99.4859C222.044 99.4859 225.698 147.091 254.676 171.453C254.676 171.453 236.663 146.421 244.756 115.131C244.756 115.131 248.672 149.997 266.685 166.312C279.999 178.158 285.482 194.473 285.482 194.473C285.482 194.473 282.871 177.041 275.561 165.642C268.252 154.02 269.557 124.294 269.557 124.294C269.557 124.294 273.734 162.736 285.221 174.358C296.707 185.98 304.278 190.674 306.889 205.425C306.889 205.425 309.761 193.356 301.668 171.9C301.668 171.9 316.287 188.439 317.07 200.731C317.593 208.777 319.159 223.975 325.163 228.669C325.163 228.669 320.986 221.964 324.641 205.201C326.208 197.826 323.075 183.298 323.075 183.298C323.075 183.298 334.562 203.19 334.301 218.388C334.301 218.388 340.044 205.202 333.256 186.875C333.256 186.875 342.393 197.155 342.393 205.201C342.393 211.459 341.349 224.199 349.442 229.34C349.442 229.34 342.916 220.623 349.442 210.566C353.619 204.084 346.048 186.204 340.305 172.123C340.305 172.123 356.491 190.003 358.318 198.273C360.407 206.319 359.885 220.623 372.155 225.764C372.155 225.764 360.668 214.812 369.805 194.921C369.805 194.921 391.473 210.342 391.473 221.517C391.473 221.517 394.345 209.895 386.513 192.462C386.513 192.462 400.61 208.33 415.23 212.353C415.23 212.353 398.522 199.167 399.827 183.522C399.827 183.522 426.978 201.179 430.372 217.047C430.372 217.047 431.677 197.602 423.062 188.439C423.062 188.439 440.814 190.897 447.08 206.319C447.08 206.319 448.646 187.545 434.288 179.946C434.288 179.946 457.783 186.874 463.527 200.731C463.527 200.731 456.217 173.688 441.597 165.418C441.597 165.418 465.876 169.889 472.403 180.84C472.403 180.84 463.788 162.289 446.035 153.796C446.035 153.796 469.27 159.16 479.451 172.794C479.451 172.794 471.62 156.926 468.226 153.35C468.226 153.35 486.5 158.043 507.124 159.831C507.124 159.831 499.031 157.819 487.544 153.573C474.752 148.879 439.248 132.787 418.624 117.813C398 102.838 331.951 66.4079 316.287 58.5854C287.048 44.0579 202.725 16.5674 158.083 26.6249Z" fill="#2D1C06"/>
<path d="M885.005 177.91C885.005 177.91 909.749 172.11 942.462 184.603C959.238 191.073 987.547 218.291 992.58 267.373C997.403 316.232 1007.26 348.805 990.483 386.955C973.707 425.106 954.205 458.124 956.931 483.112C956.931 483.112 949.801 469.056 952.737 459.017C952.737 459.017 918.976 500.96 927.573 543.572C927.573 543.572 916.879 524.385 916.879 513.676C916.879 513.676 913.943 538.218 920.653 554.281C920.653 554.281 878.714 488.466 895.28 431.129C911.846 374.016 959.447 355.721 951.689 280.09C944.14 204.682 913.524 204.013 913.524 204.013C913.524 204.013 894.232 205.798 885.005 177.91Z" fill="#2D1C06"/>
<path d="M408.703 563.697C408.703 561.909 406.093 529.948 409.486 521.008C412.88 512.068 412.88 419.986 412.88 408.141C412.88 405.235 413.402 401.436 413.402 401.436C407.659 417.528 404.265 432.726 402.96 449.488C400.349 484.578 400.349 519.891 400.871 554.98C401.133 571.743 402.699 589.399 402.438 606.162C402.438 620.466 404.526 636.558 399.827 641.475C395.911 645.498 389.907 646.615 383.902 647.062C378.942 647.286 375.809 649.968 375.026 653.991C374.243 658.908 373.199 666.507 374.504 672.318C374.504 672.318 386.252 677.235 387.557 677.905C387.296 672.765 384.163 664.495 383.119 660.025C381.814 654.438 384.686 654.661 384.686 654.661C411.575 657.567 412.358 645.051 413.664 639.016C415.23 632.758 408.703 565.485 408.703 563.697Z" fill="#8E542D"/>
<path d="M379.985 241.855C379.985 241.855 334.821 284.544 344.48 332.82C354.14 381.096 378.157 317.845 379.985 305.553C381.812 293.26 399.564 248.337 407.657 244.984C415.489 241.632 427.237 209.224 379.985 241.855Z" fill="#CE8D6A"/>
</g>
<defs>
<clipPath id="clip0_1276_8565">
<rect width="1000" height="700" fill="white"/>
</clipPath>
</defs>
</svg>
