<svg width="1000" height="700" viewBox="0 0 1000 700" fill="none" xmlns="http://www.w3.org/2000/svg">
<path d="M541.974 245.257C539.381 255.682 537.529 266.107 536.788 276.532C535.306 297.022 535.676 317.513 539.011 337.644C543.086 359.572 550.865 380.781 564.943 398.755C580.131 418.527 600.877 431.827 623.475 442.971C650.148 456.272 678.673 466.338 707.199 475.325C708.68 475.684 710.533 476.403 712.014 476.763C734.612 440.815 740.54 400.193 732.39 380.062C722.017 354.18 737.947 344.474 746.097 330.095C755.729 312.84 754.617 289.114 754.617 289.114C768.695 274.375 767.213 259.996 759.063 260.715C770.176 239.506 629.773 176.597 629.773 176.597C627.92 183.427 600.507 204.996 581.243 215.42C575.315 218.656 562.72 220.453 547.531 220.813C546.049 229.081 544.197 236.989 541.974 245.257Z" fill="#A34600"/>
<path d="M758.693 260.715C763.139 252.447 754.248 238.787 729.056 223.689C729.056 223.689 674.229 313.919 570.5 354.54C585.689 373.233 740.541 400.194 732.391 380.063C722.018 354.18 737.948 344.474 746.098 330.095C755.73 312.84 754.618 289.114 754.618 289.114C768.696 274.016 767.214 259.637 758.693 260.715Z" fill="#913B00"/>
<path d="M724.611 239.506C729.057 252.447 736.466 265.389 743.875 276.892C747.209 281.925 754.248 288.755 754.248 288.755C776.105 278.33 774.623 252.807 766.102 253.526C776.475 234.833 780.18 203.198 763.88 202.12L735.725 183.787C717.202 195.649 718.684 221.173 724.611 239.506Z" fill="#161819"/>
<path d="M723.868 226.565L749.43 223.689C770.175 201.761 776.844 169.408 766.471 167.251C775.362 143.885 776.473 129.865 767.953 125.911C772.769 112.61 767.582 99.3091 756.098 101.466C757.58 92.479 752.764 82.4137 739.427 83.1326C741.28 71.6293 732.759 58.6879 722.757 60.8448C714.977 43.2303 700.529 56.531 700.529 56.531C700.529 56.531 697.195 42.5114 686.082 39.995C644.59 30.6485 626.808 130.224 619.769 160.78C619.029 162.578 643.849 211.826 723.868 226.565Z" fill="#161819"/>
<path d="M729.056 223.689C744.245 208.591 750.913 179.833 737.947 185.584C759.804 133.1 735.725 147.839 735.725 147.839C735.725 147.839 747.95 121.956 739.059 121.237C743.504 111.172 739.059 93.9169 727.575 106.139C734.613 81.6946 724.981 62.2826 713.868 76.3023C713.127 51.8577 696.456 66.2369 696.456 66.2369C696.456 66.2369 693.863 51.1388 683.12 47.1845C644.222 33.8837 629.774 116.205 619.401 160.421C619.03 162.578 729.056 223.689 729.056 223.689Z" fill="#1C2123"/>
<path d="M531.231 576.34C531.231 576.34 513.079 601.863 505.669 625.229C497.519 650.393 495.667 662.615 508.263 666.929C514.931 669.085 522.71 668.726 520.858 673.04C518.635 677.713 510.856 676.275 507.151 674.837C504.558 674.118 497.149 670.164 494.185 670.883C491.222 671.961 483.072 676.994 479.367 680.589C476.774 682.746 470.105 695.687 459.733 692.092C453.064 689.576 458.621 682.746 458.621 682.746C453.064 682.746 431.207 683.465 421.946 683.465C412.685 683.465 394.162 689.217 395.273 678.073C396.014 669.086 423.057 672.321 426.762 672.321C434.542 672.68 442.321 670.164 442.321 670.164C442.321 670.164 437.135 666.569 431.207 664.772C425.28 663.334 427.503 657.582 434.171 657.942C440.469 658.301 446.026 663.693 451.953 664.772C459.362 666.21 466.03 664.412 466.03 664.412C466.03 664.412 471.958 654.706 474.921 650.033C477.885 645.36 498.26 610.85 500.853 578.497C510.115 567.712 531.231 576.34 531.231 576.34Z" fill="#BF948C"/>
<path d="M508.263 666.927C495.668 662.614 490.481 650.391 498.631 625.228C503.077 612.287 508.263 599.345 513.079 589.28C504.559 589.999 498.631 587.842 498.631 587.842C493.445 616.96 478.627 641.045 475.663 645.359C472.7 650.032 459.363 665.849 451.213 664.411C445.285 663.333 439.729 657.941 433.431 657.581C427.133 657.222 429.356 661.895 435.283 663.333C441.211 664.771 446.397 668.365 446.397 668.365C446.397 668.365 434.172 672.32 426.392 671.96C422.688 671.601 394.162 668.725 395.644 677.352C396.385 682.385 413.056 679.15 422.317 679.15C431.579 679.15 456.029 678.071 461.586 678.071C461.586 678.071 453.806 685.98 460.474 688.137C466.402 689.934 472.329 680.947 476.034 676.993C479.738 673.039 489.37 666.928 492.334 666.209C496.409 665.49 504.929 671.241 507.522 671.96C514.932 674.477 520.859 672.679 520.859 672.679C522.341 669.084 514.561 669.444 508.263 666.927Z" fill="#DDB2A8"/>
<path d="M594.21 537.156C594.21 537.156 594.58 568.79 596.433 577.418C598.285 586.045 605.324 591.797 611.992 594.313C618.66 596.83 622.735 595.751 622.735 599.705C622.735 604.738 616.437 605.457 611.251 602.941C606.435 600.784 601.619 600.784 602.36 606.535C602.73 611.209 603.842 617.679 609.769 631.699C613.844 640.686 609.769 643.202 605.324 642.483C600.137 641.764 597.544 628.823 595.321 627.026C592.728 625.228 581.614 628.823 578.651 629.902C575.687 630.98 565.314 639.248 550.496 646.797C540.493 651.83 532.343 657.582 527.157 652.189C524.564 649.673 526.416 643.921 532.344 642.483C537.16 641.405 550.866 638.529 558.646 625.228C549.014 623.79 533.084 629.183 529.75 622.712C526.787 616.241 536.789 617.679 540.123 617.679C543.828 618.039 550.125 619.477 555.682 616.241C561.239 613.006 573.464 606.535 575.687 596.47C577.91 586.405 576.058 565.914 575.317 546.862C580.133 538.953 594.21 537.156 594.21 537.156Z" fill="#9E7E7A"/>
<path d="M611.993 593.953C605.324 591.437 594.581 585.685 592.358 577.417C591.247 573.103 589.765 555.129 589.765 555.129C589.765 555.129 579.022 557.286 575.688 559.803C575.688 559.803 577.54 587.123 575.317 595.751C572.724 605.816 560.869 611.927 555.313 615.522C549.756 618.757 543.458 617.32 539.753 616.96C536.049 616.601 525.305 615.881 530.492 620.914C533.826 624.509 550.126 620.555 559.758 621.993C551.608 637.45 536.789 640.686 531.973 641.764C526.046 643.202 524.935 648.235 527.899 649.673C531.603 651.47 539.383 647.156 549.385 642.124C564.203 634.575 574.206 625.587 577.169 624.509C580.133 623.431 591.247 620.195 593.84 621.993C599.026 625.228 601.249 634.934 603.101 636.731C605.324 638.888 612.363 639.607 608.288 630.261C602.361 616.241 600.508 608.332 600.138 603.659C599.397 596.47 606.065 596.47 610.881 598.626C616.068 601.143 621.624 602.581 621.995 598.626C622.736 595.391 618.661 596.47 611.993 593.953Z" fill="#B5938C"/>
<path d="M381.565 685.62C381.565 685.62 388.233 676.274 395.642 675.196C401.199 674.477 399.717 682.745 396.013 682.745C391.197 683.104 386.751 683.464 381.565 685.62Z" fill="#848484"/>
<path d="M457.139 699.999C457.139 699.999 463.066 694.248 464.178 690.653C464.919 687.058 458.621 684.542 457.139 688.856C455.287 694.248 457.139 699.999 457.139 699.999Z" fill="#848484"/>
<path d="M421.204 661.177C421.204 661.177 424.908 660.817 427.131 661.896C427.131 661.896 426.761 660.098 429.354 658.301C429.354 658.66 424.538 656.503 421.204 661.177Z" fill="#848484"/>
<path d="M610.882 650.032C610.882 650.032 612.734 642.124 610.511 639.248C607.547 634.575 602.361 638.888 604.213 642.124C607.547 647.157 610.882 650.032 610.882 650.032Z" fill="#848484"/>
<path d="M621.996 597.548C621.996 597.548 627.553 597.189 629.406 602.222C625.701 600.424 621.996 601.503 621.996 601.503C621.996 601.503 620.515 598.986 621.996 597.548Z" fill="#848484"/>
<path d="M520.117 670.521C520.117 670.521 526.415 670.521 528.637 675.913C524.562 673.757 519.005 675.195 519.005 675.195C519.005 675.195 517.524 671.24 520.117 670.521Z" fill="#848484"/>
<path d="M517.524 657.222C517.524 657.222 519.747 648.954 526.045 646.078C531.602 643.562 530.12 651.111 527.897 652.549C521.97 653.627 517.524 657.222 517.524 657.222Z" fill="#848484"/>
<path d="M521.597 622.352C521.597 622.352 524.19 616.6 530.488 617.679C532.34 618.038 532.34 620.554 529.747 622.352C524.931 620.195 521.597 622.352 521.597 622.352Z" fill="#848484"/>
<path d="M619.029 158.264C623.845 148.918 634.959 130.944 650.889 136.336C662.373 123.754 669.412 129.865 669.412 129.865C687.564 114.767 708.68 125.551 704.605 148.199C704.605 148.199 725.722 150.355 714.608 188.46C714.608 188.46 729.426 185.225 723.499 209.67C723.499 209.67 734.612 210.389 729.056 224.049C729.426 222.97 722.758 273.657 722.758 273.657L582.725 201.042C606.063 183.428 612.732 170.846 619.029 158.264Z" fill="#913B00"/>
<path d="M619.028 158.265C623.844 148.918 630.883 138.853 646.813 144.245C657.926 130.225 665.706 142.447 665.706 142.447C683.859 127.349 697.565 135.258 693.12 157.905C693.12 157.905 713.495 160.781 702.381 198.886C702.381 198.886 717.941 194.932 712.013 219.736C712.013 219.736 720.534 228.004 700.9 251.37C700.9 251.37 710.902 259.997 697.936 271.501L625.326 282.285C625.326 282.285 585.687 202.481 581.982 201.043C606.062 183.428 612.73 170.846 619.028 158.265Z" fill="#A34600"/>
<path d="M728.314 223.689C728.314 223.689 752.023 215.061 756.839 228.362C760.173 236.99 752.764 246.696 752.764 246.696C752.764 246.696 761.285 254.964 748.689 272.578C748.689 272.578 755.357 269.702 754.246 289.114C740.539 290.193 707.568 286.957 707.568 286.957L728.314 223.689Z" fill="#913B00"/>
<path d="M732.021 380.062C732.021 380.062 714.98 343.395 624.588 352.382C624.588 352.382 605.695 239.865 607.547 237.708C607.547 237.708 606.806 230.159 584.949 226.924C584.949 226.924 595.322 217.937 594.581 211.107C594.211 208.95 591.618 210.747 591.618 210.747C597.174 205.715 593.47 201.401 590.877 199.963C587.543 198.525 584.208 199.963 584.208 199.963C577.54 204.996 571.613 206.793 569.76 207.153C542.347 214.342 476.405 211.466 463.81 206.793C458.994 204.996 296.362 189.897 296.362 189.897C289.324 224.408 277.469 266.826 270.43 323.265C257.094 428.592 327.481 453.396 352.672 464.181C377.493 474.965 441.582 519.541 450.103 529.247C458.623 538.953 488.26 578.495 506.783 579.574C525.306 580.652 540.865 573.822 557.906 558.365C574.947 542.907 599.397 542.907 626.811 540.031C716.091 517.384 746.839 416.37 732.021 380.062Z" fill="#B25000"/>
<path d="M659.409 385.095C653.852 381.86 608.656 387.252 573.092 387.252C530.489 387.252 457.509 380.062 440.097 329.016L613.842 239.146C613.842 239.146 625.697 213.982 599.765 218.296C599.765 218.296 602.728 213.982 600.135 210.387C597.913 207.152 593.837 208.95 593.837 208.95C593.837 208.95 597.913 201.4 592.356 198.525C589.022 196.727 584.206 199.963 584.206 199.963C577.537 204.995 571.61 206.793 569.758 207.152C542.344 214.342 476.402 211.466 463.807 206.793C458.991 204.995 314.142 213.982 314.142 213.982C313.03 216.499 299.323 277.61 295.619 334.049C290.803 409.18 348.965 425.357 374.156 436.141C398.977 446.925 447.136 482.514 455.657 492.22C464.177 501.926 488.998 524.933 506.78 529.965C523.821 534.638 544.937 524.573 561.978 509.115C579.019 493.658 600.506 483.952 626.808 474.605C686.452 453.755 676.079 395.16 659.409 385.095Z" fill="#CC6100"/>
<path d="M295.616 114.047C308.212 146.04 297.098 187.381 285.244 239.865L295.616 224.407L291.912 244.179C291.912 244.179 305.248 231.237 313.769 213.982C313.769 213.982 316.362 233.035 331.921 252.806V238.786C337.849 260.715 350.444 277.251 350.444 277.251V253.885C354.89 268.983 364.892 286.597 364.892 286.597L370.079 263.95L379.34 296.303C385.638 290.192 390.824 275.094 390.824 275.094L391.195 288.754C400.826 276.172 409.347 257.479 409.347 257.479C413.052 263.95 416.015 276.172 416.015 276.172C421.572 265.747 424.906 244.538 424.906 244.538C428.981 249.211 434.168 265.028 434.168 265.028C434.168 265.028 438.613 243.46 432.316 211.466L441.947 228.361C441.947 228.361 443.059 219.734 440.836 209.668C440.836 209.668 458.989 220.093 484.921 219.734C484.921 219.734 466.768 211.825 458.618 204.995C442.688 190.976 424.536 165.812 404.902 122.315C385.267 78.8177 341.183 37.4775 304.137 38.1965C267.091 38.556 256.718 64.079 256.718 64.079C253.755 103.622 281.91 79.5366 295.616 114.047Z" fill="#7C3200"/>
<path d="M295.62 114.047C308.215 146.041 297.102 187.381 285.247 239.865L295.62 224.407L291.915 244.179C291.915 244.179 305.252 231.238 313.772 213.983C313.772 213.983 334.147 133.459 294.508 89.2429C288.211 82.0533 262.649 72.3474 262.649 72.3474C259.686 107.936 281.913 79.5369 295.62 114.047Z" fill="#682A00"/>
<path d="M286.729 99.6685C277.838 91.041 267.835 86.0083 261.908 86.0083C261.908 86.0083 244.496 103.263 263.39 123.394C268.576 128.786 285.247 136.336 294.138 127.349C296.36 125.192 297.472 120.518 297.472 120.518C295.619 111.531 292.285 105.061 286.729 99.6685Z" fill="#CE1515"/>
<path d="M295.248 126.27C297.1 123.753 297.841 120.518 297.841 120.518C295.618 111.172 291.543 100.387 268.575 80.9753L261.907 86.3675C261.907 86.3675 270.057 92.4787 279.318 103.623C287.468 112.969 295.248 126.27 295.248 126.27Z" fill="#BC0808"/>
<path d="M314.143 88.1651C305.993 98.2306 307.104 104.342 310.809 106.858C314.514 109.374 319.7 109.374 327.109 96.7926C332.295 88.5246 333.036 79.897 330.443 78.0996C328.591 76.6617 320.441 80.616 314.143 88.1651Z" fill="#CE1515"/>
<path d="M261.908 86.3676L268.576 80.9754C257.833 77.0211 256.721 65.5176 256.721 65.5176C241.903 64.0797 228.196 78.0995 225.973 83.8511C224.491 87.4459 224.492 88.5244 227.455 88.165C230.419 87.8055 247.089 84.2107 261.908 86.3676Z" fill="#C67500"/>
<path d="M225.974 87.8053C224.121 86.7268 227.456 81.3347 228.937 79.1778C241.903 63.3607 256.722 65.1581 256.722 65.1581C256.722 65.1581 258.204 73.4261 268.576 80.6157C268.576 80.9752 243.756 77.3804 225.974 87.8053Z" fill="#FF9D00"/>
<path d="M268.575 80.9755C268.575 80.9755 248.2 74.5048 225.231 87.8056L225.602 88.1651C225.602 88.1651 241.532 79.8971 266.352 82.7729L268.575 80.9755Z" fill="#894F15"/>
<path d="M309.696 37.1187C309.696 37.1187 275.984 35.3214 260.425 59.766C259.314 61.2039 256.721 65.5176 256.721 65.5176C256.721 65.5176 250.052 64.7987 242.643 68.3935C242.643 68.3935 235.975 61.5633 245.607 56.5306C252.275 52.9358 245.977 38.9162 251.534 32.805C253.757 30.2887 257.091 34.9618 259.314 33.1644C263.018 30.2886 257.462 25.6154 259.314 20.2232C260.055 16.9879 263.018 23.4585 267.834 23.818C271.168 23.818 265.612 12.674 267.834 9.7982C270.428 6.92236 275.984 16.2689 278.948 15.9094C283.023 15.1904 277.466 2.24918 281.171 0.0923006C283.764 -1.34562 287.839 14.4715 293.396 15.9094C299.694 17.3473 298.582 5.12502 301.917 5.4845C304.51 5.84398 303.769 13.393 305.251 13.7525C309.696 14.8309 308.214 1.5302 311.919 1.5302C314.142 1.5302 312.66 15.5499 315.994 15.5499C318.587 15.5499 323.033 8.3603 325.626 10.1577C328.219 11.9551 325.626 16.6284 327.478 18.4258C328.219 19.1448 329.701 19.5042 330.812 20.5826C332.664 23.4584 329.33 34.6023 309.696 37.1187Z" fill="#CE1313"/>
<path d="M304.509 30.2886C274.873 35.3213 267.834 46.1058 255.979 59.766C251.534 64.4393 242.643 68.3935 242.643 68.3935C239.309 64.4392 239.679 59.7659 245.606 56.5306C252.275 52.9358 245.977 38.9162 251.534 32.805C253.757 30.2887 257.091 34.9618 259.313 33.1644C263.018 30.2886 257.461 25.6154 259.313 20.2232C260.054 16.9879 263.018 23.4585 267.834 23.818C271.168 23.818 265.611 12.674 267.834 9.7982C270.427 6.92236 275.984 16.2689 278.948 15.9094C283.023 15.1904 277.466 2.24918 281.17 0.0923006C283.764 -1.34562 287.839 14.4715 293.396 15.9094C299.693 17.3473 298.582 5.12502 301.916 5.4845C304.509 5.84398 303.768 13.393 305.25 13.7525C309.696 14.8309 308.214 1.5302 311.918 1.5302C314.141 1.5302 312.659 15.5499 315.993 15.5499C318.587 15.5499 323.032 8.3603 325.625 10.1577C326.737 11.2361 325.625 26.6938 304.509 30.2886Z" fill="#EA2424"/>
<path d="M256.721 65.5174C256.721 65.5174 257.833 63.3606 258.944 61.9226C267.835 52.2167 301.917 45.3866 310.438 62.2821C312.29 66.2364 313.031 74.145 310.808 78.4587C308.585 82.413 301.547 88.8837 287.469 87.4457C275.615 86.3673 268.576 80.9751 268.576 80.9751C268.576 80.9751 258.573 74.145 256.721 65.5174Z" fill="#CE1313"/>
<path d="M303.767 61.9226C303.767 61.9226 305.248 71.6286 296.728 73.7855C291.171 75.2234 282.28 74.1449 278.576 67.3148C278.576 67.3148 267.832 68.0338 262.275 69.4717C280.798 94.2758 319.326 80.9751 303.767 61.9226Z" fill="#EA2626"/>
<path d="M300.807 63.7203C300.807 68.3935 296.732 72.3479 291.916 72.3479C287.1 72.3479 283.025 68.3935 283.025 63.7203C283.025 59.047 287.1 55.0928 291.916 55.0928C296.732 55.0928 300.807 59.047 300.807 63.7203Z" fill="#8E0000"/>
<path d="M298.953 63.7197C298.953 67.3146 295.989 70.55 291.914 70.55C287.839 70.55 284.875 67.674 284.875 63.7197C284.875 60.1249 287.839 56.8896 291.914 56.8896C295.989 56.8896 298.953 59.7655 298.953 63.7197Z" fill="#DDA928"/>
<path d="M295.622 63.7205C295.622 65.5179 294.14 67.3153 291.917 67.3153C290.065 67.3153 288.213 65.8774 288.213 63.7205C288.213 61.9231 289.695 60.1257 291.917 60.1257C293.77 60.1257 295.622 61.5637 295.622 63.7205Z" fill="black"/>
<path d="M570.5 366.762C600.877 362.448 659.039 355.259 682.008 295.944C696.455 289.114 713.497 266.467 619.03 240.944C619.03 240.944 570.87 232.676 529.749 232.676C489.37 232.676 424.169 254.245 436.765 318.951C447.137 369.997 545.679 370.357 570.5 366.762Z" fill="#913B00"/>
<path d="M618.29 327.578C631.256 323.265 685.343 309.245 658.67 289.833C673.118 283.003 713.868 266.467 619.401 240.584C606.435 235.911 570.501 227.643 529.38 227.643C486.407 227.643 413.427 266.826 441.211 318.951C463.809 363.167 581.244 339.801 618.29 327.578Z" fill="#A34600"/>
<path d="M686.823 300.258C701.641 290.193 699.048 282.284 699.048 282.284C708.68 278.69 704.605 264.31 617.917 240.585C617.917 240.585 639.404 249.572 629.031 254.604C629.031 254.604 666.447 281.565 626.438 283.003C626.438 283.003 647.554 316.076 611.99 329.736C612.361 329.376 672.375 324.343 686.823 300.258Z" fill="#682A00"/>
<path d="M570.5 366.762C570.5 366.762 637.183 359.572 650.519 337.285C650.519 337.285 669.413 330.095 670.154 318.232C670.154 318.232 684.602 307.088 686.824 299.899C686.824 299.899 666.079 318.592 612.362 329.016C612.362 329.016 621.994 340.52 587.541 349.148C587.541 349.866 592.358 360.291 570.5 366.762Z" fill="#682A00"/>
<path d="M662.372 291.99C699.789 285.52 674.227 276.533 674.227 276.533C694.232 276.892 705.716 262.153 613.472 239.147C613.472 239.147 635.699 251.369 623.474 253.166C623.474 253.166 644.22 268.265 607.915 269.343C607.915 269.343 616.436 274.016 619.77 277.252C627.92 284.082 627.92 293.788 609.767 293.428C609.767 293.428 641.997 315.356 611.62 329.736C611.62 329.736 672.375 312.84 659.038 304.932C659.409 304.572 684.6 293.428 662.372 291.99Z" fill="#7C3200"/>
<path d="M290.803 44.6675C290.803 44.6675 330.813 30.6479 370.822 77.7397C387.493 97.5112 398.977 128.786 398.977 128.786C398.977 128.786 365.636 56.8899 290.803 44.6675Z" fill="#963D00"/>
<path d="M610.139 293.069C610.139 293.069 642.739 295.585 670.524 290.193C670.524 290.193 657.558 298.101 615.325 297.382C612.362 294.507 610.139 293.069 610.139 293.069Z" fill="#682A00"/>
<path d="M624.958 311.402C624.958 311.402 646.816 310.323 663.857 302.415C663.857 302.415 660.893 310.323 625.329 315.356C625.329 313.199 624.958 311.402 624.958 311.402Z" fill="#682A00"/>
<path d="M608.287 269.343C608.287 269.343 664.226 279.049 681.637 276.173L681.267 277.971C650.519 280.847 614.584 273.298 614.584 273.298L608.287 269.343Z" fill="#682A00"/>
<path d="M507.893 229.801C507.893 229.801 519.748 238.429 505.3 243.821C514.562 248.134 510.116 262.154 495.298 260.357C505.671 268.265 495.668 290.553 470.477 288.037C472.329 291.632 468.254 299.181 463.809 300.619C454.918 303.854 447.509 299.181 447.509 299.181C447.509 299.181 441.581 310.325 431.949 302.775C424.54 252.089 472.329 233.036 507.893 229.801Z" fill="#CC6100"/>
</svg>
