<svg width="218" height="620" viewBox="0 0 218 620" fill="none" xmlns="http://www.w3.org/2000/svg">
<g clip-path="url(#clip0_1922_459)">
<path d="M43.443 250.174C31.2155 196.326 38.14 132.64 59.7525 46.272L204.187 63.367C204.328 64.897 204.463 66.3787 204.601 67.8895L206.247 66.5504C220.076 152.926 219.103 204.197 216.133 236.159C216.319 220.822 217.702 167.087 206.513 89.0966C215.18 187.259 213.99 242.264 199.767 258.017C209.31 237.541 207.929 177.524 206.177 170.091C205.159 190.973 204.979 237.103 192.38 263.602C187.637 268.191 171.08 273.956 164.867 276.168C146.985 282.536 80.7076 267.6 60.4049 260.177C59.6312 257.638 59.9769 198.893 59.8062 190.757C58.5035 193.491 56.2462 257.254 55.6622 259.88C44.0289 242.45 34.9538 190.278 51.5182 97.3422C37.4309 160.645 38.823 208.629 43.443 250.174Z" fill="#662D1A"/>
<path d="M44.8582 203.388C56.3094 195.51 76.7687 179.93 81.4686 182.55C89.1042 186.805 98.2669 201.179 100.891 205.415C90.7794 221.618 84.8899 230.047 77.336 236.811C69.5074 228.812 48.3383 211.416 44.8582 203.388Z" fill="#6AB0B7"/>
<path d="M89.0991 596.808C86.0483 597.934 83.179 596.257 83.179 596.257L85.343 571.218L91.2632 571.769C91.2632 571.769 89.4205 594.685 89.0991 596.808Z" fill="#88253E"/>
<path d="M60.9668 415.337C63.8764 467.96 68.5916 525.214 69.7768 561.65L91.3689 560.871C92.7821 523.793 93.9437 464.559 98.3599 415.797L60.9668 415.337Z" fill="#D99255"/>
<path d="M79.5793 609.266C69.6876 619.612 52.0428 617.635 49.6699 615.301C46.4305 612.116 45.5859 606.354 47.5314 600.849C50.1663 593.396 58.6849 583.723 64.4696 570.298C67.4189 563.455 87.3983 552.996 93.3626 562.673C94.3906 564.342 93.2954 577.643 91.7934 580.771C90.8663 582.702 90.7698 584.702 89.1668 588.066C82.7406 601.547 82.7751 605.923 79.5793 609.266Z" fill="#C64D65"/>
<path d="M79.3587 591.908C71.1008 604.504 54.0027 600.841 55.8665 590.271C56.9226 584.281 71.7895 564.163 69.759 546.243C74.8601 543.955 88.2134 545.282 91.4655 548.263C91.2744 553.238 92.3005 563.451 90.9121 566.947C87.2627 576.134 82.2185 587.546 79.3587 591.908Z" fill="#D99255"/>
<path d="M110.06 415.971C114.53 468.475 120.942 525.551 123.209 561.933L144.768 560.463C145.079 523.358 144.483 464.116 147.449 415.236L110.06 415.971Z" fill="#D99255"/>
<path d="M53.716 322.494C48.758 361.834 57.1988 411.968 61.1409 448.082C64.8536 452.705 122.856 458.61 149.014 448.12C159.896 362.556 180.069 357.594 151.569 298.711L53.716 322.494Z" fill="#4D7479"/>
<path d="M50.7144 340.19C62.9809 347.46 105.784 355.373 166.65 331.279C158.551 309.799 146.16 289.49 144.597 283.08C145.058 265.915 168.458 236.811 168.458 195.188C144.355 186.511 109.224 177.164 78.2037 182.53C72.249 193.152 58.5852 220.641 54.8412 241.527C54.1767 245.232 57.5885 256.502 59.2196 264.679C64.1584 289.431 58.3826 294.89 50.7144 340.19Z" fill="#6AB0B7"/>
<path d="M90.5098 173.566C90.5098 183.858 102.231 192.201 116.691 192.201C131.15 192.201 142.872 183.858 142.872 173.566C142.872 163.275 131.15 154.932 116.691 154.932C102.231 154.932 90.5098 163.275 90.5098 173.566Z" fill="#538C8C"/>
<path d="M135.246 161.979L132.573 190.959C131.998 197.19 123.313 201.427 113.175 200.42C103.037 199.413 95.2841 193.544 95.8591 187.313L98.5324 158.332L135.246 161.979Z" fill="#D99255"/>
<path opacity="0.28" d="M84.9231 227.696L83.0435 182.507L89.715 173.626C89.715 173.626 96.2076 193.416 111.351 200.569C99.0323 205.933 84.9231 227.696 84.9231 227.696Z" fill="black"/>
<path d="M87.4185 215.991L84.1243 181.842L92.2436 165.96C92.2436 165.96 96.2075 193.416 111.35 200.568C95.8292 199.003 87.4185 215.991 87.4185 215.991Z" fill="#6AB0B7"/>
<path opacity="0.23" d="M83.1071 160.335C83.1889 159.45 83.3895 158.601 83.6233 157.763C100.875 157.198 118.599 160.171 134.455 164.323C134.455 164.695 134.504 165.062 134.469 165.436C133.478 176.179 121.177 183.746 106.994 182.338C92.8103 180.929 82.1162 171.078 83.1071 160.335Z" fill="black"/>
<path d="M55.7083 62.2357C47.4612 116.04 75.937 145.551 121.011 152.988C166.083 160.424 202.15 142.426 206.62 88.1424C210.816 37.1935 188.203 16.1189 143.131 8.68281C98.0568 1.24606 63.956 8.43155 55.7083 62.2357Z" fill="#662D1A"/>
<path d="M61.3037 65.8236C60.7638 75.6012 56.2965 115.429 56.6984 125.888C57.5373 147.723 79.1102 165.837 91.9971 170.881C107.647 177.007 153.452 169.934 166.635 147.314C181.155 115.852 193.481 69.013 191.673 59.5854C185.552 27.7442 100.687 27.7157 79.5651 34.0779C61.7879 39.4323 61.9247 54.5843 61.3037 65.8236Z" fill="#D99255"/>
<path d="M62.902 32.6069C61.6618 36.5354 56.5864 48.2388 48.9775 49.6621C53.3579 55.4588 69.8508 58.3717 80.3456 58.7038C91.8435 59.0678 109.108 56.3517 137.702 41.4743C135.72 45.1131 124.524 57.2633 98.4498 61.2124C139.411 65.302 150.585 28.4563 166.037 58.5421C184.924 37.6173 188.53 23.489 174.547 14.6786C125.983 -15.9196 71.027 6.86794 62.902 32.6069Z" fill="#662D1A"/>
<path d="M104.929 143.571C109.873 143.752 115.05 141.328 117.308 137.658C117.576 137.229 117.456 136.654 117.038 136.379C116.624 136.108 116.075 136.224 115.806 136.662C113.757 139.988 108.597 142.174 104.047 141.65C101.366 141.337 97.8274 139.974 96.1943 135.26C96.0275 134.778 95.5305 134.522 95.0532 134.702C94.5894 134.875 94.3485 135.405 94.5153 135.886C96.0333 140.266 99.3441 142.965 103.85 143.492C104.206 143.532 104.567 143.559 104.929 143.571Z" fill="#7E3B29"/>
<path d="M98.1214 124.998C98.4402 125.051 98.7571 124.86 98.8625 124.535C99.6081 122.224 101.665 120.991 104.102 121.393C106.554 121.798 108.178 123.669 108.145 126.051C108.141 126.432 108.438 126.748 108.807 126.754C109.178 126.76 109.482 126.455 109.488 126.073C109.53 123.023 107.402 120.537 104.312 120.028C101.24 119.52 98.5379 121.155 97.5878 124.095C97.4709 124.457 97.662 124.849 98.0134 124.971L98.1214 124.998Z" fill="#87491C"/>
<path d="M88.7404 115.587C88.7404 115.587 70.8842 119.655 65.9965 107.705C60.0405 93.1427 73.5573 84.4251 81.0582 87.6768C88 90.6852 93.4582 99.3828 88.7404 115.587Z" fill="#F9FDFF"/>
<path d="M67.1438 90.4557C70.9658 86.081 75.3959 85.1973 79.8862 86.4575C84.4762 87.7463 88.6291 92.5492 89.369 96.9617C87.5296 91.8372 83.4444 89.4407 80.8491 88.3171C76.7179 86.5199 70.7504 88.0346 67.5399 92.4253C64.6845 96.3326 63.971 102.738 66.1573 108.082C63.2266 104.229 63.1608 95.0147 67.1438 90.4557Z" fill="#59221D"/>
<path d="M89.5023 101.377C90.3738 106.416 87.6987 111.569 83.5272 112.885C79.3557 114.201 75.2673 111.182 74.3958 106.143C73.5243 101.104 76.1995 95.9513 80.3709 94.6354C84.5424 93.3195 88.6308 96.3378 89.5023 101.377Z" fill="#599CA2"/>
<path d="M89.0985 99.7946C89.34 101.193 88.5975 102.623 87.4404 102.987C86.2827 103.353 85.1486 102.515 84.9071 101.117C84.665 99.719 85.4075 98.2891 86.5652 97.9245C87.7222 97.5592 88.8563 98.3965 89.0985 99.7946Z" fill="#FDFFFD"/>
<path d="M118.889 120.162C118.889 120.162 138.209 129.975 147.504 120.077C158.83 108.015 145.932 95.1551 136.295 95.8107C127.376 96.4179 118.423 102.995 118.889 120.162Z" fill="#F9FDFF"/>
<path d="M151.471 103.081C148.41 97.6055 143.577 95.2913 138.019 95.0234C132.336 94.7496 126.08 98.0053 123.875 102.012C127.565 97.6824 133.005 96.7225 136.339 96.4965C141.649 96.1292 148.059 99.5579 150.411 104.848C152.501 109.554 151.359 115.961 147.202 120.387C151.759 117.643 154.661 108.788 151.471 103.081Z" fill="#59221D"/>
<path d="M143.634 109.469C144.806 114.604 141.745 119.754 136.796 120.971C131.846 122.188 126.883 119.012 125.71 113.876C124.538 108.741 127.599 103.592 132.548 102.374C137.498 101.157 142.461 104.334 143.634 109.469Z" fill="#599CA2"/>
<path d="M143.109 107.854C143.435 109.279 142.585 110.707 141.212 111.045C139.839 111.383 138.463 110.501 138.137 109.076C137.812 107.652 138.661 106.223 140.034 105.886C141.407 105.548 142.784 106.429 143.109 107.854Z" fill="#FDFFFD"/>
<path d="M162.594 308.633C160.959 313.306 163.635 322.774 169.046 326.859C202.19 298.711 206.972 279.38 206.982 271.784C206.998 259.492 198.064 241.783 176.235 201.316C166.517 191.786 163.722 207.636 161.858 228.662C175.651 258.917 184.53 268.617 183.541 273.849C182.769 277.936 181.63 282.825 162.594 308.633Z" fill="#D99255"/>
<path d="M194.869 223.552C185.285 233.22 176.789 238.75 163.722 245.926C148.548 228.11 145.658 223.362 151.635 189.681C161.425 192.987 171.341 195.311 176.551 198.482C181.584 204.732 191.348 218.318 194.869 223.552Z" fill="#6AB0B7"/>
<path d="M156.853 86.883C156.395 86.8115 155.962 86.5708 155.647 86.173C151.609 81.1109 142.916 78.5116 135.408 80.141C134.367 80.3724 133.333 79.6737 133.11 78.5799C132.89 77.4913 133.563 76.4246 134.614 76.1946C143.571 74.2569 153.679 77.374 158.641 83.6082C159.323 84.4667 159.207 85.7355 158.38 86.4442C157.938 86.8261 157.38 86.9659 156.853 86.883Z" fill="#662D1A"/>
<path d="M67.3796 70.7282C66.8685 70.6705 66.3823 70.3974 66.0609 69.9287C65.4591 69.0576 65.6514 67.8458 66.4915 67.2213C72.597 62.6829 82.7487 62.366 90.6284 66.4563C91.5536 66.9396 91.9267 68.105 91.4635 69.0623C90.9977 70.0248 89.8719 70.4113 88.9519 69.9294C82.3494 66.4908 73.6295 66.6817 68.6708 70.3749C68.283 70.6646 67.8224 70.778 67.3796 70.7282Z" fill="#662D1A"/>
<path d="M195.373 133.995C188.975 148.758 174.585 156.955 165.511 154.502C156.434 152.051 157.147 139.464 161.751 125.076C166.355 110.688 177.456 100.974 186.518 103.462C198.905 106.863 201.386 120.116 195.373 133.995Z" fill="#D99255"/>
<path d="M179.445 137.443C176.029 143.974 169.23 146.329 166.814 144.39C164.099 142.21 164.781 138.279 167.079 131.813C169.765 124.263 173.405 120.212 177.585 122.15C181.93 124.165 183.467 129.757 179.445 137.443Z" fill="#9A5B44"/>
<path d="M194.047 91.5575C188.857 108.481 175.48 107.498 163.439 130.096C165.087 117.235 171.708 103.409 176.154 89.1868C180.455 75.431 177.13 63.2006 166.037 62.7531C174.585 22.018 208.71 43.7409 194.047 91.5575Z" fill="#662D1A"/>
<path d="M6.16205 296.399C7.51591 301.938 11.6056 305.642 15.296 304.671C18.987 303.7 20.8813 298.422 19.5274 292.883C18.1736 287.343 16.5354 278.493 12.845 279.464C9.15403 280.435 4.80884 290.859 6.16205 296.399Z" fill="#D99255"/>
<path d="M102.789 319.29L20.9155 324.88L0 225.919L8.55758 217.338C9.50186 216.451 10.6392 215.885 11.8608 215.695L80.8091 205.949C81.7937 205.809 82.7514 206.629 82.9827 207.809L104.345 316.702C104.6 317.998 103.879 319.196 102.789 319.29Z" fill="#B83B3B"/>
<path d="M100.205 317.45L89.8538 328.983L23.7076 332.152L2.98828 227.715L10.7371 220.212L78.6657 211.416L100.205 317.45Z" fill="#F3E5D6"/>
<path d="M94.1107 330.628L22.4233 334.25L0 225.919L72.0024 217.828C73.5012 217.653 74.9414 218.904 75.3005 220.692L96.5928 326.6C97.0049 328.649 95.8409 330.537 94.1107 330.628Z" fill="#D14646"/>
<path d="M120.5 610.944C123.104 614.013 132.122 620.165 136.075 619.997C140.342 619.816 150.128 613.797 152.51 609.861C155.439 605.022 150.195 579.819 147.508 565.566C145.746 556.218 124.102 554.552 122.434 567.039C119.525 588.803 117.323 607.2 120.5 610.944Z" fill="#C64D65"/>
<path d="M122.064 590.916C126.237 604.832 147.364 602.046 149.14 590.383C150.056 584.369 148.478 573.263 144.891 550.184C140.188 547.112 127.336 548.488 123.681 550.917C122.587 578.791 120.517 585.761 122.064 590.916Z" fill="#D99255"/>
<path d="M49.9032 288.612C53.0083 287.189 59.7093 281.357 63.7491 284.21C63.7491 284.21 61.7876 288.558 58.1976 291.53C58.5145 291.809 58.7591 292.324 58.8991 293.176C59.1661 294.803 58.1605 297.688 54.5577 299.393C56.0783 300.223 52.9713 303.928 48.7379 305.043C30.9294 306.965 28.6344 306.422 15.5022 304.918C10.4036 304.335 7.69087 292.581 11.424 286.71C14.3592 282.095 21.6236 277.114 26.5017 274.727C28.2881 273.852 33.8013 272.226 40.168 269.813C42.1506 269.061 41.8631 273.867 38.7829 276.957C37.1019 278.643 32.2909 279.449 31.7152 283.076C31.6424 283.534 32.3772 284.503 32.6934 284.752C36.4451 283.933 41.7245 282.669 45.5363 281.531C49.8866 280.231 57.514 272.904 60.2983 277.886C57.0782 281.338 51.4878 286.55 49.2631 287.428C47.5239 288.115 43.532 289.716 39.7777 290.688C39.687 290.763 39.5937 290.84 39.5017 290.916C43.1972 290.615 46.8492 290.011 49.9032 288.612Z" fill="#D99255"/>
<path d="M126.021 306.334C129.665 306.989 138.941 303.733 142.795 304.897C142.795 304.897 143.025 305.026 143.156 305.15C135.551 306.476 127.577 311.076 121.697 313.402C120.717 322.304 133.193 314.99 144.578 311.949C137.947 314.849 131.863 318.17 127.241 319.935C123.989 323.957 125.893 326.411 130.643 325.15C134.315 324.176 142.55 320.723 149.153 318.79C149.766 318.892 134.033 327.328 133.018 330.834C133.651 332.531 138.696 332.798 142.911 330.391C145.192 329.09 147.502 327.14 152.82 324.951C157.593 324.973 161.94 327.329 163.9 327.886C171.179 329.019 174.236 319.83 172.658 315.775C170.656 310.632 163.535 302.357 156.645 299.932C146.826 296.477 139.55 296.601 124.195 302.109C121.603 304.196 124.248 306.016 126.021 306.334Z" fill="#D99255"/>
<path opacity="0.28" d="M135.767 229.563L145.05 186.461L139.138 178.195C139.138 178.195 126.72 193.416 111.577 200.569C118.007 207.111 135.767 229.563 135.767 229.563Z" fill="black"/>
<path d="M133.345 220.762L145.353 185.678L141.78 167.399C141.78 167.399 126.72 193.416 111.577 200.568C122.958 201.075 133.345 220.762 133.345 220.762Z" fill="#6AB0B7"/>
<path d="M97.8433 233.648C97.8433 235.395 99.2073 236.811 100.891 236.811C102.574 236.811 103.939 235.395 103.939 233.648C103.939 231.901 102.574 230.486 100.891 230.486C99.2073 230.486 97.8433 231.902 97.8433 233.648Z" fill="#4D7479"/>
<path d="M103.081 217.599C103.081 219.346 104.445 220.762 106.129 220.762C107.812 220.762 109.177 219.346 109.177 217.599C109.177 215.853 107.812 214.437 106.129 214.437C104.445 214.437 103.081 215.853 103.081 217.599Z" fill="#4D7479"/>
</g>
<defs>
<clipPath id="clip0_1922_459">
<rect width="217.969" height="620" fill="white"/>
</clipPath>
</defs>
</svg>
