<svg width="311" height="640" viewBox="0 0 311 640" fill="none" xmlns="http://www.w3.org/2000/svg">
<g clip-path="url(#clip0_1922_339)">
<path d="M271.706 318.518C271.332 314.493 270.85 307.957 270.258 299.93C268.272 272.975 262.998 201.363 256.788 196.163L257.953 190.85C264.686 191.572 269.078 208.018 275.818 299.526C276.406 307.51 276.886 314.006 277.26 318.005L271.706 318.518Z" fill="#D1802B"/>
<path d="M105.959 265.901C104.186 267.151 85.9845 248.007 87.5813 246.533C109.774 226.049 143.568 190.202 149.87 183.453C149.87 183.453 172.684 192.617 165.655 208.416C152.5 223.133 131.289 245.744 105.959 265.901Z" fill="#EEBF9E"/>
<path d="M31.3911 200.762C30.0597 199.024 46.7723 187.49 48.3059 189.06C70.1157 211.388 109.494 250.251 116.488 257.264C104.648 268.394 98.7326 271.836 89.3995 266.347C77.229 259.187 49.7108 224.682 31.3911 200.762Z" fill="#EEBF9E"/>
<path d="M45.9092 158.881C48.1519 154.04 50.533 158.852 52.1186 162.25C62.0315 183.495 60.7365 188.301 55.1999 200.947C54.0224 210.555 43.5988 211.593 38.5662 209.712C28.3425 205.891 13.4476 189.56 4.96643 176.814C1.86432 172.152 -0.964971 164.153 0.315856 163.28C2.75041 161.622 6.23681 168.808 9.71358 173.222C12.2329 176.418 16.4835 179.209 17.6506 179.69C16.5088 177.936 10.5202 170.261 9.47053 168.587C5.84881 162.813 1.85315 151.96 2.92884 151.209C6.97353 148.384 10.2414 157.56 14.8377 164.406C16.3244 166.62 21.9361 173.287 24.5856 176.064C23.8578 173.957 20.3647 167.937 17.8119 163.498C12.0523 153.48 7.36973 146.026 8.48331 145.036C12.8343 141.165 17.8052 149.219 24.8524 160.382C26.5339 163.046 31.3249 170.213 32.7098 172.206C32.9708 171.462 31.1369 166.234 28.2623 161.022C24.1313 153.533 17.438 146.017 20.3401 144.174C22.2364 142.969 28.1894 147.944 34.5468 157.205C38.8182 163.427 43.2561 171.258 47.4636 177.421C51.4934 177.783 43.5051 164.069 45.9092 158.881Z" fill="#EEBF9E"/>
<path d="M310.857 157.013C304.1 157.584 297.366 151.578 298.358 145.594C305.513 135.933 303.03 133.659 294.953 114.212C288.824 99.455 285.331 51.0709 279.013 37.5601C251.136 18.4792 143.36 32.1445 130.125 60.9221C126.379 95.1295 122.439 114.227 117.232 125.536C112.515 135.781 118.037 139.686 119.277 145.767C116.422 153.075 109.499 158.242 104.962 154.331C104.962 159.084 110.507 161.135 113.556 159.792C115.016 159.149 116.189 157.65 116.415 157.569C114.804 160.696 111.381 166.326 110.898 170.508C110.028 178.037 114.619 190.653 125.926 196.889C121.774 192.497 116.394 185.12 118.284 178.713C120.982 190.962 132.917 204.29 151.19 202.287C169.083 204.844 229.801 208.423 244.951 207.148C260.31 205.854 291.789 201.313 299.386 186.733C299.43 190.422 297.909 192.765 296.327 195.045C305.646 187.14 307.325 179.648 306.309 171.769C305.525 165.699 300.948 159.428 298.917 155.988C303.659 161.273 306.971 163.029 310.857 157.013Z" fill="#752A18"/>
<path opacity="0.55" d="M264.573 106.604C255.177 108.018 161.375 109.482 145.935 109.174C142.745 120.828 146.309 124.647 145.329 143.139C144.697 155.059 131.308 178.036 153.417 202.571C173.545 205.098 230.351 208.377 244.951 207.147C299.701 168.136 260.822 161.496 264.573 106.604Z" fill="#280013"/>
<path d="M292.045 281.929C292.079 284.09 265.905 288.181 265.586 286.038C261.155 256.253 250.549 208.266 248.517 199.28C248.517 199.28 269.025 185.761 278.149 200.463C282.911 219.574 289.661 249.758 292.045 281.929Z" fill="#EEBF9E"/>
<path d="M297.505 219.603C283.775 198.595 274.34 186.511 267.69 179.625C265.474 178.67 252.797 176.425 247.358 176.007C246.799 190.778 249.315 220.999 253.377 236.935C271.904 233.813 287.042 228.026 297.505 219.603Z" fill="#60A5D0"/>
<path d="M115.183 213.583C131.56 194.989 139.559 186.511 146.209 179.625C148.425 178.67 161.102 176.425 166.542 176.007C167.1 190.778 164.115 224.187 160.054 240.124C141.835 234.887 125.646 222.005 115.183 213.583Z" fill="#60A5D0"/>
<path d="M217.346 450.435C217.527 503.44 219.569 557.735 220.922 595.527L243.757 598.382C247.491 561.344 253.302 494.764 257.24 449.006L217.346 450.435Z" fill="#EEBF9E"/>
<path d="M267.219 639.991C258.631 640.109 249.571 639.104 245.933 637.743C240.605 635.752 237.429 633.651 225.228 622.685C224.059 621.632 217.591 616.561 217.101 615.851C217.101 615.851 216.169 608.623 216.846 608.571C217.726 608.928 223.63 611.687 225.69 613.38C227.332 614.737 228.977 616.092 230.212 617.202C242.045 627.838 244.516 629.316 248.552 630.827C255.379 633.379 276.782 632.832 279.908 631.064C279.908 631.064 283.108 629.877 282.792 630.404L283.028 636.358C281.521 638.118 275.734 639.873 267.219 639.991Z" fill="#2D4F65"/>
<path d="M247.242 634.285C255.183 637.256 280.582 636.782 282.431 633.685C284.957 629.456 278.262 622.931 274.584 617.892C269.603 611.069 258.641 602.243 248.561 590.265C243.423 584.159 214.847 583.459 215.534 591.16C215.894 595.19 216.359 609.707 217.256 610.847C218.676 612.651 224.569 617.11 227.721 619.943C239.598 630.619 242.536 632.524 247.242 634.285Z" fill="#4477A1"/>
<path d="M240.365 615.899C254.209 627.014 271.423 618.385 264.782 609.21C258.567 600.623 245.263 592.269 244.223 569.406C238.118 568.602 222.689 568.438 220.091 572.462C221.744 577.487 216.733 590.634 218.476 594.256C220.638 598.749 225.377 603.866 240.365 615.899Z" fill="#EEBF9E"/>
<path d="M202.332 450.288C202.657 503.293 201.133 557.604 200.141 595.407L177.334 598.478C173.247 561.478 166.8 494.955 162.426 449.236L202.332 450.288Z" fill="#EEBF9E"/>
<path d="M153.587 639.991C162.174 640.109 171.235 639.104 174.873 637.743C180.2 635.752 183.377 633.651 195.578 622.685C196.747 621.632 203.215 616.561 203.705 615.851C203.705 615.851 204.637 608.623 203.959 608.571C203.08 608.928 197.176 611.687 195.115 613.38C193.474 614.737 191.829 616.092 190.594 617.202C178.761 627.838 176.29 629.316 172.254 630.827C165.426 633.379 144.023 632.832 140.897 631.064C140.897 631.064 137.698 629.877 138.014 630.404L137.778 636.358C139.284 638.118 145.072 639.873 153.587 639.991Z" fill="#2D4F65"/>
<path d="M173.563 634.285C165.623 637.256 140.224 636.782 138.374 633.685C135.849 629.456 142.543 622.931 146.222 617.892C151.203 611.069 162.165 602.243 172.244 590.265C177.383 584.159 205.959 583.459 205.271 591.16C204.912 595.19 204.447 609.707 203.55 610.847C202.13 612.651 196.237 617.11 193.085 619.943C181.208 630.619 178.27 632.524 173.563 634.285Z" fill="#4477A1"/>
<path d="M180.441 615.899C166.596 627.014 149.382 618.385 156.023 609.21C162.239 600.623 175.542 592.269 176.582 569.406C182.688 568.602 198.116 568.438 200.715 572.462C199.062 577.487 204.073 590.634 202.33 594.256C200.168 598.749 195.428 603.866 180.441 615.899Z" fill="#EEBF9E"/>
<path d="M259.989 307.444C259.989 307.444 222.753 311.81 210.257 311.81C197.762 311.81 160.525 307.444 160.525 307.444C147.806 330.726 145.386 346.033 144.26 362.423C142.363 390.046 140.864 407.538 139.266 465.209C172.098 475.834 237.608 476.912 280.817 464.901C280.004 407.144 277.698 386.941 275.906 363.539C274.486 344.987 272.721 331.168 259.989 307.444Z" fill="#3D6A95"/>
<path d="M271.37 329.117C264.358 335.28 245.916 349.767 211.302 350.614C182.963 351.308 151.65 329.613 149.573 327.769C156.363 313.158 161.247 307.358 162.6 297.155C163.59 289.682 163.146 279.753 159.41 262.096C158.585 258.192 150.384 238.619 151.22 234.685C156.93 207.819 161.26 186.524 164.124 176.287C191.462 172.985 234.128 173.835 251.963 176.513C258.301 193.346 260.637 211.287 265.247 236.462C265.876 239.896 260.056 258.674 259.532 262.096C257.566 274.952 257.234 284.509 257.775 292.177C258.833 307.15 264.551 312.462 271.37 329.117Z" fill="#60A5D0"/>
<path d="M175.426 175.212C177.227 190.397 191.867 202.288 209.875 202.288C227.726 202.288 242.269 190.604 244.277 175.608C226.828 173.972 198.307 173.519 175.426 175.212Z" fill="#EEBF9E"/>
<path d="M189.983 149.047V179.94C189.983 186.583 199.125 191.969 210.403 191.969C221.681 191.969 230.824 186.583 230.824 179.94V149.047H189.983Z" fill="#EEBF9E"/>
<path d="M213.384 221.416C213.845 219.477 212.637 217.533 210.686 217.075C208.736 216.617 206.781 217.818 206.32 219.758C205.86 221.698 207.068 223.641 209.019 224.099C210.969 224.557 212.924 223.356 213.384 221.416Z" fill="#9EE0DD"/>
<path d="M212.969 239.067C214.386 237.658 214.386 235.373 212.969 233.964C211.552 232.555 209.254 232.555 207.837 233.964C206.419 235.373 206.419 237.658 207.837 239.067C209.254 240.476 211.552 240.476 212.969 239.067Z" fill="#9EE0DD"/>
<path opacity="0.16" d="M233.263 269.497C233.263 274.157 223.431 268.754 211.303 268.754C199.174 268.754 189.343 274.157 189.343 269.497C189.343 264.837 199.175 258.299 211.303 258.299C223.43 258.299 233.263 264.837 233.263 269.497Z" fill="#3A0619"/>
<path opacity="0.18" d="M234.215 149.219C234.068 147.103 233.469 145.128 232.683 143.235C216.597 142.711 197.757 144.38 182.825 147.377C182.443 149.126 182.221 150.914 182.348 152.758C183.19 164.957 195.483 174.054 209.806 173.077C224.128 172.099 235.057 161.418 234.215 149.219Z" fill="#610B0B"/>
<path d="M284.739 67.6313C285.277 109.163 248.745 128.179 208.869 142.12C168.139 128.902 131.188 108.138 130.117 66.7902C129.411 39.5344 141.044 17.4984 158.74 16.8495C164.949 3.76447 188.352 0.263893 206.661 0.0140898C246.489 -0.529193 284.059 15.0874 284.739 67.6313Z" fill="#752A18"/>
<path d="M285.558 117.774C281.948 130.724 268.708 138.78 258.8 137.442C248.893 136.104 247.056 125.444 248.881 112.955C250.708 100.466 260.226 91.3946 270.129 92.7642C283.665 94.6365 288.95 105.602 285.558 117.774Z" fill="#EEBF9E"/>
<path d="M273.65 120.828C271.285 126.646 265.587 129.626 260.922 127.484C256.26 125.342 254.395 118.888 256.76 113.07C259.124 107.252 264.821 104.272 269.483 106.414C274.148 108.555 276.012 115.009 273.65 120.828Z" fill="#CB8C67"/>
<path d="M130.836 117.774C134.447 130.724 147.686 138.78 157.594 137.442C167.502 136.104 169.338 125.444 167.514 112.955C165.686 100.466 156.169 91.3946 146.265 92.7642C132.729 94.6365 127.444 105.602 130.836 117.774Z" fill="#EEBF9E"/>
<path d="M142.745 120.828C145.109 126.646 150.807 129.626 155.472 127.484C160.134 125.342 161.999 118.888 159.634 113.07C157.27 107.252 151.574 104.272 146.911 106.414C142.246 108.555 140.382 115.009 142.745 120.828Z" fill="#CB8C67"/>
<path d="M266.928 49.6022C274.553 75.0101 267.926 126.085 259.505 136.419C250.573 147.382 228.632 165.178 210.403 165.388C191.445 165.607 163.773 148.328 156.847 136.297C148.652 122.059 141.579 76.7693 147.551 54.3962C154.758 27.3999 179.192 19.8962 208.886 19.8643C236.666 19.8348 260.187 27.1442 266.928 49.6022Z" fill="#EEBF9E"/>
<path d="M229.8 127.413C228.908 123.033 221.76 124.168 210.085 124.094C209.474 124.09 207.098 124.09 206.487 124.094C194.811 124.168 187.663 123.033 186.772 127.413C185.053 135.847 196.325 145.06 208.183 145.094H208.388C220.247 145.06 231.518 135.847 229.8 127.413Z" fill="#611C11"/>
<path d="M208.447 145.27H208.241C204.396 145.256 200.408 144.229 196.697 142.309L196.471 142.196L196.662 142.036C199.742 139.435 203.893 138.001 208.348 138.001C212.795 138.001 216.946 139.435 220.034 142.036L220.225 142.196L219.998 142.309C216.28 144.229 212.285 145.256 208.447 145.27Z" fill="#C46B5C"/>
<path d="M208.348 129.719C200.188 129.719 193.397 127.339 192.546 124.177L192.497 123.984H224.198L224.149 124.177C223.292 127.339 216.499 129.719 208.348 129.719Z" fill="white"/>
<path d="M214.133 115.893C213.752 115.893 213.416 115.62 213.352 115.234C212.895 112.496 210.717 110.726 207.803 110.727C204.874 110.728 202.646 112.533 202.26 115.219C202.197 115.65 201.794 115.95 201.363 115.888C200.93 115.826 200.63 115.427 200.691 114.996C201.186 111.556 204.111 109.152 207.803 109.15C211.475 109.15 214.333 111.49 214.916 114.975C214.987 115.405 214.696 115.81 214.264 115.882L214.133 115.893Z" fill="#AF725C"/>
<path d="M159.145 72.247C158.529 72.2522 157.913 72.0083 157.467 71.5182C156.631 70.6068 156.697 69.1966 157.613 68.3665C164.275 62.3337 176.327 60.5568 186.269 64.129C187.436 64.5518 188.038 65.8312 187.616 66.9888C187.19 68.1522 185.901 68.7509 184.74 68.3281C176.408 65.3227 166.046 66.7559 160.636 71.6638C160.213 72.0482 159.68 72.2418 159.145 72.247Z" fill="#5E2215"/>
<path d="M255.145 72.247C255.762 72.2522 256.378 72.0083 256.824 71.5182C257.659 70.6068 257.593 69.1966 256.677 68.3665C250.015 62.3337 237.963 60.5568 228.022 64.129C226.855 64.5518 226.253 65.8312 226.675 66.9888C227.1 68.1522 228.389 68.7509 229.551 68.3281C237.882 65.3227 248.244 66.7559 253.654 71.6638C254.078 72.0482 254.611 72.2418 255.145 72.247Z" fill="#5E2215"/>
<path d="M190.664 90.3112C195.312 97.2657 194.717 104.886 190.633 107.751C184.479 112.068 169.939 113.205 164.531 106.855C159.291 100.705 161.854 89.5853 170.428 84.8585C177.934 80.7201 186.166 83.5805 190.664 90.3112Z" fill="#F9FDFF"/>
<path d="M163.594 88.1722C170.285 77.4961 186.316 81.2517 190.82 90.5471C186.175 83.5962 177.575 81.4232 170.635 85.2452C166.347 87.6105 163.293 91.8547 162.467 96.5984C161.809 100.381 162.655 104.635 164.831 107.189C162.324 105.513 158.673 96.0234 163.594 88.1722Z" fill="#8B4630"/>
<path d="M188.942 94.9111C190.843 99.7192 188.574 105.161 183.875 107.065C179.176 108.969 173.826 106.616 171.925 101.808C170.024 96.9999 172.293 91.5583 176.992 89.6535C181.691 87.7495 187.041 90.103 188.942 94.9111Z" fill="#6C2A0F"/>
<path d="M188.195 94.0806C188.722 95.4147 188.093 96.9248 186.789 97.4525C185.485 97.981 184.001 97.3284 183.473 95.9942C182.946 94.6601 183.575 93.1507 184.879 92.6223C186.183 92.0938 187.668 92.7472 188.195 94.0806Z" fill="#FDFFFD"/>
<path d="M223.597 90.3672C219.025 97.3063 219.702 104.928 223.819 107.808C230.02 112.147 244.573 113.332 249.912 107.002C255.084 100.869 252.399 89.7405 243.774 84.9841C236.222 80.8198 228.022 83.6521 223.597 90.3672Z" fill="#F9FDFF"/>
<path d="M250.646 88.3208C243.839 77.6218 227.846 81.3227 223.445 90.6025C228.014 83.6672 236.591 81.5237 243.572 85.3695C247.886 87.7502 250.986 92.0047 251.864 96.7507C252.564 100.535 251.764 104.787 249.616 107.334C252.105 105.666 255.652 96.189 250.646 88.3208Z" fill="#8B4630"/>
<path d="M242.424 95.0028C244.325 99.8109 242.057 105.252 237.358 107.157C232.659 109.061 227.309 106.708 225.408 101.9C223.507 97.0917 225.776 91.6501 230.475 89.7453C235.173 87.8413 240.523 90.1947 242.424 95.0028Z" fill="#6C2A0F"/>
<path d="M241.677 94.1724C242.205 95.5065 241.576 97.0166 240.272 97.5451C238.968 98.0728 237.484 97.4202 236.956 96.086C236.429 94.7519 237.059 93.2425 238.362 92.7141C239.666 92.1856 241.15 92.839 241.677 94.1724Z" fill="#FDFFFD"/>
<path d="M264.825 21.1438C242.465 5.57753 170.799 1.13232 145.329 25.586C139.828 35.1453 142.081 89.376 144.68 123.497C145.873 139.151 152.917 144.508 147.669 155.846C143.593 164.654 155.184 164.386 154.838 174.526C160.659 164.337 149.572 164.464 155.285 152.844C160.981 141.26 157.06 141.358 155.834 116.949C154.838 97.1185 153.364 65.2557 157.011 52.3266C158.792 46.0144 165.297 36.7241 174.565 33.3706C192.079 58.2737 199.222 63.11 216.481 65.6762C200.995 60.4269 193.252 46.6116 190.82 41.1375C190.82 41.1375 204.865 54.0244 210.64 56.6794C223.28 62.4906 258.257 58.837 260.495 65.1219C265.662 79.6334 260.004 102.023 260.791 116.949C262.119 142.12 251.334 139.705 261.433 152.27C268.837 161.483 248.255 165.39 261.786 174.526C257.935 165.39 273.033 164.654 268.955 155.846C263.708 144.508 270.753 139.151 271.945 123.497C272.94 110.419 276.5 80.125 276.627 80.1589C276.627 80.1589 281.505 32.7564 264.825 21.1438Z" fill="#752A18"/>
<path d="M215.659 328.821L210.084 328.72C211.264 263.843 220.763 228.128 228.908 204.261C234.123 188.977 239.822 179.389 246.378 175.131C248.401 173.817 255.066 174.509 254.503 176.911C247.922 177.601 240.087 188.753 234.186 206.044C226.171 229.528 216.824 264.706 215.659 328.821Z" fill="#D1802B"/>
<path d="M289.937 379.231C284.276 385.821 245.545 403.664 223.55 409.257C222.556 409.51 213.589 401.987 213.172 401.157C209.324 381.703 209.779 352.718 208.872 329.776C210.348 329.398 214.263 323.736 215.502 323.636C256.569 320.313 272.797 318.4 277.488 315.627C283.662 336.732 288.152 370.939 289.937 379.231Z" fill="#ECBD4E"/>
<path d="M223.55 409.257C222.555 409.51 209.963 405.378 208.324 401.053C207.441 380.721 206.87 349.987 207.186 326.469C208.578 325.838 214.282 323.939 215.501 323.636C218.546 344.881 222.002 397.191 223.55 409.257Z" fill="#E79A2E"/>
<g opacity="0.25">
<path d="M277.657 320.725C267.284 322.942 255.221 319.421 215.502 323.636C215.502 323.636 220.429 345.338 223.55 358.903C235.655 359.039 264.293 361.707 264.293 361.707C264.293 361.707 278.417 347.536 283.592 342.26C282.396 337.209 281.504 333.675 277.657 320.725Z" fill="#9A1C1C"/>
</g>
<path d="M278.473 314.041C268.098 316.258 255.196 318.549 215.502 323.637C215.502 323.637 219.878 340.981 224.049 353.293C235.536 354.266 265.031 356.121 265.031 356.121C265.031 356.121 279.01 344.133 284.647 338.971C283.625 334.263 281.552 326.351 278.473 314.041Z" fill="#ECBD4E"/>
<path d="M171.601 305.721L254.77 296.09L257.654 199.414L247.499 192.915C246.389 192.254 245.144 191.929 243.884 191.974L172.921 195.354C171.908 195.402 171.097 196.346 171.081 197.495L169.566 303.574C169.548 304.837 170.49 305.831 171.601 305.721Z" fill="#B81F1F"/>
<path d="M173.857 303.523L186.353 312.467L253.3 303.423L254.985 201.642L245.837 196.008L176.072 200.095L173.857 303.523Z" fill="#F3E5D6"/>
<path d="M182.382 314.785L254.972 305.158L257.654 199.414L183.931 204.902C182.395 205.012 181.179 206.447 181.145 208.191L179.155 311.455C179.117 313.453 180.629 315.014 182.382 314.785Z" fill="#DB3636"/>
<path d="M189.212 306.702L262.585 299.301L264.739 221.683L255.749 216.423C254.767 215.888 253.667 215.622 252.555 215.653L189.931 218.084C189.037 218.118 188.325 218.872 188.315 219.796L187.407 304.97C187.396 305.985 188.231 306.786 189.212 306.702Z" fill="#823C94"/>
<path d="M191.194 304.947L202.26 312.178L261.316 305.183L262.391 223.46L254.295 218.9L192.731 221.904L191.194 304.947Z" fill="#F3E5D6"/>
<path d="M198.764 314.024L262.799 306.584L264.739 221.683L199.688 225.796C198.333 225.877 197.264 227.025 197.242 228.425L195.902 311.337C195.876 312.941 197.218 314.201 198.764 314.024Z" fill="#9B50AD"/>
<path d="M185.212 306.135C193.543 306.163 202.998 305.301 220.225 302.378C232.694 300.261 234.56 290.577 232.585 284.332C231.452 280.746 217.553 263.778 211.597 261.448C207.67 259.912 199.575 257.116 198.757 257.683C194.806 260.426 199.059 265.401 205.484 268.22C207.293 269.219 208.763 270.453 210.081 273.461C209.7 275.006 197.361 268.957 191.634 267.404C187.059 266.163 174.14 268.308 173.527 269.719C172.017 273.19 182.993 274.261 187.399 275.08C188.932 275.365 193.179 277.477 195.638 279.156C192.052 279.634 185.513 279.05 183.082 279.182C178.399 279.435 168.107 278.637 166.816 281.558C165.808 283.839 172.243 285.788 180.343 286.818C182.307 287.068 189.572 288.205 194.288 289.082C194.285 289.28 183.119 290.138 181.552 289.899C176.902 289.188 170.675 287.649 168.065 291.551C167.352 292.618 177.251 296.889 182.109 297.215C184.277 297.361 189.049 297.87 194.803 297.875C191.503 298.649 185.269 299.332 183.955 299.459C177.112 297.337 174.298 296.723 172.287 299.615C171.665 300.509 181.241 306.121 185.212 306.135Z" fill="#EFC09F"/>
<path d="M214.035 298.683C212.147 298.664 212.713 278.475 214.588 278.233C241.257 274.783 282.385 269.887 290.836 268.691C292.487 284.805 292.008 288.829 283.416 292.795C272.211 297.967 240.018 298.948 214.035 298.683Z" fill="#EEBF9E"/>
</g>
<defs>
<clipPath id="clip0_1922_339">
<rect width="310.857" height="640" fill="white"/>
</clipPath>
</defs>
</svg>
