<svg width="240" height="480" viewBox="0 0 240 480" fill="none" xmlns="http://www.w3.org/2000/svg">
<path d="M45.8638 308.125C53.7738 312.722 60.3491 316.056 68.5774 318.738C84.0772 322.806 177.725 316.953 178.613 309.393C180.419 200.97 185.199 182.817 165.68 174.353C154.999 173.467 101.537 174.7 68.5979 175.753C54.0075 176.22 45.2398 176.943 44.8513 208.148C44.8416 208.957 50.1678 209.003 50.9184 209.132C50.9428 233.681 46.9493 290.931 45.8638 308.125Z" fill="#426FAD"/>
<path d="M52.058 198.351C52.2731 195.45 53.603 181.983 62.4894 181.8C72.0895 181.6 72.3436 194.913 72.512 199.497C73.3512 222.351 70.892 272.213 67.7738 317.212C60.6348 314.496 53.4784 310.958 46.4221 306.415C48.7294 264.921 50.4886 219.567 52.058 198.351Z" fill="#3A1F25"/>
<path d="M52.0788 196.966C56.6047 197.294 70.8515 197.211 72.4403 197.695C73.2941 219.679 71.2322 275.421 68.1422 318.707C61.0013 316.1 52.5879 313.03 45.5288 308.667C47.8098 268.751 49.497 218.477 52.0788 196.966Z" fill="#5082BD"/>
<path d="M70.8837 271.68C70.098 290.004 69.3766 301.412 68.1422 318.708C61.0013 316.101 52.5879 313.03 45.5288 308.667C46.2667 295.763 46.9687 280.301 47.6316 266.553C52.5539 268.427 65.1544 270.493 70.8837 271.68Z" fill="#426FAD"/>
<path d="M70.8523 272.196C70.1144 287.934 69.1895 304.032 68.142 318.707C66.595 318.717 65.2564 319.401 63.7387 319.039C57.028 317.444 51.7398 313.664 45.5033 309.819C41.2139 307.175 44.7799 276.927 46.0572 267.873C46.2383 266.59 47.2975 265.973 47.6918 266.002C46.6959 274.028 63.066 275.143 70.8523 272.196Z" fill="#5082BD"/>
<path d="M69.1713 273.386C69.8255 273.223 70.2558 273.105 70.837 272.896L70.8886 271.822C64.8994 274.005 53.766 273.631 49.5973 270.188C48.3005 269.104 47.5071 267.519 47.6921 266.002C47.6921 266.002 47.0408 265.958 46.7292 266.439C47.0515 268.784 47.361 269.702 48.944 271.016C53.0504 274.421 62.7079 274.988 69.1713 273.386Z" fill="#96C6EA"/>
<path d="M211.152 83.4544C213.243 167.709 173.256 195.822 123.201 197.03C75.1123 198.19 33.4886 168.153 36.1142 82.9144C37.5687 35.6804 78.4564 25.9975 122.788 25.8881C167.121 25.7787 209.98 36.2105 211.152 83.4544Z" fill="#352E2B"/>
<path d="M111.448 441.618C111.262 444.596 86.8397 446.101 86.7092 443.111C85.4465 414.069 82.0771 334.359 80.9692 322.825L116.203 327.565C114.334 356.046 112.733 420.971 111.448 441.618Z" fill="#EFC09F"/>
<path d="M112.743 458.745C112.642 459.555 82.3419 458.221 82.2874 457.235C81.86 449.462 81.3294 437.305 80.9692 433.112L114.621 435.166C113.573 444.159 113.385 453.572 112.743 458.745Z" fill="#FDF8B5"/>
<path d="M72.9348 449.203C73.4002 447.418 74.3776 445.155 75.1321 443.085C75.6909 441.551 90.4858 441.671 90.5569 445.35C90.5754 446.291 90.5442 447.122 90.4741 447.876C93.0043 447.881 95.7488 447.827 98.647 447.696C104.947 447.41 110.592 446.845 114.55 446.172C114.854 451.988 114.435 462.064 114.72 468.528C114.72 468.528 48.832 481.586 38.3528 471.985C35.4 469.279 51.8685 457.009 72.9348 449.203Z" fill="#EDB52A"/>
<path d="M114.628 464.475C114.642 465.912 114.665 467.298 114.72 468.529C114.72 468.529 48.8316 481.587 38.3524 471.986C37.9367 471.604 37.9124 471.03 38.2268 470.307C56.4671 474.155 98.2446 467.407 114.628 464.475Z" fill="#C86B19"/>
<path d="M77.3475 454.738C77.5383 454.99 77.8313 455.116 78.1224 455.103C78.3045 455.095 78.4866 455.032 78.6423 454.912C79.0473 454.597 79.1233 454.011 78.8127 453.601C76.2221 450.182 71.7419 448.424 67.9159 449.299C67.4184 449.415 67.1078 449.917 67.2217 450.42C67.3356 450.923 67.8263 451.228 68.3287 451.123C71.4732 450.379 75.1814 451.88 77.3475 454.738ZM72.7018 457.06C72.8926 457.261 73.1525 457.357 73.4086 457.346C73.6247 457.336 73.8389 457.249 74.0073 457.086C74.3753 456.728 74.386 456.134 74.0326 455.763C71.0857 452.66 67.0835 451.159 63.0472 451.674C62.541 451.737 62.1817 452.204 62.244 452.716C62.3063 453.229 62.7736 453.628 63.274 453.529C65.3058 453.274 69.2243 453.398 72.7018 457.06ZM56.9635 455.406C57.0531 455.914 57.5194 456.263 58.0364 456.16C61.103 455.555 65.1617 457.046 67.8701 459.68C68.0609 459.865 68.3082 459.95 68.5516 459.939C68.7804 459.929 69.0053 459.833 69.1766 459.653C69.53 459.281 69.5183 458.69 69.1503 458.331C66.0399 455.309 61.3435 453.651 57.7083 454.322C57.2069 454.412 56.873 454.899 56.9635 455.406Z" fill="#C86B19"/>
<path d="M135.382 441.618C135.567 444.596 159.99 446.101 160.119 443.111C161.383 414.069 164.751 334.359 165.86 322.825L130.627 327.565C132.495 356.046 134.096 420.971 135.382 441.618Z" fill="#EFC09F"/>
<path d="M134.086 458.745C134.186 459.555 164.487 458.221 164.541 457.235C164.969 449.462 165.498 437.305 165.86 433.112L132.207 435.166C133.256 444.159 133.444 453.572 134.086 458.745Z" fill="#FDF8B5"/>
<path d="M173.895 449.203C173.428 447.418 172.451 445.155 171.697 443.085C171.138 441.551 156.344 441.671 156.273 445.35C156.254 446.291 156.285 447.122 156.355 447.876C153.824 447.881 151.08 447.827 148.183 447.696C141.883 447.41 136.237 446.845 132.28 446.172C131.975 451.988 132.395 462.064 132.109 468.528C132.109 468.528 197.998 481.586 208.476 471.985C211.429 469.279 194.96 457.009 173.895 449.203Z" fill="#EDB52A"/>
<path d="M132.2 464.475C132.187 465.912 132.163 467.298 132.109 468.529C132.109 468.529 197.998 481.587 208.476 471.986C208.892 471.604 208.916 471.03 208.602 470.307C190.362 474.155 148.585 467.407 132.2 464.475Z" fill="#C86B19"/>
<path d="M178.501 451.123C179.003 451.228 179.494 450.923 179.607 450.42C179.722 449.917 179.41 449.415 178.914 449.299C175.088 448.424 170.608 450.182 168.017 453.601C167.706 454.011 167.782 454.597 168.187 454.912C168.342 455.032 168.525 455.095 168.707 455.103C168.998 455.116 169.29 454.99 169.481 454.738C171.648 451.88 175.357 450.379 178.501 451.123ZM183.556 453.529C184.056 453.628 184.523 453.229 184.586 452.716C184.648 452.204 184.289 451.737 183.782 451.674C179.745 451.159 175.744 452.66 172.797 455.763C172.444 456.134 172.454 456.728 172.822 457.086C172.99 457.249 173.205 457.336 173.421 457.346C173.677 457.357 173.937 457.261 174.128 457.06C177.605 453.398 181.524 453.274 183.556 453.529ZM189.121 454.322C185.486 453.651 180.789 455.309 177.678 458.331C177.31 458.69 177.299 459.281 177.653 459.653C177.823 459.833 178.048 459.929 178.278 459.939C178.521 459.95 178.769 459.865 178.96 459.68C181.668 457.046 185.727 455.555 188.792 456.16C189.309 456.263 189.776 455.914 189.866 455.406C189.956 454.899 189.623 454.412 189.121 454.322Z" fill="#C86B19"/>
<path d="M159.855 247.021C157.254 230.559 170.322 200.574 170.473 199.791C172.416 200.272 177.462 203.278 179.695 206.462C186.403 216.021 189.819 221.325 204.795 243.333C202.91 245.838 181.186 260.21 172.608 268.257C168.039 261.401 161.571 251.079 159.855 247.021Z" fill="#BC225C"/>
<path d="M202.015 235.153L165.269 260.663L171.753 270.232L208.498 244.722L202.015 235.153Z" fill="#DF5FA4"/>
<path d="M168.222 199.92C150.548 197.543 100.58 197.779 79.8207 200.864C78.4948 221.366 65.7239 355.891 65.7239 355.891C110.822 365.384 155.322 364.173 185.653 353.871C183.781 344.955 171.201 222.261 168.222 199.92Z" fill="#69B0AD"/>
<path d="M99.8347 204.662C99.8347 202.671 100.504 200.783 101.626 199.035C116.472 198.33 134.089 198.22 148.478 198.654C149.755 200.501 150.462 202.531 150.462 204.662C150.462 213.198 139.129 220.118 125.149 220.118C111.169 220.118 99.8347 213.198 99.8347 204.662Z" fill="#EFC09F"/>
<path opacity="0.66" d="M183.497 337.346C146.961 341.882 106.049 341.621 67.4644 337.481C67.3894 338.276 67.3135 339.072 67.2415 339.824C92.9302 342.582 119.658 343.755 145.501 342.849C158.661 342.386 171.391 341.214 183.77 339.669C183.682 338.913 183.591 338.15 183.497 337.346ZM148.729 250.108C157.203 249.811 165.533 249.245 173.729 248.51C173.641 247.693 173.553 246.888 173.464 246.081C143.041 248.816 110.314 248.497 78.7867 245.572C78.6367 246.362 78.4878 247.153 78.3379 247.948C101.583 250.108 125.529 250.923 148.729 250.108ZM149.271 226.509C156.38 226.26 163.376 225.803 170.298 225.248C170.177 224.427 170.081 223.672 169.966 222.872C141.964 225.121 112.136 224.855 83.2182 222.376C83.0683 223.149 82.9164 223.93 82.7636 224.721C104.784 226.614 127.366 227.279 149.271 226.509ZM148.289 273.482C157.787 273.149 167.089 272.454 176.229 271.566C176.142 270.759 176.054 269.949 175.967 269.142C143.483 272.298 108.217 271.916 74.4894 268.552C74.3415 269.352 74.1925 270.152 74.0446 270.952C98.4872 273.392 123.805 274.342 148.289 273.482ZM146.462 295.876C157.439 295.491 168.145 294.634 178.609 293.5C178.524 292.712 178.437 291.917 178.352 291.124C144.467 294.766 107.269 294.417 71.8327 290.825C71.7577 291.641 71.6798 292.461 71.6059 293.272C96.2393 295.76 121.772 296.743 146.462 295.876ZM143.263 319.834C156.312 319.377 168.944 318.291 181.173 316.829C181.075 315.962 180.979 315.094 180.882 314.209C145.637 318.3 106.693 318.082 69.649 314.219C69.5546 315.233 69.4582 316.245 69.3667 317.236C93.8746 319.753 119.037 320.685 143.263 319.834Z" fill="white"/>
<path d="M104.989 200.981C104.989 200.981 102.74 268.798 101.093 281.349C97.6518 282.882 79.5421 281.07 68.0183 277.862C69.9634 264.057 74.2353 219.953 77.2805 200.122C84.1391 198.972 94.0838 198.103 105.335 197.646C105.116 198.688 104.989 199.796 104.989 200.981Z" fill="#BC225C"/>
<path d="M145.664 197.879C158.047 198.315 166.85 198.823 170.473 199.646C173.125 224.49 175.698 246.008 180.465 277.094C172.053 278.841 154.725 282.027 150.417 281.897C149.854 268.192 145.921 199.051 145.664 197.879Z" fill="#BC225C"/>
<path d="M106.759 171.467V203.269C106.784 210.092 115.428 215.593 125.995 215.555C136.564 215.515 145.054 209.952 145.03 203.128V171.467H106.759Z" fill="#EFC09F"/>
<path opacity="0.19" d="M105.346 181.374C105.283 179.977 105.515 178.632 105.847 177.309C120.005 176.341 141.271 176.03 156.437 177.254C156.553 177.856 156.806 178.418 156.833 179.044C157.31 189.84 146.171 199.112 131.952 199.755C117.735 200.399 105.822 192.169 105.346 181.374Z" fill="#541E0F"/>
<path d="M220.36 140.829C215.682 158.71 198.438 169.875 185.518 168.068C172.597 166.259 170.179 151.559 172.53 134.321C174.885 117.084 187.274 104.533 200.189 106.383C217.841 108.915 224.755 124.023 220.36 140.829Z" fill="#EFC09F"/>
<path d="M204.188 143.814C203.154 151.371 196.979 156.752 190.393 155.831C183.811 154.909 179.308 148.035 180.342 140.477C181.374 132.919 187.549 127.541 194.132 128.461C200.718 129.381 205.218 136.256 204.188 143.814Z" fill="#CD946E"/>
<path d="M29.8506 141.299C34.6151 159.156 51.912 170.236 64.824 168.365C77.7351 166.494 80.0833 151.781 77.6494 134.556C75.2117 117.33 62.7621 104.839 49.8568 106.753C32.2163 109.373 25.3743 124.514 29.8506 141.299Z" fill="#EFC09F"/>
<path d="M46.0369 144.204C47.1068 151.757 53.3082 157.106 59.8894 156.153C66.4676 155.2 70.9361 148.303 69.8662 140.75C68.7982 133.198 62.5968 127.85 56.0195 128.802C49.4375 129.755 44.9709 136.652 46.0369 144.204Z" fill="#CD946E"/>
<path d="M210.352 86.2643C211.053 143.569 174.551 169.244 124.754 169.096C74.9551 168.949 34.5921 143.074 35.5092 85.7726C36.1868 43.4362 69.7846 18.2977 121.905 17.9725C171.465 17.6631 209.825 43.2204 210.352 86.2643Z" fill="#352E2B"/>
<path d="M192.991 75.5199C201.916 103.918 194.343 155.844 184.591 167.427C174.246 179.715 145.475 194.492 124.303 194.78C102.284 195.079 73.43 181.023 65.3526 167.585C55.7963 151.683 47.4725 106.268 54.3496 81.2246C62.6481 51.0082 91.0082 42.5452 125.497 42.425C157.762 42.3117 185.102 50.4198 192.991 75.5199Z" fill="#EFC09F"/>
<path d="M66.2305 146.437C66.0124 149.848 70.516 152.919 76.292 153.299C82.0661 153.678 86.926 151.221 87.145 147.812C87.3641 144.402 82.8576 141.33 77.0845 140.95C71.3085 140.571 66.4495 143.028 66.2305 146.437Z" fill="#E79696"/>
<path d="M162.496 147.935C162.749 151.342 167.634 153.748 173.405 153.308C179.174 152.868 183.648 149.75 183.395 146.342C183.141 142.935 178.256 140.529 172.487 140.969C166.715 141.409 162.242 144.528 162.496 147.935Z" fill="#E79696"/>
<path d="M151.216 153.414C150.091 147.562 141.207 149.101 126.688 149.038C125.928 149.035 122.974 149.042 122.214 149.048C107.696 149.183 98.8034 147.689 97.7092 153.545C95.5995 164.827 109.646 177.11 124.391 177.119H124.646C139.391 177.037 153.378 164.685 151.216 153.414Z" fill="#611C11"/>
<path d="M124.644 177.353H124.389C119.607 177.347 114.645 175.987 110.024 173.431L109.742 173.28L109.979 173.065C113.802 169.579 118.959 167.649 124.498 167.635C130.029 167.622 135.194 169.526 139.043 172.993L139.281 173.207L139 173.359C134.381 175.938 129.418 177.323 124.644 177.353Z" fill="#C46B5C"/>
<path d="M124.471 156.564C114.326 156.589 105.872 153.428 104.805 149.204L104.742 148.897H144.164L144.103 149.107C143.047 153.336 134.609 156.539 124.471 156.564Z" fill="white"/>
<path d="M130.12 141.506C129.736 141.507 129.396 141.227 129.33 140.831C128.86 138.014 126.655 136.2 123.711 136.208C120.751 136.216 118.505 138.079 118.121 140.844C118.059 141.286 117.652 141.596 117.217 141.533C116.779 141.471 116.474 141.061 116.535 140.618C117.027 137.077 119.976 134.597 123.708 134.587C127.418 134.576 130.312 136.978 130.91 140.56C130.983 141.002 130.689 141.42 130.253 141.495L130.12 141.506Z" fill="#B0725C"/>
<path d="M176.222 89.7625C176.844 89.8019 177.479 89.5841 177.955 89.1052C178.847 88.2144 178.857 86.7628 177.978 85.8592C171.581 79.3011 159.515 76.8217 149.291 79.9515C148.091 80.322 147.414 81.6031 147.778 82.8152C148.144 84.0342 149.412 84.7191 150.608 84.3476C159.176 81.7125 169.556 83.7474 174.749 89.0826C175.155 89.5004 175.683 89.728 176.222 89.7625Z" fill="#352E2B"/>
<path d="M69.3395 90.0256C68.7175 90.068 68.0817 89.8542 67.6028 89.3772C66.7061 88.4913 66.6905 87.0387 67.5658 86.1311C73.9308 79.5415 85.9841 77.003 96.2229 80.0825C97.4242 80.4471 98.1076 81.7253 97.7494 82.9393C97.3892 84.1593 96.1245 84.8501 94.9281 84.4845C86.3463 81.8918 75.9771 83.978 70.8086 89.3387C70.4046 89.7586 69.8779 89.9892 69.3395 90.0256Z" fill="#352E2B"/>
<path d="M180.594 31.8862C179.671 36.0064 144.088 39.146 123.442 40.3777C104.454 41.511 77.5202 42.8749 69.4807 56.5064C73.3554 55.8984 87.9507 61.7598 91.3298 63.3473C94.452 64.8146 117.989 82.5496 153.547 72.3375C145.968 71.9749 124.013 75.8841 102.656 63.3582C108.206 65.0541 116.234 66.6387 124.599 67.8538C160.34 73.05 181.093 48.8121 180.594 31.8862Z" fill="#352E2B"/>
<path d="M108.983 133.845C108.983 133.845 94.891 137.435 83.6914 132.477C74.6482 128.474 68.7447 117.954 70.5535 113.88C72.302 109.943 84.6815 108.025 92.868 112.882C104.427 119.74 108.983 133.845 108.983 133.845Z" fill="#FAFEFF"/>
<path d="M86.3688 111.028C86.4943 110.962 86.6287 110.934 86.7562 110.874C89.0032 111.383 91.2034 112.178 93.1787 113.35C96.8966 115.556 99.937 118.446 102.404 121.427C102.245 125.325 100.125 129.033 96.4488 130.939C91.0174 133.757 84.3565 131.584 81.5731 126.085C78.7888 120.586 80.9364 113.845 86.3688 111.028Z" fill="#40221B"/>
<path d="M98.9192 118.283C99.5988 119.625 99.075 121.268 97.75 121.956C96.425 122.643 94.8002 122.113 94.1207 120.772C93.4421 119.431 93.9659 117.786 95.2909 117.099C96.6158 116.411 98.2407 116.941 98.9192 118.283Z" fill="#FAFEFF"/>
<path d="M73.9701 124.514C71.8352 121.359 70.113 115.872 71.068 114.112C71.5957 113.139 72.9372 112.143 74.9612 111.488C79.6069 109.988 87.1519 110.153 92.5822 113.373C96.6234 115.77 100.519 119.267 103.947 123.835C101.882 119.76 98.3661 115.307 94.4008 112.84C82.2433 105.279 69.5444 110.376 68.9457 111.722C67.8982 114.082 70.3476 120.849 73.9701 124.514Z" fill="#6C2F1F"/>
<path d="M139.338 133.664C139.338 133.664 153.468 137.096 164.613 132.014C173.612 127.912 179.402 117.326 177.548 113.272C175.757 109.355 163.358 107.575 155.224 112.523C143.741 119.509 139.338 133.664 139.338 133.664Z" fill="#FAFEFF"/>
<path d="M161.704 110.597C161.576 110.533 161.443 110.506 161.315 110.447C159.073 110.982 156.881 111.801 154.918 112.995C151.226 115.241 148.217 118.165 145.783 121.175C145.982 125.071 148.145 128.754 151.84 130.619C157.302 133.376 163.938 131.13 166.662 125.6C169.386 120.071 167.166 113.354 161.704 110.597Z" fill="#40221B"/>
<path d="M149.233 117.993C148.568 119.341 149.11 120.979 150.442 121.652C151.775 122.324 153.393 121.777 154.057 120.427C154.722 119.079 154.18 117.441 152.848 116.768C151.516 116.096 149.897 116.643 149.233 117.993Z" fill="#FAFEFF"/>
<path d="M174.248 123.944C176.348 120.766 178.011 115.26 177.037 113.511C176.498 112.543 175.147 111.562 173.116 110.93C168.454 109.483 160.911 109.731 155.516 113.011C151.501 115.453 147.644 118.993 144.265 123.599C146.286 119.502 149.754 115.009 153.692 112.499C165.766 104.802 178.52 109.757 179.133 111.097C180.207 113.445 177.831 120.239 174.248 123.944Z" fill="#6C2F1F"/>
<path d="M238.994 81.7675C233.775 78.7806 231.256 74.1471 228.582 69.2397C224.182 61.1541 219.633 52.7887 203.224 52.3946C202.124 52.3443 201.221 53.2469 201.195 54.3536C201.175 55.1627 201.71 55.7391 202.386 56.0732C201.957 57.0429 202.32 58.1939 203.27 58.6748C215.205 64.7588 215.777 73.8003 216.383 83.3689C216.915 91.7018 217.462 100.322 225.906 106.283C226.294 106.555 226.742 106.671 227.177 106.641C227.751 106.601 228.308 106.301 228.665 105.786C229.292 104.877 229.07 103.626 228.174 102.992C221.294 98.1347 220.851 91.1745 220.342 83.1107C219.766 74.0515 218.978 63.9183 207.855 56.8123C218.15 58.4018 221.415 64.3785 225.112 71.176C227.929 76.3535 230.843 81.7113 237.042 85.2618C237.395 85.4629 237.779 85.5447 238.155 85.5181C238.797 85.4728 239.402 85.1111 239.744 84.5031C240.28 83.5374 239.949 82.3144 238.994 81.7675Z" fill="#C72828"/>
<path d="M224.242 47.4752C231.247 39.7504 228.492 28.2838 224.55 24.0395C230.13 36.2826 224.562 43.1551 223.283 44.4292C227.939 34.7828 224.697 23.8287 214.445 17.9614C204.067 12.0221 189.615 15.8358 184.961 25.4822C180.306 35.1277 185.111 47.1895 195.693 52.4222C199.274 54.193 203.054 55.9096 206.674 55.7687C216.643 57.8726 227.979 54.0954 229 47.9236C226.623 50.1793 220.718 52.6833 217.569 52.2349C219.9 51.1293 222.291 49.6265 224.242 47.4752Z" fill="#352E2B"/>
<path d="M184.016 33.0241C184.969 33.0478 185.865 33.6292 186.248 34.5792C189.824 43.4067 199.255 52.0707 204.465 52.9743C205.814 53.2079 206.722 54.5047 206.49 55.8706C206.258 57.2413 204.984 58.1351 203.629 57.9202C196.154 56.6234 185.682 46.4044 181.663 36.483C181.147 35.2019 181.749 33.7376 183.015 33.2104C183.342 33.0764 183.683 33.0162 184.016 33.0241Z" fill="#C72828"/>
<path d="M178.851 17.4314C177.669 23.0524 175.052 25.1868 170.606 27.003C174.593 15.4596 168.825 0.0108675 150.265 0C155.411 9.92043 144.977 18.6474 122.237 19.0111C98.5971 19.3895 67.7739 21.2796 60.3 46.085C64.534 45.2424 83.0516 49.6592 86.827 51.3778C90.3162 52.9663 122.317 70.4499 157.29 60.8616C148.947 60.7128 124.582 63.0562 100.292 46.3925C106.458 48.1594 115.343 49.7084 124.583 50.818C164.068 55.56 191.125 42.8045 178.851 17.4314Z" fill="#352E2B"/>
<path d="M43.5069 56.7151L43.5935 56.5732C43.6325 56.3328 43.4796 56.1425 43.4397 55.9149C43.4066 55.6922 43.4923 55.4705 43.3842 55.2596L43.2616 55.1561C43.1146 54.9117 42.8751 54.7994 42.6424 54.6319C42.4214 54.4772 42.2568 54.2909 41.9969 54.2288L41.8596 54.1421C31.2695 52.4472 25.0817 61.6581 19.1256 70.6128C14.0641 78.2272 9.28114 85.4219 2.24927 85.8417L1.97376 85.8526C0.840533 85.9205 -0.0395061 86.8951 0.00136801 88.0491C0.0500196 89.2227 1.01967 90.1343 2.17429 90.0909C2.28626 90.084 2.39823 90.0771 2.5053 90.0712C11.5991 89.5292 17.1872 81.1204 22.5972 72.9817C26.2227 67.5234 29.7264 62.3439 34.0032 59.8182C29.264 65.6845 27.3841 73.8331 25.5792 81.8063C23.1687 92.4776 20.8877 102.555 12.2164 106.819C11.1756 107.327 10.7424 108.596 11.2496 109.65C11.6283 110.446 12.4325 110.891 13.2542 110.841C13.5199 110.826 13.7925 110.758 14.0457 110.628C24.5248 105.483 27.1349 93.9302 29.6641 82.7553C32.0259 72.3047 34.2573 62.4375 42.4905 58.1164L42.6112 57.9725C42.8341 57.8336 42.9345 57.6069 43.0902 57.3951C43.2547 57.1655 43.4436 56.989 43.5069 56.7151Z" fill="#C72828"/>
<path d="M58.3624 24.0573C64.5268 33.5293 61.099 46.8258 50.7074 53.7545C40.3159 60.6831 26.8937 58.6205 20.7302 49.1475C14.5658 39.6755 17.9936 26.379 28.3851 19.4503C38.7767 12.5217 52.1989 14.5843 58.3624 24.0573Z" fill="#352E2B"/>
<path d="M38.4208 55.9622C36.0659 57.8089 27.858 58.547 21.4365 54.9048C11.889 49.4898 10.9184 37.0595 13.4934 31.4839C13.0417 51.2833 32.3099 54.828 38.4208 55.9622Z" fill="#352E2B"/>
<path d="M61.3241 31.931C61.6697 31.8807 62.0319 31.9004 62.3882 31.999C63.7706 32.3882 64.5757 33.8358 64.197 35.2341C61.1634 46.3302 50.3036 57.4913 42.9855 59.6898C41.6567 60.0662 40.171 59.3084 39.7573 57.917C39.3494 56.5246 40.1341 55.0622 41.5097 54.6493C46.7697 53.0726 56.5128 43.635 59.192 33.8289C59.4744 32.7923 60.3359 32.0758 61.3241 31.931Z" fill="#C72828"/>
<path d="M178.358 280.795C178.652 283.019 179.013 286.629 177.754 286.224C161.586 279.458 161.071 257.338 160.017 236.467L164.873 236.206C165.694 252.426 166.836 264.928 169.616 271.076C171.836 275.983 176.555 280.336 178.358 280.795Z" fill="#334277"/>
<path d="M156.371 238.864L167.904 238.601L169.008 237.576C169.008 237.576 167.694 199.916 163.691 197.92C161.274 196.716 154.986 196.282 152.359 196.693C152.169 196.903 151.943 197.439 151.769 197.751C154.831 200.487 156.371 238.864 156.371 238.864Z" fill="#334277"/>
<path d="M157.342 237.841L169.009 237.576C169.009 237.576 167.525 200.639 164.325 197.79C163.197 196.785 151.853 195.254 152.359 196.693C155.928 199.945 157.342 237.841 157.342 237.841Z" fill="#5082BD"/>
<path d="M61.0536 296.458C62.2053 297.599 76.049 284.425 75.0015 283.186C59.3499 264.658 41.4922 236.697 37.9272 230.75C37.9272 230.75 23.5266 241.101 24.2587 254.672C24.8418 265.477 45.843 281.387 61.0536 296.458Z" fill="#EFC09F"/>
<path d="M32.7395 233.319C38.607 239.943 51.5541 257.205 59.3317 262.29C65.4592 257.859 74.7244 250.789 75.8031 249.901C83.4765 232.396 94.0929 199.35 94.1873 198.398C76.9674 199.632 73.6301 200.005 69.9978 201.512C61.7091 207.736 45.0509 223.175 32.7395 233.319Z" fill="#BC225C"/>
<path d="M79.7281 285.492C95.3826 280.843 98.6138 261.861 98.3422 235.084H93.4793C93.8094 267.941 87.6313 281.4 71.8473 281.59L71.4978 286.512C73.6357 286.368 77.931 286.026 79.7281 285.492Z" fill="#334277"/>
<path d="M89.1986 239.365H100.735L101.856 238.358C101.856 238.358 101.073 199.362 97.0356 197.438C93.9651 195.977 85.3853 196.567 84.6182 197.515C88.3585 200.878 89.1986 239.365 89.1986 239.365Z" fill="#334277"/>
<path d="M90.187 238.358H101.856C101.856 238.358 100.969 199.658 97.5401 197.096C96.4799 196.305 85.3874 195.722 85.8703 197.169C89.3867 200.48 90.187 238.358 90.187 238.358Z" fill="#5082BD"/>
<path d="M177.04 218.872C176.248 217.803 164.492 226.572 165.18 227.711C175.47 244.736 183.286 266.254 185.36 271.554C188.831 274.422 204.962 271.446 205.996 259.868C206.798 250.878 187.498 233.002 177.04 218.872Z" fill="#EFC09F"/>
<path d="M152.053 228.434C152.873 230.437 155.914 231.064 158.844 229.835C161.774 228.607 163.486 225.986 162.666 223.984C161.846 221.98 158.806 221.354 155.876 222.583C152.945 223.811 151.234 226.431 152.053 228.434Z" fill="#CB866A"/>
<path d="M150.792 215.481C151.878 214.612 156.212 213.079 159.668 212.361C150.364 211.46 149.064 218.173 147.966 216.767C146.815 215.293 146.925 211.039 148.872 209.48C150.247 208.381 156.213 206.159 160.018 205.458C152.889 204.038 148.995 209.331 148.359 207.705C147.677 205.959 148.907 202.965 151.014 201.637C153.931 199.8 165.327 199.079 167.231 200.663C169.412 202.475 174.292 211.522 177.22 219.594C180.625 228.98 182.532 239.818 176.839 242.205C165.428 246.988 165.551 234.044 164.045 226.315C154.009 224.168 153.411 228.666 152.73 229.469C151.325 228.242 150.619 223.685 153.828 221.144C154.667 220.48 157.43 219.419 160.233 218.636C152.223 217.884 151.315 223.83 150.254 222.472C149.104 220.998 149.022 216.897 150.792 215.481Z" fill="#EEBF9E"/>
<path d="M100.459 276.66C96.9217 277.5 89.6027 275.342 85.8867 276.682C85.8867 276.682 85.6676 276.819 85.5469 276.946C93.0811 277.769 99.1979 281.288 105.095 283.17C106.553 291.632 95.8684 285.778 84.5315 283.534C91.1973 285.922 95.3884 288.327 100.021 289.747C103.436 293.404 101.705 295.865 96.9743 294.937C93.3197 294.219 87.0101 291.812 80.4261 290.349C79.8293 290.483 93.7704 297.219 94.963 300.514C94.4363 302.176 91.4641 303.142 87.1951 301.086C84.8849 299.973 82.5114 298.243 77.1716 296.46C72.4908 296.761 68.3571 299.271 66.4665 299.918C59.3899 301.429 56.3086 291.599 56.3485 289.553C56.4507 284.237 66.1881 274.464 72.0235 272.743C81.8046 269.856 86.645 268.139 102.014 272.509C104.673 274.355 102.18 276.251 100.459 276.66Z" fill="#EFC09F"/>
<path d="M69.6898 257.622L38.5103 225.402L30.3213 233.522L61.5008 265.742L69.6898 257.622Z" fill="#DF5FA4"/>
</svg>
