<svg width="244" height="400" viewBox="0 0 244 400" fill="none" xmlns="http://www.w3.org/2000/svg">
<g clip-path="url(#clip0_1926_3606)">
<path d="M73.8566 41.5991C56.4038 71.5502 40.4982 94.0667 30.2488 100.753C30.3436 100.933 30.4397 101.427 30.6468 101.598C41.679 94.9043 55.1963 76.4018 60.149 69.7692C57.7559 76.3515 38.416 100.586 33.1137 104.986C34.0144 106.388 41.7913 119.407 42.7285 120.745C44.1017 119.738 50.0168 115.157 51.9186 113.671C50.8579 116.228 47.0129 124.339 46.0617 125.276C83.9643 176.8 153.363 175.758 198.687 161.177C198.148 159.428 198.1 154.518 198.382 152.848C199.248 154.162 202.3 159.331 203.259 159.668C211.67 156.507 220.174 152.043 226.228 148.276C225.132 145.374 219.814 133.52 219.709 126.561C222.704 133.128 227.941 143.48 230.465 145.38C232.019 144.235 235.768 141.56 237.053 140.407C227.704 123.74 221.811 107.198 220.786 93.0621C221.734 96.2844 229.131 121.554 241.261 135.585C241.503 135.456 243.325 134.136 243.353 133.817C235.266 121.565 226.558 97.208 214.784 49.3602C172.042 42.748 96.908 40.0594 73.8566 41.5991Z" fill="#662D1A"/>
<path d="M80.2906 227.174C79.0607 237.565 75.42 246.919 71.2276 245.764C69.1882 245.201 63.9428 243.838 61.6556 241.532C56.0886 235.919 67.1847 207.163 71.5217 207.109C82.0815 206.977 81.5213 216.781 80.2906 227.174Z" fill="#ECB42A"/>
<path d="M166.268 237.24C165.239 247.655 166.859 257.624 171.323 257.481C173.496 257.411 179.064 257.312 181.865 255.601C188.683 251.435 183.799 220.811 179.453 219.741C168.871 217.137 167.296 226.824 166.268 237.24Z" fill="#ECB42A"/>
<path d="M177.075 260.502C166.682 266.749 74.5517 256.439 68.063 250.878C68.063 250.878 81.0798 177.638 88.6286 157.49C106.608 154.99 149.707 156.489 169.492 164.899C174.861 183.618 177.075 260.502 177.075 260.502Z" fill="#7A3B2F"/>
<path d="M15.8167 136.307C15.1912 137.3 13.4326 137.513 10.7011 137.941C8.33602 138.312 4.77117 138.756 3.46892 140.064C2.07822 141.463 3.51035 142.928 6.25737 143.499C10.7938 144.441 21.1127 146.183 26.2929 146.667C35.0695 148.077 43.9935 142.063 45.0114 133.47C46.5383 120.583 46.3712 115.487 47.0297 107.533C47.1919 105.571 43.1708 106.951 41.9816 109.346C39.436 114.473 40.1802 116.463 38.6701 118.981C37.198 121.436 35.0491 120.6 33.0252 118.764C25.7074 106.95 22.7168 99.3383 18.6479 99.7678C15.3498 100.673 19.3366 109.522 24.2711 119.285C15.4748 111.536 7.80459 106.077 6.21662 108.759C4.33732 111.931 11.7942 118.765 18.0554 125.606C9.32444 124.457 0.59208 120.68 0.00798907 125.428C-0.419546 128.897 17.5788 133.51 15.8167 136.307Z" fill="#EEBF9E"/>
<path d="M176.661 248.603C175.389 247.688 172.111 241.565 168.076 236.077C182.226 228.525 185.641 219.203 183.794 214.86C179.28 204.252 160.005 195.927 146.141 185.553C149.88 183.624 166.106 175.001 173.968 176.961C187.429 183.363 205.033 202.361 204.321 214.86C203.568 228.081 192.752 241.131 176.661 248.603Z" fill="#EEBF9E"/>
<path d="M148.423 389.329C149.08 391.759 162.654 389.279 162.644 386.733C162.511 353.716 162.625 275.887 162.447 267.625L130.878 271.287C130.878 271.287 145.227 377.496 148.423 389.329Z" fill="#EEBF9E"/>
<path d="M115.676 391.698C115.38 394.203 101.601 393.883 101.241 391.365C96.5664 358.707 85.1236 281.79 84.0979 273.596L115.837 272.259C115.837 272.259 117.114 379.5 115.676 391.698Z" fill="#EEBF9E"/>
<path d="M166.848 227.531C165.956 218.092 161.891 207.108 170.329 170.7C156.397 165.141 120.317 162.634 100.795 161.083C92.841 173.732 89.3582 194.414 83.0401 221.8C79.636 230.842 61.7809 267.358 51.9941 282.555C57.9739 284.714 70.7639 292.851 74.0711 301.481C79.6388 316.01 105.891 312.663 112.709 311.804C125.162 310.235 139.767 322.93 154.052 311.662C162.88 304.698 178.63 302.111 186.605 297.754C180.988 275.958 167.536 234.806 166.848 227.531Z" fill="#9357D0"/>
<path d="M34.1489 126.716C31.2607 130.865 26.7735 136.937 23.5168 140.781C43.5797 160.891 60.9385 171.21 82.3717 179.983C96.6627 182.165 107.597 174.435 111.449 165.236C79.0252 156.815 56.3319 144.419 34.1489 126.716Z" fill="#EEBF9E"/>
<path d="M190.931 185.553C185.448 194.284 179.044 207.258 172.137 211.686C170.192 209.536 167.542 208.304 160.688 202.945C153.105 197.013 156.535 182.303 168.52 169.566C172.819 170.499 181.216 177.283 190.931 185.553Z" fill="#9357D0"/>
<path d="M134.712 176.564C133.61 183.603 125.462 188.084 116.514 186.572C107.566 185.061 101.206 178.129 102.309 171.089C103.411 164.051 111.559 159.569 120.507 161.081C129.455 162.592 135.815 169.524 134.712 176.564Z" fill="#C12F3F"/>
<path d="M161.892 176.673C161.892 183.434 154.543 188.914 145.477 188.914C136.411 188.914 129.062 183.434 129.062 176.673C129.062 169.912 136.411 164.432 145.477 164.432C154.543 164.432 161.892 169.913 161.892 176.673Z" fill="#C12F3F"/>
<path d="M151.644 172.666L152.927 166.476C141.158 164.237 126.142 162.127 113.63 162.099L113.216 169.386C112.77 175.036 121.009 180.35 131.622 181.256C142.233 182.161 151.197 178.315 151.644 172.666Z" fill="#EEBF9E"/>
<path d="M148.748 150.397L147.17 170.34C146.831 174.628 140.025 177.548 131.969 176.861C123.913 176.173 117.658 172.139 117.997 167.851L119.575 147.908L148.748 150.397Z" fill="#EEBF9E"/>
<path d="M99.3623 195.869C92.9768 193.883 79.524 187.599 72.8914 185.239C73.3694 178.538 76.3025 162.233 79.564 153.588C85.0657 156.008 102.74 159.813 110.909 161.616C107.6 177.115 99.3623 195.869 99.3623 195.869Z" fill="#9357D0"/>
<path d="M79.4155 214.849C79.5818 214.833 79.7489 214.797 79.9146 214.742C91.839 210.697 97.5766 199.085 97.9732 189.371C98.028 188.046 97.0367 186.925 95.7612 186.87C94.48 186.796 93.4052 187.841 93.3519 189.168C93.0226 197.225 88.2953 206.845 78.4783 210.174C77.2631 210.586 76.6011 211.942 76.997 213.204C77.3396 214.293 78.3603 214.955 79.4155 214.849Z" fill="#ECB42A"/>
<path d="M97.3355 157.959C97.3355 157.959 110.796 159.399 111.779 159.561C110.552 171.736 108.873 182.689 105.268 190.754C103.549 194.598 100.295 197.402 96.3337 196.404C92.3582 195.403 89.7698 191.197 90.886 187.113C91.8878 183.445 96.5752 167.907 97.3355 157.959Z" fill="#F6E2B3"/>
<path d="M108.918 159.202C108.629 168.969 105.517 182.254 103.566 187.982C102.609 190.791 100.134 192.674 97.4266 191.992C94.7091 191.307 92.9568 188.366 93.7382 185.493C94.4346 182.932 98.9928 165.833 99.772 158.161L108.918 159.202Z" fill="#ECB42A"/>
<path d="M168.691 228.387C168.545 228.302 168.407 228.199 168.277 228.079C158.95 219.367 158.231 206.337 161.656 197.288C162.123 196.053 163.466 195.445 164.654 195.931C165.854 196.402 166.429 197.81 165.961 199.045C163.12 206.55 163.692 217.335 171.371 224.506C172.321 225.394 172.397 226.912 171.544 227.899C170.807 228.751 169.615 228.926 168.691 228.387Z" fill="#ECB42A"/>
<path d="M171.191 168.173L157.28 165.688C155.032 177.19 153.854 188.196 154.853 197.422C155.31 201.633 157.866 205.237 161.94 205.413C166.027 205.589 169.632 202.288 169.644 198.043C169.656 194.23 169.279 177.953 171.191 168.173Z" fill="#F6E2B3"/>
<path d="M159.729 166.049C157.412 175.519 156.873 189.181 157.227 195.245C157.399 198.219 159.279 200.739 162.061 200.859C164.855 200.98 167.322 198.654 167.333 195.669C167.345 193.008 167.507 175.267 168.796 167.669L159.729 166.049Z" fill="#ECB42A"/>
<path d="M137.495 237.235C118.068 237.235 97.1751 233.196 80.5317 225.578L82.5276 220.877C108.136 232.602 144.114 235.553 168.068 227.905L169.524 232.812C160.181 235.794 149.101 237.235 137.495 237.235Z" fill="#C12F3F"/>
<path d="M145.785 231.674C148.633 232.186 154.347 230.072 157.36 230.983C157.36 230.983 157.541 231.084 157.643 231.181C151.696 232.218 147.001 235.385 142.403 237.205C141.637 244.172 149.853 238.882 158.755 236.501C153.57 238.771 150.352 240.936 146.738 242.318C144.195 245.465 145.684 247.386 149.399 246.399C152.269 245.637 157.169 243.367 162.331 241.855C162.811 241.935 152.05 248.104 151.255 250.847C151.75 252.175 154.156 252.818 157.452 250.935C159.235 249.915 161.041 248.39 165.2 246.676C168.932 246.694 172.331 248.537 173.863 248.973C179.555 249.861 181.547 241.699 181.421 240.034C181.093 235.707 172.905 228.217 168.19 227.098C160.287 225.222 156.363 224.057 144.356 228.368C142.33 230.001 144.398 231.424 145.785 231.674Z" fill="#EEBF9E"/>
<path opacity="0.16" d="M159.696 156.512C159.143 163.847 147.213 168.859 133.049 167.708C118.885 166.556 107.852 159.677 108.405 152.342C108.958 145.007 120.888 139.994 135.052 141.146C149.215 142.297 160.249 149.177 159.696 156.512Z" fill="#3D130A"/>
<path d="M55.4157 105.727C57.6018 121.966 71.2539 133.644 82.5219 133.44C93.7907 133.236 97.3668 120.558 97.1105 105.136C96.8515 89.7127 87.5055 77.3354 76.2375 77.5782C60.8359 77.9114 53.3616 90.4644 55.4157 105.727Z" fill="#EEBF9E"/>
<path d="M68.3809 110.749C68.496 117.512 73.2431 122.909 78.987 122.806C84.7281 122.701 89.2926 117.135 89.1775 110.373C89.0637 103.611 84.316 98.2136 78.5756 98.3164C72.8317 98.4192 68.2693 103.987 68.3809 110.749Z" fill="#CC936E"/>
<path d="M219.842 126.512C213.97 141.732 198.018 149.667 187.126 146.663C176.233 143.657 175.69 130.459 179.502 115.55C183.316 100.642 195.248 90.9551 206.133 93.9973C221.008 98.1578 225.362 112.207 219.842 126.512Z" fill="#EEBF9E"/>
<path d="M205.28 128.054C203.608 134.591 197.752 138.648 192.201 137.118C186.65 135.586 183.505 129.045 185.178 122.509C186.85 115.971 192.706 111.915 198.256 113.445C203.808 114.976 206.953 121.518 205.28 128.054Z" fill="#CC936E"/>
<path d="M217.495 64.2677C217.014 116.291 177.017 145.76 135.421 140.503C93.8262 135.244 63.9499 93.5247 74.0238 44.079C79.6174 16.6248 110.186 -1.61165 149.893 3.67814C191.455 9.21432 217.838 27.2699 217.495 64.2677Z" fill="#67290A"/>
<path d="M205.999 52.1929C208.748 61.3297 197.301 137.397 187.554 146.969C177.216 157.124 139.33 163.306 131.634 162.334C123.39 161.291 88.6545 147.064 83.138 133.77C76.6121 118.038 80.9077 49.6253 84.4873 41.8692C96.5852 15.6734 119.579 17.6461 149.513 21.4305C177.517 24.9698 198.868 28.4867 205.999 52.1929Z" fill="#EEBF9E"/>
<path d="M189.389 127.393C189.281 130.61 184.888 133.062 179.577 132.869C174.267 132.677 170.048 129.913 170.156 126.696C170.264 123.48 174.658 121.027 179.968 121.22C185.279 121.412 189.497 124.176 189.389 127.393Z" fill="#E69595"/>
<path d="M104.934 119.605C104.39 122.775 99.7071 124.558 94.475 123.589C89.245 122.619 85.4443 119.265 85.9884 116.096C86.5331 112.927 91.217 111.144 96.447 112.112C101.679 113.082 105.478 116.437 104.934 119.605Z" fill="#E69595"/>
<path d="M142.839 114.224C142.509 114.182 142.247 113.898 142.231 113.542C142.127 111.013 140.427 109.172 137.903 108.853C135.364 108.531 133.241 109.922 132.62 112.311C132.52 112.693 132.139 112.921 131.772 112.817C131.403 112.714 131.185 112.319 131.285 111.937C132.079 108.876 134.869 107.022 138.07 107.426C141.252 107.829 143.48 110.261 143.615 113.479C143.631 113.876 143.335 114.211 142.954 114.229L142.839 114.224Z" fill="#AF725C"/>
<path d="M190.65 76.1376C190.19 76.0545 189.758 75.8023 189.448 75.394C185.48 70.1925 176.764 67.3733 169.156 68.8511C168.101 69.0618 167.073 68.3327 166.87 67.2232C166.67 66.1194 167.372 65.0573 168.437 64.8481C177.513 63.0926 187.646 66.465 192.522 72.8709C193.193 73.753 193.049 75.0317 192.2 75.7286C191.746 76.1041 191.181 76.2331 190.65 76.1376Z" fill="#67290A"/>
<path d="M96.2885 64.7132C95.7529 64.6621 95.239 64.3844 94.895 63.8988C94.2498 62.9963 94.4317 61.7234 95.3008 61.0535C101.62 56.188 112.247 55.6748 120.566 59.8222C121.544 60.3121 121.953 61.5273 121.485 62.5392C121.013 63.5562 119.84 63.982 118.868 63.4921C111.896 60.0059 102.768 60.3609 97.6357 64.3202C97.2341 64.6308 96.7539 64.7576 96.2885 64.7132Z" fill="#67290A"/>
<path d="M123.807 88.3755C127.799 96.3583 126.34 104.45 121.833 107.049C115.042 110.964 100.007 110.509 95.1681 103.087C90.4807 95.8982 94.3474 84.2857 103.665 80.209C111.823 76.6404 119.944 80.6501 123.807 88.3755Z" fill="#F9FDFF"/>
<path d="M96.2873 82.9719C104.337 72.3078 120.358 78.1735 123.94 88.6458C119.952 80.6675 111.375 77.3519 103.834 80.647C99.1733 82.6868 95.5698 86.8809 94.1946 91.8652C93.098 95.8398 93.4919 100.493 95.4386 103.479C93.0545 101.396 90.3679 90.8132 96.2873 82.9719Z" fill="#67290A"/>
<path d="M121.528 93.1051C122.942 98.4722 120.01 104.039 114.98 105.538C109.949 107.037 104.725 103.901 103.312 98.5334C101.898 93.1656 104.831 87.5995 109.861 86.1C114.891 84.6011 120.115 87.7373 121.528 93.1051Z" fill="#67290A"/>
<path d="M120.855 92.1288C121.246 93.6183 120.434 95.1623 119.038 95.5786C117.642 95.9941 116.193 95.1244 115.8 93.635C115.409 92.1456 116.222 90.6016 117.618 90.1853C119.013 89.7698 120.462 90.6395 120.855 92.1288Z" fill="#FDFFFD"/>
<path d="M157.569 92.2234C152.108 99.1287 151.954 107.369 155.853 110.926C161.729 116.285 176.519 119.228 182.699 113.063C188.685 107.09 187.172 94.8646 178.857 88.7788C171.578 83.4511 162.855 85.5404 157.569 92.2234Z" fill="#F9FDFF"/>
<path d="M185.532 93.1429C179.743 80.9026 162.933 83.0262 157.386 92.4583C162.843 85.5567 171.877 84.2474 178.607 89.169C182.766 92.2141 185.47 97.1269 185.842 102.311C186.138 106.444 184.844 110.905 182.358 113.386C185.096 111.886 189.789 102.145 185.532 93.1429Z" fill="#67290A"/>
<path d="M176.358 99.353C177.771 104.721 174.839 110.287 169.808 111.786C164.779 113.285 159.555 110.149 158.141 104.781C156.728 99.4142 159.659 93.8474 164.69 92.3485C169.721 90.8497 174.944 93.9852 176.358 99.353Z" fill="#67290A"/>
<path d="M175.684 98.3779C176.076 99.8673 175.262 101.411 173.867 101.827C172.471 102.243 171.022 101.373 170.63 99.8841C170.238 98.3947 171.051 96.8506 172.447 96.4343C173.842 96.0188 175.292 96.8885 175.684 98.3779Z" fill="#FDFFFD"/>
<path d="M229.914 92.7599C221.132 88.6088 215.983 81.9828 216.728 66.4568C222.049 65.7373 224.667 64.3492 229.852 63.0304C210.698 56.1368 215.965 27.0708 191.404 12.5954C150.859 -7.66409 111.66 1.23577 100.106 6.99577C78.8151 17.6088 74.9568 34.0672 71.9704 52.6331C67.7892 69.3219 63.7814 74.0219 55.0259 77.1421C63.8797 80.688 69.4523 78.6818 72.796 75.66C71.0269 86.2388 66.0286 89.2044 60.4229 93.4707C74.5321 95.4572 82.9331 87.9425 86.3576 77.4417C90.1618 65.7796 87.3067 48.0607 89.4759 43.5503C90.7318 40.9404 101.334 26.1602 105.257 26.3811C113.806 26.8623 120.638 58.7547 150.871 60.8718C139.246 52.9335 133.39 42.6201 127.813 28.1599C130.06 29.8462 132.288 31.8495 134.462 34.2392C157.363 59.4079 179.748 67.1655 201.2 67.0911C200.193 90.0049 193.325 101.346 219.528 112.352C217.344 108.973 214.556 99.1476 214.647 91.5825C217.378 93.7003 222.524 95.7999 229.914 92.7599Z" fill="#67290A"/>
<path d="M158.732 132.147C157.425 142.112 146.296 148.765 133.877 147.008C121.458 145.25 112.449 135.748 113.757 125.783C115.065 115.818 125.374 119.184 137.88 120.279C150.371 121.371 160.04 122.182 158.732 132.147Z" fill="#551104"/>
<path d="M136.449 137.762C129.735 136.812 123.565 138.133 119.758 140.896C123.377 144.119 128.272 146.446 133.847 147.235C140.124 148.123 146.073 146.895 150.637 144.194C147.5 141.052 142.408 138.605 136.449 137.762Z" fill="#BA6555"/>
<path d="M153.538 122.621C149.668 121.084 144.143 120.601 137.917 120.057C130.892 119.442 124.559 118.132 120.064 118.783C121.315 123.045 127.638 126.983 135.672 128.12C144.285 129.338 151.833 126.91 153.538 122.621Z" fill="white"/>
<path d="M64.0681 41.8414C64.0681 41.8414 57.5112 49.9124 64.3945 52.2883C70.7653 54.487 76.8581 48.3078 77.2393 42.2964C77.6198 36.2849 72.3561 29.2381 65.7739 30.519C56.7769 32.2708 64.0681 41.8414 64.0681 41.8414Z" fill="#CD3364"/>
<path opacity="0.23" d="M77.023 42.6878C76.8433 44.5468 68.4135 48.8779 69.0341 41.8443C69.6013 35.4114 77.2028 40.8295 77.023 42.6878Z" fill="#3D130A"/>
<path d="M94.1319 44.1628C94.1319 44.1628 99.541 53.1582 92.4113 54.4515C85.8116 55.6493 80.609 48.5975 81.0365 42.5896C81.464 36.5825 87.6165 30.4164 93.9593 32.6954C102.628 35.8112 94.1319 44.1628 94.1319 44.1628Z" fill="#CD3364"/>
<path opacity="0.23" d="M81.1982 43.0106C81.1273 44.8777 88.8902 50.4591 89.2174 43.4029C89.5164 36.9489 81.2691 41.1437 81.1982 43.0106Z" fill="#3D130A"/>
<path d="M74.5657 42.2141C74.3621 45.0689 76.2688 47.5505 78.8241 47.7575C81.3794 47.9646 83.6153 45.8183 83.8182 42.9635C84.0211 40.1087 82.1145 37.6264 79.5598 37.4201C77.0045 37.213 74.7686 39.3592 74.5657 42.2141Z" fill="#CD3364"/>
<path d="M132.114 198.439C132.114 200.189 130.748 201.608 129.062 201.608C127.377 201.608 126.01 200.189 126.01 198.439C126.01 196.688 127.376 195.27 129.062 195.27C130.749 195.27 132.114 196.688 132.114 198.439Z" fill="#5D3A85"/>
<path d="M129.063 214.86C129.063 216.61 127.696 218.03 126.01 218.03C124.325 218.03 122.958 216.61 122.958 214.86C122.958 213.11 124.325 211.691 126.01 211.691C127.696 211.691 129.063 213.11 129.063 214.86Z" fill="#5D3A85"/>
<path d="M143.185 386.606C143.262 387.24 164.119 386.509 164.226 385.742C165.126 379.336 166.093 364.717 166.484 361.881L141.144 362.481C141.793 369.165 142.692 382.543 143.185 386.606Z" fill="#D4C0FC"/>
<path d="M165.361 370.799C164.905 369.293 144.9 373.982 142.16 373.718C142.336 377.264 141.069 384.284 141.509 389.09C141.815 392.434 144.881 394.675 148.101 395.002C160.535 396.263 193.774 400.01 194.591 391.227C195.26 384.019 179.343 381.169 165.361 370.799Z" fill="#D4C0FC"/>
<path d="M179.676 378.514C179.84 384.574 161.558 384.703 154.771 383.565C150.549 382.858 145.503 381.155 142.255 379.602C141.75 379.184 141.114 379.255 140.903 379.552C141.061 383.853 140.795 391.286 141.012 396.064C141.012 396.064 201.311 399.165 200.619 391.238C200.133 385.668 191.722 384.66 179.676 378.514ZM141.692 374.252C145.56 375.023 150.474 375.192 155.067 374.872C160.014 374.526 164.582 373.612 167.052 372.262C167.899 371.797 168.199 370.774 167.723 369.976C167.246 369.177 166.175 368.905 165.317 369.371C161.305 371.562 149.557 372.388 142.454 370.977C141.512 370.768 140.558 371.365 140.351 372.27C140.14 373.175 140.74 374.063 141.692 374.252Z" fill="#D56480"/>
<path d="M140.808 393.073C140.895 394.133 140.971 395.154 141.013 396.064C141.013 396.064 192.946 401.32 200.309 393.667C200.572 393.393 200.805 392.105 200.634 391.708C190.126 397.291 154.791 395.491 140.808 393.073Z" fill="#882A2A"/>
<path d="M119.036 385.834C119.005 386.473 98.1551 387.382 97.9916 386.625C96.6283 380.309 94.5987 365.807 94.0034 363.011L119.314 361.618C119.153 368.333 119.232 381.744 119.036 385.834Z" fill="#D4C0FC"/>
<path d="M95.7723 371.816C96.1177 370.278 116.407 373.381 119.119 372.903C119.203 376.453 120.977 383.354 120.889 388.18C120.827 391.539 117.934 394.014 114.746 394.593C102.44 396.827 69.5681 403.173 68.115 394.48C66.9222 387.345 82.587 383.254 95.7723 371.816Z" fill="#D4C0FC"/>
<path d="M62.1034 394.965C61.9911 402.923 121.891 395.094 121.891 395.094C121.76 390.314 120.953 382.923 120.798 378.622C120.567 378.343 119.926 378.322 119.453 378.779C116.328 380.582 111.42 382.676 107.262 383.713C100.577 385.381 82.3384 386.687 82.0603 380.632C70.4967 387.707 62.1828 389.372 62.1034 394.965ZM120.818 371.317C120.545 370.432 119.551 369.911 118.626 370.194C111.647 372.158 99.8726 372.258 95.7124 370.387C94.823 369.991 93.7749 370.346 93.3572 371.18C92.9402 372.013 93.3144 373.009 94.1933 373.406C96.7542 374.559 101.376 375.112 106.333 375.067C110.936 375.026 115.824 374.472 119.625 373.399C120.561 373.136 121.095 372.204 120.818 371.317Z" fill="#D56480"/>
<path d="M121.878 392.097C121.867 393.16 121.866 394.184 121.891 395.094C121.891 395.094 70.4886 404.415 62.5895 397.362C62.3072 397.11 61.9822 395.844 62.1226 395.435C73.0081 400.175 108.11 395.606 121.878 392.097Z" fill="#882A2A"/>
</g>
<defs>
<clipPath id="clip0_1926_3606">
<rect width="243.352" height="400" fill="white"/>
</clipPath>
</defs>
</svg>
