<svg width="600" height="600" viewBox="0 0 600 600" fill="none" xmlns="http://www.w3.org/2000/svg">
<g clip-path="url(#clip0_1956_1767)">
<path d="M299.82 599.893C465.405 599.893 599.639 465.603 599.639 299.947C599.639 134.291 465.405 0 299.82 0C134.234 0 0 134.291 0 299.947C0 465.603 134.234 599.893 299.82 599.893Z" fill="#E79C5C"/>
<path d="M305.816 541.904C273.835 529.906 247.851 535.905 215.87 537.904C145.912 541.904 127.923 491.913 69.9581 467.917C62.3061 464.727 53.841 461.943 45.4702 458.788C98.4541 543.522 192.549 599.893 299.82 599.893C344.77 599.893 387.399 589.979 425.671 572.246C412.198 571.682 398.884 569.61 387.767 567.899C357.785 561.9 333.799 549.902 305.816 541.904Z" fill="#E79C5C"/>
<path d="M345.793 515.909C311.813 515.909 293.824 503.911 267.84 483.914C239.856 463.918 223.866 461.918 189.886 465.918C151.909 469.917 135.919 471.917 109.935 443.922C85.949 417.926 75.955 405.928 43.9743 393.93C35.9665 390.37 23.6023 386.807 11.4648 382.364C19.2356 409.626 30.779 435.293 45.4708 458.789C53.8415 461.943 62.3066 464.728 69.9586 467.917C127.924 491.913 145.913 541.904 215.871 537.905C247.852 535.905 273.836 529.906 305.817 541.904C333.8 549.903 357.785 561.901 387.767 567.899C398.885 569.611 412.198 571.683 425.671 572.246C448.103 561.853 469.031 548.768 488.047 533.404C467.215 532.396 452.112 524.003 427.743 517.908C399.76 507.91 373.776 515.909 345.793 515.909Z" fill="#7C3F1A"/>
<path d="M544.546 473.261C524.211 472.031 502.055 464.129 484.375 461.918C459.057 457.919 431.074 457.919 404.423 460.585C364.447 464.584 339.129 460.585 301.818 441.922C271.17 427.258 241.854 413.927 208.541 408.594C176.56 403.262 137.917 411.261 109.934 388.598C96.6084 376.6 87.2808 361.936 72.6229 351.271C55.3001 339.273 35.3121 335.274 17.9892 324.609C11.8279 321.29 5.68157 317.453 0.299805 313.002C1.32559 336.957 5.14268 360.187 11.4641 382.364C23.6016 386.807 35.9657 390.37 43.9735 393.93C75.9543 405.928 85.9482 417.926 109.934 443.922C135.918 471.917 151.909 469.917 189.886 465.918C223.865 461.918 239.856 463.918 267.839 483.914C293.823 503.911 311.812 515.909 345.792 515.909C373.775 515.909 399.759 507.91 427.743 517.908C452.111 524.003 467.214 532.396 488.047 533.404C509.517 516.057 528.556 495.819 544.546 473.261Z" fill="#F1C697"/>
<path d="M72.6229 351.272C87.2809 361.937 96.6084 376.601 109.934 388.598C137.917 411.261 176.56 403.262 208.541 408.595C241.854 413.927 271.17 427.258 301.818 441.922C339.129 460.586 364.447 464.585 404.423 460.586C431.074 457.919 459.057 457.919 484.375 461.919C502.055 464.13 524.211 472.031 544.546 473.262C559.529 452.127 571.836 428.964 580.994 404.27C544.812 404.485 508.837 415.713 475.047 407.262C431.074 396.597 399.093 369.935 352.454 373.934C329.802 375.267 311.146 389.932 289.826 388.598C268.505 387.265 251.182 373.934 236.524 359.27C225.864 348.606 216.536 328.609 203.211 323.277C193.883 320.611 177.893 323.277 169.898 323.277C147.245 323.277 124.592 324.61 101.939 323.277C57.9651 320.611 60.6301 273.952 23.3194 255.289C15.8685 251.313 9.71555 248.819 4.85688 245.943C1.6728 263.463 0 281.509 0 299.948C0 304.324 0.114334 308.672 0.299823 313.003C5.68158 317.453 11.8279 321.291 17.9892 324.61C35.3121 335.274 55.3001 339.274 72.6229 351.272Z" fill="#7C3F1A"/>
<path d="M233.86 27.3284C260.51 37.9933 291.158 36.6601 319.142 35.327C331.134 35.327 341.795 32.6608 353.787 33.9939C371.11 35.3269 380.438 44.6587 397.761 52.6572C422.728 64.6837 456.033 60.0265 483.879 63.1727C433.074 23.5882 369.203 0 299.82 0C268.902 0 239.079 4.6858 211.018 13.3795C210.788 13.9691 210.581 14.5612 210.396 15.1545C218.051 19.2896 225.56 24.3631 233.86 27.3284Z" fill="#E79C5C"/>
<path d="M101.939 323.276C124.592 324.609 147.245 323.276 169.898 323.276C177.893 323.276 193.883 320.61 203.211 323.276C216.536 328.609 225.864 348.605 236.524 359.27C251.182 373.934 268.505 387.265 289.826 388.598C311.146 389.931 329.802 375.267 352.455 373.934C399.093 369.935 431.074 396.597 475.048 407.261C508.837 415.712 544.812 404.484 580.994 404.269C588.262 384.671 593.531 364.105 596.577 342.819C590.189 344.463 583.647 346.415 577.652 347.272C531.014 353.938 496.368 340.607 455.06 320.61C413.751 303.28 375.108 320.61 331.134 313.945C289.826 307.279 265.84 275.285 220.534 275.285C183.223 275.285 128.589 293.948 99.2737 268.619C85.9483 256.621 81.9507 239.291 69.9579 227.293C55.3002 211.296 37.9772 215.295 17.9892 207.297C16.9517 206.893 15.9674 206.472 15.0076 206.043C10.7488 218.978 7.33724 232.297 4.85693 245.943C9.71561 248.819 15.8685 251.313 23.3194 255.288C60.6302 273.952 57.9652 320.61 101.939 323.276Z" fill="#F1C697"/>
<path d="M323.139 99.3158C345.792 95.3165 365.78 87.3178 388.433 89.9842C409.754 91.3171 424.411 100.649 443.067 107.314C473.694 117.163 507.014 113.545 538.606 118.566C522.835 97.8178 504.43 79.1849 483.879 63.1729C456.032 60.0267 422.728 64.6839 397.761 52.6575C380.438 44.6589 371.11 35.3271 353.787 33.9942C341.794 32.661 331.134 35.3272 319.141 35.3272C291.158 36.6603 260.51 37.9935 233.859 27.3286C225.56 24.3633 218.051 19.2898 210.395 15.1547C209.778 14.821 209.158 14.495 208.538 14.175C193.573 18.9556 179.12 24.8779 165.279 31.8433C183.97 41.1024 201.666 53.5807 216.536 61.9892C251.182 80.6524 283.163 105.981 323.139 99.3158Z" fill="#F1C697"/>
<path d="M69.9576 227.293C81.9504 239.291 85.948 256.621 99.2734 268.619C128.589 293.948 183.223 275.285 220.534 275.285C265.84 275.285 289.825 307.279 331.134 313.944C375.107 320.61 413.751 303.28 455.059 320.61C496.368 340.606 531.014 353.937 577.652 347.272C583.647 346.415 590.189 344.462 596.577 342.819C598.581 328.815 599.639 314.505 599.639 299.947C599.639 294.023 599.448 288.144 599.109 282.305C598.603 282.657 598.108 282.991 597.64 283.283C578.985 295.281 562.994 280.617 541.674 279.284C521.686 277.951 505.695 283.283 487.04 284.616C456.392 287.282 429.741 249.956 399.093 249.956C373.775 249.956 347.124 255.288 321.806 252.622C280.498 248.623 264.507 220.628 223.199 217.962C192.55 215.295 164.567 225.96 135.252 225.96C89.9456 225.96 89.9456 180.635 52.6347 167.304C46.9539 165.555 39.5561 164.95 32.5508 163.897C25.6763 177.386 19.8054 191.47 15.0073 206.043C15.9671 206.472 16.9514 206.893 17.9889 207.297C37.9769 215.295 55.2999 211.296 69.9576 227.293Z" fill="#E79C5C"/>
<path d="M135.252 225.961C164.568 225.961 192.551 215.296 223.199 217.962C264.508 220.628 280.498 248.623 321.807 252.623C347.125 255.289 373.775 249.956 399.093 249.956C429.742 249.956 456.392 287.283 487.04 284.617C505.696 283.284 521.686 277.952 541.674 279.285C562.995 280.618 578.985 295.282 597.641 283.284C598.109 282.991 598.603 282.658 599.109 282.306C598.394 269.979 596.946 257.849 594.787 245.966C593.915 245.961 593.08 245.957 592.31 245.957C551.002 244.624 521.686 220.628 483.043 209.964C435.072 196.633 379.106 191.3 328.469 191.3C300.486 191.3 272.503 192.633 244.52 191.3C207.209 188.634 187.221 179.302 156.573 160.639C131.255 145.975 108.602 145.975 80.6183 140.643C73.0353 139.22 63.1013 134.077 54.8153 127.034C46.551 138.732 39.1007 151.046 32.5513 163.898C39.5567 164.951 46.9544 165.556 52.6352 167.304C89.9461 180.635 89.9461 225.961 135.252 225.961Z" fill="#7C3F1A"/>
<path d="M259.177 141.975C323.138 153.973 385.767 123.312 449.729 145.975C484.375 157.973 515.023 171.303 551.001 172.637C556.494 173.003 563.601 172.866 571.374 172.695C562.346 153.448 551.338 135.318 538.605 118.567C507.013 113.545 473.694 117.164 443.066 107.315C424.411 100.649 409.753 91.3176 388.432 89.9846C365.779 87.3183 345.791 95.3169 323.138 99.3162C283.162 105.982 251.182 80.6529 216.536 61.9896C201.665 53.5811 183.969 41.1029 165.279 31.8438C144.061 42.521 124.29 55.645 106.327 70.8449C125.408 72.6927 144.626 77.3333 156.572 80.6529C197.88 92.6508 215.203 133.977 259.177 141.975Z" fill="#E79C5C"/>
<path d="M156.572 160.639C187.22 179.302 207.208 188.634 244.519 191.3C272.502 192.633 300.485 191.3 328.468 191.3C379.105 191.3 435.071 196.633 483.042 209.964C521.685 220.628 551.001 244.624 592.31 245.957C593.079 245.957 593.914 245.961 594.786 245.966C590.114 220.248 582.154 195.679 571.374 172.696C563.601 172.866 556.494 173.003 551.001 172.637C515.023 171.304 484.375 157.973 449.729 145.975C385.767 123.312 323.138 153.974 259.177 141.976C215.203 133.977 197.88 92.6511 156.572 80.6533C144.626 77.3337 125.408 72.6931 106.327 70.8452C86.8782 87.3015 69.5464 106.18 54.8145 127.034C63.1005 134.077 73.0345 139.22 80.6175 140.643C108.601 145.975 131.254 145.975 156.572 160.639Z" fill="#855026"/>
<g opacity="0.2">
<path d="M298.769 0.106934C287.602 0.106934 276.58 0.72322 265.73 1.91301C415.77 18.3671 512.524 145.569 512.524 300.054C512.524 454.538 415.77 581.74 265.73 598.194C276.58 599.384 287.602 600 298.769 600C464.354 600 599.099 468.084 599.995 300.054C600.879 134.4 464.354 0.106934 298.769 0.106934Z" fill="#222222"/>
</g>
</g>
<defs>
<clipPath id="clip0_1956_1767">
<rect width="600" height="600" fill="white"/>
</clipPath>
</defs>
</svg>
