<svg width="1000" height="700" viewBox="0 0 1000 700" fill="none" xmlns="http://www.w3.org/2000/svg">
<g clip-path="url(#clip0_1276_8610)">
<g clip-path="url(#clip1_1276_8610)">
<path d="M777.124 652.427L774.571 654.782C774.571 654.782 776.486 655.253 779.038 655.253C777.762 654.311 777.762 653.369 777.124 652.427Z" fill="#726B67"/>
<path d="M593.97 676.92C599.075 676.92 603.542 676.92 607.371 676.92C602.904 676.45 598.437 676.45 593.97 676.92Z" fill="#7F7974"/>
<path d="M510.368 636.412C500.796 655.254 509.73 661.377 519.941 663.732C528.875 666.088 542.915 664.674 542.915 664.674C549.297 677.392 615.028 676.921 615.028 676.921C627.153 644.891 510.368 636.412 510.368 636.412Z" fill="#706A65"/>
<path d="M542.279 664.673C542.279 664.673 547.384 644.419 554.404 635.94C561.424 627.461 600.352 625.106 600.352 625.106C600.352 625.106 559.51 621.809 547.384 630.288C536.535 637.824 530.154 664.673 530.154 664.673C530.154 664.673 539.726 664.673 542.279 664.673Z" fill="#66605D"/>
<path d="M366.141 577.532C351.463 564.343 331.679 555.394 309.343 552.097C287.007 548.799 262.757 550.684 241.059 554.452C225.105 557.278 223.19 577.061 223.19 577.061C227.02 592.134 228.934 616.157 210.427 622.752C220.638 623.694 224.467 625.107 230.21 628.875C237.23 634.056 151.077 658.55 147.886 649.13C140.228 656.195 136.399 658.55 138.952 662.789C140.228 665.145 146.61 665.616 158.735 666.558C158.735 666.558 168.308 678.805 272.33 667.5C297.218 664.674 368.055 592.606 368.055 592.606C368.055 592.606 371.246 582.714 366.141 577.532Z" fill="#8E8680"/>
<path d="M366.142 577.532C358.484 570.467 221.277 569.053 221.277 569.053C221.277 569.053 223.83 578.945 225.106 593.547C225.106 593.547 226.383 617.57 209.79 622.28C190.007 628.404 162.566 629.817 157.46 632.643C151.717 635.469 125.552 655.724 130.657 663.731C131.933 666.086 143.421 668.441 155.546 669.384C155.546 669.384 169.585 683.515 273.607 672.21C298.496 669.384 367.418 592.134 367.418 592.134C367.418 592.134 369.971 589.308 373.162 584.598C370.609 582.242 368.694 579.887 366.142 577.532Z" fill="#726C67"/>
<path d="M279.989 580.358L221.277 569.053C221.277 569.053 223.192 577.532 224.468 587.895C246.166 602.026 269.778 610.033 269.778 610.033L279.989 580.358Z" fill="#68635F"/>
<path d="M180.439 653.84C180.439 653.84 190.65 647.246 197.031 645.833C205.328 643.948 230.216 640.651 230.216 640.651C230.216 640.651 234.045 637.354 232.769 633.115C229.578 621.81 209.795 621.81 209.795 621.81C209.795 621.81 202.137 623.694 193.841 625.578C185.544 627.462 164.485 629.346 158.103 631.702C149.807 634.999 138.958 646.304 138.958 646.304C140.234 652.427 164.485 649.601 164.485 649.601C164.485 649.601 166.399 656.195 180.439 653.84Z" fill="#7F7974"/>
<path d="M155.547 669.853C155.547 669.853 163.205 648.657 172.139 643.946C180.435 639.707 195.113 636.41 195.113 636.41C195.113 636.41 170.225 638.294 163.205 643.004C155.547 648.186 145.974 668.911 145.974 668.911L155.547 669.853Z" fill="#635E5B"/>
<path d="M837.752 676.449C837.752 676.449 888.806 685.87 928.372 671.268C988.36 649.129 1008.78 610.034 996.656 589.308C984.531 568.583 943.688 584.598 943.688 584.598L837.752 676.449Z" fill="#726B67"/>
<path d="M262.126 210.598C262.126 210.598 295.311 153.132 295.311 78.2374C295.311 15.119 273.613 -2.78025 261.488 0.988018C249.363 5.22732 223.198 26.8949 213.625 42.439C204.053 57.9831 195.118 72.5851 195.756 86.2451C199.585 167.734 175.335 196.938 175.335 196.938C175.335 196.938 261.488 218.605 262.126 210.598Z" fill="#706965"/>
<path d="M953.262 557.749C948.794 473.905 859.45 374.988 750.323 327.413C641.196 280.31 498.246 277.013 441.449 289.26C384.652 301.507 363.593 293.499 353.382 286.434C343.171 279.368 319.559 247.338 331.046 227.083C343.171 206.829 406.988 165.849 415.922 89.0707C425.495 12.2923 422.304 -0.896651 408.264 0.0454154C394.863 0.987482 365.507 18.4157 348.915 31.1336C332.322 43.3804 295.947 74.9397 285.098 87.1866C276.163 97.5493 246.169 155.015 238.511 169.146C228.939 185.633 204.05 190.343 195.754 191.756C148.529 202.59 93.0086 222.844 82.7979 231.323C72.5872 240.272 21.5336 299.623 16.4283 305.275C6.85572 310.927 1.75036 319.877 0.474022 330.24C-0.802317 340.131 -2.07868 386.293 33.6588 387.235C33.6588 387.235 65.5673 405.134 96.1995 407.96C91.7323 422.091 103.857 479.086 138.957 514.414C174.694 549.741 202.774 571.409 265.953 591.663C269.782 607.207 271.696 632.643 252.551 639.709C263.4 640.651 267.867 642.535 272.973 646.303C280.631 651.484 190.01 677.862 186.82 667.971C178.523 675.036 174.694 677.862 177.885 682.102C179.8 684.928 185.543 684.928 198.307 685.87C198.307 685.87 207.879 699.059 317.644 686.812C343.809 683.986 418.475 608.149 418.475 608.149C418.475 608.149 478.463 616.157 490.588 626.049C502.714 635.94 543.557 651.484 560.787 653.84C553.129 668.442 554.405 677.862 570.36 681.631C575.465 682.573 593.972 682.573 593.972 682.573C599.077 692.935 650.769 699.059 668.638 699.059C699.908 699.53 831.371 702.356 837.115 675.978C881.786 667.5 958.367 641.593 953.262 557.749Z" fill="#A09892"/>
<path d="M953.258 557.748C948.791 473.904 883.698 406.075 761.807 350.493C682.036 314.224 540.362 301.977 451.657 309.513C402.518 313.753 366.142 300.093 353.379 286.904C345.082 278.425 319.556 247.808 331.043 227.554C343.168 207.299 406.985 166.319 415.919 89.5409C425.492 12.7625 422.301 0.0445733 408.261 0.515607C399.327 0.515607 370.609 21.2411 354.017 33.959C337.424 46.2059 308.707 76.8231 298.496 88.5989C289.562 98.9616 265.949 156.899 258.929 176.211C252.548 193.639 246.166 204.002 214.896 206.357C165.757 210.125 108.959 230.38 98.7488 239.33C90.4526 245.924 42.5898 300.093 39.399 304.803C35.5699 310.456 32.3792 314.224 22.8066 314.224C13.2341 314.224 10.6813 310.456 10.6813 310.456C4.29963 316.579 1.74695 323.644 1.10878 330.71C-0.16756 340.602 -1.44382 386.763 34.2937 387.705C34.2937 387.705 66.2021 405.604 96.8342 408.43C92.3671 422.561 104.492 479.556 139.592 514.884C175.329 550.212 203.409 571.879 266.587 592.133C270.416 607.678 272.331 633.113 253.186 640.179C264.035 641.121 268.502 643.005 273.607 646.773C281.265 651.955 190.645 678.333 187.454 668.441C179.158 675.506 175.329 678.333 178.52 682.572C180.434 685.398 186.178 685.398 198.941 686.34C198.941 686.34 208.514 699.529 318.279 687.282C344.444 684.456 419.11 608.62 419.11 608.62C419.11 608.62 479.098 616.627 491.223 626.519C503.348 636.411 544.191 651.955 561.422 654.31C553.764 668.912 555.04 678.333 570.994 682.101C576.1 683.043 594.607 683.043 594.607 683.043C599.712 693.406 651.404 699.529 669.273 699.529C700.543 700 832.006 702.826 837.749 676.448C881.783 667.499 958.363 641.592 953.258 557.748Z" fill="#8E8680"/>
<path d="M242.343 583.655C244.258 576.589 246.172 569.053 244.896 561.987C243.62 553.509 240.429 545.972 239.152 537.493C153 502.637 132.578 448.939 132.578 418.793L97.4788 408.901C93.0116 423.032 105.137 480.027 140.236 515.355C170.868 545.501 195.757 565.284 242.343 583.655Z" fill="#7F7974"/>
<path d="M953.26 557.749C944.326 483.797 901.569 459.774 866.469 464.013C817.968 470.137 782.869 497.457 745.855 538.907C706.927 583.185 675.657 599.2 627.794 586.011C601.629 578.945 593.971 561.517 593.971 561.517C592.694 561.988 541.003 578.003 418.474 561.517V608.149C418.474 608.149 608.011 623.222 609.925 624.635C646.301 618.983 705.012 617.57 763.724 637.824C801.376 650.071 835.837 679.275 836.475 676.449C881.785 667.499 963.471 641.593 953.26 557.749Z" fill="#7F7974"/>
<path d="M648.215 699.999C653.32 699.999 658.426 699.999 662.893 699.999C657.787 699.058 652.682 699.058 648.215 699.999Z" fill="#7F7974"/>
<path d="M953.265 557.75C950.712 517.712 916.889 520.538 883.705 480.972C889.448 493.69 837.118 560.105 657.154 622.753C657.154 622.753 680.767 621.811 710.122 630.76C733.097 637.826 754.794 650.073 740.116 655.254C700.55 669.385 611.206 677.864 604.824 659.493C585.041 665.617 563.343 665.146 560.153 656.667C550.58 676.451 559.514 682.574 569.725 685.4C579.298 687.755 593.976 686.342 593.976 686.342C600.357 699.531 652.049 699.06 669.28 699.531C700.55 700.002 832.013 702.828 837.756 676.45C881.79 667.501 958.37 641.594 953.265 557.75Z" fill="#7F7974"/>
<path d="M445.92 457.419C440.815 494.16 426.775 537.966 396.781 567.641C367.425 597.787 312.542 632.173 269.147 610.034C269.147 610.034 269.785 634.528 253.193 640.18C232.771 647.246 204.054 647.717 198.31 651.014C192.566 654.311 163.849 675.508 168.954 683.987C170.869 686.813 183.632 688.697 196.395 689.639C196.395 689.639 211.073 704.712 320.2 692.936C346.365 690.11 418.479 608.621 418.479 608.621C418.479 608.621 482.296 531.843 445.92 457.419Z" fill="#7F7974"/>
<path d="M130.019 346.256C112.15 316.581 66.84 328.828 49.6095 313.755C16.4246 329.77 6.85211 315.639 6.85211 315.639C3.66126 320.82 2.3849 325.531 1.74673 330.241C1.10856 338.719 0.47037 377.815 25.359 385.823C25.359 385.823 24.7209 376.402 31.1026 369.337C31.1026 369.337 70.0309 391.475 108.321 386.294C133.21 382.997 138.315 360.387 130.019 346.256Z" fill="#7F7974"/>
<path d="M129.386 346.256C128.748 345.314 128.11 344.842 128.11 343.9C128.11 343.9 131.939 350.966 128.748 360.387C124.919 371.22 112.156 374.989 97.4776 374.989C66.2073 375.931 43.2332 366.51 35.5752 346.256C35.5752 346.256 20.8973 337.306 20.8973 335.422C17.7064 334.951 2.39037 330.24 2.39037 330.24C1.11403 339.661 -0.162368 374.047 22.1736 384.88C22.1736 384.88 22.1736 370.749 29.1935 366.51C29.1935 366.51 70.0364 389.591 107.688 383.938C132.577 380.17 137.044 359.916 129.386 346.256Z" fill="#77716D"/>
<path d="M23.4487 350.966H24.7251C47.6992 343.43 53.4428 322.233 48.3374 323.646C40.6794 325.53 31.7449 333.538 20.2579 332.596C14.5143 332.125 6.21818 327.886 3.66551 322.704C3.02734 324.117 1.75098 328.357 1.75098 330.241C1.75098 347.198 23.4487 350.966 23.4487 350.966Z" fill="#C1BFBD"/>
<path d="M611.198 625.106C609.284 625.106 601.626 609.091 601.626 609.091C565.888 615.685 491.222 610.975 428.682 595.431C428.682 595.431 421.662 606.265 415.918 612.859C430.596 616.156 473.354 624.164 485.479 629.345C530.789 648.187 544.191 652.426 561.421 654.781C565.25 645.831 575.461 636.411 578.652 634.056C586.31 628.403 611.198 625.106 611.198 625.106Z" fill="#B5B5B5"/>
<path d="M519.94 629.818C502.71 625.107 482.926 617.571 465.058 613.332C451.018 610.034 436.34 607.679 421.662 605.324C419.748 607.679 417.833 610.034 415.918 611.919C430.596 615.216 473.354 623.223 485.479 628.405C530.789 647.246 544.191 651.485 561.421 653.841C564.612 647.246 572.27 638.296 572.27 638.296C552.487 637.825 538.447 634.999 519.94 629.818Z" fill="#A3A2A2"/>
<path d="M228.939 262.41C232.768 275.128 215.537 288.788 191.286 292.556C167.036 296.324 144.062 288.788 140.233 276.07C136.404 263.352 153.635 249.692 177.885 245.924C202.774 242.155 225.748 249.692 228.939 262.41Z" fill="#D6D3D0"/>
<path d="M204.689 267.592C207.241 276.071 197.669 284.55 183.629 286.905C169.589 289.26 156.188 284.55 153.635 276.071C151.082 267.592 160.655 259.114 174.695 256.759C188.734 254.403 202.136 259.114 204.689 267.592Z" fill="black"/>
<path d="M193.201 262.881C193.839 265.236 191.925 267.592 188.734 268.063C185.543 268.534 182.352 267.121 181.714 264.765C181.076 262.41 182.99 260.055 186.181 259.584C189.372 259.113 192.563 260.526 193.201 262.881Z" fill="white"/>
<path d="M4.94385 332.123C4.94385 332.123 11.3255 339.66 20.8981 340.131C27.918 340.602 43.8722 330.71 43.8722 330.71C43.8722 330.71 36.2141 345.784 23.4507 348.139C17.069 347.197 4.94385 339.189 4.94385 332.123Z" fill="#595552"/>
<path d="M36.8437 375.458C20.2513 365.567 20.8895 345.312 20.8895 344.841L25.3567 346.254C24.7185 346.254 23.4422 365.096 36.8437 375.458Z" fill="#595552"/>
<path d="M304.241 225.199C304.241 225.199 318.919 95.6646 335.511 73.055C352.104 50.4454 396.775 11.3496 407.624 16.06C417.835 20.2993 410.815 73.526 407.624 93.7804C403.157 120.158 368.696 188.929 304.241 225.199Z" fill="#FFC2B6"/>
<path d="M304.241 225.201C304.241 225.201 312.537 112.624 330.406 82.9486C344.445 59.397 365.505 75.8831 362.952 113.095C359.762 162.553 338.064 194.113 304.241 225.201Z" fill="#F4A59A"/>
<path d="M36.852 374.987C47.0628 383.465 93.6491 398.068 122.367 390.06C147.894 401.836 251.915 413.612 295.949 366.037C282.547 401.365 251.277 446.113 98.1164 408.43C59.188 404.662 35.5757 387.705 35.5757 387.705C35.5757 387.705 31.7467 382.994 36.852 374.987Z" fill="#B7B5B3"/>
<path d="M57.9102 389.118C57.9102 389.118 99.3912 398.539 121.727 390.06C147.254 401.836 251.276 413.612 295.309 366.037C295.309 366.037 267.868 443.287 102.582 402.778C77.0552 401.365 57.9102 389.118 57.9102 389.118Z" fill="#CCCAC8"/>
<path d="M593.969 686.812C593.969 686.812 599.712 665.616 606.732 656.666C614.39 647.717 655.233 645.361 655.233 645.361C655.233 645.361 612.475 642.064 599.712 651.014C588.863 659.022 581.843 687.284 581.843 687.284C581.843 687.284 591.416 686.812 593.969 686.812Z" fill="#66605D"/>
<path d="M97.4745 408.431C97.4745 408.431 168.95 426.801 219.365 420.678C269.78 414.554 285.735 387.706 301.689 352.849C301.689 384.408 283.82 435.751 199.582 444.23C135.127 450.824 100.027 438.106 100.027 438.106C100.027 438.106 94.9218 419.736 97.4745 408.431Z" fill="#706965"/>
<path d="M390.398 406.075C390.398 406.075 410.819 545.03 313.179 561.516C275.527 567.64 264.678 522.892 293.396 494.159C325.942 461.657 390.398 406.075 390.398 406.075Z" fill="#A09892"/>
<path d="M812.227 422.563C812.227 422.563 626.52 395.243 604.822 484.268C590.144 545.502 627.796 554.452 644.388 529.016C682.04 471.55 750.325 430.099 812.227 422.563Z" fill="#A09892"/>
<path d="M120.447 356.619C115.98 365.568 97.4727 368.866 80.2421 364.155C62.3734 358.974 52.1627 347.669 56.6299 338.72C61.0971 329.77 79.6039 326.473 96.8345 331.183C114.703 336.364 125.552 347.669 120.447 356.619Z" fill="#8E8680"/>
<path d="M281.268 328.357C286.373 345.314 264.675 363.684 232.767 369.337C200.858 374.989 170.226 365.568 164.483 348.611C159.377 331.654 181.075 313.284 212.984 307.631C244.892 301.979 275.524 311.4 281.268 328.357Z" fill="#A09892"/>
<path d="M267.229 592.134L234.682 513.001C237.873 538.437 242.34 583.185 242.34 583.185C255.742 589.308 267.229 592.134 267.229 592.134Z" fill="#726C67"/>
<path d="M590.781 484.266C590.781 484.266 560.149 548.327 639.92 623.692C627.156 623.692 611.84 625.105 611.84 625.105C611.84 625.105 538.451 561.987 590.781 484.266Z" fill="#7F7974"/>
<path d="M179.16 665.615C179.16 665.615 190.647 653.839 199.582 650.542C205.963 648.187 228.937 645.832 237.234 643.948C245.53 642.063 253.826 640.179 253.826 640.179C253.826 640.179 274.886 639.708 278.076 651.955C280.629 664.202 269.142 675.036 225.108 675.036C210.43 675.036 207.878 668.441 207.878 668.441C207.878 668.441 180.436 672.21 179.16 665.615Z" fill="#8E8680"/>
<path d="M197.026 689.638C197.026 689.638 205.322 667.028 214.257 662.318C223.191 657.607 238.507 654.31 238.507 654.31C238.507 654.31 212.342 656.194 205.322 661.376C197.026 667.028 187.454 688.225 187.454 688.225L197.026 689.638Z" fill="#66605D"/>
<path d="M611.204 625.106C611.204 625.106 655.875 622.751 674.382 623.222C703.1 624.164 779.042 642.534 779.042 642.534C753.515 629.345 709.482 614.272 676.935 613.33C636.092 611.446 611.204 625.106 611.204 625.106Z" fill="#726B67"/>
<path d="M457.402 508.762C457.402 508.762 456.125 554.453 428.684 595.432C448.467 600.143 448.467 600.143 448.467 600.143C448.467 600.143 463.783 558.692 457.402 508.762Z" fill="#726B67"/>
<path d="M415.918 612.388C415.918 612.388 426.129 599.67 428.682 594.96C433.787 595.902 448.465 599.67 448.465 599.67C444.636 610.975 439.531 617.098 439.531 617.098L415.918 612.388Z" fill="#8E8D8D"/>
<path d="M576.104 570.469C576.104 570.469 586.952 604.854 623.966 621.811C613.117 623.695 611.203 625.109 611.203 625.109C611.203 625.109 581.847 602.028 576.104 570.469Z" fill="#726B67"/>
<path d="M304.243 231.794C304.243 231.794 317.645 97.0785 335.514 73.0558C353.382 48.562 388.482 23.1262 388.482 23.1262C388.482 23.1262 341.895 50.4462 320.198 84.3605C296.585 122.514 298.5 202.119 271.697 212.953C296.585 219.547 304.243 231.794 304.243 231.794Z" fill="#7F7974"/>
<path d="M953.899 581.771C953.899 581.771 951.985 627.933 900.293 655.253C923.267 648.658 971.768 619.454 970.492 578.945C962.195 579.416 953.899 581.771 953.899 581.771Z" fill="#68615E"/>
</g>
</g>
<defs>
<clipPath id="clip0_1276_8610">
<rect width="1000" height="700" fill="white"/>
</clipPath>
<clipPath id="clip1_1276_8610">
<rect width="1000" height="700" fill="white"/>
</clipPath>
</defs>
</svg>
