<svg width="150" height="200" viewBox="0 0 150 200" fill="none" xmlns="http://www.w3.org/2000/svg">
<g clip-path="url(#clip0_1976_5407)">
<path opacity="0.11" d="M111.418 194.076C111.418 197.347 90.4444 200 64.5734 200C38.7024 200 17.7302 197.347 17.7302 194.076C17.7302 190.804 38.7024 188.151 64.5734 188.151C90.4444 188.151 111.418 190.804 111.418 194.076Z" fill="black"/>
<path d="M34.5264 194.137C37.668 194.202 41.1168 193.835 44.8548 193.026C47.7091 192.413 49.5436 189.541 48.9399 186.624C48.3364 183.706 45.3638 184.39 42.4994 185.06C31.0838 187.726 28.704 183.327 25.7769 179.77C20.8818 173.827 22.7772 160.663 26.8287 150.247C32.6783 135.179 27.6868 124.656 20.1328 120.908C13.0396 117.37 4.86196 120.085 0.717723 127.356C-0.749448 129.934 0.104102 133.248 2.62754 134.747C5.14105 136.241 8.38264 135.384 9.87074 132.795C11.4888 129.934 13.9296 129.852 15.5058 130.63C18.6583 132.195 20.3391 137.633 16.9848 146.252C11.9306 159.276 9.45438 176.749 17.6911 186.738C21.6272 191.514 27.2732 193.987 34.5264 194.137Z" fill="#E79D4F"/>
<path d="M18.6801 136.148C18.3347 133.344 17.1421 131.443 15.5058 130.63C15.1422 130.451 14.7258 130.334 14.2896 130.269C16.493 128.697 18.6611 126.361 22.1845 122.215C25.1015 124.309 27.4341 127.513 28.584 131.732C25.1188 133.84 21.9008 135.015 18.6801 136.148Z" fill="#C45F1A"/>
<path d="M18.2266 187.253C20.4937 183.704 22.8435 181.319 25.2734 178.929C25.4534 179.198 25.576 179.525 25.7769 179.77C27.3341 181.662 28.7786 183.761 31.4675 184.939C30.3021 187.095 28.565 189.705 26.8151 192.782C23.4271 191.668 20.5364 189.853 18.2266 187.253Z" fill="#C45F1A"/>
<path d="M23.3463 163.266C22.869 166.514 22.7736 169.619 23.1054 172.405C20.521 173.025 16.9158 173.324 12.6452 173.713C12.2352 170.242 12.3043 166.586 12.7515 162.897C16.7994 162.663 20.1728 162.777 23.3463 163.266Z" fill="#C45F1A"/>
<path d="M16.9849 146.252C17.3732 145.253 17.4804 144.448 17.7395 143.536C21.0311 143.491 24.5127 143.697 28.5624 144.613C28.1497 146.414 27.5879 148.288 26.8288 150.247C26.2907 151.631 25.798 153.065 25.348 154.522C21.0783 153.488 17.3622 152.932 15.0542 151.969C15.6378 150.001 16.275 148.077 16.9849 146.252Z" fill="#C45F1A"/>
<path d="M95.4641 164.996C95.1424 181.249 96.3641 190.399 100.745 194.126C104.119 196.996 111.752 197.419 110.881 191.883C107.729 171.861 113.663 130.209 109.531 130.124C105.398 130.038 95.7869 148.742 95.4641 164.996Z" fill="#E5A85E"/>
<path d="M95.4641 164.996C95.1424 181.249 96.3641 190.399 100.745 194.126C104.119 196.996 111.752 197.419 110.881 191.883C107.729 171.861 113.663 130.209 109.531 130.124C105.398 130.038 95.7869 148.742 95.4641 164.996Z" fill="#E28B3C"/>
<path d="M93.4472 99.4798C93.3445 104.667 111.662 116.448 111.53 131.394C111.308 156.398 94.7671 170.842 94.2644 189.251C82.6143 190.058 61.8193 189.666 41.8106 188.951C37.4 183.581 29.0315 170.717 40.3816 150.586C46.4303 139.857 72.3959 127.033 71.9913 99.3033C79.6472 99.7612 90.9982 98.7552 93.4472 99.4798Z" fill="#E79D4F"/>
<path d="M94.1115 191.197C93.3444 191.25 89.61 190.649 88.7619 190.692C90.4327 157.042 97.0241 149.199 87.4311 130.725C82.3269 120.895 82.9259 109.34 85.0531 99.1993C92.5317 99.3303 98.7222 99.1993 100.949 99.0962C100.847 104.282 111.132 116.603 112.391 131.483C114.498 156.384 94.6133 172.789 94.1115 191.197Z" fill="#F5DDBC"/>
<path opacity="0.3" d="M57.9857 147.096C69.1586 149.326 74.2392 157.739 76.079 164.989C77.419 170.266 77.8243 177.368 74.7818 183.637C84.2058 183.973 84.5721 187.833 85.4539 189.918C74.3046 190.255 56.5403 189.5 41.3622 188.942C39.6542 186.707 37.368 183.092 35.979 178.268C33.3046 157.296 47.3601 144.976 57.9857 147.096Z" fill="#7C0E0E"/>
<path d="M60.6746 188.194C58.4539 189.754 58.2321 193.648 58.283 194.22C65.9825 194.532 86.1475 195.138 86.1984 192.571C86.2493 190.003 80.8397 185.511 75.3909 185.397C69.9431 185.285 62.6527 186.804 60.6746 188.194Z" fill="#E79D4F"/>
<path d="M56.0059 142.749C68.896 145.236 76.3819 158.163 73.9502 174.791C72.8521 182.294 64.3781 190.887 60.0665 194.217C51.4499 194.38 51.1735 194.296 40.7115 193.87C24.9389 163.107 43.0641 140.251 56.0059 142.749Z" fill="#E79D4F"/>
<path opacity="0.22" d="M78.4852 168.399C78.1798 183.806 78.0171 191.007 78.918 194.323C82.1859 194.229 90.4935 192.687 92.0271 192.042C91.9935 188.546 95.6241 157.589 86.4138 142.919C84.1858 139.37 78.7907 152.992 78.4852 168.399Z" fill="#7C0E0E"/>
<path d="M78.0634 148.097C77.9879 151.891 79.4188 169.426 79.486 172.563C79.7506 184.872 80.0096 192.556 83.4922 195.959C86.8583 199.25 96.3004 200.088 94.8432 193.034C90.149 170.312 98.6829 149.943 87.99 132.023C84.7148 133.382 79.4451 143.395 78.0634 148.097Z" fill="#E79D4F"/>
<path d="M59.6757 157.217C57.9612 158.053 48.2701 155.019 40.2097 150.953C40.2806 150.825 40.3088 150.715 40.3815 150.587C41.3342 148.897 42.6095 147.285 44.0758 145.694C52.2725 151.864 61.1865 156.479 59.6757 157.217Z" fill="#C45F1A"/>
<path d="M77.3408 133.362C75.7699 134.513 67.1769 134.016 59.5774 130.603C61.0355 128.923 62.4082 127.146 63.619 125.219C71.4603 129.458 78.6498 132.402 77.3408 133.362Z" fill="#C45F1A"/>
<path d="M73.7337 147.617C71.9129 148.506 59.8101 144.937 49.679 140.276C51.2261 138.875 52.8151 137.436 54.4086 135.936C64.578 141.93 75.2382 146.884 73.7337 147.617Z" fill="#C45F1A"/>
<path d="M35.5891 178.924C40.8215 178.455 45.9266 178.881 45.5375 179.925C45.164 180.932 40.4588 182.583 36.7581 183.624C36.3264 182.403 35.8182 180.455 35.5891 178.924Z" fill="#C45F1A"/>
<path d="M51.4361 168.111C50.8116 169.186 41.8913 168.588 34.7 167.45C34.8345 165.763 35.1262 163.999 35.5789 162.14C43.6657 164.796 52.1524 166.88 51.4361 168.111Z" fill="#C45F1A"/>
<path d="M122.194 40.0828C119.765 52.4525 88.1964 44.0716 90.3135 34.2546C93.2187 20.7822 109.804 -1.33567 114.895 0.063289C120.7 1.65733 124.623 27.714 122.194 40.0828Z" fill="#E79D4F"/>
<path d="M115.297 37.0507C113.379 46.8193 92.6343 39.5727 94.306 31.8207C96.6003 21.1816 109.698 3.7158 113.717 4.81941C118.302 6.07905 117.215 27.2829 115.297 37.0507Z" fill="#EFC2B4"/>
<path d="M34.7755 53.5458C40.6641 64.6335 68.4142 47.1176 63.5599 38.3753C56.8976 26.3753 34.6709 10.2351 30.2103 13.1046C25.1225 16.3763 28.8877 42.4571 34.7755 53.5458Z" fill="#E79D4F"/>
<path d="M40.4924 48.5718C45.1421 57.3279 62.8763 44.1566 59.043 37.2518C53.7815 27.7757 36.229 15.0298 32.7065 17.2964C28.6887 19.8798 35.8419 39.8157 40.4924 48.5718Z" fill="#EFC2B4"/>
<path d="M32.5212 74.384C31.5522 103.13 63.6155 110.491 90.5028 106.876C112.042 103.981 138.963 86.2911 131.001 59.2182C123.93 35.1718 102.947 14.646 76.2946 18.8244C45.994 23.5749 33.5066 45.13 32.5212 74.384Z" fill="#E79D4F"/>
<path d="M36.1709 91.3427C31.9993 88.7566 26.925 86.4194 26.925 86.4194C26.925 86.4194 33.3274 80.5773 32.7619 72.9953C34.6573 71.09 38.4443 92.751 36.1709 91.3427Z" fill="#E79D4F"/>
<path d="M35.2063 75.8803C31.6229 78.0327 27.0759 76.9875 27.0759 76.9875C27.0759 76.9875 32.5074 71.8654 33.4346 65.021C35.4763 63.701 37.2888 74.629 35.2063 75.8803Z" fill="#E79D4F"/>
<path d="M131.873 75.0348C135.182 72.0205 138.403 69.465 138.403 69.465C138.403 69.465 133.046 65.309 132.326 58.4386C130.326 57.0553 130.068 76.6772 131.873 75.0348Z" fill="#E79D4F"/>
<path d="M129.272 61.3938C133.317 62.372 137.36 60.004 137.36 60.004C137.36 60.004 130.693 56.7454 127.834 50.4834C125.502 49.8378 126.921 60.8253 129.272 61.3938Z" fill="#E79D4F"/>
<path d="M74.9047 86.5578C80.1043 79.0009 82.5196 74.7306 87.6138 73.9447C92.5271 73.1867 96.1359 76.5763 103.373 82.3014C111.261 88.5429 127.164 81.4059 132.632 74.1862C130.346 90.424 109.277 104.971 90.6118 107.602C69.5632 110.569 45.6739 105.831 35.6973 90.7417C45.1594 94.3284 69.1405 94.9359 74.9047 86.5578Z" fill="#F5DDBC"/>
<path d="M85.8057 89.4068C84.4385 89.4068 81.855 88.0682 81.0378 86.9024C80.8251 86.5893 80.896 86.1546 81.2069 85.9316C81.4997 85.7003 81.9351 85.7774 82.1569 86.0951C82.7423 86.9433 84.9267 88.0143 85.7785 88.0143C85.8057 88.0143 85.8321 88.0143 85.8584 88.0097C86.1603 87.9818 87.3147 87.5155 88.211 86.3181C89.1873 85.0158 89.4982 83.3743 89.1428 81.4328C89.081 81.0557 89.321 80.6887 89.6936 80.6209C90.0927 80.5522 90.43 80.7975 90.4927 81.1783C91.0163 84.0998 90.1282 86.046 89.2937 87.1616C88.291 88.5132 86.8347 89.325 85.9739 89.3975C85.9203 89.4022 85.8675 89.4068 85.8057 89.4068Z" fill="#A16455"/>
<path d="M95.3393 87.9278C94.5048 87.9278 93.3504 87.6334 92.285 86.8986C91.1487 86.1183 89.6843 84.5353 89.1425 81.4281C89.0807 81.0472 89.3289 80.684 89.7025 80.6208C90.1197 80.566 90.4297 80.816 90.4924 81.1829C90.847 83.2646 91.726 84.8391 93.0486 85.7411C94.1585 86.5084 95.2503 86.5939 95.623 86.5085C96.4847 86.318 97.9664 85.22 98.5791 83.3603C98.6946 82.9971 99.0764 82.8066 99.4409 82.9199C99.8045 83.0425 99.9908 83.442 99.8754 83.8043C99.0409 86.3357 97.0438 87.6241 95.9075 87.8684C95.7384 87.9046 95.5521 87.9278 95.3393 87.9278Z" fill="#A16455"/>
<path d="M83.2914 78.9782C83.6986 81.7409 89.6846 81.818 89.6846 81.818C89.6846 81.818 95.3824 79.9415 94.9752 77.1788C94.5679 74.4162 82.8842 76.2155 83.2914 78.9782Z" fill="#904934"/>
<path d="M51.1124 72.0866C52.136 79.0266 58.4629 83.805 65.2443 82.7609C72.0247 81.7168 76.6926 75.2449 75.669 68.3049C74.6455 61.3648 68.3186 56.5854 61.5382 57.6295C54.7568 58.6746 50.0889 65.1465 51.1124 72.0866Z" fill="#7A361D"/>
<path d="M52.0763 72.735C53.0799 79.5348 59.4604 84.1897 66.329 83.1317C73.1967 82.0745 77.9519 75.7048 76.9492 68.905C75.9466 62.1052 69.5661 57.4503 62.6974 58.5083C55.8288 59.5664 51.0737 65.9361 52.0763 72.735Z" fill="#E7FFD2"/>
<path d="M55.2805 72.2446C55.9405 76.722 60.0284 79.8051 64.4099 79.1307C68.7924 78.4554 71.8094 74.2789 71.1485 69.8006C70.4886 65.3231 66.4007 62.2399 62.0192 62.9143C57.6367 63.5896 54.6196 67.7662 55.2805 72.2446Z" fill="#722A13"/>
<path d="M65.4863 66.4692C65.6444 67.5449 66.6262 68.2853 67.6788 68.1227C68.7306 67.9611 69.4551 66.9579 69.2969 65.8822C69.1378 64.8074 68.1561 64.0671 67.1043 64.2287C66.0517 64.3913 65.3272 65.3935 65.4863 66.4692Z" fill="#FAFEFF"/>
<path d="M121.824 61.1969C122.848 68.137 118.181 74.6089 111.4 75.6539C104.618 76.6981 98.2914 71.9187 97.2687 64.9786C96.2452 58.0386 100.912 51.5666 107.693 50.5226C114.475 49.4784 120.802 54.2569 121.824 61.1969Z" fill="#7A361D"/>
<path d="M121.091 62.107C122.093 68.9068 117.338 75.2764 110.47 76.3335C103.602 77.3916 97.2213 72.7367 96.2186 65.9369C95.2151 59.138 99.9703 52.7683 106.839 51.7103C113.708 50.6531 120.088 55.3071 121.091 62.107Z" fill="#E7FFD2"/>
<path d="M114.726 63.0901C115.386 67.5675 112.369 71.745 107.987 72.4194C103.606 73.0947 99.5176 70.0116 98.8577 65.5341C98.1968 61.0557 101.214 56.8783 105.595 56.2039C109.978 55.5295 114.065 58.6116 114.726 63.0901Z" fill="#722A13"/>
<path d="M112.853 59.1752C113.011 60.2499 112.287 61.2532 111.234 61.4158C110.182 61.5774 109.201 60.837 109.041 59.7614C108.883 58.6866 109.608 57.6833 110.66 57.5207C111.712 57.3591 112.694 58.0994 112.853 59.1752Z" fill="#FAFEFF"/>
<path d="M118.207 75.6312C118.101 75.6312 117.985 75.581 117.915 75.4807C117.799 75.3182 117.825 75.0869 117.985 74.9642C125.789 68.9726 136.592 64.654 146.881 63.4158C146.899 63.4111 146.907 63.4111 146.925 63.4111C147.112 63.4111 147.263 63.5523 147.289 63.738C147.307 63.9424 147.165 64.1282 146.97 64.1505C136.796 65.3795 126.126 69.6433 118.429 75.5541C118.358 75.608 118.287 75.6312 118.207 75.6312Z" fill="#A16455"/>
<path d="M119.805 78.2434C119.663 78.2434 119.53 78.1571 119.468 78.0168C119.388 77.8263 119.477 77.609 119.663 77.5273C123.986 75.6898 135.544 71.6303 149.686 73.6443C149.881 73.6712 150.023 73.8571 149.997 74.0614C149.961 74.2611 149.801 74.3884 149.58 74.3791C135.642 72.3921 124.209 76.4023 119.947 78.2165C119.902 78.2342 119.85 78.2434 119.805 78.2434Z" fill="#A16455"/>
<path d="M147.564 83.7727C147.529 83.7727 147.485 83.7681 147.449 83.7551C138.838 80.8383 127.342 80.711 120.258 81.8452C120.018 81.8721 119.876 81.7365 119.85 81.5368C119.815 81.3324 119.947 81.142 120.152 81.1104C127.28 79.9761 138.936 80.0942 147.68 83.0473C147.866 83.1104 147.973 83.3241 147.911 83.5192C147.857 83.6734 147.715 83.7727 147.564 83.7727Z" fill="#A16455"/>
<path d="M59.6349 84.8296C59.5994 84.8296 59.564 84.825 59.5285 84.8111C50.4918 81.936 34.3975 79.8134 20.4247 81.8997C20.2202 81.9221 20.0339 81.7901 20.0075 81.5867C19.9803 81.3823 20.123 81.1965 20.3175 81.1649C34.4947 79.0414 50.3319 81.1055 59.7422 84.1041C59.9366 84.1626 60.0439 84.3717 59.9812 84.5667C59.9366 84.7256 59.7858 84.8296 59.6349 84.8296Z" fill="#A16455"/>
<path d="M20.6109 93.2256C20.46 93.2256 20.3264 93.1299 20.2737 92.9803C20.2028 92.7853 20.3001 92.5725 20.4864 92.5047C37.2907 86.2585 52.5952 86.6348 58.4275 87.0891C58.632 87.1067 58.783 87.2841 58.7647 87.4876C58.7475 87.6919 58.5784 87.8963 58.3748 87.8322C52.6224 87.3882 37.4153 87.0073 20.7346 93.2033C20.691 93.2163 20.6555 93.2256 20.6109 93.2256Z" fill="#A16455"/>
<path d="M26.1233 102.248C25.9987 102.248 25.8751 102.184 25.8124 102.066C25.706 101.889 25.7687 101.658 25.937 101.554C36.5635 95.1533 50.1453 91.4794 58.8983 90.6768H58.9338C59.1202 90.6768 59.2801 90.8217 59.2974 91.0167C59.3156 91.2211 59.1647 91.4022 58.9692 91.4208C50.2962 92.2095 36.838 95.8519 26.3096 102.197C26.2478 102.229 26.186 102.248 26.1233 102.248Z" fill="#A16455"/>
<path d="M91.1817 32.3727C89.3236 32.6374 86.8038 25.6751 84.7412 18.4331C87.3165 18.5288 89.7818 18.9422 92.2135 19.4791C93.5097 26.7322 92.8989 32.1265 91.1817 32.3727Z" fill="#C45F1A"/>
<path d="M71.0403 37.9157C69.2504 38.8149 64.8834 32.4033 61.2864 23.5933L61.2209 23.4131C63.3535 22.4498 65.5597 21.5561 67.9632 20.8418C71.4066 29.4409 72.7947 37.0341 71.0403 37.9157Z" fill="#C45F1A"/>
<path d="M72.7192 19.6899C73.9409 19.4289 75.0091 19.0258 76.2944 18.8241C77.5099 18.6337 78.6452 18.7498 79.836 18.6606C79.8724 18.786 79.9142 18.8911 79.9506 19.0192C83.0331 30.0532 83.534 39.6072 81.6268 40.1627C79.7197 40.7192 76.1263 32.068 73.0447 21.0342C72.912 20.5622 72.8283 20.1386 72.7192 19.6899Z" fill="#C45F1A"/>
</g>
<defs>
<clipPath id="clip0_1976_5407">
<rect width="150" height="200" fill="white"/>
</clipPath>
</defs>
</svg>
