<svg width="500" height="700" viewBox="0 0 500 700" fill="none" xmlns="http://www.w3.org/2000/svg">
<g clip-path="url(#clip0_1276_9008)">
<path fill-rule="evenodd" clip-rule="evenodd" d="M431.307 544.13C392.41 437.086 316.031 387.194 316.98 448.472C316.98 448.472 302.963 529.482 252.587 529.482C202.213 529.482 188.195 448.472 188.195 448.472C189.144 387.194 112.765 437.086 73.8682 544.13C75.5903 477.725 117.489 381.823 140.182 240.711C170.756 50.5718 252.587 118.864 252.587 310.268C252.587 118.864 334.419 50.5718 364.993 240.711C387.687 381.823 429.585 477.725 431.307 544.13Z" fill="#979694"/>
<path fill-rule="evenodd" clip-rule="evenodd" d="M252.587 58.4277V98.6667C204.905 99.0882 160.866 134.155 139.408 177.057C149.055 106.656 124.022 68.9474 252.587 58.4277Z" fill="#979694"/>
<path fill-rule="evenodd" clip-rule="evenodd" d="M389.363 331.486L389.452 355.367L374.75 344.581L367.378 373.367L357.091 360.272L336.031 380.114L322.632 373.367L305.832 393.009L290.865 380.114C290.865 380.114 278.194 408.7 280.115 442.746C282.036 476.77 282.036 476.77 282.036 476.77L268.416 471.533L252.587 483.984L236.76 471.533L223.139 476.77C223.139 476.77 223.139 476.77 225.06 442.746C226.981 408.7 214.309 380.114 214.309 380.114L199.343 393.009L182.544 373.367L169.144 380.114L148.084 360.272L137.797 373.367L130.424 344.581L115.723 355.367L115.811 331.486H100.998C100.998 331.486 111.307 318.391 112.522 290.915C113.338 272.937 120.733 246.57 125.767 230.457C125.679 237.759 126.408 244.995 128.04 252.053C128.04 252.053 151.749 293.112 169.144 306.428C186.539 319.745 186.539 332.795 186.539 332.795L194.154 314.198L199.343 339.72L212.477 332.795L225.811 350.818L231.594 344.16L252.587 369.128L273.581 344.16L279.364 350.818L292.698 332.795L305.832 339.72L311.02 314.198L318.636 332.795C318.636 332.795 318.636 319.745 336.031 306.428C353.425 293.112 377.135 252.053 377.135 252.053C378.769 244.995 379.496 237.759 379.407 230.457C384.441 246.57 391.836 272.937 392.653 290.915C393.867 318.391 404.177 331.486 404.177 331.486H389.363Z" fill="#F2F1F0"/>
<path fill-rule="evenodd" clip-rule="evenodd" d="M403.097 485.071C358.859 465.028 312.237 463.985 298.218 529.482C298.218 529.482 284.201 617.46 252.589 617.46C220.979 617.46 206.961 529.482 206.961 529.482C192.944 463.985 146.321 465.028 102.082 485.071C141.288 421.106 188.948 399.978 188.197 448.472C188.197 448.472 202.215 529.482 252.589 529.482C302.965 529.482 316.982 448.472 316.982 448.472C316.231 399.978 363.891 421.106 403.097 485.071Z" fill="#6A6A67"/>
<path fill-rule="evenodd" clip-rule="evenodd" d="M379.409 230.456C379.497 237.759 378.77 244.994 377.136 252.052C377.136 252.052 353.427 293.111 336.032 306.428C318.637 319.744 318.637 332.795 318.637 332.795L311.022 314.197L305.833 339.719L292.7 332.795L279.366 350.817L273.583 344.159L252.589 369.128L231.595 344.159L225.812 350.817L212.478 332.795L199.345 339.719L194.156 314.197L186.54 332.795C186.54 332.795 186.54 319.744 169.146 306.428C151.751 293.111 128.041 252.052 128.041 252.052C126.409 244.994 125.681 237.759 125.769 230.456C128.418 221.935 130.426 216.296 130.426 216.296C135.084 202.226 137.778 189.152 139.41 177.057C160.868 134.155 204.907 99.0885 252.589 98.667C300.271 99.0885 344.31 134.155 365.767 177.057C367.401 189.152 370.093 202.226 374.752 216.296C374.752 216.296 376.761 221.935 379.409 230.456Z" fill="#CBCCCB"/>
<path fill-rule="evenodd" clip-rule="evenodd" d="M125.768 230.459C125.9 212.549 130.866 194.172 139.409 177.061C137.777 189.156 135.083 202.229 130.425 216.299C130.425 216.299 128.417 221.938 125.768 230.459Z" fill="#979694"/>
<path fill-rule="evenodd" clip-rule="evenodd" d="M252.586 58.4277V98.6667C300.268 99.0882 344.307 134.155 365.765 177.057C356.118 106.656 381.15 68.9474 252.586 58.4277Z" fill="#979694"/>
<path fill-rule="evenodd" clip-rule="evenodd" d="M416.074 603.3C371.13 667.664 353.139 665.977 338.151 665.977C323.163 665.977 252.588 665.977 252.588 665.977C252.588 665.977 182.015 665.977 167.025 665.977C152.037 665.977 134.046 667.664 89.1015 603.3C77.5118 586.699 73.2505 567.19 73.8687 544.129C81.9936 521.802 91.7509 501.938 102.081 485.071C146.32 465.028 192.942 463.985 206.959 529.482C206.959 529.482 220.978 617.459 252.588 617.459C284.2 617.459 298.217 529.482 298.217 529.482C312.235 463.985 358.858 465.028 403.095 485.071C413.427 501.938 423.184 521.802 431.307 544.129C431.926 567.19 427.664 586.699 416.074 603.3Z" fill="#52524F"/>
<path fill-rule="evenodd" clip-rule="evenodd" d="M379.41 230.46C379.276 212.549 374.31 194.173 365.767 177.061C367.401 189.156 370.095 202.23 374.752 216.3C374.752 216.3 376.761 221.938 379.41 230.46Z" fill="#979694"/>
<path fill-rule="evenodd" clip-rule="evenodd" d="M200.338 374.12C200.338 374.12 207.512 411.368 207.512 421.873C207.512 432.38 207.512 437.373 207.512 437.373L217.446 421.873L229.587 455.684L279.372 459.013L287.533 416.565L296.915 421.873C296.915 421.873 299.675 401.006 301.883 377.297C304.09 353.589 243.383 406.856 200.338 374.12Z" fill="#F2F1F0"/>
<path fill-rule="evenodd" clip-rule="evenodd" d="M101.815 686.084C97.7321 684.841 93.8242 683.864 90.0724 683.132C90.0724 682.842 90.0061 682.532 89.962 682.244C88.5048 674.098 84.9722 668.949 80.7788 665.688C94.354 663.246 104.928 656.277 100.998 651.549C96.6502 646.311 50.6902 602.655 39.8291 557.8C50.7786 560.818 61.4631 558.843 67.8864 554.494C83.3384 543.995 86.0982 501.183 86.0982 501.183C86.4514 497.409 86.7605 494.08 87.0255 491.106C128.218 504.999 158.393 595.486 159.277 639.342C160.16 683.73 134.045 696.004 101.815 686.084Z" fill="#52524F"/>
<path fill-rule="evenodd" clip-rule="evenodd" d="M90.0732 683.134C64.0897 678.007 45.7233 684.022 37.5337 685.953C28.1739 688.173 43.6054 662.649 63.4715 665.978C69.212 666.932 75.2378 666.689 80.7796 665.69C84.973 668.951 88.5056 674.101 89.9628 682.247C90.0069 682.534 90.0732 682.845 90.0732 683.134Z" fill="#1A1919"/>
<path fill-rule="evenodd" clip-rule="evenodd" d="M87.0251 491.107C86.7602 494.08 86.4511 497.41 86.0978 501.183C86.0978 501.183 83.338 543.996 67.8861 554.494C61.4627 558.843 50.7782 560.819 39.8287 557.8C36.8702 545.616 36.517 533.321 40.2924 521.712C57.9522 467.336 85.5459 490.64 85.5459 490.64C86.0316 490.774 86.5394 490.93 87.0251 491.107Z" fill="#6A6A67"/>
<path fill-rule="evenodd" clip-rule="evenodd" d="M193.713 443.302C188.085 493.595 195.921 575.714 148.526 581.928C128.174 584.614 113.14 578.243 102.61 570.099C87.1143 534.72 74.2219 498.365 79.9182 478.058C106.673 382.999 123.339 379.67 123.339 379.67C138.062 372.013 173.516 382.933 190.955 412.052C193.647 422.35 194.862 432.959 193.713 443.302Z" fill="#979694"/>
<path fill-rule="evenodd" clip-rule="evenodd" d="M148.526 696.228C143.162 695.962 138.327 695.694 134.354 695.562C110.58 694.829 110.581 700 101.661 700C92.7425 700 95.7231 688.903 95.7231 688.903C68.9905 685.951 55.1267 704.44 56.1202 693.342C57.1138 682.245 85.8334 671.147 94.7516 673.367C97.3127 674.011 100.888 674.854 104.995 675.521C107.158 678.139 108.77 680.491 109.278 682.067C109.278 682.067 130.115 673.744 140.932 682.067C144.531 684.842 147.179 690.146 148.526 696.228Z" fill="#1A1919"/>
<path fill-rule="evenodd" clip-rule="evenodd" d="M223.471 682.243C214.398 698.866 175.106 697.557 148.526 696.226C147.179 690.145 144.531 684.84 140.933 682.065C130.116 673.742 109.278 682.065 109.278 682.065C108.77 680.49 107.159 678.137 104.995 675.519C115.149 677.226 132.279 672.301 140.734 665.974C147.466 660.936 122.831 616.348 102.61 570.095C113.14 578.24 128.174 584.61 148.526 581.924C195.921 575.711 188.085 493.591 193.713 443.299C194.861 432.956 193.647 422.347 190.955 412.049C196.451 421.193 200.16 432.156 200.867 444.919C203.824 498.185 234.354 662.268 223.471 682.243Z" fill="#6A6A67"/>
<path fill-rule="evenodd" clip-rule="evenodd" d="M131.17 391.507C131.17 391.507 109.952 392.987 97.0137 459.571C84.0756 526.154 143.174 491.563 164.209 447.734C185.242 403.905 152.748 386.13 131.17 391.507Z" fill="#B1B1AD"/>
<path fill-rule="evenodd" clip-rule="evenodd" d="M403.36 686.084C407.444 684.841 411.351 683.864 415.104 683.132C415.104 682.843 415.17 682.532 415.214 682.244C416.67 674.099 420.203 668.949 424.397 665.688C410.821 663.247 400.247 656.278 404.177 651.55C408.525 646.312 454.485 602.656 465.346 557.8C454.396 560.818 443.713 558.843 437.288 554.494C421.836 543.996 419.077 501.183 419.077 501.183C418.723 497.409 418.414 494.08 418.149 491.106C376.958 505 346.781 595.487 345.898 639.343C345.015 683.731 371.13 696.004 403.36 686.084Z" fill="#52524F"/>
<path fill-rule="evenodd" clip-rule="evenodd" d="M415.104 683.134C441.085 678.007 459.452 684.022 467.641 685.953C477.001 688.173 461.571 662.649 441.704 665.978C435.963 666.932 429.937 666.689 424.397 665.69C420.202 668.951 416.669 674.101 415.214 682.247C415.17 682.534 415.104 682.845 415.104 683.134Z" fill="#1A1919"/>
<path fill-rule="evenodd" clip-rule="evenodd" d="M418.148 491.107C418.413 494.08 418.723 497.41 419.076 501.183C419.076 501.183 421.836 543.996 437.288 554.494C443.712 558.843 454.395 560.819 465.345 557.8C468.303 545.616 468.657 533.321 464.881 521.712C447.221 467.336 419.628 490.64 419.628 490.64C419.142 490.774 418.634 490.93 418.148 491.107Z" fill="#6A6A67"/>
<path fill-rule="evenodd" clip-rule="evenodd" d="M311.463 443.302C317.091 493.595 309.255 575.714 356.65 581.928C377.003 584.614 392.036 578.243 402.566 570.099C418.062 534.72 430.954 498.365 425.26 478.058C398.503 382.999 381.837 379.67 381.837 379.67C367.114 372.013 331.662 382.933 314.223 412.052C311.529 422.35 310.315 432.959 311.463 443.302Z" fill="#979694"/>
<path fill-rule="evenodd" clip-rule="evenodd" d="M356.648 696.228C362.011 695.962 366.847 695.694 370.819 695.562C394.595 694.83 394.595 700 403.513 700C412.431 700 409.451 688.904 409.451 688.904C436.183 685.952 450.047 704.44 449.054 693.342C448.06 682.246 419.34 671.147 410.422 673.367C407.861 674.012 404.286 674.855 400.179 675.521C398.016 678.139 396.405 680.492 395.898 682.067C395.898 682.067 375.059 673.744 364.242 682.067C360.644 684.842 357.995 690.147 356.648 696.228Z" fill="#1A1919"/>
<path fill-rule="evenodd" clip-rule="evenodd" d="M281.705 682.243C290.778 698.866 330.072 697.557 356.65 696.226C357.996 690.145 360.646 684.84 364.243 682.065C375.06 673.742 395.899 682.065 395.899 682.065C396.407 680.49 398.017 678.137 400.181 675.519C390.026 677.226 372.896 672.301 364.442 665.974C357.709 660.936 382.344 616.348 402.565 570.095C392.035 578.24 377.003 584.61 356.65 581.924C309.254 575.711 317.091 493.591 311.462 443.299C310.314 432.956 311.529 422.347 314.222 412.049C308.725 421.193 305.015 432.156 304.31 444.919C301.352 498.185 270.822 662.268 281.705 682.243Z" fill="#6A6A67"/>
<path fill-rule="evenodd" clip-rule="evenodd" d="M374.006 391.507C374.006 391.507 395.222 392.987 408.16 459.571C421.098 526.154 362 491.563 340.965 447.734C319.932 403.905 352.425 386.13 374.006 391.507Z" fill="#B1B1AD"/>
<path fill-rule="evenodd" clip-rule="evenodd" d="M269.103 134.222C273.555 166.464 338.828 216.459 411.534 205.987C418.3 204.996 424.443 203.181 430.029 200.665C441.735 196.674 450.748 188.644 462.721 179.574C474.694 170.504 481.081 177.47 481.081 177.47C482.972 166.585 476.963 155.797 476.652 155.217C482.394 160.224 493.877 155.194 493.877 155.194C485.531 149.534 486.645 130.596 486.645 130.596L495.547 135.432C495.547 111.414 488.76 104.158 488.335 103.723L499.975 110.616C499.33 109.31 478.032 67.5866 461.607 59.8473H468.285C468.285 59.8473 447.944 19.357 396.223 13.8906C344.526 8.4241 305.823 44.1256 293.584 62.2656C289.556 68.2396 282.167 76.8021 274.934 83.0422C269.548 100.579 267.056 119.42 269.103 134.222Z" fill="#979694"/>
<path fill-rule="evenodd" clip-rule="evenodd" d="M334.844 107.013C334.844 107.013 329.133 84.6395 348.168 66.4994C367.203 48.3577 414.155 46.5444 431.921 66.4994C449.688 86.4528 450.322 117.293 450.322 117.293L441.438 114.582C441.438 114.582 440.17 129.386 450.322 134.223C450.322 134.223 442.074 140.875 429.383 134.223C429.383 134.223 436.997 142.69 434.46 153.573C434.46 153.573 424.942 149.341 420.5 149.341C420.5 149.341 428.114 169.295 410.982 177.156C410.982 177.156 416.692 171.126 401.466 161.443C401.466 161.443 395.756 165.666 399.561 173.528C399.561 173.528 379.081 174.938 370.286 166.07C370.286 166.07 366.568 174.738 372.914 180.785C372.914 180.785 339.285 165.666 336.747 149.341C334.208 133.014 334.844 107.013 334.844 107.013Z" fill="#6A6A67"/>
<path fill-rule="evenodd" clip-rule="evenodd" d="M274.936 83.0415C282.17 76.8014 289.558 68.2388 293.586 62.2649C305.826 44.1249 344.528 8.42338 396.225 13.8898C447.946 19.3563 468.287 59.8466 468.287 59.8466H461.61C478.035 67.5859 499.333 109.309 499.978 110.615C500 110.64 500 110.64 500 110.64C497.775 93.1033 482.752 69.715 482.752 69.715H495.371C490.919 68.9166 483.398 60.7904 476.988 52.8808C470.579 44.9712 465.283 37.255 465.283 37.255C445.966 4.72398 404.883 -1.83183 373.703 0.393111C339.587 2.8131 303.045 35.0549 303.045 35.0549C291.517 43.5199 281.235 62.3856 274.936 83.0415Z" fill="#B1B1AD"/>
<path fill-rule="evenodd" clip-rule="evenodd" d="M230.89 134.223C226.44 166.465 161.166 216.46 88.459 205.988C81.695 204.996 75.5524 203.181 69.9665 200.665C58.26 196.675 49.2471 188.645 37.2742 179.575C25.2996 170.505 18.9127 177.47 18.9127 177.47C17.0218 166.585 23.0303 155.798 23.3425 155.218C17.6005 160.225 6.11645 155.194 6.11645 155.194C14.4622 149.535 13.3503 130.596 13.3503 130.596L4.44796 135.433C4.44796 111.415 11.2355 104.158 11.6582 103.723L0.0195312 110.616C0.664545 109.31 21.9626 67.5871 38.386 59.8478H31.7104C31.7104 59.8478 52.0512 19.3575 103.771 13.8911C155.469 8.42459 194.17 44.1261 206.41 62.2661C210.439 68.24 217.828 76.8026 225.06 83.0427C230.446 100.579 232.939 119.42 230.89 134.223Z" fill="#979694"/>
<path fill-rule="evenodd" clip-rule="evenodd" d="M165.155 107.012C165.155 107.012 170.866 84.639 151.831 66.4989C132.796 48.3573 85.8422 46.5439 68.0768 66.4989C50.3113 86.4523 49.6758 117.292 49.6758 117.292L58.5593 114.581C58.5593 114.581 59.8288 129.386 49.6758 134.222C49.6758 134.222 57.9253 140.874 70.6142 134.222C70.6142 134.222 63.0003 142.689 65.5394 153.572C65.5394 153.572 75.0568 149.341 79.4978 149.341C79.4978 149.341 71.8838 169.294 89.0153 177.156C89.0153 177.156 83.3048 171.126 98.5328 161.442C98.5328 161.442 104.243 165.666 100.436 173.527C100.436 173.527 120.916 174.937 129.711 166.069C129.711 166.069 133.43 174.737 127.085 180.784C127.085 180.784 160.713 165.666 163.252 149.341C165.789 133.014 165.155 107.012 165.155 107.012Z" fill="#6A6A67"/>
<path fill-rule="evenodd" clip-rule="evenodd" d="M225.062 83.042C217.83 76.8019 210.442 68.2393 206.412 62.2654C194.173 44.1254 155.472 8.42387 103.773 13.8903C52.0537 19.3568 31.7129 59.8471 31.7129 59.8471H38.3885C21.9651 67.5864 0.667056 109.31 0.0220425 110.616C-3.61928e-05 110.64 3.8637e-10 110.64 3.8637e-10 110.64C2.22522 93.1038 17.2466 69.7155 17.2466 69.7155H4.62864C9.07908 68.9171 16.6016 60.7909 23.0107 52.8813C29.4199 44.9717 34.7172 37.2555 34.7172 37.2555C54.0344 4.72446 95.1167 -1.83134 126.295 0.393599C160.413 2.81359 196.955 35.0554 196.955 35.0554C208.483 43.5204 218.764 62.3861 225.062 83.042Z" fill="#B1B1AD"/>
<path fill-rule="evenodd" clip-rule="evenodd" d="M389.356 233.569C389.356 233.592 389.356 233.615 389.356 233.615C387.298 245.794 383.751 257.071 378.475 266.66C351.106 316.343 290.895 314.032 252.579 314.032C214.263 314.032 154.053 316.343 126.684 266.66C121.408 257.071 117.861 245.794 115.803 233.615C115.803 233.615 115.803 233.592 115.803 233.569C116.022 230.035 127.932 51.7554 252.579 51.7554C377.227 51.7554 389.137 230.035 389.356 233.569Z" fill="#979694"/>
<path fill-rule="evenodd" clip-rule="evenodd" d="M275.587 269.123C270.209 276.717 258.856 276.717 252.579 276.717C246.303 276.717 234.949 276.717 229.573 269.123C224.196 261.527 224.912 231.414 229.573 214.967C236.749 189.668 252.579 189.668 252.579 189.668C252.579 189.668 268.41 189.668 275.587 214.967C280.247 231.414 280.963 261.527 275.587 269.123Z" fill="#1A1919"/>
<path fill-rule="evenodd" clip-rule="evenodd" d="M389.355 233.571C389.136 230.036 377.226 51.757 252.578 51.757C127.931 51.757 116.021 230.036 115.802 233.571C107.218 182.757 124.362 110.453 147.483 82.007C183.435 37.7082 252.578 37.8933 252.578 37.8933C252.578 37.8933 322.088 35.189 358.038 79.4878C381.159 107.933 397.937 182.757 389.355 233.571Z" fill="#B1B1AD"/>
<path fill-rule="evenodd" clip-rule="evenodd" d="M252.579 256.693C238.25 256.693 233.31 247.889 239.194 223C245.08 198.135 252.579 198.135 252.579 198.135C252.579 198.135 260.079 198.135 265.963 223C271.847 247.889 266.909 256.693 252.579 256.693Z" fill="#1B1E1F"/>
<path fill-rule="evenodd" clip-rule="evenodd" d="M199.352 188.904C199.352 200.503 190.38 209.907 179.314 209.907C168.248 209.907 159.277 200.503 159.277 188.904C159.277 177.305 168.248 167.901 179.314 167.901C190.38 167.901 199.352 177.305 199.352 188.904Z" fill="#F2F1F0"/>
<path fill-rule="evenodd" clip-rule="evenodd" d="M195.931 188.161C195.931 180.405 189.934 174.119 182.534 174.119C175.136 174.119 169.139 180.405 169.139 188.161C169.139 195.915 175.136 202.201 182.534 202.201C189.934 202.201 195.931 195.915 195.931 188.161Z" fill="#1A1919"/>
<path fill-rule="evenodd" clip-rule="evenodd" d="M167.015 178.791C167.015 175.23 169.768 172.344 173.165 172.344C176.562 172.344 179.316 175.23 179.316 178.791C179.316 182.352 176.562 185.239 173.165 185.239C169.768 185.239 167.015 182.352 167.015 178.791Z" fill="#FFFFFE"/>
<path fill-rule="evenodd" clip-rule="evenodd" d="M305.804 188.903C305.804 200.503 314.776 209.906 325.842 209.906C336.908 209.906 345.878 200.503 345.878 188.903C345.878 177.304 336.908 167.9 325.842 167.9C314.776 167.9 305.804 177.304 305.804 188.903Z" fill="#F2F1F0"/>
<path fill-rule="evenodd" clip-rule="evenodd" d="M309.226 188.161C309.226 180.405 315.225 174.119 322.623 174.119C330.021 174.119 336.02 180.405 336.02 188.161C336.02 195.915 330.021 202.201 322.623 202.201C315.225 202.201 309.226 195.915 309.226 188.161Z" fill="#1A1919"/>
<path fill-rule="evenodd" clip-rule="evenodd" d="M338.146 178.79C338.146 175.23 335.391 172.344 331.994 172.344C328.597 172.344 325.843 175.23 325.843 178.79C325.843 182.351 328.597 185.239 331.994 185.239C335.391 185.239 338.146 182.351 338.146 178.79Z" fill="#FFFFFE"/>
</g>
<defs>
<clipPath id="clip0_1276_9008">
<rect width="500" height="700" fill="white"/>
</clipPath>
</defs>
</svg>
