<svg width="1000" height="700" viewBox="0 0 1000 700" fill="none" xmlns="http://www.w3.org/2000/svg">
<g clip-path="url(#clip0_1276_8474)">
<path d="M997.063 335.811C997.063 335.811 1011.09 388.21 977.831 430.8C952.716 463.101 952.037 457.119 937.103 490.617C937.103 490.617 937.33 438.935 955.204 412.615C980.32 375.529 982.846 358.436 982.846 358.436C982.846 358.436 996.158 339.878 997.063 335.811Z" fill="#6D503D"/>
<path d="M937.656 176.406C937.656 176.406 959.667 194.996 966.727 204.642C981.262 225.16 983.338 359.474 983.338 359.474C999.535 360.35 999.535 356.055 999.535 356.055C999.535 356.055 998.289 278.022 999.535 253.645C999.535 228.638 1006.6 183.947 937.656 159.57C936.41 160.096 937.656 176.406 937.656 176.406Z" fill="#827B75"/>
<path d="M259.944 442.826C259.944 442.826 268.235 473.55 268.235 480.218C268.235 498.319 266.519 516.419 269.378 526.422C272.237 536.425 276.811 542.141 277.669 549.524C278.527 556.907 277.669 598.585 271.093 615.257C261.087 640.502 248.508 647.647 248.508 647.647L301.398 663.127C301.398 663.127 301.112 654.792 301.112 645.98C301.112 634.786 310.261 632.166 312.834 630.261C315.407 628.117 310.261 617.4 308.545 609.779C306.544 602.158 307.974 569.767 308.831 555.954C310.547 532.138 321.697 513.799 325.699 504.273C333.704 485.458 329.988 478.551 335.991 460.451C336.849 458.307 339.708 450.21 344.282 439.492L259.944 442.826Z" fill="#9B938C"/>
<path d="M259.942 442.826C259.942 442.826 268.233 473.55 268.233 480.218C268.233 498.319 266.518 516.419 269.377 526.422C272.235 536.425 276.81 542.141 277.667 549.524C277.953 551.667 277.667 565.242 277.667 571.435C288.245 574.293 294.535 623.831 273.093 654.792L301.396 663.127C301.396 663.127 301.111 654.792 301.111 645.98C301.111 634.786 310.259 632.166 312.832 630.261C315.405 628.117 310.259 617.4 308.544 609.779C306.543 602.158 307.972 569.767 308.83 555.954C310.545 532.138 321.695 513.799 325.697 504.273C333.702 485.458 329.986 478.551 335.99 460.451C336.847 458.307 339.706 450.21 344.28 439.492L259.942 442.826Z" fill="#7F7671"/>
<path d="M268.232 479.98C268.232 498.081 266.517 516.181 269.376 526.184C272.235 536.187 276.809 541.903 277.666 549.286C277.952 551.429 277.666 565.005 277.666 571.197C288.244 574.055 294.534 623.593 273.092 654.554L287.101 654.792C287.101 654.792 297.679 641.693 299.108 606.445C300.252 583.105 295.106 555.478 292.247 541.903C286.815 515.943 284.242 498.081 277.381 487.125C273.378 481.648 268.232 479.98 268.232 479.98Z" fill="#8C847E"/>
<path d="M299.965 662.888C299.965 662.888 273.091 642.406 248.504 647.408C236.783 654.553 228.492 667.413 229.063 670.033C229.635 672.653 239.356 674.082 253.364 673.844C262.799 673.844 296.248 675.511 299.965 662.888Z" fill="#563D32"/>
<path d="M275.663 650.268C267.087 647.172 257.938 645.504 248.504 647.648C237.068 654.555 228.777 667.177 229.063 670.035C245.073 675.513 270.803 660.032 275.663 650.268Z" fill="#604638"/>
<path d="M842.307 403.053C841.736 399.957 841.164 393.288 840.878 384.714H757.683C765.688 393.765 771.692 403.053 774.837 409.245C781.984 423.059 801.711 459.498 805.713 466.166C809.716 472.835 810.573 485.934 813.432 495.46C816.291 504.987 822.867 512.608 823.724 519.515C824.582 526.421 826.012 581.675 821.437 597.156C817.721 609.302 806.571 620.258 806.571 620.258L845.738 630.975C845.738 630.975 846.596 624.068 846.882 620.258C847.454 613.589 858.032 607.159 860.319 605.015C862.892 603.11 858.032 596.203 857.174 588.82C856.602 584.295 858.318 554.525 858.032 541.664C857.746 528.565 861.462 479.98 864.321 470.453C867.466 459.259 862.034 452.115 857.746 445.446C853.457 439.254 844.595 416.866 842.307 403.053Z" fill="#9B938C"/>
<path d="M857.746 445.684C853.457 439.016 844.881 416.866 842.307 403.053C841.736 399.957 841.164 393.288 840.878 384.714H757.683C765.688 393.765 771.692 403.053 774.837 409.245C781.984 423.059 801.711 459.498 805.713 466.166C809.716 472.835 810.573 485.934 813.432 495.46C816.291 504.987 822.867 512.608 823.724 519.515C824.01 521.658 824.296 530.47 824.582 539.044C824.582 539.044 828.585 540.473 829.728 542.14C844.595 566.433 841.45 604.063 827.441 625.974L845.738 630.975C845.738 630.975 846.596 624.068 846.882 620.258C847.454 613.589 858.032 607.159 860.319 605.015C862.892 603.11 858.032 596.203 857.174 588.82C856.602 584.295 858.318 554.525 858.032 541.664C857.746 528.565 861.462 479.98 864.321 470.453C867.466 459.498 862.034 452.353 857.746 445.684Z" fill="#8C847E"/>
<path d="M842.308 403.052C841.736 400.194 841.45 394.478 840.879 387.095H759.685C766.546 395.43 771.978 403.528 774.837 409.244C781.985 423.057 801.711 459.496 805.714 466.165C809.716 472.833 810.574 485.932 813.433 495.459C814.005 497.602 815.148 499.746 816.006 501.889H816.292C838.306 508.796 850.599 524.277 858.318 542.139C858.318 541.901 858.318 541.901 858.318 541.663C858.032 528.564 861.749 479.978 864.608 470.452C867.753 459.258 862.321 452.113 858.032 445.445C853.458 439.252 844.595 416.865 842.308 403.052Z" fill="#7F7671"/>
<path d="M845.735 631.216C845.735 631.216 823.435 620.022 806.568 620.498C797.133 627.405 785.983 637.646 786.841 640.028C787.985 643.6 812 644.315 821.148 643.6C832.012 642.409 842.59 642.171 845.735 631.216Z" fill="#604638"/>
<path d="M828.298 624.307C819.721 641.216 798.851 643.122 786.843 639.549C786.843 639.787 786.843 639.787 786.843 640.025C787.987 643.598 812.002 644.312 821.15 643.598C832.014 642.645 842.307 642.407 845.451 631.452C845.737 631.213 838.304 627.403 828.298 624.307Z" fill="#563D32"/>
<path d="M981.13 230.864C983.703 215.145 985.133 200.379 984.561 193.234C983.417 178.944 956.544 169.418 940.819 161.082C892.789 124.167 819.029 116.784 789.01 117.498C759.277 118.451 680.085 137.98 634.628 138.457C589.171 138.933 509.406 123.214 471.382 122.738C451.084 122.5 439.648 119.88 387.616 112.259C335.583 104.637 261.251 105.828 236.092 104.637C230.089 104.399 224.085 103.447 218.081 102.256V230.864H981.13Z" fill="#E5DDD1"/>
<path d="M972.389 192.993C971.246 178.703 944.372 169.177 928.648 160.841C928.648 160.841 828.871 138.216 796.279 143.693C766.832 148.457 705.365 184.181 643.898 193.231C538.975 208.712 448.347 197.518 395.743 192.04C234.785 175.131 134.722 123.926 134.722 123.926L104.131 254.916C105.561 257.059 106.99 259.441 108.706 262.06C117.854 276.35 138.439 311.598 141.012 333.748C143.299 355.659 136.437 395.908 170.745 429.489C205.338 463.07 227.066 464.023 262.516 465.928C298.253 467.833 383.163 434.729 417.471 437.11C452.064 439.492 540.976 460.45 583.003 464.499C625.029 468.31 659.336 449.733 681.922 442.588C704.222 435.443 763.116 396.861 780.841 390.669C795.136 385.429 813.147 391.383 824.869 400.671C861.463 389.716 898.057 381.38 934.938 370.663C941.513 346.847 954.092 293.736 959.524 274.207C966.1 252.296 973.533 207.521 972.389 192.993Z" fill="#9B938C"/>
<path d="M985.586 193.018C984.424 178.766 957.109 169.265 941.127 160.951C941.127 160.951 839.712 138.385 806.585 143.848C776.654 148.599 714.178 184.229 651.702 193.256C545.056 208.696 452.94 197.531 399.472 192.068C300.963 181.854 224.829 159.288 180.079 142.898L108.013 261.904C117.312 276.156 138.234 311.312 140.849 333.402C143.174 355.256 135.91 393.737 171.942 426.279C201.001 452.646 235.872 456.684 261.443 454.309C298.348 450.746 376.225 420.579 411.386 422.954C446.547 425.329 546.219 447.42 588.935 451.458C631.651 455.259 665.65 438.631 687.735 430.318C723.186 417.015 771.714 391.124 789.731 384.473C809.2 377.347 839.712 397.775 839.712 397.775C876.907 386.848 897.05 381.986 934.245 371.535C940.929 347.781 967.28 293.259 972.801 273.781C979.194 252.165 986.749 207.508 985.586 193.018Z" fill="#AFA79E"/>
<path d="M951.804 172.512L928.646 161.08C928.646 161.08 828.87 138.455 796.278 143.933C766.831 148.696 705.364 184.42 643.897 193.471C538.974 208.951 448.346 197.757 395.741 192.28C234.783 175.37 134.721 124.165 134.721 124.165C134.721 124.165 144.155 172.988 116.995 198.234C116.995 198.234 139.009 234.911 145.299 250.392C153.018 270.159 161.023 304.216 163.31 326.366C165.597 348.277 165.597 377.571 188.468 400.434C227.922 439.969 286.244 411.39 314.548 403.53C348.569 394.242 383.162 366.853 417.755 369.235C452.348 371.617 510.956 393.766 578.141 394.242C665.339 394.718 749.105 368.282 777.695 368.997C793.991 369.473 826.297 401.625 826.297 401.625L911.207 369.235C911.207 369.235 926.359 298.024 931.791 278.495C938.367 256.822 974.103 183.23 951.804 172.512Z" fill="#C9C2B8"/>
<path d="M701.646 433.537C701.646 433.537 727.376 475.215 807.998 471.643C844.878 469.976 854.027 454.257 854.027 454.257C854.027 454.257 844.02 403.528 811.429 391.62C784.555 381.855 767.973 396.383 748.818 407.339C729.663 418.294 701.646 433.537 701.646 433.537Z" fill="#D88D8D"/>
<path d="M714.224 426.63C714.224 426.63 739.382 457.353 800.277 454.733C835.156 453.304 851.167 444.016 851.167 444.016C851.167 444.016 844.019 403.528 811.142 391.62C784.268 381.855 767.686 396.383 748.531 407.339C729.662 418.294 714.224 426.63 714.224 426.63Z" fill="#E8A3A3"/>
<path d="M984.273 188.706C984.273 188.706 959.522 186.563 947.8 188.707C938.08 190.612 927.787 194.185 923.213 203.711C918.639 213.238 915.208 237.53 918.067 249.915C920.926 262.299 925.214 274.922 922.07 283.972C916.923 298.262 928.359 328.985 947.8 336.13C956.971 305.571 973.687 280.085 979.127 260.788C997.429 195.866 984.273 188.706 984.273 188.706Z" fill="black"/>
<path d="M923.785 312.552C923.785 312.552 926.93 293.975 932.648 276.827C942.369 248.486 962.381 199.9 959.236 187.992C955.805 187.754 951.803 187.992 947.8 188.707C938.08 190.612 927.788 194.184 923.214 203.711C918.639 213.237 915.209 237.53 918.067 249.915C920.926 262.299 925.215 274.922 922.07 283.972C919.211 291.593 919.211 301.596 923.785 312.552Z" fill="#141414"/>
<path d="M785.416 117.257C785.416 117.257 819.437 122.735 828.014 138.453C836.591 154.172 836.591 160.841 838.878 167.271C841.165 173.463 857.175 183.466 840.593 195.613C824.012 207.521 814.863 198.471 809.717 215.618C804.571 232.766 800.568 236.1 794.85 241.34C789.133 246.58 795.422 264.68 778.269 268.252C761.115 271.587 753.11 262.06 752.538 256.344C751.967 250.628 749.108 241.578 738.244 244.436C727.38 247.294 727.666 254.439 711.084 253.486C694.502 252.534 690.499 253.486 695.074 264.918C699.648 276.35 707.653 298.023 692.215 301.357C676.776 304.691 693.93 318.505 698.504 324.221C703.079 329.937 715.086 346.132 700.792 352.562C686.497 358.754 683.066 362.803 683.638 373.521C684.496 395.908 691.357 398.528 690.213 406.625C688.212 420.439 663.054 420.915 655.906 400.909C651.332 388.287 621.599 372.33 597.87 371.377C581.86 370.663 577 354.944 583.003 343.75C587.864 334.462 596.155 323.268 609.877 319.457C623.6 315.647 641.897 305.882 625.03 280.875C611.593 261.346 618.168 236.577 600.729 235.624C583.575 234.671 568.995 241.34 571.568 250.866C573.855 260.393 580.43 264.442 585.862 270.396C596.154 281.351 589.293 301.595 588.721 307.787C588.149 313.98 576.142 331.604 559.56 337.082C542.978 342.321 537.261 350.419 538.976 359.945C540.691 369.472 541.835 390.192 511.53 392.097C481.225 394.003 491.803 383.047 479.224 380.665C466.645 378.284 462.356 371.615 460.641 361.612C458.926 351.609 458.926 333.747 470.933 318.981C482.941 304.215 480.082 275.397 467.503 261.584C454.923 247.77 463.5 223.716 465.787 219.905C480.654 195.136 468.074 164.89 478.081 154.172C487.515 143.931 506.384 127.022 534.116 130.594C561.847 134.166 595.297 139.168 631.034 138.453C648.187 143.455 651.332 149.409 652.476 159.174C653.619 169.176 671.63 179.894 683.352 178.941C695.36 177.989 696.503 162.508 691.071 158.935C685.067 154.887 683.924 144.407 686.211 139.406C688.498 134.405 695.645 130.118 695.645 130.118C703.079 128.689 764.832 116.066 785.416 117.257Z" fill="#141414"/>
<path d="M479.509 380.906C488.944 385.193 478.08 395.196 507.527 395.196C514.674 395.196 524.394 389.718 524.394 389.718C505.811 387.336 479.509 380.906 479.509 380.906Z" fill="black"/>
<path d="M646.182 389.717C650.756 393.29 654.473 397.577 655.616 400.911C662.763 420.917 687.636 420.44 689.923 406.627C691.067 399.958 686.493 397.1 684.205 384.001C684.491 384.001 655.616 388.527 646.182 389.717Z" fill="black"/>
<path d="M735.098 459.498C735.098 459.498 735.098 466.643 732.525 476.169C731.095 481.647 723.376 483.076 721.947 473.788C720.803 467.119 720.803 451.162 720.803 451.162L735.098 459.498Z" fill="#C48080"/>
<path d="M772.832 470.219C772.832 470.219 772.546 477.84 769.973 485.699C768.543 490.224 762.539 492.844 760.538 484.27C759.68 480.221 759.395 467.837 759.395 467.837L772.832 470.219Z" fill="#A06767"/>
<path d="M815.433 471.167C815.433 471.167 814.861 478.788 812.574 488.553C811.43 493.316 804.855 494.507 802.568 484.981C801.424 479.503 800.566 471.882 800.566 471.882L815.433 471.167Z" fill="#AD6F6F"/>
<path d="M944.081 336.13C944.081 336.13 923.211 412.819 922.067 427.347C920.924 442.827 920.352 451.64 924.64 458.784C928.929 465.691 926.07 482.363 921.781 491.889C917.493 501.416 913.776 542.618 914.062 556.193C914.348 570.007 917.493 599.063 919.494 606.684C921.495 614.305 927.499 623.593 924.926 625.737C922.353 627.88 914.348 633.834 915.777 642.408C917.493 650.982 918.065 656.46 918.065 656.46L872.036 642.408C872.036 642.408 882.328 628.595 883.472 615.496C884.901 602.159 882.614 560.242 881.756 552.859C880.898 545.476 874.037 528.804 871.178 518.802C868.319 508.799 862.03 490.46 858.599 477.361C849.736 441.875 847.735 435.444 840.588 420.678C833.44 406.15 814.285 390.193 805.137 382.572L944.081 336.13Z" fill="#C9C2B8"/>
<path d="M927.216 458.784C924.072 451.401 923.214 440.922 924.929 426.632C926.931 411.866 944.084 336.13 944.084 336.13L916.924 343.037C914.351 356.851 896.626 415.915 895.768 460.928C895.196 490.936 881.473 506.417 866.607 504.274C866.607 504.274 869.18 512.133 871.181 518.563C874.04 528.566 882.617 549.763 882.617 563.338C882.617 563.338 911.206 576.199 899.771 649.315L918.354 656.222C918.354 656.222 917.782 650.982 916.066 642.17C914.351 633.596 922.642 627.642 925.215 625.499C927.788 623.355 921.784 614.067 919.783 606.446C917.782 598.824 914.923 569.768 914.351 555.955C914.065 542.142 920.641 501.177 925.215 491.651C929.218 482.363 932.077 470.454 927.216 458.784Z" fill="#AFA79E"/>
<path d="M918.069 656.224C918.069 656.224 897.77 638.124 872.04 642.172C865.179 650.27 857.745 660.273 858.317 662.655C859.175 665.274 866.894 665.036 868.609 664.798C868.323 668.847 874.899 670.038 884.048 669.323C893.196 668.609 917.211 668.609 918.069 656.224Z" fill="#604638"/>
<path d="M900.058 645.741C892.339 642.645 882.904 640.501 871.754 642.168C864.893 650.266 857.46 660.269 858.032 662.65C858.317 663.603 862.892 663.603 867.752 662.65L868.61 664.794C868.324 667.652 874.899 669.081 883.19 665.985C889.194 664.317 899.486 657.887 900.058 645.741Z" fill="#755945"/>
<path d="M868.612 665.033C868.612 665.033 878.618 650.982 884.05 643.599C870.613 652.173 862.036 664.795 862.036 664.795C862.036 664.795 864.609 665.51 868.612 665.033Z" fill="#3F2A19"/>
<path d="M417.754 326.128C417.754 326.128 417.182 371.141 413.179 376.619C394.31 401.864 358.002 470.931 355.429 478.552C349.425 496.891 355.143 508.085 347.138 526.9C343.135 536.426 327.983 555.479 326.268 579.295C325.124 593.109 327.983 625.261 329.984 632.882C331.986 640.503 338.847 649.077 336.56 651.221C333.987 653.364 324.552 657.175 324.552 668.369C324.552 677.181 322.265 684.564 322.265 684.564L272.806 670.036C272.806 670.036 288.244 659.08 298.25 633.835C304.826 617.163 304.826 576.199 304.254 564.768C303.968 557.384 302.539 547.858 299.68 537.855C296.821 527.852 296.249 514.039 303.396 498.558C306.827 491.413 305.969 439.494 300.252 401.149L417.754 326.128Z" fill="#C9C2B8"/>
<path d="M380.305 395.909C359.149 436.873 342.853 487.364 340.28 497.605C338.851 503.321 339.136 509.989 334.276 519.754C326.271 535.711 307.688 540.236 299.111 533.329C299.111 533.329 299.397 534.282 300.255 537.616C302.828 547.619 304.543 557.146 304.829 564.529C304.829 566.196 304.829 577.628 304.829 580.724C318.552 581.676 326.271 640.979 302.256 678.132L328.558 684.563C328.558 684.563 330.274 679.561 329.416 669.559C328.558 658.365 337.993 655.031 340.566 652.887C343.139 650.744 337.993 640.026 336.277 632.405C334.276 624.784 333.133 592.632 333.99 579.057C335.706 555.24 349.429 536.425 353.431 526.899C361.436 508.084 357.72 501.177 363.723 483.077C366.296 475.456 385.165 429.014 415.756 377.094C418.329 372.569 421.474 350.896 420.044 334.463C414.04 343.275 380.305 395.909 380.305 395.909Z" fill="#AFA79E"/>
<path d="M328.269 684.802C328.269 684.802 300.824 664.32 273.092 669.798C264.515 677.181 255.653 690.518 256.51 693.138C257.368 695.758 265.087 695.52 266.802 695.282C266.516 699.33 273.092 700.521 282.241 699.807C291.389 699.092 324.553 697.187 328.269 684.802Z" fill="#604638"/>
<path d="M266.806 695.28C266.806 696.232 267.95 697.423 269.379 697.899C298.254 703.139 305.116 672.892 305.116 672.892C295.681 669.558 284.531 667.415 273.096 669.796C264.519 677.179 255.942 690.516 256.514 692.422C256.514 693.374 259.373 694.327 265.948 692.898L266.806 695.28Z" fill="#755945"/>
<path d="M266.802 695.28C266.802 695.28 276.809 681.228 282.241 673.845C268.804 682.419 260.513 695.042 260.513 695.042C260.513 695.042 263.086 695.756 266.802 695.28Z" fill="#3F2A19"/>
<path d="M384.879 113.685C384.879 113.685 421.187 117.734 423.76 155.84C425.476 181.086 427.477 198.948 417.756 206.093C407.75 213.238 396.314 229.433 399.173 247.295C402.032 264.919 414.612 305.883 418.042 326.365C423.474 360.422 416.613 374.236 415.183 376.379C409.18 386.859 389.453 424.965 389.453 424.965C380.59 419.487 386.308 404.006 381.448 397.338C374.872 388.526 360.292 378.999 354.574 363.042C348.856 347.323 351.715 334.701 357.433 327.556C363.151 320.411 364.294 294.451 341.995 298.262C319.695 302.072 327.7 312.552 316.264 317.315C304.829 322.078 297.395 316.362 291.678 324.936C285.96 333.51 272.237 358.993 259.372 360.899C246.792 362.804 242.218 362.804 238.215 368.52C234.213 374.236 237.644 386.144 233.069 396.861C228.495 407.341 223.349 420.44 217.059 421.869C210.77 423.298 201.907 419.249 199.048 400.434C196.189 381.619 192.187 375.427 187.04 380.19C181.894 384.953 173.889 378.761 169.887 365.424C165.884 352.087 161.31 332.795 151.018 319.935C140.726 307.074 142.441 289.45 147.015 280.876C151.59 272.302 142.155 254.678 145.3 248.009C149.588 238.483 156.164 219.43 157.593 212.047C159.023 204.664 157.594 196.804 162.168 184.182C166.742 171.797 163.311 150.362 159.881 138.931C169.887 90.5835 169.887 90.5835 169.887 90.5835C169.887 90.5835 194.474 101.777 224.493 104.397C237.358 106.779 248.508 115.114 250.509 119.401C252.51 123.688 256.227 128.928 254.797 139.645C253.368 150.601 252.796 162.271 261.659 162.985C270.521 163.7 270.807 152.03 281.099 150.839C291.392 149.648 303.971 149.886 306.258 159.889C308.545 169.892 308.831 173.941 315.692 180.609C322.554 187.278 324.269 192.041 325.127 199.662C327.128 214.428 329.415 216.572 333.99 213.476C340.851 208.712 338.564 197.281 335.705 191.803C333.132 186.325 325.127 172.75 329.129 160.842C332.274 151.553 333.418 141.312 329.415 135.596C325.699 129.88 313.119 121.068 313.977 106.302C342.566 106.779 384.879 113.685 384.879 113.685Z" fill="#141414"/>
<path d="M417.757 326.127C416.614 319.459 413.469 306.36 413.469 306.36C418.615 347.086 380.02 395.909 380.02 395.909C384.88 402.578 380.02 419.249 388.882 424.727C388.882 424.727 408.609 386.383 414.613 376.142C416.328 373.998 423.189 360.185 417.757 326.127Z" fill="black"/>
<path d="M144.438 248.008C144.438 248.008 136.433 266.823 136.433 279.683C136.433 289.21 138.72 309.216 149.012 322.077C155.016 329.698 164.736 351.132 168.167 360.659C167.31 348.751 159.876 283.732 144.438 248.008Z" fill="black"/>
<path d="M683.633 184.419C752.819 166.319 774.547 136.31 831.154 144.169C830.582 143.217 828.867 139.406 828.295 138.453C819.718 122.735 785.697 117.257 785.697 117.257C765.112 116.066 703.36 128.689 695.64 129.88C695.64 129.88 688.493 134.166 686.206 139.168C683.919 144.169 684.777 154.649 691.066 158.697C696.498 162.508 695.355 177.75 683.347 178.703C671.34 179.656 653.614 168.7 652.471 158.935C651.327 148.933 648.182 143.217 631.029 138.215C595.292 138.93 561.842 133.928 534.111 130.356C506.379 126.783 487.51 143.693 478.076 153.934C470.928 161.793 475.217 180.608 472.644 199.185C472.072 199.185 592.147 208.235 683.633 184.419Z" fill="#212121"/>
<path d="M329.127 161.319C327.125 167.749 329.127 176.085 331.414 183.23C331.414 183.23 369.724 190.137 424.043 195.138C426.616 182.039 424.615 169.893 423.757 155.841C421.184 117.735 384.876 113.686 384.876 113.686C384.876 113.686 342.564 106.78 314.26 107.018C313.117 121.784 325.696 130.596 329.698 136.312C333.415 141.79 332.272 152.031 329.127 161.319Z" fill="#212121"/>
<path d="M314.833 180.133C310.258 174.893 307.971 168.701 305.97 160.127C303.683 150.124 291.104 149.886 280.811 151.077C270.519 152.268 270.233 163.938 261.371 163.223C252.508 162.509 253.08 150.839 254.509 139.883C255.939 128.928 252.222 123.926 250.221 119.639C248.22 115.352 241.072 107.255 228.207 104.635C198.474 102.015 169.599 90.5835 169.599 90.5835L160.164 135.12C159.878 135.12 235.64 166.319 314.833 180.133Z" fill="#1E1E1E"/>
<path d="M305.113 335.893C305.113 335.893 287.388 335.178 288.245 350.182C289.103 365.187 293.677 369.474 304.255 374.951C314.833 380.429 316.263 389.241 316.549 393.766C316.835 396.148 320.551 404.96 328.556 403.055C337.705 400.911 340.564 382.096 333.703 377.809C324.268 371.617 326.269 363.52 326.269 355.66C325.983 347.563 331.987 329.939 305.113 335.893Z" fill="#141414"/>
<path d="M786.842 471.645C786.842 471.645 786.556 479.266 785.127 487.602C783.411 498.32 774.549 499.272 772.547 488.555C771.404 481.172 771.404 469.978 771.404 469.978C777.693 470.931 786.842 471.645 786.842 471.645Z" fill="#C48080"/>
<path d="M820.577 396.147C820.577 396.147 845.164 414.009 852.883 455.449C851.168 460.213 842.019 464.023 842.019 464.023C842.019 464.023 834.3 419.487 807.712 390.669C813.716 391.86 820.577 396.147 820.577 396.147Z" fill="#C48080"/>
<path d="M820.576 396.148C820.576 396.148 800.563 376.857 787.412 371.379C793.988 375.19 807.711 390.432 807.711 390.432C807.711 390.432 813.714 391.861 820.576 396.148Z" fill="#968D86"/>
<path d="M380.876 441.637C380.876 441.637 402.89 396.386 413.754 378.524C419.186 369.712 419.472 342.085 419.472 342.085C421.187 361.614 420.901 375.428 417.757 384.002C414.04 394.243 402.89 437.827 402.89 437.827L380.876 441.637Z" fill="#7F7671"/>
<path d="M59.5264 219.667L163.306 161.079L170.739 172.511C170.739 172.511 163.306 199.185 147.01 217.524C118.992 249.2 116.705 274.445 116.705 274.445C116.705 274.445 98.4078 243.245 92.6899 239.911C87.258 236.577 86.9721 239.197 82.6837 238.244C78.3953 237.768 71.5339 234.195 59.5264 219.667Z" fill="#756D6A"/>
<path d="M46.3772 46.7615C46.3772 46.7615 10.3545 45.3325 5.49429 6.51193C4.63661 0.557845 8.06737 -2.77644 11.784 3.65397C19.5031 17.2293 36.3708 29.8519 56.9551 28.8993C54.3821 37.4731 46.3772 46.7615 46.3772 46.7615Z" fill="#9E845E"/>
<path d="M48.6635 28.6615C30.9381 25.5654 18.6447 15.8007 11.7832 3.65439C8.06661 -2.77602 6.06536 0.0819383 7.49482 6.03602C12.355 28.1852 29.2227 35.3301 38.9431 37.9499C38.6572 38.1881 42.6598 31.7576 48.6635 28.6615Z" fill="#C4AB78"/>
<path d="M21.2193 103.92C22.6488 106.54 20.9335 140.598 17.7887 153.935L129.859 173.226C129.859 173.226 153.302 45.5704 153.302 44.856C147.584 34.3768 132.718 17.229 95.8376 17.229C45.2344 17.229 40.3742 45.8086 40.3742 45.8086C40.3742 45.8086 30.9397 70.3394 23.7924 77.9606C16.6451 85.82 15.5014 97.49 21.2193 103.92Z" fill="#C9C2B8"/>
<path d="M95.8398 17.4683C95.8398 17.4683 117.854 27.4711 135.865 47.0005L150.16 66.0535C150.16 66.0535 153.019 45.3334 153.019 45.0952C147.587 34.616 132.72 17.4683 95.8398 17.4683Z" fill="#AFA79E"/>
<path d="M117.282 21.7552C111.564 18.1827 102.416 17.7064 102.416 17.7064C100.414 17.4683 98.1273 17.4683 95.8402 17.4683C51.5267 17.4683 42.6639 39.6174 42.6639 39.6174C41.8062 58.4323 118.14 56.527 137.867 46.286C138.152 46.286 133.006 31.2817 117.282 21.7552Z" fill="#E5DDD1"/>
<path d="M33.511 136.311C28.9367 143.933 15.7856 157.032 15.7856 157.032C15.7856 157.032 9.49587 161.795 8.06641 163.462C22.3611 169.893 37.5135 173.941 52.9517 177.752C66.1028 171.321 76.6808 166.082 76.6808 166.082C79.5397 164.653 80.9692 162.033 80.9692 162.033C74.9654 120.116 45.8044 115.591 33.511 136.311Z" fill="#EAE4DC"/>
<path d="M7.78328 163.462C5.21024 166.558 4.0666 169.892 2.35124 175.37C0.0640922 183.705 -1.65134 194.899 2.63706 202.282C2.63706 202.282 89.2628 210.618 110.419 200.377C120.997 195.137 91.264 161.794 80.4001 162.033C80.4001 162.033 78.6847 164.652 76.1117 166.081L7.78328 163.462Z" fill="#E5DDD1"/>
<path d="M81.8282 199.188C65.5323 197.283 23.506 190.852 0.92041 197.759C1.77809 201.331 2.9217 203.713 5.78063 206.095C13.7856 212.763 24.6496 221.099 74.9669 219.67C87.5462 219.194 97.2664 207.762 102.698 206.571C107.273 205.618 139.579 200.141 148.441 188.232C127.857 202.999 99.5536 199.664 99.5536 199.664C99.5536 199.664 92.1203 200.379 81.8282 199.188Z" fill="#C9C2B8"/>
<path d="M57.2409 202.997C43.8039 201.092 21.5041 200.616 8.92481 205.617C8.06713 205.855 7.20948 206.093 6.6377 206.332C14.6427 213 26.0784 220.86 75.2521 219.431C84.4007 219.192 92.1199 213 97.8378 209.19C84.1149 207.999 70.9637 204.903 57.2409 202.997Z" fill="#B2ACA6"/>
<path d="M77.2545 206.57C77.2545 206.57 65.247 213.477 45.8063 212.286C30.368 211.334 21.7912 208.714 17.2169 203.474C14.358 203.95 6.92481 206.332 6.35303 206.332C14.358 213.001 25.7938 220.86 74.9674 219.431C84.116 219.193 91.835 213.001 97.5529 209.19C93.2645 208.952 81.8288 207.285 77.2545 206.57Z" fill="#9B938C"/>
<path d="M14.9271 101.539L16.9282 107.97C16.0706 113.686 16.6424 118.925 16.6424 118.925C16.9283 122.021 18.0719 124.879 18.9295 127.261C19.5013 129.166 18.3578 148.219 15.7848 157.27C28.3641 144.885 34.9396 137.502 35.2255 130.357C36.0832 113.924 33.2243 97.7288 33.5102 81.2955C33.7961 69.6255 36.9408 56.5265 40.3715 46.0474C37.5126 50.8106 26.6487 68.4347 20.359 74.8651C13.2117 82.4863 4.92086 94.8708 14.9271 101.539Z" fill="#141414"/>
<path d="M33.5144 81.2955C33.8003 69.6255 36.945 56.5265 40.3757 46.0474C37.5168 50.8106 26.6529 68.4347 20.3632 74.8651C15.503 79.8665 10.3569 86.5351 10.3569 92.7274C10.3569 92.7274 11.5006 90.822 15.789 90.822C26.0811 90.822 27.7965 103.207 28.0824 114.4C28.0824 114.4 25.7952 113.448 23.794 113.924C20.935 114.877 17.5044 115.115 16.3608 113.686C15.5031 126.547 21.221 122.498 22.0787 126.547C24.6517 138.931 23.794 148.934 23.794 148.934C30.0836 142.027 34.372 136.788 35.2297 130.119C36.9451 113.924 33.2285 97.4906 33.5144 81.2955Z" fill="#232323"/>
<path d="M25.7948 102.968C26.6525 107.969 24.3652 112.733 19.7909 112.733C15.2166 112.733 13.5013 108.208 12.6436 103.682C11.7859 98.4428 13.5014 95.1085 17.7898 94.8704C21.2205 94.6322 24.9371 97.9665 25.7948 102.968Z" fill="#4F4E4E"/>
<path d="M24.367 103.923C24.367 109.639 21.5081 111.544 17.7915 111.544C14.3608 111.544 11.2158 108.21 11.2158 103.923C11.2158 99.6358 14.0748 95.8252 17.5055 95.8252C21.7939 95.8252 24.367 99.6358 24.367 103.923Z" fill="black"/>
<path d="M21.2197 99.3955C21.2197 100.348 20.3621 101.301 18.9326 101.301C17.5032 101.301 16.6455 100.586 16.6455 99.3955C16.6455 98.4429 17.5032 97.4902 18.9326 97.4902C20.3621 97.4902 21.2197 98.2047 21.2197 99.3955Z" fill="white"/>
<path d="M4.06982 204.188C4.06982 204.188 7.21476 200.854 22.9389 200.616C39.5207 200.139 63.5358 202.045 73.5421 204.188C83.5483 206.332 93.8405 208.713 102.131 206.808C98.9866 208.713 92.4109 213 92.4109 213C92.4109 213 65.8228 206.808 44.0949 205.379C20.3657 203.95 7.50058 207.522 7.50058 207.522C7.50058 207.522 5.78518 206.093 4.06982 204.188Z" fill="#635A52"/>
<path d="M6.63908 163.698C11.4993 159.411 15.7876 158.458 38.3732 158.935C60.6729 159.649 76.9688 163.46 78.1124 167.985C82.6867 184.656 65.2472 202.757 65.2472 202.757C36.6579 199.184 16.0735 200.851 16.0735 200.851C4.066 191.563 3.49425 166.318 6.63908 163.698Z" fill="#E2A1A1"/>
<path d="M11.2158 195.613C12.3594 197.756 14.0748 199.661 15.5042 200.852C15.5042 200.852 36.3746 199.185 64.9639 202.758C64.9639 202.758 67.8228 200.376 69.2523 197.756C69.2523 197.518 33.2296 192.516 11.2158 195.613Z" fill="#CC8383"/>
<path d="M39.5154 167.749C73.2509 168.701 76.3957 165.844 76.3957 165.844C74.6804 163.462 63.8163 158.937 38.9436 158.222C19.217 157.746 10.0684 159.175 6.6377 163.462C6.6377 163.7 8.35306 167.034 39.5154 167.749Z" fill="#F4C9C9"/>
<path d="M71.826 171.799C72.9695 173.228 69.253 177.276 63.821 180.134C58.389 182.992 54.1006 184.659 52.3853 183.23C52.3853 183.23 54.9582 179.42 59.8184 175.371C66.394 170.37 70.6824 170.37 71.826 171.799Z" fill="#966666"/>
<path d="M63.2483 178.467C68.9662 175.847 72.6828 172.513 71.8251 171.799C70.3956 170.37 66.3932 170.37 60.1036 175.371C58.1023 177.038 57.2445 177.753 56.101 179.182C55.5292 180.849 60.3894 179.896 63.2483 178.467Z" fill="#7F5252"/>
<path d="M6.92253 168.939C5.77895 169.892 7.49431 174.417 11.2109 177.513C14.9275 180.609 17.7866 182.514 20.0737 181.8C20.0737 181.8 18.3583 177.989 15.2135 174.179C10.9251 169.177 8.63789 167.51 6.92253 168.939Z" fill="#966666"/>
<path d="M18.358 178.943C17.5003 177.514 16.3569 176.085 14.9274 174.179C10.9249 168.94 7.78007 167.511 7.20829 169.178C6.92239 169.654 7.78011 171.798 10.639 174.656C11.7826 175.608 16.0709 179.419 18.358 178.943Z" fill="#7F5252"/>
<path d="M154.734 50.3332C154.734 50.3332 149.874 41.7593 138.438 46.2844C138.438 46.2844 111.279 63.194 95.8404 79.6272C77.8291 98.6803 75.256 107.254 71.8253 134.405C70.9676 140.835 72.9689 151.791 82.4034 164.175C84.6905 167.271 88.1212 174.654 88.9789 181.085C90.9802 194.184 100.986 205.854 118.426 202.996C132.435 199.185 143.87 194.66 148.159 188.944C156.45 177.989 173.032 152.267 173.032 137.977C172.746 96.775 171.602 70.3389 154.734 50.3332Z" fill="#141414"/>
<path d="M138.149 187.517C135.004 190.136 117.564 198.234 99.8389 199.663C99.8389 199.663 106.986 204.902 118.422 202.997C132.431 199.187 143.867 194.661 148.155 188.946C156.446 177.99 173.028 152.268 173.028 137.979C173.028 128.928 173.885 111.781 171.598 102.016L167.882 98.6816C169.025 113.21 168.453 131.072 166.166 140.598C161.306 159.651 144.724 182.039 138.149 187.517Z" fill="#0C0C0C"/>
<path d="M138.151 46.2866C120.426 53.1934 108.99 62.2435 92.1227 80.1058C74.1114 99.1588 74.9691 107.256 71.5383 134.407C70.6807 140.837 72.9677 152.984 80.401 162.034C86.1188 145.363 103.273 128.215 109.276 127.5C146.728 123.928 160.737 106.78 138.151 46.2866ZM119.854 117.497C107.847 116.068 104.988 118.688 104.988 118.688C104.988 102.731 111.563 96.0627 119.283 94.1574C134.721 90.1086 139.009 97.0154 138.151 103.922C137.866 107.256 134.721 119.403 119.854 117.497Z" fill="#232323"/>
<path d="M148.439 52.9528C148.439 52.9528 180.174 50.5712 170.167 13.1796C169.31 10.0834 166.737 9.84529 165.593 13.8941C163.02 24.8496 161.305 38.1867 143.865 37.4722C138.433 44.1408 138.433 46.5224 138.433 46.5224C140.72 53.191 148.439 52.9528 148.439 52.9528Z" fill="#9E845E"/>
<path d="M169.024 14.3703C168.738 11.2742 166.451 9.84521 165.593 13.894C163.02 24.8495 160.733 35.805 143.294 35.0905C135.289 38.6629 138.148 46.2842 138.148 46.2842C138.148 46.2842 172.169 46.2842 169.024 14.3703Z" fill="#C4AB78"/>
<path d="M134.433 106.542C134.433 112.258 129.286 116.783 122.425 116.783C115.564 116.783 110.417 112.258 110.417 106.542C110.417 100.826 115.564 96.3013 122.425 96.3013C129.286 96.3013 134.433 100.826 134.433 106.542Z" fill="#4F4E4E"/>
<path d="M133.004 106.064C133.004 110.827 128.429 114.638 122.712 114.638C116.994 114.638 112.419 110.827 112.419 106.064C112.419 101.301 116.994 97.4902 122.712 97.4902C128.143 97.4902 133.004 101.301 133.004 106.064Z" fill="black"/>
<path d="M128.145 102.015C128.145 103.444 126.715 104.397 125.286 104.397C123.57 104.397 122.427 103.206 122.427 102.015C122.427 100.825 123.856 99.6338 125.286 99.6338C126.715 99.6338 128.145 100.825 128.145 102.015Z" fill="white"/>
<path d="M201.047 409.961C201.047 409.961 211.339 415.677 221.631 418.535C219.916 421.155 217.057 423.06 211.911 421.869C206.479 420.678 202.476 414.962 201.047 409.961Z" fill="black"/>
<path d="M171.315 102.015C171.315 102.015 172.459 137.739 171.887 139.883C171.316 142.026 165.026 163.223 157.879 174.655C157.307 187.754 157.879 202.996 157.879 202.996C157.879 202.996 173.603 178.227 179.035 143.932C180.464 133.452 177.319 110.112 177.319 110.112C177.319 110.112 185.896 110.35 193.615 112.018C206.195 114.637 225.064 110.112 226.493 104.635C221.633 104.158 213.342 102.729 213.342 102.729C213.342 102.729 183.323 97.2515 171.315 102.015Z" fill="black"/>
<path d="M163.021 74.6267C163.021 74.6267 154.159 88.4402 171.312 102.015C171.312 102.015 181.89 102.492 192.468 104.873C197.043 105.826 209.622 108.446 219.914 97.014C230.206 85.5822 244.787 62.9567 240.784 56.5263C236.496 50.0959 217.627 48.9051 205.334 51.2867C184.463 55.3355 172.742 72.9596 163.021 74.6267Z" fill="#0F0F0F"/>
<path d="M200.761 73.9122C216.771 48.9051 241.072 57.0026 240.786 56.5263C236.497 50.0959 217.628 48.9051 205.335 51.2867C184.179 55.3355 172.743 72.9595 162.737 74.3885C162.737 74.3885 155.304 85.344 167.597 98.443C188.753 95.1087 195.615 82.2479 200.761 73.9122Z" fill="black"/>
<path d="M201.333 61.0511C211.054 55.8116 227.635 49.143 241.072 56.526C236.784 50.0956 217.915 48.6667 205.622 51.0483C184.465 55.0971 173.03 72.9593 163.309 74.6265C163.309 74.6265 161.308 77.2463 161.308 81.7714C181.892 82.9622 187.039 69.1487 201.333 61.0511Z" fill="#232323"/>
</g>
<defs>
<clipPath id="clip0_1276_8474">
<rect width="1000" height="700" fill="white"/>
</clipPath>
</defs>
</svg>
