<svg width="1000" height="700" viewBox="0 0 1000 700" fill="none" xmlns="http://www.w3.org/2000/svg">
<g clip-path="url(#clip0_1276_8283)">
<path d="M594.448 514.528C574.431 530.018 523.274 571.65 517.714 576.49C514.378 580.363 523.274 582.3 526.61 583.268C534.395 585.204 542.18 590.045 542.18 593.917C541.068 601.662 527.723 601.662 524.387 599.726C517.714 595.853 513.266 592.949 505.481 595.854C501.033 597.79 487.688 598.758 481.015 597.79C467.67 604.567 453.213 607.472 448.764 610.376C443.204 613.281 433.195 620.058 426.522 618.121C416.514 615.217 418.738 606.503 426.522 601.662C430.971 598.758 452.101 590.044 452.101 590.044C452.101 590.044 435.419 588.108 428.747 586.172C422.074 585.204 387.6 581.331 378.703 581.331C370.918 580.363 366.47 583.267 360.91 582.299C354.237 581.331 350.901 573.586 355.349 569.713C360.91 563.904 369.806 564.872 375.367 564.872C380.927 564.872 438.756 566.809 438.756 566.809C438.756 566.809 471.006 564.872 477.679 562.936C485.464 560.031 525.498 525.178 548.852 500.005C574.43 481.61 614.466 499.037 594.448 514.528Z" fill="#B57468"/>
<path d="M357.571 569.713C360.907 563.904 368.692 565.84 374.252 565.84C379.813 565.84 437.641 567.776 437.641 567.776L476.564 563.904C476.564 563.904 491.021 566.808 515.487 567.776C515.487 567.776 511.039 572.617 511.039 574.553C509.927 580.362 525.496 583.267 527.72 584.235C532.169 585.203 537.729 587.139 538.841 590.044C541.065 593.916 534.393 596.821 527.72 593.917C514.375 587.139 511.039 588.107 507.703 590.044C498.806 593.916 486.573 593.917 481.012 592.949C467.667 597.789 448.762 605.534 444.314 608.439C438.753 611.343 430.968 616.184 426.52 615.216C418.735 613.28 418.735 608.439 425.408 603.598C429.856 600.694 464.331 586.171 464.331 586.171C464.331 586.171 435.417 583.267 428.744 581.331C422.072 579.394 388.709 577.458 379.813 576.49C372.028 575.522 369.804 578.426 364.243 577.458C358.683 575.521 355.347 574.553 357.571 569.713Z" fill="#C68271"/>
<path d="M360.913 566.807C360.913 566.807 364.25 571.648 357.577 573.584C353.129 573.584 344.232 571.648 335.336 576.489C337.56 569.712 346.456 564.871 360.913 566.807Z" fill="#B29B9A"/>
<path d="M425.407 607.467C426.519 608.435 427.631 611.339 423.183 613.275C418.735 616.18 414.287 616.18 407.614 622.957C408.726 613.275 420.959 602.626 425.407 607.467Z" fill="#B29B9A"/>
<path d="M673.4 524.205C673.4 524.205 693.418 535.823 673.4 555.186C653.383 574.549 581.097 619.085 576.648 626.83C573.312 634.576 582.209 630.703 585.546 630.703C588.882 630.703 603.339 631.671 603.339 640.384C603.339 649.098 589.994 650.066 585.546 647.162C581.097 645.225 563.303 642.321 559.967 645.225C557.743 646.193 547.734 657.811 531.053 658.78C522.156 669.429 509.923 678.142 506.587 682.015C502.139 685.888 492.13 703.315 478.785 699.442C467.664 696.538 476.561 685.888 479.897 680.079C483.234 675.238 497.69 656.843 497.69 656.843C497.69 656.843 479.897 652.003 472.113 651.034C464.328 650.066 409.835 650.066 400.939 651.034C392.042 651.034 384.257 653.938 378.697 652.97C373.136 652.97 362.016 646.193 368.688 639.416C375.361 632.639 404.275 633.607 409.835 632.639C416.508 631.671 481.009 627.798 481.009 627.798C481.009 627.798 477.673 624.894 473.224 621.021C465.44 615.212 474.337 608.435 481.009 608.435C487.682 609.403 488.793 612.307 493.242 614.244C498.802 617.148 512.148 621.989 516.596 622.957C525.493 619.085 596.666 577.454 618.908 546.473C646.71 523.237 673.4 524.205 673.4 524.205Z" fill="#C68271"/>
<path d="M673.407 524.214C673.407 524.214 674.519 530.992 654.501 550.355C634.484 569.718 568.87 619.094 565.534 626.84C562.198 633.617 582.216 630.712 585.552 631.681C588.889 631.681 601.121 632.648 598.897 640.394C596.673 645.234 590 644.266 584.44 642.33C579.991 640.394 559.974 638.457 555.526 640.394C551.077 642.33 544.405 650.075 527.724 652.012C517.715 663.63 502.146 675.248 502.146 676.216C498.809 680.088 488.801 694.611 479.904 691.706C471.007 688.802 476.567 683.961 478.791 680.089C482.128 675.248 508.818 642.33 508.818 642.33C508.818 642.33 478.791 642.33 471.007 641.362C463.222 640.394 416.515 643.298 407.618 644.266C398.721 644.266 388.713 646.203 383.152 646.203C372.031 646.203 369.807 637.489 369.807 637.489C377.592 631.68 403.17 633.617 408.73 632.648C415.403 631.68 479.904 627.808 479.904 627.808C479.904 627.808 508.818 625.871 515.49 623.935C524.387 620.062 595.561 578.432 617.802 547.45C646.717 523.246 673.407 524.214 673.407 524.214Z" fill="#E0A192"/>
<path d="M374.249 635.542C374.249 635.542 378.697 640.383 369.801 643.287C364.24 643.287 353.12 642.319 346.447 649.096C348.671 643.288 354.232 635.542 374.249 635.542Z" fill="#D6C1BF"/>
<path d="M485.381 686.583C488.666 687.186 490.309 688.998 485.381 691.413C478.809 694.432 476.416 696.295 468.201 699.918C469.844 691.466 475.523 684.168 485.381 686.583Z" fill="#D6C1BF"/>
<path d="M595.555 632.645C595.555 632.645 592.219 636.518 595.555 638.454C598.891 641.358 607.788 637.486 614.46 643.295C610.012 636.518 601.115 632.645 595.555 632.645Z" fill="#D6C1BF"/>
<path d="M536.625 588.112C539.962 588.112 547.746 591.016 552.195 597.793C552.195 597.793 546.634 593.92 536.625 593.92C532.177 593.92 534.401 588.112 536.625 588.112Z" fill="#B29B9A"/>
<path d="M584.438 579.392C596.671 568.742 610.016 558.092 617.801 546.474C645.603 522.27 673.405 524.207 673.405 524.207C673.405 524.207 693.423 535.825 673.405 555.188C666.733 561.965 663.397 563.902 663.397 563.902C648.94 570.679 607.792 580.36 584.438 579.392Z" fill="#AF7368"/>
<path d="M181.862 112.744C181.862 112.744 229.682 155.344 235.242 177.611C240.803 198.911 224.121 215.37 214.112 250.223C197.431 307.345 188.535 391.575 257.484 443.856C313.088 486.455 385.374 502.914 407.616 518.404C430.97 533.895 522.16 583.271 643.378 557.131C774.604 529.054 789.062 443.856 789.062 443.856C826.873 427.397 863.572 387.702 842.442 327.676C819.088 340.262 791.286 329.613 769.044 312.186C739.018 287.982 706.767 263.777 638.93 236.669C579.989 213.433 519.936 200.847 509.927 189.229C499.919 177.611 513.264 121.458 473.229 71.1137C430.969 15.9285 357.572 -7.30726 274.165 5.27883C197.431 16.8968 196.319 68.2093 196.319 68.2093L181.862 112.744Z" fill="#E0B500"/>
<path d="M201.881 46.9052C209.666 31.4146 228.572 10.115 274.167 3.33792C357.574 -9.24818 430.971 13.9876 473.23 69.1727C512.154 119.517 498.808 175.671 509.929 187.289C519.938 198.906 579.991 211.493 638.932 234.729C707.881 261.837 739.02 286.041 769.046 310.245C791.288 327.672 819.09 338.322 842.444 325.735L826.874 357.685L436.532 274.423L319.762 125.326C316.426 116.613 210.778 50.7778 201.881 46.9052Z" fill="#FFE05C"/>
<path d="M233.018 128.233C233.018 128.233 261.933 142.756 269.717 167.928C276.39 189.227 238.579 225.049 229.682 259.903C211.889 333.483 235.242 368.337 289.735 409.968C344.227 452.567 417.625 461.281 436.53 472.898C469.893 495.166 582.214 517.434 651.163 491.294C717.889 466.122 754.587 412.872 754.587 412.872C777.941 406.095 843.555 384.796 843.555 323.801C831.322 334.451 797.959 334.451 772.381 320.897C744.579 305.407 710.104 274.425 638.931 253.126C582.214 235.699 537.73 226.018 515.488 208.591C504.368 198.909 505.48 154.373 499.92 127.265C499.92 127.265 479.902 19.7993 259.708 39.1625C217.449 43.0351 209.664 32.3853 209.664 32.3853C202.992 39.1624 200.768 44.9712 197.432 54.6528C197.432 54.6528 231.906 73.0483 256.372 113.711L233.018 128.233Z" fill="#F7D134"/>
<path d="M250.085 114.68L220.417 124.361C220.417 124.361 202.232 119.52 180.219 114.68C164.906 110.807 161.078 106.934 160.121 100.157C158.207 93.38 213.717 82.7303 250.085 114.68Z" fill="#CE8989"/>
<path d="M197.447 66.2671C197.447 66.2671 234.772 88.5346 250.085 115.643C250.085 115.643 189.79 100.153 148.636 102.089C148.636 95.312 151.507 92.4077 156.293 89.5032C162.035 84.6624 197.447 66.2671 197.447 66.2671Z" fill="#F4ABAB"/>
<path d="M173.524 90.4711C171.61 90.4711 153.426 93.3754 153.426 91.439C153.426 91.439 154.383 90.4713 156.297 89.5032C161.083 85.6305 197.451 66.2671 197.451 66.2671C197.451 66.2671 207.979 72.0763 222.335 84.6624C223.292 84.6624 206.065 86.5985 173.524 90.4711Z" fill="#FFC7C7"/>
<path d="M193.623 82.7303C193.623 84.6666 197.451 84.6663 201.28 83.6982C205.108 82.73 208.936 80.7937 207.979 78.8574C207.979 76.921 204.15 76.9213 200.322 77.8894C196.494 78.8576 193.623 80.7939 193.623 82.7303Z" fill="#A06767"/>
<path d="M276.39 77.8862C276.39 88.5359 286.399 97.2494 298.632 97.2494C310.865 97.2494 320.874 88.5359 320.874 77.8862C320.874 67.2364 310.865 58.5229 298.632 58.5229C286.399 58.5229 276.39 67.2364 276.39 77.8862Z" fill="#918888"/>
<path d="M280.839 77.886C280.839 86.5994 288.623 93.3763 298.632 93.3763C308.641 93.3763 316.426 86.5994 316.426 77.886C316.426 69.1725 308.641 62.395 298.632 62.395C288.623 62.395 280.839 69.1725 280.839 77.886Z" fill="black"/>
<path d="M298.628 70.1435C298.628 73.048 300.852 74.9843 304.188 74.9843C307.524 74.9843 309.749 73.048 309.749 70.1435C309.749 67.2391 307.524 65.3027 304.188 65.3027C300.852 66.2709 298.628 68.2072 298.628 70.1435Z" fill="white"/>
<path d="M445.424 236.657C445.424 236.657 346.448 264.734 331.991 286.034C310.861 316.047 304.189 387.691 339.776 411.895C377.587 437.067 446.536 444.812 473.226 432.226C518.822 410.926 581.099 352.837 545.512 335.41C528.831 327.664 508.814 327.665 496.581 324.76C486.572 321.856 519.934 293.779 533.279 261.83C533.279 261.83 557.745 210.517 445.424 236.657Z" fill="#C49A18"/>
<path d="M448.762 230.852C448.762 230.852 346.45 265.706 331.993 286.037C311.975 313.146 309.751 376.076 340.89 398.344C380.925 426.42 446.538 431.261 476.564 417.707C517.711 398.344 577.765 351.872 546.626 335.413C527.721 324.763 491.021 330.572 486.573 323.795C482.125 316.05 513.263 291.846 529.945 271.515C538.841 259.897 557.746 205.68 448.762 230.852Z" fill="#FFE05C"/>
<path d="M479.901 249.247C449.874 266.674 413.175 288.942 376.476 302.496C329.768 319.923 323.096 305.4 323.096 305.4C307.527 356.713 324.208 386.726 340.89 398.344C380.925 426.42 446.538 431.261 476.564 417.707C517.711 398.344 577.765 351.872 546.626 335.413C527.721 324.763 491.021 330.572 486.573 323.795C482.125 316.05 513.263 291.846 529.945 271.515C536.617 263.77 553.299 228.916 507.703 224.075C505.479 224.075 511.039 230.852 479.901 249.247Z" fill="#EAC218"/>
<path d="M479.908 249.245C449.882 266.672 413.183 288.94 376.484 302.494C329.776 319.921 323.104 305.398 323.104 305.398C310.871 342.188 326.44 369.297 344.234 379.947C378.708 401.246 452.106 406.087 484.356 391.564C513.271 378.01 555.53 346.061 544.409 339.284C528.84 328.634 483.244 342.188 467.675 332.507C449.882 320.889 506.598 283.13 519.943 267.64C526.616 260.863 552.194 229.882 505.486 225.041C505.486 224.073 511.047 230.85 479.908 249.245Z" fill="#F7D134"/>
<path d="M256.377 114.674C221.902 104.025 185.203 100.152 150.729 101.12C150.729 103.056 152.953 105.961 152.953 105.961C152.953 105.961 201.885 106.929 249.705 116.611L256.377 114.674Z" fill="#AA6F6F"/>
</g>
<defs>
<clipPath id="clip0_1276_8283">
<rect width="1000" height="700" fill="white"/>
</clipPath>
</defs>
</svg>
