<svg width="1000" height="450" viewBox="0 0 1000 450" fill="none" xmlns="http://www.w3.org/2000/svg">
<g clip-path="url(#clip0_1276_5602)">
<path d="M753.01 285.996H657.783V317.91H753.01V285.996Z" fill="#1A2D38"/>
<path d="M884.938 317.91H78.9062V376.466H884.938V317.91Z" fill="#1A2D38"/>
<path d="M359.841 331.211H482.501C487.567 331.211 492.425 333.224 496.006 336.806C499.588 340.389 501.6 345.247 501.6 350.314V367.959C501.6 373.026 499.588 377.885 496.006 381.467C492.425 385.05 487.567 387.062 482.501 387.062H359.841C354.776 387.062 349.918 385.05 346.336 381.467C342.754 377.885 340.742 373.026 340.742 367.959V350.314C340.742 345.247 342.754 340.389 346.336 336.806C349.918 333.224 354.776 331.211 359.841 331.211Z" fill="#294856"/>
<path d="M667.536 387.057H653.574C653.558 372.836 647.903 359.202 637.849 349.146C627.795 339.09 614.163 333.433 599.944 333.417H580.023C565.804 333.433 552.173 339.09 542.119 349.146C532.064 359.202 526.409 372.836 526.393 387.057H512.432C512.452 369.134 519.58 351.95 532.251 339.276C544.923 326.603 562.103 319.473 580.023 319.453H599.944C617.864 319.473 635.045 326.603 647.716 339.276C660.388 351.95 667.516 369.134 667.536 387.057Z" fill="#294856"/>
<path d="M1000 407.285H886.691V377.235C886.691 361.519 880.479 346.44 869.41 335.285C858.342 324.13 843.313 317.804 827.6 317.685L753.005 317.122V101.289C753.005 96.4248 754.937 91.7601 758.376 88.3208C761.815 84.8814 766.479 82.9492 771.342 82.9492H920.337C925.866 82.9492 931.276 84.5608 935.904 87.5869C940.532 90.613 944.179 94.9225 946.397 99.9884L995.299 211.649C998.399 218.728 1000 226.374 1000 234.103L1000 407.285Z" fill="#36605D"/>
<g style="mix-blend-mode:screen" opacity="0.32">
<path d="M815.912 221.007H998.428C997.662 217.801 996.615 214.67 995.299 211.649L946.397 99.9886C944.179 94.9227 940.533 90.6132 935.904 87.587C931.276 84.5609 925.866 82.9492 920.337 82.9492H771.342C766.478 82.9492 761.815 84.8814 758.376 88.3208C754.937 91.7601 753.005 96.4248 753.005 101.289V103.097L787.384 200.8C789.462 206.708 793.323 211.824 798.433 215.444C803.543 219.063 809.65 221.007 815.912 221.007Z" fill="#62AC5D"/>
</g>
<path opacity="0.11" d="M809.035 430.038C818.836 430.038 828.235 426.144 835.166 419.212C842.096 412.28 845.989 402.879 845.989 393.076H772.08C772.08 402.879 775.973 412.28 782.904 419.212C789.834 426.144 799.234 430.038 809.035 430.038Z" fill="#8FB5D3"/>
<path d="M947.055 101.497L938.866 101.143C938.252 101.143 937.649 101.295 937.109 101.585C936.569 101.876 936.109 102.295 935.771 102.807C935.433 103.319 935.227 103.906 935.171 104.517C935.116 105.128 935.213 105.743 935.453 106.307L975.732 200.85C977.066 203.98 979.29 206.649 982.128 208.525C984.966 210.401 988.293 211.402 991.695 211.402H995.299L947.055 101.497Z" fill="#7FA9BE"/>
<path style="mix-blend-mode:screen" opacity="0.44" d="M948.278 104.282L945.467 104.16C944.902 104.16 944.346 104.3 943.849 104.568C943.351 104.835 942.928 105.222 942.617 105.693C942.306 106.164 942.116 106.705 942.065 107.268C942.014 107.83 942.103 108.397 942.324 108.916L979.418 195.983C980.557 198.654 982.401 200.964 984.753 202.665C987.105 204.366 989.877 205.394 992.769 205.639L948.278 104.282Z" fill="url(#paint0_linear_1276_5602)"/>
<path d="M845.612 213.82C841.06 213.798 836.68 212.074 833.335 208.986C829.99 205.897 827.921 201.669 827.535 197.132L820.758 112.588C820.637 111.076 820.83 109.555 821.325 108.121C821.82 106.688 822.607 105.372 823.636 104.258C824.664 103.143 825.913 102.253 827.302 101.645C828.691 101.037 830.191 100.723 831.708 100.723H908.613C911.92 100.717 915.154 101.693 917.906 103.527C920.658 105.361 922.803 107.97 924.071 111.025L962.395 202.907C962.895 204.105 963.091 205.407 962.966 206.698C962.842 207.99 962.4 209.231 961.681 210.31C960.961 211.39 959.987 212.275 958.843 212.888C957.699 213.5 956.422 213.82 955.125 213.82H845.612Z" fill="#4A825C"/>
<path d="M955.532 211.402H846.019C841.817 211.402 837.769 209.819 834.682 206.968C831.594 204.118 829.693 200.209 829.357 196.02L822.579 111.475C822.474 110.158 822.642 108.834 823.073 107.586C823.505 106.337 824.19 105.192 825.086 104.221C825.981 103.25 827.068 102.476 828.278 101.946C829.488 101.416 830.794 101.143 832.115 101.143H909.02C912.046 101.143 915.004 102.038 917.521 103.716C920.039 105.394 922.004 107.779 923.169 110.572L961.493 202.454C961.902 203.436 962.063 204.504 961.961 205.563C961.859 206.621 961.497 207.639 960.907 208.524C960.317 209.409 959.518 210.135 958.58 210.637C957.642 211.139 956.595 211.402 955.532 211.402Z" fill="#36605D"/>
<path d="M846.02 209.97C842.181 209.951 838.489 208.497 835.668 205.893C832.848 203.289 831.104 199.724 830.778 195.899L824.001 111.355C823.911 110.234 824.054 109.107 824.421 108.044C824.788 106.982 825.371 106.007 826.133 105.181C826.896 104.355 827.821 103.696 828.85 103.245C829.88 102.794 830.992 102.561 832.116 102.561H909.021C911.767 102.556 914.451 103.367 916.736 104.889C919.021 106.412 920.802 108.578 921.855 111.114L960.179 202.996C960.498 203.761 960.623 204.593 960.543 205.419C960.464 206.244 960.182 207.037 959.722 207.727C959.262 208.416 958.639 208.982 957.909 209.373C957.178 209.765 956.362 209.97 955.533 209.97L846.02 209.97Z" fill="#6093A7"/>
<path d="M847.104 161.753C845.807 157.236 843.352 153.136 839.984 149.859C836.616 146.583 832.451 144.242 827.901 143.07L826.484 142.705L830.745 195.855C831.057 199.741 832.82 203.367 835.684 206.011C838.548 208.654 842.302 210.123 846.2 210.123H860.999L847.104 161.753Z" fill="#416D7B"/>
<g style="mix-blend-mode:multiply">
<path d="M970.46 337.269H910.099L909.961 336.735C899.276 295.394 874.342 276.14 831.492 276.14H816.494V106.061C816.498 102.691 817.838 99.4597 820.221 97.0768C822.603 94.6938 825.833 93.3534 829.203 93.3496H910.86C914.833 93.3448 918.718 94.5131 922.03 96.7079C925.342 98.9027 927.932 102.026 929.476 105.688L967.711 196.04C969.53 200.325 970.465 204.932 970.46 209.587V337.269ZM911.201 335.844H969.035V209.587C969.04 205.123 968.143 200.704 966.399 196.595L928.164 106.243C926.729 102.84 924.321 99.9363 921.243 97.8962C918.164 95.8561 914.553 94.7702 910.86 94.7746H829.203C826.211 94.778 823.343 95.9682 821.228 98.084C819.112 100.2 817.922 103.068 817.919 106.061V274.715H831.492C874.909 274.715 900.251 294.145 911.201 335.844Z" fill="#36605D"/>
</g>
<path d="M969.743 345.527H910.898V358.031H969.743V345.527Z" fill="#254141"/>
<path d="M969.743 363.965H910.898V376.469H969.743V363.965Z" fill="#254141"/>
<path d="M969.743 382.402H910.898V394.906H969.743V382.402Z" fill="#254141"/>
<path d="M817.207 230.967H834.342C835.288 230.967 836.225 231.153 837.099 231.515C837.973 231.877 838.767 232.408 839.436 233.077C840.105 233.746 840.636 234.541 840.998 235.415C841.36 236.289 841.546 237.226 841.546 238.173V253.568C841.546 255.479 840.787 257.312 839.436 258.663C838.085 260.014 836.253 260.774 834.342 260.774H817.207V230.967V230.967Z" fill="#254141"/>
<path style="mix-blend-mode:screen" opacity="0.44" d="M845.033 202.013H906.232L926.537 118.676L923.157 110.572C921.993 107.779 920.028 105.394 917.51 103.716C914.992 102.038 912.034 101.143 909.009 101.143H860.589L838.159 193.201C837.901 194.239 837.881 195.321 838.1 196.368C838.319 197.414 838.771 198.397 839.423 199.245C840.075 200.092 840.91 200.781 841.865 201.26C842.821 201.739 843.872 201.997 844.941 202.013C844.972 202.013 845.002 202.013 845.033 202.013Z" fill="url(#paint1_linear_1276_5602)"/>
<path style="mix-blend-mode:screen" opacity="0.44" d="M954.546 202.01C955.647 202.014 956.729 201.735 957.69 201.199C958.652 200.664 959.459 199.89 960.034 198.952L938.864 148.196L925.752 202.01H954.546Z" fill="url(#paint2_linear_1276_5602)"/>
<path d="M826.076 299.717H792.347C775.045 299.717 758.452 306.591 746.217 318.828C733.983 331.065 727.109 347.661 727.109 364.967V407.284H737.857V384.034C737.857 366.729 744.73 350.133 756.964 337.896C769.199 325.659 785.792 318.784 803.094 318.784H815.329C832.631 318.784 849.225 325.659 861.459 337.896C873.694 350.133 880.567 366.729 880.567 384.034V407.284H891.314V364.967C891.314 347.661 884.441 331.065 872.206 318.828C859.972 306.591 843.378 299.717 826.076 299.717Z" fill="#294856"/>
<path opacity="0.29" d="M826.076 299.717H792.347C775.045 299.717 758.452 306.591 746.217 318.828C733.983 331.065 727.109 347.661 727.109 364.967V375.43C727.109 366.861 728.797 358.377 732.075 350.46C735.354 342.544 740.159 335.35 746.217 329.291C752.275 323.232 759.467 318.426 767.382 315.147C775.297 311.868 783.78 310.18 792.347 310.18H826.076C834.644 310.18 843.127 311.868 851.042 315.147C858.957 318.426 866.149 323.232 872.206 329.291C878.264 335.35 883.07 342.544 886.348 350.46C889.627 358.377 891.314 366.861 891.314 375.43V364.967C891.314 347.661 884.441 331.065 872.206 318.828C859.972 306.591 843.378 299.717 826.076 299.717Z" fill="white"/>
<g opacity="0.43">
<path d="M936.735 88.181C931.938 84.7826 926.203 82.9555 920.323 82.9517H771.328C766.533 82.9463 761.928 84.8244 758.506 88.181H936.735Z" fill="white"/>
</g>
<path d="M818.145 234.844H826.846C827.964 234.844 829.036 235.288 829.827 236.079C830.617 236.869 831.062 237.942 831.062 239.06V252.123C831.062 253.242 830.617 254.314 829.827 255.105C829.036 255.895 827.964 256.34 826.846 256.34H818.145V234.844Z" fill="#36605D"/>
<path d="M0 280.23L78.8994 317.914H696.813L746.624 61.1309L910.902 20.6011V0H678.639L615.635 76.3464H39.4497L0 280.23Z" fill="#F0C93E"/>
<g clip-path="url(#clip1_1276_5602)">
<path d="M127.5 450C160.637 450 187.5 423.137 187.5 390C187.5 356.863 160.637 330 127.5 330C94.3629 330 67.5 356.863 67.5 390C67.5 423.137 94.3629 450 127.5 450Z" fill="#2B2B2C"/>
<path d="M127.5 446.25C158.566 446.25 183.75 421.066 183.75 390C183.75 358.934 158.566 333.75 127.5 333.75C96.434 333.75 71.25 358.934 71.25 390C71.25 421.066 96.434 446.25 127.5 446.25Z" fill="#373738"/>
<path d="M127.5 440C155.114 440 177.5 417.614 177.5 390C177.5 362.386 155.114 340 127.5 340C99.8858 340 77.5 362.386 77.5 390C77.5 417.614 99.8858 440 127.5 440Z" fill="#1E1E1F"/>
<path d="M127.5 436.25C153.043 436.25 173.75 415.543 173.75 390C173.75 364.457 153.043 343.75 127.5 343.75C101.957 343.75 81.25 364.457 81.25 390C81.25 415.543 101.957 436.25 127.5 436.25Z" fill="white"/>
<path d="M127.5 431.25C150.282 431.25 168.75 412.782 168.75 390C168.75 367.218 150.282 348.75 127.5 348.75C104.718 348.75 86.25 367.218 86.25 390C86.25 412.782 104.718 431.25 127.5 431.25Z" fill="#8FB5D3"/>
<path d="M127.5 427.5C148.211 427.5 165 410.711 165 390C165 369.289 148.211 352.5 127.5 352.5C106.789 352.5 90 369.289 90 390C90 410.711 106.789 427.5 127.5 427.5Z" fill="white"/>
<path d="M127.5 415C141.307 415 152.5 403.807 152.5 390C152.5 376.193 141.307 365 127.5 365C113.693 365 102.5 376.193 102.5 390C102.5 403.807 113.693 415 127.5 415Z" fill="#8FB5D3"/>
<path d="M127.5 398.75C132.332 398.75 136.25 394.832 136.25 390C136.25 385.167 132.332 381.25 127.5 381.25C122.667 381.25 118.75 385.167 118.75 390C118.75 394.832 122.667 398.75 127.5 398.75Z" fill="#5684A6"/>
<path d="M129.746 360.809C128.349 360.566 126.921 360.566 125.525 360.809C124.881 360.924 124.217 360.812 123.647 360.492C123.077 360.172 122.637 359.664 122.404 359.056L122.384 359.003C122.239 358.616 122.182 358.201 122.217 357.79C122.252 357.378 122.379 356.979 122.587 356.621C122.796 356.264 123.081 355.957 123.423 355.722C123.765 355.487 124.155 355.331 124.565 355.264C126.597 354.912 128.674 354.912 130.706 355.264C131.116 355.331 131.506 355.487 131.848 355.722C132.19 355.956 132.476 356.264 132.684 356.621C132.893 356.979 133.019 357.378 133.054 357.789C133.089 358.201 133.032 358.616 132.887 359.003L132.867 359.056C132.634 359.664 132.194 360.172 131.624 360.492C131.054 360.812 130.39 360.924 129.746 360.809Z" fill="#252F3A"/>
<path d="M125.526 419.192C126.922 419.435 128.35 419.435 129.746 419.192C130.39 419.077 131.054 419.189 131.624 419.509C132.194 419.829 132.634 420.337 132.867 420.945L132.887 420.998C133.032 421.385 133.089 421.8 133.054 422.211C133.019 422.623 132.893 423.022 132.684 423.38C132.476 423.737 132.19 424.044 131.848 424.279C131.506 424.514 131.116 424.67 130.706 424.737C128.674 425.089 126.597 425.089 124.565 424.737C124.155 424.67 123.765 424.514 123.423 424.279C123.081 424.045 122.796 423.737 122.587 423.38C122.379 423.022 122.252 422.623 122.217 422.212C122.182 421.8 122.239 421.385 122.384 420.998L122.404 420.945C122.637 420.337 123.077 419.829 123.647 419.509C124.217 419.189 124.881 419.077 125.526 419.192Z" fill="#252F3A"/>
<path d="M156.685 392.091C156.928 390.708 156.928 389.293 156.685 387.91C156.569 387.272 156.681 386.614 157.002 386.05C157.322 385.485 157.831 385.05 158.44 384.819L158.492 384.799C158.88 384.656 159.295 384.599 159.707 384.634C160.119 384.669 160.518 384.794 160.876 385C161.234 385.207 161.541 385.49 161.776 385.828C162.011 386.167 162.168 386.553 162.235 386.959C162.587 388.972 162.587 391.029 162.235 393.042C162.168 393.448 162.011 393.834 161.776 394.173C161.541 394.511 161.234 394.794 160.876 395.001C160.518 395.207 160.119 395.332 159.707 395.367C159.295 395.402 158.88 395.345 158.492 395.202L158.44 395.182C157.831 394.951 157.322 394.516 157.002 393.951C156.681 393.387 156.569 392.728 156.685 392.091Z" fill="#252F3A"/>
<path d="M98.3137 387.91C98.0709 389.293 98.0709 390.707 98.3137 392.09C98.4294 392.728 98.3174 393.386 97.997 393.951C97.6767 394.515 97.1681 394.951 96.5593 395.182L96.5065 395.202C96.1189 395.345 95.704 395.402 95.2918 395.367C94.8796 395.332 94.4803 395.207 94.1225 395C93.7647 394.794 93.4573 394.511 93.2224 394.172C92.9874 393.834 92.8308 393.447 92.7638 393.041C92.4121 391.029 92.4121 388.971 92.7638 386.959C92.8308 386.553 92.9874 386.167 93.2224 385.828C93.4573 385.489 93.7647 385.207 94.1225 385C94.4803 384.794 94.8796 384.669 95.2918 384.634C95.704 384.599 96.1189 384.655 96.5065 384.799L96.5592 384.819C97.168 385.05 97.6766 385.485 97.997 386.05C98.3173 386.614 98.4294 387.272 98.3137 387.91Z" fill="#252F3A"/>
<path d="M151.729 406.332C152.634 405.254 153.344 404.029 153.828 402.71C154.048 402.1 154.476 401.586 155.037 401.256C155.598 400.926 156.257 400.802 156.9 400.904L156.956 400.913C157.364 400.981 157.752 401.139 158.091 401.374C158.431 401.609 158.714 401.915 158.92 402.272C159.127 402.629 159.251 403.027 159.284 403.437C159.318 403.847 159.259 404.259 159.114 404.645C158.408 406.562 157.374 408.345 156.059 409.913C155.797 410.232 155.468 410.489 155.094 410.665C154.72 410.842 154.312 410.934 153.898 410.935C153.485 410.936 153.076 410.846 152.701 410.672C152.327 410.497 151.996 410.242 151.732 409.925L151.696 409.881C151.285 409.379 151.063 408.749 151.069 408.101C151.075 407.452 151.308 406.827 151.729 406.332Z" fill="#252F3A"/>
<path d="M103.265 373.666C102.36 374.744 101.65 375.969 101.166 377.288C100.946 377.898 100.518 378.412 99.9571 378.742C99.396 379.072 98.7368 379.196 98.0933 379.094L98.0378 379.085C97.6298 379.017 97.2421 378.859 96.9025 378.624C96.5628 378.389 96.2797 378.082 96.0734 377.726C95.8671 377.369 95.7428 376.971 95.7094 376.561C95.6759 376.151 95.7342 375.738 95.88 375.353C96.5859 373.435 97.6192 371.653 98.9344 370.085C99.1964 369.766 99.526 369.509 99.8997 369.332C100.273 369.156 100.682 369.064 101.095 369.063C101.509 369.061 101.918 369.151 102.292 369.326C102.667 369.501 102.998 369.756 103.262 370.073L103.297 370.116C103.709 370.619 103.931 371.249 103.925 371.897C103.919 372.545 103.685 373.171 103.265 373.666Z" fill="#252F3A"/>
<path d="M140.301 416.208C141.626 415.724 142.857 415.016 143.938 414.114C144.435 413.695 145.064 413.462 145.716 413.455C146.367 413.448 147.001 413.668 147.507 414.076L147.55 414.111C147.87 414.373 148.126 414.702 148.303 415.074C148.479 415.447 148.57 415.853 148.57 416.265C148.569 416.676 148.477 417.083 148.3 417.455C148.123 417.827 147.865 418.155 147.546 418.416C145.971 419.727 144.181 420.758 142.254 421.463C141.867 421.608 141.453 421.667 141.04 421.634C140.628 421.602 140.228 421.479 139.869 421.274C139.51 421.07 139.201 420.788 138.964 420.451C138.727 420.113 138.569 419.728 138.5 419.322L138.49 419.267C138.386 418.627 138.511 417.971 138.841 417.413C139.172 416.854 139.688 416.428 140.301 416.208Z" fill="#252F3A"/>
<path d="M114.694 363.8C113.369 364.283 112.139 364.992 111.057 365.894C110.56 366.313 109.931 366.546 109.28 366.553C108.628 366.56 107.995 366.34 107.489 365.932L107.445 365.896C107.126 365.634 106.869 365.305 106.693 364.933C106.517 364.561 106.425 364.154 106.426 363.743C106.426 363.331 106.518 362.925 106.695 362.553C106.872 362.181 107.13 361.853 107.45 361.591C109.024 360.281 110.814 359.25 112.741 358.545C113.128 358.399 113.543 358.34 113.955 358.373C114.368 358.406 114.768 358.529 115.127 358.733C115.486 358.938 115.794 359.219 116.031 359.557C116.268 359.894 116.427 360.28 116.496 360.685L116.505 360.74C116.609 361.38 116.485 362.036 116.154 362.595C115.824 363.154 115.307 363.58 114.694 363.8Z" fill="#252F3A"/>
<path d="M103.298 406.394C102.389 405.312 101.676 404.082 101.189 402.757C100.968 402.144 100.539 401.628 99.9755 401.297C99.412 400.965 98.75 400.84 98.1037 400.943L98.0479 400.952C97.6381 401.021 97.2487 401.179 96.9076 401.415C96.5665 401.651 96.2821 401.959 96.075 402.317C95.8678 402.676 95.7429 403.075 95.7094 403.487C95.6758 403.899 95.7344 404.313 95.8809 404.7C96.5897 406.626 97.6275 408.417 98.9484 409.992C99.2116 410.312 99.5427 410.57 99.9179 410.747C100.293 410.925 100.703 411.017 101.119 411.018C101.534 411.019 101.945 410.929 102.321 410.753C102.697 410.578 103.03 410.322 103.294 410.003L103.33 409.96C103.744 409.455 103.967 408.822 103.961 408.171C103.955 407.52 103.72 406.892 103.298 406.394Z" fill="#252F3A"/>
<path d="M151.979 373.603C152.888 374.685 153.601 375.916 154.087 377.24C154.308 377.853 154.738 378.37 155.301 378.701C155.864 379.032 156.527 379.157 157.173 379.054L157.229 379.045C157.638 378.977 158.028 378.819 158.369 378.583C158.71 378.347 158.994 378.039 159.202 377.68C159.409 377.322 159.534 376.923 159.567 376.511C159.601 376.099 159.542 375.685 159.396 375.298C158.687 373.371 157.649 371.581 156.328 370.006C156.065 369.686 155.734 369.428 155.359 369.251C154.983 369.073 154.573 368.981 154.158 368.98C153.742 368.978 153.332 369.069 152.956 369.244C152.58 369.42 152.247 369.676 151.982 369.994L151.946 370.038C151.533 370.543 151.31 371.175 151.316 371.826C151.322 372.477 151.556 373.106 151.979 373.603Z" fill="#252F3A"/>
<path d="M114.781 416.32C113.45 415.834 112.215 415.123 111.128 414.217C110.629 413.796 109.998 413.562 109.343 413.555C108.689 413.548 108.052 413.769 107.544 414.179L107.501 414.215C107.18 414.477 106.922 414.808 106.745 415.182C106.568 415.556 106.477 415.964 106.477 416.377C106.477 416.79 106.57 417.199 106.748 417.572C106.925 417.946 107.184 418.275 107.505 418.538C109.087 419.854 110.885 420.889 112.82 421.598C113.209 421.744 113.625 421.803 114.039 421.77C114.453 421.737 114.855 421.614 115.216 421.408C115.576 421.203 115.886 420.92 116.124 420.581C116.362 420.242 116.521 419.855 116.591 419.448L116.6 419.392C116.704 418.75 116.58 418.091 116.248 417.53C115.915 416.969 115.397 416.541 114.781 416.32Z" fill="#252F3A"/>
<path d="M140.49 363.684C141.82 364.17 143.056 364.881 144.143 365.787C144.642 366.208 145.273 366.442 145.928 366.449C146.582 366.456 147.218 366.235 147.727 365.825L147.77 365.789C148.091 365.526 148.349 365.196 148.526 364.822C148.703 364.448 148.794 364.04 148.794 363.627C148.793 363.214 148.701 362.805 148.523 362.432C148.345 362.058 148.087 361.729 147.766 361.466C146.184 360.15 144.386 359.115 142.451 358.406C142.062 358.26 141.646 358.201 141.232 358.234C140.818 358.267 140.416 358.39 140.055 358.596C139.695 358.801 139.385 359.084 139.147 359.423C138.909 359.761 138.75 360.149 138.68 360.556L138.671 360.612C138.567 361.254 138.691 361.913 139.023 362.474C139.355 363.035 139.874 363.463 140.49 363.684Z" fill="#252F3A"/>
<path d="M127.501 376.261C127.006 376.261 126.521 376.114 126.109 375.839C125.697 375.564 125.376 375.172 125.186 374.715C124.996 374.257 124.947 373.753 125.043 373.267C125.14 372.781 125.378 372.335 125.729 371.984C126.079 371.634 126.525 371.395 127.011 371.298C127.497 371.201 128.001 371.251 128.459 371.441C128.917 371.63 129.308 371.951 129.584 372.363C129.859 372.775 130.006 373.259 130.006 373.755C130.005 374.419 129.741 375.056 129.272 375.526C128.802 375.995 128.165 376.26 127.501 376.261Z" fill="#5684A6"/>
<path d="M127.501 408.751C127.006 408.751 126.521 408.604 126.109 408.329C125.697 408.054 125.376 407.662 125.186 407.205C124.996 406.747 124.947 406.243 125.043 405.757C125.14 405.271 125.379 404.824 125.729 404.474C126.079 404.124 126.526 403.885 127.012 403.788C127.498 403.692 128.002 403.741 128.46 403.931C128.918 404.121 129.309 404.442 129.584 404.854C129.859 405.266 130.006 405.751 130.006 406.246C130.005 406.91 129.741 407.547 129.271 408.016C128.802 408.486 128.165 408.75 127.501 408.751Z" fill="#5684A6"/>
<path d="M143.743 392.965C143.248 392.965 142.764 392.818 142.351 392.543C141.939 392.267 141.618 391.876 141.429 391.418C141.239 390.961 141.189 390.457 141.286 389.971C141.383 389.485 141.621 389.039 141.971 388.688C142.322 388.338 142.768 388.099 143.254 388.002C143.74 387.906 144.244 387.955 144.702 388.145C145.16 388.334 145.551 388.655 145.826 389.067C146.102 389.479 146.249 389.964 146.249 390.459C146.248 391.123 145.984 391.76 145.514 392.23C145.045 392.7 144.408 392.964 143.743 392.965Z" fill="#5684A6"/>
<path d="M111.255 392.962C110.76 392.962 110.275 392.815 109.863 392.54C109.451 392.265 109.13 391.873 108.941 391.416C108.751 390.958 108.701 390.454 108.798 389.968C108.895 389.482 109.133 389.036 109.484 388.685C109.834 388.335 110.281 388.097 110.767 388C111.253 387.903 111.756 387.953 112.214 388.142C112.672 388.332 113.063 388.653 113.339 389.065C113.614 389.477 113.761 389.961 113.761 390.457C113.76 391.121 113.496 391.758 113.026 392.228C112.557 392.697 111.92 392.962 111.255 392.962Z" fill="#5684A6"/>
<path d="M139.147 380.858C138.567 380.858 138.005 380.657 137.557 380.29C137.109 379.922 136.802 379.41 136.689 378.842C136.576 378.273 136.663 377.683 136.936 377.172C137.209 376.661 137.651 376.26 138.187 376.038C138.722 375.816 139.318 375.787 139.873 375.955C140.428 376.123 140.907 376.478 141.229 376.96C141.551 377.442 141.696 378.021 141.64 378.598C141.583 379.174 141.328 379.714 140.918 380.124C140.686 380.357 140.41 380.542 140.106 380.668C139.802 380.794 139.476 380.859 139.147 380.858Z" fill="#5684A6"/>
<path d="M116.175 403.832C115.596 403.832 115.034 403.631 114.586 403.263C114.138 402.896 113.831 402.384 113.718 401.815C113.604 401.247 113.692 400.657 113.965 400.146C114.238 399.634 114.68 399.234 115.216 399.012C115.751 398.79 116.347 398.76 116.902 398.929C117.457 399.097 117.936 399.452 118.258 399.934C118.58 400.416 118.725 400.994 118.669 401.571C118.612 402.148 118.357 402.687 117.947 403.097C117.715 403.331 117.439 403.516 117.135 403.642C116.831 403.768 116.505 403.832 116.175 403.832Z" fill="#5684A6"/>
<path d="M138.877 404.23C138.287 404.23 137.716 404.026 137.26 403.653C136.804 403.279 136.492 402.759 136.377 402.181C136.262 401.603 136.351 401.004 136.629 400.484C136.907 399.965 137.357 399.557 137.901 399.332C138.446 399.107 139.052 399.077 139.616 399.248C140.181 399.419 140.668 399.78 140.996 400.27C141.323 400.76 141.471 401.348 141.413 401.934C141.355 402.52 141.095 403.069 140.678 403.485C140.442 403.722 140.161 403.91 139.852 404.038C139.543 404.165 139.212 404.231 138.877 404.23Z" fill="#5684A6"/>
<path d="M115.851 381.178C115.271 381.178 114.709 380.977 114.261 380.609C113.813 380.242 113.506 379.73 113.393 379.161C113.28 378.593 113.367 378.003 113.641 377.492C113.914 376.98 114.356 376.58 114.891 376.358C115.427 376.136 116.023 376.107 116.578 376.275C117.132 376.443 117.612 376.799 117.934 377.281C118.256 377.763 118.401 378.341 118.344 378.918C118.287 379.495 118.032 380.035 117.622 380.444C117.389 380.677 117.113 380.862 116.81 380.988C116.506 381.114 116.18 381.178 115.851 381.178Z" fill="#5684A6"/>
<path opacity="0.29" d="M179.256 382.351C178.791 382.344 178.344 382.175 177.99 381.873C177.637 381.571 177.401 381.155 177.322 380.697C175.15 369.07 168.981 358.568 159.882 351.011C150.783 343.454 139.327 339.317 127.499 339.317C115.671 339.317 104.216 343.454 95.1166 351.011C86.0175 358.568 79.848 369.07 77.6766 380.697C77.5978 381.155 77.3614 381.571 77.0081 381.873C76.6549 382.175 76.2071 382.344 75.7424 382.351H75.6466C75.3587 382.351 75.0743 382.287 74.8137 382.165C74.5531 382.042 74.3225 381.864 74.1384 381.643C73.9543 381.421 73.821 381.162 73.7481 380.883C73.6752 380.605 73.6644 380.314 73.7165 380.031C76.0481 367.469 82.7029 356.12 92.5265 347.952C102.35 339.784 114.723 335.312 127.499 335.312C140.275 335.312 152.647 339.784 162.471 347.952C172.295 356.12 178.95 367.469 181.281 380.031C181.333 380.314 181.323 380.605 181.25 380.884C181.177 381.162 181.044 381.421 180.86 381.643C180.675 381.864 180.445 382.043 180.184 382.165C179.923 382.287 179.639 382.351 179.351 382.351H179.256Z" fill="white"/>
</g>
<g clip-path="url(#clip2_1276_5602)">
<path d="M252.5 450C285.637 450 312.5 423.137 312.5 390C312.5 356.863 285.637 330 252.5 330C219.363 330 192.5 356.863 192.5 390C192.5 423.137 219.363 450 252.5 450Z" fill="#2B2B2C"/>
<path d="M252.5 446.25C283.566 446.25 308.75 421.066 308.75 390C308.75 358.934 283.566 333.75 252.5 333.75C221.434 333.75 196.25 358.934 196.25 390C196.25 421.066 221.434 446.25 252.5 446.25Z" fill="#373738"/>
<path d="M252.5 440C280.114 440 302.5 417.614 302.5 390C302.5 362.386 280.114 340 252.5 340C224.886 340 202.5 362.386 202.5 390C202.5 417.614 224.886 440 252.5 440Z" fill="#1E1E1F"/>
<path d="M252.5 436.25C278.043 436.25 298.75 415.543 298.75 390C298.75 364.457 278.043 343.75 252.5 343.75C226.957 343.75 206.25 364.457 206.25 390C206.25 415.543 226.957 436.25 252.5 436.25Z" fill="white"/>
<path d="M252.5 431.25C275.282 431.25 293.75 412.782 293.75 390C293.75 367.218 275.282 348.75 252.5 348.75C229.718 348.75 211.25 367.218 211.25 390C211.25 412.782 229.718 431.25 252.5 431.25Z" fill="#8FB5D3"/>
<path d="M252.5 427.5C273.211 427.5 290 410.711 290 390C290 369.289 273.211 352.5 252.5 352.5C231.789 352.5 215 369.289 215 390C215 410.711 231.789 427.5 252.5 427.5Z" fill="white"/>
<path d="M252.5 415C266.307 415 277.5 403.807 277.5 390C277.5 376.193 266.307 365 252.5 365C238.693 365 227.5 376.193 227.5 390C227.5 403.807 238.693 415 252.5 415Z" fill="#8FB5D3"/>
<path d="M252.5 398.75C257.332 398.75 261.25 394.832 261.25 390C261.25 385.167 257.332 381.25 252.5 381.25C247.667 381.25 243.75 385.167 243.75 390C243.75 394.832 247.667 398.75 252.5 398.75Z" fill="#5684A6"/>
<path d="M254.746 360.809C253.349 360.566 251.921 360.566 250.525 360.809C249.881 360.924 249.217 360.812 248.647 360.492C248.077 360.172 247.637 359.664 247.404 359.056L247.384 359.003C247.239 358.616 247.182 358.201 247.217 357.79C247.252 357.378 247.379 356.979 247.587 356.621C247.796 356.264 248.081 355.957 248.423 355.722C248.765 355.487 249.155 355.331 249.565 355.264C251.597 354.912 253.674 354.912 255.706 355.264C256.116 355.331 256.506 355.487 256.848 355.722C257.19 355.956 257.476 356.264 257.684 356.621C257.893 356.979 258.019 357.378 258.054 357.789C258.089 358.201 258.032 358.616 257.887 359.003L257.867 359.056C257.634 359.664 257.194 360.172 256.624 360.492C256.054 360.812 255.39 360.924 254.746 360.809Z" fill="#252F3A"/>
<path d="M250.526 419.192C251.922 419.435 253.35 419.435 254.746 419.192C255.39 419.077 256.054 419.189 256.624 419.509C257.194 419.829 257.634 420.337 257.867 420.945L257.887 420.998C258.032 421.385 258.089 421.8 258.054 422.211C258.019 422.623 257.893 423.022 257.684 423.38C257.476 423.737 257.19 424.044 256.848 424.279C256.506 424.514 256.116 424.67 255.706 424.737C253.674 425.089 251.597 425.089 249.565 424.737C249.155 424.67 248.765 424.514 248.423 424.279C248.081 424.045 247.796 423.737 247.587 423.38C247.379 423.022 247.252 422.623 247.217 422.212C247.182 421.8 247.239 421.385 247.384 420.998L247.404 420.945C247.637 420.337 248.077 419.829 248.647 419.509C249.217 419.189 249.881 419.077 250.526 419.192Z" fill="#252F3A"/>
<path d="M281.685 392.091C281.928 390.708 281.928 389.293 281.685 387.91C281.569 387.272 281.681 386.614 282.002 386.05C282.322 385.485 282.831 385.05 283.44 384.819L283.492 384.799C283.88 384.656 284.295 384.599 284.707 384.634C285.119 384.669 285.518 384.794 285.876 385C286.234 385.207 286.541 385.49 286.776 385.828C287.011 386.167 287.168 386.553 287.235 386.959C287.587 388.972 287.587 391.029 287.235 393.042C287.168 393.448 287.011 393.834 286.776 394.173C286.541 394.511 286.234 394.794 285.876 395.001C285.518 395.207 285.119 395.332 284.707 395.367C284.295 395.402 283.88 395.345 283.492 395.202L283.44 395.182C282.831 394.951 282.322 394.516 282.002 393.951C281.681 393.387 281.569 392.728 281.685 392.091Z" fill="#252F3A"/>
<path d="M223.314 387.91C223.071 389.293 223.071 390.707 223.314 392.09C223.429 392.728 223.317 393.386 222.997 393.951C222.677 394.515 222.168 394.951 221.559 395.182L221.507 395.202C221.119 395.345 220.704 395.402 220.292 395.367C219.88 395.332 219.48 395.207 219.122 395C218.765 394.794 218.457 394.511 218.222 394.172C217.987 393.834 217.831 393.447 217.764 393.041C217.412 391.029 217.412 388.971 217.764 386.959C217.831 386.553 217.987 386.167 218.222 385.828C218.457 385.489 218.765 385.207 219.122 385C219.48 384.794 219.88 384.669 220.292 384.634C220.704 384.599 221.119 384.655 221.507 384.799L221.559 384.819C222.168 385.05 222.677 385.485 222.997 386.05C223.317 386.614 223.429 387.272 223.314 387.91Z" fill="#252F3A"/>
<path d="M276.729 406.332C277.634 405.254 278.344 404.029 278.828 402.71C279.048 402.1 279.476 401.586 280.037 401.256C280.598 400.926 281.257 400.802 281.9 400.904L281.956 400.913C282.364 400.981 282.752 401.139 283.091 401.374C283.431 401.609 283.714 401.915 283.92 402.272C284.127 402.629 284.251 403.027 284.284 403.437C284.318 403.847 284.259 404.259 284.114 404.645C283.408 406.562 282.374 408.345 281.059 409.913C280.797 410.232 280.468 410.489 280.094 410.665C279.72 410.842 279.312 410.934 278.898 410.935C278.485 410.936 278.076 410.846 277.701 410.672C277.327 410.497 276.996 410.242 276.732 409.925L276.696 409.881C276.285 409.379 276.063 408.749 276.069 408.101C276.075 407.452 276.308 406.827 276.729 406.332Z" fill="#252F3A"/>
<path d="M228.265 373.666C227.36 374.744 226.65 375.969 226.166 377.288C225.946 377.898 225.518 378.412 224.957 378.742C224.396 379.072 223.737 379.196 223.093 379.094L223.038 379.085C222.63 379.017 222.242 378.859 221.902 378.624C221.563 378.389 221.28 378.082 221.073 377.726C220.867 377.369 220.743 376.971 220.709 376.561C220.676 376.151 220.734 375.738 220.88 375.353C221.586 373.435 222.619 371.653 223.934 370.085C224.196 369.766 224.526 369.509 224.9 369.332C225.273 369.156 225.682 369.064 226.095 369.063C226.509 369.061 226.918 369.151 227.292 369.326C227.667 369.501 227.998 369.756 228.262 370.073L228.297 370.116C228.709 370.619 228.931 371.249 228.925 371.897C228.919 372.545 228.685 373.171 228.265 373.666Z" fill="#252F3A"/>
<path d="M265.301 416.208C266.626 415.724 267.857 415.016 268.938 414.114C269.435 413.695 270.064 413.462 270.716 413.455C271.367 413.448 272.001 413.668 272.507 414.076L272.55 414.111C272.87 414.373 273.126 414.702 273.303 415.074C273.479 415.447 273.57 415.853 273.57 416.265C273.569 416.676 273.477 417.083 273.3 417.455C273.123 417.827 272.865 418.155 272.546 418.416C270.971 419.727 269.181 420.758 267.254 421.463C266.867 421.608 266.453 421.667 266.04 421.634C265.628 421.602 265.228 421.479 264.869 421.274C264.51 421.07 264.201 420.788 263.964 420.451C263.727 420.113 263.569 419.728 263.5 419.322L263.49 419.267C263.386 418.627 263.511 417.971 263.841 417.413C264.172 416.854 264.688 416.428 265.301 416.208Z" fill="#252F3A"/>
<path d="M239.694 363.8C238.369 364.283 237.139 364.992 236.057 365.894C235.56 366.313 234.931 366.546 234.28 366.553C233.628 366.56 232.995 366.34 232.489 365.932L232.445 365.896C232.126 365.634 231.869 365.305 231.693 364.933C231.517 364.561 231.425 364.154 231.426 363.743C231.426 363.331 231.518 362.925 231.695 362.553C231.872 362.181 232.13 361.853 232.45 361.591C234.024 360.281 235.814 359.25 237.741 358.545C238.128 358.399 238.543 358.34 238.955 358.373C239.368 358.406 239.768 358.529 240.127 358.733C240.486 358.938 240.794 359.219 241.031 359.557C241.268 359.894 241.427 360.28 241.496 360.685L241.505 360.74C241.609 361.38 241.485 362.036 241.154 362.595C240.824 363.154 240.307 363.58 239.694 363.8Z" fill="#252F3A"/>
<path d="M228.298 406.394C227.389 405.312 226.676 404.082 226.189 402.757C225.968 402.144 225.539 401.628 224.975 401.297C224.412 400.965 223.75 400.84 223.104 400.943L223.048 400.952C222.638 401.021 222.249 401.179 221.908 401.415C221.566 401.651 221.282 401.959 221.075 402.317C220.868 402.676 220.743 403.075 220.709 403.487C220.676 403.899 220.734 404.313 220.881 404.7C221.59 406.626 222.627 408.417 223.948 409.992C224.212 410.312 224.543 410.57 224.918 410.747C225.293 410.925 225.703 411.017 226.119 411.018C226.534 411.019 226.945 410.929 227.321 410.753C227.697 410.578 228.03 410.322 228.294 410.003L228.33 409.96C228.744 409.455 228.967 408.822 228.961 408.171C228.955 407.52 228.72 406.892 228.298 406.394Z" fill="#252F3A"/>
<path d="M276.979 373.603C277.888 374.685 278.601 375.916 279.087 377.24C279.308 377.853 279.738 378.37 280.301 378.701C280.864 379.032 281.527 379.157 282.173 379.054L282.229 379.045C282.638 378.977 283.028 378.819 283.369 378.583C283.71 378.347 283.994 378.039 284.202 377.68C284.409 377.322 284.534 376.923 284.567 376.511C284.601 376.099 284.542 375.685 284.396 375.298C283.687 373.371 282.649 371.581 281.328 370.006C281.065 369.686 280.734 369.428 280.359 369.251C279.983 369.073 279.573 368.981 279.158 368.98C278.742 368.978 278.332 369.069 277.956 369.244C277.58 369.42 277.247 369.676 276.982 369.994L276.946 370.038C276.533 370.543 276.31 371.175 276.316 371.826C276.322 372.477 276.556 373.106 276.979 373.603Z" fill="#252F3A"/>
<path d="M239.781 416.32C238.45 415.834 237.215 415.123 236.128 414.217C235.629 413.796 234.998 413.562 234.343 413.555C233.689 413.548 233.052 413.769 232.544 414.179L232.501 414.215C232.18 414.477 231.922 414.808 231.745 415.182C231.568 415.556 231.477 415.964 231.477 416.377C231.477 416.79 231.57 417.199 231.748 417.572C231.925 417.946 232.184 418.275 232.505 418.538C234.087 419.854 235.885 420.889 237.82 421.598C238.209 421.744 238.625 421.803 239.039 421.77C239.453 421.737 239.855 421.614 240.216 421.408C240.576 421.203 240.886 420.92 241.124 420.581C241.362 420.242 241.521 419.855 241.591 419.448L241.6 419.392C241.704 418.75 241.58 418.091 241.248 417.53C240.915 416.969 240.397 416.541 239.781 416.32Z" fill="#252F3A"/>
<path d="M265.49 363.684C266.82 364.17 268.056 364.881 269.143 365.787C269.642 366.208 270.273 366.442 270.928 366.449C271.582 366.456 272.218 366.235 272.727 365.825L272.77 365.789C273.091 365.526 273.349 365.196 273.526 364.822C273.703 364.448 273.794 364.04 273.794 363.627C273.793 363.214 273.701 362.805 273.523 362.432C273.345 362.058 273.087 361.729 272.766 361.466C271.184 360.15 269.386 359.115 267.451 358.406C267.062 358.26 266.646 358.201 266.232 358.234C265.818 358.267 265.416 358.39 265.055 358.596C264.695 358.801 264.385 359.084 264.147 359.423C263.909 359.761 263.75 360.149 263.68 360.556L263.671 360.612C263.567 361.254 263.691 361.913 264.023 362.474C264.355 363.035 264.874 363.463 265.49 363.684Z" fill="#252F3A"/>
<path d="M252.501 376.261C252.006 376.261 251.521 376.114 251.109 375.839C250.697 375.564 250.376 375.172 250.186 374.715C249.996 374.257 249.947 373.753 250.043 373.267C250.14 372.781 250.378 372.335 250.729 371.984C251.079 371.634 251.525 371.395 252.011 371.298C252.497 371.201 253.001 371.251 253.459 371.441C253.917 371.63 254.308 371.951 254.584 372.363C254.859 372.775 255.006 373.259 255.006 373.755C255.005 374.419 254.741 375.056 254.272 375.526C253.802 375.995 253.165 376.26 252.501 376.261Z" fill="#5684A6"/>
<path d="M252.501 408.751C252.006 408.751 251.521 408.604 251.109 408.329C250.697 408.054 250.376 407.662 250.186 407.205C249.996 406.747 249.947 406.243 250.043 405.757C250.14 405.271 250.379 404.824 250.729 404.474C251.079 404.124 251.526 403.885 252.012 403.788C252.498 403.692 253.002 403.741 253.46 403.931C253.918 404.121 254.309 404.442 254.584 404.854C254.859 405.266 255.006 405.751 255.006 406.246C255.005 406.91 254.741 407.547 254.271 408.016C253.802 408.486 253.165 408.75 252.501 408.751Z" fill="#5684A6"/>
<path d="M268.743 392.965C268.248 392.965 267.764 392.818 267.351 392.543C266.939 392.267 266.618 391.876 266.429 391.418C266.239 390.961 266.189 390.457 266.286 389.971C266.383 389.485 266.621 389.039 266.971 388.688C267.322 388.338 267.768 388.099 268.254 388.002C268.74 387.906 269.244 387.955 269.702 388.145C270.16 388.334 270.551 388.655 270.826 389.067C271.102 389.479 271.249 389.964 271.249 390.459C271.248 391.123 270.984 391.76 270.514 392.23C270.045 392.7 269.408 392.964 268.743 392.965Z" fill="#5684A6"/>
<path d="M236.255 392.962C235.76 392.962 235.275 392.815 234.863 392.54C234.451 392.265 234.13 391.873 233.941 391.416C233.751 390.958 233.701 390.454 233.798 389.968C233.895 389.482 234.133 389.036 234.484 388.685C234.834 388.335 235.281 388.097 235.767 388C236.253 387.903 236.756 387.953 237.214 388.142C237.672 388.332 238.063 388.653 238.339 389.065C238.614 389.477 238.761 389.961 238.761 390.457C238.76 391.121 238.496 391.758 238.026 392.228C237.557 392.697 236.92 392.962 236.255 392.962Z" fill="#5684A6"/>
<path d="M264.147 380.858C263.567 380.858 263.005 380.657 262.557 380.29C262.109 379.922 261.802 379.41 261.689 378.842C261.576 378.273 261.663 377.683 261.936 377.172C262.209 376.661 262.651 376.26 263.187 376.038C263.722 375.816 264.318 375.787 264.873 375.955C265.428 376.123 265.907 376.478 266.229 376.96C266.551 377.442 266.696 378.021 266.64 378.598C266.583 379.174 266.328 379.714 265.918 380.124C265.686 380.357 265.41 380.542 265.106 380.668C264.802 380.794 264.476 380.859 264.147 380.858Z" fill="#5684A6"/>
<path d="M241.175 403.832C240.596 403.832 240.034 403.631 239.586 403.263C239.138 402.896 238.831 402.384 238.718 401.815C238.604 401.247 238.692 400.657 238.965 400.146C239.238 399.634 239.68 399.234 240.216 399.012C240.751 398.79 241.347 398.76 241.902 398.929C242.457 399.097 242.936 399.452 243.258 399.934C243.58 400.416 243.725 400.994 243.669 401.571C243.612 402.148 243.357 402.687 242.947 403.097C242.715 403.331 242.439 403.516 242.135 403.642C241.831 403.768 241.505 403.832 241.175 403.832Z" fill="#5684A6"/>
<path d="M263.877 404.23C263.287 404.23 262.716 404.026 262.26 403.653C261.804 403.279 261.492 402.759 261.377 402.181C261.262 401.603 261.351 401.004 261.629 400.484C261.907 399.965 262.357 399.557 262.901 399.332C263.446 399.107 264.052 399.077 264.616 399.248C265.181 399.419 265.668 399.78 265.996 400.27C266.323 400.76 266.471 401.348 266.413 401.934C266.355 402.52 266.095 403.069 265.678 403.485C265.442 403.722 265.161 403.91 264.852 404.038C264.543 404.165 264.212 404.231 263.877 404.23Z" fill="#5684A6"/>
<path d="M240.851 381.178C240.271 381.178 239.709 380.977 239.261 380.609C238.813 380.242 238.506 379.73 238.393 379.161C238.28 378.593 238.367 378.003 238.641 377.492C238.914 376.98 239.356 376.58 239.891 376.358C240.427 376.136 241.023 376.107 241.578 376.275C242.132 376.443 242.612 376.799 242.934 377.281C243.256 377.763 243.401 378.341 243.344 378.918C243.287 379.495 243.032 380.035 242.622 380.444C242.389 380.677 242.113 380.862 241.81 380.988C241.506 381.114 241.18 381.178 240.851 381.178Z" fill="#5684A6"/>
<path opacity="0.29" d="M304.256 382.351C303.791 382.344 303.344 382.175 302.99 381.873C302.637 381.571 302.401 381.155 302.322 380.697C300.15 369.07 293.981 358.568 284.882 351.011C275.783 343.454 264.327 339.317 252.499 339.317C240.671 339.317 229.216 343.454 220.117 351.011C211.017 358.568 204.848 369.07 202.677 380.697C202.598 381.155 202.361 381.571 202.008 381.873C201.655 382.175 201.207 382.344 200.742 382.351H200.647C200.359 382.351 200.074 382.287 199.814 382.165C199.553 382.042 199.323 381.864 199.138 381.643C198.954 381.421 198.821 381.162 198.748 380.883C198.675 380.605 198.664 380.314 198.716 380.031C201.048 367.469 207.703 356.12 217.527 347.952C227.35 339.784 239.723 335.312 252.499 335.312C265.275 335.312 277.647 339.784 287.471 347.952C297.295 356.12 303.95 367.469 306.281 380.031C306.333 380.314 306.323 380.605 306.25 380.884C306.177 381.162 306.044 381.421 305.86 381.643C305.675 381.864 305.445 382.043 305.184 382.165C304.923 382.287 304.639 382.351 304.351 382.351H304.256Z" fill="white"/>
</g>
<g clip-path="url(#clip3_1276_5602)">
<path d="M590 450C623.137 450 650 423.137 650 390C650 356.863 623.137 330 590 330C556.863 330 530 356.863 530 390C530 423.137 556.863 450 590 450Z" fill="#2B2B2C"/>
<path d="M590 446.25C621.066 446.25 646.25 421.066 646.25 390C646.25 358.934 621.066 333.75 590 333.75C558.934 333.75 533.75 358.934 533.75 390C533.75 421.066 558.934 446.25 590 446.25Z" fill="#373738"/>
<path d="M590 440C617.614 440 640 417.614 640 390C640 362.386 617.614 340 590 340C562.386 340 540 362.386 540 390C540 417.614 562.386 440 590 440Z" fill="#1E1E1F"/>
<path d="M590 436.25C615.543 436.25 636.25 415.543 636.25 390C636.25 364.457 615.543 343.75 590 343.75C564.457 343.75 543.75 364.457 543.75 390C543.75 415.543 564.457 436.25 590 436.25Z" fill="white"/>
<path d="M590 431.25C612.782 431.25 631.25 412.782 631.25 390C631.25 367.218 612.782 348.75 590 348.75C567.218 348.75 548.75 367.218 548.75 390C548.75 412.782 567.218 431.25 590 431.25Z" fill="#8FB5D3"/>
<path d="M590 427.5C610.711 427.5 627.5 410.711 627.5 390C627.5 369.289 610.711 352.5 590 352.5C569.289 352.5 552.5 369.289 552.5 390C552.5 410.711 569.289 427.5 590 427.5Z" fill="white"/>
<path d="M590 415C603.807 415 615 403.807 615 390C615 376.193 603.807 365 590 365C576.193 365 565 376.193 565 390C565 403.807 576.193 415 590 415Z" fill="#8FB5D3"/>
<path d="M590 398.75C594.832 398.75 598.75 394.832 598.75 390C598.75 385.167 594.832 381.25 590 381.25C585.167 381.25 581.25 385.167 581.25 390C581.25 394.832 585.167 398.75 590 398.75Z" fill="#5684A6"/>
<path d="M592.246 360.809C590.849 360.566 589.421 360.566 588.025 360.809C587.381 360.924 586.717 360.812 586.147 360.492C585.577 360.172 585.137 359.664 584.904 359.056L584.884 359.003C584.739 358.616 584.682 358.201 584.717 357.79C584.752 357.378 584.879 356.979 585.087 356.621C585.296 356.264 585.581 355.957 585.923 355.722C586.265 355.487 586.655 355.331 587.065 355.264C589.097 354.912 591.174 354.912 593.206 355.264C593.616 355.331 594.006 355.487 594.348 355.722C594.69 355.956 594.976 356.264 595.184 356.621C595.393 356.979 595.519 357.378 595.554 357.789C595.589 358.201 595.532 358.616 595.387 359.003L595.367 359.056C595.134 359.664 594.694 360.172 594.124 360.492C593.554 360.812 592.89 360.924 592.246 360.809Z" fill="#252F3A"/>
<path d="M588.026 419.192C589.422 419.435 590.85 419.435 592.246 419.192C592.89 419.077 593.554 419.189 594.124 419.509C594.694 419.829 595.134 420.337 595.367 420.945L595.387 420.998C595.532 421.385 595.589 421.8 595.554 422.211C595.519 422.623 595.393 423.022 595.184 423.38C594.976 423.737 594.69 424.044 594.348 424.279C594.006 424.514 593.616 424.67 593.206 424.737C591.174 425.089 589.097 425.089 587.065 424.737C586.655 424.67 586.265 424.514 585.923 424.279C585.581 424.045 585.296 423.737 585.087 423.38C584.879 423.022 584.752 422.623 584.717 422.212C584.682 421.8 584.739 421.385 584.884 420.998L584.904 420.945C585.137 420.337 585.577 419.829 586.147 419.509C586.717 419.189 587.381 419.077 588.026 419.192Z" fill="#252F3A"/>
<path d="M619.185 392.091C619.428 390.708 619.428 389.293 619.185 387.91C619.069 387.272 619.181 386.614 619.502 386.05C619.822 385.485 620.331 385.05 620.94 384.819L620.992 384.799C621.38 384.656 621.795 384.599 622.207 384.634C622.619 384.669 623.018 384.794 623.376 385C623.734 385.207 624.041 385.49 624.276 385.828C624.511 386.167 624.668 386.553 624.735 386.959C625.087 388.972 625.087 391.029 624.735 393.042C624.668 393.448 624.511 393.834 624.276 394.173C624.041 394.511 623.734 394.794 623.376 395.001C623.018 395.207 622.619 395.332 622.207 395.367C621.795 395.402 621.38 395.345 620.992 395.202L620.94 395.182C620.331 394.951 619.822 394.516 619.502 393.951C619.181 393.387 619.069 392.728 619.185 392.091Z" fill="#252F3A"/>
<path d="M560.814 387.91C560.571 389.293 560.571 390.707 560.814 392.09C560.929 392.728 560.817 393.386 560.497 393.951C560.177 394.515 559.668 394.951 559.059 395.182L559.007 395.202C558.619 395.345 558.204 395.402 557.792 395.367C557.38 395.332 556.98 395.207 556.622 395C556.265 394.794 555.957 394.511 555.722 394.172C555.487 393.834 555.331 393.447 555.264 393.041C554.912 391.029 554.912 388.971 555.264 386.959C555.331 386.553 555.487 386.167 555.722 385.828C555.957 385.489 556.265 385.207 556.622 385C556.98 384.794 557.38 384.669 557.792 384.634C558.204 384.599 558.619 384.655 559.007 384.799L559.059 384.819C559.668 385.05 560.177 385.485 560.497 386.05C560.817 386.614 560.929 387.272 560.814 387.91Z" fill="#252F3A"/>
<path d="M614.229 406.332C615.133 405.254 615.844 404.029 616.328 402.71C616.548 402.1 616.975 401.586 617.536 401.256C618.097 400.926 618.757 400.802 619.4 400.904L619.456 400.913C619.864 400.981 620.251 401.139 620.591 401.374C620.931 401.609 621.214 401.915 621.42 402.272C621.626 402.629 621.751 403.027 621.784 403.437C621.818 403.847 621.759 404.259 621.613 404.645C620.908 406.562 619.874 408.345 618.559 409.913C618.297 410.232 617.967 410.489 617.594 410.665C617.22 410.842 616.812 410.934 616.398 410.935C615.985 410.936 615.576 410.846 615.201 410.672C614.827 410.497 614.496 410.242 614.232 409.925L614.196 409.881C613.785 409.379 613.563 408.749 613.569 408.101C613.575 407.452 613.808 406.827 614.229 406.332Z" fill="#252F3A"/>
<path d="M565.765 373.666C564.86 374.744 564.15 375.969 563.666 377.288C563.446 377.898 563.018 378.412 562.457 378.742C561.896 379.072 561.237 379.196 560.593 379.094L560.538 379.085C560.13 379.017 559.742 378.859 559.402 378.624C559.063 378.389 558.78 378.082 558.573 377.726C558.367 377.369 558.243 376.971 558.209 376.561C558.176 376.151 558.234 375.738 558.38 375.353C559.086 373.435 560.119 371.653 561.434 370.085C561.696 369.766 562.026 369.509 562.4 369.332C562.773 369.156 563.182 369.064 563.595 369.063C564.009 369.061 564.418 369.151 564.792 369.326C565.167 369.501 565.498 369.756 565.762 370.073L565.797 370.116C566.209 370.619 566.431 371.249 566.425 371.897C566.419 372.545 566.185 373.171 565.765 373.666Z" fill="#252F3A"/>
<path d="M602.801 416.208C604.126 415.724 605.357 415.016 606.438 414.114C606.935 413.695 607.564 413.462 608.216 413.455C608.867 413.448 609.501 413.668 610.007 414.076L610.05 414.111C610.37 414.373 610.626 414.702 610.803 415.074C610.979 415.447 611.07 415.853 611.07 416.265C611.069 416.676 610.977 417.083 610.8 417.455C610.623 417.827 610.365 418.155 610.046 418.416C608.471 419.727 606.681 420.758 604.754 421.463C604.367 421.608 603.953 421.667 603.54 421.634C603.128 421.602 602.728 421.479 602.369 421.274C602.01 421.07 601.701 420.788 601.464 420.451C601.227 420.113 601.069 419.728 601 419.322L600.99 419.267C600.886 418.627 601.011 417.971 601.341 417.413C601.672 416.854 602.188 416.428 602.801 416.208Z" fill="#252F3A"/>
<path d="M577.194 363.8C575.869 364.283 574.639 364.992 573.557 365.894C573.06 366.313 572.431 366.546 571.78 366.553C571.128 366.56 570.495 366.34 569.989 365.932L569.945 365.896C569.626 365.634 569.369 365.305 569.193 364.933C569.017 364.561 568.925 364.154 568.926 363.743C568.926 363.331 569.018 362.925 569.195 362.553C569.372 362.181 569.63 361.853 569.95 361.591C571.524 360.281 573.314 359.25 575.241 358.545C575.628 358.399 576.043 358.34 576.455 358.373C576.868 358.406 577.268 358.529 577.627 358.733C577.986 358.938 578.294 359.219 578.531 359.557C578.768 359.894 578.927 360.28 578.996 360.685L579.005 360.74C579.109 361.38 578.985 362.036 578.654 362.595C578.324 363.154 577.807 363.58 577.194 363.8Z" fill="#252F3A"/>
<path d="M565.798 406.394C564.889 405.312 564.176 404.082 563.689 402.757C563.468 402.144 563.039 401.628 562.475 401.297C561.912 400.965 561.25 400.84 560.604 400.943L560.548 400.952C560.138 401.021 559.749 401.179 559.408 401.415C559.066 401.651 558.782 401.959 558.575 402.317C558.368 402.676 558.243 403.075 558.209 403.487C558.176 403.899 558.234 404.313 558.381 404.7C559.09 406.626 560.127 408.417 561.448 409.992C561.712 410.312 562.043 410.57 562.418 410.747C562.793 410.925 563.203 411.017 563.619 411.018C564.034 411.019 564.445 410.929 564.821 410.753C565.197 410.578 565.53 410.322 565.794 410.003L565.83 409.96C566.244 409.455 566.467 408.822 566.461 408.171C566.455 407.52 566.22 406.892 565.798 406.394Z" fill="#252F3A"/>
<path d="M614.479 373.603C615.388 374.685 616.101 375.916 616.587 377.24C616.808 377.853 617.238 378.37 617.801 378.701C618.364 379.032 619.027 379.157 619.673 379.054L619.729 379.045C620.138 378.977 620.528 378.819 620.869 378.583C621.21 378.347 621.494 378.039 621.702 377.68C621.909 377.322 622.034 376.923 622.067 376.511C622.101 376.099 622.042 375.685 621.896 375.298C621.187 373.371 620.149 371.581 618.828 370.006C618.565 369.686 618.234 369.428 617.859 369.251C617.483 369.073 617.073 368.981 616.658 368.98C616.242 368.978 615.832 369.069 615.456 369.244C615.08 369.42 614.747 369.676 614.482 369.994L614.446 370.038C614.033 370.543 613.81 371.175 613.816 371.826C613.822 372.477 614.056 373.106 614.479 373.603Z" fill="#252F3A"/>
<path d="M577.281 416.32C575.95 415.834 574.715 415.123 573.628 414.217C573.129 413.796 572.498 413.562 571.843 413.555C571.189 413.548 570.552 413.769 570.044 414.179L570.001 414.215C569.68 414.477 569.422 414.808 569.245 415.182C569.068 415.556 568.977 415.964 568.977 416.377C568.977 416.79 569.07 417.199 569.248 417.572C569.425 417.946 569.684 418.275 570.005 418.538C571.587 419.854 573.385 420.889 575.32 421.598C575.709 421.744 576.125 421.803 576.539 421.77C576.953 421.737 577.355 421.614 577.716 421.408C578.076 421.203 578.386 420.92 578.624 420.581C578.862 420.242 579.021 419.855 579.091 419.448L579.1 419.392C579.204 418.75 579.08 418.091 578.748 417.53C578.415 416.969 577.897 416.541 577.281 416.32Z" fill="#252F3A"/>
<path d="M602.99 363.684C604.32 364.17 605.556 364.881 606.643 365.787C607.142 366.208 607.773 366.442 608.428 366.449C609.082 366.456 609.718 366.235 610.227 365.825L610.27 365.789C610.591 365.526 610.849 365.196 611.026 364.822C611.203 364.448 611.294 364.04 611.294 363.627C611.293 363.214 611.201 362.805 611.023 362.432C610.845 362.058 610.587 361.729 610.266 361.466C608.684 360.15 606.886 359.115 604.951 358.406C604.562 358.26 604.146 358.201 603.732 358.234C603.318 358.267 602.916 358.39 602.555 358.596C602.195 358.801 601.885 359.084 601.647 359.423C601.409 359.761 601.25 360.149 601.18 360.556L601.171 360.612C601.067 361.254 601.191 361.913 601.523 362.474C601.855 363.035 602.374 363.463 602.99 363.684Z" fill="#252F3A"/>
<path d="M590.001 376.261C589.506 376.261 589.021 376.114 588.609 375.839C588.197 375.564 587.876 375.172 587.686 374.715C587.496 374.257 587.447 373.753 587.543 373.267C587.64 372.781 587.878 372.335 588.229 371.984C588.579 371.634 589.025 371.395 589.511 371.298C589.997 371.201 590.501 371.251 590.959 371.441C591.417 371.63 591.808 371.951 592.084 372.363C592.359 372.775 592.506 373.259 592.506 373.755C592.505 374.419 592.241 375.056 591.772 375.526C591.302 375.995 590.665 376.26 590.001 376.261Z" fill="#5684A6"/>
<path d="M590.001 408.751C589.506 408.751 589.021 408.604 588.609 408.329C588.197 408.054 587.876 407.662 587.686 407.205C587.496 406.747 587.447 406.243 587.543 405.757C587.64 405.271 587.879 404.824 588.229 404.474C588.579 404.124 589.026 403.885 589.512 403.788C589.998 403.692 590.502 403.741 590.96 403.931C591.418 404.121 591.809 404.442 592.084 404.854C592.359 405.266 592.506 405.751 592.506 406.246C592.505 406.91 592.241 407.547 591.771 408.016C591.302 408.486 590.665 408.75 590.001 408.751Z" fill="#5684A6"/>
<path d="M606.243 392.965C605.748 392.965 605.264 392.818 604.851 392.543C604.439 392.267 604.118 391.876 603.929 391.418C603.739 390.961 603.689 390.457 603.786 389.971C603.883 389.485 604.121 389.039 604.471 388.688C604.822 388.338 605.268 388.099 605.754 388.002C606.24 387.906 606.744 387.955 607.202 388.145C607.66 388.334 608.051 388.655 608.326 389.067C608.602 389.479 608.749 389.964 608.749 390.459C608.748 391.123 608.484 391.76 608.014 392.23C607.545 392.7 606.908 392.964 606.243 392.965Z" fill="#5684A6"/>
<path d="M573.755 392.962C573.26 392.962 572.775 392.815 572.363 392.54C571.951 392.265 571.63 391.873 571.441 391.416C571.251 390.958 571.201 390.454 571.298 389.968C571.395 389.482 571.633 389.036 571.984 388.685C572.334 388.335 572.781 388.097 573.267 388C573.753 387.903 574.256 387.953 574.714 388.142C575.172 388.332 575.563 388.653 575.839 389.065C576.114 389.477 576.261 389.961 576.261 390.457C576.26 391.121 575.996 391.758 575.526 392.228C575.057 392.697 574.42 392.962 573.755 392.962Z" fill="#5684A6"/>
<path d="M601.647 380.858C601.067 380.858 600.505 380.657 600.057 380.29C599.609 379.922 599.302 379.41 599.189 378.842C599.076 378.273 599.163 377.683 599.436 377.172C599.709 376.661 600.151 376.26 600.687 376.038C601.222 375.816 601.818 375.787 602.373 375.955C602.928 376.123 603.407 376.478 603.729 376.96C604.051 377.442 604.196 378.021 604.14 378.598C604.083 379.174 603.828 379.714 603.418 380.124C603.186 380.357 602.91 380.542 602.606 380.668C602.302 380.794 601.976 380.859 601.647 380.858Z" fill="#5684A6"/>
<path d="M578.675 403.832C578.096 403.832 577.534 403.631 577.086 403.263C576.638 402.896 576.331 402.384 576.218 401.815C576.104 401.247 576.192 400.657 576.465 400.146C576.738 399.634 577.18 399.234 577.716 399.012C578.251 398.79 578.847 398.76 579.402 398.929C579.957 399.097 580.436 399.452 580.758 399.934C581.08 400.416 581.225 400.994 581.169 401.571C581.112 402.148 580.857 402.687 580.447 403.097C580.215 403.331 579.939 403.516 579.635 403.642C579.331 403.768 579.005 403.832 578.675 403.832Z" fill="#5684A6"/>
<path d="M601.377 404.23C600.787 404.23 600.216 404.026 599.76 403.653C599.304 403.279 598.992 402.759 598.877 402.181C598.762 401.603 598.851 401.004 599.129 400.484C599.407 399.965 599.857 399.557 600.401 399.332C600.946 399.107 601.552 399.077 602.116 399.248C602.681 399.419 603.168 399.78 603.496 400.27C603.823 400.76 603.971 401.348 603.913 401.934C603.855 402.52 603.595 403.069 603.178 403.485C602.942 403.722 602.661 403.91 602.352 404.038C602.043 404.165 601.712 404.231 601.377 404.23Z" fill="#5684A6"/>
<path d="M578.351 381.178C577.771 381.178 577.209 380.977 576.761 380.609C576.313 380.242 576.006 379.73 575.893 379.161C575.78 378.593 575.867 378.003 576.141 377.492C576.414 376.98 576.856 376.58 577.391 376.358C577.927 376.136 578.523 376.107 579.078 376.275C579.632 376.443 580.112 376.799 580.434 377.281C580.756 377.763 580.901 378.341 580.844 378.918C580.787 379.495 580.532 380.035 580.122 380.444C579.889 380.677 579.613 380.862 579.31 380.988C579.006 381.114 578.68 381.178 578.351 381.178Z" fill="#5684A6"/>
<path opacity="0.29" d="M641.756 382.351C641.291 382.344 640.844 382.175 640.49 381.873C640.137 381.571 639.901 381.155 639.822 380.697C637.65 369.07 631.481 358.568 622.382 351.011C613.283 343.454 601.827 339.317 589.999 339.317C578.171 339.317 566.716 343.454 557.617 351.011C548.517 358.568 542.348 369.07 540.177 380.697C540.098 381.155 539.861 381.571 539.508 381.873C539.155 382.175 538.707 382.344 538.242 382.351H538.147C537.859 382.351 537.574 382.287 537.314 382.165C537.053 382.042 536.823 381.864 536.638 381.643C536.454 381.421 536.321 381.162 536.248 380.883C536.175 380.605 536.164 380.314 536.216 380.031C538.548 367.469 545.203 356.12 555.027 347.952C564.85 339.784 577.223 335.312 589.999 335.312C602.775 335.312 615.147 339.784 624.971 347.952C634.795 356.12 641.45 367.469 643.781 380.031C643.833 380.314 643.823 380.605 643.75 380.884C643.677 381.162 643.544 381.421 643.36 381.643C643.175 381.864 642.945 382.043 642.684 382.165C642.423 382.287 642.139 382.351 641.851 382.351H641.756Z" fill="white"/>
</g>
<path d="M262.783 319.912H119.584C101.664 319.932 84.4832 327.061 71.8117 339.735C59.1402 352.409 52.0125 369.593 51.9922 387.516V406.287H65.9535V387.516C65.9696 373.295 71.625 359.661 81.6792 349.605C91.7333 339.549 105.365 333.892 119.584 333.876H262.783C277.002 333.892 290.633 339.549 300.687 349.605C310.742 359.661 316.397 373.295 316.413 387.516V406.287H330.374V387.516C330.354 369.593 323.226 352.409 310.555 339.735C297.883 327.061 280.703 319.932 262.783 319.912Z" fill="#294856"/>
<path opacity="0.63" d="M422.053 93.3496H290.485L251.641 295.688H383.208L422.053 93.3496Z" fill="#D99627"/>
<path opacity="0.63" d="M105.996 295.688H230.257L269.103 93.3496H144.841L105.996 295.688Z" fill="#D99627"/>
<path opacity="0.63" d="M596.393 93.3496L557.549 295.688H680.662L720.511 93.3496H596.393Z" fill="#D99627"/>
<path opacity="0.63" d="M575.002 93.3496H443.434L404.59 295.688H536.157L575.002 93.3496Z" fill="#D99627"/>
<path opacity="0.63" d="M123.455 93.3496H55.4617L22.3438 264.988L84.6658 295.398L123.455 93.3496Z" fill="#D99627"/>
<g style="mix-blend-mode:multiply" opacity="0.21">
<path d="M290.48 93.3496L289.727 97.274H416.192L378.1 295.688H383.202L422.048 93.3496H290.48Z" fill="#D99627"/>
</g>
<g style="mix-blend-mode:multiply" opacity="0.21">
<path d="M144.842 93.3496L144.18 96.7968H262.978L224.795 295.688H230.258L269.103 93.3496H144.842Z" fill="#D99627"/>
</g>
<g style="mix-blend-mode:multiply" opacity="0.21">
<path d="M450.89 93.3496L450.137 97.274H569.152L530.075 295.688H535.159L575.008 93.3496H450.89Z" fill="#D99627"/>
</g>
<g style="mix-blend-mode:multiply" opacity="0.21">
<path d="M588.937 93.3496L588.184 97.274H714.649L676.557 295.688H681.659L720.505 93.3496H588.937Z" fill="#D99627"/>
</g>
<path d="M340.742 356.572V367.964C340.742 373.03 342.754 377.889 346.336 381.472C349.918 385.054 354.776 387.067 359.841 387.067H482.501C487.567 387.067 492.425 385.054 496.006 381.472C499.588 377.889 501.6 373.03 501.6 367.964V356.572H340.742Z" fill="#396371"/>
<path d="M39.4531 76.3464L620.01 85.5677L682.22 9.9789L910.906 0H678.642L615.638 76.3464H39.4531Z" fill="#F3D673"/>
<g style="mix-blend-mode:multiply" opacity="0.21">
<path d="M55.4676 93.3496L54.8438 96.5815H119.018L81.1765 293.692L84.6716 295.398L123.461 93.3496H55.4676Z" fill="#D99627"/>
</g>
<path d="M714.584 184.797H108.234V204.246H714.584V184.797Z" fill="#F0C93E"/>
<path d="M112.672 182.805L38.0762 168.662L34.4546 187.77L109.05 201.914L112.672 182.805Z" fill="#F0C93E"/>
<path d="M810.03 447.5C844.547 447.5 872.523 419.518 872.515 385C872.507 350.482 844.518 322.5 810 322.5C775.482 322.5 747.507 350.482 747.515 385C747.523 419.518 775.512 447.5 810.03 447.5Z" fill="#2B2B2C"/>
<path d="M810.086 442.5C841.842 442.5 867.567 416.756 867.543 385C867.519 353.244 841.756 327.5 810 327.5C778.244 327.5 752.519 353.244 752.543 385C752.567 416.756 778.329 442.5 810.086 442.5Z" fill="#373738"/>
<path d="M809.741 435.456C837.262 435.456 859.573 413.162 859.573 385.662C859.573 358.161 837.262 335.867 809.741 335.867C782.22 335.867 759.91 358.161 759.91 385.662C759.91 413.162 782.22 435.456 809.741 435.456Z" fill="#1E1E1F"/>
<path d="M810 431.25C835.543 431.25 856.25 410.543 856.25 385C856.25 359.457 835.543 338.75 810 338.75C784.457 338.75 763.75 359.457 763.75 385C763.75 410.543 784.457 431.25 810 431.25Z" fill="white"/>
<path d="M810 428.75C834.163 428.75 853.75 409.162 853.75 385C853.75 360.838 834.163 341.25 810 341.25C785.838 341.25 766.25 360.838 766.25 385C766.25 409.162 785.838 428.75 810 428.75Z" fill="#8FB5D3"/>
<path d="M810.039 423.75C831.44 423.75 848.779 406.401 848.768 385C848.756 363.599 831.399 346.25 809.999 346.25C788.598 346.25 771.259 363.599 771.27 385C771.282 406.401 788.639 423.75 810.039 423.75Z" fill="white"/>
<path d="M810.012 410C823.819 410 835.009 398.807 835.006 385C835.003 371.193 823.807 360 810 360C796.193 360 785.003 371.193 785.006 385C785.009 398.807 796.205 410 810.012 410Z" fill="#8FB5D3"/>
<path d="M809.741 394.367C814.553 394.367 818.454 390.469 818.454 385.66C818.454 380.852 814.553 376.954 809.741 376.954C804.929 376.954 801.028 380.852 801.028 385.66C801.028 390.469 804.929 394.367 809.741 394.367Z" fill="white"/>
<path d="M811.987 356.396C810.592 356.153 809.166 356.153 807.771 356.396C807.127 356.512 806.463 356.4 805.894 356.079C805.324 355.758 804.885 355.248 804.652 354.637L804.632 354.584C804.487 354.196 804.431 353.78 804.466 353.366C804.501 352.953 804.627 352.553 804.835 352.194C805.044 351.835 805.329 351.527 805.67 351.291C806.012 351.056 806.402 350.899 806.811 350.831C808.841 350.479 810.917 350.479 812.947 350.831C813.356 350.899 813.746 351.056 814.087 351.291C814.429 351.527 814.714 351.835 814.923 352.194C815.131 352.553 815.257 352.953 815.292 353.366C815.327 353.78 815.27 354.196 815.125 354.584L815.105 354.637C814.872 355.248 814.433 355.758 813.864 356.079C813.294 356.4 812.63 356.512 811.987 356.396Z" fill="#252F3A"/>
<path d="M807.771 414.925C809.166 415.169 810.592 415.169 811.987 414.925C812.631 414.809 813.295 414.922 813.864 415.243C814.433 415.564 814.872 416.074 815.105 416.685L815.125 416.737C815.27 417.126 815.327 417.542 815.292 417.955C815.257 418.369 815.131 418.769 814.922 419.128C814.714 419.487 814.429 419.795 814.087 420.03C813.746 420.266 813.356 420.423 812.946 420.49C810.917 420.843 808.841 420.843 806.811 420.49C806.402 420.423 806.012 420.266 805.67 420.03C805.329 419.795 805.044 419.487 804.835 419.128C804.627 418.769 804.501 418.369 804.466 417.955C804.431 417.542 804.488 417.126 804.632 416.737L804.652 416.685C804.885 416.074 805.325 415.564 805.894 415.243C806.463 414.922 807.127 414.809 807.771 414.925Z" fill="#252F3A"/>
<path d="M838.899 387.757C839.142 386.37 839.142 384.95 838.899 383.562C838.784 382.922 838.896 382.262 839.216 381.695C839.536 381.129 840.044 380.692 840.652 380.46L840.705 380.44C841.092 380.296 841.507 380.239 841.918 380.274C842.33 380.309 842.729 380.435 843.087 380.642C843.444 380.849 843.751 381.133 843.986 381.473C844.22 381.813 844.377 382.2 844.444 382.608C844.795 384.627 844.795 386.692 844.444 388.712C844.377 389.119 844.221 389.507 843.986 389.847C843.751 390.187 843.444 390.47 843.087 390.678C842.729 390.885 842.33 391.011 841.918 391.045C841.507 391.08 841.092 391.024 840.705 390.88L840.652 390.86C840.044 390.628 839.536 390.191 839.216 389.624C838.896 389.058 838.784 388.398 838.899 387.757Z" fill="#252F3A"/>
<path d="M780.581 383.562C780.339 384.95 780.339 386.37 780.581 387.757C780.697 388.398 780.585 389.058 780.265 389.625C779.945 390.191 779.436 390.628 778.828 390.86L778.776 390.88C778.388 391.024 777.974 391.08 777.562 391.045C777.15 391.011 776.751 390.885 776.394 390.678C776.036 390.47 775.729 390.187 775.495 389.847C775.26 389.507 775.103 389.119 775.036 388.712C774.685 386.692 774.685 384.627 775.036 382.608C775.103 382.2 775.26 381.813 775.495 381.473C775.729 381.133 776.036 380.849 776.394 380.642C776.751 380.435 777.15 380.309 777.562 380.274C777.974 380.239 778.388 380.296 778.776 380.44L778.828 380.46C779.436 380.692 779.945 381.129 780.265 381.695C780.585 382.262 780.697 382.922 780.581 383.562Z" fill="#252F3A"/>
<path d="M833.953 402.033C834.857 400.951 835.566 399.722 836.05 398.398C836.27 397.786 836.697 397.27 837.257 396.939C837.818 396.608 838.477 396.483 839.119 396.586L839.175 396.595C839.582 396.663 839.97 396.821 840.309 397.057C840.648 397.293 840.931 397.601 841.137 397.959C841.343 398.317 841.468 398.716 841.501 399.128C841.534 399.539 841.476 399.953 841.331 400.34C840.625 402.264 839.593 404.053 838.279 405.627C838.017 405.947 837.688 406.205 837.315 406.382C836.941 406.559 836.534 406.652 836.12 406.653C835.707 406.654 835.299 406.564 834.924 406.388C834.55 406.213 834.219 405.957 833.956 405.639L833.92 405.595C833.509 405.091 833.288 404.459 833.294 403.808C833.299 403.158 833.533 402.53 833.953 402.033Z" fill="#252F3A"/>
<path d="M785.529 369.289C784.625 370.37 783.915 371.599 783.431 372.923C783.212 373.535 782.784 374.051 782.224 374.382C781.663 374.713 781.005 374.838 780.362 374.735L780.306 374.726C779.899 374.658 779.512 374.5 779.172 374.264C778.833 374.029 778.55 373.721 778.344 373.363C778.138 373.005 778.014 372.605 777.98 372.194C777.947 371.782 778.005 371.368 778.151 370.982C778.856 369.057 779.888 367.268 781.202 365.694C781.464 365.375 781.793 365.117 782.167 364.939C782.54 364.762 782.948 364.67 783.361 364.668C783.774 364.667 784.183 364.758 784.557 364.933C784.931 365.108 785.262 365.364 785.525 365.683L785.561 365.726C785.972 366.231 786.194 366.863 786.188 367.513C786.182 368.164 785.949 368.792 785.529 369.289Z" fill="#252F3A"/>
<path d="M822.529 411.931C823.852 411.446 825.082 410.735 826.162 409.83C826.659 409.409 827.287 409.175 827.938 409.168C828.589 409.161 829.222 409.382 829.727 409.792L829.771 409.827C830.089 410.09 830.346 410.42 830.522 410.794C830.698 411.167 830.789 411.575 830.789 411.988C830.788 412.401 830.697 412.809 830.52 413.182C830.343 413.556 830.085 413.885 829.766 414.147C828.193 415.463 826.404 416.497 824.479 417.205C824.093 417.351 823.679 417.41 823.267 417.377C822.855 417.344 822.455 417.221 822.096 417.016C821.738 416.81 821.429 416.528 821.193 416.189C820.956 415.851 820.798 415.464 820.729 415.057L820.719 415.001C820.615 414.359 820.74 413.701 821.07 413.14C821.4 412.579 821.916 412.152 822.529 411.931Z" fill="#252F3A"/>
<path d="M796.952 359.391C795.628 359.876 794.399 360.587 793.318 361.492C792.822 361.913 792.194 362.147 791.543 362.154C790.892 362.161 790.259 361.94 789.753 361.53L789.71 361.495C789.391 361.232 789.134 360.902 788.958 360.528C788.782 360.155 788.691 359.747 788.691 359.334C788.692 358.921 788.784 358.513 788.961 358.14C789.138 357.766 789.395 357.437 789.714 357.175C791.287 355.859 793.076 354.825 795.001 354.117C795.388 353.971 795.802 353.912 796.214 353.945C796.626 353.978 797.025 354.101 797.384 354.306C797.743 354.512 798.051 354.794 798.288 355.132C798.524 355.471 798.683 355.858 798.752 356.265L798.761 356.321C798.865 356.963 798.741 357.621 798.411 358.182C798.08 358.742 797.564 359.17 796.952 359.391Z" fill="#252F3A"/>
<path d="M785.561 402.105C784.654 401.019 783.941 399.784 783.455 398.455C783.234 397.84 782.805 397.322 782.242 396.989C781.68 396.657 781.018 396.532 780.372 396.635L780.317 396.644C779.907 396.713 779.518 396.871 779.177 397.108C778.837 397.345 778.553 397.654 778.346 398.014C778.139 398.373 778.014 398.774 777.98 399.187C777.947 399.601 778.005 400.017 778.152 400.405C778.86 402.338 779.897 404.135 781.216 405.716C781.479 406.037 781.81 406.295 782.185 406.473C782.56 406.652 782.969 406.744 783.384 406.746C783.799 406.747 784.21 406.656 784.585 406.48C784.961 406.304 785.293 406.047 785.558 405.727L785.594 405.684C786.007 405.177 786.23 404.542 786.224 403.889C786.218 403.235 785.983 402.604 785.561 402.105Z" fill="#252F3A"/>
<path d="M834.195 369.218C835.103 370.304 835.815 371.539 836.301 372.868C836.522 373.483 836.951 374.002 837.514 374.334C838.077 374.667 838.738 374.792 839.384 374.689L839.44 374.68C839.849 374.611 840.238 374.453 840.579 374.216C840.92 373.979 841.204 373.67 841.411 373.31C841.618 372.951 841.743 372.55 841.776 372.136C841.81 371.723 841.751 371.307 841.605 370.919C840.897 368.986 839.86 367.189 838.54 365.608C838.277 365.287 837.947 365.028 837.572 364.85C837.197 364.672 836.787 364.579 836.372 364.578C835.957 364.577 835.547 364.668 835.171 364.844C834.795 365.02 834.463 365.277 834.198 365.597L834.162 365.64C833.75 366.147 833.527 366.782 833.533 367.435C833.539 368.089 833.773 368.719 834.195 369.218Z" fill="#252F3A"/>
<path d="M797.034 412.046C795.705 411.558 794.47 410.844 793.384 409.935C792.886 409.513 792.255 409.278 791.601 409.271C790.947 409.264 790.312 409.485 789.804 409.897L789.76 409.933C789.44 410.197 789.182 410.528 789.006 410.903C788.829 411.279 788.737 411.688 788.738 412.103C788.738 412.518 788.831 412.927 789.008 413.302C789.186 413.677 789.444 414.008 789.765 414.271C791.345 415.592 793.141 416.631 795.075 417.342C795.463 417.489 795.879 417.548 796.293 417.515C796.706 417.482 797.108 417.358 797.468 417.152C797.828 416.946 798.138 416.662 798.376 416.322C798.613 415.982 798.772 415.594 798.842 415.185L798.851 415.129C798.955 414.484 798.831 413.823 798.499 413.26C798.167 412.697 797.649 412.267 797.034 412.046Z" fill="#252F3A"/>
<path d="M822.722 359.278C824.052 359.765 825.286 360.479 826.372 361.388C826.87 361.81 827.501 362.045 828.155 362.052C828.809 362.059 829.444 361.838 829.952 361.426L829.996 361.391C830.316 361.127 830.574 360.795 830.751 360.42C830.927 360.045 831.019 359.635 831.018 359.22C831.018 358.805 830.926 358.396 830.748 358.021C830.57 357.646 830.312 357.315 829.991 357.052C828.411 355.731 826.615 354.692 824.682 353.981C824.293 353.834 823.877 353.775 823.464 353.808C823.05 353.841 822.648 353.965 822.288 354.171C821.928 354.377 821.618 354.661 821.381 355.001C821.143 355.341 820.984 355.73 820.914 356.139L820.905 356.194C820.801 356.839 820.925 357.5 821.257 358.063C821.589 358.626 822.107 359.056 822.722 359.278Z" fill="#252F3A"/>
<path d="M809.74 371.373C809.231 371.373 808.733 371.222 808.31 370.939C807.886 370.657 807.557 370.255 807.362 369.785C807.167 369.315 807.116 368.798 807.215 368.299C807.314 367.8 807.559 367.342 807.919 366.982C808.279 366.622 808.738 366.377 809.237 366.278C809.736 366.179 810.254 366.23 810.724 366.424C811.194 366.619 811.597 366.948 811.879 367.371C812.162 367.794 812.313 368.291 812.313 368.8C812.313 369.482 812.041 370.136 811.559 370.618C811.076 371.1 810.422 371.371 809.74 371.373Z" fill="white"/>
<path d="M809.74 404.173C809.231 404.173 808.733 404.022 808.31 403.739C807.886 403.457 807.556 403.055 807.361 402.585C807.167 402.115 807.116 401.598 807.215 401.099C807.314 400.6 807.559 400.142 807.919 399.782C808.279 399.422 808.738 399.177 809.237 399.078C809.737 398.979 810.254 399.03 810.725 399.225C811.195 399.419 811.597 399.749 811.88 400.172C812.162 400.595 812.313 401.092 812.313 401.601C812.312 402.283 812.041 402.936 811.558 403.418C811.076 403.901 810.422 404.172 809.74 404.173Z" fill="white"/>
<path d="M826.154 388.233C825.644 388.233 825.147 388.082 824.723 387.8C824.3 387.517 823.97 387.116 823.775 386.646C823.58 386.176 823.529 385.659 823.628 385.16C823.728 384.661 823.973 384.202 824.333 383.842C824.693 383.483 825.151 383.238 825.65 383.138C826.15 383.039 826.667 383.09 827.138 383.284C827.608 383.479 828.01 383.809 828.293 384.232C828.576 384.655 828.727 385.152 828.727 385.66C828.726 386.342 828.455 386.996 827.972 387.478C827.49 387.96 826.836 388.232 826.154 388.233Z" fill="white"/>
<path d="M793.326 388.233C792.817 388.233 792.319 388.082 791.896 387.799C791.472 387.517 791.143 387.115 790.948 386.645C790.753 386.175 790.702 385.658 790.801 385.159C790.901 384.66 791.146 384.202 791.506 383.842C791.866 383.483 792.324 383.238 792.824 383.138C793.323 383.039 793.84 383.09 794.311 383.285C794.781 383.479 795.183 383.809 795.466 384.232C795.749 384.655 795.9 385.152 795.9 385.66C795.899 386.342 795.628 386.996 795.145 387.479C794.662 387.961 794.008 388.232 793.326 388.233Z" fill="white"/>
<path d="M821.508 376.013C820.913 376.013 820.335 375.807 819.875 375.429C819.414 375.051 819.099 374.526 818.983 373.942C818.866 373.359 818.956 372.753 819.237 372.228C819.518 371.703 819.972 371.291 820.522 371.063C821.072 370.835 821.685 370.805 822.255 370.978C822.825 371.15 823.317 371.515 823.648 372.01C823.979 372.505 824.128 373.099 824.07 373.692C824.012 374.284 823.75 374.838 823.329 375.259C823.09 375.499 822.807 375.689 822.494 375.818C822.182 375.947 821.847 376.014 821.508 376.013Z" fill="white"/>
<path d="M798.298 399.209C797.702 399.209 797.125 399.002 796.664 398.625C796.204 398.247 795.889 397.722 795.772 397.138C795.656 396.555 795.746 395.948 796.026 395.423C796.307 394.898 796.761 394.487 797.312 394.259C797.862 394.031 798.474 394.001 799.044 394.174C799.614 394.346 800.107 394.711 800.438 395.206C800.769 395.701 800.918 396.295 800.86 396.887C800.802 397.48 800.54 398.034 800.118 398.455C799.88 398.694 799.596 398.885 799.284 399.014C798.971 399.143 798.636 399.21 798.298 399.209Z" fill="white"/>
<path d="M821.183 399.533C820.588 399.533 820.01 399.327 819.55 398.949C819.089 398.572 818.774 398.046 818.658 397.462C818.542 396.879 818.632 396.273 818.912 395.748C819.193 395.223 819.648 394.811 820.198 394.583C820.748 394.356 821.361 394.326 821.931 394.499C822.501 394.671 822.993 395.036 823.324 395.531C823.655 396.026 823.804 396.621 823.745 397.213C823.687 397.805 823.424 398.359 823.003 398.78C822.764 399.019 822.481 399.209 822.169 399.338C821.856 399.468 821.522 399.534 821.183 399.533Z" fill="white"/>
<path d="M797.971 376.34C797.375 376.341 796.798 376.134 796.337 375.757C795.877 375.379 795.561 374.854 795.445 374.27C795.329 373.686 795.419 373.08 795.7 372.555C795.98 372.03 796.435 371.618 796.985 371.39C797.535 371.162 798.148 371.132 798.718 371.305C799.288 371.478 799.781 371.843 800.112 372.338C800.442 372.833 800.592 373.428 800.533 374.02C800.475 374.612 800.212 375.166 799.791 375.587C799.552 375.827 799.269 376.016 798.956 376.146C798.644 376.275 798.309 376.341 797.971 376.34Z" fill="white"/>
<path opacity="0.29" d="M862.328 377.886C861.856 377.879 861.401 377.707 861.042 377.401C860.683 377.094 860.443 376.671 860.363 376.206C858.157 364.401 851.888 353.739 842.643 346.067C833.398 338.394 821.758 334.194 809.74 334.194C797.722 334.194 786.083 338.394 776.838 346.067C767.592 353.739 761.324 364.401 759.118 376.206C759.038 376.671 758.797 377.094 758.438 377.4C758.08 377.707 757.625 377.879 757.152 377.886H757.055C756.763 377.885 756.474 377.821 756.209 377.696C755.944 377.572 755.71 377.391 755.523 377.166C755.336 376.942 755.2 376.679 755.126 376.396C755.052 376.113 755.041 375.817 755.094 375.53C757.463 362.776 764.225 351.254 774.206 342.961C784.187 334.668 796.759 330.127 809.74 330.127C822.721 330.127 835.292 334.668 845.274 342.961C855.255 351.254 862.017 362.776 864.386 375.53C864.439 375.817 864.428 376.113 864.354 376.396C864.28 376.679 864.145 376.942 863.957 377.167C863.77 377.392 863.536 377.572 863.271 377.697C863.006 377.821 862.717 377.885 862.425 377.886H862.328Z" fill="white"/>
<path opacity="0.11" d="M809.739 424.386C820.017 424.386 829.874 420.306 837.141 413.044C844.409 405.782 848.492 395.932 848.492 385.662H770.986C770.986 395.932 775.069 405.782 782.337 413.044C789.604 420.306 799.461 424.386 809.739 424.386Z" fill="#8FB5D3"/>
</g>
<defs>
<linearGradient id="paint0_linear_1276_5602" x1="942.046" y1="154.899" x2="992.768" y2="154.899" gradientUnits="userSpaceOnUse">
<stop stop-color="white"/>
<stop offset="1"/>
</linearGradient>
<linearGradient id="paint1_linear_1276_5602" x1="882.245" y1="202.013" x2="882.245" y2="101.143" gradientUnits="userSpaceOnUse">
<stop stop-color="white"/>
<stop offset="1"/>
</linearGradient>
<linearGradient id="paint2_linear_1276_5602" x1="942.893" y1="202.01" x2="942.893" y2="148.196" gradientUnits="userSpaceOnUse">
<stop stop-color="white"/>
<stop offset="1"/>
</linearGradient>
<clipPath id="clip0_1276_5602">
<rect width="1000" height="450" fill="white"/>
</clipPath>
<clipPath id="clip1_1276_5602">
<rect width="120" height="120" fill="white" transform="translate(67.5 330)"/>
</clipPath>
<clipPath id="clip2_1276_5602">
<rect width="120" height="120" fill="white" transform="translate(192.5 330)"/>
</clipPath>
<clipPath id="clip3_1276_5602">
<rect width="120" height="120" fill="white" transform="translate(530 330)"/>
</clipPath>
</defs>
</svg>
