<svg width="1000" height="150" viewBox="0 0 1000 150" fill="none" xmlns="http://www.w3.org/2000/svg">
<g clip-path="url(#clip0_1276_6422)">
<path fill-rule="evenodd" clip-rule="evenodd" d="M971.576 150H28.4244C12.7345 150 0 135.877 0 118.455V31.5446C0 14.1235 12.7345 0 28.4244 0H971.576C987.266 0 1000 14.1235 1000 31.5446V118.455C1000 135.877 987.266 150 971.576 150Z" fill="#BCD819"/>
<path fill-rule="evenodd" clip-rule="evenodd" d="M937.5 75.0012C937.5 88.8092 926.311 100 912.512 100C898.689 100 887.5 88.8092 887.5 75.0012C887.5 61.1932 898.689 50 912.512 50C926.311 50 937.5 61.1932 937.5 75.0012Z" fill="white"/>
<g clip-path="url(#clip1_1276_6422)">
<path fill-rule="evenodd" clip-rule="evenodd" d="M52 150H48V83.1904C48 81.4291 48.897 80 50.0001 80C51.1032 80 52 81.4291 52 83.1904V150Z" fill="#4D4D4D"/>
<path fill-rule="evenodd" clip-rule="evenodd" d="M61 150H59V122.826C59 121.266 59.4485 120 60 120C60.5567 120 61 121.266 61 122.826V150Z" fill="#4D4D4D"/>
<path fill-rule="evenodd" clip-rule="evenodd" d="M71 150H69V122.826C69 121.266 69.4485 120 70 120C70.5567 120 71 121.266 71 122.826V150Z" fill="#4D4D4D"/>
<path fill-rule="evenodd" clip-rule="evenodd" d="M81 150H79V122.826C79 121.266 79.4485 120 80 120C80.5567 120 81 121.266 81 122.826V150Z" fill="#4D4D4D"/>
<path fill-rule="evenodd" clip-rule="evenodd" d="M91 150H89V122.826C89 121.266 89.4485 120 90 120C90.5567 120 91 121.266 91 122.826V150Z" fill="#4D4D4D"/>
<path fill-rule="evenodd" clip-rule="evenodd" d="M121 150H119V122.826C119 121.266 119.448 120 120 120C120.557 120 121 121.266 121 122.826V150Z" fill="#4D4D4D"/>
<path fill-rule="evenodd" clip-rule="evenodd" d="M131 150H129V122.826C129 121.266 129.448 120 130 120C130.557 120 131 121.266 131 122.826V150Z" fill="#4D4D4D"/>
<path fill-rule="evenodd" clip-rule="evenodd" d="M141 150H139V122.826C139 121.266 139.448 120 140 120C140.557 120 141 121.266 141 122.826V150Z" fill="#4D4D4D"/>
<path fill-rule="evenodd" clip-rule="evenodd" d="M111 150H109V122.826C109 121.266 109.448 120 110 120C110.557 120 111 121.266 111 122.826V150Z" fill="#4D4D4D"/>
<path fill-rule="evenodd" clip-rule="evenodd" d="M101 150H99V104.71C99 102.11 99.4485 100 100 100C100.557 100 101 102.11 101 104.71V150Z" fill="#4D4D4D"/>
</g>
<g clip-path="url(#clip2_1276_6422)">
<path fill-rule="evenodd" clip-rule="evenodd" d="M352 150H348V83.1904C348 81.4291 348.897 80 350 80C351.103 80 352 81.4291 352 83.1904V150Z" fill="#4D4D4D"/>
<path fill-rule="evenodd" clip-rule="evenodd" d="M361 150H359V122.826C359 121.266 359.448 120 360 120C360.557 120 361 121.266 361 122.826V150Z" fill="#4D4D4D"/>
<path fill-rule="evenodd" clip-rule="evenodd" d="M371 150H369V122.826C369 121.266 369.448 120 370 120C370.557 120 371 121.266 371 122.826V150Z" fill="#4D4D4D"/>
<path fill-rule="evenodd" clip-rule="evenodd" d="M381 150H379V122.826C379 121.266 379.448 120 380 120C380.557 120 381 121.266 381 122.826V150Z" fill="#4D4D4D"/>
<path fill-rule="evenodd" clip-rule="evenodd" d="M391 150H389V122.826C389 121.266 389.448 120 390 120C390.557 120 391 121.266 391 122.826V150Z" fill="#4D4D4D"/>
<path fill-rule="evenodd" clip-rule="evenodd" d="M421 150H419V122.826C419 121.266 419.448 120 420 120C420.557 120 421 121.266 421 122.826V150Z" fill="#4D4D4D"/>
<path fill-rule="evenodd" clip-rule="evenodd" d="M431 150H429V122.826C429 121.266 429.448 120 430 120C430.557 120 431 121.266 431 122.826V150Z" fill="#4D4D4D"/>
<path fill-rule="evenodd" clip-rule="evenodd" d="M441 150H439V122.826C439 121.266 439.448 120 440 120C440.557 120 441 121.266 441 122.826V150Z" fill="#4D4D4D"/>
<path fill-rule="evenodd" clip-rule="evenodd" d="M411 150H409V122.826C409 121.266 409.448 120 410 120C410.557 120 411 121.266 411 122.826V150Z" fill="#4D4D4D"/>
<path fill-rule="evenodd" clip-rule="evenodd" d="M401 150H399V104.71C399 102.11 399.448 100 400 100C400.557 100 401 102.11 401 104.71V150Z" fill="#4D4D4D"/>
</g>
<g clip-path="url(#clip3_1276_6422)">
<path fill-rule="evenodd" clip-rule="evenodd" d="M652 150H648V83.1904C648 81.4291 648.897 80 650 80C651.103 80 652 81.4291 652 83.1904V150Z" fill="#4D4D4D"/>
<path fill-rule="evenodd" clip-rule="evenodd" d="M661 150H659V122.826C659 121.266 659.448 120 660 120C660.557 120 661 121.266 661 122.826V150Z" fill="#4D4D4D"/>
<path fill-rule="evenodd" clip-rule="evenodd" d="M671 150H669V122.826C669 121.266 669.448 120 670 120C670.557 120 671 121.266 671 122.826V150Z" fill="#4D4D4D"/>
<path fill-rule="evenodd" clip-rule="evenodd" d="M681 150H679V122.826C679 121.266 679.448 120 680 120C680.557 120 681 121.266 681 122.826V150Z" fill="#4D4D4D"/>
<path fill-rule="evenodd" clip-rule="evenodd" d="M691 150H689V122.826C689 121.266 689.448 120 690 120C690.557 120 691 121.266 691 122.826V150Z" fill="#4D4D4D"/>
<path fill-rule="evenodd" clip-rule="evenodd" d="M721 150H719V122.826C719 121.266 719.448 120 720 120C720.557 120 721 121.266 721 122.826V150Z" fill="#4D4D4D"/>
<path fill-rule="evenodd" clip-rule="evenodd" d="M731 150H729V122.826C729 121.266 729.448 120 730 120C730.557 120 731 121.266 731 122.826V150Z" fill="#4D4D4D"/>
<path fill-rule="evenodd" clip-rule="evenodd" d="M741 150H739V122.826C739 121.266 739.448 120 740 120C740.557 120 741 121.266 741 122.826V150Z" fill="#4D4D4D"/>
<path fill-rule="evenodd" clip-rule="evenodd" d="M711 150H709V122.826C709 121.266 709.448 120 710 120C710.557 120 711 121.266 711 122.826V150Z" fill="#4D4D4D"/>
<path fill-rule="evenodd" clip-rule="evenodd" d="M701 150H699V104.71C699 102.11 699.448 100 700 100C700.557 100 701 102.11 701 104.71V150Z" fill="#4D4D4D"/>
</g>
<g clip-path="url(#clip4_1276_6422)">
<path fill-rule="evenodd" clip-rule="evenodd" d="M152 149.5H148V82.6904C148 80.9291 148.897 79.5 150 79.5C151.103 79.5 152 80.9291 152 82.6904V149.5Z" fill="#4D4D4D"/>
<path fill-rule="evenodd" clip-rule="evenodd" d="M161 149.5H159V122.326C159 120.766 159.448 119.5 160 119.5C160.557 119.5 161 120.766 161 122.326V149.5Z" fill="#4D4D4D"/>
<path fill-rule="evenodd" clip-rule="evenodd" d="M171 149.5H169V122.326C169 120.766 169.448 119.5 170 119.5C170.557 119.5 171 120.766 171 122.326V149.5Z" fill="#4D4D4D"/>
<path fill-rule="evenodd" clip-rule="evenodd" d="M181 149.5H179V122.326C179 120.766 179.448 119.5 180 119.5C180.557 119.5 181 120.766 181 122.326V149.5Z" fill="#4D4D4D"/>
<path fill-rule="evenodd" clip-rule="evenodd" d="M191 149.5H189V122.326C189 120.766 189.448 119.5 190 119.5C190.557 119.5 191 120.766 191 122.326V149.5Z" fill="#4D4D4D"/>
<path fill-rule="evenodd" clip-rule="evenodd" d="M221 149.5H219V122.326C219 120.766 219.448 119.5 220 119.5C220.557 119.5 221 120.766 221 122.326V149.5Z" fill="#4D4D4D"/>
<path fill-rule="evenodd" clip-rule="evenodd" d="M231 149.5H229V122.326C229 120.766 229.448 119.5 230 119.5C230.557 119.5 231 120.766 231 122.326V149.5Z" fill="#4D4D4D"/>
<path fill-rule="evenodd" clip-rule="evenodd" d="M241 149.5H239V122.326C239 120.766 239.448 119.5 240 119.5C240.557 119.5 241 120.766 241 122.326V149.5Z" fill="#4D4D4D"/>
<path fill-rule="evenodd" clip-rule="evenodd" d="M211 149.5H209V122.326C209 120.766 209.448 119.5 210 119.5C210.557 119.5 211 120.766 211 122.326V149.5Z" fill="#4D4D4D"/>
<path fill-rule="evenodd" clip-rule="evenodd" d="M201 149.5H199V104.21C199 101.61 199.448 99.5 200 99.5C200.557 99.5 201 101.61 201 104.21V149.5Z" fill="#4D4D4D"/>
</g>
<g clip-path="url(#clip5_1276_6422)">
<path fill-rule="evenodd" clip-rule="evenodd" d="M452 149.5H448V82.6904C448 80.9291 448.897 79.5 450 79.5C451.103 79.5 452 80.9291 452 82.6904V149.5Z" fill="#4D4D4D"/>
<path fill-rule="evenodd" clip-rule="evenodd" d="M461 149.5H459V122.326C459 120.766 459.448 119.5 460 119.5C460.557 119.5 461 120.766 461 122.326V149.5Z" fill="#4D4D4D"/>
<path fill-rule="evenodd" clip-rule="evenodd" d="M471 149.5H469V122.326C469 120.766 469.448 119.5 470 119.5C470.557 119.5 471 120.766 471 122.326V149.5Z" fill="#4D4D4D"/>
<path fill-rule="evenodd" clip-rule="evenodd" d="M481 149.5H479V122.326C479 120.766 479.448 119.5 480 119.5C480.557 119.5 481 120.766 481 122.326V149.5Z" fill="#4D4D4D"/>
<path fill-rule="evenodd" clip-rule="evenodd" d="M491 149.5H489V122.326C489 120.766 489.448 119.5 490 119.5C490.557 119.5 491 120.766 491 122.326V149.5Z" fill="#4D4D4D"/>
<path fill-rule="evenodd" clip-rule="evenodd" d="M521 149.5H519V122.326C519 120.766 519.448 119.5 520 119.5C520.557 119.5 521 120.766 521 122.326V149.5Z" fill="#4D4D4D"/>
<path fill-rule="evenodd" clip-rule="evenodd" d="M531 149.5H529V122.326C529 120.766 529.448 119.5 530 119.5C530.557 119.5 531 120.766 531 122.326V149.5Z" fill="#4D4D4D"/>
<path fill-rule="evenodd" clip-rule="evenodd" d="M541 149.5H539V122.326C539 120.766 539.448 119.5 540 119.5C540.557 119.5 541 120.766 541 122.326V149.5Z" fill="#4D4D4D"/>
<path fill-rule="evenodd" clip-rule="evenodd" d="M511 149.5H509V122.326C509 120.766 509.448 119.5 510 119.5C510.557 119.5 511 120.766 511 122.326V149.5Z" fill="#4D4D4D"/>
<path fill-rule="evenodd" clip-rule="evenodd" d="M501 149.5H499V104.21C499 101.61 499.448 99.5 500 99.5C500.557 99.5 501 101.61 501 104.21V149.5Z" fill="#4D4D4D"/>
</g>
<g clip-path="url(#clip6_1276_6422)">
<path fill-rule="evenodd" clip-rule="evenodd" d="M752 149.5H748V82.6904C748 80.9291 748.897 79.5 750 79.5C751.103 79.5 752 80.9291 752 82.6904V149.5Z" fill="#4D4D4D"/>
<path fill-rule="evenodd" clip-rule="evenodd" d="M761 149.5H759V122.326C759 120.766 759.448 119.5 760 119.5C760.557 119.5 761 120.766 761 122.326V149.5Z" fill="#4D4D4D"/>
<path fill-rule="evenodd" clip-rule="evenodd" d="M771 149.5H769V122.326C769 120.766 769.448 119.5 770 119.5C770.557 119.5 771 120.766 771 122.326V149.5Z" fill="#4D4D4D"/>
<path fill-rule="evenodd" clip-rule="evenodd" d="M781 149.5H779V122.326C779 120.766 779.448 119.5 780 119.5C780.557 119.5 781 120.766 781 122.326V149.5Z" fill="#4D4D4D"/>
<path fill-rule="evenodd" clip-rule="evenodd" d="M791 149.5H789V122.326C789 120.766 789.448 119.5 790 119.5C790.557 119.5 791 120.766 791 122.326V149.5Z" fill="#4D4D4D"/>
<path fill-rule="evenodd" clip-rule="evenodd" d="M821 149.5H819V122.326C819 120.766 819.448 119.5 820 119.5C820.557 119.5 821 120.766 821 122.326V149.5Z" fill="#4D4D4D"/>
<path fill-rule="evenodd" clip-rule="evenodd" d="M831 149.5H829V122.326C829 120.766 829.448 119.5 830 119.5C830.557 119.5 831 120.766 831 122.326V149.5Z" fill="#4D4D4D"/>
<path fill-rule="evenodd" clip-rule="evenodd" d="M841 149.5H839V122.326C839 120.766 839.448 119.5 840 119.5C840.557 119.5 841 120.766 841 122.326V149.5Z" fill="#4D4D4D"/>
<path fill-rule="evenodd" clip-rule="evenodd" d="M811 149.5H809V122.326C809 120.766 809.448 119.5 810 119.5C810.557 119.5 811 120.766 811 122.326V149.5Z" fill="#4D4D4D"/>
<path fill-rule="evenodd" clip-rule="evenodd" d="M801 149.5H799V104.21C799 101.61 799.448 99.5 800 99.5C800.557 99.5 801 101.61 801 104.21V149.5Z" fill="#4D4D4D"/>
</g>
<g clip-path="url(#clip7_1276_6422)">
<path fill-rule="evenodd" clip-rule="evenodd" d="M152 150H148V83.1904C148 81.4291 148.897 80 150 80C151.103 80 152 81.4291 152 83.1904V150Z" fill="#4D4D4D"/>
<path fill-rule="evenodd" clip-rule="evenodd" d="M161 150H159V122.826C159 121.266 159.448 120 160 120C160.557 120 161 121.266 161 122.826V150Z" fill="#4D4D4D"/>
<path fill-rule="evenodd" clip-rule="evenodd" d="M171 150H169V122.826C169 121.266 169.448 120 170 120C170.557 120 171 121.266 171 122.826V150Z" fill="#4D4D4D"/>
<path fill-rule="evenodd" clip-rule="evenodd" d="M181 150H179V122.826C179 121.266 179.448 120 180 120C180.557 120 181 121.266 181 122.826V150Z" fill="#4D4D4D"/>
<path fill-rule="evenodd" clip-rule="evenodd" d="M191 150H189V122.826C189 121.266 189.448 120 190 120C190.557 120 191 121.266 191 122.826V150Z" fill="#4D4D4D"/>
<path fill-rule="evenodd" clip-rule="evenodd" d="M221 150H219V122.826C219 121.266 219.448 120 220 120C220.557 120 221 121.266 221 122.826V150Z" fill="#4D4D4D"/>
<path fill-rule="evenodd" clip-rule="evenodd" d="M231 150H229V122.826C229 121.266 229.448 120 230 120C230.557 120 231 121.266 231 122.826V150Z" fill="#4D4D4D"/>
<path fill-rule="evenodd" clip-rule="evenodd" d="M241 150H239V122.826C239 121.266 239.448 120 240 120C240.557 120 241 121.266 241 122.826V150Z" fill="#4D4D4D"/>
<path fill-rule="evenodd" clip-rule="evenodd" d="M211 150H209V122.826C209 121.266 209.448 120 210 120C210.557 120 211 121.266 211 122.826V150Z" fill="#4D4D4D"/>
<path fill-rule="evenodd" clip-rule="evenodd" d="M201 150H199V104.71C199 102.11 199.448 100 200 100C200.557 100 201 102.11 201 104.71V150Z" fill="#4D4D4D"/>
</g>
<g clip-path="url(#clip8_1276_6422)">
<path fill-rule="evenodd" clip-rule="evenodd" d="M252 150H248V83.1904C248 81.4291 248.897 80 250 80C251.103 80 252 81.4291 252 83.1904V150Z" fill="#4D4D4D"/>
<path fill-rule="evenodd" clip-rule="evenodd" d="M261 150H259V122.826C259 121.266 259.448 120 260 120C260.557 120 261 121.266 261 122.826V150Z" fill="#4D4D4D"/>
<path fill-rule="evenodd" clip-rule="evenodd" d="M271 150H269V122.826C269 121.266 269.448 120 270 120C270.557 120 271 121.266 271 122.826V150Z" fill="#4D4D4D"/>
<path fill-rule="evenodd" clip-rule="evenodd" d="M281 150H279V122.826C279 121.266 279.448 120 280 120C280.557 120 281 121.266 281 122.826V150Z" fill="#4D4D4D"/>
<path fill-rule="evenodd" clip-rule="evenodd" d="M291 150H289V122.826C289 121.266 289.448 120 290 120C290.557 120 291 121.266 291 122.826V150Z" fill="#4D4D4D"/>
<path fill-rule="evenodd" clip-rule="evenodd" d="M321 150H319V122.826C319 121.266 319.448 120 320 120C320.557 120 321 121.266 321 122.826V150Z" fill="#4D4D4D"/>
<path fill-rule="evenodd" clip-rule="evenodd" d="M331 150H329V122.826C329 121.266 329.448 120 330 120C330.557 120 331 121.266 331 122.826V150Z" fill="#4D4D4D"/>
<path fill-rule="evenodd" clip-rule="evenodd" d="M341 150H339V122.826C339 121.266 339.448 120 340 120C340.557 120 341 121.266 341 122.826V150Z" fill="#4D4D4D"/>
<path fill-rule="evenodd" clip-rule="evenodd" d="M311 150H309V122.826C309 121.266 309.448 120 310 120C310.557 120 311 121.266 311 122.826V150Z" fill="#4D4D4D"/>
<path fill-rule="evenodd" clip-rule="evenodd" d="M301 150H299V104.71C299 102.11 299.448 100 300 100C300.557 100 301 102.11 301 104.71V150Z" fill="#4D4D4D"/>
</g>
<g clip-path="url(#clip9_1276_6422)">
<path fill-rule="evenodd" clip-rule="evenodd" d="M552 149.5H548V82.6904C548 80.9291 548.897 79.5 550 79.5C551.103 79.5 552 80.9291 552 82.6904V149.5Z" fill="#4D4D4D"/>
<path fill-rule="evenodd" clip-rule="evenodd" d="M561 149.5H559V122.326C559 120.766 559.448 119.5 560 119.5C560.557 119.5 561 120.766 561 122.326V149.5Z" fill="#4D4D4D"/>
<path fill-rule="evenodd" clip-rule="evenodd" d="M571 149.5H569V122.326C569 120.766 569.448 119.5 570 119.5C570.557 119.5 571 120.766 571 122.326V149.5Z" fill="#4D4D4D"/>
<path fill-rule="evenodd" clip-rule="evenodd" d="M581 149.5H579V122.326C579 120.766 579.448 119.5 580 119.5C580.557 119.5 581 120.766 581 122.326V149.5Z" fill="#4D4D4D"/>
<path fill-rule="evenodd" clip-rule="evenodd" d="M591 149.5H589V122.326C589 120.766 589.448 119.5 590 119.5C590.557 119.5 591 120.766 591 122.326V149.5Z" fill="#4D4D4D"/>
<path fill-rule="evenodd" clip-rule="evenodd" d="M621 149.5H619V122.326C619 120.766 619.448 119.5 620 119.5C620.557 119.5 621 120.766 621 122.326V149.5Z" fill="#4D4D4D"/>
<path fill-rule="evenodd" clip-rule="evenodd" d="M631 149.5H629V122.326C629 120.766 629.448 119.5 630 119.5C630.557 119.5 631 120.766 631 122.326V149.5Z" fill="#4D4D4D"/>
<path fill-rule="evenodd" clip-rule="evenodd" d="M641 149.5H639V122.326C639 120.766 639.448 119.5 640 119.5C640.557 119.5 641 120.766 641 122.326V149.5Z" fill="#4D4D4D"/>
<path fill-rule="evenodd" clip-rule="evenodd" d="M611 149.5H609V122.326C609 120.766 609.448 119.5 610 119.5C610.557 119.5 611 120.766 611 122.326V149.5Z" fill="#4D4D4D"/>
<path fill-rule="evenodd" clip-rule="evenodd" d="M601 149.5H599V104.21C599 101.61 599.448 99.5 600 99.5C600.557 99.5 601 101.61 601 104.21V149.5Z" fill="#4D4D4D"/>
</g>
<g clip-path="url(#clip10_1276_6422)">
<path fill-rule="evenodd" clip-rule="evenodd" d="M852 149.5H848V82.6904C848 80.9291 848.897 79.5 850 79.5C851.103 79.5 852 80.9291 852 82.6904V149.5Z" fill="#4D4D4D"/>
<path fill-rule="evenodd" clip-rule="evenodd" d="M861 149.5H859V122.326C859 120.766 859.448 119.5 860 119.5C860.557 119.5 861 120.766 861 122.326V149.5Z" fill="#4D4D4D"/>
<path fill-rule="evenodd" clip-rule="evenodd" d="M871 149.5H869V122.326C869 120.766 869.448 119.5 870 119.5C870.557 119.5 871 120.766 871 122.326V149.5Z" fill="#4D4D4D"/>
<path fill-rule="evenodd" clip-rule="evenodd" d="M881 149.5H879V122.326C879 120.766 879.448 119.5 880 119.5C880.557 119.5 881 120.766 881 122.326V149.5Z" fill="#4D4D4D"/>
<path fill-rule="evenodd" clip-rule="evenodd" d="M891 149.5H889V122.326C889 120.766 889.448 119.5 890 119.5C890.557 119.5 891 120.766 891 122.326V149.5Z" fill="#4D4D4D"/>
<path fill-rule="evenodd" clip-rule="evenodd" d="M921 149.5H919V122.326C919 120.766 919.448 119.5 920 119.5C920.557 119.5 921 120.766 921 122.326V149.5Z" fill="#4D4D4D"/>
<path fill-rule="evenodd" clip-rule="evenodd" d="M931 149.5H929V122.326C929 120.766 929.448 119.5 930 119.5C930.557 119.5 931 120.766 931 122.326V149.5Z" fill="#4D4D4D"/>
<path fill-rule="evenodd" clip-rule="evenodd" d="M941 149.5H939V122.326C939 120.766 939.448 119.5 940 119.5C940.557 119.5 941 120.766 941 122.326V149.5Z" fill="#4D4D4D"/>
<path fill-rule="evenodd" clip-rule="evenodd" d="M911 149.5H909V122.326C909 120.766 909.448 119.5 910 119.5C910.557 119.5 911 120.766 911 122.326V149.5Z" fill="#4D4D4D"/>
<path fill-rule="evenodd" clip-rule="evenodd" d="M901 149.5H899V104.21C899 101.61 899.448 99.5 900 99.5C900.557 99.5 901 101.61 901 104.21V149.5Z" fill="#4D4D4D"/>
</g>
</g>
<defs>
<clipPath id="clip0_1276_6422">
<rect width="1000" height="150" fill="white"/>
</clipPath>
<clipPath id="clip1_1276_6422">
<rect width="93" height="70" fill="white" transform="translate(48 80)"/>
</clipPath>
<clipPath id="clip2_1276_6422">
<rect width="93" height="70" fill="white" transform="translate(348 80)"/>
</clipPath>
<clipPath id="clip3_1276_6422">
<rect width="93" height="70" fill="white" transform="translate(648 80)"/>
</clipPath>
<clipPath id="clip4_1276_6422">
<rect width="93" height="70" fill="white" transform="translate(148 79.5)"/>
</clipPath>
<clipPath id="clip5_1276_6422">
<rect width="93" height="70" fill="white" transform="translate(448 79.5)"/>
</clipPath>
<clipPath id="clip6_1276_6422">
<rect width="93" height="70" fill="white" transform="translate(748 79.5)"/>
</clipPath>
<clipPath id="clip7_1276_6422">
<rect width="93" height="70" fill="white" transform="translate(148 80)"/>
</clipPath>
<clipPath id="clip8_1276_6422">
<rect width="93" height="70" fill="white" transform="translate(248 80)"/>
</clipPath>
<clipPath id="clip9_1276_6422">
<rect width="93" height="70" fill="white" transform="translate(548 79.5)"/>
</clipPath>
<clipPath id="clip10_1276_6422">
<rect width="93" height="70" fill="white" transform="translate(848 79.5)"/>
</clipPath>
</defs>
</svg>
