<svg width="100" height="700" viewBox="0 0 100 700" fill="none" xmlns="http://www.w3.org/2000/svg">
<path d="M29.6001 152.479H70.3106L95.5539 47.6914H4.40259L29.6001 152.479Z" fill="#FFDC8F"/>
<path d="M95.1852 44.6462H90.9398C88.4752 32.7804 72.4756 23.5873 52.5289 22.8431V15.9233C54.1722 15.2613 55.5514 13.9822 56.4248 12.3103C57.2983 10.6383 57.6099 8.6805 57.3051 6.78041C57.0004 4.88032 56.0985 3.15939 54.758 1.91949C53.4175 0.679595 51.7243 0 49.9748 0C48.2253 0 46.5317 0.679595 45.1912 1.91949C43.8507 3.15939 42.9489 4.88032 42.6441 6.78041C42.3393 8.6805 42.651 10.6383 43.5244 12.3103C44.3978 13.9822 45.7771 15.2613 47.4203 15.9233V22.8431C27.4736 23.5873 11.5199 32.7804 9.00938 44.6462H4.7962C3.52417 44.6462 2.30432 45.2036 1.40486 46.1957C0.505396 47.1878 0 48.5332 0 49.9362C0 51.3392 0.505396 52.6846 1.40486 53.6767C2.30432 54.6688 3.52417 55.2262 4.7962 55.2262H6.22803L28.3273 147.126H25.8169C25.2206 147.083 24.6224 147.175 24.0598 147.398C23.4972 147.62 22.9821 147.968 22.546 148.419C22.11 148.869 21.7622 149.414 21.5246 150.019C21.287 150.624 21.1643 151.276 21.1643 151.935C21.1643 152.594 21.287 153.246 21.5246 153.851C21.7622 154.456 22.11 155 22.546 155.451C22.9821 155.902 23.4972 156.249 24.0598 156.472C24.6224 156.694 25.2206 156.787 25.8169 156.744H46.5666V168.387C42.6166 169.263 39.0635 171.619 36.5106 175.057C33.9577 178.495 32.5625 182.802 32.5625 187.246C32.5625 191.69 33.9577 195.997 36.5106 199.435C39.0635 202.873 42.6166 205.23 46.5666 206.105V219.308H42.9365L37.4287 491.007C34.0648 492.062 31.064 494.202 28.8115 497.153C26.5591 500.103 25.1582 503.729 24.7889 507.565C25.1085 511.281 26.4146 514.811 28.5437 517.713C30.6727 520.615 33.5299 522.761 36.7585 523.881L36.3548 543.158H22.191C21.5368 543.136 20.8852 543.259 20.2749 543.52C19.6646 543.78 19.1081 544.174 18.6382 544.676C18.1684 545.179 17.7948 545.78 17.5397 546.445C17.2846 547.11 17.1532 547.825 17.1532 548.547C17.1532 549.268 17.2846 549.983 17.5397 550.648C17.7948 551.312 18.1684 551.914 18.6382 552.416C19.1081 552.919 19.6646 553.312 20.2749 553.573C20.8852 553.834 21.5368 553.957 22.191 553.935H26.4455V576.826H12.9151C11.1915 576.826 9.53871 577.582 8.31991 578.926C7.10111 580.27 6.41642 582.094 6.41642 583.995C6.41642 585.896 7.10111 587.719 8.31991 589.063C9.53871 590.407 11.1915 591.162 12.9151 591.162H18.0282V700H81.9854V591.162H87.0936C87.9471 591.162 88.792 590.977 89.5805 590.617C90.369 590.257 91.0857 589.729 91.6892 589.063C92.2927 588.397 92.7717 587.607 93.0983 586.737C93.4249 585.868 93.5927 584.936 93.5927 583.995C93.5927 583.053 93.4249 582.121 93.0983 581.251C92.7717 580.382 92.2927 579.592 91.6892 578.926C91.0857 578.26 90.369 577.732 89.5805 577.372C88.792 577.012 87.9471 576.826 87.0936 576.826H73.4988V553.935H77.8045C79.0743 553.892 80.2788 553.306 81.1632 552.3C82.0477 551.294 82.5422 549.948 82.5422 548.547C82.5422 547.145 82.0477 545.799 81.1632 544.793C80.2788 543.787 79.0743 543.201 77.8045 543.158H63.6403L63.2366 523.881C66.4571 522.752 69.3055 520.603 71.4273 517.702C73.549 514.801 74.8506 511.276 75.1698 507.565C74.8105 503.733 73.4185 500.108 71.1738 497.157C68.929 494.205 65.9342 492.064 62.5755 491.007L57.0176 219.308H53.3871V206.105C57.3372 205.23 60.8906 202.873 63.4435 199.435C65.9964 195.997 67.3913 191.69 67.3913 187.246C67.3913 182.802 65.9964 178.495 63.4435 175.057C60.8906 171.619 57.3372 169.263 53.3871 168.387V156.744H74.1831C75.2906 156.665 76.3291 156.123 77.088 155.23C77.8469 154.337 78.2695 153.159 78.2695 151.935C78.2695 150.711 77.8469 149.532 77.088 148.639C76.3291 147.746 75.2906 147.205 74.1831 147.126H71.6262L93.7257 55.2262H95.2034C96.4755 55.2262 97.6957 54.6688 98.5951 53.6767C99.4946 52.6846 100 51.3392 100 49.9362C100 48.5332 99.4946 47.1878 98.5951 46.1957C97.6957 45.2036 96.4755 44.6462 95.2034 44.6462H95.1852ZM65.8709 146.088H34.092L12.2221 55.2262H87.6994L65.8709 146.088Z" fill="#777777"/>
</svg>
