<svg width="1000" height="500" viewBox="0 0 1000 500" fill="none" xmlns="http://www.w3.org/2000/svg">
<g clip-path="url(#clip0_1276_6476)">
<path fill-rule="evenodd" clip-rule="evenodd" d="M0 462.988L0 37.0118C0 16.5702 18.1706 0 40.5866 0L959.413 0C981.829 0 1000 16.5702 1000 37.0118V462.988C1000 483.43 981.829 500 959.413 500L40.5866 500C18.1706 500 0 483.43 0 462.988Z" fill="#B7BBBA"/>
<path fill-rule="evenodd" clip-rule="evenodd" d="M25 438.98L25 61.0202C25 41.1262 43.0271 25 65.2661 25L500 25H934.734C956.971 25 975 41.1262 975 61.0202V438.98C975 458.874 956.971 475 934.734 475L65.2661 475C43.0271 475 25 458.874 25 438.98Z" fill="#E6E7E9"/>
<path fill-rule="evenodd" clip-rule="evenodd" d="M950 250.001C950 252.761 947.327 255 944.03 255L55.9696 255C52.6712 255 50 252.761 50 250.001C50 247.239 52.6712 245 55.9696 245L944.03 245C947.327 245 950 247.239 950 250.001Z" fill="white"/>
<path fill-rule="evenodd" clip-rule="evenodd" d="M162.499 50C210.824 50 250 89.1756 250 137.501C250 185.826 210.824 225 162.499 225C114.176 225 75 185.826 75 137.501C75 89.1756 114.176 50 162.499 50Z" fill="white"/>
<path fill-rule="evenodd" clip-rule="evenodd" d="M162.498 62.5C203.919 62.5 237.5 96.0788 237.5 137.5C237.5 178.921 203.919 212.5 162.498 212.5C121.077 212.5 87.5 178.921 87.5 137.5C87.5 96.0788 121.077 62.5 162.498 62.5Z" fill="#13688D"/>
<path fill-rule="evenodd" clip-rule="evenodd" d="M162.499 275C210.824 275 250 314.176 250 362.501C250 410.826 210.824 450 162.499 450C114.176 450 75 410.826 75 362.501C75 314.176 114.176 275 162.499 275Z" fill="white"/>
<path fill-rule="evenodd" clip-rule="evenodd" d="M162.498 287.5C203.919 287.5 237.5 321.079 237.5 362.5C237.5 403.921 203.919 437.5 162.498 437.5C121.077 437.5 87.5 403.921 87.5 362.5C87.5 321.079 121.077 287.5 162.498 287.5Z" fill="#7ADEF6"/>
<path fill-rule="evenodd" clip-rule="evenodd" d="M387.499 50C435.824 50 475 89.1756 475 137.501C475 185.826 435.824 225 387.499 225C339.176 225 300 185.826 300 137.501C300 89.1756 339.176 50 387.499 50Z" fill="white"/>
<path fill-rule="evenodd" clip-rule="evenodd" d="M387.498 62.5C428.919 62.5 462.5 96.0788 462.5 137.5C462.5 178.921 428.919 212.5 387.498 212.5C346.077 212.5 312.5 178.921 312.5 137.5C312.5 96.0788 346.077 62.5 387.498 62.5Z" fill="#FF7405"/>
<path fill-rule="evenodd" clip-rule="evenodd" d="M387.499 275C435.824 275 475 314.176 475 362.501C475 410.826 435.824 450 387.499 450C339.176 450 300 410.826 300 362.501C300 314.176 339.176 275 387.499 275Z" fill="white"/>
<path fill-rule="evenodd" clip-rule="evenodd" d="M387.498 287.5C428.919 287.5 462.5 321.079 462.5 362.5C462.5 403.921 428.919 437.5 387.498 437.5C346.077 437.5 312.5 403.921 312.5 362.5C312.5 321.079 346.077 287.5 387.498 287.5Z" fill="#FFC452"/>
<path fill-rule="evenodd" clip-rule="evenodd" d="M612.499 50C660.824 50 700 89.1756 700 137.501C700 185.826 660.824 225 612.499 225C564.176 225 525 185.826 525 137.501C525 89.1756 564.176 50 612.499 50Z" fill="white"/>
<path fill-rule="evenodd" clip-rule="evenodd" d="M612.498 62.5C653.919 62.5 687.5 96.0788 687.5 137.5C687.5 178.921 653.919 212.5 612.498 212.5C571.077 212.5 537.5 178.921 537.5 137.5C537.5 96.0788 571.077 62.5 612.498 62.5Z" fill="#FE3C3D"/>
<path fill-rule="evenodd" clip-rule="evenodd" d="M612.499 275C660.824 275 700 314.176 700 362.501C700 410.826 660.824 450 612.499 450C564.176 450 525 410.826 525 362.501C525 314.176 564.176 275 612.499 275Z" fill="white"/>
<path fill-rule="evenodd" clip-rule="evenodd" d="M612.498 287.5C653.919 287.5 687.5 321.079 687.5 362.5C687.5 403.921 653.919 437.5 612.498 437.5C571.077 437.5 537.5 403.921 537.5 362.5C537.5 321.079 571.077 287.5 612.498 287.5Z" fill="#FF8AC1"/>
<path fill-rule="evenodd" clip-rule="evenodd" d="M837.499 50C885.824 50 925 89.1756 925 137.501C925 185.826 885.824 225 837.499 225C789.176 225 750 185.826 750 137.501C750 89.1756 789.176 50 837.499 50Z" fill="white"/>
<path fill-rule="evenodd" clip-rule="evenodd" d="M837.498 62.5C878.919 62.5 912.5 96.0788 912.5 137.5C912.5 178.921 878.919 212.5 837.498 212.5C796.077 212.5 762.5 178.921 762.5 137.5C762.5 96.0788 796.077 62.5 837.498 62.5Z" fill="#167347"/>
<path fill-rule="evenodd" clip-rule="evenodd" d="M837.499 275C885.824 275 925 314.176 925 362.501C925 410.826 885.824 450 837.499 450C789.176 450 750 410.826 750 362.501C750 314.176 789.176 275 837.499 275Z" fill="white"/>
<path fill-rule="evenodd" clip-rule="evenodd" d="M837.498 287.5C878.919 287.5 912.5 321.079 912.5 362.5C912.5 403.921 878.919 437.5 837.498 437.5C796.077 437.5 762.5 403.921 762.5 362.5C762.5 321.079 796.077 287.5 837.498 287.5Z" fill="#BCD819"/>
</g>
<defs>
<clipPath id="clip0_1276_6476">
<rect width="500" height="1000" fill="white" transform="matrix(0 -1 1 0 0 500)"/>
</clipPath>
</defs>
</svg>
