<svg width="340" height="560" viewBox="0 0 340 560" fill="none" xmlns="http://www.w3.org/2000/svg">
<g clip-path="url(#clip0_2016_313)">
<path d="M45.0843 522.798C44.9682 522.798 44.8513 522.79 44.7344 522.778C43.0607 522.576 42.6398 521.659 42.8297 519.904L45.7598 492.997C45.9524 491.237 47.4857 489.988 49.1344 490.178L65.6356 491.806C67.3093 492.008 68.5085 493.596 68.3186 495.352C68.1238 497.108 66.5858 498.332 64.9441 498.171L50.6911 496.235L48.1089 519.959C47.9302 521.592 46.6112 522.798 45.0843 522.798Z" fill="#97A1AF"/>
<path d="M75.6806 530.854C73.6855 545.975 63.3608 556.965 52.6202 555.4C41.8802 553.835 34.7909 540.308 36.786 525.187C38.7818 510.067 49.1065 499.077 59.8465 500.642C70.5871 502.207 77.6764 515.734 75.6806 530.854Z" fill="#292A2C"/>
<path d="M63.7477 529.116C62.8503 535.918 60.163 541.147 57.7464 540.795C55.3304 540.444 54.0991 534.644 54.9965 527.841C55.8946 521.038 58.5812 515.809 60.9978 516.161C63.4145 516.513 64.6457 522.314 63.7477 529.116Z" fill="#DFE0E0"/>
<path d="M61.797 532.804C61.6801 532.804 61.564 532.796 61.4471 532.784C59.7734 532.582 58.5741 530.995 58.764 529.239L62.6332 494.645C62.8231 492.884 64.3479 491.633 66.007 491.826C67.6807 492.027 68.88 493.615 68.6901 495.371L64.821 529.965C64.6429 531.598 63.324 532.804 61.797 532.804Z" fill="#97A1AF"/>
<path d="M77.8942 481.829C77.4774 481.82 77.0587 481.794 76.642 481.75C57.8549 479.795 46.3094 443.415 50.3545 398.927C53.2177 367.43 63.5236 339.77 76.6072 328.459C81.3389 324.369 86.1987 322.528 91.0856 323.059C109.873 325.012 121.421 361.389 117.376 405.88C114.512 437.374 104.207 465.034 91.1204 476.348C86.7935 480.09 82.3511 481.929 77.8942 481.829ZM89.759 327.728C86.3991 327.652 82.9459 329.129 79.4795 332.127C67.2738 342.677 57.6079 369.075 54.8525 399.381C51.174 439.829 61.3567 475.388 77.0865 477.024C80.7011 477.396 84.4763 475.94 88.2508 472.68C100.456 462.13 110.122 435.73 112.878 405.427C116.556 364.975 106.371 329.419 90.641 327.785C90.3481 327.755 90.0526 327.734 89.759 327.728Z" fill="#ABB8C9"/>
<path d="M130.027 386.606L92.9052 400.764L124.251 340.545C124.391 340.275 124.297 339.936 124.039 339.787C123.786 339.644 123.462 339.741 123.317 340.01L92.5463 399.124L100.282 314.035C100.311 313.727 100.095 313.455 99.8045 313.425C99.5381 313.419 99.2516 313.622 99.2251 313.927L91.5118 398.76L72.9397 333.87C72.8548 333.574 72.5515 333.416 72.2781 333.496C71.9964 333.585 71.8378 333.897 71.922 334.191L90.7981 400.141L59.5528 371.111C59.3254 370.908 58.9956 370.929 58.8015 371.159C58.6067 371.391 58.6283 371.744 58.8474 371.948L90.748 401.587L53.148 415.928C52.8726 416.034 52.7313 416.353 52.8315 416.642C52.9087 416.865 53.1064 417.006 53.3185 417.011L53.5112 416.976L90.6221 402.821L59.4046 462.793C59.2641 463.063 59.3587 463.401 59.6161 463.551C59.6947 463.594 59.7761 463.617 59.8603 463.619C60.0516 463.624 60.2394 463.516 60.3382 463.328L90.9964 404.431L83.2581 489.547C83.2295 489.854 83.4647 490.128 83.7555 490.157C84.031 490.164 84.289 489.945 84.3155 489.653L92.0545 404.53L110.711 469.713C110.779 469.951 110.983 470.107 111.208 470.112L111.372 470.087C111.655 469.999 111.813 469.687 111.729 469.393L92.8913 403.578L123.988 432.471C124.087 432.561 124.208 432.607 124.329 432.61C124.479 432.614 124.631 432.55 124.739 432.422C124.934 432.19 124.912 431.837 124.693 431.633L92.7918 401.993L130.39 387.652C130.666 387.547 130.807 387.228 130.707 386.938C130.605 386.649 130.303 386.505 130.027 386.606Z" fill="#B4CAD5"/>
<path d="M84.9035 496.8C84.3073 496.787 83.7125 496.751 83.1198 496.689C58.2932 494.108 43.2785 451.374 48.196 397.285C51.5733 360.136 63.7351 328.36 79.9345 314.358C86.4158 308.754 93.5224 306.176 100.421 306.892C125.248 309.473 140.262 352.207 135.345 406.295C131.967 443.445 119.806 475.221 103.606 489.223C97.6816 494.345 91.2526 496.943 84.9035 496.8ZM98.3355 321.022C95.2489 320.953 91.9593 322.408 88.5472 325.358C75.4407 336.688 64.6485 366.139 61.6941 398.64C57.368 446.223 70.2164 481.034 84.4533 482.511C87.759 482.876 91.3026 481.412 94.9937 478.223C108.1 466.893 118.892 437.442 121.847 404.941C126.173 357.358 113.324 322.548 99.0868 321.07C98.8385 321.043 98.5866 321.028 98.3355 321.022Z" fill="#292A2C"/>
<path d="M51.793 361.441C51.377 361.27 50.8442 360.923 50.1548 360.339C48.3726 358.829 45.9802 355.093 46.2168 350.714C44.5632 350.858 42.5494 344.792 43.7125 340.604C45.9698 336.383 49.1934 332.379 52.1735 328.888C56.8524 323.408 69.5228 320.39 73.5589 330.235C77.9519 339.352 79.067 352.326 79.1567 356.212C79.2075 358.429 77.2854 366.835 76.3247 369.214C74.9446 372.63 71.4233 367.609 71.9464 365.189C72.7485 361.475 71.8156 357.292 70.6768 354.281C70.0389 356.834 69.3426 359.364 68.336 361.673C66.0766 366.856 67.2174 377.2 61.2878 376.789C59.2781 373.071 60.261 366.03 61.4582 359.352C61.7045 357.977 61.9522 356.541 62.2068 355.039C62.0968 354.547 61.9918 354.009 61.8923 353.431C61.0882 355.131 59.4284 356.604 58.7362 358.374C57.2858 362.081 57.6823 373.96 53.313 373.295C51.7582 373.058 52.0302 367.42 51.793 361.441Z" fill="#EEBF9E"/>
<path d="M75.698 341.419C71.3099 337.631 60.9866 338.201 56.2333 334.891C60.4433 314.582 82.4081 244.344 114.147 218.876C119.268 219.308 126.974 235.383 131.405 241.451C113.251 253.024 81.949 308.163 75.698 341.419Z" fill="#EEBF9E"/>
<path d="M60.9261 505.806C60.8323 505.806 60.7362 505.804 60.6396 505.796C58.0553 505.633 56.0866 503.3 56.2424 500.583L67.1048 310.588C67.2607 307.875 69.4624 305.791 72.0655 305.967C74.6497 306.131 76.6191 308.464 76.4633 311.18L65.6009 501.175C65.452 503.79 63.3866 505.806 60.9261 505.806Z" fill="#97A1AF"/>
<path d="M44.0395 314.657L69.6161 316.568L130.645 282.24L131.008 274.914L43.3676 306.316L44.0395 314.657Z" fill="#B6C0D3"/>
<path d="M43.3675 306.316C42.7456 302.173 47.3521 296.4 55.4591 292.732C75.3585 283.727 105.605 270.77 109.083 268.925C112.681 267.017 121.093 268.285 127.806 269.893C131.385 270.751 132.006 273.746 130.926 276.277L69.559 308.163L43.3675 306.316Z" fill="#7AB9DA"/>
<path d="M265.417 311.657L125.023 308.786L131.27 165.251L270.212 169.166L265.417 311.657Z" fill="#5B91A7"/>
<path d="M117.014 426.581C116.943 426.581 116.872 426.578 116.799 426.576C114.214 426.453 112.209 424.152 112.326 421.433L124.766 164.016C125.698 155.405 126.978 143.609 137.245 134.259C146.635 125.706 167.03 121.088 181.921 117.718C184.582 117.114 186.976 116.573 188.956 116.08C191.468 115.459 194.002 117.088 194.599 119.738C195.197 122.387 193.638 125.039 191.118 125.667C189.084 126.172 186.628 126.731 183.897 127.349C171.579 130.137 150.962 134.805 143.384 141.704C135.881 148.54 134.967 156.974 134.081 165.13L121.693 421.876C121.581 424.517 119.505 426.581 117.014 426.581Z" fill="#97A1AF"/>
<path d="M180.111 490.027C180.004 490.027 179.896 490.022 179.786 490.014C177.204 489.83 175.252 487.477 175.43 484.764L179.622 420.483C179.704 419.201 180.26 418.005 181.172 417.149L225.514 375.457C227.448 373.638 230.408 373.816 232.135 375.841C233.861 377.869 233.698 380.984 231.768 382.797L188.845 423.155L184.784 485.437C184.614 488.037 182.554 490.027 180.111 490.027Z" fill="#8C98A5"/>
<path d="M45.8997 481.945C45.7849 481.945 45.6708 481.94 45.5539 481.932C42.9717 481.733 41.0302 479.373 41.218 476.66L45.8197 410.387C45.9268 408.836 46.7261 407.429 47.9755 406.591L95.155 374.973C97.3386 373.517 100.237 374.181 101.629 376.478C103.021 378.771 102.379 381.816 100.196 383.281L55.0014 413.569L50.5716 477.377C50.3907 479.968 48.333 481.945 45.8997 481.945Z" fill="#8C98A5"/>
<path d="M261.588 334.03V348.09C261.24 348.19 203.534 411.988 203.534 411.988L203.318 394.581L261.588 334.03Z" fill="#A1ABBE"/>
<path d="M52.9367 387.811V401.353C52.5888 401.452 199.833 411.995 203.533 411.989L203.318 394.582L52.9367 387.811Z" fill="#B6C0D3"/>
<path d="M52.936 388.219C45.6791 364.1 129.209 330.355 129.209 330.355C129.209 330.355 172.056 329.84 212.93 330.746C245.548 331.469 262.495 329.668 262.465 336.083L203.534 397.405L52.936 388.219Z" fill="#5B91A7"/>
<path d="M277.02 413.194C276.899 413.194 276.778 413.189 276.656 413.18L263.347 412.102C260.765 411.893 258.833 409.524 259.032 406.813C259.231 404.097 261.509 402.079 264.066 402.279L277.376 403.356C279.958 403.565 281.89 405.935 281.691 408.646C281.501 411.231 279.447 413.194 277.02 413.194Z" fill="#97A1AF"/>
<path d="M213.087 501.286C212.217 501.286 211.341 500.988 210.606 500.372C208.884 498.932 208.601 496.297 209.974 494.489L260.287 428.163C261.653 426.352 264.161 426.049 265.886 427.499C267.608 428.94 267.892 431.574 266.518 433.383L216.205 499.709C215.42 500.745 214.26 501.286 213.087 501.286Z" fill="#97A1AF"/>
<path d="M60.2172 492.445C59.347 492.445 58.4705 492.147 57.7352 491.53C56.0142 490.09 55.7304 487.456 57.1036 485.647L114.632 419.321C115.998 417.51 118.505 417.207 120.231 418.658C121.952 420.098 122.236 422.732 120.862 424.541L63.3351 490.867C62.5498 491.903 61.3894 492.445 60.2172 492.445Z" fill="#97A1AF"/>
<path d="M262.666 437.182L262.528 437.179C259.939 437.1 257.901 434.832 257.977 432.113L265.347 166.708C266.284 158.099 267.564 146.308 277.829 136.961C287.219 128.408 307.614 123.789 322.505 120.419C325.165 119.816 327.56 119.274 329.54 118.781C332.042 118.165 334.584 119.789 335.183 122.44C335.781 125.088 334.222 127.741 331.702 128.369C329.668 128.874 327.212 129.432 324.481 130.05C312.162 132.838 291.546 137.507 283.968 144.406C276.466 151.239 275.551 159.672 274.665 167.827L267.349 432.397C267.276 435.07 265.193 437.182 262.666 437.182Z" fill="#97A1AF"/>
<path d="M140.31 145.918C136.246 145.918 132.501 143.121 131.311 138.815C129.864 133.588 132.724 128.121 137.695 126.603L187.418 111.413C192.393 109.898 197.596 112.9 199.04 118.122C200.487 123.349 197.628 128.816 192.656 130.334L142.934 145.524C142.059 145.791 141.178 145.918 140.31 145.918Z" fill="#7AB9DA"/>
<path d="M280.894 148.62C276.83 148.62 273.086 145.822 271.895 141.517C270.448 136.29 273.307 130.822 278.279 129.304L328.002 114.114C332.972 112.589 338.18 115.599 339.624 120.823C341.071 126.05 338.212 131.518 333.24 133.035L283.517 148.225C282.643 148.492 281.762 148.62 280.894 148.62Z" fill="#7AB9DA"/>
<path d="M138.528 516.441L186.2 488.282V480.265L138.306 504.947L138.528 516.441Z" fill="#A9B5C6"/>
<path d="M138.528 516.44L0 506.024V494.991L138.306 504.946L138.528 516.44Z" fill="#B6C0D3"/>
<path d="M186.2 480.264L43.0099 471.618L0 494.991L138.306 504.946L186.2 480.264Z" fill="#7D8CA2"/>
<path d="M123.763 254.912C114.853 253.65 99.235 234.196 96.8872 222.278C113.352 208.785 127.586 197.52 137.953 189.39C143.444 187.103 144.042 187.788 148.863 186.693C160.014 207.57 158.293 224.359 149.884 236.433C137.077 246.22 123.763 254.912 123.763 254.912Z" fill="#E6982C"/>
<path d="M59.8256 462.143C64.9031 465.813 94.8921 473.541 93.8514 465.687C94.451 459.857 93.546 445.428 93.0869 430.302C79.7153 431.56 67.5256 434.194 57.37 437.864C58.3773 448.17 59.4249 456.876 59.8256 462.143Z" fill="#EEBF9E"/>
<path d="M125.861 430.076C127.593 445.64 129.353 460.407 129.019 471.176C133.975 475.018 160.76 470.923 164.533 466.575C164.233 459.336 164.143 448.836 164.21 437.803C153.386 433.911 140.253 431.208 125.861 430.076Z" fill="#EEBF9E"/>
<path d="M95.2873 439.993C94.4491 418.447 97.6142 380.94 99.3707 368.201C100.352 361.092 139.33 351.665 180.646 346.733C193.752 324.918 190.78 311.439 137.885 298.999C100.169 314.399 75.4282 329.219 65.3755 340.449C51.0328 356.474 53.3021 412.705 56.31 441.94C68.9004 442.387 83.3551 440.423 95.2873 439.993Z" fill="#4A3129"/>
<path opacity="0.11" d="M115.378 356.547C112.471 360.564 112.088 366.281 112.982 372.655C122.721 366.646 157.173 351.646 173.052 348.93C167.049 330.819 144.701 316.04 115.378 356.547Z" fill="black"/>
<path d="M240.893 294.676C194.796 300.271 143.359 331.506 132.963 342.383C117.914 358.127 122.231 399.38 125.239 444.453C137.358 444.625 154.182 444.931 166.388 444.453C166.324 419.584 168.251 374.809 169.534 371.209C173.777 359.298 227.848 360.44 240.967 338.089C246.834 328.095 246.572 310.895 240.893 294.676Z" fill="#4A3129"/>
<path d="M48.8067 459.496C49.213 457.19 50.1827 454.235 50.9027 451.546C51.4376 449.552 68.7806 448.708 69.1528 453.396C69.2474 454.594 69.2759 455.658 69.2523 456.624C72.2184 456.457 75.4288 456.205 78.8145 455.843C86.1744 455.055 92.7433 453.953 97.3282 452.828C98.1394 460.225 98.435 473.107 99.2754 481.33C99.2754 481.33 23.1001 502.423 10.0735 490.882C6.40122 487.631 24.7362 470.873 48.8067 459.496Z" fill="#952A0A"/>
<path d="M98.8524 476.167C98.981 477.998 99.116 479.765 99.2753 481.33C99.2753 481.33 23.1 502.423 10.0735 490.882C9.55591 490.425 9.4836 489.693 9.79387 488.751C31.4665 492.428 79.8857 481.011 98.8524 476.167Z" fill="#651A06"/>
<path d="M54.41 466.261C54.6548 466.569 55.0076 466.709 55.347 466.674C55.5613 466.65 55.7686 466.558 55.9397 466.393C56.3912 465.966 56.4357 465.211 56.0385 464.711C52.7328 460.524 47.3347 458.562 42.934 459.96C42.3608 460.139 42.036 460.8 42.2092 461.435C42.3845 462.07 43.0001 462.433 43.5608 462.255C47.1781 461.127 51.6476 462.758 54.41 466.261ZM49.1475 469.533C49.3888 469.777 49.7005 469.882 49.9989 469.85C50.2508 469.821 50.4957 469.698 50.6807 469.477C51.0835 468.997 51.0501 468.241 50.6084 467.791C46.9117 464.032 42.0861 462.41 37.4163 463.312C36.8277 463.429 36.4437 464.047 36.5571 464.697C36.6684 465.347 37.2521 465.765 37.8274 465.666C40.1912 465.203 44.7872 465.096 49.1475 469.533ZM30.5823 468.485C30.7263 469.128 31.3183 469.517 31.8956 469.374C35.4719 468.45 40.3136 470.021 43.6943 473.201C43.9309 473.422 44.2273 473.517 44.5117 473.485C44.7789 473.457 45.0348 473.319 45.2227 473.078C45.6074 472.58 45.5476 471.827 45.0884 471.394C41.2088 467.747 35.5659 465.958 31.3698 467.05C30.7875 467.2 30.4355 467.844 30.5823 468.485Z" fill="#E1E4EB"/>
<path d="M120.324 461.86C120.76 459.561 121.768 456.62 122.524 453.941C123.086 451.956 140.437 451.363 140.748 456.057C140.827 457.256 140.842 458.32 140.805 459.286C143.773 459.162 146.987 458.956 150.376 458.644C157.746 457.962 164.329 456.956 168.928 455.897C169.642 463.305 169.769 476.19 170.501 484.426C170.501 484.426 94.0553 504.411 81.1818 492.681C77.5527 489.377 96.1061 472.887 120.324 461.86Z" fill="#952A0A"/>
<path d="M170.145 479.257C170.25 481.091 170.361 482.859 170.5 484.426C170.5 484.426 94.0552 504.411 81.1817 492.682C80.6704 492.217 80.6071 491.484 80.9299 490.547C102.552 494.539 151.116 483.824 170.145 479.257Z" fill="#651A06"/>
<path d="M125.838 468.706C126.078 469.019 126.43 469.162 126.768 469.133C126.983 469.112 127.192 469.023 127.365 468.861C127.822 468.44 127.877 467.686 127.486 467.18C124.236 462.945 118.864 460.905 114.446 462.239C113.87 462.409 113.537 463.067 113.701 463.704C113.868 464.341 114.479 464.713 115.042 464.544C118.674 463.468 123.122 465.163 125.838 468.706ZM120.533 471.901C120.771 472.149 121.081 472.259 121.38 472.231C121.632 472.206 121.879 472.087 122.067 471.868C122.475 471.394 122.452 470.638 122.016 470.181C118.369 466.369 113.565 464.676 108.883 465.512C108.294 465.619 107.902 466.231 108.007 466.883C108.11 467.535 108.688 467.961 109.264 467.87C111.634 467.441 116.231 467.402 120.533 471.901ZM101.983 470.584C102.118 471.23 102.705 471.627 103.285 471.492C106.873 470.62 111.693 472.262 115.031 475.49C115.265 475.715 115.56 475.814 115.845 475.785C116.113 475.762 116.371 475.627 116.561 475.389C116.953 474.897 116.903 474.143 116.449 473.704C112.618 470.001 106.999 468.13 102.789 469.161C102.205 469.302 101.844 469.941 101.983 470.584Z" fill="#E1E4EB"/>
<path d="M97.9313 441.847C97.7685 439.025 97.6148 427.84 97.4333 425.611L51.5106 427.885C51.5106 427.885 51.599 442.016 51.7353 444.35C57.073 444.85 95.6009 443.453 97.9313 441.847Z" fill="#7D5951"/>
<path d="M169.533 444.85C169.373 442.027 169.243 430.84 169.061 428.612L121.614 431.017C121.614 431.017 121.668 445.15 121.804 447.484C127.316 447.969 167.122 446.462 169.533 444.85Z" fill="#7D5951"/>
<path d="M244.2 312.284C204.015 305.945 175.99 323.581 161.53 320.714C148.794 318.188 149.05 307.251 126.247 302.642C127.247 294.04 132.517 295.733 133.504 293.261C133.863 292.36 131.968 289.61 132.142 288.615C132.941 284.057 137.833 287.991 136.434 279.277C135.196 271.575 138.403 272.072 141.428 188.611C156.711 182.651 211.365 178.554 237.998 185.223C249.266 246.153 245.279 289.965 244.2 312.284Z" fill="#E6982C"/>
<path d="M207.069 160.936V189.769C207.084 195.981 197.78 201.042 186.248 201.073C174.714 201.102 165.32 196.089 165.305 189.879V160.936H207.069Z" fill="#EEBF9E"/>
<path d="M318.102 392.818L278.659 409.232L310.918 342.525C311.062 342.225 310.953 341.857 310.674 341.699C310.4 341.55 310.055 341.664 309.906 341.961L278.239 407.444L284.676 314.083C284.699 313.745 284.463 313.453 284.151 313.428C283.865 313.428 283.563 313.657 283.542 313.991L277.124 407.071L255.827 336.473C255.73 336.151 255.402 335.986 255.111 336.079C254.81 336.184 254.648 336.529 254.744 336.849L276.389 408.601L242.301 377.579C242.052 377.363 241.7 377.394 241.497 377.65C241.294 377.909 241.325 378.295 241.563 378.513L276.367 410.186L236.416 426.811C236.123 426.932 235.978 427.285 236.092 427.6C236.179 427.842 236.394 427.991 236.622 427.991C236.622 427.991 236.759 427.976 236.827 427.948L276.259 411.54L244.132 477.972C243.988 478.272 244.097 478.641 244.376 478.798C244.461 478.844 244.548 478.866 244.638 478.866C244.844 478.866 245.042 478.744 245.144 478.537L276.695 413.293L270.256 506.683C270.233 507.021 270.49 507.314 270.802 507.34C271.097 507.34 271.369 507.095 271.391 506.775L277.83 413.377L299.223 484.294C299.301 484.552 299.523 484.717 299.765 484.717L299.939 484.687C300.239 484.583 300.403 484.237 300.306 483.917L278.706 412.314L312.631 443.188C312.74 443.284 312.87 443.332 313 443.332C313.161 443.332 313.321 443.258 313.435 443.117C313.638 442.857 313.607 442.471 313.369 442.253L278.564 410.58L318.514 393.956C318.807 393.834 318.951 393.481 318.838 393.166C318.722 392.851 318.396 392.701 318.102 392.818Z" fill="#B4CAD5"/>
<path d="M272.176 514.586C271.537 514.586 270.899 514.56 270.263 514.507C243.622 512.29 226.617 465.864 230.708 406.518C233.518 365.758 245.851 330.665 262.894 314.936C269.712 308.64 277.266 305.644 284.669 306.258C311.31 308.475 328.315 354.901 324.224 414.248C321.414 455.008 309.081 490.1 292.038 505.83C285.805 511.584 278.978 514.586 272.176 514.586ZM282.742 321.782C279.436 321.782 275.945 323.456 272.355 326.77C258.566 339.497 247.65 372.009 245.191 407.67C241.592 459.879 256.106 497.681 271.383 498.95C274.931 499.268 278.694 497.579 282.577 493.996C296.366 481.268 307.282 448.756 309.741 413.095C313.34 360.887 298.826 323.085 283.549 321.815C283.282 321.792 283.012 321.782 282.742 321.782Z" fill="#292A2C"/>
<path d="M280.452 497.996C280.006 497.996 279.556 497.978 279.11 497.94C258.949 496.259 245.796 456.707 249.162 407.894C251.544 373.335 261.979 342.796 275.744 330.089C280.722 325.495 285.886 323.36 291.131 323.821C311.292 325.5 324.447 365.05 321.08 413.865C318.699 448.421 308.263 478.96 294.496 491.67C289.944 495.873 285.227 497.996 280.452 497.996ZM289.812 328.966C286.212 328.966 282.546 330.668 278.9 334.035C266.059 345.887 256.281 375.029 253.988 408.28C250.927 452.662 262.603 491.348 279.483 492.755C283.362 493.072 287.373 491.386 291.343 487.724C304.184 475.872 313.962 446.727 316.254 413.479C319.315 369.094 307.637 330.412 290.757 329.007C290.443 328.982 290.126 328.966 289.812 328.966Z" fill="#ABB8C9"/>
<path d="M212.283 499.833C212.189 499.833 212.093 499.831 211.997 499.824C209.412 499.66 207.444 497.327 207.6 494.611L218.12 310.588C218.274 307.875 220.435 305.791 223.082 305.967C225.666 306.131 227.635 308.464 227.479 311.18L216.958 495.203C216.809 497.818 214.744 499.833 212.283 499.833Z" fill="#97A1AF"/>
<path d="M199.674 527.25C199.557 527.25 199.44 527.242 199.323 527.23C197.65 527.028 197.229 526.112 197.419 524.356L200.349 497.449C200.542 495.689 202.075 494.44 203.723 494.63L220.225 496.258C221.898 496.461 223.098 498.048 222.908 499.804C222.714 501.56 221.175 502.784 219.534 502.623L205.28 500.687L202.698 524.411C202.519 526.044 201.201 527.25 199.674 527.25Z" fill="#97A1AF"/>
<path d="M230.27 535.307C228.275 550.428 217.95 561.416 207.21 559.852C196.469 558.287 189.38 544.761 191.376 529.64C193.371 514.519 203.696 503.53 214.436 505.095C225.176 506.66 232.265 520.186 230.27 535.307Z" fill="#292A2C"/>
<path d="M218.337 533.568C217.439 540.371 214.753 545.6 212.336 545.248C209.92 544.896 208.688 539.096 209.586 532.293C210.484 525.491 213.17 520.262 215.587 520.614C218.004 520.966 219.235 526.766 218.337 533.568Z" fill="#DFE0E0"/>
<path d="M216.387 537.256C216.27 537.256 216.153 537.249 216.036 537.237C214.363 537.035 213.163 535.447 213.353 533.691L217.222 499.098C217.412 497.337 218.937 496.086 220.597 496.278C222.27 496.48 223.47 498.068 223.28 499.824L219.411 534.417C219.232 536.051 217.914 537.256 216.387 537.256Z" fill="#97A1AF"/>
<path d="M206.761 314.657L232.338 316.568L293.366 282.24L293.73 274.914L206.089 306.316L206.761 314.657Z" fill="#B6C0D3"/>
<path d="M206.089 306.316C205.467 302.173 210.073 296.4 218.18 292.732C238.08 283.727 268.326 270.77 271.804 268.925C275.402 267.017 283.815 268.285 290.527 269.893C294.106 270.751 294.727 273.746 293.647 276.277L232.28 308.163L206.089 306.316Z" fill="#7AB9DA"/>
<path d="M275.158 335.102C270.995 337.231 259.411 333.554 253.501 327.336C266.869 282.009 269.143 263.759 232.853 210.073C250.971 206.441 265.486 211.646 277.961 230.694C295.508 262.963 285.56 298.012 275.158 335.102Z" fill="#EEBF9E"/>
<path d="M285.058 230.171C277.18 246.85 257.034 256.52 251.752 257.593C246.872 252.042 241.865 245.64 229.306 226.72C224.321 212.77 229.874 198.58 232.453 183.594C246.314 183.594 263.96 203.576 285.058 230.171Z" fill="#E6982C"/>
<path d="M232.891 352.191C230.961 356.095 232.442 370.829 233.758 375.518C243.514 375.634 236.387 365.221 241.026 359.534C242.447 357.793 245.07 353.301 246.608 351.665C245.579 353.575 242.601 362.615 242.197 366.134C241.847 369.186 244.332 378.111 245.648 382.8C254.25 382.051 250.45 371.546 250.49 368.753C250.529 366.094 255.897 355.172 256.318 354.593C256.123 355.388 253.644 361.077 253.487 361.695C252.396 365.999 256.888 377.8 259.082 382.182C267.671 380.111 261.105 370.659 261.365 367.156C261.58 364.252 263.626 358.779 264.326 356.918C264.432 358.426 264.869 361.906 264.888 363.592C264.948 368.71 266.777 374.534 268.336 377.576C273.133 375.042 271.09 367.291 271.564 362.631C272.082 357.529 272.665 353.615 273.834 349.284C275.152 344.405 277.569 335.24 272.984 328.966C271.877 327.45 257.236 321.09 256.292 322.197C250.109 329.446 235.945 346.016 232.891 352.191Z" fill="#EEBF9E"/>
<path opacity="0.26" d="M220.125 180.729L210.073 171.906L177.952 201.969L165.593 176.14L158.578 182.957L160.087 220.593C160.087 220.593 173.808 201.985 178.616 202.889C183.669 203.839 201.862 229.947 201.862 229.947L220.125 180.729Z" fill="black"/>
<path d="M220.804 181.678L210.483 167.256L178.346 199.511L166.002 171.491L158.105 184.489L161.979 214.422C161.979 214.422 172.865 202.327 177.732 202.772C187.732 203.687 199.416 218.876 199.416 218.876L220.804 181.678Z" fill="#E6982C"/>
<path opacity="0.14" d="M211.614 169.514C211.989 179.285 198.777 187.779 182.105 188.486C165.433 189.192 151.613 181.843 151.238 172.072C150.863 162.3 164.075 153.807 180.747 153.101C197.42 152.395 211.239 159.743 211.614 169.514Z" fill="black"/>
<path d="M104.102 121.582C106.254 141.016 118.947 155.013 129.344 154.787C139.741 154.56 142.936 139.392 142.57 120.934C142.207 102.476 133.479 87.6495 123.084 87.9222C108.872 88.2993 102.082 103.312 104.102 121.582Z" fill="#E2AE8B"/>
<path d="M117.66 131.17C120.715 138.73 127.385 142.995 132.557 140.689C137.734 138.383 139.451 130.38 136.394 122.817C133.339 115.254 126.672 110.993 121.499 113.299C116.324 115.605 114.607 123.604 117.66 131.17Z" fill="#CC936E"/>
<path d="M113.264 75.8207C114.069 136.31 150.392 162.99 200.754 162.249C251.114 161.51 274.234 136.188 276.574 72.4577C278.347 24.1849 248.956 -0.723703 198.596 0.016007C148.234 0.754975 112.46 15.3319 113.264 75.8207Z" fill="#84655B"/>
<path d="M123.432 39.8255C118.225 45.7994 119.987 61.733 120.926 72.7283C124.317 112.388 123.514 132.888 123.146 148.839C122.591 172.949 156.21 179.686 165.522 180.393C175.673 181.166 222.102 179.228 236.036 156.07C249.57 133.575 261.157 68.9662 253.371 48.1881C237.082 4.71535 149.267 10.1864 123.432 39.8255Z" fill="#EEBF9E"/>
<path d="M240.15 89.642C235.928 108.111 239.288 121.38 255.281 126.905C272.391 132.816 275.673 98.2377 275.291 69.4793C274.908 40.7187 244.484 -12.3716 168.073 14.4418C226.24 16.1266 252.58 35.2703 240.15 89.642Z" fill="#84655B"/>
<path d="M278.525 130.246C273.07 149.489 256.168 160.34 244.099 157.302C232.029 154.266 230.611 137.936 233.84 119.209C237.069 100.481 249.479 87.7135 261.539 90.7981C278.023 95.0141 283.652 112.159 278.525 130.246Z" fill="#EEBF9E"/>
<path d="M258.776 134.965C255.613 143.488 247.347 146.648 243.896 144.172C240.016 141.387 240.161 136.279 241.906 127.86C243.947 118.03 247.856 112.719 253.564 115.167C259.499 117.713 262.501 124.938 258.776 134.965Z" fill="#CC936E"/>
<path d="M155.636 103.754C160.011 110.211 159.498 117.382 155.704 120.146C149.987 124.308 136.429 125.624 131.347 119.748C126.424 114.058 128.754 103.563 136.726 98.9747C143.706 94.956 151.401 97.5041 155.636 103.754Z" fill="#F9FDFF"/>
<path d="M130.368 102.205C136.55 92.0578 151.529 95.3141 155.783 103.973C151.411 97.5186 143.373 95.624 136.921 99.3335C132.933 101.63 130.108 105.671 129.364 110.143C128.771 113.71 129.585 117.694 131.628 120.057C129.28 118.525 125.821 109.667 130.368 102.205Z" fill="#552725"/>
<path d="M154.823 107.43C156.641 112.65 154.577 118.627 150.211 120.779C145.844 122.933 140.831 120.446 139.012 115.225C137.193 110.004 139.259 104.027 143.624 101.875C147.99 99.7223 153.004 102.209 154.823 107.43Z" fill="#552725"/>
<path d="M154.118 106.533C154.623 107.982 154.05 109.641 152.839 110.238C151.627 110.835 150.237 110.145 149.732 108.697C149.227 107.249 149.8 105.59 151.011 104.992C152.223 104.396 153.613 105.086 154.118 106.533Z" fill="#FDFFFD"/>
<path d="M189.825 103.319C185.012 109.928 185.767 117.079 190.143 119.706C196.739 123.665 212.173 124.501 217.803 118.449C223.256 112.586 220.356 102.178 211.188 97.8731C203.162 94.1037 194.483 96.9229 189.825 103.319Z" fill="#F9FDFF"/>
<path d="M218.49 100.877C211.219 90.9523 194.285 94.737 189.663 103.543C194.473 96.9364 203.556 94.7575 210.975 98.2389C215.56 100.394 218.867 104.333 219.821 108.777C220.582 112.32 219.754 116.332 217.49 118.767C220.12 117.152 223.834 108.176 218.49 100.877Z" fill="#552725"/>
<path d="M212.872 107.152C214.929 112.37 212.572 118.352 207.606 120.513C202.642 122.674 196.949 120.197 194.892 114.981C192.835 109.764 195.192 103.782 200.157 101.621C205.122 99.4593 210.815 101.936 212.872 107.152Z" fill="#552725"/>
<path d="M212.073 106.26C212.644 107.706 211.989 109.366 210.612 109.966C209.234 110.565 207.655 109.878 207.084 108.431C206.514 106.983 207.168 105.324 208.546 104.724C209.922 104.125 211.502 104.811 212.073 106.26Z" fill="#FDFFFD"/>
<path d="M127.546 76.2323C128.031 76.2257 128.519 76.0394 128.904 75.663C133.817 70.9112 143.256 69.461 150.879 72.3365C151.94 72.7122 153.111 72.1581 153.497 71.0318C153.877 69.9156 153.322 68.6804 152.255 68.2806C143.173 64.8715 132.187 66.6359 126.131 72.498C125.298 73.3006 125.241 74.6637 126.011 75.5372C126.423 76.0079 126.986 76.2411 127.546 76.2323Z" fill="#84655B"/>
<path d="M225.437 74.7945C225.996 74.7857 226.554 74.5372 226.951 74.0555C227.698 73.1579 227.605 71.7969 226.752 71.0199C220.536 65.3545 209.507 63.8978 200.521 67.5721C199.465 68.0019 198.942 69.2481 199.352 70.357C199.767 71.4731 200.963 71.9928 202.003 71.5849C209.553 68.4982 219.02 69.6655 224.064 74.2652C224.458 74.63 224.951 74.8017 225.437 74.7945Z" fill="#84655B"/>
<path d="M167.001 127.962C167.347 127.944 167.64 127.664 167.681 127.29C167.968 124.629 169.87 122.82 172.524 122.676C175.195 122.533 177.309 124.163 177.788 126.731C177.865 127.142 178.247 127.412 178.637 127.33C179.029 127.25 179.284 126.851 179.206 126.438C178.594 123.149 175.816 120.978 172.451 121.159C169.105 121.338 166.61 123.733 166.243 127.117C166.199 127.534 166.483 127.911 166.88 127.959L167.001 127.962Z" fill="#A57360"/>
<path opacity="0.27" d="M153.103 59.7286C150.548 59.4983 148.351 59.1592 146.657 58.6972C146.268 58.5876 146.033 58.1651 146.145 57.758C146.227 57.3399 146.66 57.095 147.032 57.212C158.86 60.447 196.048 57.2661 201.1 55.9094C201.477 55.7684 201.883 56.0549 201.993 56.4657C202.087 56.875 201.846 57.2873 201.456 57.394C197.07 58.5686 168.625 61.1254 153.103 59.7286Z" fill="#71574B"/>
<path opacity="0.27" d="M145.518 52.5927C143.309 52.3939 141.297 52.1293 139.531 51.7704C139.171 51.7046 138.946 51.3501 139.008 50.9803C139.068 50.6265 139.404 50.4021 139.735 50.4321C157.911 53.9712 198.59 49.0806 204.053 46.784C204.351 46.6356 204.75 46.8213 204.896 47.1604C205.026 47.5142 204.867 47.9089 204.522 48.0449C198.812 50.4613 164.967 54.3433 145.518 52.5927Z" fill="#71574B"/>
<path d="M156.744 148.649C157.273 156.542 166.625 163.104 176.961 162.692C187.298 162.281 196.971 154.7 196.553 147.064C195.945 135.946 186.691 144.647 176.336 144.53C165.995 144.415 156.063 138.506 156.744 148.649Z" fill="#58160D"/>
<path d="M175.593 155.23C181.18 155.007 186.079 156.369 188.981 158.837C185.752 161.085 181.608 162.688 176.968 162.873C171.743 163.081 167.251 161.63 163.722 159.153C166.55 156.93 170.633 155.428 175.593 155.23Z" fill="#D47C70"/>
<path d="M162.585 142.755C165.979 142.786 171.145 143.403 176.3 143.461C182.116 143.526 187.214 141.597 190.568 141.602C189.198 144.851 183.691 147.45 177.005 147.717C169.837 148.002 163.639 146.256 162.585 142.755Z" fill="white"/>
<path d="M215.202 20.4069C215.518 28.0239 198.618 34.9831 177.456 35.9501C156.294 36.9178 138.883 31.5272 138.568 23.9102C138.252 16.2939 155.152 9.33473 176.314 8.36774C197.476 7.39996 214.887 12.7906 215.202 20.4069Z" fill="#84655B"/>
<path d="M181.609 225.876C181.609 227.882 180.319 229.508 178.729 229.508C177.139 229.508 175.85 227.882 175.85 225.876C175.85 223.87 177.139 222.244 178.729 222.244C180.319 222.244 181.609 223.87 181.609 225.876Z" fill="#885934"/>
<path d="M179.518 256.065C179.518 258.07 178.229 259.696 176.639 259.696C175.048 259.696 173.759 258.07 173.759 256.065C173.759 254.059 175.048 252.433 176.639 252.433C178.229 252.433 179.518 254.059 179.518 256.065Z" fill="#885934"/>
<path d="M178.729 281.08C178.729 283.086 177.44 284.712 175.85 284.712C174.26 284.712 172.97 283.086 172.97 281.08C172.97 279.075 174.26 277.449 175.85 277.449C177.44 277.449 178.729 279.075 178.729 281.08Z" fill="#885934"/>
</g>
<defs>
<clipPath id="clip0_2016_313">
<rect width="340" height="560" fill="white"/>
</clipPath>
</defs>
</svg>
