<svg width="361" height="740" viewBox="0 0 361 740" fill="none" xmlns="http://www.w3.org/2000/svg">
<g clip-path="url(#clip0_1976_6183)">
<path d="M103.267 676.371H69.2786V706.116H103.267V676.371Z" fill="#161A1B"/>
<path d="M67.987 693.109C69.2212 690.083 91.3722 691.73 91.9515 692.836C92.7094 694.282 95.1886 698.983 98.6735 698.394C100.116 698.151 100.858 696.868 101.101 696.419C101.321 696.014 104.633 696.958 104.636 697.706C104.655 701.833 105.135 717.385 104.647 717.893C99.8493 720.893 98.7997 719.94 95.0139 722.114C88.7237 725.725 84.9338 728.464 79.6646 730.182C70.2621 733.249 61.4875 732.976 52.9327 732.691C42.9663 732.36 36.3326 729.857 36.8348 726.048C38.0365 716.936 48.0103 714.442 60.6279 704.243C65.076 700.647 67.0537 695.398 67.987 693.109Z" fill="#9A4636"/>
<path opacity="0.2" d="M89.5794 719.745C92.5276 717.552 97.0979 716.535 100.448 713.786C102.847 711.818 104.634 697.21 104.636 697.705C104.655 701.833 105.135 717.384 104.648 717.893C99.8494 720.892 98.7999 719.94 95.014 722.113C88.7238 725.725 84.934 728.463 79.6648 730.182C70.2623 733.249 61.4877 732.975 52.9329 732.69C42.9664 732.36 36.3985 729.866 36.835 726.048C38.8385 729.559 53.5466 733.298 71.9536 729.675C82.6754 727.565 83.347 724.381 89.5794 719.745Z" fill="#790000"/>
<path d="M105.363 718.599C105.39 717.744 105.207 717.797 104.588 717.609C104.507 717.865 104.432 718.152 104.323 718.196C97.3901 720.989 95.35 721.83 91.5748 723.565C85.6991 726.265 84.8003 728.896 79.458 730.44C70.7664 732.952 61.7858 733.814 53.3858 733.284C43.887 732.684 38.0611 730.739 37.0819 726.89C36.866 726.043 36.7332 725.233 37.1411 724.456C36.2144 725.461 36.14 726.049 36.1147 726.622C35.9752 729.818 36.1931 733.722 36.5678 734.639C39.0157 740.654 60.9189 741.11 74.0852 738.454C81.3613 736.986 85.5855 733.076 91.7216 729.229C96.1837 726.432 99.8015 725.832 104.996 723.565C105.449 723.367 105.314 720.151 105.363 718.599Z" fill="#743939"/>
<path d="M105.363 717.97C105.39 717.115 105.207 717.167 104.588 716.979C104.507 717.236 104.432 717.523 104.323 717.567C97.3901 720.359 95.35 721.2 91.5748 722.935C85.6991 725.635 84.8003 728.266 79.458 729.81C70.7664 732.323 61.7858 733.184 53.3858 732.654C43.887 732.054 38.0611 730.109 37.0819 726.261C36.866 725.413 37.2016 724.378 37.6094 723.601C36.6827 724.605 36.14 725.42 36.1147 725.992C35.9752 729.189 36.1931 733.093 36.5678 734.009C39.0157 740.024 60.9189 740.48 74.0852 737.824C81.3613 736.356 85.5855 732.446 91.7216 728.6C96.1837 725.803 99.8015 725.202 104.996 722.935C105.449 722.738 105.314 719.522 105.363 717.97Z" fill="#6B281F"/>
<path d="M214.897 704.439H176.397L172.968 677.012H211.468L214.897 704.439Z" fill="#161A1B"/>
<path d="M252.759 718.509C255.776 719.865 258.623 724.305 258.651 727.077C258.719 733.791 228.827 735.031 214.746 732.555C208.842 731.516 198.271 727.375 191.913 726.406C183.283 725.09 175.606 723.118 172.526 719.779C172.399 718.765 172.639 709.092 172.893 699.892C172.934 698.412 175.048 697.595 176.698 697.916C178.281 700.312 181.706 700.768 184.783 698.104C185.371 697.596 189.936 695.429 192.119 692.196C193.273 690.485 207.628 690.027 214.108 691.306C220.563 701.45 232.66 709.476 252.759 718.509Z" fill="#9A4636"/>
<path opacity="0.2" d="M258.651 726.475C259.444 734.646 228.827 735.031 214.746 732.555C208.842 731.516 198.271 727.375 191.913 726.406C183.283 725.091 175.606 723.118 172.526 719.779C172.399 718.765 172.639 709.092 172.893 699.892C172.934 698.412 173.498 713.021 178.467 716.844C182.302 719.794 189.397 720.338 196.939 721.463C203.784 722.485 211.87 728.164 221.445 729.685C229.759 731.006 250.855 733.342 258.651 726.475Z" fill="#70002A"/>
<path d="M259.501 734.816C259.814 734.108 259.791 731.973 259.789 729.227C259.789 728.405 258.888 727.229 258.566 726.718C260.127 733.449 231.145 734.834 214.988 731.954C209.087 730.902 201.592 727.057 195.242 726.059C186.931 724.752 175.606 723.118 172.527 719.779C171.913 719.779 172.034 720.559 172.039 721.281C172.061 724.267 172.19 725.992 172.648 726.196C180.866 729.87 191.128 731.163 197.189 733.004C203.157 734.817 208.706 737.056 214.727 738.425C225.822 740.948 257.448 739.464 259.501 734.816Z" fill="#743939"/>
<path d="M259.501 734.236C259.814 733.527 259.791 731.393 259.789 728.646C259.789 727.824 258.888 726.648 258.566 726.137C260.127 732.869 231.145 734.253 214.988 731.373C209.087 730.322 201.592 726.476 195.242 725.478C186.931 724.172 175.568 722.529 172.489 719.191C171.876 719.191 172.034 719.979 172.039 720.701C172.061 723.687 172.19 725.411 172.648 725.616C180.866 729.289 191.128 730.583 197.189 732.424C203.157 734.236 208.706 736.476 214.727 737.845C225.822 740.367 257.448 738.884 259.501 734.236Z" fill="#6B281F"/>
<path d="M118.589 450.977C118.589 450.977 122.785 452.986 122.912 449.926C124.018 441.958 129.637 442.135 131.087 449.506C131.644 452.337 136.188 450.569 136.188 450.569L135.685 416.971L118.086 417.379L118.589 450.977Z" fill="#27333C"/>
<path d="M120.853 427.642L118.899 370.966L187.968 367.177C194.526 446.983 212.556 648.869 215.197 681.649C207.507 687.593 173.143 688.739 170.107 686.779C165.815 671.832 141.913 494.871 129.657 443.587C127.606 435.003 120.995 428.648 120.853 427.642Z" fill="#27333C"/>
<path d="M125.144 434.186L121.911 369.848H59.4653C59.9097 439.747 64.7525 656.556 65.8286 686.483C74.3609 691.23 108.02 687.879 110.715 685.496C111.452 669.586 120.009 501.224 123.541 444.574C123.573 444.402 125.161 435.202 125.144 434.186Z" fill="#27333C"/>
<path opacity="0.65" d="M122.842 403.447C123.025 403.436 123.165 403.173 123.151 402.872L123.096 401.819C123.077 401.524 122.92 401.29 122.742 401.3C122.558 401.31 122.417 401.574 122.432 401.875L122.486 402.927C122.506 403.223 122.663 403.457 122.842 403.447ZM123.986 419.379L123.883 417.319C123.869 417.022 123.712 416.793 123.533 416.799C123.355 416.813 123.204 417.056 123.219 417.373L123.321 419.434C123.336 419.729 123.493 419.959 123.672 419.953C123.835 419.931 124.001 419.687 123.986 419.379ZM123.887 424.082C124.071 424.072 124.211 423.812 124.196 423.507L124.093 421.443C124.079 421.147 123.917 420.913 123.739 420.923C123.555 420.933 123.414 421.194 123.429 421.498L123.532 423.562C123.547 423.858 123.708 424.092 123.887 424.082ZM124.307 432.335C124.491 432.325 124.631 432.065 124.616 431.761L124.513 429.696C124.499 429.4 124.342 429.17 124.163 429.176C123.949 429.171 123.834 429.438 123.849 429.751L123.952 431.816C123.966 432.111 124.129 432.345 124.307 432.335ZM124.406 427.632L124.303 425.572C124.289 425.276 124.127 425.042 123.949 425.052C123.765 425.062 123.624 425.322 123.639 425.626L123.742 427.687C123.757 427.983 123.913 428.212 124.092 428.207C124.296 428.216 124.421 427.945 124.406 427.632ZM123.256 411.7C123.44 411.69 123.581 411.43 123.566 411.125L123.464 409.066C123.449 408.769 123.292 408.539 123.114 408.545C122.894 408.528 122.784 408.808 122.799 409.12L122.902 411.181C122.916 411.476 123.078 411.71 123.256 411.7ZM123.467 415.829C123.65 415.819 123.791 415.558 123.776 415.254L123.674 413.19C123.659 412.894 123.497 412.66 123.318 412.67C123.135 412.681 122.994 412.94 123.009 413.245L123.112 415.309C123.126 415.605 123.288 415.839 123.467 415.829ZM123.356 407.001L123.254 404.937C123.238 404.641 123.077 404.407 122.898 404.417C122.714 404.427 122.574 404.687 122.589 404.991L122.692 407.056C122.706 407.352 122.863 407.581 123.042 407.575C123.24 407.578 123.371 407.314 123.356 407.001ZM124.364 433.305C124.18 433.32 124.044 433.579 124.059 433.88L124.113 434.928C124.133 435.224 124.29 435.458 124.469 435.448C124.653 435.438 124.793 435.174 124.778 434.873L124.724 433.825C124.703 433.517 124.507 433.284 124.364 433.305ZM125.902 402.646L125.848 401.593C125.828 401.297 125.676 401.067 125.498 401.073C125.294 401.089 125.168 401.336 125.183 401.648L125.238 402.701C125.258 402.996 125.409 403.226 125.588 403.22C125.743 403.265 125.918 402.955 125.902 402.646ZM126.433 419.727C126.617 419.717 126.757 419.452 126.743 419.152L126.635 417.092C126.615 416.797 126.458 416.563 126.28 416.573C126.096 416.583 125.956 416.847 125.971 417.147L126.078 419.207C126.098 419.503 126.254 419.737 126.433 419.727ZM127.058 432.109C127.242 432.099 127.382 431.839 127.368 431.535L127.265 429.47C127.245 429.162 127.123 428.931 126.905 428.951C126.721 428.965 126.586 429.22 126.6 429.525L126.703 431.589C126.718 431.885 126.879 432.119 127.058 432.109ZM126.848 427.98C127.032 427.97 127.172 427.71 127.157 427.406L127.055 425.345C127.04 425.049 126.878 424.816 126.7 424.826C126.516 424.836 126.376 425.096 126.391 425.4L126.493 427.461C126.507 427.757 126.67 427.99 126.848 427.98ZM126.643 423.855C126.827 423.845 126.967 423.581 126.953 423.281L126.845 421.217C126.825 420.921 126.674 420.691 126.495 420.697C126.313 420.633 126.165 420.963 126.181 421.271L126.288 423.336C126.307 423.632 126.464 423.865 126.643 423.855ZM125.803 407.349C125.987 407.339 126.127 407.079 126.112 406.774L126.01 404.71C125.995 404.414 125.833 404.181 125.654 404.19C125.471 404.201 125.33 404.461 125.346 404.765L125.448 406.829C125.463 407.126 125.625 407.359 125.803 407.349ZM126.013 411.474C126.197 411.464 126.337 411.203 126.322 410.899L126.22 408.839C126.205 408.543 126.043 408.309 125.865 408.319C125.681 408.329 125.541 408.589 125.556 408.893L125.658 410.954C125.672 411.25 125.834 411.484 126.013 411.474ZM126.223 415.602C126.407 415.592 126.547 415.333 126.532 415.028L126.43 412.964C126.415 412.667 126.253 412.434 126.075 412.443C125.891 412.454 125.751 412.714 125.765 413.018L125.868 415.083C125.883 415.379 126.044 415.612 126.223 415.602ZM127.475 433.595C127.455 433.286 127.258 433.041 127.115 433.075C126.931 433.089 126.796 433.349 126.81 433.649L126.865 434.702C126.885 434.998 127.042 435.231 127.22 435.221C127.404 435.212 127.544 434.947 127.529 434.647L127.475 433.595Z" fill="black"/>
<path d="M255.366 260.895C247.061 256.27 244.135 250.128 241.938 246.321C257.477 231.374 292.402 198.965 314.852 170.755C317.022 171.45 332.517 183.876 332.875 185.706C322.147 203.849 302.836 232.039 276.863 258.012C272.275 262.599 259.761 263.342 255.366 260.895Z" fill="#EFC09F"/>
<path d="M311.161 136.387C307.578 131.835 306.295 137.52 305.489 141.51C300.451 166.46 303.029 171.214 312.049 183.185C315.72 193.044 326.937 191.516 331.749 188.261C341.525 181.649 353.043 160.639 358.728 145.032C360.807 139.324 361.755 130.157 360.188 129.557C357.21 128.418 355.365 136.891 352.829 142.43C350.992 146.444 347.231 150.462 346.126 151.265C346.883 149.124 351.232 139.505 351.912 137.471C354.255 130.457 355.707 117.98 354.385 117.457C349.42 115.49 348.309 126.011 345.213 134.403C344.211 137.118 340.001 145.576 337.921 149.178C338.152 146.769 340.298 139.527 341.857 134.193C345.374 122.155 348.407 113.098 346.985 112.331C341.433 109.336 338.248 119.099 333.669 132.672C332.577 135.91 329.357 144.692 328.405 147.147C327.943 146.427 328.546 140.439 330.248 134.207C332.694 125.252 337.823 115.623 334.308 114.406C332.009 113.61 327.013 120.366 322.677 131.755C319.764 139.406 317.083 148.799 314.222 156.373C310.08 157.771 315.001 141.264 311.161 136.387Z" fill="#EEBF9E"/>
<path opacity="0.14" d="M323.421 166.286C323.935 170.355 321.155 172.939 322.604 173.799C324.613 174.991 327.533 171.293 327.022 167.83C325.995 160.876 318.97 157.665 320.547 159.06C322.224 160.544 323.227 164.754 323.421 166.286Z" fill="#82220F"/>
<path d="M254.329 267.187C245.917 262.487 240.431 252.541 238.198 248.689C253.853 233.647 280.825 207.105 304.947 180.911C307.144 181.621 327.87 196.534 328.238 198.382C315.926 216.043 301.847 237.836 276.534 263.784C271.972 268.46 258.78 269.674 254.329 267.187Z" fill="#D95117"/>
<path d="M263.314 226.392C249.798 218.598 179.462 187.218 172.643 188.371C168.112 189.137 176.084 239.858 177.12 251.994C182.349 255.292 237.162 264.523 255.956 267.779C259.466 258.456 262.426 233.693 263.314 226.392Z" fill="#D95117"/>
<path d="M12.4028 273.205C13.2511 268.629 31.2954 207.6 36.2597 202.785C39.5573 199.586 57.2248 193.332 64.0731 191.07C64.3481 197.944 62.8661 283.465 58.1303 292.049C53.2949 291.368 15.4971 275.293 12.4028 273.205Z" fill="#D95117"/>
<path d="M194.648 343.758C193.059 312.407 196.03 223.099 196.621 195.377C194.354 193.498 167.105 183.135 147.828 175.99C138.714 172.613 109.122 173.937 99.0157 176.963C78.8271 183.008 59.8609 191.551 50.0001 195.674C52.9748 230.299 55.8492 324.578 55.8492 353.907C55.8492 367.917 56.2437 412.658 56.2437 419.614C68.971 423.017 103.963 423.228 121.149 422.931C156.277 422.325 193.44 416.938 196.696 415.236C196.548 409.908 194.774 346.227 194.648 343.758Z" fill="#D95117"/>
<path d="M124.182 209.521C143.279 209.521 158.738 196.169 159.67 181.54C155.194 179.839 150.847 178.206 146.964 176.766C137.85 173.389 108.259 174.713 98.1519 177.74C94.9175 178.708 91.7395 179.753 88.6001 180.821C89.0485 195.793 104.767 209.521 124.182 209.521Z" fill="#832F0B"/>
<path d="M154.31 180.388C154.31 180.099 154.214 179.832 154.2 179.547C150.974 178.327 147.852 177.156 145.012 176.103C136.679 173.015 109.623 174.225 100.383 176.993C98.416 177.581 96.3526 178.226 94.2475 178.898C94.2063 179.4 94.0542 179.877 94.0542 180.388C94.0542 193.29 107.543 203.75 124.182 203.75C140.821 203.75 154.31 193.29 154.31 180.388Z" fill="#CC936E"/>
<path d="M152.943 158L153.997 187.884C154.224 194.31 141.437 199.731 125.436 199.99C109.435 200.25 96.2809 195.249 96.0537 188.824L95 158.939L152.943 158Z" fill="#CC936E"/>
<path d="M202.681 118.445C199.021 135.459 183.753 146.579 171.982 145.323C160.211 144.066 157.541 130.295 159.112 113.967C160.686 97.6403 171.508 85.3811 183.276 86.6787C199.36 88.4543 206.119 102.453 202.681 118.445Z" fill="#EEBF9E"/>
<path d="M188.693 122.571C188.001 129.73 182.579 135.014 176.579 134.375C170.582 133.734 166.277 127.411 166.969 120.252C167.659 113.093 173.082 107.81 179.078 108.449C185.078 109.089 189.381 115.413 188.693 122.571Z" fill="#CC936E"/>
<path d="M40.4707 125.006C45.3278 141.684 61.3458 151.571 72.9944 149.391C84.6431 147.21 86.3262 133.267 83.5988 117.11C80.868 100.952 69.204 89.5802 57.56 91.8011C41.6478 94.8377 35.9046 109.33 40.4707 125.006Z" fill="#EEBF9E"/>
<path d="M55.5744 127.986C56.7715 135.07 62.5546 139.913 68.4906 138.803C74.4266 137.691 78.2694 131.047 77.0723 123.962C75.8753 116.878 70.092 112.037 64.156 113.147C58.2201 114.257 54.3773 120.902 55.5744 127.986Z" fill="#CC936E"/>
<path d="M55.9576 47.8574C52.3129 57.3762 61.7584 137.875 71.1499 149.029C81.1108 160.861 103.086 173.809 122.584 173.318C140.503 172.868 167.747 158.092 174.636 144.384C182.787 128.162 187.041 56.8159 183.949 48.1821C173.497 19.0216 149.276 18.9801 117.641 20.2276C88.0459 21.3946 65.4132 23.1597 55.9576 47.8574Z" fill="#EEBF9E"/>
<path d="M115.895 124.727C116.244 124.713 116.541 124.436 116.588 124.06C116.911 121.388 118.844 119.594 121.513 119.488C124.196 119.383 126.299 121.052 126.746 123.643C126.819 124.057 127.199 124.333 127.591 124.257C127.986 124.182 128.247 123.784 128.175 123.369C127.603 120.051 124.84 117.827 121.458 117.961C118.095 118.093 115.559 120.466 115.145 123.866C115.095 124.285 115.377 124.667 115.774 124.721L115.895 124.727Z" fill="#AF725C"/>
<path d="M73.0603 74.3513C73.5486 74.3061 74.0217 74.0779 74.3801 73.6741C78.9716 68.526 88.3272 66.3422 96.1608 68.6107C97.2474 68.9317 98.3845 68.2538 98.6907 67.0961C98.9921 65.9445 98.3486 64.7533 97.2514 64.4336C87.9052 61.734 77.0199 64.3742 71.3777 70.7153C70.6014 71.5886 70.6438 72.9573 71.4736 73.7742C71.9161 74.2146 72.4973 74.4038 73.0603 74.3513Z" fill="#67290A"/>
<path d="M169.658 71.0968C170.224 71.0918 170.784 70.8451 171.185 70.3621C171.936 69.4647 171.853 68.0979 171.001 67.3075C164.801 61.5656 153.728 60.0411 144.673 63.6696C143.611 64.0989 143.079 65.3494 143.484 66.4651C143.892 67.587 145.083 68.1461 146.14 67.7175C153.728 64.6648 163.247 65.8844 168.283 70.5556C168.676 70.9217 169.168 71.1011 169.658 71.0968Z" fill="#67290A"/>
<path d="M137.776 93.3543C133.221 100.955 134.012 109.137 138.233 112.116C144.594 116.604 159.4 117.454 164.743 110.484C169.918 103.734 167.041 91.8365 158.21 86.9705C150.48 82.7105 142.184 85.9976 137.776 93.3543Z" fill="#F9FDFF"/>
<path d="M165.24 90.3606C158.178 79.0458 141.973 83.4963 137.624 93.6119C142.174 86.0147 150.864 83.4573 158.011 87.3914C162.428 89.8269 165.635 94.3145 166.591 99.3964C167.352 103.449 166.596 108.047 164.447 110.851C166.954 108.984 170.433 98.6808 165.24 90.3606Z" fill="#67290A"/>
<path d="M139.639 98.2598C137.824 103.481 140.263 109.277 145.086 111.206C149.909 113.135 155.289 110.465 157.104 105.244C158.918 100.022 156.479 94.2262 151.656 92.2978C146.834 90.3695 141.453 93.0388 139.639 98.2598Z" fill="#67290A"/>
<path d="M140.378 97.3469C139.874 98.7953 140.551 100.403 141.889 100.938C143.227 101.474 144.72 100.733 145.223 99.2846C145.727 97.8361 145.05 96.2275 143.712 95.6925C142.374 95.1575 140.881 95.8978 140.378 97.3469Z" fill="#FDFFFD"/>
<path d="M104.302 94.2571C109.12 101.606 108.617 109.823 104.504 113.026C98.3067 117.853 83.544 119.5 77.9613 112.826C72.5542 106.361 75.0111 94.3202 83.6622 88.9822C91.236 84.3091 99.6402 87.1454 104.302 94.2571Z" fill="#F9FDFF"/>
<path d="M76.7592 92.748C83.4175 81.0633 99.7627 84.6356 104.464 94.5069C99.6504 87.162 90.8796 85.0759 83.8776 89.3922C79.5506 92.0633 76.5041 96.7197 75.7273 101.849C75.1084 105.938 76.0258 110.491 78.2713 113.176C75.7002 111.447 71.8634 101.34 76.7592 92.748Z" fill="#67290A"/>
<path d="M85.2789 99.7269C83.4642 104.948 85.903 110.744 90.726 112.673C95.5489 114.602 100.93 111.932 102.744 106.711C104.558 101.49 102.12 95.6933 97.2966 93.765C92.4736 91.8359 87.093 94.5053 85.2789 99.7269Z" fill="#67290A"/>
<path d="M86.0182 98.8135C85.5146 100.263 86.191 101.871 87.5291 102.406C88.8672 102.941 90.3599 102.2 90.8635 100.752C91.3672 99.3028 90.6901 97.6947 89.352 97.1598C88.0139 96.6248 86.5212 97.3651 86.0182 98.8135Z" fill="#FDFFFD"/>
<path d="M46.1499 62.0087C38.9081 59.3128 34.2028 50.9951 34 42.0676C53.5345 49.9128 53.2612 18.5882 74.6111 9.38549C118.321 -9.45539 158.994 4.70618 170.594 11.8773C191.97 25.0914 194.694 39.3785 192.87 59.3072C189.942 91.2886 186.06 108.198 181.239 121.327C181.068 113.795 181.858 55.0844 180.492 51.4806C179.399 48.5985 166.596 33.5773 162.473 33.4493C153.488 33.1703 144.688 62.4824 112.88 61.9357C125.714 54.5946 132.712 44.2044 139.768 29.3922C137.274 30.9723 134.774 32.8902 132.298 35.2224C106.213 59.7847 82.1396 65.9409 59.7049 63.882C59.91 89.6522 61.7048 115.874 62.7967 130.403C59.3541 118.983 54.8691 104.193 46.1499 62.0087Z" fill="#67290A"/>
<path d="M97.2371 138.805C97.6279 148.456 108.952 155.785 122.529 155.176C136.106 154.567 146.796 146.25 146.405 136.6C146.014 126.95 134.55 129.281 120.946 129.248C107.36 129.215 96.8463 129.155 97.2371 138.805Z" fill="#EEBF9E"/>
<path d="M101.079 138.818C101.391 146.539 110.935 152.38 122.395 151.867C133.855 151.353 142.892 144.677 142.579 136.957C142.266 129.236 132.586 131.123 121.105 131.124C109.639 131.124 100.766 131.097 101.079 138.818Z" fill="#551104"/>
<path d="M120.868 144.613C127.062 144.334 132.563 145.76 135.784 148.132C132.207 150.357 127.547 151.812 122.402 152.043C116.61 152.303 111.302 150.964 107.387 148.588C110.519 146.393 115.369 144.859 120.868 144.613Z" fill="#BA6555"/>
<path d="M106.652 132.007C110.302 130.887 115.376 130.949 121.094 131.017C127.546 131.094 133.423 130.431 137.468 131.492C135.986 135.504 129.62 137.923 122.207 138.255C114.26 138.611 107.862 136.327 106.652 132.007Z" fill="white"/>
<path opacity="0.3" d="M52.0879 262.844C52.8857 279.789 53.5998 297.166 54.1319 312.624C92.7155 318.178 153.946 318.355 193.371 313.001C193.567 299.101 193.736 280.048 194.156 262.915C154.145 264.938 93.1267 265.093 52.0879 262.844Z" fill="white"/>
<path opacity="0.3" d="M52.1123 239.021C52.2751 243.325 52.4072 247.313 52.5109 250.98C93.5643 254.957 154.9 254.951 195.793 251.03C195.75 247.491 195.815 243.443 195.955 239.05C153.168 243.649 94.1396 243.916 52.1123 239.021Z" fill="white"/>
<path d="M6.97434 439.025C8.3083 440.235 9.9916 442.584 20.4943 449.224C23.7469 451.28 36.8179 448.346 43.561 446.436C42.4421 439.761 34.5128 441.937 25.274 441.998L7.86855 426.97C4.57327 427.463 5.47169 437.66 6.97434 439.025Z" fill="#CD946E"/>
<path d="M8.21476 441.535C9.312 443.02 10.5199 445.733 19.786 454.485C22.6562 457.196 36.604 456.683 43.8842 456.015C44.1839 449.003 35.6383 449.717 26.214 448.03L11.7256 429.425C8.26235 429.303 6.97818 439.86 8.21476 441.535Z" fill="#CD946E"/>
<path d="M9.63827 443.559C10.2986 445.256 10.7328 448.167 17.3282 458.834C19.3714 462.138 33.002 464.955 40.2255 466.038C42.4124 459.327 33.9529 457.988 25.2925 454.117L16.3107 432.678C12.9938 431.738 8.89532 441.645 9.63827 443.559Z" fill="#CD946E"/>
<path d="M32.0265 470.852C21.5449 468.269 12.1625 464.397 10.1249 461.09C7.61879 457.024 3.18497 450.073 0.702644 445.274C-0.970879 442.041 0.505951 427.496 3.43286 412.287C3.81871 410.282 11.115 407.947 14.5209 408.548C33.4732 411.893 33.4501 422.328 35.2378 430.094C36.181 434.19 35.931 446.439 35.5529 452.361C21.8795 453.326 28.0801 434.739 20.9567 435.223C15.6882 435.58 14.5706 441.517 15.4998 444.704C16.5194 448.199 19.6115 456.255 20.6556 457.06C29.6184 463.972 36.772 465.436 32.0265 470.852Z" fill="#EFC09F"/>
<path d="M5.55096 317.47C6.44585 312.95 8.25454 284.223 10.851 271.135C15.5495 247.454 21.9313 210.506 27.1641 205.749C30.64 202.59 49.0405 195.874 56.2584 193.641C56.5491 200.43 55.5176 256.008 55.3881 274.322C55.3131 284.78 48.4488 304.244 43.8294 321.632C38.7325 320.961 8.81327 319.532 5.55096 317.47Z" fill="#D95117"/>
<path d="M5.94254 314.669C16.1 314.283 37.1376 318.056 44.0586 320.572C41.3025 342.123 37.5535 378.985 32.9285 412.953C30.3265 413.651 3.64721 412.107 1.96453 410.847C1.80422 393.056 0.818302 352.984 5.94254 314.669Z" fill="#D95117"/>
</g>
<defs>
<clipPath id="clip0_1976_6183">
<rect width="360.969" height="740" fill="white"/>
</clipPath>
</defs>
</svg>
