<svg width="300" height="800" viewBox="0 0 300 800" fill="none" xmlns="http://www.w3.org/2000/svg">
<g clip-path="url(#clip0_1976_6089)">
<path d="M165.567 183.707H107.234C107.234 183.707 104.136 165.769 107.234 160.844C109.421 157.366 164.109 158.484 165.567 160.844C168.623 165.791 165.567 183.707 165.567 183.707Z" fill="#548D98"/>
<path d="M112.966 728.171H72.5261V761.334H112.966V728.171Z" fill="#161A1B"/>
<path d="M70.9896 746.832C72.4574 743.459 98.8129 745.294 99.5029 746.527C100.405 748.14 103.355 753.381 107.501 752.724C109.217 752.453 110.1 751.022 110.39 750.522C110.65 750.071 114.591 751.122 114.595 751.956C114.618 756.559 115.189 773.896 114.609 774.464C108.9 777.808 107.65 776.746 103.147 779.169C95.6624 783.195 91.1533 786.248 84.8839 788.164C73.6967 791.584 63.2564 791.279 53.0778 790.962C41.2195 790.592 33.3267 787.801 33.9243 783.556C35.3541 773.396 47.2203 770.616 62.2329 759.245C67.5261 755.236 69.8792 749.384 70.9896 746.832Z" fill="#9A4636"/>
<path opacity="0.2" d="M96.6805 776.528C100.188 774.083 105.626 772.95 109.612 769.886C112.467 767.691 114.592 751.404 114.595 751.957C114.618 756.559 115.189 773.897 114.609 774.464C108.9 777.809 107.65 776.747 103.147 779.169C95.6624 783.195 91.1533 786.249 84.8839 788.165C73.6968 791.584 63.2565 791.279 53.0778 790.962C41.2196 790.592 33.405 787.812 33.9243 783.557C36.3081 787.471 53.8081 791.638 75.7083 787.6C88.4659 785.247 89.2651 781.697 96.6805 776.528Z" fill="#790000"/>
<path d="M115.46 775.252C115.492 774.299 115.274 774.357 114.538 774.147C114.441 774.433 114.352 774.753 114.222 774.802C105.973 777.915 103.546 778.853 99.0538 780.787C92.0637 783.797 90.9942 786.731 84.6371 788.453C74.2964 791.254 63.6112 792.214 53.6167 791.623C42.3149 790.954 35.3831 788.785 34.2181 784.496C33.9612 783.551 33.8024 782.648 34.2885 781.78C33.1859 782.901 33.0973 783.557 33.0673 784.196C32.9013 787.759 33.1606 792.111 33.6063 793.133C36.519 799.84 62.5797 800.348 78.2444 797.387C86.9016 795.75 91.9285 791.391 99.2293 787.103C104.538 783.984 108.843 783.315 115.023 780.787C115.563 780.567 115.402 776.981 115.46 775.252Z" fill="#743939"/>
<path d="M115.46 774.55C115.492 773.596 115.274 773.655 114.538 773.445C114.441 773.731 114.352 774.051 114.222 774.1C105.973 777.213 103.546 778.151 99.0538 780.086C92.0637 783.096 90.9942 786.029 84.6371 787.75C74.2964 790.551 63.6112 791.512 53.6167 790.921C42.3149 790.251 35.3831 788.084 34.2181 783.793C33.9612 782.849 34.3604 781.694 34.8457 780.827C33.7431 781.947 33.0973 782.856 33.0673 783.493C32.9013 787.057 33.1606 791.41 33.6063 792.431C36.519 799.138 62.5797 799.646 78.2444 796.685C86.9016 795.048 91.9285 790.69 99.2293 786.401C104.538 783.282 108.843 782.613 115.023 780.086C115.563 779.865 115.402 776.28 115.46 774.55Z" fill="#6B281F"/>
<path d="M245.786 759.464H199.978L195.897 728.886H241.705L245.786 759.464Z" fill="#161A1B"/>
<path d="M290.834 775.151C294.424 776.663 297.812 781.613 297.845 784.703C297.926 792.189 262.36 793.571 245.607 790.81C238.582 789.652 226.003 785.036 218.439 783.955C208.172 782.488 199.036 780.289 195.372 776.567C195.221 775.436 195.507 764.651 195.809 754.395C195.857 752.744 198.372 751.833 200.336 752.192C202.218 754.863 206.294 755.371 209.956 752.401C210.655 751.835 216.087 749.419 218.684 745.814C220.057 743.907 237.137 743.396 244.847 744.822C252.527 756.131 266.92 765.08 290.834 775.151Z" fill="#9A4636"/>
<path opacity="0.2" d="M297.845 784.032C298.788 793.142 262.36 793.572 245.607 790.81C238.582 789.652 226.003 785.037 218.439 783.955C208.172 782.489 199.036 780.289 195.372 776.568C195.221 775.437 195.507 764.652 195.809 754.396C195.857 752.745 196.528 769.032 202.441 773.295C207.002 776.584 215.445 777.19 224.419 778.444C232.564 779.583 242.184 785.915 253.576 787.611C263.468 789.084 288.568 791.688 297.845 784.032Z" fill="#70002A"/>
<path d="M298.856 793.331C299.228 792.542 299.201 790.161 299.199 787.1C299.198 786.183 298.127 784.872 297.743 784.302C299.6 791.807 265.117 793.351 245.893 790.14C238.872 788.968 229.955 784.681 222.4 783.568C212.511 782.111 199.036 780.289 195.372 776.567C194.643 776.567 194.786 777.436 194.792 778.241C194.818 781.571 194.973 783.493 195.517 783.721C205.295 787.817 217.504 789.259 224.716 791.311C231.816 793.332 238.42 795.829 245.583 797.355C258.784 800.167 296.414 798.513 298.856 793.331Z" fill="#743939"/>
<path d="M298.856 792.684C299.228 791.894 299.201 789.514 299.199 786.452C299.198 785.535 298.128 784.225 297.743 783.656C299.6 791.16 265.118 792.703 245.893 789.493C238.872 788.32 229.955 784.033 222.4 782.92C212.511 781.463 198.991 779.634 195.328 775.911C194.599 775.911 194.786 776.789 194.793 777.594C194.819 780.924 194.973 782.846 195.517 783.074C205.295 787.17 217.504 788.611 224.716 790.664C231.816 792.685 238.42 795.181 245.583 796.708C258.784 799.52 296.414 797.866 298.856 792.684Z" fill="#6B281F"/>
<path d="M128.046 478.27C128.046 478.27 134.449 480.48 134.666 477.066C136.42 468.174 145.013 468.329 147.172 476.538C148.001 479.691 154.966 477.686 154.966 477.686L154.461 440.226L127.542 440.81L128.046 478.27Z" fill="#375067"/>
<path d="M133.891 450.866L131.566 387.678L213.745 383.453C221.547 472.428 243 697.509 246.143 734.055C236.993 740.683 196.106 741.959 192.493 739.775C187.388 723.111 160.12 525.9 145.538 468.726C143.097 459.155 134.059 451.987 133.891 450.866Z" fill="#375067"/>
<path d="M138.996 458.163L135.15 386.433H60.8504C61.3784 464.362 67.1411 706.08 68.4215 739.446C78.5725 744.737 118.622 741.002 121.827 738.345C122.705 720.607 131.649 533.883 135.851 470.724C135.89 470.533 139.016 459.295 138.996 458.163Z" fill="#375067"/>
<path opacity="0.65" d="M134.866 412.787C135.084 412.776 135.251 412.481 135.234 412.147L135.169 410.973C135.146 410.643 134.959 410.382 134.747 410.394C134.528 410.405 134.361 410.699 134.378 411.034L134.443 412.208C134.467 412.538 134.653 412.798 134.866 412.787ZM136.227 430.549L136.105 428.253C136.088 427.922 135.901 427.667 135.689 427.673C135.476 427.689 135.297 427.961 135.315 428.313L135.437 430.611C135.454 430.941 135.641 431.197 135.853 431.191C136.048 431.166 136.245 430.894 136.227 430.549ZM136.109 435.793C136.328 435.782 136.495 435.492 136.477 435.153L136.355 432.851C136.338 432.521 136.145 432.261 135.933 432.272C135.714 432.283 135.547 432.573 135.565 432.912L135.686 435.214C135.705 435.544 135.897 435.804 136.109 435.793ZM136.609 444.994C136.828 444.983 136.995 444.694 136.977 444.355L136.855 442.053C136.837 441.722 136.651 441.466 136.438 441.473C136.184 441.467 136.046 441.765 136.064 442.113L136.187 444.415C136.204 444.746 136.396 445.006 136.609 444.994ZM136.727 439.751L136.605 437.454C136.588 437.124 136.395 436.864 136.183 436.875C135.964 436.886 135.797 437.176 135.815 437.515L135.936 439.812C135.954 440.143 136.14 440.398 136.354 440.392C136.596 440.403 136.745 440.1 136.727 439.751ZM135.359 421.989C135.578 421.977 135.745 421.688 135.728 421.349L135.606 419.051C135.589 418.721 135.402 418.465 135.189 418.471C134.929 418.452 134.797 418.764 134.816 419.113L134.937 421.409C134.955 421.74 135.148 422 135.359 421.989ZM135.61 426.592C135.828 426.58 135.996 426.291 135.977 425.952L135.856 423.65C135.838 423.32 135.645 423.06 135.433 423.071C135.215 423.082 135.047 423.371 135.065 423.711L135.187 426.012C135.204 426.343 135.397 426.603 135.61 426.592ZM135.478 416.75L135.355 414.448C135.338 414.118 135.146 413.858 134.933 413.869C134.714 413.88 134.548 414.17 134.565 414.509L134.687 416.811C134.705 417.141 134.891 417.398 135.104 417.391C135.34 417.392 135.496 417.098 135.478 416.75ZM136.677 446.076C136.458 446.092 136.297 446.382 136.315 446.716L136.379 447.886C136.403 448.215 136.589 448.476 136.802 448.465C137.02 448.454 137.187 448.159 137.169 447.824L137.105 446.656C137.081 446.312 136.848 446.053 136.677 446.076ZM138.507 411.895L138.443 410.721C138.419 410.391 138.239 410.135 138.026 410.142C137.784 410.158 137.634 410.434 137.652 410.782L137.717 411.955C137.74 412.286 137.921 412.542 138.134 412.535C138.319 412.584 138.526 412.238 138.507 411.895ZM139.139 430.937C139.358 430.926 139.525 430.632 139.506 430.298L139.379 428C139.356 427.671 139.169 427.41 138.956 427.421C138.738 427.432 138.571 427.727 138.589 428.062L138.716 430.358C138.74 430.689 138.926 430.949 139.139 430.937ZM139.883 444.743C140.102 444.731 140.268 444.441 140.251 444.102L140.129 441.8C140.105 441.457 139.959 441.2 139.7 441.221C139.482 441.237 139.321 441.522 139.338 441.862L139.461 444.163C139.478 444.493 139.67 444.754 139.883 444.743ZM139.633 440.14C139.851 440.128 140.019 439.838 140 439.499L139.879 437.202C139.861 436.872 139.668 436.611 139.457 436.623C139.238 436.634 139.071 436.924 139.088 437.263L139.21 439.56C139.227 439.89 139.42 440.15 139.633 440.14ZM139.389 435.541C139.608 435.529 139.774 435.235 139.757 434.901L139.629 432.599C139.605 432.269 139.425 432.013 139.212 432.02C138.997 431.948 138.82 432.316 138.839 432.66L138.967 434.961C138.99 435.292 139.176 435.552 139.389 435.541ZM138.39 417.138C138.608 417.127 138.775 416.837 138.757 416.498L138.636 414.196C138.618 413.866 138.425 413.606 138.213 413.617C137.994 413.628 137.827 413.917 137.845 414.257L137.967 416.558C137.984 416.889 138.177 417.149 138.39 417.138ZM138.639 421.736C138.858 421.725 139.025 421.435 139.007 421.096L138.885 418.799C138.868 418.469 138.675 418.209 138.462 418.22C138.244 418.231 138.077 418.521 138.095 418.86L138.217 421.157C138.234 421.487 138.427 421.747 138.639 421.736ZM138.889 426.34C139.107 426.328 139.275 426.038 139.257 425.699L139.135 423.397C139.118 423.067 138.925 422.807 138.712 422.818C138.494 422.829 138.326 423.119 138.345 423.459L138.466 425.76C138.484 426.09 138.677 426.35 138.889 426.34ZM140.378 446.399C140.355 446.055 140.121 445.782 139.95 445.819C139.732 445.836 139.571 446.125 139.588 446.46L139.653 447.633C139.676 447.964 139.863 448.224 140.076 448.213C140.294 448.201 140.46 447.907 140.443 447.573L140.378 446.399Z" fill="black"/>
<path opacity="0.36" d="M213.681 377.266C213.612 390.756 217.723 421.721 217.704 425.662C205.974 421.388 197.05 410.13 198.435 398.303C199.584 388.495 204.191 380.817 213.681 377.266Z" fill="black"/>
<path opacity="0.36" d="M60.3232 375.299C61.0623 388.771 61.0369 419.937 61.2511 423.873C72.7569 419.092 81.1121 407.457 79.1416 395.704C77.5079 385.956 69.9795 378.432 60.3232 375.299Z" fill="black"/>
<path d="M121.5 403.546C99.3196 403.348 76.9255 401.93 58.4746 397.5L59.5471 381.856C118.992 396.131 207.986 382.057 214.484 377.555L215.776 393.422C209.625 397.12 169.647 403.974 121.5 403.546Z" fill="#2B1111"/>
<path d="M153.788 406.783L120.586 407.178L120.318 387.434L153.521 387.04L153.788 406.783ZM124.752 403.333L149.52 403.038L149.355 390.885L124.587 391.18L124.752 403.333Z" fill="#6E6969"/>
<path d="M87.0331 403.902C86.3131 403.931 79.8603 403.483 79.8603 403.483C77.5405 397.113 79.8746 385.714 83.2638 383.524C84.345 383.536 89.1024 383.795 89.8872 383.872C86.4301 388.49 85.6112 399.035 87.0331 403.902Z" fill="#375067"/>
<path d="M178.821 384.509C179.52 384.346 185.941 383.579 185.941 383.579C189.598 389.383 189.787 400.977 186.941 403.754C185.879 403.946 181.16 404.58 180.374 404.651C182.759 399.485 181.272 389.008 178.821 384.509Z" fill="#375067"/>
<path d="M266.141 416.179L235.63 416.875L236.293 442.387L266.804 441.691L266.141 416.179Z" fill="#EFC09F"/>
<path opacity="0.2" d="M210.516 295.789C210.516 295.789 218.211 319.58 220.817 330.11C220.638 319.16 223.546 245.138 223.546 245.138L190.607 242.121L210.516 295.789Z" fill="black"/>
<path opacity="0.2" d="M57.696 298.857C57.696 298.857 47.6027 320.701 44.9952 331.23C45.1754 320.28 44.4814 243.936 44.4814 243.936H74.9557L57.696 298.857Z" fill="black"/>
<path d="M213.24 369.526C211.349 334.573 228.317 225.152 226.971 194.435C224.273 192.34 187.894 179.133 164.957 171.168C154.114 167.402 118.906 168.878 106.881 172.252C82.8599 178.992 49.2951 190.778 37.5389 196.728C41.2648 237.363 57.8077 347.208 57.7658 372.29C57.754 378.859 49.7472 381.766 58.3949 386.99C77.8259 391.559 106.432 392.511 128.488 392.154C170.285 391.479 212.659 385.026 215.554 381.523C220.814 376.223 213.389 372.278 213.24 369.526Z" fill="#67ADC4"/>
<path d="M137.165 195.05C122.36 195.05 110.36 187.728 110.36 178.696V134.081H163.969V178.696C163.969 187.728 151.969 195.05 137.165 195.05Z" fill="#EEBF9E"/>
<path d="M160.074 191.601L139.484 196.97L135.965 193.731L149.106 185.423L160.074 191.601Z" fill="#345A63"/>
<path opacity="0.2" d="M165.713 205.373C172.369 194.835 175.52 183.601 172.261 175.441L170.497 172.312C170.497 172.312 159.381 180.987 149.106 185.424C147.318 186.351 138.555 192.292 136.873 193.199C149.566 199.426 158.226 202.253 165.713 205.373Z" fill="black"/>
<path d="M163.125 202.748C172.207 189.737 173.186 179.036 171.73 174.813L165.567 160.844C167.556 173.07 162.386 179.389 148.982 184.468C147.137 185.167 143.562 188.406 136.873 193.199C143.99 189.68 147.875 186.267 149.41 186.851C152.344 187.968 157.163 194.53 163.125 202.748Z" fill="#6AAEC3"/>
<path d="M112.924 191.601L133.925 196.97L137.514 193.731L124.111 185.423L112.924 191.601Z" fill="#345A63"/>
<path opacity="0.2" d="M107.173 205.373C100.384 194.834 97.0709 183.856 100.394 175.695L102.963 175.049C102.963 175.049 113.631 180.986 124.111 185.423C125.935 186.351 134.872 192.292 136.589 193.198C123.641 199.426 114.81 202.252 107.173 205.373Z" fill="black"/>
<path d="M109.813 202.748C100.549 189.737 99.4507 179.291 100.936 175.068L107.127 160.389C105.098 172.615 110.567 179.389 124.238 184.468C126.119 185.167 129.765 188.405 136.589 193.199C129.329 189.68 125.367 186.267 123.802 186.851C120.809 187.968 115.894 194.53 109.813 202.748Z" fill="#6AAEC3"/>
<path d="M142.243 211.22H130.799L122.383 334.374L136.893 357.071L152.466 334.374L142.243 211.22Z" fill="#3C6A80"/>
<path opacity="0.39" d="M147.004 268.563C140.032 275.268 130.977 283.89 125.484 289.01L125.18 293.459C130.833 288.216 140.148 279.355 147.327 272.462L147.004 268.563ZM145.092 245.519C139.355 251.149 133.063 257.111 127.306 262.349L127.003 266.781C132.843 261.513 139.393 255.317 145.417 249.429L145.092 245.519ZM143.333 224.317C139.197 228.42 133.635 233.735 128.961 238.126L128.656 242.601C133.489 238.088 139.269 232.584 143.659 228.252L143.333 224.317ZM148.986 292.433C140.412 300.641 129.136 311.341 123.608 316.466L123.304 320.909C129.003 315.652 140.539 304.718 149.309 296.331L148.986 292.433ZM150.84 314.781C142.124 323.091 131.128 333.493 125.29 338.922L126.961 341.534C133.25 335.674 143.154 326.309 151.163 318.679L150.84 314.781Z" fill="#CFF0FA"/>
<path opacity="0.5" d="M142.144 210.306C141.875 207.842 131.097 207.972 130.936 210.471L129.986 218.521L142.613 214.175L142.144 210.306Z" fill="black"/>
<path d="M142.034 212.479C139.374 213.101 133.315 213.094 131.233 212.677C130.477 212.691 129.802 212.234 129.574 211.555L124.619 196.756C124.277 195.734 125.092 194.861 126.211 194.669C127.908 194.375 129.658 193.804 136.619 193.655C141.989 193.541 143.762 193.889 146.475 194.298C147.605 194.468 148.46 195.303 148.148 196.34L143.64 211.313C143.436 211.992 142.762 212.309 142.034 212.479Z" fill="#3C6A80"/>
<path opacity="0.23" d="M110.359 166.238C116.207 170.573 127.515 172.143 139.713 169.665C151.008 167.37 159.98 162.202 163.969 156.517V144.858C159.021 139.215 114.957 145.766 110.359 150.523V166.238Z" fill="#702525"/>
<path d="M202.578 86.3148C195.43 85.5483 189.783 91.534 186.649 101.423C183.129 112.53 187.308 118.775 190.136 120.141C195.508 122.737 206.071 117.362 210.523 106.833C214.532 97.3471 211.005 87.2176 202.578 86.3148Z" fill="#EEBF9E"/>
<path d="M199.155 96.2659C195.573 94.6581 191.005 97.1769 188.953 101.893C186.9 106.609 188.141 111.737 191.723 113.346C195.306 114.954 199.874 112.435 201.926 107.718C203.978 103.002 202.738 97.8739 199.155 96.2659Z" fill="#CC936E"/>
<path d="M69.7831 86.3148C76.9306 85.5483 82.5771 91.534 85.711 101.423C89.2314 112.53 85.0526 118.775 82.2246 120.141C76.8523 122.737 66.2895 117.362 61.838 106.833C57.8284 97.3471 61.3551 87.2176 69.7831 86.3148Z" fill="#EEBF9E"/>
<path d="M73.2067 96.2659C76.7887 94.6581 81.3564 97.1769 83.4082 101.893C85.4608 106.609 84.22 111.737 80.6379 113.346C77.0551 114.954 72.4874 112.435 70.4356 107.718C68.3829 103.002 69.6238 97.8739 73.2067 96.2659Z" fill="#CC936E"/>
<path d="M70.1321 55.1267C79.3812 30.1991 129.46 29.8976 136.187 29.8309C142.545 29.7673 193.781 30.2138 202.319 55.1275C203.677 59.0927 190.269 126.653 183.827 138.532C181.359 143.084 173.552 149.989 168.497 153.051C160.146 158.111 154.042 162.382 143.624 164.6C142.994 164.734 129.456 164.734 128.826 164.6C118.409 162.382 112.303 158.111 103.953 153.051C98.8975 149.989 91.0908 143.084 88.6225 138.532C82.1808 126.653 68.673 59.0609 70.1321 55.1267Z" fill="#EEBF9E"/>
<path d="M135.489 115.459C135.489 115.459 154.663 115.128 157.128 116.558C159.815 118.117 168.514 125.468 170.392 126.017C177.591 128.125 192.727 109.922 192.727 109.922C194.649 125.546 190.673 140.317 189.734 142.442C187.65 147.159 175.229 157.488 169.923 160.151C161.06 164.598 154.809 167.402 146.71 169.255C146.37 169.333 139.29 169.36 135.489 169.355V115.459Z" fill="#722717"/>
<path d="M137.052 115.459C137.052 115.459 117.878 115.128 115.413 116.558C112.726 118.117 104.027 125.468 102.149 126.017C94.9499 128.125 79.814 109.922 79.814 109.922C77.8918 125.546 81.5647 140.317 82.5037 142.442C84.5879 147.159 97.3117 157.488 102.618 160.151C111.481 164.598 117.731 167.402 125.831 169.255C126.17 169.333 133.251 169.36 137.052 169.355V115.459Z" fill="#722717"/>
<path d="M136.951 113.723C135.453 113.723 133.994 113.47 133.069 113.082C132.675 112.917 132.489 112.479 132.667 112.106C132.844 111.726 133.315 111.563 133.717 111.73C135.731 112.577 139.899 112.377 140.848 111.108C141.451 110.284 140.818 108.288 140.092 105.973C139.614 104.454 139.073 102.733 138.718 100.878C138.641 100.476 138.927 100.089 139.359 100.017C139.823 99.9735 140.208 100.216 140.278 100.617C140.617 102.393 141.142 104.071 141.613 105.553C142.485 108.342 143.18 110.541 142.145 111.947C141.204 113.234 139.035 113.723 136.951 113.723Z" fill="#AF725C"/>
<path d="M184.965 67.2781C182.172 65.0718 178.154 63.081 174.696 62.2389C167.848 60.5711 159.493 60.8229 154.186 61.8286C152.467 62.1537 151.354 67.0611 151.652 67.464C151.999 67.9335 152.738 68.0164 153.95 67.8854C160.22 67.207 166.177 66.0553 174.61 67.5884C177.675 68.1453 181.192 69.1015 182.964 69.711C183.648 69.9465 185.598 70.6946 185.776 70.5346C186.21 70.1465 185.971 68.0727 184.965 67.2781Z" fill="#431304"/>
<path d="M87.473 67.2781C90.2662 65.0718 94.2846 63.081 97.7425 62.2389C104.59 60.5711 112.945 60.8229 118.252 61.8286C119.971 62.1537 121.084 67.0611 120.786 67.464C120.439 67.9335 119.7 68.0164 118.488 67.8854C112.218 67.207 106.261 66.0553 97.8279 67.5884C94.7636 68.1453 91.2463 69.1015 89.4743 69.711C88.7898 69.9465 86.8399 70.6946 86.6621 70.5346C86.2281 70.1465 86.4668 68.0727 87.473 67.2781Z" fill="#431304"/>
<path d="M161.925 9.59033C189.082 18.0615 199.675 33.2138 204.777 41.2569C204.479 53.6252 200.298 83.1418 199.745 86.2287C194.781 86.9871 195.007 102.813 192.686 110.399C192.678 110.302 190.426 113.286 189.722 113.369C189.998 99.3176 193.666 51.1227 190.588 46.4131C188.366 43.0137 178.231 34.6306 159.022 32.4125C150.349 31.4104 158.057 14.8376 161.925 9.59033Z" fill="#722717"/>
<path d="M197.469 39.0447C195.271 38.1471 166.245 32.1518 159.261 32.0244C176.619 35.4246 188.29 44.1987 188.71 46.8486C189.092 49.2638 187.87 61.9631 187.914 63.1644C187.942 63.9191 191.998 74.5514 193.151 79.2099C193.415 74.1663 198.315 39.3899 197.469 39.0447Z" fill="#722717"/>
<path d="M110.842 9.59033C83.6846 18.0615 73.0918 33.2138 67.9898 41.2569C68.287 53.6252 72.4682 83.1418 73.0214 86.2287C77.9859 86.9871 77.759 102.813 80.0804 110.399C80.0883 110.302 82.3401 113.286 83.0444 113.369C82.7685 99.3176 79.1003 51.1227 82.1788 46.4131C84.4007 43.0137 94.5359 34.6306 113.745 32.4125C122.418 31.4104 114.709 14.8376 110.842 9.59033Z" fill="#722717"/>
<path d="M75.2975 39.0447C77.4964 38.1471 106.522 32.1518 113.506 32.0244C96.148 35.4246 84.4771 44.1987 84.0574 46.8486C83.6749 49.2638 84.8968 61.9631 84.8525 63.1644C84.8249 63.9191 80.7686 74.5514 79.6154 79.2099C79.3514 74.1663 74.4518 39.3899 75.2975 39.0447Z" fill="#722717"/>
<path d="M144.898 121.32C142.76 121.364 140.421 121.401 137.928 121.394C137.279 121.394 129.645 121.379 127.7 121.35C118.886 121.179 112.572 121.127 111.314 126.64C110.033 132.264 115.373 140.455 123.463 145.278C126.874 147.326 130.943 148.327 136.121 148.342C141.085 148.327 145.137 147.363 148.503 145.404C156.444 140.774 161.925 132.746 161.246 126.721C160.597 121.008 153.982 121.15 144.898 121.32Z" fill="#EEBF9E"/>
<path d="M158.396 127.083C157.852 122.386 149.721 123.716 137.842 123.638C137.221 123.634 134.804 123.634 134.182 123.638C122.304 123.716 115.207 122.578 114.124 127.197C113.081 131.648 117.944 138.703 124.953 142.779C128.259 144.701 132.042 145.368 135.907 145.38H136.117C139.983 145.368 143.75 144.76 147.049 142.887C154.045 138.918 158.961 131.955 158.396 127.083Z" fill="#611C11"/>
<path d="M136.094 145.669H135.903C132.325 145.655 128.615 145.054 125.162 143.014L124.951 142.894L125.128 142.724C127.995 139.963 131.857 138.44 136.002 138.44C140.14 138.44 144.002 139.963 146.875 142.724L147.049 142.887L146.842 143.014C143.383 145.054 139.666 145.655 136.094 145.669Z" fill="#C46B5C"/>
<path d="M118.497 123.904C119.962 128.05 127.209 130.032 136.014 130.032C144.952 130.032 151.962 128.301 153.612 123.739C149.985 123.26 144.545 123.682 137.843 123.638C137.221 123.634 134.805 123.634 134.182 123.638C127.201 123.684 121.925 123.286 118.497 123.904Z" fill="white"/>
<path fill-rule="evenodd" clip-rule="evenodd" d="M99.39 82.5045C91.1115 85.8669 88.8635 95.3965 93.9474 100.033C96.9287 102.751 101.629 103.369 106.502 103.332C113.664 103.277 119.916 99.9676 120.767 96.8518C121.184 95.3209 121.481 92.2377 118.165 87.4193C114.389 81.9343 106.667 79.5487 99.39 82.5045Z" fill="#FAFCFF"/>
<path fill-rule="evenodd" clip-rule="evenodd" d="M93.2714 84.5023C87.9315 89.3941 90.5058 97.9179 94.1068 100.178C91.64 97.3439 91.1816 93.5815 92.0771 90.6628C93.0177 87.6003 95.9373 83.8091 101.985 82.2419C108.157 80.6422 115.235 82.7522 118.976 88.512C114.042 79.7261 100.791 77.6116 93.2714 84.5023Z" fill="#5E231F"/>
<path fill-rule="evenodd" clip-rule="evenodd" d="M103.884 86.1224C99.76 87.8755 97.9066 92.4413 99.8225 96.3911C101.738 100.341 106.566 102.064 110.704 100.341C114.841 98.6174 116.637 94.0085 114.766 90.0722C112.882 86.1091 108.036 84.3568 103.884 86.1224Z" fill="#5E231F"/>
<path fill-rule="evenodd" clip-rule="evenodd" d="M101.674 88.2773C100.532 88.795 99.9869 90.0726 100.524 91.1494C100.983 92.2255 102.363 92.7292 103.513 92.2255C104.662 91.7234 105.199 90.431 104.662 89.3542C104.125 88.2773 102.753 87.7885 101.674 88.2773Z" fill="white"/>
<path fill-rule="evenodd" clip-rule="evenodd" d="M154.162 87.4193C150.846 92.2377 151.143 95.3209 151.561 96.8518C152.411 99.9676 158.663 103.277 165.825 103.332C170.698 103.369 175.398 102.751 178.38 100.033C183.464 95.3965 181.216 85.8669 172.937 82.5045C165.66 79.5487 157.939 81.9343 154.162 87.4193Z" fill="#FAFCFF"/>
<path fill-rule="evenodd" clip-rule="evenodd" d="M153.351 88.512C157.091 82.7522 164.17 80.6422 170.342 82.2419C176.39 83.8091 179.309 87.6003 180.25 90.6628C181.145 93.5815 180.688 97.3439 178.22 100.178C181.821 97.9179 184.395 89.3941 179.056 84.5023C171.536 77.6116 158.285 79.7261 153.351 88.512Z" fill="#5E231F"/>
<path fill-rule="evenodd" clip-rule="evenodd" d="M161.656 86.1224C157.532 87.8755 155.679 92.4413 157.594 96.3911C159.51 100.341 164.338 102.064 168.476 100.341C172.614 98.6174 174.409 94.0085 172.538 90.0722C170.654 86.1091 165.809 84.3568 161.656 86.1224Z" fill="#5E231F"/>
<path fill-rule="evenodd" clip-rule="evenodd" d="M159.446 88.2773C158.304 88.795 157.76 90.0726 158.297 91.1494C158.756 92.2255 160.135 92.7292 161.286 92.2255C162.435 91.7234 162.971 90.431 162.435 89.3542C161.898 88.2773 160.525 87.7885 159.446 88.2773Z" fill="white"/>
<path fill-rule="evenodd" clip-rule="evenodd" d="M184.788 18.3565C184.788 23.4526 142.295 43.3034 135.721 43.3034C129.927 43.3034 88.3267 23.9022 81.9 18.0572C93.1694 10.2504 119.384 -0.539636 136.073 0.0209886C153.916 0.620893 184.788 13.261 184.788 18.3565Z" fill="#722717"/>
<path fill-rule="evenodd" clip-rule="evenodd" d="M130.146 0.460599C128.687 -0.610308 96.4852 4.94282 92.1713 8.32521C98.5102 8.98514 117.393 13.945 118.851 15.0167C120.309 16.0884 131.604 1.53227 130.146 0.460599Z" fill="#722717"/>
<path d="M262.609 463.354C261.103 464.72 259.203 467.372 247.348 474.866C243.677 477.187 228.923 473.875 221.311 471.72C222.574 464.185 231.525 466.641 241.953 466.71L261.6 449.747C265.319 450.304 264.305 461.813 262.609 463.354Z" fill="#CD946E"/>
<path d="M261.208 466.187C259.97 467.864 258.606 470.926 248.147 480.805C244.907 483.865 229.164 483.286 220.946 482.532C220.608 474.617 230.254 475.423 240.891 473.518L257.245 452.518C261.155 452.381 262.604 464.297 261.208 466.187Z" fill="#CD946E"/>
<path d="M259.602 468.471C258.857 470.387 258.367 473.672 250.922 485.713C248.616 489.443 233.23 492.623 225.076 493.845C222.608 486.27 232.157 484.758 241.932 480.389L252.071 456.189C255.815 455.128 260.441 466.311 259.602 468.471Z" fill="#CD946E"/>
<path d="M234.331 499.28C246.163 496.363 256.753 491.993 259.053 488.261C261.882 483.67 266.887 475.824 269.689 470.408C271.578 466.758 269.911 450.34 266.607 433.173C266.171 430.91 257.935 428.274 254.091 428.953C232.698 432.728 232.724 444.507 230.706 453.272C229.642 457.897 229.924 471.723 230.351 478.407C245.785 479.496 238.786 458.516 246.826 459.062C252.773 459.465 254.035 466.166 252.986 469.764C251.835 473.709 248.345 482.802 247.166 483.711C237.049 491.513 228.975 493.166 234.331 499.28Z" fill="#EFC09F"/>
<path d="M264.216 326.148C263.206 321.045 261.164 288.619 258.233 273.846C252.93 247.116 245.726 205.41 239.82 200.041C235.896 196.474 215.126 188.894 206.979 186.373C206.651 194.036 207.815 256.771 207.961 277.443C208.046 289.248 215.794 311.219 221.008 330.845C226.762 330.088 260.534 328.475 264.216 326.148Z" fill="#67ADC4"/>
<path d="M263.774 322.986C252.308 322.549 228.562 326.809 220.749 329.648C223.86 353.975 228.092 395.583 233.313 433.925C236.25 434.713 266.364 432.97 268.264 431.548C268.445 411.466 269.558 366.234 263.774 322.986Z" fill="#67ADC4"/>
<path d="M7.87263 462.937C9.37836 464.303 11.2784 466.955 23.1335 474.45C26.8049 476.771 41.559 473.459 49.1705 471.303C47.9075 463.768 38.9571 466.224 28.5287 466.293L8.88199 449.33C5.16238 449.887 6.17649 461.397 7.87263 462.937Z" fill="#CD946E"/>
<path d="M9.27267 465.771C10.5112 467.447 11.8746 470.509 22.3339 480.388C25.5737 483.448 41.3175 482.869 49.5351 482.115C49.8734 474.2 40.2275 475.007 29.5896 473.102L13.2356 452.102C9.32639 451.964 7.87685 463.881 9.27267 465.771Z" fill="#CD946E"/>
<path d="M10.8792 468.055C11.6246 469.971 12.1147 473.256 19.5594 485.297C21.8657 489.027 37.2515 492.206 45.4051 493.429C47.8735 485.853 38.3248 484.342 28.5492 479.973L18.4109 455.773C14.6668 454.712 10.0406 465.894 10.8792 468.055Z" fill="#CD946E"/>
<path d="M36.1505 498.863C24.3192 495.946 13.7287 491.577 11.4286 487.844C8.59984 483.254 3.59509 475.408 0.793133 469.992C-1.09589 466.342 0.57111 449.924 3.87491 432.756C4.31045 430.494 12.5463 427.858 16.3907 428.536C37.7834 432.311 37.7573 444.091 39.7752 452.856C40.8399 457.48 40.5577 471.306 40.1309 477.99C24.6969 479.08 31.6958 458.099 23.6552 458.645C17.7083 459.049 16.4468 465.75 17.4957 469.347C18.6465 473.292 22.1368 482.386 23.3153 483.294C33.4323 491.096 41.507 492.749 36.1505 498.863Z" fill="#EFC09F"/>
<path d="M6.26571 325.731C7.27583 320.628 9.31742 288.202 12.2482 273.429C17.5517 246.699 24.7553 204.993 30.6619 199.624C34.5854 196.057 55.3553 188.477 63.5026 185.956C63.8307 193.619 62.6664 256.354 62.5202 277.026C62.4356 288.831 54.6874 310.802 49.4732 330.428C43.7199 329.671 9.9481 328.058 6.26571 325.731Z" fill="#67ADC4"/>
<path d="M6.70763 322.569C18.173 322.132 41.9195 326.392 49.7318 329.231C46.6208 353.558 42.3891 395.166 37.1685 433.508C34.2314 434.296 4.11674 432.553 2.21739 431.131C2.03643 411.049 0.923557 365.817 6.70763 322.569Z" fill="#67ADC4"/>
</g>
<defs>
<clipPath id="clip0_1976_6089">
<rect width="300" height="800" fill="white"/>
</clipPath>
</defs>
</svg>
