<svg width="600" height="600" viewBox="0 0 600 600" fill="none" xmlns="http://www.w3.org/2000/svg">
<g clip-path="url(#clip0_1956_1765)">
<path d="M300 600C465.685 600 600 465.685 600 300C600 134.315 465.685 0 300 0C134.315 0 0 134.315 0 300C0 465.685 134.315 600 300 600Z" fill="#CC3715"/>
<path d="M257.906 358.372C271.86 351.395 291.628 337.442 288.139 321.163C284.651 304.884 269.535 302.558 267.209 283.954C264.883 261.861 269.535 250.233 252.093 233.954C247.239 229.639 240.628 224.838 233.549 221.031C230.963 224.545 228.631 228.04 226.883 231.535C216.418 252.465 223.395 260.605 229.209 281.535C251.011 358.416 150.523 349.238 103.174 348.983C103.584 349.401 103.969 349.824 104.418 350.233C116.046 361.861 134.651 357.209 147.441 368.837C159.069 380.465 160.232 396.744 177.674 401.395C195.116 407.209 210.232 399.07 221.86 386.279C234.651 371.163 239.302 366.512 257.906 358.372Z" fill="#471A13"/>
<path d="M229.209 281.535C223.395 260.605 216.419 252.465 226.884 231.535C228.631 228.04 230.963 224.544 233.549 221.031C241.287 210.518 251.305 199.841 254.79 188.512C260.604 168.744 240.837 114.093 230.372 94.3255C210.605 58.2789 164.093 73.3951 144.326 100.14C132.698 117.581 129.209 122.233 105.953 121.07C90.397 120.098 75.6539 115.901 61.0437 118.622C22.7471 168.997 0 231.838 0 300C0 309.868 0.490919 319.621 1.42212 329.245C4.56052 333.035 8.26557 336.565 12.9302 339.674C39.6744 355.953 71.0699 348.977 101.302 348.977C101.915 348.977 102.543 348.979 103.174 348.983C150.523 349.238 251.011 358.416 229.209 281.535Z" fill="#9E2818"/>
<path d="M289.301 443.256C291.627 431.628 291.626 417.675 293.952 406.047C298.603 386.279 304.417 385.117 320.696 375.814C329.698 370.275 339.518 363.495 348.45 356.463C330.938 355.538 313.645 358.783 302.91 365.456C258.269 391.141 281.833 430.709 270.321 470.227C263.906 490.087 248.378 503.243 262.337 524.044C265.601 529.049 270.891 533.929 277.051 538.382C279.706 535.221 281.922 531.838 283.487 528.14C295.115 503.721 284.65 470 289.301 443.256Z" fill="#471A13"/>
<path d="M547.44 318.837C519.533 317.674 496.277 310.697 471.859 296.744C447.44 283.953 403.254 261.86 384.649 294.418C376.51 311.86 379.998 326.976 364.882 342.093C360.179 346.796 354.517 351.687 348.45 356.463C339.518 363.495 329.698 370.274 320.696 375.814C304.417 385.116 298.603 386.279 293.952 406.046C291.626 417.674 291.626 431.628 289.301 443.255C284.65 470 295.115 503.721 283.487 528.139C281.922 531.838 279.706 535.22 277.051 538.382C261.166 557.299 229.355 568.22 223.961 590.267C248.246 596.611 273.725 600 299.998 600C460.991 600 592.351 473.181 599.663 313.995C581.718 314.87 561.051 318.837 547.44 318.837Z" fill="#9E2818"/>
<path d="M451.333 187.333C420.666 184.666 415.333 178 415.333 150C415.333 113.876 405.332 99.9464 387.148 87.092C383.169 101.013 387.769 122.505 385.999 144C383.703 171.888 364.972 171.92 369.325 189.333C374.658 210.666 385.999 232.666 409.999 234C424.666 235.333 449.999 242 463.333 234C471.333 228.666 468.666 219.333 476.666 214C483.333 208.666 495.333 212.666 501.999 206C506.065 201.934 508.183 195.154 508.817 187.732C503.982 188.185 499.113 188.666 493.999 188.666C480.666 188.666 464.666 188.666 451.333 187.333Z" fill="#471A13"/>
<path d="M350 63.333C364.67 73.271 377.143 80.0194 387.148 87.092C405.333 99.9464 415.333 113.876 415.333 150C415.333 178 420.666 184.666 451.333 187.333C464.666 188.666 480.666 188.666 494 188.666C499.113 188.666 503.982 188.185 508.818 187.732C515.33 187.123 521.779 186.568 528.666 187.333C547.333 188.666 563.333 202 582 207.333C583.23 207.622 584.434 207.855 585.628 208.067C551.123 100.78 457.864 19.8548 343.733 3.18323C330.422 22.1184 329.872 49.331 350 63.333Z" fill="#9E2818"/>
<path d="M74.9573 410.327C78.8137 404.061 101.562 395.24 109.757 397.168C119.398 400.061 118.434 406.809 120.362 415.004C123.736 427.537 138.198 426.091 148.803 424.163C156.033 423.199 161.818 420.789 167.12 424.645C172.905 428.501 174.833 436.214 177.243 442.481C181.1 451.639 184.115 451.749 191.222 457.424C217.825 478.667 207.189 494.215 203.333 500C200.44 504.82 184.474 481.044 179.171 480.08C172.423 479.116 168.567 473.332 163.264 468.993C156.997 463.209 155.069 462.244 146.392 464.655C140.126 466.101 132.413 469.957 125.664 466.583C115.059 461.763 110.721 446.337 103.009 438.142C99.6341 434.286 91.9212 431.394 89.511 427.537C85.6548 421.271 72.7929 425.242 71.3467 419.458L74.9573 410.327Z" fill="#471A13"/>
<path d="M67.9982 424.001C73.3316 415.334 82.6648 408.667 93.9982 411.334C107.332 415.334 105.998 424.667 108.665 436.001C113.332 453.334 133.332 451.334 147.998 448.667C157.998 447.334 165.998 444 173.332 449.334C181.332 454.667 183.998 465.334 187.332 474.001C192.665 486.667 195.998 488.001 206.665 494.667C213.998 500.001 221.332 509.334 215.998 517.334C211.998 524.001 197.332 527.334 189.998 526.001C180.665 524.667 175.332 516.667 167.998 510.667C159.332 502.667 156.665 501.334 144.665 504.667C135.998 506.667 125.332 512.001 115.998 507.334C101.332 500.667 95.3315 479.334 84.6647 468.001C79.9981 462.667 69.3316 458.667 65.9982 453.334C60.6648 444.667 69.3317 435.334 67.3317 427.334L67.9982 424.001Z" fill="#9E2818"/>
<path d="M298.587 0C287.414 0 276.385 0.616198 265.528 1.8062C415.659 18.2634 512.47 145.488 512.47 300C512.47 454.512 415.659 581.737 265.528 598.194C276.385 599.384 287.414 600 298.587 600C464.272 600 599.098 468.061 599.995 300C600.879 134.317 464.272 0 298.587 0Z" fill="#222222" fill-opacity="0.5"/>
</g>
<defs>
<clipPath id="clip0_1956_1765">
<rect width="600" height="600" fill="white"/>
</clipPath>
</defs>
</svg>
