<svg width="1000" height="700" viewBox="0 0 1000 700" fill="none" xmlns="http://www.w3.org/2000/svg">
<g clip-path="url(#clip0_1276_7754)">
<path d="M184.375 136.133C186.95 172.267 189.525 208.401 191.242 244.535C192.1 252.939 192.959 261.342 198.109 267.224C203.259 273.106 215.276 273.947 218.71 267.224C217.851 235.291 216.993 203.359 215.276 171.426C214.418 155.46 213.56 138.654 204.118 125.208C198.109 117.645 190.384 112.603 181.8 107.561C1.54248 -4.20233 5.8344 -3.36179 0.684183 1.68021C-3.60766 5.88184 13.5597 23.5287 16.9931 26.89C61.6283 78.1501 123.431 107.562 184.375 136.133Z" fill="#514E4C"/>
<path d="M351.753 138.658C372.354 160.506 382.655 191.598 406.689 210.086C421.281 221.01 440.165 226.892 453.899 238.657C479.65 260.505 491.667 310.085 531.152 309.244C512.268 237.816 472.783 245.379 398.964 163.867C367.204 129.414 328.577 78.9942 282.225 63.028C248.749 51.2634 286.517 87.3976 295.959 94.1203C314.843 109.246 335.444 121.011 351.753 138.658Z" fill="#514E4C"/>
<path d="M561.469 171.58C564.873 152.416 576.785 134.573 578.487 115.409C581.89 77.7407 547.005 40.0725 561.469 4.38693C562.32 2.40439 563.171 0.421814 565.724 0.421814C568.276 0.421814 569.978 3.06528 570.829 5.04779C627.836 177.528 592.951 123.339 586.995 191.406C585.293 213.214 593.802 235.021 593.802 256.829C593.802 262.777 580.188 311.018 566.575 301.766C560.619 297.801 571.68 280.62 572.53 275.994C581.039 240.308 555.513 206.605 561.469 171.58Z" fill="#514E4C"/>
<path d="M704.599 192.913C746.163 147.895 806.282 127.715 857.495 94.3393C904.997 63.2925 946.561 19.0507 1000 0.422546C953.983 46.9928 918.356 81.1443 864.175 107.534C809.993 133.924 749.132 166.523 711.279 215.422C702.372 226.288 647.449 323.31 634.089 310.115C623.698 300.025 694.208 204.555 704.599 192.913Z" fill="#514E4C"/>
<path d="M184.375 540.337C186.95 504.203 189.525 468.069 191.242 431.935C192.1 423.531 192.959 415.128 198.109 409.246C203.259 403.364 215.276 402.523 218.71 409.246C214.418 538.657 221.285 544.539 181.8 568.909C1.54248 680.672 5.8344 679.832 0.684183 674.79C-3.60766 670.588 13.5597 652.941 16.9931 649.58C61.6283 598.32 123.431 568.908 184.375 540.337Z" fill="#514E4C"/>
<path d="M351.753 538.657C372.354 516.808 382.655 485.716 406.689 467.229C421.281 456.304 440.165 450.422 453.899 438.658C467.633 426.893 476.217 410.086 486.517 395.801C496.818 381.515 513.127 368.07 531.152 368.07C511.41 439.498 470.208 435.296 398.964 513.447C367.204 547.9 328.577 598.32 282.225 614.286C248.749 626.051 286.517 589.917 295.959 583.194C314.843 567.228 335.444 556.304 351.753 538.657Z" fill="#514E4C"/>
<path d="M561.47 514.615C564.873 535.382 576.785 554.717 578.487 575.484C581.89 616.302 547.005 657.12 561.47 695.789C564.022 701.518 569.128 701.518 570.829 695.073C627.837 508.171 592.952 566.891 586.996 493.132C585.294 469.501 593.802 445.87 593.802 422.238C593.802 415.793 580.189 363.518 566.575 373.544C560.619 377.84 571.68 396.459 572.531 401.472C581.04 440.857 555.514 476.662 561.47 514.615Z" fill="#514E4C"/>
<path d="M704.599 491.902C746.163 540.57 806.282 562.387 857.495 598.468C904.997 632.033 946.561 679.862 1000 700C953.983 649.654 918.356 612.733 864.175 584.204C809.993 555.674 749.132 520.432 711.279 467.568C702.372 455.821 647.449 350.933 634.089 365.198C623.698 376.945 694.208 479.316 704.599 491.902Z" fill="#514E4C"/>
<path d="M1000 338.75C1000 280.07 932.843 232.5 850 232.5C767.157 232.5 700 280.07 700 338.75C700 397.43 767.157 445 850 445C932.843 445 1000 397.43 1000 338.75Z" fill="#3A362A"/>
<path d="M366.621 300.898C342.808 321.716 316.532 337.538 307.5 337.538C318.996 338.371 368.264 369.182 385.507 396.662C398.645 418.313 411.783 413.317 479.937 407.488C493.896 394.164 512.782 390.833 531.668 399.16C544.806 404.989 569.44 372.513 609.676 399.993C623.635 409.153 617.887 383.339 646.627 362.52L700 345.866V329.211L646.627 312.556C617.066 291.738 623.635 265.091 609.676 275.084C589.147 289.24 563.692 289.24 543.164 276.749C530.847 269.254 507.856 295.069 479.116 267.589C365.8 257.596 415.068 259.262 366.621 300.898Z" fill="#3A362A"/>
<path opacity="0.2" d="M792.098 241.182C788.665 251.265 779.223 257.988 780.94 268.912C782.656 285.719 818.708 284.879 796.39 316.811C773.214 349.584 807.549 357.987 803.257 379.836C800.682 394.121 782.656 392.441 780.94 407.567C779.223 418.491 788.665 425.213 792.098 435.297C784.373 432.776 776.648 430.256 768.922 426.054C748.322 391.6 780.939 399.163 784.373 379.836C788.665 357.987 753.472 350.424 777.506 316.811C807.549 276.475 744.03 291.601 768.922 249.585C775.789 247.064 783.515 243.703 792.098 241.182Z" fill="white"/>
<path opacity="0.2" d="M864.198 233.618C864.198 249.584 849.606 255.467 851.323 268.912C853.04 283.197 871.065 282.357 873.64 295.802C877.932 317.651 842.739 326.895 866.773 358.827C889.949 389.919 853.898 389.919 851.323 407.566C849.606 421.011 864.198 427.734 864.198 442.86C859.048 443.7 848.748 443.7 845.314 443.7C845.314 428.574 831.58 420.171 833.297 407.566C835.014 391.6 871.065 389.079 847.889 358.827C824.713 326.054 859.048 316.811 854.756 295.802C852.181 281.517 834.155 283.197 832.439 268.912C830.722 255.467 844.456 249.584 844.456 232.778C849.606 232.778 859.906 232.778 864.198 233.618Z" fill="white"/>
<path opacity="0.2" d="M914.843 243.701C919.993 245.381 925.143 247.062 930.293 249.583C908.834 284.877 941.452 277.314 944.886 296.641C949.178 318.49 913.984 327.733 938.019 359.666C961.195 390.758 925.143 391.599 922.568 408.405C921.71 415.968 926.002 421.85 929.435 427.733C924.285 430.254 919.135 431.934 913.984 433.615C910.551 424.371 901.967 418.489 903.684 407.565C905.401 389.918 942.311 389.918 919.135 358.826C914.843 352.943 910.551 346.221 911.409 337.818C909.693 321.011 929.435 312.608 926.002 295.801C923.427 281.515 905.401 283.196 903.684 268.91C903.684 258.826 911.409 252.104 914.843 243.701Z" fill="white"/>
<path d="M335.459 338.646C333.645 334.462 325.482 319.399 330.017 300.989C332.738 289.274 339.088 280.069 345.437 275.048C350.879 269.191 351.786 260.822 346.344 254.128C342.715 249.944 338.18 245.759 332.738 242.412C303.713 223.165 213.01 233.207 175.822 261.659C125.028 301.826 124.121 376.303 176.729 416.47C211.196 443.249 301.899 454.964 331.831 434.88C337.273 431.533 341.809 427.349 345.437 423.165C350.879 417.307 350.879 408.102 344.53 402.244C339.087 396.387 331.831 388.018 329.11 376.303C325.482 357.056 333.645 342.83 335.459 338.646Z" fill="#211F18"/>
<path opacity="0.2" d="M208.408 278.986C213.559 286.549 226.434 276.465 235.018 276.465C278.795 278.146 280.512 332.767 297.679 321.843C307.121 315.961 289.095 294.952 301.971 275.625C303.688 272.263 307.121 269.743 307.979 266.381C309.696 258.818 304.546 248.734 283.945 248.734C267.636 249.575 201.542 269.743 208.408 278.986Z" fill="white"/>
<path opacity="0.2" d="M208.409 397.477C213.559 389.914 226.435 399.998 235.019 399.998C267.637 398.317 271.07 375.628 284.804 359.662C292.53 349.578 304.547 351.259 299.396 368.065C291.671 394.956 306.263 401.679 307.98 409.242C318.28 447.897 200.684 409.241 208.409 397.477Z" fill="white"/>
<path opacity="0.15" d="M218.708 352.1C230.725 352.1 240.167 357.982 240.167 364.705C240.167 371.427 230.725 377.31 218.708 377.31C206.691 377.31 197.249 371.427 197.249 364.705C197.249 357.142 206.691 352.1 218.708 352.1Z" fill="white"/>
<path opacity="0.15" d="M218.708 299.16C230.725 299.16 240.167 305.043 240.167 311.765C240.167 318.488 230.725 324.37 218.708 324.37C206.691 324.37 197.249 318.488 197.249 311.765C197.249 305.043 206.691 299.16 218.708 299.16Z" fill="white"/>
</g>
<defs>
<clipPath id="clip0_1276_7754">
<rect width="1000" height="700" fill="white"/>
</clipPath>
</defs>
</svg>
