<svg width="600" height="600" viewBox="0 0 600 600" fill="none" xmlns="http://www.w3.org/2000/svg">
<path d="M300.388 599.488C465.341 599.488 599.14 465.767 599.238 300.815C599.336 135.862 465.694 2.14136 300.742 2.14136C135.789 2.14136 1.98915 135.862 1.89145 300.815C1.79374 465.767 135.435 599.488 300.388 599.488Z" fill="#DDDDDD"/>
<g opacity="0.7">
<path d="M585.137 286.871C574.189 275.917 569.212 261.975 560.255 251.02C550.302 239.069 536.368 235.086 530.396 221.144C528.406 215.169 532.387 207.202 525.42 203.218C520.444 199.235 508.5 205.21 502.528 204.214C484.613 202.222 482.623 191.268 484.613 174.338C486.604 158.404 494.566 150.437 484.613 135.499C473.665 121.556 459.731 122.552 442.811 124.544C437.835 125.54 429.873 129.523 423.901 129.523C414.944 129.523 414.944 126.536 406.981 121.556C396.033 116.577 376.128 115.581 368.165 105.623C353.236 87.6968 349.255 99.6473 312.429 100.643C284.561 101.639 294.514 141.474 271.623 153.424C251.717 163.383 242.76 172.346 215.887 187.284C198.967 197.243 189.014 176.329 168.113 151.433L167.118 113.59C161.146 70.767 208.92 84.7092 226.835 64.7917C240.769 47.8619 217.878 44.8743 203.944 44.8743C196.977 44.8743 191.005 48.8578 184.038 48.8578C177.071 48.8578 170.104 43.8784 163.137 43.8784C149.203 44.8743 139.25 59.8124 128.302 66.7835C117.354 74.7505 106.406 81.7216 96.453 89.6886C82.519 101.639 78.5379 110.602 71.5709 126.536C65.5992 140.478 65.5992 156.412 59.6275 169.358C52.6605 183.301 44.6982 185.292 44.6982 203.218C44.6982 217.16 48.6794 231.102 52.6605 244.049C55.6464 255.999 62.6133 267.95 65.5992 278.904C68.585 295.834 60.6228 308.781 61.6181 325.71C62.6133 348.615 97.4482 377.496 120.34 380.483C132.283 381.479 148.208 367.537 155.175 369.529C173.09 373.512 152.189 394.426 146.217 401.397C136.264 412.351 125.316 423.306 132.283 437.248C139.25 453.182 157.165 456.17 171.099 458.161C209.915 463.141 202.948 436.252 200.958 406.376C199.962 391.438 209.915 376.5 225.84 388.45C236.788 397.413 236.788 414.343 232.807 425.298C228.826 434.26 208.92 452.186 213.896 462.145C219.868 475.091 240.769 465.133 249.727 463.141C260.675 460.153 271.623 457.166 281.576 455.174C296.505 453.182 310.439 457.166 312.429 440.236C314.42 428.285 305.462 410.36 303.472 396.417C302.477 390.442 300.486 380.483 300.486 373.512C301.481 364.549 305.462 361.562 307.453 353.595C311.434 339.653 301.481 320.731 310.439 308.781C319.396 297.826 332.335 297.826 340.297 283.884C347.264 272.929 353.236 254.008 367.17 251.02C381.104 247.036 392.052 261.975 405.986 261.975C426.887 261.975 429.873 256.995 438.83 242.057C448.783 225.127 460.727 232.098 456.745 254.008C453.76 268.946 437.835 278.904 445.797 294.838C451.769 306.789 469.684 310.772 473.665 324.715C478.642 341.644 462.717 346.624 470.679 364.549C472.67 370.525 478.642 373.512 480.632 379.487C483.618 386.459 481.628 396.417 484.613 403.388C494.566 434.26 548.311 427.289 534.378 388.45C529.401 374.508 510.491 369.529 506.51 356.582C504.519 349.611 515.467 321.727 519.448 315.752C529.401 301.809 544.33 303.801 545.326 318.739C545.326 325.71 540.349 330.69 541.344 338.657C543.335 345.628 551.297 352.599 552.293 359.57C557.269 376.5 548.311 390.442 573.194 383.471C580.949 381.046 586.336 376.723 590.75 371.439C596.433 348 599.35 323.514 599.133 298.348C594.096 294.321 588.858 290.594 585.137 286.871Z" fill="#5E5E5E"/>
</g>
<path opacity="0.4" d="M462.718 490.03C436.333 490.03 406.982 509.44 406.982 535.84C406.982 550.12 413.83 563.511 424.286 572.805C453.041 559.696 479.316 542.17 502.268 521.113C497.1 502.959 483.223 490.03 462.718 490.03Z" fill="#5E5E5E"/>
<path opacity="0.6" d="M368.952 386.46C356.974 386.46 349.255 394.184 349.255 406.169C349.255 418.154 360.955 425.878 372.933 425.878C384.911 425.878 394.621 416.162 394.621 404.177C394.621 392.192 380.93 386.46 368.952 386.46Z" fill="#5E5E5E"/>
<path opacity="0.5" d="M287.34 37.9035C275.361 37.9035 267.642 45.6274 267.642 57.6123C267.642 69.5972 283.279 64.4599 295.257 64.4599C307.235 64.4599 317.153 55.8636 317.153 43.8787C317.153 31.8938 299.317 37.9035 287.34 37.9035Z" fill="#5E5E5E"/>
<path opacity="0.5" d="M447.619 75.3661C438.115 68.0711 414.272 56.0451 406.981 65.5545C399.691 75.0636 434.228 81.1475 443.731 88.4425C453.235 95.7373 460.349 107.774 467.639 98.2644C474.93 88.755 457.122 82.6609 447.619 75.3661Z" fill="#5E5E5E"/>
<path opacity="0.6" d="M284.894 509.283C268.037 509.283 254.372 526.049 254.372 541.815C254.372 557.582 270.027 570.364 286.884 570.364C303.741 570.364 327.359 547.623 327.359 531.857C327.359 516.09 301.75 509.283 284.894 509.283Z" fill="#5E5E5E"/>
<g opacity="0.2">
<path d="M299.154 2.05298C288.034 2.05298 277.057 2.66663 266.252 3.85192C415.674 20.241 512.029 146.94 512.029 300.815C512.029 454.689 415.674 581.389 266.252 597.778C277.057 598.963 288.034 599.577 299.154 599.577C464.058 599.577 598.248 468.182 599.141 300.815C600.02 135.816 464.058 2.05298 299.154 2.05298Z" fill="#222222"/>
</g>
</svg>
