<svg width="1000" height="500" viewBox="0 0 1000 500" fill="none" xmlns="http://www.w3.org/2000/svg">
<g clip-path="url(#clip0_1276_5142)">
<path d="M8.07502e-09 375.699V315.195C0.000139805 277.91 8.45122 241.072 24.7668 207.238C41.0824 173.404 64.8715 143.385 94.4821 119.266L166.016 60.9977C214.363 21.6167 275.702 -5.57174e-05 339.1 1.07786e-10H509.144C540.188 -2.3197e-05 570.843 6.63042 598.89 19.4109C626.936 32.1914 651.67 50.8019 671.302 73.8945L734.728 148.501C739.057 153.593 744.977 157.213 751.612 158.826L879.108 189.809C927.468 203.139 969.915 232.044 988.938 276.982C996.244 294.239 1000 312.691 1000 331.32V375.7C1000 384.797 996.237 393.521 989.538 399.954C982.84 406.386 973.754 410 964.281 410H35.7199C31.029 410 26.3841 409.113 22.0503 407.389C17.7165 405.665 13.7786 403.139 10.4617 399.954C7.14478 396.768 4.51385 392.987 2.7188 388.825C0.923748 384.664 -9.97326e-05 380.204 8.07502e-09 375.699Z" fill="#F2DABD"/>
<path d="M686.865 396.455C686.865 364.7 699.898 334.246 723.097 311.792C746.296 289.338 777.76 276.724 810.568 276.724C843.376 276.724 874.84 289.338 898.039 311.792C921.237 334.246 934.271 364.7 934.271 396.455C934.271 400.2 934.069 403.899 933.721 407.556H687.415C687.067 403.899 686.865 400.2 686.865 396.455Z" fill="#2B2B2C"/>
<path d="M170.636 276.724C186.881 276.724 202.967 279.821 217.975 285.838C232.983 291.855 246.62 300.674 258.107 311.792C269.594 322.91 278.706 336.109 284.922 350.636C291.139 365.162 294.339 380.732 294.339 396.455C294.339 400.2 294.137 403.899 293.79 407.556H47.4826C47.1351 403.899 46.9336 400.2 46.9336 396.455C46.9335 364.701 59.9665 334.246 83.1651 311.792C106.364 289.338 137.828 276.724 170.636 276.724Z" fill="#2B2B2C"/>
<path d="M810.564 257.277C790.021 257.264 769.765 261.942 751.441 270.93C733.117 279.919 717.242 292.965 705.107 309.009C714.574 289.693 729.508 273.374 748.175 261.947C766.842 250.52 788.477 244.454 810.564 244.454C832.651 244.454 854.286 250.52 872.953 261.947C891.62 273.374 906.554 289.693 916.02 309.009C903.885 292.965 888.011 279.919 869.687 270.93C851.363 261.942 831.107 257.264 810.564 257.277Z" fill="white"/>
<path d="M176.101 257.279C155.558 257.265 135.302 261.943 116.978 270.932C98.6542 279.921 82.7795 292.967 70.6445 309.01C80.1106 289.695 95.0452 273.376 113.712 261.949C132.38 250.521 154.014 244.456 176.101 244.456C198.188 244.456 219.822 250.521 238.489 261.949C257.157 273.376 272.091 289.695 281.557 309.01C269.422 292.967 253.548 279.921 235.224 270.932C216.9 261.943 196.644 257.265 176.101 257.279Z" fill="white"/>
<path d="M621.982 29.7314C641.573 41.4203 659.005 56.199 673.558 73.4557L736.107 147.618C738.761 150.766 742.041 153.368 745.751 155.27C734.79 155.27 723.971 152.858 714.114 148.217C704.258 143.577 695.62 136.828 688.853 128.481L632.351 58.7811C625.633 50.494 621.982 40.265 621.982 29.7314Z" fill="#3D6C81"/>
<path d="M635.372 56.0829C630.774 50.3916 627.711 43.6825 626.459 36.5602C626.207 35.0385 626.11 33.4968 626.169 31.9568C644.063 43.2035 660.046 57.0693 673.547 73.0593L736.096 147.222C737.257 148.583 738.537 149.843 739.923 150.988C737.786 150.825 735.661 150.53 733.563 150.106C717.042 147.255 702.195 138.592 691.875 125.784L635.372 56.0829Z" fill="#7FA9BE"/>
<path d="M647.077 138.465L586.541 54.0583C582.648 48.6303 577.455 44.1954 571.406 41.1324C565.357 38.0695 558.632 36.4697 551.805 36.4697H365.428C362.497 36.4697 359.685 37.5968 357.612 39.6032C355.539 41.6096 354.375 44.3309 354.375 47.1684V144.566C354.375 147.404 355.539 150.125 357.612 152.131C359.685 154.138 362.497 155.265 365.428 155.265H637.996C640.015 155.265 641.994 154.73 643.721 153.718C645.448 152.706 646.855 151.257 647.791 149.526C648.726 147.795 649.155 145.849 649.029 143.899C648.903 141.949 648.227 140.07 647.077 138.465Z" fill="#3D6C81"/>
<path d="M637.992 151.537C639.306 151.537 640.596 151.188 641.721 150.529C642.846 149.87 643.762 148.925 644.372 147.798C644.981 146.67 645.26 145.402 645.178 144.132C645.096 142.862 644.656 141.638 643.906 140.593L583.37 56.1869C579.831 51.2543 575.112 47.2241 569.615 44.4404C564.117 41.6567 558.005 40.2023 551.801 40.2014H365.423C363.515 40.2036 361.685 40.9383 360.335 42.2446C358.985 43.5509 358.225 45.3221 358.223 47.1697V144.567C358.225 146.415 358.984 148.186 360.334 149.493C361.684 150.8 363.514 151.535 365.423 151.537H637.992Z" fill="#7FA9BE"/>
<path d="M320.512 139.743V46.2613C320.512 43.6645 319.446 41.1741 317.549 39.3379C315.652 37.5017 313.079 36.4702 310.396 36.4701H300.213C283.9 36.4238 267.819 40.2147 253.355 47.5168C211.043 69.0377 170.55 100.204 144.96 140.884C143.672 141.994 142.763 143.456 142.353 145.077C141.943 146.698 142.052 148.402 142.666 149.961C143.279 151.521 144.368 152.864 145.788 153.811C147.207 154.758 148.891 155.265 150.615 155.265H304.475C308.728 155.265 312.807 153.63 315.815 150.719C318.822 147.808 320.512 143.86 320.512 139.743Z" fill="#3D6C81"/>
<path d="M304.469 151.536C307.7 151.532 310.796 150.289 313.081 148.078C315.365 145.867 316.65 142.87 316.653 139.743V46.2609C316.651 44.654 315.991 43.1134 314.817 41.9772C313.643 40.841 312.051 40.202 310.391 40.2004H300.209C284.521 40.1675 269.059 43.8105 255.142 50.8183C222.259 67.5446 177.02 97.0831 148.246 142.824L147.946 143.3L147.516 143.67C146.811 144.277 146.314 145.077 146.09 145.964C145.866 146.851 145.926 147.782 146.262 148.635C146.597 149.488 147.193 150.223 147.969 150.741C148.746 151.259 149.666 151.536 150.61 151.536L304.469 151.536Z" fill="#7FA9BE"/>
<path d="M104.701 118.551L175.247 60.629C189.077 49.2793 204.079 39.3397 220.016 30.968C220.016 32.7005 219.641 34.4141 218.918 35.9986C218.194 37.5832 217.136 39.004 215.812 40.17C169.625 74.793 129.195 109.464 97.6713 144.208C89.5935 151.322 79.0653 155.264 68.1445 155.264C79.0335 141.876 91.2801 129.578 104.701 118.551Z" fill="#7FA9BE"/>
<path d="M336.506 365.375V43.4224C336.512 38.4374 338.561 33.6583 342.202 30.1334C345.844 26.6085 350.782 24.6258 355.932 24.6202H559.702C567.414 24.632 575.014 26.4032 581.887 29.7905C588.759 33.1777 594.71 38.0855 599.256 44.1155L679.356 150.712C684.878 158.03 687.846 166.861 687.827 175.923V263.848C687.85 274.278 683.919 284.354 676.78 292.166C659.37 311.432 648.249 335.26 644.823 360.64C643.862 367.145 640.52 373.099 635.405 377.419C630.29 381.739 623.742 384.137 616.954 384.178H355.932C350.782 384.172 345.844 382.189 342.202 378.664C338.561 375.139 336.512 370.36 336.506 365.375ZM597.698 45.2118C593.331 39.4194 587.615 34.7051 581.013 31.4513C574.411 28.1976 567.11 26.4962 559.702 26.4851H355.932C351.292 26.49 346.844 28.2761 343.563 31.4513C340.283 34.6266 338.437 38.9318 338.432 43.4224V365.375C338.437 369.866 340.283 374.171 343.563 377.346C346.844 380.522 351.292 382.308 355.932 382.313H616.953C623.278 382.274 629.377 380.039 634.142 376.013C638.906 371.988 642.02 366.44 642.914 360.38C646.393 334.636 657.676 310.468 675.337 290.928C682.163 283.457 685.921 273.821 685.899 263.848V175.923C685.917 167.255 683.079 158.808 677.797 151.808L597.697 45.2115L597.698 45.2118Z" fill="#D6AD85"/>
<path d="M423.519 224.838H378.553C375.615 224.838 372.797 223.708 370.72 221.697C368.642 219.686 367.475 216.959 367.475 214.115V199.9H434.597V214.115C434.597 216.959 433.43 219.686 431.353 221.697C429.275 223.708 426.457 224.838 423.519 224.838Z" fill="#A88264"/>
<path d="M375.49 208.539H426.644C428.769 208.539 430.807 207.722 432.309 206.268C433.811 204.814 434.655 202.842 434.655 200.786C434.655 198.729 433.811 196.757 432.309 195.303C430.807 193.849 428.769 193.032 426.644 193.032H375.49C373.372 193.042 371.345 193.863 369.851 195.316C368.357 196.769 367.518 198.736 367.518 200.786C367.518 202.835 368.357 204.802 369.851 206.255C371.345 207.708 373.372 208.529 375.49 208.539Z" fill="white"/>
<path d="M16.7798 262.589C16.8494 262.589 17.1404 262.589 17.2104 262.588C20.9615 262.548 24.603 261.359 27.6132 259.192C30.6234 257.026 32.8476 253.993 33.9673 250.527C40.5023 230.568 52.86 212.863 69.5519 199.545C71.3115 198.162 72.6998 196.387 73.5992 194.373C74.4985 192.358 74.8821 190.164 74.7174 187.975C74.5768 185.814 73.8994 183.717 72.7424 181.863C71.5855 180.01 69.9833 178.454 68.0721 177.328L56.6174 170.486L55.5545 172.06L67.0599 178.914C68.7092 179.886 70.0917 181.228 71.0903 182.828C72.0888 184.427 72.6742 186.237 72.7959 188.102C72.9376 189.994 72.6052 191.892 71.8272 193.634C71.0492 195.375 69.8487 196.91 68.3272 198.106C51.3484 211.652 38.7781 229.66 32.1308 249.962C31.1395 253.032 29.1759 255.723 26.5178 257.654C23.8597 259.584 20.6419 260.657 17.3192 260.721C17.2134 260.723 17.2773 260.723 17.1711 260.723L16.7798 262.589Z" fill="#D6AD85"/>
<path d="M953.905 298.886L955.136 291.987H960.597C967.14 291.482 973.564 304.664 974.944 321.429C976.323 338.194 972.137 352.194 965.594 352.698H959.455L958.558 348.03C954.951 342.82 952.11 333.746 951.247 323.256C950.441 313.462 951.552 304.654 953.905 298.886Z" fill="#D6AD85"/>
<path d="M945.79 323.254C947.17 340.019 953.594 353.2 960.137 352.696C966.68 352.192 970.867 338.192 969.487 321.427C968.107 304.662 961.684 291.479 955.14 291.984C948.597 292.489 944.41 306.489 945.79 323.254Z" fill="white"/>
<path d="M991.97 352.638C992.118 324.607 989.705 300.192 983.222 281.522C983.004 280.904 982.931 280.246 983.008 279.597C983.086 278.948 983.313 278.324 983.67 277.77C984.028 277.216 984.509 276.746 985.078 276.394C985.647 276.043 986.289 275.818 986.959 275.737C994.059 292.778 997.709 310.979 997.713 329.353V357.542C996.994 357.63 996.263 357.569 995.57 357.363C994.878 357.157 994.238 356.811 993.695 356.347C993.152 355.883 992.717 355.312 992.42 354.672C992.122 354.033 991.969 353.339 991.97 352.638Z" fill="#8FB5D3"/>
<path d="M932.363 375.4H997.298C998.147 375.4 998.985 375.583 999.753 375.934C1000.52 376.285 1001.2 376.796 1001.74 377.431C1002.28 378.066 1002.66 378.808 1002.87 379.605C1003.08 380.402 1003.1 381.234 1002.93 382.04C1001.46 389.231 997.462 395.706 991.611 400.36C985.759 405.014 978.42 407.558 970.846 407.558H933.722C934.634 396.825 934.178 386.025 932.363 375.4Z" fill="#8FB5D3"/>
<path d="M50 380H5.87314C5.00532 380 4.14829 380.17 3.36368 380.497C2.57906 380.825 1.88601 381.302 1.33507 381.894C0.784135 382.487 0.388674 383.179 0.177075 383.923C-0.0345232 384.666 -0.0566731 385.442 0.111652 386.194C1.61335 392.903 5.70382 398.944 11.6856 403.285C17.6673 407.627 25.1695 410 32.9113 410H48.6111C47.6786 399.988 48.1452 389.912 50 380Z" fill="#8FB5D3"/>
<path opacity="0.45" d="M800.032 204.395C800.032 204.395 741.727 201.594 745.756 157.623C745.827 156.885 745.939 156.151 746.092 155.425C748.212 156.486 750.451 157.31 752.764 157.881L878.5 188.68C921.318 200.576 959.424 224.962 980.344 262.147C980.302 262.163 974.826 264.248 957.642 248.976C940.392 233.646 885.231 214.26 800.032 204.395Z" fill="white"/>
<path d="M962.972 239.571L965.241 240.672L962.284 237.319C916.303 213.116 841.78 198.247 786.727 193.638C777.717 192.95 769.309 188.993 763.185 182.559C757.061 176.126 753.674 167.691 753.702 158.944V158.11L751.775 157.628V158.945C751.745 168.16 755.312 177.045 761.762 183.823C768.213 190.601 777.07 194.77 786.562 195.496C841.415 200.087 917.236 215.496 962.972 239.571Z" fill="#D6AD85"/>
<path opacity="0.45" d="M614.147 26.481C604.004 26.4651 593.938 24.7897 584.372 21.5254C569.617 16.5171 543.9 9.51389 515.479 9.51389H350.542C350.542 9.51389 308.489 6.97391 255.512 26.481C255.512 26.481 232.507 35.2326 225.986 27.931C263.128 9.5764 304.235 0.00440651 345.938 0H513.634C549.662 0.0016308 585.063 9.13146 616.315 26.4819L614.147 26.481Z" fill="white"/>
<path style="mix-blend-mode:screen" opacity="0.51" d="M673.532 73.3897L734.343 145.492C723.368 143.342 713.18 138.408 704.822 131.197C690.771 118.609 641.557 56.7602 641.557 56.7602C636.78 51.3683 634.09 44.5366 633.945 37.4353C648.72 47.6798 662.031 59.7692 673.532 73.3897Z" fill="url(#paint0_linear_1276_5142)"/>
<path style="mix-blend-mode:screen" opacity="0.51" d="M364.001 99.2165V51.1028C364.002 49.6969 364.578 48.3485 365.605 47.3545C366.632 46.3604 368.025 45.8021 369.478 45.802H551.799C557.071 45.802 562.263 47.0372 566.934 49.4023C571.605 51.7673 575.614 55.1918 578.62 59.383L639.157 143.789C639.268 143.936 639.349 144.102 639.394 144.279C556.846 121.159 463.629 105.477 364.001 99.2165Z" fill="url(#paint1_linear_1276_5142)"/>
<path style="mix-blend-mode:screen" opacity="0.51" d="M266.143 96.1597C242.097 96.1597 218.344 96.6986 194.883 97.7761C213.997 81.3185 235.141 67.2117 257.832 55.7771C270.919 49.1899 285.458 45.7671 300.209 45.801H304.669C306.314 45.801 307.892 46.4337 309.056 47.5599C310.22 48.6862 310.873 50.2137 310.873 51.8065V96.7964C296.078 96.3769 281.168 96.1647 266.143 96.1597Z" fill="url(#paint2_linear_1276_5142)"/>
<path d="M294.3 393.457H687.409V407.561H293.789L294.3 393.457Z" fill="#8FB5D3"/>
<path d="M87.3298 146.792C92.3147 144.568 94.923 141.586 112.268 123.36C129.614 105.135 165.562 74.9465 178.473 64.3715C191.383 53.7966 205.999 45.2782 210.549 40.1976C212.195 38.5881 213.327 36.5543 213.81 34.3391C215.865 33.1892 217.934 32.0655 220.016 30.968C220.016 32.7006 219.642 34.414 218.918 35.9986C218.194 37.5832 217.136 39.004 215.812 40.17C169.625 74.7929 129.195 109.464 97.6718 144.208C89.594 151.322 79.0654 155.264 68.1445 155.264C69.3584 153.773 70.5922 152.296 71.8453 150.832C77.2076 150.353 82.4451 148.987 87.3298 146.792Z" fill="#3D6C81"/>
<g style="mix-blend-mode:multiply">
<path d="M623.613 356.473L651.198 407.56H45.9408C41.6943 407.553 37.484 406.8 33.5156 405.337V319.571C33.5155 304.418 36.6349 289.416 42.6913 275.443C48.7478 261.469 57.6199 248.803 68.7898 238.185C79.9597 227.567 93.2038 219.209 107.748 213.6C122.292 207.991 137.845 205.243 153.498 205.517L377.837 209.434C428.671 210.322 478.32 224.444 521.567 250.317C564.815 276.191 600.064 312.86 623.613 356.473Z" fill="#F2DABD"/>
</g>
<path d="M165 500C222.99 500 270 452.99 270 395C270 337.01 222.99 290 165 290C107.01 290 60 337.01 60 395C60 452.99 107.01 500 165 500Z" fill="#2B2B2C"/>
<path d="M167.041 496.404C222.27 496.404 266.838 451.633 266.587 396.405C266.336 341.177 221.361 296.406 166.133 296.406C110.904 296.406 66.3362 341.177 66.5871 396.405C66.8379 451.633 111.813 496.404 167.041 496.404Z" fill="#373738"/>
<path opacity="0.29" d="M74.6657 381.991C75.4905 381.979 76.2853 381.683 76.9122 381.152C77.5391 380.621 77.9594 379.89 78.099 379.085C81.952 358.659 92.9006 340.209 109.049 326.933C125.197 313.656 145.528 306.388 166.52 306.388C187.512 306.388 207.842 313.656 223.991 326.933C240.139 340.209 251.088 358.659 254.941 379.085C255.081 379.89 255.5 380.621 256.127 381.151C256.754 381.682 257.549 381.979 258.374 381.991H258.544C259.055 381.99 259.559 381.878 260.021 381.663C260.484 381.448 260.893 381.135 261.22 380.746C261.547 380.358 261.784 379.902 261.913 379.413C262.043 378.924 262.062 378.412 261.97 377.915C257.832 355.848 246.021 335.91 228.587 321.561C211.153 307.211 189.195 299.355 166.522 299.355C143.848 299.355 121.89 307.211 104.455 321.561C87.0212 335.91 75.2113 355.848 71.0733 377.915C70.9807 378.412 70.9998 378.924 71.1291 379.413C71.2584 379.903 71.4944 380.358 71.8213 380.747C72.1481 381.136 72.5573 381.449 73.0199 381.664C73.4826 381.879 73.9873 381.991 74.4984 381.991H74.6657Z" fill="white"/>
<path opacity="0.11" d="M167.097 475.38C211.563 475.38 247.352 439.593 247.035 395.447C246.718 351.301 210.415 315.513 165.949 315.513C121.484 315.513 85.6944 351.301 86.0114 395.447C86.3285 439.593 122.632 475.38 167.097 475.38Z" fill="#8FB5D3"/>
<path d="M166.525 470.148C208.212 470.148 242.005 436.696 242.005 395.431C242.005 354.165 208.212 320.713 166.525 320.713C124.839 320.713 91.0449 354.165 91.0449 395.431C91.0449 436.696 124.839 470.148 166.525 470.148Z" fill="#1E1E1F"/>
<path d="M231.126 421.939C245.904 386.621 228.962 346.132 193.284 331.503C157.606 316.874 116.703 333.645 101.924 368.963C87.1461 404.28 104.089 444.769 139.767 459.398C175.445 474.027 216.348 457.256 231.126 421.939Z" fill="#8FB5D3"/>
<path d="M181.607 458.717C216.905 450.468 238.764 415.457 230.431 380.516C222.098 345.574 186.729 323.936 151.432 332.184C116.134 340.433 94.2745 375.445 102.607 410.386C110.94 445.327 146.309 466.965 181.607 458.717Z" fill="white"/>
<path d="M142.598 395.435C142.598 400.12 144.001 404.699 146.63 408.595C149.259 412.49 152.996 415.526 157.369 417.319C161.741 419.111 166.552 419.58 171.194 418.667C175.836 417.753 180.1 415.497 183.446 412.184C186.793 408.871 189.072 404.651 189.995 400.056C190.919 395.461 190.445 390.699 188.634 386.371C186.823 382.042 183.756 378.343 179.821 375.74C175.886 373.137 171.259 371.748 166.526 371.748C160.18 371.748 154.093 374.244 149.606 378.686C145.118 383.128 142.598 389.153 142.598 395.435Z" fill="#8FB5D3"/>
<path d="M166.528 408.952C174.071 408.952 180.186 402.899 180.186 395.433C180.186 387.967 174.071 381.914 166.528 381.914C158.986 381.914 152.871 387.967 152.871 395.433C152.871 402.899 158.986 408.952 166.528 408.952Z" fill="white"/>
<path opacity="0.11" d="M166.52 475.256C155.932 475.256 145.446 473.192 135.664 469.181C125.881 465.17 116.992 459.29 109.505 451.879C102.017 444.467 96.0786 435.668 92.0265 425.984C87.9745 416.3 85.8885 405.921 85.8887 395.439H247.15C247.15 405.921 245.065 416.3 241.013 425.984C236.961 435.668 231.022 444.466 223.535 451.878C216.048 459.29 207.159 465.169 197.376 469.18C187.593 473.191 177.109 475.256 166.52 475.256Z" fill="#8FB5D3"/>
<path d="M141.235 346.305C130.757 351.606 122.235 360.042 116.88 370.414C116.705 370.763 116.462 371.075 116.166 371.332C115.869 371.588 115.524 371.785 115.151 371.91C114.778 372.034 114.384 372.085 113.991 372.059C113.597 372.032 113.213 371.93 112.86 371.757C112.507 371.584 112.192 371.344 111.932 371.05C111.673 370.756 111.475 370.415 111.349 370.045C111.223 369.676 111.172 369.285 111.198 368.896C111.225 368.507 111.329 368.127 111.504 367.778C117.443 356.242 126.919 346.862 138.572 340.982C139.285 340.633 140.109 340.578 140.863 340.83C141.236 340.955 141.581 341.151 141.877 341.407C142.174 341.664 142.417 341.976 142.592 342.325C142.766 342.675 142.87 343.055 142.897 343.444C142.923 343.833 142.872 344.224 142.746 344.593C142.62 344.963 142.422 345.304 142.163 345.598C141.903 345.891 141.588 346.132 141.235 346.305Z" fill="#8FB5D3"/>
<path d="M216.165 370.402C210.81 360.03 202.288 351.593 191.81 346.293C191.455 346.121 191.137 345.881 190.876 345.588C190.615 345.294 190.415 344.952 190.287 344.582C190.16 344.211 190.107 343.819 190.133 343.429C190.159 343.038 190.263 342.657 190.439 342.306C190.614 341.955 190.858 341.642 191.156 341.385C191.454 341.128 191.8 340.932 192.175 340.808C192.55 340.684 192.947 340.634 193.341 340.662C193.735 340.69 194.12 340.795 194.473 340.97C206.126 346.85 215.602 356.23 221.541 367.766C221.719 368.115 221.825 368.496 221.853 368.887C221.881 369.277 221.831 369.669 221.706 370.04C221.581 370.411 221.382 370.754 221.123 371.049C220.863 371.344 220.547 371.586 220.193 371.759C219.839 371.933 219.453 372.036 219.058 372.061C218.664 372.087 218.268 372.036 217.893 371.909C217.519 371.783 217.174 371.585 216.877 371.326C216.581 371.068 216.339 370.753 216.165 370.402Z" fill="#8FB5D3"/>
<path d="M116.88 420.48C122.235 430.852 130.757 439.288 141.235 444.589C141.588 444.762 141.903 445.002 142.163 445.296C142.422 445.589 142.62 445.931 142.746 446.3C142.872 446.67 142.923 447.06 142.897 447.449C142.87 447.838 142.766 448.219 142.592 448.568C142.417 448.917 142.174 449.229 141.877 449.486C141.581 449.743 141.236 449.939 140.863 450.064C140.109 450.316 139.285 450.261 138.572 449.911C126.919 444.031 117.443 434.652 111.504 423.116C111.329 422.766 111.225 422.386 111.198 421.997C111.172 421.608 111.223 421.218 111.349 420.848C111.475 420.479 111.673 420.137 111.932 419.844C112.192 419.55 112.507 419.31 112.86 419.137C113.213 418.964 113.597 418.861 113.991 418.835C114.384 418.809 114.778 418.859 115.151 418.984C115.524 419.109 115.869 419.305 116.166 419.562C116.462 419.818 116.705 420.13 116.88 420.48Z" fill="#8FB5D3"/>
<path d="M191.81 444.594C202.288 439.293 210.81 430.856 216.165 420.484C216.339 420.133 216.581 419.819 216.877 419.56C217.174 419.301 217.519 419.103 217.893 418.977C218.268 418.851 218.664 418.799 219.058 418.825C219.453 418.851 219.839 418.953 220.193 419.127C220.547 419.301 220.863 419.542 221.123 419.837C221.382 420.132 221.581 420.475 221.706 420.846C221.831 421.217 221.881 421.609 221.853 422C221.825 422.39 221.719 422.771 221.541 423.121C215.602 434.657 206.126 444.036 194.473 449.916C194.12 450.092 193.735 450.197 193.341 450.224C192.947 450.252 192.55 450.203 192.175 450.079C191.8 449.954 191.454 449.758 191.156 449.501C190.858 449.244 190.614 448.931 190.439 448.58C190.263 448.23 190.159 447.848 190.133 447.458C190.107 447.067 190.16 446.675 190.287 446.305C190.415 445.934 190.615 445.592 190.876 445.299C191.137 445.005 191.455 444.766 191.81 444.594Z" fill="#8FB5D3"/>
<path d="M805 500C862.99 500 910 452.99 910 395C910 337.01 862.99 290 805 290C747.01 290 700 337.01 700 395C700 452.99 747.01 500 805 500Z" fill="#2B2B2C"/>
<path d="M807.041 496.404C862.27 496.404 906.838 451.633 906.587 396.405C906.336 341.177 861.361 296.406 806.133 296.406C750.904 296.406 706.336 341.177 706.587 396.405C706.838 451.633 751.813 496.404 807.041 496.404Z" fill="#373738"/>
<path opacity="0.29" d="M714.666 381.991C715.491 381.979 716.285 381.683 716.912 381.152C717.539 380.621 717.959 379.89 718.099 379.085C721.952 358.659 732.901 340.209 749.049 326.933C765.197 313.656 785.528 306.388 806.52 306.388C827.512 306.388 847.842 313.656 863.991 326.933C880.139 340.209 891.088 358.659 894.941 379.085C895.081 379.89 895.5 380.621 896.127 381.151C896.754 381.682 897.549 381.979 898.374 381.991H898.544C899.055 381.99 899.559 381.878 900.021 381.663C900.484 381.448 900.893 381.135 901.22 380.746C901.547 380.358 901.784 379.902 901.913 379.413C902.043 378.924 902.062 378.412 901.97 377.915C897.832 355.848 886.021 335.91 868.587 321.561C851.153 307.211 829.195 299.355 806.522 299.355C783.848 299.355 761.89 307.211 744.455 321.561C727.021 335.91 715.211 355.848 711.073 377.915C710.981 378.412 711 378.924 711.129 379.413C711.258 379.903 711.494 380.358 711.821 380.747C712.148 381.136 712.557 381.449 713.02 381.664C713.483 381.879 713.987 381.991 714.498 381.991H714.666Z" fill="white"/>
<path opacity="0.11" d="M807.097 475.38C851.563 475.38 887.352 439.593 887.035 395.447C886.718 351.301 850.415 315.513 805.949 315.513C761.484 315.513 725.694 351.301 726.011 395.447C726.328 439.593 762.632 475.38 807.097 475.38Z" fill="#8FB5D3"/>
<path d="M806.525 470.148C848.212 470.148 882.005 436.696 882.005 395.431C882.005 354.165 848.212 320.713 806.525 320.713C764.839 320.713 731.045 354.165 731.045 395.431C731.045 436.696 764.839 470.148 806.525 470.148Z" fill="#1E1E1F"/>
<path d="M871.126 421.939C885.904 386.621 868.962 346.132 833.284 331.503C797.606 316.874 756.703 333.645 741.924 368.963C727.146 404.28 744.089 444.769 779.767 459.398C815.445 474.027 856.348 457.256 871.126 421.939Z" fill="#8FB5D3"/>
<path d="M821.607 458.717C856.905 450.468 878.764 415.457 870.431 380.516C862.098 345.574 826.729 323.936 791.432 332.184C756.134 340.433 734.275 375.445 742.607 410.386C750.94 445.327 786.309 466.965 821.607 458.717Z" fill="white"/>
<path d="M782.598 395.435C782.598 400.12 784.001 404.699 786.63 408.595C789.259 412.49 792.996 415.526 797.369 417.319C801.741 419.111 806.552 419.58 811.194 418.667C815.836 417.753 820.1 415.497 823.446 412.184C826.793 408.871 829.072 404.651 829.995 400.056C830.919 395.461 830.445 390.699 828.634 386.371C826.823 382.042 823.756 378.343 819.821 375.74C815.886 373.137 811.259 371.748 806.526 371.748C800.18 371.748 794.093 374.244 789.606 378.686C785.118 383.128 782.598 389.153 782.598 395.435Z" fill="#8FB5D3"/>
<path d="M806.528 408.952C814.071 408.952 820.186 402.899 820.186 395.433C820.186 387.967 814.071 381.914 806.528 381.914C798.986 381.914 792.871 387.967 792.871 395.433C792.871 402.899 798.986 408.952 806.528 408.952Z" fill="white"/>
<path opacity="0.11" d="M806.52 475.256C795.932 475.256 785.446 473.192 775.664 469.181C765.881 465.17 756.992 459.29 749.505 451.879C742.017 444.467 736.079 435.668 732.027 425.984C727.974 416.3 725.889 405.921 725.889 395.439H887.15C887.15 405.921 885.065 416.3 881.013 425.984C876.961 435.668 871.022 444.466 863.535 451.878C856.048 459.29 847.159 465.169 837.376 469.18C827.593 473.191 817.109 475.256 806.52 475.256Z" fill="#8FB5D3"/>
<path d="M781.235 346.305C770.757 351.606 762.235 360.042 756.88 370.414C756.705 370.763 756.462 371.075 756.166 371.332C755.869 371.588 755.524 371.785 755.151 371.91C754.778 372.034 754.384 372.085 753.991 372.059C753.597 372.032 753.213 371.93 752.86 371.757C752.507 371.584 752.192 371.344 751.932 371.05C751.673 370.756 751.475 370.415 751.349 370.045C751.223 369.676 751.172 369.285 751.198 368.896C751.225 368.507 751.329 368.127 751.504 367.778C757.443 356.242 766.919 346.862 778.572 340.982C779.285 340.633 780.109 340.578 780.863 340.83C781.236 340.955 781.581 341.151 781.877 341.407C782.174 341.664 782.417 341.976 782.592 342.325C782.766 342.675 782.87 343.055 782.897 343.444C782.923 343.833 782.872 344.224 782.746 344.593C782.62 344.963 782.422 345.304 782.163 345.598C781.903 345.891 781.588 346.132 781.235 346.305Z" fill="#8FB5D3"/>
<path d="M856.165 370.402C850.81 360.03 842.288 351.593 831.81 346.293C831.455 346.121 831.137 345.881 830.876 345.588C830.615 345.294 830.415 344.952 830.287 344.582C830.16 344.211 830.107 343.819 830.133 343.429C830.159 343.038 830.263 342.657 830.439 342.306C830.614 341.955 830.858 341.642 831.156 341.385C831.454 341.128 831.8 340.932 832.175 340.808C832.55 340.684 832.947 340.634 833.341 340.662C833.735 340.69 834.12 340.795 834.473 340.97C846.126 346.85 855.602 356.23 861.541 367.766C861.719 368.115 861.825 368.496 861.853 368.887C861.881 369.277 861.831 369.669 861.706 370.04C861.581 370.411 861.382 370.754 861.123 371.049C860.863 371.344 860.547 371.586 860.193 371.759C859.839 371.933 859.453 372.036 859.058 372.061C858.664 372.087 858.268 372.036 857.893 371.909C857.519 371.783 857.174 371.585 856.877 371.326C856.581 371.068 856.339 370.753 856.165 370.402Z" fill="#8FB5D3"/>
<path d="M756.88 420.48C762.235 430.852 770.757 439.288 781.235 444.589C781.588 444.762 781.903 445.002 782.163 445.296C782.422 445.589 782.62 445.931 782.746 446.3C782.872 446.67 782.923 447.06 782.897 447.449C782.87 447.838 782.766 448.219 782.592 448.568C782.417 448.917 782.174 449.229 781.877 449.486C781.581 449.743 781.236 449.939 780.863 450.064C780.109 450.316 779.285 450.261 778.572 449.911C766.919 444.031 757.443 434.652 751.504 423.116C751.329 422.766 751.225 422.386 751.198 421.997C751.172 421.608 751.223 421.218 751.349 420.848C751.475 420.479 751.673 420.137 751.932 419.844C752.192 419.55 752.507 419.31 752.86 419.137C753.213 418.964 753.597 418.861 753.991 418.835C754.384 418.809 754.778 418.859 755.151 418.984C755.524 419.109 755.869 419.305 756.166 419.562C756.462 419.818 756.705 420.13 756.88 420.48Z" fill="#8FB5D3"/>
<path d="M831.81 444.594C842.288 439.293 850.81 430.856 856.165 420.484C856.339 420.133 856.581 419.819 856.877 419.56C857.174 419.301 857.519 419.103 857.893 418.977C858.268 418.851 858.664 418.799 859.058 418.825C859.453 418.851 859.839 418.953 860.193 419.127C860.547 419.301 860.863 419.542 861.123 419.837C861.382 420.132 861.581 420.475 861.706 420.846C861.831 421.217 861.881 421.609 861.853 422C861.825 422.39 861.719 422.771 861.541 423.121C855.602 434.657 846.126 444.036 834.473 449.916C834.12 450.092 833.735 450.197 833.341 450.224C832.947 450.252 832.55 450.203 832.175 450.079C831.8 449.954 831.454 449.758 831.156 449.501C830.858 449.244 830.614 448.931 830.439 448.58C830.263 448.23 830.159 447.848 830.133 447.458C830.107 447.067 830.16 446.675 830.287 446.305C830.415 445.934 830.615 445.592 830.876 445.299C831.137 445.005 831.455 444.766 831.81 444.594Z" fill="#8FB5D3"/>
</g>
<defs>
<linearGradient id="paint0_linear_1276_5142" x1="675.203" y1="98.9862" x2="687.075" y2="88.3245" gradientUnits="userSpaceOnUse">
<stop offset="0.2993"/>
<stop offset="0.3663" stop-color="#060606"/>
<stop offset="0.4535" stop-color="#161616"/>
<stop offset="0.5517" stop-color="#313131"/>
<stop offset="0.6582" stop-color="#565656"/>
<stop offset="0.7713" stop-color="#878787"/>
<stop offset="0.888" stop-color="#C0C0C0"/>
<stop offset="1" stop-color="white"/>
</linearGradient>
<linearGradient id="paint1_linear_1276_5142" x1="501.698" y1="144.279" x2="501.698" y2="45.802" gradientUnits="userSpaceOnUse">
<stop offset="0.2993"/>
<stop offset="0.3663" stop-color="#060606"/>
<stop offset="0.4535" stop-color="#161616"/>
<stop offset="0.5517" stop-color="#313131"/>
<stop offset="0.6582" stop-color="#565656"/>
<stop offset="0.7713" stop-color="#878787"/>
<stop offset="0.888" stop-color="#C0C0C0"/>
<stop offset="1" stop-color="white"/>
</linearGradient>
<linearGradient id="paint2_linear_1276_5142" x1="252.878" y1="97.7761" x2="252.878" y2="45.801" gradientUnits="userSpaceOnUse">
<stop offset="0.2993"/>
<stop offset="0.3663" stop-color="#060606"/>
<stop offset="0.4535" stop-color="#161616"/>
<stop offset="0.5517" stop-color="#313131"/>
<stop offset="0.6582" stop-color="#565656"/>
<stop offset="0.7713" stop-color="#878787"/>
<stop offset="0.888" stop-color="#C0C0C0"/>
<stop offset="1" stop-color="white"/>
</linearGradient>
<clipPath id="clip0_1276_5142">
<rect width="1000" height="500" fill="white"/>
</clipPath>
</defs>
</svg>
