<svg width="600" height="600" viewBox="0 0 600 600" fill="none" xmlns="http://www.w3.org/2000/svg">
<path d="M300.388 599.488C465.341 599.488 599.14 465.767 599.238 300.814C599.336 135.862 465.694 2.14111 300.742 2.14111C135.789 2.14111 1.98915 135.862 1.89145 300.814C1.79374 465.767 135.435 599.488 300.388 599.488Z" fill="#1F8DE8"/>
<path d="M498.91 109.608C475.023 105.624 457.108 99.6489 433.221 97.6572C395.4 95.6654 357.58 97.6572 319.759 103.632C271.985 111.599 228.193 123.55 180.419 117.575C149.64 114.389 116.597 101.58 84.0056 95.1438C71.7385 108.076 60.632 122.105 50.8232 137.053C62.9747 136.567 74.5367 135.5 82.8815 135.5C164.495 135.5 244.117 163.385 323.74 157.41C369.523 155.418 413.315 143.467 459.099 147.451C492.938 151.434 522.797 159.401 556.636 155.418C557.998 155.294 559.507 155.1 561.128 154.842C552.334 139.157 542.179 124.354 530.812 110.598C518.705 111.38 507.409 111.57 498.91 109.608Z" fill="#0073C1"/>
<path d="M290.612 219.154C242.839 229.113 195.065 231.105 145.301 217.162C115.532 207.685 66.4509 185.332 24.9367 185.745C9.07962 223.709 0.846899 265.58 2.10275 309.383C3.43244 355.761 15.2571 399.366 35.2338 437.985C85.3706 436.142 129.735 425.108 179.14 434.263C242.839 446.213 296.584 468.122 360.282 456.172C421.989 444.221 477.725 416.337 541.423 436.254C547.051 438.032 554.361 440.783 562.701 443.924C587.259 398.987 600.601 347.139 599.027 292.248C598.379 269.649 595.224 247.714 589.863 226.688C548.701 223.806 509.015 212.846 465.782 207.204C410.046 199.237 346.348 207.204 290.612 219.154Z" fill="#0073C1"/>
<path d="M220.941 533.85C176.714 527.746 132.487 511.14 88.2598 510.864C144.407 567.657 223.025 601.926 309.127 599.454C388.437 597.178 459.624 564.145 511.629 512.12C414.378 491.254 324.377 547.649 220.941 533.85Z" fill="#0073C1"/>
<path d="M59.7063 297.495C68.9956 277.578 92.8823 282.889 110.134 286.873C130.039 292.184 148.618 297.495 169.851 294.84C192.411 292.184 208.335 282.889 229.568 292.184C238.857 294.84 245.492 302.807 254.782 306.79C261.417 309.446 278.668 310.774 281.322 314.757C297.247 332.019 265.398 349.281 250.801 350.609C232.222 351.936 216.298 338.658 196.392 337.33C156.581 333.347 114.115 359.903 78.2847 330.691C71.6496 324.052 56.7129 317.544 56.7129 308.249L59.7063 297.495Z" fill="#222222"/>
<path d="M175.159 85.7073C195.064 81.7238 215.965 86.2052 234.876 88.197C259.758 90.1887 275.682 79.981 299.569 75.9975C324.451 72.014 349.333 79.8565 375.21 77.8648C393.126 76.8689 439.904 65.8522 403.078 49.9182C384.168 41.9513 367.248 40.9241 347.343 40.9241C320.47 40.9241 296.583 37.921 270.706 35.9292C248.81 33.9375 237.861 40.4029 217.956 50.3616C208.003 55.3409 140.324 63.7981 174.163 85.7073H175.159Z" fill="#222222"/>
<path d="M465.633 358.576C454.132 360.567 442.057 357.759 431.131 356.609C416.755 355.458 407.555 361.092 393.754 363.393C379.378 365.694 365.002 361.031 350.051 362.182C339.7 362.757 312.674 369.056 333.95 378.262C344.876 382.865 354.651 383.426 366.152 383.426C381.678 383.426 399.738 379.341 414.689 380.492C427.34 381.643 429.729 379.18 441.23 373.426C446.981 370.549 485.759 370.526 466.208 358.576H465.633Z" fill="#222222"/>
<path d="M299.161 2.05322C288.041 2.05322 277.064 2.66688 266.259 3.85216C415.681 20.2412 512.036 146.94 512.036 300.815C512.036 454.69 415.681 581.389 266.259 597.778C277.064 598.963 288.041 599.577 299.161 599.577C464.065 599.577 598.255 468.182 599.147 300.815C600.027 135.816 464.065 2.05322 299.161 2.05322Z" fill="#222222" fill-opacity="0.5"/>
</svg>
