<svg width="1000" height="600" viewBox="0 0 1000 600" fill="none" xmlns="http://www.w3.org/2000/svg">
<g clip-path="url(#clip0_1276_8690)">
<path opacity="0.2" d="M491.375 97.4561C509.648 123.639 507.187 136.932 517.726 155.027C528.265 173.121 534.945 203.972 528.111 247.686C521.277 291.4 521.231 332.223 484.975 357.442C448.715 382.683 387.005 365.771 377.899 338.903C368.794 312.028 376.477 306.407 371.233 304.705C366 303.012 356.569 312.31 346.874 305.222C337.187 298.151 342.182 294.208 333.254 296.245C324.327 298.283 326.276 294.337 319.745 294.014C313.201 293.691 308.084 293.134 302.363 283.449C296.642 273.765 288.789 191.565 321.972 147.516C355.167 103.479 465.335 60.1468 491.375 97.4561Z" fill="black"/>
<path d="M485.55 87.4789C498.457 105.762 493.929 116.271 512.275 151.873C530.618 187.462 527.669 208.184 525.209 227.586C522.75 246.989 519.273 264.182 508.703 279.165C498.141 294.138 507.882 326.124 448.464 329.022C389.048 331.929 383.804 294.904 368.128 302.093C352.452 309.281 345.612 302.551 344.392 296.991C343.173 291.424 340.513 289.629 336.714 291.737C334.925 292.706 332.922 293.217 330.884 293.224C328.846 293.23 326.839 292.733 325.044 291.776C322.286 289.977 313.256 295.349 302.359 283.447C299.255 280.072 273.103 274.597 285.094 180.175C297.085 85.7533 426.811 4.21755 485.55 87.4789Z" fill="#625A57"/>
<path opacity="0.2" d="M458.868 277.419C440.055 281.559 379.952 282.238 370.695 289.437C361.437 296.636 353.044 304.934 345.986 300.565C348.951 304.79 355.799 307.762 368.128 302.094C372.688 300.007 376.37 301.656 380.752 304.985L380.758 304.978C380.758 304.978 383.617 296.358 397.641 290.815C411.669 285.267 434.436 285.359 451.39 283.248C468.35 281.134 482.596 296.507 488.751 296.692C494.905 296.868 496.473 294.644 496.473 294.644C487.432 295.083 477.681 273.283 458.868 277.419Z" fill="black"/>
<path opacity="0.2" d="M383.35 263.112C349.936 271.006 339.84 286.12 338.871 290.948L338.904 290.969C341.031 290.645 342.66 291.907 343.719 294.728L343.747 294.756C344.347 291.919 345.539 289.238 347.245 286.885C350.389 282.065 363.856 270.005 383.35 263.112Z" fill="black"/>
<path opacity="0.1" d="M512.276 151.874C493.93 116.272 498.458 105.765 485.551 87.4798C477.325 75.3394 465.91 65.6652 452.542 59.5054C462.912 66.6004 471.295 76.1971 476.901 87.3931C482.508 98.5891 485.155 111.017 484.594 123.508C482.559 166.681 499.967 187.679 484.001 211.597C468.04 235.509 462.533 241.778 473.59 244.021C476.465 244.808 479.134 246.204 481.412 248.114C483.69 250.024 485.525 252.402 486.788 255.083C488.883 258.73 488.805 266.689 491.103 270.005C493.401 273.322 487.091 272.917 484.232 269.758C477.965 262.033 467.126 254.064 447.009 259.676C414.897 268.638 420.942 255.17 390.432 264.211C359.921 273.253 350.232 291.398 355.827 289.045C361.427 286.676 367.567 281.237 386.467 279.028C405.352 276.823 425.368 278.414 447.886 275.456C467.068 272.939 474.182 273.58 481.214 278.007C484.264 280.146 488.521 285.452 494.044 285.988C499.593 286.519 502.043 282.384 500.869 276.498C499.694 270.612 499.539 267.815 501.696 266.649H501.703C508.581 263.629 519.176 252.279 524.598 232.153C524.81 230.643 525.015 229.116 525.212 227.587C527.67 208.185 530.619 187.464 512.276 151.874Z" fill="white"/>
<path d="M494.704 296.769C488.085 307.643 490.254 340.251 486.735 362.925C483.216 385.606 468.508 405.382 463.658 419.983C458.816 434.568 461.849 451.134 458.527 465.44C455.218 479.733 451.476 507.544 452.472 519.924C453.221 528.415 453.139 536.959 452.229 545.435C451.734 549.323 386.796 553.572 387.436 548.604C388.056 543.65 392.425 504.233 390.889 491.028C389.36 477.814 384.069 472.297 382.435 456.511C380.802 440.739 382.33 430.851 384.194 425.788C386.065 420.729 384.713 408.199 377.309 379.001C369.88 349.79 369.294 300.546 384.353 293.166C399.411 285.786 414.933 284.819 436.408 282.486C457.882 280.148 463.899 278.303 474.414 285.18C484.929 292.056 490.062 298.817 494.704 296.769Z" fill="#625A57"/>
<path opacity="0.1" d="M431.106 504.477C420.252 504.348 409.399 504.878 398.61 506.065C396.02 506.193 394.953 502.814 394.707 494.65C394.456 486.472 396.618 487.958 412.879 486.302C429.131 484.653 441.347 474.422 433.565 478.219C425.788 482.033 413.966 484.483 424.011 478.694C434.055 472.899 453.05 458.477 442.007 464.552C430.969 470.619 422.7 477.637 410.268 478.242C397.846 478.846 387.439 476.878 384.322 467.058C386.571 475.677 389.76 481.256 390.893 491.028C391.838 499.206 390.526 517.442 389.234 531.32C391.357 526.703 393.069 521.909 394.348 516.994C395.835 509.644 397.874 510.18 408.757 507.934C419.634 505.691 441.491 505.263 431.106 504.477Z" fill="black"/>
<path d="M380.568 547.022C375.148 549.986 370.307 553.892 366.275 558.553C360.002 565.801 355.226 573.103 356.024 576.924C356.822 580.745 380.04 581.532 388.342 573.415C396.643 565.297 390.063 540.786 380.568 547.022Z" fill="#83786E"/>
<path opacity="0.2" d="M366.814 558.905C361.402 565.156 357.128 571.433 356.567 575.499C362.636 571.698 370.445 568.787 371.098 562.197C371.471 558.483 372.636 554.89 374.516 551.657C371.687 553.784 369.104 556.215 366.814 558.905Z" fill="white"/>
<path d="M452.325 516.924C452.161 524.383 467.211 542.788 464.345 565.428C462.532 579.646 369.649 583.867 371.341 570.599C373.016 557.345 375.224 549.527 380.89 542.822C385.901 536.62 389.087 529.162 390.095 521.274C390.479 515.994 452.709 499.204 452.325 516.924Z" fill="#625A57"/>
<path opacity="0.2" d="M464.345 565.427C464.509 564.07 464.61 562.747 464.668 561.437C462.844 563.4 460.629 564.967 458.164 566.038C442.048 572.94 438.338 573.123 439.912 560.67C441.499 548.21 437.48 560.303 432.75 562.455C428.023 564.62 423.571 561.783 422.066 562.177C420.578 562.584 429.294 570.178 427.023 573.348C424.752 576.517 378.038 575.417 378.038 575.417C373.595 574.128 370.347 571.943 378.722 562.422C387.097 552.907 381.658 548.57 392.226 536.171C387.109 539.772 383.245 544.861 381.166 550.735C379.787 555.705 377.069 560.208 373.305 563.759C373.235 563.81 373.156 563.846 373.071 563.865C372.986 563.884 372.899 563.886 372.813 563.87C372.728 563.854 372.647 563.821 372.575 563.772C372.503 563.724 372.442 563.662 372.395 563.589C372.02 565.754 371.66 568.055 371.339 570.6C369.649 583.866 462.532 579.645 464.345 565.427Z" fill="black"/>
<path d="M422.32 580.493C431.222 578.932 426.748 568.338 414.096 561.836C401.443 555.308 390.402 557.458 385.683 559.943C380.963 562.428 369.966 569.383 366.889 576.604C363.807 583.826 385.566 586.926 422.32 580.493Z" fill="#83786E"/>
<path opacity="0.2" d="M418.449 565.535C421.202 567.199 423.26 569.791 424.247 572.838C424.445 574.643 397.468 581.572 388.184 579.706C378.9 577.84 388.434 561.029 391.306 559.346C394.179 557.663 406.336 556.515 418.449 565.535Z" fill="white"/>
<path d="M457.786 538.688C450.676 537.609 448.627 541.769 446.167 545.963C443.707 550.157 440.765 571.63 441.067 574.338C441.37 577.046 444.798 579.061 464.177 575.933C480.241 573.334 474.291 572.974 473.509 564.014C472.717 555.051 475.005 541.267 457.786 538.688Z" fill="#83786E"/>
<path opacity="0.2" d="M464.132 541.322C458.609 538.81 460.839 539.876 456.212 545.997C452.107 552.367 449.876 559.747 449.767 567.307C449.176 574.514 462.94 572.234 468.561 571.752C474.189 571.257 471.672 568.257 472.227 560.643C472.766 553.028 471.757 544.803 464.132 541.322Z" fill="white"/>
<path opacity="0.2" d="M417.851 560.901C410.932 558.091 397.806 553.632 386.862 558.098C375.924 562.556 392.562 552.851 402.531 552.682C412.496 552.533 423.59 563.222 417.851 560.901Z" fill="white"/>
<path opacity="0.1" d="M388.708 552.926C394.895 549.842 401.932 548.865 408.734 550.144C414.11 551.583 420.447 556.476 424.032 556.862C427.622 557.256 433.882 553.401 439.087 546.079C444.302 538.756 436.715 535.844 434.352 524.314C431.978 512.79 421.422 514.073 410.477 515.729C399.52 517.378 413.305 511.351 425.664 511.82C438.034 512.288 428.531 507.911 412.26 510.13C395.991 512.336 392.384 519.896 392.744 521.145C393.107 522.407 397.264 518.322 401.325 518.356C405.384 518.383 397.786 522.149 396.427 529.771C395.059 537.378 384.797 544.877 388.708 552.926Z" fill="white"/>
<path opacity="0.3" d="M528.111 247.685C534.944 203.971 528.268 173.123 517.726 155.026C507.184 136.93 509.648 123.638 491.375 97.4623C490.037 94.5821 488.477 91.8088 486.708 89.1674C486.349 88.6114 485.959 88.0493 485.551 87.4794C484.476 85.9488 483.377 84.5033 482.255 83.0884C481.925 82.6777 481.59 82.2774 481.253 81.8667C480.423 80.852 479.573 79.8649 478.717 78.9027C478.367 78.5177 478.025 78.1306 477.676 77.7508C476.666 76.6581 475.642 75.609 474.604 74.6034C474.435 74.4356 474.267 74.2559 474.098 74.1013C472.811 72.8643 471.508 71.7006 470.176 70.5807C470.104 70.5212 470.026 70.4552 469.945 70.3975C468.714 69.3708 467.461 68.3885 466.189 67.4656C465.98 67.3096 465.764 67.1602 465.552 67.0076C464.304 66.1084 463.043 65.2589 461.769 64.4593C461.664 64.3863 461.559 64.3203 461.459 64.2557C397.156 24.1384 295.64 97.1672 285.095 180.177C273.098 274.599 299.256 280.076 302.36 283.449C308.081 293.133 313.199 293.69 319.742 294.014C326.274 294.336 324.327 298.288 333.252 296.245C342.176 294.202 337.184 298.151 346.871 305.222C356.569 312.311 365.999 303.012 371.23 304.705C374.659 305.817 372.587 308.637 373.256 317.933C371.132 338.37 372.5 359.016 377.305 378.999C378.133 382.284 378.88 385.323 379.564 388.197C379.755 388.989 379.926 389.742 380.111 390.501C385.02 411.592 385.789 421.449 384.19 425.786C382.325 430.849 380.798 440.737 382.431 456.509C382.894 461.118 383.816 465.671 385.184 470.099C385.195 470.136 385.208 470.173 385.224 470.208C386.179 473.357 387.226 476.184 388.183 479.108C388.368 479.699 388.564 480.303 388.743 480.921C388.829 481.185 388.914 481.47 388.986 481.735C389.231 482.569 389.468 483.425 389.686 484.306L389.746 484.571C389.937 485.392 390.113 486.247 390.279 487.129C390.334 487.38 390.378 487.645 390.424 487.916C390.595 488.894 390.754 489.897 390.877 490.977L390.885 491.025C390.892 491.056 390.897 491.088 390.899 491.119C390.944 491.554 390.992 492.029 391.022 492.518C391.044 492.708 391.05 492.911 391.062 493.108C391.084 493.456 391.109 493.828 391.121 494.22C391.135 494.444 391.142 494.682 391.149 494.926C391.169 495.313 391.176 495.72 391.19 496.148C391.19 496.371 391.193 496.596 391.2 496.826C391.207 497.376 391.213 497.953 391.213 498.543C391.207 498.65 391.207 498.756 391.213 498.862C391.207 499.561 391.2 500.281 391.19 501.034C391.19 501.258 391.176 501.495 391.176 501.733C391.161 502.263 391.149 502.805 391.128 503.349C391.121 503.626 391.109 503.912 391.101 504.197C391.084 504.726 391.062 505.276 391.044 505.819C391.036 506.09 391.022 506.361 391.009 506.64C390.986 507.325 390.945 508.017 390.912 508.725C390.905 508.853 390.905 508.968 390.9 509.098C390.854 509.966 390.806 510.835 390.755 511.718C390.741 511.867 390.734 512.009 390.729 512.152C390.688 512.878 390.641 513.618 390.589 514.357C390.576 514.582 390.564 514.799 390.55 515.03C390.506 515.729 390.451 516.427 390.405 517.14C390.386 517.33 390.379 517.513 390.361 517.703C390.273 518.905 390.19 520.099 390.096 521.294C389.08 529.173 385.895 536.622 380.891 542.82C379.179 544.853 377.732 547.092 376.586 549.485C372.719 551.988 369.245 555.043 366.275 558.552C360.002 565.8 355.226 573.102 356.024 576.923C356.377 578.64 361.285 579.733 367.316 579.699C371.144 584.551 391.38 585.909 422.318 580.493C423.236 580.431 424.121 580.128 424.881 579.614C425.642 579.099 426.251 578.393 426.645 577.568C431.852 577.093 436.92 576.435 441.551 575.607C442.968 577.568 448.023 578.545 464.179 575.932C480.242 573.333 474.293 572.974 473.511 564.014C472.77 555.612 474.729 542.969 460.798 539.291C457.157 529.131 452.278 521.265 452.331 516.983C452.715 499.643 454.789 482.381 458.525 465.438C459.736 459.363 460.361 453.186 460.39 446.992V446.694C460.429 445.513 460.468 444.308 460.509 443.124C460.53 442.67 460.542 442.235 460.556 441.794C460.581 441.18 460.595 440.572 460.626 439.962C460.672 438.944 460.725 437.922 460.784 436.908C460.803 436.568 460.829 436.243 460.858 435.9C460.909 435.181 460.963 434.448 461.029 433.725C461.068 433.325 461.113 432.911 461.145 432.509C461.219 431.851 461.291 431.179 461.378 430.541C461.429 430.117 461.489 429.699 461.54 429.272C461.639 428.627 461.74 427.975 461.855 427.331C461.922 426.93 461.995 426.523 462.076 426.123C462.205 425.428 462.366 424.745 462.528 424.066C462.607 423.719 462.68 423.357 462.773 423.018C463.023 422.03 463.308 421.037 463.629 420.076L463.655 419.981C465.555 414.781 467.826 409.722 470.451 404.843C476.605 392.741 484.31 378.511 486.738 362.923C486.739 362.885 486.744 362.848 486.752 362.812C486.976 361.301 487.193 359.748 487.371 358.16C487.431 357.669 487.476 357.159 487.537 356.653C487.574 356.275 487.622 355.874 487.655 355.481C521.226 330.136 521.449 290.293 528.111 247.685Z" fill="black"/>
<path opacity="0.1" d="M517.725 155.026C507.186 136.931 509.647 123.638 491.374 97.4618C490.036 94.5816 488.476 91.8084 486.707 89.1669C486.348 88.6109 485.958 88.0488 485.55 87.4789C484.475 85.9483 483.376 84.5028 482.254 83.0879C481.924 82.6772 481.589 82.2769 481.252 81.8662C480.422 80.8516 479.572 79.8644 478.716 78.9022C478.373 78.5172 478.024 78.1301 477.676 77.7503C476.665 76.6662 475.639 75.6106 474.603 74.6029C474.434 74.4351 474.266 74.2555 474.097 74.1008C472.81 72.8638 471.508 71.7001 470.176 70.5802C470.103 70.5208 470.025 70.4547 469.944 70.397C468.713 69.3703 467.46 68.388 466.189 67.4651C465.979 67.3091 465.763 67.1597 465.551 67.0071C464.303 66.1079 463.042 65.2584 461.768 64.4588C461.663 64.3858 461.558 64.3198 461.458 64.2552C397.155 24.1379 295.639 97.1667 285.094 180.177C273.103 274.599 299.255 280.076 302.359 283.448C304.324 287.52 307.651 290.787 311.773 292.694C321.232 290.957 330.977 291.578 340.135 294.501C341.313 294.879 342.494 295.322 343.698 295.814C350.105 298.577 356.06 302.275 361.365 306.786C365.311 305.565 368.745 303.909 371.23 304.704C374.66 305.816 372.587 308.637 373.257 317.933C373.245 318.077 373.233 318.22 373.219 318.366C380.517 326.416 386.236 335.75 390.082 345.885C400.13 373.349 415.165 398.749 434.443 420.826C439.291 426.371 445.966 428.339 449.031 434.386C452.198 440.65 449.154 448.943 454.303 454.501C456.239 451.848 458.289 449.35 460.39 446.921C460.39 446.849 460.397 446.778 460.39 446.697C460.43 445.515 460.476 444.311 460.51 443.127C460.531 442.672 460.542 442.238 460.556 441.797C460.582 441.183 460.595 440.575 460.626 439.965C460.672 438.946 460.725 437.925 460.785 436.911C460.804 436.571 460.829 436.246 460.858 435.903C460.91 435.184 460.963 434.451 461.03 433.728C461.069 433.328 461.113 432.914 461.146 432.512C461.219 431.853 461.291 431.181 461.378 430.543C461.429 430.12 461.489 429.702 461.541 429.275C461.64 428.63 461.745 427.978 461.855 427.334C461.922 426.933 461.995 426.526 462.076 426.125C462.206 425.43 462.366 424.748 462.529 424.069C462.607 423.722 462.681 423.36 462.766 423.021C463.023 422.027 463.308 421.04 463.629 420.079L463.655 419.984C465.555 414.784 467.826 409.725 470.451 404.846C476.605 392.744 484.31 378.514 486.738 362.925C486.736 362.888 486.741 362.851 486.752 362.815C486.981 361.303 487.193 359.751 487.371 358.163C487.43 357.672 487.476 357.162 487.537 356.656C487.567 356.278 487.622 355.877 487.654 355.484C521.222 330.129 521.445 290.293 528.107 247.685C534.943 203.971 528.267 173.122 517.725 155.026Z" fill="black"/>
<path d="M944.53 114.131C980.312 139.679 981.523 233.6 924.49 295.507C867.46 357.423 873.137 367.42 857.195 376.77C846.391 385.011 847.987 399.816 853.069 415.484C858.158 431.148 852.536 439.553 844.205 445.539C835.864 451.516 817.844 479.774 818.943 502.02C819.798 519.143 751.837 523.744 743.409 510.443C734.981 497.141 771.17 465.475 772.395 444.375C773.606 423.275 771.037 416.971 760.751 395.617C750.474 374.269 743.435 379.721 760.582 290.896C777.729 202.071 806.956 15.8624 944.53 114.131Z" fill="#625A57"/>
<path d="M821.187 496.034C821.953 499.325 825.201 513.184 824.22 520.941C823.248 528.705 812.226 532.139 784.455 533.489C756.687 534.847 730.757 535.157 732.056 524.803C733.361 514.46 743.144 502.081 749.655 491.161C756.166 480.242 760.52 472.502 767.229 461.063C776.353 445.496 821.156 447.795 821.387 461.287C821.612 474.772 819.888 490.503 821.187 496.034Z" fill="#625A57"/>
<path opacity="0.1" d="M803.278 453.679C807.005 456.757 798.898 467.069 795.486 483.94C792.081 500.818 797 506.845 795.209 509.981C793.44 513.123 779.675 497.298 757.415 504.646C735.145 512.009 761.628 482.108 769.442 463.523C777.115 445.236 787.527 440.621 803.278 453.679Z" fill="white"/>
<path opacity="0.2" d="M823.966 522.15C821.089 523.988 817.858 525.209 814.478 525.734C801.713 527.966 798.198 526.325 797.774 522.042C797.343 517.759 796.036 521.764 793.893 522.232C791.747 522.687 797.396 528.849 784.636 530.763C771.883 532.663 753.215 530.519 746.342 530.376C739.455 530.226 744.489 523.399 746.342 521.37C748.206 519.355 743.612 522.157 743.093 521.132C742.568 520.108 742.678 526.888 736.379 527.824C734.944 527.997 733.491 527.701 732.24 526.982C734.745 535.092 758.801 534.753 784.457 533.491C810.743 532.207 822.001 529.058 823.966 522.15Z" fill="black"/>
<path opacity="0.2" d="M788.553 516.808C784.668 513.333 776.276 504.728 757.755 512.94C754.255 514.636 761.36 507.226 774.141 507.008C786.924 506.778 792.945 520.738 788.553 516.808Z" fill="white"/>
<path d="M785.102 535.607C793.919 535.172 794.743 526.906 785.872 517.541C776.994 508.169 763.38 510.951 753.846 516.985C744.317 523.011 736.662 537.962 743.556 537.629C750.439 537.297 780.142 535.844 785.102 535.607Z" fill="#83786E"/>
<path opacity="0.2" d="M774.652 512.336C777.82 513.098 780.784 514.534 783.339 516.544C785.893 518.555 787.977 521.093 789.447 523.982C792.865 531.202 788.043 532.193 784.89 533.421C781.735 534.643 771.848 530.781 763.883 531.175C755.914 531.562 765.8 511.263 774.652 512.336Z" fill="white"/>
<path d="M808.725 531.509C803.353 531.766 800.019 529.357 800.849 519.361C801.675 509.344 816.073 501.159 820.576 502.706C825.079 504.253 835.73 507.687 833.646 524.233C832.92 530.056 826.147 530.653 808.725 531.509Z" fill="#83786E"/>
<path opacity="0.2" d="M820.124 503.521C824.511 502.869 830.83 509.208 832.045 513.653C833.124 517.297 833 521.187 831.692 524.756C830.629 526.736 816.201 522.869 811.354 518.682C806.495 514.494 809.067 505.143 820.124 503.521Z" fill="white"/>
<path d="M734.383 530.959C736.817 530.843 739.985 528.644 741.844 518.234C743.716 507.803 743.828 502.468 739.893 504.715C735.957 506.961 727.438 510.865 722.84 518.077C718.241 525.299 719.211 531.691 721.147 531.603C723.083 531.515 732.434 531.054 734.383 530.959Z" fill="#83786E"/>
<path opacity="0.2" d="M740.878 505.488C742.663 506.153 740.864 513.876 738.157 516.923C735.447 519.977 723.666 525.617 721.419 528.128C719.185 530.653 720.122 522.041 725.084 516.007C730.045 509.954 739.726 505.067 740.878 505.488Z" fill="white"/>
<path opacity="0.3" d="M944.531 114.131C806.954 15.8623 777.731 202.073 760.582 290.896C743.433 379.719 750.474 374.269 760.751 395.617C771.037 416.971 773.607 423.276 772.396 444.375C771.379 461.925 746.197 486.771 742.584 502.299C742.164 502.944 741.754 503.588 741.354 504.233C740.835 504.27 740.334 504.436 739.896 504.715C735.957 506.961 727.442 510.865 722.843 518.078C718.252 525.299 719.214 531.692 721.15 531.603C723.086 531.515 732.437 531.054 734.387 530.959C734.841 530.935 735.289 530.839 735.713 530.674C737.502 531.557 739.401 532.2 741.361 532.587C740.416 535.614 740.893 537.765 743.555 537.63C750.44 537.297 780.144 535.845 785.103 535.608C786.208 535.637 787.306 535.428 788.321 534.995C789.336 534.561 790.244 533.913 790.982 533.096C791.945 533.042 792.918 532.967 793.836 532.913C794.491 532.844 795.087 532.784 795.716 532.737C796.483 532.669 797.256 532.594 797.975 532.533C798.64 532.472 799.265 532.391 799.887 532.329C800.53 532.255 801.174 532.187 801.781 532.105C802.42 532.031 803.03 531.943 803.638 531.854C804.178 531.773 804.728 531.712 805.239 531.63C805.663 531.563 806.075 531.488 806.491 531.427C807.235 531.517 807.985 531.544 808.734 531.508C826.149 530.653 832.922 530.056 833.648 524.233C835.449 510.002 827.809 505.482 822.774 503.5C822.13 500.086 821.479 497.29 821.189 496.035C820.708 492.969 820.553 489.862 820.727 486.764C825.349 468.413 837.708 450.198 844.207 445.539C852.536 439.553 858.16 431.148 853.071 415.484C847.989 399.816 846.393 385.011 857.196 376.77C873.138 367.42 867.461 357.424 924.492 295.508C981.524 233.6 980.313 139.679 944.531 114.131Z" fill="black"/>
<path d="M932.346 142.277C929.029 75.1672 854.828 34.546 843.378 25.4672C831.929 16.3884 824.471 16.263 814.298 16.7651C804.13 17.2571 790.745 18.4007 778.775 15.1177C766.788 11.8515 763.896 15.372 753.964 10.8726C744.033 6.37316 732.116 4.38808 715.05 12.7678C697.992 21.161 663.105 38.863 619.18 41.0153C575.269 43.1634 510.087 -1.16807 485.799 0.0241149C461.519 1.20831 437.745 15.6011 437.745 15.6011C437.745 15.6011 402.339 6.6105 358.797 51.1646C315.255 95.7108 321.258 286.519 417.331 344.174C513.409 401.823 600.547 409.785 681.277 405.847C762.008 401.909 862.013 343.037 889.506 257.491C916.988 171.954 933.526 166.004 932.346 142.277Z" fill="#625A57"/>
<path d="M932.346 142.277C929.029 75.1672 854.828 34.546 843.378 25.4672C831.929 16.3884 824.471 16.263 814.298 16.7651C804.13 17.2571 790.745 18.4007 778.775 15.1177C766.788 11.8515 763.896 15.372 753.964 10.8726C744.033 6.37316 732.116 4.38808 715.05 12.7678C697.992 21.161 663.105 38.863 619.18 41.0153C575.269 43.1634 510.087 -1.16807 485.799 0.0241149C461.519 1.20831 437.745 15.6011 437.745 15.6011C437.745 15.6011 402.339 6.6105 358.797 51.1646C315.255 95.7108 321.258 286.519 417.331 344.174C513.409 401.823 600.547 409.785 681.277 405.847C762.008 401.909 862.013 343.037 889.506 257.491C916.988 171.954 933.526 166.004 932.346 142.277Z" fill="#625A57"/>
<path opacity="0.1" d="M889.504 257.49C916.988 171.954 933.527 166.004 932.346 142.276C931.128 123.168 924.678 104.752 913.692 89.0167C928.159 179.061 876.442 282.638 796.706 325.065C727.647 361.807 691.314 328.422 685.713 308.985C680.111 289.548 710.654 380.798 581.475 323.397C452.298 265.987 440.636 237.165 452.86 167.051C462.354 112.554 397.528 17.6352 350.481 62.469C316.525 121.551 327.919 290.523 417.33 344.174C513.409 401.823 600.546 409.785 681.276 405.847C762.007 401.909 862.012 343.037 889.504 257.49Z" fill="black"/>
<path opacity="0.2" d="M860.618 227.619C858.759 211.568 854.751 195.835 848.7 180.836C842.635 165.962 834.764 151.879 825.259 138.9C822.936 135.624 820.367 132.529 817.934 129.338C815.43 126.19 812.651 123.266 810.05 120.196C807.381 117.181 804.486 114.375 801.721 111.445C800.366 109.96 798.792 108.684 797.333 107.281L792.92 103.133C780.818 92.3059 767.702 82.6505 753.751 74.2983C768.819 80.9483 782.89 89.6305 795.567 100.099C798.671 102.79 801.894 105.366 804.87 108.219C807.794 111.117 810.843 113.896 813.657 116.901C816.404 119.967 819.237 122.97 821.85 126.158C824.377 129.409 827.046 132.561 829.459 135.899C839.193 149.241 846.941 163.906 852.464 179.442C858 194.904 860.76 211.21 860.618 227.619Z" fill="#231F20"/>
<path opacity="0.2" d="M838.856 280.531C839.018 274.603 838.821 268.671 838.268 262.766C837.77 256.888 836.965 251.04 835.858 245.244C833.738 233.681 830.697 222.302 826.764 211.216C818.922 189.095 808.025 168.161 794.385 149.015C787.618 139.413 780.244 130.247 772.307 121.572C764.398 112.831 755.985 104.551 747.111 96.7757C729.165 81.1858 709.99 67.0471 689.771 54.4951C700.686 59.5005 711.285 65.1561 721.512 71.431L725.352 73.7876L729.108 76.287C731.607 77.9549 734.143 79.5835 736.609 81.3108C741.491 84.8314 746.366 88.3756 751.025 92.1895C760.479 99.7083 769.396 107.87 777.71 116.617C786.01 125.422 793.705 134.771 800.743 144.6C807.7 154.497 813.899 164.899 819.287 175.718C824.637 186.553 829.059 197.815 832.507 209.386C836.001 220.915 838.378 232.75 839.606 244.728C840.225 250.695 840.492 256.694 840.406 262.692C840.358 268.67 839.839 274.634 838.856 280.531Z" fill="#231F20"/>
<path opacity="0.1" d="M814.047 289.462C812.454 278.449 810.266 267.53 807.492 256.751C804.834 245.984 801.605 235.378 798.007 224.922C794.32 214.501 790.388 204.178 785.748 194.16C781.201 184.113 776.221 174.259 770.718 164.701C759.749 145.544 746.843 127.545 732.199 110.985C717.295 94.4471 700.893 79.3043 683.198 65.7471C702.837 76.9548 720.82 90.8044 736.638 106.902C740.533 110.985 744.513 115.023 748.098 119.405C751.852 123.644 755.287 128.133 758.792 132.575C765.532 141.67 771.766 151.123 777.467 160.894C783.002 170.749 788.009 180.887 792.466 191.267C796.87 201.651 800.641 212.288 803.76 223.122C806.912 233.917 809.399 244.893 811.207 255.989C813.077 267.051 814.027 278.246 814.047 289.462Z" fill="#231F20"/>
<path opacity="0.1" d="M791.248 286.715C786.658 265.413 779.972 244.609 771.287 224.604C766.992 214.635 762.491 204.747 757.501 195.098C752.571 185.422 747.368 175.892 741.74 166.62C736.221 157.271 730.319 148.171 724.035 139.321C717.855 130.39 711.167 121.847 704.222 113.499C690.307 96.6837 674.265 81.7203 656.493 68.9795C676.173 79.3422 693.863 93.0624 708.754 109.512C716.322 117.619 723.418 126.149 730.005 135.06C736.58 143.978 742.67 153.233 748.408 162.697C754.017 172.214 759.301 181.942 764.079 191.907C768.777 201.902 773.206 212.029 776.905 222.431C780.706 232.792 783.884 243.368 786.425 254.102C788.999 264.811 790.613 275.724 791.248 286.715Z" fill="#231F20"/>
<path opacity="0.1" d="M849.798 244.434C852.703 255.791 857.493 202.367 830.995 156.649C809.542 120.326 778.427 90.5717 741.063 70.6493C718.166 59.2174 759.277 85.4985 791.696 119.261C824.123 153.026 835.103 188.478 840.941 208.289C846.78 228.092 848.73 240.255 849.798 244.434Z" fill="white"/>
<path opacity="0.1" d="M783.11 84.4376C812.37 100.225 844.477 128.355 855.1 168.544C865.729 208.733 867.034 142.901 836.519 110.968C805.995 79.0269 763.085 73.6312 783.11 84.4376Z" fill="white"/>
<path d="M893.39 64.5493C905.779 71.3987 962 93.9051 986.548 164.703C1011.09 235.483 985.967 283.633 989.853 303.371C993.741 323.103 977.735 333.202 978.482 348.272C979.229 363.341 982.437 399.711 990.776 415.597C995.492 424.572 988.31 435.525 983.899 444.423C979.477 453.318 976.579 490.625 982.429 521.62L918.279 524.747C918.279 524.747 920.844 471.917 921.127 458.083C921.196 447.725 920.068 437.394 917.764 427.292C916.619 421.571 914.939 418.001 917.113 409.759C919.299 401.51 917.086 378.69 898.129 344.482C879.173 310.273 889.846 225.171 897.914 192.082C905.982 158.992 910.114 144.33 901.115 112.955C892.116 81.5808 881.078 57.7256 893.39 64.5493Z" fill="#625A57"/>
<path opacity="0.05" d="M910.962 124.467C917.879 149.413 915.654 184.237 909.446 224.38C903.227 264.531 906.679 308.067 912.24 324.507C917.8 340.948 911.389 274.422 921.645 227.639C931.889 180.867 933.965 135.767 919.183 111.742C904.393 87.7209 903.347 96.9933 910.962 124.467Z" fill="white"/>
<path opacity="0.2" d="M917.113 409.76C916.051 413.298 915.8 417.026 916.378 420.673C919.035 405.405 931.874 397.461 926.601 390.009C920.449 381.314 915.347 367.427 925.244 366.941C935.14 366.456 947.385 367.466 938.527 365.006C929.668 362.545 915.097 364.651 908.312 339.62C901.558 314.583 897.054 261.842 906.938 208.648C915.378 163.184 909.151 133.498 901.02 112.641C901.053 112.737 901.09 112.851 901.115 112.956C910.113 144.331 905.985 158.991 897.914 192.083C889.842 225.175 879.169 310.275 898.129 344.482C917.089 378.69 919.299 401.511 917.113 409.76Z" fill="black"/>
<path opacity="0.2" d="M988.712 434.921C983.98 439.909 972.013 436.957 952.101 430.069C932.182 423.163 918.046 424.283 917.763 427.293C917.887 427.897 918.029 428.589 918.178 429.315C920.211 426.635 934.703 427.327 944.457 432.417C954.197 437.514 972.93 445.379 979.49 444.85C981.46 444.671 983.324 443.881 984.818 442.593C986.083 440.147 987.464 437.558 988.712 434.921Z" fill="black"/>
<path opacity="0.1" d="M974.499 418.205C968.396 422.359 954.302 422.077 946.116 420.235C937.936 418.382 922.282 419.468 923.472 420.534C924.662 421.599 938.015 419.984 952.718 426.173C967.433 432.363 985.371 435.182 989.049 427.612C992.718 420.052 986.884 412.245 985.479 407.869C983.176 399.433 981.953 390.742 981.841 382.002C979.86 368.918 978.855 355.877 978.479 348.272C978.424 346.869 978.509 345.464 978.734 344.077C975.048 359.072 980.194 414.334 974.499 418.205Z" fill="white"/>
<path d="M982.467 502.019C983.817 505.277 989.523 519.02 989.914 526.723C990.295 534.405 979.784 537.819 952.012 539.169C924.242 540.527 898.141 540.846 897.635 530.578C897.128 520.316 904.831 508.046 909.476 497.22C914.116 486.382 920.558 480.002 920.844 467.121C921.129 454.241 973.952 454.193 976.56 467.569C979.167 480.947 980.196 496.543 982.467 502.019Z" fill="#625A57"/>
<path opacity="0.1" d="M962.126 465.714C966.425 468.772 954.897 473.312 954.426 490.041C953.966 506.777 959.982 512.749 958.738 515.864C957.478 518.972 947.319 503.248 926.155 510.55C904.989 517.847 925.256 489.274 924.561 469.817C923.874 450.346 943.959 452.782 962.126 465.714Z" fill="white"/>
<path opacity="0.2" d="M989.857 527.903C987.2 529.767 984.14 530.985 980.923 531.46C968.436 533.693 964.596 532.057 963.414 527.822C962.242 523.567 961.629 527.544 959.548 528.012C957.465 528.467 964.238 534.554 951.713 536.455C939.187 538.349 919.976 536.245 913.012 536.096C906.043 535.953 909.916 529.181 911.433 527.171C912.959 525.169 908.825 527.945 908.118 526.934C907.418 525.923 908.709 532.641 902.53 533.565C901.039 533.727 899.533 533.438 898.21 532.737C902.154 540.785 926.357 540.426 952.01 539.17C978.295 537.887 989.093 534.765 989.857 527.903Z" fill="black"/>
<path opacity="0.2" d="M953.217 522.623C948.675 519.184 938.702 510.659 921.464 518.816C918.236 520.492 924.089 513.136 936.949 512.919C949.803 512.688 958.332 526.526 953.217 522.623Z" fill="white"/>
<path d="M953.031 541.267C961.854 540.84 961.227 532.641 950.632 523.364C940.031 514.066 926.783 516.829 918.237 522.821C909.686 528.8 904.59 543.635 911.48 543.296C918.371 542.958 948.075 541.505 953.031 541.267Z" fill="#83786E"/>
<path opacity="0.2" d="M938.404 518.192C945.307 519.819 951.355 523.936 955.371 529.743C960.093 536.903 955.395 537.88 952.435 539.095C949.484 540.317 938.812 536.496 930.851 536.883C922.889 537.269 929.283 517.147 938.404 518.192Z" fill="white"/>
<path d="M976.133 537.188C970.765 537.446 966.978 535.071 966.053 525.149C965.141 515.234 978.212 507.103 983.024 508.63C987.914 509.665 992.286 512.364 995.384 516.26C998.482 520.156 1000.11 525.005 999.992 529.967C1000.28 535.742 993.556 536.346 976.133 537.188Z" fill="#83786E"/>
<path opacity="0.2" d="M982.717 509.445C987.033 508.793 994.513 515.078 996.509 519.489C998.216 522.888 998.778 526.743 998.11 530.483C997.397 532.458 982.156 528.624 976.529 524.472C970.901 520.344 971.836 511.053 982.717 509.445Z" fill="white"/>
<path d="M901.062 536.673C903.491 536.55 906.304 534.392 906.35 524.056C906.404 513.72 905.58 508.44 902.008 510.66C898.436 512.879 890.529 516.754 887.163 523.921C883.797 531.074 885.892 537.419 887.828 537.324C889.764 537.236 899.115 536.775 901.062 536.673Z" fill="#83786E"/>
<path opacity="0.2" d="M903.13 511.426C905.046 512.084 904.591 519.74 902.4 522.767C900.209 525.793 889.314 531.386 887.493 533.883C885.673 536.381 885.117 527.85 889.051 521.851C892.994 515.858 901.898 511.006 903.13 511.426Z" fill="white"/>
<path opacity="0.1" d="M922.687 430.917C927.089 437.873 958.535 435.8 972.143 449.058C977.114 453.536 960.361 446.37 945.763 442.583C931.173 438.796 924.286 436.994 922.687 430.917Z" fill="black"/>
<path opacity="0.1" d="M931.174 443.028C942.707 449.322 957.174 451.833 964.541 461.219C971.92 470.608 939.293 452.281 931.174 443.028Z" fill="black"/>
<path opacity="0.1" d="M620.766 117.626C643.837 143.571 643.718 156.762 657.555 174.686C671.386 192.619 683.583 223.198 684.433 266.539C685.291 309.888 692.473 350.35 660.37 375.376C628.283 400.398 563.033 383.659 549.088 357.025C535.144 330.39 541.894 324.817 536.314 323.134C530.726 321.459 522.865 330.672 511.836 323.651C500.804 316.646 505.141 312.732 496.501 314.763C487.86 316.793 489.13 312.869 482.472 312.557C475.825 312.237 470.56 311.693 463.074 302.096C455.587 292.498 433.1 211.009 458.777 167.327C484.447 123.652 587.892 80.6421 620.766 117.626Z" fill="black"/>
<path d="M613.125 107.734C629.388 125.856 626.687 136.278 651.494 171.562C676.302 206.845 676.996 227.37 677.944 246.61C678.901 265.845 678.452 282.899 670.452 297.75C662.448 312.608 677.937 344.305 618.523 347.204C559.109 350.104 547.251 313.414 532.722 320.553C518.18 327.676 510.082 321.018 507.869 315.501C505.656 309.983 502.654 308.195 499.189 310.295C497.382 311.253 495.365 311.758 493.316 311.764C491.267 311.771 489.247 311.279 487.434 310.333C484.322 308.554 476.172 313.885 463.072 302.097C459.357 298.741 431.996 293.331 427.365 199.718C422.726 106.105 539.134 25.2109 613.125 107.734Z" fill="#625A57"/>
<path opacity="0.2" d="M619.873 296.043C601.625 300.152 541.131 300.859 533.063 307.996C525.004 315.133 518.003 323.35 510.113 319.033C513.849 323.226 521.289 326.156 532.722 320.55C536.948 318.468 540.95 320.112 545.96 323.395H545.967C545.967 323.395 547.323 314.844 560.481 309.342C573.64 303.84 596.631 303.931 613.363 301.826C630.086 299.727 647.187 314.96 653.426 315.134C659.672 315.317 660.859 313.1 660.859 313.1C651.81 313.544 638.117 291.936 619.873 296.043Z" fill="black"/>
<path opacity="0.2" d="M541.162 281.886C508.859 289.735 501.342 304.725 501.224 309.501L501.27 309.527C503.353 309.206 505.225 310.455 506.793 313.256L506.821 313.276C506.908 310.545 507.638 307.872 508.953 305.472C511.274 300.69 522.725 288.736 541.162 281.886Z" fill="black"/>
<path opacity="0.05" d="M651.492 171.562C626.684 136.278 629.386 125.856 613.122 107.734C602.684 95.7041 589.596 86.2215 574.873 80.021C577.138 81.2851 613.122 102.016 618.545 143.455C624.139 186.253 645.417 207.064 633.559 230.785C621.698 254.494 617.254 260.716 628.801 262.933C635.076 264.592 640.513 268.492 644.069 273.887C646.833 277.504 648.158 285.398 651.066 288.677C653.978 291.968 647.541 291.569 644.094 288.436C639.218 283.164 632.903 279.415 625.918 277.644C618.934 275.873 611.581 276.158 604.757 278.463C573.959 287.354 577.668 274.003 548.496 282.978C519.323 291.954 512.768 309.947 517.992 307.608C523.218 305.26 528.456 299.86 547.118 297.673C565.779 295.474 586.253 297.037 608.445 294.1C627.348 291.594 634.636 292.222 642.511 296.619C645.965 298.739 651.202 303.998 656.871 304.522C662.556 305.052 664.295 300.951 662.069 295.114C659.829 289.271 659.183 286.504 661.153 285.347C667.565 282.344 676.237 271.092 678.139 251.144C678.079 249.639 678.021 248.134 677.943 246.609C676.993 227.37 676.299 206.84 651.492 171.562Z" fill="white"/>
<path d="M659.447 315.221C654.698 326.001 662.663 358.324 663.124 380.803C663.585 403.282 652.264 422.902 649.957 437.378C647.652 451.833 653.643 468.26 652.838 482.434C652.028 496.625 653.175 524.172 656.378 536.456C658.625 544.731 660.057 553.205 660.653 561.756C660.838 565.59 596.097 569.832 595.854 564.911C595.609 559.998 593.034 520.921 589.145 507.836C585.251 494.731 578.943 489.261 574.505 473.618C570.05 457.982 569.845 448.183 570.835 443.16C571.824 438.137 568.245 425.717 555.591 396.78C542.935 367.825 533.613 318.999 547.49 311.684C561.366 304.358 576.857 303.391 598.108 301.068C619.359 298.745 625.098 296.913 636.924 303.728C648.749 310.544 655.116 317.248 659.447 315.221Z" fill="#625A57"/>
<path opacity="0.1" d="M562.953 313.446C581.395 306.759 611.591 302.07 627.338 306.283C643.085 310.502 649.352 316.298 655.422 315.105C651.276 313.597 645.555 308.704 636.923 303.729C625.098 296.914 619.357 298.744 598.108 301.069C576.858 303.393 561.365 304.359 547.489 311.685C533.611 318.999 542.935 367.825 555.591 396.781C568.243 425.719 571.822 438.142 570.834 443.161C572.507 431.298 582.456 426.262 578.609 426.927C574.759 427.599 554.188 393.439 550.558 376.881C546.929 360.324 544.509 320.139 562.953 313.446Z" fill="black"/>
<path opacity="0.1" d="M661.346 359.744C661.827 364.542 655.776 363.501 619.497 349.52C624.273 354.425 657.555 364.16 661.364 380.048C665.165 395.927 653.545 379.137 636.991 371.585C644.594 375.828 650.546 382.478 653.895 390.474C659.918 404.225 649.28 406.209 640.268 426.854C631.255 447.493 619.365 423.01 593.529 424.272C581.286 424.863 639.166 432.45 651.444 464.15C649.632 455.346 649.132 446.325 649.959 437.377C652.266 422.901 663.592 403.281 663.126 380.797C662.993 374.347 662.236 367.081 661.346 359.744Z" fill="black"/>
<path opacity="0.1" d="M632.101 521.145C621.242 521.023 610.386 521.553 599.592 522.733C597.008 522.869 595.333 519.523 593.64 511.42C591.939 503.323 594.385 504.789 610.496 503.133C626.592 501.497 637.089 491.352 629.92 495.132C622.749 498.905 611.264 501.328 620.364 495.593C629.465 489.845 646.077 475.536 636.015 481.559C625.96 487.585 618.856 494.534 606.423 495.145C593.989 495.755 583.163 493.801 578.277 484.069C582.068 492.607 586.272 498.145 589.144 507.836C591.969 520.998 593.8 534.35 594.621 547.782C595.948 543.137 596.822 538.376 597.23 533.564C597.427 526.275 599.577 526.812 610.158 524.579C620.739 522.346 642.712 521.919 632.101 521.145Z" fill="black"/>
<path d="M588.652 563.337C583.769 566.255 579.554 570.155 576.278 574.786C571.238 581.966 567.71 589.221 569.193 593.001C570.683 596.789 594.233 597.555 601.171 589.506C608.116 581.45 597.127 557.161 588.652 563.337Z" fill="#83786E"/>
<path opacity="0.2" d="M576.889 575.132C572.533 581.328 569.337 587.565 569.484 591.583C574.946 587.816 582.299 584.925 581.792 578.403C581.492 574.845 582.034 571.266 583.374 567.952C580.903 570.051 578.722 572.465 576.889 575.132Z" fill="white"/>
<path d="M655.705 533.483C656.866 540.853 675.301 559.102 676.417 581.546C677.114 595.662 584.174 599.869 583.519 586.737C582.873 573.578 583.705 565.834 588.239 559.182C592.248 552.796 594.159 545.33 593.707 537.818C593.158 532.587 652.943 515.912 655.705 533.483Z" fill="#625A57"/>
<path opacity="0.2" d="M676.418 581.545C676.351 580.222 676.213 578.898 676.035 577.602C674.529 579.57 672.558 581.139 670.295 582.169C655.266 589.01 651.549 589.193 650.936 576.849C650.322 564.504 648.412 576.489 644.025 578.634C639.638 580.778 634.64 577.962 633.213 578.356C631.774 578.749 641.916 586.282 640.183 589.424C638.444 592.56 591.132 591.501 591.132 591.501C586.429 590.225 582.764 588.061 589.524 578.613C596.286 569.173 590.025 564.884 598.478 552.573C593.946 556.194 590.904 561.335 589.926 567.028C589.48 571.816 587.509 576.338 584.298 579.937C584.016 580.16 583.686 580.066 583.356 579.767C583.356 581.925 583.396 584.205 583.521 586.737C584.174 599.869 677.115 595.661 676.418 581.545Z" fill="black"/>
<path d="M636.692 596.503C645.397 594.955 639.013 584.456 625.098 578.017C611.181 571.563 600.418 573.694 596.103 576.144C591.787 578.614 581.916 585.523 580.096 592.676C578.273 599.842 600.755 602.916 636.692 596.503Z" fill="#83786E"/>
<path opacity="0.2" d="M630.142 581.688C633.211 583.324 635.703 585.85 637.287 588.929C637.815 590.721 611.825 597.589 602.125 595.743C592.433 593.897 599.07 577.236 601.664 575.566C604.26 573.883 616.332 572.75 630.142 581.688Z" fill="white"/>
<path d="M665.068 555.051C657.708 553.985 656.372 558.112 654.637 562.272C652.899 566.425 653.735 587.722 654.519 590.402C655.304 593.083 659.12 595.093 678.122 591.977C693.851 589.391 687.789 589.031 685.409 580.148C683.029 571.264 682.887 557.602 665.068 555.051Z" fill="#83786E"/>
<path opacity="0.2" d="M671.937 557.67C665.913 555.179 668.363 556.231 664.778 562.292C661.201 568.379 661.372 576.286 662.051 583.432C662.722 590.571 676.212 588.311 681.798 587.823C687.385 587.334 684.318 584.355 683.519 576.808C682.72 569.261 680.24 561.118 671.937 557.67Z" fill="white"/>
<path opacity="0.2" d="M628.723 577.094C621.241 574.304 607.213 569.893 596.972 574.325C586.72 578.75 601.779 569.119 611.807 568.963C621.837 568.794 634.922 579.388 628.723 577.094Z" fill="white"/>
<path opacity="0.1" d="M597.916 569.2C603.977 566.089 610.923 565.11 617.617 566.425C623.297 567.857 630.55 572.702 634.241 573.089C637.925 573.469 643.559 569.649 647.526 562.393C651.472 555.131 643.301 552.227 638.874 540.819C634.445 529.397 624.029 530.673 613.275 532.308C602.519 533.951 615.349 527.965 627.91 528.426C640.461 528.888 630.111 524.558 614.086 526.758C598.068 528.957 595.759 536.45 596.353 537.698C596.94 538.94 600.412 534.889 604.511 534.923C608.616 534.943 601.624 538.689 601.594 546.243C601.559 553.788 592.546 561.213 597.916 569.2Z" fill="white"/>
<path opacity="0.1" d="M601.283 487.096C590.6 487.293 576.189 483.819 597.967 483.398C619.745 482.977 631.396 471.271 633.054 465.406C634.407 459.156 634.283 453.129 631.665 449.404C626.446 441.949 606.601 433.788 599.932 435.852C583.828 440.817 591.523 452.496 598.099 451.207C604.669 449.917 604.379 453.949 602.427 456.938C600.471 459.934 579.98 464.461 587.716 463.806C595.452 463.151 612.643 457.4 607.607 460.223C602.574 463.039 582.675 466.582 581.526 469.531C580.374 472.473 576.48 481.987 585.829 487.797C595.182 493.613 618.902 492.025 625.538 482.809C625.906 482.287 626.271 481.75 626.616 481.194C618.785 485.188 610.086 487.215 601.283 487.096Z" fill="white"/>
<path d="M405.125 30.6671C419.866 23.9956 486.114 52.9575 513.348 152.788C540.591 252.636 482.716 303.559 455.667 330.842C428.61 358.124 416.959 362.487 398.425 358.443C379.89 354.398 347.476 360.557 329.619 341.198C311.768 321.839 259.501 253.754 277.176 175.013C294.842 96.2712 328.937 73.2292 338.543 71.2288C348.148 69.2283 342.33 60.6249 359.923 52.9575C377.523 45.2773 391.162 36.9852 405.125 30.6671Z" fill="#625A57"/>
<path opacity="0.1" d="M477.022 298.38C436.897 326.295 419.787 330.935 392.81 327.297C372.048 324.496 339.152 327.9 313.4 320.97C318.386 328.035 323.801 334.79 329.618 341.198C347.476 360.557 379.888 354.402 398.423 358.443C416.959 362.483 428.609 358.124 455.652 330.842C466.319 320.093 481.752 305.65 494.9 286.009C488.401 290.587 482.314 294.696 477.022 298.38Z" fill="black"/>
<path opacity="0.1" d="M351.026 62.0296C355.896 59.5708 368.791 57.7334 391.015 74.5844C413.242 91.4442 390.214 61.8019 375.063 57.3771C359.92 52.9573 355.407 56.0641 352.444 57.9287C349.479 59.7849 344.542 65.3073 351.026 62.0296Z" fill="white"/>
<path opacity="0.1" d="M343.843 69.5083C348.277 63.5953 356.562 61.1862 370.332 67.1989C384.116 73.2053 402.252 92.3012 414.117 123.788C405.116 106.407 387.604 80.7129 372.282 73.2301C356.962 65.7535 349.985 67.8727 343.843 69.5083Z" fill="black"/>
<path opacity="0.1" d="M337.519 86.1102C354.672 84.6581 377.801 94.5139 387.315 112.379C396.828 130.231 400.282 141.897 421.653 166.823C443.014 191.737 452.423 205.149 449.708 247.015C446.992 288.881 437.922 306.51 436.196 308.128C434.481 309.737 446.796 275.349 444.455 246.258C442.126 217.173 441.46 258.425 433.657 289.54C425.854 320.655 421.215 335.97 413.031 341.322C404.852 346.693 381.751 346.032 376.929 345.502C372.107 344.973 399.037 343.415 409.281 336.546C419.529 329.684 404.837 338.236 379.855 337.017C354.873 335.799 354.835 350.789 333.689 335.283C312.551 319.772 278.893 263.993 280.731 218.976C282.57 173.959 300.079 89.2847 337.519 86.1102Z" fill="black"/>
<path d="M328.485 86.229C349.564 85.2025 373.463 93.1972 386.156 125.661C398.832 158.13 432.28 181.436 433.648 223.118C435.02 264.786 418.671 316.486 410.404 326.563C402.136 336.639 379.102 332.674 353.99 335.808C328.892 338.948 292.387 286.51 281.534 235.125C270.682 183.731 299.147 87.6627 328.485 86.229Z" fill="#625A57"/>
<path opacity="0.05" d="M892.26 78.4587C900.17 82.2422 907.829 86.5224 915.191 91.2735C891.67 54.507 851.549 31.95 843.379 25.4672C831.928 16.3866 824.472 16.263 814.299 16.7651C804.131 17.2571 790.745 18.4007 778.776 15.1177C766.788 11.8515 763.897 15.372 753.965 10.8726C744.033 6.37316 732.117 4.38808 715.05 12.7678C697.993 21.161 663.101 38.8724 619.188 41.0153C575.27 43.1633 510.088 -1.16807 485.8 0.0241149C461.52 1.20831 437.746 15.6011 437.746 15.6011C437.345 15.8352 435.07 15.1566 434.588 15.1041C431.572 14.8038 428.536 14.7689 425.514 14.9999C414.235 16.0033 403.286 19.3083 393.353 24.7079C386.159 28.506 379.363 33.0032 373.063 38.1336C369.263 41.2011 365.626 44.4605 362.12 47.8469C360.293 49.619 355.023 53.2085 355.418 56.1516C358.412 57.145 361.321 58.3767 364.116 59.8348C367.633 61.2296 371.541 62.1629 374.957 63.8068C377.644 65.5657 380.012 67.7639 381.96 70.3083C384.374 72.6239 386.934 74.7853 389.624 76.7794C394.048 80.0776 399.042 82.0186 403.246 85.5458C407.033 88.7304 410.821 91.9524 414.725 94.9911C421.995 100.683 431.64 107.18 441.314 103.746C454.024 99.2262 448.698 92.4073 448.633 82.1374C472.097 82.7194 487.682 91.4197 504.629 106.545C512.673 113.729 514.971 120.913 526.458 113.023C531.334 109.681 535.379 98.7848 536.243 93.3691C547.19 93.9975 557.625 98.182 565.94 105.278C574.001 111.498 586.394 129.856 597.477 128.39C599.861 97.1517 571.08 79.884 561.347 55.4778C573.196 55.4712 585.365 62.8498 595.441 69.1901C605.543 75.5305 623.118 100.122 634.471 96.9085C634.082 82.3664 611.653 78.605 614.537 62.7991C631.597 60.0759 640.791 84.8064 657.794 80.0894C659.369 71.0412 650.298 66.4684 654.283 58.0619C680.475 57.8378 701.504 82.2528 725.093 82.5023C721.165 68.9477 698.584 61.92 698.102 50.2251C718.431 51.3822 744.142 64.6685 763.989 62.1152C761.388 60.488 763.041 59.3834 758.343 58.1193C758.546 56.3343 759.93 55.1349 759.589 52.8801C772.722 52.427 785.827 54.3801 798.247 58.6419C810.266 62.3862 823.983 74.0304 836.835 71.3156C832.797 66.7891 828.605 62.5357 828.265 56.6075C850.508 54.115 873.024 69.3052 892.26 78.4587Z" fill="white"/>
<path d="M248.642 93.5763C257.156 89.7992 260.773 87.3139 261.262 99.136C261.751 110.958 250.091 132.317 244.736 137.388C239.373 142.465 222.219 145.193 220.599 143.61C218.986 142.041 229.475 133.031 222.074 126.129C215.878 127.72 209.512 128.572 203.113 128.668C194.361 128.486 182.144 131.002 178.289 128.714C174.434 126.425 166.52 112.035 167.685 99.3869C168.859 86.742 173.822 52.9956 157.669 31.2358C153.79 26.0087 163.856 21.9279 172.034 27.14C180.218 32.349 180.751 50.0601 195.374 60.5997C209.981 71.1361 223.875 76.4483 234.154 82.9277C239.321 86.0007 244.173 89.5671 248.642 93.5763Z" fill="#625A57"/>
<g opacity="0.1">
<path d="M245.637 117.723C252.467 109.18 245.972 122.984 239.798 127.178C233.623 131.364 230.723 132.628 227.712 131.946C224.708 131.267 226.578 134.374 225.991 135.716C225.4 137.044 236.047 137.986 242.479 132.699C248.923 127.412 242.142 135.585 238.704 137.436C234.208 139.252 229.36 140.046 224.515 139.759C224.121 139.702 223.75 139.537 223.444 139.283C223.139 139.028 222.911 138.694 222.786 138.318C224.655 134.766 226.335 130.103 222.071 126.131C226.745 128.904 238.789 126.269 245.637 117.723Z" fill="black"/>
</g>
<path opacity="0.1" d="M178.29 128.715C174.44 126.431 166.52 112.036 167.685 99.388C168.859 86.7431 173.822 52.9969 157.67 31.237C157.315 30.8407 157.062 30.3664 156.929 29.8533C156.796 29.3402 156.788 28.8031 156.906 28.2864C157.024 27.7698 157.264 27.2883 157.607 26.8821C157.949 26.476 158.384 26.1567 158.876 25.9506C164.016 25.6688 170.283 27.3519 172.161 30.0799C175.606 35.0766 180.831 44.5779 184.35 79.0286C187.871 113.487 220.059 123.416 222.073 126.133C215.877 127.723 209.512 128.575 203.112 128.671C194.362 128.487 182.145 131.003 178.29 128.715Z" fill="black"/>
<path opacity="0.1" d="M181.63 106.857C179.104 93.406 181.998 60.8644 179.836 49.6528C181.947 59.3429 183.455 69.1529 184.351 79.0271C187.514 110.018 213.863 121.165 220.599 125.071C198.037 127.778 183.751 118.17 181.63 106.857Z" fill="black"/>
<path opacity="0.1" d="M249.659 101.37C240.804 98.1388 226.442 100.904 210.893 90.2286C195.344 79.5532 184.174 55.7849 180.547 45.0059C176.919 34.2269 174.026 28.7844 169.664 27.103C165.303 25.4216 161.527 26.604 161.156 27.775C160.787 28.954 163.62 30.9951 166.966 36.6144C170.311 42.2338 175.022 68.9069 172.904 87.7278C170.796 106.549 173.658 115.324 177.216 120.784C180.767 126.249 188.14 127.929 197.956 128.792C190.109 129.257 181.423 130.58 178.288 128.714C174.438 126.43 166.518 112.035 167.683 99.3874C168.857 86.7424 173.82 52.9961 157.668 31.2362C153.788 26.0092 163.854 21.9284 172.032 27.1405C180.216 32.3495 180.749 50.0606 195.372 60.6002C209.979 71.1366 223.873 76.4488 234.152 82.9282C239.319 86.0016 244.172 89.5686 248.641 93.5782C251.516 96.0634 258.521 104.601 249.659 101.37Z" fill="white"/>
<path d="M285.444 79.2541C305.542 78.275 334.738 77.4963 354.296 96.0576C373.855 114.619 375.365 150.186 383.216 167.432C391.063 184.691 387.205 221.215 390.497 238.159C393.792 255.096 378.815 273.244 374.171 278.643C369.531 284.053 365.288 320.545 325.936 342.401C286.584 364.266 283.962 364.77 269.365 367.732C254.778 370.697 247.193 377.822 228.756 379.469C210.318 381.125 208.593 376.754 197.239 376.532C185.899 376.312 175.43 378.697 168.502 376.028C163.134 373.286 158.429 369.42 154.713 364.696C154.713 364.696 145.5 367.024 141.527 365.594C137.555 364.163 122.147 348.276 119.413 343.911C116.679 339.541 117.455 332.247 112.947 330.343C108.438 328.439 106.413 320.406 106.472 316.653C106.537 312.896 109.582 308.122 110.789 302.059C111.995 295.996 111.342 252.003 122.136 230.962C132.934 209.931 187.235 189.768 196.27 181.437C205.313 173.124 208.134 166.602 210.457 147.486C212.79 128.363 216.566 113.04 235.266 98.8698C253.967 84.6995 270.11 80.0005 285.444 79.2541Z" fill="#625A57"/>
<path opacity="0.1" d="M209.678 317.785C207.17 318.326 199.769 308.528 187.485 309.039C175.202 309.549 185.07 303.516 189.37 303.726C193.66 303.926 202.141 309.293 205.679 312.489C209.217 315.677 211.268 317.43 209.678 317.785Z" fill="white"/>
<path opacity="0.05" d="M285.443 79.2534C270.109 79.9997 253.967 84.6979 235.265 98.8682C216.563 113.039 212.788 128.361 210.462 147.484C209.924 155.171 208.167 162.726 205.257 169.87C207.29 169.813 209.325 169.949 211.332 170.277C216.285 171.069 220.988 172.979 225.079 175.861C229.17 178.743 232.54 182.519 234.928 186.899C236.289 189.133 237.446 191.481 238.389 193.918C238.811 195.482 238.204 197.53 239.626 198.609C242.795 196.755 246.215 195.36 249.782 194.467C251.422 194.473 253.039 194.856 254.506 195.586C257.1 196.397 258.71 197.228 259.826 194.474C260.324 191.892 260.339 189.242 259.872 186.655C259.848 184.078 258.247 180.139 259.385 177.966C261.164 174.538 266.238 177.365 269.085 177.489C271.247 177.593 276.385 176.961 276.698 173.992C276.922 171.818 273.19 168.537 272.538 166.505C275.825 166.234 279.091 167.22 281.671 169.26C284.038 170.687 287.083 174.159 289.814 174.631C296.57 175.79 292.794 167.553 292.134 164.667C291.158 161.176 290.572 157.589 290.384 153.971C290.384 148.403 290.429 142.804 290.364 137.236C290.317 134.2 289.222 130.078 290.726 127.39C293.537 128.745 293.31 134.28 296.116 134.798C301.287 135.736 296.978 125.101 296.411 122.941C294.54 115.758 292.248 108.432 294.451 100.981C295.717 96.6765 299.508 88.6751 303.341 86.1487C308.752 83.2435 314.64 81.3162 320.73 80.4567C309.047 78.7729 297.214 78.3693 285.443 79.2534Z" fill="white"/>
<path opacity="0.1" d="M338.355 87.1648C327.495 86.242 324.749 100.501 326.196 111.828C327.654 123.168 333.288 131.559 334.001 135.603C334.71 139.639 324.325 122.616 322.131 110.682C319.937 98.7478 321.659 90.304 324.84 88.003C328.467 86.066 332.64 85.3842 336.701 86.0654C339.398 86.505 341.532 87.4314 338.355 87.1648Z" fill="white"/>
<path opacity="0.2" d="M303.754 234.168C289.154 232.538 280.674 218.225 269.418 216.143C258.162 214.061 251.924 225.441 251.211 233.822C250.215 229.085 252.806 216.504 263.086 214.259C273.372 212.008 284.883 222.758 288.812 226.171C292.565 229.07 296.988 230.992 301.68 231.762C303.776 231.906 306.109 234.424 303.754 234.168Z" fill="black"/>
<path opacity="0.1" d="M296.429 219.755C283.91 218.814 273.433 211.44 264.892 211.671C256.36 211.905 249.869 220.102 243.683 230.629C237.495 241.15 233.377 243.884 230.682 244.766C227.987 245.648 221.919 240.129 221.919 240.129C225.068 241.013 228.369 241.236 231.61 240.782C234.595 239.696 243.177 228.018 247.972 221.784C252.767 215.551 258.639 208.412 266.462 207.94C274.282 207.463 276.063 211.433 283.115 215.098C287.299 217.291 291.785 218.86 296.429 219.755Z" fill="black"/>
<path opacity="0.1" d="M282.003 223.045C275.137 218.408 270.795 215.948 264.72 216.686C258.645 217.412 253.874 223.654 251.786 232.574C251.001 237.362 253.735 230.171 263.724 225.958C273.722 221.744 286.505 227.932 287.446 227.959C288.395 227.972 285.326 225.291 282.003 223.045Z" fill="white"/>
<path opacity="0.2" d="M283.442 244.912C285.78 242.915 285.095 242.674 289.727 242.727C294.36 242.78 295.38 244.427 295.38 244.427C295.38 244.427 291.501 248.363 286.043 253.417C280.585 258.471 271.475 255.725 267.214 253.585C262.954 251.446 269.454 256.103 273.756 257.484C276.507 258.657 279.551 258.975 282.487 258.395C285.424 257.816 288.114 256.367 290.205 254.239C293.434 250.518 296.888 246.997 300.549 243.694C303.638 241.296 296.95 243.59 285.15 232.355C283.186 230.76 287.609 237.406 289.381 238.879C291.153 240.344 285.65 239.598 281.834 236.112C278.018 232.625 277.554 229.798 274.462 229.359C271.379 228.904 264.778 233.534 261.876 239.07C261.319 240.526 260.287 241.754 258.945 242.558C257.602 243.363 256.027 243.698 254.47 243.511C249.791 243.302 250.905 240.377 250.931 238.309C250.952 236.242 249.72 240.633 249.516 242.767C249.136 244.237 249.211 245.787 249.733 247.213C250.363 248.529 249.879 244.735 254.463 245.141C259.048 245.546 262.063 250.374 264.07 251.865C266.078 253.356 261.766 248.468 261.523 247.359C261.28 246.249 262.254 246.11 265.289 247.089C268.945 248.206 272.78 248.63 276.593 248.34C279.198 247.991 281.61 246.784 283.442 244.912Z" fill="black"/>
<path opacity="0.3" d="M291.15 240.344C285.463 241.32 281.459 235.437 276.926 232.787C272.385 230.13 266.835 232.769 263.429 237.689C260.014 242.612 259.218 244.152 253.664 243.929C248.111 243.693 251.845 244.742 256.961 244.969C260.912 245.371 264.812 246.162 268.605 247.332C271.477 248.025 274.483 247.933 277.307 247.067C280.13 246.201 282.665 244.593 284.643 242.413C286.412 241.798 288.265 241.456 290.138 241.4C292.193 240.979 292.094 240.179 291.15 240.344Z" fill="black"/>
<path d="M273.51 234.017C275.353 234.308 277.094 235.052 278.572 236.183C280.051 237.313 281.221 238.793 281.976 240.488C283.314 243.674 275.651 246.231 270.841 246.152C267.726 246.279 264.641 245.494 261.972 243.895C262.185 241.067 263.52 238.439 265.683 236.587C267.847 234.735 270.661 233.811 273.51 234.017Z" fill="#A6391E"/>
<path opacity="0.5" d="M278.039 236.28C280.028 238.307 281.045 239.78 280.992 241.514C280.937 243.235 276.59 245.047 272.837 245.63C269.745 245.946 266.622 245.483 263.758 244.281C263.027 243.835 262.801 241.463 263.653 239.631C264.511 238.233 265.676 237.045 267.062 236.158C268.447 235.27 270.017 234.706 271.654 234.507C272.784 234.316 273.943 234.376 275.047 234.682C276.151 234.989 277.173 235.534 278.039 236.28Z" fill="white"/>
<path opacity="0.5" d="M277.479 236.155C279.496 237.44 279.516 239.081 278.785 240.179C275.412 241.821 271.535 242.123 267.945 241.024C263.966 239.743 267.938 235.796 270.859 235.201C271.966 234.871 273.132 234.786 274.275 234.951C275.419 235.115 276.512 235.526 277.479 236.155Z" fill="white"/>
<path d="M263.106 239.424C263.38 241.112 264.262 242.643 265.589 243.732C266.915 244.821 268.595 245.394 270.316 245.344C272.131 245.244 273.832 244.434 275.047 243.091C276.262 241.749 276.892 239.983 276.798 238.18C276.674 236.759 276.156 235.4 275.302 234.254C274.468 234.036 273.61 233.925 272.747 233.924C270.791 233.899 268.865 234.397 267.169 235.364C265.473 236.332 264.07 237.734 263.106 239.424Z" fill="#17130E"/>
<path opacity="0.3" d="M270.337 234.418C268.808 234.738 267.367 235.381 266.11 236.303C266.318 236.693 266.633 237.016 267.02 237.234C267.406 237.452 267.848 237.555 268.291 237.532C268.912 237.497 269.493 237.22 269.909 236.762C270.325 236.304 270.542 235.701 270.513 235.085C270.489 234.855 270.43 234.63 270.337 234.418Z" fill="white"/>
<path opacity="0.3" d="M272.073 235.008C272.038 234.731 271.968 234.459 271.863 234.199C269.561 234.359 267.368 235.238 265.599 236.71C265.951 237.408 266.534 237.964 267.251 238.284C267.967 238.605 268.773 238.671 269.533 238.471C270.293 238.272 270.96 237.818 271.423 237.187C271.885 236.556 272.115 235.787 272.073 235.007V235.008Z" fill="white"/>
<path opacity="0.1" d="M390.677 239.564C388.766 249.392 386.236 255.475 380.926 258.536C375.601 261.613 376.874 252.918 374.75 252.088C372.636 251.254 375.324 270.275 364.748 294.284C354.179 318.314 335.268 332.432 294.92 345.66C254.572 358.889 270.984 346.897 244.32 354.171C217.657 361.444 223.019 339.792 198.059 343.251C173.091 346.733 158.267 341.113 153.253 335.148C148.224 329.188 146.564 325.479 150.068 318.682C153.572 311.885 144.507 322.808 142.212 327.885C139.914 332.968 134.141 343.305 127.824 344.978C121.502 346.668 119.414 343.913 119.414 343.913C122.148 348.277 137.554 364.161 141.529 365.595C145.504 367.03 154.715 364.698 154.715 364.698C158.431 369.421 163.135 373.288 168.504 376.03C175.433 378.698 185.9 376.313 197.24 376.534C208.594 376.756 210.32 381.127 228.757 379.47C247.194 377.823 254.78 370.699 269.367 367.733C283.964 364.771 286.585 364.267 325.937 342.403C365.289 320.546 369.532 284.055 374.172 278.644C378.693 273.394 392.924 256.093 390.677 239.564Z" fill="black"/>
<path opacity="0.3" d="M196.885 315.54L196.892 315.526C196.831 315.494 196.767 315.468 196.7 315.448C196.434 315.324 196.172 315.212 195.913 315.101C195.012 314.753 194.354 314.5 194.294 313.244C194.216 311.61 193.785 310.011 193.028 308.557C192.272 307.103 191.209 305.828 189.911 304.819C192.165 308.462 193.154 313.1 190.373 314.179V314.191C181.748 314.624 169.203 321.166 157.144 319.558C159.083 323.214 164.116 321.931 164.622 324.497C165.124 327.041 161.467 329.476 161.467 329.476C162.6 329.676 163.762 329.651 164.885 329.403C166.008 329.154 167.071 328.687 168.011 328.029C170.732 325.83 171.173 334.629 169.835 338.253C171.925 338.346 173.572 333.392 174.329 329.79C175.102 326.185 194.488 320.918 198.098 321.312C201.715 321.697 205.543 326.585 206.181 328.044C206.425 328.899 206.464 329.799 206.293 330.672C206.122 331.545 205.747 332.366 205.198 333.068C204.146 334.703 200.76 334.971 200.76 334.971C201.329 335.436 202.039 335.696 202.775 335.711C207.902 335.521 209.106 329.966 209.597 328.253C210.029 326.675 204.258 319.052 196.885 315.54Z" fill="black"/>
<path opacity="0.1" d="M217.705 326.17C217.717 321.984 203.783 306.395 190.38 302.836C192.519 302.254 204.189 307.035 213.145 314.054C222.086 321.076 221.209 322.612 220.787 325.359C220.352 328.101 218.824 335.403 207.45 338.484C211.867 336.017 217.686 333.393 217.705 326.17Z" fill="black"/>
<path opacity="0.1" d="M227.326 318.105C226.282 316.165 224.898 314.425 223.24 312.967C221.645 311.461 219.959 310.052 218.192 308.75C214.734 306.048 211.058 303.635 207.2 301.534C205.312 300.498 203.357 299.586 201.349 298.804C199.411 298.08 197.351 297.732 195.281 297.779C190.99 297.867 186.743 298.653 182.709 300.107L179.559 301.12L177.965 301.641L177.142 301.904C176.764 301.997 176.378 302.056 175.989 302.081C173.67 302.055 171.356 301.843 169.072 301.444C164.767 300.726 160.405 300.402 156.041 300.477C153.957 300.48 151.9 300.953 150.026 301.858C148.129 302.851 146.387 304.111 144.854 305.599C141.639 308.612 138.804 311.999 136.408 315.688C138.337 311.652 140.828 307.906 143.806 304.558C145.345 302.847 147.134 301.374 149.112 300.189C151.184 299.032 153.488 298.343 155.859 298.174C160.384 297.827 164.934 297.981 169.425 298.633C171.529 298.946 173.651 299.122 175.777 299.161C176.047 299.161 176.112 299.097 176.273 299.097L177.035 298.847L178.607 298.311L181.794 297.253C186.149 295.73 190.732 294.951 195.349 294.948C196.527 294.979 197.702 295.102 198.861 295.315C200.041 295.557 201.195 295.91 202.308 296.369C204.425 297.241 206.456 298.305 208.376 299.548C212.184 301.938 215.785 304.639 219.143 307.62C220.8 309.128 222.362 310.735 223.822 312.431C225.374 314.06 226.567 315.992 227.326 318.105Z" fill="black"/>
<path opacity="0.1" d="M225.015 321.746C226.588 320.015 228.485 318.603 230.601 317.589C232.69 316.48 234.898 315.608 237.183 314.99C237.815 314.822 238.461 314.714 239.113 314.669C239.833 314.657 240.549 314.772 241.228 315.01C242.401 315.402 243.533 315.905 244.609 316.513C246.67 317.698 248.618 319.067 250.429 320.603C254.09 323.664 257.058 327.459 259.139 331.739C259.675 332.872 260.031 334.081 260.195 335.322C260.291 335.996 260.238 336.683 260.041 337.334C259.844 337.986 259.507 338.587 259.054 339.098C257.522 340.868 255.757 342.426 253.807 343.73C255.307 342.04 256.648 340.218 257.815 338.287C258.083 337.904 258.26 337.467 258.334 337.007C258.408 336.547 258.377 336.076 258.242 335.63C257.964 334.63 257.56 333.669 257.037 332.771C253.487 327.212 248.752 322.493 243.166 318.946C242.279 318.38 241.345 317.89 240.374 317.482C239.979 317.312 239.558 317.208 239.128 317.175C238.631 317.164 238.135 317.199 237.645 317.28C235.447 317.659 233.283 318.212 231.175 318.936C228.989 319.555 226.911 320.502 225.015 321.746Z" fill="black"/>
<path opacity="0.3" d="M224.045 341.435C235.78 338.238 241.281 342.466 241.076 338.338C240.84 333.479 236.366 334.636 220.139 338.993C203.908 343.345 192.351 342.599 181.74 349.682C173.388 355.773 164.31 360.816 154.713 364.697C156.397 366.756 158.229 368.692 160.195 370.488C161.676 369.899 162.652 367.531 166.328 365.403C171.706 362.291 173.365 359.85 184.81 352.726C196.264 345.602 212.288 344.627 224.045 341.435Z" fill="black"/>
<path opacity="0.1" d="M223.944 337.98C224.774 335.214 225.209 332.348 225.239 329.462C224.518 332.042 223.467 334.519 222.114 336.834C220.342 338.232 218.328 339.297 216.17 339.975C201.996 343.265 191.455 343.193 181.741 349.681C173.389 355.772 164.311 360.815 154.714 364.697C154.714 364.697 155.958 366.28 157.928 368.295C166.086 364.384 172.641 357.423 179.303 352.947C186.104 347.79 194.283 344.73 202.821 344.149C211.557 343.168 229.349 338.025 235.425 336.704C238.896 335.939 240.353 336.58 240.993 337.567C240.344 333.975 236.228 334.715 223.944 337.98Z" fill="black"/>
<path opacity="0.1" d="M182.363 303.188C174.924 304.569 166.366 304.968 158.97 305.836C151.585 306.686 145.396 311.471 141.121 324.325C140.482 326.753 145.943 319.974 148.057 316.876C150.358 313.595 153.775 311.251 157.68 310.274C154.08 313.301 151.361 317.229 149.805 321.65C149.261 322.827 149.031 324.123 149.139 325.414C149.247 326.705 149.689 327.946 150.422 329.017C150.101 326.813 150.394 324.565 151.271 322.515C152.147 320.466 153.572 318.694 155.392 317.393C161.91 311.813 162.745 310.732 169.849 309.22C176.96 307.709 187.456 302.246 182.363 303.188Z" fill="white"/>
<path opacity="0.2" d="M187.511 251.787C187.61 259.283 189.17 262.464 174.201 273.077C159.236 283.681 139.706 288.265 127.066 297.627C121.702 301.272 112.762 290.876 112.215 290.104C114.659 295.291 118.712 299.565 123.781 302.298C126.243 303.803 126.058 300.186 136.18 293.442C146.309 286.689 174.661 279.812 183.755 275.241C184.685 273.558 178.55 276.862 173.91 277.211C169.265 277.569 185.74 267.502 189.389 263.321C193.039 259.146 187.445 246.651 187.511 251.787Z" fill="black"/>
<path opacity="0.1" d="M122.136 230.962C111.342 252.002 112 295.993 110.789 302.058C109.577 308.124 106.537 312.896 106.472 316.652C106.414 320.407 108.442 328.441 112.947 330.343C113.718 330.719 114.403 331.251 114.957 331.904C115.511 332.557 115.922 333.317 116.164 334.136H116.171C116.171 334.136 114.871 328.622 119.083 327.133C123.295 325.643 129.69 332.769 129.396 329.291C129.093 325.804 130.141 316.244 141.244 301.319C152.346 286.395 175.631 281 171.282 277.213C166.933 273.427 172.584 272.027 172.458 269.558C172.161 263.535 175.356 262.756 176.529 258.201C177.701 253.645 176.036 246.583 175.304 237.998C173.621 218.149 150.375 214.108 129.672 221.558C126.65 224.255 124.103 227.433 122.136 230.962Z" fill="black"/>
<path opacity="0.1" d="M320.323 86.719C316.662 91.1122 314.211 96.3726 313.209 101.987C312.206 107.601 312.687 113.377 314.603 118.752C319.147 129.042 335.807 149.996 343.114 155.138C350.421 160.288 356.938 154.458 361.215 154.249C365.491 154.041 369.299 164.684 376.061 161.438C378.414 160.666 375.565 164.303 372.813 164.565C370.044 164.828 364.769 159.954 362.053 158.464C359.331 156.97 353.718 161.747 346.038 161.369C338.363 160.994 319.44 139.224 313.245 122.638C307.042 106.053 313.336 93.7401 316.01 90.5148C318.683 87.2868 321.292 85.7655 320.323 86.719Z" fill="black"/>
<path opacity="0.1" d="M306.007 123.306C310.324 132.95 324.642 161.165 347.383 177.695C350.797 180.653 339.098 178.348 324.439 162.178C309.78 146.007 303.604 117.921 306.007 123.306Z" fill="black"/>
<path opacity="0.1" d="M226.645 182.962C228.266 185.608 229.21 188.608 229.395 191.699C229.58 194.791 229 197.881 227.706 200.699C225.478 203.93 213.731 208.838 205.776 208.491C197.816 208.137 165.134 209.472 162.777 212.716C160.409 215.953 173.853 210.047 180.323 218.61C186.792 227.173 182.266 232.277 184.863 241.529C185.527 236.995 186.525 232.517 187.848 228.128C190.014 221.019 184.699 217.891 185.878 216.218C187.057 214.535 190.806 211.474 208.987 212.338C227.168 213.202 232.491 206.116 235.659 201.549C238.843 196.99 230.644 184.892 226.645 182.962Z" fill="white"/>
<path d="M351.192 90.9007C343.108 86.2893 339.753 83.4507 338.068 95.161C336.38 106.878 345.803 129.31 350.62 134.885C355.43 140.467 372.218 144.915 373.985 143.502C375.759 142.096 366.235 132.072 374.303 125.949C380.306 128.158 386.553 129.649 392.911 130.392C401.635 131.079 413.534 134.815 417.601 132.93C421.664 131.04 431.002 117.518 431.135 104.82C431.26 92.122 429.758 58.0432 448.036 38.0193C452.433 33.2092 442.831 28.1448 434.167 32.4986C425.503 36.8604 423.155 54.4242 407.546 63.4401C391.927 72.4546 377.569 76.355 366.692 81.7606C361.24 84.3032 356.049 87.3642 351.192 90.9007Z" fill="#625A57"/>
<g opacity="0.1">
<path d="M351.718 115.225C345.781 106.039 350.843 120.425 356.562 125.216C362.276 129.998 365.03 131.555 368.086 131.175C371.157 130.795 368.976 133.712 369.424 135.094C369.872 136.477 359.189 136.336 353.312 130.436C347.454 124.528 353.372 133.347 356.593 135.532C360.882 137.789 365.626 139.064 370.476 139.261C370.875 139.247 371.261 139.122 371.592 138.902C371.923 138.681 372.185 138.373 372.349 138.013C370.847 134.283 369.661 129.482 374.301 125.946C369.371 128.246 357.655 124.411 351.718 115.225Z" fill="black"/>
</g>
<path opacity="0.1" d="M417.599 132.928C421.662 131.038 431 117.515 431.133 104.817C431.258 92.1196 429.756 58.0406 448.034 38.0167C448.427 37.6586 448.728 37.2129 448.912 36.7164C449.097 36.22 449.16 35.687 449.096 35.1616C449.033 34.6361 448.844 34.1332 448.546 33.6945C448.247 33.2558 447.848 32.8938 447.381 32.6386C442.295 31.846 435.884 32.8864 433.743 35.416C429.809 40.0224 423.642 48.9601 416.629 82.8808C409.619 116.81 376.582 123.466 374.302 125.948C380.305 128.157 386.551 129.649 392.91 130.392C401.633 131.076 413.532 134.813 417.599 132.928Z" fill="black"/>
<path opacity="0.1" d="M416.496 110.842C420.385 97.7119 420.814 65.0515 424.109 54.1147C421.025 63.5419 418.527 73.1478 416.627 82.8784C410.323 113.394 382.971 121.84 375.874 125.043C398.047 130.004 413.242 121.886 416.496 110.842Z" fill="black"/>
<path opacity="0.1" d="M349.38 98.5481C358.526 96.227 372.528 100.421 389.087 91.3596C405.646 82.2906 419.168 59.7798 423.878 49.4167C428.588 39.0537 432.023 33.9312 436.537 32.7033C441.044 31.4649 444.675 33.016 444.924 34.2183C445.167 35.4299 442.137 37.1717 438.243 42.4301C434.348 47.6884 426.949 73.7403 427.133 92.6936C427.311 111.633 423.577 120.059 419.483 125.144C415.385 130.218 407.881 131.148 398.021 131.024C405.778 132.273 414.284 134.467 417.6 132.928C421.663 131.038 431.001 117.515 431.134 104.817C431.259 92.1195 429.756 58.0407 448.035 38.0169C452.432 33.2068 442.83 28.1423 434.165 32.4962C425.501 36.858 423.153 54.4217 407.544 63.4376C391.926 72.4522 377.567 76.3525 366.69 81.7582C361.239 84.3018 356.049 87.3639 351.193 90.9013C348.069 93.0852 340.235 100.873 349.38 98.5481Z" fill="white"/>
<path d="M218.675 195.295C221.516 190.525 216.567 180.927 212.758 176.406C208.949 171.885 202.47 174.708 190.758 166.234C179.034 157.761 173.597 140.591 174.165 130.194C174.725 119.805 166.504 123.336 160.787 156.185C155.075 189.027 156.385 202.039 158.944 204.173C161.502 206.308 195.223 204.508 203.171 203.788C206.235 203.633 209.223 202.788 211.91 201.316C214.596 199.845 216.909 197.785 218.675 195.295Z" fill="#83786E"/>
<path opacity="0.1" d="M203.17 203.788C206.234 203.633 209.222 202.787 211.908 201.316C214.595 199.844 216.908 197.786 218.674 195.295C221.515 190.526 216.566 180.927 212.757 176.406C210.357 173.554 206.9 173.62 201.74 171.946C200.849 172.464 199.922 172.917 198.964 173.301C197.448 173.889 193.78 173.228 193.108 174.224C193.99 175.284 196.348 178.089 193.371 178.478C191.823 178.661 188.002 175.601 186.763 174.846C182.706 171.722 179.014 168.155 175.758 164.214C174.854 167.026 176.808 168.729 176.609 171.353C176.298 175.532 172.073 174.185 171.737 170.985C170.083 171.732 168.522 171.64 167.876 173.411C167.711 174.952 167.807 176.509 168.16 178.017C168.338 180.797 169.274 183.813 166.52 185.978C164.315 185.116 166.415 181.085 166.224 179.137C162.355 177.999 162.939 180.994 160.463 182.873C158.883 184.09 157.84 184.194 157.129 183.717C156.149 196.789 157.283 202.789 158.943 204.175C161.506 206.313 195.217 204.508 203.17 203.788Z" fill="black"/>
<path opacity="0.2" d="M216.231 192.884C216.981 190.881 217.312 188.747 217.205 186.613C217.099 184.478 216.555 182.388 215.609 180.468C214.766 179.042 213.813 177.684 212.757 176.405C208.942 171.885 202.47 174.707 190.757 166.233C179.033 157.76 173.596 140.59 174.164 130.193C174.717 120 166.817 123.218 161.116 154.352C165.506 136.792 169.3 136.415 169.261 137.507C169.208 138.826 169.182 140.914 174.382 157.323C179.579 173.743 191.48 178.748 195.116 181.312C198.761 183.877 186.795 186.213 195.328 187.443C203.86 188.673 210.108 178.93 209.963 182.85C209.471 195.667 198.86 196.7 191.216 197.075C179.758 197.635 178.808 199.547 189.998 200.095C201.2 200.646 213.473 198.727 216.231 192.884Z" fill="white"/>
<path d="M156.13 202.683C173.763 208.445 179.904 210.748 182.198 234.639C184.482 258.532 189.59 256.322 172.24 269.178C154.878 282.02 125.844 292.583 116.956 291.961C108.08 291.342 79.3236 276.223 36.1314 201.864C-7.06876 127.517 -3.96377 59.3156 6.98493 48.1617C17.9371 36.9929 6.07498 52.6479 15.902 84.8111C25.7192 116.987 38.2985 147.087 75.6733 169.537C113.041 191.992 137.448 196.577 156.13 202.683Z" fill="#83786E"/>
<path opacity="0.2" d="M133.436 283.449C118.432 288.5 92.879 276.847 58.9903 233.461C29.2523 195.378 6.12264 143.442 0.832031 97.2793C5.03985 134.222 17.0698 169.862 36.1322 201.862C71.8922 263.423 97.7408 284.367 110.624 290.11C117.33 290.199 123.992 289.029 130.261 286.662C142.63 282.801 142.01 280.566 133.436 283.449Z" fill="white"/>
<path opacity="0.1" d="M182.197 234.638C179.904 210.746 173.763 208.444 156.13 202.682C145.119 198.853 133.757 196.105 122.207 194.477C117.923 197.212 111.571 196.937 105.952 197.468C104.949 202.96 114.529 202.512 115.947 207.451C113.871 207.438 111.603 208.007 109.515 207.96C108.917 213.318 116.388 215.51 117.806 219.822C109.882 220.811 101.878 218.741 95.4477 214.039C88.3575 209.361 86.1891 204.258 77.103 202.412C75.1462 207.247 92.7049 215.785 94.6291 221.561C89.2206 221.947 86.3273 216.603 81.3716 217.009C83.342 221.648 91.1378 225.513 94.5983 229.674C98.1774 233.838 100.508 238.915 101.326 244.328C97.8724 244.759 96.0731 241.62 93.0637 241.359C93.1988 244.047 97.3187 249.145 98.9065 251.944C102.603 258.426 109.56 261.357 113.052 267.62C105.643 271.254 94.1028 261.469 88.5815 257.447C81.6432 252.382 78.1504 244.124 70.8877 240.626C71.5096 245.604 79.5276 254.625 82.1832 259.486C80.2797 258.95 78.8766 259.092 77.2737 257.379C76.599 258.235 76.2202 259.284 76.1937 260.37C97.1189 285.06 111.21 291.558 116.956 291.96C125.845 292.583 154.877 282.019 172.239 269.177C189.59 256.321 184.482 258.53 182.197 234.638Z" fill="black"/>
<path opacity="0.2" d="M179.125 237.368C177.025 218.436 175.007 217.02 168.809 208.272C164.837 205.885 160.577 204.007 156.13 202.682C137.448 196.577 113.041 191.991 75.6733 169.536C38.2985 147.086 25.7192 116.986 15.902 84.8105C13.7822 77.9819 12.438 70.9396 11.8944 63.8145C8.95007 103.396 26.4441 146.491 58.8579 185.127C100.218 234.448 163.805 248.79 169.321 252.499C174.838 256.208 172.023 260.716 167.541 265.984C163.173 271.111 174.238 265.446 178.724 260.617C183.206 255.804 181.241 256.313 179.125 237.368Z" fill="white"/>
</g>
<defs>
<clipPath id="clip0_1276_8690">
<rect width="1000" height="600" fill="white"/>
</clipPath>
</defs>
</svg>
