<svg width="1000" height="500" viewBox="0 0 1000 500" fill="none" xmlns="http://www.w3.org/2000/svg">
<g clip-path="url(#clip0_2175_421)">
<path d="M486.77 283.523L555.106 395.363C556.997 398.476 558.454 401.846 559.388 405.433C560.25 409.021 560.578 412.608 560.366 416.091L556.341 478.19C556.358 480.373 556.102 482.584 555.496 484.805C554.879 487.035 554.001 489.132 552.861 491.107L547.623 500H492.635L507.258 492.179C510.599 490.376 513.535 487.927 515.809 484.89C518.049 481.835 519.368 478.541 519.835 475.172L523.86 446.177C524.61 440.568 524.232 434.722 522.492 428.904C520.697 423.095 517.75 417.838 513.852 413.235L426.655 309.808L437.658 272.888L486.77 283.523Z" fill="#786476"/>
<path d="M511.705 493.338C511.255 492.351 508.309 491.61 507.258 492.18L492.635 500H511.705C511.705 500 512.912 496.033 511.705 493.338Z" fill="#5D4D5A"/>
<path d="M529.552 494.81C529.196 494.061 526.894 493.472 526.071 493.908L514.707 500.002H529.552C529.552 500.002 530.491 496.945 529.552 494.81Z" fill="#5D4D5A"/>
<path d="M325.724 272.411C327.197 276.279 327.153 280.602 325.257 284.693C323.4 288.803 319.974 291.972 315.783 293.97L264.647 318.352L267.177 352.927C267.266 354.147 266.693 355.38 265.509 356.206C264.303 357.032 262.762 357.26 261.378 356.956L251.921 354.754C250.303 354.374 248.812 353.568 247.701 352.339C246.6 351.11 246.083 349.667 246.083 348.229V322.698C246.083 319.899 246.849 317.052 248.462 314.395C250.058 311.746 252.332 309.587 255.017 307.945L294.454 284.151C294.454 284.151 265.393 256.928 260.377 234.857C258.598 227.046 263.73 218.959 272.57 215.334C281.394 211.717 292.175 213.207 298.041 219.41C313.781 235.976 325.724 272.411 325.724 272.411Z" fill="#786476"/>
<path d="M139.782 31.3667C139.782 31.3667 166.17 50.562 176.928 63.0757C191.534 80.059 201.109 134.608 222.359 137.735C243.625 140.867 259.511 134.399 259.511 134.399L256.086 229.089C256.086 229.089 161.994 203.441 145.886 160.893C129.763 118.35 93.112 81.2223 74.7644 80.5954C56.4601 79.9695 139.782 31.3667 139.782 31.3667Z" fill="#786476"/>
<path d="M222.36 137.735C201.11 134.608 191.535 80.059 176.929 63.0757C166.171 50.562 139.783 31.3667 139.783 31.3667C139.783 31.3667 134.473 34.4747 126.828 39.1066V55.3076C126.978 55.2123 127.084 55.1462 127.084 55.1462C127.084 55.1462 152.716 72.6709 163.502 85.1894C178.092 102.173 197.201 158.805 218.457 161.928C239.729 165.059 255.63 158.601 255.63 158.601L253.101 228.221C254.986 228.791 256.087 229.089 256.087 229.089L259.512 134.399C259.512 134.399 243.626 140.867 222.36 137.735Z" fill="#745C64"/>
<path d="M243.043 159.953C243.382 153.637 248.219 137.475 254.029 133.019C263.809 125.544 280.534 115.062 299.848 112.713C343.778 107.35 482.366 132.107 549.831 164.637C674.468 224.776 994.077 473.075 994.077 473.075C1004.34 480.592 999.197 483.107 994.077 480.592C994.077 480.592 644.172 297.091 543.47 308.769C442.806 320.438 462.544 321.905 433.265 320.438C383.415 317.933 292.542 277.987 292.542 277.987C281.095 273.834 270.808 267.019 263.136 257.714C255.475 248.418 251.427 237.854 250.688 227.262C250.688 227.262 242.009 177.602 243.043 159.953Z" fill="#856F83"/>
<path d="M530.764 280.397C430.08 292.071 447.882 280.611 418.587 279.145C368.758 276.644 277.864 236.688 277.864 236.688C266.661 232.616 250.688 227.263 250.688 227.263C251.427 237.855 255.475 248.418 263.136 257.714C270.808 267.02 281.095 273.834 292.542 277.987C292.542 277.987 383.414 317.934 433.265 320.439C462.544 321.906 442.806 320.439 543.47 308.77C622.098 299.645 852.765 409.592 950.031 458.194C842.796 397.804 607.57 271.485 530.764 280.397Z" fill="#AE93AC"/>
<path d="M285.176 145.243C329.117 139.89 472.307 162.279 541.023 192.791C684.71 256.612 998.492 480.592 998.492 480.592C998.719 480.791 998.958 481.019 999.17 481.228C1000.85 480.374 1000.31 477.64 994.077 473.075C994.077 473.075 674.468 224.776 549.831 164.637C482.366 132.107 343.778 107.35 299.848 112.713C280.534 115.062 263.809 125.544 254.029 133.019C248.219 137.475 243.382 153.637 243.043 159.953C243.004 160.552 242.97 161.215 242.97 161.894C255.118 154.743 271.754 146.884 285.176 145.243Z" fill="#7D636B"/>
<path d="M444.752 216.774C431.341 228.557 405.376 273.159 405.376 273.159C401.062 278.868 397.976 285.36 396.436 292.44C394.907 299.515 395.107 306.534 396.708 313.173L419.438 406.363C420.111 409.087 420.471 411.972 420.444 414.914C420.416 417.847 420.022 420.704 419.293 423.466L407.328 469.771C406.472 472.97 405.037 476.121 402.93 479.073C400.811 482.024 398.153 484.52 395.196 486.608L376.087 500H444.996L442.044 492.217C440.904 489.17 440.354 485.925 440.493 482.574C440.615 479.186 441.461 475.978 442.861 473.017L461.788 432.824C463.022 430.261 463.973 427.594 464.613 424.776C465.285 421.985 465.613 419.176 465.652 416.414L466.987 329.82C466.987 329.82 519.4 310.98 536.636 297.299C557.892 280.396 563.769 264.451 567.443 253.067C573.365 234.816 567.443 214.482 549.752 201.091C532.043 187.694 507.452 184.709 487.163 192.345C475.46 196.744 460.881 202.609 444.752 216.774Z" fill="#91798F"/>
<path d="M395.146 494.515C395.146 493.367 394.635 492.191 393.6 491.308C392.55 490.444 391.215 489.998 389.842 489.998H390.359L376.087 500.001H395.146V494.515Z" fill="#544653"/>
<path d="M414.929 495.083C414.929 494.058 414.489 493.015 413.539 492.217C412.622 491.41 411.404 491.021 410.186 491.021H410.659L397.82 500H414.929V495.083Z" fill="#544653"/>
<path d="M341.085 219.716C346.479 244.174 330.749 267.226 305.968 271.208C281.144 275.213 256.658 258.633 251.259 234.17C245.871 209.726 261.589 186.669 286.403 182.687C311.195 178.682 335.637 195.267 341.085 219.716Z" fill="#8A7387"/>
<path d="M344.777 277.41C346.229 281.282 346.212 285.61 344.345 289.7C342.459 293.801 339.039 296.976 334.858 298.968L283.712 323.355L286.103 356.004C286.231 357.655 285.447 359.326 283.818 360.445C282.217 361.574 280.126 361.888 278.263 361.451L271.202 359.819C269.529 359.421 267.966 358.567 266.855 357.294C265.687 356.014 265.137 354.504 265.137 353.024V327.692C265.137 324.902 265.92 322.05 267.511 319.407C269.129 316.749 271.38 314.586 274.088 312.953L313.525 289.169C313.525 289.169 284.446 261.93 279.42 239.869C277.652 232.058 282.801 223.971 291.636 220.332C300.46 216.716 311.229 218.211 317.1 224.409C332.84 240.975 344.777 277.41 344.777 277.41Z" fill="#91798F"/>
<path d="M99.5508 17.4616C99.5508 17.4616 167.338 -2.32161 209.849 0.226613C251.922 2.74179 267.728 12.612 274.401 22.1314C276.318 24.8983 274.673 28.6993 272.099 31.3661C269.497 34.0523 265.655 35.4236 261.913 35.0815C248.164 33.8191 247.107 25.9139 230.894 23.3987C167.75 13.6033 158.72 47.016 158.72 47.016C119.761 50.7605 108.269 33.9852 99.5508 17.4616Z" fill="#745C64"/>
<path d="M117.298 24.2764C124.798 27.603 131.315 32.7179 135.79 39.4568C140.283 46.186 142.123 53.579 141.651 60.7785L141.234 67.0898C141.234 74.9337 137.381 82.7164 129.919 88.2492C122.424 93.7868 112.844 95.9366 103.754 94.8268L29.2447 85.7388L28.4887 86.5503C26.315 88.7953 23.1403 90.3377 19.476 90.6263C15.8061 90.8926 12.3752 89.8576 9.79039 87.9595L3.43553 83.3043C0.0217605 79.2089 -2.75895 77.1116 4.88616 68.186C32.2361 40.9418 64.4278 26.9432 101.08 17.1108L117.298 24.2764Z" fill="#856F83"/>
<path d="M274.4 22.1314C267.728 12.612 251.922 2.74179 209.849 0.226613C167.337 -2.32161 99.5503 17.4616 99.5503 17.4616L99.6393 17.5044C63.5886 27.3231 31.8524 41.2985 4.88616 68.186C-2.75895 77.1116 0.0217605 79.2088 3.43553 83.3043L9.79039 87.9595C12.3752 89.8576 15.8061 90.8926 19.476 90.6263C23.1403 90.3377 26.315 88.7953 28.4887 86.5503L29.2447 85.7388L44.2902 87.5659L45.2409 61.3092C54.5086 51.2543 75.4809 40.5385 87.207 36.1544C112.889 26.5631 154.984 16.3605 197.461 18.9087C210.894 19.7018 221.619 21.2723 230.271 23.3132C230.471 23.3463 230.655 23.3608 230.894 23.3987C236.192 24.2141 239.884 25.6243 242.886 27.1899C247.874 29.1308 251.749 31.2903 254.807 33.5489C256.798 34.27 259.083 34.8249 261.913 35.0815C265.654 35.4236 269.496 34.0523 272.098 31.3661C274.673 28.6993 276.318 24.8983 274.4 22.1314Z" fill="#AF9D55"/>
<path d="M113.778 50.2902C113.778 43.1237 106.979 37.2964 98.5826 37.2964C90.1541 37.2964 83.3379 43.1237 83.3379 50.2902C83.3379 57.4567 90.1541 63.2782 98.5826 63.2782C106.979 63.2782 113.778 57.4596 113.778 50.2902Z" fill="#6F5960"/>
<path d="M104.988 50.2953C104.988 47.2582 102.114 44.8052 98.5829 44.8052C95.0302 44.8052 92.1504 47.2582 92.1504 50.2953C92.1504 53.3041 95.0302 55.762 98.5829 55.762C102.114 55.762 104.988 53.3041 104.988 50.2953Z" fill="black"/>
<path d="M100.106 50.2944C100.106 49.5597 99.4232 48.9805 98.5829 48.9805C97.722 48.9805 97.0205 49.5597 97.0205 50.2944C97.0205 51.0117 97.722 51.5948 98.5829 51.5948C99.4232 51.5948 100.106 51.0117 100.106 50.2944Z" fill="white"/>
<path d="M43.2833 78.0316C52.7355 74.1597 58.7067 80.0443 58.9629 80.2912C59.5459 80.9122 60.6139 80.9841 61.3313 80.4758C62.0487 79.9685 62.1478 79.0666 61.5648 78.4495C61.4589 78.3737 53.6919 70.5726 41.8428 75.4406C36.2552 77.7235 31.7131 82.6732 29.2559 85.7385L33.0193 86.1943C35.3718 83.4138 39.0634 79.7732 43.2833 78.0316Z" fill="#735972"/>
<path d="M368.758 164.015C368.758 171.281 361.853 177.151 353.346 177.151C344.862 177.151 337.967 171.281 337.967 164.015C337.967 156.76 344.862 150.885 353.346 150.885C361.853 150.885 368.758 156.76 368.758 164.015Z" fill="#7D636B"/>
<path d="M420.076 170.283C420.076 176.841 413.839 182.156 406.132 182.156C398.448 182.156 392.221 176.841 392.221 170.283C392.221 163.715 398.448 158.386 406.132 158.386C413.839 158.386 420.076 163.715 420.076 170.283Z" fill="#7D636B"/>
<path d="M471.385 181.227C471.385 187.624 465.313 192.791 457.824 192.791C450.324 192.791 444.264 187.624 444.264 181.227C444.264 174.826 450.324 169.644 457.824 169.644C465.313 169.644 471.385 174.826 471.385 181.227Z" fill="#7D636B"/>
<path d="M435.444 199.062C435.444 203.204 431.508 206.564 426.655 206.564C421.812 206.564 417.853 203.204 417.853 199.062C417.853 194.914 421.812 191.554 426.655 191.554C431.508 191.554 435.444 194.914 435.444 199.062Z" fill="#7D636B"/>
<path d="M387.072 192.793C387.072 197.297 382.808 200.936 377.57 200.936C372.266 200.936 368.023 197.297 368.023 192.793C368.023 188.314 372.266 184.66 377.57 184.66C382.808 184.66 387.072 188.314 387.072 192.793Z" fill="#7D636B"/>
<path d="M315.967 160.893C315.967 166.764 310.384 171.532 303.507 171.532C296.607 171.532 291.053 166.764 291.053 160.893C291.053 155.023 296.607 150.254 303.507 150.254C310.384 150.254 315.967 155.023 315.967 160.893Z" fill="#7D636B"/>
<path d="M276.385 168.087C276.385 172.054 272.604 175.276 267.939 175.276C263.313 175.276 259.511 172.054 259.511 168.087C259.511 164.105 263.313 160.892 267.939 160.892C272.604 160.892 276.385 164.105 276.385 168.087Z" fill="#7D636B"/>
<path d="M340.892 191.234C340.892 193.825 338.435 195.932 335.399 195.932C332.363 195.932 329.895 193.825 329.895 191.234C329.895 188.648 332.363 186.541 335.399 186.541C338.435 186.541 340.892 188.648 340.892 191.234Z" fill="#7D636B"/>
<path d="M597.474 232.22C597.474 236.353 593.548 239.723 588.684 239.723C583.819 239.723 579.888 236.353 579.888 232.22C579.888 228.067 583.818 224.712 588.684 224.712C593.549 224.712 597.474 228.067 597.474 232.22Z" fill="#7D636B"/>
<path d="M634.474 254.11C634.474 259.126 629.749 263.188 623.861 263.188C617.984 263.188 613.241 259.126 613.241 254.11C613.241 249.104 617.984 245.046 623.861 245.046C629.749 245.046 634.474 249.104 634.474 254.11Z" fill="#7D636B"/>
<path d="M674.111 276.016C674.111 279.656 670.653 282.589 666.377 282.589C662.134 282.589 658.688 279.656 658.688 276.016C658.688 272.391 662.134 269.458 666.377 269.458C670.653 269.458 674.111 272.391 674.111 276.016Z" fill="#7D636B"/>
<path d="M718.447 300.113C718.447 303.036 715.65 305.428 712.214 305.428C708.772 305.428 705.975 303.036 705.975 300.113C705.975 297.171 708.772 294.794 712.214 294.794C715.65 294.794 718.447 297.171 718.447 300.113Z" fill="#7D636B"/>
<path d="M751.424 320.746C751.424 323.01 749.305 324.813 746.648 324.813C744.013 324.813 741.878 323.01 741.878 320.746C741.878 318.506 744.013 316.684 746.648 316.684C749.305 316.684 751.424 318.506 751.424 320.746Z" fill="#7D636B"/>
<path d="M790.287 344.847C790.287 346.57 788.63 347.975 786.607 347.975C784.605 347.975 782.954 346.57 782.954 344.847C782.954 343.115 784.605 341.711 786.607 341.711C788.63 341.711 790.287 343.115 790.287 344.847Z" fill="#7D636B"/>
<path d="M9.45703 69.6558C8.30582 71.1369 9.55717 72.3372 10.0912 72.7502C11.4975 73.8086 15.7676 72.7599 17.4745 69.7938C20.4043 64.711 24.7085 58.3481 24.7085 58.3481C24.7085 58.3481 12.6431 65.6274 9.45703 69.6558Z" fill="#6F5960"/>
</g>
<defs>
<clipPath id="clip0_2175_421">
<rect width="1000" height="500" fill="white"/>
</clipPath>
</defs>
</svg>
