<svg width="1000" height="500" viewBox="0 0 1000 500" fill="none" xmlns="http://www.w3.org/2000/svg">
<g clip-path="url(#clip0_1276_6394)">
<path fill-rule="evenodd" clip-rule="evenodd" d="M999.717 3.38122C1000.66 5.99096 999.17 8.83222 996.387 9.71616L835.878 60.7744L832.461 51.3247L992.968 0.266411C995.752 -0.617531 998.772 0.771481 999.717 3.38122Z" fill="#4D4D4D"/>
<path fill-rule="evenodd" clip-rule="evenodd" d="M862.959 46.8799C867.814 60.3074 860.147 74.8924 845.837 79.4384L235.475 273.632L217.895 225.036L828.26 30.8219C842.57 26.2759 858.106 33.4734 862.959 46.8799Z" fill="#B7BBBA"/>
<path fill-rule="evenodd" clip-rule="evenodd" d="M999.717 496.619C1000.66 494.009 999.17 491.168 996.388 490.284L835.879 439.205L832.461 448.675L992.968 499.734C995.753 500.618 998.773 499.229 999.717 496.619Z" fill="#4D4D4D"/>
<path fill-rule="evenodd" clip-rule="evenodd" d="M862.959 453.096C867.815 439.668 860.148 425.104 845.837 420.558L235.475 226.343L217.896 274.96L828.26 469.154C842.57 473.721 858.106 466.523 862.959 453.096Z" fill="#B7BBBA"/>
<path fill-rule="evenodd" clip-rule="evenodd" d="M0 232.887L0 267.087C0 274.643 6.52924 280.767 14.5842 280.767H236.255C244.308 280.767 250.839 274.643 250.839 267.087V232.887C250.839 225.331 244.308 219.207 236.255 219.207H14.5842C6.52924 219.207 0 225.331 0 232.887Z" fill="#4D4D4D"/>
<path fill-rule="evenodd" clip-rule="evenodd" d="M250.839 259.28V240.717H0L0 259.28H250.839Z" fill="#E6E7E9"/>
<path fill-rule="evenodd" clip-rule="evenodd" d="M268.249 125.531C327.833 125.531 376.136 173.844 376.136 233.444C376.136 293.022 327.833 341.335 268.249 341.335C208.664 341.335 160.361 293.022 160.361 233.444C160.361 173.844 208.664 125.531 268.249 125.531Z" fill="#BCD819"/>
<path fill-rule="evenodd" clip-rule="evenodd" d="M268.249 196.578C288.606 196.578 305.111 213.093 305.111 233.446C305.111 253.799 288.606 270.315 268.249 270.315C247.892 270.315 231.387 253.799 231.387 233.446C231.387 213.093 247.892 196.578 268.249 196.578Z" fill="#167347"/>
<path fill-rule="evenodd" clip-rule="evenodd" d="M688.316 250.566C688.316 319.219 651.572 384.568 590.025 425.355C586.374 427.776 581.326 426.955 578.746 423.524C576.17 420.115 577.034 415.379 580.684 412.959C637.946 375.012 672.134 314.294 672.134 250.566C672.134 186.438 637.614 125.509 579.793 87.5629C576.132 85.1636 575.241 80.4281 577.801 76.9976C580.361 73.567 585.405 72.7249 589.069 75.1242C651.216 115.891 688.316 181.471 688.316 250.566Z" fill="#70A317"/>
</g>
<defs>
<clipPath id="clip0_1276_6394">
<rect width="500" height="1000" fill="white" transform="matrix(0 -1 1 0 0 500)"/>
</clipPath>
</defs>
</svg>
