<svg width="1000" height="50" viewBox="0 0 1000 50" fill="none" xmlns="http://www.w3.org/2000/svg">
<g clip-path="url(#clip0_1276_6468)">
<path fill-rule="evenodd" clip-rule="evenodd" d="M220.765 24.8702C244.174 35.916 107.254 81.4187 0 13.3349C82.5607 29.0557 112.089 -28.1076 216.99 19.0906C218.839 19.9206 218.867 23.9746 220.765 24.8702Z" fill="#FFC452"/>
<path fill-rule="evenodd" clip-rule="evenodd" d="M479.049 9.60398C630.103 9.60398 866.988 18.2555 992.203 23.3007C1002.6 23.7187 1002.6 29.9581 992.203 30.376C866.988 35.4153 630.103 44.0728 479.049 44.0728C265.887 44.0728 304.365 36.3586 304.365 26.8354C304.365 17.3181 265.887 9.60398 479.049 9.60398Z" fill="#13688D"/>
<path fill-rule="evenodd" clip-rule="evenodd" d="M305.623 19.836V33.8372C305.623 35.2583 302.819 36.4106 299.36 36.4106L219.255 36.4106C215.796 36.4106 212.993 35.2583 212.993 33.8372V19.836C212.993 18.415 215.796 17.2566 219.255 17.2566L299.36 17.2566C302.819 17.2566 305.623 18.415 305.623 19.836Z" fill="#E6E7E9"/>
<path fill-rule="evenodd" clip-rule="evenodd" d="M305.62 19.6927V33.9805C305.62 35.3239 302.971 36.4106 299.702 36.4106H284.79V17.2566H299.702C302.971 17.2566 305.62 18.3493 305.62 19.6927Z" fill="#7A3623"/>
<path fill-rule="evenodd" clip-rule="evenodd" d="M271.501 36.4106V17.2566H261.087V36.4106H271.501Z" fill="#7A3623"/>
<path fill-rule="evenodd" clip-rule="evenodd" d="M236.58 17.2566V36.4106H219.255C215.796 36.4106 212.993 35.2583 212.993 33.8372V19.836C212.993 18.415 215.796 17.2566 219.255 17.2566H236.58Z" fill="#7A3623"/>
<path fill-rule="evenodd" clip-rule="evenodd" d="M104.802 48.5449C124.254 42.8011 136.82 33.7197 136.82 23.5039C136.82 15.0972 128.308 7.46659 114.469 1.8243C77.5428 7.25165 47.5763 22.3993 0 13.3358C33.9712 34.9019 70.9167 45.064 104.802 48.5449Z" fill="#FE3C3D"/>
</g>
<defs>
<clipPath id="clip0_1276_6468">
<rect width="50" height="1000" fill="white" transform="matrix(0 -1 1 0 0 50)"/>
</clipPath>
</defs>
</svg>
