<svg width="600" height="600" viewBox="0 0 600 600" fill="none" xmlns="http://www.w3.org/2000/svg">
<g clip-path="url(#clip0_1956_1773)">
<path d="M300.001 600C465.686 600 600 465.685 600 300C600 134.315 465.686 0 300.001 0C134.316 0 0.00146484 134.315 0.00146484 300C0.00146484 465.685 134.316 600 300.001 600Z" fill="#E5CFA1"/>
<path d="M462 352C418.001 326 382.001 288 328.001 284C270.001 280 212.001 312 220.001 376C226.043 451.521 267.443 529.319 305.442 599.927C306.497 599.908 307.547 599.907 308.604 599.877C472.412 595.177 601.755 460.01 599.963 296.808C546.14 253.894 494.777 305.727 462 352Z" fill="#BC9F6F"/>
<path d="M78.0018 345.999C43.1085 320.622 42.1677 256.266 4.37517 248.662C1.02257 268.09 -0.461779 288.135 0.12542 308.602C2.53441 392.569 39.2367 467.47 96.409 520.311C104.046 517.333 111.329 512.672 118.002 505.999C134.002 489.999 130.002 431.999 126.002 411.999C120.002 379.999 102.002 363.999 78.0018 345.999Z" fill="#BC9F6F"/>
<path d="M246.001 189.999C268.001 189.999 278.668 175.332 275.335 151.999C273.335 139.332 264.001 139.332 256.001 131.999C245.335 122.666 248.668 114.666 254.668 103.332C263.335 87.3323 266.001 61.3323 240.668 59.3323C228.862 58.3205 195.3 51.2042 172.335 63.6656C149.911 75.8332 137.97 107.452 135.335 117.332C121.668 155.333 150.001 187.999 159.335 194.666C166.668 199.999 176.668 203.332 186.001 204.666C199.335 205.999 204.001 200.666 214.001 194.666C224.668 188.666 234.001 189.999 246.001 189.999Z" fill="#BC9F6F"/>
<path d="M537.333 238.666C547.333 229.332 549.333 205.332 542.666 193.999C535.333 179.999 499.166 162.832 499.166 162.832C485.166 156.832 460.667 156.666 454.667 173.999C450 185.332 450 213.999 453.333 225.999C460.666 255.999 518.666 255.999 537.333 238.666Z" fill="#BC9F6F"/>
<path d="M435 97.4996C434 95.9996 431.5 91.4996 431.5 91.4996C423 82.9996 409.5 81.9996 398 82.9996C385.5 83.9996 364 96.9996 373.5 111C385.5 128 445.5 125.5 435 97.4996Z" fill="#BC9F6F"/>
<g opacity="0.2">
<path d="M298.57 0C287.397 0 276.368 0.616197 265.512 1.8064C415.642 18.2634 512.453 145.488 512.453 300C512.453 454.512 415.642 581.737 265.512 598.194C276.368 599.384 287.397 600 298.57 600C464.255 600 599.081 468.061 599.978 300C600.862 134.317 464.255 0 298.57 0Z" fill="#222222"/>
</g>
</g>
<defs>
<clipPath id="clip0_1956_1773">
<rect width="600" height="600" fill="white"/>
</clipPath>
</defs>
</svg>
