<svg width="860" height="700" viewBox="0 0 860 700" fill="none" xmlns="http://www.w3.org/2000/svg">
<g clip-path="url(#clip0_2175_637)">
<path d="M492.396 627.467L569.024 479.092L589.12 334.452L560.229 145.845L472.311 0C527.836 197.327 484.77 423.526 321.562 640.035L492.396 627.467Z" fill="#59635B"/>
<path d="M580.212 344.898C580.212 344.898 595.939 328.017 603.36 322.736C606.287 320.63 634.329 320.206 634.329 320.206C625.881 314.992 612.59 305.6 601.689 305.532L578.235 311.832L580.212 344.898Z" fill="#59635B"/>
<path d="M321.562 618.654C312.402 629.352 270.736 637.877 270.736 637.877C266.59 639.388 262.255 640.492 257.716 641.104C253.205 641.767 248.718 641.868 244.323 641.562L170.613 636.265L150.941 649.069C148.618 650.58 146.047 651.82 143.258 652.651C140.466 653.467 137.641 653.858 134.869 653.858H87.5117L105.926 637.929H128.158C132.154 637.929 136.234 637.164 140.16 635.602C144.114 634.006 147.54 631.712 150.434 628.945L152.621 626.839C155.869 623.697 159.721 621.116 164.123 619.214C168.518 617.294 173.081 616.309 177.593 616.071L246.605 612.76C246.605 612.76 278.498 593.111 290.161 588.899C306.491 583.04 319.561 586.913 324.074 593.485C328.603 600.074 325.228 614.374 321.562 618.654Z" fill="#59635B"/>
<path d="M453.454 611.095L482.353 441.356L481.106 289.209L335.388 149.622L187.161 61.6026L0 23.8838C0 23.8838 263.332 196.306 270.05 348.292C278.854 546.987 177.11 650.087 177.11 650.087L453.454 611.095Z" fill="#667268"/>
<path d="M469.875 308.501H481.241L481.106 289.209L335.388 149.622L187.161 61.6026L0 23.8838C0 23.8838 1.5009 24.8611 4.23173 26.7201L174.591 65.3711L324.074 158.418L469.783 298.006L469.875 308.501Z" fill="#77857A"/>
<path d="M605.03 580.103C605.03 580.103 594.997 625.378 538.877 621.997C482.749 618.653 466.015 595.997 446.767 595.997C427.506 595.997 307.99 604.285 265.883 621.997C254.848 626.651 219.816 651.36 219.816 651.36C219.816 651.36 277.063 669.973 294.341 673.981C320.018 679.96 399.021 686.549 399.021 686.549C399.021 686.549 412.423 700.796 447.582 699.963C496.619 698.809 522.133 662.263 522.133 662.263C568.43 659.478 610.833 651.683 648.586 637.928L605.03 580.103Z" fill="#6C796F"/>
<path d="M413.249 529.8L476.434 450.543C478.885 447.486 480.844 443.954 482.175 440.031C483.507 436.09 484.084 432.099 483.981 428.16L481.107 289.209L454.295 269.918C454.295 269.918 450.376 292.589 453.454 300.944C455.779 307.194 469.367 322.733 469.367 322.733L467.696 412.435C467.696 412.435 459.442 419.907 456.626 423.761C453.013 428.635 450.112 441.763 450.112 441.763L390.338 514.396C387.199 518.218 384.944 522.854 383.959 528.068C382.984 533.264 383.417 538.41 384.959 543.114C384.959 543.114 409.177 620.894 423.554 643.616C427.193 649.442 435.455 650.935 442.571 649.101C449.671 647.336 457.111 642.054 456.67 635.21C454.854 606.78 413.249 529.8 413.249 529.8Z" fill="#77857A"/>
<path d="M302.307 648.85C293.13 659.516 251.457 668.058 251.457 668.058C247.343 669.604 243 670.691 238.453 671.301C233.915 671.946 229.454 672.066 225.076 671.743L151.375 666.461L131.67 679.266C129.355 680.777 126.784 681.999 123.994 682.85C121.178 683.648 118.386 684.022 115.605 684.022H68.248L86.6707 668.091H108.894C112.899 668.091 116.953 667.378 120.898 665.781C124.833 664.202 128.293 661.893 131.179 659.142L133.357 657.036C136.614 653.878 140.474 651.278 144.861 649.36C149.271 647.44 153.818 646.491 158.329 646.27L227.359 642.974C227.359 642.974 259.26 623.258 270.889 619.063C287.218 613.222 300.289 617.11 304.835 623.682C309.322 630.271 305.964 644.553 302.307 648.85Z" fill="#6C796F"/>
<path d="M478.9 322.51C478.9 322.51 489.502 292.824 498.68 286.694C502.446 284.164 534.162 280.708 534.162 280.708L497.426 269.074L463.818 276.947L478.9 322.51Z" fill="#77857A"/>
<path d="M486.17 513.379C533.433 527.592 594.184 533.774 626 541.229C655.044 548.022 705.302 586.963 731.58 596.78C761.913 608.124 824.503 605.747 850.204 621.846C853.844 624.138 860 636.026 860 636.026L844.758 642.53H638.19C628.953 642.53 619.689 639.015 612.65 631.967C605.574 624.869 602.063 615.646 602.063 606.374V602.18C602.063 598.681 601.19 595.064 599.341 591.786C597.458 588.509 594.854 585.911 591.833 584.127C552.782 570.337 515.019 547.191 481.276 522.787C470.419 514.923 472.717 509.336 486.17 513.379Z" fill="#77857A"/>
<path d="M850.203 621.846C824.502 605.746 761.911 608.123 731.579 596.78C723.97 593.959 714.375 588.645 703.85 582.445C700.346 608.989 675.986 623.679 658.843 625.548L703.85 642.53H844.757L859.999 636.026C859.999 636.026 853.842 624.138 850.203 621.846Z" fill="#AAA267"/>
<path d="M688.989 596.628C688.989 604.982 682.237 611.724 673.907 611.724C665.595 611.724 658.844 604.982 658.844 596.628C658.844 588.305 665.595 581.564 673.907 581.564C682.237 581.564 688.989 588.305 688.989 596.628Z" fill="#59635B"/>
<path d="M681.449 596.63C681.449 600.79 678.074 604.203 673.908 604.203C669.753 604.203 666.384 600.79 666.384 596.63C666.384 592.486 669.753 589.105 673.908 589.105C678.074 589.105 681.449 592.486 681.449 596.63Z" fill="black"/>
<path d="M675.986 596.629C675.986 597.8 675.061 598.768 673.907 598.768C672.745 598.768 671.812 597.8 671.812 596.629C671.812 595.508 672.745 594.539 673.907 594.539C675.061 594.539 675.986 595.508 675.986 596.629Z" fill="white"/>
<path d="M598.553 590.631C621.301 584.383 642.295 573.123 659.998 556.207C647.426 549.211 635.56 543.454 626 541.229C594.184 533.774 533.433 527.592 486.17 513.379C472.717 509.336 470.419 514.923 481.276 522.787C515.019 547.191 552.782 570.337 591.833 584.127C594.472 585.706 596.744 587.88 598.553 590.631Z" fill="#9D6156"/>
<path d="M675.586 625.684C675.527 626.718 676.307 627.602 677.36 627.67L854.978 638.149L859.999 636.026C859.999 636.026 859.704 635.481 859.262 634.632L677.572 623.882C676.613 623.866 675.645 624.647 675.586 625.684Z" fill="#84764D"/>
<path d="M724.134 604.878C724.005 606.371 720.036 607.288 715.252 606.898C710.485 606.542 706.692 605.013 706.812 603.518C706.922 602.007 710.9 601.125 715.675 601.464C720.46 601.853 724.252 603.382 724.134 604.878Z" fill="#84764D"/>
</g>
<defs>
<clipPath id="clip0_2175_637">
<rect width="860" height="700" fill="white"/>
</clipPath>
</defs>
</svg>
