<svg width="700" height="500" viewBox="0 0 700 500" fill="none" xmlns="http://www.w3.org/2000/svg">
<g clip-path="url(#clip0_1276_6405)">
<path fill-rule="evenodd" clip-rule="evenodd" d="M273.344 317.123L202.61 377.643L160.791 317.123L228.846 252.528L273.344 317.123Z" fill="#70A317"/>
<path fill-rule="evenodd" clip-rule="evenodd" d="M290.172 209.794L202.61 133.029L163.628 196.195L251.19 272.942L290.172 209.794Z" fill="#70A317"/>
<path fill-rule="evenodd" clip-rule="evenodd" d="M700 256.232V257.849C700 273.451 689.974 286.436 676.926 287.736L278.998 327.357C271.021 328.148 263.266 323.878 258.607 316.094L232.659 272.784C227.012 263.366 227.012 250.715 232.659 241.298L258.607 197.986C263.266 190.22 271.021 185.933 278.998 186.742L676.926 226.328C689.974 227.628 700 240.63 700 256.232Z" fill="#E6E7E9"/>
<path fill-rule="evenodd" clip-rule="evenodd" d="M699.998 250.646V260.292C699.998 274.506 690.857 286.349 678.973 287.544L386.845 316.623L401.603 291.233C404.862 285.629 410.051 282.044 415.757 281.411L699.998 250.646Z" fill="#B7BBBA"/>
<path fill-rule="evenodd" clip-rule="evenodd" d="M340.772 229.785C341.691 230.755 342.523 231.772 343.31 232.82C354.352 247.529 353.491 269.108 340.772 282.753C328.053 296.397 307.954 297.321 294.243 285.46C293.251 284.63 292.318 283.723 291.413 282.753C290.509 281.782 289.663 280.765 288.89 279.717C277.848 265.024 278.694 243.445 291.413 229.8C304.147 216.14 324.261 215.232 337.957 227.078C338.934 227.923 339.883 228.815 340.772 229.785Z" fill="#13688D"/>
<path fill-rule="evenodd" clip-rule="evenodd" d="M340.774 229.784C341.693 230.754 342.524 231.771 343.312 232.819L294.244 285.458C293.252 284.629 292.319 283.722 291.414 282.751C290.51 281.781 289.664 280.764 288.891 279.716L337.958 227.077C338.936 227.922 339.884 228.814 340.774 229.784Z" fill="#06C7D6"/>
<path fill-rule="evenodd" clip-rule="evenodd" d="M0 114.667C0 51.3372 50.7811 -0.000198364 113.419 -0.000198364C176.058 -0.000198364 226.852 51.3372 226.852 114.667C226.852 177.997 176.058 229.334 113.419 229.334C50.7811 229.334 0 177.997 0 114.667Z" fill="#BCD819"/>
<path fill-rule="evenodd" clip-rule="evenodd" d="M43.6252 114.667C43.6252 75.692 74.869 44.1024 113.423 44.1024C151.978 44.1024 183.226 75.692 183.226 114.667C183.226 153.642 151.978 185.231 113.423 185.231C74.869 185.231 43.6252 153.642 43.6252 114.667Z" fill="white"/>
<path fill-rule="evenodd" clip-rule="evenodd" d="M5.48438 385.03C5.48438 321.7 56.2655 270.363 118.903 270.363C181.542 270.363 232.336 321.7 232.336 385.03C232.336 448.36 181.542 499.698 118.903 499.698C56.2655 499.698 5.48438 448.36 5.48438 385.03Z" fill="#BCD819"/>
<path fill-rule="evenodd" clip-rule="evenodd" d="M49.1096 385.03C49.1096 346.055 80.3534 314.466 118.908 314.466C157.462 314.466 188.711 346.055 188.711 385.03C188.711 424.005 157.462 455.595 118.908 455.595C80.3534 455.595 49.1096 424.005 49.1096 385.03Z" fill="white"/>
<path fill-rule="evenodd" clip-rule="evenodd" d="M1.99438 380.998C1.99438 317.668 52.7755 266.331 115.413 266.331C178.052 266.331 228.846 317.668 228.846 380.998C228.846 444.328 178.052 495.666 115.413 495.666C52.7755 495.666 1.99438 444.328 1.99438 380.998Z" fill="#BCD819"/>
<path fill-rule="evenodd" clip-rule="evenodd" d="M45.6196 380.998C45.6196 342.023 76.8634 310.433 115.418 310.433C153.972 310.433 185.221 342.023 185.221 380.998C185.221 419.973 153.972 451.562 115.418 451.562C76.8634 451.562 45.6196 419.973 45.6196 380.998Z" fill="white"/>
</g>
<defs>
<clipPath id="clip0_1276_6405">
<rect width="500" height="700" fill="white" transform="matrix(0 -1 1 0 0 500)"/>
</clipPath>
</defs>
</svg>
