<svg width="1000" height="600" viewBox="0 0 1000 600" fill="none" xmlns="http://www.w3.org/2000/svg">
<g clip-path="url(#clip0_1956_1782)">
<path d="M510.054 599.856C675.641 599.856 809.956 465.639 810.054 300.073C810.152 134.508 675.997 0.290039 510.41 0.290039C344.822 0.290039 210.508 134.508 210.41 300.073C210.311 465.639 344.467 599.856 510.054 599.856Z" fill="#FFC32C"/>
<path d="M780.019 430.703C732.871 462.842 677.27 494.716 616.083 523.704C554.896 552.692 495.016 575.529 440.289 591.654C504.488 607.111 574.188 601.568 638.513 571.093C702.838 540.618 751.29 490.185 780.019 430.703Z" fill="#E5B555"/>
<path d="M780.019 430.702C791.735 406.446 800.171 380.687 805.056 354.156C749.961 397.189 677.814 441.374 595.559 480.343C513.304 519.312 433.421 547.153 365.234 562.527C388.845 575.558 414.108 585.351 440.289 591.654C495.016 575.528 554.896 552.692 616.083 523.704C677.27 494.716 732.872 462.842 780.019 430.702Z" fill="#FFC32C"/>
<path d="M805.056 354.158C809.489 330.08 811.012 305.374 809.405 280.583C751.906 330.663 668.854 383.955 571.717 429.975C474.581 475.994 380.745 506.504 305.586 519.274C323.737 536.226 343.806 550.703 365.234 562.529C433.421 547.155 513.303 519.314 595.558 480.344C677.814 441.375 749.96 397.19 805.056 354.158Z" fill="#C0905F"/>
<path d="M809.405 280.583C807.731 254.755 802.655 228.844 793.989 203.467C736.428 257.298 647.325 316.054 541.521 366.18C435.717 416.306 333.824 448.037 255.724 458.476C269.856 481.264 286.675 501.612 305.586 519.273C380.745 506.504 474.58 475.993 571.717 429.974C668.853 383.954 751.905 330.662 809.405 280.583Z" fill="#F4C87F"/>
<path d="M541.522 366.18C647.326 316.054 736.429 257.298 793.99 203.467C790.34 192.779 786.074 182.183 781.128 171.733C774.213 157.124 766.258 143.345 757.416 130.417C698.538 181.198 609.229 237.738 504.265 287.466C399.301 337.194 298.99 370.488 222.415 383.88C226.809 398.916 232.423 413.804 239.338 428.413C244.284 438.863 249.774 448.879 255.725 458.476C333.825 448.037 435.718 416.305 541.522 366.18Z" fill="#C6AC7D"/>
<path d="M504.266 287.465C609.23 237.737 698.538 181.197 757.416 130.417C743.491 110.056 727.342 91.8283 709.448 75.9253C650.95 123.149 568.106 174.275 472.197 219.714C376.288 265.152 284.259 296.873 210.675 312.225C211.634 336.151 215.495 360.2 222.415 383.88C298.99 370.488 399.302 337.193 504.266 287.465Z" fill="#E5B555"/>
<path d="M472.197 219.714C568.106 174.276 650.95 123.149 709.448 75.926C688.583 57.3819 665.354 42.0032 640.559 30.0439C585.82 69.4899 516.26 110.36 437.989 147.442C359.717 184.524 284.037 212.463 218.849 229.834C212.385 256.603 209.557 284.326 210.675 312.226C284.259 296.873 376.287 265.153 472.197 219.714Z" fill="#B77D3D"/>
<path d="M437.989 147.442C516.26 110.36 585.82 69.4894 640.559 30.0434C609.082 14.8615 575.082 5.20198 540.156 1.66309C499.196 26.8008 453.231 51.742 403.781 75.1696C354.33 98.5972 305.918 118.368 260.525 134.142C241.131 163.416 227.055 195.852 218.849 229.834C284.037 212.463 359.717 184.524 437.989 147.442Z" fill="#CE9F4D"/>
<path d="M540.156 1.66334C487.669 -3.65539 433.11 4.81595 381.952 29.0524C330.795 53.2889 289.672 90.148 260.525 134.142C305.918 118.369 354.33 98.5974 403.781 75.1698C453.231 51.7422 499.196 26.801 540.156 1.66334Z" fill="#FFC32C"/>
<path d="M508.884 0C497.721 0 486.702 0.615889 475.855 1.80538C625.852 18.2554 722.578 145.426 722.578 299.872C722.578 454.319 625.852 581.488 475.855 597.938C486.702 599.128 497.721 599.744 508.884 599.744C674.422 599.744 809.128 467.861 810.024 299.872C810.908 134.26 674.422 0 508.884 0Z" fill="#222222"/>
<path d="M699.142 93.0893L702.999 97.6665L706.429 101.951C793.246 81.0667 875.015 90.9385 887.216 117.191C909.589 165.333 742.394 274.265 534.229 370.927C326.065 467.589 114.137 515.042 91.764 466.901C79.2475 439.968 138.234 387.352 213.786 332.829L212.395 326.019L211.342 319.946C69.4397 409.473 -6.86828 493.876 13.0212 536.674C42.236 599.537 286.218 548.201 557.97 422.011C829.722 295.821 1026.34 142.563 997.123 79.7002C977.478 37.4294 856.148 44.0506 699.142 93.0893Z" fill="#222222"/>
<path d="M712.951 78.484L719.5 85.9916C806.316 65.1074 873.322 64.593 885.522 90.8455C907.896 138.987 732.242 264.494 524.077 361.156C315.913 457.819 104.831 503.615 82.4579 455.473C69.9414 428.54 135.79 373.469 211.343 318.945L209.947 309.798C68.0449 399.326 -17.0203 484.106 2.86921 526.904C32.0839 589.767 276.066 538.43 547.818 412.241C819.57 286.051 1016.19 132.793 986.971 69.9298C967.326 27.659 869.958 29.4453 712.951 78.484Z" fill="#AA6521"/>
</g>
<defs>
<clipPath id="clip0_1956_1782">
<rect width="1000" height="600" fill="white"/>
</clipPath>
</defs>
</svg>
