<svg width="1000" height="350" viewBox="0 0 1000 350" fill="none" xmlns="http://www.w3.org/2000/svg">
<path d="M715.963 291.565H901.375V181.437L715.963 181.437V291.565Z" fill="#17282A"/>
<path d="M115.005 291.565H294.468V181.437L115.005 181.437V291.565Z" fill="#17282A"/>
<path d="M5.75153 148.289L25.2599 96.4313C27.9719 89.2223 32.8943 83.0858 39.3032 78.9244C45.7122 74.763 53.2693 72.7962 60.863 73.3136L130.612 78.0648C277.915 -22.8575 476.31 -0.112697 528.471 8.41568C580.632 16.9441 785.907 122.698 785.907 122.698L918.133 153.931C944.799 160.229 968.727 175.132 986.322 196.398C991.562 202.733 995.439 210.108 997.702 218.052C999.965 225.995 1000.57 234.33 999.464 242.522L996.459 264.859C995.464 272.256 991.858 279.038 986.309 283.948C980.761 288.858 973.645 291.563 966.28 291.564H889.079C890.971 279.536 890.266 267.236 887.014 255.512C883.762 243.788 878.04 232.918 870.242 223.653C862.444 214.387 852.757 206.947 841.848 201.845C830.938 196.744 819.067 194.102 807.053 194.102C795.039 194.102 783.168 196.744 772.259 201.845C761.35 206.947 751.662 214.387 743.864 223.653C736.067 232.918 730.344 243.788 727.092 255.512C723.84 267.236 723.136 279.536 725.028 291.564H286.663C288.555 279.536 287.851 267.236 284.599 255.512C281.347 243.787 275.625 232.917 267.827 223.652C260.029 214.387 250.342 206.946 239.432 201.844C228.523 196.743 216.652 194.101 204.638 194.101C192.624 194.101 180.753 196.743 169.843 201.844C158.934 206.946 149.246 214.387 141.449 223.652C133.651 232.917 127.929 243.787 124.677 255.512C121.425 267.236 120.721 279.536 122.613 291.564H93.5199L42.6893 280.805C35.0588 279.19 28.0659 275.334 22.5818 269.719C17.0977 264.103 13.3649 256.976 11.8485 249.225L1.67451 197.227C-1.52964 180.85 -0.116636 163.889 5.75153 148.289Z" fill="#F0C93E"/>
<path d="M981.262 209.81C981.262 209.81 971.457 194.426 959.193 185.508C955.455 182.83 950.983 181.406 946.406 181.436H912.355C911.513 181.436 910.688 181.679 909.978 182.136C909.267 182.593 908.699 183.246 908.34 184.018C907.982 184.79 907.847 185.65 907.952 186.496C908.057 187.343 908.398 188.142 908.934 188.8L920.307 202.75C922.107 204.958 924.367 206.736 926.924 207.957C929.481 209.177 932.272 209.811 935.099 209.811L981.262 209.81Z" fill="white"/>
<path d="M912.354 181.436H922.855L945.693 209.45C945.793 209.573 945.901 209.688 946.003 209.81H935.099C932.272 209.81 929.481 209.177 926.924 207.956C924.366 206.736 922.107 204.958 920.306 202.749L908.934 188.799C908.398 188.141 908.057 187.343 907.952 186.496C907.847 185.649 907.982 184.79 908.34 184.018C908.699 183.246 909.267 182.593 909.977 182.136C910.688 181.679 911.513 181.436 912.354 181.436Z" fill="#E27F46"/>
<path d="M580.671 25.7424C660.345 58.0133 785.905 122.698 785.905 122.698L772.48 121.558C761.638 120.639 751.097 117.48 741.506 112.275C713.141 96.8781 647.373 61.8053 585.528 33.373C584.081 32.7093 582.852 31.6364 581.991 30.283C581.13 28.9296 580.671 27.3531 580.671 25.7424Z" fill="#7FA9BE"/>
<path d="M960.741 240.398H999.693C999.624 241.107 999.559 241.815 999.464 242.524L996.459 264.86C996.243 266.399 995.912 267.919 995.47 269.408H979.608C977.464 269.408 975.349 268.91 973.426 267.951C971.502 266.993 969.821 265.6 968.511 263.879L956.81 248.505C956.244 247.761 955.894 246.87 955.801 245.934C955.708 244.999 955.876 244.055 956.285 243.211C956.695 242.367 957.329 241.656 958.116 241.159C958.904 240.662 959.813 240.398 960.741 240.398Z" fill="#805917"/>
<path d="M20.2686 109.695L87.1752 116.726C88.0442 116.817 88.882 117.105 89.627 117.568C90.372 118.03 91.0054 118.656 91.4806 119.399C91.9557 120.142 92.2607 120.984 92.373 121.862C92.4853 122.741 92.4021 123.633 92.1296 124.475L87.7413 138.023C86.3464 142.329 83.5481 146.026 79.8062 148.507C76.0643 150.989 71.6013 152.106 67.1503 151.676L6.6748 145.83L20.2686 109.695Z" fill="#CB5454"/>
<path d="M55.5978 137.002L62.9887 114.184L87.1786 116.726C88.0476 116.817 88.8854 117.105 89.6304 117.567C90.3755 118.03 91.0089 118.656 91.4841 119.399C91.9593 120.142 92.2642 120.984 92.3766 121.862C92.4889 122.741 92.4057 123.633 92.1331 124.475L87.745 138.023C86.3501 142.329 83.5519 146.026 79.81 148.507C76.0681 150.988 71.6051 152.105 67.1541 151.675L48.5205 149.874C51.6644 146.078 54.0663 141.709 55.5978 137.002Z" fill="#E27F46"/>
<path d="M535.909 148.123L488.169 144.628C486.468 144.504 484.887 143.7 483.771 142.393C482.656 141.086 482.098 139.384 482.221 137.66L482.403 135.11C482.525 133.386 483.319 131.783 484.608 130.652C485.896 129.522 487.576 128.956 489.276 129.081L537.017 132.575C538.717 132.7 540.298 133.504 541.414 134.81C542.529 136.117 543.087 137.819 542.964 139.543L542.782 142.094C542.659 143.817 541.866 145.421 540.577 146.552C539.288 147.682 537.609 148.248 535.909 148.123L535.909 148.123Z" fill="#20343A"/>
<path d="M266.519 128.429L218.779 124.936C217.079 124.811 215.497 124.007 214.382 122.701C213.266 121.394 212.709 119.692 212.831 117.968L213.013 115.418C213.074 114.564 213.3 113.731 213.678 112.966C214.056 112.202 214.58 111.52 215.218 110.96C215.856 110.4 216.597 109.973 217.398 109.703C218.199 109.434 219.045 109.327 219.886 109.388L267.626 112.882C268.468 112.943 269.29 113.172 270.044 113.556C270.799 113.939 271.471 114.47 272.024 115.117C272.576 115.764 272.997 116.515 273.263 117.327C273.529 118.139 273.635 118.996 273.574 119.849L273.392 122.4C273.27 124.124 272.477 125.727 271.188 126.858C269.899 127.988 268.219 128.554 266.519 128.429L266.519 128.429Z" fill="#20343A"/>
<path d="M204.26 79.9916L205.013 81.1783C193.304 88.7978 168.817 112.987 172.318 135.232C174.547 149.409 190.789 156.475 215.375 167.173C230.177 173.612 246.952 180.91 265.314 191.719C301.273 212.89 308.42 248.483 309.48 267.815C309.621 270.451 310.752 272.932 312.641 274.748C314.53 276.565 317.033 277.581 319.637 277.585H455.195C455.968 272.647 461.345 236.204 461.43 178.132C461.422 152.951 459.253 127.818 454.945 103.019L456.314 102.777C460.636 127.657 462.813 152.872 462.821 178.135C462.737 235.515 457.492 271.843 456.604 277.586H695.547C698.824 277.594 702.008 276.487 704.589 274.44C707.17 272.394 708.997 269.528 709.779 266.303C717.908 232.838 733.488 151.533 702.653 119.378L703.65 118.395C734.972 151.056 719.314 232.948 711.129 266.64C710.274 270.172 708.273 273.311 705.447 275.551C702.622 277.792 699.135 279.005 695.547 278.996H319.637C316.677 278.991 313.832 277.838 311.685 275.773C309.538 273.709 308.252 270.889 308.091 267.893C307.046 248.845 300.009 213.777 264.615 192.938C246.326 182.172 229.592 174.892 214.827 168.468C190.715 157.978 173.294 150.398 170.943 135.453C167.337 112.528 192.314 87.7675 204.26 79.9916Z" fill="#D08627"/>
<path d="M724.117 123.237L198.461 83.4171C197.284 83.3294 196.162 82.8763 195.248 82.1195C194.334 81.3627 193.672 80.3391 193.352 79.1875C193.032 78.0358 193.07 76.8122 193.46 75.6831C193.85 74.5539 194.574 73.5738 195.533 72.8763C222.036 53.621 294.568 11.8742 421.91 15.1632C461.781 16.1929 506.681 14.2857 541.771 26.3549C589.462 42.7579 689.618 96.9146 725.96 116.904C726.629 117.273 727.154 117.864 727.445 118.578C727.737 119.291 727.779 120.085 727.563 120.826C727.347 121.567 726.887 122.211 726.26 122.649C725.633 123.088 724.876 123.296 724.117 123.237Z" fill="#20343A"/>
<path d="M691.166 104.959C691.166 104.959 553.408 31.8701 522.572 27.4863C493.974 23.4205 454.7 22.7638 442.763 22.6579C442.365 22.6536 441.972 22.7474 441.617 22.9314C441.262 23.1154 440.957 23.384 440.728 23.714C440.498 24.044 440.351 24.4256 440.299 24.826C440.247 25.2263 440.292 25.6335 440.43 26.0124C447.989 47.5382 453.945 69.6084 458.248 92.0371C458.535 93.5142 459.291 94.8555 460.4 95.8562C461.51 96.8569 462.912 97.462 464.392 97.5791L696.03 115.815C696.696 115.869 697.362 115.709 697.933 115.358C698.504 115.008 698.952 114.484 699.214 113.861C699.476 113.239 699.538 112.548 699.391 111.888C699.245 111.227 698.898 110.63 698.398 110.181C696.178 108.184 693.753 106.434 691.166 104.959Z" fill="#7FA9BE"/>
<path d="M446.512 88.6365C444.054 75.2797 438.122 45.2782 431.61 28.5397C430.931 26.7754 429.758 25.2508 428.235 24.154C426.712 23.0571 424.906 22.436 423.039 22.3669C406.513 21.7818 358.121 21.1779 310.451 31.2805C257.499 42.5021 230.269 55.9815 206.16 71.7026C205.601 72.0672 205.169 72.601 204.925 73.2283C204.681 73.8556 204.638 74.5445 204.802 75.1979C204.966 75.8513 205.329 76.4361 205.839 76.8691C206.348 77.3021 206.979 77.5615 207.643 77.6109L440.998 94.9178C441.797 94.9728 442.597 94.8418 443.338 94.5349C444.079 94.228 444.741 93.7531 445.274 93.1469C445.806 92.5407 446.194 91.8192 446.409 91.0374C446.624 90.2556 446.659 89.4343 446.512 88.6365Z" fill="#7FA9BE"/>
<path d="M294.466 11.8564C294.466 11.8564 218.026 27.3718 161.398 75.9047C158.333 78.5235 154.379 79.8219 150.381 79.5222L130.61 78.0657C130.61 78.0657 194.598 30.0241 294.466 11.8564Z" fill="#7FA9BE"/>
<g style="mix-blend-mode:multiply">
<path d="M42.6892 280.805C35.0588 279.19 28.0659 275.334 22.5817 269.719C17.0976 264.103 13.3648 256.976 11.8484 249.225L1.67446 197.228C-1.52962 180.851 -0.116614 163.89 5.75148 148.289L14.4984 125.038L846.216 186.179C867.555 187.761 887.883 196.019 904.393 209.815L915.505 219.101C923.282 225.599 929.363 233.937 933.211 243.379C937.059 252.822 938.557 263.079 937.572 273.247L935.798 291.564H890.101C890.089 289.449 889.985 287.357 889.822 285.282C890.011 282.977 890.114 280.646 890.114 278.291C890.114 255.959 881.363 234.542 865.786 218.751C850.209 202.96 829.082 194.088 807.053 194.088C785.024 194.088 763.897 202.96 748.319 218.751C732.742 234.542 723.991 255.959 723.991 278.291C723.991 280.646 724.094 282.976 724.284 285.281C724.12 287.357 724.016 289.449 724.004 291.564H287.686C287.674 289.449 287.57 287.357 287.407 285.281C287.596 282.976 287.699 280.646 287.699 278.291C287.672 255.977 278.909 234.586 263.335 218.818C247.761 203.049 226.649 194.192 204.638 194.192C182.626 194.192 161.515 203.049 145.941 218.818C130.366 234.586 121.603 255.977 121.576 278.291C121.576 280.646 121.679 282.976 121.869 285.281C121.705 287.357 121.601 289.449 121.589 291.564H93.5199L42.6892 280.805Z" fill="#F0C93E"/>
</g>
<path opacity="0.46" d="M802.056 126.514L918.471 153.926C930.18 156.694 941.439 161.14 951.909 167.132H937.777C930.811 167.132 923.866 166.329 917.079 164.74L791.546 138.602C783.575 136.736 775.836 133.971 768.473 130.359L757.039 125.038C773.067 127.406 788.238 128.198 802.056 126.514Z" fill="white"/>
<path d="M473.667 98.3092L465.868 65.4968C465.702 64.8003 465.704 64.0736 465.871 63.3776C466.039 62.6816 466.368 62.0363 466.832 61.4955C467.296 60.9547 467.88 60.5342 468.537 60.2689C469.193 60.0036 469.903 59.9013 470.606 59.9704C474.849 60.3874 478.927 61.85 482.484 64.231C486.041 66.6119 488.97 69.8388 491.015 73.6303L505.685 100.83L473.667 98.3092Z" fill="#416D7B"/>
<path style="mix-blend-mode:screen" opacity="0.51" d="M455.053 58.5609C452.658 49.3983 450.307 41.4559 448.283 35.0485C448.012 34.1927 447.947 33.2835 448.094 32.3971C448.241 31.5108 448.595 30.6729 449.127 29.9536C449.658 29.2344 450.352 28.6548 451.15 28.2631C451.948 27.8714 452.827 27.6791 453.713 27.7023C471.431 28.1442 499.016 29.305 520.449 32.3516C538.909 34.9765 601.991 65.4053 649.535 89.5273C609.114 80.0472 536.57 65.1944 455.053 58.5609Z" fill="url(#paint0_linear_1276_5205)"/>
<path style="mix-blend-mode:screen" opacity="0.51" d="M225.423 71.6946C225.106 71.2244 224.891 70.6921 224.791 70.1318C224.69 69.5716 224.708 68.9962 224.842 68.4432C224.976 67.8902 225.223 67.3721 225.567 66.9225C225.912 66.4729 226.346 66.1018 226.842 65.8336C247.369 54.642 272.283 45.1308 311.589 36.8017C346.967 29.304 382.73 27.7301 406.504 27.7301C413.639 27.7301 419.329 27.8788 422.846 28.0033C423.629 28.0362 424.386 28.3004 425.024 28.7632C425.662 29.226 426.152 29.8672 426.436 30.6086C429.569 39.2523 432.162 48.0879 434.198 57.0627C365.003 52.7656 290.923 55.0064 225.423 71.6946Z" fill="url(#paint1_linear_1276_5205)"/>
<path d="M256.426 81.2307L252.345 64.0593C252.179 63.3629 252.181 62.6364 252.348 61.9405C252.516 61.2445 252.845 60.5994 253.309 60.0587C253.773 59.518 254.357 59.0976 255.013 58.8324C255.67 58.5671 256.379 58.4648 257.083 58.5339C261.326 58.9509 265.403 60.4135 268.961 62.7944C272.518 65.1753 275.447 68.4022 277.492 72.1937L283.447 83.2353L256.426 81.2307Z" fill="#416D7B"/>
<path d="M204.956 350C246.378 350 279.966 316.421 279.978 275C279.99 233.578 246.421 200 205 200C163.579 200 129.99 233.578 129.978 275C129.966 316.421 163.535 350 204.956 350Z" fill="#2B2B2C"/>
<path d="M204.971 345C243.631 345 274.978 313.66 274.986 275C274.994 236.34 243.66 205 205 205C166.34 205 134.994 236.34 134.986 275C134.978 313.66 166.311 345 204.971 345Z" fill="#373738"/>
<path d="M204.943 337.5C239.46 337.5 267.456 309.518 267.471 275C267.487 240.482 239.518 212.5 205 212.5C170.482 212.5 142.487 240.482 142.471 275C142.456 309.518 170.425 337.5 204.943 337.5Z" fill="#1E1E1F"/>
<path d="M204.976 332.5C236.733 332.5 262.482 306.756 262.488 275C262.495 243.244 236.756 217.5 205 217.5C173.244 217.5 147.495 243.244 147.488 275C147.482 306.756 173.22 332.5 204.976 332.5Z" fill="#8FB5D3"/>
<path d="M204.932 327.5C233.927 327.5 257.447 303.995 257.466 275C257.485 246.005 233.995 222.5 205 222.5C176.005 222.5 152.485 246.005 152.466 275C152.447 303.995 175.937 327.5 204.932 327.5Z" fill="white"/>
<path d="M205 292.5C214.665 292.5 222.5 284.665 222.5 275C222.5 265.335 214.665 257.5 205 257.5C195.335 257.5 187.5 265.335 187.5 275C187.5 284.665 195.335 292.5 205 292.5Z" fill="#8FB5D3"/>
<path d="M205 285C210.523 285 215 280.523 215 275C215 269.477 210.523 265 205 265C199.477 265 195 269.477 195 275C195 280.523 199.477 285 205 285Z" fill="white"/>
<path opacity="0.29" d="M269.919 267.5C269.336 267.492 268.774 267.276 268.331 266.891C267.888 266.505 267.592 265.975 267.493 265.39C264.769 250.56 257.031 237.164 245.618 227.525C234.205 217.886 219.836 212.609 205 212.609C190.165 212.609 175.796 217.886 164.383 227.525C152.97 237.164 145.231 250.56 142.508 265.39C142.409 265.975 142.112 266.505 141.669 266.891C141.226 267.276 140.665 267.491 140.082 267.5H139.961C139.6 267.499 139.244 267.418 138.917 267.262C138.59 267.106 138.301 266.879 138.07 266.596C137.839 266.314 137.672 265.984 137.58 265.628C137.489 265.273 137.475 264.902 137.54 264.54C140.465 248.518 148.812 234.042 161.134 223.623C173.456 213.204 188.975 207.5 205 207.5C221.025 207.5 236.544 213.204 248.866 223.623C261.188 234.042 269.535 248.518 272.459 264.54C272.525 264.902 272.511 265.273 272.42 265.629C272.329 265.984 272.161 266.315 271.93 266.597C271.699 266.879 271.41 267.107 271.083 267.263C270.756 267.419 270.399 267.5 270.038 267.5H269.919Z" fill="white"/>
<path d="M230.185 279.394L247.961 284.17C248.419 284.296 248.898 284.323 249.367 284.25C249.836 284.176 250.285 284.004 250.682 283.744C251.08 283.484 251.418 283.143 251.674 282.742C251.93 282.342 252.097 281.892 252.166 281.422C252.735 277.207 252.735 272.936 252.166 268.722C252.097 268.252 251.93 267.801 251.674 267.401C251.418 267.001 251.08 266.659 250.682 266.399C250.285 266.14 249.836 265.967 249.367 265.894C248.898 265.82 248.419 265.847 247.961 265.973L230.185 270.749C229.235 271.004 228.395 271.566 227.796 272.348C227.197 273.129 226.873 274.086 226.873 275.071C226.873 276.056 227.197 277.013 227.796 277.795C228.395 278.576 229.235 279.138 230.185 279.394Z" fill="#3A3939"/>
<path d="M225.875 289.8C225.023 289.308 224.031 289.111 223.055 289.24C222.08 289.369 221.174 289.816 220.478 290.512C219.782 291.209 219.335 292.116 219.206 293.092C219.077 294.069 219.274 295.06 219.766 295.914L228.955 311.858C229.19 312.271 229.511 312.63 229.895 312.91C230.279 313.19 230.719 313.385 231.184 313.482C231.649 313.58 232.13 313.577 232.594 313.474C233.059 313.371 233.496 313.171 233.877 312.887C237.248 310.309 240.262 307.294 242.838 303.92C243.122 303.539 243.322 303.101 243.425 302.637C243.527 302.172 243.53 301.691 243.433 301.225C243.336 300.76 243.141 300.32 242.861 299.936C242.581 299.551 242.223 299.23 241.809 298.995L225.875 289.8Z" fill="#3A3939"/>
<path d="M225.875 260.345L241.81 251.151C242.223 250.915 242.581 250.594 242.861 250.21C243.141 249.825 243.336 249.385 243.433 248.92C243.53 248.454 243.527 247.973 243.425 247.508C243.322 247.044 243.122 246.606 242.838 246.225C240.261 242.852 237.248 239.836 233.877 237.259C233.496 236.974 233.059 236.774 232.594 236.671C232.13 236.568 231.649 236.565 231.184 236.663C230.719 236.76 230.279 236.955 229.895 237.235C229.51 237.515 229.19 237.874 228.955 238.287L219.766 254.232C219.274 255.086 219.077 256.077 219.206 257.053C219.335 258.03 219.782 258.936 220.478 259.633C221.174 260.329 222.079 260.776 223.055 260.905C224.031 261.034 225.022 260.837 225.875 260.345Z" fill="#3A3939"/>
<path d="M209.36 249.922L214.133 232.135C214.259 231.676 214.285 231.197 214.212 230.727C214.138 230.258 213.966 229.809 213.707 229.411C213.447 229.014 213.106 228.676 212.705 228.42C212.305 228.164 211.856 227.995 211.386 227.926C207.174 227.358 202.906 227.358 198.694 227.926C198.225 227.995 197.775 228.164 197.374 228.42C196.974 228.676 196.633 229.014 196.374 229.411C196.114 229.809 195.941 230.258 195.868 230.727C195.795 231.197 195.822 231.676 195.947 232.135L200.72 249.922C200.976 250.873 201.537 251.713 202.318 252.313C203.099 252.912 204.056 253.237 205.04 253.237C206.024 253.237 206.981 252.912 207.762 252.313C208.543 251.713 209.105 250.873 209.36 249.922Z" fill="#3A3939"/>
<path d="M184.214 289.8L168.279 298.995C167.866 299.23 167.507 299.551 167.227 299.935C166.948 300.32 166.753 300.76 166.655 301.225C166.558 301.691 166.561 302.172 166.664 302.637C166.766 303.101 166.966 303.538 167.251 303.92C169.827 307.293 172.84 310.309 176.212 312.886C176.593 313.171 177.03 313.371 177.494 313.474C177.958 313.577 178.439 313.58 178.904 313.482C179.37 313.385 179.809 313.19 180.194 312.91C180.578 312.63 180.898 312.271 181.134 311.858L190.322 295.913C190.814 295.06 191.011 294.069 190.882 293.092C190.753 292.116 190.307 291.209 189.611 290.513C188.915 289.816 188.009 289.369 187.033 289.24C186.057 289.111 185.066 289.308 184.214 289.8Z" fill="#3A3939"/>
<path d="M168.279 251.148L184.214 260.343C185.066 260.835 186.057 261.032 187.033 260.904C188.009 260.775 188.915 260.328 189.612 259.631C190.308 258.935 190.754 258.028 190.883 257.051C191.012 256.075 190.815 255.083 190.323 254.23L181.134 238.285C180.899 237.871 180.579 237.513 180.194 237.233C179.81 236.953 179.37 236.758 178.905 236.66C178.439 236.563 177.959 236.566 177.495 236.669C177.03 236.771 176.593 236.971 176.212 237.256C172.841 239.834 169.827 242.849 167.251 246.223C166.967 246.604 166.766 247.041 166.664 247.506C166.561 247.97 166.558 248.452 166.655 248.917C166.752 249.383 166.947 249.823 167.227 250.207C167.507 250.592 167.866 250.913 168.279 251.148Z" fill="#3A3939"/>
<path d="M209.36 300.225C209.105 299.274 208.543 298.434 207.762 297.834C206.981 297.235 206.024 296.91 205.04 296.91C204.056 296.91 203.099 297.235 202.318 297.834C201.537 298.434 200.976 299.274 200.72 300.225L195.947 318.013C195.821 318.472 195.795 318.951 195.868 319.421C195.942 319.89 196.114 320.338 196.374 320.736C196.633 321.134 196.974 321.472 197.375 321.728C197.775 321.984 198.224 322.153 198.694 322.222C202.906 322.79 207.174 322.79 211.386 322.222C211.856 322.153 212.306 321.984 212.706 321.728C213.106 321.472 213.447 321.134 213.707 320.736C213.966 320.338 214.139 319.89 214.212 319.421C214.286 318.951 214.259 318.472 214.133 318.013L209.36 300.225Z" fill="#3A3939"/>
<path d="M179.907 270.747L162.132 265.97C161.674 265.845 161.195 265.818 160.725 265.891C160.256 265.965 159.808 266.137 159.41 266.397C159.013 266.657 158.675 266.998 158.419 267.399C158.163 267.799 157.995 268.249 157.926 268.719C157.358 272.933 157.358 277.205 157.926 281.419C157.995 281.889 158.163 282.339 158.419 282.74C158.675 283.14 159.013 283.482 159.41 283.741C159.808 284.001 160.256 284.174 160.725 284.247C161.195 284.321 161.674 284.294 162.132 284.168L179.908 279.391C180.858 279.136 181.698 278.574 182.297 277.792C182.896 277.011 183.22 276.054 183.22 275.069C183.22 274.084 182.896 273.127 182.297 272.345C181.698 271.564 180.858 271.002 179.907 270.747Z" fill="#3A3939"/>
<path d="M807.456 350C848.878 350 882.466 316.421 882.478 275C882.49 233.578 848.921 200 807.5 200C766.079 200 732.49 233.578 732.478 275C732.466 316.421 766.035 350 807.456 350Z" fill="#2B2B2C"/>
<path d="M807.471 345C846.131 345 877.478 313.66 877.486 275C877.494 236.34 846.16 205 807.5 205C768.84 205 737.494 236.34 737.486 275C737.478 313.66 768.811 345 807.471 345Z" fill="#373738"/>
<path d="M807.443 337.5C841.96 337.5 869.956 309.518 869.971 275C869.987 240.482 842.018 212.5 807.5 212.5C772.982 212.5 744.987 240.482 744.971 275C744.956 309.518 772.925 337.5 807.443 337.5Z" fill="#1E1E1F"/>
<path d="M807.476 332.5C839.233 332.5 864.982 306.756 864.988 275C864.995 243.244 839.256 217.5 807.5 217.5C775.744 217.5 749.995 243.244 749.988 275C749.982 306.756 775.72 332.5 807.476 332.5Z" fill="#8FB5D3"/>
<path d="M807.432 327.5C836.427 327.5 859.947 303.995 859.966 275C859.985 246.005 836.495 222.5 807.5 222.5C778.505 222.5 754.985 246.005 754.966 275C754.947 303.995 778.437 327.5 807.432 327.5Z" fill="white"/>
<path d="M807.5 292.5C817.165 292.5 825 284.665 825 275C825 265.335 817.165 257.5 807.5 257.5C797.835 257.5 790 265.335 790 275C790 284.665 797.835 292.5 807.5 292.5Z" fill="#8FB5D3"/>
<path d="M807.5 285C813.023 285 817.5 280.523 817.5 275C817.5 269.477 813.023 265 807.5 265C801.977 265 797.5 269.477 797.5 275C797.5 280.523 801.977 285 807.5 285Z" fill="white"/>
<path opacity="0.29" d="M872.419 267.5C871.836 267.492 871.274 267.276 870.831 266.891C870.388 266.505 870.092 265.975 869.993 265.39C867.269 250.56 859.531 237.164 848.118 227.525C836.705 217.886 822.336 212.609 807.5 212.609C792.665 212.609 778.296 217.886 766.883 227.525C755.47 237.164 747.731 250.56 745.008 265.39C744.909 265.975 744.612 266.505 744.169 266.891C743.726 267.276 743.165 267.491 742.582 267.5H742.461C742.1 267.499 741.744 267.418 741.417 267.262C741.09 267.106 740.801 266.879 740.57 266.596C740.339 266.314 740.172 265.984 740.08 265.628C739.989 265.273 739.975 264.902 740.04 264.54C742.965 248.518 751.312 234.042 763.634 223.623C775.956 213.204 791.475 207.5 807.5 207.5C823.525 207.5 839.044 213.204 851.366 223.623C863.688 234.042 872.035 248.518 874.959 264.54C875.025 264.902 875.011 265.273 874.92 265.629C874.829 265.984 874.661 266.315 874.43 266.597C874.199 266.879 873.91 267.107 873.583 267.263C873.256 267.419 872.899 267.5 872.538 267.5H872.419Z" fill="white"/>
<path d="M832.685 279.394L850.461 284.17C850.919 284.296 851.398 284.323 851.867 284.25C852.336 284.176 852.785 284.004 853.182 283.744C853.58 283.484 853.918 283.143 854.174 282.742C854.43 282.342 854.597 281.892 854.666 281.422C855.235 277.207 855.235 272.936 854.666 268.722C854.597 268.252 854.43 267.801 854.174 267.401C853.918 267.001 853.58 266.659 853.182 266.399C852.785 266.14 852.336 265.967 851.867 265.894C851.398 265.82 850.919 265.847 850.461 265.973L832.685 270.749C831.735 271.004 830.895 271.566 830.296 272.348C829.697 273.129 829.373 274.086 829.373 275.071C829.373 276.056 829.697 277.013 830.296 277.795C830.895 278.576 831.735 279.138 832.685 279.394Z" fill="#3A3939"/>
<path d="M828.375 289.8C827.523 289.308 826.531 289.111 825.555 289.24C824.58 289.369 823.674 289.816 822.978 290.512C822.282 291.209 821.835 292.116 821.706 293.092C821.577 294.069 821.774 295.06 822.266 295.914L831.455 311.858C831.69 312.271 832.011 312.63 832.395 312.91C832.779 313.19 833.219 313.385 833.684 313.482C834.149 313.58 834.63 313.577 835.094 313.474C835.559 313.371 835.996 313.171 836.377 312.887C839.748 310.309 842.762 307.294 845.338 303.92C845.622 303.539 845.822 303.101 845.925 302.637C846.027 302.172 846.03 301.691 845.933 301.225C845.836 300.76 845.641 300.32 845.361 299.936C845.081 299.551 844.723 299.23 844.309 298.995L828.375 289.8Z" fill="#3A3939"/>
<path d="M828.375 260.345L844.31 251.151C844.723 250.915 845.081 250.594 845.361 250.21C845.641 249.825 845.836 249.385 845.933 248.92C846.03 248.454 846.027 247.973 845.925 247.508C845.822 247.044 845.622 246.606 845.338 246.225C842.761 242.852 839.748 239.836 836.377 237.259C835.996 236.974 835.559 236.774 835.094 236.671C834.63 236.568 834.149 236.565 833.684 236.663C833.219 236.76 832.779 236.955 832.395 237.235C832.01 237.515 831.69 237.874 831.455 238.287L822.266 254.232C821.774 255.086 821.577 256.077 821.706 257.053C821.835 258.03 822.282 258.936 822.978 259.633C823.674 260.329 824.579 260.776 825.555 260.905C826.531 261.034 827.522 260.837 828.375 260.345Z" fill="#3A3939"/>
<path d="M811.86 249.922L816.633 232.135C816.759 231.676 816.785 231.197 816.712 230.727C816.638 230.258 816.466 229.809 816.207 229.411C815.947 229.014 815.606 228.676 815.205 228.42C814.805 228.164 814.356 227.995 813.886 227.926C809.674 227.358 805.406 227.358 801.194 227.926C800.725 227.995 800.275 228.164 799.874 228.42C799.474 228.676 799.133 229.014 798.874 229.411C798.614 229.809 798.441 230.258 798.368 230.727C798.295 231.197 798.322 231.676 798.447 232.135L803.22 249.922C803.476 250.873 804.037 251.713 804.818 252.313C805.599 252.912 806.556 253.237 807.54 253.237C808.524 253.237 809.481 252.912 810.262 252.313C811.043 251.713 811.605 250.873 811.86 249.922Z" fill="#3A3939"/>
<path d="M786.714 289.8L770.779 298.995C770.366 299.23 770.007 299.551 769.727 299.935C769.448 300.32 769.253 300.76 769.155 301.225C769.058 301.691 769.061 302.172 769.164 302.637C769.266 303.101 769.466 303.538 769.751 303.92C772.327 307.293 775.34 310.309 778.712 312.886C779.093 313.171 779.53 313.371 779.994 313.474C780.458 313.577 780.939 313.58 781.404 313.482C781.87 313.385 782.309 313.19 782.694 312.91C783.078 312.63 783.398 312.271 783.634 311.858L792.822 295.913C793.314 295.06 793.511 294.069 793.382 293.092C793.253 292.116 792.807 291.209 792.111 290.513C791.415 289.816 790.509 289.369 789.533 289.24C788.557 289.111 787.566 289.308 786.714 289.8Z" fill="#3A3939"/>
<path d="M770.779 251.148L786.714 260.343C787.566 260.835 788.557 261.032 789.533 260.904C790.509 260.775 791.415 260.328 792.112 259.631C792.808 258.935 793.254 258.028 793.383 257.051C793.512 256.075 793.315 255.083 792.823 254.23L783.634 238.285C783.399 237.871 783.079 237.513 782.694 237.233C782.31 236.953 781.87 236.758 781.405 236.66C780.939 236.563 780.459 236.566 779.995 236.669C779.53 236.771 779.093 236.971 778.712 237.256C775.341 239.834 772.327 242.849 769.751 246.223C769.467 246.604 769.266 247.041 769.164 247.506C769.061 247.97 769.058 248.452 769.155 248.917C769.252 249.383 769.447 249.823 769.727 250.207C770.007 250.592 770.366 250.913 770.779 251.148Z" fill="#3A3939"/>
<path d="M811.86 300.225C811.605 299.274 811.043 298.434 810.262 297.834C809.481 297.235 808.524 296.91 807.54 296.91C806.556 296.91 805.599 297.235 804.818 297.834C804.037 298.434 803.476 299.274 803.22 300.225L798.447 318.013C798.321 318.472 798.295 318.951 798.368 319.421C798.442 319.89 798.614 320.338 798.874 320.736C799.133 321.134 799.474 321.472 799.875 321.728C800.275 321.984 800.724 322.153 801.194 322.222C805.406 322.79 809.674 322.79 813.886 322.222C814.356 322.153 814.806 321.984 815.206 321.728C815.606 321.472 815.947 321.134 816.207 320.736C816.466 320.338 816.639 319.89 816.712 319.421C816.786 318.951 816.759 318.472 816.633 318.013L811.86 300.225Z" fill="#3A3939"/>
<path d="M782.407 270.747L764.632 265.97C764.174 265.845 763.695 265.818 763.225 265.891C762.756 265.965 762.308 266.137 761.91 266.397C761.513 266.657 761.175 266.998 760.919 267.399C760.663 267.799 760.495 268.249 760.426 268.719C759.858 272.933 759.858 277.205 760.426 281.419C760.495 281.889 760.663 282.339 760.919 282.74C761.175 283.14 761.513 283.482 761.91 283.741C762.308 284.001 762.756 284.174 763.225 284.247C763.695 284.321 764.174 284.294 764.632 284.168L782.408 279.391C783.358 279.136 784.198 278.574 784.797 277.792C785.396 277.011 785.72 276.054 785.72 275.069C785.72 274.084 785.396 273.127 784.797 272.345C784.198 271.564 783.358 271.002 782.407 270.747Z" fill="#3A3939"/>
<defs>
<linearGradient id="paint0_linear_1276_5205" x1="545.656" y1="77.4197" x2="553.079" y2="39.7464" gradientUnits="userSpaceOnUse">
<stop offset="0.2993"/>
<stop offset="0.3663" stop-color="#060606"/>
<stop offset="0.4535" stop-color="#161616"/>
<stop offset="0.5517" stop-color="#313131"/>
<stop offset="0.6582" stop-color="#565656"/>
<stop offset="0.7713" stop-color="#878787"/>
<stop offset="0.888" stop-color="#C0C0C0"/>
<stop offset="1" stop-color="white"/>
</linearGradient>
<linearGradient id="paint1_linear_1276_5205" x1="329.618" y1="66.159" x2="327.758" y2="31.146" gradientUnits="userSpaceOnUse">
<stop offset="0.2993"/>
<stop offset="0.3663" stop-color="#060606"/>
<stop offset="0.4535" stop-color="#161616"/>
<stop offset="0.5517" stop-color="#313131"/>
<stop offset="0.6582" stop-color="#565656"/>
<stop offset="0.7713" stop-color="#878787"/>
<stop offset="0.888" stop-color="#C0C0C0"/>
<stop offset="1" stop-color="white"/>
</linearGradient>
</defs>
</svg>
