<svg width="500" height="700" viewBox="0 0 500 700" fill="none" xmlns="http://www.w3.org/2000/svg">
<g clip-path="url(#clip0_1276_9150)">
<g clip-path="url(#clip1_1276_9150)">
<path d="M214.025 270.309C214.025 270.309 214.955 283.898 211.636 294.676C208.316 305.337 196.235 320.215 193.712 327.361C191.057 334.507 193.58 344.348 208.98 370.707C215.353 376.33 226.107 383.476 237.259 386.639C251.731 392.262 281.204 406.086 326.344 405.266C354.623 404.212 376.131 388.514 379.716 384.765C378.786 393.551 383.035 411.944 386.62 423.307C390.204 434.671 401.622 462.084 403.215 470.285C404.941 478.485 410.783 501.33 411.048 505.899C411.446 510.467 407.198 519.605 415.562 538.232C417.155 541.395 418.35 544.324 418.749 560.491C419.147 576.658 419.28 625.275 418.749 627.618C418.217 629.961 415.031 633.71 414.235 639.919C413.571 646.011 415.297 656.437 414.102 659.6C412.907 662.763 406.136 673.893 403.746 685.49C408.526 688.419 436.672 685.022 436.672 685.022C437.867 677.407 433.353 661.006 433.353 659.249C433.353 657.491 439.062 652.22 438.398 644.371C437.734 636.521 433.618 632.07 432.954 625.978C432.291 619.769 431.627 550.416 431.892 545.378C432.025 540.341 437.07 531.437 437.999 525.111C438.929 518.785 440.522 511.756 437.601 507.422C434.813 503.087 430.034 497.581 430.83 483.406C431.494 469.23 437.734 440.411 439.327 433.499C440.787 426.588 447.558 396.246 446.231 375.041C444.77 353.837 446.364 338.139 429.503 312.834C412.641 287.53 397.639 271.246 378.123 264.451C358.739 257.656 348.383 255.548 333.779 242.778C319.175 230.009 317.184 228.486 317.184 228.486L214.025 270.309Z" fill="#AD8049"/>
<path d="M414.099 642.61C414.099 642.61 414.099 641.907 414.232 639.799C414.763 633.707 418.082 629.958 418.746 627.498C419.277 625.155 419.277 576.537 418.746 560.371C418.215 545.258 417.551 543.384 417.551 543.384C417.551 543.384 422.33 544.555 427.907 543.032C427.907 543.032 425.649 611.917 428.703 626.326C430.031 632.418 432.022 634.761 430.429 640.97C429.5 645.305 417.684 646.711 414.099 642.61Z" fill="#D1AA75"/>
<path d="M238.455 304.509C241.774 293.849 226.506 268.427 226.506 268.427L317.052 228.244C317.052 228.244 319.043 229.884 333.647 242.537C348.251 255.306 358.607 257.415 377.991 264.209C400.693 272.058 414.899 294.551 425.388 310.25C442.249 335.554 438.266 353.478 439.593 374.682C441.054 395.887 434.15 424.003 432.557 430.915C431.097 437.827 425.122 467.934 424.458 481.992C423.794 496.168 425.52 499.214 430.831 508.234C432.026 510.226 432.955 516.552 429.371 520.535C425.52 524.87 412.244 524.518 410.385 520.184C409.456 512.334 411.182 508.468 410.916 505.54C410.518 500.971 404.676 478.126 403.083 469.926C401.357 461.725 390.072 434.312 386.488 422.948C382.903 411.585 378.654 393.192 379.584 384.406C379.584 384.406 407.199 373.042 410.252 339.42C410.252 339.42 383.434 370.114 315.458 362.616L242.305 388.389L238.322 380.891C224.515 353.244 226.904 339.303 229.56 332.157C232.348 325.362 235.136 315.17 238.455 304.509Z" fill="#D1AA75"/>
<path d="M322.631 405.262C322.631 405.262 330.066 428.458 338.43 446.733C346.794 465.009 353.433 496.991 354.76 509.409C356.221 521.709 356.885 543.031 355.955 555.215C355.026 567.281 350.512 613.556 347.857 623.396C345.201 633.237 337.766 648.349 338.563 654.324C337.634 659.361 326.88 662.876 321.038 674.24C325.95 679.746 348.52 677.988 349.583 675.645C350.91 670.256 352.105 665.805 353.831 664.985C355.557 664.165 363.257 664.048 363.788 654.675C364.319 645.303 363.788 630.542 365.382 619.765C366.975 608.987 372.551 570.913 373.878 562.009C375.339 553.106 383.969 529.559 386.757 524.17C389.412 518.781 397.776 514.68 394.723 505.074C391.669 495.468 381.313 472.74 379.72 459.62C378.127 446.499 381.977 431.972 385.827 420.96C385.827 420.96 382.11 408.659 381.313 402.567C379.587 388.861 381.048 383.354 381.048 383.354C381.048 383.354 360.071 404.442 322.631 405.262Z" fill="#996B3A"/>
<path d="M370.29 405.378C371.883 412.758 375.999 422.716 375.999 422.716C372.149 433.728 369.892 448.021 371.485 461.024C373.211 475.668 379.982 487.969 380.911 496.287C382.371 508.353 369.759 510.579 361.527 509.759C356.615 509.291 354.358 507.182 354.358 507.182C352.898 494.881 346.525 464.773 338.294 446.615C329.929 428.339 327.274 419.085 327.274 419.085C350.242 419.202 370.29 405.378 370.29 405.378Z" fill="#A87C4C"/>
<path d="M355.944 555.095C356.342 549.589 356.475 540.217 356.21 532.719C356.21 532.719 366.964 534.36 374.398 531.899C371.876 541.271 369.221 554.275 368.291 560.016C366.831 568.919 361.255 608.633 359.661 619.411C358.068 630.189 358.334 642.138 356.741 645.77C353.422 652.916 339.88 649.284 339.88 646.356C341.738 639.092 345.987 630.657 347.845 623.394C350.501 613.436 355.015 567.162 355.944 555.095Z" fill="#A87C4C"/>
<path d="M238.449 381.126C238.449 381.126 250.132 403.853 258.364 417.911C264.604 428.337 273.764 469.106 275.49 491.364C277.216 513.623 272.968 518.426 272.437 521.355C270.844 529.321 273.101 544.199 278.81 553.454C284.518 562.709 285.448 582.391 285.713 593.52C285.979 604.649 288.767 635.225 287.705 638.506C286.643 641.786 282.394 647.058 282.66 653.735C282.925 660.413 285.05 668.848 284.386 671.542C283.722 674.237 274.428 685.952 274.03 696.964C281.996 700.947 305.23 699.658 307.354 694.387C309.08 688.763 306.69 681.617 306.159 679.977C305.628 678.22 304.699 674.237 306.425 671.074C308.151 667.793 310.806 661.35 308.947 651.744C307.088 642.255 303.238 640.029 302.707 634.874C302.176 629.719 299.919 565.169 300.185 557.32C300.583 549.588 306.292 542.325 305.23 531.899C304.168 521.472 301.38 515.263 301.114 509.523C300.981 503.665 302.176 473.792 302.043 463.951C300.583 405.142 322.755 358.398 317.179 331.337C313.461 313.881 233.935 324.308 238.449 381.126Z" fill="#AD8049"/>
<path d="M317.046 331.214C322.622 358.276 292.485 390.727 295.671 462.657C296.069 472.381 294.078 500.38 294.211 506.237C294.343 512.095 299.123 525.567 296.202 531.19C292.617 537.985 274.694 538.805 272.172 532.01C271.773 527.91 271.773 524.161 272.437 521.233C272.968 518.304 277.217 513.501 275.491 491.242C273.765 468.983 264.604 428.332 258.364 417.789C250 403.73 238.449 381.003 238.449 381.003C233.935 324.302 313.461 313.876 317.046 331.214Z" fill="#D1AA75"/>
<path d="M282.662 653.617C281.998 646.94 286.645 641.668 287.707 638.388C288.769 635.107 285.981 604.531 285.716 593.402C285.583 584.733 284.123 568.449 281.202 558.374C281.202 558.374 286.911 560.014 294.744 557.554C294.478 567.629 297.266 630.07 297.797 635.107C298.328 640.262 300.984 642.136 301.913 651.86C302.577 659.475 283.193 660.061 282.662 653.617Z" fill="#D1AA75"/>
<path d="M208.979 370.698C208.979 370.698 206.191 397.877 212.962 411.935C219.733 426.111 231.815 450.829 233.541 457.858C235.266 464.887 238.718 487.497 238.586 498.861C238.32 510.225 235.399 520.3 235.93 528.266C236.727 539.747 244.162 551.11 244.56 555.913C244.958 560.834 244.162 620.698 243.896 625.735C243.631 630.773 238.453 640.73 238.586 645.182C238.718 649.634 239.117 653.148 238.586 656.78C238.055 660.412 236.196 665.566 233.01 669.315C229.823 673.064 227.699 678.922 226.637 686.771C233.541 687.591 253.323 688.411 258.5 684.193C258.368 680.327 256.642 672.83 257.305 668.378C257.969 663.926 263.014 656.429 263.014 649.868C263.014 643.308 261.952 634.873 261.288 631.593C260.625 628.313 261.819 604.765 262.35 583.444C262.882 562.122 262.882 550.29 265.271 544.667C267.528 539.044 269.785 531.195 266.201 519.714C262.616 508.233 261.554 488.083 261.554 481.171C261.554 474.259 260.093 426.813 260.093 420.37C260.093 420.37 250.402 410.647 246.95 402.446C240.312 387.334 238.32 373.51 208.979 370.698Z" fill="#9E733F"/>
<path d="M244.559 556.499C244.559 556.499 249.737 558.139 257.305 556.499C257.039 563.293 256.906 573.017 256.641 582.857C256.11 604.179 255.18 627.258 255.446 632.295C255.579 635.692 256.906 643.073 255.446 646.119C253.056 650.805 238.85 650.688 238.585 645.182C238.452 640.73 243.63 630.772 243.895 625.735C244.028 621.166 244.692 567.979 244.559 556.499Z" fill="#B78D55"/>
<path d="M208.982 370.697C238.19 373.509 240.181 387.333 246.687 402.562C250.139 410.763 251.068 413.574 251.068 413.574C251.068 420.018 254.785 475.313 254.785 482.342C254.785 489.254 255.582 503.78 258.237 515.495C258.237 515.495 259.432 523.11 257.043 527.328C252.794 534.708 237.261 533.302 235.667 528.499C233.41 518.19 238.057 509.286 238.323 499.094C238.588 487.731 235.004 465.121 233.278 458.092C231.552 451.063 219.47 426.227 212.699 412.169C206.194 397.759 208.982 370.697 208.982 370.697Z" fill="#B78D55"/>
<path d="M317.049 228.238C317.049 228.238 297.4 206.096 284.92 199.536C272.44 192.976 236.593 170.483 199.552 132.174C162.511 93.8661 141.401 61.2982 97.7215 43.7256C89.49 53.0976 84.0467 89.18 84.0467 89.18C84.0467 89.18 91.8798 87.6571 100.377 96.2091C108.874 104.761 145.384 163.219 150.695 172.006C155.872 180.792 208.049 254.011 214.156 270.178C236.992 271.349 317.049 228.238 317.049 228.238Z" fill="#AD8049"/>
<path d="M317.049 228.238C317.049 228.238 297.4 206.096 284.92 199.536C272.44 192.976 236.593 170.483 199.552 132.174C162.511 93.8661 141.401 61.2982 97.7215 43.7256C89.49 53.0976 85.2416 80.1595 85.2416 80.1595C85.2416 80.1595 96.5266 80.7452 106.882 90.4687C115.777 98.7864 154.014 156.659 159.192 165.445C164.369 174.231 215.484 245.928 227.565 270.295C250.534 271.349 317.049 228.238 317.049 228.238Z" fill="#D1AA75"/>
<path d="M287.439 249.797L273.233 270.298L280.402 292.323L294.21 295.72C303.636 284.708 307.486 266.198 307.486 266.198C307.486 266.198 300.184 256.943 287.439 249.797Z" fill="#704920"/>
<path d="M308.553 259.289C308.553 259.289 299.791 251.089 288.904 245.231C284.656 235.976 274.433 215.475 274.433 215.475L291.559 213.366C291.559 213.366 299.127 217.349 305.367 225.55C309.881 246.286 308.553 259.289 308.553 259.289Z" fill="#704920"/>
<path d="M115.641 54.2832C115.641 54.2832 144.716 79.4706 169.145 106.884C193.574 134.297 226.898 166.982 248.406 180.22C270.046 193.458 286.509 197.91 306.557 217.357C302.972 209.976 287.704 194.161 278.676 189.006C266.196 181.86 256.372 176.237 242.83 165.342C229.288 154.447 184.944 109.227 175.651 99.1519C166.357 89.0769 112.189 27.5728 70.5009 26.2842C81.9187 30.8531 108.206 46.6684 115.641 54.2832Z" fill="#603A18"/>
<path d="M250.532 269.365C250.532 269.365 260.887 273.465 268.189 277.8C273.102 288.577 275.89 298.652 275.89 298.652C270.048 309.782 260.091 316.576 260.091 316.576C260.091 316.576 247.08 313.296 237.388 307.556C238.716 303.104 241.105 299.941 233.803 282.837C233.936 282.954 243.362 274.051 250.532 269.365Z" fill="#704920"/>
<path d="M269.918 219.338L283.327 245.58L268.856 269.478L253.19 261.044L254.252 237.848C254.252 237.731 262.483 226.367 269.918 219.338Z" fill="#704920"/>
<path d="M271.385 196.381L273.642 211.494L292.76 210.205C292.76 210.088 284.927 202.005 271.385 196.381Z" fill="#704920"/>
<path d="M253.586 226.374L246.815 242.658C246.815 242.658 233.937 231.295 228.361 225.203C229.29 219.345 232.875 205.99 232.875 205.99L253.586 226.374Z" fill="#704920"/>
<path d="M225.574 231.171C225.574 231.171 218.936 239.606 212.43 244.761C216.147 250.853 229.689 274.049 229.689 274.049C229.689 274.049 232.212 271.94 244.957 262.568C245.356 256.593 246.02 249.681 246.02 249.681L225.574 231.171Z" fill="#704920"/>
<path d="M211.771 196.381L226.508 209.619L223.985 223.56C223.985 223.56 219.87 231.995 208.717 239.024C194.379 226.255 184.687 215.594 184.687 215.594C184.687 215.594 196.37 213.368 200.088 211.494C205.266 208.799 211.771 196.381 211.771 196.381Z" fill="#704920"/>
<path d="M296.996 302.87L281.462 300.059C281.462 300.059 275.355 312.242 263.804 323.137C268.584 336.024 275.355 345.279 275.886 345.63C278.674 345.982 289.561 344.693 289.561 344.693C289.561 344.693 294.738 331.572 306.156 322.434C302.704 310.016 296.996 302.87 296.996 302.87Z" fill="#704920"/>
<path d="M310.944 272.05C310.944 272.05 307.89 284.351 299.659 298.644C302.978 306.727 310.678 319.848 314.794 324.182C317.051 315.045 327.274 289.974 328.734 287.866C323.424 280.017 310.944 272.05 310.944 272.05Z" fill="#704920"/>
<path d="M333.518 289.989C333.518 289.989 323.694 305.687 319.047 326.306C324.623 325.72 344.538 325.369 344.538 325.369L347.857 310.022C347.99 309.905 342.812 298.776 333.518 289.989Z" fill="#704920"/>
<path d="M343.998 329.929L339.219 357.576C339.219 357.576 333.51 360.271 320.764 361.091C321.694 353.476 321.959 340.355 320.764 332.975C329.527 329.929 343.998 329.929 343.998 329.929Z" fill="#704920"/>
<path d="M312.267 255.31C312.267 255.31 312.665 263.276 312.267 268.196C321.162 274.757 337.492 288.58 337.492 288.58C337.492 288.58 336.961 271.945 334.04 262.573C326.473 258.473 312.267 255.31 312.267 255.31Z" fill="#704920"/>
<path d="M338.562 263.506C338.562 263.506 342.412 280.493 341.217 291.973C343.74 295.254 349.714 304.743 349.714 304.743C349.714 304.743 358.477 304.391 366.841 298.651C366.708 294.551 364.849 285.882 364.849 285.882C364.849 285.882 353.166 271.941 338.562 263.506Z" fill="#704920"/>
<path d="M370.416 303.686C370.416 303.686 362.052 308.723 351.563 311.183C350.236 318.447 349.041 329.927 349.041 329.927C349.041 329.927 360.857 332.856 369.619 337.191C374.93 336.136 380.506 334.613 380.506 334.613C380.506 334.613 378.78 316.455 370.416 303.686Z" fill="#704920"/>
<path d="M349.05 334.385C349.05 334.385 358.609 336.962 366.841 342.468C364.717 351.02 359.539 359.572 359.539 359.572C359.539 359.572 354.626 360.744 343.341 359.572C343.209 359.572 346.926 346.568 349.05 334.385Z" fill="#704920"/>
<path d="M294.881 345.629C294.881 345.629 297.935 357.461 299.661 370.231C299.661 370.231 306.963 369.996 315.593 362.85C320.239 339.654 316.389 329.931 316.389 329.931C313.867 328.056 308.025 327.002 308.025 327.002C308.025 327.002 298.466 338.248 294.881 345.629Z" fill="#704920"/>
<path d="M379.713 384.75C379.713 384.75 406.531 362.726 410.382 339.765C412.108 351.831 400.823 379.713 381.041 397.403C379.58 388.851 379.713 384.75 379.713 384.75Z" fill="#875931"/>
<path d="M259.832 420.494C259.832 420.494 230.358 369.651 227.703 345.752C235.271 399.407 246.689 415.105 260.496 443.221C260.098 437.832 259.832 420.494 259.832 420.494Z" fill="#966B3C"/>
<path d="M309.215 227.434C309.215 227.434 312.799 242.429 313.596 251.801C318.243 252.387 336.564 256.604 338.556 257.658C331.121 245.826 320.632 234.814 309.215 227.434Z" fill="#704920"/>
<path d="M235.803 199.89L256.647 222.032C256.647 222.032 266.471 213.714 268.197 212.308C267.666 205.045 267.666 205.045 266.471 194.384C266.471 194.384 248.283 186.066 236.865 176.812C237.529 184.309 235.803 199.89 235.803 199.89Z" fill="#704920"/>
<path d="M232.738 174.237C232.738 174.237 216.01 160.648 211.23 155.61C209.903 165.685 207.247 170.254 207.778 175.175C208.044 178.103 212.16 188.295 212.16 188.295L229.552 202.353C229.419 202.471 233.8 184.078 232.738 174.237Z" fill="#704920"/>
<path d="M214.022 281.43C214.022 281.43 225.971 287.17 228.759 289.865C230.617 295.488 230.883 307.203 227.033 314.7C222.386 311.537 207.649 303.571 207.649 303.571C207.649 303.571 212.827 295.605 214.022 281.43Z" fill="#603A18"/>
<path d="M205.797 306.973C205.797 306.973 219.074 315.408 223.588 322.905C223.19 331.809 214.693 340.361 214.693 340.361C214.693 340.361 199.956 340.478 193.45 337.549C192.787 333.097 192.123 329.934 194.114 325.717C195.973 322.085 199.956 315.876 205.797 306.973Z" fill="#603A18"/>
<path d="M196.503 346.575C196.503 346.575 204.469 345.169 211.505 343.646C218.011 346.458 223.454 351.847 223.454 351.847C223.454 351.847 226.508 361.102 226.508 366.491C219.87 368.131 207.655 368.482 207.655 368.482C207.655 368.482 198.229 351.847 196.503 346.575Z" fill="#603A18"/>
<path d="M234.599 317.163C234.599 317.163 251.991 321.263 256.904 322.903C259.161 328.995 258.497 337.196 258.497 337.196C258.497 337.196 246.017 345.279 242.698 347.037C239.113 346.099 231.28 341.413 228.226 338.485C228.094 335.439 233.935 321.381 234.599 317.163Z" fill="#704920"/>
<path d="M290.233 349.027C290.233 349.027 282.533 349.027 275.231 353.362C273.638 362.265 272.044 376.558 272.044 376.558C272.044 376.558 285.719 375.269 292.49 371.872C292.49 361.445 290.233 349.027 290.233 349.027Z" fill="#704920"/>
<path d="M270.314 352.782C270.314 352.782 265.933 345.519 262.481 342.473C249.47 352.196 243.363 361.92 243.363 361.92C243.363 361.92 242.965 371.643 243.363 372.932C246.417 374.22 263.942 377.032 263.942 377.032C263.942 377.032 268.987 363.56 270.314 352.782Z" fill="#704920"/>
<path d="M227.692 345.629C227.692 345.629 235.525 350.198 240.305 352.306C238.313 361.561 235.127 370.699 235.127 370.699C235.127 370.699 227.825 359.218 227.692 345.629Z" fill="#704920"/>
<path d="M274.164 383.819L263.808 380.188C263.808 380.188 253.187 380.422 246.682 380.89C251.329 388.74 261.02 403.618 261.02 403.618C261.02 403.618 268.322 402.915 273.633 400.572C274.164 395.417 274.164 383.819 274.164 383.819Z" fill="#704920"/>
<path d="M312.799 377.03L297.398 373.516C297.398 373.516 289.034 378.787 281.201 381.599C280.139 388.511 279.873 402.569 279.873 402.569C279.873 402.569 300.85 396.594 304.966 394.72C305.099 394.72 310.675 384.176 312.799 377.03Z" fill="#704920"/>
<path d="M381.574 338.716L371.352 341.762C371.352 341.762 367.369 354.063 364.713 360.389C368.829 362.732 377.592 366.129 377.592 366.129C388.877 358.28 393.258 346.096 393.258 346.096C393.258 346.096 387.682 341.645 381.574 338.716Z" fill="#704920"/>
<path d="M379.709 384.758C379.709 384.758 380.771 373.394 378.248 369.177C375.062 372.574 363.113 385.344 363.113 385.344L364.175 394.95C364.175 394.833 373.203 390.85 379.709 384.758Z" fill="#603A18"/>
<path d="M328.731 390.027L326.607 405.139C326.607 405.139 333.511 404.671 336.034 404.085C336.034 404.085 343.734 397.29 347.717 390.613C343.999 385.575 340.68 382.764 340.68 382.764C340.68 382.764 334.573 388.035 328.731 390.027Z" fill="#603A18"/>
<path d="M361 383.113L350.379 385.69L345.069 379.13C345.069 379.13 348.521 372.452 349.715 365.775C356.752 364.603 363.257 363.783 363.257 363.783C363.257 363.783 370.958 366.946 373.215 368.704C369.63 373.507 361.797 382.059 361 383.113Z" fill="#603A18"/>
<path d="M360.065 386.04C360.862 391.078 360.596 396.584 360.596 396.584C360.596 396.584 350.904 401.27 341.08 403.027C347.187 397.169 350.904 389.789 350.904 389.789L360.065 386.04Z" fill="#603A18"/>
<path d="M382.508 367.062L385.164 374.208C385.164 374.208 397.776 364.719 401.494 357.222C401.892 353.238 398.174 344.335 398.174 344.335C398.174 344.335 394.192 355.347 382.508 367.062Z" fill="#603A18"/>
<path d="M374.142 284.126L368.565 286.938C368.565 286.938 370.291 297.715 370.69 299.941C378.921 303.339 395.782 313.999 395.782 313.999C395.782 313.999 385.427 292.678 374.142 284.126Z" fill="#704920"/>
<path d="M375.997 306.853C375.997 306.853 381.175 316.693 383.963 334.383C387.15 336.257 394.983 341.529 394.983 341.529C394.983 341.529 397.771 327.588 397.638 319.973C396.045 317.513 382.105 308.961 375.997 306.853Z" fill="#704920"/>
<path d="M370.282 279.903C370.282 279.903 366.432 280.84 363.379 280.254C363.379 280.254 355.678 272.756 343.198 262.447C342.534 258.113 341.207 251.201 341.207 251.201C341.207 251.201 358.068 264.087 370.282 279.903Z" fill="#704920"/>
<path d="M401.489 320.448C401.489 320.448 401.356 333.569 399.099 340.364C404.277 344.816 406.401 350.205 406.401 350.205C406.401 350.205 408.658 332.866 401.489 320.448Z" fill="#704920"/>
<path d="M203.53 192.043C203.53 192.043 199.016 202.821 192.113 206.101C188.262 207.976 178.703 207.273 178.703 207.273C178.703 207.273 180.562 188.646 182.288 186.186C184.678 182.905 191.98 168.027 191.98 168.027L200.078 174.236C203.53 183.257 203.53 192.043 203.53 192.043Z" fill="#704920"/>
<path d="M206.32 150.927L198.354 140.852L184.149 132.065L180.697 143.078L194.106 162.056L201.939 165.336C205.258 160.064 206.32 150.927 206.32 150.927Z" fill="#704920"/>
<path d="M177.904 149.868L188.26 164.277C188.26 164.277 180.825 177.515 175.913 181.85C174.187 183.373 156.131 174.821 156.131 174.821C156.131 174.821 166.486 165.449 177.904 149.868Z" fill="#704920"/>
<path d="M117.236 60.6006L115.377 67.9811L125.202 81.1019C127.459 81.4534 132.371 80.1647 132.371 80.1647L133.035 73.6043C133.035 73.4871 125.202 65.9895 117.236 60.6006Z" fill="#704920"/>
<path d="M130.382 89.6582C130.382 89.6582 127.727 97.6244 125.735 102.076C129.187 108.871 135.427 115.548 135.427 115.548C135.427 115.548 140.738 110.628 144.057 106.176C140.738 101.022 130.382 89.6582 130.382 89.6582Z" fill="#704920"/>
<path d="M120.558 104.536C120.558 104.536 127.595 112.854 128.391 114.377C129.188 115.9 121.886 126.56 121.886 126.56L110.999 110.277C110.999 110.277 116.443 105.708 120.558 104.536Z" fill="#603A18"/>
<path d="M107.276 88.3681L106.744 102.66C106.744 102.66 117.366 102.543 119.49 101.372C120.818 99.4974 124.137 92.4683 124.137 92.4683L120.552 84.9707C120.552 84.9707 111.657 86.1422 107.276 88.3681Z" fill="#704920"/>
<path d="M137.689 78.1738L136.096 89.186L149.771 104.298C149.771 104.298 153.488 100.55 155.612 97.1522C151.497 91.529 137.689 78.1738 137.689 78.1738Z" fill="#704920"/>
<path d="M116.977 75.7084L115.914 81.0973C115.914 81.0973 109.542 82.386 106.355 82.386C105.293 79.5743 104.364 74.654 104.364 74.654C104.364 74.654 108.48 72.0767 111.666 70.6709C112.595 71.3738 116.977 75.7084 116.977 75.7084Z" fill="#704920"/>
<path d="M160.522 100.661L154.548 107.456L160.522 121.514L177.782 135.103L181.632 126.669C181.499 126.669 170.347 110.619 160.522 100.661Z" fill="#704920"/>
<path d="M147.51 108.867C147.51 108.867 133.437 124.097 126.401 129.134C133.172 138.389 134.898 140.381 134.898 140.381L143.262 140.966C143.262 140.966 152.555 126.323 154.547 122.691C153.086 118.825 147.51 108.867 147.51 108.867Z" fill="#704920"/>
<path d="M159.856 129.128L175.921 142.249C175.921 142.249 170.61 154.55 159.458 161.227C153.749 153.378 149.368 143.655 149.368 143.655L159.856 129.128Z" fill="#704920"/>
<path d="M145.917 146.245L154.547 165.458L150.697 172.135L133.968 145.308L145.917 146.245Z" fill="#603A18"/>
<path d="M63.9997 88.2492C63.9997 88.2492 64.929 83.4461 65.4601 80.4002C67.7171 79.9316 71.3018 79.6973 71.3018 79.6973L70.6379 84.5004C70.5052 84.5004 65.3273 87.6635 63.9997 88.2492Z" fill="#704920"/>
<path d="M302.979 398.574C293.288 403.729 280.011 407.712 280.011 407.712L283.33 415.21L291.694 419.896C291.694 419.896 304.174 412.047 305.236 409.235L302.979 398.574Z" fill="#704920"/>
<path d="M275.37 407.485L276.433 414.279C276.433 414.279 270.06 417.911 265.148 417.911C262.891 416.271 260.501 411.351 260.501 411.351C260.501 411.351 265.28 408.07 271.122 405.259L275.37 407.485Z" fill="#704920"/>
<path d="M278.148 416.621L287.972 422.947C287.972 422.947 288.105 427.399 287.972 429.39C284.52 432.554 274.297 435.717 274.297 435.717C274.297 435.717 268.721 430.328 267.128 428.688C266.73 426.11 266.464 422.01 266.464 422.01L278.148 416.621Z" fill="#704920"/>
<path d="M265.667 438.184L272.173 441.23L274.164 453.062L269.783 455.756C269.916 455.756 266.995 443.221 265.667 438.184Z" fill="#704920"/>
<path d="M281.076 437.354L275.5 440.517C275.5 440.517 278.554 458.323 278.819 459.612C282.404 458.909 289.839 455.746 289.839 455.746C290.768 453.403 292.76 444.734 292.76 444.734C292.76 444.734 287.449 440.517 281.076 437.354Z" fill="#704920"/>
<path d="M290.763 431.611L285.319 435.712C285.319 435.712 292.489 440.515 295.675 443.678C297.667 440.515 296.339 432.431 296.339 432.431L290.763 431.611Z" fill="#704920"/>
<path d="M305.629 414.165C305.629 414.165 297.663 420.725 291.556 424.123C291.821 427.637 291.954 429.277 291.954 429.277C291.954 429.277 300.053 431.035 303.239 431.738C304.168 425.411 305.629 414.165 305.629 414.165Z" fill="#603A18"/>
<path d="M301.907 453.18C301.907 453.18 298.322 454.938 296.331 455.523C295.8 453.766 295.269 451.423 295.269 451.423L302.172 443.105C302.438 443.105 302.04 451.072 301.907 453.18Z" fill="#603A18"/>
<path d="M389.141 276.743C389.141 276.743 385.556 282.132 381.573 286.233C379.582 284.007 364.446 269.129 358.074 263.505C365.243 264.56 382.104 271.94 389.141 276.743Z" fill="#704920"/>
<path d="M397.762 275.338L389.132 273.697L376.121 263.505C375.988 263.623 388.734 267.02 397.762 275.338Z" fill="#704920"/>
<path d="M369.895 261.511L374.276 265.846C374.276 265.846 360.734 261.628 355.689 259.285C352.636 256.942 349.582 253.545 349.582 253.545C349.582 253.545 354.627 255.888 358.345 257.294C361.929 258.582 369.895 261.511 369.895 261.511Z" fill="#704920"/>
<path d="M390.196 282.134L384.753 289.397C384.753 289.397 396.303 308.61 399.755 315.522C407.456 310.367 411.704 304.392 411.704 304.392C411.704 304.392 399.622 288.694 390.196 282.134Z" fill="#704920"/>
<path d="M402.153 279.203L391.798 276.86V279.789C391.798 279.789 404.543 290.45 408.659 294.902C408.924 292.207 408.526 285.529 408.526 285.529C408.526 285.529 404.809 280.961 402.153 279.203Z" fill="#704920"/>
<path d="M403.877 316.809C403.877 316.809 403.877 319.386 403.877 321.612C405.603 324.541 411.179 336.725 414.365 343.871C415.958 342.348 418.879 332.39 419.543 328.993C419.012 324.072 414.498 311.186 412.506 308.726C408.656 312.709 403.877 316.809 403.877 316.809Z" fill="#704920"/>
<path d="M412.377 289.745L413.174 298.883C423.928 308.255 435.346 322.547 435.346 322.547C435.346 322.547 427.911 307.552 412.377 289.745Z" fill="#603A18"/>
<path d="M422.993 331.802C422.993 331.802 419.807 341.877 416.753 347.266C417.417 358.278 418.081 361.558 418.081 361.558L424.719 368.001C424.719 368.001 429.233 353.475 429.499 351.366C429.632 348.437 425.383 335.082 422.993 331.802Z" fill="#704920"/>
<path d="M414.101 304.157C414.101 304.157 422.465 309.78 428.041 317.63C427.643 321.496 424.191 328.993 424.191 328.993C424.191 328.993 419.544 311.421 414.101 304.157Z" fill="#704920"/>
<path d="M409.051 344.929L414.76 353.832L414.229 362.853C409.316 369.062 401.085 374.685 401.085 374.685L399.226 363.907C399.094 363.907 407.59 351.606 409.051 344.929Z" fill="#704920"/>
<path d="M391.93 375.498L404.676 386.862C404.676 386.862 402.817 395.882 401.888 398.577C393.524 396.937 386.487 394.242 386.487 394.242C386.487 394.242 387.416 386.042 391.93 375.498Z" fill="#704920"/>
<path d="M415.823 364.958L424.188 371.753L421.532 381.359L408.388 386.045C408.388 386.045 403.609 380.89 402.281 378.899C410.513 371.87 415.823 364.958 415.823 364.958Z" fill="#704920"/>
<path d="M421.936 383.825L427.512 392.963C427.512 392.963 423.396 401.632 418.484 407.255C409.987 403.858 405.473 401.046 405.473 401.046L408.792 389.566C408.526 389.566 417.289 385.7 421.936 383.825Z" fill="#704920"/>
<path d="M433.079 355L426.971 371.049L425.378 382.647L429.494 389.09C429.494 389.09 437.061 378.195 439.584 370.932C439.318 366.129 433.079 355 433.079 355Z" fill="#704920"/>
<path d="M404.812 406.784C404.812 406.784 401.758 402.918 400.961 401.747C396.978 400.927 384.1 398.232 384.1 398.232C384.1 398.232 391.933 409.127 395.12 412.759C398.97 410.768 404.812 406.784 404.812 406.784Z" fill="#704920"/>
<path d="M407.993 407.844C407.993 407.844 400.956 413.35 399.363 414.404C404.806 418.973 407.196 420.613 407.196 420.613C407.196 420.613 415.427 420.379 422.862 418.153C421.269 414.99 419.543 410.421 419.543 410.421L407.993 407.844Z" fill="#704920"/>
<path d="M432.15 321.963C432.15 321.963 429.627 329.929 427.37 333.092C430.158 337.778 433.743 350.899 433.743 350.899C433.743 350.899 439.585 343.284 441.311 336.841C440.779 334.615 437.991 328.055 437.991 328.055C436.531 325.712 432.15 321.963 432.15 321.963Z" fill="#704920"/>
<path d="M442.772 341.992C442.772 341.992 439.586 348.904 436.532 352.887C438.524 357.456 442.241 368.703 442.241 368.703C444.897 365.188 445.428 362.025 445.428 362.025C445.428 362.025 444.631 347.733 442.772 341.992Z" fill="#603A18"/>
<path d="M445.699 370C445.699 370 439.061 380.661 434.945 385.698C438.663 392.141 441.052 401.396 441.052 401.396L445.301 396.71C445.301 396.593 447.027 381.481 445.699 370Z" fill="#603A18"/>
<path d="M394.855 414.858L403.883 421.887C399.502 425.519 388.748 428.33 388.748 428.33C388.748 428.33 389.81 421.301 391.536 416.615L394.855 414.858Z" fill="#704920"/>
<path d="M433.487 391.44C433.487 391.44 425.654 402.921 422.866 406.904C423.53 409.247 425.654 415.105 425.654 415.105C425.654 415.105 432.159 410.77 437.735 404.678C437.337 400.11 433.487 391.44 433.487 391.44Z" fill="#704920"/>
<path d="M418.611 422.363C418.611 422.363 412.504 423.301 408.256 423.418C406.53 424.589 399.095 429.158 399.095 429.158L406.397 435.25H410.645C416.222 428.689 418.611 422.363 418.611 422.363Z" fill="#704920"/>
<path d="M402.543 437.474L397.1 431.499H389.532L394.312 444.151C394.179 444.151 400.551 439.348 402.543 437.474Z" fill="#704920"/>
<path d="M234.078 385.577C234.078 385.577 230.095 376.205 229.033 373.042C224.386 373.042 213.101 373.979 213.101 373.979C213.101 373.979 223.324 382.297 234.078 385.577Z" fill="#603A18"/>
<path d="M208.574 377.031C208.574 377.031 211.76 381.366 219.46 385.7C222.912 394.018 228.754 405.85 228.754 405.85C228.754 405.85 217.867 402.101 209.105 397.064C209.105 397.064 207.777 385.232 208.574 377.031Z" fill="#603A18"/>
<path d="M114.454 61.4207L113.392 67.6297H104.364L107.152 60.9521L114.454 61.4207Z" fill="#704920"/>
<path d="M212.171 410.292L216.95 406.309L231.289 416.149C225.447 424.701 221.066 429.036 221.066 429.036C221.066 429.036 213.366 413.572 212.171 410.292Z" fill="#603A18"/>
<path d="M235.266 421.311L228.495 430.214L241.772 440.055L242.436 428.457L235.266 421.311Z" fill="#603A18"/>
<path d="M223.847 434.775L230.884 436.298L246.815 449.419C246.815 449.419 242.832 455.628 240.177 459.143C237.389 458.323 233.008 456.097 233.008 456.097C233.008 456.097 226.502 440.047 223.847 434.775Z" fill="#603A18"/>
<path d="M249.204 456.701L240.308 464.55L245.353 473.337C245.353 473.337 250.797 470.291 252.39 469.002C252.921 462.09 253.187 460.333 253.187 460.333L249.204 456.701Z" fill="#603A18"/>
<path d="M245.487 477.773L241.637 484.099C241.637 484.099 243.363 486.793 244.691 488.199C245.222 487.965 252.79 482.81 252.79 482.81C252.79 482.81 253.984 478.71 254.25 475.898L245.487 477.773Z" fill="#603A18"/>
<path d="M235.396 467.822L241.37 475.32L237.52 483.286C237.52 483.403 235.661 469.697 235.396 467.822Z" fill="#603A18"/>
<path d="M176.586 188.057L173.665 205.981L157.335 182.082C157.335 182.082 173.798 186.651 176.586 188.057Z" fill="#603A18"/>
<path d="M237.922 487.964L243.365 494.29L238.32 502.373C238.32 502.373 238.719 493.47 237.922 487.964Z" fill="#603A18"/>
<path d="M251.466 488.315L245.226 494.876L248.147 501.553L252.263 495.227L251.466 488.315Z" fill="#603A18"/>
<path d="M243.367 501.55L246.554 505.065L245.492 509.282L241.376 510.922L239.252 505.885L243.367 501.55Z" fill="#603A18"/>
<path d="M337.631 403.854L332.586 413.812L335.772 419.2L345.464 422.364L354.891 409.243L347.323 401.511L337.631 403.854Z" fill="#7C4F2A"/>
<path d="M327.403 419.207L345.061 429.75C345.061 429.75 341.609 437.599 339.352 441.231L335.767 440.762C335.767 440.762 332.182 433.03 330.855 429.516C328.996 424.244 327.403 419.207 327.403 419.207Z" fill="#84592F"/>
<path d="M344.132 440.059L338.423 446.736L342.008 455.874C342.008 455.874 346.123 455.522 350.505 454.937L352.629 444.979L344.132 440.059Z" fill="#84592F"/>
<path d="M343.211 458.794C343.211 458.794 346.265 468.869 347.061 472.032L349.053 467.932C349.053 467.932 349.982 461.137 349.849 458.325L343.211 458.794Z" fill="#84592F"/>
<path d="M322.631 405.259L333.252 404.438L326.348 416.036C326.348 416.154 324.357 410.882 322.631 405.259Z" fill="#7C4F2A"/>
<path d="M351.171 471.802L348.383 476.839L350.507 485.157L354.357 477.542L351.171 471.802Z" fill="#84592F"/>
<path d="M357.808 477.314L359.402 479.892L359.667 485.164L355.551 489.498L354.356 483.758L357.808 477.314Z" fill="#84592F"/>
<path d="M254.915 411.582L257.969 407.131C257.969 407.131 246.684 393.307 244.161 390.729C247.613 398.813 254.915 411.582 254.915 411.582Z" fill="#704920"/>
<path d="M390.867 413.346L386.088 421.663C386.088 421.663 381.706 405.965 381.308 400.928C384.893 405.379 390.867 413.346 390.867 413.346Z" fill="#704920"/>
<path d="M444.366 405.259L437.861 411.233L440.914 425.057C440.914 424.94 444.366 409.125 444.366 405.259Z" fill="#603A18"/>
<path d="M436.011 414.976L438.4 423.528L436.409 431.142L428.576 435.594L419.946 427.511L423.796 420.95L436.011 414.976Z" fill="#704920"/>
<path d="M419.011 432.443L424.587 437.832C424.587 437.832 421.799 443.573 420.737 445.33C417.019 446.267 412.771 446.853 412.771 446.853L410.647 439.355L419.011 432.443Z" fill="#704920"/>
<path d="M406.393 440.288L408.65 448.254C408.65 448.254 403.871 450.948 402.942 451.651C400.552 450.011 396.834 445.442 396.834 445.442L406.393 440.288Z" fill="#704920"/>
<path d="M434.273 435.61L427.369 440.062L429.095 449.317C429.095 449.317 436.264 445.92 436.53 445.568L437.99 438.656L434.273 435.61Z" fill="#704920"/>
<path d="M423.526 447.671L425.783 454.934C425.783 454.934 421.402 458.449 420.871 458.917C418.614 459.034 414.1 459.386 414.1 459.386L415.427 451.303L423.526 447.671Z" fill="#704920"/>
<path d="M410.514 452.702C410.514 452.702 410.514 456.217 409.85 461.254C408.655 462.426 406.398 463.949 406.398 463.949L402.017 463.011V456.451C402.149 456.451 405.867 454.459 410.514 452.702Z" fill="#704920"/>
<path d="M400.561 454.234L399.498 458.217L396.047 448.845L400.561 454.234Z" fill="#704920"/>
<path d="M435.609 450.479L430.697 451.884C430.697 451.884 428.971 455.399 428.573 456.922C430.299 459.265 433.352 462.662 433.352 462.662C433.352 462.662 434.946 454.227 435.609 450.479Z" fill="#603A18"/>
<path d="M426.182 459.265L430.431 465.122C430.431 465.122 426.979 468.988 423.527 470.98C421.535 470.628 416.756 467.231 416.756 467.231L418.747 462.662C418.615 462.545 423.394 460.202 426.182 459.265Z" fill="#704920"/>
<path d="M432.414 468.286L427.236 473.206C427.236 473.206 426.705 477.19 426.705 479.884C429.228 478.713 431.219 477.307 431.219 477.307C431.219 477.307 432.016 471.215 432.414 468.286Z" fill="#603A18"/>
<path d="M420.998 473.445C420.998 473.445 413.829 469.931 410.111 467.002C409.315 470.282 409.049 474.851 409.049 474.851L415.953 479.889C415.953 479.889 419.272 476.257 420.998 473.445Z" fill="#704920"/>
<path d="M423.527 476.841C423.527 476.841 422.996 482.698 422.332 485.276C420.606 486.213 414.898 487.267 414.898 487.267C414.898 487.267 418.35 480.59 423.527 476.841Z" fill="#704920"/>
<path d="M404.682 476.841L411.32 482.347L407.47 488.79C407.603 488.79 405.08 480.238 404.682 476.841Z" fill="#704920"/>
<path d="M430.694 483.637L428.57 488.791L425.118 488.44C425.118 488.44 425.384 484.691 425.649 483.637C427.242 482.7 430.827 480.708 430.827 480.708L430.694 483.637Z" fill="#603A18"/>
<path d="M422.73 490.898L425.65 492.421L423.792 498.63C422.331 497.576 419.942 495.935 419.942 495.935L422.73 490.898Z" fill="#704920"/>
<path d="M418.479 491.713L417.815 489.839L411.442 489.487V493.47L415.69 495.462L418.479 491.713Z" fill="#704920"/>
<path d="M263.551 431.03L263.816 420.838L257.444 416.152L263.551 431.03Z" fill="#704920"/>
<path d="M406.395 467.817L404.27 474.377C404.27 474.377 402.412 466.645 402.146 465.708C404.138 466.528 406.395 467.817 406.395 467.817Z" fill="#704920"/>
<path d="M275.624 456.101L278.279 465.59C278.279 465.59 273.765 469.573 272.836 470.276C272.039 465.941 270.977 460.318 270.977 460.318L275.624 456.101Z" fill="#704920"/>
<path d="M295.414 451.421L293.024 460.91L296.21 465.596C296.21 465.596 301.653 464.073 301.919 463.839V452.827L295.414 451.421Z" fill="#603A18"/>
<path d="M289.832 460.317L294.346 468.987C294.346 468.987 289.964 475.547 289.301 476.016C289.035 476.484 283.459 479.764 283.459 479.764L281.6 464.535L289.832 460.317Z" fill="#704920"/>
<path d="M279.209 468.994C279.209 468.994 281.068 478.6 281.466 480.709L277.483 480.475L274.031 478.835L273.234 473.914C273.367 474.032 275.359 472.04 279.209 468.994Z" fill="#704920"/>
<path d="M301.919 466.641L297.007 468.046C297.007 468.046 295.148 471.678 294.617 473.084C296.343 475.427 301.786 480.23 301.786 480.23C301.786 480.23 301.919 470.741 301.919 466.641Z" fill="#603A18"/>
<path d="M294.34 476.13L299.916 483.042C299.916 483.042 296.464 486.205 293.012 488.196C291.021 487.845 286.241 484.448 286.241 484.448L289.162 478.59C289.029 478.473 291.552 477.184 294.34 476.13Z" fill="#704920"/>
<path d="M301.655 485.156L296.876 490.428C296.876 490.428 296.345 494.411 296.345 497.105C298.867 495.934 301.522 494.411 301.522 494.411C301.522 494.411 301.523 488.202 301.655 485.156Z" fill="#603A18"/>
<path d="M291.292 490.901C291.292 490.901 284.521 487.152 280.14 484.106C279.476 487.503 279.078 491.955 279.078 491.955L285.981 496.993C286.114 497.11 289.699 493.244 291.292 490.901Z" fill="#704920"/>
<path d="M293.023 494.185C293.023 494.185 292.891 500.042 292.227 502.619C290.501 503.557 284.128 504.611 284.128 504.611C284.128 504.611 287.978 498.285 293.023 494.185Z" fill="#704920"/>
<path d="M275.757 494.185L281.466 499.925L280.271 503.088L275.757 505.782C275.757 505.665 276.022 497.582 275.757 494.185Z" fill="#704920"/>
<path d="M301.112 503.779L299.386 507.294L294.209 506.24C294.209 506.24 295.802 502.022 296.067 500.851C297.661 499.913 301.245 497.922 301.245 497.922L301.112 503.779Z" fill="#603A18"/>
<path d="M289.557 507.3L293.54 509.994L292.611 514.68L290.752 516.086C289.292 515.032 286.902 512.337 286.902 512.337L289.557 507.3Z" fill="#704920"/>
<path d="M285.584 509.412L284.389 506.601L278.547 505.546L278.946 510.701L282.132 512.575L285.584 509.412Z" fill="#704920"/>
<path d="M278.812 483.512L275.493 490.893C275.493 490.893 274.697 482.81 274.431 481.169C276.29 482.341 278.812 483.512 278.812 483.512Z" fill="#704920"/>
<path d="M75.1538 9.17747C75.1538 9.17747 77.6763 6.48302 76.2159 3.55425C73.9589 -1.01462 61.4791 -0.663184 61.3463 5.66295C61.3463 7.65451 63.205 9.17747 63.205 9.17747L69.445 12.4577L75.1538 9.17747Z" fill="#603F1F"/>
<path d="M74.2254 1.55273C75.1547 2.02134 76.2169 2.8414 76.6152 3.66145C78.0756 6.59022 75.022 9.63614 75.022 9.63614L69.4459 12.4477L63.2059 9.63614C63.2059 9.63614 61.3472 7.52742 61.3472 5.65301C61.3472 4.9501 61.6127 4.2472 61.8783 3.66145C62.5421 6.12161 73.9598 7.05882 74.2254 1.55273Z" fill="#5B3A1E"/>
<path d="M63.204 9.63867C70.3732 10.693 75.02 9.63867 75.02 9.63867C75.02 9.63867 74.3562 12.3331 75.6839 17.4878C77.0115 22.6424 81.791 29.9057 81.791 29.9057C70.7715 35.2947 61.0797 36.5833 59.4866 32.6002C64.1333 20.2994 63.204 9.63867 63.204 9.63867Z" fill="#7C512D"/>
<path d="M62.0094 24.3994C63.337 17.839 63.2042 13.2701 63.2042 13.2701C66.5233 12.0986 70.639 12.5672 71.5684 19.5963C71.7011 20.8849 71.7012 22.8765 71.7012 22.8765C71.7012 22.8765 63.8681 23.2279 62.0094 24.3994Z" fill="#875930"/>
<path d="M100.771 57.9037C100.771 57.9037 98.2487 80.1623 91.6105 85.317C85.3705 90.2373 74.0855 93.4004 64.6592 95.9777C55.2329 98.6722 47.0015 99.7265 42.0892 101.484C37.1769 103.241 31.6008 106.287 28.0161 108.044C24.4315 109.801 16.0673 114.605 8.1014 104.881C2.52528 104.295 -0.262779 100.781 0.135521 97.735C0.401047 95.8605 3.58743 94.1033 4.64955 89.183C4.64955 89.183 59.7469 30.4905 74.0855 28.0303C91.3449 25.2187 107.277 27.796 100.771 57.9037Z" fill="#C19A5D"/>
<path d="M100.778 57.9052C100.778 57.9052 96.662 76.1807 90.6876 81.3353C83.2528 87.7786 74.3575 89.4187 63.2053 92.2303C53.6462 94.5733 48.7339 93.7533 41.6974 95.3934C36.6523 96.5649 31.6073 98.205 27.4916 97.5021L29.7486 93.6361C11.2943 105.468 -0.388992 100.665 0.00930023 97.6192C0.274826 95.7448 3.46114 93.9876 4.52325 89.0672C4.52325 89.0672 56.1688 34.3579 70.6402 31.8977C87.8996 29.0861 106.885 30.8434 100.778 57.9052Z" fill="#D1AA75"/>
<path d="M88.6992 38.6979C84.318 41.2752 81.7955 40.4552 74.3606 42.681C64.536 45.4926 65.0671 53.3417 66.5275 61.4251C67.3241 65.2911 60.5531 72.9059 51.1268 75.4832C41.7005 78.1777 37.8503 80.6378 33.7346 83.2152C29.6189 85.7925 23.2462 89.307 17.0062 92.7043C13.4216 94.5788 1.73829 96.9218 4.12805 91.0642C5.4557 87.784 4.26082 82.7465 13.4216 77.4748C19.5288 71.8515 23.7773 66.9312 26.8309 63.5338C29.8845 60.2536 38.1159 52.1702 43.1609 44.204C48.206 36.2377 55.508 24.2884 73.6968 25.1084C92.5494 26.0456 93.6115 28.9744 93.6115 28.9744C93.6115 28.9744 96.5323 34.0119 88.6992 38.6979Z" fill="#B78D55"/>
<path d="M88.1592 34.3601C84.7073 36.0002 77.6708 36.1174 70.236 38.3433C60.4114 41.1549 57.4906 50.7612 57.225 58.0246C57.0923 62.0077 54.0387 65.1708 45.2762 69.1539C38.3724 72.1998 32.398 76.8858 28.4151 79.4631C24.2994 82.0405 22.7062 85.555 16.5991 89.1866C7.17275 94.6927 4.25195 91.1782 4.25195 91.1782C5.57959 87.898 4.38471 82.8605 13.5455 77.5887C19.6527 71.9655 23.9011 67.0452 26.9547 63.6478C30.0083 60.3676 38.2397 52.2842 43.2847 44.3179C48.3298 36.3517 55.3664 24.2852 74.6173 25.2224L93.8682 29.2055C93.6026 29.0884 94.2664 31.4314 88.1592 34.3601Z" fill="#966836"/>
<path d="M64.7928 51.2267C63.9962 57.3185 68.7758 62.7074 75.2812 63.4103C81.7867 63.9961 87.7611 59.6615 88.5577 53.5697C89.3543 47.4778 84.5747 42.0889 78.0693 41.386C71.5638 40.8002 65.5894 45.1348 64.7928 51.2267Z" fill="#915F29"/>
<path d="M86.6961 49.7043C86.8288 50.6415 86.9616 51.5787 86.8288 52.633C86.165 57.9048 81.1199 61.7708 75.4111 61.185C70.8971 60.7164 67.4452 57.6705 66.5158 53.8045C66.7813 53.6874 75.1455 47.947 86.6961 49.7043Z" fill="white"/>
<path d="M70.2394 52.3997C69.7084 56.1485 72.762 59.4287 77.0105 59.8974C81.2589 60.366 84.9763 57.6715 85.5074 53.9227C86.0384 50.1739 82.9849 46.8936 78.7364 46.425C74.4879 45.9564 70.7705 48.6509 70.2394 52.3997Z" fill="black"/>
<path d="M77.9447 42.0845C82.7242 42.6703 86.3088 46.0676 86.9727 50.285C80.2017 47.942 70.2443 50.5193 66.5269 53.7996C66.3941 52.8624 66.2614 51.5737 66.3941 50.6365C67.1907 45.2476 72.103 41.3816 77.9447 42.0845Z" fill="#AF824E"/>
<path d="M66.3892 50.6488C66.9202 46.7829 69.5755 43.7369 73.1602 42.5654C73.1602 42.5654 69.4428 45.377 71.3015 51.1174C71.3015 51.1174 67.9823 52.4061 66.5219 53.8119C66.3892 52.8747 66.2564 51.7032 66.3892 50.6488Z" fill="#966836"/>
<path d="M77.9429 51.4692C77.8101 52.7578 78.8722 53.9293 80.3326 54.0465C81.793 54.1636 83.1207 53.2264 83.2534 51.9378C83.3862 50.6491 82.324 49.4776 80.8636 49.3605C79.4032 49.2433 78.0756 50.1805 77.9429 51.4692Z" fill="white"/>
<path d="M92.418 50.412C92.418 50.412 91.3559 51.935 86.9746 51.7007C86.9746 51.7007 75.9552 49.3576 66.6617 53.8094C71.0429 48.889 79.8053 46.6632 87.3729 49.1233C88.435 49.592 90.161 50.412 92.418 50.412Z" fill="#543518"/>
<path d="M27.6202 95.5215C27.6202 95.5215 19.5215 105.948 7.97099 105.011L9.82965 107.119C9.82965 107.119 18.5922 110.165 28.1512 96.5759C29.6117 94.5843 33.0635 92.4756 33.0635 92.4756C33.0635 92.4756 29.8772 93.0613 27.6202 95.5215Z" fill="#704920"/>
<path d="M14.8808 80.8672C10.7651 83.9131 9.03908 88.0134 11.1633 90.1221C13.2875 92.2308 18.3326 91.5279 22.4483 88.482C26.564 85.4361 28.29 81.3358 26.1658 79.2271C24.0416 77.1183 18.9965 77.9384 14.8808 80.8672Z" fill="#895828"/>
<path d="M14.2117 81.9231C10.4943 84.6176 9.03389 88.3664 10.8926 90.2408C12.7513 92.1152 17.2652 91.5294 21.1154 88.7178C24.8328 86.0234 26.2932 82.2745 24.4345 80.4001C22.5758 78.5257 17.9291 79.2286 14.2117 81.9231Z" fill="#D1AA75"/>
<path d="M14.8797 84.383C12.3572 86.0231 11.1623 88.2489 11.9589 89.1861C12.8882 90.2405 15.5435 89.7719 18.066 88.1318C20.5886 86.4917 21.7835 84.2658 20.9869 83.3286C20.1903 82.2742 17.4023 82.7429 14.8797 84.383Z" fill="#543518"/>
<path d="M80.727 9.05552C80.727 9.05552 78.0717 5.65815 80.3287 2.37793C83.1167 -1.72234 92.543 0.152068 94.6673 2.96368C97.8536 7.29826 93.3396 10.5785 93.3396 10.5785C86.9669 16.3189 80.727 9.05552 80.727 9.05552Z" fill="#704E25"/>
<path d="M80.7282 9.05039C80.7282 9.05039 78.0729 5.53587 80.3299 2.3728C80.3299 2.3728 80.1971 5.53586 87.6319 5.65301C91.8804 5.77016 93.8719 3.19284 92.9425 1.55273C99.5808 5.77016 93.4735 10.5733 93.4735 10.5733C86.437 13.9707 80.7282 9.05039 80.7282 9.05039Z" fill="#684621"/>
<path d="M80.7234 9.05762C88.0254 11.4006 93.336 10.4634 93.336 10.4634C92.6722 12.455 91.6101 22.0613 93.6016 28.9732C91.4773 32.8392 79.1302 35.0651 71.6954 29.4418C71.6954 29.4418 76.7404 21.5927 78.7319 16.6724C80.8561 11.7521 80.7234 9.05762 80.7234 9.05762Z" fill="#966836"/>
<path d="M80.0606 13.0376C85.3712 12.1004 87.0972 15.7321 87.23 17.6065C87.4955 20.1838 86.5661 25.1041 88.5576 32.1332C88.5576 32.1332 78.9985 34.7105 71.5637 29.5559C71.6964 29.4387 77.5381 21.0038 80.0606 13.0376Z" fill="#A87742"/>
<path d="M101.853 51.3445C101.853 51.3445 113.271 58.2564 125.618 50.993C137.965 43.7297 143.276 29.7888 147.259 24.7513C150.18 21.1196 150.18 15.965 150.18 15.965C146.728 14.9106 122.697 21.2368 113.404 27.4457C103.978 33.7719 99.9946 39.3951 99.9946 39.3951C100.26 41.2695 101.853 51.3445 101.853 51.3445Z" fill="#D1AA75"/>
<path d="M101.846 51.3506C101.846 51.3506 113.263 58.2625 125.611 50.9992C137.958 43.7358 143.268 29.7949 147.251 24.7574C150.172 21.1257 154.686 13.7452 147.384 16.5569C139.816 19.3685 127.735 26.1632 118.176 32.2551C106.625 39.5184 101.315 47.6018 101.315 47.6018L101.846 51.3506Z" fill="#AA7B4B"/>
<path d="M101.586 49.821C101.586 49.821 112.605 52.6326 119.376 45.955C123.359 41.9719 123.758 36.3487 127.209 31.8969C129.997 28.1481 129.466 25.5708 129.466 25.5708C107.427 36.9344 101.188 47.7123 101.188 47.7123L101.586 49.821Z" fill="#895C33"/>
<path d="M58.4189 84.1475C58.4189 84.1475 58.0207 88.9507 57.3568 90.2393L53.3739 92.8166L48.4616 90.5907L58.4189 84.1475Z" fill="#87592B"/>
<path d="M66.9249 82.0419L65.8628 88.2508C65.8628 88.2508 71.7045 87.6651 73.9615 87.3136C75.9529 85.0878 78.0771 82.2762 78.0771 82.2762L76.484 78.5273C76.6167 78.5273 70.3768 80.0503 66.9249 82.0419Z" fill="#87592B"/>
<path d="M46.2036 94.917L52.4436 95.9713L53.1074 98.7829C53.1074 98.7829 46.8675 100.189 44.876 100.657L41.4241 99.2516L46.2036 94.917Z" fill="#704920"/>
<path d="M55.6344 98.3277L55.369 94.9304C55.369 94.9304 60.2813 91.0644 60.6796 90.9472C61.2106 90.8301 65.5918 90.8301 65.5918 90.8301C65.5918 90.8301 65.1936 93.7588 64.6625 96.1019C60.414 97.2734 55.6344 98.3277 55.6344 98.3277Z" fill="#704920"/>
<path d="M92.418 84.3795C92.418 84.3795 89.7627 88.4797 80.7347 91.1742C76.0879 90.237 73.9637 89.4169 73.9637 89.4169C73.9637 89.4169 80.3364 84.7309 82.8589 82.9736C85.9125 83.4422 92.418 84.3795 92.418 84.3795Z" fill="#704920"/>
<path d="M81.2617 68.6865C81.2617 68.6865 80.5978 71.1467 78.4736 75.3641L72.8975 76.067C72.8975 76.1842 75.6856 73.0211 81.2617 68.6865Z" fill="#87592B"/>
<path d="M76.8779 92.5841C76.8779 92.5841 71.3019 90.5926 69.0449 89.8896L66.7878 95.5129C66.6551 95.5129 73.2933 93.7556 76.8779 92.5841Z" fill="#704920"/>
<path d="M81.7841 73.1425L80.4565 79.3515L87.3603 80.1715C87.3603 80.1715 89.4845 73.8454 89.75 70.6823C89.6172 69.5108 88.2896 66.582 88.2896 66.582L81.7841 73.1425Z" fill="#87592B"/>
<path d="M92.011 71.3768L89.223 80.1631C89.223 80.1631 93.4714 80.0459 95.3301 79.5773C96.7905 76.4142 98.1182 70.791 98.1182 70.791C98.1182 70.791 95.3301 71.2596 92.011 71.3768Z" fill="#704920"/>
<path d="M98.7827 68.1029C98.7827 68.1029 95.9947 68.8058 92.6756 69.0401C93.2066 66.4628 93.6049 63.5341 93.6049 63.5341L97.4551 60.0195L100.11 61.5425C99.7121 64.3541 98.7827 68.1029 98.7827 68.1029Z" fill="#87592B"/>
<path d="M85.6403 89.3077C85.6403 89.3077 90.8181 87.199 93.739 82.7473C96.7925 78.2956 100.244 60.9573 101.174 55.4512C101.041 62.1288 99.9789 77.1241 96.6598 84.3874C95.1994 87.6676 92.5441 90.5964 92.5441 90.5964C92.5441 90.5964 89.3577 89.1906 85.6403 89.3077Z" fill="#966B3C"/>
<path d="M100.374 60.252C100.374 60.252 101.304 56.5032 101.437 54.2773L98.5158 57.089L100.374 60.252Z" fill="#87592B"/>
<path d="M307.359 404.671C307.359 404.671 314.794 367.183 315.724 362.848C316.52 358.513 319.972 342.464 316.52 329.929C320.37 338.715 321.432 362.145 320.769 368.003C319.839 376.672 316.255 405.257 316.255 405.257C313.334 405.139 307.359 404.671 307.359 404.671Z" fill="#875931"/>
<path d="M340.281 362.031C340.281 362.031 328.199 365.897 322.889 366.952C320.499 371.403 315.321 380.775 315.321 380.775C315.321 380.775 322.225 384.758 327.536 386.633C338.688 379.838 345.061 370.583 345.061 370.583C345.061 370.583 342.804 365.077 340.281 362.031Z" fill="#603A18"/>
<path d="M311.475 383.823C311.475 383.471 319.573 388.04 325.017 389.798C318.378 397.647 307.624 403.621 307.624 403.621L311.475 383.823Z" fill="#603A18"/>
<path d="M321.964 405.26L323.955 395.537C323.955 395.537 313.068 404.323 311.873 405.026C314.396 405.26 321.964 405.26 321.964 405.26Z" fill="#603A18"/>
<path d="M410.121 346.679C410.121 346.679 408.661 358.394 400.562 372.335C400.164 369.758 399.102 364.017 399.102 364.017C399.102 364.017 406.935 352.771 409.059 345.039C409.59 345.625 410.121 346.679 410.121 346.679Z" fill="#4F2D15"/>
<path d="M396.312 379.364C396.312 379.364 390.073 388.033 387.152 391.196C387.284 388.97 390.604 378.544 392.064 375.498C392.993 376.318 396.312 379.364 396.312 379.364Z" fill="#4F2D15"/>
<path d="M316.65 401.279L316.252 405.262L311.605 405.028L316.65 401.279Z" fill="#4F2D15"/>
<path d="M311.471 383.586L307.488 403.619C307.488 403.619 315.454 399.05 317.18 397.058C317.844 394.129 318.375 386.983 318.375 386.983L311.471 383.586Z" fill="#4F2D15"/>
<path d="M319.043 382.645L320.238 371.75L315.326 380.653L319.043 382.645Z" fill="#4F2D15"/>
<path d="M435.213 668.262C435.213 668.262 422.467 674.002 409.324 669.433C406.004 675.525 402.951 686.537 402.951 686.537C402.951 686.537 418.484 693.449 437.47 684.897C437.47 675.056 435.213 668.262 435.213 668.262Z" fill="#704920"/>
<path d="M426.583 670.722C426.583 670.605 426.583 670.605 426.583 670.722C431.761 669.785 435.213 668.262 435.213 668.262C435.213 668.262 437.47 675.056 437.47 684.897C433.885 686.537 429.238 687.826 425.919 688.529C425.919 688.412 426.45 677.165 426.583 670.722Z" fill="#66401D"/>
<path d="M305.902 679.045C305.902 679.045 292.891 684.786 279.481 680.217C275.366 686.543 272.976 697.672 272.976 697.672C272.976 697.672 292.227 703.999 308.557 695.681C308.69 685.723 305.902 679.045 305.902 679.045Z" fill="#66401D"/>
<path d="M279.479 680.215C285.453 682.324 291.428 682.324 296.207 681.621C297.137 689.587 297.137 699.31 297.137 699.31C283.595 701.536 273.106 697.67 273.106 697.67C273.106 697.67 275.363 686.541 279.479 680.215Z" fill="#704920"/>
<path d="M257.036 668.965C257.036 668.965 245.087 674.705 232.342 670.019C227.695 675.642 225.173 686.42 225.173 686.42C225.173 686.42 242.565 692.161 259.16 685.014C259.293 675.291 257.036 668.965 257.036 668.965Z" fill="#5B361A"/>
<path d="M232.347 670.137C237.126 671.894 242.835 672.011 246.818 671.66C248.013 679.04 247.083 688.295 247.083 688.295C234.471 690.169 225.177 686.538 225.177 686.538C225.177 686.538 227.7 675.643 232.347 670.137Z" fill="#633C1C"/>
<path d="M214.15 271.937L222.514 274.866L223.975 270.297C223.975 270.297 212.424 254.364 207.644 247.569L193.439 235.62C193.571 235.62 210.167 261.042 214.15 271.937Z" fill="#603A18"/>
<path d="M351.171 679.035C351.171 679.035 351.968 667.906 353.959 664.977C349.843 666.149 335.505 666.852 328.999 664.274C321.166 670.249 318.511 679.504 318.511 679.504C318.511 679.504 334.708 684.424 351.171 679.035Z" fill="#5B361A"/>
<path d="M337.105 681.499C324.758 681.967 318.386 679.507 318.386 679.507C318.386 679.507 321.041 670.252 328.874 664.277C332.193 665.566 337.504 666.035 342.416 666.035C339.893 670.721 337.105 681.499 337.105 681.499Z" fill="#633C1C"/>
<path d="M101.834 90.7021L103.162 93.748C103.162 93.748 102.764 96.3253 102.498 98.6683C102.498 98.6683 96.9222 92.5765 92.5409 90.7021C94.1341 89.7649 96.1255 88.9448 96.1255 88.9448L101.834 90.7021Z" fill="#603A18"/>
<path d="M176.717 187.821L176.186 190.516L173.796 187.001L176.717 187.821Z" fill="#704920"/>
<path d="M161.712 169.316L169.279 180.563C169.279 180.563 159.455 176.814 156.136 174.94C158.658 172.479 161.712 169.316 161.712 169.316Z" fill="#603A18"/>
<path d="M118.56 105.239L127.323 117.54C127.323 117.54 128.518 115.548 128.518 114.377C128.252 112.971 120.552 104.419 120.552 104.419C120.552 104.419 119.622 104.653 118.56 105.239Z" fill="#704920"/>
<path d="M116.311 102.077C116.311 102.077 110.602 93.6417 107.15 90.8301C107.017 93.7588 106.751 102.662 106.751 102.662C106.751 102.662 113.788 102.545 116.311 102.077Z" fill="#603A18"/>
<path d="M192.114 213.957L208.71 239.027C208.71 239.027 190.388 222.04 184.679 215.597C189.193 214.66 192.114 213.957 192.114 213.957Z" fill="#603A18"/>
<path d="M143.263 140.963L134.899 140.378L126.534 129.131L132.111 124.328L143.263 140.963Z" fill="#603A18"/>
<path d="M302.979 398.574L305.236 409.235C305.236 409.235 304.307 411.929 298.598 415.327C299.793 410.172 301.917 399.16 301.917 399.16L302.979 398.574Z" fill="#603A18"/>
<path d="M297.668 420.259C297.668 420.259 296.871 426.819 296.473 430.217C294.747 429.865 292.092 429.279 292.092 429.279L291.694 424.125L297.668 420.259Z" fill="#704920"/>
<path d="M296.333 432.443L301.245 437.364C301.245 437.364 299.652 439.941 297.528 442.87L295.669 443.69L296.333 432.443Z" fill="#603A18"/>
<path d="M295.415 451.42L295.813 464.893L293.025 460.91L295.415 451.42Z" fill="#704920"/>
<path d="M308.55 376.091L302.709 395.655C302.709 395.655 303.904 395.304 304.966 394.718C306.426 393.195 312.268 380.308 312.799 377.145C311.737 376.794 308.55 376.091 308.55 376.091Z" fill="#603A18"/>
<path d="M311.744 365.78C311.744 365.78 314.797 363.671 315.594 362.968C316.258 359.688 319.842 343.638 316.39 330.049C317.054 337.664 315.594 353.362 311.744 365.78Z" fill="#603A18"/>
<path d="M295.676 470.749L295.543 474.146L294.614 472.975C294.614 473.092 295.543 471.1 295.676 470.749Z" fill="#704920"/>
<path d="M295.402 477.541L295.004 486.913C295.004 486.913 298.854 484.219 299.916 483.047C298.854 481.876 295.402 477.541 295.402 477.541Z" fill="#603A18"/>
<path d="M96.791 71.0322L92.1442 71.5008L89.3562 80.2871L92.0115 80.17C92.0115 80.0528 94.2685 77.2412 96.791 71.0322Z" fill="#87592B"/>
<path d="M87.502 83.6815L82.988 83.0957L74.0927 89.539C74.0927 89.4218 82.4569 87.7817 87.502 83.6815Z" fill="#87592B"/>
<path d="M98.65 68.0985L97.7206 68.3328C97.7206 68.3328 99.7121 62.1238 99.8449 61.4209L100.11 61.5381C100.11 61.5381 98.9155 66.6927 98.65 68.0985Z" fill="#704920"/>
<path d="M65.5918 90.8301L65.4591 91.7673C65.4591 91.7673 59.7502 93.2902 57.0949 93.5245C57.7587 92.8216 60.1485 91.1815 60.6796 90.9472C61.3434 90.7129 65.5918 90.8301 65.5918 90.8301Z" fill="#87592B"/>
<path d="M70.6406 90.3582L68.5163 90.944L68.9146 89.8896L70.6406 90.3582Z" fill="#7F5425"/>
<path d="M353.824 455.749L351.7 465.824L354.355 472.033L358.338 468.167L358.736 463.13L353.824 455.749Z" fill="#84592F"/>
<path d="M349.31 424.472L345.061 437.242L351.965 441.225L358.736 433.727L357.674 423.184L349.31 424.472Z" fill="#84592F"/>
<path d="M350.908 400.34L354.891 404.44L361.927 405.377L366.176 393.896L350.908 400.34Z" fill="#7C4F2A"/>
<path d="M350.902 414.858L345.459 422.356L335.767 419.193L335.369 418.607C335.502 418.607 344.928 417.201 350.902 414.858Z" fill="#84592F"/>
<path d="M439.86 379.028C439.86 379.028 439.86 388.166 439.064 394.961C438.002 392.501 434.948 385.706 434.948 385.706L439.86 379.028Z" fill="#704920"/>
<path d="M436.011 414.976L438.4 423.528L436.409 431.142L432.16 433.603L436.011 414.976Z" fill="#603A18"/>
<path d="M434.273 435.61L437.99 438.656L436.53 445.685L429.095 449.317L431.352 437.485L434.273 435.61Z" fill="#603A18"/>
<path d="M427.112 460.669L430.298 465.004C430.298 465.004 427.643 467.932 425.784 469.104C426.182 467.347 427.112 460.669 427.112 460.669Z" fill="#603A18"/>
<path d="M424.588 491.95L424.987 494.762L425.65 492.419L424.588 491.95Z" fill="#603A18"/>
<path d="M438.8 349.374L439.198 359.918L436.543 352.889L438.8 349.374Z" fill="#704920"/>
<path d="M432.15 321.963C432.15 321.963 437.46 333.795 438.257 343.87C438.257 343.87 440.912 339.418 441.311 336.841C440.912 334.029 437.726 327.469 437.726 327.469C437.726 327.469 434.009 323.252 432.15 321.963Z" fill="#603A18"/>
<path d="M412.507 291.743L413.171 298.772C413.171 298.772 423.659 308.964 427.244 312.947C424.456 307.09 412.507 291.743 412.507 291.743Z" fill="#704920"/>
<path d="M408.65 287.047C408.65 287.047 402.278 280.135 401.083 278.964C401.481 279.081 402.278 279.198 402.278 279.198C402.278 279.198 405.331 281.424 408.65 285.524V287.047Z" fill="#603A18"/>
<path d="M397.762 275.333L396.965 275.216C396.965 275.216 387.672 267.601 381.033 265.258C387.273 267.133 396.036 273.693 397.762 275.333Z" fill="#603A18"/>
<path d="M406.659 343.056L403.606 345.399L406.261 350.202C406.261 350.202 406.792 346.336 406.659 343.056Z" fill="#603A18"/>
<path d="M398.168 344.335C398.168 344.335 395.779 350.075 394.849 350.895C396.177 350.31 399.629 348.084 399.629 348.084C399.629 348.084 398.567 345.389 398.168 344.335Z" fill="#704920"/>
<path d="M389.406 353.716C389.406 353.716 378.785 358.636 366.172 361.213C369.093 362.854 377.856 366.485 377.856 366.485C377.856 366.485 385.822 360.511 389.406 353.716Z" fill="#603A18"/>
<path d="M341.74 364.023C341.74 364.023 334.969 364.14 333.642 364.14C334.969 363.671 340.413 362.031 340.413 362.031C340.413 362.031 341.607 363.788 341.74 364.023Z" fill="#704920"/>
<path d="M442.111 419.316C442.111 419.316 445.829 435.952 458.309 444.855C454.724 449.893 448.086 455.516 448.086 455.516C448.086 455.516 442.244 445.792 438.925 435.132C440.916 424.94 442.111 419.316 442.111 419.316Z" fill="#9E733F"/>
<path d="M456.984 443.916C456.984 443.916 454.462 449.188 446.23 452.117C449.815 461.489 465.216 491.128 500 490.191C489.113 481.521 486.989 466.526 481.147 460.903C475.439 455.28 463.755 446.61 456.984 443.916Z" fill="#603A18"/>
<path d="M234.466 393.783L227.297 389.097L231.28 406.318L238.317 413.464L238.848 403.272L234.466 393.783Z" fill="#603A18"/>
</g>
</g>
<defs>
<clipPath id="clip0_1276_9150">
<rect width="500" height="700" fill="white"/>
</clipPath>
<clipPath id="clip1_1276_9150">
<rect width="500" height="700" fill="white" transform="matrix(-1 0 0 1 500 0)"/>
</clipPath>
</defs>
</svg>
