<svg width="1000" height="700" viewBox="0 0 1000 700" fill="none" xmlns="http://www.w3.org/2000/svg">
<g clip-path="url(#clip0_1276_7911)">
<g clip-path="url(#clip1_1276_7911)">
<path d="M63.0615 431.156C64.694 430.408 66.7604 430.363 68.4446 431.397C71.8131 433.464 67.4013 438.197 64.1364 439.695C-16.949 481.399 6.77764 543.669 -33.8466 583.072C-19.497 550.301 -27.6753 453.807 63.0615 431.156Z" fill="#4C4B4B"/>
<path d="M66.8667 396.891C68.7615 397.603 70.6079 397.52 72.4058 396.64C75.9534 394.084 72.0188 390.27 68.181 388.048C-13.8725 347.84 8.25085 285.356 -33.0381 245.701C-18.0333 279.358 -24.2289 375.457 66.8667 396.891Z" fill="#4C4B4B"/>
<path d="M77.2476 525.839C94.8118 534.61 153.976 489.159 167.842 474.806C147.505 466.832 153.976 481.185 102.207 512.284C99.4339 513.878 80.0209 527.434 77.2476 525.839Z" fill="#4C4B4B"/>
<path d="M137.335 556.139C158.597 559.328 197.424 494.739 204.819 476.399C179.859 474.804 198.348 481.98 155.824 534.609C153.975 537.001 140.109 556.139 137.335 556.139Z" fill="#4C4B4B"/>
<path d="M115.143 340.838C133.632 334.458 180.778 390.276 190.947 407.021C168.76 411.806 183.552 403.034 136.405 359.178C133.632 355.988 116.992 339.243 115.143 340.838Z" fill="#4C4B4B"/>
<path d="M184.477 332.863C202.965 326.484 250.112 382.301 260.28 399.047C239.018 403.831 245.489 391.87 226.076 369.543C220.53 362.366 212.21 356.784 205.739 350.405C202.965 348.811 187.25 332.065 184.477 332.863Z" fill="#4C4B4B"/>
<path d="M270.448 316.915C290.786 317.712 310.199 383.896 312.048 402.236C288.937 399.844 307.426 395.857 282.466 340.039C281.542 336.849 273.222 316.915 270.448 316.915Z" fill="#4C4B4B"/>
<path d="M385.073 292.202C407.259 298.582 398.015 379.119 391.544 399.054C367.509 388.687 388.77 391.08 387.846 320.909C386.922 318.517 387.846 293 385.073 292.202Z" fill="#4C4B4B"/>
<path d="M460.885 272.262C483.996 268.275 524.671 340.041 532.067 360.773C505.258 363.165 524.671 355.191 481.223 296.184C478.449 293.792 463.659 272.262 460.885 272.262Z" fill="#4C4B4B"/>
<path d="M607.863 229.203C630.974 233.19 633.747 313.727 630.049 334.459C604.165 327.283 626.351 326.485 614.334 257.909C614.334 254.72 611.561 230.001 607.863 229.203Z" fill="#4C4B4B"/>
<path d="M324.992 292.998C349.028 296.187 351.801 381.509 349.028 403.836C324.068 398.254 339.783 389.482 337.934 354.397C337.01 352.005 327.765 292.998 324.992 292.998Z" fill="#4C4B4B"/>
<path d="M408.195 279.442C432.231 275.455 466.435 355.992 471.981 378.32C444.248 379.914 465.51 371.94 426.684 306.554C424.835 302.567 411.893 278.645 408.195 279.442Z" fill="#4C4B4B"/>
<path d="M528.371 245.949C553.33 245.151 572.744 329.676 574.592 351.205C546.859 349.61 569.046 344.029 541.313 273.858C540.388 270.668 532.068 245.151 528.371 245.949Z" fill="#4C4B4B"/>
<path d="M675.348 203.686C699.384 210.065 685.517 297.778 678.122 320.106C651.313 309.739 675.349 311.334 676.273 235.581C676.273 231.594 678.122 204.483 675.348 203.686Z" fill="#4C4B4B"/>
<path d="M199.269 576.873C204.816 576.873 220.531 561.723 221.455 556.938C231.624 521.055 244.567 505.905 247.34 477.996C220.531 480.388 240.869 486.767 212.211 550.559C211.287 552.951 202.042 576.873 199.269 576.873Z" fill="#4C4B4B"/>
<path d="M418.353 581.658C423.9 580.063 432.219 559.331 431.295 554.546C424.824 516.271 430.371 497.134 421.126 469.225C396.166 480.388 418.353 480.388 419.277 551.357C420.202 554.546 422.051 580.86 418.353 581.658Z" fill="#4C4B4B"/>
<path d="M560.719 568.895C567.19 566.503 576.434 543.378 575.51 536.999C567.19 491.548 573.661 469.221 562.568 436.527C546.852 443.704 546.852 445.299 551.474 460.449C563.492 503.509 565.341 567.3 560.719 568.895Z" fill="#4C4B4B"/>
<path d="M724.344 514.676C729.891 510.689 728.042 485.969 724.344 480.388C696.611 441.315 692.914 418.191 667.954 391.876C646.692 413.406 671.652 405.432 709.553 481.185C711.402 485.172 727.118 512.283 724.344 514.676Z" fill="#4C4B4B"/>
<path d="M872.259 460.45C876.881 454.071 863.015 427.757 856.544 423.77C806.624 390.279 791.833 367.155 750.233 346.422C741.914 362.37 743.763 363.965 761.327 374.331C814.944 403.835 875.032 456.463 872.259 460.45Z" fill="#4C4B4B"/>
<path d="M506.183 570.492C511.729 567.302 514.503 544.178 511.729 538.596C492.316 498.726 493.24 476.399 473.827 448.49C450.716 465.236 475.676 464.438 497.863 537.001C498.787 540.191 508.956 568.1 506.183 570.492Z" fill="#4C4B4B"/>
<path d="M646.7 537.794C652.246 534.605 655.019 511.48 652.246 505.898C632.833 466.028 633.757 443.701 614.344 415.792C590.309 433.335 615.269 427.753 638.38 504.304C639.304 508.291 649.473 536.199 646.7 537.794Z" fill="#4C4B4B"/>
<path d="M800.158 472.409C803.856 466.827 792.762 443.702 787.216 438.918C745.616 408.617 733.598 387.087 698.47 367.949C691.074 382.303 692.923 383.897 707.714 392.669C719.732 399.845 730.825 407.819 741.918 416.591C753.012 425.362 763.18 434.133 772.425 442.905C777.047 446.892 802.931 469.219 800.158 472.409Z" fill="#4C4B4B"/>
<path d="M259.359 580.06C282.47 576.073 288.017 496.333 286.168 474.804C261.208 481.183 281.546 485.967 267.679 551.354C266.755 554.543 263.057 579.263 259.359 580.06Z" fill="#4C4B4B"/>
<path d="M347.187 584.051C369.373 578.47 365.675 497.932 361.053 477.2C336.093 485.971 357.355 487.566 351.809 555.345C350.884 557.737 350.884 583.254 347.187 584.051Z" fill="#4C4B4B"/>
<path d="M291.72 574.476C318.529 572.084 318.529 494.736 326.849 471.612C301.889 476.396 315.756 491.546 312.058 517.063C311.133 517.86 294.494 573.678 291.72 574.476Z" fill="#4C4B4B"/>
<path d="M966 416.675C942.022 415.882 926.037 395.272 907.388 384.967C872.753 365.15 824.798 370.699 792.827 348.503C789.275 346.125 805.26 337.405 808.812 338.198C816.805 339.783 824.798 345.332 832.79 347.71C894.955 366.735 870.977 350.088 966 416.675Z" fill="#4C4B4B"/>
<path d="M753.935 253.127C743.766 261.101 717.882 281.036 727.126 291.402C730.824 295.389 737.295 295.389 742.842 294.591C743.766 265.885 785.366 255.519 788.139 210.067C788.139 202.891 788.139 195.714 786.29 189.335C783.517 178.969 779.819 195.714 779.819 199.701C778.895 222.028 782.592 230.002 753.935 253.127Z" fill="#4C4B4B"/>
<path d="M799.226 266.684C789.057 269.874 778.888 273.861 773.342 281.038C765.946 290.607 772.417 304.959 789.981 289.809C800.15 281.038 969.322 214.056 964.7 197.311C956.38 198.906 906.46 229.207 799.226 266.684Z" fill="#4C4B4B"/>
<path d="M965.999 293.976C886.742 326.58 887.338 329.026 833.109 328.211C824.766 328.211 831.321 306.203 837.28 307.833C839.068 308.648 842.048 312.724 843.835 313.539C859.925 324.135 872.439 307.018 965.999 293.976Z" fill="#4C4B4B"/>
<path d="M55.0625 445.299C62.4579 485.169 105.907 466.032 118.849 466.032C134.564 466.032 148.431 474.803 163.222 479.588C182.635 485.967 317.602 494.738 338.865 491.549C354.58 489.156 328.696 489.156 477.53 468.424C506.187 464.437 538.543 458.855 557.032 439.718C651.324 430.149 862.095 324.095 859.322 294.591C856.549 261.898 754.861 278.643 704.941 294.591C586.614 333.664 685.528 316.919 379.54 391.076C338.864 400.645 338.865 391.077 312.98 388.684C300.963 387.09 287.096 391.077 283.398 400.645C247.345 382.305 215.914 403.835 208.519 403.835C201.123 403.835 175.239 379.115 137.338 393.469C119.773 379.913 91.1156 371.939 71.7025 383.103C61.5337 388.684 53.2136 433.338 55.0625 445.299Z" fill="#8F5530"/>
<path opacity="0.3" d="M137.339 392.672C137.339 392.672 134.566 426.96 127.17 434.137C126.246 434.934 151.206 413.405 137.339 392.672Z" fill="white"/>
<path opacity="0.3" d="M208.518 403.034C208.518 403.034 211.292 427.753 202.047 444.498C202.047 444.498 226.083 428.55 208.518 403.034Z" fill="white"/>
<path opacity="0.3" d="M283.392 399.851C283.392 399.851 289.863 438.126 279.694 450.087C279.694 450.885 305.578 430.95 283.392 399.851Z" fill="white"/>
<path opacity="0.3" d="M382.314 389.479C382.314 389.479 390.633 424.565 384.162 448.487C385.087 448.487 408.198 414.996 382.314 389.479Z" fill="white"/>
<path opacity="0.3" d="M450.714 372.733C450.714 372.733 475.674 407.021 468.278 435.727C468.278 436.525 496.012 389.478 450.714 372.733Z" fill="white"/>
<path opacity="0.3" d="M545.932 349.612C545.932 349.612 572.74 378.318 575.514 403.038C575.514 403.038 587.531 353.599 545.932 349.612Z" fill="white"/>
<path opacity="0.3" d="M623.579 324.89C623.579 324.89 652.236 347.217 659.632 373.531C659.632 372.734 657.783 325.687 623.579 324.89Z" fill="white"/>
<path opacity="0.3" d="M704.015 294.589C704.015 294.589 738.219 315.321 738.219 338.446C739.144 338.446 747.464 296.184 704.015 294.589Z" fill="white"/>
</g>
</g>
<defs>
<clipPath id="clip0_1276_7911">
<rect width="1000" height="700" fill="white"/>
</clipPath>
<clipPath id="clip1_1276_7911">
<rect width="400" height="1000" fill="white" transform="matrix(0 1 1 0 -34 186)"/>
</clipPath>
</defs>
</svg>
