<svg width="1000" height="700" viewBox="0 0 1000 700" fill="none" xmlns="http://www.w3.org/2000/svg">
<g clip-path="url(#clip0_1276_7825)">
<path d="M74.8955 215.988L167.723 221.192L179.573 193.435L57.1201 196.037L40.332 232.468L74.8955 215.988Z" fill="#544F4E"/>
<path d="M200.312 82.3976L247.714 89.3369L314.865 159.597L358.317 138.779L265.489 71.1212L200.312 82.3976Z" fill="#544F4E"/>
<path d="M442.252 128.371L472.865 61.5802L437.314 20.812L489.653 52.9061L484.716 135.31L442.252 128.371Z" fill="#544F4E"/>
<path d="M568.652 26.0212L592.353 76.3311L580.503 162.205H629.879L615.066 61.5851L568.652 26.0212Z" fill="#544F4E"/>
<path d="M684.199 159.602L725.675 32.9605L779.002 -0.00106812L737.525 50.3087L717.775 162.205L684.199 159.602Z" fill="#544F4E"/>
<path d="M818.496 170.006L901.449 100.613L960.7 112.757L901.449 124.901L848.122 198.63L818.496 170.006Z" fill="#544F4E"/>
<path d="M74.8955 484.027L167.723 478.822L179.573 506.58L57.1201 503.977L40.332 466.679L74.8955 484.027Z" fill="#544F4E"/>
<path d="M200.312 617.598L247.714 610.659L314.865 540.399L358.317 560.349L265.489 628.875L200.312 617.598Z" fill="#544F4E"/>
<path d="M442.252 571.631L472.865 638.421L437.314 679.189L489.653 647.095L484.716 564.691L442.252 571.631Z" fill="#544F4E"/>
<path d="M568.652 673.982L592.353 623.672L580.503 536.931H629.879L615.066 637.551L568.652 673.982Z" fill="#544F4E"/>
<path d="M684.199 540.404L725.675 667.046L779.002 700.007L737.525 649.698L717.775 536.934L684.199 540.404Z" fill="#544F4E"/>
<path d="M818.496 529.999L901.449 599.392L960.7 587.248L901.449 575.105L848.122 501.375L818.496 529.999Z" fill="#544F4E"/>
<path d="M992.317 388.609C1007.13 327.023 1001.2 307.073 968.616 255.028C938.99 208.188 922.203 192.574 839.25 178.696C835.3 240.282 833.326 301.001 832.338 362.587C830.363 533.467 824.438 503.975 866.902 491.831C931.091 473.615 968.616 482.289 992.317 388.609Z" fill="#706765"/>
<path d="M837.274 541.273C845.174 541.273 855.049 541.273 858.999 535.201C862.949 529.13 859 520.455 857.025 513.516C854.062 497.903 866.9 483.157 874.8 469.278C896.526 431.98 887.638 388.609 887.638 346.973C887.638 255.028 903.438 247.221 852.087 166.552C838.262 144.867 829.373 143.132 806.66 146.602C761.234 154.408 752.347 155.276 743.459 161.348C732.596 170.022 736.546 310.542 741.484 367.791C762.222 570.765 743.459 538.671 837.274 541.273Z" fill="#7D7371"/>
<path d="M9.25382 365.731C0.475733 395.206 -6.19703 459.683 9.24929 541.745C20.4054 601.015 108.617 565.056 133.939 553.469C116.949 553.469 -5.48312 574.119 20.4979 406.929C22.1741 396.64 33.5585 383.736 41.1014 377.734C51.1586 369.16 66.2441 371.732 79.6536 373.447C84.6822 374.304 89.7109 374.304 93.9013 372.59C106.473 367.445 98.9302 356.299 90.5493 352.87C83.0064 349.44 77.1397 349.44 69.5969 349.44C48.6445 347.725 23.5015 345.153 9.25382 365.731Z" fill="#544F4E"/>
<path d="M9.25382 299.565C0.475733 270.09 -6.19703 205.612 9.24929 123.55C20.4054 64.2805 108.617 100.239 133.939 111.827C116.949 111.827 -5.48312 91.1765 20.4979 258.367C22.1741 268.655 33.5585 281.56 41.1014 287.562C51.1586 296.135 66.2441 293.563 79.6536 291.848C84.6822 290.991 89.7109 290.991 93.9013 292.706C106.473 297.85 98.9302 308.996 90.5493 312.426C83.0064 315.855 77.1397 315.855 69.5969 315.855C48.6445 317.57 23.5015 320.142 9.25382 299.565Z" fill="#544F4E"/>
<path d="M664.455 135.324C650.629 146.6 616.066 471.879 672.355 561.222C774.07 567.294 772.095 567.294 777.032 565.56C782.958 563.825 785.92 556.885 785.92 551.681C785.92 532.598 776.045 542.139 796.783 495.299C817.521 449.327 819.496 244.618 791.845 197.778C784.933 186.501 775.058 175.225 773.083 162.214C772.095 152.672 775.058 143.131 771.107 134.457C757.282 111.037 673.342 127.517 664.455 135.324Z" fill="#706765"/>
<path d="M688.151 594.177C724.69 464.933 753.328 235.937 682.226 120.571C674.326 106.693 666.426 101.488 640.75 103.223C621.987 104.958 604.211 107.56 586.436 112.765C554.835 120.571 550.885 131.848 549.897 150.931C533.109 583.768 510.396 562.95 623.962 586.37C628.899 586.37 687.164 596.779 688.151 594.177Z" fill="#7D7371"/>
<path d="M560.769 609.794C564.719 610.662 569.657 611.529 573.607 608.927C576.57 607.192 577.557 603.722 577.557 600.253C590.395 518.716 621.996 236.808 585.458 162.21C577.557 144.862 563.732 126.647 565.707 109.299C566.695 104.094 561.757 98.8896 555.832 98.0222C459.054 83.2762 430.415 115.37 429.428 168.282C421.528 583.772 420.54 553.413 426.465 560.352C436.341 574.23 529.169 601.988 560.769 609.794Z" fill="#706765"/>
<path d="M469.913 595.915C464.975 250.685 512.376 36.4352 386.96 107.563C333.634 137.922 325.734 153.535 324.746 201.243C320.796 562.953 319.808 554.279 357.334 575.964C400.786 600.252 468.925 609.793 469.913 595.915Z" fill="#7D7371"/>
<path d="M355.36 578.569C358.323 540.403 384.986 188.234 358.323 133.587C347.46 111.902 327.709 114.504 305.984 127.516C189.456 196.041 207.231 206.45 212.169 447.59C213.156 484.021 198.343 503.971 278.333 553.414C289.196 559.486 354.373 595.05 355.36 578.569Z" fill="#706765"/>
<path d="M237.843 556.017C241.793 558.62 246.731 556.017 247.718 551.68C256.606 212.523 259.568 195.175 246.73 148.335C245.743 143.998 239.818 143.13 235.868 146.6C215.13 167.418 5.77422 283.651 55.1506 359.115C102.552 431.978 155.878 508.31 237.843 556.017Z" fill="#7D7371"/>
</g>
<defs>
<clipPath id="clip0_1276_7825">
<rect width="1000" height="700" fill="white"/>
</clipPath>
</defs>
</svg>
