<svg width="600" height="600" viewBox="0 0 600 600" fill="none" xmlns="http://www.w3.org/2000/svg">
<g clip-path="url(#clip0_1956_1772)">
<g opacity="0.7">
<path d="M598.834 300.001L578.187 336.641L588.722 377.361L559.273 407.391L558.837 449.447L522.598 470.795L511.306 511.31L470.792 522.601L449.443 558.84L407.388 559.275L377.359 588.723L336.64 578.189L300 598.835L263.359 578.189L222.639 588.723L192.61 559.274L150.554 558.839L129.205 522.599L88.6902 511.308L77.3992 470.793L41.1606 449.444L40.7256 407.389L11.2774 377.361L21.8118 336.641L1.16504 300.001L21.8118 263.361L11.2775 222.641L40.7265 192.611L41.162 150.555L77.4012 129.207L88.693 88.6916L129.208 77.4005L150.556 41.1619L192.611 40.7269L222.64 11.2788L263.359 21.8131L300 1.1665L336.64 21.8131L377.36 11.279L407.39 40.7278L449.445 41.1632L470.794 77.4026L511.309 88.6943L522.6 129.209L558.839 150.558L559.274 192.613L588.722 222.641L578.187 263.361L598.834 300.001Z" fill="#FFAA00"/>
</g>
<path d="M569.646 185.488L565.057 226.461L590.166 259.168L575.101 297.549L590.823 335.664L566.305 368.814L571.641 409.698L539.41 435.412L534.033 476.292L496.253 492.799L480.442 530.878L439.663 536.976L414.513 569.647L373.54 565.057L340.834 590.167L302.453 575.101L264.338 590.824L231.188 566.305L190.303 571.642L164.59 539.411L123.71 534.034L107.202 496.254L69.1234 480.443L63.0253 439.663L30.3547 414.514L34.9443 373.541L9.83524 340.835L24.9003 302.454L9.17773 264.339L33.6963 231.189L28.3602 190.304L60.5907 164.591L65.9675 123.711L103.748 107.203L119.559 69.1244L160.338 63.0262L185.488 30.3557L226.461 34.9453L259.167 9.83604L297.548 24.9012L335.663 9.17871L368.813 33.6972L409.698 28.3609L435.411 60.5915L476.291 65.9683L492.799 103.749L530.878 119.56L536.976 160.339L569.646 185.488Z" fill="#FFDE52"/>
<path d="M300 562.164C444.789 562.164 562.163 444.789 562.163 300.001C562.163 155.212 444.789 37.8379 300 37.8379C155.212 37.8379 37.8374 155.212 37.8374 300.001C37.8374 444.789 155.212 562.164 300 562.164Z" fill="#FFB000"/>
<path d="M300 536.102C430.395 536.102 536.101 430.396 536.101 300.001C536.101 169.606 430.395 63.8999 300 63.8999C169.605 63.8999 63.8989 169.606 63.8989 300.001C63.8989 430.396 169.605 536.102 300 536.102Z" fill="#FFC533"/>
<g opacity="0.5">
<path d="M450 450C532.843 367.157 532.843 232.843 450 150C367.157 67.1574 232.843 67.1573 150 150C67.1573 232.843 67.1573 367.157 150 450C232.843 532.843 367.157 532.843 450 450Z" fill="#FFF6A6"/>
</g>
</g>
<defs>
<clipPath id="clip0_1956_1772">
<rect width="600" height="600" fill="white"/>
</clipPath>
</defs>
</svg>
