<svg width="1000" height="700" viewBox="0 0 1000 700" fill="none" xmlns="http://www.w3.org/2000/svg">
<g clip-path="url(#clip0_1276_8185)">
<g clip-path="url(#clip1_1276_8185)">
<path d="M956.24 164.66C820.099 58.2602 627.232 96.4034 499.194 183.731C250.411 14.0944 -1.61296 140.569 0.00777549 236.931C0.818142 267.044 25.9395 292.138 50.2505 286.116C51.8712 305.187 68.0785 321.248 83.4754 317.233C85.0962 339.315 102.114 357.383 119.942 356.38C118.321 380.47 138.58 403.557 158.029 398.538C161.271 433.67 193.685 460.772 221.238 451.738C214.755 468.802 218.807 491.888 230.152 504.937C228.531 517.986 235.824 530.032 243.118 540.069C252.842 554.122 262.567 569.178 272.291 583.231C279.584 594.273 286.877 604.31 294.171 614.348C310.378 634.423 329.017 651.487 349.276 663.533C368.725 675.578 393.035 683.608 410.863 668.552C415.726 684.612 425.45 702.68 439.226 699.668C445.709 697.661 450.571 690.634 455.434 683.608C470.02 659.518 485.417 636.431 500.004 612.341C514.59 636.431 529.987 659.518 544.574 683.608C548.626 690.634 553.488 697.661 560.781 699.668C573.747 702.68 583.472 684.612 589.144 668.552C606.972 682.604 631.283 675.578 650.732 663.533C670.991 650.484 689.63 634.423 705.837 614.348C713.941 604.31 721.234 594.273 727.717 583.231C737.441 569.178 747.166 554.122 756.89 540.069C763.373 530.032 770.666 517.986 769.856 504.937C782.011 491.888 786.063 469.805 778.77 451.738C806.323 460.772 837.927 433.67 841.979 398.538C861.427 403.557 881.687 380.47 880.066 356.38C897.894 357.383 914.912 338.312 916.532 317.233C931.929 321.248 948.136 305.187 949.757 286.116C973.258 292.138 999.19 267.044 1000 236.931C999.19 205.814 977.31 180.72 956.24 164.66Z" fill="#3A3529"/>
<path d="M712.316 167.672C776.335 153.619 842.785 152.615 904.373 175.702C910.856 177.71 917.339 180.721 922.201 185.74C927.063 190.759 930.305 198.789 927.873 205.815C924.632 217.86 910.045 219.868 899.511 219.868C909.235 220.872 916.528 234.924 913.287 245.966C910.045 257.007 896.269 262.026 888.166 255C898.7 259.015 899.511 278.086 890.597 286.117C881.683 294.147 868.717 292.139 858.992 287.12C871.148 295.15 874.389 317.233 864.665 329.279C854.94 341.324 835.492 339.316 828.198 326.267C839.543 337.309 841.164 359.392 831.44 372.441C821.716 385.49 802.267 387.497 790.922 375.452C799.836 386.493 802.267 405.565 794.163 417.61C786.059 429.655 767.421 430.659 760.128 417.61C767.421 425.64 765.8 441.701 757.697 448.727C749.593 455.753 736.627 452.742 731.765 441.701C739.058 447.723 740.679 459.768 736.627 468.802C731.765 477.836 721.23 480.848 713.937 475.829C717.989 482.855 720.42 490.885 719.609 498.915C718.799 506.946 713.126 514.976 705.833 515.979C698.54 516.983 691.246 509.957 692.057 500.923C696.109 513.972 697.729 530.032 690.436 541.074C683.143 552.115 665.315 554.123 659.642 541.074C662.073 550.108 663.694 559.142 662.884 568.175C662.073 577.209 657.211 586.243 649.918 588.251C642.624 590.258 632.9 583.232 633.71 574.198C635.331 582.228 636.141 591.262 634.521 599.292C632.9 607.322 627.228 615.353 619.934 616.356C612.641 617.36 605.348 608.326 607.779 600.296C614.262 611.338 607.779 629.405 596.434 631.413C585.088 634.424 572.933 620.371 575.364 607.323C580.226 619.368 572.122 636.432 560.777 637.436C549.432 638.439 538.087 624.387 540.518 611.338C531.604 616.356 520.259 610.334 514.587 601.3C508.914 592.266 507.293 580.221 506.483 569.179C500 491.889 505.673 414.599 515.397 338.312C517.828 319.241 520.259 301.173 523.501 282.101C525.932 268.049 525.121 246.97 531.604 233.921C537.277 222.879 551.053 219.868 560.777 215.853C576.174 209.83 591.571 202.804 607.779 196.781C641.814 187.747 676.66 175.702 712.316 167.672Z" fill="#70C1D6"/>
<path opacity="0.2" d="M928.681 206.819C925.439 218.865 910.853 220.872 900.318 220.872C910.042 221.876 917.335 235.929 914.094 246.97C910.853 258.012 897.076 263.03 888.973 256.004C899.507 260.019 900.318 279.091 891.404 287.121C882.49 295.151 869.524 293.143 859.8 288.125C871.955 296.155 875.196 318.238 865.472 330.283C857.368 340.32 841.971 341.324 833.057 332.29C840.351 344.336 840.351 362.403 832.247 373.445C822.523 386.494 803.074 388.501 791.729 376.456C800.643 387.498 803.074 406.569 794.97 418.614C787.677 429.656 770.659 431.664 763.366 421.626C768.228 430.66 766.607 443.709 759.314 449.731C752.831 454.75 743.107 454.75 737.434 448.728C740.676 454.75 741.486 463.784 738.245 470.81C733.382 479.844 722.848 482.856 715.554 477.837C719.606 484.863 722.037 492.893 720.416 500.923C719.606 508.954 713.933 516.984 706.64 517.988C702.588 518.991 697.726 515.98 695.295 511.965C697.726 523.006 696.916 535.052 691.243 544.086C683.95 555.127 666.122 557.135 661.26 545.089C663.691 554.123 665.312 563.157 664.501 572.191C663.691 581.225 658.829 590.259 651.535 592.266C645.863 594.274 639.38 590.259 636.949 585.24C637.759 591.263 638.57 598.289 636.949 604.312C635.328 612.342 629.655 620.372 622.362 621.376C619.121 621.376 615.069 619.368 612.638 616.357C611.827 625.391 606.965 634.425 598.861 636.432C590.758 638.44 582.654 631.413 579.413 623.383C578.602 632.417 572.119 641.451 563.205 642.455C551.86 643.459 540.515 629.406 542.946 616.357C538.894 618.364 533.222 618.364 529.17 616.357C530.791 614.349 532.411 613.346 534.032 612.342C551.05 598.289 570.499 593.27 588.327 583.232C601.293 576.206 613.448 566.168 624.793 556.131C633.707 549.104 641.811 542.078 649.914 534.048C665.311 520.999 681.519 506.946 690.433 486.871C706.64 475.829 721.227 461.777 735.003 446.72C735.003 446.72 735.003 446.72 735.003 445.716C753.641 424.637 769.849 400.547 786.056 376.456C795.781 361.4 805.505 347.347 816.04 332.29C833.868 306.192 850.885 280.094 868.713 253.996C882.49 233.921 887.352 214.849 875.197 191.763C870.334 182.729 864.662 173.695 862.231 163.657C877.628 166.669 892.214 170.684 907.611 175.702C914.094 177.71 920.577 180.721 925.439 185.74C927.06 191.763 930.302 199.793 928.681 206.819Z" fill="#3A3529"/>
<path d="M589.941 275.068L739.049 452.735C739.049 452.735 660.443 301.166 589.941 275.068Z" fill="#67AAB1"/>
<path d="M790.92 376.453L604.535 240.944C603.725 241.948 722.849 299.163 790.92 376.453Z" fill="#67AAB1"/>
<path d="M888.157 255.996L637.754 225.883C637.754 225.883 763.361 216.849 888.157 255.996Z" fill="#67AAB1"/>
<path d="M576.165 621.376L546.992 358.389C546.992 358.389 582.648 525.014 576.165 621.376Z" fill="#67AAB1"/>
<path d="M633.705 584.225L561.582 325.253C561.582 324.249 625.601 489.871 633.705 584.225Z" fill="#67AAB1"/>
<path d="M658.82 544.075L576.973 309.193C576.973 309.193 655.578 472.808 658.82 544.075Z" fill="#67AAB1"/>
<path d="M832.234 332.279L645.039 245.954C645.039 244.951 773.887 282.09 832.234 332.279Z" fill="#67AAB1"/>
<path d="M693.668 511.965L589.941 303.181C589.941 303.181 684.754 458.765 693.668 511.965Z" fill="#67AAB1"/>
<path opacity="0.25" d="M731.756 164.665C618.305 311.215 593.183 350.362 585.89 395.532C590.752 395.532 570.493 464.792 561.579 471.818C549.424 481.856 518.63 491.894 504.043 479.848C505.664 398.543 527.544 245.97 531.596 236.936C538.889 222.884 666.927 174.703 731.756 164.665Z" fill="#3A3529"/>
<path opacity="0.15" d="M829.003 200.791C838.727 209.825 839.537 229.901 833.865 243.953C821.709 272.059 791.726 281.093 781.191 310.202C772.277 335.296 769.036 324.255 758.501 317.228C749.587 311.206 735 320.24 729.328 309.198C724.465 301.168 730.948 289.123 728.517 279.085C726.086 268.044 714.741 260.014 692.051 276.074C694.482 274.066 700.965 222.874 726.896 207.818C753.639 191.757 815.226 187.742 829.003 200.791Z" fill="white"/>
<path opacity="0.15" d="M598.859 472.813C602.911 461.771 611.825 398.534 649.912 405.56C666.119 408.571 679.085 431.658 673.413 450.73C666.93 472.812 546.995 598.284 532.409 560.14C494.321 459.764 565.634 561.144 598.859 472.813Z" fill="white"/>
<path opacity="0.15" d="M692.869 172.692C676.661 194.775 652.35 205.817 629.66 215.854C602.107 227.9 572.124 241.952 556.727 273.069C548.623 290.133 545.382 310.209 542.14 330.284C537.278 353.371 531.605 375.454 524.312 396.533C521.881 403.559 511.346 435.68 505.674 429.657C508.105 399.544 510.536 370.435 514.588 340.322C517.019 321.25 519.45 303.182 522.692 284.111C525.123 270.058 525.123 248.979 530.795 235.93C536.468 224.888 550.244 222.881 559.968 218.866C575.365 211.839 590.762 205.817 606.97 199.794C635.332 189.756 663.695 179.719 692.869 172.692Z" fill="#3A3529"/>
<path opacity="0.1" d="M796.59 240.948C798.21 249.982 794.969 259.016 790.107 267.046C785.245 274.073 779.572 280.095 775.52 287.122C773.089 291.137 770.658 296.156 767.416 299.167C760.123 307.197 750.399 303.182 751.209 286.118C751.209 267.046 752.019 267.046 736.623 253.997C715.553 237.937 737.433 219.869 752.83 217.862C766.606 215.854 792.538 218.865 796.59 240.948Z" fill="#3A3529"/>
<path opacity="0.1" d="M651.537 441.696C656.399 447.719 655.589 458.76 651.537 465.786C647.485 472.813 641.002 476.828 635.33 481.847C615.071 498.911 568.88 560.141 547.81 550.103C542.138 547.092 540.517 541.069 545.379 538.058C549.431 535.046 557.534 535.046 562.397 532.035C598.863 510.956 628.847 415.598 651.537 441.696Z" fill="#3A3529"/>
<path d="M94.015 175.697C87.5321 177.705 81.0491 180.716 76.1869 185.735C71.3247 190.754 68.0831 198.784 70.5142 205.81C73.7557 217.856 88.3423 219.863 98.877 219.863C89.1526 220.867 81.8595 234.92 85.101 245.961C88.3424 257.003 102.119 262.021 110.222 254.995C99.6876 259.01 98.8771 278.082 107.791 286.112C116.705 294.142 129.671 292.135 139.395 287.116C127.24 295.146 123.999 317.229 133.723 329.274C143.447 341.319 162.896 339.312 170.189 326.263C158.844 337.304 157.224 359.387 166.948 372.436C176.672 385.485 196.121 387.493 207.466 375.447C198.552 386.489 196.121 405.56 204.225 417.606C212.328 429.651 230.967 430.655 238.26 417.606C230.967 425.636 232.588 441.696 240.691 448.722C248.795 455.749 261.761 452.738 266.623 441.696C259.33 447.719 257.709 459.764 261.761 468.798C266.623 477.832 277.158 480.843 284.451 475.824C280.399 482.851 277.968 490.881 278.779 498.911C279.589 506.941 285.262 514.971 292.555 515.975C299.848 516.979 307.141 509.952 306.331 500.918C302.279 513.967 300.658 530.028 307.952 541.069C315.245 552.111 333.073 554.118 338.746 541.069C336.314 550.103 334.694 559.137 335.504 568.171C336.315 577.205 341.177 586.239 348.47 588.246C355.763 590.254 365.488 583.227 364.677 574.194C363.057 582.224 362.246 591.258 363.867 599.288C365.488 607.318 371.16 615.348 378.453 616.352C385.747 617.356 393.04 608.322 390.609 600.292C384.126 611.333 390.609 629.401 401.954 631.408C413.299 634.42 425.455 620.367 423.024 607.318C418.161 619.363 426.265 636.427 437.61 637.431C448.956 638.435 460.301 624.382 457.87 611.333C466.784 616.352 478.129 610.329 483.801 601.295C510.543 557.129 478.939 258.006 466.784 233.916C461.111 222.875 447.335 219.863 437.61 215.848C327.401 172.686 207.466 133.539 94.015 175.697Z" fill="#70C1D6"/>
<path opacity="0.2" d="M70.5052 206.82C73.7467 218.865 88.3333 220.873 98.868 220.873C89.1437 221.877 81.8505 235.929 85.092 246.971C88.3334 258.012 102.11 263.031 110.213 256.005C99.6786 260.02 98.8681 279.091 107.782 287.121C116.696 295.152 129.662 293.144 139.386 288.125C127.231 296.155 123.99 318.238 133.714 330.283C141.818 340.321 157.215 341.325 166.129 332.291C158.835 344.336 158.835 362.404 166.939 373.446C176.663 386.495 196.112 388.502 207.457 376.457C198.543 387.498 196.112 406.57 204.216 418.615C211.509 429.657 228.527 431.664 235.82 421.626C225.285 440.698 245.544 463.785 261.752 447.724C251.217 466.796 269.856 485.868 284.442 476.834C267.424 507.951 294.167 528.026 303.891 511.966C295.787 555.128 330.633 561.15 337.926 544.086C333.064 563.158 331.443 586.244 347.651 591.263C353.323 593.271 359.806 589.256 362.237 584.237C361.427 590.26 360.616 597.286 362.237 603.309C363.858 611.339 369.531 619.369 376.824 620.373C380.065 620.373 384.117 618.365 386.548 615.354C387.359 624.388 392.221 633.422 400.324 635.429C408.428 637.437 416.532 630.41 419.773 622.38C420.584 631.414 427.067 640.448 435.981 641.452C447.326 642.456 458.671 628.403 456.24 615.354C460.292 617.361 465.964 617.361 470.016 615.354C449.757 593.271 426.256 600.297 374.393 554.124C365.479 547.098 357.375 540.071 349.272 532.041C333.875 518.992 317.667 504.939 308.753 484.864C290.925 472.819 263.373 446.721 263.373 443.709C237.441 413.596 224.475 391.513 130.473 251.99C116.696 231.914 111.834 212.843 123.989 189.756C128.852 180.722 134.524 171.688 136.955 161.65C121.558 164.662 106.972 168.677 91.5748 173.696C85.0919 175.703 78.6091 178.714 73.7469 183.733C71.3158 191.763 68.8845 199.794 70.5052 206.82Z" fill="#3A3529"/>
<path d="M409.231 275.063L260.123 452.731C259.313 452.731 338.729 301.161 409.231 275.063Z" fill="#67AAB1"/>
<path d="M208.262 376.448L394.646 240.939C394.646 241.943 276.333 299.158 208.262 376.448Z" fill="#67AAB1"/>
<path d="M110.215 255.991L360.618 225.878C361.428 225.878 235.822 216.845 110.215 255.991Z" fill="#67AAB1"/>
<path d="M423.014 621.371L452.188 358.384C452.188 358.384 416.531 525.009 423.014 621.371Z" fill="#67AAB1"/>
<path d="M364.668 584.22L436.791 325.248C436.791 324.244 373.582 489.866 364.668 584.22Z" fill="#67AAB1"/>
<path d="M340.361 544.073L422.208 309.191C422.208 309.191 343.603 472.806 340.361 544.073Z" fill="#67AAB1"/>
<path d="M166.934 332.274L354.128 245.95C354.128 244.946 225.28 282.085 166.934 332.274Z" fill="#67AAB1"/>
<path d="M305.508 511.96L409.235 303.176C409.235 303.176 314.422 458.76 305.508 511.96Z" fill="#67AAB1"/>
<path opacity="0.25" d="M267.432 164.653C380.883 311.204 406.004 350.351 413.298 395.52C408.435 395.52 428.695 464.78 437.609 471.807C449.764 481.844 480.558 491.882 495.145 479.837C494.334 433.663 489.472 387.49 483.799 341.317C467.592 219.861 474.075 234.917 438.419 219.861C386.556 196.774 321.726 173.687 267.432 164.653Z" fill="#3A3529"/>
<path opacity="0.15" d="M165.332 243.956C177.488 272.061 207.471 281.095 218.006 310.204C226.92 335.298 230.162 324.257 240.696 317.231C249.61 311.208 264.197 320.242 269.87 309.2C274.732 301.17 268.249 289.125 270.68 279.087C273.111 268.046 284.456 260.016 307.147 276.076C304.715 274.069 298.233 222.876 272.301 207.82C237.455 187.744 136.97 176.703 165.332 243.956Z" fill="white"/>
<path opacity="0.15" d="M388.987 435.67C367.107 380.463 313.623 411.58 325.779 451.731C332.262 473.814 444.092 582.221 461.92 569.172C464.351 567.164 465.972 564.153 466.783 561.141C470.024 551.104 482.99 519.987 473.265 511.957C468.403 507.942 459.489 512.96 454.627 513.964C401.953 518.983 393.85 447.715 388.987 435.67Z" fill="white"/>
<path opacity="0.15" d="M306.328 172.689C322.535 194.772 346.847 205.814 369.537 215.852C397.089 227.897 427.073 241.949 442.47 273.066C450.574 290.13 453.815 310.206 457.056 330.281C461.919 353.368 467.591 375.451 474.884 396.53C477.316 403.556 487.85 435.677 493.523 429.654C491.092 399.541 488.661 370.432 484.609 340.319C482.178 321.247 479.747 303.179 476.505 284.108C474.074 270.055 474.074 248.976 468.401 235.927C462.729 224.885 448.953 222.878 439.228 218.863C423.831 211.836 408.434 205.814 392.227 199.791C363.864 189.753 335.501 179.716 306.328 172.689Z" fill="#3A3529"/>
<path opacity="0.1" d="M208.272 266.038C213.135 273.065 218.807 279.087 222.859 286.114C227.721 293.14 234.204 307.193 243.118 300.166C251.222 294.144 245.549 279.087 248.791 268.046C251.222 261.019 256.895 257.004 262.567 252.989C283.637 236.929 261.757 218.861 246.36 216.853C212.324 213.842 190.444 236.929 208.272 266.038Z" fill="#3A3529"/>
<path opacity="0.1" d="M369.537 445.711C350.898 427.643 337.122 447.718 347.657 465.786C351.709 472.812 358.192 476.828 363.864 481.846C384.123 498.911 430.314 560.14 451.384 550.103C457.056 547.091 458.677 541.069 453.815 538.057C449.763 535.046 441.659 535.046 436.797 532.035C406.003 513.967 395.469 469.801 369.537 445.711Z" fill="#3A3529"/>
<path d="M609.401 314.23C602.918 314.23 597.246 321.257 597.246 329.287C577.797 350.366 559.159 372.449 542.141 397.543C524.313 423.641 508.106 452.751 499.192 484.871C490.278 452.751 474.07 423.641 456.242 397.543C439.224 373.453 421.396 351.37 401.137 330.291C401.137 322.261 395.465 315.234 388.982 315.234C382.499 315.234 376.826 322.261 376.826 330.291C376.826 338.321 382.499 345.347 388.982 345.347C389.792 345.347 391.413 345.347 392.223 344.344C412.482 362.411 431.931 382.487 449.759 404.57C469.208 428.66 487.036 454.758 498.381 485.875V486.879V485.875V486.879V485.875C509.726 454.758 527.554 428.66 547.003 404.57C564.831 382.487 585.09 362.411 605.349 344.344C606.16 344.344 607.781 345.347 608.591 345.347C615.074 345.347 620.747 338.321 620.747 330.291C620.747 322.261 615.884 314.23 609.401 314.23Z" fill="#3E4D4F"/>
<path d="M521.079 165.664C536.476 143.581 515.407 134.547 515.407 134.547C515.407 116.479 500.01 108.449 500.01 108.449C500.01 108.449 484.613 115.476 484.613 134.547C484.613 134.547 462.733 143.581 478.941 165.664C478.941 165.664 456.25 267.045 474.889 339.316C494.338 413.595 489.475 618.364 500.82 690.635C512.165 618.364 507.303 413.595 526.752 339.316C543.77 267.045 521.079 165.664 521.079 165.664Z" fill="#5B533C"/>
<path opacity="0.15" d="M508.911 417.604C504.049 437.68 499.187 458.759 498.376 479.838C496.756 512.962 495.135 561.143 492.704 608.32C481.358 541.068 482.979 471.808 494.324 404.555C498.376 380.465 495.135 353.363 496.755 328.269C499.187 294.141 494.324 261.016 487.031 227.892C484.6 214.843 479.738 203.802 484.6 190.753C484.6 189.749 485.41 189.749 485.41 188.745C489.462 191.756 498.376 198.783 498.376 212.836C498.376 212.836 520.256 221.869 504.049 243.952C504.859 244.956 527.549 345.333 508.911 417.604Z" fill="white"/>
<path opacity="0.3" d="M700.155 543.082C698.534 538.063 693.672 536.055 689.62 536.055C685.568 536.055 680.706 544.085 680.706 544.085C675.034 543.082 670.171 549.104 669.361 555.127C668.551 562.153 672.602 568.176 678.275 570.183C684.758 571.187 690.43 566.168 694.482 561.149C697.724 556.131 701.776 550.108 700.155 543.082Z" fill="white"/>
<path opacity="0.3" d="M744.74 491.889C743.93 488.878 740.689 486.871 737.447 486.871C734.206 486.871 730.964 492.893 730.964 492.893C726.912 492.893 723.671 495.904 722.86 500.923C722.05 505.942 725.292 509.957 728.533 510.961C732.585 511.965 736.637 507.95 739.878 504.938C743.12 500.923 745.551 495.905 744.74 491.889Z" fill="white"/>
<path opacity="0.3" d="M863.852 329.282C863.041 326.271 859.8 324.263 856.558 324.263C853.317 324.263 850.075 330.286 850.075 330.286C846.023 330.286 842.782 333.297 841.972 338.316C841.161 343.335 844.403 347.35 847.644 348.354C851.696 349.357 855.748 345.342 858.989 342.331C862.231 338.316 864.662 333.297 863.852 329.282Z" fill="white"/>
<path opacity="0.3" d="M934.349 249.98C933.539 246.969 930.298 244.961 927.056 244.961C923.815 244.961 920.573 250.984 920.573 250.984C916.522 250.984 913.28 253.995 912.47 259.014C911.659 264.033 914.901 268.048 918.142 269.052C922.194 270.056 926.246 266.041 929.487 263.029C932.729 259.014 935.97 253.995 934.349 249.98Z" fill="white"/>
<path opacity="0.3" d="M825.775 377.469C824.965 374.458 821.724 372.45 818.482 372.45C815.241 372.45 811.999 378.473 811.999 378.473C807.947 378.473 804.706 381.484 803.895 386.503C803.085 391.522 806.327 395.537 809.568 396.541C813.62 397.544 817.672 393.529 820.913 390.518C824.155 386.503 826.586 381.484 825.775 377.469Z" fill="white"/>
<path opacity="0.3" d="M638.568 596.281C637.758 593.27 634.516 591.262 631.275 591.262C628.033 591.262 624.792 597.285 624.792 597.285C620.74 597.285 617.499 600.296 616.688 605.315C615.878 610.334 619.119 614.349 622.361 615.353C626.413 616.357 630.464 612.341 633.706 609.33C636.947 605.315 639.379 601.3 638.568 596.281Z" fill="white"/>
<path opacity="0.3" d="M571.313 620.376C570.502 617.364 567.261 615.357 564.019 615.357C560.778 615.357 557.536 621.379 557.536 621.379C553.484 621.379 550.243 624.391 549.433 629.41C548.622 634.428 551.864 638.444 555.105 639.447C559.157 640.451 563.209 636.436 566.45 633.425C569.692 629.41 572.933 625.395 571.313 620.376Z" fill="white"/>
<path opacity="0.3" d="M602.926 608.327C602.926 614.35 598.874 619.369 594.012 619.369C589.15 619.369 585.098 614.35 585.098 608.327C585.098 602.304 589.15 597.286 594.012 597.286C598.874 598.289 602.926 603.308 602.926 608.327Z" fill="white"/>
<path opacity="0.3" d="M668.551 593.28C668.551 599.303 664.499 604.322 659.637 604.322C654.775 604.322 650.723 599.303 650.723 593.28C650.723 587.258 654.775 582.239 659.637 582.239C665.309 582.239 668.551 587.258 668.551 593.28Z" fill="white"/>
<path opacity="0.3" d="M709.078 510.969C709.078 516.991 705.026 522.01 700.164 522.01C695.302 522.01 691.25 516.991 691.25 510.969C691.25 504.946 695.302 499.927 700.164 499.927C705.837 499.927 709.078 504.946 709.078 510.969Z" fill="white"/>
<path opacity="0.3" d="M759.312 451.74C759.312 457.763 755.261 462.782 750.398 462.782C745.536 462.782 741.484 457.763 741.484 451.74C741.484 445.718 745.536 440.699 750.398 440.699C755.261 440.699 759.312 445.718 759.312 451.74Z" fill="white"/>
<path opacity="0.3" d="M895.465 286.12C895.465 292.143 891.413 297.162 886.551 297.162C881.689 297.162 877.637 292.143 877.637 286.12C877.637 280.098 881.689 275.079 886.551 275.079C892.223 275.079 895.465 280.098 895.465 286.12Z" fill="white"/>
<path opacity="0.3" d="M940.836 204.816C940.836 210.839 936.784 215.858 931.922 215.858C927.06 215.858 923.008 210.839 923.008 204.816C923.008 198.794 927.06 193.775 931.922 193.775C936.784 193.775 940.836 198.794 940.836 204.816Z" fill="white"/>
<path opacity="0.3" d="M971.637 222.883C971.637 228.905 967.585 233.924 962.723 233.924C957.86 233.924 953.809 228.905 953.809 222.883C953.809 216.86 957.86 211.841 962.723 211.841C967.585 212.845 971.637 217.864 971.637 222.883Z" fill="white"/>
<path opacity="0.3" d="M965.963 169.682C965.963 175.705 961.911 180.724 957.049 180.724C952.187 180.724 948.135 175.705 948.135 169.682C948.135 163.659 952.187 158.641 957.049 158.641C962.721 159.644 965.963 163.659 965.963 169.682Z" fill="white"/>
<path opacity="0.3" d="M299.035 543.082C300.656 538.063 305.518 536.055 309.57 536.055C313.622 536.055 318.484 544.085 318.484 544.085C331.45 543.082 334.692 567.172 320.915 570.183C312.001 572.191 295.794 554.123 299.035 543.082Z" fill="white"/>
<path opacity="0.3" d="M254.466 491.889C255.276 488.878 258.518 486.871 261.759 486.871C265.001 486.871 268.242 492.893 268.242 492.893C272.294 492.893 275.536 495.904 276.346 500.923C277.156 505.942 273.915 509.957 270.673 510.961C263.38 511.965 252.035 499.92 254.466 491.889Z" fill="white"/>
<path opacity="0.3" d="M135.336 329.282C136.146 326.271 139.388 324.263 142.629 324.263C145.871 324.263 149.112 330.286 149.112 330.286C158.026 329.282 160.457 346.346 150.733 348.354C144.25 349.357 132.905 336.308 135.336 329.282Z" fill="white"/>
<path opacity="0.3" d="M64.024 249.98C64.8344 246.969 68.0758 244.961 71.3173 244.961C74.5587 244.961 77.8003 250.984 77.8003 250.984C86.7144 249.98 89.1453 267.044 79.4209 269.052C73.7484 270.056 62.4033 257.007 64.024 249.98Z" fill="white"/>
<path opacity="0.3" d="M173.422 377.469C174.232 374.458 177.474 372.45 180.715 372.45C183.957 372.45 187.198 378.473 187.198 378.473C196.112 377.469 198.543 394.533 188.819 396.541C182.336 397.544 170.991 385.499 173.422 377.469Z" fill="white"/>
<path opacity="0.3" d="M360.626 596.281C361.436 593.27 364.678 591.262 367.919 591.262C371.161 591.262 374.402 597.285 374.402 597.285C378.454 597.285 381.695 600.296 382.506 605.315C383.316 610.334 380.075 614.349 376.833 615.353C372.781 616.357 368.73 612.341 365.488 609.33C362.247 605.315 359.815 601.3 360.626 596.281Z" fill="white"/>
<path opacity="0.3" d="M427.872 620.376C428.683 617.364 431.924 615.357 435.166 615.357C438.407 615.357 441.649 621.379 441.649 621.379C445.701 621.379 448.942 624.391 449.752 629.41C450.563 634.428 447.321 638.444 444.08 639.447C440.028 640.451 435.976 636.436 432.735 633.425C429.493 629.41 426.252 625.395 427.872 620.376Z" fill="white"/>
<path opacity="0.3" d="M396.27 608.327C396.27 614.35 400.321 619.369 405.184 619.369C410.046 619.369 414.098 614.35 414.098 608.327C414.098 602.304 410.046 597.286 405.184 597.286C400.321 598.289 396.27 603.308 396.27 608.327Z" fill="white"/>
<path opacity="0.3" d="M329.824 593.278C329.824 599.301 333.876 604.32 338.738 604.32C343.6 604.32 347.652 599.301 347.652 593.278C347.652 587.256 343.6 582.237 338.738 582.237C333.876 582.237 329.824 587.256 329.824 593.278Z" fill="white"/>
<path opacity="0.3" d="M289.307 510.969C289.307 516.991 293.359 522.01 298.221 522.01C303.083 522.01 307.135 516.991 307.135 510.969C307.135 504.946 303.083 499.927 298.221 499.927C293.359 499.927 289.307 504.946 289.307 510.969Z" fill="white"/>
<path opacity="0.3" d="M239.883 451.74C239.883 457.763 243.934 462.782 248.797 462.782C253.659 462.782 257.711 457.763 257.711 451.74C257.711 445.718 253.659 440.699 248.797 440.699C243.124 440.699 239.883 445.718 239.883 451.74Z" fill="white"/>
<path opacity="0.3" d="M102.92 286.117C102.92 292.14 106.972 297.159 111.834 297.159C116.696 297.159 120.748 292.14 120.748 286.117C120.748 280.095 116.696 275.076 111.834 275.076C106.972 275.076 102.92 280.095 102.92 286.117Z" fill="white"/>
<path opacity="0.3" d="M58.3496 204.818C58.3496 210.841 62.4014 215.86 67.2636 215.86C72.1258 215.86 76.1776 210.841 76.1776 204.818C76.1776 198.796 72.1258 193.777 67.2636 193.777C62.4014 193.777 58.3496 198.796 58.3496 204.818Z" fill="white"/>
<path opacity="0.3" d="M27.5586 222.886C27.5586 228.909 31.6105 233.928 36.4727 233.928C41.3349 233.928 45.3866 228.909 45.3866 222.886C45.3866 216.864 41.3349 211.845 36.4727 211.845C30.8001 212.848 27.5586 217.867 27.5586 222.886Z" fill="white"/>
<path opacity="0.3" d="M32.4219 169.682C32.4219 175.705 36.4736 180.724 41.3358 180.724C46.198 180.724 50.2499 175.705 50.2499 169.682C50.2499 163.659 46.198 158.641 41.3358 158.641C36.4736 159.644 32.4219 163.659 32.4219 169.682Z" fill="white"/>
<path opacity="0.3" d="M760.135 384.487C764.61 384.487 768.239 379.993 768.239 374.45C768.239 368.906 764.61 364.412 760.135 364.412C755.659 364.412 752.031 368.906 752.031 374.45C752.031 379.993 755.659 384.487 760.135 384.487Z" fill="white"/>
<path opacity="0.3" d="M704.215 382.477C704.215 387.496 700.974 392.515 696.111 392.515C691.249 392.515 688.008 388.5 688.008 382.477C688.008 376.455 691.249 372.439 696.111 372.439C700.974 372.439 704.215 377.458 704.215 382.477Z" fill="white"/>
<path opacity="0.3" d="M642.633 402.55C642.633 407.569 639.392 412.588 634.529 412.588C629.667 412.588 626.426 408.573 626.426 402.55C626.426 396.528 629.667 392.513 634.529 392.513C639.392 392.513 642.633 396.528 642.633 402.55Z" fill="white"/>
<path opacity="0.3" d="M585.094 424.64C585.094 429.659 581.853 434.678 576.99 434.678C572.128 434.678 568.887 430.663 568.887 424.64C568.887 419.621 572.128 414.603 576.99 414.603C581.853 414.603 585.094 418.618 585.094 424.64Z" fill="white"/>
<path opacity="0.3" d="M743.923 376.458C743.923 379.47 741.492 382.481 739.061 382.481C736.63 382.481 734.199 379.47 734.199 376.458C734.199 373.447 736.63 370.436 739.061 370.436C741.492 370.436 743.923 373.447 743.923 376.458Z" fill="white"/>
<path opacity="0.3" d="M666.13 389.508C666.13 392.519 663.7 395.531 661.268 395.531C658.837 395.531 656.406 392.519 656.406 389.508C656.406 386.497 658.837 383.486 661.268 383.486C663.7 382.482 666.13 385.493 666.13 389.508Z" fill="white"/>
<path opacity="0.3" d="M612.654 411.579C612.654 414.591 610.223 417.602 607.792 417.602C605.361 417.602 602.93 414.591 602.93 411.579C602.93 408.568 605.361 405.557 607.792 405.557C611.033 405.557 612.654 408.568 612.654 411.579Z" fill="white"/>
<path opacity="0.3" d="M795.789 373.447C795.789 376.459 793.358 379.47 790.927 379.47C788.496 379.47 786.064 376.459 786.064 373.447C786.064 370.436 788.496 367.425 790.927 367.425C793.358 367.425 795.789 369.432 795.789 373.447Z" fill="white"/>
<path opacity="0.3" d="M834.685 379.47C834.685 382.481 832.254 385.492 829.823 385.492C827.392 385.492 824.961 382.481 824.961 379.47C824.961 376.459 827.392 373.447 829.823 373.447C832.254 373.447 834.685 376.459 834.685 379.47Z" fill="white"/>
<path opacity="0.3" d="M231.777 376.465C231.777 381.484 235.019 386.503 239.881 386.503C244.743 386.503 247.985 382.488 247.985 376.465C247.985 370.442 244.743 366.427 239.881 366.427C235.019 366.427 231.777 371.446 231.777 376.465Z" fill="white"/>
<path opacity="0.3" d="M294.98 382.488C294.98 387.507 298.222 392.526 303.084 392.526C307.946 392.526 311.188 388.511 311.188 382.488C311.188 376.466 307.946 372.451 303.084 372.451C298.222 372.451 294.98 377.47 294.98 382.488Z" fill="white"/>
<path opacity="0.3" d="M363.865 412.601C368.341 412.601 371.969 408.107 371.969 402.564C371.969 397.02 368.341 392.526 363.865 392.526C359.39 392.526 355.762 397.02 355.762 402.564C355.762 408.107 359.39 412.601 363.865 412.601Z" fill="white"/>
<path opacity="0.3" d="M414.111 424.644C414.111 429.662 417.353 434.681 422.215 434.681C427.077 434.681 430.319 430.666 430.319 424.644C430.319 419.625 427.077 414.606 422.215 414.606C417.353 414.606 414.111 418.621 414.111 424.644Z" fill="white"/>
<path opacity="0.3" d="M262.568 379.481C262.568 382.492 265 385.504 267.431 385.504C269.862 385.504 272.293 382.492 272.293 379.481C272.293 376.47 269.862 373.458 267.431 373.458C264.189 373.458 262.568 376.47 262.568 379.481Z" fill="white"/>
<path opacity="0.3" d="M333.066 389.519C333.066 392.531 335.497 395.542 337.928 395.542C340.36 395.542 342.791 392.531 342.791 389.519C342.791 386.508 340.36 383.497 337.928 383.497C334.687 382.493 333.066 385.504 333.066 389.519Z" fill="white"/>
<path opacity="0.3" d="M385.742 411.602C385.742 414.614 388.173 417.625 390.604 417.625C393.035 417.625 395.466 414.614 395.466 411.602C395.466 408.591 393.035 405.58 390.604 405.58C388.173 405.58 385.742 408.591 385.742 411.602Z" fill="white"/>
<path opacity="0.3" d="M202.598 373.446C202.598 376.457 205.029 379.469 207.46 379.469C209.891 379.469 212.322 376.457 212.322 373.446C212.322 370.435 209.891 367.423 207.46 367.423C205.029 367.423 202.598 369.431 202.598 373.446Z" fill="white"/>
<path opacity="0.3" d="M163.701 379.481C163.701 382.492 166.132 385.504 168.563 385.504C170.995 385.504 173.426 382.492 173.426 379.481C173.426 376.47 170.995 373.458 168.563 373.458C166.132 373.458 163.701 376.47 163.701 379.481Z" fill="white"/>
</g>
</g>
<defs>
<clipPath id="clip0_1276_8185">
<rect width="1000" height="700" fill="white"/>
</clipPath>
<clipPath id="clip1_1276_8185">
<rect width="1000" height="600" fill="white" transform="translate(0 100)"/>
</clipPath>
</defs>
</svg>
