<svg width="1000" height="470" viewBox="0 0 1000 470" fill="none" xmlns="http://www.w3.org/2000/svg">
<g clip-path="url(#clip0_2175_549)">
<path d="M677.938 257.244C676.831 261.407 677.121 265.978 679.114 270.174C681.104 274.378 684.457 277.5 688.409 279.274L743.158 303.948L743.83 327.888L739.159 349.175L763.172 335.205L759.425 304.732C759.143 302.472 758.386 300.238 757.099 298.174C755.798 296.093 754.135 294.438 752.231 293.176L703.799 261.389C703.799 261.389 728.702 242.975 733.487 224.145C735.57 215.923 728.95 205.117 720.699 201.322C712.443 197.51 700.625 199.804 695.685 206.703C687.904 217.603 677.938 257.244 677.938 257.244Z" fill="#717A8E"/>
<path d="M763.172 335.204L739.159 349.174L743.689 328.552L763.172 335.204Z" fill="#484959"/>
<path d="M761.235 148.998C764.084 141.169 753.634 144.094 747.847 135.309C745.255 131.352 746.436 123.693 742.659 118.601C739.635 114.491 731.991 113.356 728.176 108.734C724.831 104.658 730.164 99.429 721.272 92.6318C713.598 86.7298 708.804 94.7898 704.129 89.8004C699.218 84.5377 709.8 75.8384 697.328 68.9731C688.345 64.0605 688.123 72.504 680.8 67.174C673.156 61.6388 684.128 56.5385 670.911 48.0697C662.074 42.4236 659.443 52.2058 651.436 47.5579C642.668 42.4576 652.416 34.5853 639.977 29.2894C629.194 24.6834 625.922 34.4063 620.075 31.6177C610.412 26.9349 616.084 17.3063 604.412 14.1421C593.183 11.123 592.362 19.1229 584.389 18.3046C574.714 17.3063 579.727 5.61317 566.895 4.73459C556.039 3.99312 555.535 11.558 549.037 11.3109C540.363 10.9781 545.359 0.00195312 530.127 0.00195312C519.447 0.00195312 521.684 10.2104 510.567 9.76679C504.318 9.5109 501.225 0.0019828 489.762 3.57481C479.569 6.74766 481.314 13.2296 475.882 14.6365C470.061 16.1378 465.193 5.78429 455.42 12.5046C445.611 19.2852 450.09 25.0755 445.179 27.9331C440.09 30.9181 433.627 23.507 424.806 30.4064C415.696 37.5363 422.077 44.6837 418.057 48.7683C413.976 52.9647 405.221 46.7902 400.037 55.6939C394.48 65.2124 401.081 68.7259 398.039 73.6131C394.955 78.585 384.707 76.2655 381.349 85.5701C377.837 95.3951 381.105 98.3287 378.898 103.6C377.611 106.67 370.613 106.653 368.59 113.416C365.578 123.386 369.774 128.282 368.915 131.352C368 134.644 359.983 135.275 357.913 141.996C355.232 150.653 362.028 156.538 361.301 159.548C360.471 163.002 351.895 160.614 347.233 170.925C345.689 174.337 347.938 184.869 347.233 187.565C345.907 192.554 343.007 195.659 336.459 200.511C331.822 203.931 322.681 202.721 317.852 207.769C310.431 215.479 313.964 220.315 308.643 224.358C303.66 228.153 296.628 223.923 288.193 229.236C277.346 236.085 280.22 243.036 275.156 246.907C269.968 250.899 261.576 250.609 256.635 254.396C251.288 258.515 249.424 266.686 244.65 270.344C238.961 274.72 230.539 274.506 226.172 277.892C216.813 285.108 201.681 299.239 210.804 296.186C231.818 289.185 229.055 286.447 253.444 274.498C264.925 268.86 276.063 257.517 290.914 250.353C303.404 244.323 319.148 242.686 333.16 236.051C346.143 229.893 357.327 218.763 370.998 212.435C384.33 206.243 400.088 204.904 413.515 198.848C427.211 192.674 438.674 181.782 451.874 176.085C466.074 169.962 481.883 169.109 494.783 163.889C509.968 157.808 522.129 147.489 534.378 143.301C554.054 136.572 569.722 137.877 577.832 138.329C583.991 139.685 591.545 135.88 598.599 137.365C604.976 138.721 610.579 145.305 617.466 146.652C623.967 147.924 631.637 143.941 638.429 145.118C645.072 146.286 650.958 152.606 657.685 153.569C664.448 154.533 671.874 150.115 678.554 150.789C685.424 151.505 691.793 157.356 698.431 157.68C705.438 158.03 712.29 152.828 718.825 152.606C725.986 152.375 733.287 157.075 739.587 156.06C746.816 154.891 755.503 151.437 761.235 148.998Z" fill="#735983"/>
<path d="M226.172 277.892C230.539 274.506 238.961 274.72 244.65 270.344C249.424 266.686 251.288 258.515 256.635 254.396C261.576 250.609 269.968 250.899 275.156 246.907C280.22 243.036 277.346 236.085 288.193 229.236C296.628 223.923 303.66 228.153 308.643 224.358C313.964 220.315 310.431 215.479 317.852 207.769C322.681 202.721 331.822 203.931 336.459 200.511C343.007 195.659 345.907 192.554 347.233 187.565C347.938 184.869 345.689 174.337 347.233 170.925C351.895 160.614 360.471 163.002 361.301 159.548C362.028 156.538 355.232 150.653 357.913 141.996C359.983 135.275 368 134.644 368.915 131.352C369.774 128.282 365.578 123.386 368.59 113.416C370.613 106.653 377.611 106.67 378.898 103.6C381.105 98.3287 377.837 95.3951 381.349 85.5701C384.707 76.2655 394.955 78.585 398.039 73.6131C401.081 68.7259 394.48 65.2124 400.037 55.6939C405.221 46.7902 413.976 52.9647 418.057 48.7683C422.077 44.6837 415.696 37.5363 424.806 30.4064C433.627 23.507 440.09 30.9181 445.179 27.9331C450.09 25.0755 445.611 19.2852 455.42 12.5046C465.193 5.78429 470.061 16.1378 475.882 14.6365C481.314 13.2296 479.569 6.74766 489.762 3.57481C501.225 0.0019828 504.318 9.5109 510.567 9.76679C521.684 10.2104 519.447 0.00195312 530.127 0.00195312C545.359 0.00195312 540.363 10.9781 549.037 11.3109C555.535 11.558 556.039 3.99312 566.895 4.73459C579.727 5.61317 574.714 17.3063 584.389 18.3046C592.362 19.1229 593.183 11.123 604.412 14.1421C616.084 17.3063 610.412 26.9349 620.075 31.6177C625.922 34.4063 629.194 24.6834 639.977 29.2894C652.416 34.5853 642.668 42.4576 651.436 47.5579C659.443 52.2058 662.074 42.4236 670.911 48.0697C684.128 56.5385 673.156 61.6388 680.8 67.174C688.123 72.504 688.345 64.0605 697.328 68.9731C709.8 75.8384 699.218 84.5377 704.129 89.8004C708.804 94.7898 713.598 86.7298 721.272 92.6318C730.164 99.429 724.831 104.658 728.176 108.734C731.991 113.356 739.635 114.491 742.659 118.601C746.436 123.693 745.255 131.352 747.847 135.309C753.634 144.094 764.084 141.169 761.235 148.998C755.503 151.437 746.816 154.891 739.587 156.06C736.38 156.58 732.919 155.616 729.344 154.585C729.844 150.874 729.429 146.943 723.12 143.463C714.134 138.525 713.92 147.002 706.58 141.664C698.949 136.136 710.806 131.019 700.138 123.719C694.462 119.83 692.135 126.048 687.447 123.386C678.644 118.372 689.573 113.05 677.122 107.762C673.204 106.073 669.645 112.086 665.462 111.079C655.765 108.751 661.804 100.009 654.11 96.4352C644.755 92.1113 642.762 104.427 635.076 100.444C625.567 95.4719 636.085 87.6258 624.421 84.4696C613.201 81.4339 615.939 91.5148 607.965 90.6869C598.299 89.6808 604.98 78.5422 592.165 77.3737C582.383 76.4785 585.116 85.8346 578.602 85.5787C569.945 85.246 578.512 71.8131 562.366 73.6131C558.375 74.048 557.711 84.0688 552.152 84.6915C546.137 85.3823 545.478 72.9476 537.681 74.048C529.015 75.2926 531.227 87.7875 524.357 87.5831C516.769 87.3272 520.131 76.717 510.336 78.9431C499.942 81.2889 505.592 87.5062 500.554 90.0223C492.551 94.0047 494.099 80.9221 483.209 85.5787C474.864 89.1524 482.786 96.6658 477.876 99.5574C475.061 101.186 468.533 93.783 462.315 97.7663C456.078 101.766 462.263 108.964 456.523 112.393C453.803 114.039 448.969 108.418 443.421 111.967C437.634 115.643 444.525 122.687 440.513 126.832C436.428 130.985 433.408 124.564 426.95 131.019C419.165 138.824 427.763 141.664 424.726 146.55C421.641 151.505 415.837 141.902 408.724 151.856C407.949 152.921 410.071 162.15 409.823 163.172C408.056 170.379 402.269 163.625 397.158 170.925C391.52 178.968 400.965 182.584 398.928 189.331C396.217 198.371 394.814 201.79 394.802 204.921C386.674 207.01 378.462 208.981 370.998 212.435C357.327 218.763 346.143 229.893 333.16 236.051C319.148 242.686 303.404 244.323 290.914 250.353C276.063 257.517 264.925 268.86 253.444 274.498C229.055 286.447 231.818 289.185 210.804 296.186C201.681 299.239 216.813 285.108 226.172 277.892Z" fill="#88495E"/>
<path d="M417.111 49.5267C417.428 49.3214 417.758 49.0742 418.056 48.7668C418.742 48.076 419.096 47.3005 419.314 46.4473L489.98 165.61C488.851 165.969 487.696 166.267 486.541 166.6L417.111 49.5267Z" fill="#733D4F"/>
<path d="M397.111 74.7207C397.463 74.3801 397.792 74.0211 398.04 73.6124C398.549 72.8019 398.767 72.043 398.84 71.2666L473.804 169.662C472.572 169.91 471.332 170.208 470.078 170.507L397.111 74.7207Z" fill="#733D4F"/>
<path d="M359.424 161.33C360.416 160.904 361.101 160.409 361.301 159.548C361.405 159.181 361.378 158.805 361.276 158.396L418.604 196.306C417.429 196.929 416.218 197.509 415.008 198.098L359.424 161.33Z" fill="#733D4F"/>
<path d="M503.57 159.76L443.418 28.571C444.004 28.4601 444.598 28.2733 445.18 27.9318C445.71 27.6418 446.112 27.2837 446.437 26.9082L506.637 158.14C505.627 158.702 504.592 159.231 503.57 159.76Z" fill="#733D4F"/>
<path d="M368.137 132.614C368.509 132.213 368.779 131.83 368.915 131.352C369.125 130.593 369.031 129.715 368.804 128.691L436.985 184.537C435.992 185.186 434.991 185.877 433.995 186.55L368.137 132.614Z" fill="#733D4F"/>
<path d="M378.898 103.6C379.434 102.312 379.639 101.203 379.711 100.086L455.283 174.772C454.141 175.216 453.003 175.608 451.874 176.086C451.84 176.12 451.797 176.128 451.742 176.154L378.693 103.958C378.762 103.839 378.847 103.719 378.898 103.6Z" fill="#733D4F"/>
<path d="M517.326 151.907L473.521 14.6372C474.291 14.8163 475.066 14.8512 475.882 14.6372C476.293 14.5263 476.67 14.3814 477.003 14.2285L520.388 150.108C519.387 150.696 518.348 151.293 517.326 151.907Z" fill="#733D4F"/>
<path d="M534.378 143.301C533.694 143.531 533.019 143.855 532.326 144.103L509.668 9.63953C509.968 9.70765 510.251 9.75046 510.567 9.76706C511.537 9.79239 512.389 9.74172 513.184 9.62207L535.623 142.892C535.204 143.037 534.806 143.156 534.378 143.301Z" fill="#733D4F"/>
<path d="M695.01 157.032C693.897 156.708 692.764 156.291 691.644 155.787L726.952 105.639C727.102 106.722 727.402 107.779 728.176 108.735C728.33 108.905 728.526 109.041 728.698 109.238L695.01 157.032Z" fill="#733D4F"/>
<path d="M673.841 151.017C672.361 151.265 670.847 151.589 669.354 151.973L703.8 89.3379C703.923 89.4829 703.996 89.6287 704.129 89.799C704.972 90.6776 705.797 91.1378 706.648 91.3509L673.841 151.017Z" fill="#733D4F"/>
<path d="M584.389 18.3028C584.813 18.3368 585.206 18.3367 585.604 18.3367L577.353 138.284C576.309 138.233 575.137 138.173 573.875 138.105L582.173 17.7734C582.815 18.004 583.529 18.2084 584.389 18.3028Z" fill="#733D4F"/>
<path d="M346.84 188.776C346.985 188.383 347.122 187.983 347.233 187.564C347.37 187.01 347.387 186.183 347.357 185.134L388.223 206.626C386.58 207.061 384.972 207.522 383.359 207.982L346.84 188.776Z" fill="#733D4F"/>
<path d="M684.167 68.8957L647.54 149.143C646.526 148.529 645.52 147.983 644.507 147.437L681.074 67.3604C682.272 68.1883 683.294 68.6572 684.167 68.8957Z" fill="#733D4F"/>
<path d="M551.462 10.9863L555.218 138.601C554.081 138.729 552.929 138.874 551.745 139.053L548.002 11.1908C548.327 11.2248 548.652 11.3017 549.037 11.3104C549.953 11.3445 550.731 11.216 551.462 10.9863Z" fill="#733D4F"/>
<path d="M595.143 137.05L618.847 30.9102C619.245 31.1407 619.617 31.3879 620.075 31.6184C620.793 31.9424 621.473 32.0962 622.132 32.1215L598.611 137.366H598.598C597.452 137.135 596.284 137.059 595.143 137.05Z" fill="#733D4F"/>
<path d="M617.17 146.566L650.631 47.002C650.892 47.2063 651.132 47.3774 651.435 47.5565C652.278 48.042 653.031 48.3495 653.75 48.5451L620.741 146.856C619.617 146.907 618.517 146.838 617.465 146.651C617.358 146.625 617.272 146.592 617.17 146.566Z" fill="#733D4F"/>
<path d="M494.057 233.226H601.879L603.685 287.835C603.911 294.59 603.115 301.473 601.118 308.329C599.151 315.153 596.127 321.429 592.328 327.016L539.165 405.164C537.309 408.584 536.287 412.516 536.402 416.67C536.543 420.841 537.818 424.721 539.897 428.005L558.593 457.599L585.271 462.912L595.048 470H534.521C532.078 470 529.627 469.224 527.535 467.62C525.448 466.017 524.071 463.817 523.467 461.471L509.857 409.343C509.493 408.031 509.331 406.683 509.323 405.259C509.323 403.851 509.477 402.478 509.818 401.182L539.91 282.88L494.057 233.226Z" fill="#717A8E"/>
<path d="M579.5 461.738L585.27 462.915L595.048 470.003H579.5V461.738Z" fill="#484959"/>
<path d="M560.826 466.591C560.826 465.67 561.211 464.74 561.985 464.118C562.76 463.495 563.739 463.274 564.641 463.461L565.938 463.709L574.612 470.003H560.826V466.591Z" fill="#484959"/>
<path d="M873.237 29.9374C873.237 29.9374 804.098 15.9674 775.628 42.5772C734.809 80.7343 743.385 152.094 700.017 142.789C675.602 137.535 724.475 212.383 724.475 212.383C724.475 212.383 770.525 222.149 785.86 184.247C798.174 153.825 799.868 122.388 820.544 104.427C829.287 96.8448 877.022 95.7959 877.022 95.7959L873.237 29.9374Z" fill="#7D859E"/>
<path d="M718.688 140.707C741.872 127.812 742.004 73.9867 775.628 42.5762C804.098 15.9664 873.237 29.9364 873.237 29.9364L873.994 43.0871C848.082 38.8741 807.533 35.8462 788.969 53.2108C748.124 91.3941 762.946 183.129 719.591 173.816C719.266 173.747 719 173.747 718.688 173.705V140.707Z" fill="#6B7187"/>
<path d="M727.235 244.529C736.153 239.599 743.438 231.565 747.252 221.253C751.073 210.959 750.769 200.137 747.202 190.576L733.685 154.432C732.363 150.909 730.088 147.651 726.91 145.092C723.749 142.551 720.075 141.067 716.332 140.512C716.332 140.512 617.094 113.886 574.368 120.402C438.965 140.999 227.545 290.251 112.075 347.18C62.8729 371.436 16.2497 337.935 0 310.37C9.48703 340.494 58.8091 382.984 116.074 367.137C234.431 334.395 309.538 260.725 477.649 287.317C477.649 287.317 571.219 307.027 636.419 295.974C667.78 290.635 727.235 244.529 727.235 244.529Z" fill="#8892AC"/>
<path d="M106.741 360.483C225.077 327.716 308.211 240.749 476.318 267.375C476.318 267.375 569.885 287.076 635.076 276.006C666.454 270.684 749.562 211.836 749.562 211.836C749.151 214.983 748.39 218.155 747.252 221.251C743.437 231.563 736.153 239.597 727.235 244.527C727.235 244.527 667.78 290.633 636.419 295.972C571.219 307.025 477.649 287.315 477.649 287.315C309.537 260.723 234.431 334.393 116.074 367.135C73.707 378.862 35.7195 358.666 14.9619 335.152C36.6524 356.696 69.4803 370.803 106.741 360.483Z" fill="#A0ABCC"/>
<path d="M735.007 169.774C735.007 169.774 635.781 143.148 593.06 149.646C457.635 170.269 233.55 298.899 118.071 355.828C68.8822 380.092 13.3493 340.536 0 310.37C16.2497 337.935 62.8729 371.436 112.075 347.18C227.545 290.251 438.965 140.999 574.368 120.402C617.094 113.886 716.332 140.512 716.332 140.512C720.075 141.067 723.749 142.551 726.91 145.092C730.088 147.651 732.363 150.909 733.685 154.432L739.909 171.122C738.322 170.49 736.679 170.014 735.007 169.774Z" fill="#788099"/>
<path d="M1000 83.8044L997.126 77.0578C995.791 73.8849 993.717 70.9854 990.873 68.6397C988.062 66.3035 984.816 64.7682 981.463 64.0346L962.642 59.8635L887.917 35.2502L883.332 31.2327C881.562 29.6974 879.371 28.632 876.894 28.2477C874.426 27.8643 872.005 28.2398 869.858 29.1516L857.702 34.4571C845.568 39.7618 837.038 51.7449 836.859 65.8083C836.688 79.8463 843.677 91.7779 856.924 97.6371C864.409 100.981 880.304 104.187 889.038 104.187C917.94 104.187 940.618 88.2392 968.639 87.13C973.75 86.9169 983.644 92.094 988.656 91.1045C994.431 90.0295 1000 83.8044 1000 83.8044Z" fill="#8892AC"/>
<path d="M544.909 281.347C546.102 289.236 545.875 297.449 543.977 305.713C542.056 313.952 538.63 321.466 534.075 328.033L478.401 408.05C476.519 410.762 475.125 413.841 474.359 417.243C473.619 420.647 473.58 424.041 474.141 427.282L479.432 457.601L506.109 462.914L515.905 470.002H457.793C454.931 470.002 452.087 468.893 449.927 466.676C447.788 464.493 446.753 461.61 446.826 458.77L448.216 408.237C448.246 407.256 448.34 406.301 448.515 405.304C448.691 404.314 448.968 403.376 449.285 402.455L482.987 305.953C456.274 287.044 426.256 264.818 419.866 225.39C416.012 201.527 434.37 178.354 457.866 167.659C481.344 156.973 514.347 155.975 526.465 176.845C539.798 199.787 544.909 281.347 544.909 281.347Z" fill="#8E97B4"/>
<path d="M498.57 461.388L506.111 462.914L515.906 470.002H498.57V461.388Z" fill="#404250"/>
<path d="M479.813 467.367C479.813 466.31 480.267 465.277 481.144 464.545C482.034 463.811 483.15 463.572 484.207 463.785L486.042 464.16L494.1 470.003H479.813V467.367Z" fill="#404250"/>
<path d="M662.6 257.244C661.479 261.407 661.774 265.978 663.771 270.174C665.761 274.378 669.123 277.5 673.045 279.274L727.812 303.948L728.475 327.888L723.809 349.175L747.834 335.205L744.074 304.732C743.805 302.472 743.048 300.238 741.756 298.174C740.473 296.093 738.805 294.438 736.884 293.176L688.456 261.389C688.456 261.389 713.368 242.975 718.132 224.145C720.224 215.923 713.62 205.117 705.36 201.322C697.105 197.51 685.282 199.804 680.35 206.703C672.544 217.603 662.6 257.244 662.6 257.244Z" fill="#8E97B4"/>
<path d="M747.835 335.204L723.81 349.174L728.335 328.552L747.835 335.204Z" fill="#404250"/>
<path d="M643.764 173.927C643.764 181.449 649.889 187.564 657.434 187.564C664.987 187.564 671.117 181.449 671.117 173.927C671.117 166.396 664.987 160.272 657.434 160.272C649.889 160.272 643.764 166.396 643.764 173.927Z" fill="#788099"/>
<path d="M596.404 165.943C596.404 173.107 602.222 178.916 609.403 178.916C616.593 178.916 622.419 173.107 622.419 165.943C622.419 158.797 616.593 152.963 609.403 152.963C602.222 152.963 596.404 158.797 596.404 165.943Z" fill="#788099"/>
<path d="M614.403 197.866C614.403 203.563 619.044 208.16 624.746 208.16C630.456 208.16 635.076 203.563 635.076 197.866C635.076 192.177 630.456 187.563 624.746 187.563C619.044 187.563 614.403 192.177 614.403 197.866Z" fill="#788099"/>
<path d="M554.358 168.928C554.358 175.555 559.74 180.912 566.374 180.912C573.007 180.912 578.397 175.555 578.397 168.928C578.397 162.319 573.007 156.963 566.374 156.963C559.74 156.963 554.358 162.319 554.358 168.928Z" fill="#788099"/>
<path d="M571.043 192.879C571.043 198.763 575.825 203.523 581.719 203.523C587.626 203.523 592.391 198.763 592.391 192.879C592.391 187.011 587.626 182.252 581.719 182.252C575.825 182.252 571.043 187.011 571.043 192.879Z" fill="#788099"/>
<path d="M529.695 177.929C529.695 181.775 532.826 184.889 536.688 184.889C540.559 184.889 543.703 181.775 543.703 177.929C543.703 174.057 540.559 170.927 536.688 170.927C532.826 170.927 529.695 174.057 529.695 177.929Z" fill="#788099"/>
<path d="M683.776 174.576C683.776 179.54 687.815 183.565 692.797 183.565C697.763 183.565 701.805 179.54 701.805 174.576C701.805 169.63 697.763 165.612 692.797 165.612C687.815 165.612 683.776 169.63 683.776 174.576Z" fill="#788099"/>
<path d="M716.474 181.893C716.474 185.757 719.613 188.878 723.48 188.878C727.359 188.878 730.498 185.757 730.498 181.893C730.498 178.056 727.359 174.926 723.48 174.926C719.613 174.926 716.474 178.056 716.474 181.893Z" fill="#788099"/>
<path d="M651.115 206.181C651.115 209.839 654.088 212.833 657.767 212.833C661.454 212.833 664.448 209.839 664.448 206.181C664.448 202.496 661.454 199.527 657.767 199.527C654.088 199.527 651.115 202.496 651.115 206.181Z" fill="#788099"/>
<path d="M543.031 207.862C543.031 212.067 546.458 215.479 550.693 215.479C554.927 215.479 558.374 212.067 558.374 207.862C558.374 203.615 554.927 200.204 550.693 200.204C546.458 200.204 543.031 203.615 543.031 207.862Z" fill="#788099"/>
<path d="M593.059 219.81C593.059 223.683 596.194 226.804 600.065 226.804C603.945 226.804 607.08 223.683 607.08 219.81C607.08 215.955 603.945 212.834 600.065 212.834C596.194 212.834 593.059 215.955 593.059 219.81Z" fill="#788099"/>
<path d="M625.751 223.454C625.751 226.781 628.438 229.459 631.765 229.459C635.067 229.459 637.757 226.781 637.757 223.454C637.757 220.162 635.067 217.493 631.765 217.493C628.438 217.493 625.751 220.162 625.751 223.454Z" fill="#788099"/>
<path d="M556.359 234.78C556.359 237.364 558.456 239.453 561.035 239.453C563.627 239.453 565.71 237.364 565.71 234.78C565.71 232.187 563.627 230.131 561.035 230.131C558.456 230.131 556.359 232.187 556.359 234.78Z" fill="#788099"/>
<path d="M394.93 227.139C394.93 232.46 399.267 236.777 404.605 236.777C409.956 236.777 414.272 232.46 414.272 227.139C414.272 221.808 409.956 217.493 404.605 217.493C399.267 217.493 394.93 221.808 394.93 227.139Z" fill="#788099"/>
<path d="M360.245 242.764C360.245 247.532 364.116 251.404 368.916 251.404C373.71 251.404 377.59 247.532 377.59 242.764C377.59 237.996 373.71 234.107 368.916 234.107C364.116 234.107 360.245 237.996 360.245 242.764Z" fill="#788099"/>
<path d="M386.927 250.071C386.927 253.756 389.913 256.741 393.599 256.741C397.278 256.741 400.273 253.756 400.273 250.071C400.273 246.413 397.278 243.419 393.599 243.419C389.913 243.419 386.927 246.413 386.927 250.071Z" fill="#788099"/>
<path d="M330.89 257.074C330.89 260.92 334.029 264.042 337.891 264.042C341.758 264.042 344.902 260.92 344.902 257.074C344.902 253.193 341.758 250.071 337.891 250.071C334.029 250.071 330.89 253.193 330.89 257.074Z" fill="#788099"/>
<path d="M302.882 267.69C302.882 270.079 304.815 272.031 307.206 272.031C309.61 272.031 311.56 270.079 311.56 267.69C311.56 265.319 309.61 263.366 307.206 263.366C304.815 263.366 302.882 265.319 302.882 267.69Z" fill="#788099"/>
<path d="M488.333 180.238C488.333 186.105 493.119 190.864 498.992 190.864C504.89 190.864 509.668 186.105 509.668 180.238C509.668 174.361 504.89 169.585 498.992 169.585C493.119 169.585 488.333 174.361 488.333 180.238Z" fill="#788099"/>
<path d="M440.963 190.217C440.963 196.844 446.352 202.209 452.978 202.209C459.616 202.209 464.984 196.844 464.984 190.217C464.984 183.608 459.616 178.252 452.978 178.252C446.352 178.252 440.963 183.608 440.963 190.217Z" fill="#788099"/>
<path d="M469.655 214.489C469.655 220.928 474.878 226.14 481.324 226.14C487.773 226.14 492.996 220.928 492.996 214.489C492.996 208.076 487.773 202.856 481.324 202.856C474.878 202.856 469.655 208.076 469.655 214.489Z" fill="#788099"/>
<path d="M431.621 221.816C431.621 225.304 434.466 228.136 437.964 228.136C441.454 228.136 444.299 225.304 444.299 221.816C444.299 218.319 441.454 215.479 437.964 215.479C434.466 215.479 431.621 218.319 431.621 221.816Z" fill="#788099"/>
<path d="M508.353 206.856C508.353 210.515 511.316 213.492 515.007 213.492C518.708 213.492 521.684 210.515 521.684 206.856C521.684 203.172 518.708 200.204 515.007 200.204C511.316 200.204 508.353 203.172 508.353 206.856Z" fill="#788099"/>
<path d="M452.978 244.766C452.978 248.05 455.659 250.736 458.974 250.736C462.285 250.736 464.984 248.05 464.984 244.766C464.984 241.457 462.285 238.762 458.974 238.762C455.659 238.762 452.978 241.457 452.978 244.766Z" fill="#788099"/>
<path d="M514.348 238.423C514.348 241.177 516.581 243.42 519.352 243.42C522.12 243.42 524.357 241.177 524.357 238.423C524.357 235.685 522.12 233.45 519.352 233.45C516.581 233.45 514.348 235.685 514.348 238.423Z" fill="#788099"/>
<path d="M482.332 259.718C482.332 263.94 485.755 267.377 489.98 267.377C494.224 267.377 497.675 263.94 497.675 259.718C497.675 255.505 494.224 252.068 489.98 252.068C485.755 252.068 482.332 255.505 482.332 259.718Z" fill="#788099"/>
<path d="M896.591 49.8942C894.885 44.7092 891.642 39.9076 887.916 35.251L962.641 59.8643L981.462 64.0354C984.815 64.769 988.062 66.3043 990.872 68.6405C992.89 70.3295 994.503 72.2657 995.756 74.3888C995.756 74.3888 985.336 74.4228 981.996 73.6132C978.472 72.76 968.822 67.7365 968.822 67.7365L896.591 49.8942Z" fill="#88495D"/>
<path d="M864.677 47.0035C864.677 53.7919 870.208 59.3105 877.03 59.3105C883.844 59.3105 889.366 53.7919 889.366 47.0035C889.366 40.2063 883.844 34.6963 877.03 34.6963C870.208 34.6963 864.677 40.2063 864.677 47.0035Z" fill="#6B7187"/>
<path d="M871.035 47.0043C871.035 50.3046 873.709 52.9997 877.032 52.9997C880.343 52.9997 883.037 50.3046 883.037 47.0043C883.037 43.7039 880.343 41.0166 877.032 41.0166C873.709 41.0166 871.035 43.7039 871.035 47.0043Z" fill="#E9E337"/>
<path d="M874.687 47.0024C874.687 48.853 877.031 50.3288 877.031 50.3288C877.031 50.3288 879.37 48.853 879.37 47.0024C879.37 45.1605 877.031 43.6758 877.031 43.6758C877.031 43.6758 874.687 45.1605 874.687 47.0024Z" fill="black"/>
<path d="M862.663 73.4741C873.938 75.5814 884.371 73.6531 896.514 67.2314L936.815 73.082C938.342 74.7964 944.642 81.2609 954.249 82.4634C958.347 82.9752 969.258 80.3656 971.316 79.8451L997.608 86.1227C995.432 87.9392 991.822 90.5234 988.656 91.1033C983.643 92.0928 973.75 86.9157 968.638 87.1288C940.618 88.2379 917.939 104.186 889.038 104.186C880.303 104.186 864.409 100.98 856.923 97.6359C850.683 94.8901 845.828 90.7705 842.457 85.713C839.929 81.9437 840.392 79.6155 843.219 75.8365C849.113 67.9476 862.129 73.3806 862.663 73.4741Z" fill="#A0ABCC"/>
<path d="M812.546 56.86C812.546 62.1987 816.858 66.5061 822.209 66.5061C827.56 66.5061 831.876 62.1987 831.876 56.86C831.876 51.5378 827.56 47.2314 822.209 47.2314C816.858 47.2314 812.546 51.5378 812.546 56.86Z" fill="#6B7187"/>
<path d="M785.202 66.8419C785.202 71.8051 789.219 75.839 794.201 75.839C799.176 75.839 803.2 71.8051 803.2 66.8419C803.2 61.8865 799.176 57.8691 794.201 57.8691C789.219 57.8691 785.202 61.8865 785.202 66.8419Z" fill="#6B7187"/>
<path d="M771.521 95.1056C771.521 100.07 775.555 104.095 780.517 104.095C785.496 104.095 789.516 100.07 789.516 95.1056C789.516 90.1677 785.496 86.1338 780.517 86.1338C775.555 86.1338 771.521 90.1677 771.521 95.1056Z" fill="#6B7187"/>
<path d="M760.832 126.372C760.832 132.06 765.452 136.691 771.166 136.691C776.898 136.691 781.513 132.06 781.513 126.372C781.513 120.684 776.898 116.061 771.166 116.061C765.452 116.061 760.832 120.683 760.832 126.372Z" fill="#6B7187"/>
<path d="M751.825 156.297C751.825 160.358 755.119 163.624 759.169 163.624C763.229 163.624 766.496 160.358 766.496 156.297C766.496 152.255 763.229 148.988 759.169 148.988C755.119 148.988 751.825 152.255 751.825 156.297Z" fill="#6B7187"/>
<path d="M800.543 94.4384C800.543 97.3894 802.905 99.7693 805.856 99.7693C808.812 99.7693 811.193 97.3894 811.193 94.4384C811.193 91.5215 808.812 89.1172 805.856 89.1172C802.905 89.1172 800.543 91.5215 800.543 94.4384Z" fill="#6B7187"/>
<path d="M817.883 81.7846C817.883 85.1112 820.573 87.7888 823.893 87.7888C827.195 87.7888 829.898 85.1112 829.898 81.7846C829.898 78.5009 827.195 75.8398 823.893 75.8398C820.573 75.8398 817.883 78.5009 817.883 81.7846Z" fill="#6B7187"/>
<path d="M748.334 176.246C748.334 179.3 750.789 181.739 753.843 181.739C756.888 181.739 759.33 179.3 759.33 176.246C759.33 173.211 756.888 170.763 753.843 170.763C750.789 170.763 748.334 173.211 748.334 176.246Z" fill="#6B7187"/>
<path d="M956.97 81.4829L951.632 92.7752L951.303 80.8096L956.97 81.4829Z" fill="#FAEFE5"/>
<path d="M963.305 80.9298L959.956 91.3426L957.594 80.7158L963.305 80.9298Z" fill="#FAEFE5"/>
<path d="M968.638 79.1494L966.855 87.3535L963.817 79.3966L968.638 79.1494Z" fill="#FAEFE5"/>
<path d="M998.323 84.9121L993.318 93.7818L993.977 84.1357L998.323 84.9121Z" fill="#FAEFE5"/>
<path d="M994.542 84.1456L989.533 92.9986L990.205 83.3525L994.542 84.1456Z" fill="#FAEFE5"/>
<path d="M950.319 80.5193L945.446 87.376L945.768 78.8564L950.319 80.5193Z" fill="#FAEFE5"/>
<path d="M945.114 77.8921L939.391 84.05L940.837 75.666L945.114 77.8921Z" fill="#FAEFE5"/>
<path d="M940.413 74.2008L935.366 79.6339L936.644 72.2568L940.413 74.2008Z" fill="#FAEFE5"/>
<path d="M935.078 72.0005L930.048 77.4249L931.301 70.0391L935.078 72.0005Z" fill="#FAEFE5"/>
<path d="M929.055 71.1139L924.624 75.1653L925.304 69.1523L929.055 71.1139Z" fill="#FAEFE5"/>
<path d="M984.096 80.5886L983.326 69.1689L980.097 79.9232L984.096 80.5886Z" fill="#FAEFE5"/>
<path d="M988.43 82.7045L989.533 72.5039L983.978 81.1351L988.43 82.7045Z" fill="#FAEFE5"/>
<path d="M979.865 79.7188L977.316 70.499L975.537 79.5826L979.865 79.7188Z" fill="#FAEFE5"/>
<path d="M862.663 73.4757C861.936 73.3394 861.453 72.6487 861.602 71.9325C861.731 71.1902 862.44 70.7387 863.142 70.8575C873.883 72.8618 883.917 70.9605 895.633 64.6916C895.868 64.5292 896.18 64.5039 896.45 64.5213L937.692 70.5081C938.038 70.5849 938.329 70.7466 938.547 71.0025C938.615 71.0793 944.775 78.5847 954.579 79.8301C957.859 80.265 967.535 78.0818 970.978 77.1945C971.179 77.1351 971.405 77.1438 971.619 77.1945L999.871 83.9409C999.662 84.1881 998.836 85.0239 997.608 86.1243L971.316 79.8468C969.258 80.3673 958.347 82.9768 954.249 82.4651C944.642 81.2625 938.342 74.798 936.815 73.0836L896.514 67.2331C884.371 73.6547 873.938 75.583 862.663 73.4757Z" fill="#6B7187"/>
</g>
<defs>
<clipPath id="clip0_2175_549">
<rect width="1000" height="470" fill="white"/>
</clipPath>
</defs>
</svg>
