<svg width="1000" height="400" viewBox="0 0 1000 400" fill="none" xmlns="http://www.w3.org/2000/svg">
<path d="M722.317 342.128H909.519V224.643L722.317 224.643V342.128Z" fill="#0C161F"/>
<path d="M91.6941 224.651H278.896V342.136L135.648 340.173L94.9174 332.058L91.6941 224.651Z" fill="#0C161F"/>
<path d="M11.3618 152.516L38.5834 103.602C51.6943 80.0444 110.724 45.3369 150.602 29.1572C202.278 8.1912 249.506 -0.0606677 344.29 0.000335533C479.834 0.0872396 559.376 26.0923 580.697 36.354C589.146 39.8684 597.245 44.2906 604.87 49.5536L709.226 121.661C720.561 129.494 733.24 134.801 746.512 137.27L920.25 169.585C939.099 173.091 956.218 183.576 968.649 199.229L982.071 216.128C989.284 225.209 993.862 236.371 995.239 248.228L999.615 285.926C1000.14 290.465 999.832 295.072 998.701 299.482C997.57 303.891 995.642 308.017 993.027 311.623L979.967 329.628C977.144 333.521 973.533 336.67 969.41 338.835C965.287 341.001 960.76 342.126 956.173 342.126H907.647C907.647 316.195 898.079 291.325 881.048 272.989C864.017 254.652 840.918 244.351 816.832 244.351C792.747 244.351 769.647 254.652 752.616 272.989C735.585 291.325 726.017 316.195 726.017 342.126H276.057V338.831C275.275 314.069 265.793 290.549 249.527 273.023C233.261 255.497 211.423 245.271 188.425 244.41C165.426 243.549 142.981 252.117 125.624 268.384C108.266 284.652 97.2898 307.405 94.9117 332.049L67.2568 325.914C57.2474 323.693 47.9473 318.706 40.2712 311.442C32.5951 304.178 26.8073 294.888 23.4775 284.485L4.36122 224.767C0.563392 212.903 -0.778053 200.288 0.431274 187.807C1.6406 175.326 5.37139 163.281 11.3618 152.516Z" fill="#D96B83"/>
<g style="mix-blend-mode:multiply" opacity="0.39">
<path d="M185.283 242.556C162.813 242.558 141.141 251.522 124.45 267.718C107.759 283.914 97.2327 306.193 94.9042 330.254L67.2493 324.119C57.2399 321.899 47.9398 316.912 40.2637 309.648C32.5876 302.384 26.7998 293.094 23.47 282.691L4.35372 222.973C-0.454279 207.941 -1.29887 191.769 1.91373 176.252L742.499 194.665C774.749 195.467 846.906 199.846 888.432 243.472L910.99 267.527C920.818 280.455 933.19 290.871 947.212 298.024C961.235 305.177 976.558 308.888 992.075 308.888H993.669C993.455 309.203 993.244 309.52 993.02 309.828L979.961 327.834C977.137 331.726 973.527 334.875 969.404 337.041C965.281 339.206 960.754 340.332 956.166 340.332H910.826C910.408 314.243 900.488 289.374 883.203 271.084C865.919 252.793 842.653 242.544 818.418 242.544C794.182 242.544 770.917 252.793 753.632 271.084C736.348 289.374 726.428 314.243 726.01 340.332H322.02C321.771 339.294 321.42 339.36 320.954 340.332H276.05V337.036C275.251 311.691 265.338 287.67 248.404 270.043C231.47 252.416 208.837 242.561 185.283 242.556Z" fill="#D96B83"/>
</g>
<path d="M965.1 227.647L942.135 197.752C941.389 196.781 940.915 195.603 940.769 194.353C940.622 193.104 940.809 191.835 941.307 190.695C941.805 189.556 942.594 188.593 943.582 187.918C944.569 187.243 945.715 186.885 946.885 186.885H956.623C961.014 190.549 965.048 194.684 968.663 199.227L982.084 216.126C986.303 221.443 989.642 227.502 991.955 234.037H977.711C975.302 234.037 972.922 233.465 970.742 232.36C968.562 231.255 966.635 229.646 965.1 227.647Z" fill="#49617A"/>
<path d="M946.602 227.01L925.424 197.922C922.921 194.483 919.724 191.703 916.075 189.79C912.426 187.878 908.421 186.885 904.363 186.885H869.724L892.075 219.711C895.098 224.151 899.051 227.762 903.612 230.251C908.174 232.74 913.215 234.037 918.329 234.037H943.425C944.181 234.037 944.923 233.808 945.565 233.376C946.207 232.944 946.723 232.326 947.054 231.593C947.385 230.86 947.519 230.042 947.439 229.232C947.359 228.421 947.069 227.651 946.602 227.01Z" fill="white"/>
<path d="M880.02 186.885L901.192 217.979C904.581 222.956 909.011 227.004 914.124 229.793C919.236 232.583 924.888 234.037 930.62 234.037H918.33C913.216 234.037 908.174 232.74 903.613 230.251C899.052 227.762 895.099 224.151 892.076 219.711L869.724 186.885H880.02Z" fill="#E27F46"/>
<path d="M517.927 191.374L480.178 190.929C479.618 190.923 479.066 190.798 478.552 190.561C478.037 190.325 477.571 189.981 477.18 189.551C476.789 189.121 476.481 188.612 476.273 188.053C476.064 187.494 475.96 186.897 475.966 186.295L475.989 184.031C476.002 182.815 476.462 181.654 477.269 180.804C478.077 179.953 479.165 179.483 480.294 179.496L518.043 179.941C519.173 179.955 520.251 180.45 521.041 181.32C521.83 182.189 522.267 183.36 522.255 184.576L522.232 186.84C522.219 188.056 521.759 189.217 520.952 190.067C520.145 190.917 519.057 191.388 517.927 191.374Z" fill="#9D3350"/>
<path d="M519.58 187.494L481.83 187.049C480.701 187.035 479.623 186.54 478.833 185.67C478.043 184.801 477.606 183.63 477.619 182.414L477.642 180.15C477.654 178.934 478.115 177.773 478.922 176.923C479.729 176.073 480.817 175.603 481.946 175.616L519.697 176.061C520.256 176.068 520.808 176.193 521.322 176.429C521.836 176.665 522.302 177.009 522.694 177.439C523.085 177.869 523.393 178.378 523.601 178.937C523.81 179.496 523.914 180.093 523.908 180.695L523.885 182.96C523.878 183.562 523.762 184.157 523.543 184.71C523.323 185.264 523.004 185.766 522.605 186.187C522.205 186.608 521.732 186.94 521.213 187.164C520.694 187.388 520.139 187.5 519.58 187.494Z" fill="#E48BA4"/>
<path d="M274.27 191.374L236.52 190.929C235.391 190.916 234.313 190.42 233.523 189.551C232.733 188.682 232.297 187.511 232.309 186.295L232.332 184.031C232.344 182.815 232.805 181.654 233.612 180.804C234.419 179.953 235.507 179.483 236.636 179.496L274.387 179.941C275.516 179.955 276.594 180.45 277.384 181.32C278.173 182.189 278.61 183.36 278.598 184.576L278.575 186.84C278.563 188.056 278.102 189.217 277.295 190.067C276.488 190.917 275.4 191.388 274.27 191.374Z" fill="#9D3350"/>
<path d="M275.935 187.494L238.184 187.049C237.625 187.042 237.073 186.917 236.559 186.681C236.044 186.444 235.579 186.101 235.187 185.67C234.796 185.24 234.488 184.731 234.279 184.172C234.071 183.614 233.967 183.016 233.973 182.414L233.996 180.15C234.009 178.934 234.469 177.773 235.276 176.923C236.083 176.073 237.171 175.602 238.301 175.616L276.051 176.061C277.18 176.074 278.258 176.57 279.048 177.439C279.838 178.308 280.275 179.479 280.262 180.695L280.239 182.96C280.227 184.175 279.766 185.336 278.959 186.186C278.152 187.037 277.064 187.507 275.935 187.494Z" fill="#E48BA4"/>
<path opacity="0.61" d="M181.764 230.172C157.75 230.138 134.636 240.005 117.168 257.747C125.534 246.583 136.243 237.719 148.414 231.885C160.585 226.05 173.869 223.412 187.173 224.188C200.476 224.963 213.418 229.131 224.932 236.346C236.447 243.562 246.205 253.619 253.402 265.69C244.56 254.54 233.576 245.59 221.207 239.458C208.839 233.325 195.381 230.157 181.764 230.172Z" fill="white"/>
<path opacity="0.61" d="M818.971 230.172C794.957 230.138 771.843 240.005 754.375 257.747C762.741 246.583 773.45 237.719 785.621 231.885C797.792 226.05 811.076 223.412 824.38 224.188C837.683 224.963 850.625 229.131 862.14 236.346C873.654 243.562 883.412 253.619 890.609 265.69C881.768 254.54 870.783 245.59 858.414 239.458C846.046 233.325 832.588 230.157 818.971 230.172Z" fill="white"/>
<path d="M28.2543 122.171L38.5892 103.601C45.578 91.0436 65.2458 74.9553 88.3258 60.8769L106.64 58.9962C107.385 58.9151 108.134 59.0998 108.772 59.5218C109.409 59.9437 109.901 60.5795 110.17 61.3314C110.439 62.0834 110.472 62.9099 110.262 63.6836C110.052 64.4573 109.613 65.1354 109.01 65.6136L49.505 112.849C43.2485 117.804 35.946 121.008 28.2543 122.171Z" fill="url(#paint0_linear_1276_5265)"/>
<path d="M62.4337 174.245L56.3804 191.812C53.1722 201.124 41.1041 207.697 27.2167 207.697H0.669499C-1.1439 192.482 0.855173 177.022 6.45932 162.919H49.4453C58.0651 162.919 64.4253 168.465 62.4337 174.245Z" fill="#D14A4A"/>
<path d="M32.2889 192.612V206.775C32.284 206.985 32.2687 207.194 32.2434 207.402C30.5772 207.597 28.9025 207.695 27.2266 207.695H0.678083C-0.286552 199.653 -0.190621 191.506 0.962989 183.493H19.0563C26.365 183.492 32.2889 187.575 32.2889 192.612Z" fill="#B82828"/>
<path d="M189.956 400C231.378 400 264.966 366.421 264.978 325C264.99 283.578 231.421 250 190 250C148.579 250 114.99 283.578 114.978 325C114.966 366.421 148.535 400 189.956 400Z" fill="#2B2B2C"/>
<path d="M189.971 395C228.631 395 259.978 363.66 259.986 325C259.994 286.34 228.66 255 190 255C151.34 255 119.994 286.34 119.986 325C119.978 363.66 151.311 395 189.971 395Z" fill="#373738"/>
<path d="M189.943 387.5C224.46 387.5 252.456 359.518 252.471 325C252.487 290.482 224.518 262.5 190 262.5C155.482 262.5 127.487 290.482 127.471 325C127.456 359.518 155.425 387.5 189.943 387.5Z" fill="#1E1E1F"/>
<path d="M189.976 382.5C221.733 382.5 247.482 356.756 247.488 325C247.495 293.244 221.756 267.5 190 267.5C158.244 267.5 132.495 293.244 132.488 325C132.482 356.756 158.22 382.5 189.976 382.5Z" fill="#8FB5D3"/>
<path d="M189.932 377.5C218.927 377.5 242.447 353.995 242.466 325C242.485 296.005 218.995 272.5 190 272.5C161.005 272.5 137.485 296.005 137.466 325C137.447 353.995 160.937 377.5 189.932 377.5Z" fill="white"/>
<path d="M190 342.5C199.665 342.5 207.5 334.665 207.5 325C207.5 315.335 199.665 307.5 190 307.5C180.335 307.5 172.5 315.335 172.5 325C172.5 334.665 180.335 342.5 190 342.5Z" fill="#8FB5D3"/>
<path d="M190 335C195.523 335 200 330.523 200 325C200 319.477 195.523 315 190 315C184.477 315 180 319.477 180 325C180 330.523 184.477 335 190 335Z" fill="white"/>
<path opacity="0.29" d="M254.919 317.5C254.336 317.492 253.774 317.276 253.331 316.891C252.888 316.505 252.592 315.975 252.493 315.39C249.769 300.56 242.031 287.164 230.618 277.525C219.205 267.886 204.836 262.609 190 262.609C175.165 262.609 160.796 267.886 149.383 277.525C137.97 287.164 130.231 300.56 127.508 315.39C127.409 315.975 127.112 316.505 126.669 316.891C126.226 317.276 125.665 317.491 125.082 317.5H124.961C124.6 317.499 124.244 317.418 123.917 317.262C123.59 317.106 123.301 316.879 123.07 316.596C122.839 316.314 122.672 315.984 122.58 315.628C122.489 315.273 122.475 314.902 122.54 314.54C125.465 298.518 133.812 284.042 146.134 273.623C158.456 263.204 173.975 257.5 190 257.5C206.025 257.5 221.544 263.204 233.866 273.623C246.188 284.042 254.535 298.518 257.459 314.54C257.525 314.902 257.511 315.273 257.42 315.629C257.329 315.984 257.161 316.315 256.93 316.597C256.699 316.879 256.41 317.107 256.083 317.263C255.756 317.419 255.399 317.5 255.038 317.5H254.919Z" fill="white"/>
<path d="M215.185 329.394L232.961 334.17C233.419 334.296 233.898 334.323 234.367 334.25C234.836 334.176 235.285 334.004 235.682 333.744C236.08 333.484 236.418 333.143 236.674 332.742C236.93 332.342 237.097 331.892 237.166 331.422C237.735 327.207 237.735 322.936 237.166 318.722C237.097 318.252 236.93 317.801 236.674 317.401C236.418 317.001 236.08 316.659 235.682 316.399C235.285 316.14 234.836 315.967 234.367 315.894C233.898 315.82 233.419 315.847 232.961 315.973L215.185 320.749C214.235 321.004 213.395 321.566 212.796 322.348C212.197 323.129 211.873 324.086 211.873 325.071C211.873 326.056 212.197 327.013 212.796 327.795C213.395 328.576 214.235 329.138 215.185 329.394Z" fill="#3A3939"/>
<path d="M210.875 339.8C210.023 339.308 209.031 339.111 208.055 339.24C207.08 339.369 206.174 339.816 205.478 340.512C204.782 341.209 204.335 342.116 204.206 343.092C204.077 344.069 204.274 345.06 204.766 345.914L213.955 361.858C214.19 362.271 214.511 362.63 214.895 362.91C215.279 363.19 215.719 363.385 216.184 363.482C216.649 363.58 217.13 363.577 217.594 363.474C218.059 363.371 218.496 363.171 218.877 362.887C222.248 360.309 225.262 357.294 227.838 353.92C228.122 353.539 228.322 353.101 228.425 352.637C228.527 352.172 228.53 351.691 228.433 351.225C228.336 350.76 228.141 350.32 227.861 349.936C227.581 349.551 227.223 349.23 226.809 348.995L210.875 339.8Z" fill="#3A3939"/>
<path d="M210.875 310.345L226.81 301.151C227.223 300.915 227.581 300.594 227.861 300.21C228.141 299.825 228.336 299.385 228.433 298.92C228.53 298.454 228.527 297.973 228.425 297.508C228.322 297.044 228.122 296.606 227.838 296.225C225.261 292.852 222.248 289.836 218.877 287.259C218.496 286.974 218.059 286.774 217.594 286.671C217.13 286.568 216.649 286.565 216.184 286.663C215.719 286.76 215.279 286.955 214.895 287.235C214.51 287.515 214.19 287.874 213.955 288.287L204.766 304.232C204.274 305.086 204.077 306.077 204.206 307.053C204.335 308.03 204.782 308.936 205.478 309.633C206.174 310.329 207.079 310.776 208.055 310.905C209.031 311.034 210.022 310.837 210.875 310.345Z" fill="#3A3939"/>
<path d="M194.36 299.922L199.133 282.135C199.259 281.676 199.285 281.197 199.212 280.727C199.138 280.258 198.966 279.809 198.707 279.411C198.447 279.014 198.106 278.676 197.705 278.42C197.305 278.164 196.856 277.995 196.386 277.926C192.174 277.358 187.906 277.358 183.694 277.926C183.225 277.995 182.775 278.164 182.374 278.42C181.974 278.676 181.633 279.014 181.374 279.411C181.114 279.809 180.941 280.258 180.868 280.727C180.795 281.197 180.822 281.676 180.947 282.135L185.72 299.922C185.976 300.873 186.537 301.713 187.318 302.313C188.099 302.912 189.056 303.237 190.04 303.237C191.024 303.237 191.981 302.912 192.762 302.313C193.543 301.713 194.105 300.873 194.36 299.922Z" fill="#3A3939"/>
<path d="M169.214 339.8L153.279 348.995C152.866 349.23 152.507 349.551 152.227 349.935C151.948 350.32 151.753 350.76 151.655 351.225C151.558 351.691 151.561 352.172 151.664 352.637C151.766 353.101 151.966 353.538 152.251 353.92C154.827 357.293 157.84 360.309 161.212 362.886C161.593 363.171 162.03 363.371 162.494 363.474C162.958 363.577 163.439 363.58 163.904 363.482C164.37 363.385 164.809 363.19 165.194 362.91C165.578 362.63 165.898 362.271 166.134 361.858L175.322 345.913C175.814 345.06 176.011 344.069 175.882 343.092C175.753 342.116 175.307 341.209 174.611 340.513C173.915 339.816 173.009 339.369 172.033 339.24C171.057 339.111 170.066 339.308 169.214 339.8Z" fill="#3A3939"/>
<path d="M153.279 301.148L169.214 310.343C170.066 310.835 171.057 311.032 172.033 310.904C173.009 310.775 173.915 310.328 174.612 309.631C175.308 308.935 175.754 308.028 175.883 307.051C176.012 306.075 175.815 305.083 175.323 304.23L166.134 288.285C165.899 287.871 165.579 287.513 165.194 287.233C164.81 286.953 164.37 286.758 163.905 286.66C163.439 286.563 162.959 286.566 162.495 286.669C162.03 286.771 161.593 286.971 161.212 287.256C157.841 289.834 154.827 292.849 152.251 296.223C151.967 296.604 151.766 297.041 151.664 297.506C151.561 297.97 151.558 298.452 151.655 298.917C151.752 299.383 151.947 299.823 152.227 300.207C152.507 300.592 152.866 300.913 153.279 301.148Z" fill="#3A3939"/>
<path d="M194.36 350.225C194.105 349.274 193.543 348.434 192.762 347.834C191.981 347.235 191.024 346.91 190.04 346.91C189.056 346.91 188.099 347.235 187.318 347.834C186.537 348.434 185.976 349.274 185.72 350.225L180.947 368.013C180.821 368.472 180.795 368.951 180.868 369.421C180.942 369.89 181.114 370.338 181.374 370.736C181.633 371.134 181.974 371.472 182.375 371.728C182.775 371.984 183.224 372.153 183.694 372.222C187.906 372.79 192.174 372.79 196.386 372.222C196.856 372.153 197.306 371.984 197.706 371.728C198.106 371.472 198.447 371.134 198.707 370.736C198.966 370.338 199.139 369.89 199.212 369.421C199.286 368.951 199.259 368.472 199.133 368.013L194.36 350.225Z" fill="#3A3939"/>
<path d="M164.907 320.747L147.132 315.97C146.674 315.845 146.195 315.818 145.725 315.891C145.256 315.965 144.808 316.137 144.41 316.397C144.013 316.657 143.675 316.998 143.419 317.399C143.163 317.799 142.995 318.249 142.926 318.719C142.358 322.933 142.358 327.205 142.926 331.419C142.995 331.889 143.163 332.339 143.419 332.74C143.675 333.14 144.013 333.482 144.41 333.741C144.808 334.001 145.256 334.174 145.725 334.247C146.195 334.321 146.674 334.294 147.132 334.168L164.908 329.391C165.858 329.136 166.698 328.574 167.297 327.792C167.896 327.011 168.22 326.054 168.22 325.069C168.22 324.084 167.896 323.127 167.297 322.345C166.698 321.564 165.858 321.002 164.907 320.747Z" fill="#3A3939"/>
<path d="M819.956 400C861.378 400 894.966 366.421 894.978 325C894.99 283.578 861.421 250 820 250C778.579 250 744.99 283.578 744.978 325C744.966 366.421 778.535 400 819.956 400Z" fill="#2B2B2C"/>
<path d="M819.971 395C858.631 395 889.978 363.66 889.986 325C889.994 286.34 858.66 255 820 255C781.34 255 749.994 286.34 749.986 325C749.978 363.66 781.311 395 819.971 395Z" fill="#373738"/>
<path d="M819.943 387.5C854.46 387.5 882.456 359.518 882.471 325C882.487 290.482 854.518 262.5 820 262.5C785.482 262.5 757.487 290.482 757.471 325C757.456 359.518 785.425 387.5 819.943 387.5Z" fill="#1E1E1F"/>
<path d="M819.976 382.5C851.733 382.5 877.482 356.756 877.488 325C877.495 293.244 851.756 267.5 820 267.5C788.244 267.5 762.495 293.244 762.488 325C762.482 356.756 788.22 382.5 819.976 382.5Z" fill="#8FB5D3"/>
<path d="M819.932 377.5C848.927 377.5 872.447 353.995 872.466 325C872.485 296.005 848.995 272.5 820 272.5C791.005 272.5 767.485 296.005 767.466 325C767.447 353.995 790.937 377.5 819.932 377.5Z" fill="white"/>
<path d="M820 342.5C829.665 342.5 837.5 334.665 837.5 325C837.5 315.335 829.665 307.5 820 307.5C810.335 307.5 802.5 315.335 802.5 325C802.5 334.665 810.335 342.5 820 342.5Z" fill="#8FB5D3"/>
<path d="M820 335C825.523 335 830 330.523 830 325C830 319.477 825.523 315 820 315C814.477 315 810 319.477 810 325C810 330.523 814.477 335 820 335Z" fill="white"/>
<path opacity="0.29" d="M884.919 317.5C884.336 317.492 883.774 317.276 883.331 316.891C882.888 316.505 882.592 315.975 882.493 315.39C879.769 300.56 872.031 287.164 860.618 277.525C849.205 267.886 834.836 262.609 820 262.609C805.165 262.609 790.796 267.886 779.383 277.525C767.97 287.164 760.231 300.56 757.508 315.39C757.409 315.975 757.112 316.505 756.669 316.891C756.226 317.276 755.665 317.491 755.082 317.5H754.961C754.6 317.499 754.244 317.418 753.917 317.262C753.59 317.106 753.301 316.879 753.07 316.596C752.839 316.314 752.672 315.984 752.58 315.628C752.489 315.273 752.475 314.902 752.54 314.54C755.465 298.518 763.812 284.042 776.134 273.623C788.456 263.204 803.975 257.5 820 257.5C836.025 257.5 851.544 263.204 863.866 273.623C876.188 284.042 884.535 298.518 887.459 314.54C887.525 314.902 887.511 315.273 887.42 315.629C887.329 315.984 887.161 316.315 886.93 316.597C886.699 316.879 886.41 317.107 886.083 317.263C885.756 317.419 885.399 317.5 885.038 317.5H884.919Z" fill="white"/>
<path d="M845.185 329.394L862.961 334.17C863.419 334.296 863.898 334.323 864.367 334.25C864.836 334.176 865.285 334.004 865.682 333.744C866.08 333.484 866.418 333.143 866.674 332.742C866.93 332.342 867.097 331.892 867.166 331.422C867.735 327.207 867.735 322.936 867.166 318.722C867.097 318.252 866.93 317.801 866.674 317.401C866.418 317.001 866.08 316.659 865.682 316.399C865.285 316.14 864.836 315.967 864.367 315.894C863.898 315.82 863.419 315.847 862.961 315.973L845.185 320.749C844.235 321.004 843.395 321.566 842.796 322.348C842.197 323.129 841.873 324.086 841.873 325.071C841.873 326.056 842.197 327.013 842.796 327.795C843.395 328.576 844.235 329.138 845.185 329.394Z" fill="#3A3939"/>
<path d="M840.875 339.8C840.023 339.308 839.031 339.111 838.055 339.24C837.08 339.369 836.174 339.816 835.478 340.512C834.782 341.209 834.335 342.116 834.206 343.092C834.077 344.069 834.274 345.06 834.766 345.914L843.955 361.858C844.19 362.271 844.511 362.63 844.895 362.91C845.279 363.19 845.719 363.385 846.184 363.482C846.649 363.58 847.13 363.577 847.594 363.474C848.059 363.371 848.496 363.171 848.877 362.887C852.248 360.309 855.262 357.294 857.838 353.92C858.122 353.539 858.322 353.101 858.425 352.637C858.527 352.172 858.53 351.691 858.433 351.225C858.336 350.76 858.141 350.32 857.861 349.936C857.581 349.551 857.223 349.23 856.809 348.995L840.875 339.8Z" fill="#3A3939"/>
<path d="M840.875 310.345L856.81 301.151C857.223 300.915 857.581 300.594 857.861 300.21C858.141 299.825 858.336 299.385 858.433 298.92C858.53 298.454 858.527 297.973 858.425 297.508C858.322 297.044 858.122 296.606 857.838 296.225C855.261 292.852 852.248 289.836 848.877 287.259C848.496 286.974 848.059 286.774 847.594 286.671C847.13 286.568 846.649 286.565 846.184 286.663C845.719 286.76 845.279 286.955 844.895 287.235C844.51 287.515 844.19 287.874 843.955 288.287L834.766 304.232C834.274 305.086 834.077 306.077 834.206 307.053C834.335 308.03 834.782 308.936 835.478 309.633C836.174 310.329 837.079 310.776 838.055 310.905C839.031 311.034 840.022 310.837 840.875 310.345Z" fill="#3A3939"/>
<path d="M824.36 299.922L829.133 282.135C829.259 281.676 829.285 281.197 829.212 280.727C829.138 280.258 828.966 279.809 828.707 279.411C828.447 279.014 828.106 278.676 827.705 278.42C827.305 278.164 826.856 277.995 826.386 277.926C822.174 277.358 817.906 277.358 813.694 277.926C813.225 277.995 812.775 278.164 812.374 278.42C811.974 278.676 811.633 279.014 811.374 279.411C811.114 279.809 810.941 280.258 810.868 280.727C810.795 281.197 810.822 281.676 810.947 282.135L815.72 299.922C815.976 300.873 816.537 301.713 817.318 302.313C818.099 302.912 819.056 303.237 820.04 303.237C821.024 303.237 821.981 302.912 822.762 302.313C823.543 301.713 824.105 300.873 824.36 299.922Z" fill="#3A3939"/>
<path d="M799.214 339.8L783.279 348.995C782.866 349.23 782.507 349.551 782.227 349.935C781.948 350.32 781.753 350.76 781.655 351.225C781.558 351.691 781.561 352.172 781.664 352.637C781.766 353.101 781.966 353.538 782.251 353.92C784.827 357.293 787.84 360.309 791.212 362.886C791.593 363.171 792.03 363.371 792.494 363.474C792.958 363.577 793.439 363.58 793.904 363.482C794.37 363.385 794.809 363.19 795.194 362.91C795.578 362.63 795.898 362.271 796.134 361.858L805.322 345.913C805.814 345.06 806.011 344.069 805.882 343.092C805.753 342.116 805.307 341.209 804.611 340.513C803.915 339.816 803.009 339.369 802.033 339.24C801.057 339.111 800.066 339.308 799.214 339.8Z" fill="#3A3939"/>
<path d="M783.279 301.148L799.214 310.343C800.066 310.835 801.057 311.032 802.033 310.904C803.009 310.775 803.915 310.328 804.612 309.631C805.308 308.935 805.754 308.028 805.883 307.051C806.012 306.075 805.815 305.083 805.323 304.23L796.134 288.285C795.899 287.871 795.579 287.513 795.194 287.233C794.81 286.953 794.37 286.758 793.905 286.66C793.439 286.563 792.959 286.566 792.495 286.669C792.03 286.771 791.593 286.971 791.212 287.256C787.841 289.834 784.827 292.849 782.251 296.223C781.967 296.604 781.766 297.041 781.664 297.506C781.561 297.97 781.558 298.452 781.655 298.917C781.752 299.383 781.947 299.823 782.227 300.207C782.507 300.592 782.866 300.913 783.279 301.148Z" fill="#3A3939"/>
<path d="M824.36 350.225C824.105 349.274 823.543 348.434 822.762 347.834C821.981 347.235 821.024 346.91 820.04 346.91C819.056 346.91 818.099 347.235 817.318 347.834C816.537 348.434 815.976 349.274 815.72 350.225L810.947 368.013C810.821 368.472 810.795 368.951 810.868 369.421C810.942 369.89 811.114 370.338 811.374 370.736C811.633 371.134 811.974 371.472 812.375 371.728C812.775 371.984 813.224 372.153 813.694 372.222C817.906 372.79 822.174 372.79 826.386 372.222C826.856 372.153 827.306 371.984 827.706 371.728C828.106 371.472 828.447 371.134 828.707 370.736C828.966 370.338 829.139 369.89 829.212 369.421C829.286 368.951 829.259 368.472 829.133 368.013L824.36 350.225Z" fill="#3A3939"/>
<path d="M794.907 320.747L777.132 315.97C776.674 315.845 776.195 315.818 775.725 315.891C775.256 315.965 774.808 316.137 774.41 316.397C774.013 316.657 773.675 316.998 773.419 317.399C773.163 317.799 772.995 318.249 772.926 318.719C772.358 322.933 772.358 327.205 772.926 331.419C772.995 331.889 773.163 332.339 773.419 332.74C773.675 333.14 774.013 333.482 774.41 333.741C774.808 334.001 775.256 334.174 775.725 334.247C776.195 334.321 776.674 334.294 777.132 334.168L794.908 329.391C795.858 329.136 796.698 328.574 797.297 327.792C797.896 327.011 798.22 326.054 798.22 325.069C798.22 324.084 797.896 323.127 797.297 322.345C796.698 321.564 795.858 321.002 794.907 320.747Z" fill="#3A3939"/>
<path d="M308.129 325.007H660.462C665.178 325.013 669.806 323.633 673.847 321.016C677.888 318.399 681.189 314.644 683.393 310.156L708.13 259.956C717.547 240.775 720.491 218.67 716.46 197.412C712.429 176.154 701.673 157.061 686.026 143.388L667.471 127.224L666.106 129.042L684.66 145.206C699.916 158.536 710.404 177.153 714.334 197.88C718.264 218.606 715.393 240.159 706.211 258.861L681.475 309.061C679.455 313.173 676.43 316.614 672.727 319.013C669.024 321.411 664.784 322.675 660.462 322.669H308.129C303.613 322.68 299.212 321.129 295.577 318.244C291.941 315.359 289.262 311.292 287.936 306.644C280.167 279.744 264.449 256.314 243.173 239.918C201.382 207.46 199 178.32 233.732 124.445L231.949 123.112C213.892 151.122 206.37 171.593 207.563 189.485C208.794 207.946 219.706 224.573 241.903 241.814C262.797 257.914 278.233 280.924 285.862 307.34C287.326 312.465 290.28 316.948 294.289 320.128C298.298 323.309 303.15 325.019 308.129 325.007Z" fill="#9D3350"/>
<path d="M456.904 323.951L460.769 279.871C464.259 240.147 462.121 200.083 454.43 161.052L447.525 125.951L445.401 126.435L452.305 161.536C459.951 200.336 462.077 240.163 458.609 279.651L454.743 323.732L456.904 323.951Z" fill="#9D3350"/>
<path d="M680.537 116.679L583.811 49.145C581.561 47.574 579.711 45.4219 578.431 42.8848C577.15 40.3478 576.479 37.5065 576.479 34.6191C586.358 38.3509 595.799 43.3085 604.611 49.3921L708.967 121.5C717.178 127.171 726.111 131.528 735.485 134.436L720.236 132.338C706.08 130.391 692.512 125.039 680.537 116.679Z" fill="#6093A7"/>
<path d="M722.674 129.932C708.518 127.985 694.95 122.633 682.976 114.272L586.249 46.7388C584.464 45.4914 582.927 43.8749 581.727 41.9832C580.526 40.0914 579.687 37.962 579.256 35.7183C578.333 35.3444 577.41 34.9711 576.479 34.6191C576.479 37.5065 577.15 40.348 578.431 42.8851C579.711 45.4222 581.56 47.574 583.811 49.145L680.538 116.679C692.512 125.039 706.08 130.391 720.236 132.338L735.485 134.436C731.668 133.246 727.918 131.815 724.257 130.15L722.674 129.932Z" fill="#1E3548"/>
<path style="mix-blend-mode:screen" opacity="0.59" d="M606.484 50.6566L710.84 122.765C713.665 124.712 716.579 126.505 719.572 128.138C708.679 125.471 698.309 120.759 688.935 114.218L592.208 46.6848C589.596 44.859 587.533 42.2554 586.27 39.1907C593.298 42.3878 600.061 46.2236 606.484 50.6566Z" fill="url(#paint1_linear_1276_5265)"/>
<path d="M662.217 130.917L96.0395 121.51C95.1459 121.496 94.2793 121.18 93.5611 120.607C92.843 120.034 92.3096 119.234 92.0361 118.318C91.7627 117.402 91.7629 116.417 92.0366 115.501C92.3104 114.585 92.8438 113.784 93.5621 113.212L153.897 65.109C165.409 55.935 178.677 49.6403 192.733 46.6831C238.164 37.1075 351.22 20.9378 530.604 44.2C545.788 46.1696 560.383 51.7197 573.347 60.4548L664.667 121.991C665.498 122.55 666.136 123.388 666.483 124.375C666.83 125.361 666.868 126.443 666.59 127.456C666.312 128.468 665.734 129.354 664.945 129.979C664.155 130.604 663.197 130.934 662.217 130.917Z" fill="#1E3548"/>
<path d="M441.414 43.6769C441.337 43.2332 441.355 42.7765 441.467 42.3415C441.578 41.9064 441.781 41.5045 442.059 41.1666C442.337 40.8287 442.683 40.5637 443.071 40.3917C443.458 40.2198 443.877 40.1454 444.296 40.1743C472.253 42.1623 500.91 45.0536 530.088 48.8374C544.634 50.7464 558.614 56.0633 571.047 64.4139L659.815 124.23C659.997 124.353 660.137 124.536 660.213 124.753C660.289 124.969 660.297 125.207 660.237 125.429C660.176 125.651 660.049 125.845 659.876 125.982C659.702 126.119 659.492 126.192 659.277 126.188L459.049 122.86C457.924 122.841 456.84 122.404 455.98 121.622C455.12 120.84 454.538 119.763 454.333 118.571L441.414 43.6769Z" fill="url(#paint2_linear_1276_5265)"/>
<path style="mix-blend-mode:screen" opacity="0.59" d="M568.747 68.3762C556.856 60.3892 543.484 55.3044 529.572 53.4792C502.545 49.9738 475.689 47.2102 449.601 45.2473C449.182 45.2166 448.762 45.2895 448.373 45.4606C447.984 45.6317 447.637 45.8964 447.358 46.2344C447.079 46.5724 446.875 46.9748 446.763 47.4106C446.651 47.8464 446.632 48.304 446.71 48.7485L457.957 113.955C458.163 115.146 458.745 116.224 459.605 117.006C460.464 117.787 461.549 118.225 462.674 118.243L647.305 121.313L568.747 68.3762Z" fill="url(#paint3_linear_1276_5265)"/>
<path d="M430.621 122.384L246.825 119.329C246.351 119.321 245.887 119.182 245.477 118.924C245.068 118.666 244.728 118.298 244.489 117.856C244.251 117.415 244.122 116.915 244.116 116.404C244.11 115.894 244.227 115.39 244.455 114.942L280.928 43.3565C281.543 42.1512 282.431 41.1328 283.509 40.3964C284.588 39.6599 285.822 39.2294 287.097 39.1445C307.236 37.7802 330.033 36.9049 355.438 36.9049C376.547 36.9049 398.209 37.501 420.423 38.6935C421.467 38.7503 422.46 39.1945 423.235 39.9507C424.009 40.7069 424.516 41.7287 424.67 42.842L434.866 117.17C434.956 117.823 434.912 118.488 434.739 119.121C434.566 119.754 434.267 120.338 433.863 120.834C433.46 121.33 432.96 121.726 432.4 121.993C431.841 122.261 431.233 122.394 430.621 122.384Z" fill="url(#paint4_linear_1276_5265)"/>
<path style="mix-blend-mode:screen" opacity="0.59" d="M420.896 47.3264C420.743 46.2117 420.235 45.189 419.459 44.4328C418.683 43.6767 417.687 43.2337 416.642 43.1798C395.684 42.1194 375.129 41.582 355.439 41.582C333.832 41.582 312.616 42.225 292.234 43.496C290.198 43.6271 288.227 44.3127 286.504 45.4887C284.782 46.6647 283.365 48.2925 282.387 50.2194L255.331 103.321C254.729 104.503 254.421 105.832 254.437 107.18C254.452 108.527 254.791 109.848 255.421 111.013C256.05 112.178 256.948 113.148 258.029 113.829C259.109 114.51 260.334 114.879 261.586 114.9L425.244 117.621C425.897 117.632 426.546 117.489 427.143 117.204C427.741 116.918 428.274 116.496 428.705 115.966C429.136 115.437 429.455 114.813 429.64 114.138C429.825 113.463 429.871 112.752 429.775 112.056L420.896 47.3264Z" fill="url(#paint5_linear_1276_5265)"/>
<path d="M98.6533 114.967L156.484 68.8628C167.487 60.1202 180.153 54.111 193.571 51.2673C216.048 46.6918 238.727 43.3496 261.52 41.254C261.986 41.2081 262.455 41.3019 262.875 41.525C263.294 41.7481 263.648 42.0919 263.898 42.5182C264.148 42.9444 264.283 43.4368 264.289 43.9407C264.294 44.4445 264.171 44.9402 263.931 45.3731L225.489 114.454C224.731 115.817 223.653 116.942 222.363 117.714C221.073 118.487 219.618 118.881 218.142 118.856L99.2241 116.88C99.0182 116.876 98.8185 116.803 98.653 116.671C98.4876 116.539 98.3647 116.355 98.3017 116.144C98.2387 115.933 98.2386 115.706 98.3017 115.495C98.3648 115.284 98.4878 115.099 98.6533 114.967Z" fill="url(#paint6_linear_1276_5265)"/>
<path style="mix-blend-mode:screen" opacity="0.59" d="M255.137 52.0751C255.438 51.5315 255.593 50.9084 255.585 50.2754C255.576 49.6424 255.405 49.0244 255.089 48.4904C254.773 47.9565 254.325 47.5276 253.796 47.2515C253.267 46.9755 252.677 46.8632 252.092 46.9273C225.997 49.7998 206.667 53.2689 194.404 55.8531C181.619 58.5622 169.551 64.2877 159.067 72.6177L109.208 112.366L220.556 114.218L255.137 52.0751Z" fill="url(#paint7_linear_1276_5265)"/>
<path d="M980.775 280.304L978.156 261.88C978.014 260.88 978.074 259.858 978.333 258.885C978.592 257.912 979.042 257.01 979.655 256.242C980.267 255.474 981.027 254.858 981.881 254.435C982.735 254.013 983.664 253.794 984.604 253.794H995.886L999.655 286.256C999.648 286.265 987.224 286.265 987.224 286.265C985.665 286.265 984.157 285.663 982.974 284.57C981.791 283.477 981.011 281.963 980.775 280.304Z" fill="white"/>
<path d="M897.243 299.407H995.669C996.33 299.407 996.983 299.576 997.576 299.902C998.17 300.228 998.689 300.702 999.093 301.287C999.498 301.872 999.778 302.553 999.911 303.278C1000.04 304.003 1000.03 304.753 999.862 305.47L998.266 312.385C996.245 321.135 991.686 328.887 985.305 334.42C978.923 339.954 971.081 342.957 963.009 342.957H906.09C906.106 327.879 903.081 312.993 897.243 299.407Z" fill="#2B2B2C"/>
<path d="M275.587 342.128L726.013 342.128V331.688L275.587 331.688V342.128Z" fill="#2B2B2C"/>
<path d="M115.846 279.257C104.07 294.235 96.7724 312.694 94.9073 332.215L67.2521 326.08C57.2427 323.859 47.9426 318.872 40.2665 311.608C32.5904 304.344 26.8029 295.054 23.473 284.652L19.6976 272.858L115.846 279.257Z" fill="#2B2B2C"/>
<path opacity="0.32" d="M109.218 49.1399C122.723 41.6835 136.59 35.0131 150.759 29.1575C202.435 8.19147 249.662 -0.060443 344.446 0.000333046C459.447 0.0740595 534.127 18.8041 567.146 30.7475C558.093 35.2593 547.962 36.6333 538.152 34.6797C502.573 27.5847 427.184 14.6633 352.448 15.2418C277.878 15.8194 217.134 20.9279 164.223 38.3742C146.332 44.2199 127.876 47.8322 109.218 49.1399Z" fill="white"/>
<defs>
<linearGradient id="paint0_linear_1276_5265" x1="110.409" y1="90.5732" x2="28.2543" y2="90.5732" gradientUnits="userSpaceOnUse">
<stop offset="0.0223" stop-color="#3B637E"/>
<stop offset="0.3465" stop-color="#3D6681"/>
<stop offset="0.5977" stop-color="#457089"/>
<stop offset="0.8236" stop-color="#528097"/>
<stop offset="1" stop-color="#6093A7"/>
</linearGradient>
<linearGradient id="paint1_linear_1276_5265" x1="653.823" y1="82.1674" x2="650.255" y2="87.2702" gradientUnits="userSpaceOnUse">
<stop stop-color="white"/>
<stop offset="0.2043" stop-color="#B8B8B8"/>
<stop offset="0.4112" stop-color="#777777"/>
<stop offset="0.5996" stop-color="#444444"/>
<stop offset="0.7628" stop-color="#1F1F1F"/>
<stop offset="0.8943" stop-color="#080808"/>
<stop offset="0.9777"/>
</linearGradient>
<linearGradient id="paint2_linear_1276_5265" x1="550.822" y1="126.188" x2="550.822" y2="40.1677" gradientUnits="userSpaceOnUse">
<stop offset="0.0223" stop-color="#3B637E"/>
<stop offset="0.3465" stop-color="#3D6681"/>
<stop offset="0.5977" stop-color="#457089"/>
<stop offset="0.8236" stop-color="#528097"/>
<stop offset="1" stop-color="#6093A7"/>
</linearGradient>
<linearGradient id="paint3_linear_1276_5265" x1="546.983" y1="121.313" x2="546.983" y2="45.24" gradientUnits="userSpaceOnUse">
<stop offset="0.0223"/>
<stop offset="0.1083" stop-color="#070707"/>
<stop offset="0.234" stop-color="#1B1B1B"/>
<stop offset="0.3842" stop-color="#3B3B3B"/>
<stop offset="0.5532" stop-color="#686868"/>
<stop offset="0.7381" stop-color="#A1A1A1"/>
<stop offset="0.9333" stop-color="#E6E6E6"/>
<stop offset="1" stop-color="white"/>
</linearGradient>
<linearGradient id="paint4_linear_1276_5265" x1="339.512" y1="122.385" x2="339.512" y2="36.9049" gradientUnits="userSpaceOnUse">
<stop offset="0.0223" stop-color="#3B637E"/>
<stop offset="0.3465" stop-color="#3D6681"/>
<stop offset="0.5977" stop-color="#457089"/>
<stop offset="0.8236" stop-color="#528097"/>
<stop offset="1" stop-color="#6093A7"/>
</linearGradient>
<linearGradient id="paint5_linear_1276_5265" x1="342.125" y1="117.621" x2="342.125" y2="41.5816" gradientUnits="userSpaceOnUse">
<stop offset="0.0223"/>
<stop offset="0.1083" stop-color="#070707"/>
<stop offset="0.234" stop-color="#1B1B1B"/>
<stop offset="0.3842" stop-color="#3B3B3B"/>
<stop offset="0.5532" stop-color="#686868"/>
<stop offset="0.7381" stop-color="#A1A1A1"/>
<stop offset="0.9333" stop-color="#E6E6E6"/>
<stop offset="1" stop-color="white"/>
</linearGradient>
<linearGradient id="paint6_linear_1276_5265" x1="181.274" y1="118.857" x2="181.274" y2="41.2422" gradientUnits="userSpaceOnUse">
<stop offset="0.0223" stop-color="#3B637E"/>
<stop offset="0.3465" stop-color="#3D6681"/>
<stop offset="0.5977" stop-color="#457089"/>
<stop offset="0.8236" stop-color="#528097"/>
<stop offset="1" stop-color="#6093A7"/>
</linearGradient>
<linearGradient id="paint7_linear_1276_5265" x1="182.401" y1="114.218" x2="182.401" y2="46.9086" gradientUnits="userSpaceOnUse">
<stop offset="0.0223"/>
<stop offset="0.1083" stop-color="#070707"/>
<stop offset="0.234" stop-color="#1B1B1B"/>
<stop offset="0.3842" stop-color="#3B3B3B"/>
<stop offset="0.5532" stop-color="#686868"/>
<stop offset="0.7381" stop-color="#A1A1A1"/>
<stop offset="0.9333" stop-color="#E6E6E6"/>
<stop offset="1" stop-color="white"/>
</linearGradient>
</defs>
</svg>
