<svg width="1000" height="500" viewBox="0 0 1000 500" fill="none" xmlns="http://www.w3.org/2000/svg">
<g clip-path="url(#clip0_2175_354)">
<path d="M956.47 287.48L980.265 207.853C980.358 207.315 980.879 206.999 981.416 207.072C981.936 207.136 982.309 207.631 982.265 208.137L973.382 289.188L956.47 287.48Z" fill="#AA9459"/>
<path d="M915.148 284.916L929.582 196.927C929.704 196.421 930.186 196.083 930.723 196.168C931.255 196.262 931.671 196.716 931.572 197.254L932.006 286.602L915.148 284.916Z" fill="#AA9459"/>
<path d="M951.499 284.918L967.276 202.707C967.397 202.18 967.918 201.864 968.433 201.937C968.954 202.001 969.342 202.517 969.266 203.034L968.378 286.604L951.499 284.918Z" fill="#C3A965"/>
<path d="M910.145 282.343L916.618 196.927C916.721 196.421 917.22 196.083 917.735 196.168C918.289 196.262 918.673 196.716 918.591 197.254L927.052 284.04L910.145 282.343Z" fill="#C3A965"/>
<path d="M627.202 25.4872C626.632 23.452 624.911 21.6802 622.566 21.0367C620.203 20.3835 617.781 20.9525 616.17 22.4295L540.143 90.3526C538.269 92.0391 536.822 94.1585 536.012 96.6893C535.195 99.1877 535.128 101.771 535.704 104.175L562.788 220.178L651.336 134.605C652.756 133.266 653.809 131.525 654.368 129.565C654.915 127.572 654.893 125.58 654.378 123.734L627.202 25.4872Z" fill="#9C5E52"/>
<path d="M732.427 109.415C732.351 107.623 731.26 105.872 729.408 104.923C727.589 103.963 725.473 104.048 723.834 104.955L647.901 148.248C646.043 149.281 644.415 150.799 643.276 152.771C642.135 154.711 641.593 156.83 641.626 158.939L642.382 260.044L732.022 204.33C733.452 203.465 734.647 202.179 735.491 200.661C736.335 199.09 736.675 197.414 736.615 195.779L732.427 109.415Z" fill="#9C5E52"/>
<path d="M796.249 162.521C796.183 161.129 795.345 159.77 793.942 159.031C792.522 158.303 790.883 158.367 789.629 159.073L731.072 192.444C729.637 193.235 728.403 194.437 727.511 195.955C726.628 197.422 726.211 199.087 726.211 200.71L726.804 278.672L755.498 281.002L795.936 235.695C797.044 234.989 797.981 234.05 798.616 232.848C799.268 231.646 799.527 230.359 799.455 229.116L796.249 162.521Z" fill="#9C5E52"/>
<path d="M851.666 214.146C851.533 213.271 850.898 212.396 849.923 211.985C848.936 211.573 847.856 211.7 847.056 212.27L810.306 237.68C809.413 238.302 808.646 239.156 808.152 240.221C807.648 241.254 807.462 242.34 807.588 243.437L812.745 295.07L855.934 262.679C856.62 262.142 857.19 261.478 857.529 260.644C857.88 259.79 857.973 258.947 857.858 258.104L851.666 214.146Z" fill="#9C5E52"/>
<path d="M466.978 3.04796C465.854 1.26648 463.75 0.022723 461.294 0.0011293C458.845 -0.0409785 456.669 1.09805 455.507 2.81583L400.53 84.099C399.171 86.1018 398.354 88.4641 398.244 90.9841C398.146 93.4933 398.798 95.8968 399.976 97.9957L457.6 199.195L519.867 98.5117C520.864 96.9095 521.423 95.0751 521.423 93.0928C521.423 91.0997 520.854 89.2546 519.845 87.6728L466.978 3.04796Z" fill="#9C5E52"/>
<path d="M301.02 60.1836C299.513 59.2874 297.458 59.1396 295.583 60.0152C293.753 60.8584 292.607 62.5039 292.411 64.212L283.324 144.534C283.11 146.516 283.428 148.572 284.322 150.503C285.253 152.39 289.232 167.984 290.925 169.091L370.804 209.442L385.991 125.883C386.088 124.343 377.534 108.938 376.767 107.442C375.973 105.997 374.806 104.816 373.462 104.004L301.02 60.1836Z" fill="#9C5E52"/>
<path d="M307.652 230.434L291.551 163.238C291.403 162.078 290.948 160.908 290.131 159.907C289.331 158.925 288.302 158.198 287.144 157.745L225.919 134.38C224.626 133.895 223.054 134.032 221.799 134.96C220.516 135.856 219.875 137.236 219.963 138.555L224.83 200.584C224.95 202.155 225.482 203.642 226.451 204.982C227.443 206.299 228.721 207.29 230.173 207.902L282.574 242.158C283.352 241.178 305.833 230.708 307.652 230.434Z" fill="#9C5E52"/>
<path d="M179.705 190.664C178.685 190.326 177.397 190.558 176.335 191.328C175.299 192.076 174.757 193.204 174.822 194.259L177.502 243.088C177.557 244.301 177.983 245.481 178.724 246.483C179.491 247.485 180.505 248.212 181.694 248.644L212.91 276.627L249.407 247.991L232.321 210.465C232.238 209.505 231.871 208.641 231.268 207.871C230.643 207.123 229.827 206.585 228.873 206.3L179.705 190.664Z" fill="#9C5E52"/>
<path d="M145.875 237.205C145.283 236.921 144.527 236.931 143.886 237.321C143.244 237.68 142.866 238.312 142.866 238.945L142.329 268.478C142.312 269.227 142.51 269.965 142.866 270.619C143.283 271.283 143.863 271.799 144.515 272.148L157.071 294.553L191.311 276.628L175.566 253.632C175.566 253.074 175.391 252.536 175.068 251.998C174.75 251.503 174.268 251.112 173.758 250.849L145.875 237.205Z" fill="#9C5E52"/>
<path d="M514.968 387.108L547.443 454.134C548.561 457.867 548.473 461.958 546.939 465.87C545.388 469.772 542.626 472.903 539.255 474.98L508.742 493.695C507.624 494.381 507.06 495.709 507.459 497.006C507.864 498.302 509.092 499.147 510.402 499.147H568.323L577.376 488.16C579.82 485.186 581.826 481.739 583.185 477.922C584.56 474.115 585.196 470.256 585.196 466.45V443.538L571.874 347.779L503.36 346.904L514.968 387.108Z" fill="#84942C"/>
<path d="M521.208 486.07L508.741 493.694C507.623 494.38 507.059 495.708 507.458 497.004C507.863 498.301 509.091 499.145 510.401 499.145H521.208V486.07Z" fill="#423C3B"/>
<path d="M324.485 360.802H277.816L263.885 456.255C263.441 459.239 262.46 462.191 260.871 464.954C259.293 467.695 257.254 470.089 254.875 472.018L220.695 500.002H284.409C286.475 500.002 288.54 499.19 290.009 497.628C291.517 496.079 292.157 494.033 291.994 492.061L290.924 480.337C290.924 480.337 323.334 418.983 323.822 415.335C324.294 411.676 324.485 360.802 324.485 360.802Z" fill="#84942C"/>
<path d="M237.81 491.606C237.81 490.636 237.224 489.677 236.232 489.256C235.268 488.812 234.144 488.991 233.354 489.634L220.695 500H237.81V491.606Z" fill="#423C3B"/>
<path d="M561.571 6.7302C560.902 4.7263 559.111 3.04953 556.715 2.50212C554.326 1.95364 551.925 2.68139 550.374 4.21022L478.14 75.8334C476.359 77.616 475.038 79.8089 474.353 82.3818C473.684 84.9223 473.767 87.4843 474.452 89.8466L507.733 204.363L591.564 114.498C592.89 113.053 593.871 111.303 594.326 109.29C594.758 107.265 594.616 105.283 594.024 103.449L561.571 6.7302Z" fill="#B06A5C"/>
<path d="M692.163 76.4952C692.098 74.6921 691.013 72.9205 689.171 71.9714C687.308 71.0332 685.209 71.1281 683.603 72.0134L607.648 115.318C605.774 116.361 604.157 117.891 603.033 119.851C601.888 121.812 601.341 123.911 601.362 125.998L602.13 227.145L691.775 171.389C693.183 170.504 694.41 169.249 695.238 167.72C696.071 166.149 696.433 164.473 696.351 162.859L692.163 76.4952Z" fill="#B06A5C"/>
<path d="M769.583 149.703C769.517 148.302 768.667 146.941 767.254 146.214C765.84 145.466 764.207 145.539 762.958 146.256L704.402 179.616C702.965 180.428 701.733 181.62 700.828 183.117C699.935 184.614 699.535 186.249 699.535 187.883L700.149 265.865L769.271 222.867C770.389 222.203 771.309 221.223 771.934 220.031C772.592 218.85 772.855 217.542 772.811 216.288L769.583 149.703Z" fill="#B06A5C"/>
<path d="M827.395 201.325C827.307 200.355 826.621 199.416 825.585 198.953C824.534 198.5 823.361 198.637 822.506 199.195L782.177 225.639C781.201 226.304 780.357 227.178 779.798 228.307C779.239 229.457 779.015 230.616 779.113 231.765L783.267 287.574L830.682 253.759C831.433 253.19 832.069 252.463 832.452 251.598C832.864 250.702 833.006 249.774 832.885 248.889L827.395 201.325Z" fill="#B06A5C"/>
<path d="M381.392 15.1616C379.891 13.664 377.539 12.9796 375.134 13.4956C372.75 14.0225 370.931 15.5935 370.213 17.5661L336.679 108.991C335.873 111.247 335.622 113.725 336.153 116.192C336.679 118.681 337.873 120.853 339.54 122.624L420.318 207.892L456.181 95.948C456.761 94.1978 456.86 92.2577 456.368 90.3499C455.891 88.4302 454.882 86.7546 453.534 85.4147L381.392 15.1616Z" fill="#B06A5C"/>
<path d="M265.826 89.2009C264.505 88.4311 262.735 88.2843 261.14 89.0541C259.556 89.8023 258.549 91.194 258.378 92.67L250.553 161.943C250.367 163.63 250.652 165.38 251.441 167.046C252.213 168.702 253.424 170.02 254.882 171.011L325.988 217.889L331.945 133.907C332.016 132.579 331.781 131.198 331.117 129.932C330.443 128.688 329.429 127.676 328.285 126.979L265.826 89.2009Z" fill="#B06A5C"/>
<path d="M197.761 161.311C196.681 160.91 195.344 161.131 194.264 161.943C193.25 162.713 192.746 163.926 192.9 165.034L199.119 217.414C199.267 218.733 199.756 219.987 200.638 221.084C201.504 222.202 202.643 222.939 203.866 223.435L264.488 246.663L254.316 183.696C254.202 182.705 253.757 181.745 253.039 180.922C252.305 180.09 251.412 179.499 250.436 179.162L197.761 161.311Z" fill="#B06A5C"/>
<path d="M161.127 206.556C160.309 206.081 159.225 206.081 158.26 206.587C157.302 207.072 156.737 208 156.665 208.917L154.144 251.799C154.101 252.854 154.304 253.918 154.857 254.92C155.384 255.911 156.167 256.713 157.121 257.282L202.453 283.947L203.34 232.061C203.34 231.238 203.171 230.384 202.699 229.625C202.245 228.898 201.603 228.276 200.858 227.896L161.127 206.556Z" fill="#B06A5C"/>
<path d="M134.174 247.601C133.653 247.231 132.919 247.116 132.206 247.401C131.51 247.643 131.045 248.213 130.93 248.866L125.389 277.904C125.241 278.61 125.29 279.358 125.554 280.075C125.855 280.803 126.321 281.394 126.923 281.847L155.459 303.821L160.681 268.488C160.759 267.908 160.726 267.338 160.468 266.8C160.244 266.242 159.843 265.767 159.367 265.451L134.174 247.601Z" fill="#B06A5C"/>
<path d="M85.7905 289.904C85.7905 289.904 135.895 293.573 152.797 287.975C174.246 280.941 213.156 266.507 230.49 249.215C247.818 231.871 361.861 146.456 475.844 144.21C541.421 142.934 598.19 160.848 633.231 178.002C683.002 202.359 751.812 246.558 801.249 261.372C855.475 277.62 994.618 283.198 994.618 283.198C1003.06 284.463 1000.41 287.89 994.618 290.884C869.181 315.694 745.329 328.104 627.882 290.884L589.883 337.34C577.595 352.397 561.676 365.092 542.599 374.002C523.484 382.943 503.306 387.107 483.374 387.107H333.857C324.246 387.107 314.463 386.021 304.703 383.702C294.948 381.392 285.752 377.965 277.236 373.653L250.476 360.189C184.73 359.767 130.766 350.32 83.7793 335.811L85.7905 289.904Z" fill="#96A831"/>
<path d="M994.617 283.198C994.617 283.198 855.474 277.62 801.248 261.372C751.811 246.558 683.001 202.359 633.231 178.002C598.19 160.848 541.42 142.934 475.844 144.21C361.86 146.456 247.818 231.871 230.49 249.215C213.155 266.507 174.245 280.941 152.796 287.975C137.386 293.088 94.3219 290.505 86.8965 290.01V305.287C94.3219 305.783 136.607 305.15 152.796 303.305C175.364 300.712 213.709 287.205 233.136 272.085C254.026 255.826 363.626 172.541 477.636 170.305C543.201 169.03 598.19 183.938 633.231 201.093C683.001 225.45 742.023 254.266 791.477 269.08C837.647 282.903 965.133 287.953 999.073 284.59C998.234 284.01 996.809 283.535 994.617 283.198Z" fill="#889A2D"/>
<path d="M619.205 263.313C619.205 263.313 562.54 337.068 521.258 342.35C500.208 345.071 333.856 355.467 333.856 355.467C324.245 355.467 250.475 341.338 250.475 341.338C185.787 340.947 135.583 337.078 89.1162 322.96L83.7783 335.812C130.765 350.321 184.729 359.768 250.475 360.191L277.235 373.654C285.751 377.967 294.947 381.394 304.702 383.703C314.462 386.022 324.245 387.108 333.856 387.108H483.373C503.305 387.108 523.483 382.944 542.598 374.003C561.675 365.093 577.594 352.398 589.882 337.341L627.881 290.885C745.328 328.105 869.18 315.696 994.617 290.885C839.258 308.198 769.237 301.988 619.205 263.313Z" fill="#C3A965"/>
<path d="M90.2953 287.572C94.7117 288.068 98.9755 290.134 102.154 293.571C105.321 297.009 106.905 301.321 106.905 305.591V319.751C106.905 325.593 104.593 331.444 99.9733 335.873C95.3369 340.333 89.2594 342.548 83.1875 342.548H16.3068C14.8051 342.548 13.3359 342.347 11.8398 341.915C10.3718 341.44 9.02273 340.807 7.81733 339.995L5.88913 338.741C3.48282 337.117 1.58156 334.776 0.633176 331.877C-0.326431 328.977 -0.150217 325.983 0.857651 323.337L2.12926 320.089C3.30773 317 5.2146 314.122 7.8611 311.686C10.5244 309.281 13.621 307.573 16.8769 306.613L55.6439 294.847L62.8606 290.071C65.1188 288.573 67.6833 287.403 70.5004 286.739C73.3669 286.043 76.1885 285.927 78.9068 286.243L90.2953 287.572Z" fill="#9CB033"/>
<path d="M106.856 304.684C106.648 300.688 105.12 296.766 102.155 293.571C98.976 290.134 94.7122 288.068 90.2958 287.572L78.9073 286.243C76.189 285.927 73.3674 286.043 70.501 286.739C67.6839 287.403 65.1193 288.573 62.8611 290.071L55.6444 294.847L16.8774 306.613C13.6215 307.573 10.5249 309.281 7.86161 311.686C5.21512 314.122 3.30824 317 2.12978 320.089L0.858166 323.337C-0.0565473 325.74 -0.237251 328.408 0.436157 331.023C0.56186 330.685 0.650526 330.348 0.814389 330.001L2.26671 326.837C3.68648 323.832 5.77404 321.069 8.56308 318.813C11.3746 316.547 14.5699 315.049 17.8965 314.248L57.3538 304.874C57.3538 304.874 66.0014 293.867 82.234 295.785C89.0455 296.597 106.856 304.684 106.856 304.684Z" fill="#889A2D"/>
<path d="M87.6751 308.122C87.6751 302.133 82.6324 297.272 76.4123 297.272C70.1654 297.272 65.1182 302.133 65.1182 308.122C65.1182 314.122 70.1654 318.972 76.4123 318.972C82.6324 318.972 87.6751 314.122 87.6751 308.122Z" fill="#AD7C43"/>
<path d="M82.2512 308.121C82.2512 305.021 79.6418 302.512 76.4139 302.512C73.1703 302.512 70.5508 305.021 70.5508 308.121C70.5508 311.242 73.1703 313.762 76.4139 313.762C79.6418 313.762 82.2512 311.242 82.2512 308.121Z" fill="black"/>
<path d="M78.0722 308.125C78.0722 307.229 77.3158 306.522 76.4112 306.522C75.4852 306.522 74.7344 307.229 74.7344 308.125C74.7344 309.01 75.4852 309.727 76.4112 309.727C77.3158 309.727 78.0722 309.01 78.0722 308.125Z" fill="white"/>
<path d="M345.617 340.8L356.588 403.567C357.191 407.005 357.318 410.621 356.841 414.29C356.343 417.938 355.322 421.375 353.86 424.581L328.288 480.337L329.324 492.061C329.528 494.033 328.847 496.079 327.351 497.628C325.861 499.189 323.817 500.001 321.762 500.001H258.043L292.065 472.144C294.471 470.183 296.504 467.779 298.038 464.89C299.562 462.044 300.471 459.028 300.751 456.022L306.05 399.086L284.118 362.467C281.543 358.144 276.703 344.743 279.318 329.792C281.077 319.733 288.624 311.023 299.414 307.702C310.198 304.423 321.509 307.376 329.062 314.545C329.062 314.545 340.707 322.959 345.617 340.8Z" fill="#9CB033"/>
<path d="M275.153 492.167C275.153 491.081 274.522 490.048 273.431 489.583C272.336 489.099 271.119 489.278 270.259 489.995L258.043 500.001H275.153V492.167Z" fill="#625756"/>
<path d="M294.164 493.515C294.164 492.482 293.539 491.491 292.51 491.059C291.468 490.584 290.311 490.763 289.506 491.438L279.066 500H294.164V493.515Z" fill="#625756"/>
<path d="M436.517 296.028L437.614 375.127L461.211 454.132C462.308 457.865 462.23 461.956 460.702 465.867C459.162 469.769 456.405 472.901 453.002 474.978L422.515 493.693C421.391 494.379 420.828 495.707 421.222 497.003C421.617 498.3 422.828 499.145 424.193 499.145H482.091L491.122 488.158C493.583 485.184 495.561 481.737 496.948 477.92C498.313 474.113 498.97 470.254 498.97 466.448V443.536L511.405 371.691L554.402 324.739C563.308 315.028 585.196 294.109 586.544 250.478C587.179 230.298 583.196 197.253 537.962 180.648C517.022 172.96 490.213 186.109 475.843 201.091C444.519 233.798 436.77 284.809 436.517 296.028Z" fill="#9CB033"/>
<path d="M435.169 485.911L422.515 493.692C421.391 494.378 420.828 495.706 421.222 497.003C421.617 498.299 422.828 499.144 424.193 499.144H435.169V485.911Z" fill="#625756"/>
<path d="M454.186 487.473L443.034 494.305C442.042 494.948 441.544 496.14 441.888 497.258C442.239 498.417 443.319 499.145 444.481 499.145H454.186V487.473Z" fill="#625756"/>
<path d="M24.1218 332.268C24.1218 331.551 23.5191 330.972 22.7727 330.972H0.418945C0.485164 331.288 0.523326 331.573 0.633316 331.879C0.819625 332.448 1.08787 333.007 1.35162 333.545H22.7727C23.5191 333.545 24.1218 332.975 24.1218 332.268Z" fill="#7C8A29"/>
<path d="M11.7582 321.494C12.4821 322.506 11.6875 324.277 9.93883 325.437C8.19022 326.597 6.19581 326.713 5.45057 325.7C4.71656 324.678 5.53811 322.917 7.2699 321.757C9.023 320.576 11.0242 320.492 11.7582 321.494Z" fill="#788528"/>
<path d="M343.83 228.981C343.83 235.55 338.3 240.854 331.495 240.854C324.682 240.854 319.169 235.55 319.169 228.981C319.169 222.413 324.682 217.131 331.495 217.131C338.3 217.131 343.83 222.413 343.83 228.981Z" fill="#889A2D"/>
<path d="M355.153 267.17C355.153 271.756 351.285 275.479 346.494 275.479C341.727 275.479 337.847 271.756 337.847 267.17C337.847 262.53 341.727 258.819 346.494 258.819C351.285 258.819 355.153 262.53 355.153 267.17Z" fill="#889A2D"/>
<path d="M399.17 216.159C399.17 223.772 392.73 229.951 384.833 229.951C376.925 229.951 370.509 223.772 370.509 216.159C370.509 208.546 376.925 202.357 384.833 202.357C392.73 202.357 399.17 208.546 399.17 216.159Z" fill="#889A2D"/>
<path d="M397.17 255.912C397.17 260.023 393.745 263.313 389.498 263.313C385.273 263.313 381.842 260.023 381.842 255.912C381.842 251.841 385.273 248.562 389.498 248.562C393.745 248.562 397.17 251.841 397.17 255.912Z" fill="#889A2D"/>
<path d="M445.182 198.835C445.182 205.731 439.356 211.34 432.188 211.34C424.997 211.34 419.184 205.731 419.184 198.835C419.184 191.939 424.997 186.341 432.188 186.341C439.356 186.341 445.182 191.939 445.182 198.835Z" fill="#889A2D"/>
<path d="M527.506 200.282C527.506 207.167 521.692 212.767 514.507 212.767C507.3 212.767 501.502 207.167 501.502 200.282C501.502 193.366 507.3 187.767 514.507 187.767C521.692 187.767 527.506 193.366 527.506 200.282Z" fill="#889A2D"/>
<path d="M559.889 223.383C559.889 226.978 556.88 229.867 553.165 229.867C549.433 229.867 546.43 226.978 546.43 223.383C546.43 219.797 549.433 216.908 553.165 216.908C556.88 216.908 559.889 219.797 559.889 223.383Z" fill="#889A2D"/>
<path d="M496.154 225.415C496.154 228.959 493.139 231.858 489.424 231.858C485.714 231.858 482.684 228.959 482.684 225.415C482.684 221.82 485.714 218.899 489.424 218.899C493.139 218.899 496.154 221.82 496.154 225.415Z" fill="#889A2D"/>
<path d="M438.523 240.854C438.523 244.746 435.23 247.919 431.185 247.919C427.113 247.919 423.842 244.746 423.842 240.854C423.842 236.943 427.113 233.801 431.185 233.801C435.23 233.801 438.523 236.943 438.523 240.854Z" fill="#889A2D"/>
<path d="M301.146 260.087C301.146 266.477 295.781 271.643 289.149 271.643C282.517 271.643 277.131 266.477 277.131 260.087C277.131 253.718 282.518 248.562 289.149 248.562C295.78 248.562 301.146 253.718 301.146 260.087Z" fill="#889A2D"/>
<path d="M309.584 285.126C309.584 288.88 306.406 291.916 302.499 291.916C298.564 291.916 295.396 288.88 295.396 285.126C295.396 281.341 298.564 278.283 302.499 278.283C306.406 278.283 309.584 281.341 309.584 285.126Z" fill="#889A2D"/>
<path d="M258.492 281.902C258.492 286.499 254.595 290.263 249.816 290.263C245.027 290.263 241.136 286.499 241.136 281.902C241.136 277.305 245.027 273.572 249.816 273.572C254.595 273.572 258.492 277.305 258.492 281.902Z" fill="#889A2D"/>
<path d="M223.81 298.582C223.81 302.124 220.818 305.003 217.151 305.003C213.468 305.003 210.486 302.124 210.486 298.582C210.486 295.04 213.468 292.172 217.151 292.172C220.818 292.172 223.81 295.04 223.81 298.582Z" fill="#889A2D"/>
<path d="M191.131 306.279C191.131 308.757 189.06 310.77 186.49 310.77C183.892 310.77 181.793 308.757 181.793 306.279C181.793 303.812 183.892 301.798 186.49 301.798C189.06 301.798 191.131 303.812 191.131 306.279Z" fill="#889A2D"/>
<path d="M167.472 310.77C167.472 313.058 165.549 314.935 163.121 314.935C160.748 314.935 158.798 313.058 158.798 310.77C158.798 308.471 160.748 306.615 163.121 306.615C165.549 306.615 167.472 308.471 167.472 310.77Z" fill="#889A2D"/>
<path d="M141.13 312.045C141.13 314.544 139.053 316.537 136.466 316.537C133.868 316.537 131.791 314.544 131.791 312.045C131.791 309.557 133.868 307.543 136.466 307.543C139.053 307.543 141.13 309.557 141.13 312.045Z" fill="#889A2D"/>
<path d="M264.489 304.362C264.489 307.176 262.094 309.486 259.145 309.486C256.224 309.486 253.83 307.176 253.83 304.362C253.83 301.535 256.224 299.227 259.145 299.227C262.094 299.227 264.489 301.535 264.489 304.362Z" fill="#889A2D"/>
<path d="M475.843 187.943C475.843 190.938 473.316 193.373 470.176 193.373C467.069 193.373 464.521 190.938 464.521 187.943C464.521 184.917 467.069 182.491 470.176 182.491C473.316 182.491 475.843 184.917 475.843 187.943Z" fill="#889A2D"/>
<path d="M601.889 203.328C601.889 206.344 599.346 208.79 596.184 208.79C593.082 208.79 590.534 206.344 590.534 203.328C590.534 200.323 593.082 197.878 596.184 197.878C599.346 197.878 601.889 200.323 601.889 203.328Z" fill="#889A2D"/>
<path d="M639.894 220.011C639.894 224.428 636.151 228.023 631.553 228.023C626.95 228.023 623.207 224.428 623.207 220.011C623.207 215.582 626.95 211.986 631.553 211.986C636.151 211.986 639.894 215.582 639.894 220.011Z" fill="#889A2D"/>
<path d="M682.902 241.497C682.902 246.643 678.578 250.796 673.229 250.796C667.88 250.796 663.551 246.643 663.551 241.497C663.551 236.362 667.881 232.176 673.229 232.176C678.577 232.176 682.902 236.362 682.902 241.497Z" fill="#889A2D"/>
<path d="M726.564 256.913C726.564 261.49 722.678 265.232 717.899 265.232C713.109 265.232 709.24 261.49 709.24 256.913C709.24 252.273 713.109 248.562 717.899 248.562C722.678 248.562 726.564 252.273 726.564 256.913Z" fill="#889A2D"/>
<path d="M769.902 272.915C769.902 276.469 766.932 279.337 763.26 279.337C759.555 279.337 756.563 276.469 756.563 272.915C756.563 269.383 759.555 266.505 763.26 266.505C766.932 266.505 769.902 269.383 769.902 272.915Z" fill="#889A2D"/>
<path d="M814.577 282.554C814.577 284.842 812.636 286.729 810.258 286.729C807.853 286.729 805.935 284.842 805.935 282.554C805.935 280.235 807.853 278.358 810.258 278.358C812.636 278.358 814.577 280.235 814.577 282.554Z" fill="#889A2D"/>
</g>
<defs>
<clipPath id="clip0_2175_354">
<rect width="1000" height="500" fill="white"/>
</clipPath>
</defs>
</svg>
