<svg width="1000" height="550" viewBox="0 0 1000 550" fill="none" xmlns="http://www.w3.org/2000/svg">
<g clip-path="url(#clip0_1276_5069)">
<path d="M173.332 206.396H170.527V520.43H173.332V206.396Z" fill="#90B4C6"/>
<path d="M201.593 206.396H198.789V520.43H201.593V206.396Z" fill="#90B4C6"/>
<path d="M343.193 347.889H28.9258V350.691H343.193V347.889Z" fill="#90B4C6"/>
<path d="M343.193 376.132H28.9258V378.934H343.193V376.132Z" fill="#90B4C6"/>
<path d="M286.186 241.411L63.9648 463.466L65.9473 465.447L288.168 243.392L286.186 241.411Z" fill="#90B4C6"/>
<path d="M306.167 261.381L83.9453 483.436L85.9278 485.417L308.149 263.362L306.167 261.381Z" fill="#90B4C6"/>
<path d="M85.9283 241.398L83.9453 243.379L306.153 465.447L308.136 463.466L85.9283 241.398Z" fill="#90B4C6"/>
<path d="M65.9474 261.387L63.9648 263.368L286.172 485.436L288.155 483.455L65.9474 261.387Z" fill="#90B4C6"/>
<path d="M38.4364 314.652L37.8906 316.425L337.56 408.577L338.105 406.805L38.4364 314.652Z" fill="#90B4C6"/>
<path d="M337.541 318.152L37.2266 406.903L37.7531 408.682L338.068 319.932L337.541 318.152Z" fill="#90B4C6"/>
<path d="M231.306 213.782L139.033 513.212L140.807 513.757L233.08 214.328L231.306 213.782Z" fill="#90B4C6"/>
<path d="M140.84 213.07L139.062 213.594L227.681 513.744L229.458 513.22L140.84 213.07Z" fill="#90B4C6"/>
<path d="M116.248 223.86L114.609 224.727L261.298 501.628L262.936 500.762L116.248 223.86Z" fill="#90B4C6"/>
<path d="M50.1654 288.134L49.2773 289.764L324.337 439.387L325.225 437.757L50.1654 288.134Z" fill="#90B4C6"/>
<path d="M323.948 288.666L46.9531 435.458L47.8228 437.096L324.817 290.304L323.948 288.666Z" fill="#90B4C6"/>
<path d="M258.933 223.509L109.15 498.339L110.779 499.225L260.562 224.395L258.933 223.509Z" fill="#90B4C6"/>
<path d="M186.055 177.5C149.257 177.5 113.285 188.404 82.6883 208.832C52.0917 229.261 28.2447 258.297 14.1626 292.269C0.0805318 326.241 -3.60387 363.622 3.57511 399.686C10.7541 435.75 28.4741 468.877 54.4944 494.878C80.5146 520.879 113.667 538.586 149.758 545.759C185.849 552.933 223.258 549.251 257.255 535.18C291.252 521.108 320.31 497.279 340.754 466.705C361.198 436.132 372.11 400.186 372.11 363.415C372.11 339.001 367.298 314.825 357.948 292.269C348.598 269.713 334.893 249.217 317.616 231.953C300.339 214.69 279.828 200.995 257.255 191.652C234.682 182.309 210.489 177.5 186.055 177.5ZM186.055 523.564C154.357 523.564 123.37 514.172 97.014 496.574C70.6577 478.977 50.1156 453.965 37.985 424.702C25.8545 395.439 22.6806 363.238 28.8645 332.172C35.0484 301.106 50.3126 272.571 72.7266 250.173C95.1406 227.776 123.698 212.523 154.787 206.343C185.876 200.164 218.101 203.335 247.386 215.456C276.671 227.578 301.702 248.105 319.312 274.441C336.923 300.778 346.323 331.74 346.323 363.415C346.323 384.446 342.178 405.271 334.123 424.701C326.069 444.132 314.264 461.786 299.382 476.658C284.5 491.529 266.832 503.326 247.387 511.374C227.943 519.422 207.102 523.565 186.055 523.565V523.564Z" fill="#2B2B2C"/>
<path d="M186.056 541.848C150.737 541.848 116.211 531.382 86.8442 511.774C57.4776 492.166 34.5892 464.297 21.0734 431.691C7.55757 399.084 4.02145 363.206 10.9121 328.591C17.8027 293.977 34.8104 262.181 59.785 237.225C84.7595 212.27 116.579 195.275 151.22 188.39C185.86 181.504 221.766 185.038 254.397 198.544C287.027 212.05 314.917 234.922 334.539 264.267C354.162 293.612 364.635 328.112 364.635 363.405C364.581 410.715 345.75 456.072 312.271 489.525C278.793 522.978 233.402 541.795 186.056 541.848ZM186.056 195.783C152.879 195.783 120.446 205.613 92.86 224.031C65.2737 242.449 43.7725 268.627 31.0756 299.256C18.3787 329.885 15.0562 363.588 21.5283 396.104C28.0005 428.619 43.9765 458.487 67.4362 481.93C90.8959 505.372 120.786 521.337 153.325 527.805C185.865 534.273 219.593 530.953 250.245 518.266C280.897 505.58 307.096 484.095 325.528 456.53C343.96 428.965 353.799 396.557 353.799 363.405C353.749 318.965 336.059 276.359 304.613 244.935C273.166 213.511 230.529 195.835 186.056 195.783Z" fill="#46494D"/>
<path d="M186.05 203.262C154.352 203.262 123.365 212.655 97.0092 230.252C70.6532 247.849 50.1112 272.861 37.9809 302.125C25.8506 331.388 22.6769 363.589 28.8609 394.655C35.045 425.72 50.309 454.256 72.723 476.653C95.137 499.05 123.695 514.303 154.784 520.483C185.873 526.662 218.097 523.49 247.382 511.369C276.668 499.248 301.698 478.721 319.309 452.385C336.919 426.048 346.319 395.085 346.319 363.41C346.319 320.936 329.433 280.202 299.377 250.168C269.321 220.134 228.556 203.262 186.05 203.262ZM186.05 515.072C156.032 515.072 126.688 506.177 101.728 489.513C76.769 472.848 57.3157 449.162 45.8281 421.45C34.3406 393.737 31.3346 363.243 37.1907 333.824C43.0469 304.405 57.5022 277.381 78.7282 256.171C99.9542 234.96 126.998 220.516 156.439 214.664C185.88 208.812 216.397 211.815 244.13 223.294C271.864 234.773 295.567 254.212 312.245 279.152C328.922 304.093 337.823 333.415 337.823 363.41C337.823 403.633 321.833 442.209 293.37 470.651C264.907 499.093 226.303 515.071 186.05 515.072Z" fill="#4D637D"/>
<path d="M226.9 363.406C226.9 362.941 226.846 362.489 226.83 362.028L230.36 360.257C230.302 359.453 230.234 358.653 230.136 357.861L226.318 356.809C226.169 355.894 225.999 354.988 225.791 354.095L228.9 351.674C228.689 350.9 228.471 350.131 228.221 349.374L224.265 349.086C223.938 348.218 223.593 347.363 223.212 346.524L225.788 343.545C225.427 342.828 225.061 342.118 224.663 341.424L220.731 341.912C220.244 341.128 219.736 340.36 219.196 339.612L221.146 336.184C220.651 335.55 220.145 334.929 219.619 334.323L215.866 335.566C215.236 334.893 214.585 334.242 213.913 333.613L215.156 329.863C214.549 329.337 213.927 328.832 213.294 328.339L209.862 330.285C209.113 329.747 208.345 329.239 207.56 328.751L208.049 324.821C207.354 324.425 206.643 324.058 205.926 323.699L202.944 326.274C202.104 325.892 201.249 325.546 200.382 325.221L200.093 321.268C199.336 321.017 198.565 320.799 197.791 320.588L195.369 323.696C194.474 323.487 193.569 323.317 192.652 323.167L191.599 319.353C190.805 319.254 190.005 319.186 189.202 319.13L187.429 322.656C186.967 322.641 186.515 322.586 186.049 322.586C185.582 322.586 185.131 322.641 184.669 322.656L182.897 319.13C182.093 319.186 181.292 319.254 180.5 319.353L179.447 323.167C178.53 323.316 177.625 323.486 176.729 323.696L174.307 320.588C173.533 320.799 172.763 321.017 172.005 321.268L171.717 325.221C170.85 325.546 169.993 325.892 169.154 326.274L166.172 323.699C165.455 324.058 164.745 324.425 164.049 324.821L164.539 328.751C163.754 329.239 162.985 329.747 162.236 330.285L158.805 328.339C158.171 328.832 157.549 329.337 156.943 329.863L158.186 333.613C157.513 334.243 156.862 334.894 156.233 335.566L152.48 334.323C151.954 334.929 151.448 335.55 150.953 336.184L152.903 339.612C152.363 340.36 151.855 341.128 151.368 341.912L147.435 341.424C147.038 342.118 146.671 342.828 146.311 343.545L148.887 346.524C148.505 347.363 148.161 348.218 147.834 349.086L143.877 349.374C143.627 350.131 143.411 350.9 143.199 351.674L146.308 354.095C146.1 354.988 145.929 355.894 145.78 356.809L141.963 357.861C141.864 358.654 141.797 359.453 141.738 360.257L145.269 362.028C145.252 362.489 145.199 362.941 145.199 363.406C145.199 363.871 145.252 364.323 145.269 364.785L141.738 366.556C141.797 367.36 141.864 368.159 141.963 368.951L145.78 370.003C145.929 370.919 146.1 371.824 146.308 372.718L143.199 375.138C143.411 375.912 143.627 376.682 143.877 377.438L147.834 377.726C148.161 378.594 148.505 379.449 148.887 380.288L146.311 383.267C146.672 383.984 147.038 384.694 147.435 385.388L151.368 384.9C151.855 385.685 152.363 386.452 152.903 387.2L150.953 390.628C151.448 391.263 151.954 391.884 152.48 392.49L156.233 391.247C156.862 391.919 157.513 392.57 158.186 393.198L156.943 396.949C157.549 397.475 158.171 397.98 158.805 398.473L162.236 396.528C162.985 397.066 163.754 397.573 164.539 398.061L164.049 401.991C164.745 402.387 165.455 402.754 166.172 403.113L169.154 400.539C169.993 400.921 170.85 401.266 171.717 401.592L172.005 405.544C172.763 405.796 173.533 406.012 174.307 406.224L176.729 403.117C177.624 403.326 178.53 403.495 179.447 403.645L180.5 407.459C181.292 407.558 182.093 407.626 182.897 407.683L184.669 404.156C185.131 404.172 185.582 404.226 186.049 404.226C186.515 404.226 186.967 404.172 187.429 404.156L189.202 407.683C190.005 407.626 190.806 407.558 191.599 407.459L192.652 403.645C193.568 403.496 194.474 403.326 195.369 403.117L197.791 406.224C198.565 406.012 199.336 405.796 200.093 405.544L200.382 401.592C201.249 401.266 202.104 400.921 202.944 400.539L205.926 403.113C206.643 402.753 207.354 402.387 208.049 401.991L207.56 398.061C208.345 397.573 209.113 397.066 209.862 396.528L213.294 398.473C213.927 397.98 214.549 397.475 215.156 396.949L213.913 393.198C214.586 392.569 215.237 391.919 215.866 391.247L219.619 392.49C220.145 391.884 220.651 391.263 221.146 390.628L219.196 387.2C219.736 386.452 220.244 385.685 220.731 384.9L224.663 385.388C225.061 384.694 225.428 383.984 225.788 383.267L223.212 380.288C223.593 379.449 223.938 378.594 224.265 377.726L228.221 377.438C228.471 376.682 228.689 375.912 228.9 375.138L225.791 372.718C225.999 371.824 226.169 370.918 226.318 370.003L230.136 368.951C230.234 368.159 230.302 367.36 230.36 366.556L226.83 364.785C226.847 364.323 226.9 363.872 226.9 363.406Z" fill="#92A5B9"/>
<path d="M221.372 363.402C221.372 363 221.326 362.609 221.312 362.211L224.364 360.68C224.314 359.984 224.255 359.293 224.17 358.608L220.87 357.699C220.741 356.908 220.594 356.125 220.413 355.352L223.101 353.26C222.918 352.591 222.73 351.926 222.514 351.271L219.094 351.023C218.812 350.273 218.514 349.533 218.184 348.808L220.41 346.233C220.1 345.613 219.783 344.999 219.438 344.399L216.039 344.821C215.617 344.143 215.179 343.479 214.712 342.833L216.398 339.869C215.97 339.321 215.532 338.784 215.078 338.259L211.834 339.334C211.289 338.752 210.726 338.19 210.145 337.647L211.22 334.403C210.696 333.949 210.158 333.512 209.611 333.086L206.644 334.768C205.997 334.303 205.332 333.863 204.653 333.442L205.076 330.045C204.475 329.702 203.861 329.385 203.241 329.074L200.664 331.3C199.938 330.97 199.197 330.671 198.448 330.39L198.199 326.973C197.544 326.757 196.879 326.568 196.209 326.385L194.115 329.072C193.342 328.891 192.559 328.744 191.767 328.615L190.856 325.318C190.171 325.233 189.479 325.174 188.784 325.126L187.252 328.175C186.853 328.161 186.462 328.114 186.059 328.114C185.657 328.114 185.265 328.161 184.866 328.175L183.334 325.126C182.64 325.174 181.947 325.234 181.262 325.318L180.352 328.615C179.558 328.744 178.776 328.891 178.003 329.072L175.909 326.385C175.24 326.568 174.574 326.755 173.919 326.973L173.67 330.39C172.92 330.671 172.179 330.97 171.454 331.3L168.877 329.074C168.257 329.385 167.643 329.702 167.042 330.045L167.465 333.442C166.786 333.863 166.122 334.303 165.475 334.768L162.508 333.086C161.961 333.512 161.422 333.949 160.898 334.403L161.973 337.647C161.391 338.191 160.828 338.753 160.285 339.334L157.04 338.259C156.586 338.784 156.149 339.32 155.721 339.869L157.406 342.833C156.939 343.479 156.501 344.143 156.079 344.821L152.68 344.399C152.336 345 152.019 345.613 151.707 346.233L153.935 348.808C153.605 349.533 153.307 350.274 153.024 351.023L149.604 351.271C149.388 351.926 149.2 352.591 149.017 353.26L151.705 355.352C151.524 356.125 151.378 356.908 151.248 357.699L147.948 358.608C147.863 359.293 147.804 359.984 147.754 360.68L150.806 362.211C150.792 362.61 150.746 363 150.746 363.402C150.746 363.804 150.792 364.195 150.806 364.594L147.754 366.125C147.804 366.822 147.863 367.511 147.948 368.196L151.248 369.105C151.377 369.896 151.524 370.68 151.705 371.452L149.017 373.544C149.2 374.214 149.388 374.879 149.604 375.532L153.024 375.781C153.307 376.532 153.605 377.271 153.935 377.996L151.707 380.572C152.019 381.191 152.336 381.805 152.68 382.405L156.079 381.983C156.501 382.661 156.939 383.325 157.406 383.971L155.721 386.935C156.149 387.483 156.586 388.02 157.04 388.545L160.285 387.47C160.83 388.052 161.393 388.615 161.973 389.158L160.898 392.401C161.422 392.856 161.961 393.292 162.508 393.719L165.475 392.037C166.122 392.502 166.786 392.941 167.465 393.363L167.042 396.759C167.643 397.102 168.257 397.42 168.877 397.73L171.454 395.504C172.18 395.834 172.921 396.133 173.67 396.415L173.919 399.831C174.574 400.048 175.24 400.236 175.909 400.419L178.003 397.733C178.776 397.914 179.559 398.061 180.352 398.19L181.262 401.487C181.947 401.572 182.64 401.631 183.334 401.679L184.866 398.63C185.265 398.644 185.657 398.691 186.059 398.691C186.462 398.691 186.852 398.644 187.252 398.63L188.784 401.679C189.479 401.631 190.171 401.571 190.856 401.487L191.767 398.19C192.559 398.061 193.342 397.914 194.115 397.733L196.209 400.419C196.879 400.236 197.544 400.049 198.199 399.831L198.448 396.415C199.198 396.133 199.939 395.834 200.664 395.504L203.241 397.73C203.861 397.42 204.475 397.102 205.076 396.759L204.653 393.363C205.332 392.941 205.997 392.502 206.644 392.037L209.611 393.719C210.158 393.292 210.696 392.856 211.22 392.401L210.145 389.158C210.728 388.614 211.29 388.052 211.834 387.47L215.078 388.545C215.532 388.021 215.97 387.484 216.398 386.935L214.712 383.971C215.179 383.325 215.617 382.661 216.039 381.983L219.438 382.405C219.783 381.805 220.1 381.191 220.41 380.572L218.184 377.996C218.514 377.271 218.812 376.53 219.094 375.781L222.514 375.532C222.73 374.879 222.918 374.214 223.101 373.544L220.413 371.452C220.593 370.68 220.74 369.896 220.87 369.105L224.17 368.196C224.255 367.511 224.314 366.82 224.364 366.125L221.312 364.594C221.326 364.195 221.372 363.804 221.372 363.402Z" fill="#698196"/>
<path d="M215.256 363.414C215.256 363.046 215.241 362.681 215.227 362.315L218.12 360.345C218.047 359.584 217.946 358.832 217.822 358.087L214.523 356.934C214.36 356.213 214.176 355.498 213.959 354.797L216.238 352.152C215.971 351.44 215.676 350.741 215.361 350.053L211.877 349.793C211.533 349.141 211.164 348.505 210.771 347.885L212.286 344.742C211.844 344.123 211.388 343.514 210.904 342.929L207.463 343.58C206.964 343.042 206.445 342.524 205.906 342.025L206.557 338.586C205.972 338.103 205.363 337.646 204.743 337.205L201.597 338.719C200.976 338.328 200.34 337.959 199.689 337.613L199.428 334.132C198.739 333.818 198.041 333.523 197.327 333.256L194.68 335.533C193.979 335.317 193.264 335.133 192.542 334.969L191.388 331.673C190.642 331.549 189.889 331.448 189.128 331.376L187.156 334.266C186.791 334.252 186.426 334.238 186.057 334.238C185.687 334.238 185.323 334.252 184.957 334.266L182.986 331.376C182.223 331.448 181.471 331.549 180.725 331.673L179.571 334.969C178.85 335.133 178.134 335.316 177.433 335.533L174.786 333.256C174.073 333.523 173.374 333.818 172.685 334.132L172.425 337.613C171.773 337.958 171.137 338.326 170.516 338.719L167.37 337.205C166.751 337.646 166.142 338.103 165.556 338.586L166.207 342.025C165.669 342.523 165.15 343.042 164.65 343.58L161.21 342.929C160.726 343.514 160.269 344.123 159.827 344.742L161.342 347.885C160.951 348.506 160.582 349.142 160.237 349.793L156.753 350.053C156.438 350.741 156.143 351.44 155.877 352.152L158.154 354.797C157.938 355.498 157.754 356.212 157.59 356.934L154.292 358.087C154.167 358.832 154.066 359.584 153.994 360.345L156.886 362.315C156.872 362.681 156.858 363.046 156.858 363.414C156.858 363.783 156.872 364.148 156.886 364.513L153.994 366.483C154.066 367.245 154.167 367.997 154.292 368.742L157.59 369.895C157.754 370.616 157.938 371.331 158.154 372.032L155.877 374.676C156.143 375.389 156.438 376.088 156.753 376.775L160.237 377.036C160.581 377.687 160.95 378.323 161.342 378.943L159.827 382.087C160.269 382.706 160.726 383.314 161.21 383.899L164.65 383.249C165.15 383.786 165.669 384.305 166.207 384.804L165.556 388.243C166.142 388.726 166.751 389.182 167.37 389.624L170.516 388.11C171.137 388.502 171.774 388.87 172.425 389.215L172.685 392.696C173.374 393.011 174.073 393.306 174.786 393.572L177.433 391.296C178.134 391.512 178.849 391.696 179.571 391.86L180.725 395.155C181.471 395.279 182.224 395.381 182.986 395.453L184.957 392.563C185.323 392.577 185.688 392.591 186.057 392.591C186.425 392.591 186.791 392.577 187.156 392.563L189.128 395.453C189.89 395.381 190.642 395.279 191.388 395.155L192.542 391.859C193.263 391.696 193.979 391.512 194.68 391.296L197.327 393.572C198.041 393.306 198.739 393.011 199.428 392.696L199.689 389.215C200.34 388.871 200.976 388.503 201.597 388.11L204.743 389.624C205.363 389.182 205.972 388.726 206.557 388.243L205.906 384.804C206.444 384.305 206.963 383.787 207.463 383.249L210.903 383.899C211.388 383.314 211.844 382.706 212.286 382.087L210.771 378.943C211.162 378.322 211.531 377.687 211.877 377.036L215.361 376.775C215.676 376.088 215.971 375.389 216.238 374.676L213.959 372.032C214.176 371.331 214.36 370.617 214.523 369.895L217.822 368.742C217.946 367.997 218.047 367.244 218.12 366.483L215.227 364.513C215.241 364.148 215.256 363.783 215.256 363.414Z" fill="#486274"/>
<path d="M466.688 355.541C466.62 355.541 466.552 355.539 466.484 355.533L187.444 333.384C187.118 333.36 186.802 333.274 186.511 333.13C186.22 332.987 185.961 332.789 185.749 332.548C185.538 332.307 185.377 332.027 185.276 331.725C185.176 331.423 185.138 331.105 185.164 330.789C185.191 330.473 185.281 330.165 185.43 329.883C185.579 329.601 185.784 329.351 186.034 329.146C186.283 328.941 186.571 328.787 186.882 328.691C187.193 328.595 187.52 328.56 187.844 328.587L466.885 350.736C467.522 350.787 468.113 351.074 468.537 351.539C468.96 352.004 469.182 352.61 469.157 353.231C469.131 353.852 468.86 354.438 468.4 354.869C467.94 355.299 467.326 355.54 466.688 355.541Z" fill="#486274"/>
<path d="M187.687 435.376C187.046 435.376 186.43 435.133 185.969 434.7C185.508 434.267 185.238 433.677 185.216 433.053C185.194 432.43 185.421 431.822 185.85 431.359C186.279 430.896 186.876 430.613 187.516 430.569L466.506 411.461C466.831 411.438 467.156 411.479 467.464 411.579C467.772 411.679 468.057 411.837 468.302 412.044C468.547 412.251 468.749 412.504 468.894 412.787C469.039 413.069 469.125 413.377 469.148 413.692C469.171 414.007 469.129 414.324 469.027 414.624C468.924 414.924 468.761 415.201 468.548 415.439C468.335 415.678 468.076 415.873 467.786 416.014C467.495 416.156 467.178 416.24 466.854 416.262L187.864 435.37C187.803 435.374 187.745 435.376 187.687 435.376Z" fill="#486274"/>
<path d="M801.222 198.771H798.418V512.804H801.222V198.771Z" fill="#90B4C6"/>
<path d="M829.474 198.771H826.67V512.804H829.474V198.771Z" fill="#90B4C6"/>
<path d="M971.075 340.264H656.807V343.065H971.075V340.264Z" fill="#90B4C6"/>
<path d="M971.075 368.506H656.807V371.308H971.075V368.506Z" fill="#90B4C6"/>
<path d="M914.067 233.785L691.846 455.84L693.828 457.821L916.05 235.766L914.067 233.785Z" fill="#90B4C6"/>
<path d="M934.057 253.756L711.836 475.811L713.818 477.792L936.039 255.737L934.057 253.756Z" fill="#90B4C6"/>
<path d="M713.819 233.772L711.836 235.753L934.043 457.821L936.026 455.841L713.819 233.772Z" fill="#90B4C6"/>
<path d="M693.838 253.761L691.855 255.742L914.063 477.81L916.046 475.829L693.838 253.761Z" fill="#90B4C6"/>
<path d="M666.327 307.027L665.781 308.799L965.45 400.951L965.996 399.179L666.327 307.027Z" fill="#90B4C6"/>
<path d="M965.423 310.527L665.107 399.277L665.634 401.057L965.949 312.306L965.423 310.527Z" fill="#90B4C6"/>
<path d="M859.187 206.157L766.914 505.586L768.687 506.132L860.961 206.702L859.187 206.157Z" fill="#90B4C6"/>
<path d="M768.721 205.454L766.943 205.978L855.561 506.128L857.339 505.604L768.721 205.454Z" fill="#90B4C6"/>
<path d="M744.138 216.234L742.5 217.101L889.188 494.003L890.826 493.136L744.138 216.234Z" fill="#90B4C6"/>
<path d="M678.056 280.509L677.168 282.139L952.228 431.762L953.115 430.132L678.056 280.509Z" fill="#90B4C6"/>
<path d="M951.853 281.084L674.824 427.812L675.694 429.452L952.722 282.723L951.853 281.084Z" fill="#90B4C6"/>
<path d="M886.824 215.884L737.041 490.713L738.67 491.599L888.452 216.77L886.824 215.884Z" fill="#90B4C6"/>
<path d="M813.945 169.874C777.147 169.874 741.176 180.778 710.579 201.206C679.982 221.635 656.135 250.672 642.053 284.643C627.971 318.615 624.287 355.996 631.466 392.06C638.645 428.124 656.365 461.252 682.385 487.252C708.405 513.253 741.557 530.96 777.648 538.133C813.739 545.307 851.149 541.625 885.146 527.554C919.143 513.482 948.201 489.653 968.645 459.079C989.088 428.506 1000 392.56 1000 355.79C1000 331.375 995.188 307.2 985.838 284.643C976.488 262.087 962.783 241.592 945.506 224.328C928.229 207.064 907.719 193.369 885.146 184.026C862.572 174.683 838.379 169.874 813.945 169.874ZM813.945 515.938C782.247 515.939 751.261 506.547 724.905 488.949C698.548 471.352 678.006 446.34 665.875 417.077C653.744 387.813 650.571 355.613 656.755 324.547C662.938 293.481 678.202 264.945 700.616 242.547C723.03 220.15 751.587 204.897 782.676 198.718C813.765 192.538 845.99 195.709 875.276 207.831C904.561 219.952 929.592 240.478 947.202 266.815C964.813 293.151 974.213 324.115 974.213 355.789C974.213 376.82 970.068 397.645 962.014 417.076C953.959 436.506 942.154 454.161 927.272 469.032C912.39 483.903 894.722 495.7 875.277 503.748C855.833 511.797 834.992 515.939 813.945 515.939V515.938Z" fill="#2B2B2C"/>
<path d="M813.947 534.222C778.628 534.222 744.102 523.756 714.735 504.148C685.369 484.541 662.48 456.671 648.964 424.065C635.448 391.459 631.912 355.58 638.803 320.965C645.693 286.351 662.701 254.555 687.676 229.6C712.65 204.644 744.47 187.649 779.11 180.764C813.751 173.879 849.657 177.413 882.287 190.919C914.918 204.425 942.808 227.296 962.43 256.641C982.052 285.986 992.525 320.486 992.525 355.779C992.472 403.089 973.64 448.446 940.162 481.899C906.684 515.352 861.292 534.169 813.947 534.222ZM813.947 188.158C780.77 188.157 748.337 197.987 720.751 216.405C693.164 234.823 671.663 261.002 658.966 291.63C646.269 322.259 642.947 355.962 649.419 388.478C655.891 420.993 671.867 450.861 695.327 474.304C718.786 497.746 748.676 513.711 781.216 520.179C813.756 526.647 847.484 523.328 878.136 510.641C908.788 497.954 934.986 476.47 953.419 448.904C971.851 421.339 981.69 388.931 981.69 355.779C981.639 311.339 963.951 268.734 932.504 237.31C901.057 205.886 858.42 188.209 813.947 188.158Z" fill="#46494D"/>
<path d="M813.95 195.636C782.252 195.636 751.266 205.029 724.91 222.626C698.554 240.224 678.012 265.235 665.881 294.499C653.751 323.762 650.577 355.963 656.761 387.029C662.945 418.095 678.209 446.63 700.623 469.028C723.037 491.425 751.594 506.677 782.683 512.857C813.773 519.036 845.998 515.864 875.283 503.743C904.568 491.622 929.599 471.095 947.209 444.759C964.82 418.423 974.219 387.459 974.219 355.785C974.219 313.311 957.333 272.576 927.277 242.542C897.221 212.509 856.456 195.636 813.95 195.636ZM813.95 507.446C783.932 507.446 754.587 498.552 729.628 481.887C704.669 465.223 685.216 441.536 673.728 413.824C662.24 386.112 659.234 355.618 665.091 326.198C670.947 296.779 685.402 269.755 706.628 248.545C727.854 227.335 754.897 212.89 784.339 207.039C813.78 201.187 844.297 204.189 872.03 215.668C899.763 227.147 923.467 246.586 940.144 271.527C956.822 296.467 965.723 325.789 965.723 355.785C965.723 396.007 949.733 434.583 921.27 463.025C892.807 491.467 854.203 507.446 813.95 507.446Z" fill="#4D637D"/>
<path d="M813.937 304.57C803.8 304.57 793.891 307.573 785.463 313.201C777.035 318.828 770.466 326.826 766.587 336.184C762.708 345.542 761.693 355.839 763.67 365.773C765.648 375.707 770.529 384.833 777.696 391.995C784.864 399.157 793.996 404.035 803.937 406.011C813.879 407.987 824.184 406.972 833.549 403.096C842.914 399.22 850.918 392.656 856.549 384.234C862.181 375.813 865.186 365.911 865.186 355.782C865.186 342.2 859.787 329.174 850.176 319.57C840.565 309.966 827.529 304.571 813.937 304.57ZM813.937 397.813C805.618 397.813 797.485 395.348 790.568 390.73C783.651 386.111 778.26 379.547 775.076 371.867C771.892 364.187 771.06 355.736 772.683 347.582C774.306 339.429 778.312 331.94 784.194 326.062C790.077 320.184 797.572 316.181 805.731 314.559C813.89 312.937 822.348 313.77 830.033 316.951C837.719 320.132 844.288 325.519 848.91 332.431C853.532 339.343 855.999 347.469 855.999 355.782C855.999 361.302 854.911 366.767 852.797 371.867C850.684 376.966 847.585 381.6 843.679 385.503C839.773 389.405 835.137 392.502 830.033 394.614C824.93 396.726 819.46 397.813 813.937 397.813Z" fill="#C8DAF0"/>
<path d="M813.944 377.426C825.906 377.426 835.603 367.736 835.603 355.783C835.603 343.83 825.906 334.141 813.944 334.141C801.982 334.141 792.285 343.83 792.285 355.783C792.285 367.736 801.982 377.426 813.944 377.426Z" fill="#C8DAF0"/>
<path d="M813.947 375.464C812.379 375.463 810.853 374.979 809.586 374.083C808.318 373.187 807.374 371.923 806.889 370.474L692.452 28.0269C692.147 27.113 692.033 26.1497 692.116 25.1924C692.199 24.2351 692.477 23.3029 692.935 22.4516C693.393 21.6002 694.02 20.8464 694.781 20.2338C695.542 19.6212 696.42 19.1621 697.366 18.8839L760.554 0.329022C761.49 0.0448976 762.475 -0.0560113 763.451 0.0320983C764.427 0.120208 765.376 0.395584 766.242 0.842358C767.109 1.28913 767.875 1.89869 768.498 2.63532C769.121 3.37195 769.587 4.22102 769.871 5.13405C770.154 6.04707 770.249 7.00602 770.149 7.95482C770.049 8.90363 769.758 9.82352 769.29 10.662C768.823 11.5004 768.19 12.2408 767.426 12.8398C766.663 13.4388 765.786 13.8847 764.845 14.152L708.913 30.5753L821.01 366.01C821.371 367.094 821.463 368.246 821.279 369.371C821.095 370.496 820.641 371.563 819.952 372.485C819.264 373.407 818.361 374.158 817.317 374.675C816.274 375.193 815.119 375.462 813.947 375.463L813.947 375.464Z" fill="#5DA29E"/>
<path d="M468.227 393.834C468.066 393.834 467.898 393.829 467.734 393.818L183.756 375.444C182.339 375.352 180.98 374.867 179.838 374.047C178.696 373.227 177.82 372.105 177.314 370.815C176.807 369.525 176.692 368.121 176.981 366.769C177.271 365.417 177.952 364.175 178.946 363.188L381.573 161.968C382.448 161.1 383.534 160.46 384.731 160.108L341.474 35.3165C340.876 33.498 341.042 31.5237 341.937 29.8245C342.832 28.1254 346.25 26.25 346.25 26.25C346.25 26.25 350.147 25.8132 351.898 26.676C351.898 26.676 354.977 29.041 355.592 30.8541L399.536 157.701L727.428 105.796C728.943 105.557 730.497 105.78 731.876 106.435C733.255 107.09 734.391 108.145 735.128 109.455C735.866 110.764 736.167 112.263 735.992 113.746C735.817 115.229 735.173 116.623 734.15 117.735L485.352 388.162C484.49 387.418 483.452 386.892 482.33 386.632C481.209 386.372 480.038 386.385 478.923 386.671C477.808 386.956 476.783 387.505 475.939 388.269C475.095 389.033 474.458 389.987 474.084 391.048C473.39 391.916 472.502 392.618 471.487 393.1C470.472 393.583 469.357 393.834 468.227 393.834ZM404.178 171.596L473.617 379.387C473.818 379.086 474.044 378.801 474.291 378.535L709.085 123.329L404.178 171.596ZM200.841 362.079L457.781 378.704L389.59 174.645L200.841 362.079Z" fill="#5DA29E"/>
<path d="M464.766 333.503C454.63 333.503 444.721 336.426 436.293 341.904C427.865 347.382 421.296 355.168 417.417 364.277C413.538 373.386 412.523 383.41 414.5 393.08C416.478 402.751 421.359 411.634 428.527 418.606C435.694 425.578 444.826 430.326 454.768 432.249C464.709 434.173 475.014 433.186 484.379 429.412C493.743 425.639 501.748 419.25 507.379 411.052C513.011 402.854 516.017 393.215 516.017 383.355C516.017 370.133 510.617 357.453 501.005 348.104C491.394 338.755 478.359 333.503 464.766 333.503ZM464.766 424.27C456.447 424.27 448.315 421.87 441.398 417.375C434.481 412.879 429.089 406.488 425.906 399.012C422.722 391.536 421.889 383.31 423.512 375.373C425.135 367.436 429.141 360.146 435.024 354.424C440.906 348.702 448.401 344.804 456.56 343.226C464.72 341.647 473.177 342.458 480.863 345.554C488.549 348.651 495.119 353.895 499.74 360.624C504.362 367.352 506.829 375.263 506.829 383.355C506.829 388.728 505.741 394.049 503.627 399.013C501.513 403.977 498.415 408.487 494.509 412.286C490.603 416.086 485.966 419.1 480.863 421.156C475.76 423.212 470.29 424.27 464.766 424.27Z" fill="#C8DAF0"/>
<path d="M464.777 346.308C457.244 346.308 449.88 348.481 443.617 352.552C437.353 356.623 432.471 362.41 429.589 369.179C426.706 375.949 425.952 383.399 427.421 390.585C428.891 397.772 432.518 404.374 437.845 409.555C443.172 414.737 449.959 418.265 457.347 419.695C464.735 421.124 472.394 420.39 479.353 417.586C486.313 414.782 492.262 410.033 496.447 403.94C500.632 397.847 502.866 390.685 502.866 383.357C502.865 373.531 498.852 364.107 491.709 357.159C484.566 350.211 474.879 346.308 464.777 346.308ZM464.777 411.492C459.056 411.491 453.465 409.841 448.708 406.749C443.952 403.658 440.245 399.264 438.056 394.123C435.867 388.982 435.294 383.325 436.41 377.867C437.526 372.41 440.281 367.397 444.326 363.463C448.371 359.528 453.525 356.848 459.135 355.762C464.746 354.677 470.561 355.234 475.846 357.363C481.131 359.492 485.649 363.099 488.827 367.725C492.005 372.352 493.702 377.791 493.702 383.355C493.702 387.05 492.954 390.709 491.5 394.123C490.047 397.536 487.916 400.638 485.23 403.251C482.545 405.864 479.356 407.936 475.846 409.35C472.337 410.764 468.576 411.492 464.777 411.492V411.492Z" fill="#C8DAF0"/>
<path d="M464.774 359.331C459.891 359.331 455.119 360.74 451.059 363.378C447 366.017 443.835 369.767 441.967 374.155C440.099 378.542 439.61 383.371 440.562 388.029C441.515 392.687 443.866 396.965 447.318 400.323C450.771 403.682 455.169 405.969 459.958 406.895C464.747 407.822 469.71 407.346 474.221 405.528C478.732 403.711 482.587 400.633 485.3 396.684C488.012 392.735 489.46 388.093 489.46 383.343C489.46 380.19 488.821 377.068 487.581 374.154C486.34 371.241 484.522 368.594 482.229 366.364C479.937 364.134 477.216 362.365 474.221 361.159C471.226 359.952 468.016 359.331 464.774 359.331ZM464.774 397.989C461.796 397.989 458.885 397.13 456.409 395.521C453.933 393.912 452.004 391.624 450.864 388.948C449.724 386.272 449.425 383.328 450.006 380.487C450.587 377.646 452.021 375.036 454.127 372.988C456.232 370.94 458.915 369.545 461.835 368.98C464.756 368.415 467.783 368.705 470.534 369.813C473.285 370.922 475.636 372.799 477.291 375.207C478.945 377.615 479.829 380.447 479.829 383.343C479.829 385.267 479.439 387.171 478.683 388.948C477.926 390.725 476.817 392.339 475.419 393.699C474.022 395.059 472.362 396.137 470.535 396.873C468.709 397.609 466.751 397.989 464.774 397.989Z" fill="#C8DAF0"/>
<path d="M757.609 176.447C757.609 176.447 672.328 200.641 634.902 274.217C634.902 274.217 648.004 207.429 737.359 162.35C738.381 165.063 740.426 167.296 743.078 168.598C745.73 169.899 748.791 170.171 751.642 169.358L754.891 168.432L757.609 176.447Z" fill="#2B2B2C"/>
<path d="M432.149 453.038C430.559 452.33 429.312 451.053 428.665 449.473C428.019 447.893 428.023 446.131 428.678 444.555L455.541 379.838C456.091 378.669 456.873 377.617 457.841 376.742C458.81 375.866 459.946 375.185 461.185 374.737C462.425 374.289 463.743 374.083 465.064 374.13C466.385 374.177 467.684 374.477 468.886 375.013C470.088 375.548 471.169 376.309 472.069 377.251C472.969 378.193 473.67 379.299 474.13 380.504C474.591 381.71 474.803 382.991 474.754 384.276C474.706 385.561 474.397 386.825 473.847 387.994L441.021 450.053C440.221 451.565 438.852 452.72 437.2 453.276C435.548 453.831 433.739 453.746 432.149 453.038Z" fill="#2B2B2C"/>
<path d="M734.825 155.124C734.825 155.124 803.463 118.287 887.266 150.007L904.097 146.331C904.097 146.331 839.229 101.916 744.205 135.682C743.78 138.668 742.59 141.503 740.746 143.926C738.902 146.349 736.462 148.283 733.65 149.55L733.184 149.761L734.825 155.124Z" fill="#2B2B2C"/>
<path d="M336.482 194.544C337.676 193.334 338.417 191.769 338.586 190.1C338.756 188.43 338.344 186.754 337.417 185.34C314.008 150.765 280.765 123.56 241.74 107.04C148.706 67.3383 38.3688 111.588 38.3688 111.588L72.383 118.864C251.808 72.2212 326.232 178.212 336.482 194.544Z" fill="#2B2B2C"/>
<path d="M309.56 162.864L392.509 138.423L394.598 144.672L316.564 167.067L309.56 162.864Z" fill="#2B2B2C"/>
<path d="M729.254 78.7969L707.91 84.7595L709.588 90.442L730.932 84.4794L729.254 78.7969Z" fill="#2B2B2C"/>
<path d="M726.279 82.5415L708.912 30.5747L764.845 14.1514C765.786 13.8842 766.663 13.4382 767.426 12.8392C768.19 12.2403 768.823 11.5004 769.29 10.662C769.758 9.82352 770.049 8.90306 770.149 7.95425C770.249 7.00545 770.154 6.04707 769.871 5.13405C769.587 4.22102 769.121 3.37195 768.498 2.63532C767.875 1.89869 767.109 1.28913 766.242 0.842358C765.376 0.395584 764.427 0.120208 763.451 0.0320983C762.475 -0.0560113 761.49 0.0448976 760.554 0.329022L697.366 18.8839C696.42 19.1621 695.541 19.6212 694.781 20.2338C694.02 20.8464 693.393 21.6002 692.935 22.4516C692.477 23.303 692.199 24.2345 692.116 25.1918C692.033 26.1492 692.147 27.113 692.452 28.0269L711.963 86.4107L726.279 82.5415Z" fill="#2B2B2C"/>
<path d="M462.571 444.195H405.199C404.66 444.195 404.126 444.298 403.628 444.499C403.13 444.7 402.677 444.994 402.296 445.365C401.915 445.735 401.612 446.176 401.406 446.66C401.2 447.145 401.094 447.664 401.094 448.188V454.891C401.094 455.415 401.2 455.935 401.406 456.419C401.612 456.904 401.915 457.344 402.296 457.715C402.677 458.086 403.13 458.38 403.628 458.581C404.126 458.781 404.66 458.884 405.199 458.884H462.571C463.66 458.884 464.705 458.464 465.475 457.715C466.244 456.966 466.677 455.95 466.677 454.891V448.188C466.677 447.129 466.244 446.114 465.475 445.365C464.705 444.616 463.66 444.195 462.571 444.195ZM417.551 454.865H411.181C410.73 454.869 410.282 454.786 409.864 454.62C409.446 454.455 409.065 454.21 408.745 453.901C408.424 453.592 408.17 453.224 407.997 452.819C407.823 452.413 407.734 451.979 407.734 451.54C407.734 451.1 407.823 450.666 407.997 450.26C408.17 449.855 408.424 449.488 408.745 449.178C409.065 448.869 409.446 448.625 409.864 448.459C410.282 448.294 410.73 448.21 411.181 448.214H417.551C418.003 448.21 418.45 448.294 418.868 448.459C419.286 448.625 419.666 448.869 419.987 449.178C420.307 449.488 420.562 449.855 420.735 450.26C420.909 450.666 420.998 451.1 420.998 451.54C420.998 451.979 420.909 452.413 420.735 452.819C420.562 453.224 420.307 453.592 419.987 453.901C419.666 454.21 419.286 454.455 418.868 454.62C418.45 454.786 418.003 454.869 417.551 454.865ZM456.589 454.865H450.219C449.317 454.858 448.455 454.504 447.82 453.881C447.185 453.258 446.829 452.417 446.829 451.54C446.829 450.662 447.185 449.821 447.82 449.198C448.455 448.575 449.317 448.221 450.219 448.214H456.589C457.04 448.21 457.487 448.294 457.906 448.459C458.324 448.625 458.704 448.869 459.024 449.178C459.345 449.488 459.599 449.855 459.773 450.26C459.946 450.666 460.036 451.1 460.036 451.54C460.036 451.979 459.946 452.413 459.773 452.819C459.599 453.224 459.345 453.592 459.024 453.901C458.704 454.21 458.324 454.455 457.906 454.62C457.487 454.786 457.04 454.869 456.589 454.865Z" fill="#3E3F41"/>
<path d="M767.651 205.584L753.125 210.262L764.504 243.689L779.03 239.01L767.651 205.584Z" fill="#90B4C6"/>
<path d="M752.567 192.232L756.718 190.895C758.43 190.344 760.297 190.476 761.908 191.264C763.519 192.051 764.742 193.429 765.309 195.094L768.82 205.409L751.761 210.903L748.25 200.588C747.683 198.923 747.82 197.107 748.629 195.54C749.439 193.973 750.856 192.783 752.567 192.232Z" fill="#2B2B2C"/>
<path d="M770.105 262.352L786.055 257.214L779.657 238.42L763.707 243.557L770.105 262.352Z" fill="#2B2B2C"/>
<path d="M194.261 391.026H180.06C178.247 391.026 176.508 391.726 175.225 392.973C173.943 394.221 173.222 395.912 173.222 397.676C173.222 399.44 173.943 401.132 175.225 402.379C176.508 403.627 178.247 404.327 180.06 404.327H183.742C184.718 404.327 185.655 404.705 186.345 405.376C187.036 406.048 187.424 406.959 187.424 407.909V412.734C187.421 413.974 187.057 415.187 186.373 416.233C185.689 417.279 184.714 418.114 183.56 418.642C182.098 419.314 180.848 420.356 179.94 421.658C179.033 422.961 178.502 424.476 178.402 426.047C178.303 427.617 178.638 429.184 179.374 430.586C180.11 431.987 181.219 433.17 182.586 434.012C183.953 434.853 185.526 435.323 187.143 435.371C188.76 435.419 190.36 435.044 191.777 434.285C193.194 433.525 194.375 432.41 195.197 431.055C196.02 429.701 196.453 428.156 196.453 426.582C196.452 425.898 196.365 425.218 196.193 424.555C196.015 423.945 195.98 423.304 196.09 422.68C196.201 422.055 196.454 421.463 196.832 420.946L197.101 420.596C199.696 417.231 201.099 413.137 201.099 408.93V397.678C201.099 396.804 200.922 395.939 200.579 395.132C200.235 394.325 199.731 393.592 199.096 392.974C198.462 392.356 197.708 391.866 196.878 391.531C196.048 391.197 195.159 391.026 194.261 391.026Z" fill="#2E4551"/>
<path opacity="0.56" d="M430.898 152.739L435.327 154.987C440.307 157.515 445.993 158.413 451.54 157.547L687.042 120.781C690.681 120.213 694.156 118.902 697.236 116.934C700.317 114.965 702.934 112.385 704.916 109.362L430.898 152.739Z" fill="white"/>
<path opacity="0.22" d="M692.915 22.4558C692.282 23.6477 692.004 24.9877 692.113 26.3249L755.757 7.2767C755.757 7.2767 755.667 1.74615 760.533 0.333252L697.344 18.8881C696.399 19.1659 695.52 19.6248 694.76 20.2374C693.999 20.85 693.372 21.6042 692.915 22.4558Z" fill="white"/>
<path d="M280.049 11.2054C279.249 11.916 278.609 12.7801 278.17 13.7436C277.732 14.7071 277.504 15.7487 277.5 16.8025C277.496 17.8563 277.718 18.8996 278.15 19.8659C278.582 20.8322 279.216 21.7008 280.011 22.4166C287.389 29.4111 296.464 34.4794 306.394 37.1514C316.324 39.8235 326.787 40.0122 336.812 37.7008C375.017 28.83 387.937 16.2633 428.214 14.0456C428.214 14.0456 425.488 0 401.012 0C376.537 0 327.899 6.65342 303.581 5.17504C291.054 4.41351 283.973 7.76992 280.049 11.2054Z" fill="#2B2B2C"/>
<path d="M326.263 28.1039C356.418 26.9672 383.3 4.45614 412.52 5.59306C412.52 5.59306 395.924 -1.22888 363.432 8.32133C338.66 15.6022 320.215 15.844 312.09 5.38864C309.022 5.39682 306.157 5.33658 303.578 5.17965C297.537 4.59758 291.44 5.44781 285.811 7.65839C285.91 7.86514 296.254 29.2354 326.263 28.1039Z" fill="#5DA29E"/>
<path opacity="0.31" d="M402.975 11.7505C378.499 11.7505 329.862 18.4039 305.543 16.9255C293.016 16.164 285.935 19.5216 282.012 22.9559C281.193 23.6727 280.543 24.5525 280.105 25.5357C279.667 26.519 279.452 27.5827 279.474 28.654C279.532 28.5223 283.739 18.9458 298.365 21.1464C313.092 23.3636 318.352 35.6419 356.922 25.7504C395.493 15.859 413.843 11.0026 430.177 25.7956C430.177 25.7965 427.451 11.7505 402.975 11.7505Z" fill="white"/>
<path opacity="0.22" d="M754.854 132.181L761.912 137.699C761.912 137.699 837.636 116.438 894.849 148.321L904.097 146.301C904.097 146.301 844.033 105.222 754.854 132.181Z" fill="white"/>
<path opacity="0.31" d="M285.183 131.586C271.701 121.835 257.127 113.6 241.74 107.04C148.706 67.3383 38.3688 111.588 38.3688 111.588L53.6794 114.862C93.8892 100.172 190.519 75.5232 285.183 131.586Z" fill="white"/>
</g>
<defs>
<clipPath id="clip0_1276_5069">
<rect width="1000" height="550" fill="white"/>
</clipPath>
</defs>
</svg>
