<svg width="1000" height="400" viewBox="0 0 1000 400" fill="none" xmlns="http://www.w3.org/2000/svg">
<g clip-path="url(#clip0_1276_5435)">
<path d="M750.567 224.58H654.399V257.808H750.567V224.58Z" fill="#1A2D38"/>
<path d="M882.5 240H70V317.5H882.5V240Z" fill="#1A2D38"/>
<path d="M353.516 271.652H477.387C482.503 271.652 487.409 273.747 491.026 277.477C494.643 281.207 496.675 286.266 496.675 291.541V309.913C496.675 315.188 494.643 320.247 491.026 323.977C487.409 327.707 482.503 329.802 477.387 329.802H353.516C348.401 329.802 343.495 327.707 339.878 323.977C336.261 320.247 334.229 315.188 334.229 309.913V291.541C334.229 286.266 336.261 281.207 339.878 277.477C343.495 273.747 348.401 271.652 353.516 271.652Z" fill="#294856"/>
<path d="M664.251 329.802H650.151C650.135 314.996 644.424 300.8 634.27 290.33C624.117 279.86 610.351 273.971 595.992 273.954H575.874C561.515 273.971 547.749 279.86 537.595 290.33C527.442 300.8 521.73 314.996 521.714 329.802H507.615C507.635 311.141 514.833 293.25 527.63 280.055C540.427 266.859 557.777 259.436 575.874 259.415H595.992C614.089 259.436 631.439 266.859 644.235 280.055C657.032 293.25 664.23 311.141 664.251 329.802Z" fill="#294856"/>
<path d="M1000 350.86H885.572V319.573C885.572 303.21 879.299 287.51 868.121 275.896C856.943 264.282 841.766 257.696 825.898 257.572L750.566 256.985V32.2672C750.566 29.7596 751.045 27.2767 751.976 24.96C752.906 22.6433 754.271 20.5383 755.99 18.7652C757.71 16.9922 759.751 15.5857 761.997 14.6261C764.244 13.6665 766.652 13.1726 769.084 13.1726H919.55C925.134 13.1726 930.597 14.8506 935.271 18.0013C939.945 21.1519 943.627 25.6388 945.868 30.9132L995.252 147.17C998.383 154.541 1000 162.501 1000 170.548V350.86Z" fill="#3A6795"/>
<path opacity="0.32" d="M814.094 156.913H998.413C997.639 153.576 996.582 150.316 995.253 147.17L945.868 30.9133C943.628 25.6389 939.946 21.152 935.272 18.0013C930.597 14.8506 925.134 13.1726 919.55 13.1726H769.084C764.172 13.1726 759.462 15.1843 755.99 18.7652C752.517 22.3462 750.566 27.2029 750.566 32.2671V34.1496L785.284 135.875C787.383 142.026 791.282 147.353 796.443 151.121C801.603 154.89 807.771 156.913 814.094 156.913Z" fill="#68A8D7"/>
<path d="M946.533 32.4757L938.263 32.1069C937.643 32.1069 937.034 32.2652 936.488 32.5677C935.943 32.8701 935.479 33.3072 935.137 33.8399C934.796 34.3726 934.588 34.9843 934.532 35.6202C934.476 36.2562 934.574 36.8965 934.816 37.4839L975.493 135.919C976.84 139.178 979.086 141.957 981.952 143.91C984.818 145.863 988.178 146.905 991.613 146.905H995.253L946.533 32.4757Z" fill="#7FA9BE"/>
<path style="mix-blend-mode:screen" opacity="0.44" d="M947.77 35.3865L944.931 35.26C944.361 35.26 943.8 35.4058 943.298 35.6844C942.795 35.9629 942.368 36.3655 942.054 36.856C941.739 37.3466 941.548 37.9099 941.496 38.4955C941.445 39.0812 941.534 39.6708 941.758 40.2118L979.218 130.863C980.368 133.644 982.231 136.049 984.606 137.82C986.981 139.591 989.78 140.661 992.701 140.916L947.77 35.3865Z" fill="url(#paint0_linear_1276_5435)"/>
<path d="M844.092 149.433C839.495 149.41 835.073 147.615 831.694 144.399C828.316 141.184 826.227 136.782 825.838 132.058L818.993 44.0333C818.871 42.4591 819.066 40.8758 819.566 39.3831C820.066 37.8904 820.861 36.5207 821.899 35.3602C822.938 34.1997 824.199 33.2736 825.602 32.6402C827.005 32.0067 828.519 31.6797 830.051 31.6797H907.716C911.055 31.6738 914.321 32.6899 917.1 34.5994C919.879 36.5089 922.046 39.2259 923.327 42.4062L962.029 138.071C962.534 139.317 962.732 140.673 962.606 142.018C962.48 143.363 962.034 144.654 961.307 145.779C960.581 146.903 959.597 147.825 958.442 148.462C957.287 149.1 955.997 149.433 954.687 149.433H844.092Z" fill="#2C4D78"/>
<path d="M955.092 146.904H844.498C840.254 146.904 836.167 145.256 833.049 142.289C829.93 139.321 828.011 135.251 827.672 130.889L820.827 42.8648C820.72 41.4939 820.89 40.1151 821.326 38.8152C821.761 37.5154 822.453 36.3226 823.358 35.312C824.262 34.3014 825.36 33.4949 826.582 32.9433C827.803 32.3917 829.123 32.1069 830.456 32.1069H908.121C911.177 32.1069 914.164 33.0391 916.706 34.7861C919.249 36.5332 921.233 39.0169 922.409 41.9246L961.112 137.589C961.526 138.611 961.688 139.723 961.584 140.825C961.481 141.928 961.115 142.987 960.52 143.908C959.924 144.83 959.117 145.586 958.17 146.108C957.223 146.631 956.166 146.904 955.092 146.904Z" fill="#223C56"/>
<path d="M844.497 145.424C840.621 145.405 836.892 143.891 834.043 141.18C831.195 138.469 829.434 134.757 829.105 130.774L822.26 42.7491C822.169 41.5825 822.314 40.4091 822.685 39.3029C823.055 38.1967 823.644 37.1816 824.414 36.3215C825.184 35.4615 826.118 34.7751 827.158 34.3057C828.198 33.8362 829.32 33.5938 830.455 33.5938H908.12C910.893 33.5888 913.604 34.4324 915.912 36.0177C918.219 37.6029 920.017 39.8586 921.08 42.4989L959.784 138.163C960.106 138.96 960.232 139.826 960.152 140.686C960.071 141.545 959.786 142.37 959.322 143.089C958.858 143.807 958.229 144.396 957.491 144.803C956.753 145.211 955.928 145.424 955.091 145.424H844.497Z" fill="#6093A7"/>
<path d="M845.599 95.2173C844.288 90.5147 841.81 86.2463 838.409 82.8347C835.007 79.4231 830.801 76.9864 826.206 75.7658L824.775 75.3857L829.079 130.724C829.393 134.769 831.174 138.544 834.066 141.297C836.958 144.05 840.749 145.579 844.685 145.579H859.631L845.599 95.2173Z" fill="#416D7B"/>
<g style="mix-blend-mode:multiply">
<path d="M970.166 277.963H909.209L909.069 277.407C898.28 234.365 873.099 214.318 829.826 214.318H814.68V37.2369C814.684 33.7282 816.037 30.3643 818.443 27.8833C820.849 25.4022 824.112 24.0067 827.514 24.0027H909.977C913.989 23.9977 917.914 25.214 921.258 27.4992C924.603 29.7844 927.218 33.0368 928.778 36.8486L967.39 130.92C969.227 135.381 970.171 140.179 970.165 145.025L970.166 277.963ZM910.322 276.479H968.727V145.025C968.732 140.378 967.826 135.777 966.065 131.499L927.453 37.4269C926.003 33.8838 923.571 30.8608 920.463 28.7367C917.354 26.6126 913.707 25.4821 909.977 25.4867H827.514C824.493 25.4902 821.596 26.7293 819.46 28.9322C817.324 31.135 816.122 34.1217 816.119 37.2371V212.834H829.826C873.671 212.834 899.264 233.064 910.322 276.479Z" fill="#36605D"/>
</g>
<path d="M969.447 286.558H910.022V299.576H969.447V286.558Z" fill="#223C56"/>
<path d="M969.447 305.757H910.022V318.775H969.447V305.757Z" fill="#223C56"/>
<path d="M969.447 324.956H910.022V337.974H969.447V324.956Z" fill="#223C56"/>
<path d="M815.403 167.286H832.707C834.636 167.286 836.487 168.077 837.851 169.484C839.216 170.891 839.982 172.799 839.982 174.789V190.818C839.982 192.807 839.216 194.716 837.851 196.123C836.487 197.53 834.636 198.32 832.707 198.32H815.403V167.286Z" fill="#223C56"/>
<path style="mix-blend-mode:screen" opacity="0.44" d="M843.504 137.13H905.307L925.813 50.3616L922.4 41.9246C921.223 39.017 919.239 36.5332 916.696 34.7862C914.154 33.0391 911.167 32.1069 908.112 32.1069H859.213L836.561 127.955C836.301 129.035 836.281 130.162 836.502 131.252C836.723 132.341 837.18 133.365 837.839 134.247C838.497 135.129 839.34 135.847 840.305 136.346C841.27 136.845 842.331 137.113 843.411 137.13C843.442 137.13 843.473 137.13 843.504 137.13Z" fill="url(#paint1_linear_1276_5435)"/>
<path style="mix-blend-mode:screen" opacity="0.44" d="M954.096 137.133C955.207 137.137 956.3 136.846 957.271 136.288C958.242 135.73 959.057 134.925 959.638 133.948L938.259 81.1023L925.017 137.132L954.096 137.133Z" fill="url(#paint2_linear_1276_5435)"/>
<path d="M824.361 238.865H790.298C781.647 238.865 773.08 240.622 765.086 244.036C757.093 247.45 749.831 252.454 743.713 258.763C737.595 265.071 732.742 272.56 729.431 280.803C726.121 289.045 724.417 297.879 724.417 306.801V350.86H735.27V326.654C735.27 317.732 736.974 308.898 740.285 300.656C743.596 292.413 748.448 284.924 754.566 278.615C760.684 272.307 767.946 267.303 775.94 263.889C783.933 260.475 792.5 258.717 801.151 258.717H813.508C830.981 258.717 847.738 265.875 860.093 278.616C872.448 291.356 879.389 308.636 879.389 326.654V350.86H890.243V306.801C890.243 297.879 888.539 289.045 885.228 280.803C881.917 272.56 877.064 265.071 870.946 258.763C864.828 252.454 857.566 247.45 849.573 244.036C841.579 240.622 833.012 238.865 824.361 238.865Z" fill="#294856"/>
<path opacity="0.29" d="M824.361 238.865H790.298C781.647 238.865 773.08 240.622 765.086 244.036C757.093 247.45 749.831 252.454 743.713 258.763C737.595 265.071 732.742 272.56 729.431 280.803C726.121 289.045 724.416 297.879 724.417 306.801V317.695C724.416 308.773 726.121 299.939 729.431 291.697C732.742 283.454 737.595 275.965 743.713 269.656C749.831 263.348 757.093 258.344 765.086 254.93C773.08 251.516 781.647 249.758 790.298 249.758H824.361C833.012 249.758 841.579 251.516 849.572 254.93C857.566 258.344 864.828 263.348 870.946 269.656C877.064 275.965 881.917 283.454 885.228 291.697C888.538 299.939 890.243 308.773 890.243 317.695V306.801C890.243 288.783 883.301 271.503 870.946 258.763C858.591 246.022 841.834 238.865 824.361 238.865Z" fill="white"/>
<g opacity="0.43">
<path d="M936.112 18.6247C931.268 15.0831 925.476 13.179 919.538 13.1751H769.071C764.229 13.1694 759.579 15.1267 756.123 18.6247H936.112Z" fill="white"/>
</g>
<path d="M816.353 171.316H825.14C826.269 171.316 827.352 171.778 828.15 172.602C828.949 173.425 829.397 174.541 829.397 175.706V189.307C829.397 190.471 828.949 191.588 828.15 192.411C827.352 193.234 826.269 193.697 825.14 193.697H816.353V171.316Z" fill="#3A6795"/>
<path d="M255.504 259.891H110.891C92.7937 259.912 75.4437 267.335 62.6471 280.531C49.8505 293.726 42.6523 311.617 42.6318 330.278V349.822H56.731V330.278C56.7472 315.472 62.4585 301.276 72.6119 290.806C82.7653 280.336 96.5317 274.447 110.891 274.43H255.504C269.864 274.447 283.63 280.336 293.783 290.806C303.937 301.276 309.648 315.472 309.664 330.278V349.822H323.763V330.278C323.743 311.617 316.545 293.726 303.748 280.531C290.952 267.335 273.602 259.912 255.504 259.891Z" fill="#294856"/>
<path d="M334.229 298.051V309.911C334.229 315.186 336.261 320.245 339.878 323.975C343.495 327.705 348.401 329.8 353.516 329.8H477.387C482.503 329.8 487.409 327.705 491.026 323.975C494.643 320.245 496.675 315.186 496.675 309.911V298.051H334.229Z" fill="#396371"/>
<g clip-path="url(#clip1_1276_5435)">
<path d="M100.835 0H649.165C675.908 0 701.556 9.90687 720.466 27.5412C739.376 45.1756 750 69.0929 750 94.0317V155.967C750 180.905 739.376 204.823 720.466 222.457C701.556 240.091 675.908 249.998 649.165 249.998H100.835C74.0917 249.998 48.444 240.091 29.5338 222.457C10.6236 204.823 0 180.905 0 155.967V94.0317C0 69.093 10.6236 45.1756 29.5338 27.5412C48.444 9.90687 74.0917 0 100.835 0Z" fill="#6CBAF9"/>
<path opacity="0.46" d="M101.712 15.4204H654.806C654.806 15.4204 731.293 19.983 749.999 85.5872C747.737 62.2059 736.178 40.4591 717.595 24.6216C699.012 8.78415 674.748 0.0014839 649.573 0H101.243C77.1292 0.00165532 53.8141 8.05994 35.5239 22.7141C17.2336 37.3683 5.17894 57.6485 1.54486 79.8786C1.54486 79.8786 23.5161 15.4204 101.712 15.4204Z" fill="white"/>
<path d="M749.949 155.968V99.3564L0.0488281 160.026C1.16998 184.239 12.2731 207.113 31.0418 223.877C49.8106 240.64 74.7955 249.999 100.784 250H649.115C675.858 250 701.505 240.093 720.416 222.458C739.326 204.824 749.949 180.907 749.949 155.968Z" fill="#5697E6"/>
<path d="M649.061 234.578H95.9671C95.9671 234.578 19.4803 230.016 0.773926 164.411C3.03596 187.793 14.5946 209.54 33.1779 225.377C51.7612 241.214 76.0251 249.997 101.2 249.999H649.53C673.644 249.997 696.959 241.939 715.249 227.285C733.539 212.63 745.594 192.35 749.228 170.12C749.228 170.12 727.257 234.578 649.061 234.578Z" fill="#4071B2"/>
<path opacity="0.17" d="M711.248 94.0316V155.966C711.248 171.321 704.707 186.047 693.063 196.905C681.42 207.763 665.629 213.862 649.163 213.862L100.832 213.862C84.366 213.862 68.5745 207.762 56.9313 196.905C45.2881 186.047 38.747 171.321 38.747 155.966V94.0316C38.747 78.6765 45.2881 63.9504 56.9313 53.0927C68.5745 42.235 84.3661 36.1353 100.832 36.1353L649.162 36.1353C665.628 36.1353 681.42 42.235 693.063 53.0927C704.706 63.9504 711.248 78.6765 711.248 94.0316Z" fill="white"/>
<path d="M140.241 121.961C140.105 121.69 139.954 121.426 139.788 121.17C139.609 120.873 139.428 120.577 139.238 120.287L115.432 82.0835L91.6268 120.287C91.4366 120.577 91.2557 120.872 91.0775 121.169L90.5839 121.961C88.5789 125.649 87.5332 129.725 87.5317 133.86C87.531 137.798 88.4889 141.684 90.3331 145.227C92.1773 148.769 94.8598 151.875 98.1782 154.31C101.497 156.746 105.365 158.447 109.491 159.285C113.616 160.124 117.893 160.078 121.997 159.152C126.101 158.225 129.926 156.442 133.184 153.937C136.442 151.431 139.047 148.269 140.804 144.688C142.561 141.107 143.423 137.201 143.325 133.264C143.228 129.327 142.174 125.462 140.242 121.961L140.241 121.961Z" fill="white"/>
<path d="M208.762 121.961C208.626 121.69 208.474 121.426 208.308 121.17C208.13 120.873 207.949 120.577 207.758 120.287L183.953 82.0835L160.147 120.287C159.957 120.577 159.776 120.872 159.598 121.169L159.104 121.961C157.099 125.649 156.054 129.725 156.052 133.86C156.052 137.798 157.009 141.684 158.854 145.227C160.698 148.769 163.38 151.875 166.699 154.31C170.017 156.746 173.885 158.447 178.011 159.285C182.137 160.124 186.413 160.078 190.517 159.152C194.622 158.225 198.447 156.442 201.705 153.937C204.962 151.431 207.568 148.269 209.324 144.688C211.081 141.107 211.943 137.201 211.846 133.264C211.749 129.327 210.694 125.462 208.762 121.961L208.762 121.961Z" fill="white"/>
<path d="M277.463 121.961C277.327 121.69 277.175 121.426 277.009 121.17C276.831 120.873 276.65 120.577 276.459 120.287L252.654 82.0835L228.848 120.287C228.658 120.577 228.477 120.872 228.299 121.169L227.806 121.961C225.801 125.649 224.755 129.725 224.753 133.86C224.753 137.798 225.711 141.684 227.555 145.227C229.399 148.769 232.081 151.875 235.4 154.31C238.718 156.746 242.586 158.447 246.712 159.285C250.838 160.124 255.114 160.078 259.218 159.152C263.323 158.225 267.148 156.442 270.406 153.937C273.664 151.431 276.269 148.269 278.026 144.688C279.782 141.107 280.645 137.201 280.547 133.264C280.45 129.327 279.395 125.462 277.463 121.961L277.463 121.961Z" fill="white"/>
</g>
<g clip-path="url(#clip2_1276_5435)">
<path d="M122.5 400C155.637 400 182.5 373.137 182.5 340C182.5 306.863 155.637 280 122.5 280C89.3629 280 62.5 306.863 62.5 340C62.5 373.137 89.3629 400 122.5 400Z" fill="#2B2B2C"/>
<path d="M122.5 396.25C153.566 396.25 178.75 371.066 178.75 340C178.75 308.934 153.566 283.75 122.5 283.75C91.434 283.75 66.25 308.934 66.25 340C66.25 371.066 91.434 396.25 122.5 396.25Z" fill="#373738"/>
<path d="M122.5 390C150.114 390 172.5 367.614 172.5 340C172.5 312.386 150.114 290 122.5 290C94.8858 290 72.5 312.386 72.5 340C72.5 367.614 94.8858 390 122.5 390Z" fill="#1E1E1F"/>
<path d="M122.5 386.25C148.043 386.25 168.75 365.543 168.75 340C168.75 314.457 148.043 293.75 122.5 293.75C96.9568 293.75 76.25 314.457 76.25 340C76.25 365.543 96.9568 386.25 122.5 386.25Z" fill="white"/>
<path d="M122.5 381.25C145.282 381.25 163.75 362.782 163.75 340C163.75 317.218 145.282 298.75 122.5 298.75C99.7182 298.75 81.25 317.218 81.25 340C81.25 362.782 99.7182 381.25 122.5 381.25Z" fill="#8FB5D3"/>
<path d="M122.5 377.5C143.211 377.5 160 360.711 160 340C160 319.289 143.211 302.5 122.5 302.5C101.789 302.5 85 319.289 85 340C85 360.711 101.789 377.5 122.5 377.5Z" fill="white"/>
<path d="M122.5 365C136.307 365 147.5 353.807 147.5 340C147.5 326.193 136.307 315 122.5 315C108.693 315 97.5 326.193 97.5 340C97.5 353.807 108.693 365 122.5 365Z" fill="#8FB5D3"/>
<path d="M122.5 348.75C127.332 348.75 131.25 344.832 131.25 340C131.25 335.167 127.332 331.25 122.5 331.25C117.667 331.25 113.75 335.167 113.75 340C113.75 344.832 117.667 348.75 122.5 348.75Z" fill="#5684A6"/>
<path d="M124.746 310.809C123.349 310.566 121.921 310.566 120.525 310.809C119.881 310.924 119.217 310.812 118.647 310.492C118.077 310.172 117.637 309.664 117.404 309.056L117.384 309.003C117.239 308.616 117.182 308.201 117.217 307.79C117.252 307.378 117.379 306.979 117.587 306.621C117.796 306.264 118.081 305.957 118.423 305.722C118.765 305.487 119.155 305.331 119.565 305.264C121.597 304.912 123.674 304.912 125.706 305.264C126.116 305.331 126.506 305.487 126.848 305.722C127.19 305.956 127.476 306.264 127.684 306.621C127.893 306.979 128.019 307.378 128.054 307.789C128.089 308.201 128.032 308.616 127.887 309.003L127.867 309.056C127.634 309.664 127.194 310.172 126.624 310.492C126.054 310.812 125.39 310.924 124.746 310.809Z" fill="#252F3A"/>
<path d="M120.526 369.192C121.922 369.435 123.35 369.435 124.746 369.192C125.39 369.077 126.054 369.189 126.624 369.509C127.194 369.829 127.634 370.337 127.867 370.945L127.887 370.998C128.032 371.385 128.089 371.8 128.054 372.211C128.019 372.623 127.893 373.022 127.684 373.38C127.476 373.737 127.19 374.044 126.848 374.279C126.506 374.514 126.116 374.67 125.706 374.737C123.674 375.089 121.597 375.089 119.565 374.737C119.155 374.67 118.765 374.514 118.423 374.279C118.081 374.045 117.796 373.737 117.587 373.38C117.379 373.022 117.252 372.623 117.217 372.212C117.182 371.8 117.239 371.385 117.384 370.998L117.404 370.945C117.637 370.337 118.077 369.829 118.647 369.509C119.217 369.189 119.881 369.077 120.526 369.192Z" fill="#252F3A"/>
<path d="M151.685 342.091C151.928 340.708 151.928 339.293 151.685 337.91C151.569 337.272 151.681 336.614 152.002 336.05C152.322 335.485 152.831 335.05 153.44 334.819L153.492 334.799C153.88 334.656 154.295 334.599 154.707 334.634C155.119 334.669 155.518 334.794 155.876 335C156.234 335.207 156.541 335.49 156.776 335.828C157.011 336.167 157.168 336.553 157.235 336.959C157.587 338.972 157.587 341.029 157.235 343.042C157.168 343.448 157.011 343.834 156.776 344.173C156.541 344.511 156.234 344.794 155.876 345.001C155.518 345.207 155.119 345.332 154.707 345.367C154.295 345.402 153.88 345.345 153.492 345.202L153.44 345.182C152.831 344.951 152.322 344.516 152.002 343.951C151.681 343.387 151.569 342.728 151.685 342.091Z" fill="#252F3A"/>
<path d="M93.3137 337.91C93.0709 339.293 93.0709 340.707 93.3137 342.09C93.4294 342.728 93.3174 343.386 92.997 343.951C92.6767 344.515 92.1681 344.951 91.5593 345.182L91.5065 345.202C91.1189 345.345 90.704 345.402 90.2918 345.367C89.8796 345.332 89.4803 345.207 89.1225 345C88.7647 344.794 88.4573 344.511 88.2224 344.172C87.9874 343.834 87.8308 343.447 87.7638 343.041C87.4121 341.029 87.4121 338.971 87.7638 336.959C87.8308 336.553 87.9874 336.167 88.2224 335.828C88.4573 335.489 88.7647 335.207 89.1225 335C89.4803 334.794 89.8796 334.669 90.2918 334.634C90.704 334.599 91.1189 334.655 91.5065 334.799L91.5592 334.819C92.168 335.05 92.6766 335.485 92.997 336.05C93.3173 336.614 93.4294 337.272 93.3137 337.91Z" fill="#252F3A"/>
<path d="M146.729 356.332C147.634 355.254 148.344 354.029 148.828 352.71C149.048 352.1 149.476 351.586 150.037 351.256C150.598 350.926 151.257 350.802 151.9 350.904L151.956 350.913C152.364 350.981 152.752 351.139 153.091 351.374C153.431 351.609 153.714 351.915 153.92 352.272C154.127 352.629 154.251 353.027 154.284 353.437C154.318 353.847 154.259 354.259 154.114 354.645C153.408 356.562 152.374 358.345 151.059 359.913C150.797 360.232 150.468 360.489 150.094 360.665C149.72 360.842 149.312 360.934 148.898 360.935C148.485 360.936 148.076 360.846 147.701 360.672C147.327 360.497 146.996 360.242 146.732 359.925L146.696 359.881C146.285 359.379 146.063 358.749 146.069 358.101C146.075 357.452 146.308 356.827 146.729 356.332Z" fill="#252F3A"/>
<path d="M98.2648 323.666C97.3601 324.744 96.6499 325.969 96.1657 327.288C95.9456 327.898 95.5181 328.412 94.9571 328.742C94.396 329.072 93.7368 329.196 93.0933 329.094L93.0378 329.085C92.6298 329.017 92.2421 328.859 91.9025 328.624C91.5628 328.389 91.2797 328.082 91.0734 327.726C90.8671 327.369 90.7428 326.971 90.7094 326.561C90.6759 326.151 90.7342 325.738 90.88 325.353C91.5859 323.435 92.6192 321.653 93.9344 320.085C94.1964 319.766 94.526 319.509 94.8997 319.332C95.2733 319.156 95.6816 319.064 96.0953 319.063C96.5089 319.061 96.9178 319.151 97.2923 319.326C97.6669 319.501 97.9979 319.756 98.2616 320.073L98.2973 320.116C98.7087 320.619 98.9306 321.249 98.9247 321.897C98.9188 322.545 98.6854 323.171 98.2648 323.666Z" fill="#252F3A"/>
<path d="M135.301 366.208C136.626 365.724 137.857 365.016 138.938 364.114C139.435 363.695 140.064 363.462 140.716 363.455C141.367 363.448 142.001 363.668 142.507 364.076L142.55 364.111C142.87 364.373 143.126 364.702 143.303 365.074C143.479 365.447 143.57 365.853 143.57 366.265C143.569 366.676 143.477 367.083 143.3 367.455C143.123 367.827 142.865 368.155 142.546 368.416C140.971 369.727 139.181 370.758 137.254 371.463C136.867 371.608 136.453 371.667 136.04 371.634C135.628 371.602 135.228 371.479 134.869 371.274C134.51 371.07 134.201 370.788 133.964 370.451C133.727 370.113 133.569 369.728 133.5 369.322L133.49 369.267C133.386 368.627 133.511 367.971 133.841 367.413C134.172 366.854 134.688 366.428 135.301 366.208Z" fill="#252F3A"/>
<path d="M109.694 313.8C108.369 314.283 107.139 314.992 106.057 315.894C105.56 316.313 104.931 316.546 104.28 316.553C103.628 316.56 102.995 316.34 102.489 315.932L102.445 315.896C102.126 315.634 101.869 315.305 101.693 314.933C101.517 314.561 101.425 314.154 101.426 313.743C101.426 313.331 101.518 312.925 101.695 312.553C101.872 312.181 102.13 311.853 102.45 311.591C104.024 310.281 105.814 309.25 107.741 308.545C108.128 308.399 108.543 308.34 108.955 308.373C109.368 308.406 109.768 308.529 110.127 308.733C110.486 308.938 110.794 309.219 111.031 309.557C111.268 309.894 111.427 310.28 111.496 310.685L111.505 310.74C111.609 311.38 111.485 312.036 111.154 312.595C110.824 313.154 110.307 313.58 109.694 313.8Z" fill="#252F3A"/>
<path d="M98.2977 356.394C97.389 355.312 96.6757 354.082 96.1894 352.757C95.9683 352.144 95.5389 351.628 94.9755 351.297C94.412 350.965 93.75 350.84 93.1037 350.943L93.0479 350.952C92.6381 351.021 92.2487 351.179 91.9076 351.415C91.5665 351.651 91.2821 351.959 91.075 352.317C90.8678 352.676 90.7429 353.075 90.7094 353.487C90.6758 353.899 90.7344 354.313 90.8809 354.7C91.5897 356.626 92.6275 358.417 93.9484 359.992C94.2116 360.312 94.5427 360.57 94.9179 360.747C95.2931 360.925 95.7032 361.017 96.1187 361.018C96.5342 361.019 96.9447 360.929 97.3209 360.753C97.6971 360.578 98.0295 360.322 98.2944 360.003L98.3303 359.96C98.7436 359.455 98.9665 358.822 98.9606 358.171C98.9546 357.52 98.7202 356.892 98.2977 356.394Z" fill="#252F3A"/>
<path d="M146.979 323.603C147.888 324.685 148.601 325.916 149.087 327.24C149.308 327.853 149.738 328.37 150.301 328.701C150.864 329.032 151.527 329.157 152.173 329.054L152.229 329.045C152.638 328.977 153.028 328.819 153.369 328.583C153.71 328.347 153.994 328.039 154.202 327.68C154.409 327.322 154.534 326.923 154.567 326.511C154.601 326.099 154.542 325.685 154.396 325.298C153.687 323.371 152.649 321.581 151.328 320.006C151.065 319.686 150.734 319.428 150.359 319.251C149.983 319.073 149.573 318.981 149.158 318.98C148.742 318.978 148.332 319.069 147.956 319.244C147.58 319.42 147.247 319.676 146.982 319.994L146.946 320.038C146.533 320.543 146.31 321.175 146.316 321.826C146.322 322.477 146.556 323.106 146.979 323.603Z" fill="#252F3A"/>
<path d="M109.781 366.32C108.45 365.834 107.215 365.123 106.128 364.217C105.629 363.796 104.998 363.562 104.343 363.555C103.689 363.548 103.052 363.769 102.544 364.179L102.501 364.215C102.18 364.477 101.922 364.808 101.745 365.182C101.568 365.556 101.477 365.964 101.477 366.377C101.477 366.79 101.57 367.199 101.748 367.572C101.925 367.946 102.184 368.275 102.505 368.538C104.087 369.854 105.885 370.889 107.82 371.598C108.209 371.744 108.625 371.803 109.039 371.77C109.453 371.737 109.855 371.614 110.216 371.408C110.576 371.203 110.886 370.92 111.124 370.581C111.362 370.242 111.521 369.855 111.591 369.448L111.6 369.392C111.704 368.75 111.58 368.091 111.248 367.53C110.915 366.969 110.397 366.541 109.781 366.32Z" fill="#252F3A"/>
<path d="M135.49 313.684C136.82 314.17 138.056 314.881 139.143 315.787C139.642 316.208 140.273 316.442 140.928 316.449C141.582 316.456 142.218 316.235 142.727 315.825L142.77 315.789C143.091 315.526 143.349 315.196 143.526 314.822C143.703 314.448 143.794 314.04 143.794 313.627C143.793 313.214 143.701 312.805 143.523 312.432C143.345 312.058 143.087 311.729 142.766 311.466C141.184 310.15 139.386 309.115 137.451 308.406C137.062 308.26 136.646 308.201 136.232 308.234C135.818 308.267 135.416 308.39 135.055 308.596C134.695 308.801 134.385 309.084 134.147 309.423C133.909 309.761 133.75 310.149 133.68 310.556L133.671 310.612C133.567 311.254 133.691 311.913 134.023 312.474C134.355 313.035 134.874 313.463 135.49 313.684Z" fill="#252F3A"/>
<path d="M122.501 326.261C122.006 326.261 121.521 326.114 121.109 325.839C120.697 325.564 120.376 325.172 120.186 324.715C119.996 324.257 119.947 323.753 120.043 323.267C120.14 322.781 120.378 322.335 120.729 321.984C121.079 321.634 121.525 321.395 122.011 321.298C122.497 321.201 123.001 321.251 123.459 321.441C123.917 321.63 124.308 321.951 124.584 322.363C124.859 322.775 125.006 323.259 125.006 323.755C125.005 324.419 124.741 325.056 124.272 325.526C123.802 325.995 123.165 326.26 122.501 326.261Z" fill="#5684A6"/>
<path d="M122.501 358.751C122.006 358.751 121.521 358.604 121.109 358.329C120.697 358.054 120.376 357.662 120.186 357.205C119.996 356.747 119.947 356.243 120.043 355.757C120.14 355.271 120.379 354.824 120.729 354.474C121.079 354.124 121.526 353.885 122.012 353.788C122.498 353.692 123.002 353.741 123.46 353.931C123.918 354.121 124.309 354.442 124.584 354.854C124.859 355.266 125.006 355.751 125.006 356.246C125.005 356.91 124.741 357.547 124.271 358.016C123.802 358.486 123.165 358.75 122.501 358.751Z" fill="#5684A6"/>
<path d="M138.743 342.965C138.248 342.965 137.764 342.818 137.351 342.543C136.939 342.267 136.618 341.876 136.429 341.418C136.239 340.961 136.189 340.457 136.286 339.971C136.383 339.485 136.621 339.039 136.971 338.688C137.322 338.338 137.768 338.099 138.254 338.002C138.74 337.906 139.244 337.955 139.702 338.145C140.16 338.334 140.551 338.655 140.826 339.067C141.102 339.479 141.249 339.964 141.249 340.459C141.248 341.123 140.984 341.76 140.514 342.23C140.045 342.7 139.408 342.964 138.743 342.965Z" fill="#5684A6"/>
<path d="M106.255 342.962C105.76 342.962 105.275 342.815 104.863 342.54C104.451 342.265 104.13 341.873 103.941 341.416C103.751 340.958 103.701 340.454 103.798 339.968C103.895 339.482 104.133 339.036 104.484 338.685C104.834 338.335 105.281 338.097 105.767 338C106.253 337.903 106.756 337.953 107.214 338.142C107.672 338.332 108.063 338.653 108.339 339.065C108.614 339.477 108.761 339.961 108.761 340.457C108.76 341.121 108.496 341.758 108.026 342.228C107.557 342.697 106.92 342.962 106.255 342.962Z" fill="#5684A6"/>
<path d="M134.147 330.858C133.567 330.858 133.005 330.657 132.557 330.29C132.109 329.922 131.802 329.41 131.689 328.842C131.576 328.273 131.663 327.683 131.936 327.172C132.209 326.661 132.651 326.26 133.187 326.038C133.722 325.816 134.318 325.787 134.873 325.955C135.428 326.123 135.907 326.478 136.229 326.96C136.551 327.442 136.696 328.021 136.64 328.598C136.583 329.174 136.328 329.714 135.918 330.124C135.686 330.357 135.41 330.542 135.106 330.668C134.802 330.794 134.476 330.859 134.147 330.858Z" fill="#5684A6"/>
<path d="M111.175 353.832C110.596 353.832 110.034 353.631 109.586 353.263C109.138 352.896 108.831 352.384 108.718 351.815C108.604 351.247 108.692 350.657 108.965 350.146C109.238 349.634 109.68 349.234 110.216 349.012C110.751 348.79 111.347 348.76 111.902 348.929C112.457 349.097 112.936 349.452 113.258 349.934C113.58 350.416 113.725 350.994 113.669 351.571C113.612 352.148 113.357 352.687 112.947 353.097C112.715 353.331 112.439 353.516 112.135 353.642C111.831 353.768 111.505 353.832 111.175 353.832Z" fill="#5684A6"/>
<path d="M133.877 354.23C133.287 354.23 132.716 354.026 132.26 353.653C131.804 353.279 131.492 352.759 131.377 352.181C131.262 351.603 131.351 351.004 131.629 350.484C131.907 349.965 132.357 349.557 132.901 349.332C133.446 349.107 134.052 349.077 134.616 349.248C135.181 349.419 135.668 349.78 135.996 350.27C136.323 350.76 136.471 351.348 136.413 351.934C136.355 352.52 136.095 353.069 135.678 353.485C135.442 353.722 135.161 353.91 134.852 354.038C134.543 354.165 134.212 354.231 133.877 354.23Z" fill="#5684A6"/>
<path d="M110.851 331.178C110.271 331.178 109.709 330.977 109.261 330.609C108.813 330.242 108.506 329.73 108.393 329.161C108.28 328.593 108.367 328.003 108.641 327.492C108.914 326.98 109.356 326.58 109.891 326.358C110.427 326.136 111.023 326.107 111.578 326.275C112.132 326.443 112.612 326.799 112.934 327.281C113.256 327.763 113.401 328.341 113.344 328.918C113.287 329.495 113.032 330.035 112.622 330.444C112.389 330.677 112.113 330.862 111.81 330.988C111.506 331.114 111.18 331.178 110.851 331.178Z" fill="#5684A6"/>
<path opacity="0.29" d="M174.256 332.35C173.791 332.343 173.344 332.174 172.99 331.872C172.637 331.57 172.401 331.154 172.322 330.696C170.15 319.069 163.981 308.567 154.882 301.01C145.783 293.453 134.327 289.316 122.499 289.316C110.671 289.316 99.2156 293.453 90.1166 301.01C81.0175 308.567 74.848 319.069 72.6766 330.696C72.5978 331.154 72.3614 331.57 72.0081 331.872C71.6549 332.174 71.2071 332.343 70.7424 332.35H70.6466C70.3587 332.35 70.0743 332.286 69.8137 332.164C69.5531 332.041 69.3225 331.863 69.1384 331.642C68.9543 331.42 68.821 331.161 68.7481 330.883C68.6752 330.604 68.6644 330.313 68.7165 330.03C71.0481 317.468 77.7029 306.119 87.5265 297.951C97.3502 289.783 109.723 285.312 122.499 285.312C135.275 285.312 147.647 289.783 157.471 297.951C167.295 306.119 173.95 317.468 176.281 330.03C176.333 330.313 176.323 330.604 176.25 330.883C176.177 331.161 176.044 331.421 175.86 331.642C175.675 331.863 175.445 332.042 175.184 332.164C174.923 332.286 174.639 332.35 174.351 332.35H174.256Z" fill="white"/>
</g>
<g clip-path="url(#clip3_1276_5435)">
<path d="M245 400C278.137 400 305 373.137 305 340C305 306.863 278.137 280 245 280C211.863 280 185 306.863 185 340C185 373.137 211.863 400 245 400Z" fill="#2B2B2C"/>
<path d="M245 396.25C276.066 396.25 301.25 371.066 301.25 340C301.25 308.934 276.066 283.75 245 283.75C213.934 283.75 188.75 308.934 188.75 340C188.75 371.066 213.934 396.25 245 396.25Z" fill="#373738"/>
<path d="M245 390C272.614 390 295 367.614 295 340C295 312.386 272.614 290 245 290C217.386 290 195 312.386 195 340C195 367.614 217.386 390 245 390Z" fill="#1E1E1F"/>
<path d="M245 386.25C270.543 386.25 291.25 365.543 291.25 340C291.25 314.457 270.543 293.75 245 293.75C219.457 293.75 198.75 314.457 198.75 340C198.75 365.543 219.457 386.25 245 386.25Z" fill="white"/>
<path d="M245 381.25C267.782 381.25 286.25 362.782 286.25 340C286.25 317.218 267.782 298.75 245 298.75C222.218 298.75 203.75 317.218 203.75 340C203.75 362.782 222.218 381.25 245 381.25Z" fill="#8FB5D3"/>
<path d="M245 377.5C265.711 377.5 282.5 360.711 282.5 340C282.5 319.289 265.711 302.5 245 302.5C224.289 302.5 207.5 319.289 207.5 340C207.5 360.711 224.289 377.5 245 377.5Z" fill="white"/>
<path d="M245 365C258.807 365 270 353.807 270 340C270 326.193 258.807 315 245 315C231.193 315 220 326.193 220 340C220 353.807 231.193 365 245 365Z" fill="#8FB5D3"/>
<path d="M245 348.75C249.832 348.75 253.75 344.832 253.75 340C253.75 335.167 249.832 331.25 245 331.25C240.167 331.25 236.25 335.167 236.25 340C236.25 344.832 240.167 348.75 245 348.75Z" fill="#5684A6"/>
<path d="M247.246 310.809C245.849 310.566 244.421 310.566 243.025 310.809C242.381 310.924 241.717 310.812 241.147 310.492C240.577 310.172 240.137 309.664 239.904 309.056L239.884 309.003C239.739 308.616 239.682 308.201 239.717 307.79C239.752 307.378 239.879 306.979 240.087 306.621C240.296 306.264 240.581 305.957 240.923 305.722C241.265 305.487 241.655 305.331 242.065 305.264C244.097 304.912 246.174 304.912 248.206 305.264C248.616 305.331 249.006 305.487 249.348 305.722C249.69 305.956 249.976 306.264 250.184 306.621C250.393 306.979 250.519 307.378 250.554 307.789C250.589 308.201 250.532 308.616 250.387 309.003L250.367 309.056C250.134 309.664 249.694 310.172 249.124 310.492C248.554 310.812 247.89 310.924 247.246 310.809Z" fill="#252F3A"/>
<path d="M243.026 369.192C244.422 369.435 245.85 369.435 247.246 369.192C247.89 369.077 248.554 369.189 249.124 369.509C249.694 369.829 250.134 370.337 250.367 370.945L250.387 370.998C250.532 371.385 250.589 371.8 250.554 372.211C250.519 372.623 250.393 373.022 250.184 373.38C249.976 373.737 249.69 374.044 249.348 374.279C249.006 374.514 248.616 374.67 248.206 374.737C246.174 375.089 244.097 375.089 242.065 374.737C241.655 374.67 241.265 374.514 240.923 374.279C240.581 374.045 240.296 373.737 240.087 373.38C239.879 373.022 239.752 372.623 239.717 372.212C239.682 371.8 239.739 371.385 239.884 370.998L239.904 370.945C240.137 370.337 240.577 369.829 241.147 369.509C241.717 369.189 242.381 369.077 243.026 369.192Z" fill="#252F3A"/>
<path d="M274.185 342.091C274.428 340.708 274.428 339.293 274.185 337.91C274.069 337.272 274.181 336.614 274.502 336.05C274.822 335.485 275.331 335.05 275.94 334.819L275.992 334.799C276.38 334.656 276.795 334.599 277.207 334.634C277.619 334.669 278.018 334.794 278.376 335C278.734 335.207 279.041 335.49 279.276 335.828C279.511 336.167 279.668 336.553 279.735 336.959C280.087 338.972 280.087 341.029 279.735 343.042C279.668 343.448 279.511 343.834 279.276 344.173C279.041 344.511 278.734 344.794 278.376 345.001C278.018 345.207 277.619 345.332 277.207 345.367C276.795 345.402 276.38 345.345 275.992 345.202L275.94 345.182C275.331 344.951 274.822 344.516 274.502 343.951C274.181 343.387 274.069 342.728 274.185 342.091Z" fill="#252F3A"/>
<path d="M215.814 337.91C215.571 339.293 215.571 340.707 215.814 342.09C215.929 342.728 215.817 343.386 215.497 343.951C215.177 344.515 214.668 344.951 214.059 345.182L214.007 345.202C213.619 345.345 213.204 345.402 212.792 345.367C212.38 345.332 211.98 345.207 211.622 345C211.265 344.794 210.957 344.511 210.722 344.172C210.487 343.834 210.331 343.447 210.264 343.041C209.912 341.029 209.912 338.971 210.264 336.959C210.331 336.553 210.487 336.167 210.722 335.828C210.957 335.489 211.265 335.207 211.622 335C211.98 334.794 212.38 334.669 212.792 334.634C213.204 334.599 213.619 334.655 214.007 334.799L214.059 334.819C214.668 335.05 215.177 335.485 215.497 336.05C215.817 336.614 215.929 337.272 215.814 337.91Z" fill="#252F3A"/>
<path d="M269.229 356.332C270.134 355.254 270.844 354.029 271.328 352.71C271.548 352.1 271.976 351.586 272.537 351.256C273.098 350.926 273.757 350.802 274.4 350.904L274.456 350.913C274.864 350.981 275.252 351.139 275.591 351.374C275.931 351.609 276.214 351.915 276.42 352.272C276.627 352.629 276.751 353.027 276.784 353.437C276.818 353.847 276.759 354.259 276.614 354.645C275.908 356.562 274.874 358.345 273.559 359.913C273.297 360.232 272.968 360.489 272.594 360.665C272.22 360.842 271.812 360.934 271.398 360.935C270.985 360.936 270.576 360.846 270.201 360.672C269.827 360.497 269.496 360.242 269.232 359.925L269.196 359.881C268.785 359.379 268.563 358.749 268.569 358.101C268.575 357.452 268.808 356.827 269.229 356.332Z" fill="#252F3A"/>
<path d="M220.765 323.666C219.86 324.744 219.15 325.969 218.666 327.288C218.446 327.898 218.018 328.412 217.457 328.742C216.896 329.072 216.237 329.196 215.593 329.094L215.538 329.085C215.13 329.017 214.742 328.859 214.402 328.624C214.063 328.389 213.78 328.082 213.573 327.726C213.367 327.369 213.243 326.971 213.209 326.561C213.176 326.151 213.234 325.738 213.38 325.353C214.086 323.435 215.119 321.653 216.434 320.085C216.696 319.766 217.026 319.509 217.4 319.332C217.773 319.156 218.182 319.064 218.595 319.063C219.009 319.061 219.418 319.151 219.792 319.326C220.167 319.501 220.498 319.756 220.762 320.073L220.797 320.116C221.209 320.619 221.431 321.249 221.425 321.897C221.419 322.545 221.185 323.171 220.765 323.666Z" fill="#252F3A"/>
<path d="M257.801 366.208C259.126 365.724 260.357 365.016 261.438 364.114C261.935 363.695 262.564 363.462 263.216 363.455C263.867 363.448 264.501 363.668 265.007 364.076L265.05 364.111C265.37 364.373 265.626 364.702 265.803 365.074C265.979 365.447 266.07 365.853 266.07 366.265C266.069 366.676 265.977 367.083 265.8 367.455C265.623 367.827 265.365 368.155 265.046 368.416C263.471 369.727 261.681 370.758 259.754 371.463C259.367 371.608 258.953 371.667 258.54 371.634C258.128 371.602 257.728 371.479 257.369 371.274C257.01 371.07 256.701 370.788 256.464 370.451C256.227 370.113 256.069 369.728 256 369.322L255.99 369.267C255.886 368.627 256.011 367.971 256.341 367.413C256.672 366.854 257.188 366.428 257.801 366.208Z" fill="#252F3A"/>
<path d="M232.194 313.8C230.869 314.283 229.639 314.992 228.557 315.894C228.06 316.313 227.431 316.546 226.78 316.553C226.128 316.56 225.495 316.34 224.989 315.932L224.945 315.896C224.626 315.634 224.369 315.305 224.193 314.933C224.017 314.561 223.925 314.154 223.926 313.743C223.926 313.331 224.018 312.925 224.195 312.553C224.372 312.181 224.63 311.853 224.95 311.591C226.524 310.281 228.314 309.25 230.241 308.545C230.628 308.399 231.043 308.34 231.455 308.373C231.868 308.406 232.268 308.529 232.627 308.733C232.986 308.938 233.294 309.219 233.531 309.557C233.768 309.894 233.927 310.28 233.996 310.685L234.005 310.74C234.109 311.38 233.985 312.036 233.654 312.595C233.324 313.154 232.807 313.58 232.194 313.8Z" fill="#252F3A"/>
<path d="M220.798 356.394C219.889 355.312 219.176 354.082 218.689 352.757C218.468 352.144 218.039 351.628 217.475 351.297C216.912 350.965 216.25 350.84 215.604 350.943L215.548 350.952C215.138 351.021 214.749 351.179 214.408 351.415C214.066 351.651 213.782 351.959 213.575 352.317C213.368 352.676 213.243 353.075 213.209 353.487C213.176 353.899 213.234 354.313 213.381 354.7C214.09 356.626 215.127 358.417 216.448 359.992C216.712 360.312 217.043 360.57 217.418 360.747C217.793 360.925 218.203 361.017 218.619 361.018C219.034 361.019 219.445 360.929 219.821 360.753C220.197 360.578 220.53 360.322 220.794 360.003L220.83 359.96C221.244 359.455 221.467 358.822 221.461 358.171C221.455 357.52 221.22 356.892 220.798 356.394Z" fill="#252F3A"/>
<path d="M269.479 323.603C270.388 324.685 271.101 325.916 271.587 327.24C271.808 327.853 272.238 328.37 272.801 328.701C273.364 329.032 274.027 329.157 274.673 329.054L274.729 329.045C275.138 328.977 275.528 328.819 275.869 328.583C276.21 328.347 276.494 328.039 276.702 327.68C276.909 327.322 277.034 326.923 277.067 326.511C277.101 326.099 277.042 325.685 276.896 325.298C276.187 323.371 275.149 321.581 273.828 320.006C273.565 319.686 273.234 319.428 272.859 319.251C272.483 319.073 272.073 318.981 271.658 318.98C271.242 318.978 270.832 319.069 270.456 319.244C270.08 319.42 269.747 319.676 269.482 319.994L269.446 320.038C269.033 320.543 268.81 321.175 268.816 321.826C268.822 322.477 269.056 323.106 269.479 323.603Z" fill="#252F3A"/>
<path d="M232.281 366.32C230.95 365.834 229.715 365.123 228.628 364.217C228.129 363.796 227.498 363.562 226.843 363.555C226.189 363.548 225.552 363.769 225.044 364.179L225.001 364.215C224.68 364.477 224.422 364.808 224.245 365.182C224.068 365.556 223.977 365.964 223.977 366.377C223.977 366.79 224.07 367.199 224.248 367.572C224.425 367.946 224.684 368.275 225.005 368.538C226.587 369.854 228.385 370.889 230.32 371.598C230.709 371.744 231.125 371.803 231.539 371.77C231.953 371.737 232.355 371.614 232.716 371.408C233.076 371.203 233.386 370.92 233.624 370.581C233.862 370.242 234.021 369.855 234.091 369.448L234.1 369.392C234.204 368.75 234.08 368.091 233.748 367.53C233.415 366.969 232.897 366.541 232.281 366.32Z" fill="#252F3A"/>
<path d="M257.99 313.684C259.32 314.17 260.556 314.881 261.643 315.787C262.142 316.208 262.773 316.442 263.428 316.449C264.082 316.456 264.718 316.235 265.227 315.825L265.27 315.789C265.591 315.526 265.849 315.196 266.026 314.822C266.203 314.448 266.294 314.04 266.294 313.627C266.293 313.214 266.201 312.805 266.023 312.432C265.845 312.058 265.587 311.729 265.266 311.466C263.684 310.15 261.886 309.115 259.951 308.406C259.562 308.26 259.146 308.201 258.732 308.234C258.318 308.267 257.916 308.39 257.555 308.596C257.195 308.801 256.885 309.084 256.647 309.423C256.409 309.761 256.25 310.149 256.18 310.556L256.171 310.612C256.067 311.254 256.191 311.913 256.523 312.474C256.855 313.035 257.374 313.463 257.99 313.684Z" fill="#252F3A"/>
<path d="M245.001 326.261C244.506 326.261 244.021 326.114 243.609 325.839C243.197 325.564 242.876 325.172 242.686 324.715C242.496 324.257 242.447 323.753 242.543 323.267C242.64 322.781 242.878 322.335 243.229 321.984C243.579 321.634 244.025 321.395 244.511 321.298C244.997 321.201 245.501 321.251 245.959 321.441C246.417 321.63 246.808 321.951 247.084 322.363C247.359 322.775 247.506 323.259 247.506 323.755C247.505 324.419 247.241 325.056 246.772 325.526C246.302 325.995 245.665 326.26 245.001 326.261Z" fill="#5684A6"/>
<path d="M245.001 358.751C244.506 358.751 244.021 358.604 243.609 358.329C243.197 358.054 242.876 357.662 242.686 357.205C242.496 356.747 242.447 356.243 242.543 355.757C242.64 355.271 242.879 354.824 243.229 354.474C243.579 354.124 244.026 353.885 244.512 353.788C244.998 353.692 245.502 353.741 245.96 353.931C246.418 354.121 246.809 354.442 247.084 354.854C247.359 355.266 247.506 355.751 247.506 356.246C247.505 356.91 247.241 357.547 246.771 358.016C246.302 358.486 245.665 358.75 245.001 358.751Z" fill="#5684A6"/>
<path d="M261.243 342.965C260.748 342.965 260.264 342.818 259.851 342.543C259.439 342.267 259.118 341.876 258.929 341.418C258.739 340.961 258.689 340.457 258.786 339.971C258.883 339.485 259.121 339.039 259.471 338.688C259.822 338.338 260.268 338.099 260.754 338.002C261.24 337.906 261.744 337.955 262.202 338.145C262.66 338.334 263.051 338.655 263.326 339.067C263.602 339.479 263.749 339.964 263.749 340.459C263.748 341.123 263.484 341.76 263.014 342.23C262.545 342.7 261.908 342.964 261.243 342.965Z" fill="#5684A6"/>
<path d="M228.755 342.962C228.26 342.962 227.775 342.815 227.363 342.54C226.951 342.265 226.63 341.873 226.441 341.416C226.251 340.958 226.201 340.454 226.298 339.968C226.395 339.482 226.633 339.036 226.984 338.685C227.334 338.335 227.781 338.097 228.267 338C228.753 337.903 229.256 337.953 229.714 338.142C230.172 338.332 230.563 338.653 230.839 339.065C231.114 339.477 231.261 339.961 231.261 340.457C231.26 341.121 230.996 341.758 230.526 342.228C230.057 342.697 229.42 342.962 228.755 342.962Z" fill="#5684A6"/>
<path d="M256.647 330.858C256.067 330.858 255.505 330.657 255.057 330.29C254.609 329.922 254.302 329.41 254.189 328.842C254.076 328.273 254.163 327.683 254.436 327.172C254.709 326.661 255.151 326.26 255.687 326.038C256.222 325.816 256.818 325.787 257.373 325.955C257.928 326.123 258.407 326.478 258.729 326.96C259.051 327.442 259.196 328.021 259.14 328.598C259.083 329.174 258.828 329.714 258.418 330.124C258.186 330.357 257.91 330.542 257.606 330.668C257.302 330.794 256.976 330.859 256.647 330.858Z" fill="#5684A6"/>
<path d="M233.675 353.832C233.096 353.832 232.534 353.631 232.086 353.263C231.638 352.896 231.331 352.384 231.218 351.815C231.104 351.247 231.192 350.657 231.465 350.146C231.738 349.634 232.18 349.234 232.716 349.012C233.251 348.79 233.847 348.76 234.402 348.929C234.957 349.097 235.436 349.452 235.758 349.934C236.08 350.416 236.225 350.994 236.169 351.571C236.112 352.148 235.857 352.687 235.447 353.097C235.215 353.331 234.939 353.516 234.635 353.642C234.331 353.768 234.005 353.832 233.675 353.832Z" fill="#5684A6"/>
<path d="M256.377 354.23C255.787 354.23 255.216 354.026 254.76 353.653C254.304 353.279 253.992 352.759 253.877 352.181C253.762 351.603 253.851 351.004 254.129 350.484C254.407 349.965 254.857 349.557 255.401 349.332C255.946 349.107 256.552 349.077 257.116 349.248C257.681 349.419 258.168 349.78 258.496 350.27C258.823 350.76 258.971 351.348 258.913 351.934C258.855 352.52 258.595 353.069 258.178 353.485C257.942 353.722 257.661 353.91 257.352 354.038C257.043 354.165 256.712 354.231 256.377 354.23Z" fill="#5684A6"/>
<path d="M233.351 331.178C232.771 331.178 232.209 330.977 231.761 330.609C231.313 330.242 231.006 329.73 230.893 329.161C230.78 328.593 230.867 328.003 231.141 327.492C231.414 326.98 231.856 326.58 232.391 326.358C232.927 326.136 233.523 326.107 234.078 326.275C234.632 326.443 235.112 326.799 235.434 327.281C235.756 327.763 235.901 328.341 235.844 328.918C235.787 329.495 235.532 330.035 235.122 330.444C234.889 330.677 234.613 330.862 234.31 330.988C234.006 331.114 233.68 331.178 233.351 331.178Z" fill="#5684A6"/>
<path opacity="0.29" d="M296.756 332.35C296.291 332.343 295.844 332.174 295.49 331.872C295.137 331.57 294.901 331.154 294.822 330.696C292.65 319.069 286.481 308.567 277.382 301.01C268.283 293.453 256.827 289.316 244.999 289.316C233.171 289.316 221.716 293.453 212.617 301.01C203.517 308.567 197.348 319.069 195.177 330.696C195.098 331.154 194.861 331.57 194.508 331.872C194.155 332.174 193.707 332.343 193.242 332.35H193.147C192.859 332.35 192.574 332.286 192.314 332.164C192.053 332.041 191.823 331.863 191.638 331.642C191.454 331.42 191.321 331.161 191.248 330.883C191.175 330.604 191.164 330.313 191.216 330.03C193.548 317.468 200.203 306.119 210.027 297.951C219.85 289.783 232.223 285.312 244.999 285.312C257.775 285.312 270.147 289.783 279.971 297.951C289.795 306.119 296.45 317.468 298.781 330.03C298.833 330.313 298.823 330.604 298.75 330.883C298.677 331.161 298.544 331.421 298.36 331.642C298.175 331.863 297.945 332.042 297.684 332.164C297.423 332.286 297.139 332.35 296.851 332.35H296.756Z" fill="white"/>
</g>
<g clip-path="url(#clip4_1276_5435)">
<path d="M585 400C618.137 400 645 373.137 645 340C645 306.863 618.137 280 585 280C551.863 280 525 306.863 525 340C525 373.137 551.863 400 585 400Z" fill="#2B2B2C"/>
<path d="M585 396.25C616.066 396.25 641.25 371.066 641.25 340C641.25 308.934 616.066 283.75 585 283.75C553.934 283.75 528.75 308.934 528.75 340C528.75 371.066 553.934 396.25 585 396.25Z" fill="#373738"/>
<path d="M585 390C612.614 390 635 367.614 635 340C635 312.386 612.614 290 585 290C557.386 290 535 312.386 535 340C535 367.614 557.386 390 585 390Z" fill="#1E1E1F"/>
<path d="M585 386.25C610.543 386.25 631.25 365.543 631.25 340C631.25 314.457 610.543 293.75 585 293.75C559.457 293.75 538.75 314.457 538.75 340C538.75 365.543 559.457 386.25 585 386.25Z" fill="white"/>
<path d="M585 381.25C607.782 381.25 626.25 362.782 626.25 340C626.25 317.218 607.782 298.75 585 298.75C562.218 298.75 543.75 317.218 543.75 340C543.75 362.782 562.218 381.25 585 381.25Z" fill="#8FB5D3"/>
<path d="M585 377.5C605.711 377.5 622.5 360.711 622.5 340C622.5 319.289 605.711 302.5 585 302.5C564.289 302.5 547.5 319.289 547.5 340C547.5 360.711 564.289 377.5 585 377.5Z" fill="white"/>
<path d="M585 365C598.807 365 610 353.807 610 340C610 326.193 598.807 315 585 315C571.193 315 560 326.193 560 340C560 353.807 571.193 365 585 365Z" fill="#8FB5D3"/>
<path d="M585 348.75C589.832 348.75 593.75 344.832 593.75 340C593.75 335.167 589.832 331.25 585 331.25C580.167 331.25 576.25 335.167 576.25 340C576.25 344.832 580.167 348.75 585 348.75Z" fill="#5684A6"/>
<path d="M587.246 310.809C585.849 310.566 584.421 310.566 583.025 310.809C582.381 310.924 581.717 310.812 581.147 310.492C580.577 310.172 580.137 309.664 579.904 309.056L579.884 309.003C579.739 308.616 579.682 308.201 579.717 307.79C579.752 307.378 579.879 306.979 580.087 306.621C580.296 306.264 580.581 305.957 580.923 305.722C581.265 305.487 581.655 305.331 582.065 305.264C584.097 304.912 586.174 304.912 588.206 305.264C588.616 305.331 589.006 305.487 589.348 305.722C589.69 305.956 589.976 306.264 590.184 306.621C590.393 306.979 590.519 307.378 590.554 307.789C590.589 308.201 590.532 308.616 590.387 309.003L590.367 309.056C590.134 309.664 589.694 310.172 589.124 310.492C588.554 310.812 587.89 310.924 587.246 310.809Z" fill="#252F3A"/>
<path d="M583.026 369.192C584.422 369.435 585.85 369.435 587.246 369.192C587.89 369.077 588.554 369.189 589.124 369.509C589.694 369.829 590.134 370.337 590.367 370.945L590.387 370.998C590.532 371.385 590.589 371.8 590.554 372.211C590.519 372.623 590.393 373.022 590.184 373.38C589.976 373.737 589.69 374.044 589.348 374.279C589.006 374.514 588.616 374.67 588.206 374.737C586.174 375.089 584.097 375.089 582.065 374.737C581.655 374.67 581.265 374.514 580.923 374.279C580.581 374.045 580.296 373.737 580.087 373.38C579.879 373.022 579.752 372.623 579.717 372.212C579.682 371.8 579.739 371.385 579.884 370.998L579.904 370.945C580.137 370.337 580.577 369.829 581.147 369.509C581.717 369.189 582.381 369.077 583.026 369.192Z" fill="#252F3A"/>
<path d="M614.185 342.091C614.428 340.708 614.428 339.293 614.185 337.91C614.069 337.272 614.181 336.614 614.502 336.05C614.822 335.485 615.331 335.05 615.94 334.819L615.992 334.799C616.38 334.656 616.795 334.599 617.207 334.634C617.619 334.669 618.018 334.794 618.376 335C618.734 335.207 619.041 335.49 619.276 335.828C619.511 336.167 619.668 336.553 619.735 336.959C620.087 338.972 620.087 341.029 619.735 343.042C619.668 343.448 619.511 343.834 619.276 344.173C619.041 344.511 618.734 344.794 618.376 345.001C618.018 345.207 617.619 345.332 617.207 345.367C616.795 345.402 616.38 345.345 615.992 345.202L615.94 345.182C615.331 344.951 614.822 344.516 614.502 343.951C614.181 343.387 614.069 342.728 614.185 342.091Z" fill="#252F3A"/>
<path d="M555.814 337.91C555.571 339.293 555.571 340.707 555.814 342.09C555.929 342.728 555.817 343.386 555.497 343.951C555.177 344.515 554.668 344.951 554.059 345.182L554.007 345.202C553.619 345.345 553.204 345.402 552.792 345.367C552.38 345.332 551.98 345.207 551.622 345C551.265 344.794 550.957 344.511 550.722 344.172C550.487 343.834 550.331 343.447 550.264 343.041C549.912 341.029 549.912 338.971 550.264 336.959C550.331 336.553 550.487 336.167 550.722 335.828C550.957 335.489 551.265 335.207 551.622 335C551.98 334.794 552.38 334.669 552.792 334.634C553.204 334.599 553.619 334.655 554.007 334.799L554.059 334.819C554.668 335.05 555.177 335.485 555.497 336.05C555.817 336.614 555.929 337.272 555.814 337.91Z" fill="#252F3A"/>
<path d="M609.229 356.332C610.133 355.254 610.844 354.029 611.328 352.71C611.548 352.1 611.975 351.586 612.536 351.256C613.097 350.926 613.757 350.802 614.4 350.904L614.456 350.913C614.864 350.981 615.251 351.139 615.591 351.374C615.931 351.609 616.214 351.915 616.42 352.272C616.626 352.629 616.751 353.027 616.784 353.437C616.818 353.847 616.759 354.259 616.613 354.645C615.908 356.562 614.874 358.345 613.559 359.913C613.297 360.232 612.967 360.489 612.594 360.665C612.22 360.842 611.812 360.934 611.398 360.935C610.985 360.936 610.576 360.846 610.201 360.672C609.827 360.497 609.496 360.242 609.232 359.925L609.196 359.881C608.785 359.379 608.563 358.749 608.569 358.101C608.575 357.452 608.808 356.827 609.229 356.332Z" fill="#252F3A"/>
<path d="M560.765 323.666C559.86 324.744 559.15 325.969 558.666 327.288C558.446 327.898 558.018 328.412 557.457 328.742C556.896 329.072 556.237 329.196 555.593 329.094L555.538 329.085C555.13 329.017 554.742 328.859 554.402 328.624C554.063 328.389 553.78 328.082 553.573 327.726C553.367 327.369 553.243 326.971 553.209 326.561C553.176 326.151 553.234 325.738 553.38 325.353C554.086 323.435 555.119 321.653 556.434 320.085C556.696 319.766 557.026 319.509 557.4 319.332C557.773 319.156 558.182 319.064 558.595 319.063C559.009 319.061 559.418 319.151 559.792 319.326C560.167 319.501 560.498 319.756 560.762 320.073L560.797 320.116C561.209 320.619 561.431 321.249 561.425 321.897C561.419 322.545 561.185 323.171 560.765 323.666Z" fill="#252F3A"/>
<path d="M597.801 366.208C599.126 365.724 600.357 365.016 601.438 364.114C601.935 363.695 602.564 363.462 603.216 363.455C603.867 363.448 604.501 363.668 605.007 364.076L605.05 364.111C605.37 364.373 605.626 364.702 605.803 365.074C605.979 365.447 606.07 365.853 606.07 366.265C606.069 366.676 605.977 367.083 605.8 367.455C605.623 367.827 605.365 368.155 605.046 368.416C603.471 369.727 601.681 370.758 599.754 371.463C599.367 371.608 598.953 371.667 598.54 371.634C598.128 371.602 597.728 371.479 597.369 371.274C597.01 371.07 596.701 370.788 596.464 370.451C596.227 370.113 596.069 369.728 596 369.322L595.99 369.267C595.886 368.627 596.011 367.971 596.341 367.413C596.672 366.854 597.188 366.428 597.801 366.208Z" fill="#252F3A"/>
<path d="M572.194 313.8C570.869 314.283 569.639 314.992 568.557 315.894C568.06 316.313 567.431 316.546 566.78 316.553C566.128 316.56 565.495 316.34 564.989 315.932L564.945 315.896C564.626 315.634 564.369 315.305 564.193 314.933C564.017 314.561 563.925 314.154 563.926 313.743C563.926 313.331 564.018 312.925 564.195 312.553C564.372 312.181 564.63 311.853 564.95 311.591C566.524 310.281 568.314 309.25 570.241 308.545C570.628 308.399 571.043 308.34 571.455 308.373C571.868 308.406 572.268 308.529 572.627 308.733C572.986 308.938 573.294 309.219 573.531 309.557C573.768 309.894 573.927 310.28 573.996 310.685L574.005 310.74C574.109 311.38 573.985 312.036 573.654 312.595C573.324 313.154 572.807 313.58 572.194 313.8Z" fill="#252F3A"/>
<path d="M560.798 356.394C559.889 355.312 559.176 354.082 558.689 352.757C558.468 352.144 558.039 351.628 557.475 351.297C556.912 350.965 556.25 350.84 555.604 350.943L555.548 350.952C555.138 351.021 554.749 351.179 554.408 351.415C554.066 351.651 553.782 351.959 553.575 352.317C553.368 352.676 553.243 353.075 553.209 353.487C553.176 353.899 553.234 354.313 553.381 354.7C554.09 356.626 555.127 358.417 556.448 359.992C556.712 360.312 557.043 360.57 557.418 360.747C557.793 360.925 558.203 361.017 558.619 361.018C559.034 361.019 559.445 360.929 559.821 360.753C560.197 360.578 560.53 360.322 560.794 360.003L560.83 359.96C561.244 359.455 561.467 358.822 561.461 358.171C561.455 357.52 561.22 356.892 560.798 356.394Z" fill="#252F3A"/>
<path d="M609.479 323.603C610.388 324.685 611.101 325.916 611.587 327.24C611.808 327.853 612.238 328.37 612.801 328.701C613.364 329.032 614.027 329.157 614.673 329.054L614.729 329.045C615.138 328.977 615.528 328.819 615.869 328.583C616.21 328.347 616.494 328.039 616.702 327.68C616.909 327.322 617.034 326.923 617.067 326.511C617.101 326.099 617.042 325.685 616.896 325.298C616.187 323.371 615.149 321.581 613.828 320.006C613.565 319.686 613.234 319.428 612.859 319.251C612.483 319.073 612.073 318.981 611.658 318.98C611.242 318.978 610.832 319.069 610.456 319.244C610.08 319.42 609.747 319.676 609.482 319.994L609.446 320.038C609.033 320.543 608.81 321.175 608.816 321.826C608.822 322.477 609.056 323.106 609.479 323.603Z" fill="#252F3A"/>
<path d="M572.281 366.32C570.95 365.834 569.715 365.123 568.628 364.217C568.129 363.796 567.498 363.562 566.843 363.555C566.189 363.548 565.552 363.769 565.044 364.179L565.001 364.215C564.68 364.477 564.422 364.808 564.245 365.182C564.068 365.556 563.977 365.964 563.977 366.377C563.977 366.79 564.07 367.199 564.248 367.572C564.425 367.946 564.684 368.275 565.005 368.538C566.587 369.854 568.385 370.889 570.32 371.598C570.709 371.744 571.125 371.803 571.539 371.77C571.953 371.737 572.355 371.614 572.716 371.408C573.076 371.203 573.386 370.92 573.624 370.581C573.862 370.242 574.021 369.855 574.091 369.448L574.1 369.392C574.204 368.75 574.08 368.091 573.748 367.53C573.415 366.969 572.897 366.541 572.281 366.32Z" fill="#252F3A"/>
<path d="M597.99 313.684C599.32 314.17 600.556 314.881 601.643 315.787C602.142 316.208 602.773 316.442 603.428 316.449C604.082 316.456 604.718 316.235 605.227 315.825L605.27 315.789C605.591 315.526 605.849 315.196 606.026 314.822C606.203 314.448 606.294 314.04 606.294 313.627C606.293 313.214 606.201 312.805 606.023 312.432C605.845 312.058 605.587 311.729 605.266 311.466C603.684 310.15 601.886 309.115 599.951 308.406C599.562 308.26 599.146 308.201 598.732 308.234C598.318 308.267 597.916 308.39 597.555 308.596C597.195 308.801 596.885 309.084 596.647 309.423C596.409 309.761 596.25 310.149 596.18 310.556L596.171 310.612C596.067 311.254 596.191 311.913 596.523 312.474C596.855 313.035 597.374 313.463 597.99 313.684Z" fill="#252F3A"/>
<path d="M585.001 326.261C584.506 326.261 584.021 326.114 583.609 325.839C583.197 325.564 582.876 325.172 582.686 324.715C582.496 324.257 582.447 323.753 582.543 323.267C582.64 322.781 582.878 322.335 583.229 321.984C583.579 321.634 584.025 321.395 584.511 321.298C584.997 321.201 585.501 321.251 585.959 321.441C586.417 321.63 586.808 321.951 587.084 322.363C587.359 322.775 587.506 323.259 587.506 323.755C587.505 324.419 587.241 325.056 586.772 325.526C586.302 325.995 585.665 326.26 585.001 326.261Z" fill="#5684A6"/>
<path d="M585.001 358.751C584.506 358.751 584.021 358.604 583.609 358.329C583.197 358.054 582.876 357.662 582.686 357.205C582.496 356.747 582.447 356.243 582.543 355.757C582.64 355.271 582.879 354.824 583.229 354.474C583.579 354.124 584.026 353.885 584.512 353.788C584.998 353.692 585.502 353.741 585.96 353.931C586.418 354.121 586.809 354.442 587.084 354.854C587.359 355.266 587.506 355.751 587.506 356.246C587.505 356.91 587.241 357.547 586.771 358.016C586.302 358.486 585.665 358.75 585.001 358.751Z" fill="#5684A6"/>
<path d="M601.243 342.965C600.748 342.965 600.264 342.818 599.851 342.543C599.439 342.267 599.118 341.876 598.929 341.418C598.739 340.961 598.689 340.457 598.786 339.971C598.883 339.485 599.121 339.039 599.471 338.688C599.822 338.338 600.268 338.099 600.754 338.002C601.24 337.906 601.744 337.955 602.202 338.145C602.66 338.334 603.051 338.655 603.326 339.067C603.602 339.479 603.749 339.964 603.749 340.459C603.748 341.123 603.484 341.76 603.014 342.23C602.545 342.7 601.908 342.964 601.243 342.965Z" fill="#5684A6"/>
<path d="M568.755 342.962C568.26 342.962 567.775 342.815 567.363 342.54C566.951 342.265 566.63 341.873 566.441 341.416C566.251 340.958 566.201 340.454 566.298 339.968C566.395 339.482 566.633 339.036 566.984 338.685C567.334 338.335 567.781 338.097 568.267 338C568.753 337.903 569.256 337.953 569.714 338.142C570.172 338.332 570.563 338.653 570.839 339.065C571.114 339.477 571.261 339.961 571.261 340.457C571.26 341.121 570.996 341.758 570.526 342.228C570.057 342.697 569.42 342.962 568.755 342.962Z" fill="#5684A6"/>
<path d="M596.647 330.858C596.067 330.858 595.505 330.657 595.057 330.29C594.609 329.922 594.302 329.41 594.189 328.842C594.076 328.273 594.163 327.683 594.436 327.172C594.709 326.661 595.151 326.26 595.687 326.038C596.222 325.816 596.818 325.787 597.373 325.955C597.928 326.123 598.407 326.478 598.729 326.96C599.051 327.442 599.196 328.021 599.14 328.598C599.083 329.174 598.828 329.714 598.418 330.124C598.186 330.357 597.91 330.542 597.606 330.668C597.302 330.794 596.976 330.859 596.647 330.858Z" fill="#5684A6"/>
<path d="M573.675 353.832C573.096 353.832 572.534 353.631 572.086 353.263C571.638 352.896 571.331 352.384 571.218 351.815C571.104 351.247 571.192 350.657 571.465 350.146C571.738 349.634 572.18 349.234 572.716 349.012C573.251 348.79 573.847 348.76 574.402 348.929C574.957 349.097 575.436 349.452 575.758 349.934C576.08 350.416 576.225 350.994 576.169 351.571C576.112 352.148 575.857 352.687 575.447 353.097C575.215 353.331 574.939 353.516 574.635 353.642C574.331 353.768 574.005 353.832 573.675 353.832Z" fill="#5684A6"/>
<path d="M596.377 354.23C595.787 354.23 595.216 354.026 594.76 353.653C594.304 353.279 593.992 352.759 593.877 352.181C593.762 351.603 593.851 351.004 594.129 350.484C594.407 349.965 594.857 349.557 595.401 349.332C595.946 349.107 596.552 349.077 597.116 349.248C597.681 349.419 598.168 349.78 598.496 350.27C598.823 350.76 598.971 351.348 598.913 351.934C598.855 352.52 598.595 353.069 598.178 353.485C597.942 353.722 597.661 353.91 597.352 354.038C597.043 354.165 596.712 354.231 596.377 354.23Z" fill="#5684A6"/>
<path d="M573.351 331.178C572.771 331.178 572.209 330.977 571.761 330.609C571.313 330.242 571.006 329.73 570.893 329.161C570.78 328.593 570.867 328.003 571.141 327.492C571.414 326.98 571.856 326.58 572.391 326.358C572.927 326.136 573.523 326.107 574.078 326.275C574.632 326.443 575.112 326.799 575.434 327.281C575.756 327.763 575.901 328.341 575.844 328.918C575.787 329.495 575.532 330.035 575.122 330.444C574.889 330.677 574.613 330.862 574.31 330.988C574.006 331.114 573.68 331.178 573.351 331.178Z" fill="#5684A6"/>
<path opacity="0.29" d="M636.756 332.35C636.291 332.343 635.844 332.174 635.49 331.872C635.137 331.57 634.901 331.154 634.822 330.696C632.65 319.069 626.481 308.567 617.382 301.01C608.283 293.453 596.827 289.316 584.999 289.316C573.171 289.316 561.716 293.453 552.617 301.01C543.517 308.567 537.348 319.069 535.177 330.696C535.098 331.154 534.861 331.57 534.508 331.872C534.155 332.174 533.707 332.343 533.242 332.35H533.147C532.859 332.35 532.574 332.286 532.314 332.164C532.053 332.041 531.823 331.863 531.638 331.642C531.454 331.42 531.321 331.161 531.248 330.883C531.175 330.604 531.164 330.313 531.216 330.03C533.548 317.468 540.203 306.119 550.027 297.951C559.85 289.783 572.223 285.312 584.999 285.312C597.775 285.312 610.147 289.783 619.971 297.951C629.795 306.119 636.45 317.468 638.781 330.03C638.833 330.313 638.823 330.604 638.75 330.883C638.677 331.161 638.544 331.421 638.36 331.642C638.175 331.863 637.945 332.042 637.684 332.164C637.423 332.286 637.139 332.35 636.851 332.35H636.756Z" fill="white"/>
</g>
<path d="M807.53 400C842.047 400 870.023 372.018 870.015 337.5C870.007 302.982 842.018 275 807.5 275C772.982 275 745.007 302.982 745.015 337.5C745.023 372.018 773.012 400 807.53 400Z" fill="#2B2B2C"/>
<path d="M807.586 395C839.342 395 865.067 369.256 865.043 337.5C865.019 305.744 839.256 280 807.5 280C775.744 280 750.019 305.744 750.043 337.5C750.067 369.256 775.829 395 807.586 395Z" fill="#373738"/>
<path d="M807.241 387.956C834.762 387.956 857.073 365.662 857.073 338.162C857.073 310.661 834.762 288.367 807.241 288.367C779.72 288.367 757.41 310.661 757.41 338.162C757.41 365.662 779.72 387.956 807.241 387.956Z" fill="#1E1E1F"/>
<path d="M807.5 383.75C833.043 383.75 853.75 363.043 853.75 337.5C853.75 311.957 833.043 291.25 807.5 291.25C781.957 291.25 761.25 311.957 761.25 337.5C761.25 363.043 781.957 383.75 807.5 383.75Z" fill="white"/>
<path d="M807.5 381.25C831.663 381.25 851.25 361.662 851.25 337.5C851.25 313.338 831.663 293.75 807.5 293.75C783.338 293.75 763.75 313.338 763.75 337.5C763.75 361.662 783.338 381.25 807.5 381.25Z" fill="#8FB5D3"/>
<path d="M807.539 376.25C828.94 376.25 846.279 358.901 846.268 337.5C846.256 316.099 828.899 298.75 807.499 298.75C786.098 298.75 768.759 316.099 768.77 337.5C768.782 358.901 786.139 376.25 807.539 376.25Z" fill="white"/>
<path d="M807.512 362.5C821.319 362.5 832.509 351.307 832.506 337.5C832.503 323.693 821.307 312.5 807.5 312.5C793.693 312.5 782.503 323.693 782.506 337.5C782.509 351.307 793.705 362.5 807.512 362.5Z" fill="#8FB5D3"/>
<path d="M807.241 346.867C812.053 346.867 815.954 342.969 815.954 338.16C815.954 333.352 812.053 329.454 807.241 329.454C802.429 329.454 798.528 333.352 798.528 338.16C798.528 342.969 802.429 346.867 807.241 346.867Z" fill="white"/>
<path d="M809.487 308.896C808.092 308.653 806.666 308.653 805.271 308.896C804.627 309.012 803.963 308.9 803.394 308.579C802.824 308.258 802.385 307.748 802.152 307.137L802.132 307.084C801.987 306.696 801.931 306.28 801.966 305.866C802.001 305.453 802.127 305.053 802.335 304.694C802.544 304.335 802.829 304.027 803.17 303.791C803.512 303.556 803.902 303.399 804.311 303.331C806.341 302.979 808.417 302.979 810.447 303.331C810.856 303.399 811.246 303.556 811.587 303.791C811.929 304.027 812.214 304.335 812.423 304.694C812.631 305.053 812.757 305.453 812.792 305.866C812.827 306.28 812.77 306.696 812.625 307.084L812.605 307.137C812.372 307.748 811.933 308.258 811.364 308.579C810.794 308.9 810.13 309.012 809.487 308.896Z" fill="#252F3A"/>
<path d="M805.271 367.425C806.666 367.669 808.092 367.669 809.487 367.425C810.131 367.309 810.795 367.422 811.364 367.743C811.933 368.064 812.372 368.574 812.605 369.185L812.625 369.237C812.77 369.626 812.827 370.042 812.792 370.455C812.757 370.869 812.631 371.269 812.422 371.628C812.214 371.987 811.929 372.295 811.587 372.53C811.246 372.766 810.856 372.923 810.446 372.99C808.417 373.343 806.341 373.343 804.311 372.99C803.902 372.923 803.512 372.766 803.17 372.53C802.829 372.295 802.544 371.987 802.335 371.628C802.127 371.269 802.001 370.869 801.966 370.455C801.931 370.042 801.988 369.626 802.132 369.237L802.152 369.185C802.385 368.574 802.825 368.064 803.394 367.743C803.963 367.422 804.627 367.309 805.271 367.425Z" fill="#252F3A"/>
<path d="M836.399 340.257C836.642 338.87 836.642 337.45 836.399 336.062C836.284 335.422 836.396 334.762 836.716 334.195C837.036 333.629 837.544 333.192 838.152 332.96L838.205 332.94C838.592 332.796 839.007 332.739 839.418 332.774C839.83 332.809 840.229 332.935 840.587 333.142C840.944 333.349 841.251 333.633 841.486 333.973C841.72 334.313 841.877 334.7 841.944 335.108C842.295 337.127 842.295 339.192 841.944 341.212C841.877 341.619 841.721 342.007 841.486 342.347C841.251 342.687 840.944 342.97 840.587 343.178C840.229 343.385 839.83 343.511 839.418 343.545C839.007 343.58 838.592 343.524 838.205 343.38L838.152 343.36C837.544 343.128 837.036 342.691 836.716 342.124C836.396 341.558 836.284 340.898 836.399 340.257Z" fill="#252F3A"/>
<path d="M778.081 336.062C777.839 337.45 777.839 338.87 778.081 340.257C778.197 340.898 778.085 341.558 777.765 342.125C777.445 342.691 776.936 343.128 776.328 343.36L776.276 343.38C775.888 343.524 775.474 343.58 775.062 343.545C774.65 343.511 774.251 343.385 773.894 343.178C773.536 342.97 773.229 342.687 772.995 342.347C772.76 342.007 772.603 341.619 772.536 341.212C772.185 339.192 772.185 337.127 772.536 335.108C772.603 334.7 772.76 334.313 772.995 333.973C773.229 333.633 773.536 333.349 773.894 333.142C774.251 332.935 774.65 332.809 775.062 332.774C775.474 332.739 775.888 332.796 776.276 332.94L776.328 332.96C776.936 333.192 777.445 333.629 777.765 334.195C778.085 334.762 778.197 335.422 778.081 336.062Z" fill="#252F3A"/>
<path d="M831.453 354.533C832.357 353.451 833.066 352.222 833.55 350.898C833.77 350.286 834.197 349.77 834.757 349.439C835.318 349.108 835.977 348.983 836.619 349.086L836.675 349.095C837.082 349.163 837.47 349.321 837.809 349.557C838.148 349.793 838.431 350.101 838.637 350.459C838.843 350.817 838.968 351.216 839.001 351.628C839.034 352.039 838.976 352.453 838.831 352.84C838.125 354.764 837.093 356.553 835.779 358.127C835.517 358.447 835.188 358.705 834.815 358.882C834.441 359.059 834.034 359.152 833.62 359.153C833.207 359.154 832.799 359.064 832.424 358.888C832.05 358.713 831.719 358.457 831.456 358.139L831.42 358.095C831.009 357.591 830.788 356.959 830.794 356.308C830.799 355.658 831.033 355.03 831.453 354.533Z" fill="#252F3A"/>
<path d="M783.029 321.789C782.125 322.87 781.415 324.099 780.931 325.423C780.712 326.035 780.284 326.551 779.724 326.882C779.163 327.213 778.505 327.338 777.862 327.235L777.806 327.226C777.399 327.158 777.012 327 776.672 326.764C776.333 326.529 776.05 326.221 775.844 325.863C775.638 325.505 775.514 325.105 775.48 324.694C775.447 324.282 775.505 323.868 775.651 323.482C776.356 321.557 777.388 319.768 778.702 318.194C778.964 317.875 779.293 317.617 779.667 317.439C780.04 317.262 780.448 317.17 780.861 317.168C781.274 317.167 781.683 317.258 782.057 317.433C782.431 317.608 782.762 317.864 783.025 318.183L783.061 318.226C783.472 318.731 783.694 319.363 783.688 320.013C783.682 320.664 783.449 321.292 783.029 321.789Z" fill="#252F3A"/>
<path d="M820.029 364.431C821.352 363.946 822.582 363.235 823.662 362.33C824.159 361.909 824.787 361.675 825.438 361.668C826.089 361.661 826.722 361.882 827.227 362.292L827.271 362.327C827.589 362.59 827.846 362.92 828.022 363.294C828.198 363.667 828.289 364.075 828.289 364.488C828.288 364.901 828.197 365.309 828.02 365.682C827.843 366.056 827.585 366.385 827.266 366.647C825.693 367.963 823.904 368.997 821.979 369.705C821.593 369.851 821.179 369.91 820.767 369.877C820.355 369.844 819.955 369.721 819.596 369.516C819.238 369.31 818.929 369.028 818.693 368.689C818.456 368.351 818.298 367.964 818.229 367.557L818.219 367.501C818.115 366.859 818.24 366.201 818.57 365.64C818.9 365.079 819.416 364.652 820.029 364.431Z" fill="#252F3A"/>
<path d="M794.452 311.891C793.128 312.376 791.899 313.087 790.818 313.992C790.322 314.413 789.694 314.647 789.043 314.654C788.392 314.661 787.759 314.44 787.253 314.03L787.21 313.995C786.891 313.732 786.634 313.402 786.458 313.028C786.282 312.655 786.191 312.247 786.191 311.834C786.192 311.421 786.284 311.013 786.461 310.64C786.638 310.266 786.895 309.937 787.214 309.675C788.787 308.359 790.576 307.325 792.501 306.617C792.888 306.471 793.302 306.412 793.714 306.445C794.126 306.478 794.525 306.601 794.884 306.806C795.243 307.012 795.551 307.294 795.788 307.632C796.024 307.971 796.183 308.358 796.252 308.765L796.261 308.821C796.365 309.463 796.241 310.121 795.911 310.682C795.58 311.242 795.064 311.67 794.452 311.891Z" fill="#252F3A"/>
<path d="M783.061 354.605C782.154 353.519 781.441 352.284 780.955 350.955C780.734 350.34 780.305 349.822 779.742 349.489C779.18 349.157 778.518 349.032 777.872 349.135L777.817 349.144C777.407 349.213 777.018 349.371 776.677 349.608C776.337 349.845 776.053 350.154 775.846 350.514C775.639 350.873 775.514 351.274 775.48 351.687C775.447 352.101 775.505 352.517 775.652 352.905C776.36 354.838 777.397 356.635 778.716 358.216C778.979 358.537 779.31 358.795 779.685 358.973C780.06 359.152 780.469 359.244 780.884 359.246C781.299 359.247 781.71 359.156 782.085 358.98C782.461 358.804 782.793 358.547 783.058 358.227L783.094 358.184C783.507 357.677 783.73 357.042 783.724 356.389C783.718 355.735 783.483 355.104 783.061 354.605Z" fill="#252F3A"/>
<path d="M831.695 321.718C832.603 322.804 833.315 324.039 833.801 325.368C834.022 325.983 834.451 326.502 835.014 326.834C835.577 327.167 836.238 327.292 836.884 327.189L836.94 327.18C837.349 327.111 837.738 326.953 838.079 326.716C838.42 326.479 838.704 326.17 838.911 325.81C839.118 325.451 839.243 325.05 839.276 324.636C839.31 324.223 839.251 323.807 839.105 323.419C838.397 321.486 837.36 319.689 836.04 318.108C835.777 317.787 835.447 317.528 835.072 317.35C834.697 317.172 834.287 317.079 833.872 317.078C833.457 317.077 833.047 317.168 832.671 317.344C832.295 317.52 831.963 317.777 831.698 318.097L831.662 318.14C831.25 318.647 831.027 319.282 831.033 319.935C831.039 320.589 831.273 321.219 831.695 321.718Z" fill="#252F3A"/>
<path d="M794.534 364.546C793.205 364.058 791.97 363.344 790.884 362.435C790.386 362.013 789.755 361.778 789.101 361.771C788.447 361.764 787.812 361.985 787.304 362.397L787.26 362.433C786.94 362.697 786.682 363.028 786.506 363.403C786.329 363.779 786.237 364.188 786.238 364.603C786.238 365.018 786.331 365.427 786.508 365.802C786.686 366.177 786.944 366.508 787.265 366.771C788.845 368.092 790.641 369.131 792.575 369.842C792.963 369.989 793.379 370.048 793.793 370.015C794.206 369.982 794.608 369.858 794.968 369.652C795.328 369.446 795.638 369.162 795.876 368.822C796.113 368.482 796.272 368.094 796.342 367.685L796.351 367.629C796.455 366.984 796.331 366.323 795.999 365.76C795.667 365.197 795.149 364.767 794.534 364.546Z" fill="#252F3A"/>
<path d="M820.222 311.778C821.552 312.265 822.786 312.979 823.872 313.888C824.37 314.31 825.001 314.545 825.655 314.552C826.309 314.559 826.944 314.338 827.452 313.926L827.496 313.891C827.816 313.627 828.074 313.295 828.251 312.92C828.427 312.545 828.519 312.135 828.518 311.72C828.518 311.305 828.426 310.896 828.248 310.521C828.07 310.146 827.812 309.815 827.491 309.552C825.911 308.231 824.115 307.192 822.182 306.481C821.793 306.334 821.377 306.275 820.964 306.308C820.55 306.341 820.148 306.465 819.788 306.671C819.428 306.877 819.118 307.161 818.881 307.501C818.643 307.841 818.484 308.23 818.414 308.639L818.405 308.694C818.301 309.339 818.425 310 818.757 310.563C819.089 311.126 819.607 311.556 820.222 311.778Z" fill="#252F3A"/>
<path d="M807.24 323.873C806.731 323.873 806.233 323.722 805.81 323.439C805.386 323.157 805.057 322.755 804.862 322.285C804.667 321.815 804.616 321.298 804.715 320.799C804.814 320.3 805.059 319.842 805.419 319.482C805.779 319.122 806.238 318.877 806.737 318.778C807.236 318.679 807.754 318.73 808.224 318.924C808.694 319.119 809.097 319.448 809.379 319.871C809.662 320.294 809.813 320.791 809.813 321.3C809.813 321.982 809.541 322.636 809.059 323.118C808.576 323.6 807.922 323.871 807.24 323.873Z" fill="white"/>
<path d="M807.24 356.673C806.731 356.673 806.233 356.522 805.81 356.239C805.386 355.957 805.056 355.555 804.861 355.085C804.667 354.615 804.616 354.098 804.715 353.599C804.814 353.1 805.059 352.642 805.419 352.282C805.779 351.922 806.238 351.677 806.737 351.578C807.237 351.479 807.754 351.53 808.225 351.725C808.695 351.919 809.097 352.249 809.38 352.672C809.662 353.095 809.813 353.592 809.813 354.101C809.812 354.783 809.541 355.436 809.058 355.918C808.576 356.401 807.922 356.672 807.24 356.673Z" fill="white"/>
<path d="M823.654 340.733C823.144 340.733 822.647 340.582 822.223 340.3C821.8 340.017 821.47 339.616 821.275 339.146C821.08 338.676 821.029 338.159 821.128 337.66C821.228 337.161 821.473 336.702 821.833 336.342C822.193 335.983 822.651 335.738 823.15 335.638C823.65 335.539 824.167 335.59 824.638 335.784C825.108 335.979 825.51 336.309 825.793 336.732C826.076 337.155 826.227 337.652 826.227 338.16C826.226 338.842 825.955 339.496 825.472 339.978C824.99 340.46 824.336 340.732 823.654 340.733Z" fill="white"/>
<path d="M790.826 340.733C790.317 340.733 789.819 340.582 789.396 340.299C788.972 340.017 788.643 339.615 788.448 339.145C788.253 338.675 788.202 338.158 788.301 337.659C788.401 337.16 788.646 336.702 789.006 336.342C789.366 335.983 789.824 335.738 790.324 335.638C790.823 335.539 791.34 335.59 791.811 335.785C792.281 335.979 792.683 336.309 792.966 336.732C793.249 337.155 793.4 337.652 793.4 338.16C793.399 338.842 793.128 339.496 792.645 339.979C792.162 340.461 791.508 340.732 790.826 340.733Z" fill="white"/>
<path d="M819.008 328.513C818.413 328.513 817.835 328.307 817.375 327.929C816.914 327.551 816.599 327.026 816.483 326.442C816.366 325.859 816.456 325.253 816.737 324.728C817.018 324.203 817.472 323.791 818.022 323.563C818.572 323.335 819.185 323.305 819.755 323.478C820.325 323.65 820.817 324.015 821.148 324.51C821.479 325.005 821.628 325.599 821.57 326.192C821.512 326.784 821.25 327.338 820.829 327.759C820.59 327.999 820.307 328.189 819.994 328.318C819.682 328.447 819.347 328.514 819.008 328.513Z" fill="white"/>
<path d="M795.798 351.709C795.202 351.709 794.625 351.502 794.164 351.125C793.704 350.747 793.389 350.222 793.272 349.638C793.156 349.055 793.246 348.448 793.526 347.923C793.807 347.398 794.261 346.987 794.812 346.759C795.362 346.531 795.974 346.501 796.544 346.674C797.114 346.846 797.607 347.211 797.938 347.706C798.269 348.201 798.418 348.795 798.36 349.387C798.302 349.98 798.04 350.534 797.618 350.955C797.38 351.194 797.096 351.385 796.784 351.514C796.471 351.643 796.136 351.71 795.798 351.709Z" fill="white"/>
<path d="M818.683 352.033C818.088 352.033 817.51 351.827 817.05 351.449C816.589 351.072 816.274 350.546 816.158 349.962C816.042 349.379 816.132 348.773 816.412 348.248C816.693 347.723 817.148 347.311 817.698 347.083C818.248 346.856 818.861 346.826 819.431 346.999C820.001 347.171 820.493 347.536 820.824 348.031C821.155 348.526 821.304 349.121 821.245 349.713C821.187 350.305 820.924 350.859 820.503 351.28C820.264 351.519 819.981 351.709 819.669 351.838C819.356 351.968 819.022 352.034 818.683 352.033Z" fill="white"/>
<path d="M795.471 328.84C794.875 328.841 794.298 328.634 793.837 328.257C793.377 327.879 793.061 327.354 792.945 326.77C792.829 326.186 792.919 325.58 793.2 325.055C793.48 324.53 793.935 324.118 794.485 323.89C795.035 323.662 795.648 323.632 796.218 323.805C796.788 323.978 797.281 324.343 797.612 324.838C797.942 325.333 798.092 325.928 798.033 326.52C797.975 327.112 797.712 327.666 797.291 328.087C797.052 328.327 796.769 328.516 796.456 328.646C796.144 328.775 795.809 328.841 795.471 328.84Z" fill="white"/>
<path opacity="0.29" d="M859.828 330.386C859.356 330.379 858.901 330.207 858.542 329.901C858.183 329.594 857.943 329.171 857.863 328.706C855.657 316.901 849.388 306.239 840.143 298.567C830.898 290.894 819.258 286.694 807.24 286.694C795.222 286.694 783.583 290.894 774.338 298.567C765.092 306.239 758.824 316.901 756.618 328.706C756.538 329.171 756.297 329.594 755.938 329.9C755.58 330.207 755.125 330.379 754.652 330.386H754.555C754.263 330.385 753.974 330.321 753.709 330.196C753.444 330.072 753.21 329.891 753.023 329.666C752.836 329.442 752.7 329.179 752.626 328.896C752.552 328.613 752.541 328.317 752.594 328.03C754.963 315.276 761.725 303.754 771.706 295.461C781.687 287.168 794.259 282.627 807.24 282.627C820.221 282.627 832.792 287.168 842.774 295.461C852.755 303.754 859.517 315.276 861.886 328.03C861.939 328.317 861.928 328.613 861.854 328.896C861.78 329.179 861.645 329.442 861.457 329.667C861.27 329.892 861.036 330.072 860.771 330.197C860.506 330.321 860.217 330.385 859.925 330.386H859.828Z" fill="white"/>
<path opacity="0.11" d="M807.239 376.886C817.517 376.886 827.374 372.806 834.641 365.544C841.909 358.282 845.992 348.432 845.992 338.162H768.486C768.486 348.432 772.569 358.282 779.837 365.544C787.104 372.806 796.961 376.886 807.239 376.886Z" fill="#8FB5D3"/>
</g>
<defs>
<linearGradient id="paint0_linear_1276_5435" x1="941.478" y1="88.0879" x2="992.701" y2="88.0879" gradientUnits="userSpaceOnUse">
<stop stop-color="white"/>
<stop offset="1"/>
</linearGradient>
<linearGradient id="paint1_linear_1276_5435" x1="881.083" y1="137.13" x2="881.083" y2="32.1069" gradientUnits="userSpaceOnUse">
<stop stop-color="white"/>
<stop offset="1"/>
</linearGradient>
<linearGradient id="paint2_linear_1276_5435" x1="942.328" y1="137.133" x2="942.328" y2="81.1026" gradientUnits="userSpaceOnUse">
<stop stop-color="white"/>
<stop offset="1"/>
</linearGradient>
<clipPath id="clip0_1276_5435">
<rect width="1000" height="400" fill="white"/>
</clipPath>
<clipPath id="clip1_1276_5435">
<rect width="750" height="250" fill="white"/>
</clipPath>
<clipPath id="clip2_1276_5435">
<rect width="120" height="120" fill="white" transform="translate(62.5 280)"/>
</clipPath>
<clipPath id="clip3_1276_5435">
<rect width="120" height="120" fill="white" transform="translate(185 280)"/>
</clipPath>
<clipPath id="clip4_1276_5435">
<rect width="120" height="120" fill="white" transform="translate(525 280)"/>
</clipPath>
</defs>
</svg>
