<svg width="650" height="650" viewBox="0 0 650 650" fill="none" xmlns="http://www.w3.org/2000/svg">
<g clip-path="url(#clip0_1276_7622)">
<g clip-path="url(#clip1_1276_7622)">
<path d="M635.942 360.953C639.126 363.844 643.122 365.685 647.389 366.226L647.245 367.367C637.924 438.306 605.451 504.185 554.863 554.782C504.274 605.379 438.401 637.864 367.464 647.197C367.359 647.197 367.267 647.249 367.176 647.249C366.513 642.281 364.076 637.721 360.312 634.412C356.549 631.102 351.715 629.267 346.703 629.244C341.402 629.274 336.312 631.326 332.472 634.981C328.632 638.636 326.332 643.618 326.041 648.912C326.003 649.272 325.987 649.635 325.995 649.998C283.189 650.125 240.779 641.795 201.201 625.487C161.623 609.179 125.656 585.213 95.3653 554.967C65.0748 524.72 41.0572 488.788 24.6917 449.233C8.32625 409.679 -0.0648698 367.281 0.000377603 324.475V324.334C0.235828 324.334 0.471582 324.385 0.759894 324.385C2.23087 324.396 3.69826 324.236 5.13212 323.907C6.08492 323.71 7.02131 323.44 7.93321 323.1C8.67964 322.831 9.40771 322.514 10.1127 322.15C10.2646 322.055 10.3939 322.011 10.5379 321.913C11.2692 321.543 11.9696 321.115 12.6322 320.633C13.4083 320.145 14.1262 319.569 14.7722 318.918C15.4382 318.318 16.0576 317.668 16.6254 316.974C17.2199 316.288 17.7602 315.557 18.2416 314.787C18.719 314.025 19.1476 313.233 19.5246 312.417C19.5246 312.417 19.5247 312.368 19.5705 312.368C19.9349 311.548 20.2494 310.706 20.5123 309.848C20.6105 309.523 20.7086 309.187 20.8003 308.855C20.944 308.335 21.0357 307.855 21.1344 307.336C21.2256 306.713 21.3241 306.098 21.3699 305.53C21.4155 304.908 21.461 304.291 21.461 303.677C21.4603 298.528 19.5374 293.566 16.0689 289.761C12.6004 285.957 7.83633 283.584 2.71005 283.109V282.921C11.9762 211.987 44.3833 146.09 94.9077 95.4465C145.432 44.8026 211.252 12.2399 282.164 2.80624C282.255 2.80624 282.354 2.75516 282.445 2.75516C282.867 6.01837 284.073 9.13085 285.96 11.8265C287.708 14.3536 289.995 16.4615 292.655 17.9983C295.801 19.7378 299.324 20.6832 302.918 20.7524C305.999 20.7623 309.043 20.0757 311.822 18.744C314.601 17.4123 317.043 15.4699 318.966 13.0618C320.632 11.0676 321.876 8.75662 322.625 6.26839C323.212 4.5725 323.532 2.79556 323.574 1.00128C323.612 0.67003 323.627 0.33662 323.619 0.00330319C404.936 -0.327496 483.424 29.8299 543.598 84.5257C603.772 139.222 641.262 214.483 648.671 295.463C649.529 305.245 650 315.169 650 325.003C649.03 324.994 648.061 325.057 647.1 325.191C642.183 325.976 637.698 328.467 634.433 332.228C631.169 335.989 629.332 340.779 629.246 345.758C629.224 347.626 629.496 349.485 630.052 351.268C631.055 354.99 633.098 358.35 635.942 360.953Z" fill="#C7E33C"/>
<path d="M648.671 295.464C648.291 299.88 647.813 304.247 647.243 308.661C646.484 314.364 645.583 320.065 644.539 325.765C640.151 326.961 636.277 329.566 633.513 333.179C630.749 336.791 629.249 341.212 629.243 345.76C629.239 348.62 629.833 351.449 630.986 354.065C632.139 356.682 633.826 359.029 635.939 360.956C617.764 420.661 582.781 473.868 535.171 514.219C487.56 554.57 429.337 580.357 367.461 588.497C362.467 589.165 357.48 589.682 352.447 590.067C343.755 590.871 335.018 591.251 326.28 591.302C324.33 591.302 322.386 591.301 320.39 591.253C316.64 591.207 312.883 591.113 309.133 590.871C236.05 587.306 166.309 559.183 111.198 511.053C56.0858 462.924 18.8286 397.604 5.45601 325.667C5.31869 325.1 5.21295 324.478 5.1291 323.91C5.97997 323.723 6.81895 323.486 7.64204 323.2C7.72827 323.144 7.82754 323.111 7.93019 323.104C8.68971 322.819 9.39638 322.485 10.1097 322.153C10.2616 322.058 10.3909 322.014 10.5349 321.916C11.2594 321.534 11.959 321.107 12.6291 320.636C13.3842 320.119 14.0995 319.546 14.7692 318.922C15.4352 318.321 16.0546 317.671 16.6224 316.977C17.1847 316.265 17.7084 315.554 18.2386 314.79C18.7034 314.027 19.1354 313.222 19.5215 312.42C19.5215 312.42 19.5216 312.371 19.5675 312.371C19.9319 311.551 20.2464 310.709 20.5093 309.851C20.6074 309.526 20.7055 309.19 20.7973 308.858C20.941 308.338 21.0327 307.858 21.1314 307.339C21.2226 306.716 21.321 306.101 21.3669 305.533C21.4125 304.911 21.458 304.294 21.458 303.68C21.4573 298.531 19.5344 293.569 16.0659 289.764C12.5974 285.96 7.83331 283.587 2.70703 283.112V282.924C11.9731 211.99 44.3803 146.093 94.9047 95.4496C145.429 44.8057 211.249 12.243 282.161 2.80933C282.252 2.80933 282.351 2.75833 282.442 2.75833C282.864 6.02154 284.07 9.13403 285.957 11.8297C287.705 14.3568 289.992 16.4647 292.652 18.0015C295.766 19.8189 299.31 20.7697 302.915 20.7555C305.996 20.7654 309.04 20.0789 311.819 18.7472C314.598 17.4155 317.04 15.473 318.963 13.0649C321.948 9.3648 323.589 4.76074 323.616 0.00647702C404.933 -0.324322 483.421 29.8331 543.595 84.5289C603.769 139.225 641.259 214.487 648.668 295.466L648.671 295.464Z" fill="#B0CF32"/>
<path d="M558.62 227.448C558.579 236.914 557.945 246.369 556.722 255.756C550.368 304.016 528.271 348.833 493.855 383.257C459.44 417.681 414.629 439.79 366.37 446.155C335.128 450.273 303.366 447.666 273.213 438.509C243.06 429.352 215.212 413.857 191.535 393.063C167.858 372.268 148.898 346.653 135.925 317.935C122.952 289.216 116.267 258.057 116.316 226.545C116.316 220.037 116.59 213.486 117.212 206.928C117.448 204.034 117.782 201.134 118.161 198.289C123.966 153.875 143.116 112.27 173.077 78.9755C203.039 45.6808 242.402 22.2649 285.959 11.8248C287.707 14.3519 289.993 16.4598 292.654 17.9966C295.768 19.8139 299.312 20.7648 302.917 20.7506C305.998 20.7605 309.042 20.074 311.821 18.7423C314.6 17.4106 317.042 15.4681 318.965 13.06C320.631 11.0657 321.875 8.75487 322.624 6.26664C327.185 5.93761 331.786 5.74623 336.356 5.74623C391.717 5.47908 445.167 25.9799 486.149 63.2005C527.132 100.421 552.669 151.656 557.717 206.787C558.332 213.674 558.666 220.561 558.62 227.448Z" fill="#BED93A"/>
<path d="M509.082 184.135C509.044 191.471 508.554 198.799 507.616 206.075C502.704 243.531 485.563 278.318 458.855 305.036C432.147 331.753 397.366 348.905 359.911 353.83C352.699 354.768 345.436 355.26 338.163 355.303C315.546 355.392 293.134 351.01 272.216 342.409C251.298 333.808 232.286 321.158 216.273 305.185C200.26 289.212 187.562 270.232 178.908 249.336C170.255 228.439 165.817 206.039 165.849 183.421C165.849 178.341 166.086 173.258 166.562 168.173C166.752 165.94 166.987 163.709 167.269 161.483C171.651 127.852 185.901 96.275 208.217 70.7375C230.533 45.2 259.917 26.8475 292.656 17.9975C295.77 19.8148 299.313 20.7657 302.919 20.7515C306 20.7614 309.044 20.0749 311.823 18.7432C314.602 17.4115 317.044 15.469 318.966 13.0609C324.811 12.4428 330.701 12.1101 336.638 12.0629C379.595 11.8615 421.066 27.7748 452.862 56.6604C484.658 85.546 504.467 125.304 508.377 168.083C508.847 173.401 509.136 178.77 509.082 184.135Z" fill="#D1E94D"/>
<path d="M352.448 590.063C328.766 521.835 289.588 460.027 237.991 409.493C170.789 342.953 88.2446 298.735 2.70874 282.92V283.107C7.83502 283.583 12.5991 285.955 16.0676 289.76C19.5361 293.564 21.459 298.527 21.4597 303.675C21.4597 304.29 21.4139 304.907 21.3686 305.528C21.3228 306.096 21.2246 306.711 21.1331 307.335C21.0347 307.853 20.943 308.333 20.799 308.854C20.7079 309.186 20.6092 309.522 20.511 309.847C20.2481 310.705 19.9336 311.546 19.5692 312.367C19.5234 312.367 19.5232 312.416 19.5232 312.416C19.1371 313.219 18.7051 314.024 18.2403 314.785C17.7101 315.548 17.1864 316.26 16.6241 316.973C16.0563 317.667 15.4369 318.317 14.7709 318.917C14.1012 319.541 13.3859 320.114 12.6309 320.632C11.9607 321.102 11.2611 321.53 10.5366 321.911C10.3923 322.009 10.2615 322.054 10.1114 322.148C9.39809 322.481 8.69111 322.814 7.9319 323.099C7.02 323.439 6.08361 323.708 5.13081 323.906C5.21588 324.473 5.3204 325.095 5.45772 325.663C76.9413 341.099 148.889 379.285 209.017 438.795C252.855 481.764 286.991 533.615 309.135 590.867C316.339 609.723 321.993 629.135 326.04 648.91C326.331 643.617 328.631 638.635 332.471 634.98C336.311 631.325 341.401 629.273 346.702 629.243C351.714 629.265 356.548 631.101 360.311 634.411C364.074 637.72 366.513 642.28 367.175 647.248C367.266 647.248 367.357 647.196 367.462 647.196C363.834 627.816 358.817 608.722 352.448 590.063Z" fill="#C2C9B3"/>
<path d="M635.94 360.953C633.096 358.35 631.053 354.99 630.05 351.267C629.495 349.484 629.223 347.625 629.245 345.757C629.331 340.778 631.167 335.988 634.432 332.227C637.697 328.466 642.181 325.975 647.099 325.19C574.674 310.184 501.632 271.761 440.699 211.445C378.196 149.607 338.632 74.8972 323.572 1.00024C323.531 2.79453 323.211 4.57147 322.623 6.26735C321.875 8.75559 320.63 11.0664 318.964 13.0607C317.042 15.4688 314.6 17.4113 311.821 18.743C309.042 20.0747 305.998 20.7612 302.917 20.7513C299.323 20.6821 295.8 19.7368 292.654 17.9973C289.993 16.4605 287.707 14.3526 285.959 11.8255C284.072 9.12982 282.866 6.01733 282.444 2.75412C282.353 2.75412 282.254 2.80512 282.163 2.80512C297.733 86.725 341.426 171.261 411.679 240.746C478.928 307.336 561.564 351.594 647.243 367.367L647.387 366.227C643.121 365.685 639.125 363.844 635.94 360.953Z" fill="#C2C9B3"/>
<path d="M352.448 590.063C328.766 521.835 289.588 460.027 237.991 409.493C170.789 342.953 88.2446 298.735 2.70874 282.92V283.107C7.83502 283.583 12.5991 285.955 16.0676 289.76C19.5361 293.564 21.459 298.527 21.4597 303.675C21.4597 304.29 21.4139 304.907 21.3686 305.528C21.3228 306.096 21.2246 306.711 21.1331 307.335C21.0347 307.853 20.943 308.333 20.799 308.854C20.7079 309.186 20.6092 309.522 20.511 309.847C89.2847 327.468 157.777 365.413 215.568 422.699C261.455 468.097 297.785 531.172 320.392 591.251C325.804 605.645 330.417 619.847 334.116 633.571C337.709 630.762 342.141 629.238 346.702 629.245C351.713 629.267 356.548 631.103 360.311 634.413C364.074 637.722 366.512 642.282 367.174 647.25C367.266 647.25 367.357 647.198 367.462 647.198C363.834 627.817 358.816 608.723 352.448 590.063Z" fill="#E2EAD3"/>
<path d="M440.701 211.445C378.197 149.607 338.633 74.8972 323.573 1.00024C323.532 2.79453 323.212 4.57147 322.624 6.26735C321.876 8.75559 320.631 11.0664 318.966 13.0607C317.043 15.4688 314.601 17.4113 311.822 18.743C309.043 20.0747 305.999 20.7612 302.918 20.7513C301.379 20.7558 299.846 20.5655 298.356 20.185C317.683 94.891 359.19 168.792 421.746 230.632C481.868 290.141 554.255 331.835 630.051 351.266C629.496 349.483 629.224 347.624 629.246 345.756C629.332 340.777 631.168 335.987 634.433 332.226C637.698 328.465 642.182 325.974 647.1 325.189C574.675 310.184 501.634 271.761 440.701 211.445Z" fill="#E2EAD3"/>
</g>
</g>
<defs>
<clipPath id="clip0_1276_7622">
<rect width="650" height="650" fill="white"/>
</clipPath>
<clipPath id="clip1_1276_7622">
<rect width="650" height="649.999" fill="white"/>
</clipPath>
</defs>
</svg>
