<svg width="1000" height="300" viewBox="0 0 1000 300" fill="none" xmlns="http://www.w3.org/2000/svg">
<g clip-path="url(#clip0_1276_5775)">
<path d="M750.02 68.3582V16.4355C791.478 16.4355 829.366 35.4818 847.838 65.6099L853.047 74.1046H750.02V68.3582Z" fill="#971E35"/>
<path d="M739.052 215.009H27.6367V269.242H739.052V215.009Z" fill="#1A2D38"/>
<path d="M1000 188.856C1000 184.909 998.717 181.077 996.361 177.988C994.004 174.898 990.714 172.733 987.026 171.845L884.108 147.068L854.832 77.3565C853.504 74.1938 851.321 71.5034 848.55 69.6141C845.779 67.7249 842.54 66.7187 839.23 66.7188H750.03C747.119 66.7188 744.327 67.9251 742.268 70.0723C740.209 72.2195 739.053 75.1318 739.053 78.1685V269.283H835.825V269.206H1000V188.856Z" fill="#971E35"/>
<path d="M554.729 215.212H214.062V269.242H554.729V215.212Z" fill="#EDDFDF"/>
<path d="M554.729 215.212H214.062V229.002H554.729V215.212Z" fill="#B7A2A2"/>
<path d="M776.713 152.91H880.443C881.103 152.913 881.753 152.744 882.336 152.42C882.918 152.096 883.415 151.626 883.78 151.053C884.146 150.48 884.369 149.821 884.43 149.135C884.492 148.449 884.389 147.759 884.131 147.125L884.108 147.068L854.832 77.3567C853.504 74.194 851.321 71.5035 848.55 69.6142C845.779 67.7249 842.54 66.7188 839.23 66.7188H750.03C748.589 66.7187 747.161 67.0149 745.829 67.5903C744.497 68.1657 743.287 69.0091 742.268 70.0723C741.249 71.1355 740.44 72.3977 739.888 73.7869C739.337 75.176 739.053 76.6648 739.053 78.1684V79.297L759.634 140.295C760.879 143.983 763.19 147.177 766.249 149.437C769.308 151.697 772.965 152.91 776.713 152.91Z" fill="#A92747"/>
<path d="M794.49 148.421C791.765 148.407 789.143 147.331 787.141 145.403C785.138 143.475 783.899 140.835 783.669 138.003L779.611 85.2201C779.538 84.2762 779.654 83.3267 779.951 82.4317C780.247 81.5366 780.718 80.7153 781.334 80.0195C781.95 79.3236 782.697 78.7683 783.529 78.3885C784.36 78.0086 785.258 77.8125 786.166 77.8125H832.208C834.187 77.8089 836.124 78.4182 837.771 79.5632C839.418 80.7082 840.703 82.3374 841.462 84.2444L864.406 141.608C864.705 142.355 864.822 143.168 864.748 143.975C864.673 144.781 864.408 145.556 863.978 146.23C863.547 146.904 862.964 147.457 862.279 147.839C861.594 148.221 860.83 148.421 860.053 148.421H794.49Z" fill="#971E35"/>
<path d="M860.297 146.903H794.734C792.219 146.903 789.796 145.915 787.947 144.135C786.099 142.355 784.961 139.915 784.76 137.3L780.702 84.5171C780.639 83.6951 780.739 82.8683 780.998 82.0889C781.256 81.3095 781.666 80.5942 782.202 79.9882C782.739 79.3823 783.389 78.8987 784.114 78.5679C784.838 78.2372 785.62 78.0664 786.41 78.0664H832.452C834.263 78.0664 836.034 78.6254 837.541 79.6729C839.049 80.7205 840.225 82.2098 840.922 83.9533L863.866 141.317C864.111 141.93 864.207 142.596 864.146 143.257C864.085 143.918 863.868 144.553 863.515 145.106C863.162 145.659 862.683 146.112 862.122 146.425C861.561 146.739 860.934 146.903 860.297 146.903Z" fill="#6093A7"/>
<path d="M794.62 116.706C793.843 113.886 792.374 111.327 790.357 109.281C788.341 107.235 785.847 105.774 783.123 105.042L782.275 104.814L784.773 137.301C784.974 139.916 786.112 142.357 787.96 144.136C789.809 145.916 792.232 146.904 794.748 146.904H802.939L794.62 116.706Z" fill="#416D7B"/>
<path d="M999.998 235.301V191.513C998.919 191.513 997.85 191.735 996.852 192.166C995.855 192.597 994.949 193.229 994.185 194.025C993.422 194.821 992.816 195.766 992.403 196.807C991.99 197.847 991.777 198.962 991.777 200.088V226.726C991.777 227.852 991.99 228.967 992.403 230.008C992.816 231.048 993.422 231.993 994.185 232.79C994.949 233.586 995.855 234.217 996.852 234.648C997.85 235.079 998.919 235.301 999.998 235.301Z" fill="#D8E8F2"/>
<g style="mix-blend-mode:multiply">
<path d="M777.49 159.129H787.748C788.315 159.129 788.876 159.245 789.399 159.471C789.922 159.697 790.398 160.029 790.798 160.446C791.199 160.864 791.516 161.36 791.733 161.906C791.95 162.452 792.061 163.037 792.061 163.628V173.239C792.061 174.432 791.607 175.576 790.798 176.42C789.989 177.264 788.892 177.738 787.748 177.738H777.49V159.129Z" fill="#6F0E25"/>
</g>
<path style="mix-blend-mode:screen" opacity="0.44" d="M794.143 141.042H830.781L842.938 89.0124L840.914 83.9534C840.217 82.2099 839.041 80.7206 837.533 79.673C836.026 78.6254 834.255 78.0664 832.444 78.0664H803.456L790.028 135.54C789.873 136.188 789.861 136.864 789.993 137.517C790.124 138.17 790.394 138.784 790.785 139.313C791.175 139.842 791.675 140.272 792.247 140.571C792.819 140.87 793.448 141.031 794.088 141.041C794.106 141.042 794.125 141.042 794.143 141.042Z" fill="url(#paint0_linear_1276_5775)"/>
<path style="mix-blend-mode:screen" opacity="0.44" d="M859.709 141.048C860.368 141.051 861.016 140.876 861.591 140.542C862.167 140.208 862.65 139.725 862.995 139.139L850.32 107.451L842.471 141.048H859.709Z" fill="url(#paint1_linear_1276_5775)"/>
<g opacity="0.43">
<path d="M849.045 69.9866C846.173 67.8629 842.74 66.7211 839.219 66.7188H750.02C747.149 66.7154 744.392 67.889 742.344 69.9866H849.045Z" fill="white"/>
</g>
<path d="M778.047 161.543H783.256C783.588 161.543 783.916 161.611 784.222 161.743C784.528 161.876 784.806 162.07 785.041 162.314C785.275 162.558 785.461 162.849 785.588 163.168C785.715 163.487 785.78 163.83 785.78 164.175V172.331C785.78 172.677 785.715 173.019 785.588 173.338C785.461 173.658 785.275 173.948 785.041 174.192C784.806 174.437 784.528 174.631 784.222 174.763C783.916 174.895 783.588 174.963 783.256 174.963H778.047V161.543Z" fill="#971E35"/>
<path d="M992.584 235.146H995.778C996.334 235.146 996.867 235.377 997.26 235.787C997.653 236.197 997.873 236.752 997.873 237.332V252.279C997.873 252.859 997.653 253.415 997.26 253.825C996.867 254.235 996.334 254.465 995.778 254.465H992.584C992.028 254.465 991.495 254.235 991.102 253.825C990.709 253.415 990.488 252.859 990.488 252.279V237.332C990.488 236.752 990.709 236.197 991.102 235.787C991.495 235.377 992.028 235.146 992.584 235.146Z" fill="white"/>
<path d="M994.442 235.146H992.575C992.301 235.146 992.03 235.203 991.777 235.312C991.524 235.422 991.293 235.582 991.1 235.784C990.906 235.986 990.752 236.226 990.647 236.49C990.542 236.754 990.488 237.038 990.488 237.323V252.288C990.488 252.574 990.542 252.857 990.647 253.121C990.752 253.385 990.906 253.625 991.1 253.827C991.293 254.03 991.524 254.19 991.777 254.299C992.03 254.409 992.301 254.465 992.575 254.465H994.442V235.146Z" fill="#E27F46"/>
<path d="M984.321 269.28C986.071 262.444 986.291 255.28 984.964 248.341C983.636 241.402 980.797 234.874 976.665 229.262C972.533 223.65 967.219 219.104 961.134 215.976C955.049 212.848 948.356 211.221 941.572 211.221C934.788 211.221 928.095 212.848 922.01 215.976C915.925 219.104 910.611 223.65 906.479 229.262C902.347 234.874 899.507 241.402 898.18 248.341C896.852 255.28 897.072 262.444 898.823 269.28H984.321Z" fill="#1A2D38"/>
<path d="M1000 228.966C1000 228.966 986.981 191.513 941.576 191.513C891.847 191.513 897.328 238.495 831.231 238.495H739.053V269.281H1000V228.966Z" fill="#BD2250"/>
<path d="M986.993 171.841L884.075 147.064L882.023 142.177L880.41 152.906L983.592 178.052C988.15 179.163 992.816 179.724 997.497 179.724C996.336 177.748 994.809 176.033 993.005 174.68C991.202 173.326 989.158 172.361 986.993 171.841Z" fill="#A92747"/>
<path d="M855.229 78.2875L850.326 78.0664C849.959 78.0664 849.598 78.1613 849.274 78.3427C848.951 78.524 848.676 78.7861 848.473 79.1056C848.271 79.425 848.148 79.7918 848.115 80.1731C848.081 80.5544 848.139 80.9384 848.283 81.2906L872.397 140.315C873.195 142.27 874.527 143.936 876.226 145.107C877.925 146.278 879.917 146.903 881.954 146.903H884.111L855.229 78.2875Z" fill="#7FA9BE"/>
<path style="mix-blend-mode:screen" opacity="0.44" d="M855.954 80.0369L854.272 79.9609C853.933 79.961 853.601 80.0484 853.303 80.2154C853.005 80.3824 852.752 80.6238 852.565 80.918C852.379 81.2122 852.266 81.55 852.235 81.9011C852.204 82.2523 852.258 82.6059 852.39 82.9302L874.597 137.287C875.279 138.955 876.383 140.397 877.791 141.459C879.2 142.521 880.859 143.163 882.59 143.316L855.954 80.0369Z" fill="url(#paint2_linear_1276_5775)"/>
<g style="mix-blend-mode:multiply">
<path d="M853.059 224.6H782.53C780.968 224.599 779.472 223.951 778.367 222.799C777.263 221.648 776.642 220.086 776.641 218.458V83.4212C776.643 80.8339 777.63 78.3533 779.384 76.5238C781.138 74.6942 783.516 73.6651 785.997 73.6621H832.135C834.682 73.6618 837.173 74.437 839.303 75.8925C841.433 77.348 843.11 79.4206 844.127 81.8558L867.74 138.385C868.452 140.083 868.818 141.916 868.816 143.77V208.166C868.811 212.523 867.15 216.701 864.196 219.782C861.242 222.862 857.237 224.595 853.059 224.6ZM785.997 74.5518C783.743 74.5545 781.581 75.4898 779.987 77.1526C778.393 78.8153 777.496 81.0697 777.494 83.4212V218.458C777.495 219.85 778.026 221.186 778.97 222.17C779.914 223.155 781.195 223.709 782.53 223.711H853.059C857.011 223.706 860.799 222.067 863.593 219.153C866.387 216.239 867.959 212.287 867.963 208.166V143.77C867.965 142.039 867.623 140.326 866.958 138.74L843.345 82.211C842.394 79.9346 840.827 77.9973 838.836 76.6366C836.845 75.276 834.516 74.5514 832.136 74.5517L785.997 74.5518Z" fill="#971E35"/>
</g>
<path opacity="0.49" d="M983.843 208.794C972.699 198.512 958.499 193.301 941.572 193.301C919.111 193.301 908.09 203.286 896.424 213.857C882.754 226.243 867.26 240.282 831.227 240.282H758.828C758.828 240.282 771.021 245.62 800.761 245.62H831.227C869.173 245.62 886.143 230.243 899.78 217.887C911.178 207.559 921.023 198.639 941.572 198.639C957.198 198.639 970.258 203.4 980.451 212.794C980.961 213.254 981.624 213.486 982.297 213.439C982.969 213.392 983.597 213.07 984.044 212.544C984.49 212.017 984.72 211.328 984.682 210.626C984.644 209.924 984.343 209.266 983.843 208.794Z" fill="white"/>
<path d="M830.852 238.662C897.604 238.662 892.068 191.216 942.289 191.216C980.186 191.216 995.742 219.972 1000 228.938V228.523C1000 228.523 987.066 189.475 941.661 189.475C891.933 189.475 897.328 235.13 831.231 235.13H739.053V238.662L830.852 238.662Z" fill="#6F0E25"/>
<path d="M615 300C634.33 300 650 284.33 650 265C650 245.67 634.33 230 615 230C595.67 230 580 245.67 580 265C580 284.33 595.67 300 615 300Z" fill="#2B2B2C"/>
<path d="M614.996 297.864C633.148 297.864 647.863 283.148 647.863 264.996C647.863 246.844 633.148 232.129 614.996 232.129C596.844 232.129 582.129 246.844 582.129 264.996C582.129 283.148 596.844 297.864 614.996 297.864Z" fill="#373738"/>
<path d="M614.996 293.615C630.796 293.615 643.605 280.806 643.605 265.006C643.605 249.205 630.796 236.396 614.996 236.396C599.195 236.396 586.387 249.205 586.387 265.006C586.387 280.806 599.195 293.615 614.996 293.615Z" fill="#1E1E1F"/>
<path d="M614.999 291.511C629.636 291.511 641.502 279.646 641.502 265.009C641.502 250.372 629.636 238.506 614.999 238.506C600.362 238.506 588.496 250.372 588.496 265.009C588.496 279.646 600.362 291.511 614.999 291.511Z" fill="white"/>
<path d="M615.002 289.654C628.621 289.654 639.662 278.614 639.662 264.994C639.662 251.375 628.621 240.334 615.002 240.334C601.382 240.334 590.342 251.375 590.342 264.994C590.342 278.614 601.382 289.654 615.002 289.654Z" fill="#8FB5D3"/>
<path d="M615.002 287.251C627.29 287.251 637.251 277.29 637.251 265.002C637.251 252.715 627.29 242.754 615.002 242.754C602.715 242.754 592.754 252.715 592.754 265.002C592.754 277.29 602.715 287.251 615.002 287.251Z" fill="white"/>
<path d="M615.002 279.262C622.877 279.262 629.261 272.877 629.261 265.002C629.261 257.127 622.877 250.742 615.002 250.742C607.126 250.742 600.742 257.127 600.742 265.002C600.742 272.877 607.126 279.262 615.002 279.262Z" fill="#8FB5D3"/>
<path d="M615.002 269.995C617.765 269.995 620.005 267.755 620.005 264.993C620.005 262.23 617.765 259.99 615.002 259.99C612.24 259.99 610 262.23 610 264.993C610 267.755 612.24 269.995 615.002 269.995Z" fill="#5684A6"/>
<path d="M616.287 248.192C615.486 248.052 614.667 248.052 613.866 248.192C613.497 248.259 613.116 248.194 612.789 248.009C612.462 247.824 612.21 247.53 612.076 247.179L612.064 247.148C611.981 246.924 611.949 246.685 611.969 246.447C611.989 246.209 612.061 245.978 612.181 245.771C612.3 245.564 612.464 245.387 612.66 245.251C612.857 245.116 613.08 245.025 613.315 244.986C614.481 244.783 615.672 244.783 616.838 244.986C617.073 245.025 617.296 245.116 617.493 245.251C617.689 245.387 617.853 245.564 617.972 245.771C618.092 245.978 618.164 246.208 618.184 246.447C618.204 246.685 618.172 246.924 618.089 247.148L618.077 247.178C617.943 247.53 617.691 247.824 617.364 248.009C617.037 248.194 616.656 248.259 616.287 248.192Z" fill="#252F3A"/>
<path d="M613.866 281.813C614.667 281.953 615.486 281.953 616.287 281.813C616.656 281.746 617.037 281.811 617.364 281.996C617.691 282.181 617.943 282.474 618.077 282.826L618.089 282.857C618.172 283.08 618.205 283.32 618.184 283.558C618.164 283.796 618.092 284.027 617.972 284.233C617.853 284.44 617.689 284.618 617.493 284.753C617.297 284.889 617.073 284.98 616.838 285.018C615.672 285.221 614.481 285.221 613.315 285.018C613.08 284.98 612.857 284.889 612.66 284.753C612.464 284.618 612.3 284.44 612.181 284.234C612.061 284.027 611.989 283.796 611.969 283.558C611.949 283.32 611.981 283.081 612.064 282.857L612.076 282.826C612.21 282.474 612.462 282.181 612.789 281.996C613.116 281.811 613.497 281.746 613.866 281.813Z" fill="#252F3A"/>
<path d="M631.744 266.2C631.883 265.402 631.883 264.587 631.744 263.789C631.678 263.422 631.742 263.042 631.926 262.717C632.11 262.391 632.401 262.14 632.75 262.007L632.781 261.996C633.003 261.913 633.241 261.88 633.477 261.9C633.714 261.92 633.943 261.993 634.148 262.112C634.353 262.231 634.53 262.394 634.664 262.589C634.799 262.784 634.889 263.007 634.927 263.241C635.129 264.401 635.129 265.588 634.927 266.748C634.889 266.982 634.799 267.205 634.664 267.4C634.53 267.595 634.353 267.758 634.148 267.878C633.943 267.997 633.714 268.069 633.477 268.089C633.241 268.109 633.003 268.076 632.781 267.994L632.751 267.982C632.401 267.849 632.11 267.598 631.926 267.272C631.742 266.947 631.678 266.567 631.744 266.2Z" fill="#252F3A"/>
<path d="M598.256 263.789C598.117 264.587 598.117 265.402 598.256 266.2C598.323 266.568 598.259 266.947 598.075 267.272C597.891 267.598 597.599 267.849 597.25 267.982L597.22 267.994C596.997 268.076 596.76 268.109 596.523 268.089C596.287 268.069 596.058 267.997 595.852 267.878C595.647 267.758 595.471 267.595 595.336 267.4C595.201 267.205 595.112 266.982 595.073 266.748C594.871 265.588 594.871 264.401 595.073 263.241C595.112 263.007 595.201 262.784 595.336 262.589C595.471 262.394 595.647 262.231 595.852 262.112C596.058 261.992 596.287 261.92 596.523 261.9C596.76 261.88 596.997 261.913 597.22 261.996L597.25 262.007C597.599 262.14 597.891 262.391 598.075 262.717C598.258 263.042 598.323 263.422 598.256 263.789Z" fill="#252F3A"/>
<path d="M628.894 274.409C629.413 273.788 629.82 273.082 630.098 272.321C630.224 271.97 630.47 271.673 630.791 271.483C631.113 271.293 631.491 271.221 631.86 271.28L631.892 271.285C632.126 271.325 632.349 271.415 632.543 271.551C632.738 271.686 632.901 271.863 633.019 272.069C633.137 272.274 633.209 272.504 633.228 272.74C633.247 272.977 633.213 273.215 633.13 273.437C632.725 274.543 632.132 275.57 631.378 276.475C631.228 276.658 631.039 276.806 630.824 276.908C630.61 277.01 630.376 277.063 630.139 277.064C629.901 277.064 629.667 277.013 629.452 276.912C629.237 276.811 629.047 276.664 628.896 276.481L628.876 276.456C628.64 276.166 628.512 275.803 628.516 275.429C628.519 275.056 628.653 274.695 628.894 274.409Z" fill="#252F3A"/>
<path d="M601.097 255.594C600.578 256.215 600.17 256.922 599.893 257.682C599.766 258.034 599.521 258.33 599.199 258.52C598.878 258.711 598.499 258.782 598.13 258.723L598.099 258.718C597.865 258.679 597.642 258.588 597.447 258.453C597.253 258.317 597.09 258.14 596.972 257.935C596.854 257.729 596.782 257.5 596.763 257.263C596.744 257.027 596.777 256.789 596.861 256.567C597.266 255.461 597.858 254.433 598.613 253.529C598.763 253.345 598.952 253.197 599.166 253.095C599.381 252.993 599.615 252.94 599.852 252.939C600.089 252.939 600.324 252.991 600.539 253.091C600.754 253.192 600.943 253.339 601.095 253.522L601.115 253.547C601.351 253.837 601.478 254.2 601.475 254.574C601.472 254.948 601.338 255.308 601.097 255.594Z" fill="#252F3A"/>
<path d="M622.341 280.093C623.101 279.815 623.807 279.406 624.427 278.886C624.712 278.644 625.073 278.51 625.446 278.506C625.82 278.502 626.183 278.629 626.474 278.864L626.499 278.885C626.682 279.036 626.829 279.225 626.93 279.44C627.031 279.655 627.084 279.889 627.083 280.126C627.083 280.363 627.03 280.598 626.929 280.812C626.827 281.027 626.679 281.216 626.496 281.367C625.593 282.122 624.566 282.717 623.461 283.123C623.239 283.207 623.001 283.241 622.765 283.222C622.528 283.204 622.299 283.133 622.093 283.015C621.887 282.897 621.71 282.734 621.574 282.54C621.438 282.345 621.347 282.123 621.308 281.889L621.302 281.857C621.243 281.488 621.314 281.11 621.503 280.788C621.693 280.466 621.989 280.22 622.341 280.093Z" fill="#252F3A"/>
<path d="M607.653 249.911C606.893 250.19 606.187 250.599 605.566 251.119C605.281 251.36 604.921 251.495 604.547 251.499C604.173 251.503 603.81 251.376 603.52 251.14L603.495 251.12C603.312 250.969 603.164 250.78 603.063 250.565C602.962 250.35 602.91 250.116 602.91 249.878C602.91 249.641 602.963 249.407 603.065 249.192C603.166 248.978 603.314 248.789 603.497 248.638C604.401 247.882 605.427 247.288 606.533 246.881C606.755 246.797 606.992 246.764 607.229 246.782C607.465 246.801 607.695 246.872 607.901 246.99C608.107 247.108 608.284 247.27 608.42 247.465C608.555 247.659 608.646 247.882 608.686 248.116L608.691 248.147C608.751 248.516 608.68 248.895 608.49 249.217C608.3 249.539 608.004 249.784 607.653 249.911Z" fill="#252F3A"/>
<path d="M601.116 274.452C600.594 273.828 600.185 273.119 599.906 272.355C599.779 272.002 599.533 271.704 599.21 271.513C598.887 271.322 598.507 271.25 598.136 271.309L598.104 271.314C597.869 271.354 597.646 271.445 597.45 271.581C597.255 271.717 597.092 271.895 596.973 272.101C596.854 272.308 596.782 272.538 596.763 272.776C596.744 273.013 596.777 273.252 596.861 273.475C597.268 274.586 597.863 275.618 598.621 276.527C598.772 276.711 598.962 276.86 599.177 276.962C599.392 277.064 599.627 277.118 599.866 277.118C600.104 277.119 600.339 277.067 600.555 276.966C600.771 276.864 600.962 276.717 601.114 276.533L601.134 276.508C601.371 276.217 601.499 275.852 601.496 275.477C601.492 275.101 601.358 274.739 601.116 274.452Z" fill="#252F3A"/>
<path d="M629.033 255.557C629.554 256.181 629.963 256.89 630.242 257.654C630.369 258.007 630.615 258.305 630.938 258.496C631.261 258.687 631.641 258.759 632.012 258.7L632.044 258.695C632.279 258.655 632.502 258.564 632.698 258.428C632.893 258.292 633.056 258.114 633.175 257.908C633.294 257.701 633.366 257.471 633.385 257.233C633.404 256.996 633.371 256.757 633.287 256.534C632.88 255.423 632.285 254.391 631.527 253.482C631.376 253.298 631.186 253.149 630.971 253.047C630.756 252.945 630.521 252.891 630.282 252.891C630.044 252.89 629.809 252.942 629.593 253.043C629.377 253.145 629.186 253.292 629.034 253.476L629.014 253.501C628.777 253.792 628.649 254.157 628.652 254.532C628.656 254.908 628.79 255.27 629.033 255.557Z" fill="#252F3A"/>
<path d="M607.705 280.159C606.942 279.879 606.233 279.469 605.61 278.946C605.323 278.704 604.961 278.569 604.586 278.565C604.21 278.561 603.845 278.688 603.554 278.924L603.529 278.945C603.345 279.097 603.197 279.287 603.096 279.503C602.994 279.718 602.942 279.954 602.942 280.192C602.942 280.43 602.995 280.665 603.097 280.881C603.199 281.096 603.347 281.286 603.532 281.438C604.439 282.197 605.47 282.794 606.58 283.202C606.803 283.286 607.042 283.32 607.279 283.301C607.517 283.282 607.747 283.211 607.954 283.093C608.161 282.974 608.339 282.811 608.475 282.616C608.612 282.421 608.703 282.197 608.743 281.962L608.748 281.93C608.808 281.56 608.736 281.18 608.546 280.857C608.355 280.533 608.058 280.286 607.705 280.159Z" fill="#252F3A"/>
<path d="M622.451 249.847C623.214 250.127 623.923 250.537 624.546 251.059C624.832 251.302 625.194 251.437 625.57 251.441C625.945 251.445 626.31 251.318 626.601 251.081L626.626 251.061C626.81 250.909 626.958 250.719 627.06 250.503C627.161 250.287 627.214 250.052 627.213 249.814C627.213 249.575 627.16 249.34 627.058 249.125C626.956 248.909 626.808 248.719 626.624 248.568C625.717 247.809 624.685 247.212 623.575 246.804C623.352 246.719 623.114 246.685 622.876 246.704C622.639 246.723 622.408 246.794 622.201 246.913C621.995 247.031 621.817 247.194 621.68 247.39C621.544 247.585 621.452 247.808 621.413 248.043L621.407 248.075C621.347 248.446 621.419 248.826 621.609 249.149C621.8 249.473 622.097 249.719 622.451 249.847Z" fill="#252F3A"/>
<path d="M615.003 256.801C614.711 256.801 614.425 256.714 614.182 256.551C613.939 256.389 613.75 256.157 613.638 255.887C613.526 255.616 613.497 255.318 613.554 255.031C613.611 254.743 613.751 254.479 613.958 254.272C614.165 254.065 614.428 253.924 614.715 253.866C615.001 253.809 615.298 253.838 615.568 253.951C615.838 254.063 616.069 254.253 616.232 254.496C616.394 254.74 616.481 255.026 616.481 255.319C616.48 255.712 616.324 256.089 616.048 256.366C615.771 256.644 615.395 256.8 615.003 256.801Z" fill="#5684A6"/>
<path d="M615.003 275.649C614.711 275.649 614.425 275.562 614.182 275.399C613.939 275.236 613.75 275.005 613.638 274.734C613.526 274.464 613.497 274.166 613.554 273.878C613.611 273.591 613.752 273.327 613.958 273.119C614.165 272.912 614.428 272.771 614.715 272.714C615.002 272.657 615.299 272.686 615.569 272.798C615.839 272.911 616.07 273.1 616.232 273.344C616.394 273.588 616.481 273.874 616.481 274.167C616.48 274.56 616.324 274.937 616.048 275.214C615.771 275.492 615.395 275.648 615.003 275.649Z" fill="#5684A6"/>
<path d="M624.427 266.479C624.135 266.479 623.849 266.392 623.606 266.229C623.363 266.066 623.174 265.835 623.062 265.564C622.95 265.294 622.921 264.996 622.978 264.708C623.035 264.421 623.175 264.157 623.382 263.95C623.588 263.742 623.852 263.601 624.138 263.544C624.425 263.487 624.722 263.516 624.992 263.628C625.262 263.74 625.493 263.93 625.655 264.174C625.818 264.417 625.905 264.704 625.905 264.997C625.904 265.39 625.748 265.766 625.471 266.044C625.194 266.322 624.819 266.478 624.427 266.479Z" fill="#5684A6"/>
<path d="M605.577 266.479C605.284 266.479 604.999 266.392 604.756 266.229C604.513 266.066 604.323 265.835 604.212 265.564C604.1 265.293 604.071 264.995 604.128 264.708C604.185 264.421 604.325 264.157 604.532 263.95C604.739 263.742 605.002 263.601 605.288 263.544C605.575 263.487 605.872 263.516 606.142 263.628C606.412 263.74 606.643 263.93 606.805 264.174C606.968 264.418 607.054 264.704 607.055 264.997C607.054 265.39 606.898 265.766 606.621 266.044C606.344 266.322 605.968 266.478 605.577 266.479Z" fill="#5684A6"/>
<path d="M621.762 259.468C621.42 259.468 621.088 259.349 620.824 259.132C620.559 258.914 620.378 258.612 620.312 258.275C620.245 257.939 620.296 257.59 620.458 257.288C620.619 256.985 620.879 256.748 621.195 256.617C621.511 256.486 621.863 256.468 622.19 256.568C622.517 256.667 622.8 256.877 622.99 257.162C623.18 257.447 623.266 257.79 623.232 258.131C623.199 258.472 623.049 258.791 622.807 259.034C622.67 259.172 622.507 259.281 622.328 259.356C622.148 259.43 621.956 259.468 621.762 259.468Z" fill="#5684A6"/>
<path d="M608.432 272.788C608.09 272.788 607.758 272.67 607.494 272.452C607.229 272.235 607.048 271.932 606.982 271.596C606.915 271.259 606.966 270.91 607.128 270.608C607.289 270.305 607.549 270.068 607.865 269.937C608.181 269.806 608.533 269.788 608.86 269.888C609.187 269.987 609.47 270.198 609.66 270.483C609.85 270.768 609.936 271.11 609.902 271.451C609.869 271.792 609.719 272.111 609.477 272.354C609.34 272.492 609.177 272.602 608.998 272.676C608.818 272.751 608.626 272.789 608.432 272.788Z" fill="#5684A6"/>
<path d="M621.566 272.974C621.224 272.974 620.893 272.855 620.629 272.638C620.364 272.42 620.183 272.117 620.116 271.781C620.05 271.445 620.101 271.096 620.262 270.793C620.424 270.491 620.684 270.254 621 270.123C621.316 269.991 621.668 269.974 621.995 270.074C622.323 270.173 622.605 270.383 622.795 270.669C622.985 270.954 623.071 271.296 623.037 271.637C623.004 271.979 622.853 272.298 622.611 272.54C622.474 272.678 622.311 272.787 622.132 272.862C621.953 272.936 621.76 272.974 621.566 272.974Z" fill="#5684A6"/>
<path d="M608.236 259.654C607.894 259.654 607.563 259.535 607.298 259.317C607.034 259.1 606.853 258.797 606.786 258.461C606.719 258.124 606.771 257.775 606.932 257.473C607.094 257.171 607.354 256.933 607.67 256.802C607.986 256.671 608.338 256.654 608.665 256.753C608.993 256.853 609.275 257.063 609.465 257.348C609.655 257.633 609.741 257.976 609.707 258.317C609.674 258.658 609.523 258.977 609.281 259.22C609.144 259.358 608.981 259.467 608.802 259.541C608.623 259.616 608.43 259.654 608.236 259.654Z" fill="#5684A6"/>
<path opacity="0.29" d="M645.187 260.537C644.916 260.533 644.655 260.435 644.449 260.259C644.243 260.082 644.105 259.84 644.059 259.572C642.792 252.79 639.193 246.664 633.886 242.256C628.578 237.847 621.895 235.434 614.996 235.434C608.096 235.434 601.414 237.847 596.106 242.256C590.798 246.664 587.199 252.79 585.932 259.572C585.886 259.84 585.749 260.082 585.542 260.259C585.336 260.435 585.075 260.533 584.804 260.537H584.748C584.58 260.537 584.415 260.5 584.262 260.429C584.11 260.357 583.976 260.253 583.869 260.124C583.761 259.995 583.683 259.844 583.641 259.681C583.598 259.519 583.592 259.349 583.622 259.184C584.982 251.856 588.864 245.236 594.595 240.471C600.325 235.707 607.543 233.098 614.995 233.098C622.448 233.098 629.665 235.707 635.396 240.471C641.126 245.236 645.008 251.856 646.368 259.184C646.399 259.349 646.393 259.519 646.35 259.681C646.308 259.844 646.23 259.995 646.122 260.124C646.015 260.253 645.881 260.357 645.729 260.429C645.576 260.5 645.411 260.537 645.243 260.537H645.187Z" fill="white"/>
<path opacity="0.11" d="M615.002 287.248C620.903 287.248 626.562 284.904 630.734 280.732C634.907 276.56 637.251 270.901 637.251 265H592.754C592.754 267.922 593.329 270.815 594.447 273.514C595.566 276.213 597.204 278.666 599.27 280.732C601.336 282.798 603.789 284.437 606.488 285.555C609.188 286.673 612.081 287.248 615.002 287.248Z" fill="#8FB5D3"/>
<path d="M685 300C704.33 300 720 284.33 720 265C720 245.67 704.33 230 685 230C665.67 230 650 245.67 650 265C650 284.33 665.67 300 685 300Z" fill="#2B2B2C"/>
<path d="M684.996 297.864C703.148 297.864 717.863 283.148 717.863 264.996C717.863 246.844 703.148 232.129 684.996 232.129C666.844 232.129 652.129 246.844 652.129 264.996C652.129 283.148 666.844 297.864 684.996 297.864Z" fill="#373738"/>
<path d="M685.005 293.615C700.806 293.615 713.614 280.806 713.614 265.006C713.614 249.205 700.806 236.396 685.005 236.396C669.205 236.396 656.396 249.205 656.396 265.006C656.396 280.806 669.205 293.615 685.005 293.615Z" fill="#1E1E1F"/>
<path d="M684.999 291.511C699.636 291.511 711.502 279.646 711.502 265.009C711.502 250.372 699.636 238.506 684.999 238.506C670.362 238.506 658.496 250.372 658.496 265.009C658.496 279.646 670.362 291.511 684.999 291.511Z" fill="white"/>
<path d="M685.002 289.654C698.621 289.654 709.662 278.614 709.662 264.994C709.662 251.375 698.621 240.334 685.002 240.334C671.382 240.334 660.342 251.375 660.342 264.994C660.342 278.614 671.382 289.654 685.002 289.654Z" fill="#8FB5D3"/>
<path d="M685.002 287.251C697.29 287.251 707.251 277.29 707.251 265.002C707.251 252.715 697.29 242.754 685.002 242.754C672.715 242.754 662.754 252.715 662.754 265.002C662.754 277.29 672.715 287.251 685.002 287.251Z" fill="white"/>
<path d="M685.002 279.262C692.877 279.262 699.261 272.877 699.261 265.002C699.261 257.127 692.877 250.742 685.002 250.742C677.126 250.742 670.742 257.127 670.742 265.002C670.742 272.877 677.126 279.262 685.002 279.262Z" fill="#8FB5D3"/>
<path d="M685.002 269.995C687.765 269.995 690.005 267.755 690.005 264.993C690.005 262.23 687.765 259.99 685.002 259.99C682.24 259.99 680 262.23 680 264.993C680 267.755 682.24 269.995 685.002 269.995Z" fill="#5684A6"/>
<path d="M686.287 248.192C685.486 248.052 684.667 248.052 683.866 248.192C683.497 248.259 683.115 248.194 682.789 248.009C682.462 247.824 682.21 247.53 682.076 247.179L682.064 247.148C681.981 246.924 681.949 246.685 681.969 246.447C681.989 246.209 682.061 245.978 682.181 245.771C682.3 245.564 682.464 245.387 682.66 245.251C682.856 245.116 683.08 245.025 683.315 244.986C684.481 244.783 685.672 244.783 686.838 244.986C687.073 245.025 687.296 245.116 687.493 245.251C687.689 245.387 687.853 245.564 687.972 245.771C688.092 245.978 688.164 246.208 688.184 246.447C688.204 246.685 688.172 246.924 688.089 247.148L688.077 247.178C687.943 247.53 687.691 247.824 687.364 248.009C687.037 248.194 686.656 248.259 686.287 248.192Z" fill="#252F3A"/>
<path d="M683.866 281.813C684.667 281.953 685.486 281.953 686.287 281.813C686.656 281.746 687.037 281.811 687.364 281.996C687.691 282.181 687.943 282.474 688.077 282.826L688.089 282.857C688.172 283.08 688.204 283.32 688.184 283.558C688.164 283.796 688.092 284.027 687.972 284.233C687.853 284.44 687.689 284.618 687.493 284.753C687.296 284.889 687.073 284.98 686.838 285.018C685.672 285.221 684.481 285.221 683.315 285.018C683.08 284.98 682.856 284.889 682.66 284.753C682.464 284.618 682.3 284.44 682.181 284.234C682.061 284.027 681.989 283.796 681.969 283.558C681.949 283.32 681.981 283.081 682.064 282.857L682.076 282.826C682.21 282.474 682.462 282.181 682.789 281.996C683.116 281.811 683.497 281.746 683.866 281.813Z" fill="#252F3A"/>
<path d="M701.744 266.2C701.883 265.402 701.883 264.587 701.744 263.789C701.678 263.422 701.742 263.042 701.926 262.717C702.11 262.391 702.401 262.14 702.751 262.007L702.781 261.996C703.003 261.913 703.241 261.88 703.477 261.9C703.714 261.92 703.943 261.992 704.148 262.112C704.353 262.231 704.53 262.394 704.664 262.589C704.799 262.784 704.889 263.007 704.927 263.241C705.129 264.401 705.129 265.588 704.927 266.748C704.889 266.982 704.799 267.205 704.664 267.4C704.53 267.595 704.353 267.758 704.148 267.878C703.943 267.997 703.714 268.069 703.477 268.089C703.241 268.109 703.003 268.076 702.781 267.994L702.751 267.982C702.401 267.849 702.11 267.598 701.926 267.272C701.742 266.947 701.678 266.567 701.744 266.2Z" fill="#252F3A"/>
<path d="M668.256 263.789C668.117 264.587 668.117 265.402 668.256 266.2C668.323 266.568 668.259 266.947 668.075 267.272C667.891 267.598 667.599 267.849 667.25 267.982L667.22 267.994C666.998 268.076 666.76 268.109 666.523 268.089C666.287 268.069 666.058 267.997 665.852 267.878C665.647 267.758 665.471 267.595 665.336 267.4C665.201 267.205 665.112 266.982 665.073 266.748C664.871 265.588 664.871 264.401 665.073 263.241C665.112 263.007 665.201 262.784 665.336 262.589C665.471 262.394 665.647 262.231 665.852 262.112C666.058 261.992 666.287 261.92 666.523 261.9C666.76 261.88 666.998 261.913 667.22 261.996L667.25 262.007C667.599 262.14 667.891 262.391 668.075 262.717C668.258 263.042 668.323 263.422 668.256 263.789Z" fill="#252F3A"/>
<path d="M698.901 274.409C699.42 273.788 699.828 273.082 700.105 272.321C700.232 271.97 700.477 271.673 700.799 271.483C701.12 271.293 701.499 271.221 701.868 271.28L701.9 271.285C702.134 271.325 702.356 271.415 702.551 271.551C702.746 271.686 702.908 271.863 703.026 272.069C703.145 272.274 703.216 272.504 703.235 272.74C703.254 272.977 703.221 273.215 703.137 273.437C702.732 274.543 702.14 275.57 701.385 276.475C701.235 276.658 701.046 276.806 700.832 276.908C700.617 277.01 700.383 277.063 700.146 277.064C699.909 277.064 699.674 277.013 699.459 276.912C699.244 276.811 699.055 276.664 698.903 276.481L698.883 276.456C698.647 276.166 698.52 275.803 698.523 275.429C698.526 275.056 698.66 274.695 698.901 274.409Z" fill="#252F3A"/>
<path d="M671.097 255.594C670.578 256.215 670.17 256.922 669.893 257.682C669.766 258.034 669.521 258.33 669.199 258.52C668.878 258.711 668.5 258.782 668.13 258.723L668.099 258.718C667.865 258.679 667.642 258.588 667.447 258.453C667.253 258.317 667.09 258.14 666.972 257.935C666.854 257.729 666.782 257.5 666.763 257.263C666.744 257.027 666.777 256.789 666.861 256.567C667.266 255.461 667.858 254.433 668.613 253.529C668.763 253.345 668.952 253.197 669.166 253.095C669.381 252.993 669.615 252.94 669.852 252.939C670.089 252.939 670.324 252.991 670.539 253.091C670.754 253.192 670.943 253.339 671.095 253.522L671.115 253.547C671.351 253.837 671.478 254.2 671.475 254.574C671.472 254.948 671.338 255.308 671.097 255.594Z" fill="#252F3A"/>
<path d="M692.341 280.093C693.101 279.814 693.807 279.406 694.427 278.886C694.712 278.644 695.073 278.51 695.446 278.506C695.82 278.502 696.183 278.629 696.474 278.864L696.499 278.885C696.682 279.035 696.829 279.225 696.93 279.44C697.031 279.654 697.084 279.889 697.083 280.126C697.083 280.363 697.03 280.598 696.929 280.812C696.827 281.027 696.679 281.216 696.496 281.367C695.593 282.122 694.566 282.717 693.461 283.123C693.239 283.207 693.001 283.241 692.765 283.222C692.528 283.203 692.299 283.133 692.093 283.015C691.887 282.897 691.71 282.734 691.574 282.54C691.438 282.345 691.347 282.123 691.308 281.889L691.302 281.857C691.243 281.488 691.314 281.11 691.503 280.788C691.693 280.466 691.989 280.22 692.341 280.093Z" fill="#252F3A"/>
<path d="M677.662 249.911C676.902 250.19 676.197 250.599 675.576 251.119C675.291 251.36 674.931 251.495 674.557 251.499C674.183 251.503 673.82 251.376 673.53 251.14L673.505 251.12C673.322 250.969 673.174 250.78 673.073 250.565C672.972 250.35 672.92 250.116 672.92 249.878C672.92 249.641 672.973 249.407 673.075 249.192C673.176 248.978 673.324 248.789 673.507 248.638C674.41 247.882 675.437 247.288 676.542 246.881C676.764 246.797 677.002 246.764 677.239 246.782C677.475 246.801 677.705 246.872 677.91 246.99C678.116 247.108 678.294 247.27 678.429 247.465C678.565 247.659 678.656 247.882 678.696 248.116L678.701 248.147C678.761 248.516 678.69 248.895 678.5 249.217C678.31 249.539 678.014 249.784 677.662 249.911Z" fill="#252F3A"/>
<path d="M671.115 274.452C670.594 273.828 670.185 273.119 669.906 272.355C669.779 272.002 669.533 271.704 669.21 271.513C668.887 271.322 668.507 271.25 668.136 271.309L668.104 271.314C667.869 271.354 667.646 271.445 667.45 271.581C667.255 271.717 667.092 271.895 666.973 272.101C666.854 272.308 666.782 272.538 666.763 272.776C666.744 273.013 666.777 273.252 666.861 273.475C667.268 274.586 667.863 275.618 668.621 276.527C668.772 276.711 668.962 276.86 669.177 276.962C669.392 277.064 669.627 277.118 669.866 277.118C670.104 277.119 670.339 277.067 670.555 276.966C670.771 276.864 670.962 276.717 671.114 276.533L671.134 276.508C671.371 276.217 671.499 275.852 671.496 275.477C671.492 275.101 671.358 274.739 671.115 274.452Z" fill="#252F3A"/>
<path d="M699.042 255.557C699.564 256.181 699.973 256.89 700.252 257.654C700.378 258.007 700.625 258.305 700.948 258.496C701.271 258.687 701.651 258.759 702.021 258.7L702.053 258.695C702.288 258.655 702.512 258.564 702.707 258.428C702.903 258.292 703.066 258.114 703.185 257.908C703.304 257.701 703.375 257.471 703.395 257.233C703.414 256.996 703.38 256.757 703.296 256.534C702.89 255.423 702.295 254.391 701.537 253.482C701.386 253.298 701.196 253.149 700.981 253.047C700.766 252.945 700.53 252.891 700.292 252.891C700.054 252.89 699.818 252.942 699.603 253.043C699.387 253.145 699.196 253.292 699.044 253.476L699.024 253.501C698.787 253.792 698.659 254.157 698.662 254.532C698.666 254.908 698.8 255.27 699.042 255.557Z" fill="#252F3A"/>
<path d="M677.705 280.159C676.942 279.879 676.233 279.469 675.61 278.946C675.323 278.704 674.961 278.569 674.586 278.565C674.21 278.561 673.845 278.688 673.554 278.924L673.529 278.945C673.345 279.097 673.197 279.287 673.096 279.503C672.994 279.718 672.942 279.954 672.942 280.192C672.942 280.43 672.995 280.665 673.097 280.881C673.199 281.096 673.347 281.286 673.532 281.438C674.439 282.197 675.47 282.794 676.58 283.202C676.803 283.286 677.042 283.32 677.279 283.301C677.517 283.282 677.747 283.211 677.954 283.093C678.161 282.974 678.339 282.811 678.475 282.616C678.611 282.421 678.703 282.197 678.743 281.962L678.748 281.93C678.808 281.56 678.736 281.18 678.546 280.857C678.355 280.533 678.058 280.286 677.705 280.159Z" fill="#252F3A"/>
<path d="M692.451 249.847C693.214 250.127 693.923 250.537 694.546 251.059C694.832 251.302 695.194 251.437 695.57 251.441C695.945 251.445 696.31 251.318 696.601 251.081L696.626 251.061C696.81 250.909 696.958 250.719 697.06 250.503C697.161 250.287 697.214 250.052 697.213 249.814C697.213 249.575 697.16 249.34 697.058 249.125C696.956 248.909 696.808 248.719 696.624 248.568C695.717 247.809 694.685 247.212 693.575 246.804C693.352 246.719 693.114 246.685 692.876 246.704C692.639 246.723 692.408 246.794 692.201 246.913C691.995 247.031 691.817 247.194 691.68 247.39C691.544 247.585 691.452 247.808 691.413 248.043L691.407 248.075C691.347 248.446 691.419 248.826 691.609 249.149C691.8 249.473 692.097 249.719 692.451 249.847Z" fill="#252F3A"/>
<path d="M685.003 256.801C684.711 256.801 684.425 256.714 684.182 256.551C683.939 256.389 683.75 256.157 683.638 255.887C683.526 255.616 683.497 255.318 683.554 255.031C683.611 254.743 683.751 254.479 683.958 254.272C684.165 254.065 684.428 253.924 684.715 253.866C685.001 253.809 685.298 253.838 685.568 253.951C685.838 254.063 686.069 254.253 686.232 254.496C686.394 254.74 686.481 255.026 686.481 255.319C686.48 255.712 686.324 256.089 686.047 256.366C685.771 256.644 685.395 256.8 685.003 256.801Z" fill="#5684A6"/>
<path d="M685.003 275.649C684.711 275.649 684.425 275.562 684.182 275.399C683.939 275.236 683.75 275.005 683.638 274.734C683.526 274.464 683.497 274.166 683.554 273.878C683.611 273.591 683.752 273.327 683.958 273.119C684.165 272.912 684.428 272.771 684.715 272.714C685.002 272.657 685.299 272.686 685.569 272.798C685.839 272.911 686.07 273.1 686.232 273.344C686.394 273.588 686.481 273.874 686.481 274.167C686.48 274.56 686.325 274.937 686.048 275.214C685.771 275.492 685.395 275.648 685.003 275.649Z" fill="#5684A6"/>
<path d="M694.427 266.479C694.135 266.479 693.849 266.392 693.606 266.229C693.363 266.066 693.174 265.835 693.062 265.564C692.95 265.294 692.921 264.996 692.978 264.708C693.035 264.421 693.175 264.157 693.382 263.95C693.589 263.742 693.852 263.601 694.138 263.544C694.425 263.487 694.722 263.516 694.992 263.628C695.262 263.74 695.493 263.93 695.655 264.174C695.818 264.417 695.905 264.704 695.905 264.997C695.904 265.39 695.748 265.766 695.471 266.044C695.194 266.322 694.819 266.478 694.427 266.479Z" fill="#5684A6"/>
<path d="M675.576 266.479C675.284 266.479 674.999 266.392 674.756 266.229C674.513 266.066 674.323 265.835 674.212 265.564C674.1 265.293 674.071 264.995 674.128 264.708C674.185 264.421 674.325 264.157 674.532 263.95C674.739 263.742 675.002 263.601 675.288 263.544C675.575 263.487 675.872 263.516 676.142 263.628C676.412 263.74 676.643 263.93 676.805 264.174C676.968 264.418 677.054 264.704 677.054 264.997C677.054 265.39 676.898 265.766 676.621 266.044C676.344 266.322 675.968 266.478 675.576 266.479Z" fill="#5684A6"/>
<path d="M691.762 259.468C691.42 259.468 691.088 259.349 690.824 259.132C690.559 258.914 690.378 258.612 690.312 258.275C690.245 257.939 690.296 257.59 690.458 257.288C690.619 256.985 690.879 256.748 691.195 256.617C691.511 256.486 691.863 256.468 692.19 256.568C692.517 256.667 692.8 256.877 692.99 257.162C693.18 257.447 693.266 257.79 693.232 258.131C693.199 258.472 693.049 258.791 692.807 259.034C692.67 259.172 692.507 259.281 692.328 259.356C692.148 259.43 691.956 259.468 691.762 259.468Z" fill="#5684A6"/>
<path d="M678.432 272.788C678.09 272.788 677.758 272.67 677.494 272.452C677.229 272.235 677.048 271.932 676.982 271.596C676.915 271.259 676.966 270.91 677.128 270.608C677.289 270.305 677.549 270.068 677.865 269.937C678.181 269.806 678.533 269.788 678.86 269.888C679.187 269.987 679.47 270.198 679.66 270.483C679.85 270.768 679.936 271.11 679.902 271.451C679.869 271.792 679.719 272.111 679.477 272.354C679.34 272.492 679.177 272.602 678.998 272.676C678.818 272.751 678.626 272.789 678.432 272.788Z" fill="#5684A6"/>
<path d="M691.566 272.974C691.224 272.974 690.893 272.855 690.628 272.638C690.364 272.42 690.183 272.117 690.116 271.781C690.05 271.445 690.101 271.096 690.262 270.793C690.424 270.491 690.684 270.254 691 270.123C691.316 269.991 691.668 269.974 691.995 270.074C692.323 270.173 692.605 270.383 692.795 270.669C692.985 270.954 693.071 271.296 693.037 271.637C693.004 271.979 692.853 272.298 692.611 272.54C692.474 272.678 692.311 272.787 692.132 272.862C691.953 272.936 691.76 272.974 691.566 272.974Z" fill="#5684A6"/>
<path d="M678.244 259.651C677.902 259.651 677.57 259.532 677.306 259.315C677.041 259.097 676.86 258.795 676.794 258.458C676.727 258.122 676.778 257.773 676.94 257.47C677.101 257.168 677.362 256.931 677.678 256.8C677.994 256.669 678.345 256.651 678.673 256.751C679 256.85 679.283 257.061 679.473 257.346C679.663 257.631 679.748 257.973 679.714 258.315C679.681 258.656 679.53 258.975 679.288 259.217C679.151 259.355 678.989 259.465 678.809 259.539C678.63 259.613 678.438 259.652 678.244 259.651Z" fill="#5684A6"/>
<path opacity="0.29" d="M715.197 260.535C714.926 260.531 714.665 260.432 714.458 260.256C714.252 260.08 714.114 259.837 714.069 259.57C712.802 252.787 709.203 246.662 703.895 242.253C698.588 237.845 691.905 235.432 685.005 235.432C678.106 235.432 671.423 237.845 666.116 242.253C660.808 246.662 657.209 252.787 655.942 259.57C655.896 259.837 655.758 260.08 655.552 260.256C655.346 260.432 655.085 260.531 654.814 260.535H654.758C654.59 260.535 654.424 260.498 654.272 260.426C654.12 260.355 653.986 260.251 653.878 260.122C653.771 259.992 653.693 259.841 653.651 259.679C653.608 259.516 653.602 259.346 653.632 259.181C654.992 251.854 658.874 245.234 664.605 240.469C670.335 235.704 677.553 233.096 685.005 233.096C692.458 233.096 699.675 235.704 705.406 240.469C711.136 245.234 715.018 251.854 716.378 259.181C716.409 259.346 716.402 259.516 716.36 259.679C716.317 259.841 716.24 259.993 716.132 260.122C716.025 260.251 715.89 260.355 715.738 260.426C715.586 260.498 715.42 260.535 715.252 260.535H715.197Z" fill="white"/>
<path opacity="0.11" d="M689.126 284.238C694.993 284.238 700.621 281.807 704.77 277.479C708.919 273.151 711.25 267.282 711.25 261.162H667.002C667.002 264.192 667.574 267.193 668.686 269.993C669.798 272.792 671.428 275.336 673.482 277.479C675.536 279.622 677.975 281.322 680.659 282.481C683.344 283.641 686.22 284.238 689.126 284.238Z" fill="#8FB5D3"/>
<path d="M693.676 215.212H607.946C597.217 215.225 586.932 219.676 579.346 227.588C571.76 235.501 567.493 246.229 567.48 257.419V269.138H575.839V257.419C575.848 248.54 579.234 240.028 585.253 233.75C591.272 227.472 599.433 223.94 607.946 223.93H693.676C702.188 223.94 710.349 227.472 716.368 233.75C722.387 240.028 725.773 248.54 725.783 257.419V269.138H734.141V257.419C734.129 246.229 729.862 235.501 722.275 227.588C714.689 219.676 704.404 215.225 693.676 215.212Z" fill="#294856"/>
<path d="M85 300C104.33 300 120 284.33 120 265C120 245.67 104.33 230 85 230C65.67 230 50 245.67 50 265C50 284.33 65.67 300 85 300Z" fill="#2B2B2C"/>
<path d="M85.006 297.864C103.158 297.864 117.873 283.148 117.873 264.996C117.873 246.844 103.158 232.129 85.006 232.129C66.8539 232.129 52.1387 246.844 52.1387 264.996C52.1387 283.148 66.8539 297.864 85.006 297.864Z" fill="#373738"/>
<path d="M85.0055 293.615C100.806 293.615 113.614 280.806 113.614 265.006C113.614 249.205 100.806 236.396 85.0055 236.396C69.2052 236.396 56.3965 249.205 56.3965 265.006C56.3965 280.806 69.2052 293.615 85.0055 293.615Z" fill="#1E1E1F"/>
<path d="M84.9988 291.511C99.6359 291.511 111.502 279.646 111.502 265.009C111.502 250.372 99.6359 238.506 84.9988 238.506C70.3618 238.506 58.4961 250.372 58.4961 265.009C58.4961 279.646 70.3618 291.511 84.9988 291.511Z" fill="white"/>
<path d="M85.0017 289.654C98.621 289.654 109.662 278.614 109.662 264.994C109.662 251.375 98.621 240.334 85.0017 240.334C71.3824 240.334 60.3418 251.375 60.3418 264.994C60.3418 278.614 71.3824 289.654 85.0017 289.654Z" fill="#8FB5D3"/>
<path d="M85.0024 287.251C97.2899 287.251 107.251 277.29 107.251 265.002C107.251 252.715 97.2899 242.754 85.0024 242.754C72.7149 242.754 62.7539 252.715 62.7539 265.002C62.7539 277.29 72.7149 287.251 85.0024 287.251Z" fill="white"/>
<path d="M85.0018 279.262C92.8772 279.262 99.2615 272.877 99.2615 265.002C99.2615 257.127 92.8772 250.742 85.0018 250.742C77.1265 250.742 70.7422 257.127 70.7422 265.002C70.7422 272.877 77.1265 279.262 85.0018 279.262Z" fill="#8FB5D3"/>
<path d="M85.0023 269.995C87.7651 269.995 90.0047 267.755 90.0047 264.993C90.0047 262.23 87.7651 259.99 85.0023 259.99C82.2396 259.99 80 262.23 80 264.993C80 267.755 82.2396 269.995 85.0023 269.995Z" fill="#5684A6"/>
<path d="M86.2868 248.192C85.4859 248.052 84.6669 248.052 83.866 248.192C83.4966 248.259 83.1155 248.194 82.7886 248.009C82.4618 247.824 82.2096 247.53 82.0759 247.179L82.0644 247.148C81.9812 246.924 81.9485 246.685 81.9687 246.447C81.9888 246.209 82.0613 245.978 82.1809 245.771C82.3005 245.564 82.4642 245.387 82.6604 245.251C82.8565 245.116 83.0802 245.025 83.3154 244.986C84.4807 244.783 85.6723 244.783 86.8376 244.986C87.0728 245.025 87.2965 245.116 87.4926 245.251C87.6888 245.387 87.8526 245.564 87.9721 245.771C88.0917 245.978 88.1642 246.208 88.1843 246.447C88.2045 246.685 88.1717 246.924 88.0886 247.148L88.0772 247.178C87.9434 247.53 87.6912 247.824 87.3643 248.009C87.0374 248.194 86.6562 248.259 86.2868 248.192Z" fill="#252F3A"/>
<path d="M83.8663 281.813C84.6671 281.953 85.4861 281.953 86.287 281.813C86.6564 281.746 87.0375 281.811 87.3644 281.996C87.6913 282.181 87.9434 282.474 88.0772 282.826L88.0887 282.857C88.1718 283.08 88.2045 283.32 88.1844 283.558C88.1643 283.796 88.0918 284.027 87.9722 284.233C87.8526 284.44 87.6889 284.618 87.4927 284.753C87.2965 284.889 87.0728 284.98 86.8377 285.018C85.6723 285.221 84.4807 285.221 83.3154 285.018C83.0802 284.98 82.8565 284.889 82.6604 284.753C82.4642 284.618 82.3005 284.44 82.1809 284.234C82.0613 284.027 81.9888 283.796 81.9687 283.558C81.9485 283.32 81.9812 283.081 82.0644 282.857L82.0759 282.826C82.2097 282.474 82.4618 282.181 82.7887 281.996C83.1157 281.811 83.4968 281.746 83.8663 281.813Z" fill="#252F3A"/>
<path d="M101.744 266.2C101.883 265.402 101.883 264.587 101.744 263.789C101.678 263.422 101.742 263.042 101.926 262.717C102.11 262.391 102.401 262.14 102.75 262.007L102.781 261.996C103.003 261.913 103.241 261.88 103.477 261.9C103.714 261.92 103.943 261.993 104.148 262.112C104.353 262.231 104.53 262.394 104.664 262.589C104.799 262.784 104.889 263.007 104.927 263.241C105.129 264.401 105.129 265.588 104.927 266.748C104.889 266.982 104.799 267.205 104.664 267.4C104.53 267.595 104.353 267.758 104.148 267.878C103.943 267.997 103.714 268.069 103.477 268.089C103.241 268.109 103.003 268.076 102.781 267.994L102.75 267.982C102.401 267.849 102.11 267.598 101.926 267.272C101.742 266.947 101.678 266.567 101.744 266.2Z" fill="#252F3A"/>
<path d="M68.2662 263.789C68.1269 264.587 68.1269 265.402 68.2662 266.2C68.3325 266.568 68.2683 266.947 68.0846 267.272C67.9008 267.598 67.6091 267.849 67.2599 267.982L67.2296 267.994C67.0073 268.076 66.7694 268.109 66.5329 268.089C66.2965 268.069 66.0675 267.997 65.8622 267.878C65.657 267.758 65.4807 267.595 65.346 267.4C65.2112 267.205 65.1214 266.982 65.0829 266.748C64.8812 265.588 64.8812 264.401 65.0829 263.241C65.1214 263.007 65.2112 262.784 65.346 262.589C65.4807 262.394 65.657 262.231 65.8622 262.112C66.0675 261.992 66.2965 261.92 66.5329 261.9C66.7694 261.88 67.0073 261.913 67.2296 261.996L67.2598 262.007C67.609 262.14 67.9007 262.391 68.0845 262.717C68.2682 263.042 68.3325 263.422 68.2662 263.789Z" fill="#252F3A"/>
<path d="M98.9014 274.409C99.4204 273.788 99.8277 273.082 100.105 272.321C100.232 271.97 100.477 271.673 100.799 271.483C101.12 271.293 101.499 271.221 101.868 271.28L101.899 271.285C102.133 271.325 102.356 271.415 102.551 271.551C102.745 271.686 102.908 271.863 103.026 272.069C103.145 272.274 103.216 272.504 103.235 272.74C103.254 272.977 103.221 273.215 103.137 273.437C102.732 274.543 102.14 275.57 101.385 276.475C101.235 276.658 101.046 276.806 100.832 276.908C100.617 277.01 100.383 277.063 100.146 277.064C99.9086 277.064 99.6741 277.013 99.4592 276.912C99.2444 276.811 99.0546 276.664 98.9033 276.481L98.8829 276.456C98.6469 276.166 98.5196 275.803 98.523 275.429C98.5264 275.056 98.6602 274.695 98.9014 274.409Z" fill="#252F3A"/>
<path d="M71.1064 255.594C70.5874 256.215 70.1801 256.922 69.9024 257.682C69.7761 258.034 69.5309 258.33 69.2091 258.52C68.8874 258.711 68.5093 258.782 68.1402 258.723L68.1083 258.718C67.8743 258.679 67.6519 258.588 67.4571 258.453C67.2623 258.317 67.0999 258.14 66.9816 257.935C66.8633 257.729 66.792 257.5 66.7728 257.263C66.7537 257.027 66.7871 256.789 66.8707 256.567C67.2756 255.461 67.8682 254.433 68.6226 253.529C68.7729 253.345 68.9619 253.197 69.1762 253.095C69.3905 252.993 69.6247 252.94 69.862 252.939C70.0992 252.939 70.3337 252.991 70.5486 253.091C70.7634 253.192 70.9532 253.339 71.1045 253.522L71.125 253.547C71.361 253.837 71.4883 254.2 71.4849 254.574C71.4815 254.948 71.3476 255.308 71.1064 255.594Z" fill="#252F3A"/>
<path d="M92.3484 280.093C93.1082 279.815 93.814 279.406 94.4344 278.886C94.7195 278.644 95.08 278.51 95.4538 278.506C95.8275 278.502 96.1908 278.629 96.481 278.864L96.5061 278.885C96.6891 279.036 96.8365 279.225 96.9376 279.44C97.0387 279.655 97.091 279.889 97.0907 280.126C97.0905 280.363 97.0377 280.598 96.9362 280.812C96.8346 281.027 96.6869 281.216 96.5035 281.367C95.6003 282.122 94.5735 282.717 93.4683 283.123C93.2464 283.207 93.0086 283.241 92.7721 283.222C92.5355 283.204 92.3061 283.133 92.1002 283.015C91.8944 282.897 91.7172 282.734 91.5814 282.54C91.4456 282.345 91.3546 282.123 91.3149 281.889L91.3096 281.857C91.25 281.488 91.3212 281.11 91.5108 280.788C91.7005 280.466 91.9967 280.22 92.3484 280.093Z" fill="#252F3A"/>
<path d="M77.6623 249.911C76.9024 250.19 76.1966 250.599 75.5762 251.119C75.2911 251.36 74.9306 251.495 74.5568 251.499C74.1831 251.503 73.8198 251.376 73.5296 251.14L73.5045 251.12C73.3215 250.969 73.1741 250.78 73.073 250.565C72.972 250.35 72.9197 250.116 72.9199 249.878C72.9202 249.641 72.973 249.407 73.0745 249.192C73.176 248.978 73.3238 248.789 73.5072 248.638C74.4103 247.882 75.4371 247.288 76.5424 246.881C76.7643 246.797 77.0021 246.764 77.2386 246.782C77.4751 246.801 77.7046 246.872 77.9104 246.99C78.1163 247.108 78.2935 247.27 78.4293 247.465C78.5651 247.659 78.6561 247.882 78.6958 248.116L78.701 248.147C78.7607 248.516 78.6895 248.895 78.4998 249.217C78.3102 249.539 78.0139 249.784 77.6623 249.911Z" fill="#252F3A"/>
<path d="M71.1252 274.452C70.604 273.828 70.1949 273.119 69.916 272.355C69.7892 272.002 69.5429 271.704 69.2197 271.513C68.8966 271.322 68.5168 271.25 68.1461 271.309L68.1141 271.314C67.8791 271.354 67.6558 271.445 67.4601 271.581C67.2645 271.717 67.1014 271.895 66.9825 272.101C66.8637 272.308 66.7921 272.538 66.7729 272.776C66.7536 273.013 66.7872 273.252 66.8712 273.475C67.2777 274.586 67.873 275.618 68.6306 276.527C68.7816 276.711 68.9714 276.86 69.1867 276.962C69.4019 277.064 69.6371 277.118 69.8754 277.118C70.1137 277.119 70.3492 277.067 70.5649 276.966C70.7807 276.864 70.9714 276.717 71.1233 276.533L71.1439 276.508C71.381 276.217 71.5088 275.852 71.5054 275.477C71.502 275.101 71.3675 274.739 71.1252 274.452Z" fill="#252F3A"/>
<path d="M99.0423 255.557C99.5635 256.181 99.9727 256.89 100.252 257.654C100.378 258.007 100.625 258.305 100.948 258.496C101.271 258.687 101.651 258.759 102.021 258.7L102.053 258.695C102.288 258.655 102.512 258.564 102.707 258.428C102.903 258.292 103.066 258.114 103.185 257.908C103.304 257.701 103.375 257.471 103.395 257.233C103.414 256.996 103.38 256.757 103.296 256.534C102.89 255.423 102.295 254.391 101.537 253.482C101.386 253.298 101.196 253.149 100.981 253.047C100.766 252.945 100.53 252.891 100.292 252.891C100.054 252.89 99.8184 252.942 99.6026 253.043C99.3869 253.145 99.1962 253.292 99.0443 253.476L99.0237 253.501C98.7867 253.792 98.6588 254.157 98.6622 254.532C98.6656 254.908 98.8 255.27 99.0423 255.557Z" fill="#252F3A"/>
<path d="M77.7048 280.159C76.9416 279.879 76.2327 279.469 75.6096 278.946C75.3233 278.704 74.9611 278.569 74.5858 278.565C74.2104 278.561 73.8454 278.688 73.554 278.924L73.529 278.945C73.3451 279.097 73.1972 279.287 73.0957 279.503C72.9942 279.718 72.9416 279.954 72.9419 280.192C72.9422 280.43 72.9952 280.665 73.0971 280.881C73.1991 281.096 73.3475 281.286 73.5316 281.438C74.4387 282.197 75.4699 282.793 76.58 283.202C76.8028 283.286 77.0416 283.32 77.2792 283.301C77.5168 283.282 77.7472 283.211 77.954 283.093C78.1608 282.974 78.3387 282.811 78.4751 282.616C78.6115 282.421 78.7029 282.197 78.7428 281.962L78.748 281.93C78.8079 281.56 78.7364 281.18 78.5459 280.857C78.3554 280.533 78.0579 280.286 77.7048 280.159Z" fill="#252F3A"/>
<path d="M92.4505 249.847C93.2137 250.127 93.9225 250.537 94.5456 251.059C94.832 251.302 95.1941 251.437 95.5695 251.441C95.9449 251.445 96.3098 251.318 96.6013 251.081L96.6263 251.061C96.8102 250.909 96.9582 250.719 97.0597 250.503C97.1612 250.287 97.2137 250.052 97.2134 249.814C97.2132 249.575 97.1602 249.34 97.0582 249.125C96.9563 248.909 96.8079 248.719 96.6237 248.568C95.7167 247.809 94.6854 247.212 93.5754 246.804C93.3525 246.719 93.1137 246.685 92.8761 246.704C92.6386 246.723 92.4081 246.794 92.2014 246.913C91.9946 247.031 91.8166 247.194 91.6803 247.39C91.5439 247.585 91.4525 247.808 91.4126 248.043L91.4073 248.075C91.3475 248.446 91.4189 248.826 91.6094 249.149C91.7999 249.473 92.0974 249.719 92.4505 249.847Z" fill="#252F3A"/>
<path d="M85.0033 256.801C84.7111 256.801 84.4254 256.714 84.1823 256.551C83.9393 256.389 83.7499 256.157 83.638 255.887C83.5261 255.616 83.4968 255.318 83.5537 255.031C83.6107 254.743 83.7514 254.479 83.958 254.272C84.1647 254.065 84.4279 253.924 84.7146 253.866C85.0012 253.809 85.2983 253.838 85.5684 253.951C85.8384 254.063 86.0692 254.253 86.2316 254.496C86.394 254.74 86.4807 255.026 86.4808 255.319C86.4803 255.712 86.3245 256.089 86.0475 256.366C85.7706 256.644 85.3951 256.8 85.0033 256.801Z" fill="#5684A6"/>
<path d="M85.0034 275.649C84.7111 275.649 84.4254 275.562 84.1823 275.399C83.9393 275.236 83.7498 275.005 83.6379 274.734C83.5261 274.464 83.4968 274.166 83.5538 273.878C83.6108 273.591 83.7515 273.327 83.9582 273.119C84.1649 272.912 84.4282 272.771 84.7149 272.714C85.0016 272.657 85.2987 272.686 85.5687 272.798C85.8388 272.911 86.0696 273.1 86.2319 273.344C86.3943 273.588 86.4809 273.874 86.4809 274.167C86.4803 274.56 86.3245 274.937 86.0475 275.214C85.7706 275.492 85.3951 275.648 85.0034 275.649Z" fill="#5684A6"/>
<path d="M94.4271 266.479C94.1349 266.479 93.8492 266.392 93.6061 266.229C93.3631 266.066 93.1737 265.835 93.0618 265.564C92.9499 265.294 92.9206 264.996 92.9776 264.708C93.0345 264.421 93.1752 264.157 93.3819 263.95C93.5885 263.742 93.8518 263.601 94.1384 263.544C94.425 263.487 94.7221 263.516 94.9922 263.628C95.2622 263.74 95.493 263.93 95.6554 264.174C95.8178 264.417 95.9046 264.704 95.9046 264.997C95.9041 265.39 95.7483 265.766 95.4713 266.044C95.1944 266.322 94.8189 266.478 94.4271 266.479Z" fill="#5684A6"/>
<path d="M75.5765 266.479C75.2843 266.479 74.9986 266.392 74.7557 266.229C74.5127 266.066 74.3234 265.835 74.2116 265.564C74.0997 265.293 74.0705 264.995 74.1275 264.708C74.1846 264.421 74.3253 264.157 74.5319 263.95C74.7386 263.742 75.0019 263.601 75.2885 263.544C75.5751 263.487 75.8722 263.516 76.1422 263.628C76.4122 263.74 76.643 263.93 76.8054 264.174C76.9678 264.418 77.0545 264.704 77.0545 264.997C77.0541 265.39 76.8983 265.766 76.6212 266.044C76.3441 266.322 75.9684 266.478 75.5765 266.479Z" fill="#5684A6"/>
<path d="M91.7616 259.468C91.4197 259.468 91.0882 259.349 90.8238 259.132C90.5595 258.914 90.3784 258.612 90.3117 258.275C90.2449 257.939 90.2965 257.59 90.4576 257.288C90.6188 256.985 90.8795 256.748 91.1954 256.617C91.5113 256.486 91.8629 256.468 92.1901 256.568C92.5174 256.667 92.8002 256.877 92.9902 257.162C93.1803 257.447 93.2659 257.79 93.2324 258.131C93.199 258.472 93.0486 258.791 92.8068 259.034C92.6699 259.172 92.5071 259.281 92.3276 259.356C92.1482 259.43 91.9558 259.468 91.7616 259.468Z" fill="#5684A6"/>
<path d="M78.4316 272.788C78.0896 272.788 77.7582 272.67 77.4938 272.452C77.2294 272.235 77.0484 271.932 76.9816 271.596C76.9148 271.259 76.9664 270.91 77.1276 270.608C77.2887 270.305 77.5495 270.068 77.8654 269.937C78.1813 269.806 78.5329 269.788 78.8601 269.888C79.1874 269.987 79.4702 270.198 79.6602 270.483C79.8503 270.768 79.9359 271.11 79.9024 271.451C79.869 271.792 79.7185 272.111 79.4768 272.354C79.3399 272.492 79.177 272.602 78.9976 272.676C78.8182 272.751 78.6258 272.789 78.4316 272.788Z" fill="#5684A6"/>
<path d="M91.5761 272.974C91.2341 272.974 90.9027 272.855 90.6383 272.638C90.3738 272.42 90.1928 272.117 90.1261 271.781C90.0593 271.445 90.111 271.096 90.2722 270.793C90.4334 270.491 90.6942 270.254 91.0102 270.123C91.3262 269.991 91.6778 269.974 92.005 270.074C92.3323 270.173 92.615 270.383 92.805 270.669C92.995 270.954 93.0805 271.296 93.0469 271.637C93.0133 271.979 92.8628 272.298 92.6209 272.54C92.4839 272.678 92.3211 272.787 92.1418 272.862C91.9625 272.936 91.7702 272.974 91.5761 272.974Z" fill="#5684A6"/>
<path d="M78.2438 259.651C77.9017 259.651 77.5702 259.533 77.3058 259.315C77.0414 259.098 76.8603 258.795 76.7936 258.458C76.7268 258.122 76.7784 257.773 76.9397 257.47C77.1009 257.168 77.3617 256.931 77.6777 256.8C77.9938 256.669 78.3454 256.651 78.6727 256.751C79 256.85 79.2827 257.061 79.4727 257.346C79.6627 257.631 79.7482 257.973 79.7146 258.315C79.681 258.656 79.5304 258.975 79.2885 259.217C79.1516 259.355 78.9887 259.465 78.8094 259.539C78.6301 259.614 78.4379 259.652 78.2438 259.651Z" fill="#5684A6"/>
<path opacity="0.29" d="M115.197 260.535C114.926 260.531 114.665 260.432 114.459 260.256C114.252 260.08 114.115 259.837 114.069 259.57C112.802 252.787 109.203 246.662 103.895 242.253C98.5875 237.845 91.9051 235.432 85.0054 235.432C78.1058 235.432 71.4233 237.845 66.1156 242.253C60.8078 246.662 57.2089 252.787 55.9422 259.57C55.8963 259.837 55.7583 260.08 55.5523 260.256C55.3462 260.432 55.085 260.531 54.8139 260.535H54.7581C54.5901 260.535 54.4242 260.497 54.2722 260.426C54.1202 260.355 53.9857 260.251 53.8783 260.121C53.7709 259.992 53.6932 259.841 53.6506 259.679C53.6081 259.516 53.6018 259.346 53.6322 259.181C54.9923 251.854 58.8743 245.234 64.6047 240.469C70.3352 235.704 77.5527 233.096 85.0052 233.096C92.4577 233.096 99.6752 235.704 105.406 240.469C111.136 245.234 115.018 251.854 116.378 259.181C116.409 259.346 116.402 259.516 116.36 259.679C116.317 259.841 116.24 259.993 116.132 260.122C116.025 260.251 115.89 260.355 115.738 260.426C115.586 260.498 115.42 260.535 115.252 260.535H115.197Z" fill="white"/>
<path opacity="0.11" d="M85.0024 287.248C90.903 287.248 96.562 284.904 100.734 280.732C104.907 276.56 107.251 270.901 107.251 265H62.7539C62.7539 267.922 63.3294 270.815 64.4475 273.514C65.5656 276.213 67.2044 278.666 69.2703 280.732C71.3363 282.798 73.7889 284.437 76.4882 285.555C79.1876 286.673 82.0807 287.248 85.0024 287.248Z" fill="#8FB5D3"/>
<path d="M165 300C184.33 300 200 284.33 200 265C200 245.67 184.33 230 165 230C145.67 230 130 245.67 130 265C130 284.33 145.67 300 165 300Z" fill="#2B2B2C"/>
<path d="M165.006 297.864C183.158 297.864 197.873 283.148 197.873 264.996C197.873 246.844 183.158 232.129 165.006 232.129C146.854 232.129 132.139 246.844 132.139 264.996C132.139 283.148 146.854 297.864 165.006 297.864Z" fill="#373738"/>
<path d="M165.005 293.615C180.806 293.615 193.614 280.806 193.614 265.006C193.614 249.205 180.806 236.396 165.005 236.396C149.205 236.396 136.396 249.205 136.396 265.006C136.396 280.806 149.205 293.615 165.005 293.615Z" fill="#1E1E1F"/>
<path d="M164.999 291.511C179.636 291.511 191.502 279.646 191.502 265.009C191.502 250.372 179.636 238.506 164.999 238.506C150.362 238.506 138.496 250.372 138.496 265.009C138.496 279.646 150.362 291.511 164.999 291.511Z" fill="white"/>
<path d="M165.002 289.654C178.621 289.654 189.662 278.614 189.662 264.994C189.662 251.375 178.621 240.334 165.002 240.334C151.382 240.334 140.342 251.375 140.342 264.994C140.342 278.614 151.382 289.654 165.002 289.654Z" fill="#8FB5D3"/>
<path d="M165.002 287.251C177.29 287.251 187.251 277.29 187.251 265.002C187.251 252.715 177.29 242.754 165.002 242.754C152.715 242.754 142.754 252.715 142.754 265.002C142.754 277.29 152.715 287.251 165.002 287.251Z" fill="white"/>
<path d="M165.002 279.262C172.877 279.262 179.261 272.877 179.261 265.002C179.261 257.127 172.877 250.742 165.002 250.742C157.126 250.742 150.742 257.127 150.742 265.002C150.742 272.877 157.126 279.262 165.002 279.262Z" fill="#8FB5D3"/>
<path d="M165.002 269.995C167.765 269.995 170.005 267.755 170.005 264.993C170.005 262.23 167.765 259.99 165.002 259.99C162.24 259.99 160 262.23 160 264.993C160 267.755 162.24 269.995 165.002 269.995Z" fill="#5684A6"/>
<path d="M166.287 248.192C165.486 248.052 164.667 248.052 163.866 248.192C163.497 248.259 163.116 248.194 162.789 248.009C162.462 247.824 162.21 247.53 162.076 247.179L162.064 247.148C161.981 246.924 161.949 246.685 161.969 246.447C161.989 246.209 162.061 245.978 162.181 245.771C162.3 245.564 162.464 245.387 162.66 245.251C162.856 245.116 163.08 245.025 163.315 244.986C164.481 244.783 165.672 244.783 166.838 244.986C167.073 245.025 167.296 245.116 167.493 245.251C167.689 245.387 167.853 245.564 167.972 245.771C168.092 245.978 168.164 246.208 168.184 246.447C168.204 246.685 168.172 246.924 168.089 247.148L168.077 247.178C167.943 247.53 167.691 247.824 167.364 248.009C167.037 248.194 166.656 248.259 166.287 248.192Z" fill="#252F3A"/>
<path d="M163.866 281.813C164.667 281.953 165.486 281.953 166.287 281.813C166.656 281.746 167.037 281.811 167.364 281.996C167.691 282.181 167.943 282.474 168.077 282.826L168.089 282.857C168.172 283.08 168.204 283.32 168.184 283.558C168.164 283.796 168.092 284.027 167.972 284.233C167.853 284.44 167.689 284.618 167.493 284.753C167.297 284.889 167.073 284.98 166.838 285.018C165.672 285.221 164.481 285.221 163.315 285.018C163.08 284.98 162.857 284.889 162.66 284.753C162.464 284.618 162.3 284.44 162.181 284.234C162.061 284.027 161.989 283.796 161.969 283.558C161.949 283.32 161.981 283.081 162.064 282.857L162.076 282.826C162.21 282.474 162.462 282.181 162.789 281.996C163.116 281.811 163.497 281.746 163.866 281.813Z" fill="#252F3A"/>
<path d="M181.744 266.2C181.883 265.402 181.883 264.587 181.744 263.789C181.678 263.422 181.742 263.042 181.926 262.717C182.11 262.391 182.401 262.14 182.75 262.007L182.781 261.996C183.003 261.913 183.241 261.88 183.477 261.9C183.714 261.92 183.943 261.993 184.148 262.112C184.353 262.231 184.53 262.394 184.664 262.589C184.799 262.784 184.889 263.007 184.927 263.241C185.129 264.401 185.129 265.588 184.927 266.748C184.889 266.982 184.799 267.205 184.664 267.4C184.53 267.595 184.353 267.758 184.148 267.878C183.943 267.997 183.714 268.069 183.477 268.089C183.241 268.109 183.003 268.076 182.781 267.994L182.751 267.982C182.401 267.849 182.11 267.598 181.926 267.272C181.742 266.947 181.678 266.567 181.744 266.2Z" fill="#252F3A"/>
<path d="M148.266 263.789C148.127 264.587 148.127 265.402 148.266 266.2C148.333 266.568 148.268 266.947 148.085 267.272C147.901 267.598 147.609 267.849 147.26 267.982L147.23 267.994C147.007 268.076 146.769 268.109 146.533 268.089C146.297 268.069 146.067 267.997 145.862 267.878C145.657 267.758 145.481 267.595 145.346 267.4C145.211 267.205 145.121 266.982 145.083 266.748C144.881 265.588 144.881 264.401 145.083 263.241C145.121 263.007 145.211 262.784 145.346 262.589C145.481 262.394 145.657 262.231 145.862 262.112C146.067 261.992 146.297 261.92 146.533 261.9C146.769 261.88 147.007 261.913 147.23 261.996L147.26 262.007C147.609 262.14 147.901 262.391 148.085 262.717C148.268 263.042 148.333 263.422 148.266 263.789Z" fill="#252F3A"/>
<path d="M178.901 274.409C179.42 273.788 179.828 273.082 180.105 272.321C180.232 271.97 180.477 271.673 180.799 271.483C181.12 271.293 181.499 271.221 181.868 271.28L181.9 271.285C182.134 271.325 182.356 271.415 182.551 271.551C182.746 271.686 182.908 271.863 183.026 272.069C183.145 272.274 183.216 272.504 183.235 272.74C183.254 272.977 183.221 273.215 183.137 273.437C182.732 274.543 182.14 275.57 181.385 276.475C181.235 276.658 181.046 276.806 180.832 276.908C180.617 277.01 180.383 277.063 180.146 277.064C179.909 277.064 179.674 277.013 179.459 276.912C179.244 276.811 179.055 276.664 178.903 276.481L178.883 276.456C178.647 276.166 178.52 275.803 178.523 275.429C178.526 275.056 178.66 274.695 178.901 274.409Z" fill="#252F3A"/>
<path d="M151.106 255.594C150.587 256.215 150.18 256.922 149.902 257.682C149.776 258.034 149.531 258.33 149.209 258.52C148.887 258.711 148.509 258.782 148.14 258.723L148.108 258.718C147.874 258.679 147.652 258.588 147.457 258.453C147.262 258.317 147.1 258.14 146.982 257.935C146.863 257.729 146.792 257.5 146.773 257.263C146.754 257.027 146.787 256.789 146.871 256.567C147.276 255.461 147.868 254.433 148.623 253.529C148.773 253.345 148.962 253.197 149.176 253.095C149.39 252.993 149.625 252.94 149.862 252.939C150.099 252.939 150.334 252.991 150.549 253.091C150.763 253.192 150.953 253.339 151.104 253.522L151.125 253.547C151.361 253.837 151.488 254.2 151.485 254.574C151.481 254.948 151.348 255.308 151.106 255.594Z" fill="#252F3A"/>
<path d="M172.348 280.093C173.108 279.815 173.814 279.406 174.434 278.886C174.719 278.644 175.08 278.51 175.454 278.506C175.827 278.502 176.191 278.629 176.481 278.864L176.506 278.885C176.689 279.036 176.836 279.225 176.938 279.44C177.039 279.655 177.091 279.889 177.091 280.126C177.09 280.363 177.038 280.598 176.936 280.812C176.835 281.027 176.687 281.216 176.503 281.367C175.6 282.122 174.573 282.717 173.468 283.123C173.246 283.207 173.009 283.241 172.772 283.222C172.535 283.204 172.306 283.133 172.1 283.015C171.894 282.897 171.717 282.734 171.581 282.54C171.446 282.345 171.355 282.123 171.315 281.889L171.31 281.857C171.25 281.488 171.321 281.11 171.511 280.788C171.7 280.466 171.997 280.22 172.348 280.093Z" fill="#252F3A"/>
<path d="M157.662 249.911C156.902 250.19 156.197 250.599 155.576 251.119C155.291 251.36 154.931 251.495 154.557 251.499C154.183 251.503 153.82 251.376 153.53 251.14L153.505 251.12C153.322 250.969 153.174 250.78 153.073 250.565C152.972 250.35 152.92 250.116 152.92 249.878C152.92 249.641 152.973 249.407 153.074 249.192C153.176 248.978 153.324 248.789 153.507 248.638C154.41 247.882 155.437 247.288 156.542 246.881C156.764 246.797 157.002 246.764 157.239 246.782C157.475 246.801 157.705 246.872 157.91 246.99C158.116 247.108 158.293 247.27 158.429 247.465C158.565 247.659 158.656 247.882 158.696 248.116L158.701 248.147C158.761 248.516 158.69 248.895 158.5 249.217C158.31 249.539 158.014 249.784 157.662 249.911Z" fill="#252F3A"/>
<path d="M151.125 274.452C150.604 273.828 150.195 273.119 149.916 272.355C149.789 272.002 149.543 271.704 149.22 271.513C148.897 271.322 148.517 271.25 148.146 271.309L148.114 271.314C147.879 271.354 147.656 271.445 147.46 271.581C147.264 271.717 147.101 271.895 146.983 272.101C146.864 272.308 146.792 272.538 146.773 272.776C146.754 273.013 146.787 273.252 146.871 273.475C147.278 274.586 147.873 275.618 148.631 276.527C148.782 276.711 148.971 276.86 149.187 276.962C149.402 277.064 149.637 277.118 149.875 277.118C150.114 277.119 150.349 277.067 150.565 276.966C150.781 276.864 150.971 276.717 151.123 276.533L151.144 276.508C151.381 276.217 151.509 275.852 151.505 275.477C151.502 275.101 151.368 274.739 151.125 274.452Z" fill="#252F3A"/>
<path d="M179.042 255.557C179.564 256.181 179.973 256.89 180.252 257.654C180.378 258.007 180.625 258.305 180.948 258.496C181.271 258.687 181.651 258.759 182.021 258.7L182.053 258.695C182.288 258.655 182.512 258.564 182.707 258.428C182.903 258.292 183.066 258.114 183.185 257.908C183.304 257.701 183.375 257.471 183.395 257.233C183.414 256.996 183.38 256.757 183.296 256.534C182.89 255.423 182.295 254.391 181.537 253.482C181.386 253.298 181.196 253.149 180.981 253.047C180.766 252.945 180.53 252.891 180.292 252.891C180.054 252.89 179.818 252.942 179.603 253.043C179.387 253.145 179.196 253.292 179.044 253.476L179.024 253.501C178.787 253.792 178.659 254.157 178.662 254.532C178.666 254.908 178.8 255.27 179.042 255.557Z" fill="#252F3A"/>
<path d="M157.712 280.159C156.949 279.879 156.24 279.469 155.617 278.946C155.331 278.704 154.968 278.569 154.593 278.565C154.218 278.561 153.853 278.688 153.561 278.924L153.536 278.945C153.352 279.097 153.204 279.287 153.103 279.503C153.001 279.718 152.949 279.954 152.949 280.192C152.949 280.43 153.002 280.665 153.104 280.881C153.206 281.096 153.355 281.286 153.539 281.438C154.446 282.197 155.477 282.794 156.587 283.202C156.81 283.286 157.049 283.32 157.287 283.301C157.524 283.282 157.755 283.211 157.961 283.093C158.168 282.974 158.346 282.811 158.482 282.616C158.619 282.421 158.71 282.197 158.75 281.962L158.755 281.93C158.815 281.56 158.744 281.18 158.553 280.857C158.363 280.533 158.065 280.286 157.712 280.159Z" fill="#252F3A"/>
<path d="M172.46 249.847C173.224 250.127 173.932 250.537 174.555 251.059C174.842 251.302 175.204 251.437 175.579 251.441C175.955 251.445 176.32 251.318 176.611 251.081L176.636 251.061C176.82 250.909 176.968 250.719 177.069 250.503C177.171 250.287 177.223 250.052 177.223 249.814C177.223 249.575 177.17 249.34 177.068 249.125C176.966 248.909 176.818 248.719 176.633 248.568C175.726 247.809 174.695 247.212 173.585 246.804C173.362 246.719 173.123 246.685 172.886 246.704C172.648 246.723 172.418 246.794 172.211 246.913C172.004 247.031 171.826 247.194 171.69 247.39C171.554 247.585 171.462 247.808 171.422 248.043L171.417 248.075C171.357 248.446 171.429 248.826 171.619 249.149C171.81 249.473 172.107 249.719 172.46 249.847Z" fill="#252F3A"/>
<path d="M165.003 256.801C164.711 256.801 164.425 256.714 164.182 256.551C163.939 256.389 163.75 256.157 163.638 255.887C163.526 255.616 163.497 255.318 163.554 255.031C163.611 254.743 163.751 254.479 163.958 254.272C164.165 254.065 164.428 253.924 164.715 253.866C165.001 253.809 165.298 253.838 165.568 253.951C165.838 254.063 166.069 254.253 166.232 254.496C166.394 254.74 166.481 255.026 166.481 255.319C166.48 255.712 166.324 256.089 166.048 256.366C165.771 256.644 165.395 256.8 165.003 256.801Z" fill="#5684A6"/>
<path d="M165.003 275.649C164.711 275.649 164.425 275.562 164.182 275.399C163.939 275.236 163.75 275.005 163.638 274.734C163.526 274.464 163.497 274.166 163.554 273.878C163.611 273.591 163.752 273.327 163.958 273.119C164.165 272.912 164.428 272.771 164.715 272.714C165.002 272.657 165.299 272.686 165.569 272.798C165.839 272.911 166.07 273.1 166.232 273.344C166.394 273.588 166.481 273.874 166.481 274.167C166.48 274.56 166.325 274.937 166.048 275.214C165.771 275.492 165.395 275.648 165.003 275.649Z" fill="#5684A6"/>
<path d="M174.427 266.479C174.135 266.479 173.849 266.392 173.606 266.229C173.363 266.066 173.174 265.835 173.062 265.564C172.95 265.294 172.921 264.996 172.978 264.708C173.035 264.421 173.175 264.157 173.382 263.95C173.588 263.742 173.852 263.601 174.138 263.544C174.425 263.487 174.722 263.516 174.992 263.628C175.262 263.74 175.493 263.93 175.655 264.174C175.818 264.417 175.905 264.704 175.905 264.997C175.904 265.39 175.748 265.766 175.471 266.044C175.194 266.322 174.819 266.478 174.427 266.479Z" fill="#5684A6"/>
<path d="M155.577 266.479C155.284 266.479 154.999 266.392 154.756 266.229C154.513 266.066 154.323 265.835 154.212 265.564C154.1 265.293 154.071 264.995 154.128 264.708C154.185 264.421 154.325 264.157 154.532 263.95C154.739 263.742 155.002 263.601 155.288 263.544C155.575 263.487 155.872 263.516 156.142 263.628C156.412 263.74 156.643 263.93 156.805 264.174C156.968 264.418 157.054 264.704 157.055 264.997C157.054 265.39 156.898 265.766 156.621 266.044C156.344 266.322 155.968 266.478 155.577 266.479Z" fill="#5684A6"/>
<path d="M171.762 259.468C171.42 259.468 171.088 259.349 170.824 259.132C170.559 258.914 170.378 258.612 170.312 258.275C170.245 257.939 170.296 257.59 170.458 257.288C170.619 256.985 170.879 256.748 171.195 256.617C171.511 256.486 171.863 256.468 172.19 256.568C172.517 256.667 172.8 256.877 172.99 257.162C173.18 257.447 173.266 257.79 173.232 258.131C173.199 258.472 173.049 258.791 172.807 259.034C172.67 259.172 172.507 259.281 172.328 259.356C172.148 259.43 171.956 259.468 171.762 259.468Z" fill="#5684A6"/>
<path d="M158.432 272.788C158.09 272.788 157.758 272.67 157.494 272.452C157.229 272.235 157.048 271.932 156.982 271.596C156.915 271.259 156.966 270.91 157.128 270.608C157.289 270.305 157.549 270.068 157.865 269.937C158.181 269.806 158.533 269.788 158.86 269.888C159.187 269.987 159.47 270.198 159.66 270.483C159.85 270.768 159.936 271.11 159.902 271.451C159.869 271.792 159.719 272.111 159.477 272.354C159.34 272.492 159.177 272.602 158.998 272.676C158.818 272.751 158.626 272.789 158.432 272.788Z" fill="#5684A6"/>
<path d="M171.566 272.974C171.224 272.974 170.893 272.855 170.628 272.638C170.364 272.42 170.183 272.117 170.116 271.781C170.05 271.445 170.101 271.096 170.262 270.793C170.424 270.491 170.684 270.254 171 270.123C171.316 269.991 171.668 269.974 171.995 270.074C172.323 270.173 172.605 270.383 172.795 270.669C172.985 270.954 173.071 271.296 173.037 271.637C173.004 271.979 172.853 272.298 172.611 272.54C172.474 272.678 172.311 272.787 172.132 272.862C171.953 272.936 171.76 272.974 171.566 272.974Z" fill="#5684A6"/>
<path d="M158.244 259.651C157.902 259.651 157.57 259.532 157.306 259.315C157.041 259.097 156.86 258.795 156.794 258.458C156.727 258.122 156.778 257.773 156.94 257.47C157.101 257.168 157.362 256.931 157.678 256.8C157.994 256.669 158.345 256.651 158.673 256.751C159 256.85 159.283 257.061 159.473 257.346C159.663 257.631 159.748 257.973 159.714 258.315C159.681 258.656 159.53 258.975 159.288 259.217C159.151 259.355 158.989 259.465 158.809 259.539C158.63 259.613 158.438 259.652 158.244 259.651Z" fill="#5684A6"/>
<path opacity="0.29" d="M195.197 260.535C194.926 260.531 194.665 260.432 194.458 260.256C194.252 260.08 194.114 259.837 194.069 259.57C192.802 252.787 189.203 246.662 183.895 242.253C178.588 237.845 171.905 235.432 165.005 235.432C158.106 235.432 151.423 237.845 146.116 242.253C140.808 246.662 137.209 252.787 135.942 259.57C135.896 259.837 135.758 260.08 135.552 260.256C135.346 260.432 135.085 260.531 134.814 260.535H134.758C134.59 260.535 134.424 260.498 134.272 260.426C134.12 260.355 133.986 260.251 133.878 260.122C133.771 259.992 133.693 259.841 133.651 259.679C133.608 259.516 133.602 259.346 133.632 259.181C134.992 251.854 138.874 245.234 144.605 240.469C150.335 235.704 157.553 233.096 165.005 233.096C172.458 233.096 179.675 235.704 185.406 240.469C191.136 245.234 195.018 251.854 196.378 259.181C196.409 259.346 196.402 259.516 196.36 259.679C196.317 259.841 196.24 259.993 196.132 260.122C196.025 260.251 195.89 260.355 195.738 260.426C195.586 260.498 195.42 260.535 195.252 260.535H195.197Z" fill="white"/>
<path opacity="0.11" d="M165.002 287.248C170.903 287.248 176.562 284.904 180.734 280.732C184.907 276.56 187.251 270.901 187.251 265H142.754C142.754 267.922 143.329 270.815 144.447 273.514C145.566 276.213 147.204 278.666 149.27 280.732C151.336 282.798 153.789 284.437 156.488 285.555C159.188 286.673 162.081 287.248 165.002 287.248Z" fill="#8FB5D3"/>
<path d="M167.465 215.212H81.7349C71.0065 215.225 60.7211 219.676 53.135 227.588C45.5489 235.501 41.2817 246.229 41.2695 257.419V269.138H49.6279V257.419C49.6375 248.54 53.0233 240.028 59.0424 233.75C65.0616 227.472 73.2225 223.94 81.7349 223.93H167.465C175.977 223.94 184.138 227.472 190.157 233.75C196.176 240.028 199.562 248.54 199.572 257.419V269.138H207.93V257.419C207.918 246.229 203.651 235.501 196.065 227.588C188.478 219.676 178.193 215.225 167.465 215.212Z" fill="#294856"/>
<path d="M739.052 0H0V215.008H739.052V0Z" fill="#EDDFDF"/>
<path opacity="0.4" d="M755.684 16.5528C757.539 18.8829 760.2 20.3566 763.09 20.6549C778.299 22.176 792.955 26.3375 806.066 32.9284C819.315 39.5887 830.506 48.4823 838.923 58.9636C841.05 61.5892 843.891 63.4794 847.07 64.3839C829.199 36.3296 794.343 18.1762 755.684 16.5527V16.5528Z" fill="white"/>
<path d="M728.224 11.5137H12.1777V201.085H728.224V11.5137Z" fill="white"/>
<path d="M1000 251.943H997.33C996.454 251.943 995.606 251.614 994.942 251.017C994.279 250.42 993.842 249.594 993.713 248.69L992.111 237.47C992.07 237.182 992.089 236.888 992.166 236.608C992.244 236.329 992.379 236.07 992.561 235.849C992.743 235.629 992.969 235.452 993.223 235.331C993.476 235.209 993.752 235.146 994.031 235.146H1000L1000 251.943Z" fill="#E27F46"/>
<path d="M456.568 143.159C515.615 143.159 573.005 163.526 619.801 201.086H724.042C667.81 143.14 591.948 110.645 512.9 110.645H45.0781C72.3934 131.76 105.493 143.159 139.492 143.159L456.568 143.159Z" fill="#971E35"/>
<g style="mix-blend-mode:multiply">
<path d="M47.2656 215.01C47.2656 215.01 356.937 126.572 565.782 134.575C666.774 138.444 712.587 215.01 712.587 215.01H47.2656Z" fill="#D8E8F2"/>
</g>
<path d="M939.864 300C961.888 300 979.799 282.091 979.87 260C979.941 237.909 962.145 220 940.121 220C918.098 220 900.187 237.909 900.116 260C900.045 282.091 917.841 300 939.864 300Z" fill="#2B2B2C"/>
<path d="M939.694 297.399C960.447 297.399 977.41 280.652 977.58 259.993C977.751 239.335 961.065 222.588 940.312 222.588C919.558 222.588 902.596 239.335 902.425 259.993C902.255 280.652 918.94 297.399 939.694 297.399Z" fill="#373738"/>
<path d="M939.73 292.55C957.794 292.55 972.559 277.973 972.708 259.991C972.856 242.009 958.332 227.432 940.268 227.432C922.203 227.432 907.438 242.009 907.29 259.991C907.141 277.973 921.665 292.55 939.73 292.55Z" fill="#1E1E1F"/>
<path d="M939.848 290.058C956.638 290.058 970.315 276.598 970.398 259.995C970.48 243.391 956.936 229.932 940.146 229.932C923.357 229.932 909.679 243.391 909.597 259.995C909.515 276.598 923.059 290.058 939.848 290.058Z" fill="white"/>
<path d="M939.857 287.967C955.48 287.967 968.206 275.443 968.282 259.994C968.359 244.545 955.757 232.021 940.135 232.021C924.512 232.021 911.786 244.545 911.71 259.994C911.633 275.443 924.235 287.967 939.857 287.967Z" fill="#8FB5D3"/>
<path d="M939.852 285.243C953.941 285.243 965.429 273.939 965.51 259.996C965.592 246.052 954.236 234.749 940.147 234.749C926.058 234.749 914.57 246.052 914.489 259.996C914.407 273.939 925.763 285.243 939.852 285.243Z" fill="white"/>
<path d="M940.006 276.292C948.973 276.292 956.242 268.997 956.242 259.997C956.242 250.997 948.973 243.701 940.006 243.701C931.039 243.701 923.77 250.997 923.77 259.997C923.77 268.997 931.039 276.292 940.006 276.292Z" fill="#8FB5D3"/>
<path d="M945.698 259.994C945.698 261.124 945.364 262.23 944.738 263.17C944.112 264.11 943.223 264.843 942.182 265.275C941.141 265.708 939.996 265.821 938.891 265.601C937.786 265.38 936.771 264.836 935.975 264.036C935.178 263.237 934.636 262.218 934.416 261.109C934.196 260 934.309 258.851 934.74 257.806C935.171 256.762 935.901 255.869 936.838 255.241C937.775 254.613 938.876 254.277 940.002 254.277C941.513 254.277 942.962 254.88 944.03 255.952C945.098 257.024 945.698 258.478 945.698 259.994Z" fill="white"/>
<path d="M941.466 240.79C940.554 240.631 939.622 240.631 938.71 240.79C938.289 240.867 937.855 240.793 937.483 240.582C937.111 240.371 936.824 240.036 936.672 239.635L936.659 239.601C936.564 239.345 936.527 239.072 936.55 238.801C936.572 238.53 936.655 238.267 936.791 238.031C936.927 237.796 937.114 237.593 937.337 237.439C937.56 237.284 937.815 237.181 938.083 237.137C939.41 236.905 940.766 236.905 942.093 237.137C942.361 237.181 942.616 237.284 942.839 237.439C943.062 237.593 943.249 237.796 943.385 238.031C943.521 238.267 943.604 238.53 943.627 238.801C943.649 239.072 943.612 239.345 943.518 239.601L943.504 239.635C943.352 240.036 943.065 240.371 942.693 240.582C942.321 240.793 941.887 240.866 941.466 240.79Z" fill="#252F3A"/>
<path d="M938.712 279.216C939.624 279.376 940.557 279.376 941.469 279.216C941.889 279.14 942.323 279.214 942.695 279.425C943.067 279.636 943.355 279.97 943.507 280.371L943.52 280.406C943.615 280.661 943.652 280.934 943.629 281.206C943.606 281.477 943.524 281.74 943.387 281.975C943.251 282.211 943.065 282.413 942.841 282.568C942.618 282.723 942.363 282.826 942.096 282.87C940.769 283.101 939.412 283.101 938.085 282.87C937.818 282.826 937.563 282.723 937.34 282.568C937.116 282.413 936.93 282.211 936.794 281.975C936.657 281.74 936.575 281.477 936.552 281.206C936.529 280.934 936.566 280.661 936.661 280.406L936.674 280.371C936.826 279.971 937.114 279.636 937.486 279.425C937.858 279.214 938.292 279.14 938.712 279.216Z" fill="#252F3A"/>
<path d="M959.062 261.375C959.221 260.464 959.221 259.532 959.062 258.621C958.987 258.2 959.06 257.767 959.269 257.395C959.478 257.023 959.81 256.736 960.208 256.584L960.242 256.571C960.496 256.476 960.767 256.439 961.036 256.462C961.305 256.485 961.566 256.567 961.799 256.703C962.033 256.839 962.234 257.025 962.387 257.249C962.541 257.472 962.643 257.726 962.687 257.994C962.916 259.32 962.916 260.676 962.687 262.002C962.643 262.269 962.541 262.524 962.387 262.747C962.234 262.97 962.033 263.156 961.799 263.292C961.566 263.428 961.305 263.511 961.036 263.534C960.767 263.557 960.496 263.52 960.243 263.425L960.208 263.412C959.811 263.26 959.478 262.973 959.269 262.601C959.06 262.229 958.987 261.796 959.062 261.375Z" fill="#252F3A"/>
<path d="M920.936 258.62C920.777 259.532 920.777 260.464 920.936 261.375C921.011 261.795 920.938 262.229 920.729 262.601C920.52 262.973 920.187 263.26 919.79 263.412L919.755 263.425C919.502 263.52 919.231 263.557 918.962 263.534C918.693 263.511 918.432 263.428 918.198 263.292C917.965 263.156 917.764 262.97 917.61 262.747C917.457 262.524 917.355 262.269 917.311 262.002C917.081 260.676 917.081 259.32 917.311 257.994C917.355 257.726 917.457 257.472 917.61 257.249C917.764 257.025 917.965 256.839 918.198 256.703C918.432 256.567 918.693 256.485 918.962 256.462C919.231 256.439 919.502 256.476 919.755 256.571L919.79 256.584C920.187 256.736 920.519 257.023 920.729 257.395C920.938 257.767 921.011 258.2 920.936 258.62Z" fill="#252F3A"/>
<path d="M955.822 270.748C956.413 270.038 956.876 269.231 957.193 268.362C957.336 267.96 957.616 267.621 957.982 267.403C958.348 267.186 958.779 267.104 959.199 267.171L959.235 267.177C959.502 267.222 959.755 267.326 959.977 267.481C960.198 267.636 960.383 267.838 960.518 268.073C960.653 268.308 960.734 268.57 960.756 268.84C960.778 269.111 960.74 269.382 960.644 269.636C960.183 270.9 959.509 272.074 958.65 273.108C958.479 273.318 958.263 273.487 958.019 273.603C957.775 273.72 957.509 273.78 957.239 273.781C956.968 273.782 956.701 273.723 956.457 273.608C956.212 273.492 955.996 273.324 955.824 273.115L955.801 273.087C955.532 272.756 955.387 272.341 955.391 271.914C955.395 271.486 955.547 271.074 955.822 270.748Z" fill="#252F3A"/>
<path d="M924.178 249.244C923.588 249.954 923.124 250.762 922.808 251.63C922.664 252.032 922.385 252.371 922.018 252.589C921.652 252.806 921.221 252.888 920.801 252.821L920.765 252.815C920.498 252.77 920.245 252.666 920.023 252.511C919.802 252.356 919.617 252.154 919.482 251.919C919.347 251.684 919.266 251.422 919.244 251.152C919.222 250.882 919.26 250.61 919.356 250.356C919.817 249.092 920.491 247.918 921.35 246.884C921.521 246.674 921.737 246.505 921.981 246.389C922.225 246.272 922.491 246.212 922.762 246.211C923.032 246.21 923.299 246.269 923.543 246.385C923.788 246.5 924.004 246.668 924.176 246.877L924.2 246.905C924.468 247.237 924.613 247.651 924.609 248.079C924.606 248.506 924.453 248.918 924.178 249.244Z" fill="#252F3A"/>
<path d="M948.364 277.244C949.229 276.925 950.033 276.458 950.739 275.864C951.064 275.588 951.474 275.434 951.9 275.43C952.326 275.425 952.739 275.57 953.07 275.839L953.098 275.863C953.307 276.035 953.474 276.252 953.59 276.497C953.705 276.742 953.764 277.01 953.764 277.281C953.764 277.553 953.703 277.82 953.588 278.065C953.472 278.311 953.304 278.527 953.095 278.699C952.067 279.563 950.898 280.242 949.639 280.706C949.387 280.802 949.116 280.841 948.847 280.82C948.577 280.798 948.316 280.717 948.082 280.582C947.847 280.447 947.646 280.262 947.491 280.04C947.336 279.817 947.233 279.563 947.188 279.296L947.182 279.26C947.114 278.838 947.195 278.406 947.411 278.038C947.627 277.67 947.964 277.389 948.364 277.244Z" fill="#252F3A"/>
<path d="M931.64 242.751C930.775 243.07 929.971 243.537 929.265 244.131C928.94 244.407 928.53 244.561 928.104 244.565C927.679 244.57 927.265 244.425 926.934 244.156L926.906 244.133C926.697 243.96 926.53 243.743 926.415 243.498C926.299 243.253 926.24 242.985 926.24 242.714C926.241 242.443 926.301 242.175 926.416 241.93C926.532 241.685 926.7 241.468 926.909 241.296C927.937 240.433 929.106 239.753 930.365 239.289C930.617 239.193 930.888 239.154 931.157 239.176C931.427 239.197 931.688 239.278 931.922 239.413C932.157 239.548 932.358 239.733 932.513 239.955C932.668 240.178 932.771 240.432 932.816 240.699L932.822 240.736C932.89 241.157 932.809 241.59 932.593 241.958C932.378 242.326 932.04 242.606 931.64 242.751Z" fill="#252F3A"/>
<path d="M924.2 270.793C923.607 270.08 923.141 269.269 922.823 268.396C922.679 267.992 922.398 267.652 922.03 267.434C921.662 267.215 921.23 267.133 920.808 267.201L920.772 267.207C920.504 267.252 920.25 267.356 920.027 267.511C919.804 267.667 919.618 267.87 919.483 268.106C919.348 268.342 919.266 268.605 919.244 268.877C919.222 269.148 919.261 269.421 919.356 269.676C919.819 270.945 920.497 272.125 921.359 273.163C921.531 273.374 921.748 273.544 921.993 273.661C922.238 273.778 922.506 273.839 922.777 273.839C923.048 273.84 923.316 273.78 923.562 273.665C923.808 273.549 924.025 273.38 924.198 273.171L924.221 273.142C924.491 272.809 924.637 272.392 924.633 271.963C924.629 271.534 924.476 271.12 924.2 270.793Z" fill="#252F3A"/>
<path d="M955.987 249.201C956.58 249.914 957.046 250.725 957.364 251.598C957.508 252.001 957.789 252.342 958.157 252.56C958.525 252.779 958.957 252.861 959.379 252.793L959.416 252.787C959.683 252.742 959.937 252.638 960.16 252.482C960.383 252.327 960.569 252.124 960.704 251.888C960.839 251.652 960.921 251.389 960.943 251.117C960.965 250.846 960.926 250.573 960.831 250.318C960.368 249.049 959.69 247.869 958.827 246.831C958.656 246.62 958.439 246.45 958.194 246.333C957.949 246.217 957.682 246.156 957.41 246.155C957.139 246.154 956.871 246.214 956.625 246.329C956.379 246.445 956.162 246.614 955.989 246.824L955.966 246.852C955.696 247.185 955.55 247.602 955.554 248.031C955.558 248.46 955.711 248.874 955.987 249.201Z" fill="#252F3A"/>
<path d="M931.693 277.328C930.824 277.007 930.017 276.539 929.307 275.942C928.981 275.664 928.569 275.51 928.142 275.505C927.714 275.501 927.299 275.646 926.967 275.917L926.938 275.94C926.729 276.114 926.56 276.331 926.445 276.578C926.329 276.824 926.269 277.093 926.27 277.365C926.27 277.638 926.33 277.906 926.446 278.153C926.562 278.399 926.731 278.616 926.941 278.789C927.974 279.656 929.148 280.338 930.412 280.805C930.666 280.902 930.938 280.94 931.208 280.919C931.479 280.897 931.741 280.816 931.976 280.68C932.212 280.545 932.414 280.359 932.57 280.136C932.725 279.912 932.829 279.657 932.874 279.389L932.88 279.352C932.949 278.929 932.867 278.495 932.65 278.125C932.434 277.755 932.095 277.473 931.693 277.328Z" fill="#252F3A"/>
<path d="M948.487 242.679C949.356 242.999 950.163 243.468 950.872 244.065C951.198 244.342 951.61 244.496 952.038 244.501C952.465 244.506 952.881 244.36 953.213 244.09L953.241 244.066C953.451 243.893 953.619 243.675 953.735 243.429C953.85 243.183 953.91 242.914 953.91 242.641C953.91 242.369 953.849 242.1 953.733 241.854C953.617 241.608 953.448 241.391 953.238 241.218C952.205 240.35 951.031 239.668 949.767 239.202C949.514 239.105 949.242 239.066 948.971 239.088C948.701 239.109 948.438 239.191 948.203 239.326C947.967 239.462 947.765 239.648 947.61 239.871C947.454 240.094 947.35 240.349 947.305 240.618L947.299 240.655C947.231 241.078 947.312 241.512 947.529 241.882C947.746 242.251 948.084 242.533 948.487 242.679Z" fill="#252F3A"/>
<path d="M940.003 250.614C939.67 250.614 939.345 250.515 939.068 250.329C938.792 250.144 938.576 249.88 938.449 249.572C938.321 249.263 938.288 248.923 938.353 248.596C938.417 248.268 938.578 247.967 938.813 247.731C939.048 247.495 939.348 247.334 939.674 247.269C940.001 247.204 940.339 247.237 940.646 247.365C940.954 247.493 941.217 247.709 941.402 247.987C941.587 248.264 941.685 248.591 941.685 248.925C941.685 249.372 941.507 249.802 941.192 250.118C940.877 250.435 940.449 250.613 940.003 250.614Z" fill="white"/>
<path d="M940.003 272.157C939.67 272.157 939.345 272.058 939.068 271.872C938.792 271.687 938.576 271.423 938.448 271.114C938.321 270.806 938.288 270.466 938.353 270.139C938.418 269.811 938.578 269.51 938.813 269.274C939.049 269.038 939.348 268.877 939.675 268.812C940.001 268.747 940.339 268.78 940.647 268.908C940.954 269.036 941.217 269.252 941.402 269.53C941.587 269.808 941.685 270.134 941.685 270.468C941.685 270.916 941.507 271.345 941.192 271.662C940.877 271.978 940.449 272.156 940.003 272.157Z" fill="white"/>
<path d="M950.726 261.688C950.393 261.688 950.068 261.589 949.791 261.403C949.514 261.218 949.298 260.954 949.171 260.646C949.044 260.337 949.01 259.998 949.075 259.67C949.14 259.343 949.3 259.042 949.536 258.805C949.771 258.569 950.071 258.408 950.397 258.343C950.723 258.278 951.062 258.311 951.369 258.439C951.677 258.567 951.939 258.783 952.124 259.061C952.309 259.339 952.408 259.665 952.408 259.999C952.407 260.447 952.23 260.876 951.915 261.192C951.599 261.509 951.172 261.687 950.726 261.688Z" fill="white"/>
<path d="M929.27 261.687C928.937 261.687 928.612 261.588 928.336 261.403C928.059 261.217 927.843 260.953 927.716 260.645C927.589 260.336 927.555 259.997 927.62 259.669C927.685 259.342 927.845 259.041 928.081 258.805C928.316 258.569 928.616 258.408 928.942 258.343C929.268 258.277 929.607 258.311 929.914 258.438C930.222 258.566 930.484 258.783 930.669 259.06C930.854 259.338 930.953 259.664 930.953 259.998C930.952 260.446 930.775 260.876 930.46 261.192C930.144 261.509 929.716 261.687 929.27 261.687Z" fill="white"/>
<path d="M947.689 253.662C947.3 253.662 946.922 253.526 946.621 253.278C946.32 253.031 946.114 252.686 946.038 252.302C945.962 251.919 946.021 251.521 946.204 251.176C946.388 250.832 946.685 250.562 947.045 250.412C947.404 250.262 947.805 250.242 948.177 250.356C948.55 250.469 948.872 250.709 949.088 251.034C949.304 251.359 949.402 251.749 949.364 252.138C949.326 252.527 949.155 252.89 948.879 253.167C948.723 253.324 948.538 253.449 948.334 253.534C948.129 253.619 947.91 253.662 947.689 253.662Z" fill="white"/>
<path d="M932.523 268.896C932.134 268.896 931.756 268.761 931.455 268.513C931.154 268.265 930.948 267.92 930.872 267.537C930.796 267.153 930.855 266.756 931.038 266.411C931.222 266.066 931.519 265.796 931.879 265.646C932.238 265.497 932.638 265.477 933.011 265.59C933.384 265.704 933.706 265.943 933.922 266.268C934.139 266.593 934.236 266.983 934.198 267.372C934.16 267.761 933.989 268.125 933.713 268.401C933.557 268.558 933.372 268.683 933.168 268.768C932.963 268.853 932.744 268.897 932.523 268.896Z" fill="white"/>
<path d="M947.484 269.101C947.095 269.101 946.717 268.966 946.416 268.718C946.115 268.47 945.909 268.125 945.833 267.742C945.757 267.358 945.816 266.96 946 266.616C946.183 266.271 946.48 266.001 946.84 265.851C947.199 265.702 947.6 265.682 947.972 265.795C948.345 265.909 948.667 266.148 948.883 266.473C949.1 266.798 949.197 267.189 949.159 267.578C949.12 267.967 948.949 268.33 948.674 268.607C948.518 268.764 948.332 268.888 948.128 268.973C947.924 269.058 947.705 269.102 947.484 269.101Z" fill="white"/>
<path d="M932.309 253.877C931.919 253.877 931.542 253.742 931.241 253.494C930.94 253.246 930.733 252.901 930.657 252.517C930.581 252.134 930.64 251.736 930.824 251.391C931.007 251.046 931.304 250.776 931.664 250.627C932.024 250.477 932.424 250.457 932.797 250.571C933.17 250.684 933.492 250.924 933.708 251.249C933.924 251.574 934.021 251.964 933.983 252.353C933.945 252.742 933.774 253.106 933.498 253.382C933.342 253.54 933.157 253.664 932.953 253.749C932.749 253.834 932.53 253.877 932.309 253.877Z" fill="white"/>
<path opacity="0.29" d="M974.377 254.892C974.069 254.887 973.771 254.775 973.536 254.573C973.302 254.372 973.145 254.094 973.092 253.789C971.65 246.038 967.553 239.038 961.509 234C955.466 228.962 947.857 226.205 940.001 226.205C932.145 226.205 924.537 228.962 918.493 234C912.45 239.038 908.352 246.038 906.91 253.789C906.857 254.094 906.7 254.372 906.466 254.573C906.231 254.774 905.934 254.887 905.625 254.892H905.561C905.37 254.891 905.181 254.849 905.008 254.767C904.835 254.686 904.682 254.567 904.56 254.419C904.437 254.272 904.349 254.099 904.3 253.913C904.252 253.728 904.245 253.534 904.279 253.345C905.828 244.971 910.248 237.406 916.773 231.961C923.298 226.516 931.515 223.535 940.001 223.535C948.486 223.535 956.704 226.516 963.229 231.961C969.753 237.406 974.173 244.971 975.722 253.345C975.757 253.534 975.75 253.728 975.701 253.913C975.653 254.099 975.564 254.272 975.442 254.42C975.32 254.567 975.166 254.686 974.993 254.768C974.82 254.849 974.631 254.891 974.44 254.892H974.377Z" fill="white"/>
</g>
<defs>
<linearGradient id="paint0_linear_1276_5775" x1="816.421" y1="141.042" x2="816.421" y2="78.0664" gradientUnits="userSpaceOnUse">
<stop stop-color="white"/>
<stop offset="1"/>
</linearGradient>
<linearGradient id="paint1_linear_1276_5775" x1="852.733" y1="141.048" x2="852.733" y2="107.451" gradientUnits="userSpaceOnUse">
<stop stop-color="white"/>
<stop offset="1"/>
</linearGradient>
<linearGradient id="paint2_linear_1276_5775" x1="852.224" y1="111.638" x2="882.59" y2="111.638" gradientUnits="userSpaceOnUse">
<stop stop-color="white"/>
<stop offset="1"/>
</linearGradient>
<clipPath id="clip0_1276_5775">
<rect width="1000" height="300" fill="white"/>
</clipPath>
</defs>
</svg>
