<svg width="400" height="600" viewBox="0 0 400 600" fill="none" xmlns="http://www.w3.org/2000/svg">
<path d="M400 199.592C400 239.071 388.269 277.664 366.289 310.489C344.31 343.313 313.069 368.895 276.519 383.999C239.969 399.104 199.752 403.052 160.954 395.344C122.155 387.637 86.5185 368.62 58.551 340.699C30.5836 312.778 11.5423 277.206 3.83392 238.484C-3.87444 199.762 0.0962003 159.628 15.2456 123.159C30.3949 86.6892 56.0417 55.5221 88.9417 33.5998C121.842 11.6776 160.518 -0.0151887 200.078 1.48074e-05C253.108 0.0183581 303.96 21.0551 341.452 58.4842C378.943 95.9132 400.002 146.67 400 199.592Z" fill="#7AA04D"/>
<path d="M65.9458 245.35L73.1853 235.82L135.572 282.552V217.218L80.58 162.337L88.9748 153.882L135.572 200.462V146.196H147.588V291.392L188.023 321.676V148.732L138.114 98.9248L146.587 90.5471L188.023 131.899V81.5537H211.901V170.792L274.596 108.148L283.068 116.681L211.901 187.626V268.179L313.568 166.642L322.04 175.02L247.176 249.808L319.036 281.245L314.338 292.084L238.164 258.802L211.901 285.013V600H188.023V336.588L65.9458 245.35Z" fill="#624F40"/>
</svg>
