<svg width="1000" height="375" viewBox="0 0 1000 375" fill="none" xmlns="http://www.w3.org/2000/svg">
<g clip-path="url(#clip0_2175_282)">
<path d="M653.573 253.611L678.186 340.34C678.755 344.137 680.033 347.933 682.097 351.568C684.159 355.21 703.566 375.004 703.566 375.004H656.406L641.003 354.748C640.246 353.75 639.536 352.736 638.845 351.665C638.179 350.611 637.549 349.547 636.971 348.469L586.094 253.611H653.573Z" fill="#957B48"/>
<path d="M686.729 370.832C686.729 369.38 687.369 367.928 688.638 366.842C689.906 365.73 691.589 365.179 693.266 365.179H694.112C699.032 370.362 703.566 375.003 703.566 375.003H686.729V370.832Z" fill="#AAA793"/>
<path d="M409.881 245.256C409.868 245.337 406.789 248.03 406.789 248.03L315.923 324.027C313.546 326.006 311.647 328.513 310.491 331.384C309.349 334.288 309.081 337.258 309.551 340.105L312.685 359.177L336.618 375.004H300.952L285.121 367.76C280.205 365.497 276.032 361.951 273.429 357.279C270.826 352.63 270.177 347.609 271.197 342.879L278.523 308.856L327.14 236.527L409.881 245.256Z" fill="#957B48"/>
<path d="M315.777 369.114C315.777 367.832 316.346 366.542 317.479 365.561C318.62 364.587 320.11 364.084 321.605 364.084H320.115L336.618 375.004H315.777V369.114Z" fill="#AAA793"/>
<path d="M79.5679 305.22C131.361 284.874 170.086 220.9 197.882 191.087C248.477 136.833 313.254 55.5269 444.618 40.2636C575.991 25.0003 651.778 120.949 651.778 120.949H727.56L829.446 234.699C829.446 234.699 763.146 255.208 738.931 255.061C727.598 254.997 694.718 246.332 694.718 246.332L678.59 255.905C672.275 261.332 664.658 265.859 655.88 268.99C647.121 272.13 638.033 273.59 629.091 273.59C629.091 273.59 550.723 279.78 506.519 277.97C443.527 275.367 300.613 243.072 300.613 243.072C300.613 243.072 222.999 317.672 102.302 337.937C56.8338 345.555 12.8358 338.099 3.35735 334.279C-1.24762 332.429 -0.988741 326.434 3.35735 325.574C27.9903 320.658 38.0982 321.509 79.5679 305.22Z" fill="#A0834F"/>
<path d="M98.5144 331.927C219.206 311.67 301.873 222.898 301.873 222.898C301.873 222.898 430.239 246.553 506.519 248.516C591.145 250.698 637.877 225.623 637.877 225.623C646.82 225.623 694.718 216.902 694.718 216.902C694.718 216.902 728.227 222.273 739.567 222.362C755.036 222.443 784.316 208.222 805.866 202.178L829.446 234.7C829.446 234.7 763.146 255.209 738.932 255.062C727.598 254.998 694.718 246.333 694.718 246.333L678.591 255.906C672.275 261.333 664.658 265.86 655.88 268.992C647.121 272.131 638.033 273.591 629.091 273.591C629.091 273.591 550.723 279.781 506.519 277.971C443.527 275.368 300.613 243.073 300.613 243.073C300.613 243.073 222.999 317.673 102.302 337.938C60.6497 344.914 20.2414 339.252 6.47363 335.318C37.8817 337.37 62.764 337.938 98.5144 331.927Z" fill="#B69458"/>
<path d="M591.07 207.136L558.059 269.113C556.955 271.19 556.25 273.462 556.062 275.871C555.869 278.289 556.207 280.609 556.968 282.791L579.665 347.803C580.112 349.085 580.671 350.35 581.347 351.608C582.024 352.873 582.8 354.049 583.655 355.169L598.715 375.004H645.88C645.88 375.004 629.001 355.21 626.948 351.567C624.876 347.933 623.593 344.137 623.034 340.339L623.983 278.329L668.408 250.926C674.7 247.064 691.565 231.075 694.131 209.432C695.785 195.576 689.831 181.33 675.405 173.299C660.983 165.284 644.184 167.677 629.551 173.526C606.934 182.555 593.899 201.814 591.07 207.136Z" fill="#AC8C53"/>
<path d="M629.456 371.603C629.456 369.957 630.185 368.335 631.632 367.069C633.094 365.812 634.996 365.179 636.9 365.179H637.633C641.932 370.362 645.88 375.003 645.88 375.003H629.456V371.603Z" fill="#B0AD98"/>
<path d="M614.372 372.279C614.372 370.948 614.959 369.634 616.125 368.628C617.29 367.622 618.827 367.127 620.345 367.127H620.932C624.4 371.273 627.562 375.004 627.562 375.004H614.372V372.279Z" fill="#B0AD98"/>
<path d="M295.651 177.356C291.615 153.595 302 128.683 325.401 112.726C348.784 96.7606 379.272 93.7917 405.107 102.666L401.258 101.344C416.305 106.496 429.914 115.232 440.233 127.296C450.547 139.366 456.148 153.157 457.427 167.086L463.583 234.216C463.977 238.54 463.7 242.952 462.643 247.414C461.595 251.86 459.837 256.029 457.516 259.851L411.752 333.453C410.328 335.766 409.666 338.451 410.018 341.225C410.389 344.04 411.728 346.514 413.707 348.502L440.407 375.005H383.989L363.591 337.964C362.321 335.676 361.49 333.17 361.161 330.517C360.832 327.864 361.058 325.244 361.725 322.786L383.148 244.891L335.955 225.567C325.678 221.374 316.393 214.998 309.156 206.536C301.91 198.091 297.568 188.56 295.91 178.857L295.651 177.356Z" fill="#AC8C53"/>
<path d="M420.196 369.723C420.196 368.278 420.84 366.843 422.113 365.74C423.396 364.644 425.06 364.084 426.718 364.084H429.421L440.407 375.004H420.196V369.723Z" fill="#B0AD98"/>
<path d="M403.124 370.663C403.124 369.463 403.655 368.271 404.698 367.362C405.75 366.47 407.132 366.015 408.509 366.015H410.732L419.777 375.003H403.124V370.663Z" fill="#B0AD98"/>
<path d="M805.852 140.525C805.852 140.525 829.15 130.125 860.93 125.461C877.974 122.978 927.019 122.913 942.389 120.909C974.061 116.74 1000 99.7114 1000 99.7114C1000 99.7114 980.94 133.678 924.486 141.401C889.543 146.196 861.926 152.369 856.785 154.77C846.697 159.523 843.943 168.642 843.943 168.642C820.659 164.31 809.357 154.259 805.852 140.525Z" fill="#A3854E"/>
<path d="M760.185 182.31C760.185 182.31 758.174 221.298 777.854 235.989C808.379 258.777 861.389 246.681 861.389 246.681C883.419 255.841 898.828 249.886 911.637 241.733L910.965 249.464C910.965 249.464 935.603 235.397 932.98 215.587C930.222 194.787 911.407 179.934 884.787 174.587C877.028 173.03 862.302 168.041 854.046 163.887C845.78 159.726 819.163 132.184 819.163 132.184L760.185 182.31Z" fill="#A88852"/>
<path d="M760.939 198.626C762.419 211.095 766.554 227.546 777.869 235.982C808.38 258.787 861.391 246.667 861.391 246.667C883.129 255.696 898.434 250.058 911.112 242.075C911.31 241.945 911.479 241.84 911.638 241.734L910.966 249.465C910.966 249.465 935.604 235.391 932.982 215.589C930.238 194.789 911.427 179.935 884.788 174.589C877.029 173.023 862.303 168.042 854.047 163.888C846.57 160.133 824.08 137.239 819.86 132.916L819.828 132.9C819.395 132.429 819.165 132.218 819.165 132.218L818.761 132.567L760.186 182.311C760.186 182.311 759.834 189.369 760.939 198.626Z" fill="#C5A05F"/>
<path d="M644.042 106.963L650.259 95.1925L646.044 82.7726L655.024 72.4046L653.647 59.5146L664.605 50.6718L665.7 37.7569L680.333 31.7784L679.647 16.1255L695.469 15.9269L703.345 0.00244141L705.798 15.3305L754.222 205.293L744.593 211.32L736.172 202.899L721.215 201.788L712.709 191.137L698.011 188.5L691.253 176.948L677.204 172.389L672.908 160.002L660.197 153.115L659.164 140.216L648.722 130.919L651.433 118.207L644.042 106.963Z" fill="#7E673C"/>
<path d="M845.554 209.952C843.858 208.102 836.955 204.743 836.029 204.687L836.264 152.443C842.98 158.747 849.844 164.783 853.345 166.55C861.606 170.729 876.343 175.701 884.106 177.267C910.731 182.605 929.537 197.466 932.304 218.259C932.647 220.83 932.511 223.313 932.032 225.657C927.511 239.992 910.966 249.467 910.966 249.467L911.637 241.735C911.478 241.841 911.309 241.946 911.111 242.076C911.065 242.101 911.013 242.125 910.966 242.166C910.943 242.019 910.994 241.857 910.966 241.735C907.836 226.882 896.939 229.332 883.42 229.551C870.45 229.753 843.943 225.308 843.943 225.308C843.943 225.308 847.401 211.915 845.554 209.952Z" fill="#957B48"/>
<path d="M753.987 205.875C756.016 202.607 758.54 200.246 760.937 198.623C764.555 196.068 767.764 195.2 767.764 195.2C767.764 195.2 780.63 219.342 801.283 218.563C821.94 217.76 836.592 204.294 836.592 204.294C836.592 204.294 846.695 205.875 848.523 207.863C850.375 209.843 847.292 223.025 847.292 223.025C847.292 223.025 871.126 227.081 884.105 226.862C897.629 226.659 908.531 224.217 911.637 239.038C911.839 239.971 911.609 240.977 911.11 242.072C911.308 241.943 911.477 241.837 911.637 241.732L910.965 249.463C910.965 249.463 935.603 235.388 932.98 215.586C930.236 194.786 911.426 179.933 884.786 174.586C877.028 173.02 862.301 168.039 854.045 163.886C846.568 160.13 824.079 137.237 819.859 132.913L819.826 132.897C819.483 132.799 819.13 132.678 818.76 132.564C749.349 109.541 717.287 67.7148 705.798 15.3291C667.72 43.4508 599.79 150.412 753.987 205.875Z" fill="#B19055"/>
<path d="M921.366 192.556C927.71 198.957 931.816 206.729 932.981 215.587C935.604 235.39 910.966 249.464 910.966 249.464L911.638 241.733C911.478 241.838 911.31 241.944 911.111 242.073C911.61 240.978 911.84 239.972 911.638 239.04C909.359 228.186 902.902 226.612 894.299 226.612L918.725 209.267L921.366 192.556Z" fill="#B0AD98"/>
<path d="M804.023 127.057C804.023 127.057 827.322 116.649 859.097 112.001C876.131 109.494 925.176 109.462 940.561 107.442C972.219 103.272 998.158 86.2363 998.158 86.2363C998.158 86.2363 979.108 120.219 922.657 127.942C887.695 132.728 860.098 138.893 854.962 141.311C844.872 146.049 842.114 155.175 842.114 155.175C818.811 150.843 807.51 140.799 804.023 127.057Z" fill="#D8AE64"/>
<path d="M880.317 173.696C880.317 173.696 910.049 172.819 918.174 171.319C929.536 169.234 942.285 159.434 942.285 159.434C939.061 171.951 933.065 183.284 922.657 192.711C904.768 190.577 888.955 186.107 880.317 173.696Z" fill="#D8AE64"/>
<path d="M895.092 197.611C894.589 200.256 898.316 202.073 903.251 202.641C908.4 203.217 913.222 201.927 913.222 201.927C913.222 201.927 909.748 198.852 905.059 196.898C899.923 194.764 895.736 194.082 895.092 197.611Z" fill="#7E673C"/>
<path d="M814.066 169.979C812.03 175.715 816.739 182.002 824.549 184.046C832.359 186.082 840.3 183.097 842.316 177.353C844.328 171.618 839.614 165.339 831.828 163.279C824.009 161.251 816.058 164.26 814.066 169.979Z" fill="#7E673C"/>
<path d="M820.546 171.668C819.442 174.775 822.003 178.174 826.213 179.269C830.451 180.38 834.751 178.766 835.832 175.675C836.918 172.568 834.385 169.161 830.146 168.049C825.931 166.963 821.622 168.569 820.546 171.668Z" fill="black"/>
<path d="M826.236 173.656C826.236 172.755 827.125 171.993 828.186 171.993C829.253 171.993 830.118 172.755 830.118 173.656C830.118 174.597 829.253 175.343 828.186 175.343C827.125 175.343 826.236 174.597 826.236 173.656Z" fill="white"/>
<path d="M691.48 37.0423C701.042 57.5382 715.859 76.6626 733.597 92.5714C741.459 99.5883 750.016 106.338 759.518 111.708C770.246 117.752 781.19 122.449 793.009 126.651C780.133 120.794 767.666 114.49 757.047 105.786C748.052 98.4444 739.627 90.6242 732.588 81.8387C722.93 69.7835 715.38 57.1935 708.721 43.7635C707.518 40.9076 706.263 38.1048 705.21 35.1965C704.561 33.3881 704.116 31.5787 702.339 30.2803C696.973 26.3586 688.848 31.4202 691.48 37.0423Z" fill="#C16B28"/>
<path d="M675.005 66.248C689.793 82.5621 708.519 96.3692 728.378 107.864C747.869 119.66 769.946 127.374 792.553 133.386C768.141 124.567 745.28 113.389 725.539 98.0082C713.683 88.8165 702.612 78.8954 693.068 67.8629C691.174 65.6723 689.309 63.4411 687.565 61.1459C686.184 59.32 685.005 57.5398 682.397 56.8785C676.062 55.2437 671.038 61.7705 675.005 66.248Z" fill="#C16B28"/>
<path d="M669.281 99.9884C687.969 111.086 709.186 119.255 730.158 126.588C749.166 133.232 768.71 138.205 788.417 143.089C764.602 134.708 740.727 126.175 718.627 114.664C706.278 108.23 693.9 101.749 682.58 93.9849C679.102 91.5917 675.198 87.6816 670.273 89.5715C665.367 91.4704 664.855 97.4249 669.281 99.9884Z" fill="#C16B28"/>
<path d="M680.982 143.081C688.596 140.469 725.69 140.631 735.459 141.945C751.794 144.103 767.643 147.77 783.583 151.412C761.648 143.162 739.317 134.376 715.535 130.856C703.087 129.006 690.029 127.108 677.425 129.209C672.595 130.068 668.667 133.265 669.752 137.873C670.767 142.229 676.232 144.719 680.982 143.081Z" fill="#C16B28"/>
<path d="M716.908 174.647C729.191 156.45 756.31 156.499 777.855 157.943C759.275 153.011 739.882 149.612 721.039 155.688C714.323 157.846 703.393 163.087 701.555 169.649C699.333 177.583 712.5 181.858 716.908 174.647C716.879 174.663 714.784 178.127 716.908 174.647Z" fill="#C16B28"/>
<path d="M751.065 189.93C750.966 183.894 753.503 177.469 757.939 172.82C762.657 167.897 769.438 166.437 776.487 165.868C769.456 164.311 763.089 163.97 756.234 166.282C748.588 168.643 743.165 174.459 738.828 180.065C735.971 184.227 731.868 190.011 736.257 194.473C741.192 199.445 750.848 196.42 751.065 189.93Z" fill="#C16B28"/>
<path d="M549.882 77.6878C549.882 82.5308 554.407 86.4326 559.99 86.4326C565.563 86.4326 570.093 82.5308 570.093 77.6878C570.093 72.8689 565.563 68.9829 559.99 68.9829C554.407 68.9829 549.882 72.8689 549.882 77.6878Z" fill="#B19055"/>
<path d="M511.143 63.1664C511.143 66.7683 514.535 69.7048 518.722 69.7048C522.91 69.7048 526.302 66.7683 526.302 63.1664C526.302 59.557 522.91 56.6196 518.722 56.6196C514.535 56.6196 511.143 59.557 511.143 63.1664Z" fill="#B19055"/>
<path d="M468.193 59.5323C468.193 63.9541 472.347 67.5228 477.46 67.5228C482.577 67.5228 486.727 63.9541 486.727 59.5323C486.727 55.1154 482.577 51.5376 477.46 51.5376C472.347 51.5376 468.193 55.1154 468.193 59.5323Z" fill="#B19055"/>
<path d="M432.832 60.9766C432.832 63.3939 435.096 65.3411 437.879 65.3411C440.67 65.3411 442.935 63.3939 442.935 60.9766C442.935 58.575 440.67 56.6196 437.879 56.6196C435.096 56.6196 432.832 58.575 432.832 60.9766Z" fill="#B19055"/>
<path d="M392.405 64.253C392.405 67.668 395.61 70.4343 399.562 70.4343C403.519 70.4343 406.728 67.668 406.728 64.253C406.728 60.8297 403.519 58.0718 399.562 58.0718C395.61 58.0718 392.405 60.8297 392.405 64.253Z" fill="#B19055"/>
<path d="M355.362 74.7837C355.362 78.0118 358.365 80.6003 362.086 80.6003C365.808 80.6003 368.825 78.0118 368.825 74.7837C368.825 71.5789 365.808 68.9829 362.086 68.9829C358.365 68.9829 355.362 71.5789 355.362 74.7837Z" fill="#B19055"/>
<path d="M325.039 89.329C325.039 92.136 327.685 94.4237 330.937 94.4237C334.193 94.4237 336.834 92.136 336.834 89.329C336.834 86.5221 334.193 84.251 330.937 84.251C327.685 84.251 325.039 86.5229 325.039 89.329Z" fill="#B19055"/>
<path d="M590.299 100.597C590.299 104.012 593.513 106.778 597.46 106.778C601.407 106.778 604.612 104.012 604.612 100.597C604.612 97.1816 601.407 94.4229 597.46 94.4229C593.512 94.4229 590.299 97.1816 590.299 100.597Z" fill="#B19055"/>
<path d="M617.239 121.681C617.239 124.69 620.072 127.124 623.555 127.124C627.055 127.124 629.88 124.69 629.88 121.681C629.88 118.671 627.055 116.221 623.555 116.221C620.072 116.221 617.239 118.671 617.239 121.681Z" fill="#B19055"/>
<path d="M555.779 116.22C555.779 119.433 558.787 122.044 562.503 122.044C566.23 122.044 569.242 119.433 569.242 116.22C569.242 113.015 566.23 110.404 562.503 110.404C558.787 110.404 555.779 113.015 555.779 116.22Z" fill="#B19055"/>
<path d="M517.882 97.6904C517.882 101.105 521.091 103.863 525.034 103.863C528.981 103.863 532.195 101.105 532.195 97.6904C532.195 94.2671 528.981 91.5083 525.034 91.5083C521.091 91.5083 517.882 94.2671 517.882 97.6904Z" fill="#B19055"/>
<path d="M477.45 91.8768C477.45 96.0951 481.421 99.5026 486.308 99.5026C491.177 99.5026 495.143 96.0951 495.143 91.8768C495.143 87.6502 491.177 84.251 486.308 84.251C481.421 84.251 477.45 87.6502 477.45 91.8768Z" fill="#B19055"/>
<path d="M436.196 88.9634C436.196 92.3784 439.401 95.1446 443.353 95.1446C447.31 95.1446 450.515 92.3784 450.515 88.9634C450.515 85.5559 447.31 82.7896 443.353 82.7896C439.401 82.7896 436.196 85.5559 436.196 88.9634Z" fill="#B19055"/>
<path d="M402.514 90.7878C402.514 93.1977 404.774 95.144 407.56 95.144C410.356 95.144 412.617 93.1977 412.617 90.7878C412.617 88.378 410.356 86.4316 407.56 86.4316C404.774 86.4316 402.514 88.3788 402.514 90.7878Z" fill="#B19055"/>
<path d="M590.299 130.03C590.299 132.049 592.188 133.671 594.514 133.671C596.835 133.671 598.715 132.049 598.715 130.03C598.715 128.033 596.835 126.411 594.514 126.411C592.188 126.411 590.299 128.033 590.299 130.03Z" fill="#B19055"/>
<path d="M288.827 114.047C288.827 117.26 291.844 119.872 295.566 119.872C299.282 119.872 302.299 117.26 302.299 114.047C302.299 110.833 299.282 108.23 295.566 108.23C291.844 108.23 288.827 110.834 288.827 114.047Z" fill="#B19055"/>
<path d="M260.197 143.486C260.197 147.299 263.778 150.397 268.2 150.397C272.613 150.397 276.203 147.299 276.203 143.486C276.203 139.665 272.613 136.574 268.2 136.574C263.778 136.574 260.197 139.665 260.197 143.486Z" fill="#B19055"/>
<path d="M229.883 173.29C229.883 177.905 234.22 181.653 239.572 181.653C244.91 181.653 249.248 177.905 249.248 173.29C249.248 168.665 244.91 164.934 239.572 164.934C234.22 164.934 229.883 168.665 229.883 173.29Z" fill="#B19055"/>
<path d="M210.508 198.723C210.508 201.733 213.332 204.167 216.829 204.167C220.32 204.167 223.144 201.733 223.144 198.723C223.144 195.714 220.32 193.28 216.829 193.28C213.332 193.28 210.508 195.714 210.508 198.723Z" fill="#B19055"/>
<path d="M187.778 223.082C187.778 226.693 191.167 229.621 195.358 229.621C199.545 229.621 202.938 226.693 202.938 223.082C202.938 219.448 199.545 216.536 195.358 216.536C191.167 216.536 187.778 219.448 187.778 223.082Z" fill="#B19055"/>
<path d="M163.357 253.246C163.357 256.264 166.182 258.697 169.669 258.697C173.16 258.697 175.989 256.264 175.989 253.246C175.989 250.236 173.16 247.794 169.669 247.794C166.182 247.794 163.357 250.236 163.357 253.246Z" fill="#B19055"/>
<path d="M136.407 280.853C136.407 283.473 138.86 285.59 141.877 285.59C144.903 285.59 147.356 283.473 147.356 280.853C147.356 278.257 144.903 276.165 141.877 276.165C138.86 276.165 136.407 278.257 136.407 280.853Z" fill="#B19055"/>
<path d="M104.401 304.134C104.401 306.325 106.488 308.117 109.04 308.117C111.601 308.117 113.668 306.325 113.668 304.134C113.668 301.92 111.601 300.119 109.04 300.119C106.488 300.119 104.401 301.92 104.401 304.134Z" fill="#B19055"/>
<path d="M263.565 183.828C263.565 187.04 266.587 189.645 270.309 189.645C274.025 189.645 277.033 187.04 277.033 183.828C277.033 180.624 274.025 178.004 270.309 178.004C266.587 178.004 263.565 180.624 263.565 183.828Z" fill="#B19055"/>
<path d="M229.878 219.435C229.878 222.241 232.519 224.529 235.775 224.529C239.032 224.529 241.668 222.241 241.668 219.435C241.668 216.629 239.032 214.364 235.775 214.364C232.519 214.364 229.878 216.628 229.878 219.435Z" fill="#B19055"/>
<path d="M199.564 248.167C199.564 250.763 202.008 252.88 205.039 252.88C208.056 252.88 210.509 250.763 210.509 248.167C210.509 245.555 208.056 243.438 205.039 243.438C202.008 243.438 199.564 245.555 199.564 248.167Z" fill="#B19055"/>
<path d="M173.46 277.971C173.46 280.17 175.528 281.946 178.094 281.946C180.65 281.946 182.722 280.17 182.722 277.971C182.722 275.749 180.65 273.964 178.094 273.964C175.528 273.964 173.46 275.749 173.46 277.971Z" fill="#B19055"/>
<path d="M133.033 304.491C133.033 306.487 134.922 308.117 137.244 308.117C139.574 308.117 141.459 306.487 141.459 304.491C141.459 302.479 139.574 300.849 137.244 300.849C134.922 300.849 133.033 302.479 133.033 304.491Z" fill="#B19055"/>
<path d="M68.1992 321.942C68.1992 324.351 70.4599 326.306 73.2508 326.306C76.0416 326.306 78.2974 324.351 78.2974 321.942C78.2974 319.533 76.0426 317.585 73.2508 317.585C70.4589 317.585 68.1992 319.533 68.1992 321.942Z" fill="#B19055"/>
<path d="M447.982 116.948C447.982 119.771 450.623 122.043 453.875 122.043C457.141 122.043 459.782 119.771 459.782 116.948C459.782 114.142 457.141 111.854 453.875 111.854C450.623 111.854 447.982 114.142 447.982 116.948Z" fill="#B19055"/>
<path d="M490.932 119.871C490.932 122.273 493.187 124.219 495.988 124.219C498.774 124.219 501.039 122.273 501.039 119.871C501.039 117.454 498.774 115.499 495.988 115.499C493.187 115.499 490.932 117.454 490.932 119.871Z" fill="#B19055"/>
<path d="M526.302 127.124C526.302 129.143 528.181 130.758 530.517 130.758C532.838 130.758 534.723 129.143 534.723 127.124C534.723 125.119 532.838 123.505 530.517 123.505C528.181 123.505 526.302 125.119 526.302 127.124Z" fill="#B19055"/>
<path d="M625.27 151.103C625.27 153.326 627.337 155.094 629.884 155.094C632.426 155.094 634.484 153.326 634.484 151.103C634.484 148.913 632.426 147.144 629.884 147.144C627.337 147.144 625.27 148.913 625.27 151.103Z" fill="#B19055"/>
<path d="M572.611 150.397C572.611 152.392 574.496 154.031 576.831 154.031C579.148 154.031 581.037 152.392 581.037 150.397C581.037 148.377 579.148 146.754 576.831 146.754C574.496 146.754 572.611 148.377 572.611 150.397Z" fill="#B19055"/>
<path d="M527.983 156.563C527.983 159.176 530.437 161.301 533.457 161.301C536.478 161.301 538.932 159.176 538.932 156.563C538.932 153.959 536.479 151.834 533.457 151.834C530.436 151.834 527.983 153.959 527.983 156.563Z" fill="#B19055"/>
<path d="M477.459 158.737C477.459 161.366 479.907 163.475 482.929 163.475C485.955 163.475 488.398 161.366 488.398 158.737C488.398 156.141 485.955 154.032 482.929 154.032C479.907 154.032 477.459 156.141 477.459 158.737Z" fill="#B19055"/>
<path d="M586.094 174.378C586.094 176.381 587.968 178.004 590.299 178.004C592.625 178.004 594.515 176.381 594.515 174.378C594.515 172.358 592.625 170.736 590.299 170.736C587.968 170.736 586.094 172.358 586.094 174.378Z" fill="#B19055"/>
<path d="M474.091 182.733C474.091 185.337 476.544 187.471 479.57 187.471C482.587 187.471 485.04 185.337 485.04 182.733C485.04 180.121 482.587 178.004 479.57 178.004C476.544 178.004 474.091 180.121 474.091 182.733Z" fill="#B19055"/>
<path d="M543.139 182.734C543.139 184.551 544.835 186.011 546.935 186.011C549.026 186.011 550.723 184.551 550.723 182.734C550.723 180.933 549.026 179.473 546.935 179.473C544.835 179.473 543.139 180.933 543.139 182.734Z" fill="#B19055"/>
<path d="M509.455 185.28C509.455 186.886 510.968 188.184 512.824 188.184C514.69 188.184 516.189 186.886 516.189 185.28C516.189 183.666 514.69 182.367 512.824 182.367C510.968 182.367 509.455 183.666 509.455 185.28Z" fill="#B19055"/>
</g>
<defs>
<clipPath id="clip0_2175_282">
<rect width="1000" height="375" fill="white"/>
</clipPath>
</defs>
</svg>
