<svg width="1000" height="150" viewBox="0 0 1000 150" fill="none" xmlns="http://www.w3.org/2000/svg">
<g clip-path="url(#clip0_1276_6069)">
<path d="M974.923 131.401H528.65V136.71H974.923V131.401Z" fill="#2D4F7A"/>
<path d="M992.042 126.906C994.945 122.297 997.158 117.22 998.597 111.863C1000.67 103.894 1000.44 95.4308 997.945 87.6068C991.11 65.8824 979.276 44.4303 962.444 23.2506C956.707 16.0411 949.602 10.257 941.615 6.29266C933.628 2.32832 924.946 0.276893 916.161 0.278321H527.002C525.518 0.278317 524.049 0.595105 522.677 1.21061C521.306 1.82611 520.06 2.72827 519.011 3.86558C517.961 5.00288 517.129 6.35306 516.561 7.83903C515.993 9.32499 515.701 10.9177 515.701 12.5261V122.894C515.701 125.151 516.528 127.316 518.001 128.912C519.473 130.508 521.471 131.405 523.554 131.405H984.245C985.786 131.404 987.302 130.994 988.662 130.209C990.021 129.425 991.182 128.29 992.042 126.906Z" fill="#D9E6ED"/>
<circle cx="548.75" cy="136.25" r="13.75" fill="#515E67"/>
<circle cx="548.75" cy="136.25" r="12.5" fill="#72828B"/>
<circle cx="548.75" cy="136.25" r="5" fill="#5A6C74"/>
<circle cx="548.75" cy="136.25" r="1.875" fill="#515E67"/>
<circle cx="586.25" cy="136.25" r="13.75" fill="#515E67"/>
<circle cx="586.25" cy="136.25" r="12.5" fill="#72828B"/>
<circle cx="586.25" cy="136.25" r="5" fill="#5A6C74"/>
<circle cx="586.25" cy="136.25" r="1.875" fill="#515E67"/>
<circle cx="821.25" cy="136.25" r="13.75" fill="#515E67"/>
<circle cx="821.25" cy="136.25" r="12.5" fill="#72828B"/>
<circle cx="821.25" cy="136.25" r="5" fill="#5A6C74"/>
<circle cx="821.25" cy="136.25" r="1.875" fill="#515E67"/>
<circle cx="858.75" cy="136.25" r="13.75" fill="#515E67"/>
<circle cx="858.75" cy="136.25" r="12.5" fill="#72828B"/>
<circle cx="858.75" cy="136.25" r="5" fill="#5A6C74"/>
<circle cx="858.75" cy="136.25" r="1.875" fill="#515E67"/>
<path d="M533.007 85.2944H975.42C976.607 85.2952 977.775 84.971 978.816 84.3519C979.857 83.7328 980.737 82.8389 981.374 81.7531C982.011 80.6673 982.384 79.4247 982.46 78.1406C982.535 76.8566 982.311 75.5726 981.806 74.4078C975.22 59.2679 966.022 44.2702 954.212 29.4147C952.665 27.4695 951.008 25.6296 949.251 23.9058C943.861 18.6234 936.851 15.7008 929.584 15.7056H533.007C531.852 15.7056 530.743 16.2031 529.926 17.0886C529.109 17.9742 528.65 19.1753 528.65 20.4277V80.5722C528.65 81.1923 528.763 81.8063 528.982 82.3793C529.201 82.9522 529.521 83.4728 529.926 83.9113C530.331 84.3498 530.811 84.6976 531.34 84.9349C531.868 85.1722 532.435 85.2944 533.007 85.2944Z" fill="#3C6684"/>
<path d="M962.444 23.2521C959.592 19.6703 956.393 16.4309 952.902 13.5896C952.761 13.4704 952.612 13.3534 952.461 13.2353C952.242 13.0604 952.026 12.8811 951.805 12.7094V12.7315C949.851 11.2498 947.654 9.74609 947.654 9.74609C947.402 12.0445 951.805 17.016 951.805 17.016C951.805 17.016 976.898 46.4626 987.772 73.0375C989.754 77.9172 992.944 82.1072 996.988 85.1433L997.198 85.2999C990.264 64.3639 978.679 43.6813 962.444 23.2521Z" fill="#3C6684"/>
<path d="M523.554 131.401H984.245C985.581 131.401 986.902 131.092 988.119 130.494C981.617 119.928 972.809 111.265 962.476 105.273C952.144 99.2807 940.606 96.1454 928.887 96.145H515.701V122.891C515.701 124.008 515.904 125.115 516.298 126.147C516.693 127.18 517.272 128.118 518.001 128.908C518.73 129.699 519.596 130.326 520.548 130.753C521.501 131.181 522.522 131.401 523.554 131.401Z" fill="#6CBAF9"/>
<path d="M594.236 20.2686H536.243C534.072 20.2686 532.312 22.1757 532.312 24.5283V76.6586C532.312 79.0112 534.072 80.9183 536.243 80.9183H594.236C596.407 80.9183 598.167 79.0112 598.167 76.6586V24.5283C598.167 22.1757 596.407 20.2686 594.236 20.2686Z" fill="#7FA9BE"/>
<path d="M549.953 72.1949L550.971 80.9165H556.533L553.518 71.3573C553.402 70.9891 553.182 70.6695 552.89 70.4432C552.598 70.2169 552.248 70.0952 551.889 70.0952H551.66C551.416 70.0952 551.174 70.1516 550.952 70.2606C550.729 70.3696 550.53 70.5286 550.369 70.7272C550.207 70.9258 550.087 71.1594 550.015 71.4125C549.943 71.6655 549.922 71.9322 549.953 72.1949Z" fill="#4F8298"/>
<path d="M577.726 72.1949L578.745 80.9165H584.306L581.291 71.3573C581.175 70.9891 580.956 70.6695 580.664 70.4432C580.372 70.2169 580.022 70.0952 579.663 70.0952H579.434C579.189 70.0952 578.948 70.1516 578.725 70.2606C578.503 70.3696 578.304 70.5286 578.142 70.7272C577.981 70.9258 577.86 71.1595 577.788 71.4125C577.717 71.6655 577.695 71.9323 577.726 72.1949Z" fill="#4F8298"/>
<path style="mix-blend-mode:screen" opacity="0.44" d="M593.844 38.9087L536.638 38.9087C536.042 38.9087 535.47 38.6522 535.049 38.1954C534.627 37.7387 534.391 37.1192 534.391 36.4733V24.9823C534.391 24.3364 534.627 23.7169 535.049 23.2602C535.47 22.8035 536.042 22.5469 536.638 22.5469L593.844 22.5469C594.44 22.5469 595.012 22.8035 595.433 23.2602C595.855 23.7169 596.091 24.3364 596.091 24.9823V36.4733C596.091 37.1192 595.855 37.7387 595.433 38.1954C595.012 38.6521 594.44 38.9087 593.844 38.9087Z" fill="url(#paint0_linear_1276_6069)"/>
<path style="mix-blend-mode:screen" opacity="0.44" d="M582.739 76.6539L593.556 28.5474H551.499L540.681 76.6539H582.739Z" fill="url(#paint1_linear_1276_6069)"/>
<path d="M663.973 20.2686H605.979C603.808 20.2686 602.048 22.1757 602.048 24.5283V76.6586C602.048 79.0112 603.808 80.9183 605.979 80.9183H663.973C666.143 80.9183 667.903 79.0112 667.903 76.6586V24.5283C667.903 22.1757 666.143 20.2686 663.973 20.2686Z" fill="#7FA9BE"/>
<path d="M619.689 72.1949L620.708 80.9165H626.269L623.254 71.3573C623.138 70.9891 622.919 70.6695 622.627 70.4432C622.335 70.2169 621.985 70.0952 621.626 70.0952H621.396C621.152 70.0952 620.911 70.1516 620.688 70.2606C620.465 70.3696 620.267 70.5286 620.105 70.7272C619.944 70.9258 619.823 71.1594 619.751 71.4125C619.679 71.6655 619.658 71.9322 619.689 72.1949Z" fill="#4F8298"/>
<path d="M647.472 72.1949L648.491 80.9165H654.052L651.038 71.3573C650.921 70.9891 650.702 70.6695 650.41 70.4432C650.118 70.2169 649.768 70.0952 649.409 70.0952H649.18C648.935 70.0952 648.694 70.1516 648.471 70.2606C648.249 70.3696 648.05 70.5286 647.888 70.7272C647.727 70.9258 647.606 71.1595 647.534 71.4125C647.463 71.6655 647.441 71.9322 647.472 72.1949Z" fill="#4F8298"/>
<path style="mix-blend-mode:screen" opacity="0.44" d="M663.59 38.9087L606.384 38.9087C605.788 38.9087 605.216 38.6521 604.795 38.1954C604.373 37.7387 604.137 37.1192 604.137 36.4733V24.9823C604.137 24.3364 604.373 23.7169 604.795 23.2602C605.216 22.8035 605.788 22.5469 606.384 22.5469L663.59 22.5469C664.186 22.5469 664.758 22.8035 665.179 23.2602C665.601 23.7169 665.837 24.3364 665.837 24.9823V36.4733C665.837 37.1192 665.601 37.7387 665.179 38.1954C664.758 38.6521 664.186 38.9087 663.59 38.9087Z" fill="url(#paint2_linear_1276_6069)"/>
<path style="mix-blend-mode:screen" opacity="0.44" d="M652.485 76.6539L663.302 28.5474H621.245L610.427 76.6539H652.485Z" fill="url(#paint3_linear_1276_6069)"/>
<path d="M733.719 20.2715H675.725C673.555 20.2715 671.795 22.1786 671.795 24.5312V76.6615C671.795 79.0141 673.555 80.9212 675.725 80.9212H733.719C735.89 80.9212 737.65 79.0141 737.65 76.6615V24.5312C737.65 22.1786 735.89 20.2715 733.719 20.2715Z" fill="#7FA9BE"/>
<path d="M689.425 72.1949L690.444 80.9165H696.005L692.991 71.3573C692.874 70.9891 692.655 70.6695 692.363 70.4432C692.071 70.2169 691.721 70.0952 691.362 70.0952H691.133C690.888 70.0952 690.647 70.1516 690.424 70.2606C690.202 70.3696 690.003 70.5286 689.842 70.7272C689.68 70.9258 689.559 71.1594 689.488 71.4125C689.416 71.6655 689.395 71.9322 689.425 72.1949Z" fill="#4F8298"/>
<path d="M717.208 72.1949L718.227 80.9165H723.789L720.774 71.3573C720.658 70.9891 720.438 70.6695 720.146 70.4432C719.854 70.2169 719.504 70.0952 719.145 70.0952H718.916C718.672 70.0952 718.43 70.1516 718.208 70.2606C717.985 70.3696 717.786 70.5286 717.625 70.7272C717.463 70.9258 717.343 71.1595 717.271 71.4125C717.199 71.6655 717.178 71.9322 717.208 72.1949Z" fill="#4F8298"/>
<path style="mix-blend-mode:screen" opacity="0.44" d="M733.326 38.9087L676.12 38.9087C675.524 38.9087 674.953 38.6522 674.531 38.1954C674.11 37.7387 673.873 37.1192 673.873 36.4733V24.9823C673.873 24.3364 674.11 23.7169 674.531 23.2602C674.953 22.8035 675.524 22.5469 676.12 22.5469L733.326 22.5469C733.922 22.5469 734.494 22.8035 734.915 23.2602C735.337 23.7169 735.574 24.3364 735.574 24.9823V36.4733C735.574 37.1192 735.337 37.7387 734.915 38.1954C734.494 38.6521 733.922 38.9087 733.326 38.9087Z" fill="url(#paint4_linear_1276_6069)"/>
<path style="mix-blend-mode:screen" opacity="0.44" d="M722.221 76.6539L733.039 28.5474H690.981L680.164 76.6539H722.221Z" fill="url(#paint5_linear_1276_6069)"/>
<path d="M803.455 20.2686H745.461C743.291 20.2686 741.531 22.1757 741.531 24.5283V76.6586C741.531 79.0112 743.291 80.9183 745.461 80.9183H803.455C805.626 80.9183 807.386 79.0112 807.386 76.6586V24.5283C807.386 22.1757 805.626 20.2686 803.455 20.2686Z" fill="#7FA9BE"/>
<path d="M759.171 72.1949L760.19 80.9165H765.751L762.737 71.3573C762.621 70.9891 762.401 70.6695 762.109 70.4432C761.817 70.2169 761.467 70.0952 761.108 70.0952H760.879C760.635 70.0952 760.393 70.1516 760.171 70.2606C759.948 70.3696 759.749 70.5286 759.588 70.7272C759.426 70.9258 759.306 71.1594 759.234 71.4125C759.162 71.6655 759.141 71.9322 759.171 72.1949Z" fill="#4F8298"/>
<path d="M786.945 72.1949L787.963 80.9165H793.525L790.51 71.3573C790.394 70.9891 790.175 70.6695 789.883 70.4432C789.59 70.2169 789.24 70.0952 788.881 70.0952H788.652C788.408 70.0952 788.167 70.1516 787.944 70.2606C787.721 70.3696 787.523 70.5286 787.361 70.7272C787.2 70.9258 787.079 71.1595 787.007 71.4125C786.935 71.6655 786.914 71.9322 786.945 72.1949Z" fill="#4F8298"/>
<path style="mix-blend-mode:screen" opacity="0.44" d="M803.063 38.9087L745.857 38.9087C745.261 38.9087 744.689 38.6522 744.268 38.1954C743.846 37.7387 743.609 37.1192 743.609 36.4733V24.9823C743.609 24.3364 743.846 23.7169 744.268 23.2602C744.689 22.8035 745.261 22.5469 745.857 22.5469L803.063 22.5469C803.659 22.5469 804.23 22.8035 804.652 23.2602C805.073 23.7169 805.31 24.3364 805.31 24.9823V36.4733C805.31 37.1192 805.073 37.7387 804.652 38.1954C804.23 38.6521 803.659 38.9087 803.063 38.9087Z" fill="url(#paint6_linear_1276_6069)"/>
<path style="mix-blend-mode:screen" opacity="0.44" d="M791.957 76.6539L802.775 28.5474H760.718L749.9 76.6539H791.957Z" fill="url(#paint7_linear_1276_6069)"/>
<path d="M815.413 20.2715H873.406C873.922 20.2715 874.433 20.3816 874.91 20.5957C875.387 20.8098 875.82 21.1236 876.185 21.5191C876.55 21.9147 876.84 22.3843 877.038 22.9011C877.235 23.4179 877.337 23.9718 877.337 24.5312V76.6616C877.337 77.221 877.235 77.7749 877.038 78.2917C876.84 78.8086 876.55 79.2782 876.185 79.6737C875.82 80.0693 875.387 80.383 874.91 80.5971C874.433 80.8112 873.922 80.9214 873.406 80.9214H815.413C814.37 80.9214 813.37 80.4725 812.633 79.6737C811.896 78.8748 811.482 77.7914 811.482 76.6616V24.5312C811.482 23.9718 811.584 23.4179 811.781 22.901C811.979 22.3842 812.268 21.9147 812.633 21.5191C812.998 21.1236 813.431 20.8098 813.908 20.5957C814.385 20.3816 814.896 20.2715 815.413 20.2715Z" fill="#7FA9BE"/>
<path d="M829.113 72.1949L830.131 80.9165H835.693L832.678 71.3573C832.562 70.9891 832.343 70.6695 832.051 70.4432C831.758 70.2169 831.408 70.0952 831.049 70.0952H830.82C830.576 70.0952 830.335 70.1516 830.112 70.2606C829.889 70.3696 829.691 70.5286 829.529 70.7272C829.368 70.9258 829.247 71.1594 829.175 71.4125C829.103 71.6655 829.082 71.9322 829.113 72.1949Z" fill="#4F8298"/>
<path d="M856.896 72.1949L857.915 80.9165H863.476L860.461 71.3573C860.345 70.9891 860.126 70.6695 859.834 70.4432C859.542 70.2169 859.192 70.0952 858.833 70.0952H858.603C858.359 70.0952 858.118 70.1516 857.895 70.2606C857.672 70.3696 857.474 70.5286 857.312 70.7272C857.151 70.9258 857.03 71.1595 856.958 71.4125C856.887 71.6655 856.865 71.9322 856.896 72.1949Z" fill="#4F8298"/>
<path style="mix-blend-mode:screen" opacity="0.44" d="M873.014 38.9087L815.808 38.9087C815.212 38.9087 814.64 38.6522 814.219 38.1954C813.797 37.7387 813.561 37.1192 813.561 36.4733V24.9823C813.561 24.3364 813.797 23.7169 814.219 23.2602C814.64 22.8035 815.212 22.5469 815.808 22.5469L873.014 22.5469C873.61 22.5469 874.182 22.8035 874.603 23.2602C875.024 23.7169 875.261 24.3364 875.261 24.9823V36.4733C875.261 37.1192 875.024 37.7387 874.603 38.1954C874.182 38.6521 873.61 38.9087 873.014 38.9087Z" fill="url(#paint8_linear_1276_6069)"/>
<path style="mix-blend-mode:screen" opacity="0.44" d="M861.909 76.6539L872.726 28.5474H830.669L819.851 76.6539H861.909Z" fill="url(#paint9_linear_1276_6069)"/>
<path d="M913.019 17.7736H884.802C884.192 17.7736 883.587 17.9038 883.023 18.157C882.459 18.4102 881.947 18.7813 881.515 19.2491C881.083 19.7169 880.741 20.2723 880.507 20.8835C880.274 21.4947 880.154 22.1498 880.154 22.8114V120.991C880.154 121.653 880.274 122.308 880.507 122.919C880.741 123.53 881.083 124.086 881.515 124.553C881.947 125.021 882.459 125.392 883.023 125.646C883.587 125.899 884.192 126.029 884.802 126.029H909.407C910.018 126.029 910.622 125.899 911.186 125.646C911.75 125.392 912.263 125.021 912.694 124.553C913.126 124.086 913.468 123.53 913.702 122.919C913.936 122.308 914.056 121.653 914.056 120.991V22.8113C914.056 22.1497 913.936 21.4946 913.702 20.8834C913.468 20.2722 913.126 19.7168 912.694 19.249C912.263 18.7812 911.75 18.4101 911.186 18.1569C910.622 17.9037 910.018 17.7734 909.407 17.7734L913.019 17.7736Z" fill="#2D4F7A"/>
<path d="M884.604 18.9556H909.409C910.165 18.9556 910.889 19.2809 911.424 19.8598C911.958 20.4388 912.258 21.2241 912.258 22.0429V121.258C912.258 122.077 911.958 122.862 911.423 123.441C910.889 124.02 910.165 124.345 909.409 124.345H884.604C883.848 124.345 883.124 124.02 882.59 123.441C882.055 122.862 881.755 122.077 881.755 121.258V22.0429C881.755 21.2241 882.055 20.4388 882.59 19.8598C883.124 19.2809 883.848 18.9556 884.604 18.9556Z" fill="#3C6684"/>
<path d="M886.066 21.6992H907.459C907.825 21.6992 908.176 21.8569 908.435 22.1374C908.694 22.418 908.839 22.7986 908.839 23.1954V119.547C908.839 120.07 908.648 120.572 908.306 120.941C907.965 121.311 907.502 121.519 907.02 121.519H886.285C885.861 121.519 885.454 121.336 885.154 121.011C884.854 120.686 884.685 120.245 884.685 119.785V23.1953C884.685 22.9989 884.721 22.8044 884.79 22.6228C884.86 22.4413 884.961 22.2764 885.089 22.1374C885.218 21.9985 885.37 21.8883 885.537 21.8131C885.705 21.7379 885.884 21.6992 886.066 21.6992Z" fill="#2D4F7A"/>
<path d="M908.278 23.2171V119.529C908.278 119.896 908.143 120.249 907.904 120.509C907.664 120.769 907.338 120.915 906.999 120.915H886.302C886.021 120.915 885.751 120.794 885.552 120.578C885.354 120.363 885.242 120.071 885.242 119.766V23.2171C885.242 23.0975 885.264 22.9792 885.306 22.8687C885.348 22.7583 885.41 22.6579 885.488 22.5734C885.566 22.4888 885.659 22.4217 885.761 22.376C885.863 22.3302 885.972 22.3066 886.082 22.3066L907.438 22.3066C907.548 22.3066 907.658 22.3302 907.76 22.376C907.862 22.4217 907.954 22.4887 908.032 22.5733C908.11 22.6578 908.172 22.7582 908.214 22.8687C908.256 22.9791 908.278 23.0975 908.278 23.2171Z" fill="#7FA9BE"/>
<path style="mix-blend-mode:screen" opacity="0.44" d="M906.564 39.021H886.961C886.874 39.021 886.791 38.9835 886.729 38.9169C886.668 38.8502 886.633 38.7598 886.633 38.6656V24.4359C886.633 24.3417 886.668 24.2512 886.729 24.1846C886.791 24.1179 886.874 24.0805 886.961 24.0805H906.564C906.651 24.0805 906.734 24.1179 906.796 24.1846C906.857 24.2512 906.892 24.3416 906.892 24.4359V38.6656C906.892 38.7598 906.857 38.8502 906.796 38.9169C906.734 38.9835 906.651 39.021 906.564 39.021Z" fill="url(#paint10_linear_1276_6069)"/>
<g style="mix-blend-mode:multiply" opacity="0.39">
<path d="M885.251 96.1446V119.721C885.246 120.031 885.355 120.33 885.554 120.553C885.753 120.776 886.025 120.904 886.311 120.91H907.008C907.353 120.903 907.682 120.748 907.922 120.479C908.162 120.21 908.293 119.849 908.287 119.475V96.1445L885.251 96.1446Z" fill="#6BA9BC"/>
</g>
<g style="mix-blend-mode:multiply" opacity="0.39">
<path d="M885.251 106.785V119.771C885.251 119.922 885.279 120.071 885.332 120.21C885.385 120.35 885.463 120.476 885.562 120.583C885.66 120.69 885.777 120.774 885.906 120.832C886.034 120.89 886.172 120.919 886.311 120.919H907.009C907.177 120.919 907.343 120.884 907.498 120.814C907.653 120.744 907.794 120.642 907.913 120.513C908.032 120.385 908.126 120.232 908.19 120.064C908.255 119.895 908.288 119.715 908.288 119.533V106.785H885.251Z" fill="#4F8298"/>
</g>
<path d="M661.813 17.7736H606.463C605.23 17.7736 604.048 18.3043 603.176 19.2491C602.304 20.1939 601.814 21.4753 601.814 22.8114V120.991C601.814 122.327 602.304 123.609 603.176 124.553C604.048 125.498 605.23 126.029 606.463 126.029H663.507C664.118 126.029 664.722 125.899 665.286 125.646C665.85 125.392 666.363 125.021 666.794 124.553C667.226 124.086 667.568 123.53 667.802 122.919C668.036 122.308 668.156 121.653 668.156 120.991V22.8113C668.156 22.1497 668.036 21.4946 667.802 20.8834C667.568 20.2722 667.226 19.7168 666.794 19.249C666.363 18.7811 665.85 18.4101 665.286 18.1569C664.722 17.9037 664.118 17.7734 663.507 17.7734L661.813 17.7736Z" fill="#2D4F7A"/>
<path d="M638.696 18.9556H663.501C663.876 18.9556 664.246 19.0354 664.592 19.1906C664.937 19.3457 665.251 19.5732 665.516 19.8598C665.78 20.1465 665.99 20.4869 666.133 20.8614C666.276 21.236 666.35 21.6375 666.35 22.0429V121.258C666.35 122.077 666.05 122.862 665.516 123.441C664.982 124.02 664.257 124.345 663.501 124.345H638.696C637.941 124.345 637.216 124.02 636.682 123.441C636.148 122.862 635.847 122.077 635.847 121.258V22.0429C635.847 21.2241 636.148 20.4388 636.682 19.8598C637.216 19.2809 637.941 18.9556 638.696 18.9556Z" fill="#3C6684"/>
<path d="M640.167 21.6992H661.561C661.927 21.6992 662.278 21.8569 662.537 22.1374C662.796 22.418 662.941 22.7986 662.941 23.1954V119.547C662.941 120.07 662.749 120.572 662.408 120.941C662.067 121.311 661.604 121.519 661.122 121.519H640.387C639.963 121.519 639.556 121.336 639.256 121.011C638.956 120.686 638.787 120.245 638.787 119.785V23.1953C638.787 22.9989 638.823 22.8044 638.892 22.6228C638.961 22.4413 639.063 22.2764 639.191 22.1374C639.319 21.9985 639.472 21.8883 639.639 21.8131C639.807 21.7379 639.986 21.6992 640.167 21.6992Z" fill="#2D4F7A"/>
<path d="M662.381 23.217V119.528C662.381 119.896 662.246 120.249 662.006 120.509C661.766 120.769 661.441 120.915 661.102 120.915H640.404C640.123 120.915 639.854 120.794 639.655 120.578C639.456 120.363 639.344 120.071 639.344 119.766V23.2171C639.344 22.9756 639.433 22.744 639.59 22.5733C639.748 22.4025 639.962 22.3066 640.185 22.3066H661.54C661.651 22.3066 661.76 22.3301 661.862 22.3759C661.964 22.4216 662.057 22.4887 662.135 22.5733C662.213 22.6578 662.274 22.7582 662.317 22.8686C662.359 22.9791 662.381 23.0975 662.381 23.217Z" fill="#7FA9BE"/>
<path style="mix-blend-mode:screen" opacity="0.44" d="M660.666 39.021H641.063C640.976 39.021 640.893 38.9835 640.831 38.9169C640.77 38.8502 640.735 38.7598 640.735 38.6656V24.4359C640.735 24.3417 640.77 24.2512 640.831 24.1846C640.893 24.1179 640.976 24.0805 641.063 24.0805H660.666C660.753 24.0805 660.836 24.1179 660.898 24.1846C660.959 24.2512 660.994 24.3417 660.994 24.4359V38.6656C660.994 38.7122 660.985 38.7585 660.969 38.8016C660.952 38.8447 660.928 38.8839 660.898 38.9169C660.867 38.9499 660.831 38.9761 660.791 38.994C660.752 39.0118 660.709 39.021 660.666 39.021Z" fill="url(#paint11_linear_1276_6069)"/>
<g style="mix-blend-mode:multiply" opacity="0.39">
<path d="M639.353 96.1446V119.721C639.349 120.031 639.458 120.33 639.656 120.553C639.855 120.776 640.127 120.904 640.413 120.91H661.111C661.456 120.903 661.784 120.748 662.024 120.479C662.264 120.21 662.395 119.849 662.39 119.475V96.1445L639.353 96.1446Z" fill="#6BA9BC"/>
</g>
<g style="mix-blend-mode:multiply" opacity="0.39">
<path d="M639.353 106.785V119.771C639.353 119.922 639.38 120.071 639.434 120.21C639.487 120.35 639.565 120.476 639.663 120.583C639.762 120.69 639.879 120.774 640.007 120.832C640.136 120.89 640.274 120.919 640.413 120.919H661.11C661.449 120.919 661.775 120.773 662.015 120.513C662.254 120.253 662.389 119.901 662.389 119.533V106.785H639.353Z" fill="#4F8298"/>
</g>
<path d="M606.255 18.9556H631.06C631.816 18.9556 632.54 19.2809 633.075 19.8598C633.609 20.4388 633.909 21.2241 633.909 22.0429V121.258C633.909 122.077 633.609 122.862 633.075 123.441C632.54 124.02 631.816 124.345 631.06 124.345H606.255C605.499 124.345 604.775 124.02 604.241 123.441C603.706 122.862 603.406 122.077 603.406 121.258V22.0429C603.406 21.2241 603.706 20.4388 604.241 19.8598C604.775 19.2809 605.499 18.9556 606.255 18.9556Z" fill="#3C6684"/>
<path d="M607.726 21.6992H629.119C629.485 21.6992 629.836 21.8569 630.095 22.1374C630.354 22.418 630.499 22.7985 630.499 23.1953V119.547C630.499 120.07 630.308 120.572 629.967 120.941C629.625 121.311 629.162 121.519 628.68 121.519H607.946C607.521 121.519 607.114 121.336 606.814 121.011C606.514 120.686 606.345 120.245 606.345 119.785V23.1953C606.345 22.9989 606.381 22.8044 606.45 22.6228C606.52 22.4413 606.621 22.2764 606.75 22.1374C606.878 21.9985 607.03 21.8883 607.197 21.8131C607.365 21.7379 607.544 21.6992 607.726 21.6992Z" fill="#2D4F7A"/>
<path d="M629.939 23.2171V119.529C629.939 119.896 629.804 120.249 629.565 120.509C629.325 120.769 628.999 120.915 628.66 120.915H607.963C607.682 120.915 607.412 120.794 607.213 120.578C607.015 120.363 606.903 120.071 606.903 119.766V23.2171C606.903 22.9756 606.991 22.7441 607.149 22.5734C607.307 22.4026 607.52 22.3066 607.743 22.3066L629.099 22.3066C629.209 22.3066 629.319 22.3302 629.421 22.376C629.522 22.4217 629.615 22.4887 629.693 22.5733C629.771 22.6578 629.833 22.7582 629.875 22.8687C629.917 22.9792 629.939 23.0975 629.939 23.2171Z" fill="#7FA9BE"/>
<path style="mix-blend-mode:screen" opacity="0.44" d="M608.622 39.021H628.225C628.406 39.021 628.552 38.8618 628.552 38.6656V24.4359C628.552 24.2397 628.406 24.0805 628.225 24.0805H608.622C608.441 24.0805 608.294 24.2397 608.294 24.4359V38.6656C608.294 38.8618 608.441 39.021 608.622 39.021Z" fill="url(#paint12_linear_1276_6069)"/>
<g style="mix-blend-mode:multiply" opacity="0.39">
<path d="M606.912 96.1446V119.721C606.907 120.031 607.016 120.33 607.215 120.553C607.414 120.776 607.686 120.904 607.972 120.91H628.669C629.014 120.903 629.343 120.748 629.583 120.479C629.823 120.21 629.954 119.849 629.948 119.475V96.1445L606.912 96.1446Z" fill="#6BA9BC"/>
</g>
<g style="mix-blend-mode:multiply" opacity="0.39">
<path d="M606.912 106.785V119.771C606.912 119.922 606.939 120.071 606.992 120.21C607.046 120.35 607.124 120.476 607.222 120.583C607.32 120.69 607.437 120.774 607.566 120.832C607.694 120.89 607.832 120.919 607.971 120.919H628.669C628.837 120.919 629.003 120.884 629.158 120.814C629.313 120.744 629.454 120.642 629.573 120.513C629.692 120.385 629.786 120.232 629.85 120.064C629.915 119.895 629.948 119.715 629.948 119.533V106.785H606.912Z" fill="#4F8298"/>
</g>
<path d="M917.654 78.3114V22.8662C917.654 22.0005 917.971 21.1703 918.536 20.5581C919.101 19.946 919.867 19.6021 920.666 19.6021H929.672C936.069 19.5921 942.239 22.1643 946.981 26.8173C948.63 28.4364 950.186 30.1638 951.639 31.9899C963.177 46.4947 972.287 61.3425 978.716 76.1205C978.981 76.7153 979.096 77.3753 979.05 78.0337C979.004 78.6921 978.798 79.3257 978.454 79.8704C978.116 80.4024 977.663 80.8361 977.134 81.1334C976.605 81.4308 976.017 81.5826 975.421 81.5754H920.666C919.867 81.5755 919.101 81.2315 918.536 80.6194C917.971 80.0073 917.654 79.1771 917.654 78.3114Z" fill="#7FA9BE"/>
<path d="M927.569 72.8642L928.588 81.5859H934.149L931.135 72.0268C931.019 71.6586 930.799 71.3389 930.507 71.1126C930.215 70.8863 929.865 70.7646 929.506 70.7646H929.277C929.032 70.7647 928.791 70.8211 928.568 70.93C928.346 71.039 928.147 71.1981 927.985 71.3967C927.824 71.5953 927.703 71.8288 927.632 72.0819C927.56 72.3349 927.538 72.6016 927.569 72.8642Z" fill="#4F8298"/>
<path d="M959.972 72.8638L960.991 81.5854H966.552L963.538 72.0263C963.421 71.6581 963.202 71.3384 962.91 71.1121C962.618 70.8858 962.268 70.7641 961.909 70.7642H961.68C961.435 70.7642 961.194 70.8206 960.971 70.9295C960.749 71.0385 960.55 71.1976 960.388 71.3962C960.227 71.5948 960.106 71.8284 960.034 72.0814C959.963 72.3345 959.941 72.6011 959.972 72.8638Z" fill="#4F8298"/>
<path style="mix-blend-mode:screen" opacity="0.44" d="M953.56 39.0312C952.275 37.322 950.957 35.6168 949.605 33.9156C948.224 32.1808 946.746 30.5397 945.179 29.0015C940.934 24.8366 935.41 22.5345 929.684 22.544H923.217C922.462 22.544 921.737 22.8692 921.203 23.448C920.669 24.0269 920.369 24.8121 920.369 25.6308V36.2796C920.369 36.6409 920.434 36.9988 920.562 37.3326C920.69 37.6665 920.877 37.9698 921.112 38.2253C921.348 38.4808 921.628 38.6835 921.936 38.8218C922.244 38.96 922.574 39.0312 922.908 39.0312L953.56 39.0312Z" fill="url(#paint13_linear_1276_6069)"/>
<path style="mix-blend-mode:screen" opacity="0.44" d="M949.597 33.9116C948.217 32.1768 946.739 30.5357 945.172 28.9975C945.015 28.8431 944.852 28.6966 944.691 28.5474H935.952L925.134 76.6537H967.192L969.944 64.413C964.406 54.1817 957.596 43.9674 949.597 33.9116Z" fill="url(#paint14_linear_1276_6069)"/>
<path d="M962.381 23.2504C959.529 19.6686 956.33 16.4292 952.839 13.5879C952.697 13.4687 952.549 13.3517 952.397 13.2336C952.179 13.0587 951.962 12.8794 951.742 12.7077V12.7297C950.788 12.0064 949.778 11.279 948.992 10.7227C949.2 11.4768 949.525 12.1868 949.955 12.8216C950.736 14.0221 951.599 15.1579 952.536 16.2194C952.788 16.5154 977.876 46.1146 988.697 72.5611C990.117 76.0467 992.181 79.1805 994.761 81.7694C995.272 82.2663 995.819 82.7189 996.396 83.1232C989.392 62.9295 978.054 42.9719 962.381 23.2504Z" fill="#7FA9BE"/>
<path style="mix-blend-mode:screen" opacity="0.44" d="M962.381 23.2504C959.529 19.6686 956.33 16.4292 952.839 13.5879C952.697 13.4687 952.549 13.3517 952.397 13.2336C952.179 13.0587 951.962 12.8794 951.742 12.7077V12.7297C950.788 12.0064 949.778 11.279 948.992 10.7227C949.2 11.4768 949.525 12.1868 949.955 12.8216C950.736 14.0221 951.599 15.1579 952.536 16.2194C952.788 16.5154 977.876 46.1146 988.697 72.5611C990.117 76.0467 992.181 79.1805 994.761 81.7694C995.272 82.2663 995.819 82.7189 996.396 83.1232C989.392 62.9295 978.054 42.9719 962.381 23.2504Z" fill="url(#paint15_linear_1276_6069)"/>
<path d="M994.444 103.686C994.439 103.684 994.434 103.683 994.43 103.681C994.431 103.681 993.463 103.289 993.463 103.289L993.607 103.806C992.521 104.417 991.143 106.593 990.166 109.408C989.214 112.149 988.918 114.706 989.315 115.978L988.845 116.335L989.83 116.732C989.854 116.744 989.878 116.757 989.904 116.767C991.012 117.219 992.928 114.657 994.181 111.045C995.435 107.433 995.553 104.138 994.444 103.686Z" fill="#3C6684"/>
<path d="M993.161 110.616C991.907 114.229 989.992 116.791 988.883 116.339C987.774 115.887 987.892 112.592 989.145 108.98C990.399 105.367 992.314 102.805 993.423 103.257C994.532 103.709 994.415 107.004 993.161 110.616Z" fill="white"/>
<path d="M535.761 6.69367H914.458C921.317 6.69367 928.138 5.58736 934.696 3.41108C928.695 1.33636 922.434 0.279615 916.135 0.278323H526.975C526.025 0.277648 525.078 0.406623 524.158 0.662246C525.552 2.54469 527.318 4.06391 529.326 5.10781C531.334 6.15171 533.533 6.69367 535.761 6.69367Z" fill="#EBF7FB"/>
<path d="M25.0717 136.707L471.345 136.707V131.398L25.0717 131.398V136.707Z" fill="#2D4F7A"/>
<circle cx="141.25" cy="136.25" r="13.75" fill="#515E67"/>
<circle cx="141.25" cy="136.25" r="12.5" fill="#72828B"/>
<circle cx="141.25" cy="136.25" r="5" fill="#5A6C74"/>
<circle cx="141.25" cy="136.25" r="1.875" fill="#515E67"/>
<circle cx="178.75" cy="136.25" r="13.75" fill="#515E67"/>
<circle cx="178.75" cy="136.25" r="12.5" fill="#72828B"/>
<circle cx="178.75" cy="136.25" r="5" fill="#5A6C74"/>
<circle cx="178.75" cy="136.25" r="1.875" fill="#515E67"/>
<circle cx="413.75" cy="136.25" r="13.75" fill="#515E67"/>
<circle cx="413.75" cy="136.25" r="12.5" fill="#72828B"/>
<circle cx="413.75" cy="136.25" r="5" fill="#5A6C74"/>
<circle cx="413.75" cy="136.25" r="1.875" fill="#515E67"/>
<circle cx="451.25" cy="136.25" r="13.75" fill="#515E67"/>
<circle cx="451.25" cy="136.25" r="12.5" fill="#72828B"/>
<circle cx="451.25" cy="136.25" r="5" fill="#5A6C74"/>
<circle cx="451.25" cy="136.25" r="1.875" fill="#515E67"/>
<path d="M7.95712 126.906C5.05382 122.297 2.84143 117.22 1.40196 111.863C-0.668568 103.894 -0.441057 95.4308 2.05397 87.6068C8.88953 65.8824 20.7232 44.4303 37.555 23.2506C43.2924 16.0411 50.3968 10.257 58.3839 6.29266C66.371 2.32832 75.0529 0.276897 83.8378 0.278321H472.997C475.994 0.278321 478.869 1.56869 480.988 3.86558C483.108 6.16247 484.299 9.27778 484.299 12.5261V122.894C484.299 124.012 484.095 125.119 483.701 126.151C483.306 127.184 482.728 128.122 481.999 128.912C481.269 129.702 480.404 130.329 479.451 130.757C478.498 131.185 477.477 131.405 476.446 131.405H15.754C14.2138 131.404 12.6972 130.994 11.3376 130.209C9.97809 129.425 8.81722 128.29 7.95712 126.906Z" fill="#D9E6ED"/>
<path d="M466.986 85.2968H24.574C23.3867 85.2976 22.2185 84.9734 21.1776 84.3543C20.1368 83.7353 19.2571 82.8414 18.6201 81.7556C17.9831 80.6697 17.6095 79.4272 17.5338 78.1431C17.4582 76.859 17.6831 75.575 18.1875 74.4103C24.7739 59.2703 33.9718 44.2726 45.7814 29.4171C47.3288 27.4719 48.9855 25.6321 50.7422 23.9082C56.1328 18.6259 63.1425 15.7033 70.41 15.708H466.986C468.142 15.708 469.25 16.2055 470.068 17.0911C470.885 17.9766 471.344 19.1777 471.344 20.4301V80.5746C471.344 81.1948 471.231 81.8088 471.012 82.3817C470.793 82.9546 470.472 83.4752 470.068 83.9137C469.663 84.3522 469.183 84.7 468.654 84.9373C468.125 85.1747 467.559 85.2968 466.986 85.2968Z" fill="#3C6684"/>
<path d="M37.5567 23.2521C40.4089 19.6703 43.6079 16.4309 47.0985 13.5896C47.2404 13.4704 47.3888 13.3534 47.5402 13.2353C47.759 13.0604 47.9751 12.8811 48.1958 12.7094V12.7315C50.1502 11.2498 52.3465 9.74609 52.3465 9.74609C52.5984 12.0445 48.1958 17.016 48.1958 17.016C48.1958 17.016 23.1025 46.4626 12.229 73.0375C10.2466 77.9172 7.05672 82.1072 3.01254 85.1433L2.80273 85.2999C9.73685 64.3639 21.3215 43.6813 37.5567 23.2521Z" fill="#3C6684"/>
<path d="M476.44 131.401H15.7487C14.4126 131.4 13.0919 131.091 11.8749 130.493C18.3769 119.927 27.1849 111.264 37.5175 105.272C47.8501 99.2802 59.3878 96.145 71.1067 96.1445H484.293V122.89C484.293 124.008 484.09 125.114 483.695 126.147C483.301 127.179 482.722 128.118 481.993 128.908C481.264 129.698 480.398 130.325 479.446 130.753C478.493 131.18 477.472 131.401 476.44 131.401Z" fill="#6CBAF9"/>
<path d="M405.759 80.9204L463.752 80.9204C465.923 80.9204 467.683 79.0133 467.683 76.6607V24.5304C467.683 22.1778 465.923 20.2707 463.752 20.2707L405.759 20.2707C403.588 20.2707 401.828 22.1778 401.828 24.5304V76.6607C401.828 79.0133 403.588 80.9204 405.759 80.9204Z" fill="#7FA9BE"/>
<path d="M450.044 72.1949L449.026 80.9165H443.464L446.479 71.3573C446.595 70.9891 446.815 70.6695 447.107 70.4432C447.399 70.2169 447.749 70.0952 448.108 70.0952H448.337C448.581 70.0952 448.823 70.1516 449.045 70.2606C449.268 70.3696 449.467 70.5286 449.628 70.7272C449.79 70.9258 449.91 71.1594 449.982 71.4125C450.054 71.6655 450.075 71.9322 450.044 72.1949Z" fill="#4F8298"/>
<path d="M422.261 72.1949L421.243 80.9165H415.681L418.696 71.3573C418.812 70.9891 419.031 70.6695 419.323 70.4432C419.616 70.2169 419.966 70.0952 420.325 70.0952H420.554C420.798 70.0952 421.04 70.1516 421.262 70.2606C421.485 70.3696 421.683 70.5286 421.845 70.7272C422.006 70.9258 422.127 71.1594 422.199 71.4125C422.271 71.6655 422.292 71.9322 422.261 72.1949Z" fill="#4F8298"/>
<path style="mix-blend-mode:screen" opacity="0.44" d="M406.151 22.5537H463.357C463.953 22.5537 464.525 22.8102 464.946 23.267C465.368 23.7237 465.605 24.3432 465.605 24.9891V36.4801C465.605 37.126 465.368 37.7455 464.946 38.2022C464.525 38.6589 463.953 38.9156 463.357 38.9156H406.151C405.555 38.9156 404.983 38.6589 404.562 38.2022C404.141 37.7455 403.904 37.126 403.904 36.4801V24.9891C403.904 24.6692 403.962 24.3526 404.075 24.0571C404.188 23.7616 404.353 23.4931 404.562 23.267C404.771 23.0408 405.018 22.8614 405.291 22.739C405.564 22.6166 405.856 22.5537 406.151 22.5537Z" fill="url(#paint16_linear_1276_6069)"/>
<path style="mix-blend-mode:screen" opacity="0.44" d="M417.251 76.6539L406.433 28.5474H448.49L459.308 76.6539H417.251Z" fill="url(#paint17_linear_1276_6069)"/>
<path d="M336.023 80.9204L394.016 80.9204C396.187 80.9204 397.947 79.0133 397.947 76.6607V24.5304C397.947 22.1778 396.187 20.2707 394.016 20.2707L336.023 20.2707C333.852 20.2707 332.092 22.1778 332.092 24.5304V76.6607C332.092 79.0133 333.852 80.9204 336.023 80.9204Z" fill="#7FA9BE"/>
<path d="M380.311 72.1949L379.292 80.9165H373.73L376.745 71.3573C376.861 70.9891 377.081 70.6695 377.373 70.4432C377.665 70.2169 378.015 70.0952 378.374 70.0952H378.603C378.847 70.0952 379.089 70.1516 379.311 70.2606C379.534 70.3696 379.733 70.5286 379.894 70.7272C380.056 70.9258 380.176 71.1594 380.248 71.4125C380.32 71.6655 380.341 71.9322 380.311 72.1949Z" fill="#4F8298"/>
<path d="M352.527 72.1949L351.509 80.9165H345.947L348.962 71.3573C349.078 70.9891 349.298 70.6695 349.59 70.4432C349.882 70.2169 350.232 70.0952 350.591 70.0952H350.82C351.064 70.0952 351.306 70.1516 351.528 70.2606C351.751 70.3696 351.95 70.5286 352.111 70.7272C352.273 70.9258 352.393 71.1595 352.465 71.4125C352.537 71.6655 352.558 71.9322 352.527 72.1949Z" fill="#4F8298"/>
<path style="mix-blend-mode:screen" opacity="0.44" d="M336.407 22.5537H393.614C394.21 22.5537 394.781 22.8102 395.203 23.267C395.624 23.7237 395.861 24.3432 395.861 24.9891V36.4801C395.861 36.8 395.803 37.1166 395.69 37.4121C395.577 37.7076 395.411 37.9761 395.203 38.2022C394.994 38.4284 394.746 38.6078 394.474 38.7302C394.201 38.8526 393.909 38.9156 393.614 38.9156H336.407C335.811 38.9156 335.24 38.6589 334.818 38.2022C334.397 37.7455 334.16 37.126 334.16 36.4801V24.9891C334.16 24.3432 334.397 23.7237 334.818 23.267C335.24 22.8103 335.811 22.5537 336.407 22.5537Z" fill="url(#paint18_linear_1276_6069)"/>
<path style="mix-blend-mode:screen" opacity="0.44" d="M347.517 76.6539L336.699 28.5474H378.756L389.574 76.6539H347.517Z" fill="url(#paint19_linear_1276_6069)"/>
<path d="M324.272 80.9204L266.279 80.9204C265.763 80.9204 265.252 80.8103 264.775 80.5962C264.298 80.3821 263.864 80.0683 263.499 79.6728C263.134 79.2772 262.845 78.8076 262.647 78.2908C262.45 77.774 262.348 77.2201 262.348 76.6607V24.5303C262.348 23.9709 262.45 23.417 262.647 22.9001C262.845 22.3833 263.134 21.9137 263.499 21.5182C263.864 21.1226 264.298 20.8089 264.775 20.5948C265.252 20.3807 265.763 20.2705 266.279 20.2705L324.272 20.2705C324.789 20.2705 325.3 20.3807 325.777 20.5948C326.254 20.8089 326.687 21.1227 327.052 21.5182C327.417 21.9138 327.706 22.3833 327.904 22.9001C328.101 23.417 328.203 23.9709 328.203 24.5303V76.6607C328.203 77.2201 328.101 77.774 327.904 78.2908C327.706 78.8076 327.417 79.2772 327.052 79.6728C326.687 80.0683 326.254 80.3821 325.777 80.5962C325.3 80.8103 324.789 80.9204 324.272 80.9204Z" fill="#7FA9BE"/>
<path d="M310.564 72.1949L309.546 80.9165H303.984L306.999 71.3573C307.115 70.9891 307.335 70.6695 307.627 70.4432C307.919 70.2169 308.269 70.0952 308.628 70.0952H308.857C309.101 70.0952 309.343 70.1516 309.565 70.2606C309.788 70.3696 309.987 70.5286 310.148 70.7272C310.31 70.9258 310.43 71.1595 310.502 71.4125C310.574 71.6655 310.595 71.9322 310.564 72.1949Z" fill="#4F8298"/>
<path d="M282.791 72.1949L281.772 80.9165H276.211L279.226 71.3573C279.342 70.9891 279.561 70.6695 279.853 70.4432C280.145 70.2169 280.495 70.0952 280.854 70.0952H281.084C281.328 70.0952 281.569 70.1516 281.792 70.2606C282.015 70.3696 282.213 70.5286 282.375 70.7272C282.536 70.9258 282.657 71.1595 282.729 71.4125C282.8 71.6655 282.822 71.9322 282.791 72.1949Z" fill="#4F8298"/>
<path style="mix-blend-mode:screen" opacity="0.44" d="M266.671 22.5537H323.877C324.473 22.5537 325.045 22.8102 325.466 23.267C325.888 23.7237 326.125 24.3432 326.125 24.9891V36.4801C326.125 37.126 325.888 37.7455 325.466 38.2022C325.045 38.6589 324.473 38.9156 323.877 38.9156H266.671C266.075 38.9156 265.504 38.6589 265.082 38.2022C264.661 37.7455 264.424 37.126 264.424 36.4801V24.9891C264.424 24.3432 264.661 23.7237 265.082 23.267C265.503 22.8103 266.075 22.5537 266.671 22.5537Z" fill="url(#paint20_linear_1276_6069)"/>
<path style="mix-blend-mode:screen" opacity="0.44" d="M277.771 76.6539L266.953 28.5474H309.01L319.828 76.6539H277.771Z" fill="url(#paint21_linear_1276_6069)"/>
<path d="M196.543 80.9204L254.536 80.9204C256.707 80.9204 258.467 79.0133 258.467 76.6607V24.5304C258.467 22.1778 256.707 20.2707 254.536 20.2707L196.543 20.2707C194.372 20.2707 192.612 22.1778 192.612 24.5304V76.6607C192.612 79.0133 194.372 80.9204 196.543 80.9204Z" fill="#7FA9BE"/>
<path d="M240.828 72.1949L239.809 80.9165H234.248L237.263 71.3573C237.379 70.9891 237.598 70.6695 237.89 70.4432C238.182 70.2169 238.533 70.0952 238.892 70.0952H239.121C239.365 70.0952 239.606 70.1516 239.829 70.2606C240.052 70.3696 240.25 70.5286 240.412 70.7272C240.573 70.9258 240.694 71.1594 240.766 71.4125C240.838 71.6655 240.859 71.9322 240.828 72.1949Z" fill="#4F8298"/>
<path d="M213.045 72.1949L212.026 80.9165H206.465L209.48 71.3573C209.596 70.9891 209.815 70.6695 210.107 70.4432C210.399 70.2169 210.749 70.0952 211.108 70.0952H211.337C211.582 70.0952 211.823 70.1516 212.046 70.2606C212.268 70.3696 212.467 70.5286 212.629 70.7272C212.79 70.9258 212.911 71.1594 212.983 71.4125C213.054 71.6655 213.076 71.9322 213.045 72.1949Z" fill="#4F8298"/>
<path style="mix-blend-mode:screen" opacity="0.44" d="M196.935 22.5537H254.141C254.737 22.5537 255.309 22.8103 255.73 23.267C256.151 23.7237 256.388 24.3432 256.388 24.9891V36.4801C256.388 37.126 256.151 37.7455 255.73 38.2022C255.309 38.6589 254.737 38.9156 254.141 38.9156H196.935C196.339 38.9156 195.767 38.6589 195.346 38.2022C194.924 37.7455 194.688 37.126 194.688 36.4801V24.9891C194.688 24.3432 194.924 23.7237 195.346 23.267C195.767 22.8103 196.339 22.5537 196.935 22.5537Z" fill="url(#paint22_linear_1276_6069)"/>
<path style="mix-blend-mode:screen" opacity="0.44" d="M208.034 76.6539L197.217 28.5474H239.274L250.092 76.6539H208.034Z" fill="url(#paint23_linear_1276_6069)"/>
<path d="M126.591 80.9204L184.585 80.9204C186.756 80.9204 188.516 79.0133 188.516 76.6607V24.5304C188.516 22.1778 186.756 20.2707 184.585 20.2707L126.591 20.2707C124.421 20.2707 122.661 22.1778 122.661 24.5304V76.6607C122.661 79.0133 124.421 80.9204 126.591 80.9204Z" fill="#7FA9BE"/>
<path d="M170.877 72.1949L169.858 80.9165H164.297L167.312 71.3573C167.428 70.9891 167.647 70.6695 167.939 70.4432C168.231 70.2169 168.581 70.0952 168.94 70.0952H169.169C169.414 70.0952 169.655 70.1516 169.878 70.2606C170.1 70.3696 170.299 70.5286 170.461 70.7272C170.622 70.9258 170.743 71.1595 170.815 71.4125C170.886 71.6655 170.908 71.9322 170.877 72.1949Z" fill="#4F8298"/>
<path d="M143.104 72.1949L142.085 80.9165H136.523L139.538 71.3573C139.654 70.9891 139.874 70.6695 140.166 70.4432C140.458 70.2169 140.808 70.0952 141.167 70.0952H141.396C141.64 70.0952 141.882 70.1516 142.104 70.2606C142.327 70.3696 142.526 70.5286 142.687 70.7272C142.849 70.9258 142.969 71.1594 143.041 71.4124C143.113 71.6655 143.134 71.9322 143.104 72.1949Z" fill="#4F8298"/>
<path style="mix-blend-mode:screen" opacity="0.44" d="M126.983 22.5532H184.189C184.785 22.5532 185.357 22.8098 185.778 23.2665C186.2 23.7232 186.437 24.3427 186.437 24.9886V36.4796C186.437 37.1256 186.2 37.745 185.778 38.2017C185.357 38.6585 184.785 38.9151 184.189 38.9151H126.983C126.387 38.9151 125.816 38.6585 125.394 38.2017C124.973 37.745 124.736 37.1256 124.736 36.4796V24.9886C124.736 24.3427 124.973 23.7232 125.394 23.2665C125.816 22.8098 126.387 22.5532 126.983 22.5532Z" fill="url(#paint24_linear_1276_6069)"/>
<path style="mix-blend-mode:screen" opacity="0.44" d="M138.083 76.6539L127.266 28.5474H169.323L180.141 76.6539H138.083Z" fill="url(#paint25_linear_1276_6069)"/>
<path d="M86.9842 17.7736H115.201C115.811 17.7736 116.416 17.9038 116.98 18.157C117.544 18.4102 118.056 18.7813 118.488 19.2491C118.919 19.7169 119.262 20.2723 119.495 20.8835C119.729 21.4947 119.849 22.1498 119.849 22.8114V120.991C119.849 121.653 119.729 122.308 119.495 122.919C119.262 123.53 118.919 124.086 118.488 124.553C118.056 125.021 117.544 125.392 116.98 125.646C116.416 125.899 115.811 126.029 115.201 126.029H90.5957C89.3628 126.029 88.1804 125.498 87.3086 124.553C86.4368 123.609 85.947 122.327 85.947 120.991V22.8113C85.947 21.4752 86.4368 20.1938 87.3086 19.249C88.1804 18.3042 89.3628 17.7734 90.5957 17.7734L86.9842 17.7736Z" fill="#2D4F7A"/>
<path d="M115.393 124.341H90.5879C89.8323 124.341 89.1077 124.016 88.5735 123.437C88.0392 122.858 87.7391 122.073 87.7391 121.254L87.7391 22.0389C87.7391 21.2201 88.0392 20.4348 88.5735 19.8558C89.1077 19.2768 89.8323 18.9515 90.5879 18.9515H115.393C116.149 18.9515 116.873 19.2768 117.407 19.8558C117.942 20.4348 118.242 21.22 118.242 22.0388L118.242 121.254C118.242 122.073 117.942 122.858 117.407 123.437C116.873 124.016 116.149 124.341 115.393 124.341Z" fill="#3C6684"/>
<path d="M113.712 121.526H92.9778C92.4952 121.526 92.0324 121.318 91.6912 120.948C91.3499 120.578 91.1582 120.077 91.1582 119.554L91.1582 23.2024C91.1582 23.0059 91.1939 22.8114 91.2633 22.6299C91.3327 22.4483 91.4344 22.2833 91.5626 22.1444C91.6908 22.0055 91.843 21.8953 92.0105 21.8201C92.178 21.7449 92.3575 21.7062 92.5388 21.7062H113.932C114.298 21.7062 114.649 21.8638 114.908 22.1444C115.167 22.425 115.312 22.8056 115.312 23.2024L115.312 119.792C115.312 120.252 115.144 120.693 114.844 121.018C114.544 121.343 114.137 121.526 113.712 121.526Z" fill="#2D4F7A"/>
<path d="M114.746 23.2171V119.766C114.746 119.917 114.718 120.066 114.665 120.206C114.612 120.345 114.534 120.472 114.435 120.578C114.337 120.685 114.22 120.769 114.091 120.827C113.963 120.885 113.825 120.915 113.686 120.915H92.9888C92.6495 120.915 92.3242 120.769 92.0843 120.509C91.8444 120.249 91.7096 119.896 91.7096 119.528V23.2171C91.7096 22.9757 91.7982 22.7441 91.9558 22.5733C92.1133 22.4026 92.327 22.3066 92.5498 22.3066H113.906C114.129 22.3067 114.342 22.4026 114.5 22.5734C114.657 22.7441 114.746 22.9756 114.746 23.2171Z" fill="#7FA9BE"/>
<path style="mix-blend-mode:screen" opacity="0.44" d="M93.4332 24.085H113.036C113.123 24.085 113.206 24.1224 113.268 24.1891C113.329 24.2558 113.364 24.3461 113.364 24.4404V38.67C113.364 38.7643 113.329 38.8547 113.268 38.9214C113.206 38.988 113.123 39.0255 113.036 39.0255H93.4332C93.3462 39.0255 93.2628 38.988 93.2013 38.9214C93.1398 38.8547 93.1052 38.7643 93.1052 38.6701V24.4404C93.1052 24.3461 93.1398 24.2558 93.2013 24.1891C93.2628 24.1224 93.3462 24.085 93.4332 24.085Z" fill="url(#paint26_linear_1276_6069)"/>
<g style="mix-blend-mode:multiply" opacity="0.39">
<path d="M114.755 96.1446V119.721C114.76 120.031 114.651 120.33 114.452 120.553C114.253 120.776 113.981 120.904 113.695 120.91H92.9978C92.6526 120.903 92.324 120.748 92.0842 120.479C91.8443 120.21 91.7129 119.849 91.7187 119.475V96.1445L114.755 96.1446Z" fill="#6BA9BC"/>
</g>
<g style="mix-blend-mode:multiply" opacity="0.39">
<path d="M114.755 106.785V119.771C114.755 119.922 114.728 120.071 114.674 120.21C114.621 120.35 114.543 120.476 114.445 120.583C114.346 120.69 114.229 120.774 114.101 120.832C113.972 120.89 113.834 120.919 113.695 120.919H92.9978C92.8299 120.919 92.6635 120.883 92.5083 120.814C92.3531 120.744 92.2121 120.642 92.0934 120.513C91.9746 120.385 91.8804 120.232 91.8161 120.064C91.7518 119.895 91.7187 119.715 91.7188 119.533V106.785H114.755Z" fill="#4F8298"/>
</g>
<path d="M338.199 17.7736H393.548C394.159 17.7736 394.763 17.9038 395.327 18.157C395.891 18.4102 396.404 18.7813 396.835 19.2491C397.267 19.7169 397.609 20.2723 397.843 20.8835C398.077 21.4947 398.197 22.1498 398.197 22.8114V120.991C398.197 121.653 398.077 122.308 397.843 122.919C397.609 123.53 397.267 124.086 396.835 124.553C396.404 125.021 395.891 125.392 395.327 125.646C394.763 125.899 394.159 126.029 393.548 126.029H336.504C335.894 126.029 335.289 125.899 334.725 125.646C334.161 125.392 333.649 125.021 333.217 124.553C332.785 124.086 332.443 123.53 332.209 122.919C331.976 122.308 331.855 121.653 331.855 120.991V22.8113C331.855 22.1497 331.976 21.4946 332.209 20.8834C332.443 20.2722 332.785 19.7168 333.217 19.249C333.649 18.7811 334.161 18.4101 334.725 18.1569C335.289 17.9037 335.894 17.7734 336.504 17.7734L338.199 17.7736Z" fill="#2D4F7A"/>
<path d="M361.302 124.341H336.496C335.741 124.341 335.016 124.016 334.482 123.437C333.948 122.858 333.648 122.072 333.648 121.253V22.0384C333.648 21.2196 333.948 20.4343 334.482 19.8553C335.016 19.2763 335.741 18.9511 336.496 18.9511H361.302C361.676 18.9511 362.046 19.0309 362.392 19.1861C362.737 19.3412 363.051 19.5686 363.316 19.8553C363.581 20.142 363.79 20.4823 363.934 20.8569C364.077 21.2314 364.15 21.6329 364.15 22.0383V121.253C364.15 122.072 363.85 122.858 363.316 123.437C362.782 124.016 362.057 124.341 361.302 124.341Z" fill="#3C6684"/>
<path d="M359.611 121.526H338.876C338.394 121.526 337.931 121.318 337.59 120.948C337.248 120.578 337.057 120.077 337.057 119.554V23.2024C337.057 23.0059 337.092 22.8114 337.162 22.6299C337.231 22.4483 337.333 22.2833 337.461 22.1444C337.589 22.0055 337.741 21.8953 337.909 21.8201C338.076 21.7449 338.256 21.7062 338.437 21.7062H359.83C360.012 21.7062 360.191 21.7449 360.359 21.8201C360.526 21.8953 360.678 22.0055 360.807 22.1444C360.935 22.2833 361.036 22.4483 361.106 22.6299C361.175 22.8114 361.211 23.0059 361.211 23.2024V119.792C361.211 120.252 361.042 120.693 360.742 121.018C360.442 121.343 360.035 121.526 359.611 121.526Z" fill="#2D4F7A"/>
<path d="M360.645 23.2176V119.767C360.645 119.917 360.617 120.067 360.564 120.206C360.511 120.346 360.433 120.472 360.334 120.579C360.236 120.685 360.119 120.77 359.99 120.828C359.862 120.886 359.724 120.915 359.585 120.915H338.887C338.548 120.915 338.223 120.769 337.983 120.509C337.743 120.249 337.608 119.897 337.608 119.529V23.2176C337.608 23.0981 337.63 22.9797 337.672 22.8692C337.715 22.7587 337.776 22.6584 337.854 22.5738C337.932 22.4893 338.025 22.4222 338.127 22.3764C338.229 22.3307 338.338 22.3071 338.448 22.3071H359.804C359.915 22.3071 360.024 22.3307 360.126 22.3764C360.228 22.4222 360.32 22.4893 360.398 22.5738C360.477 22.6584 360.538 22.7587 360.581 22.8692C360.623 22.9797 360.645 23.0981 360.645 23.2176Z" fill="#7FA9BE"/>
<path style="mix-blend-mode:screen" opacity="0.44" d="M339.332 24.0845H358.934C359.021 24.0845 359.105 24.122 359.166 24.1886C359.228 24.2553 359.262 24.3456 359.262 24.4399V38.6695C359.262 38.7638 359.228 38.8542 359.166 38.9209C359.105 38.9875 359.021 39.025 358.934 39.025H339.332C339.245 39.025 339.161 38.9876 339.1 38.9209C339.038 38.8542 339.004 38.7638 339.004 38.6695V24.4399C339.004 24.3456 339.038 24.2553 339.1 24.1886C339.161 24.122 339.245 24.0845 339.332 24.0845Z" fill="url(#paint27_linear_1276_6069)"/>
<g style="mix-blend-mode:multiply" opacity="0.39">
<path d="M360.654 96.1426V119.719C360.658 120.029 360.549 120.328 360.351 120.551C360.152 120.774 359.88 120.902 359.594 120.908H338.896C338.551 120.901 338.223 120.747 337.983 120.478C337.743 120.209 337.612 119.847 337.617 119.473V96.1426L360.654 96.1426Z" fill="#6BA9BC"/>
</g>
<g style="mix-blend-mode:multiply" opacity="0.39">
<path d="M360.653 106.785V119.771C360.653 119.922 360.626 120.071 360.573 120.21C360.519 120.35 360.441 120.476 360.343 120.583C360.245 120.69 360.128 120.774 359.999 120.832C359.871 120.89 359.733 120.919 359.594 120.919H338.896C338.557 120.919 338.232 120.773 337.992 120.513C337.752 120.253 337.617 119.901 337.617 119.533V106.785H360.653Z" fill="#4F8298"/>
</g>
<path d="M393.741 124.341H368.935C368.18 124.341 367.455 124.016 366.921 123.437C366.387 122.858 366.087 122.072 366.087 121.253V22.0384C366.087 21.2196 366.387 20.4343 366.921 19.8553C367.455 19.2763 368.18 18.9511 368.935 18.9511H393.741C394.496 18.9511 395.221 19.2763 395.755 19.8553C396.289 20.4343 396.589 21.2195 396.589 22.0383V121.253C396.589 122.072 396.289 122.858 395.755 123.437C395.221 124.016 394.496 124.341 393.741 124.341Z" fill="#3C6684"/>
<path d="M392.05 121.526H371.315C370.833 121.526 370.37 121.318 370.029 120.948C369.687 120.579 369.496 120.077 369.496 119.554V23.2024C369.496 22.8056 369.641 22.425 369.9 22.1445C370.159 21.8639 370.51 21.7062 370.876 21.7062H392.269C392.635 21.7062 392.987 21.8639 393.246 22.1445C393.504 22.425 393.65 22.8056 393.65 23.2024V119.792C393.65 120.252 393.481 120.693 393.181 121.018C392.881 121.343 392.474 121.526 392.05 121.526Z" fill="#2D4F7A"/>
<path d="M393.083 23.2176V119.767C393.083 120.071 392.972 120.363 392.773 120.579C392.574 120.794 392.305 120.915 392.024 120.915H371.326C370.987 120.915 370.662 120.769 370.422 120.509C370.182 120.249 370.047 119.897 370.047 119.529V23.2176C370.047 22.9761 370.136 22.7445 370.293 22.5738C370.451 22.4031 370.665 22.3071 370.887 22.3071H392.243C392.466 22.3071 392.68 22.4031 392.837 22.5738C392.995 22.7446 393.083 22.9762 393.083 23.2176Z" fill="#7FA9BE"/>
<path style="mix-blend-mode:screen" opacity="0.44" d="M371.773 24.0845H391.376C391.463 24.0845 391.546 24.122 391.608 24.1886C391.669 24.2553 391.704 24.3456 391.704 24.4399V38.6695C391.704 38.7638 391.669 38.8542 391.608 38.9209C391.546 38.9875 391.463 39.025 391.376 39.025H371.773C371.686 39.025 371.603 38.9875 371.541 38.9209C371.48 38.8542 371.445 38.7638 371.445 38.6696V24.4399C371.445 24.3457 371.48 24.2553 371.541 24.1886C371.603 24.122 371.686 24.0845 371.773 24.0845Z" fill="url(#paint28_linear_1276_6069)"/>
<g style="mix-blend-mode:multiply" opacity="0.39">
<path d="M393.095 96.1451V119.722C393.1 120.032 392.991 120.331 392.792 120.554C392.593 120.777 392.321 120.905 392.035 120.91H371.338C370.993 120.904 370.664 120.749 370.424 120.48C370.184 120.211 370.053 119.85 370.059 119.476V96.145L393.095 96.1451Z" fill="#6BA9BC"/>
</g>
<g style="mix-blend-mode:multiply" opacity="0.39">
<path d="M393.095 106.785V119.771C393.095 119.922 393.067 120.071 393.014 120.21C392.961 120.35 392.883 120.476 392.784 120.583C392.686 120.69 392.569 120.774 392.441 120.832C392.312 120.89 392.174 120.919 392.035 120.919H371.338C371.17 120.919 371.003 120.883 370.848 120.814C370.693 120.744 370.552 120.642 370.433 120.513C370.314 120.385 370.22 120.232 370.156 120.064C370.092 119.895 370.059 119.715 370.059 119.533V106.785H393.095Z" fill="#4F8298"/>
</g>
<path d="M82.3435 78.3114V22.8662C82.3435 22.4375 82.2656 22.0131 82.1142 21.6171C81.9628 21.2211 81.741 20.8612 81.4613 20.5581C81.1816 20.255 80.8496 20.0146 80.4842 19.8505C80.1187 19.6865 79.7271 19.6021 79.3315 19.6021H70.3256C63.9288 19.5921 57.7578 22.1644 53.016 26.8173C51.3669 28.4364 49.8113 30.1638 48.358 31.9899C36.8201 46.4947 27.7098 61.3425 21.2811 76.1205C21.0164 76.7153 20.9013 77.3753 20.9474 78.0337C20.9935 78.6921 21.1992 79.3257 21.5437 79.8704C21.8814 80.4024 22.3346 80.8361 22.8635 81.1335C23.3924 81.4308 23.9806 81.5826 24.5764 81.5754H79.3315C80.1303 81.5754 80.8964 81.2315 81.4613 80.6194C82.0261 80.0073 82.3434 79.1771 82.3435 78.3114Z" fill="#7FA9BE"/>
<path d="M72.4392 72.8642L71.4206 81.5859H65.8591L68.8738 72.0268C68.9899 71.6586 69.2094 71.3389 69.5015 71.1126C69.7935 70.8863 70.1436 70.7646 70.5026 70.7646H70.7317C70.976 70.7647 71.2175 70.8211 71.4401 70.93C71.6627 71.039 71.8614 71.1981 72.0229 71.3967C72.1844 71.5953 72.3051 71.8289 72.3768 72.0819C72.4486 72.335 72.4699 72.6016 72.4392 72.8642Z" fill="#4F8298"/>
<path d="M40.0272 72.8642L39.0086 81.5859H33.4471L36.4618 72.0268C36.5779 71.6586 36.7974 71.3389 37.0895 71.1126C37.3815 70.8863 37.7316 70.7646 38.0906 70.7646H38.3198C38.564 70.7647 38.8055 70.8211 39.0281 70.93C39.2508 71.039 39.4494 71.1981 39.6109 71.3967C39.7724 71.5953 39.8931 71.8289 39.9649 72.0819C40.0367 72.335 40.0579 72.6016 40.0272 72.8642Z" fill="#4F8298"/>
<path style="mix-blend-mode:screen" opacity="0.44" d="M46.4453 39.0312C47.73 37.322 49.0485 35.6168 50.4008 33.9156C51.7815 32.1808 53.2594 30.5396 54.826 29.0015C59.0711 24.8366 64.5953 22.5344 70.3216 22.544H76.7885C77.5439 22.544 78.2684 22.8692 78.8025 23.448C79.3367 24.0269 79.6368 24.8121 79.6368 25.6308V36.2796C79.6368 36.6409 79.5711 36.9988 79.4435 37.3326C79.3159 37.6665 79.1289 37.9698 78.8931 38.2253C78.6573 38.4808 78.3774 38.6835 78.0694 38.8218C77.7613 38.96 77.4312 39.0312 77.0977 39.0312L46.4453 39.0312Z" fill="url(#paint29_linear_1276_6069)"/>
<path style="mix-blend-mode:screen" opacity="0.44" d="M50.4056 33.9116C51.7863 32.1768 53.2642 30.5357 54.8308 28.9975C54.9881 28.8431 55.1507 28.6966 55.3116 28.5474H64.0507L74.8686 76.6537H32.8111L30.0586 64.413C35.5965 54.1817 42.4065 43.9674 50.4056 33.9116Z" fill="url(#paint30_linear_1276_6069)"/>
<path d="M37.6189 23.2504C40.471 19.6686 43.67 16.4292 47.1606 13.5879C47.3025 13.4687 47.4508 13.3517 47.6023 13.2336C47.821 13.0587 48.0372 12.8794 48.2578 12.7077V12.7297C49.212 12.0064 50.2221 11.279 51.0079 10.7227C50.8001 11.4768 50.4744 12.1868 50.0449 12.8216C49.2636 14.0221 48.4007 15.1579 47.4636 16.2194C47.2114 16.5154 22.1237 46.1146 11.303 72.5611C9.88251 76.0467 7.81886 79.1805 5.23902 81.7694C4.72733 82.2663 4.18049 82.7189 3.60352 83.1232C10.6075 62.9295 21.9459 42.9719 37.6189 23.2504Z" fill="#7FA9BE"/>
<path style="mix-blend-mode:screen" opacity="0.44" d="M37.6189 23.2504C40.471 19.6686 43.67 16.4292 47.1606 13.5879C47.3025 13.4687 47.4508 13.3517 47.6023 13.2336C47.821 13.0587 48.0372 12.8794 48.2578 12.7077V12.7297C49.212 12.0064 50.2221 11.279 51.0079 10.7227C50.8001 11.4768 50.4744 12.1868 50.0449 12.8216C49.2636 14.0221 48.4007 15.1579 47.4636 16.2194C47.2114 16.5154 22.1237 46.1146 11.303 72.5611C9.88251 76.0467 7.81886 79.1805 5.23902 81.7694C4.72733 82.2663 4.18049 82.7189 3.60352 83.1232C10.6075 62.9295 21.9459 42.9719 37.6189 23.2504Z" fill="url(#paint31_linear_1276_6069)"/>
<path d="M5.54577 103.686C5.55024 103.684 5.55495 103.684 5.55944 103.682C5.55818 103.681 6.52609 103.289 6.52609 103.289L6.38237 103.807C7.46814 104.417 8.84668 106.594 9.82357 109.409C10.7749 112.15 11.0712 114.707 10.6747 115.979L11.1442 116.335L10.159 116.733C10.1354 116.744 10.1111 116.758 10.0858 116.768C8.97682 117.22 7.06153 114.658 5.80789 111.045C4.55425 107.433 4.43684 104.138 5.54577 103.686Z" fill="#3C6684"/>
<path d="M6.84314 110.616C8.09683 114.229 10.0121 116.791 11.1209 116.339C12.2298 115.887 12.1125 112.592 10.8587 108.98C9.60493 105.367 7.68978 102.805 6.58087 103.257C5.47196 103.709 5.58945 107.004 6.84314 110.616Z" fill="white"/>
<path d="M464.229 6.69367H85.5316C78.6725 6.69367 71.8515 5.58736 65.293 3.41108C71.2943 1.33636 77.5555 0.279617 83.8548 0.278323H473.014C473.964 0.277651 474.911 0.406627 475.832 0.662245C474.438 2.54467 472.671 4.06391 470.663 5.10781C468.655 6.15171 466.456 6.69365 464.229 6.69367Z" fill="#EBF7FB"/>
<path d="M488.274 120.436L484.294 122.193V12.5317L488.274 14.2892V120.436Z" fill="#819BA2"/>
<path d="M488.279 14.2892L492.258 12.5317V122.193L488.279 120.436V14.2892Z" fill="#728C90"/>
<path d="M496.242 120.436L492.263 122.193V12.5317L496.242 14.2892V120.436Z" fill="#819BA2"/>
<path d="M496.238 14.2892L500.217 12.5317V122.193L496.238 120.436V14.2892Z" fill="#728C90"/>
<path d="M503.908 120.436L499.929 122.193V12.5317L503.908 14.2892V120.436Z" fill="#819BA2"/>
<path d="M503.904 14.2892L507.883 12.5317V122.193L503.904 120.436V14.2892Z" fill="#728C90"/>
<path d="M511.711 120.436L507.732 122.193V12.5317L511.711 14.2892V120.436Z" fill="#819BA2"/>
<path d="M511.716 14.2892L515.696 12.5317V122.193L511.716 120.436V14.2892Z" fill="#728C90"/>
<g style="mix-blend-mode:multiply" opacity="0.61">
<path d="M488.274 120.436V53.6597L484.294 55.6304V122.194L488.274 120.436Z" fill="#819BA2"/>
</g>
<g style="mix-blend-mode:multiply" opacity="0.61">
<path d="M488.279 120.436V53.6597L492.258 55.6304V122.194L488.279 120.436Z" fill="#819BA2"/>
</g>
<g style="mix-blend-mode:multiply" opacity="0.61">
<path d="M496.242 120.436V53.6597L492.263 55.6304V122.194L496.242 120.436Z" fill="#819BA2"/>
</g>
<g style="mix-blend-mode:multiply" opacity="0.61">
<path d="M496.238 120.436V53.6597L499.931 55.6304V122.194L496.238 120.436Z" fill="#819BA2"/>
</g>
<g style="mix-blend-mode:multiply" opacity="0.61">
<path d="M503.908 120.436V53.6597L499.929 55.6304V122.194L503.908 120.436Z" fill="#819BA2"/>
</g>
<g style="mix-blend-mode:multiply" opacity="0.61">
<path d="M503.904 120.436V53.6597L507.734 55.6304V122.193L503.904 120.436Z" fill="#819BA2"/>
</g>
<g style="mix-blend-mode:multiply" opacity="0.61">
<path d="M511.711 120.436V53.6597L507.732 55.6304V122.194L511.711 120.436Z" fill="#819BA2"/>
</g>
<g style="mix-blend-mode:multiply" opacity="0.61">
<path d="M511.716 120.436V53.6597L515.696 55.6304V122.193L511.716 120.436Z" fill="#819BA2"/>
</g>
</g>
<defs>
<linearGradient id="paint0_linear_1276_6069" x1="565.241" y1="22.5469" x2="565.241" y2="38.9087" gradientUnits="userSpaceOnUse">
<stop stop-color="white"/>
<stop offset="1"/>
</linearGradient>
<linearGradient id="paint1_linear_1276_6069" x1="567.119" y1="76.6538" x2="567.119" y2="28.5474" gradientUnits="userSpaceOnUse">
<stop stop-color="white"/>
<stop offset="1"/>
</linearGradient>
<linearGradient id="paint2_linear_1276_6069" x1="634.987" y1="22.5469" x2="634.987" y2="38.9087" gradientUnits="userSpaceOnUse">
<stop stop-color="white"/>
<stop offset="1"/>
</linearGradient>
<linearGradient id="paint3_linear_1276_6069" x1="636.865" y1="76.6538" x2="636.865" y2="28.5474" gradientUnits="userSpaceOnUse">
<stop stop-color="white"/>
<stop offset="1"/>
</linearGradient>
<linearGradient id="paint4_linear_1276_6069" x1="704.723" y1="22.5469" x2="704.723" y2="38.9087" gradientUnits="userSpaceOnUse">
<stop stop-color="white"/>
<stop offset="1"/>
</linearGradient>
<linearGradient id="paint5_linear_1276_6069" x1="706.601" y1="76.6538" x2="706.601" y2="28.5474" gradientUnits="userSpaceOnUse">
<stop stop-color="white"/>
<stop offset="1"/>
</linearGradient>
<linearGradient id="paint6_linear_1276_6069" x1="774.46" y1="22.5469" x2="774.46" y2="38.9087" gradientUnits="userSpaceOnUse">
<stop stop-color="white"/>
<stop offset="1"/>
</linearGradient>
<linearGradient id="paint7_linear_1276_6069" x1="776.337" y1="76.6538" x2="776.337" y2="28.5474" gradientUnits="userSpaceOnUse">
<stop stop-color="white"/>
<stop offset="1"/>
</linearGradient>
<linearGradient id="paint8_linear_1276_6069" x1="844.411" y1="22.5469" x2="844.411" y2="38.9087" gradientUnits="userSpaceOnUse">
<stop stop-color="white"/>
<stop offset="1"/>
</linearGradient>
<linearGradient id="paint9_linear_1276_6069" x1="846.289" y1="76.6538" x2="846.289" y2="28.5474" gradientUnits="userSpaceOnUse">
<stop stop-color="white"/>
<stop offset="1"/>
</linearGradient>
<linearGradient id="paint10_linear_1276_6069" x1="896.762" y1="24.0805" x2="896.762" y2="39.021" gradientUnits="userSpaceOnUse">
<stop stop-color="white"/>
<stop offset="1"/>
</linearGradient>
<linearGradient id="paint11_linear_1276_6069" x1="650.865" y1="24.0805" x2="650.865" y2="39.021" gradientUnits="userSpaceOnUse">
<stop stop-color="white"/>
<stop offset="1"/>
</linearGradient>
<linearGradient id="paint12_linear_1276_6069" x1="618.423" y1="24.0805" x2="618.423" y2="39.021" gradientUnits="userSpaceOnUse">
<stop stop-color="white"/>
<stop offset="1"/>
</linearGradient>
<linearGradient id="paint13_linear_1276_6069" x1="936.964" y1="39.0312" x2="936.964" y2="22.544" gradientUnits="userSpaceOnUse">
<stop/>
<stop offset="1" stop-color="white"/>
</linearGradient>
<linearGradient id="paint14_linear_1276_6069" x1="947.539" y1="76.6537" x2="947.539" y2="28.5474" gradientUnits="userSpaceOnUse">
<stop stop-color="white"/>
<stop offset="1"/>
</linearGradient>
<linearGradient id="paint15_linear_1276_6069" x1="969.227" y1="50.1889" x2="978.21" y2="42.9834" gradientUnits="userSpaceOnUse">
<stop/>
<stop offset="0.6006" stop-color="#353533"/>
<stop offset="0.8156" stop-color="white"/>
</linearGradient>
<linearGradient id="paint16_linear_1276_6069" x1="434.754" y1="22.5537" x2="434.754" y2="38.9156" gradientUnits="userSpaceOnUse">
<stop stop-color="white"/>
<stop offset="1"/>
</linearGradient>
<linearGradient id="paint17_linear_1276_6069" x1="432.871" y1="76.6538" x2="432.871" y2="28.5474" gradientUnits="userSpaceOnUse">
<stop stop-color="white"/>
<stop offset="1"/>
</linearGradient>
<linearGradient id="paint18_linear_1276_6069" x1="365.011" y1="22.5537" x2="365.011" y2="38.9156" gradientUnits="userSpaceOnUse">
<stop stop-color="white"/>
<stop offset="1"/>
</linearGradient>
<linearGradient id="paint19_linear_1276_6069" x1="363.137" y1="76.6538" x2="363.137" y2="28.5474" gradientUnits="userSpaceOnUse">
<stop stop-color="white"/>
<stop offset="1"/>
</linearGradient>
<linearGradient id="paint20_linear_1276_6069" x1="295.274" y1="22.5537" x2="295.274" y2="38.9156" gradientUnits="userSpaceOnUse">
<stop stop-color="white"/>
<stop offset="1"/>
</linearGradient>
<linearGradient id="paint21_linear_1276_6069" x1="293.391" y1="76.6538" x2="293.391" y2="28.5474" gradientUnits="userSpaceOnUse">
<stop stop-color="white"/>
<stop offset="1"/>
</linearGradient>
<linearGradient id="paint22_linear_1276_6069" x1="225.538" y1="22.5537" x2="225.538" y2="38.9156" gradientUnits="userSpaceOnUse">
<stop stop-color="white"/>
<stop offset="1"/>
</linearGradient>
<linearGradient id="paint23_linear_1276_6069" x1="223.654" y1="76.6538" x2="223.654" y2="28.5474" gradientUnits="userSpaceOnUse">
<stop stop-color="white"/>
<stop offset="1"/>
</linearGradient>
<linearGradient id="paint24_linear_1276_6069" x1="155.586" y1="22.5532" x2="155.586" y2="38.9151" gradientUnits="userSpaceOnUse">
<stop stop-color="white"/>
<stop offset="1"/>
</linearGradient>
<linearGradient id="paint25_linear_1276_6069" x1="153.703" y1="76.6538" x2="153.703" y2="28.5474" gradientUnits="userSpaceOnUse">
<stop stop-color="white"/>
<stop offset="1"/>
</linearGradient>
<linearGradient id="paint26_linear_1276_6069" x1="103.234" y1="24.085" x2="103.234" y2="39.0255" gradientUnits="userSpaceOnUse">
<stop stop-color="white"/>
<stop offset="1"/>
</linearGradient>
<linearGradient id="paint27_linear_1276_6069" x1="349.133" y1="24.0845" x2="349.133" y2="39.025" gradientUnits="userSpaceOnUse">
<stop stop-color="white"/>
<stop offset="1"/>
</linearGradient>
<linearGradient id="paint28_linear_1276_6069" x1="381.574" y1="24.0845" x2="381.574" y2="39.025" gradientUnits="userSpaceOnUse">
<stop stop-color="white"/>
<stop offset="1"/>
</linearGradient>
<linearGradient id="paint29_linear_1276_6069" x1="63.041" y1="39.0312" x2="63.041" y2="22.544" gradientUnits="userSpaceOnUse">
<stop/>
<stop offset="1" stop-color="white"/>
</linearGradient>
<linearGradient id="paint30_linear_1276_6069" x1="52.4635" y1="76.6537" x2="52.4635" y2="28.5474" gradientUnits="userSpaceOnUse">
<stop stop-color="white"/>
<stop offset="1"/>
</linearGradient>
<linearGradient id="paint31_linear_1276_6069" x1="30.7725" y1="50.1889" x2="21.7897" y2="42.9834" gradientUnits="userSpaceOnUse">
<stop/>
<stop offset="0.6006" stop-color="#353533"/>
<stop offset="0.8156" stop-color="white"/>
</linearGradient>
<clipPath id="clip0_1276_6069">
<rect width="1000" height="150" fill="white"/>
</clipPath>
</defs>
</svg>
