<svg width="1000" height="400" viewBox="0 0 1000 400" fill="none" xmlns="http://www.w3.org/2000/svg">
<g clip-path="url(#clip0_2175_139)">
<path d="M746.283 142.682L733.713 183.64C732.681 186.745 732.499 190.177 733.366 193.585C734.217 196.998 736.05 199.92 738.453 202.17L756.478 218.952L751.394 240.913L742.524 247.143L760.201 247.24L766.31 221.847C766.542 220.874 766.574 219.831 766.396 218.792C766.195 217.749 765.789 216.796 765.218 215.963L753.637 199.161C752.171 197.018 751.296 194.461 751.284 191.687C751.264 188.913 752.088 186.344 753.546 184.185L772.13 156.554C773.683 154.251 774.963 151.69 775.862 148.931C776.772 146.177 777.277 143.372 777.418 140.601V140.682C777.667 135.577 774.782 130.62 769.774 128.395C764.765 126.169 759.122 127.41 755.028 130.511C752.041 132.783 750.603 133.107 746.283 142.682Z" fill="#6B5E53"/>
<path d="M746.449 52.7519C753.223 53.3352 759.67 53.2261 765.522 52.0164C783.629 48.2805 810.697 17.3658 820.17 8.35445C824.536 4.19067 844.953 -0.984383 853.429 0.163147C862.863 1.44376 888.686 14.3112 888.686 14.3112L887.921 110.831C863.427 107.9 857.268 123.613 836.937 128.231C804.865 135.488 794.056 130.324 777.947 146.049C775.637 151.197 772.004 165.882 762.271 171.539C757.617 174.271 752.005 176.835 745.74 179.263L746.449 52.7519Z" fill="#806F65"/>
<path d="M753.948 143.598C763.669 137.917 767.319 123.24 769.644 118.096C784.086 102.59 785.769 98.6441 818.768 91.3716C839.124 86.9082 832.658 50.9898 868.881 61.877L879.591 82.4066L888.138 82.4488L887.921 110.831C863.427 107.901 857.268 123.613 836.937 128.231C804.865 135.489 794.056 130.325 777.947 146.049C775.637 151.197 772.004 165.882 762.271 171.539C757.617 174.271 752.005 176.836 745.74 179.264L745.921 147.722C748.817 146.38 751.517 145.014 753.948 143.598Z" fill="#B49D85"/>
<path d="M853.824 59.8262C853.824 59.8262 848.3 98.1609 881.077 110.562C901.36 118.224 935.521 104.565 935.521 104.565L968.559 106.558C972.571 106.811 976.759 106.013 980.61 104.025C984.459 102.04 987.49 99.1259 989.614 95.7056L990.311 94.5692C991.221 93.087 991.923 91.4605 992.368 89.6747C992.798 87.912 992.94 86.1293 992.818 84.4056L992.215 75.5697L853.824 59.8262Z" fill="#C9AF95"/>
<path d="M937.073 79.4561C936.623 82.7911 935.788 85.8767 934.681 88.7519C938.015 87.3007 940.611 84.9897 942.707 82.0476L937.073 79.4561Z" fill="#FBF3EC"/>
<path d="M943.188 82.2891C942.707 85.6121 941.9 88.6977 940.78 91.5769C944.099 90.1298 946.723 87.8188 948.819 84.8766L943.188 82.2891Z" fill="#FBF3EC"/>
<path d="M949.77 85.1016C949.293 88.4485 948.485 91.5261 947.354 94.4093C950.696 92.9502 953.297 90.6432 955.409 87.705L949.77 85.1016Z" fill="#FBF3EC"/>
<path d="M957.055 85.1484C956.61 88.4715 955.282 93.6625 954.175 96.5337C958.667 93.7637 960.614 90.6853 962.706 87.736L957.055 85.1484Z" fill="#FBF3EC"/>
<path d="M964.791 84.6387C964.626 87.9968 963.803 93.269 962.975 96.2263C967.175 93.0825 968.843 89.8336 970.647 86.7249L964.791 84.6387Z" fill="#FBF3EC"/>
<path d="M972.791 82.2764C972.653 85.2727 970.963 91.8838 970.21 94.5183C973.954 91.7164 976.385 86.9071 978 84.1331L972.791 82.2764Z" fill="#FBF3EC"/>
<path d="M980.172 78.6924C980.247 81.6847 979.009 88.4129 978.441 91.0817C982.008 88.0431 984.088 83.0737 985.507 80.1866L980.172 78.6924Z" fill="#FBF3EC"/>
<path d="M986.069 76.8867C986.499 79.836 986.148 86.6575 985.903 89.3964C989.04 85.9219 990.478 80.723 991.527 77.7075L986.069 76.8867Z" fill="#FBF3EC"/>
<path d="M991.489 73.4567C992.439 76.3008 993.31 83.0792 993.578 85.7959C996.025 81.8345 996.522 76.4841 997.014 73.3125L991.489 73.4567Z" fill="#FBF3EC"/>
<path d="M455.693 154.538C464.441 181.947 478.537 217.496 495.702 244.064L429.649 281.174C425.201 283.684 420.086 285.645 416.563 289.735C413.059 293.8 411.428 299.672 409.642 304.415L392.789 349.124C391.504 352.509 390.933 356.209 391.232 360.034C391.52 363.859 392.679 367.416 394.444 370.564L410.525 398.961L460.343 399.195L447.686 386.105L442.011 383.914C439.162 382.825 430.182 380.829 428.518 378.047C426.844 375.261 426.264 372.14 426.658 369.152L432.451 325.027C432.936 321.377 434.39 317.816 436.845 314.723C439.32 311.641 442.516 309.424 445.988 308.131L526.282 287.022C534.446 283.971 541.803 278.567 547.14 270.96C552.494 263.357 552.218 246.901 552.274 238.298L552.786 145.74L455.693 154.538Z" fill="#6B5E53"/>
<path d="M442.012 383.915L447.686 386.106L460.344 399.196L433.914 399.055C436.842 394.234 440.183 386.993 442.012 383.915Z" fill="#413D3B"/>
<path d="M417.695 386.641L422.369 388.446L432.756 399.193L411.055 399.088C413.447 395.112 416.198 389.162 417.695 386.641Z" fill="#413D3B"/>
<path d="M439.454 111.658C439.454 111.658 451.039 58.6802 524.658 37.6915C542.683 32.5396 588.414 48.7349 597.607 48.7891C606.781 48.8242 646.546 38.0462 666.442 37.9952C688.9 37.937 720.219 50.5359 746.437 52.7656C753.223 53.3498 777.706 146.603 777.706 146.603C775.381 152.171 771.68 166.055 762.27 171.537C724.227 193.686 622.631 206.842 622.631 206.842C622.631 206.842 577.317 224.036 539.873 221.736C483.649 211.429 429.445 132.062 439.454 111.658Z" fill="#8B7B6E"/>
<path d="M495.952 166.386C500.279 168.518 504.705 170.328 509.185 171.732C548.745 179.351 599.342 168.806 599.342 168.806C599.342 168.806 709.31 170.3 752.834 153.802C763.611 149.713 769.412 136.479 772.675 131.3C772.675 131.3 772.305 128.713 771.682 124.394C775.252 137.23 777.707 146.604 777.707 146.604C775.382 152.172 771.682 166.055 762.272 171.538C724.228 193.686 622.632 206.842 622.632 206.842C622.632 206.842 577.318 224.037 539.875 221.737C510.072 216.278 480.828 191.398 461.425 166.196L495.952 166.386Z" fill="#B49D85"/>
<path d="M1000 73.2835L996.246 61.3652C994.346 55.2801 990.93 49.5679 985.984 44.7969C981.023 40.0386 975.14 36.8279 968.941 35.1082L920.68 21.6877L913.819 11.0531C913.055 9.88247 912.046 8.86641 910.789 8.09661C909.52 7.31804 899.846 6.12749 898.549 6.42314C897.226 6.71081 896.031 7.20887 894.944 7.86631L881.132 16.3612L871.927 16.7501C870.252 16.8242 868.561 17.2011 866.95 17.9176C865.338 18.6411 863.943 19.6293 862.789 20.8159L861.291 22.357C860.054 23.6217 859.131 25.2251 858.714 27.0611C858.289 28.902 858.423 30.7428 858.99 32.4004L859.104 32.7542C859.979 35.3608 860.405 38.1667 860.271 41.073C860.156 43.9721 859.49 46.7429 858.394 49.2715L853.823 59.8248L900.335 77.8673C900.335 77.8673 914.202 69.8322 919.234 70.7542C930.741 72.8787 936.336 86.9065 961.993 87.9568C987.671 89.035 1000 73.2835 1000 73.2835Z" fill="#907F72"/>
<path d="M748.629 110.294C753.223 108.725 758.425 109.006 763.02 111.488C767.622 113.955 770.676 118.141 771.846 122.791L776.418 141.243C777.667 146.29 777.249 151.765 774.822 156.82C772.406 161.877 768.395 165.683 763.642 167.924L764.525 167.492C761.002 169.162 756.982 169.862 752.813 169.228C748.676 168.606 745.015 166.769 742.166 164.13L726.99 144.737C723.282 139.948 721.844 133.523 723.744 127.298C725.635 121.084 730.403 116.488 736.176 114.519L748.629 110.294Z" fill="#907F72"/>
<path d="M738.161 144.839L725.571 185.808C724.53 188.913 724.345 192.353 725.224 195.758C726.087 199.174 727.904 202.088 730.327 204.337L748.324 221.124L743.272 243.074L734.409 249.307L752.067 249.396L758.16 224.015C758.408 223.038 758.44 222.007 758.254 220.964C758.057 219.913 757.643 218.96 757.08 218.135L745.479 201.307C744.024 199.189 743.153 196.618 743.13 193.847C743.115 191.085 743.961 188.516 745.392 186.357L763.996 158.711C765.533 156.411 766.814 153.859 767.731 151.092C768.634 148.337 769.15 145.543 769.284 142.776L769.277 142.846C769.52 137.749 766.648 132.784 761.627 130.555C756.619 128.332 750.984 129.57 746.878 132.68C743.89 134.955 742.452 135.274 738.161 144.839Z" fill="#8B7B6E"/>
<path d="M752.067 249.396L734.409 249.307L743.272 243.073L752.067 249.396Z" fill="#413D3B"/>
<path d="M473.155 64.3848C473.155 64.3848 328.301 192.919 221.254 209.554C182.348 215.601 148.273 218.107 117.253 214.196C84.2663 210.041 28.2109 189.885 0 158.943C16.5225 184.9 69.52 228.223 109.786 245.368C141.208 258.733 180.98 266.785 230.853 265.419C362.214 261.823 502.532 202.698 502.532 202.698L473.155 64.3848Z" fill="#8B7B6E"/>
<path d="M223.165 249.329C339.619 242.827 466.912 179.569 494.552 165.095L502.532 202.699C502.532 202.699 362.214 261.824 230.853 265.419C180.98 266.785 141.208 258.734 109.786 245.368C69.52 228.224 16.5225 184.901 0 158.943C31.343 201.037 120.669 255.061 223.165 249.329Z" fill="#B49D85"/>
<path d="M886.904 35.5756C891.68 44.0387 901.114 47.6733 908.463 43.6259C915.84 39.5912 918.847 29.8754 914.074 21.4156C909.323 12.9605 899.226 10.3299 891.235 13.0035C878.893 17.1705 882.148 27.1238 886.904 35.5756Z" fill="#6A594B"/>
<path d="M896.161 67.1474C896.161 67.1474 908.39 54.8983 913.43 55.8442C924.94 57.9568 925.366 67.2997 951.034 68.3731C966.687 69.0305 973.811 60.6416 976.976 53.9803C976.621 53.5054 976.254 53.0655 975.865 52.6957C970.915 47.9255 964.232 43.1625 958.025 41.4348C958.025 41.4348 924.798 36.1864 916.7 28.9291C913.039 25.6762 910.569 16.5246 903.995 14.3841C901.793 13.6797 896.291 13.0613 895.054 13.5322C889.466 15.6336 886.527 18.8476 883.233 20.1003C880.285 21.1976 873.16 20.6453 870.267 21.3068C862.772 23.0304 859.821 26.0148 858.698 27.1273C858.714 27.1161 858.714 27.085 858.714 27.0611C859.131 25.2251 860.054 23.6217 861.291 22.357L862.789 20.8159C863.943 19.6293 865.338 18.6411 866.95 17.9176C868.561 17.2011 870.252 16.8242 871.927 16.7501L881.132 16.3612L894.944 7.86631C896.031 7.20887 897.226 6.71081 898.549 6.42314C899.846 6.12749 909.52 7.31804 910.789 8.09661C912.046 8.86641 913.055 9.88247 913.819 11.0531L920.68 21.6877L968.941 35.1082C975.14 36.8279 981.023 40.0386 985.984 44.7969C990.93 49.5679 994.346 55.2801 996.246 61.3652L1000 73.2835C1000 73.2835 987.671 89.035 961.993 87.9568C936.336 86.9065 930.741 72.8787 919.234 70.7542C914.202 69.8322 900.335 77.8673 900.335 77.8673L853.823 59.8248L896.161 67.1474Z" fill="#AB9586"/>
<path d="M893.714 28.9969C893.702 33.2659 897.186 36.7364 901.508 36.7755C905.851 36.7874 909.374 33.3432 909.39 29.079C908.582 25.709 904.176 22.7437 900.767 21.7014C896.456 21.6743 893.749 24.7168 893.714 28.9969Z" fill="#3F352E"/>
<path d="M895.66 29.0022C895.645 32.2241 898.285 34.8347 901.52 34.8427C904.775 34.8698 907.412 32.2783 907.447 29.0684C906.544 26.547 902.852 24.1659 900.527 23.4415C897.268 23.4263 895.688 25.7923 895.66 29.0022Z" fill="#F4FF3C"/>
<path d="M899.199 29.0156C899.183 30.7815 901.54 32.2295 901.54 32.2295C901.54 32.2295 903.888 30.8206 903.912 29.0499C903.924 27.272 901.567 25.832 901.567 25.832C901.567 25.832 899.207 27.2529 899.199 29.0156Z" fill="black"/>
<path d="M989.393 60.2381C990.452 62.9228 990.586 65.39 989.644 65.7637C988.723 66.1215 987.095 64.2425 986.027 61.5498C984.952 58.8531 984.822 56.3859 985.759 56.0241C986.689 55.6663 988.305 57.5493 989.393 60.2381Z" fill="#3F352E"/>
<path d="M855.072 22.1758L847.998 0.11295C850.071 -0.035273 851.951 -0.0424301 853.429 0.163169C854.555 0.311392 855.915 0.638115 857.424 1.078L855.072 22.1758Z" fill="#72655A"/>
<path d="M816.222 45.6907L808.151 20.5079C813.18 15.4261 817.436 10.9627 820.171 8.3521C820.234 8.29711 820.34 8.23493 820.419 8.17676L816.222 45.6907Z" fill="#72655A"/>
<path d="M772.965 82.2041L763.386 52.3476C764.114 52.2424 764.828 52.1611 765.521 52.0168C769.033 51.2972 772.894 49.5305 776.898 47.1104L772.965 82.2041Z" fill="#72655A"/>
<path d="M801.967 26.6211L797.424 67.3529L788.302 38.9092C793.018 35.0762 797.649 30.792 801.967 26.6211Z" fill="#72655A"/>
<path d="M835.029 31.4629L826.525 4.97252C829.934 3.66083 834.131 2.45433 838.355 1.56738L835.029 31.4629Z" fill="#72655A"/>
<path d="M475.602 75.9341L471.519 115.005L461.443 74.3977C467.756 67.1483 477.163 60.3389 477.163 60.3389L475.602 75.9341Z" fill="#7E6F64"/>
<path d="M315.297 174.922L311.077 215.25L302.664 181.358C306.88 179.28 311.101 177.14 315.297 174.922Z" fill="#7E6F64"/>
<path d="M369.962 142.404L364.346 196.07L353.612 152.832C359.168 149.388 364.618 145.906 369.962 142.404Z" fill="#7E6F64"/>
<path d="M342.586 159.543L337.4 209.069L327.304 168.404C332.454 165.52 337.53 162.555 342.586 159.543Z" fill="#7E6F64"/>
<path d="M451.84 82.3037L445.815 139.755L434.911 95.7784C441.24 90.8289 446.895 86.3073 451.84 82.3037Z" fill="#7E6F64"/>
<path d="M424.736 103.616L418.872 159.554L408.062 116.013C413.926 111.745 419.498 107.589 424.736 103.616Z" fill="#7E6F64"/>
<path d="M285.723 189.31L282.231 222.68L275.083 193.815C278.637 192.372 282.184 190.862 285.723 189.31Z" fill="#7E6F64"/>
<path d="M397.853 123.365L391.922 179.981L380.798 135.174C386.658 131.221 392.359 127.268 397.853 123.365Z" fill="#7E6F64"/>
<path d="M112.848 213.547L111.342 227.84L107.567 212.609C109.38 212.952 111.137 213.279 112.848 213.547Z" fill="#7E6F64"/>
<path d="M258.761 199.896L255.925 227.012L249.903 202.783C252.839 201.896 255.799 200.923 258.761 199.896Z" fill="#7E6F64"/>
<path d="M84.1201 206.687C85.4953 207.103 86.8826 207.546 88.2457 207.935L87.1029 218.776L84.1201 206.687Z" fill="#7E6F64"/>
<path d="M136.534 215.745L134.742 232.791L130.435 215.445C132.459 215.586 134.485 215.663 136.534 215.745Z" fill="#7E6F64"/>
<path d="M228.95 231.963L223.312 209.165C226.022 208.71 228.761 208.223 231.52 207.636L228.95 231.963Z" fill="#7E6F64"/>
<path d="M168.572 215.458L166.503 235.28L161.664 215.77C163.973 215.68 166.247 215.602 168.572 215.458Z" fill="#7E6F64"/>
<path d="M198.262 234.451L193.036 213.361C195.503 213.093 198.061 212.754 200.575 212.438L198.262 234.451Z" fill="#7E6F64"/>
<path d="M736.625 89.6225L723.589 48.9648C729.425 50.2678 735.198 51.3929 740.818 52.1436L736.625 89.6225Z" fill="#7E6F64"/>
<path d="M688.778 40.7587L684.396 99.9497L671.188 38.1592C676.676 38.5289 682.603 39.49 688.778 40.7587Z" fill="#7E6F64"/>
<path d="M714.545 46.8625L710.715 94.575L697.416 42.6875C703.027 44.0143 708.765 45.4575 714.545 46.8625Z" fill="#7E6F64"/>
<path d="M573.285 43.4042L569.077 83.4323L558.283 39.9258C563.398 41 568.478 42.2137 573.285 43.4042Z" fill="#7E6F64"/>
<path d="M601.011 48.5085L597.489 94.9843L586.955 46.8008C591.779 47.9642 595.597 48.7731 597.607 48.789C598.474 48.789 599.668 48.6758 601.011 48.5085Z" fill="#7E6F64"/>
<path d="M541.084 83.4317L529.533 36.8859C534.187 36.4619 539.818 36.8516 545.871 37.7266L541.084 83.4317Z" fill="#7E6F64"/>
<path d="M627.717 43.4883L624.222 98.302L612.393 46.55C617.007 45.659 622.236 44.5928 627.717 43.4883Z" fill="#7E6F64"/>
<path d="M654.308 107.366L641.206 40.9369C647.487 39.8364 653.619 38.9024 659.017 38.4004L654.308 107.366Z" fill="#7E6F64"/>
<path d="M525.525 219.8C503.363 202.943 490.312 183.301 477.339 160.013C469.474 145.908 464.817 126.896 464.809 109.584C464.801 94.0942 469.131 79.5915 476.619 67.175C487.755 53.0389 504.451 43.2371 523.906 41.1986C544.508 39.0271 563.962 46.035 578.106 58.8754C587.173 67.6659 594.573 78.424 599.464 90.8875C604.519 103.779 605.41 125.76 605.347 138.709C605.209 164.53 599.779 210.118 599.779 210.118C599.377 215.819 598.025 221.551 595.597 227.103C593.178 232.656 589.892 237.578 585.959 241.777L518.862 302.812C514.425 307.579 511.288 313.61 510.173 320.47C509.026 327.322 513.298 344.606 530.858 363.171C533.884 366.381 542.652 369.326 546.687 370.412L578.495 380.354L597.474 400H507.348C504.956 399.992 502.595 398.513 500.861 396.638C499.116 394.782 496.609 379.198 496.609 379.198L473.521 316.719C472.914 315.097 472.666 313.322 472.827 311.478C472.981 309.657 473.565 307.948 474.443 306.446L525.525 219.8Z" fill="#907F72"/>
<path d="M521.652 374.721C515.407 368.211 509.398 336.327 509.536 320.678C509.85 331.888 520.605 354.511 530.858 363.172C533.885 366.382 542.652 369.327 546.688 370.414L578.496 380.355L597.475 400.002H564.476L549.695 384.281L521.652 374.721Z" fill="#7E6F64"/>
<path d="M572.419 378.724L578.495 380.354L597.473 400.001L572.419 399.868V378.724Z" fill="#413D3B"/>
<path d="M544.843 382.968L549.694 384.279L564.881 399.999L544.843 399.894V382.968Z" fill="#413D3B"/>
</g>
<defs>
<clipPath id="clip0_2175_139">
<rect width="1000" height="400" fill="white"/>
</clipPath>
</defs>
</svg>
