<svg width="600" height="600" viewBox="0 0 600 600" fill="none" xmlns="http://www.w3.org/2000/svg">
<path d="M210.008 559.724C205.825 559.506 201.664 559.274 197.526 559.028C179.075 557.932 161.095 556.557 143.61 554.984C191.588 584.709 248.5 601.195 309.128 599.455C365.05 597.849 416.928 580.944 460.899 552.883C410.253 558.774 356.751 561.737 300.823 561.95C269.642 562.075 239.288 561.251 210.008 559.724Z" fill="#74E8F7"/>
<path d="M300.388 599.489C465.341 599.489 599.14 465.768 599.238 300.815C599.336 135.863 465.694 2.14209 300.742 2.14209C135.789 2.14209 1.98915 135.863 1.89145 300.815C1.79374 465.768 135.435 599.489 300.388 599.489Z" fill="#74E8F7"/>
<path d="M530.836 490.985C524.677 492.136 518.469 493.205 512.23 494.222C503.202 495.695 494.093 497.032 484.905 498.236C483.52 498.417 482.134 498.598 480.745 498.774C422.004 506.2 360.146 508.366 296.305 507.094C261.073 506.364 227.094 504.71 194.491 502.537C178.19 501.45 162.233 500.234 146.636 498.938C131.039 497.643 115.801 496.268 100.939 494.864C91.0316 493.928 81.2904 492.979 71.7207 492.033C71.5045 492.011 71.2939 491.99 71.0781 491.969C91.6765 516.693 116.187 537.995 143.609 554.984C161.094 556.557 179.075 557.931 197.526 559.028C201.664 559.274 205.825 559.506 210.007 559.724C239.287 561.25 269.642 562.075 300.822 561.95C356.75 561.736 410.253 558.773 460.898 552.883C487.361 535.995 510.956 515.066 530.836 490.985Z" fill="#58D3DD"/>
<path d="M100.94 494.863C115.802 496.267 131.039 497.642 146.636 498.938C162.233 500.233 178.19 501.45 194.492 502.536C227.094 504.709 261.074 506.363 296.306 507.094C360.146 508.365 422.004 506.2 480.745 498.773C482.134 498.597 483.52 498.416 484.905 498.235C494.093 497.031 503.202 495.694 512.23 494.222C518.469 493.204 524.678 492.136 530.837 490.984C547.969 470.232 562.351 447.149 573.424 422.294C544.31 430.248 514.107 436.13 483.105 440.244C470.356 441.935 457.473 443.33 444.478 444.452C395.744 448.657 345.422 449.015 294.624 446.74C274.248 445.79 254.277 444.642 234.716 443.361C160.349 438.491 91.9358 431.702 29.6426 426.548C40.6277 450.216 54.5977 472.186 71.0784 491.968C71.2942 491.99 71.5048 492.011 71.721 492.032C81.2906 492.979 91.0318 493.927 100.94 494.863Z" fill="#74E8F7"/>
<path d="M294.624 446.74C345.423 449.015 395.744 448.658 444.478 444.453C457.474 443.331 470.357 441.936 483.105 440.245C514.108 436.131 544.311 430.249 573.425 422.295C584.934 396.463 592.863 368.722 596.634 339.725C546.886 357.832 492.883 368.537 436.943 373.327C412.038 375.459 386.751 376.424 361.282 376.339C357.548 376.327 353.809 376.29 350.067 376.233C339.567 376.074 329.042 375.741 318.506 375.244C314.743 375.067 310.978 374.87 307.212 374.652C303.6 374.441 299.986 374.212 296.372 373.965C289.121 373.456 281.908 372.932 274.733 372.394C260.383 371.319 246.186 370.188 232.145 369.021C183.605 364.985 136.949 360.511 92.3328 356.334C85.3268 355.678 78.3615 355.028 71.4574 354.39C58.7395 353.214 46.1956 352.073 33.8296 350.984C24.3712 350.152 15.0509 349.362 5.80273 348.599C10.2118 376.046 18.3414 402.198 29.643 426.549C91.9364 431.702 160.349 438.491 234.717 443.362C254.278 444.643 274.248 445.791 294.624 446.74Z" fill="#58D3DD"/>
<path d="M71.4567 354.389C78.3608 355.028 85.3261 355.678 92.3321 356.333C136.948 360.511 183.604 364.985 232.145 369.02C246.185 370.188 260.383 371.318 274.733 372.394C281.908 372.932 289.121 373.456 296.371 373.964C299.985 374.212 303.599 374.441 307.212 374.651C310.977 374.87 314.742 375.066 318.505 375.244C329.042 375.741 339.566 376.073 350.066 376.233C353.808 376.29 357.547 376.327 361.282 376.339C386.75 376.423 412.037 375.459 436.942 373.326C492.882 368.537 546.886 357.832 596.633 339.724C598.649 324.224 599.489 308.37 599.027 292.248C598.626 278.282 597.252 264.575 595.012 251.172C525.687 277.754 446.936 289.795 365.184 289.535C358.033 289.512 350.859 289.393 343.666 289.184C336.72 288.982 329.757 288.696 322.78 288.322C315.68 287.943 308.565 287.475 301.441 286.92C294.307 286.363 287.19 285.791 280.09 285.205C272.417 284.572 264.769 283.922 257.14 283.262C168.677 275.605 83.3659 266.319 4.7415 260.104C2.55187 276.177 1.62227 292.635 2.10239 309.383C2.48418 322.703 3.74457 335.789 5.80202 348.599C15.0502 349.362 24.3705 350.151 33.8289 350.984C46.1949 352.072 58.7388 353.214 71.4567 354.389Z" fill="#74E8F7"/>
<path d="M280.09 285.206C287.189 285.792 294.307 286.364 301.441 286.921C308.565 287.475 315.679 287.943 322.78 288.323C329.757 288.696 336.719 288.983 343.666 289.185C350.858 289.394 358.033 289.513 365.184 289.536C446.935 289.796 525.687 277.754 595.012 251.173C590.751 225.676 583.284 201.309 573.038 178.485C509.926 201.45 439.089 212.919 364.091 213.421C360.84 213.443 357.582 213.445 354.316 213.425C338.19 213.33 321.883 212.734 305.427 211.643C213.269 205.588 122.221 194.017 37.7627 184.449C33.8403 184.005 29.9557 183.573 26.0622 183.138C15.6782 207.345 8.41062 233.172 4.74121 260.105C83.3656 266.32 168.677 275.605 257.14 283.263C264.769 283.923 272.417 284.573 280.09 285.206Z" fill="#4BC6C9"/>
<path d="M305.427 211.641C321.883 212.732 338.191 213.328 354.316 213.424C357.583 213.443 360.841 213.441 364.092 213.419C439.09 212.917 509.927 201.449 573.039 178.484C560.984 151.632 545.1 126.916 526.088 105.018C523.912 105.615 521.755 106.238 519.561 106.813C495.098 113.226 469.591 118.209 443.175 121.807C436.372 122.734 429.507 123.565 422.582 124.303C419.552 124.626 416.514 124.935 413.462 125.221C379.069 128.453 343.251 129.418 306.161 128.016C300.655 127.814 295.154 127.58 289.659 127.317C223.718 124.162 158.637 116.791 96.6726 108.84C89.1492 107.875 81.6894 106.9 74.2622 105.924C54.4807 128.908 38.165 154.923 26.063 183.136C29.9565 183.571 33.8409 184.003 37.7635 184.448C122.222 194.016 213.27 205.586 305.427 211.641Z" fill="#74E8F7"/>
<path d="M289.659 127.318C295.154 127.581 300.655 127.814 306.161 128.016C343.251 129.418 379.069 128.453 413.462 125.222C416.514 124.935 419.552 124.626 422.582 124.303C429.507 123.565 436.372 122.734 443.176 121.807C469.592 118.21 495.098 113.226 519.562 106.813C521.755 106.239 523.912 105.615 526.089 105.018C498.644 73.4066 464.696 47.6735 426.406 29.834C412.489 31.66 398.323 33.2104 383.875 34.4302C356.859 36.7107 328.927 37.9175 300.127 37.9978C255.558 38.1505 211.787 35.8806 169.46 32.3195C132.855 50.2421 100.519 75.417 74.2622 105.924C81.6894 106.9 89.1493 107.875 96.6726 108.84C158.637 116.791 223.719 124.162 289.659 127.318Z" fill="#58D3DD"/>
<path d="M383.874 34.431C398.323 33.2111 412.488 31.6606 426.406 29.8346C385.655 10.8493 339.994 0.799186 292.002 2.17688C248.03 3.43905 206.555 14.1575 169.459 32.3204C211.786 35.8814 255.557 38.1514 300.127 37.9986C328.926 37.9184 356.858 36.7116 383.874 34.431Z" fill="#74E8F7"/>
<g opacity="0.2">
<path d="M299.334 2.15967C288.214 2.15967 277.237 2.77352 266.432 3.95861C415.853 20.3477 512.209 147.047 512.209 300.921C512.209 454.796 415.853 581.495 266.432 597.885C277.237 599.07 288.214 599.683 299.334 599.683C464.238 599.683 598.428 468.288 599.32 300.921C600.2 135.922 464.238 2.15967 299.334 2.15967Z" fill="#222222"/>
</g>
</svg>
