<svg width="1000" height="400" viewBox="0 0 1000 400" fill="none" xmlns="http://www.w3.org/2000/svg">
<g clip-path="url(#clip0_2175_655)">
<path d="M569.658 353.261C569.658 353.261 573.742 342.399 586.073 345.893C598.364 349.362 603.621 373.102 603.621 373.102C603.621 373.102 594.138 359.893 585.913 360.803C577.723 361.727 572.793 371.142 572.793 371.142L569.658 353.261Z" fill="#71819B"/>
<path d="M598.724 384.811C610.537 383.687 619.549 389.191 626.513 399.491C616.383 394.804 608.263 393.57 598.724 394.337V384.811Z" fill="#71819B"/>
<path d="M567.259 165.601C565.273 144.896 585.205 130.161 607.195 124.77C633.867 118.224 667.025 129.441 678.502 152.209C701.386 197.539 681.103 235.754 681.103 235.754C680.791 241.873 679.013 248.016 675.63 253.636C672.233 259.289 667.615 263.74 662.343 266.925L578.712 300.057C565.184 310.88 577.132 381.467 577.132 381.467L593.077 382.591C596.53 382.835 599.905 384.313 602.434 387.033C604.985 389.745 606.23 393.184 606.23 396.607V399.999H567.21C563.054 399.999 558.89 398.828 555.23 396.354C551.538 393.879 548.874 390.464 547.374 386.677C547.374 386.677 548.475 302.808 549.12 298.548C549.767 294.287 551.522 290.492 554.057 287.36L615.108 231.011C615.108 231.011 570.4 197.887 567.259 165.601Z" fill="#7492AC"/>
<path d="M798.424 197.103C798.424 197.103 807.502 158.486 813.93 147.045C814.098 146.713 821.795 136.92 831.159 140.516C842.19 144.785 840.483 156.786 840.339 157.687C838.418 167.845 821.97 194.796 821.97 194.796L865.066 233.492C867.354 235.547 869.254 238.133 870.458 241.16C871.717 244.204 872.157 247.343 871.949 250.41L868.391 301.613L832.228 319.907L828.416 316.594C828.167 314.334 828.63 311.979 829.899 309.898C831.159 307.811 833.042 306.31 835.179 305.48L857.321 296.8L857.042 286.616L845.101 294.911L823.254 299.661L820.168 294.854C820.877 292.594 822.338 290.586 824.452 289.163C826.565 287.763 828.981 287.219 831.335 287.423L843.266 288.459L856.508 267.099L855.918 245.619L803.562 211.326C801.344 209.887 799.581 207.737 798.601 205.064C797.643 202.4 797.627 199.617 798.424 197.103Z" fill="#7492AC"/>
<path d="M823.254 299.664C817.504 303.182 811.259 302.289 807.27 296.708C812.231 298.249 817.288 295.957 821.045 292.85C822.346 296.075 823.254 299.664 823.254 299.664Z" fill="#71819B"/>
<path d="M832.873 319.773C827.937 325.916 821.004 325.054 814.806 320.667C820.51 320.824 824.841 317.568 828.462 313.061C830.535 315.899 832.873 319.773 832.873 319.773Z" fill="#71819B"/>
<path d="M671.491 384.811C683.32 383.687 692.35 389.191 699.297 399.491C689.182 394.804 681.062 393.57 671.491 394.337V384.811Z" fill="#71819B"/>
<path d="M920.213 2.80483C920.213 2.80483 878.122 -6.99034 855.231 10.0225C838.106 22.7417 832.699 64.5226 825.073 82.128C818.843 96.5553 798.058 104.294 798.058 104.294L814.687 182.084C814.687 182.084 838.617 170.265 844.845 163.538C861.029 146.035 868.743 101.369 893.365 82.128C903.582 74.1429 942.22 69.4316 942.22 69.4316L920.213 2.80483Z" fill="#7B9AB6"/>
<path d="M830.281 149.793C846.464 132.297 854.211 87.6313 878.792 68.3971C889.026 60.3893 927.663 55.686 927.663 55.686L927.559 55.3379H937.545L942.22 69.4333C942.22 69.4333 903.583 74.1447 893.365 82.1298C868.743 101.37 861.029 146.037 844.846 163.54C838.617 170.267 814.688 182.086 814.688 182.086L810.587 162.86C817.847 158.884 826.803 153.555 830.281 149.793Z" fill="#CDBC80"/>
<path d="M821.691 175.07C829.7 166.342 834.772 154.903 835.355 142.215C835.953 129.526 831.941 117.699 824.786 108.268C824.786 108.268 817.807 100.411 814.337 98.6155C804.982 93.8102 765.754 92.6947 750.927 93.8102C710.448 96.8459 594.275 114.071 594.275 114.071C395.875 90.3859 192.648 72.5036 0 75.256C207.213 89.0113 379.404 122.616 569.006 182.43C569.006 182.43 585.452 201.949 593.788 205.783C628.604 221.752 741.578 228.448 780.374 209.206C792.761 203.071 821.691 175.07 821.691 175.07Z" fill="#80A1BE"/>
<path d="M576.615 161.474C606.941 186.748 608.049 186.542 614.039 189.293C648.879 205.27 737.407 198.227 776.235 178.984C788.622 172.858 834.445 146.019 834.445 146.019C834.692 145.765 834.877 145.496 835.099 145.227C833.903 156.706 829.037 167.047 821.691 175.071C821.691 175.071 792.761 203.072 780.374 209.207C741.578 228.449 628.603 221.753 593.788 205.784C585.452 201.95 569.006 182.431 569.006 182.431C379.404 122.618 207.213 89.0127 0 75.2573C207.213 89.0127 387.005 101.669 576.615 161.474Z" fill="#D5C384"/>
<path d="M590.127 165.601C588.141 144.897 608.112 130.162 630.055 124.771C656.727 118.225 689.893 129.442 701.386 152.21C724.246 197.54 703.979 235.754 703.979 235.754C703.652 241.874 701.889 248.017 698.506 253.637C695.101 259.29 690.523 263.741 685.195 266.926L628.954 300.754C624.161 303.647 620.435 308.312 618.905 314.114C617.364 319.925 618.299 325.799 621.058 330.653L649.915 381.468L665.828 382.592C669.297 382.836 672.68 384.314 675.209 387.034C677.752 389.746 679.014 393.185 679.014 396.608V400H639.977C635.838 400 631.658 398.829 627.98 396.355C624.303 393.88 621.664 390.465 620.148 386.678L592.12 316.865C590.605 313.141 590.055 308.984 590.692 304.73C591.339 300.477 593.11 296.666 595.645 293.544L646.263 231.012C646.263 231.012 593.253 197.888 590.127 165.601Z" fill="#82A5C3"/>
<path d="M918.659 0.219257C894.746 0.993158 893.119 22.5831 893.119 22.5831C887.981 28.3938 885.087 36.0146 884.791 44.3397C884.066 64.6166 901.51 69.519 901.51 69.519L984.925 71.3129L1000 57.6596C1000 57.6596 995.253 41.3283 991.161 37.0589C981.455 26.9626 939.963 12.5839 939.963 12.5839C939.963 12.5839 929.912 -0.136932 918.659 0.219257Z" fill="#82A5C3"/>
<path d="M893.022 22.7175C893.063 22.6624 893.071 22.6155 893.118 22.5831C893.118 22.5831 894.745 0.993158 918.658 0.219257C929.912 -0.136932 939.963 12.5839 939.963 12.5839C939.963 12.5839 981.454 26.9626 991.161 37.0589C995.253 41.3283 1000 57.6596 1000 57.6596L998.747 58.8059C996.984 53.8338 993.067 45.486 990.787 43.0979C981.072 33.0113 936.317 17.904 936.317 17.904C936.317 17.904 930.933 8.74836 919.679 8.47312C899.603 7.95827 893.022 22.7175 893.022 22.7175Z" fill="#71819B"/>
<path d="M892.84 39.0269C894.021 39.8963 895.95 41.6513 897.338 42.1484C898.733 42.6471 900.161 42.9708 901.646 43.0583L928.98 45.0028C930.487 45.1064 931.987 45.3816 933.431 45.8171C934.85 46.2446 936.254 46.8452 937.595 47.5883L955.629 57.7867C956.944 58.5298 958.349 59.0738 959.808 59.43C961.083 59.7457 962.408 59.9125 963.747 59.9125H964.259L998.644 58.8925L1000 57.6588L984.925 71.3121L901.51 69.5182C901.51 69.5182 884.066 64.6158 884.791 44.3389C884.918 40.9713 887.903 35.5168 892.84 39.0269Z" fill="#D5C384"/>
<path d="M999.968 57.5457C999.968 57.5457 999.943 57.4725 999.92 57.4409C999.943 57.4809 999.943 57.5058 999.968 57.5457Z" fill="#A1D2FC"/>
<path d="M908.855 20.2053C907.865 25.8735 912.803 31.422 919.886 32.6314C926.906 33.8182 933.438 30.2126 934.41 24.5443C935.4 18.8842 930.462 13.3195 923.428 12.1246C916.353 10.9233 909.835 14.5451 908.855 20.2053Z" fill="#6E7E96"/>
<path d="M914.67 21.2022C914.144 24.2849 916.825 27.3125 920.676 27.9536C924.536 28.5932 928.07 26.6406 928.597 23.5741C929.123 20.4753 926.443 17.4477 922.607 16.7985C918.77 16.1428 915.212 18.1196 914.67 21.2022Z" fill="#EEBD32"/>
<path d="M919.664 22.0305C919.321 23.9426 921.052 25.8158 921.052 25.8158C921.052 25.8158 923.294 24.5999 923.604 22.7105C923.931 20.813 922.232 18.9316 922.232 18.9316C922.232 18.9316 920.015 20.1411 919.664 22.0305Z" fill="black"/>
<path d="M633.287 354.154C633.287 354.154 633.024 342.556 645.754 341.284C658.492 339.987 672.275 360.076 672.275 360.076C672.275 360.076 658.492 351.323 651.21 355.19C643.935 359.056 642.906 369.617 642.906 369.617L633.287 354.154Z" fill="#71819B"/>
<path d="M789.228 140.566C784.49 154.575 791.015 169.382 803.809 173.627C816.635 177.865 830.824 169.935 835.554 155.919C840.292 141.903 833.759 127.095 820.957 122.842C808.156 118.597 793.942 126.534 789.228 140.566Z" fill="#82A5C3"/>
<path d="M783.858 197.103C783.858 197.103 792.936 158.486 799.341 147.045C799.548 146.713 807.237 136.92 816.601 140.516C827.64 144.785 825.941 156.786 825.773 157.687C823.867 167.845 807.404 194.796 807.404 194.796L850.508 233.492C852.796 235.547 854.672 238.133 855.916 241.16C857.151 244.204 857.599 247.343 857.407 250.41L853.842 301.613L817.677 319.907L813.856 316.594C813.61 314.334 814.072 311.979 815.333 309.898C816.617 307.811 818.482 306.31 820.604 305.48L842.755 296.8L842.508 286.616L830.535 294.911L808.696 299.661L805.625 294.854C806.319 292.594 807.763 290.586 809.893 289.163C812.007 287.763 814.464 287.219 816.777 287.423L828.717 288.459L841.958 267.099L841.366 245.619L789.019 211.326C786.785 209.887 785.031 207.737 784.066 205.064C783.092 202.4 783.092 199.617 783.858 197.103Z" fill="#82A5C3"/>
<path d="M808.698 299.664C802.971 303.182 796.687 302.289 792.738 296.708C797.675 298.249 802.724 295.957 806.52 292.85C807.804 296.075 808.698 299.664 808.698 299.664Z" fill="#71819B"/>
<path d="M818.325 319.773C813.379 325.916 806.464 325.054 800.274 320.667C805.946 320.824 810.277 317.568 813.929 313.061C815.979 315.899 818.325 319.773 818.325 319.773Z" fill="#71819B"/>
<path d="M645.377 106.751L637.624 139.14L629.767 108.949C634.664 108.26 639.896 107.525 645.377 106.751Z" fill="#71819B"/>
<path d="M613.113 111.331L605.543 142.928L597.918 113.544C601.164 113.069 606.42 112.302 613.113 111.331Z" fill="#71819B"/>
<path d="M772.598 93.5199L762.699 148.075L751.715 93.7563C756.814 93.4163 764.39 93.3143 772.598 93.5199Z" fill="#71819B"/>
<path d="M523.318 105.897L511.545 132.294L509.607 104.396C514.162 104.885 518.747 105.384 523.318 105.897Z" fill="#71819B"/>
<path d="M540.659 137.966L538.545 107.593C543.514 108.163 548.477 108.731 553.422 109.293L540.659 137.966Z" fill="#71819B"/>
<path d="M671.554 145.331L660.515 104.65C666.466 103.843 672.528 103.021 678.613 102.207L671.554 145.331Z" fill="#71819B"/>
<path d="M743.907 94.4072L733.93 162.496L722.563 96.6836C730.491 95.7591 737.75 94.9755 743.907 94.4072Z" fill="#71819B"/>
<path d="M710.9 98.0835L702.765 157.02L690.528 100.661C697.476 99.7446 704.329 98.8752 710.9 98.0835Z" fill="#71819B"/>
<path d="M492.164 102.509L481.404 126.636L479.617 101.18C483.797 101.623 487.984 102.073 492.164 102.509Z" fill="#71819B"/>
<path d="M305.967 85.559L300.512 97.7731L299.627 85.0928C301.724 85.2498 303.855 85.4084 305.967 85.559Z" fill="#71819B"/>
<path d="M272.968 83.2559L268.805 92.6318L268.12 82.9321C269.755 83.0422 271.35 83.1378 272.968 83.2559Z" fill="#71819B"/>
<path d="M568.385 111.018C573.769 111.658 579.153 112.291 584.537 112.93L573.044 144.37L568.385 111.018Z" fill="#71819B"/>
<path d="M779.754 93.748C786.382 94.0249 793.026 94.5074 798.832 95.2036L790.258 135.727L779.754 93.748Z" fill="#71819B"/>
<path d="M336.427 87.8861L330.675 100.876L329.718 87.3647C331.961 87.5315 334.202 87.7128 336.427 87.8861Z" fill="#71819B"/>
<path d="M429.662 96.1442L421.104 115.307L419.692 95.2036C423.01 95.5031 426.319 95.8204 429.662 96.1442Z" fill="#71819B"/>
<path d="M460.944 99.2529L451.253 120.961L449.665 98.1147C453.406 98.4936 457.179 98.8741 460.944 99.2529Z" fill="#71819B"/>
<path d="M398.3 93.204L390.97 109.631L389.765 92.4204C392.605 92.673 395.436 92.9418 398.3 93.204Z" fill="#71819B"/>
<path d="M367.008 90.4179L360.26 105.517L359.19 89.7622C361.799 89.9743 364.4 90.1961 367.008 90.4179Z" fill="#71819B"/>
<path d="M832.228 59.3527C833.264 55.582 834.365 51.6849 835.53 47.7798L859.05 66.6821L832.228 59.3527Z" fill="#6E7E96"/>
<path d="M845.684 21.7323C848.028 17.5195 850.677 13.9221 853.708 11.249L870.139 39.5595L845.684 21.7323Z" fill="#6E7E96"/>
<path d="M872.156 2.37695L874.669 27.6825L861.715 6.11531C865.018 4.51084 868.518 3.28523 872.156 2.37695Z" fill="#6E7E96"/>
<path d="M863.201 51.9146L837.677 40.8775C839.152 36.4106 840.747 32.0554 842.558 28.0078L863.201 51.9146Z" fill="#6E7E96"/>
<path d="M822.075 87.2915L837.046 108.928L812.599 96.3598C816.044 93.9004 819.45 90.8647 822.075 87.2915Z" fill="#6E7E96"/>
<path d="M830.576 65.3848L851.768 86.2623L826.476 78.6269C827.84 74.8156 829.188 70.3018 830.576 65.3848Z" fill="#6E7E96"/>
<path d="M884.146 23.1909L881.074 0.739628C884.599 0.289535 888.094 0.0677427 891.5 0.0126953L884.146 23.1909Z" fill="#6E7E96"/>
<path d="M888.18 34.7338C888.652 34.1331 889.465 33.9987 890.071 34.4262L895.008 37.9363C896.006 38.647 897.074 39.2169 898.247 39.6362C899.418 40.0394 900.632 40.292 901.844 40.394L929.162 42.3239C930.869 42.4501 932.584 42.7496 934.219 43.2402C935.838 43.7389 937.434 44.4108 938.925 45.2559L956.967 55.4624C958.052 56.063 959.217 56.5293 960.453 56.8385C961.665 57.1381 962.925 57.2725 964.153 57.2336L999.568 56.1731C999.831 57.0992 999.999 57.6594 999.999 57.6594L998.643 58.8931L964.258 59.9131H963.747C962.407 59.9131 961.083 59.7463 959.807 59.4306C958.348 59.0744 956.943 58.5305 955.628 57.7873L937.594 47.589C936.253 46.8458 934.85 46.2452 933.43 45.8178C931.986 45.3822 930.487 45.107 928.979 45.0034L901.645 43.0589C900.16 42.9715 898.732 42.6477 897.337 42.149C895.949 41.652 894.634 40.9639 893.428 40.1171L888.492 36.5844C887.886 36.1731 887.75 35.3264 888.18 34.7338Z" fill="#627A91"/>
<path d="M990.244 45.8878C991.033 47.5959 991.09 49.2635 990.355 49.6035C989.613 49.9597 988.337 48.8604 987.524 47.1523C986.727 45.4442 986.67 43.7766 987.42 43.4205C988.178 43.074 989.455 44.1797 990.244 45.8878Z" fill="#627A91"/>
<path d="M704.001 235.668C703.978 235.715 703.979 235.754 703.979 235.754C703.747 240.086 702.789 244.435 701.043 248.617L663.013 235.959L704.001 235.668Z" fill="#71819B"/>
<path d="M633.205 298.19L628.953 300.751C628.22 301.185 627.55 301.668 626.911 302.183L616.741 282.387L633.205 298.19Z" fill="#71819B"/>
<path d="M688.08 265.01C687.123 265.69 686.198 266.338 685.194 266.922L677.337 271.658L653.561 251.618L688.08 265.01Z" fill="#71819B"/>
<path d="M634.355 264.002L657.375 283.687L648.928 288.754L634.355 264.002Z" fill="#71819B"/>
<path d="M709.978 176.155C711.596 183.57 712.25 190.574 712.25 197.01L648.879 182.084L709.978 176.155Z" fill="#71819B"/>
<path d="M656.656 210.927L711.876 205.568C711.27 212.446 710 218.413 708.661 223.19L656.656 210.927Z" fill="#71819B"/>
</g>
<defs>
<clipPath id="clip0_2175_655">
<rect width="1000" height="400" fill="white"/>
</clipPath>
</defs>
</svg>
