<svg width="600" height="600" viewBox="0 0 600 600" fill="none" xmlns="http://www.w3.org/2000/svg">
<g clip-path="url(#clip0_1956_1763)">
<path d="M300 600C465.685 600 600 465.685 600 300C600 134.315 465.685 0 300 0C134.314 0 0 134.315 0 300C0 465.685 134.314 600 300 600Z" fill="#D37A0E"/>
<path d="M308.667 48.6662C286 49.333 282.667 69.333 264 77.9996C244.667 87.333 224.667 80.6662 206 93.9996C188.667 106 169.333 112.666 151.333 97.9996C143.333 91.333 134 85.9996 139.333 75.333C144.667 65.9996 156 63.333 165.333 61.333C180 57.333 188 49.9996 200 41.333C213.333 31.9996 228 30.6662 244 31.9996C259.333 33.333 269.333 35.333 284.667 31.9996C292 29.9996 298.667 28.6662 305.333 32.6662C310.667 35.9996 315.333 43.333 309.333 47.9996L308.667 48.6662Z" fill="#B75408"/>
<path d="M414.448 130.549C399.293 140.147 386.34 157.85 395.554 169.435C398.044 172.902 402.819 175.626 404.667 178.913C406.796 183.665 404.072 188.44 405.38 193.654C407.995 204.08 432.904 215.348 442.172 219.331C455.112 225.037 467.771 229.279 480.069 234.805C492.367 240.331 495.756 240.589 504.774 230.654C511.427 224.212 514.589 215.405 520.6 208.782C528.616 199.952 534.009 198.002 531.754 186.292C530.806 179.794 526.727 169.65 521.85 164.82C512.095 155.161 490.913 149.221 478.614 143.695C460.719 135.908 433.915 122.852 415.168 127.981L414.448 130.549Z" fill="#E9971C"/>
<path d="M228 498.001C216 501.334 184.339 507.738 193.006 511.738C202.339 515.738 246.833 519.334 255.5 515.334C264.833 510.667 272.75 504.001 283.416 504.001C291.416 504.001 299.375 507.334 307.375 508.667C323.375 510.667 339.354 512.001 352.02 500.667C369.354 485.334 372.677 471.334 398.677 470.667C404.01 470.667 410.671 471.334 415.338 470.667C424.005 469.334 430.669 464 438.669 461.334C450.002 458.667 488.001 456.667 489.334 442.667C490.668 432.667 457.334 428.667 451.334 421.334C440 407.334 424.667 404 408 405.334C391.333 406.667 379.333 422 364 429.334C342.667 439.334 320.666 450.667 299.333 458.667C284.666 464.001 279.667 472.667 267 481.334C256.333 488 236 488.667 228 497.334V498.001Z" fill="#AC621A"/>
<path d="M485 399C474 391 459 386 459 372C459 359 474 344 482 335C492 323 508 314 500 297C494 284 473 270 462 260C442 244 417 223 393 214C320 214 402 252 418 263C428 270 434 275 439 286C441 290 445 299 444 303C442 314 443 305 436 311C418 325 401 347 381 358C363 367 346 364 328 369C297 376 286 401 280 429C276 447 277 454 261 460C246 465 234 470 220 477C175.207 497.967 139.244 485.472 82.5239 506.643C98.2485 523.187 115.85 537.925 134.973 550.546C145.182 543.234 154.944 535.122 165 527C183 512 211 505 234 502C249 499 266 498 280 492C296 487 300 475 311 465C321 456 335 447 348 446C367 444 372 449 388 438C417 417 440 451 471 455C487 456 500 450 505 435C510 416 498 409 485 399Z" fill="#FFCF37"/>
<path d="M445 111.001C434 93.0007 455 88.0007 454 72.0007C452 59.0007 427 43.0007 415 47.0007C382 56.0007 390 92.0007 390 115.001L384.75 122.001C374.75 127.001 375 128.001 379 142.001C381 153.001 399 157.001 407 164.001C417 173.001 422 187.001 434 194.001C443 200.001 456 201.001 467 204.001C482 208.001 491 213.001 503 202.001C512 193.001 518 176.001 514 164.001C504 135.001 461 135.001 445 111.001Z" fill="#FFCF37"/>
<path d="M593.647 238.356C575.636 253.43 565.655 272.311 577 295.001C587 314.001 591 319.001 574 335.001C563 345.001 549 358.001 547 374.001C544.375 390.407 559.408 406.384 576.271 417.124C591.546 381.139 600 341.557 600 300.001C600 278.869 597.803 258.253 593.647 238.356Z" fill="#FFCF37"/>
<path d="M173 66.9997C189 53.9997 215 61.9997 235 60.9997C257 59.9997 303 51.9997 304 22.9997C304.296 15.5903 301.063 7.65693 295.816 0.0527344C209.762 1.23073 132.462 38.6225 78.4795 97.7011C87.3699 101.998 97.1221 104.625 108 105C142 106 149 84.9997 173 66.9997Z" fill="#FFCF37"/>
<path d="M300.666 155.333C317.333 149.333 337.333 148.667 339.333 170.667C340.666 187.333 320.666 206.667 308.666 216.667C276.666 244 238.666 260 214 294.667C200.666 312.667 187.333 334.667 171.333 350C162.666 358 152 364 143.333 372C136 378.667 128.666 388 119.333 392.667C107.333 398.667 91.9998 397.333 78.6664 397.333C67.3332 397.333 51.3332 401.333 47.3332 388.667C41.9998 374 53.3332 358 59.9998 345.333C69.9998 327.333 81.9998 313.333 97.9998 300.667C116 287.333 132 276 141.333 255.333C149.333 237.333 159.333 222 175.333 210.667C194.666 196.667 218.666 191.333 239.333 182C254 175.333 298 125.333 314 145.333L300.666 155.333Z" fill="#A66413"/>
<path d="M107.999 352C123.999 330 120.999 300 140.999 280C159.999 262 187.999 272 207.999 258C229.999 244 236.999 215 259.999 202C281.999 188 302.999 195 322.999 173C334.999 159 348.999 136.5 342.999 116.5C337.999 99.5 308.999 90 294.999 78H297.999C281.999 76 270.999 90.5 271.999 104.5C272.999 121.5 286.999 129.25 262.999 134.25C240.999 138.25 215.999 137.125 193.999 138.125C182.999 138.125 171.999 139.062 161.999 139.062C138.999 138.062 139.999 138.031 131.999 159.031C120.999 192.031 86.9991 188.016 70.9991 216.016C64.9991 225.016 63.9991 235.008 52.9991 240.008C43.9991 244.008 30.9991 238.004 20.9991 241.004C3.99914 247.004 9.99914 270.002 7.99914 286.002C6.82014 294.452 3.9648 301.224 0.0874023 306.967C1.401 364.605 18.9764 418.22 48.3966 463.422C50.562 448.144 48.7515 431.94 51.9991 417C58.9991 387 89.9991 375 107.999 352Z" fill="#FFCF37"/>
<path d="M212.667 408.666C208.667 393.333 205.334 380 212.667 365.333C222.667 344.666 241.334 339.333 256.667 324C263.334 317.333 271.334 306.666 282.667 307.333C293.334 308 302.667 320.666 298.667 332C292 351.333 264 352 260 376.666C257.334 394.666 258.667 402.666 242.667 414.666C233.334 422.666 214.667 431.333 213.334 411.333L212.667 408.666Z" fill="#FFCF37"/>
<g opacity="0.1">
<path d="M139.627 184.9C121 200.25 126 228 106 241C96.0003 248 71.0003 258 75.0003 275C79.0003 290 103 284 113 279C126 273 136 264 147 255C159 244 171 240 184 232C197 224 204 210 200 194C194 177 179.749 177.385 165 174C149.75 170.5 139.627 184.9 139.627 184.9Z" fill="#222222"/>
</g>
<g opacity="0.1">
<path d="M433.274 158.899C437.145 165.887 446.477 165.934 449.5 173.227C451.175 176.904 468.892 196.276 474.666 196C479.789 195.604 477.999 177 470.666 167.89C467.694 164.198 458.796 164.853 456.531 160.73C453.675 156.161 453.098 152.014 451.279 147.301C449.46 142.587 445.447 136.664 439.999 137C434.105 137.927 428.991 140.738 426.999 145.334C424.94 150.085 433.274 158.899 433.274 158.899Z" fill="#222222"/>
</g>
<g opacity="0.1">
<path d="M404 374C376.416 397.933 356.22 403.086 333.574 410.579C322.124 414.809 295.404 418.131 294.954 435.589C295.013 451.113 301.894 436.722 312.836 434.427C326.934 431.926 341.14 427.041 354.066 421.131C368.466 413.54 421.5 409.5 436.429 388.999C447.042 374.426 462.905 350.02 449.5 343C435.639 335.741 404 374 404 374Z" fill="#222222"/>
</g>
<g opacity="0.2">
<path d="M298.588 0C287.415 0 276.385 0.616198 265.529 1.8062C415.659 18.2634 512.471 145.488 512.471 300C512.471 454.512 415.659 581.737 265.529 598.194C276.385 599.384 287.415 600 298.588 600C464.273 600 599.099 468.061 599.996 300C600.88 134.317 464.273 0 298.588 0Z" fill="#222222"/>
</g>
</g>
<defs>
<clipPath id="clip0_1956_1763">
<rect width="600" height="600" fill="white"/>
</clipPath>
</defs>
</svg>
