<svg width="1000" height="700" viewBox="0 0 1000 700" fill="none" xmlns="http://www.w3.org/2000/svg">
<g clip-path="url(#clip0_1276_7855)">
<path d="M661.802 85.5685C688.555 67.6077 721.792 50.5021 733.142 18.8568C735.574 12.0146 734.763 -0.814566 742.06 0.0407128C748.545 0.895991 759.083 14.5804 759.894 22.2779C760.705 32.5413 749.355 28.2649 741.249 34.2518C723.414 48.7916 708.821 75.3052 690.986 89.8449C667.477 108.661 643.157 128.332 623.7 152.28C618.836 158.267 613.162 165.965 605.055 167.675C593.705 170.241 588.03 160.833 591.273 152.28C594.516 142.872 604.244 132.609 610.73 125.767C626.133 109.516 643.967 97.5424 661.802 85.5685Z" fill="#4C453F"/>
<path d="M337.535 85.5685C310.783 67.6077 277.545 50.5021 266.195 18.8568C263.763 12.0146 264.574 -0.814566 257.278 0.0407128C253.225 0.0407128 249.982 4.31713 247.55 6.88297C244.307 11.1594 240.254 16.291 239.443 22.2779C238.632 32.5413 249.982 28.2649 258.089 34.2518C275.924 48.7916 290.516 75.3052 308.351 89.8449C331.86 108.661 356.181 128.332 375.637 152.28C380.501 158.267 386.176 165.965 394.282 167.675C405.632 170.241 411.307 160.833 408.064 152.28C404.821 142.872 395.093 132.609 388.608 125.767C373.205 109.516 355.37 97.5424 337.535 85.5685Z" fill="#4C453F"/>
<path d="M513.308 51.07C513.308 51.07 600.686 -2.59287 679.897 0.117376C679.897 0.117376 698.68 7.70609 669.282 14.7527C669.282 14.7527 542.706 28.846 523.924 55.4064L513.308 51.07Z" fill="#4C453F"/>
<path d="M485.808 51.07C485.808 51.07 398.43 -2.59287 319.219 0.117376C319.219 0.117376 300.437 7.70609 329.835 14.7527C329.835 14.7527 456.41 28.846 475.192 55.4064L485.808 51.07Z" fill="#4C453F"/>
<path d="M518.316 42.8046C510.21 36.8176 511.831 41.9493 502.914 22.2779C501.292 18.8568 498.05 18.8568 496.428 22.2779C487.511 41.9493 489.132 36.8176 481.026 42.8046C475.351 46.2257 472.919 53.9232 475.351 60.7654H524.802C526.423 53.9232 523.991 46.2257 518.316 42.8046Z" fill="#0A0909"/>
<path d="M590.464 271.167C590.464 271.167 609.92 284.851 620.459 301.957C624.512 308.799 631.808 313.076 639.915 313.931C662.614 317.352 705.58 325.905 716.119 350.708C716.119 350.708 788.269 420.841 794.755 453.341C794.755 453.341 823.128 494.395 825.56 508.934L879.876 574.791L855.556 583.343C855.556 583.343 824.749 524.329 810.157 513.211C810.157 513.211 774.488 461.894 772.866 449.065C772.866 449.065 730.711 398.603 717.74 384.064C717.74 384.064 703.148 363.537 683.692 363.537C683.692 363.537 620.459 315.641 591.274 298.536V271.167H590.464Z" fill="#4C453F"/>
<path d="M614.666 387.291L641.241 376.132C641.241 376.132 683.116 467.801 691.169 494.903C691.169 494.903 663.789 534.759 674.258 553.89C674.258 553.89 694.39 518.02 700.832 512.44C700.832 512.44 723.38 589.761 723.38 605.703C723.38 605.703 727.407 629.617 737.876 632.805C737.876 632.805 734.654 667.879 745.123 667.879V698.967L773.308 690.198L754.787 659.908C754.787 659.908 758.813 630.414 747.539 626.428C747.539 626.428 753.981 604.906 737.07 596.935C737.07 596.935 726.601 515.628 714.522 505.266C714.522 505.266 737.875 498.092 742.707 510.048C742.707 510.048 720.159 474.975 712.911 474.178C712.911 474.178 689.558 343.45 605.808 340.261L614.666 387.291Z" fill="#4C453F"/>
<path d="M408.877 271.167C408.877 271.167 389.421 284.851 378.882 301.957C374.829 308.799 367.533 313.076 359.426 313.931C336.727 317.352 293.761 325.905 283.222 350.708C283.222 350.708 211.072 420.841 204.586 453.341C204.586 453.341 176.213 494.395 173.781 508.934L119.465 574.791L143.786 583.343C143.786 583.343 174.591 524.329 189.184 513.211C189.184 513.211 224.853 461.894 226.475 449.065C226.475 449.065 268.63 398.603 281.601 384.064C281.601 384.064 296.193 363.537 315.649 363.537C315.649 363.537 378.882 315.641 408.067 298.536V271.167H408.877Z" fill="#4C453F"/>
<path d="M384.45 386.946L357.875 375.868C357.875 375.868 316 466.863 307.947 493.766C307.947 493.766 335.327 533.329 324.859 552.319C324.859 552.319 304.726 516.713 298.284 511.174C298.284 511.174 275.736 587.926 275.736 603.751C275.736 603.751 271.71 627.489 261.241 630.654C261.241 630.654 264.462 665.47 253.993 665.47V696.329L225.808 687.625L244.33 657.557C244.33 657.557 240.303 628.28 251.577 624.324C251.577 624.324 245.135 602.96 262.046 595.048C262.046 595.048 272.515 514.339 284.594 504.052C284.594 504.052 261.241 496.931 256.409 508.8C256.409 508.8 278.957 473.985 286.205 473.193C286.205 473.193 309.558 343.426 393.308 340.261L384.45 386.946Z" fill="#4C453F"/>
<path d="M635.862 538.016C633.43 545.713 630.998 553.411 628.566 561.108C618.027 588.477 604.246 613.28 586.411 636.373C570.198 656.899 551.552 677.426 530.474 691.966C525.61 695.387 519.935 697.098 515.071 698.808C502.1 702.229 489.94 697.953 475.348 690.255C440.489 670.584 406.441 634.662 383.742 597.03C363.475 561.964 352.936 527.752 352.125 482.423C351.314 421.698 364.285 351.565 415.358 318.209C389.416 289.13 382.931 249.787 381.309 210.444C379.688 183.931 382.12 154.851 399.955 136.035C421.033 112.943 457.513 112.087 484.266 98.4028C502.911 88.9947 525.61 91.5606 545.877 99.2581C555.605 103.534 565.333 108.666 573.44 115.508C597.76 135.18 613.974 165.115 616.406 196.76C618.838 222.418 613.163 248.077 604.246 272.88C599.382 285.709 593.707 299.393 585.6 310.512C631.809 344.723 663.425 440.514 635.862 538.016Z" fill="#D4A04E"/>
<path d="M583.166 99.2565C579.923 124.06 553.982 130.047 530.472 130.902C502.098 131.757 473.725 130.902 445.351 127.481C438.055 126.625 426.705 126.625 421.031 120.638C416.977 118.073 412.924 101.822 421.031 87.2826C440.487 53.0715 507.773 45.374 545.064 57.3479H545.875C555.603 59.9137 564.521 64.1901 571.817 71.0324C579.113 78.7299 583.977 88.9932 583.166 99.2565Z" fill="#353434"/>
<path d="M583.166 99.2507C581.545 108.659 576.681 116.356 569.385 120.633C538.579 118.922 523.987 79.5793 545.875 56.4868H546.686C566.953 64.1843 585.598 77.8688 583.166 99.2507Z" fill="#0A0909"/>
<path d="M429.139 121.489C426.707 121.489 423.465 120.633 421.032 120.633C420.222 120.633 420.222 119.778 420.222 119.778C411.305 107.804 415.358 80.4353 451.838 63.3298C453.46 62.4745 455.892 61.6192 457.513 60.7639C475.348 84.7117 459.134 121.489 429.139 121.489Z" fill="#0A0909"/>
<path d="M563.721 85.5726C565.342 92.4148 562.91 99.257 558.857 100.112C554.803 100.968 549.939 95.836 548.318 88.9937C546.697 82.1515 549.129 75.3093 553.182 74.454C557.235 73.5987 562.91 78.7304 563.721 85.5726Z" fill="#E9E3DE"/>
<path d="M435.63 85.573C434.009 92.4152 436.441 99.2574 440.494 100.113C444.547 100.968 449.411 95.8363 451.033 88.9941C452.654 82.1519 450.222 75.3096 446.169 74.4543C442.115 73.5991 437.251 78.7308 435.63 85.573Z" fill="#E9E3DE"/>
<path d="M645.592 455.909C646.402 483.278 643.16 511.502 635.863 538.016C633.431 540.582 630.999 542.292 628.567 544.003C617.218 552.556 605.058 558.543 592.087 562.819C588.844 563.674 585.602 565.385 582.359 565.385C579.116 566.24 575.873 567.095 572.631 567.951C568.577 568.806 564.524 569.661 561.281 569.661C558.039 570.517 555.606 570.517 552.364 570.517C536.15 571.372 520.747 568.806 505.345 564.53C502.913 563.674 501.291 563.674 499.67 565.385C491.563 570.517 472.917 586.767 468.864 588.477C455.893 595.32 442.112 599.596 427.519 601.307C414.549 603.017 400.767 602.162 387.796 597.885C386.175 597.03 384.554 596.175 382.932 594.464C378.068 585.912 374.015 577.359 370.772 568.806C359.423 543.148 354.558 515.779 352.937 487.555C352.937 484.133 354.558 481.568 356.99 479.857C372.393 472.16 391.039 471.304 407.253 468.739C440.49 464.462 472.917 449.922 498.048 424.264C499.67 422.553 500.48 421.698 502.102 421.698C504.534 420.843 506.966 422.553 508.587 425.119C509.398 425.975 509.398 426.83 510.208 426.83L511.019 427.685C513.451 430.251 515.883 433.672 518.315 435.383L519.126 436.238C521.558 438.804 524.801 441.37 528.043 443.08C528.043 443.935 528.854 443.935 529.665 443.935C532.097 445.646 535.339 447.357 538.582 449.067C538.582 449.067 539.393 449.922 539.393 449.067C542.636 450.778 545.068 452.488 549.121 453.343C549.932 454.199 550.742 454.199 550.742 454.199C553.985 455.054 558.039 456.765 561.281 456.765C565.335 457.62 569.388 458.475 573.441 458.475C577.495 459.33 581.548 459.33 585.602 459.33C588.034 459.33 590.466 459.33 593.708 459.33C597.762 459.33 602.626 458.475 606.679 457.62C607.49 457.62 607.49 457.62 607.49 457.62C610.732 456.765 614.786 456.765 618.029 455.909C619.65 455.054 620.461 455.054 622.082 455.054C625.325 454.199 629.378 453.343 632.621 451.633C634.242 450.778 635.053 450.778 635.863 450.778C640.728 447.356 645.592 450.778 645.592 455.909Z" fill="#262F3A"/>
<path opacity="0.2" d="M491.56 468.731C494.803 467.02 498.856 467.02 502.099 469.586C537.768 498.665 583.977 489.257 626.133 479.849C597.759 502.087 561.278 510.639 526.419 503.797C497.235 497.81 501.288 498.665 474.536 510.639C430.759 528.6 386.172 526.89 382.929 522.613C373.201 508.074 414.546 519.192 491.56 468.731Z" fill="white"/>
<path opacity="0.2" d="M501.295 526.04C515.076 523.474 564.527 542.291 613.168 514.922C609.115 542.291 516.697 542.291 504.537 544.856C500.484 545.712 403.202 577.357 392.664 559.396C397.528 554.264 407.256 560.251 439.683 553.409C462.382 548.277 489.134 528.606 501.295 526.04Z" fill="white"/>
<path opacity="0.3" d="M645.594 455.909C646.405 483.278 643.162 511.502 635.866 538.016C633.434 540.582 631.002 542.292 628.57 544.003C617.22 552.556 605.06 558.543 592.089 562.819C588.847 563.674 585.604 565.385 582.361 565.385C579.119 566.24 575.876 567.095 572.633 567.951C568.58 568.806 564.526 569.661 561.284 569.661C558.041 570.517 555.609 570.517 552.366 570.517C553.177 567.095 555.609 564.53 558.851 562.819C562.905 560.253 568.58 560.253 573.444 560.253C592.089 558.543 609.113 548.279 621.274 533.74C632.623 518.345 638.298 498.673 635.866 479.002C635.055 476.436 635.055 473.015 632.623 470.449C630.191 467.028 625.327 467.028 621.274 467.028H588.036C574.254 467.028 559.662 467.028 546.691 463.607C532.91 460.186 519.939 453.343 511.832 441.37C508.589 436.238 505.347 429.396 504.536 421.698C506.968 420.843 509.4 422.553 511.021 425.119C511.832 425.975 511.832 426.83 512.643 426.83L513.454 427.685C515.886 430.251 518.318 432.817 520.75 435.383L521.56 436.238C523.992 438.804 527.235 440.514 530.478 443.08C530.478 443.935 531.288 443.935 532.099 443.935C534.531 445.646 537.774 447.357 541.017 449.067C541.017 449.067 541.827 449.922 541.827 449.067C545.07 450.778 548.313 452.488 551.555 453.343C552.366 454.199 553.177 454.199 553.177 454.199C556.42 455.054 560.473 456.765 563.715 456.765C567.769 457.62 571.822 458.475 575.876 458.475C579.929 459.33 583.982 459.33 588.036 459.33C590.468 459.33 592.9 459.33 596.143 459.33C600.196 459.33 605.06 458.475 609.113 457.62C609.924 457.62 609.924 457.62 609.924 457.62C613.167 456.765 616.41 456.765 620.463 455.909C622.084 455.054 622.895 455.054 624.516 455.054C627.759 454.199 631.813 453.343 635.055 451.633C639.109 449.922 643.973 449.067 648.026 447.357C645.594 449.067 645.594 452.488 645.594 455.909Z" fill="#0F1114"/>
<path d="M583.166 180.508C626.132 253.207 527.229 292.55 463.996 274.589C428.327 264.326 391.035 218.141 412.923 177.087C436.433 135.179 548.307 121.494 583.166 180.508Z" fill="#171E26"/>
<path opacity="0.2" d="M486.696 244.647C548.307 250.634 502.909 224.121 542.633 218.989C552.361 218.134 558.036 207.015 545.065 199.318C523.176 185.633 489.128 163.396 465.618 181.357C448.594 194.186 442.109 239.516 486.696 244.647Z" fill="white"/>
<path opacity="0.15" d="M628.565 560.249C605.867 620.974 547.498 690.252 515.881 697.094C517.503 689.396 518.313 679.133 523.988 673.146C553.173 643.211 584.789 583.342 605.867 538.867C620.459 508.077 616.405 473.866 610.731 439.655C604.245 397.746 567.765 364.391 567.765 321.627C567.765 286.56 592.896 255.77 593.706 221.559C596.138 136.031 489.129 130.044 546.687 98.399C586.41 113.794 613.163 153.137 617.216 195.901C620.459 234.388 604.245 286.56 586.41 309.653C604.245 324.192 618.027 345.574 626.944 367.812C650.454 421.694 653.697 491.827 628.565 560.249Z" fill="#262F3A"/>
<path opacity="0.2" d="M468.055 683.411C405.633 644.923 355.371 567.948 353.75 480.71C352.939 443.933 360.235 393.471 376.449 360.971C382.123 401.169 333.483 518.342 454.274 648.344C462.38 658.608 472.109 669.726 468.055 683.411Z" fill="#262F3A"/>
<path opacity="0.15" d="M586.416 308.8C563.717 326.76 540.207 342.155 511.834 345.577C476.164 350.708 417.795 331.892 404.824 325.05C408.067 322.484 412.121 319.918 416.174 317.352L415.363 316.497C434.819 320.773 530.479 322.484 591.28 301.102C590.469 302.813 588.038 306.234 586.416 308.8Z" fill="#262F3A"/>
<path opacity="0.2" d="M579.925 325.904C575.871 331.036 570.197 334.457 565.332 337.023C510.206 367.813 446.163 364.391 395.901 332.746C399.144 329.325 402.386 326.759 406.44 323.338C419.41 325.049 463.187 339.588 507.774 333.601C534.527 330.18 560.468 319.062 585.599 307.943C586.41 314.785 583.978 320.772 579.925 325.904Z" fill="#262F3A"/>
<path opacity="0.1" d="M487.511 229.254C517.506 232.676 504.536 224.123 512.642 215.57C516.696 211.294 528.045 216.425 527.235 207.017C526.424 197.609 467.244 167.674 468.055 209.583C468.055 224.123 478.594 228.399 487.511 229.254Z" fill="white"/>
<path d="M991.749 133.469C985.263 148.009 973.103 160.838 960.943 171.101C924.462 201.891 878.254 219.852 831.234 219.852C848.259 230.115 847.448 257.484 835.288 272.879C823.128 288.274 802.86 293.406 784.215 295.972C738.817 302.814 646.4 301.104 605.055 280.577C591.274 273.735 562.089 253.208 562.9 232.681C564.521 207.878 587.22 224.129 856.365 75.3101C883.118 60.7704 917.977 41.0989 948.783 47.9412C969.05 51.3623 988.506 63.3362 995.802 83.8629C1001.48 100.113 999.045 118.929 991.749 133.469Z" fill="#F3EBDE"/>
<path d="M690.987 193.336C691.797 193.336 693.419 192.481 694.229 192.481C705.579 189.06 717.739 184.784 725.846 176.231C731.521 170.244 734.763 162.546 741.249 157.415C750.166 149.717 761.516 148.862 772.865 148.862C782.593 148.007 792.322 148.007 801.239 147.151C804.482 147.151 808.535 147.151 810.967 149.717C814.21 152.283 813.399 158.27 811.778 161.691C809.346 165.112 805.292 167.678 802.049 169.389C768.001 186.494 729.088 195.047 690.987 193.336ZM690.987 193.336C654.506 204.455 620.458 224.126 583.167 230.969" stroke="black" stroke-width="1.62136" stroke-miterlimit="10"/>
<path d="M797.996 109.52C822.316 118.928 849.879 118.928 874.2 108.664C898.52 98.4011 917.976 73.598 929.325 48.7949" stroke="black" stroke-width="1.62136" stroke-miterlimit="10"/>
<path d="M956.889 130.048C939.054 126.627 909.869 132.614 892.845 138.601L900.141 101.824C897.709 113.798 895.277 126.627 892.845 138.601C899.33 134.324 909.059 139.456 910.68 147.153C913.112 154.851 909.059 163.404 902.573 167.68C896.088 171.957 888.792 173.667 880.685 173.667C872.578 173.667 865.282 172.812 857.986 173.667C837.719 174.522 815.831 188.207 797.996 198.47" stroke="black" stroke-width="1.62136" stroke-miterlimit="10" stroke-linecap="round" stroke-linejoin="round"/>
<path d="M763.95 183.933C768.814 183.078 775.3 181.367 780.975 182.222C787.46 183.078 793.945 187.354 796.377 194.196C798.809 201.038 797.188 209.591 791.513 213.012C788.271 215.578 784.217 215.578 780.164 216.433C749.358 220.71 718.552 224.131 687.747 225.842C736.387 248.934 789.892 260.908 842.586 259.197" stroke="black" stroke-width="1.62136" stroke-miterlimit="10"/>
<path d="M625.322 247.218C690.176 246.363 753.409 263.468 814.21 287.416" stroke="black" stroke-width="1.62136" stroke-miterlimit="10"/>
<path d="M725.033 300.246C693.416 284.851 660.179 272.877 626.13 266.89" stroke="black" stroke-width="1.62136" stroke-miterlimit="10"/>
<path d="M859.612 112.941C860.423 115.506 860.423 118.927 861.233 121.493C862.044 128.336 860.423 135.178 856.369 141.165C852.316 146.296 846.641 149.718 840.966 152.283C831.238 156.56 821.51 161.691 810.972 162.547" stroke="black" stroke-width="1.62136" stroke-miterlimit="10"/>
<path d="M892.037 172.815C879.067 164.263 866.096 154.855 853.936 143.736" stroke="black" stroke-width="1.62136" stroke-miterlimit="10"/>
<path opacity="0.3" d="M832.044 219.855C854.743 233.54 873.388 311.37 695.039 298.541C695.85 292.554 697.471 292.554 750.166 272.028C803.67 249.79 800.428 239.527 819.073 218.145C862.85 169.394 1005.53 170.249 960.131 67.616C957.699 62.4843 952.024 55.6421 949.592 49.6552C969.859 53.0763 989.315 65.0501 996.611 85.5768C1020.93 154.854 909.058 219.855 832.044 219.855Z" fill="#D4A04E"/>
<path opacity="0.3" d="M900.141 54.7833C897.709 65.9019 889.602 75.31 879.874 81.2969C868.524 88.1392 855.553 91.5603 844.204 99.2578C831.233 106.955 820.694 118.929 807.723 124.916C789.888 132.614 769.621 130.048 751.786 136.89C737.194 142.022 725.034 153.14 712.874 163.404C701.524 173.667 689.364 184.786 674.772 190.773C664.233 195.049 652.073 195.904 641.534 192.483C639.102 191.628 637.481 190.773 635.859 189.917C681.257 168.535 725.845 146.298 770.432 123.206C798.806 108.666 827.18 93.2708 855.553 77.0205C870.956 68.4678 885.548 60.7703 900.141 54.7833Z" fill="#D4A04E"/>
<path d="M38.3949 171.953C74.8754 202.743 121.084 220.704 168.103 220.704C151.079 230.968 151.89 258.336 164.05 273.731C198.098 314.785 352.127 302.811 394.282 281.429C408.064 274.587 437.248 254.06 436.438 233.533C434.816 208.73 412.117 224.981 142.972 76.1622C119.463 63.333 95.1423 49.6486 69.2006 47.938C63.5258 47.0827 57.0405 47.938 50.5551 48.7933C-4.57099 58.2013 -22.4059 120.637 38.3949 171.953Z" fill="#F3EBDE"/>
<path d="M416.167 230.964C378.876 224.122 344.828 204.451 308.347 193.332C270.245 195.043 231.333 186.49 197.285 168.529C193.231 166.818 189.988 164.253 187.556 160.832C185.124 157.41 185.124 151.423 188.367 148.858C190.799 146.292 194.852 146.292 198.095 146.292C207.823 147.147 217.551 147.147 226.469 148.002C237.818 148.858 249.168 149.713 258.085 156.555C264.571 161.687 267.813 169.384 273.488 175.371C281.595 183.924 293.755 188.2 305.105 191.622C305.915 191.622 307.537 192.477 308.347 192.477" stroke="black" stroke-width="1.62136" stroke-miterlimit="10"/>
<path d="M201.337 109.519C177.017 118.927 149.454 118.927 125.133 108.664C100.813 98.4006 81.3568 73.5975 70.0073 48.7944" stroke="black" stroke-width="1.62136" stroke-miterlimit="10"/>
<path d="M42.4487 130.047C60.2836 126.626 89.468 132.613 106.492 138.6L99.1962 101.823C101.628 113.797 104.06 126.626 106.492 138.6C100.007 134.324 90.2786 139.455 88.6572 147.153C86.2252 154.85 90.2786 163.403 96.764 167.68C103.249 171.956 110.546 173.667 118.652 173.667C125.948 173.667 134.055 172.811 141.351 173.667C161.618 174.522 183.507 188.206 201.342 198.47" stroke="black" stroke-width="1.62136" stroke-miterlimit="10" stroke-linecap="round" stroke-linejoin="round"/>
<path d="M156.753 260.049C210.258 261.76 262.952 249.786 311.592 226.694C280.786 224.983 249.981 221.562 219.175 217.286C215.122 216.43 211.068 216.43 207.826 213.864C202.151 209.588 200.529 201.035 202.961 195.048C205.393 188.206 211.879 183.93 218.364 183.074C223.228 182.219 229.714 183.93 235.389 184.785" stroke="black" stroke-width="1.62136" stroke-miterlimit="10"/>
<path d="M185.127 288.275C245.928 264.328 309.161 246.367 374.015 248.077" stroke="black" stroke-width="1.62136" stroke-miterlimit="10"/>
<path d="M374.018 266.891C339.969 272.878 305.92 283.997 275.115 300.247" stroke="black" stroke-width="1.62136" stroke-miterlimit="10"/>
<path d="M188.368 161.686C177.829 160.831 168.101 156.554 158.372 151.423C152.698 148.857 147.023 146.291 142.97 140.304C138.916 135.172 137.295 127.475 138.105 120.632C138.105 118.067 138.916 114.646 139.727 112.08" stroke="black" stroke-width="1.62136" stroke-miterlimit="10"/>
<path d="M146.212 143.728C134.052 153.991 121.081 164.254 108.11 172.807" stroke="black" stroke-width="1.62136" stroke-miterlimit="10"/>
<path opacity="0.3" d="M168.103 219.85C145.404 233.535 126.758 311.365 305.107 298.536C304.296 294.259 300.243 292.549 297 290.838C185.938 245.508 215.122 255.772 181.074 217.284C138.918 170.244 35.1514 177.086 31.9087 101.822C31.098 75.3081 47.3117 57.3472 50.5544 48.7944C30.2874 52.2155 10.831 64.1895 3.53494 84.7162C-20.7854 153.138 85.4135 219.85 168.103 219.85Z" fill="#D4A04E"/>
<path opacity="0.3" d="M99.1968 54.7828C104.061 82.1517 137.299 87.2834 155.133 98.402C168.104 106.1 178.643 118.073 191.614 124.06C226.473 139.455 236.201 117.218 286.463 162.548C308.352 182.219 339.968 206.167 363.478 189.061C208.638 116.363 132.435 67.612 99.1968 54.7828Z" fill="#D4A04E"/>
<path opacity="0.3" d="M643.967 292.546C606.676 285.704 562.899 258.335 563.71 232.677C564.521 221.558 577.491 213.861 591.273 207.874C601.812 218.137 570.195 225.834 592.894 251.493C618.836 282.283 651.263 277.151 643.967 292.546Z" fill="#D4A04E"/>
<path opacity="0.2" d="M472.109 116.36C478.595 115.505 484.269 112.084 489.944 107.808C521.561 87.281 526.425 89.8469 490.755 71.0308C486.701 68.4649 473.731 59.0568 474.541 69.3202C476.973 80.4388 483.459 94.9785 472.109 116.36Z" fill="white"/>
</g>
<defs>
<clipPath id="clip0_1276_7855">
<rect width="1000" height="700" fill="white"/>
</clipPath>
</defs>
</svg>
