<svg width="273" height="251" viewBox="0 0 273 251" fill="none" xmlns="http://www.w3.org/2000/svg">
<g clip-path="url(#clip0_6827_5351)">
<path d="M233.732 28.0453C218.543 35.7288 180.583 41.1755 136.152 41.1755C91.7239 41.1755 53.765 35.7299 38.5748 28.0464C14.706 52.5731 0 86.0627 0 122.991C0 175.713 29.9666 221.436 73.796 244.057C82.687 248.645 92.572 250.958 102.575 250.84C122.139 250.612 151.787 250.596 169.961 250.774C179.959 250.871 189.841 248.551 198.717 243.949C242.434 221.291 272.305 175.629 272.305 122.991C272.305 86.0627 257.601 52.572 233.732 28.0453Z" fill="#A2C1DE"/>
<path d="M272.146 129.542C270.629 97.6705 258.154 68.6701 238.403 46.2243C236.574 44.1433 233.955 43.0067 231.278 43.0067C230.208 43.0067 229.128 43.1891 228.085 43.565C210.334 49.9638 175.823 54.3059 136.152 54.3059C96.484 54.3059 61.9727 49.9638 44.2217 43.565C43.179 43.1891 42.0987 43.0078 41.0284 43.0078C38.3515 43.0078 35.7343 44.1444 33.9032 46.2243C14.153 68.6701 1.6768 97.6694 0.15955 129.541C0.0583778 127.406 0.0018797 125.258 0 123.097C0 123.094 0 123.094 0 123.091C0 123.058 0 123.024 0 122.991C0 86.0628 14.706 52.5732 38.5748 28.0465C53.2011 35.4447 88.9397 40.7676 131.23 41.1535C131.232 41.1535 131.234 41.1535 131.237 41.1535C131.32 41.1546 131.401 41.1546 131.484 41.1557C131.489 41.1557 131.491 41.1557 131.496 41.1557C131.513 41.1557 131.531 41.1557 131.549 41.1557C131.555 41.1557 131.559 41.1557 131.565 41.1568C131.628 41.1568 131.685 41.1568 131.748 41.1579H131.749C131.822 41.1579 131.9 41.159 131.973 41.1601C131.986 41.1601 132.003 41.1601 132.016 41.1601C132.029 41.1601 132.041 41.1601 132.056 41.1601C132.063 41.1601 132.068 41.1601 132.077 41.1601C132.094 41.1601 132.115 41.1601 132.133 41.1612C132.135 41.1612 132.143 41.1612 132.145 41.1612C132.202 41.1612 132.265 41.1612 132.32 41.1623C132.325 41.1623 132.328 41.1623 132.333 41.1623C132.348 41.1623 132.37 41.1623 132.384 41.1623C132.392 41.1623 132.398 41.1623 132.407 41.1623C132.435 41.1635 132.465 41.1635 132.493 41.1635C132.503 41.1635 132.513 41.1635 132.524 41.1635C132.534 41.1635 132.543 41.1635 132.553 41.1635C132.564 41.1635 132.581 41.1634 132.591 41.1646C132.608 41.1646 132.621 41.1646 132.638 41.1646C132.649 41.1646 132.656 41.1646 132.667 41.1646C132.685 41.1646 132.697 41.1646 132.715 41.1646C132.718 41.1646 132.721 41.1646 132.723 41.1646C132.759 41.1657 132.793 41.1657 132.828 41.1657C132.834 41.1657 132.844 41.1657 132.848 41.1657C132.863 41.1657 132.875 41.1657 132.889 41.1657C132.903 41.1657 132.911 41.1657 132.926 41.1657C132.939 41.1657 132.95 41.1668 132.964 41.1668C132.98 41.1668 133.003 41.1668 133.02 41.1668C133.023 41.1668 133.029 41.1668 133.033 41.1668C133.052 41.1668 133.068 41.1668 133.087 41.1668C133.112 41.1668 133.127 41.1668 133.151 41.1679C133.16 41.1679 133.17 41.1679 133.179 41.1679C133.192 41.1679 133.208 41.1679 133.221 41.1679C133.23 41.1679 133.243 41.1679 133.252 41.1679C133.265 41.1679 133.282 41.1679 133.295 41.1679C133.301 41.1679 133.311 41.1679 133.315 41.1679C133.371 41.169 133.431 41.169 133.487 41.169C133.492 41.169 133.496 41.169 133.502 41.169C133.516 41.169 133.533 41.169 133.547 41.169C133.564 41.169 133.578 41.1701 133.595 41.1701C133.608 41.1701 133.629 41.1701 133.642 41.1701C133.659 41.1701 133.68 41.1701 133.695 41.1701C133.706 41.1701 133.712 41.1701 133.722 41.1701C133.741 41.1701 133.754 41.1701 133.773 41.1701C133.781 41.1701 133.79 41.1712 133.797 41.1712C133.848 41.1712 133.901 41.1712 133.952 41.1712C133.955 41.1712 133.967 41.1712 133.971 41.1712C133.992 41.1712 134.013 41.1712 134.034 41.1712C134.041 41.1712 134.039 41.1712 134.047 41.1712C134.066 41.1712 134.091 41.1723 134.11 41.1723C134.117 41.1723 134.128 41.1723 134.134 41.1723C134.159 41.1723 134.183 41.1723 134.207 41.1723C134.211 41.1723 134.221 41.1723 134.224 41.1723C134.243 41.1723 134.258 41.1723 134.277 41.1723C134.291 41.1723 134.301 41.1723 134.315 41.1723C134.329 41.1723 134.344 41.1723 134.358 41.1723C134.369 41.1723 134.38 41.1723 134.39 41.1723C134.406 41.1734 134.427 41.1734 134.444 41.1734C134.454 41.1734 134.461 41.1734 134.47 41.1734C134.495 41.1734 134.519 41.1734 134.543 41.1734C134.547 41.1734 134.55 41.1734 134.553 41.1734C134.576 41.1734 134.594 41.1734 134.615 41.1734C134.626 41.1734 134.637 41.1734 134.647 41.1734C134.661 41.1734 134.679 41.1734 134.694 41.1734C134.7 41.1734 134.713 41.1734 134.72 41.1734C134.736 41.1734 134.756 41.1734 134.771 41.1734C134.793 41.1745 134.809 41.1745 134.83 41.1745C134.843 41.1745 134.856 41.1745 134.87 41.1745C134.88 41.1745 134.892 41.1745 134.902 41.1745C134.915 41.1745 134.928 41.1745 134.941 41.1745C134.956 41.1745 134.964 41.1745 134.978 41.1745C135.005 41.1745 135.026 41.1745 135.052 41.1745H135.055C135.082 41.1745 135.106 41.1745 135.133 41.1745C135.136 41.1745 135.143 41.1745 135.146 41.1745C135.2 41.1745 135.249 41.1745 135.303 41.1745H135.309C135.333 41.1756 135.357 41.1756 135.382 41.1756C135.393 41.1756 135.407 41.1756 135.417 41.1756C135.426 41.1756 135.441 41.1756 135.449 41.1756C135.467 41.1756 135.476 41.1756 135.493 41.1756C135.512 41.1756 135.533 41.1756 135.553 41.1756C135.556 41.1756 135.558 41.1756 135.562 41.1756C135.588 41.1756 135.614 41.1756 135.641 41.1756C135.645 41.1756 135.654 41.1756 135.657 41.1756C135.676 41.1756 135.698 41.1756 135.718 41.1756C135.724 41.1756 135.736 41.1756 135.744 41.1756C135.757 41.1756 135.774 41.1756 135.787 41.1756C135.802 41.1756 135.812 41.1756 135.826 41.1756C135.848 41.1756 135.875 41.1756 135.896 41.1756C135.903 41.1756 135.908 41.1756 135.915 41.1756C135.931 41.1756 135.951 41.1756 135.966 41.1756C135.981 41.1756 135.991 41.1756 136.005 41.1756C136.018 41.1756 136.033 41.1756 136.046 41.1756C136.057 41.1756 136.068 41.1756 136.079 41.1756C136.104 41.1756 136.128 41.1756 136.152 41.1756C136.177 41.1756 136.202 41.1756 136.226 41.1756C136.237 41.1756 136.248 41.1756 136.258 41.1756C136.273 41.1756 136.287 41.1756 136.3 41.1756C136.315 41.1756 136.325 41.1756 136.338 41.1756C136.355 41.1756 136.374 41.1756 136.391 41.1756C136.394 41.1756 136.405 41.1756 136.409 41.1756C136.431 41.1756 136.457 41.1756 136.48 41.1756C136.489 41.1756 136.507 41.1756 136.517 41.1756C136.531 41.1756 136.548 41.1756 136.561 41.1756C136.569 41.1756 136.581 41.1756 136.588 41.1756C136.607 41.1756 136.63 41.1756 136.649 41.1756C136.653 41.1756 136.661 41.1756 136.664 41.1756C136.691 41.1756 136.717 41.1756 136.744 41.1756C136.747 41.1756 136.748 41.1756 136.752 41.1756C136.77 41.1756 136.794 41.1756 136.812 41.1756C136.827 41.1756 136.841 41.1756 136.855 41.1756C136.869 41.1756 136.875 41.1756 136.889 41.1756C136.9 41.1756 136.912 41.1756 136.923 41.1756C136.947 41.1756 136.974 41.1756 136.998 41.1745H137C137.054 41.1745 137.106 41.1745 137.161 41.1745C137.164 41.1745 137.168 41.1745 137.172 41.1745C137.199 41.1745 137.225 41.1745 137.252 41.1745C137.279 41.1745 137.301 41.1745 137.329 41.1745C137.339 41.1745 137.351 41.1745 137.361 41.1745C137.375 41.1745 137.392 41.1745 137.405 41.1745C137.415 41.1745 137.424 41.1745 137.435 41.1745C137.448 41.1745 137.461 41.1745 137.475 41.1745C137.51 41.1745 137.545 41.1734 137.581 41.1734H137.582C137.596 41.1734 137.613 41.1734 137.626 41.1734C137.637 41.1734 137.643 41.1734 137.654 41.1734C137.667 41.1734 137.679 41.1734 137.694 41.1734C137.71 41.1734 137.729 41.1734 137.744 41.1734C137.752 41.1734 137.759 41.1734 137.765 41.1734C137.782 41.1734 137.804 41.1734 137.821 41.1734C137.838 41.1734 137.861 41.1734 137.878 41.1734C137.892 41.1734 137.899 41.1734 137.913 41.1723C137.922 41.1723 137.941 41.1723 137.952 41.1723C137.963 41.1723 137.976 41.1723 137.987 41.1723C138.001 41.1723 138.018 41.1723 138.032 41.1723C138.042 41.1723 138.053 41.1723 138.064 41.1723C138.075 41.1723 138.089 41.1723 138.099 41.1723C138.121 41.1723 138.147 41.1723 138.169 41.1723C138.179 41.1723 138.189 41.1723 138.199 41.1723C138.218 41.1723 138.238 41.1712 138.256 41.1712C138.263 41.1712 138.267 41.1712 138.274 41.1712C138.293 41.1712 138.312 41.1712 138.33 41.1712C138.34 41.1712 138.345 41.1712 138.355 41.1712C138.381 41.1712 138.405 41.1712 138.432 41.1712H138.438C138.459 41.1712 138.485 41.1712 138.507 41.1712C138.517 41.1712 138.524 41.1701 138.535 41.1701C138.548 41.1701 138.567 41.1701 138.58 41.1701C138.591 41.1701 138.6 41.1701 138.611 41.1701C138.627 41.1701 138.641 41.1701 138.658 41.1701C138.679 41.1701 138.693 41.1701 138.714 41.1701C138.727 41.1701 138.744 41.169 138.757 41.169C138.772 41.169 138.792 41.169 138.805 41.169C138.81 41.169 138.813 41.169 138.818 41.169C138.873 41.169 138.933 41.169 138.989 41.1679C138.995 41.1679 139.004 41.1679 139.009 41.1679C139.027 41.1679 139.045 41.1679 139.062 41.1679C139.067 41.1679 139.072 41.1679 139.077 41.1679C139.095 41.1679 139.114 41.1679 139.132 41.1679C139.138 41.1679 139.139 41.1679 139.144 41.1679C139.176 41.1668 139.207 41.1668 139.238 41.1668C139.249 41.1668 139.259 41.1668 139.27 41.1668C139.28 41.1668 139.292 41.1668 139.304 41.1668C139.313 41.1668 139.327 41.1668 139.337 41.1668C139.351 41.1668 139.371 41.1657 139.384 41.1657C139.393 41.1657 139.402 41.1657 139.41 41.1657C139.427 41.1657 139.442 41.1657 139.459 41.1657H139.461C139.524 41.1657 139.587 41.1646 139.65 41.1646H139.656C139.74 41.1634 139.825 41.1635 139.909 41.1623H139.914C140.04 41.1612 140.167 41.1612 140.293 41.1601C140.304 41.1601 140.31 41.1601 140.32 41.1601C182.942 40.8306 219.022 35.489 233.733 28.0476C257.601 52.5721 272.305 86.0628 272.305 122.991C272.305 123.024 272.305 123.058 272.305 123.091C272.305 123.094 272.305 123.094 272.305 123.097C272.303 125.258 272.247 127.406 272.146 129.542Z" fill="#91B3D6"/>
<path d="M27.5417 167.096C-1.19959 100.924 37.0634 67.1233 37.0634 67.1233C23.0984 102.51 23.6496 130.869 27.5417 167.096Z" fill="#E7EFF7"/>
<path d="M136.152 37.3687C81.6132 37.3687 36.8255 29.1621 31.9392 18.6845C31.6491 19.3059 31.492 19.9361 31.4895 20.573C31.5295 9.20855 78.3735 0.000238003 136.152 0.000238003C193.713 0.000238003 240.421 9.14 240.813 20.4447C240.792 19.851 240.637 19.265 240.366 18.6845C235.48 29.1621 190.692 37.3687 136.152 37.3687ZM49.4483 18.1858C49.5798 24.0692 88.3481 28.8359 136.152 28.8359C183.956 28.8359 222.724 24.0703 222.857 18.1858C222.857 18.1847 222.857 18.1836 222.857 18.1825C222.857 18.1814 222.857 18.1802 222.857 18.1791C222.857 18.178 222.857 18.1758 222.857 18.1747C222.857 18.1736 222.857 18.1725 222.857 18.1714C222.857 18.1692 222.857 18.1681 222.857 18.1659C222.857 18.1648 222.857 18.1648 222.857 18.1637C222.857 18.1603 222.857 18.1581 222.857 18.1559C222.857 12.257 184.038 7.47591 136.152 7.47591C88.2663 7.47591 49.4472 12.257 49.4472 18.1559C49.4472 18.1581 49.4472 18.1603 49.4472 18.1637C49.4472 18.1648 49.4472 18.1648 49.4472 18.1659C49.4472 18.1681 49.4472 18.1692 49.4472 18.1714C49.4472 18.1725 49.4472 18.1736 49.4472 18.1747C49.4472 18.1758 49.4472 18.1769 49.4472 18.1791C49.4472 18.1802 49.4483 18.1814 49.4483 18.1836C49.4483 18.1836 49.4483 18.1847 49.4483 18.1858Z" fill="#BDDBED"/>
<path d="M233.732 28.0461C238.306 25.7352 240.816 23.2186 240.816 20.5882C240.816 23.2186 238.306 25.7352 233.733 28.0483" fill="#DFEFF7"/>
<path d="M140.32 41.1611C182.942 40.8316 219.021 35.49 233.733 28.0486C233.732 28.0464 233.732 28.0464 233.732 28.0464C219.021 35.49 182.942 40.8316 140.32 41.1611Z" fill="#7BA3CE"/>
<path d="M136.152 41.1768C136.128 41.1768 136.104 41.1768 136.079 41.1768C136.068 41.1768 136.057 41.1768 136.046 41.1768C136.033 41.1768 136.019 41.1768 136.005 41.1768C135.992 41.1768 135.981 41.1768 135.966 41.1768C135.953 41.1768 135.929 41.1768 135.914 41.1768C135.907 41.1768 135.904 41.1768 135.896 41.1768C135.871 41.1768 135.85 41.1768 135.826 41.1768C135.813 41.1768 135.801 41.1768 135.787 41.1768C135.773 41.1768 135.757 41.1768 135.744 41.1768C135.733 41.1768 135.728 41.1768 135.718 41.1768C135.695 41.1768 135.678 41.1768 135.657 41.1768C135.651 41.1768 135.647 41.1768 135.641 41.1768C135.613 41.1768 135.589 41.1768 135.562 41.1768C135.558 41.1768 135.555 41.1768 135.553 41.1768C135.535 41.1768 135.511 41.1768 135.493 41.1768C135.477 41.1768 135.466 41.1768 135.449 41.1768C135.439 41.1768 135.428 41.1768 135.417 41.1768C135.404 41.1768 135.396 41.1768 135.381 41.1768C135.357 41.1768 135.333 41.1768 135.308 41.1757H135.303C135.251 41.1757 135.199 41.1757 135.146 41.1757C135.143 41.1757 135.136 41.1757 135.133 41.1757C135.105 41.1757 135.083 41.1757 135.055 41.1757H135.052C135.028 41.1757 135.002 41.1757 134.978 41.1757C134.967 41.1757 134.952 41.1757 134.941 41.1757C134.931 41.1757 134.913 41.1757 134.902 41.1757C134.891 41.1757 134.881 41.1757 134.87 41.1757C134.855 41.1757 134.843 41.1757 134.83 41.1757C134.811 41.1757 134.791 41.1757 134.771 41.1746C134.755 41.1746 134.738 41.1746 134.72 41.1746C134.709 41.1746 134.704 41.1746 134.694 41.1746C134.679 41.1746 134.662 41.1746 134.647 41.1746C134.636 41.1746 134.626 41.1746 134.615 41.1746C134.594 41.1746 134.574 41.1746 134.553 41.1746C134.551 41.1746 134.546 41.1746 134.543 41.1746C134.518 41.1746 134.496 41.1746 134.47 41.1746C134.46 41.1746 134.454 41.1746 134.444 41.1746C134.426 41.1746 134.407 41.1745 134.39 41.1734C134.379 41.1734 134.369 41.1734 134.358 41.1734C134.344 41.1734 134.329 41.1734 134.314 41.1734C134.301 41.1734 134.29 41.1734 134.277 41.1734C134.259 41.1734 134.241 41.1734 134.224 41.1734C134.218 41.1734 134.213 41.1734 134.207 41.1734C134.183 41.1734 134.159 41.1734 134.134 41.1734C134.127 41.1734 134.118 41.1734 134.11 41.1734C134.089 41.1734 134.068 41.1723 134.047 41.1723C134.041 41.1723 134.039 41.1723 134.034 41.1723C134.013 41.1723 133.992 41.1723 133.971 41.1723C133.965 41.1723 133.957 41.1723 133.952 41.1723C133.899 41.1723 133.849 41.1723 133.797 41.1723C133.789 41.1723 133.78 41.1712 133.773 41.1712C133.755 41.1712 133.74 41.1712 133.722 41.1712C133.714 41.1712 133.703 41.1712 133.695 41.1712C133.678 41.1712 133.66 41.1712 133.642 41.1712C133.627 41.1712 133.61 41.1712 133.595 41.1712C133.577 41.1712 133.565 41.1701 133.547 41.1701C133.531 41.1701 133.517 41.1701 133.502 41.1701C133.494 41.1701 133.494 41.1701 133.487 41.1701C133.43 41.1701 133.372 41.1701 133.315 41.169C133.308 41.169 133.303 41.169 133.295 41.169C133.28 41.169 133.267 41.169 133.252 41.169C133.241 41.169 133.232 41.169 133.221 41.169C133.205 41.169 133.194 41.169 133.179 41.169C133.171 41.169 133.159 41.169 133.151 41.169C133.13 41.1679 133.109 41.1679 133.087 41.1679C133.069 41.1679 133.05 41.1679 133.033 41.1679C133.027 41.1679 133.024 41.1679 133.02 41.1679C133.002 41.1679 132.982 41.1679 132.964 41.1679C132.951 41.1679 132.939 41.1668 132.926 41.1668C132.915 41.1668 132.899 41.1668 132.889 41.1668C132.875 41.1668 132.863 41.1668 132.848 41.1668C132.842 41.1668 132.835 41.1668 132.828 41.1668C132.793 41.1668 132.759 41.1668 132.723 41.1657C132.72 41.1657 132.718 41.1657 132.715 41.1657C132.699 41.1657 132.682 41.1657 132.667 41.1657C132.66 41.1657 132.645 41.1657 132.638 41.1657C132.622 41.1657 132.607 41.1657 132.591 41.1657C132.581 41.1646 132.564 41.1646 132.553 41.1646C132.543 41.1646 132.535 41.1646 132.524 41.1646C132.513 41.1646 132.503 41.1646 132.493 41.1646C132.466 41.1646 132.434 41.1646 132.407 41.1635C132.396 41.1635 132.394 41.1635 132.384 41.1635C132.367 41.1635 132.35 41.1635 132.333 41.1635C132.326 41.1635 132.328 41.1635 132.32 41.1635C132.261 41.1624 132.205 41.1624 132.145 41.1624C132.138 41.1624 132.14 41.1624 132.133 41.1624C132.114 41.1613 132.095 41.1613 132.077 41.1613C132.069 41.1613 132.062 41.1613 132.056 41.1613C132.042 41.1613 132.029 41.1613 132.016 41.1613C132.001 41.1613 131.987 41.1613 131.973 41.1613C131.897 41.1602 131.824 41.1591 131.749 41.1591H131.748C131.686 41.158 131.627 41.158 131.565 41.158C131.561 41.1569 131.552 41.1568 131.549 41.1568C131.534 41.1568 131.512 41.1568 131.496 41.1568C131.493 41.1568 131.488 41.1568 131.484 41.1568C131.401 41.1557 131.32 41.1557 131.237 41.1546C131.233 41.1546 131.233 41.1546 131.23 41.1546C88.9363 40.7688 53.1999 35.4448 38.5748 28.0476C33.9982 25.7356 31.4895 23.2201 31.4895 20.5885C31.4895 20.5841 31.4895 20.5775 31.4895 20.573C31.492 19.9362 31.6491 19.3059 31.9392 18.6845C36.8255 29.1622 81.6132 37.3687 136.152 37.3687C190.692 37.3687 235.48 29.1622 240.366 18.6845C240.637 19.265 240.792 19.851 240.813 20.4448C240.815 20.4923 240.816 20.5399 240.816 20.5885C240.816 23.219 238.306 25.7356 233.733 28.0487C233.732 28.0465 233.732 28.0465 233.732 28.0465C219.02 35.489 182.945 40.8318 140.32 41.1613C140.31 41.1613 140.303 41.1613 140.293 41.1613C140.167 41.1624 140.04 41.1624 139.914 41.1635C139.91 41.1635 139.913 41.1635 139.909 41.1635C139.823 41.1646 139.742 41.1646 139.656 41.1657H139.65C139.585 41.1657 139.525 41.1668 139.46 41.1668H139.459C139.444 41.1668 139.426 41.1668 139.41 41.1668C139.4 41.1668 139.395 41.1668 139.384 41.1668C139.369 41.1668 139.353 41.1679 139.337 41.1679C139.327 41.1679 139.313 41.1679 139.303 41.1679C139.292 41.1679 139.28 41.1679 139.27 41.1679C139.259 41.1679 139.249 41.1679 139.238 41.1679C139.206 41.1679 139.176 41.1679 139.144 41.169C139.138 41.169 139.139 41.169 139.132 41.169C139.115 41.169 139.093 41.169 139.077 41.169C139.073 41.169 139.066 41.169 139.062 41.169C139.044 41.169 139.028 41.169 139.009 41.169C139.003 41.169 138.996 41.169 138.989 41.169C138.933 41.1701 138.874 41.1701 138.818 41.1701C138.81 41.1701 138.812 41.1701 138.805 41.1701C138.789 41.1701 138.774 41.1701 138.757 41.1701C138.744 41.1701 138.728 41.1712 138.714 41.1712C138.695 41.1712 138.676 41.1712 138.658 41.1712C138.643 41.1712 138.625 41.1712 138.611 41.1712C138.6 41.1712 138.591 41.1712 138.58 41.1712C138.567 41.1712 138.548 41.1712 138.535 41.1712C138.524 41.1712 138.517 41.1723 138.507 41.1723C138.482 41.1723 138.462 41.1723 138.438 41.1723C138.434 41.1723 138.434 41.1723 138.432 41.1723C138.407 41.1723 138.379 41.1723 138.355 41.1723C138.347 41.1723 138.338 41.1723 138.33 41.1723C138.313 41.1723 138.292 41.1723 138.274 41.1723C138.268 41.1723 138.262 41.1723 138.256 41.1723C138.239 41.1723 138.217 41.1734 138.199 41.1734C138.188 41.1734 138.179 41.1734 138.169 41.1734C138.144 41.1734 138.124 41.1734 138.099 41.1734C138.086 41.1734 138.077 41.1734 138.064 41.1734C138.054 41.1734 138.042 41.1734 138.032 41.1734C138.017 41.1734 138 41.1734 137.987 41.1734C137.972 41.1734 137.967 41.1734 137.952 41.1734C137.939 41.1734 137.926 41.1734 137.912 41.1734C137.898 41.1745 137.891 41.1746 137.878 41.1746C137.859 41.1746 137.839 41.1746 137.821 41.1746C137.803 41.1746 137.783 41.1746 137.765 41.1746C137.758 41.1746 137.753 41.1746 137.744 41.1746C137.727 41.1746 137.711 41.1746 137.694 41.1746C137.68 41.1746 137.667 41.1746 137.654 41.1746C137.643 41.1746 137.637 41.1746 137.626 41.1746C137.613 41.1746 137.596 41.1746 137.582 41.1746H137.581C137.545 41.1746 137.51 41.1757 137.475 41.1757C137.46 41.1757 137.449 41.1757 137.435 41.1757C137.424 41.1757 137.416 41.1757 137.405 41.1757C137.391 41.1757 137.375 41.1757 137.361 41.1757C137.351 41.1757 137.339 41.1757 137.329 41.1757C137.303 41.1757 137.277 41.1757 137.252 41.1757C137.224 41.1757 137.2 41.1757 137.172 41.1757C137.169 41.1757 137.163 41.1757 137.161 41.1757C137.107 41.1757 137.053 41.1757 137 41.1757H136.998C136.974 41.1768 136.947 41.1768 136.923 41.1768C136.912 41.1768 136.9 41.1768 136.889 41.1768C136.874 41.1768 136.87 41.1768 136.855 41.1768C136.842 41.1768 136.826 41.1768 136.812 41.1768C136.795 41.1768 136.769 41.1768 136.751 41.1768C136.749 41.1768 136.747 41.1768 136.744 41.1768C136.716 41.1768 136.692 41.1768 136.664 41.1768C136.659 41.1768 136.654 41.1768 136.649 41.1768C136.628 41.1768 136.609 41.1768 136.588 41.1768C136.577 41.1768 136.572 41.1768 136.561 41.1768C136.544 41.1768 136.535 41.1768 136.517 41.1768C136.504 41.1768 136.493 41.1768 136.479 41.1768C136.454 41.1768 136.434 41.1768 136.409 41.1768C136.401 41.1768 136.399 41.1768 136.391 41.1768C136.373 41.1768 136.356 41.1768 136.338 41.1768C136.325 41.1768 136.314 41.1768 136.3 41.1768C136.286 41.1768 136.273 41.1768 136.258 41.1768C136.248 41.1768 136.237 41.1768 136.226 41.1768C136.202 41.1768 136.178 41.1768 136.152 41.1768Z" fill="#A3C9E4"/>
<path d="M136.005 41.1768C135.991 41.1768 135.981 41.1768 135.966 41.1768C135.981 41.1768 135.992 41.1768 136.005 41.1768ZM136.3 41.1768C136.314 41.1768 136.325 41.1768 136.338 41.1768C136.325 41.1768 136.315 41.1768 136.3 41.1768ZM135.915 41.1768C135.908 41.1768 135.903 41.1768 135.896 41.1768C135.905 41.1768 135.907 41.1768 135.915 41.1768ZM136.391 41.1768C136.399 41.1768 136.401 41.1768 136.409 41.1768C136.405 41.1768 136.394 41.1768 136.391 41.1768ZM135.826 41.1768C135.812 41.1768 135.802 41.1768 135.787 41.1768C135.801 41.1768 135.813 41.1768 135.826 41.1768ZM136.48 41.1768C136.493 41.1768 136.504 41.1768 136.517 41.1768C136.507 41.1768 136.489 41.1768 136.48 41.1768ZM135.744 41.1768C135.736 41.1768 135.724 41.1768 135.718 41.1768C135.728 41.1768 135.733 41.1768 135.744 41.1768ZM136.561 41.1768C136.572 41.1768 136.577 41.1768 136.588 41.1768C136.581 41.1768 136.569 41.1768 136.561 41.1768ZM135.657 41.1768C135.654 41.1768 135.645 41.1768 135.641 41.1768C135.647 41.1768 135.651 41.1768 135.657 41.1768ZM136.649 41.1768C136.654 41.1768 136.659 41.1768 136.664 41.1768C136.661 41.1768 136.653 41.1768 136.649 41.1768ZM135.562 41.1768C135.558 41.1768 135.556 41.1768 135.553 41.1768C135.555 41.1768 135.558 41.1768 135.562 41.1768ZM136.744 41.1768C136.747 41.1768 136.749 41.1768 136.752 41.1768C136.748 41.1768 136.747 41.1768 136.744 41.1768ZM135.493 41.1768C135.476 41.1768 135.467 41.1768 135.449 41.1768C135.466 41.1768 135.477 41.1768 135.493 41.1768ZM136.812 41.1768C136.826 41.1768 136.842 41.1768 136.855 41.1768C136.841 41.1768 136.827 41.1768 136.812 41.1768ZM135.417 41.1768C135.407 41.1768 135.393 41.1768 135.382 41.1768C135.396 41.1768 135.404 41.1768 135.417 41.1768ZM137.161 41.1757C137.163 41.1757 137.169 41.1757 137.172 41.1757C137.168 41.1757 137.164 41.1757 137.161 41.1757ZM134.978 41.1757C134.964 41.1757 134.956 41.1757 134.941 41.1757C134.953 41.1757 134.967 41.1757 134.978 41.1757ZM134.902 41.1757C134.892 41.1757 134.88 41.1757 134.87 41.1757C134.881 41.1757 134.891 41.1757 134.902 41.1757ZM137.405 41.1757C137.416 41.1757 137.424 41.1757 137.435 41.1757C137.424 41.1757 137.415 41.1757 137.405 41.1757ZM134.83 41.1757C134.809 41.1757 134.793 41.1757 134.771 41.1746C134.791 41.1757 134.811 41.1757 134.83 41.1757ZM134.72 41.1746C134.713 41.1746 134.7 41.1746 134.694 41.1746C134.704 41.1746 134.709 41.1746 134.72 41.1746ZM137.654 41.1746C137.667 41.1746 137.68 41.1746 137.694 41.1746C137.679 41.1746 137.667 41.1746 137.654 41.1746ZM134.647 41.1746C134.637 41.1746 134.626 41.1746 134.615 41.1746C134.626 41.1746 134.636 41.1746 134.647 41.1746ZM137.744 41.1746C137.753 41.1746 137.758 41.1746 137.765 41.1746C137.759 41.1746 137.752 41.1746 137.744 41.1746ZM134.553 41.1746C134.55 41.1746 134.547 41.1746 134.543 41.1746C134.546 41.1746 134.551 41.1746 134.553 41.1746ZM137.821 41.1746C137.84 41.1746 137.859 41.1746 137.878 41.1746C137.861 41.1746 137.838 41.1746 137.821 41.1746ZM137.913 41.1734C137.926 41.1734 137.939 41.1734 137.952 41.1734C137.941 41.1734 137.922 41.1734 137.913 41.1734ZM134.39 41.1734C134.38 41.1734 134.369 41.1734 134.358 41.1734C134.369 41.1734 134.379 41.1734 134.39 41.1734ZM137.987 41.1734C138 41.1734 138.018 41.1734 138.032 41.1734C138.018 41.1734 138.001 41.1734 137.987 41.1734ZM134.315 41.1734C134.301 41.1734 134.291 41.1734 134.277 41.1734C134.29 41.1734 134.301 41.1734 134.315 41.1734ZM138.064 41.1734C138.077 41.1734 138.086 41.1734 138.099 41.1734C138.089 41.1734 138.075 41.1734 138.064 41.1734ZM134.224 41.1734C134.221 41.1734 134.211 41.1734 134.207 41.1734C134.213 41.1734 134.218 41.1734 134.224 41.1734ZM138.169 41.1734C138.179 41.1734 138.188 41.1734 138.199 41.1734C138.189 41.1734 138.179 41.1734 138.169 41.1734ZM134.134 41.1734C134.128 41.1734 134.117 41.1734 134.11 41.1734C134.118 41.1734 134.127 41.1734 134.134 41.1734ZM138.256 41.1723C138.262 41.1723 138.269 41.1723 138.274 41.1723C138.267 41.1723 138.263 41.1723 138.256 41.1723ZM134.047 41.1723C134.039 41.1723 134.041 41.1723 134.034 41.1723C134.039 41.1723 134.041 41.1723 134.047 41.1723ZM138.33 41.1723C138.338 41.1723 138.347 41.1723 138.355 41.1723C138.345 41.1723 138.34 41.1723 138.33 41.1723ZM133.971 41.1723C133.967 41.1723 133.955 41.1723 133.952 41.1723C133.957 41.1723 133.965 41.1723 133.971 41.1723ZM138.432 41.1723C138.434 41.1723 138.434 41.1723 138.438 41.1723H138.432ZM133.797 41.1723C133.79 41.1723 133.78 41.1712 133.773 41.1712C133.78 41.1712 133.789 41.1723 133.797 41.1723ZM133.722 41.1712C133.712 41.1712 133.706 41.1712 133.695 41.1712C133.703 41.1712 133.714 41.1712 133.722 41.1712ZM138.658 41.1712C138.677 41.1712 138.695 41.1712 138.714 41.1712C138.693 41.1712 138.679 41.1712 138.658 41.1712ZM133.642 41.1712C133.629 41.1712 133.608 41.1712 133.595 41.1712C133.61 41.1712 133.627 41.1712 133.642 41.1712ZM138.757 41.1701C138.774 41.1701 138.789 41.1701 138.805 41.1701C138.792 41.1701 138.772 41.1701 138.757 41.1701ZM133.547 41.1701C133.533 41.1701 133.516 41.1701 133.502 41.1701C133.517 41.1701 133.531 41.1701 133.547 41.1701ZM138.818 41.1701C138.874 41.1701 138.933 41.1701 138.989 41.169C138.933 41.1701 138.873 41.1701 138.818 41.1701ZM133.487 41.1701C133.431 41.1701 133.371 41.1701 133.315 41.169C133.372 41.1701 133.43 41.1701 133.487 41.1701ZM133.295 41.169C133.282 41.169 133.265 41.169 133.252 41.169C133.267 41.169 133.28 41.169 133.295 41.169ZM139.009 41.169C139.028 41.169 139.044 41.169 139.062 41.169C139.045 41.169 139.027 41.169 139.009 41.169ZM139.077 41.169C139.093 41.169 139.116 41.169 139.132 41.169C139.114 41.169 139.095 41.169 139.077 41.169ZM133.221 41.169C133.208 41.169 133.192 41.169 133.179 41.169C133.194 41.169 133.206 41.169 133.221 41.169ZM139.144 41.169C139.176 41.1679 139.206 41.1679 139.238 41.1679C139.207 41.1679 139.176 41.1679 139.144 41.169ZM133.151 41.169C133.127 41.1679 133.112 41.1679 133.087 41.1679C133.109 41.1679 133.13 41.1679 133.151 41.169ZM133.033 41.1679C133.029 41.1679 133.023 41.1679 133.02 41.1679C133.024 41.1679 133.028 41.1679 133.033 41.1679ZM139.337 41.1679C139.353 41.1679 139.369 41.1668 139.384 41.1668C139.371 41.1668 139.351 41.1679 139.337 41.1679ZM132.964 41.1679C132.95 41.1679 132.939 41.1668 132.926 41.1668C132.939 41.1668 132.951 41.1679 132.964 41.1679ZM139.41 41.1668C139.426 41.1668 139.444 41.1668 139.459 41.1668C139.442 41.1668 139.427 41.1668 139.41 41.1668ZM139.46 41.1668C139.525 41.1668 139.585 41.1657 139.65 41.1657C139.587 41.1657 139.524 41.1668 139.46 41.1668ZM132.715 41.1657C132.697 41.1657 132.685 41.1657 132.667 41.1657C132.683 41.1657 132.699 41.1657 132.715 41.1657ZM139.656 41.1657C139.742 41.1646 139.823 41.1646 139.909 41.1635C139.825 41.1646 139.74 41.1646 139.656 41.1657ZM132.638 41.1657C132.621 41.1657 132.608 41.1657 132.591 41.1657C132.607 41.1657 132.622 41.1657 132.638 41.1657ZM132.553 41.1646C132.543 41.1646 132.534 41.1646 132.524 41.1646C132.535 41.1646 132.543 41.1646 132.553 41.1646ZM132.493 41.1646C132.465 41.1646 132.435 41.1646 132.407 41.1635C132.434 41.1646 132.466 41.1646 132.493 41.1646ZM132.384 41.1635C132.37 41.1635 132.347 41.1635 132.333 41.1635C132.35 41.1635 132.367 41.1635 132.384 41.1635ZM132.32 41.1635C132.265 41.1624 132.202 41.1624 132.145 41.1624C132.205 41.1624 132.261 41.1624 132.32 41.1635ZM132.133 41.1624C132.115 41.1613 132.094 41.1613 132.077 41.1613C132.095 41.1613 132.114 41.1613 132.133 41.1624ZM132.056 41.1613C132.041 41.1613 132.029 41.1613 132.016 41.1613C132.029 41.1613 132.042 41.1613 132.056 41.1613ZM140.32 41.1613C182.945 40.8318 219.02 35.489 233.732 28.0465C219.022 35.4901 182.942 40.8318 140.32 41.1613ZM131.973 41.1613C131.9 41.1602 131.822 41.1591 131.749 41.1591C131.825 41.1591 131.897 41.1602 131.973 41.1613ZM131.748 41.1591C131.685 41.158 131.628 41.158 131.565 41.158C131.627 41.158 131.686 41.158 131.748 41.1591ZM131.549 41.1568C131.531 41.1568 131.513 41.1568 131.496 41.1568C131.512 41.1568 131.534 41.1568 131.549 41.1568ZM131.23 41.1546C88.9397 40.7688 53.2011 35.4459 38.5737 28.0498C38.5748 28.0476 38.5748 28.0476 38.5748 28.0476C53.2 35.4448 88.9364 40.7688 131.23 41.1546Z" fill="#5887BF"/>
<path d="M136.152 28.8359C88.3482 28.8359 49.5799 24.0692 49.4484 18.1858C49.4605 18.7696 49.8608 19.3424 50.6071 19.9018C57.3719 14.8333 93.0939 10.9666 136.152 10.9666C179.212 10.9666 214.934 14.8333 221.698 19.9018C222.444 19.3424 222.844 18.7707 222.857 18.1858C222.725 24.0703 183.956 28.8359 136.152 28.8359ZM49.4473 18.1659C49.4473 18.1648 49.4473 18.1648 49.4473 18.1637C49.4473 18.1648 49.4473 18.1659 49.4473 18.1659Z" fill="#95BBDC"/>
<path d="M49.4473 18.1634C49.4473 18.1601 49.4473 18.1579 49.4473 18.1557C49.4473 18.1579 49.4473 18.1612 49.4473 18.1634ZM222.857 18.1634C222.857 18.1612 222.857 18.1579 222.857 18.1557C222.857 18.1579 222.857 18.1601 222.857 18.1634Z" fill="#95BBDC"/>
<path d="M221.698 19.9019C214.934 14.8333 179.212 10.9667 136.152 10.9667C93.0939 10.9667 57.3719 14.8333 50.6071 19.9019C49.8608 19.3424 49.4605 18.7696 49.4484 18.1858C49.4484 18.1847 49.4484 18.1836 49.4484 18.1836C49.4484 18.1814 49.4473 18.1803 49.4473 18.1792C49.4473 18.1769 49.4473 18.1758 49.4473 18.1747C49.4473 18.1736 49.4473 18.1725 49.4473 18.1714C49.4473 18.1692 49.4473 18.1681 49.4473 18.1659C49.4473 18.1659 49.4473 18.1648 49.4473 18.1637C49.4473 18.1615 49.4473 18.1582 49.4473 18.1559C49.4473 12.257 88.2664 7.47593 136.152 7.47593C184.038 7.47593 222.857 12.257 222.857 18.1559C222.857 18.1582 222.857 18.1615 222.857 18.1637C222.857 18.1648 222.857 18.1648 222.857 18.1659C222.857 18.1681 222.857 18.1692 222.857 18.1714C222.857 18.1725 222.857 18.1736 222.857 18.1747C222.857 18.1758 222.857 18.1781 222.857 18.1792C222.857 18.1803 222.857 18.1814 222.857 18.1825C222.857 18.1836 222.857 18.1847 222.857 18.1858C222.844 18.7707 222.444 19.3424 221.698 19.9019Z" fill="#749FCC"/>
<path d="M233.726 26.5687C218.537 34.2522 180.577 39.699 136.147 39.699C91.7183 39.699 53.7594 34.2534 38.5692 26.5698C14.7004 51.0966 -0.00561523 84.5862 -0.00561523 121.515C-0.00561523 174.237 29.961 219.96 73.7904 242.58C82.6814 247.168 92.5664 249.481 102.57 249.364C122.133 249.135 151.781 249.12 169.956 249.298C179.954 249.395 189.835 247.074 198.712 242.472C242.428 219.814 272.3 174.153 272.3 121.515C272.3 84.5862 257.595 51.0954 233.726 26.5687Z" fill="#CDE1F0" fill-opacity="0.19"/>
</g>
<defs>
<clipPath id="clip0_6827_5351">
<rect width="272.305" height="250.845" fill="white"/>
</clipPath>
</defs>
</svg>
