<svg width="46" height="46" viewBox="0 0 46 46" fill="none" xmlns="http://www.w3.org/2000/svg">
<g clip-path="url(#clip0_4209_1220)">
<path d="M0.25 34.42L22.9 45.74V23.09L0.25 11.77V34.42Z" fill="#CF3A8F" stroke="#AF207A" stroke-width="0.5" stroke-linejoin="round"/>
<path d="M45.55 11.77V34.42L22.9 45.74V23.09L45.55 11.77Z" fill="#DF76AE" stroke="#AF207A" stroke-width="0.5" stroke-linejoin="round"/>
<path d="M22.9 0.439941L0.25 11.7699L22.9 23.0899L45.55 11.7699L22.9 0.439941Z" fill="#ECA7CB" stroke="#AF207A" stroke-width="0.5" stroke-linejoin="round"/>
<path d="M17.47 14.4102V17.2402C17.47 18.8002 20 20.0702 23.13 20.0702V14.4102H17.47Z" fill="#CF3A8F" stroke="#AF207A" stroke-width="0.5" stroke-linejoin="round"/>
<path d="M23.13 20.0702C26.26 20.0702 28.79 18.8002 28.79 17.2402V14.4102H23.13V20.0702Z" fill="#DF76AE" stroke="#AF207A" stroke-width="0.5" stroke-linejoin="round"/>
<path d="M23.13 17.2401C26.2559 17.2401 28.79 15.973 28.79 14.4101C28.79 12.8471 26.2559 11.5801 23.13 11.5801C20.004 11.5801 17.47 12.8471 17.47 14.4101C17.47 15.973 20.004 17.2401 23.13 17.2401Z" fill="#ECA7CB" stroke="#AF207A" stroke-width="0.5" stroke-linejoin="round"/>
<path d="M6.14001 8.74023V11.5802C6.14001 13.1402 8.67001 14.4102 11.8 14.4102V8.74023H6.14001Z" fill="#CF3A8F" stroke="#AF207A" stroke-width="0.5" stroke-linejoin="round"/>
<path d="M11.8 14.4102C14.93 14.4102 17.47 13.1402 17.47 11.5802V8.74023H11.8V14.4102Z" fill="#DF76AE" stroke="#AF207A" stroke-width="0.5" stroke-linejoin="round"/>
<path d="M11.8 11.5702C14.9259 11.5702 17.46 10.3031 17.46 8.74016C17.46 7.17719 14.9259 5.91016 11.8 5.91016C8.67408 5.91016 6.14001 7.17719 6.14001 8.74016C6.14001 10.3031 8.67408 11.5702 11.8 11.5702Z" fill="#ECA7CB" stroke="#AF207A" stroke-width="0.5" stroke-linejoin="round"/>
<path d="M28.79 8.74023V11.5802C28.79 13.1402 31.33 14.4102 34.45 14.4102V8.74023H28.79Z" fill="#CF3A8F" stroke="#AF207A" stroke-width="0.5" stroke-linejoin="round"/>
<path d="M34.45 14.4102C37.58 14.4102 40.1199 13.1402 40.1199 11.5802V8.74023H34.45V14.4102Z" fill="#DF76AE" stroke="#AF207A" stroke-width="0.5" stroke-linejoin="round"/>
<path d="M34.45 11.5702C37.576 11.5702 40.11 10.3031 40.11 8.74016C40.11 7.17719 37.576 5.91016 34.45 5.91016C31.3241 5.91016 28.79 7.17719 28.79 8.74016C28.79 10.3031 31.3241 11.5702 34.45 11.5702Z" fill="#ECA7CB" stroke="#AF207A" stroke-width="0.5" stroke-linejoin="round"/>
<path d="M17.47 3.08008V5.91008C17.47 7.48008 20 8.74008 23.13 8.74008V3.08008H17.47Z" fill="#CF3A8F" stroke="#AF207A" stroke-width="0.5" stroke-linejoin="round"/>
<path d="M23.13 8.74008C26.26 8.74008 28.79 7.48008 28.79 5.91008V3.08008H23.13V8.74008Z" fill="#DF76AE" stroke="#AF207A" stroke-width="0.5" stroke-linejoin="round"/>
<path d="M23.13 5.91C26.2559 5.91 28.79 4.64297 28.79 3.08C28.79 1.51703 26.2559 0.25 23.13 0.25C20.004 0.25 17.47 1.51703 17.47 3.08C17.47 4.64297 20.004 5.91 23.13 5.91Z" fill="#ECA7CB" stroke="#AF207A" stroke-width="0.5" stroke-linejoin="round"/>
</g>
<defs>
<clipPath id="clip0_4209_1220">
<rect width="45.8" height="45.99" fill="white"/>
</clipPath>
</defs>
</svg>
