<svg xmlns="http://www.w3.org/2000/svg" viewBox="0 0 42.51 102.77"><defs><style>.cls-1{fill:#f3eeae;}.cls-1,.cls-2{stroke:#765623;}.cls-1,.cls-2,.cls-3,.cls-4,.cls-5{stroke-linejoin:round;}.cls-1,.cls-2,.cls-3,.cls-5{stroke-width:2.51px;}.cls-2{fill:#db9225;}.cls-3,.cls-4{fill:none;}.cls-3,.cls-5{stroke:#838b77;}.cls-3,.cls-4,.cls-5{stroke-linecap:round;}.cls-4{stroke:#d2d9c1;stroke-width:1.25px;}.cls-5{fill:#41423b;}</style></defs><title>klype</title><g id="Layer_2" data-name="Layer 2"><g id="Matteobjekter"><path class="cls-1" d="M16.62,72.48V33.62L25.13,1.25h15.3V101.51H16.62V93a12.17,12.17,0,0,0,0-20.55Z"/><path class="cls-2" d="M28.14,72.48V33.62L36.66,1.25h4V101.51H28.14V93a12.16,12.16,0,0,0,0-20.55Z"/><rect class="cls-1" x="2.51" y="1.25" width="12.53" height="100.26"/><path class="cls-2" d="M27.57,72.48V33.62L19.05,1.25H15V101.51H27.57V93a12.16,12.16,0,0,1,0-20.55Z"/><polyline class="cls-3" points="1.25 76.45 15.04 76.45 27.57 51.38 40.1 76.45 41.25 76.45"/><polyline class="cls-4" points="1.25 76.45 15.04 76.45 27.57 51.38 40.1 76.45 41.25 76.45"/><circle class="cls-5" cx="27.57" cy="51.38" r="5.3"/><circle class="cls-4" cx="27.57" cy="51.38" r="5.3"/></g></g></svg>