<svg xmlns="http://www.w3.org/2000/svg" viewBox="0 0 254.9 6.84"><defs><style>.cls-1{fill:#f6f0ca;stroke:#b97e13;stroke-miterlimit:10;}</style></defs><title>snor10</title><g id="Layer_2" data-name="Layer 2"><g id="Penger"><g id="Layer_3" data-name="Layer 3"><path class="cls-1" d="M12.14,4.84,9.23,1.93a4,4,0,0,0-5.65-.17l-.17.18,2.91,2.9A4,4,0,0,0,12,5Z"/><path class="cls-1" d="M6.5,5.07,3.41,1.94.68,5.08a4,4,0,0,0,5.66.17Z"/><path class="cls-1" d="M18,4.84,15.06,1.93a4,4,0,0,0-5.65-.17l-.17.18,2.91,2.9A4,4,0,0,0,17.81,5Z"/><path class="cls-1" d="M23.8,4.84,20.9,1.93a4,4,0,0,0-5.66-.17l-.17.18L18,4.84A4,4,0,0,0,23.64,5Z"/><path class="cls-1" d="M29.63,4.84l-2.9-2.91a4,4,0,0,0-5.66-.17l-.17.18,2.91,2.9A4,4,0,0,0,29.47,5Z"/><path class="cls-1" d="M35.46,4.84l-2.9-2.91a4,4,0,0,0-5.66-.17l-.17.18,2.91,2.9A4,4,0,0,0,35.3,5Z"/><path class="cls-1" d="M41.29,4.84l-2.9-2.91a4,4,0,0,0-5.66-.17l-.17.18,2.91,2.9A4,4,0,0,0,41.13,5Z"/><path class="cls-1" d="M47.12,4.84l-2.9-2.91a4,4,0,0,0-5.66-.17l-.17.18,2.91,2.9A4,4,0,0,0,47,5Z"/><path class="cls-1" d="M53,4.84l-2.9-2.91a4,4,0,0,0-5.66-.17l-.17.18,2.91,2.9A4,4,0,0,0,52.79,5Z"/><path class="cls-1" d="M58.78,4.84l-2.9-2.91a4,4,0,0,0-5.66-.17l-.17.18L53,4.84A4,4,0,0,0,58.62,5Z"/><path class="cls-1" d="M64.61,4.84l-2.9-2.91a4,4,0,0,0-5.66-.17l-.16.18,2.9,2.9A4,4,0,0,0,64.45,5Z"/><path class="cls-1" d="M70.44,4.84l-2.9-2.91a4,4,0,0,0-5.66-.17l-.16.18,2.9,2.9A4,4,0,0,0,70.28,5Z"/><path class="cls-1" d="M76.27,4.84l-2.9-2.91a4,4,0,0,0-5.66-.17l-.16.18,2.9,2.9A4,4,0,0,0,76.11,5Z"/><path class="cls-1" d="M82.1,4.84,79.2,1.93a4,4,0,0,0-5.66-.17l-.16.18,2.9,2.9A4,4,0,0,0,81.94,5Z"/><path class="cls-1" d="M87.93,4.84,85,1.93a4,4,0,0,0-5.66-.17l-.16.18,2.9,2.9A4,4,0,0,0,87.77,5Z"/><path class="cls-1" d="M93.76,4.84l-2.9-2.91a4,4,0,0,0-5.66-.17L85,1.94l2.9,2.9A4,4,0,0,0,93.6,5Z"/><path class="cls-1" d="M99.59,4.84l-2.9-2.91A4,4,0,0,0,91,1.76l-.16.18,2.9,2.9A4,4,0,0,0,99.43,5Z"/><path class="cls-1" d="M105.42,4.84l-2.9-2.91a4,4,0,0,0-5.66-.17l-.16.18,2.9,2.9a4,4,0,0,0,5.66.18Z"/><path class="cls-1" d="M111.25,4.84l-2.9-2.91a4,4,0,0,0-5.66-.17l-.16.18,2.9,2.9a4,4,0,0,0,5.66.18Z"/><path class="cls-1" d="M117.08,4.84l-2.9-2.91a4,4,0,0,0-5.66-.17l-.16.18,2.9,2.9a4,4,0,0,0,5.66.18Z"/><path class="cls-1" d="M122.91,4.84,120,1.93a4,4,0,0,0-5.66-.17l-.16.18,2.9,2.9a4,4,0,0,0,5.66.18Z"/><path class="cls-1" d="M128.74,4.84l-2.9-2.91a4,4,0,0,0-5.66-.17l-.16.18,2.9,2.9a4,4,0,0,0,5.66.18Z"/><path class="cls-1" d="M134.57,4.84l-2.9-2.91A4,4,0,0,0,126,1.76l-.16.18,2.9,2.9a4,4,0,0,0,5.66.18Z"/><path class="cls-1" d="M140.4,4.84l-2.9-2.91a4,4,0,0,0-5.66-.17l-.16.18,2.9,2.9a4,4,0,0,0,5.66.18Z"/><path class="cls-1" d="M146.23,4.84l-2.9-2.91a4,4,0,0,0-5.66-.17l-.16.18,2.9,2.9a4,4,0,0,0,5.66.18Z"/><path class="cls-1" d="M152.06,4.84l-2.9-2.91a4,4,0,0,0-5.66-.17l-.16.18,2.9,2.9A4,4,0,0,0,151.9,5Z"/><path class="cls-1" d="M157.89,4.84,155,1.93a4,4,0,0,0-5.66-.17l-.16.18,2.9,2.9a4,4,0,0,0,5.66.18Z"/><path class="cls-1" d="M163.72,4.84l-2.9-2.91a4,4,0,0,0-5.66-.17l-.16.18,2.9,2.9a4,4,0,0,0,5.66.18Z"/><path class="cls-1" d="M169.55,4.84l-2.9-2.91A4,4,0,0,0,161,1.76l-.16.18,2.9,2.9a4,4,0,0,0,5.66.18Z"/><path class="cls-1" d="M175.38,4.84l-2.9-2.91a4,4,0,0,0-5.66-.17l-.16.18,2.9,2.9a4,4,0,0,0,5.66.18Z"/><path class="cls-1" d="M181.21,4.84l-2.9-2.91a4,4,0,0,0-5.66-.17l-.16.18,2.9,2.9a4,4,0,0,0,5.66.18Z"/><path class="cls-1" d="M187,4.84l-2.9-2.91a4,4,0,0,0-5.66-.17l-.16.18,2.9,2.9a4,4,0,0,0,5.66.18Z"/><path class="cls-1" d="M192.87,4.84,190,1.93a4,4,0,0,0-5.66-.17l-.16.18,2.9,2.9a4,4,0,0,0,5.66.18Z"/><path class="cls-1" d="M198.7,4.84l-2.9-2.91a4,4,0,0,0-5.66-.17l-.16.18,2.9,2.9a4,4,0,0,0,5.66.18Z"/><path class="cls-1" d="M204.53,4.84l-2.9-2.91A4,4,0,0,0,196,1.76l-.16.18,2.9,2.9a4,4,0,0,0,5.66.18Z"/><path class="cls-1" d="M210.36,4.84l-2.9-2.91a4,4,0,0,0-5.66-.17l-.16.18,2.9,2.9A4,4,0,0,0,210.2,5Z"/><path class="cls-1" d="M216.19,4.84l-2.9-2.91a4,4,0,0,0-5.66-.17l-.16.18,2.9,2.91A4,4,0,0,0,216,5Z"/><path class="cls-1" d="M222,4.84l-2.9-2.91a4,4,0,0,0-5.66-.17l-.16.18,2.9,2.9a4,4,0,0,0,5.66.18Z"/><path class="cls-1" d="M227.86,4.84,225,1.93a4,4,0,0,0-5.66-.17l-.16.18,2.9,2.9a4,4,0,0,0,5.66.18Z"/><path class="cls-1" d="M233.69,4.84l-2.91-2.91a4,4,0,0,0-5.66-.17l-.16.18,2.9,2.9a4,4,0,0,0,5.66.18Z"/><path class="cls-1" d="M239.52,4.84l-2.91-2.91A4,4,0,0,0,231,1.76l-.16.18,2.9,2.9a4,4,0,0,0,5.66.18Z"/><path class="cls-1" d="M245.35,4.84l-2.91-2.91a4,4,0,0,0-5.66-.17l-.16.18,2.9,2.9a4,4,0,0,0,5.66.18Z"/><path class="cls-1" d="M251.18,4.84l-2.91-2.91a4,4,0,0,0-5.66-.17l-.16.18,2.9,2.9A4,4,0,0,0,251,5Z"/><path class="cls-1" d="M254.21,1.77,251.12,4.9l-2.73-3.14a4,4,0,0,1,5.66-.17Z"/></g></g></g></svg>