<svg xmlns="http://www.w3.org/2000/svg" viewBox="0 0 253.91 3.59"><defs><style>.cls-1{fill:#f6f0ca;stroke:#b97e13;stroke-miterlimit:10;stroke-width:0.75px;}</style></defs><title>snor20</title><g id="Layer_2" data-name="Layer 2"><g id="Matteobjekter"><path class="cls-1" d="M6.42,2.55,5,1.07A2,2,0,0,0,2.07,1L2,1.08,3.47,2.55a2,2,0,0,0,2.87.09Z"/><path class="cls-1" d="M3.47,2.57,1.9,1,.51,2.58a2,2,0,0,0,2.88.09Z"/><path class="cls-1" d="M9.38,2.55,7.91,1.07A2,2,0,0,0,5,1L5,1.08,6.43,2.55a2,2,0,0,0,2.87.09Z"/><path class="cls-1" d="M12.34,2.55,10.87,1.07A2,2,0,0,0,8,1l-.08.1L9.39,2.55a2,2,0,0,0,2.87.09Z"/><path class="cls-1" d="M15.3,2.55,13.83,1.07A2,2,0,0,0,11,1l-.08.1,1.48,1.47a2,2,0,0,0,2.87.09Z"/><path class="cls-1" d="M18.26,2.55,16.79,1.07A2,2,0,0,0,13.91,1l-.08.1,1.48,1.47a2,2,0,0,0,2.87.09Z"/><path class="cls-1" d="M21.22,2.55,19.75,1.07A2,2,0,0,0,16.87,1l-.08.1,1.48,1.47a2,2,0,0,0,2.87.09Z"/><path class="cls-1" d="M24.18,2.55,22.71,1.07A2,2,0,0,0,19.83,1l-.08.1,1.48,1.47a2,2,0,0,0,2.87.09Z"/><path class="cls-1" d="M27.14,2.55,25.67,1.07A2,2,0,0,0,22.79,1l-.08.1,1.48,1.47a2,2,0,0,0,2.87.09Z"/><path class="cls-1" d="M30.1,2.55,28.63,1.07A2,2,0,0,0,25.75,1l-.08.1,1.48,1.47A2,2,0,0,0,30,2.64Z"/><path class="cls-1" d="M33.06,2.55,31.59,1.07A2,2,0,0,0,28.71,1l-.08.1,1.48,1.47A2,2,0,0,0,33,2.64Z"/><path class="cls-1" d="M36,2.55,34.55,1.07A2,2,0,0,0,31.67,1l-.08.1,1.48,1.47a2,2,0,0,0,2.87.09Z"/><path class="cls-1" d="M39,2.55,37.51,1.07A2,2,0,0,0,34.63,1l-.08.1L36,2.55a2,2,0,0,0,2.87.09Z"/><path class="cls-1" d="M41.94,2.55,40.47,1.07A2,2,0,0,0,37.6,1l-.09.1L39,2.55a2,2,0,0,0,2.87.09Z"/><path class="cls-1" d="M44.9,2.55,43.43,1.07A2,2,0,0,0,40.56,1l-.09.1L42,2.55a2,2,0,0,0,2.87.09Z"/><path class="cls-1" d="M47.86,2.55,46.39,1.07A2,2,0,0,0,43.52,1l-.09.1,1.48,1.47a2,2,0,0,0,2.87.09Z"/><path class="cls-1" d="M50.82,2.55,49.35,1.07A2,2,0,0,0,46.48,1l-.09.1,1.48,1.47a2,2,0,0,0,2.87.09Z"/><path class="cls-1" d="M53.78,2.55,52.31,1.07A2,2,0,0,0,49.44,1l-.09.1,1.48,1.47a2,2,0,0,0,2.87.09Z"/><path class="cls-1" d="M56.74,2.55,55.27,1.07A2,2,0,0,0,52.4,1l-.09.1,1.48,1.47a2,2,0,0,0,2.87.09Z"/><path class="cls-1" d="M59.7,2.55,58.23,1.07A2,2,0,0,0,55.36,1l-.09.1,1.48,1.47a2,2,0,0,0,2.87.09Z"/><path class="cls-1" d="M62.67,2.55,61.19,1.07A2,2,0,0,0,58.32,1l-.09.1,1.48,1.47a2,2,0,0,0,2.87.09Z"/><path class="cls-1" d="M65.63,2.55,64.15,1.07A2,2,0,0,0,61.28,1l-.09.1,1.48,1.47a2,2,0,0,0,2.87.09Z"/><path class="cls-1" d="M68.59,2.55,67.11,1.07A2,2,0,0,0,64.24,1l-.09.1,1.48,1.47a2,2,0,0,0,2.87.09Z"/><path class="cls-1" d="M71.55,2.55,70.07,1.07A2,2,0,0,0,67.2,1l-.09.1,1.48,1.47a2,2,0,0,0,2.87.09Z"/><path class="cls-1" d="M74.51,2.55,73,1.07A2,2,0,0,0,70.16,1l-.09.1,1.48,1.47a2,2,0,0,0,2.87.09Z"/><path class="cls-1" d="M77.47,2.55,76,1.07A2,2,0,0,0,73.12,1l-.08.1,1.47,1.47a2,2,0,0,0,2.87.09Z"/><path class="cls-1" d="M80.43,2.55,79,1.07A2,2,0,0,0,76.08,1l-.08.1,1.47,1.47a2,2,0,0,0,2.87.09Z"/><path class="cls-1" d="M83.39,2.55,81.91,1.07A2,2,0,0,0,79,1l-.08.1,1.47,1.47a2,2,0,0,0,2.87.09Z"/><path class="cls-1" d="M86.35,2.55,84.87,1.07A2,2,0,0,0,82,1l-.08.1,1.47,1.47a2,2,0,0,0,2.87.09Z"/><path class="cls-1" d="M89.31,2.55,87.83,1.07A2,2,0,0,0,85,1l-.08.1,1.47,1.47a2,2,0,0,0,2.87.09Z"/><path class="cls-1" d="M92.27,2.55,90.79,1.07A2,2,0,0,0,87.92,1l-.08.1,1.47,1.47a2,2,0,0,0,2.87.09Z"/><path class="cls-1" d="M95.23,2.55,93.75,1.07A2,2,0,0,0,90.88,1l-.08.1,1.47,1.47a2,2,0,0,0,2.87.09Z"/><path class="cls-1" d="M98.19,2.55,96.71,1.07A2,2,0,0,0,93.84,1l-.08.1,1.47,1.47a2,2,0,0,0,2.88.09Z"/><path class="cls-1" d="M101.15,2.55,99.67,1.07A2,2,0,0,0,96.8,1l-.08.1,1.47,1.47a2,2,0,0,0,2.88.09Z"/><path class="cls-1" d="M104.11,2.55l-1.48-1.48A2,2,0,0,0,99.76,1l-.08.1,1.47,1.47a2,2,0,0,0,2.88.09Z"/><path class="cls-1" d="M107.07,2.55l-1.48-1.48A2,2,0,0,0,102.72,1l-.08.1,1.47,1.47a2,2,0,0,0,2.88.09Z"/><path class="cls-1" d="M110,2.55l-1.48-1.48A2,2,0,0,0,105.68,1a.34.34,0,0,0-.08.09l1.47,1.47a2,2,0,0,0,2.88.09Z"/><path class="cls-1" d="M113,2.55l-1.48-1.48A2,2,0,0,0,108.64,1l-.08.1L110,2.55a2,2,0,0,0,2.88.09Z"/><path class="cls-1" d="M116,2.55l-1.48-1.48A2,2,0,0,0,111.6,1l-.08.1L113,2.55a2,2,0,0,0,2.88.09Z"/><path class="cls-1" d="M118.91,2.55l-1.48-1.48A2,2,0,0,0,114.56,1l-.08.1L116,2.55a2,2,0,0,0,2.88.09Z"/><path class="cls-1" d="M121.87,2.55l-1.48-1.48A2,2,0,0,0,117.52,1l-.08.1,1.47,1.47a2,2,0,0,0,2.88.09Z"/><path class="cls-1" d="M124.83,2.55l-1.48-1.48A2,2,0,0,0,120.48,1l-.08.1,1.47,1.47a2,2,0,0,0,2.88.09Z"/><path class="cls-1" d="M127.79,2.55l-1.48-1.48A2,2,0,0,0,123.44,1l-.08.1,1.47,1.47a2,2,0,0,0,2.88.09Z"/><path class="cls-1" d="M130.85,2.55l-1.48-1.48A2,2,0,0,0,126.5,1l-.09.1,1.48,1.47a2,2,0,0,0,2.87.09Z"/><path class="cls-1" d="M133.81,2.55l-1.48-1.48A2,2,0,0,0,129.46,1l-.09.1,1.48,1.47a2,2,0,0,0,2.87.09Z"/><path class="cls-1" d="M136.77,2.55l-1.48-1.48A2,2,0,0,0,132.42,1l-.09.1,1.48,1.47a2,2,0,0,0,2.87.09Z"/><path class="cls-1" d="M139.73,2.55l-1.48-1.48A2,2,0,0,0,135.38,1l-.08.1,1.47,1.47a2,2,0,0,0,2.87.09Z"/><path class="cls-1" d="M142.69,2.55l-1.48-1.48A2,2,0,0,0,138.34,1l-.08.1,1.47,1.47a2,2,0,0,0,2.87.09Z"/><path class="cls-1" d="M145.65,2.55l-1.48-1.48A2,2,0,0,0,141.3,1l-.08.1,1.47,1.47a2,2,0,0,0,2.87.09Z"/><path class="cls-1" d="M148.61,2.55l-1.48-1.48A2,2,0,0,0,144.26,1l-.08.1,1.47,1.47a2,2,0,0,0,2.87.09Z"/><path class="cls-1" d="M151.57,2.55l-1.48-1.48A2,2,0,0,0,147.22,1l-.08.1,1.47,1.47a2,2,0,0,0,2.87.09Z"/><path class="cls-1" d="M154.53,2.55l-1.48-1.48A2,2,0,0,0,150.18,1l-.08.1,1.47,1.47a2,2,0,0,0,2.87.09Z"/><path class="cls-1" d="M157.49,2.55,156,1.07A2,2,0,0,0,153.14,1l-.08.1,1.47,1.47a2,2,0,0,0,2.87.09Z"/><path class="cls-1" d="M160.45,2.55,159,1.07A2,2,0,0,0,156.1,1l-.08.1,1.47,1.47a2,2,0,0,0,2.88.09Z"/><path class="cls-1" d="M163.41,2.55l-1.48-1.48A2,2,0,0,0,159.06,1l-.08.1,1.47,1.47a2,2,0,0,0,2.88.09Z"/><path class="cls-1" d="M166.37,2.55l-1.48-1.48A2,2,0,0,0,162,1l-.08.1,1.47,1.47a2,2,0,0,0,2.88.09Z"/><path class="cls-1" d="M169.33,2.55l-1.48-1.48A2,2,0,0,0,165,1l-.08.1,1.47,1.47a2,2,0,0,0,2.88.09Z"/><path class="cls-1" d="M172.29,2.55l-1.48-1.48A2,2,0,0,0,167.94,1l-.08.1,1.47,1.47a2,2,0,0,0,2.88.09Z"/><path class="cls-1" d="M175.25,2.55l-1.48-1.48A2,2,0,0,0,170.9,1l-.08.1,1.47,1.47a2,2,0,0,0,2.88.09Z"/><path class="cls-1" d="M178.21,2.55l-1.48-1.48A2,2,0,0,0,173.86,1l-.08.1,1.47,1.47a2,2,0,0,0,2.88.09Z"/><path class="cls-1" d="M181.17,2.55l-1.48-1.48A2,2,0,0,0,176.82,1l-.08.1,1.47,1.47a2,2,0,0,0,2.88.09Z"/><path class="cls-1" d="M184.13,2.55l-1.48-1.48A2,2,0,0,0,179.78,1l-.08.1,1.47,1.47a2,2,0,0,0,2.88.09Z"/><path class="cls-1" d="M187.09,2.55l-1.48-1.48A2,2,0,0,0,182.74,1l-.08.1,1.47,1.47a2,2,0,0,0,2.88.09Z"/><path class="cls-1" d="M190.05,2.55l-1.48-1.48A2,2,0,0,0,185.7,1l-.08.1,1.47,1.47a2,2,0,0,0,2.88.09Z"/><path class="cls-1" d="M193,2.55l-1.48-1.48A2,2,0,0,0,188.66,1l-.08.1,1.47,1.47a2,2,0,0,0,2.88.09Z"/><path class="cls-1" d="M196,2.55l-1.48-1.48A2,2,0,0,0,191.62,1l-.08.1L193,2.55a2,2,0,0,0,2.88.09Z"/><path class="cls-1" d="M198.93,2.55l-1.48-1.48A2,2,0,0,0,194.58,1l-.08.1L196,2.55a2,2,0,0,0,2.88.09Z"/><path class="cls-1" d="M201.89,2.55l-1.48-1.48A2,2,0,0,0,197.54,1l-.08.1,1.47,1.47a2,2,0,0,0,2.88.09Z"/><path class="cls-1" d="M204.85,2.55l-1.47-1.48A2,2,0,0,0,200.5,1l-.08.1,1.48,1.47a2,2,0,0,0,2.87.09Z"/><path class="cls-1" d="M207.81,2.55l-1.47-1.48A2,2,0,0,0,203.46,1l-.08.1,1.48,1.47a2,2,0,0,0,2.87.09Z"/><path class="cls-1" d="M210.77,2.55,209.3,1.07A2,2,0,0,0,206.42,1l-.08.1,1.48,1.47a2,2,0,0,0,2.87.09Z"/><path class="cls-1" d="M213.73,2.55l-1.47-1.48A2,2,0,0,0,209.38,1l-.08.1,1.48,1.47a2,2,0,0,0,2.87.09Z"/><path class="cls-1" d="M216.69,2.55l-1.47-1.48A2,2,0,0,0,212.34,1l-.08.1,1.48,1.47a2,2,0,0,0,2.87.09Z"/><path class="cls-1" d="M219.65,2.55l-1.47-1.48A2,2,0,0,0,215.3,1l-.08.1,1.48,1.47a2,2,0,0,0,2.87.09Z"/><path class="cls-1" d="M222.61,2.55l-1.47-1.48A2,2,0,0,0,218.26,1l-.08.1,1.48,1.47a2,2,0,0,0,2.87.09Z"/><path class="cls-1" d="M225.57,2.55,224.1,1.07A2,2,0,0,0,221.22,1l-.08.1,1.48,1.47a2,2,0,0,0,2.87.09Z"/><path class="cls-1" d="M228.53,2.55l-1.47-1.48A2,2,0,0,0,224.18,1l-.08.1,1.48,1.47a2,2,0,0,0,2.87.09Z"/><path class="cls-1" d="M231.49,2.55,230,1.07A2,2,0,0,0,227.14,1l-.08.1,1.48,1.47a2,2,0,0,0,2.87.09Z"/><path class="cls-1" d="M234.45,2.55,233,1.07A2,2,0,0,0,230.1,1a.73.73,0,0,0-.08.09l1.48,1.47a2,2,0,0,0,2.87.09Z"/><path class="cls-1" d="M237.41,2.55l-1.47-1.48A2,2,0,0,0,233.06,1l-.08.1,1.48,1.47a2,2,0,0,0,2.87.09Z"/><path class="cls-1" d="M240.37,2.55,238.9,1.07A2,2,0,0,0,236,1l-.08.1,1.48,1.47a2,2,0,0,0,2.87.09Z"/><path class="cls-1" d="M243.33,2.55l-1.47-1.48A2,2,0,0,0,239,1l-.08.1,1.48,1.47a2,2,0,0,0,2.87.09Z"/><path class="cls-1" d="M246.29,2.55l-1.47-1.48A2,2,0,0,0,241.94,1l-.08.1,1.48,1.47a2,2,0,0,0,2.87.09Z"/><path class="cls-1" d="M249.25,2.55l-1.47-1.48A2,2,0,0,0,244.91,1l-.09.1,1.48,1.47a2,2,0,0,0,2.87.09Z"/><path class="cls-1" d="M252.21,2.55l-1.47-1.48A2,2,0,0,0,247.87,1l-.09.1,1.48,1.47a2,2,0,0,0,2.87.09Z"/><path class="cls-1" d="M253.39,1l-1.56,1.59L250.44,1a2,2,0,0,1,2.87-.08Z"/></g></g></svg>