<svg width="41" height="41" viewBox="0 0 41 41" fill="none" xmlns="http://www.w3.org/2000/svg">
<rect width="41" height="41" rx="5" fill="#DAE0E9"/>
<path d="M16.5888 30.9091C16.1683 30.9091 15.7791 30.875 15.4212 30.8068C15.0689 30.7443 14.7876 30.6705 14.5774 30.5852L15.2933 28.1818C15.7422 28.3125 16.1428 28.375 16.495 28.3693C16.8473 28.3636 17.157 28.2528 17.424 28.0369C17.6967 27.8267 17.9268 27.4744 18.1143 26.9801L18.3786 26.2727L13.6314 12.9091H16.9041L19.9212 22.7955H20.0575L23.0831 12.9091H26.3643L21.1229 27.5852C20.8786 28.2784 20.5547 28.8722 20.1513 29.3665C19.7479 29.8665 19.2536 30.2472 18.6683 30.5085C18.0888 30.7756 17.3956 30.9091 16.5888 30.9091Z" fill="black"/>
</svg>
