<svg width="738" height="700" viewBox="0 0 738 700" fill="none" xmlns="http://www.w3.org/2000/svg">
<g clip-path="url(#clip0_1789_351)">
<path d="M190.125 326.855H188.69V325.44H190.086L190.125 326.855ZM191.55 326.855V325.44H192.956V326.845L191.55 326.855ZM194.401 326.776L194.341 325.361L195.747 325.291L195.826 326.707L194.401 326.776ZM187.265 326.776C186.714 326.738 186.174 326.601 185.672 326.37L186.236 325.084C186.587 325.239 186.961 325.336 187.344 325.371L187.265 326.776ZM197.251 326.608L197.142 325.202L198.548 325.093L198.667 326.499L197.251 326.608ZM200.082 326.37L199.943 324.965L201.349 324.816L201.497 326.222L200.082 326.37ZM202.912 326.053L202.734 324.648L204.13 324.47L204.328 325.865L202.912 326.053ZM205.733 325.658L205.525 324.262L206.911 324.034L207.148 325.43L205.733 325.658ZM184.335 325.618C183.933 325.312 183.549 324.982 183.187 324.628L184.177 323.639C184.489 323.943 184.819 324.227 185.167 324.49L184.335 325.618ZM208.544 325.222L208.297 323.836L209.672 323.569L209.949 324.955C209.484 325.004 209.019 325.093 208.544 325.173V325.222ZM211.345 324.658L211.038 323.282L212.404 322.966L212.74 324.341L211.345 324.658ZM214.126 323.985L213.76 322.619C214.215 322.5 214.67 322.382 215.106 322.253L215.502 323.609L214.126 323.985ZM182.178 323.579C181.871 323.223 181.564 322.847 181.257 322.441L182.386 321.58C182.669 321.963 182.956 322.319 183.247 322.649L182.178 323.579ZM216.877 323.183L216.442 321.837L217.758 321.392L218.233 322.718C217.798 322.827 217.343 322.985 216.877 323.134V323.183ZM219.589 322.194L219.045 320.877C219.49 320.699 219.906 320.521 220.312 320.323L220.915 321.61C220.49 321.768 220.044 321.956 219.589 322.154V322.194ZM180.406 321.253C180.149 320.877 179.882 320.471 179.614 320.056L180.812 319.294C181.069 319.699 181.317 320.085 181.574 320.452L180.406 321.253ZM222.212 320.946L221.529 319.709C221.945 319.482 222.341 319.244 222.687 319.007L223.479 320.174C223.093 320.392 222.687 320.669 222.212 320.907V320.946ZM224.666 319.274L223.746 318.205C223.986 317.996 224.214 317.775 224.429 317.542L224.676 317.265L225.725 318.254L225.478 318.522C225.222 318.776 224.951 319.014 224.666 319.234V319.274ZM178.862 318.828L178.15 317.581L179.387 316.899C179.614 317.314 179.852 317.72 180.08 318.106L178.862 318.828ZM226.646 317.126L225.597 316.136L226.587 315.087L227.626 316.077C227.289 316.44 226.963 316.79 226.646 317.126ZM177.447 316.285C177.219 315.869 177.002 315.444 176.784 315.018L178.051 314.385C178.259 314.8 178.476 315.216 178.694 315.622L177.447 316.285ZM228.625 315.058L227.636 314.068L228.625 313.078L229.615 314.068L228.625 315.058ZM176.17 313.741C175.972 313.316 175.764 312.89 175.557 312.455L176.843 311.851C177.041 312.286 177.239 312.702 177.447 313.118L176.17 313.741ZM230.526 313.019L229.536 312.029L230.526 311.039L231.515 312.029L230.526 313.019ZM174.963 311.158C174.775 310.733 174.577 310.297 174.389 309.852L175.685 309.288C175.873 309.723 176.061 310.149 176.259 310.574L174.963 311.158ZM232.515 311.02L231.525 310.03L232.515 309.04L233.505 310.03L232.515 311.02ZM234.494 309.04L233.505 308.05L234.544 307.061L235.534 308.1L234.494 309.04ZM173.785 308.525C173.607 308.1 173.419 307.664 173.241 307.219L174.547 306.675L175.082 307.971L173.785 308.525ZM236.563 307.13L235.573 306.081L236.642 305.091L237.572 306.16L236.563 307.13ZM172.696 305.903C172.518 305.467 172.35 305.022 172.172 304.576L173.488 304.062C173.656 304.507 173.834 304.943 174.013 305.368L172.696 305.903ZM238.671 305.279L237.76 304.2L238.849 303.29L239.75 304.379L238.671 305.279ZM240.839 303.498L239.958 302.389L241.076 301.508L241.937 302.627L240.839 303.498ZM171.657 303.26L171.152 301.934L172.479 301.429C172.647 301.875 172.815 302.31 172.973 302.755L171.657 303.26ZM243.065 301.785L242.224 300.647C242.6 300.36 242.986 300.083 243.382 299.806L244.194 300.964C243.867 301.251 243.471 301.528 243.115 301.805L243.065 301.785ZM170.657 300.598L170.173 299.262L171.499 298.787C171.667 299.232 171.825 299.667 171.984 300.113L170.657 300.598ZM245.342 300.162L244.56 298.994L245.748 298.213L246.51 299.4L245.342 300.162ZM247.697 298.668L246.975 297.451C247.381 297.203 247.796 296.966 248.212 296.738L248.905 297.965L247.697 298.668ZM169.747 297.906L169.272 296.57L170.608 296.104C170.766 296.55 170.925 296.995 171.073 297.441L169.747 297.906ZM250.181 297.292L249.528 296.035C249.964 295.808 250.389 295.6 250.825 295.402L251.419 296.679C251.003 296.916 250.587 297.114 250.181 297.332V297.292ZM312.88 296.481L311.465 296.372L311.574 294.956L312.999 295.075L312.88 296.481ZM314.414 296.431L314.305 295.026L315.721 294.937L315.919 296.332C315.384 296.382 314.899 296.441 314.414 296.471V296.431ZM310.06 296.263L308.644 296.154L308.743 294.749L310.159 294.848L310.06 296.263ZM252.656 296.114L252.111 294.818C252.567 294.63 253.012 294.452 253.467 294.293L253.942 295.62C253.547 295.817 253.111 295.976 252.685 296.154L252.656 296.114ZM307.199 296.055L305.784 295.946L305.893 294.541L307.298 294.64L307.199 296.055ZM317.275 296.055L316.988 294.669C317.443 294.57 317.878 294.462 318.304 294.333L318.7 295.689C318.274 295.837 317.799 295.926 317.304 296.065L317.275 296.055ZM304.408 295.877L302.993 295.778L303.092 294.372L304.507 294.471L304.408 295.877ZM301.588 295.689L300.172 295.59L300.261 294.184L301.677 294.273L301.588 295.689ZM298.757 295.501L297.352 295.412L297.441 293.996L298.846 294.085L298.757 295.501ZM295.926 295.332L294.511 295.243L294.6 293.838L296.015 293.917L295.926 295.332ZM168.807 295.263L168.351 293.927L169.688 293.472L170.143 294.808L168.807 295.263ZM255.269 295.263L254.863 293.907C255.338 293.769 255.853 293.64 256.268 293.531L256.585 294.907C256.159 294.986 255.714 295.095 255.279 295.234L255.269 295.263ZM320.125 295.263L319.6 293.947C320.016 293.784 320.422 293.599 320.818 293.393L321.471 294.65C321.055 294.828 320.6 295.036 320.135 295.224L320.125 295.263ZM293.106 295.204L291.69 295.125L291.77 293.709L293.185 293.789L293.106 295.204ZM290.285 295.036L288.87 294.966L288.949 293.551L290.354 293.63L290.285 295.036ZM287.454 294.887L286.049 294.818L286.118 293.403L287.534 293.482L287.454 294.887ZM284.634 294.749L283.218 294.679L283.288 293.274L284.703 293.333L284.634 294.749ZM257.911 294.659L257.703 293.264C258.01 293.264 258.307 293.175 258.614 293.145H259.148L259.277 294.551L258.762 294.6L257.911 294.659ZM281.793 294.659L280.388 294.6L280.447 293.185L281.862 293.244L281.793 294.659ZM278.972 294.541H277.567V293.125L278.982 293.185L278.972 294.541ZM276.152 294.442H274.746V293.026L276.162 293.076L276.152 294.442ZM260.663 294.442L260.583 293.026L262.009 292.957L262.058 294.372L260.663 294.442ZM273.331 294.363H271.916V292.947H273.331V294.363ZM263.434 294.363V292.947H264.859V294.353L263.434 294.363ZM270.471 294.363H269.065V292.947H270.491L270.471 294.363ZM266.245 294.363V292.947H267.67V294.363H266.264H266.245ZM322.718 293.996L321.916 292.829C322.264 292.581 322.595 292.31 322.906 292.017L323.896 293.007C323.537 293.307 323.16 293.584 322.768 293.838L322.718 293.996ZM167.866 292.73L167.431 291.384L168.767 290.948L169.212 292.294L167.866 292.73ZM324.935 291.918L323.817 291.057C324.077 290.714 324.309 290.35 324.509 289.968L325.757 290.631C325.528 291.026 325.27 291.403 324.984 291.76L324.935 291.918ZM166.995 290.037L166.57 288.682L167.916 288.256L168.342 289.612L166.995 290.037ZM326.34 289.236L325.004 288.781C325.139 288.37 325.242 287.95 325.311 287.524L326.707 287.761C326.637 288.206 326.538 288.646 326.41 289.077L326.34 289.236ZM166.134 287.326L165.719 285.97L167.075 285.564C167.203 286.009 167.342 286.455 167.48 286.91L166.134 287.326ZM165.313 284.604L164.917 283.248L166.273 282.852L166.669 284.208L165.313 284.604ZM164.521 281.882L164.135 280.516L165.501 280.14L165.887 281.496L164.521 281.882ZM163.759 279.151L163.383 277.785L164.749 277.419L165.125 278.774L163.759 279.151ZM163.027 276.409C162.898 275.944 162.779 275.489 162.661 275.033L164.036 274.687C164.142 275.129 164.261 275.584 164.393 276.053L163.027 276.409ZM162.314 273.658C162.195 273.192 162.086 272.737 161.978 272.282L163.343 271.945C163.462 272.391 163.571 272.856 163.69 273.311L162.314 273.658ZM161.641 270.906C161.536 270.431 161.427 269.966 161.315 269.511L162.7 269.204C162.799 269.649 162.908 270.105 163.017 270.57L161.641 270.906ZM161.008 268.125C160.899 267.65 160.8 267.185 160.711 266.739L162.086 266.443C162.185 266.898 162.284 267.353 162.383 267.828L161.008 268.125ZM160.424 265.344C160.325 264.849 160.236 264.354 160.157 263.939L161.542 263.681C161.631 264.127 161.72 264.582 161.809 265.067L160.424 265.344ZM159.919 262.523L159.83 261.949C159.78 261.682 159.751 261.395 159.711 261.098L161.117 260.93C161.117 261.217 161.186 261.484 161.225 261.741L161.315 262.306L159.919 262.523ZM159.573 259.663C159.573 259.218 159.493 258.733 159.464 258.238L160.879 258.159C160.879 258.644 160.938 259.148 160.978 259.544L159.573 259.663ZM159.394 256.813C159.394 256.357 159.394 255.882 159.345 255.387H160.76C160.76 255.862 160.76 256.377 160.81 256.783L159.394 256.813ZM159.315 253.972C159.315 253.507 159.315 253.032 159.315 252.547H160.731C160.731 253.032 160.731 253.537 160.731 253.962L159.315 253.972ZM159.315 251.132C159.315 250.627 159.315 250.142 159.315 249.716H160.721V251.062L159.315 251.132ZM160.75 248.311H159.345C159.345 247.846 159.345 247.371 159.345 246.886H160.76C160.81 247.222 160.8 247.687 160.8 248.152L160.75 248.311ZM160.75 245.49H159.335V244.075H160.75V245.49ZM160.82 242.669H159.404V241.254H160.81L160.82 242.669ZM160.899 239.849L159.484 239.799V238.384L160.899 238.433V239.849ZM160.988 237.018H159.573L159.622 235.603H161.037L160.988 237.018ZM161.087 234.197L159.672 234.138L159.721 232.733H161.136L161.087 234.197ZM161.186 231.367L159.78 231.317L159.83 229.902L161.245 229.961L161.186 231.367ZM161.295 228.546L159.889 228.487L159.939 227.071L161.354 227.131L161.295 228.546ZM161.413 225.716L159.998 225.666L160.058 224.251L161.463 224.31L161.413 225.716ZM161.522 222.895L160.107 222.835L160.166 221.42L161.582 221.48L161.522 222.895ZM161.631 220.064L160.226 220.005L160.275 218.59L161.691 218.649L161.631 220.064ZM161.74 217.174H160.335V215.759L161.75 215.818L161.74 217.174ZM161.849 214.403L160.434 214.354L160.483 212.938H161.898L161.849 214.403ZM161.948 211.572L160.533 211.523L160.582 210.118H161.997L161.948 211.572ZM162.037 208.752H160.632V207.346H162.047L162.037 208.752ZM162.126 205.921H160.711V204.506H162.126V205.921ZM162.205 203.1H160.79V201.685H162.205V203.1ZM162.265 200.27H160.849V198.854H162.255L162.265 200.27ZM162.314 197.439H160.899C160.899 196.974 160.899 196.449 160.899 196.034H162.304C162.413 196.331 162.403 196.806 162.403 197.281L162.314 197.439ZM162.314 194.599H160.899V192.995H162.304L162.314 194.599ZM162.314 191.768H161.027C161.027 191.293 161.027 190.828 161.027 190.353H162.443C162.443 190.66 162.443 191.135 162.443 191.61L162.314 191.768ZM160.879 188.947C160.879 188.472 160.879 188.007 160.879 187.542H162.294C162.294 188.017 162.294 188.482 162.294 188.967L160.879 188.947ZM160.879 186.127C160.879 185.652 160.879 185.137 160.879 184.721H162.294V186.137L160.879 186.127ZM160.79 183.316C160.79 182.841 160.79 182.326 160.731 181.91L162.146 181.841C162.146 182.303 162.166 182.778 162.205 183.266L160.79 183.316ZM160.661 180.505C160.661 180.03 160.661 179.515 160.572 179.1L161.988 179.001L162.077 180.426L160.661 180.505ZM160.473 177.704C160.473 177.219 160.394 176.714 160.345 176.309L161.75 176.17C161.75 176.625 161.839 177.1 161.879 177.585L160.473 177.704ZM160.196 174.913C160.137 174.438 160.077 173.973 160.018 173.528L161.413 173.33C161.483 173.785 161.542 174.26 161.602 174.745L160.196 174.913ZM159.8 172.152C159.721 171.716 159.632 171.261 159.513 170.816L160.889 170.479C161.008 170.954 161.107 171.469 161.196 171.914L159.8 172.152ZM159.137 169.509C158.999 169.074 158.85 168.648 158.682 168.223L159.998 167.708C160.176 168.173 160.345 168.628 160.483 169.074L159.137 169.509ZM158.147 166.966C157.959 166.55 157.752 166.144 157.534 165.738L158.781 165.075C159.018 165.501 159.226 165.936 159.434 166.372L158.147 166.966ZM156.861 164.541C156.623 164.145 156.376 163.759 156.118 163.373L157.306 162.591C157.573 162.997 157.831 163.403 158.068 163.808L156.861 164.541ZM155.386 162.076C155.119 161.7 154.842 161.334 154.555 160.968L155.663 160.097C155.96 160.473 156.247 160.859 156.524 161.245L155.386 162.076ZM153.674 159.889L152.763 158.85L153.812 157.86L154.753 158.939L153.674 159.889ZM151.813 157.831L150.823 156.841L151.813 155.851C152.16 156.188 152.496 156.524 152.803 156.841L151.813 157.831ZM149.834 155.851L148.844 154.861L149.784 153.802L150.843 154.792L149.834 155.851ZM147.745 153.99C147.399 153.684 147.043 153.387 146.677 153.09L147.567 151.991L148.666 152.912L147.745 153.99ZM145.578 152.219C145.212 151.932 144.846 151.645 144.469 151.368L145.321 150.229L146.459 151.1L145.578 152.219ZM143.341 150.526L142.203 149.715L143.015 148.557L144.173 149.388L143.341 150.526ZM141.045 148.913L139.877 148.141L140.659 146.954L141.847 147.745L141.045 148.913ZM138.699 147.369L137.512 146.627L138.254 145.419L139.461 146.182L138.699 147.369ZM136.314 145.895L135.097 145.182L135.809 143.955L137.037 144.687L136.314 145.895ZM133.899 144.499L132.672 143.806L133.355 142.569L134.592 143.262L133.899 144.499ZM131.435 143.133C131.019 142.915 130.613 142.688 130.198 142.48L130.851 141.223L132.108 141.886L131.435 143.133ZM128.951 141.837L127.694 141.203L128.317 139.936L129.594 140.57L128.951 141.837ZM126.427 140.54L125.16 139.927L125.764 138.65L127.04 139.263L126.427 140.54ZM123.883 139.333L122.597 138.749L123.181 137.462L124.477 138.056L123.883 139.333ZM121.32 138.185L120.023 137.62L120.578 136.324L121.884 136.888L121.32 138.185ZM118.766 137.116L117.46 136.581L117.994 135.275L119.311 135.809L118.766 137.116ZM116.154 136.057L114.808 135.592L115.312 134.275C115.758 134.434 116.193 134.612 116.639 134.78L116.154 136.057ZM113.521 135.067L112.205 134.582L112.68 133.256L114.016 133.741L113.521 135.067ZM110.878 134.077L109.542 133.622L109.998 132.276L111.334 132.741L110.878 134.077ZM108.206 133.177L106.87 132.761L107.286 131.405L108.642 131.831L108.206 133.177ZM105.524 132.355L104.712 132.118L104.178 131.969L104.544 130.603L105.098 130.762L105.92 130.999L105.524 132.355ZM102.822 131.633L101.456 131.336L101.743 129.95L103.149 130.257L102.822 131.633ZM100.081 131.059L98.6949 130.801L98.9522 129.406L100.348 129.663L100.081 131.059ZM97.3093 130.554L95.9237 130.336L96.1414 128.941L97.5468 129.168L97.3093 130.554ZM94.5282 130.128L93.1327 129.93L93.3306 128.525L94.736 128.733L94.5282 130.128ZM91.7372 129.742L90.3417 129.564L90.5099 128.159L91.9153 128.337L91.7372 129.742ZM88.9363 129.386L87.5408 129.228L87.6991 127.822L89.1045 127.981L88.9363 129.386ZM86.1057 129.099L84.7003 128.95L84.8487 127.545L86.2541 127.694L86.1057 129.099ZM83.2949 128.802L81.8796 128.663L82.0181 127.258L83.4235 127.397L83.2949 128.802ZM80.4841 128.535L79.0787 128.406L79.2073 126.991L80.6127 127.129L80.4841 128.535ZM77.6733 128.277L76.2679 128.159L76.3866 126.753L77.792 126.872L77.6733 128.277ZM74.8526 128.04L73.4472 127.931L73.556 126.526L74.9713 126.635L74.8526 128.04ZM72.0418 127.822L70.6166 127.674L70.7254 126.268L72.1308 126.377L72.0418 127.822ZM69.2211 127.614L67.8058 127.515L67.9047 126.11L69.32 126.209L69.2211 127.614ZM66.4003 127.426L64.9851 127.327L65.0741 125.922L66.4894 126.011L66.4003 127.426ZM63.5796 127.248L62.1742 127.159L62.2534 125.744L63.6687 125.833L63.5796 127.248ZM60.7589 127.08L59.3832 127.001L59.4624 125.585L60.8678 125.665L60.7589 127.08ZM57.9382 126.922L56.5229 126.842L56.6021 125.437L58.0174 125.506L57.9382 126.922ZM55.1175 126.773L53.6923 126.684L53.7616 125.269L55.1769 125.338L55.1175 126.773ZM52.2869 126.684L50.8716 126.625L50.931 125.209L52.3463 125.269L52.2869 126.684ZM49.486 126.526L48.0806 126.466L48.1301 125.051L49.5454 125.11L49.486 126.526ZM46.6653 126.417H45.25L45.2995 125.002H46.7148L46.6653 126.417ZM25.7031 126.357L25.2676 125.011C25.7824 124.882 26.3105 124.812 26.8412 124.804L26.9303 126.209C26.5073 126.215 26.0861 126.265 25.6734 126.357H25.7031ZM43.8446 126.357H42.4293V124.942H43.8446V126.357ZM41.014 126.278H39.5987V124.863H41.014V126.278ZM38.1933 126.209H36.778V124.804H38.2032L38.1933 126.209ZM28.2961 126.209L28.2466 124.705H29.6916V126.12C29.1902 126.12 28.725 126.13 28.2961 126.15V126.209ZM35.333 126.209H33.9177V124.794H35.333V126.209ZM31.097 126.209V124.705H32.5123V126.12H31.097V126.209Z" fill="#3C3C3C"/>
<path d="M473.649 696.833L472.59 695.902L472.679 695.803L473.748 696.734L473.649 696.833ZM474.639 695.665L473.57 694.734L474.5 693.675L475.569 694.606L474.639 695.665ZM476.5 693.537L475.431 692.606L476.361 691.547L477.43 692.478L476.5 693.537ZM478.36 691.409L477.291 690.479L478.222 689.42L479.291 690.35L478.36 691.409ZM480.221 689.281L479.152 688.351L480.082 687.292L481.151 688.222L480.221 689.281ZM482.082 687.153L481.013 686.223L481.943 685.164L483.012 686.094L482.082 687.153ZM483.942 685.025L482.873 684.095L483.804 683.036L484.873 683.966L483.942 685.025ZM485.803 682.897L484.734 681.967L485.664 680.908L486.733 681.838L485.803 682.897ZM487.664 680.769L486.595 679.839L487.525 678.78L488.594 679.71L487.664 680.769ZM489.524 678.641L488.455 677.711L489.396 676.652L490.455 677.582L489.524 678.641ZM491.385 676.514L490.326 675.583L491.256 674.524L492.315 675.454L491.385 676.514ZM493.246 674.386L492.187 673.455L493.117 672.396L494.176 673.327L493.246 674.386ZM495.106 672.258L494.047 671.327L494.978 670.268L496.037 671.199L495.106 672.258ZM496.967 670.13L495.908 669.2L496.838 668.141L497.897 669.071L496.967 670.13ZM498.828 668.002L497.828 667.072L498.758 666.013L499.817 666.943L498.828 668.002ZM500.688 665.874L499.629 664.944L500.56 663.885L501.619 664.815L500.688 665.874ZM502.549 663.746L501.49 662.816L502.42 661.757L503.479 662.687L502.549 663.746ZM504.41 661.618L503.351 660.688L504.281 659.629L505.34 660.559L504.41 661.618ZM506.27 659.49L505.211 658.56L506.142 657.501L507.201 658.431L506.27 659.49ZM508.131 657.362L507.072 656.432L508.002 655.373L509.071 656.303L508.131 657.362ZM510.002 655.235L508.933 654.304L509.863 653.245L510.932 654.176L510.002 655.235ZM511.862 653.107L510.793 652.176L511.724 651.117L512.793 652.048L511.862 653.107ZM513.723 650.979L512.674 650.048L513.604 648.989L514.673 649.92L513.723 650.979ZM515.584 648.851L514.515 647.921L514.742 647.663C514.742 647.663 515.049 647.356 515.494 646.871L516.534 647.861C516.059 648.386 515.772 648.663 515.772 648.663L515.584 648.851ZM517.484 646.743L516.415 645.832C516.692 645.506 516.989 645.149 517.306 644.753L518.404 645.644C518.117 646.04 517.81 646.416 517.523 646.743H517.484ZM519.285 644.506L518.157 643.655C518.434 643.299 518.701 642.922 518.978 642.536L520.136 643.348C519.889 643.754 519.602 644.14 519.325 644.506H519.285ZM520.948 642.16L519.77 641.378C520.018 641.002 520.265 640.606 520.502 640.211L521.72 640.943L520.948 642.16ZM522.432 639.686L521.195 639.013C521.413 638.607 521.631 638.201 521.829 637.786L523.105 638.399C522.927 638.835 522.71 639.27 522.472 639.686H522.432ZM523.709 637.073L522.403 636.529C522.581 636.113 522.739 635.688 522.888 635.252L524.224 635.717C524.105 636.173 523.937 636.628 523.749 637.073H523.709ZM524.699 634.262L523.313 633.985V633.906C523.434 633.438 523.586 632.978 523.769 632.53L525.085 633.055C524.93 633.448 524.805 633.851 524.709 634.262H524.699ZM525.689 631.818L524.432 631.184C524.64 630.779 524.867 630.343 525.115 629.908L526.342 630.61C526.085 631.026 525.867 631.442 525.669 631.818H525.689ZM527.054 629.423L525.867 628.67C526.114 628.275 526.372 627.879 526.649 627.463L527.816 628.265C527.52 628.651 527.282 629.047 527.035 629.462L527.054 629.423ZM528.618 627.117L527.47 626.295C527.737 625.909 528.024 625.523 528.311 625.137L529.44 625.988L528.618 627.117ZM530.291 624.87L529.182 623.999C529.469 623.633 529.756 623.257 530.063 622.881L531.162 623.771L530.291 624.87ZM532.053 622.683L530.964 621.782L531.874 620.683L532.953 621.604C532.627 621.96 532.33 622.326 532.033 622.683H532.053ZM533.864 620.535L532.805 619.605L533.735 618.536L534.794 619.466L533.864 620.535ZM535.734 618.417L534.685 617.427C534.992 617.071 535.319 616.725 535.675 616.368L536.714 617.358L535.734 618.417ZM537.635 616.339L536.595 615.349L537.585 614.359L538.575 615.349L537.635 616.339ZM539.564 614.29L538.575 613.3C538.901 612.954 539.228 612.617 539.564 612.31L540.554 613.3L539.564 614.29ZM541.544 612.31L540.554 611.321L541.544 610.331L542.534 611.321C542.167 611.588 541.841 611.924 541.514 612.261L541.544 612.31ZM543.523 610.331L542.534 609.341L543.523 608.351L544.513 609.341L543.523 610.331ZM545.503 608.351L544.513 607.362L545.503 606.372L546.493 607.362L545.503 608.351ZM547.542 606.372L546.552 605.382L547.542 604.393L548.531 605.382L547.542 606.372ZM549.6 604.452L548.611 603.413L549.194 602.878L549.62 602.473L550.61 603.462C550.451 603.63 550.283 603.789 550.125 603.927L549.6 604.452ZM551.58 602.344L550.481 601.453C550.748 601.126 551.016 600.76 551.293 600.364L552.451 601.166C552.263 601.552 551.926 601.948 551.639 602.304L551.58 602.344ZM553.252 599.959L552.055 599.206C552.292 598.83 552.53 598.434 552.767 598.019L553.995 598.721C553.807 599.107 553.559 599.523 553.312 599.919L553.252 599.959ZM554.687 597.465L553.44 596.792C553.658 596.396 553.876 595.98 554.084 595.554L555.351 596.188C555.232 596.594 554.965 597.009 554.747 597.425L554.687 597.465ZM555.984 594.911L554.707 594.297L555.301 593.031L556.588 593.615L555.984 594.911ZM557.172 592.318L555.875 591.744C556.063 591.328 556.251 590.893 556.429 590.457L557.736 591.012C557.607 591.407 557.419 591.853 557.211 592.278L557.172 592.318ZM558.28 589.695L556.974 589.161L557.498 587.854L558.815 588.379L558.28 589.695ZM559.329 587.053L558.013 586.538L558.518 585.222L559.834 585.726L559.329 587.053ZM560.319 584.39L558.993 583.905C559.151 583.46 559.319 583.025 559.478 582.579L560.804 583.054C560.715 583.46 560.556 583.935 560.388 584.351L560.319 584.39ZM561.309 581.718L559.973 581.253L560.438 579.917L561.774 580.372C561.655 580.788 561.507 581.233 561.348 581.678L561.309 581.718ZM562.229 579.026L560.893 578.581L561.338 577.245L562.674 577.68C562.576 578.096 562.417 578.541 562.269 578.986L562.229 579.026ZM563.12 576.334L561.774 575.898L562.209 574.553L563.555 574.988L563.12 576.334ZM563.981 573.632L562.635 573.216L563.051 571.86L564.406 572.276C564.308 572.692 564.139 573.147 564.02 573.592L563.981 573.632ZM564.822 570.92L563.466 570.514L563.872 569.159L565.228 569.564L564.822 570.92ZM565.634 568.198L564.278 567.803L564.674 566.447L566.03 566.843L565.634 568.198ZM566.416 565.477L565.06 565.091L565.446 563.735L566.811 564.121L566.416 565.477ZM567.188 562.755L565.822 562.379L566.198 561.013L567.564 561.389L567.188 562.755ZM567.94 560.014L566.574 559.647L566.94 558.281L568.306 558.648L567.94 560.014ZM568.662 557.282L567.296 556.916L567.653 555.55L569.019 555.906L568.662 557.282ZM569.375 554.53L568.098 554.144L568.445 552.779L569.81 553.115L569.375 554.53ZM570.068 551.779L568.692 551.442L569.028 550.067L570.404 550.403L570.068 551.779ZM570.731 549.028L569.365 548.701C569.474 548.236 569.583 547.771 569.692 547.325L571.067 547.642C570.998 548.058 570.889 548.523 570.77 548.988L570.731 549.028ZM571.384 546.266L570.008 545.95C570.117 545.474 570.216 545.019 570.315 544.574L571.701 544.881C571.641 545.336 571.532 545.752 571.424 546.227L571.384 546.266ZM572.008 543.495L570.622 543.188L570.929 541.813L572.304 542.109L572.008 543.495ZM572.601 540.714L571.216 540.427L571.493 539.041L572.879 539.318C572.829 539.714 572.74 540.179 572.641 540.674L572.601 540.714ZM573.146 537.913L571.75 537.666C571.75 537.379 571.849 537.111 571.889 536.864C571.904 536.696 571.904 536.527 571.889 536.359L573.304 536.419C573.297 536.647 573.274 536.876 573.235 537.101C573.284 537.319 573.235 537.586 573.185 537.873L573.146 537.913ZM571.859 535.082C571.8 534.677 571.711 534.241 571.592 533.766L572.968 533.42C573.093 533.948 573.192 534.432 573.264 534.875L571.859 535.082ZM571.206 532.46C571.077 532.044 570.919 531.608 570.751 531.163L572.067 530.658C572.245 531.124 572.413 531.579 572.552 532.024L571.206 532.46ZM570.216 529.867L569.652 528.59L570.939 528.006C571.146 528.451 571.335 528.897 571.523 529.322L570.216 529.867ZM569.088 527.293C568.89 526.878 568.682 526.462 568.464 526.036L569.721 525.393C569.939 525.828 570.157 526.254 570.355 526.67L569.088 527.293ZM567.811 524.789C567.603 524.384 567.376 523.968 567.148 523.552L568.385 522.869C568.623 523.295 568.84 523.711 569.068 524.126L567.811 524.789ZM566.465 522.325L565.762 521.098L566.99 520.395L567.692 521.622L566.465 522.325ZM565.05 519.88C564.822 519.484 564.575 519.079 564.327 518.673L565.545 517.94L566.267 519.168L565.05 519.88ZM563.595 517.475C563.357 517.069 563.11 516.674 562.853 516.268L564.05 515.526L564.802 516.733L563.595 517.475ZM562.16 515.08C561.912 514.684 561.665 514.288 561.408 513.892L562.595 513.121L563.357 514.318L562.16 515.08ZM560.636 512.705L559.864 511.527L561.051 510.745L561.823 511.933L560.636 512.705ZM559.092 510.349L558.3 509.172L559.478 508.38L560.26 509.557L559.092 510.349ZM557.508 508.004L556.716 506.836L557.884 506.034L558.686 507.212L557.508 508.004ZM555.915 505.668L555.113 504.51L556.271 503.708L557.083 504.866L555.915 505.668ZM554.242 503.352L553.43 502.204L554.579 501.382L555.4 502.54L554.242 503.352ZM552.609 501.046L551.788 499.898L552.936 499.076L553.757 500.234L552.609 501.046ZM550.966 498.76L550.135 497.612L551.273 496.78L552.104 497.928L550.966 498.76ZM549.293 496.463L548.462 495.325L549.6 494.484L550.441 495.632L549.293 496.463ZM547.621 494.197L546.78 493.059L547.918 492.218L548.759 493.356L547.621 494.197ZM545.938 491.931L545.087 490.792L546.215 489.941L547.067 491.079L545.938 491.931ZM544.236 489.664L543.385 488.546L544.503 487.685L545.364 488.813L544.236 489.664ZM542.524 487.417L541.663 486.299L542.781 485.438L543.652 486.556L542.524 487.417ZM540.802 485.181L539.931 484.062L541.049 483.201L541.92 484.32L540.802 485.181ZM539.08 482.983L538.209 481.865L539.327 480.994L540.198 482.113L539.08 482.983ZM537.338 480.757L536.427 479.618L537.536 478.738L538.416 479.856L537.338 480.757ZM535.576 478.55L534.695 477.451L535.794 476.56L536.674 477.659L535.576 478.55ZM533.804 476.342L532.914 475.254L534.002 474.353L534.903 475.462L533.804 476.342ZM532.013 474.155L531.112 473.066L532.201 472.166L533.102 473.264L532.013 474.155ZM530.212 471.988L529.301 470.899L530.38 469.988L531.29 471.077L530.212 471.988ZM528.381 469.83L527.46 468.761L528.529 467.831L529.459 468.91L528.381 469.83ZM526.53 467.673C526.203 467.296 525.887 466.94 525.54 466.623L526.589 465.634L527.579 466.703L526.53 467.673ZM524.63 465.594C524.254 465.198 523.927 464.862 523.64 464.604L524.63 463.615C524.917 463.882 525.263 464.228 525.619 464.604L524.63 465.594ZM522.65 463.704L521.561 462.813L522.432 461.714C522.848 462.041 523.224 462.338 523.551 462.615L522.65 463.704ZM520.443 461.952C520.097 461.675 519.721 461.398 519.325 461.091L520.176 459.972C520.582 460.269 520.958 460.556 521.314 460.834L520.443 461.952ZM518.177 460.22L517.038 459.379L517.88 458.24L519.018 459.082L518.177 460.22ZM515.9 458.537L514.762 457.706L515.593 456.568L516.732 457.399L515.9 458.537ZM513.664 456.914L512.515 456.083L513.337 454.935L514.495 455.766L513.664 456.914ZM511.318 455.271L510.18 454.47L510.981 453.302L510.576 453.876L511.001 453.312L512.139 454.123L511.318 455.271ZM509.012 453.638L507.854 452.827L508.665 451.669L509.823 452.48L509.012 453.638ZM506.735 452.005L505.577 451.194L506.379 450.036L507.547 450.847L506.735 452.005ZM504.419 450.382L503.252 449.58L504.053 448.413L505.221 449.224L504.419 450.382ZM502.094 448.769L500.926 447.967L501.728 446.809L502.895 447.611L502.094 448.769ZM499.758 447.165L498.6 446.364L499.392 445.206L500.56 446.008L499.758 447.165ZM497.432 445.572L496.264 444.77L497.056 443.602L498.224 444.404L497.432 445.572ZM495.096 443.979L493.919 443.187L494.71 442.009L495.888 442.811L495.096 443.979ZM492.711 442.405L491.543 441.613L492.325 440.445L493.503 441.237L492.711 442.405ZM490.365 440.831L489.188 440.039L489.98 438.862L491.157 439.654L490.365 440.831ZM488.01 439.248L486.842 438.446L487.624 437.268L488.802 438.06L488.01 439.248ZM485.664 437.684L484.487 436.902L485.268 435.724L486.446 436.506L485.664 437.684ZM483.309 436.12L482.131 435.338L482.903 434.161L484.091 434.942L483.309 436.12ZM481.003 434.547L479.815 433.765L480.587 432.587L481.775 433.359L481.003 434.547ZM478.637 432.993L477.45 432.221L478.222 431.033L479.409 431.805L478.637 432.993ZM476.262 431.449L475.074 430.677L475.846 429.499L477.034 430.261L476.262 431.449ZM473.887 429.915L472.699 429.153L473.461 427.965L474.659 428.727L473.887 429.915ZM471.511 428.39L470.314 427.638L471.066 426.441L472.264 427.203L471.511 428.39ZM469.116 426.876L467.919 426.124L468.671 424.926L469.868 425.689L469.116 426.876ZM466.721 425.382L465.523 424.639L466.256 423.432L467.463 424.184L466.721 425.382ZM464.316 423.897L463.109 423.175L463.831 421.957L465.048 422.69L464.316 423.897ZM461.891 422.452L460.674 421.74L461.386 420.512L462.614 421.235L461.891 422.452ZM459.457 421.037L458.219 420.354L458.892 419.117C459.288 419.325 459.704 419.552 460.149 419.81L459.457 421.037ZM456.982 419.711L455.993 419.245L455.725 419.127L456.26 417.82L456.567 417.949L457.556 418.444L456.982 419.711ZM454.478 418.721C454.063 418.602 453.627 418.483 453.152 418.375L453.469 416.999C453.973 417.118 454.458 417.236 454.884 417.365L454.478 418.721ZM451.796 418.097L450.42 417.86L450.638 416.464L452.053 416.702L451.796 418.097ZM449.035 417.672L447.639 417.504L447.798 416.098L449.213 416.266L449.035 417.672ZM446.244 417.355L444.838 417.236L444.957 415.831L446.372 415.95L446.244 417.355ZM443.433 417.127L442.028 417.038L442.117 415.623L443.542 415.722L443.433 417.127ZM440.622 416.959L439.217 416.88L439.286 415.475L440.701 415.544L440.622 416.959ZM437.811 416.821L436.396 416.771L436.446 415.356L437.861 415.415L437.811 416.821ZM434.991 416.722L433.496 416.672V415.257H434.921L434.991 416.722ZM432.111 416.672H430.705V415.267H432.12L432.111 416.672ZM429.29 416.623H427.875V415.207H429.29V416.623ZM426.459 416.623H425.054V415.92V415.207H426.459V416.623ZM423.629 416.623H422.223V415.089H423.599L423.629 416.623ZM420.808 416.623H419.393V415.207H420.808V416.623ZM417.977 416.623H416.562V415.207H417.977V416.623ZM415.147 416.623H413.702V415.207H415.107L415.147 416.623ZM412.316 416.623H410.901V415.207H412.306L412.316 416.623ZM409.486 416.623H408.06V415.207H409.476L409.486 416.623ZM406.645 416.623H405.23V415.207H406.645V416.623ZM403.805 416.563H402.389V415.148L403.805 415.198V416.563ZM400.964 416.464L399.529 416.385L399.628 414.98L401.023 415.049L400.964 416.464ZM398.104 416.276C397.569 416.227 397.114 416.177 396.659 416.118L396.857 414.713C397.263 414.772 397.728 414.821 398.223 414.871L398.104 416.276ZM395.194 415.682C394.749 415.574 394.274 415.425 393.769 415.247L394.254 413.911C394.672 414.068 395.098 414.203 395.531 414.317L395.194 415.682ZM392.413 414.693C391.997 414.505 391.552 414.297 391.106 414.069L391.74 412.812L392.987 413.406L392.413 414.693ZM389.83 413.396C389.424 413.178 389.008 412.931 388.593 412.684L389.305 411.466L390.513 412.159L389.83 413.396ZM387.365 411.941L386.158 411.179L386.93 409.992L388.108 410.744L387.365 411.941ZM385 410.338L383.822 409.536L384.634 408.378L385.792 409.17L385 410.338ZM382.625 408.754L381.476 407.923L382.308 406.785L383.446 407.606L382.625 408.754ZM380.328 407.082L379.19 406.231L380.041 405.102L381.17 405.944L380.328 407.082ZM378.072 405.33L376.944 404.469L377.814 403.351L378.933 404.212L378.072 405.33ZM375.825 403.598L374.717 402.717L375.588 401.609L376.696 402.48L375.825 403.598ZM373.588 401.826L372.48 400.946L373.371 399.837L374.469 400.728L373.588 401.826ZM371.381 400.055L370.283 399.164L371.173 398.065L372.272 398.956L371.381 400.055ZM369.184 398.273L368.086 397.383L368.976 396.284L370.075 397.175L369.184 398.273ZM366.997 396.482L365.898 395.591L366.789 394.493L367.888 395.393L366.997 396.482ZM364.8 394.69L363.701 393.8L364.602 392.701L365.7 393.602L364.8 394.69ZM362.612 392.909L361.514 392.018L362.405 390.92L363.503 391.81L362.612 392.909ZM360.415 391.127L359.307 390.247L360.188 389.138L361.296 390.029L360.415 391.127ZM358.198 389.336C357.832 389.029 357.476 388.713 357.119 388.346L358.109 387.307C358.456 387.634 358.792 387.941 359.099 388.228L358.198 389.336ZM356.08 387.357C355.754 387.02 355.417 386.674 355.091 386.317L356.08 385.328C356.407 385.664 356.724 386.001 357.07 386.317L356.08 387.357ZM354.101 385.249C353.784 384.902 353.477 384.536 353.17 384.17L354.249 383.259C354.556 383.625 354.853 383.972 355.16 384.318L354.101 385.249ZM352.339 383.091L351.468 381.963L352.587 381.102L353.448 382.21L352.339 383.091ZM350.607 380.824L349.766 379.676L350.914 378.845L351.745 379.983L350.607 380.824ZM348.944 378.518L348.133 377.351L349.301 376.549L350.102 377.707L348.944 378.518ZM347.341 376.173C347.074 375.787 346.807 375.391 346.549 374.995L347.727 374.213C347.984 374.599 348.242 374.995 348.509 375.381L347.341 376.173ZM345.767 373.807L344.986 372.63L346.173 371.858L346.945 373.035L345.767 373.807ZM344.214 371.442L343.442 370.254L344.629 369.482L345.401 370.67L344.214 371.442ZM342.67 369.067L341.898 367.879L343.075 367.107L343.847 368.295L342.67 369.067ZM341.116 366.701L340.334 365.523L341.512 364.742L342.293 365.919L341.116 366.701ZM339.473 364.356L338.681 363.198L339.849 362.396L340.641 363.564L339.473 364.356ZM337.879 362.04L337.068 360.892L338.216 360.07L339.037 361.228L337.879 362.04ZM336.246 359.763L335.405 358.635L336.533 357.784L337.384 358.922L336.246 359.763ZM334.544 357.526C334.257 357.15 333.97 356.794 333.673 356.428L334.772 355.537L335.662 356.655L334.544 357.526ZM332.782 355.349L331.862 354.3L332.921 353.31C333.238 353.667 333.544 354.023 333.851 354.389L332.782 355.349ZM330.922 353.261L329.932 352.271L330.922 351.281C331.258 351.618 331.585 351.964 331.911 352.271L330.922 353.261ZM328.942 351.281L328.259 350.648L327.923 350.341L328.863 349.282L329.219 349.599L329.922 350.262L328.942 351.281ZM326.923 349.371L325.854 348.451L326.775 347.372L327.853 348.302L326.923 349.371ZM324.775 347.54L323.687 346.649L324.577 345.551C324.954 345.858 325.32 346.155 325.676 346.461L324.775 347.54ZM322.588 345.769C322.232 345.482 321.866 345.185 321.49 344.898L322.36 343.779L323.479 344.66L322.588 345.769ZM320.371 344.037L319.253 343.175L320.104 342.047L321.232 342.908L320.371 344.037ZM318.124 342.334L316.986 341.493L317.828 340.355L318.966 341.196L318.124 342.334ZM315.848 340.672L314.7 339.85L315.522 338.702L316.68 339.523L315.848 340.672ZM313.552 339.038L312.394 338.237L313.196 337.069L314.364 337.881L313.552 339.038ZM311.226 337.495L310.048 336.703L310.84 335.535L312.018 336.327L311.226 337.495ZM308.871 335.931L307.693 335.159L308.465 333.971L309.652 334.743L308.871 335.931ZM306.505 334.407L305.318 333.654L306.07 332.457L307.267 333.209L306.505 334.407ZM304.12 332.912L302.912 332.19L303.645 330.972L304.862 331.705L304.12 332.912ZM301.705 331.467L300.488 330.764L301.19 329.537L302.418 330.25L301.705 331.467ZM299.26 330.062L298.033 329.389L298.706 328.142L299.953 328.834L299.26 330.062ZM296.796 328.716L295.549 328.072L296.192 326.806L297.459 327.469L296.796 328.716ZM294.292 327.429L293.035 326.815L293.639 325.539L294.925 326.162L294.292 327.429ZM291.758 326.231L290.482 325.618L291.036 324.321C291.471 324.509 291.907 324.697 292.342 324.905L291.758 326.231ZM289.185 325.123L287.889 324.618L288.374 323.292L289.72 323.807L289.185 325.123ZM239.194 324.697H237.977V323.282C238.373 323.282 238.759 323.282 239.155 323.282H239.363V324.697H239.194ZM240.857 324.697L240.788 323.292C241.253 323.292 241.708 323.233 242.163 323.183L242.302 324.598C241.827 324.628 241.342 324.628 240.857 324.628V324.697ZM236.542 324.628L235.107 324.519L235.235 323.104C235.691 323.15 236.156 323.19 236.631 323.223L236.542 324.628ZM243.747 324.391L243.529 322.995C243.994 322.926 244.44 322.837 244.865 322.738L245.182 324.123C244.727 324.193 244.242 324.282 243.747 324.361V324.391ZM233.682 324.391L232.266 324.193L232.474 322.797L233.85 322.985L233.682 324.391ZM286.572 324.212C286.127 324.054 285.681 323.925 285.256 323.797L285.642 322.441C286.087 322.57 286.552 322.708 287.018 322.866L286.572 324.212ZM230.851 323.965L229.446 323.708L229.713 322.322L231.089 322.579L230.851 323.965ZM246.597 323.767L246.182 322.421C246.609 322.29 247.029 322.135 247.439 321.956L247.993 323.262C247.536 323.434 247.07 323.583 246.597 323.708V323.767ZM283.92 323.46C283.455 323.351 283.009 323.272 282.584 323.203L282.791 321.807C283.247 321.877 283.732 321.966 284.236 322.075L283.92 323.46ZM228.04 323.411C227.149 323.203 226.635 323.064 226.635 323.064L227.001 321.699C227.001 321.699 227.506 321.837 228.347 322.025L228.04 323.411ZM281.238 323.074L279.812 322.975L279.921 321.57L281.327 321.659L281.238 323.074ZM278.397 322.857L276.982 322.728L277.12 321.322L278.526 321.451L278.397 322.857ZM249.27 322.649L248.745 321.332C249.19 321.154 249.666 320.996 250.151 320.847L250.546 322.203C250.098 322.335 249.672 322.484 249.27 322.649ZM275.576 322.53L274.171 322.391L274.319 320.986L275.725 321.125L275.576 322.53ZM272.756 322.233L271.35 322.085L271.499 320.679L272.914 320.838L272.756 322.233ZM269.955 321.946L268.549 321.798L268.688 320.392L270.093 320.531L269.955 321.946ZM251.863 321.877L251.566 320.491C252.031 320.392 252.506 320.303 253.001 320.224L253.209 321.619C252.753 321.659 252.298 321.768 251.863 321.867V321.877ZM267.144 321.669L265.739 321.55L265.857 320.145L267.273 320.263L267.144 321.669ZM264.343 321.441L262.938 321.352L263.017 319.947C263.492 319.947 263.967 319.976 264.442 320.036L264.343 321.441ZM254.584 321.441L254.436 320.036C254.901 319.986 255.426 319.947 255.871 319.917L255.96 321.322C255.495 321.352 255.03 321.382 254.584 321.431V321.441ZM261.513 321.293L260.107 321.243V319.838C260.582 319.838 261.097 319.838 261.532 319.838L261.513 321.293ZM257.316 321.293V319.877C257.791 319.877 258.306 319.877 258.751 319.877V321.293H257.316Z" fill="#3C3C3C"/>
<path d="M22.4346 137C42.308 134.593 52.055 134.211 59.8525 134.601C89.49 136.083 111.141 142.006 129.335 157.25C147.51 172.477 154.396 191.131 154.396 215.264V215.29L154.398 215.316C154.64 217.609 154.337 222.998 153.756 230.092C153.176 237.163 152.327 245.865 151.491 254.745C150.656 263.621 149.836 272.674 149.317 280.437C148.8 288.187 148.579 294.691 148.955 298.45C150.454 313.434 158.935 326.907 166.937 333.908C170.991 337.456 178.391 340.448 186.84 342.063C195.304 343.681 204.902 343.934 213.397 341.935C230.203 337.981 257.853 333.54 271.164 333.536C277.911 334.033 284.717 333.416 294.028 336.724C303.337 340.031 315.154 347.277 331.703 363.58C348.271 379.9 358.256 392.481 367.13 402.161C375.999 411.836 383.732 418.581 395.714 423.074C405.176 426.622 416.012 427.868 428.965 429.95C441.939 432.035 457.119 434.967 475.385 441.878C493.589 448.767 509.115 462.187 521.961 476.083C528.381 483.028 534.125 490.083 539.194 496.49C544.258 502.889 548.663 508.658 552.383 512.998C559.75 521.593 562.925 529.429 564.085 536.325C565.246 543.23 564.392 549.223 563.65 554.169C563.474 555.348 562.92 557.13 562.023 559.394C561.131 561.649 559.911 564.355 558.423 567.37C555.446 573.4 551.403 580.654 546.772 588.001C542.141 595.35 536.927 602.785 531.609 609.181C526.287 615.584 520.882 620.919 515.874 624.095C495.524 637 488.505 648.478 475.21 661.773C469.807 667.176 464.253 676.39 459.977 684.773C457.835 688.972 456.006 692.977 454.671 696.214C453.59 698.834 452.817 700.987 452.473 702.334L439.573 692.661C448.835 674.871 452.262 668.523 456.169 663.028C458.137 660.261 460.228 657.707 463.262 654.008C466.289 650.317 470.244 645.496 475.926 638.209C486.246 628.523 498.47 617.904 509.371 608.144C519.924 598.695 529.255 590.037 534.354 583.846L534.835 583.254L534.844 583.244C538.402 578.527 544.248 569.946 547.84 560.355C551.37 550.927 552.762 540.408 547.495 531.633L547.239 531.216C540.523 519.285 527.998 504.412 514.51 490.862C501.012 477.302 486.507 465.025 475.823 458.316C465.078 451.569 451.227 449.608 435.427 447.214C419.592 444.816 401.713 441.978 382.728 433.541C379.475 432.095 375.324 428.719 370.499 424.056C365.687 419.406 360.254 413.525 354.438 407.123C342.819 394.329 329.682 379.457 317.037 368.299C291.64 345.891 262.752 344.905 238.396 351.367C226.32 354.57 210.659 356.421 195.987 355.743C181.292 355.063 167.7 351.853 159.665 345.035C142.977 330.875 135.097 314.082 135.097 293.947C135.097 277.753 139.049 239.758 141.03 222.754C142.694 210.61 140.141 181.766 116.596 163.409C104.803 154.214 87.2421 149.996 70.1543 148.435C53.2779 146.893 36.7787 147.935 26.5654 149.394L22.4346 137Z" fill="#E8F5FF" stroke="#3C3C3C" stroke-width="0.989721"/>
<path d="M524.106 634.787L523.938 633.382H524.165L524.333 634.777L524.106 634.787ZM525.749 634.589L525.58 633.184L526.986 633.015L527.164 634.411L525.749 634.589ZM528.569 634.243L528.401 632.837L529.807 632.669L529.975 634.064L528.569 634.243ZM531.39 633.896L531.212 632.491L532.617 632.313L532.796 633.718L531.39 633.896ZM534.201 633.55L534.023 632.144L535.428 631.966L535.606 633.372L534.201 633.55ZM537.012 633.194L536.834 631.788L538.239 631.62L538.417 633.015L537.012 633.194ZM539.822 632.837L539.644 631.442L541.05 631.264L541.228 632.659L539.822 632.837ZM542.633 632.481L542.455 631.085L543.861 630.907L544.039 632.303L542.633 632.481ZM545.444 632.125L545.266 630.729L546.671 630.551L546.85 631.946L545.444 632.125ZM548.255 631.768L548.077 630.363L549.482 630.185L549.66 631.59L548.255 631.768ZM551.066 631.402L550.888 629.997L552.283 629.819L552.471 631.214L551.066 631.402ZM553.877 631.026L553.688 629.631L555.094 629.442L555.282 630.838L553.877 631.026ZM556.687 630.65L556.499 629.254L557.905 629.057L558.093 630.452L556.687 630.65ZM559.508 630.254L559.3 628.859L560.706 628.651L560.913 630.046L559.508 630.254ZM562.329 629.828L562.101 628.433C562.529 628.381 562.952 628.299 563.368 628.186L563.863 629.512C563.362 629.663 562.848 629.768 562.329 629.828Z" fill="#3C3C3C"/>
<path d="M310.039 336.505L309.633 335.248L310.979 334.813L311.385 336.07L310.039 336.505ZM309.198 333.902L308.792 332.546L310.128 332.111L310.573 333.457L309.198 333.902ZM308.327 331.22L307.881 329.874L309.227 329.438L309.663 330.784L308.327 331.22ZM307.446 328.528L307.01 327.182L308.356 326.746L308.792 328.092L307.446 328.528ZM306.575 325.836L306.14 324.5L307.486 324.054L307.921 325.4L306.575 325.836ZM305.704 323.154L305.269 321.808L306.605 321.372L307.04 322.718L305.704 323.154ZM304.823 320.462L304.388 319.116L305.734 318.68L306.169 320.026L304.823 320.462ZM303.952 317.77L303.517 316.433L304.863 315.998L305.298 317.334L303.952 317.77ZM303.081 315.087L302.646 313.741L303.992 313.306L304.427 314.652L303.081 315.087ZM302.21 312.395L301.775 311.049L303.111 310.614L303.546 311.96L302.21 312.395ZM301.329 309.713L300.894 308.367L302.24 307.932L302.675 309.268L301.329 309.713ZM300.458 307.021L300.023 305.675L301.369 305.24L301.805 306.586L300.458 307.021ZM299.588 304.329L299.152 302.983L300.498 302.548L300.934 303.894L299.588 304.329ZM298.717 301.647L298.271 300.301L299.617 299.866L300.053 301.202L298.717 301.647ZM297.836 298.955L297.4 297.609L298.746 297.173L299.182 298.519L297.836 298.955ZM296.965 296.263L296.529 294.917L297.875 294.481L298.311 295.827L296.965 296.263Z" fill="#3C3C3C"/>
<path d="M340.254 364.643L339.918 363.277L341.294 362.921L341.64 364.297L340.254 364.643ZM343.016 363.94L342.669 362.565L344.035 362.208L344.391 363.574L343.016 363.94ZM345.767 363.208L345.411 361.842L346.777 361.476L347.153 362.842L345.767 363.208ZM348.509 362.466L348.133 361.1L349.498 360.724L349.875 362.089L348.509 362.466ZM351.24 361.703L350.854 360.348L352.22 359.962L352.606 361.318L351.24 361.703ZM353.972 360.922L353.576 359.566L354.932 359.17L355.338 360.516L353.972 360.922ZM356.694 360.11L356.288 358.764L357.634 358.348L358.05 359.694L356.694 360.11ZM359.406 359.269L358.98 357.923L360.326 357.497L360.761 358.843L359.406 359.269ZM362.117 358.388L361.662 357.052L362.998 356.597L363.463 357.933L362.117 358.388ZM364.809 357.448L364.324 356.121L365.641 355.627L366.146 356.953L364.809 357.448ZM367.482 356.458L366.937 355.152C367.393 354.963 367.818 354.775 368.204 354.587L368.808 355.874C368.392 356.022 367.957 356.22 367.482 356.418V356.458ZM370.114 355.211L369.422 353.974C369.796 353.779 370.148 353.543 370.471 353.271L371.411 354.33C371.022 354.654 370.601 354.935 370.154 355.171L370.114 355.211ZM372.44 353.162L371.302 352.321C371.564 351.962 371.805 351.589 372.024 351.203L373.252 351.905C373.003 352.325 372.732 352.731 372.44 353.123V353.162ZM373.935 350.609L372.658 349.985C372.856 349.589 373.044 349.164 373.232 348.728L374.528 349.282C374.34 349.698 374.113 350.144 373.935 350.569V350.609ZM375.073 347.946L373.747 347.442C373.915 347.006 374.073 346.571 374.232 346.135L375.558 346.6C375.399 347.016 375.241 347.461 375.103 347.907L375.073 347.946ZM376.063 345.244L374.717 344.809C374.865 344.354 375.004 343.908 375.132 343.463L376.488 343.879C376.31 344.284 376.171 344.74 376.023 345.205L376.063 345.244ZM376.884 342.503L375.528 342.117L375.904 340.761L377.27 341.127C377.082 341.533 376.983 341.988 376.844 342.444L376.884 342.503ZM377.626 339.742L376.251 339.405C376.379 338.9 376.488 338.415 376.587 338.039L377.963 338.366C377.824 338.732 377.715 339.197 377.587 339.702L377.626 339.742ZM378.28 336.96L376.894 336.664L376.993 336.188L378.378 336.476L378.28 336.96Z" fill="#3C3C3C"/>
<path d="M481.934 434.487L481.301 433.854L481.914 433.438L481.331 433.834L481.934 433.468C482.069 433.603 482.145 433.786 482.145 433.977C482.145 434.168 482.069 434.352 481.934 434.487ZM480.836 434.368L480.776 434.269L481.301 433.854L481.43 433.982L480.836 434.368ZM479.945 433.062L479.133 431.884L480.301 431.092L481.103 432.26L479.945 433.062ZM478.342 430.706L477.54 429.539L478.708 428.747L479.509 429.915L478.342 430.706ZM476.748 428.361L475.956 427.183L477.124 426.391L477.916 427.569L476.748 428.361ZM475.165 426.005L474.373 424.827L475.541 424.046L476.332 425.223L475.165 426.005ZM473.581 423.65L472.799 422.472L473.977 421.69L474.759 422.868L473.581 423.65ZM472.007 421.294L471.225 420.116L472.403 419.335L473.185 420.512L472.007 421.294ZM470.444 418.929L469.672 417.751L470.849 416.969L471.631 418.147L470.444 418.929ZM468.89 416.563L468.118 415.376L469.296 414.604L470.077 415.791L468.89 416.563ZM467.336 414.188L466.564 413L467.752 412.228L468.524 413.416L467.336 414.188ZM465.802 411.813L465.03 410.625L466.218 409.853L466.989 411.041L465.802 411.813ZM464.268 409.427L463.506 408.23L464.693 407.478L465.455 408.665L464.268 409.427ZM462.744 407.032L461.982 405.835L463.179 405.083L463.931 406.28L462.744 407.032ZM461.21 404.677C460.962 404.271 460.715 403.865 460.457 403.469L461.665 402.727L462.407 403.915L461.21 404.677ZM459.715 402.262L458.973 401.054L460.17 400.322L460.913 401.52L459.715 402.262ZM458.24 399.847L457.508 398.639L458.715 397.907L459.448 399.115L458.24 399.847ZM456.776 397.422L456.043 396.195L457.261 395.482L457.983 396.69L456.776 397.422ZM455.331 394.977C455.083 394.562 454.846 394.146 454.618 393.74L455.845 393.038L456.548 394.265L455.331 394.977ZM453.915 392.513C453.678 392.088 453.44 391.672 453.222 391.266L454.45 390.583L455.143 391.81L453.915 392.513ZM452.54 390.019C452.302 389.593 452.084 389.168 451.867 388.762L453.114 388.109C453.331 388.505 453.549 388.92 453.777 389.346L452.54 390.019ZM451.213 387.485C450.986 387.04 450.778 386.614 450.58 386.199L451.857 385.595C452.055 386.001 452.253 386.416 452.48 386.852L451.213 387.485ZM449.986 384.892C449.778 384.407 449.59 383.952 449.442 383.536L450.758 383.041C450.907 383.437 451.085 383.863 451.283 384.328L449.986 384.892ZM448.996 382.111C448.891 381.734 448.835 381.345 448.828 380.953V380.547H449.531H450.234V380.894C450.241 381.181 450.28 381.467 450.352 381.745L448.996 382.111ZM450.273 379.142H448.858V377.727H450.273V379.142ZM448.878 376.301V374.896H450.323V376.282L448.878 376.301ZM448.878 373.491C448.878 372.501 448.878 372.115 448.878 372.105L450.293 372.026C450.293 372.026 450.293 372.442 450.293 373.461L448.878 373.491Z" fill="#3C3C3C"/>
<path d="M317.997 434.487L317.888 434.368L318.927 433.379L319.046 433.507L317.997 434.487ZM316.928 433.329L315.938 432.28L316.977 431.29L317.967 432.329L316.928 433.329ZM315.008 431.241L314.018 430.202L315.057 429.212L316.047 430.251L315.008 431.241ZM313.098 429.162L312.108 428.123L313.147 427.133L314.137 428.173L313.098 429.162ZM311.178 427.084L310.188 426.094L311.227 425.104L312.217 426.154L311.178 427.084ZM311.692 424.342L310.307 424.045L310.604 422.67L311.989 422.957L311.692 424.342ZM175.002 422.838L174.379 421.561L175.655 420.948L176.269 422.214L175.002 422.838ZM173.132 422.096L172.32 420.928L173.478 420.126L174.29 421.284L173.132 422.096ZM177.546 421.601L176.922 420.334L178.199 419.71L178.813 420.987L177.546 421.601ZM312.286 421.601L310.901 421.304L311.198 419.918L312.583 420.215L312.286 421.601ZM180.129 420.364L179.505 419.097L180.782 418.483L181.396 419.75L180.129 420.364ZM171.548 419.77L170.736 418.612L171.894 417.8L172.706 418.958L171.548 419.77ZM182.672 419.136L182.059 417.86L183.326 417.246L183.939 418.523L182.672 419.136ZM312.91 418.82L311.534 418.523L311.831 417.137L313.207 417.434L312.91 418.82ZM185.236 417.899L184.622 416.632L185.889 416.019L186.503 417.286L185.236 417.899ZM169.945 417.444L169.133 416.286L170.291 415.474L171.103 416.642L169.945 417.444ZM187.76 416.672L187.146 415.395L188.413 414.782L189.026 416.058L187.76 416.672ZM313.504 416.049L312.128 415.752L312.207 415.385L312.316 414.9H312.464L312.623 414.633L312.504 414.514L314.196 412.822L313.504 416.049ZM190.303 415.435L189.69 414.168L190.956 413.545L191.58 414.821L190.303 415.435ZM168.252 415.128L167.441 413.96L168.599 413.149L169.41 414.316L168.252 415.128ZM310.93 414.693L309.693 414L310.396 412.763L311.633 413.465L310.93 414.693ZM192.807 414.227L192.194 412.951L193.46 412.337L194.084 413.604L192.807 414.227ZM308.456 413.307L307.229 412.614L307.912 411.377L309.149 412.07L308.456 413.307ZM195.351 412.99L194.737 411.723L196.004 411.1L196.628 412.377L195.351 412.99ZM166.649 412.822L165.827 411.664L166.985 410.852L167.797 412.01L166.649 412.822ZM306.002 411.921L304.764 411.238L305.447 410.001L306.684 410.684L306.002 411.921ZM197.944 411.723L197.33 410.457L198.597 409.843L199.221 411.11L197.944 411.723ZM303.567 410.526L302.32 409.853L302.993 408.616L304.24 409.289L303.567 410.526ZM200.487 410.526L199.874 409.249L201.141 408.635L201.764 409.912L200.487 410.526ZM165.055 410.526L164.264 409.398L165.402 408.556L166.213 409.714L165.055 410.526ZM203.031 409.309L202.417 408.042L203.684 407.428L204.308 408.695L203.031 409.309ZM301.073 409.229L299.836 408.556L300.499 407.309L301.756 407.982L301.073 409.229ZM163.432 408.24L162.611 407.082L163.769 406.27L164.58 407.418L163.432 408.24ZM205.575 408.111L204.872 406.775L206.139 406.161L206.762 407.438L205.575 408.111ZM298.608 407.923L297.361 407.25L298.024 406.003L299.271 406.676L298.608 407.923ZM208.069 406.775L207.455 405.508L208.722 404.884L209.345 406.161L208.069 406.775ZM132.622 406.597L132.276 405.231L133.652 404.884L133.988 406.26L132.622 406.597ZM296.025 406.527L294.768 405.864L295.431 404.617L296.678 405.27L296.025 406.527ZM135.364 405.914L135.017 404.538L136.393 404.202L136.73 405.567L135.364 405.914ZM161.72 405.854L160.899 404.706L162.057 403.885L162.878 405.033L161.72 405.854ZM210.592 405.577L209.979 404.301L211.246 403.687L211.869 404.954L210.592 405.577ZM130.989 405.29L130.198 404.112L131.365 403.321L132.167 404.508L130.989 405.29ZM138.105 405.221L137.759 403.855L139.135 403.509L139.481 404.884L138.105 405.221ZM293.491 405.221L292.234 404.568L292.878 403.311L294.145 403.964L293.491 405.221ZM140.817 404.548L140.471 403.182L141.847 402.836L142.193 404.202L140.817 404.548ZM213.067 404.35L212.453 403.083L213.72 402.46L214.344 403.736L213.067 404.35ZM290.938 403.924L289.681 403.281L290.324 402.024L291.581 402.667L290.938 403.924ZM143.47 403.865L143.123 402.489L144.499 402.143L144.845 403.519L143.47 403.865ZM159.958 403.578L159.879 403.459C159.66 403.155 159.408 402.876 159.127 402.628L160.057 401.569C160.423 401.887 160.755 402.242 161.047 402.628L161.116 402.727L159.958 403.578ZM146.211 403.172L145.875 401.806L147.241 401.46L147.587 402.836L146.211 403.172ZM215.561 403.123L214.947 401.846L216.214 401.232L216.838 402.499L215.561 403.123ZM129.287 402.935L128.495 401.757L129.663 400.975L130.455 402.153L129.287 402.935ZM288.365 402.648L287.108 402.014L287.741 400.747L289.008 401.381L288.365 402.648ZM148.953 402.489L148.616 401.114L149.982 400.777L150.328 402.143L148.953 402.489ZM158.098 401.935C157.724 401.75 157.333 401.604 156.93 401.5L157.286 400.124C157.792 400.259 158.282 400.445 158.751 400.678L158.098 401.935ZM218.104 401.886L217.491 400.609L218.768 399.995L219.381 401.272L218.104 401.886ZM151.694 401.806L151.358 400.431L151.981 400.272C151.981 400.272 152.288 400.183 152.763 400.084L153.04 401.47C152.634 401.549 152.387 401.628 152.367 401.628L151.694 401.806ZM286.029 401.371L284.762 400.747L285.376 399.481L286.652 400.104L286.029 401.371ZM154.535 401.282L154.396 399.847H155.168C155.406 399.847 155.663 399.847 155.91 399.847L155.802 401.262C155.584 401.247 155.366 401.247 155.148 401.262C154.917 401.255 154.696 401.262 154.485 401.282H154.535ZM220.846 400.639L220.232 399.372L221.509 398.758L222.123 400.025L220.846 400.639ZM127.891 400.579L127.11 399.401L128.277 398.61L129.069 399.787L127.891 400.579ZM283.495 400.134L282.228 399.52L282.842 398.243L284.05 398.857L283.495 400.134ZM223.39 399.411L222.776 398.135L224.053 397.521L224.666 398.798L223.39 399.411ZM280.952 398.916L279.675 398.323L280.269 397.036L281.555 397.64L280.952 398.916ZM126.318 398.224L125.526 397.046L126.694 396.264L127.486 397.432L126.318 398.224ZM225.933 398.174L225.26 396.878L226.507 396.274L226.844 396.897L227.121 397.541L225.933 398.174ZM278.388 397.729L277.102 397.145L277.676 395.858L278.972 396.442L278.388 397.729ZM228.467 397.056L227.952 395.739L229.288 395.235L229.773 396.561C229.219 396.739 228.784 396.878 228.417 397.056H228.467ZM275.815 396.571L274.519 396.017L275.073 394.71L276.379 395.284L275.815 396.571ZM231.099 396.086L230.634 394.75L231.98 394.285L232.426 395.631C231.911 395.779 231.466 395.937 231.05 396.086H231.099ZM124.705 395.888L123.913 394.71L125.091 393.918L125.882 395.096L124.705 395.888ZM273.163 395.462L271.876 394.898L272.401 393.582L273.717 394.126L273.163 395.462ZM233.702 395.195L233.277 393.839L234.633 393.423L235.048 394.77L233.702 395.195ZM270.56 394.403L269.243 393.899L269.738 392.572L271.074 393.087L270.56 394.403ZM236.395 394.403L236.008 393.047L237.374 392.661L237.75 394.027L236.395 394.403ZM239.106 393.671L238.76 392.305L240.136 391.959L240.472 393.334L239.106 393.671ZM123.072 393.562L122.29 392.384L123.458 391.593L124.249 392.77L123.072 393.562ZM267.927 393.443L266.601 392.978L267.056 391.642L268.402 392.107L267.927 393.443ZM241.838 393.018L241.531 391.642L242.927 391.345L243.204 392.731L241.838 393.018ZM265.284 392.572C264.849 392.444 264.404 392.335 263.948 392.226L264.265 390.85C264.74 390.959 265.255 391.078 265.67 391.206L265.284 392.572ZM244.579 392.463L244.322 391.068L245.737 390.821L245.965 392.216L244.579 392.463ZM247.351 391.998L247.143 390.603L248.558 390.415L248.736 391.81L247.351 391.998ZM262.602 391.949C262.147 391.86 261.692 391.79 261.236 391.721L261.425 390.326C261.909 390.395 262.414 390.464 262.85 390.553L262.602 391.949ZM250.122 391.652L249.973 390.246L251.399 390.118L251.508 391.523L250.122 391.652ZM259.851 391.563C259.396 391.513 258.93 391.474 258.475 391.444L258.564 390.039C259.039 390.039 259.554 390.108 259.999 390.157L259.851 391.563ZM252.923 391.434L252.844 390.019L254.279 389.959V391.375C253.837 391.368 253.381 391.378 252.913 391.404L252.923 391.434ZM257.099 391.375H255.714V389.95H257.149L257.099 391.375ZM121.508 391.206L120.716 390.039L121.884 389.247L122.676 390.415L121.508 391.206ZM119.924 388.861L119.123 387.693L120.3 386.901L121.092 388.069L119.924 388.861ZM118.341 386.515L117.539 385.347L118.717 384.556L119.509 385.733L118.341 386.515ZM116.787 384.14L115.995 382.972L117.173 382.18L117.965 383.348L116.787 384.14ZM115.203 381.804L114.411 380.626L115.589 379.835L116.381 381.012L115.203 381.804ZM113.62 379.459L112.828 378.281L113.996 377.489L114.797 378.667L113.62 379.459ZM112.036 377.113L111.244 375.935L112.412 375.143L113.204 376.321L112.036 377.113ZM110.453 374.767L109.681 373.629L110.245 373.203L110.829 372.808L110.245 373.203L110.848 372.837L111.62 373.975L110.453 374.767ZM108.869 372.422L108.077 371.254L109.245 370.462L110.037 371.63L108.869 372.422ZM107.285 370.086L106.484 368.908L107.662 368.116L108.453 369.284L107.285 370.086ZM105.692 367.74L104.9 366.572L106.068 365.771L106.83 366.899L105.692 367.74ZM104.108 365.395L103.317 364.227L104.485 363.435L105.276 364.603L104.108 365.395ZM102.525 363.059L101.723 361.881L102.901 361.089L103.693 362.257L102.525 363.059ZM100.931 360.713L100.14 359.545L101.308 358.754L102.099 359.921L100.931 360.713ZM99.3479 358.368L98.5562 357.2L99.724 356.408L100.516 357.576L99.3479 358.368ZM97.7545 356.032L96.9627 354.864L98.1306 354.072L98.9224 355.24L97.7545 356.032ZM96.1709 353.696L95.3792 352.518L96.547 351.727L97.3388 352.894L96.1709 353.696ZM94.5379 351.35L93.7461 350.183L94.914 349.391L95.7058 350.559L94.5379 351.35ZM92.9543 349.015L92.1527 347.837L93.3205 347.045L94.1222 348.213L92.9543 349.015ZM91.3609 346.669L90.5691 345.501L91.737 344.709L92.5288 345.877L91.3609 346.669ZM89.7674 344.333L88.9757 343.165L90.1435 342.364L90.9353 343.542L89.7674 344.333ZM88.174 341.998L87.3822 340.83L88.5501 340.028L89.3419 341.196L88.174 341.998ZM86.5806 339.652L85.7888 338.484L86.9566 337.692L87.7583 338.86L86.5806 339.652ZM84.997 337.316L84.1953 336.148L85.3632 335.357L86.1649 336.524L84.997 337.316ZM83.4035 334.98L82.6019 333.813L83.7697 333.021L84.5714 334.189L83.4035 334.98ZM81.8101 332.645L81.0084 331.477L82.1763 330.685L82.978 331.853L81.8101 332.645ZM80.1672 330.309L79.3754 329.131L80.5433 328.339L81.335 329.507L80.1672 330.309ZM78.5737 327.963L77.772 326.795L78.9399 326.004L79.7416 327.162L78.5737 327.963ZM77.0199 325.618L76.2083 324.47L77.3762 323.668L78.1778 324.836L77.0199 325.618ZM75.4264 323.292L74.6346 322.124L75.7926 321.332L76.5943 322.5L75.4264 323.292ZM73.833 320.966L73.0313 319.798L74.1992 319.006L75.0008 320.174L73.833 320.966ZM72.2494 318.69L71.4576 317.522L72.6156 316.72L73.4173 317.888L72.2494 318.69ZM70.6559 316.354L69.8543 315.186L71.0221 314.384L71.8238 315.552L70.6559 316.354ZM69.0526 314.018L68.2509 312.85L69.4188 312.049L70.2205 313.217L69.0526 314.018ZM67.4493 311.692L66.6575 310.524L67.8155 309.723L68.6171 310.891L67.4493 311.692ZM65.8558 309.357L65.0541 308.189L66.2121 307.387L67.0138 308.555L65.8558 309.357ZM64.2525 307.031L63.431 305.823L64.589 305.022L65.3906 306.18L64.2525 307.031ZM62.6392 304.695L61.8375 303.527L63.0054 302.725L63.8071 303.893L62.6392 304.695ZM61.0359 302.369L60.2342 301.201L61.4021 300.4L62.2037 301.568L61.0359 302.369ZM59.383 299.994L58.5814 298.826L59.7393 298.024L60.541 299.192L59.383 299.994ZM57.7698 297.668L56.9681 296.5L58.1261 295.698L58.9377 296.856L57.7698 297.668ZM56.1664 295.342L55.4242 294.174L56.5821 293.373L57.3937 294.531L56.1664 295.342ZM54.5532 293.016L53.7416 291.848L54.8996 291.047L55.7112 292.205L54.5532 293.016ZM52.94 290.69L52.1284 289.532L53.2864 288.721L54.0979 289.879L52.94 290.69ZM51.3168 288.375L50.5052 287.207L51.6731 286.405L52.4748 287.563L51.3168 288.375ZM49.7333 286.029L48.9217 284.871L50.0797 284.049L50.8912 285.207L49.7333 286.029ZM48.1101 283.713L47.2986 282.555L48.4466 281.743L49.2681 282.901L48.1101 283.713ZM46.5167 281.417L45.7051 280.259L46.8631 279.447L47.6746 280.605L46.5167 281.417ZM44.8539 279.101L44.0325 277.943L45.1905 277.121L46.002 278.279L44.8539 279.101ZM43.211 276.785L42.3895 275.637L43.5475 274.815L44.369 275.973L43.211 276.785ZM41.5681 274.499L40.7466 273.341L41.8947 272.519L42.726 273.677L41.5681 274.499ZM39.9251 272.173L39.0938 271.025L40.2419 270.203L41.0732 271.351L39.9251 272.173ZM38.2624 269.887L37.431 268.748L38.5692 267.907L39.4105 269.055L38.2624 269.887ZM36.6195 267.63L35.7683 266.492L36.8966 265.641L37.7478 266.779L36.6195 267.63ZM34.9172 265.363C34.6103 264.958 34.3134 264.592 34.0561 264.255L35.1646 263.374C35.4318 263.721 35.7287 264.097 36.0355 264.512L34.9172 265.363ZM33.1653 263.166C32.9161 262.848 32.6378 262.553 32.334 262.285L33.0862 261.088C33.5153 261.43 33.895 261.829 34.2145 262.276L33.1653 263.166Z" fill="#3C3C3C"/>
<path d="M339.02 421.878L337.882 421.017L338.733 419.889L339.871 420.75L339.02 421.878ZM336.744 420.166L335.615 419.315L336.466 418.176L337.595 419.037L336.744 420.166ZM334.527 418.463L333.398 417.612L334.24 416.474L335.378 417.325L334.527 418.463ZM332.26 416.761L331.132 415.91L331.973 414.782L333.111 415.623L332.26 416.761ZM329.994 415.069L328.856 414.217L329.707 413.089L330.835 413.93L329.994 415.069ZM327.727 413.376L326.589 412.525L327.43 411.397L328.569 412.238L327.727 413.376ZM325.451 411.684L324.313 410.843L325.154 409.704L326.292 410.556L325.451 411.684ZM323.175 410.001L322.036 409.16L322.878 408.022L324.016 408.863L323.175 410.001ZM320.898 408.319L319.76 407.487L320.591 406.349L321.739 407.181L320.898 408.319ZM318.622 406.646L317.474 405.815L318.315 404.677L319.453 405.508L318.622 406.646ZM316.336 404.973L315.197 404.142L316.029 403.004L317.167 403.835L316.336 404.973ZM314.049 403.311L312.901 402.479L313.733 401.331L314.881 402.163L314.049 403.311ZM311.763 401.648L310.615 400.817L311.436 399.678L312.585 400.5L311.763 401.648ZM309.467 399.995L308.319 399.164L309.14 398.016L310.298 398.847L309.467 399.995ZM307.161 398.342L306.013 397.521L306.834 396.363L307.992 397.194L307.161 398.342ZM304.835 396.699L303.687 395.878L304.499 394.73L305.656 395.541L304.835 396.699ZM302.529 395.066L301.371 394.245L302.192 393.087L303.35 393.908L302.529 395.066ZM300.223 393.433L299.055 392.622L299.867 391.464L301.035 392.275L300.223 393.433ZM297.907 391.81L296.749 391.009L297.551 389.841L298.719 390.652L297.907 391.81ZM295.581 390.207L294.423 389.405L295.215 388.237L296.393 389.039L295.581 390.207ZM293.255 388.604L292.087 387.812L292.879 386.644L294.047 387.436L293.255 388.604ZM290.91 387.03L289.732 386.238L290.514 385.06L291.701 385.852L290.91 387.03ZM180.368 387.03C180.057 387.012 179.759 386.898 179.517 386.703L180.249 385.634C180.177 385.653 180.109 385.687 180.051 385.733C180.12 385.677 180.197 385.63 180.279 385.595V385.535C180.495 385.448 180.716 385.375 180.942 385.318L181.328 386.674C181.151 386.706 180.981 386.766 180.823 386.852C180.673 386.958 180.493 387.014 180.308 387.01L180.368 387.03ZM182.733 386.367L182.436 384.991L183.842 384.704L184.109 386.09L182.733 386.367ZM185.495 385.832L185.247 384.437L186.653 384.189L186.89 385.585L185.495 385.832ZM178.359 385.684C178.052 385.387 177.715 385.04 177.369 384.635L178.418 383.645C178.768 384.028 179.098 384.358 179.408 384.635L178.359 385.684ZM288.554 385.506L287.376 384.724L288.148 383.546L289.336 384.318L288.554 385.506ZM188.286 385.347L188.048 383.912L189.453 383.685L189.671 385.08L188.286 385.347ZM191.067 384.892L190.849 383.497L192.254 383.279L192.472 384.674L191.067 384.892ZM193.868 384.466L193.65 383.061L195.055 382.853L195.263 384.249L193.868 384.466ZM196.659 384.051L196.461 382.645L197.856 382.447L198.064 383.843L196.659 384.051ZM286.189 383.962L285.001 383.2L285.753 382.012L286.951 382.774L286.189 383.962ZM199.46 383.645L199.262 382.249L200.667 382.052L200.855 383.447L199.46 383.645ZM176.399 383.556L175.469 382.477L176.548 381.557C176.864 381.943 177.171 382.299 177.468 382.635L176.399 383.556ZM202.26 383.249L202.062 381.854L203.468 381.666L203.666 383.061L202.26 383.249ZM205.061 382.873L204.873 381.438L206.279 381.25L206.467 382.645L205.061 382.873ZM207.862 382.507L207.684 381.101L209.09 380.923L209.268 382.319L207.862 382.507ZM283.803 382.457L282.606 381.715L283.338 380.508L284.556 381.25L283.803 382.457ZM210.673 382.141L210.485 380.745L211.89 380.567L212.069 381.962L210.673 382.141ZM213.474 381.794L213.296 380.389L214.701 380.211L214.879 381.616L213.474 381.794ZM216.285 381.448L216.107 380.042L217.512 379.874L217.68 381.28L216.285 381.448ZM174.558 381.379L173.658 380.28L174.756 379.389L175.647 380.478L174.558 381.379ZM219.096 381.111L218.927 379.706L220.343 379.548L220.501 380.943L219.096 381.111ZM281.448 380.993L280.231 380.29L280.923 379.053L282.161 379.775L281.448 380.993ZM221.946 380.785L221.788 379.379L223.183 379.221L223.341 380.626L221.946 380.785ZM224.747 380.468L224.589 379.063L225.994 378.904L226.152 380.31L224.747 380.468ZM227.558 380.161L227.409 378.756L228.815 378.607L228.963 380.013L227.558 380.161ZM230.378 379.864L230.23 378.459L231.635 378.31L231.784 379.716L230.378 379.864ZM279.003 379.607C278.568 379.369 278.152 379.162 277.766 378.974L278.39 377.707C278.786 377.895 279.211 378.122 279.676 378.36L279.003 379.607ZM233.189 379.607L233.041 378.202L234.456 378.053L234.595 379.468L233.189 379.607ZM236 379.33L235.861 377.915L237.277 377.786L237.405 379.191L236 379.33ZM172.806 379.201L171.926 378.093L173.034 377.212L173.915 378.32L172.806 379.201ZM238.811 379.063L238.682 377.657L240.097 377.529L240.216 378.934L238.811 379.063ZM241.632 378.805L241.503 377.4L242.918 377.281L243.037 378.686L241.632 378.805ZM244.442 378.568L244.324 377.162L245.739 377.044L245.848 378.449L244.442 378.568ZM276.519 378.439L276.39 378.39C276.029 378.254 275.659 378.145 275.282 378.063L275.589 376.687C276.034 376.778 276.472 376.908 276.895 377.073L277.044 377.133L276.519 378.439ZM247.263 378.34L247.154 376.935L248.569 376.826L248.668 378.231L247.263 378.34ZM250.074 378.132L249.975 376.727L251.39 376.628L251.489 378.033L250.074 378.132ZM252.895 377.944L252.805 376.529L254.221 376.45L254.31 377.855L252.895 377.944ZM273.946 377.825C273.52 377.766 273.055 377.717 272.57 377.677L272.699 376.262C273.213 376.262 273.689 376.371 274.134 376.43L273.946 377.825ZM255.715 377.776L255.636 376.361L257.051 376.291L257.121 377.697L255.715 377.776ZM258.536 377.637L258.467 376.222L259.892 376.163L259.941 377.578L258.536 377.637ZM271.185 377.568L269.789 377.499L269.839 376.084L271.185 376.093V377.568ZM261.357 377.568L261.307 376.153H262.722V377.568H261.357ZM268.384 377.499H266.978V376.084H268.403L268.384 377.499ZM264.167 377.499V376.084H265.593V377.499H264.167ZM171.045 377.014L170.174 375.895L171.292 375.025C171.579 375.411 171.876 375.777 172.163 376.143L171.045 377.014ZM169.243 374.668L168.382 373.55L169.501 372.679L170.362 373.807L169.243 374.668ZM167.511 372.422L166.66 371.293L167.779 370.432L168.64 371.561L167.511 372.422ZM165.779 370.155L164.928 369.027L166.056 368.176L166.908 369.304L165.779 370.155ZM164.067 367.899L163.216 366.76L164.354 365.909L165.195 367.047L164.067 367.899ZM162.375 365.632L161.524 364.494L162.662 363.653L163.503 364.781L162.375 365.632ZM160.682 363.356L159.831 362.218L160.969 361.376L161.811 362.514L160.682 363.356ZM158.99 361.079L158.149 359.941L159.287 359.1L160.128 360.238L158.99 361.079ZM157.307 358.803L156.466 357.665L157.604 356.824L158.446 357.972L157.307 358.803ZM155.635 356.527L154.793 355.388L155.932 354.547L156.773 355.685L155.635 356.527ZM153.962 354.24L153.121 353.102L154.269 352.261L155.1 353.409L153.962 354.24ZM152.289 351.954L151.448 350.806L152.596 349.975L153.428 351.123L152.289 351.954ZM150.617 349.658L149.785 348.51L150.924 347.688L151.755 348.827L150.617 349.658ZM148.954 347.392L148.123 346.243L149.271 345.412L150.102 346.56L148.954 347.392ZM147.291 345.095L146.47 343.947L147.608 343.126L148.439 344.274L147.291 345.095ZM145.639 342.799L144.807 341.651L145.955 340.83L146.787 341.978L145.639 342.799ZM143.986 340.463L143.154 339.315L144.302 338.494L145.134 339.642L143.986 340.463ZM142.333 338.167L141.502 337.019L142.65 336.188L143.481 337.346L142.333 338.167ZM140.68 335.861L139.859 334.713L141.007 333.892L141.828 335.04L140.68 335.861ZM139.037 333.565L138.216 332.407L139.364 331.586L140.185 332.744L139.037 333.565ZM137.384 331.259L136.563 330.101L137.721 329.28L138.542 330.438L137.384 331.259ZM135.751 328.953L134.93 327.795L136.078 326.974L136.899 328.132L135.751 328.953ZM134.108 326.637L133.287 325.479L134.445 324.668L135.256 325.825L134.108 326.637ZM132.465 324.331L131.654 323.173L132.802 322.352L133.623 323.51L132.465 324.331ZM130.832 322.015L130.021 320.847L131.169 320.036L131.99 321.194L130.832 322.015ZM129.199 319.679L128.388 318.511L129.546 317.71L130.357 318.868L129.199 319.679ZM127.576 317.344C127.23 316.859 126.963 316.463 126.755 316.166L127.923 315.374L128.734 316.542L127.576 317.344ZM125.973 314.948C125.745 314.572 125.498 314.167 125.24 313.711L126.458 313.009L127.17 314.206L125.973 314.948ZM124.528 312.474L123.845 311.217L125.092 310.544C125.32 310.98 125.547 311.385 125.765 311.781L124.528 312.474ZM123.172 309.97C122.954 309.554 122.736 309.139 122.519 308.703L123.776 308.06L124.429 309.307L123.172 309.97ZM121.865 307.436L121.232 306.17L122.499 305.536L123.132 306.803L121.865 307.436ZM120.609 304.893L119.985 303.606L121.262 303.003C121.47 303.428 121.668 303.854 121.875 304.269L120.609 304.893ZM119.381 302.32L118.787 301.033L120.074 300.449C120.265 300.871 120.463 301.297 120.668 301.726L119.381 302.32ZM118.204 299.736C118.006 299.294 117.818 298.859 117.639 298.43L118.936 297.876C119.114 298.301 119.302 298.727 119.5 299.162L118.204 299.736ZM117.085 297.114C116.897 296.658 116.719 296.213 116.551 295.787L117.877 295.273C118.035 295.688 118.213 296.124 118.392 296.569L117.085 297.114ZM116.095 294.441C115.917 293.956 115.759 293.452 115.63 293.076L116.976 292.65C117.105 293.056 117.253 293.501 117.422 293.966L116.095 294.441ZM115.234 291.65C115.114 291.171 115.047 290.68 115.036 290.186V290.077H116.452V290.146C116.468 290.533 116.525 290.918 116.62 291.294L115.234 291.65ZM116.788 288.998L115.403 288.711C115.472 288.374 115.541 287.919 115.62 287.355L117.026 287.553C116.956 288.097 116.877 288.582 116.788 288.998ZM117.204 286.128L115.798 285.96C115.798 285.524 115.907 285.059 115.957 284.554L117.362 284.703C117.333 285.168 117.273 285.643 117.224 286.078L117.204 286.128ZM117.511 283.287L116.105 283.149C116.105 282.703 116.194 282.228 116.244 281.743L117.649 281.872C117.62 282.317 117.57 282.792 117.531 283.238L117.511 283.287ZM117.778 280.467L116.373 280.338L116.491 278.923L117.907 279.051L117.778 280.467ZM118.025 277.636L116.62 277.517L116.729 276.102L118.144 276.221L118.025 277.636ZM118.253 274.805L116.848 274.696L116.956 273.291L118.372 273.4L118.253 274.805ZM118.481 271.985L117.065 271.876L117.174 270.47L118.59 270.569L118.481 271.985ZM118.688 269.154L117.283 269.055L117.392 267.64L118.797 267.749L118.688 269.154ZM118.896 266.333L117.491 266.234L117.59 264.819L119.005 264.918L118.896 266.333ZM119.104 263.513L117.689 263.414L117.798 261.998L119.203 262.097L119.104 263.513ZM119.302 260.692L117.897 260.593L117.986 259.178L119.401 259.277L119.302 260.692ZM119.5 257.861L118.085 257.762L118.184 256.357L119.589 256.456L119.5 257.861ZM119.688 255.041L118.283 254.942L118.372 253.536L119.787 253.625L119.688 255.041ZM119.876 252.21L118.471 252.121L118.56 250.706L119.975 250.805L119.876 252.21ZM120.064 249.389L118.649 249.3L118.748 247.885L120.153 247.974L120.064 249.389ZM120.252 246.569L118.837 246.48L118.926 245.064L120.341 245.153L120.252 246.569ZM120.43 243.738L119.015 243.649L119.114 242.244L120.519 242.333L120.43 243.738ZM120.609 240.917L119.203 240.828L119.292 239.413L120.698 239.502L120.609 240.917ZM120.787 238.087L119.381 237.998L119.47 236.582L120.876 236.671L120.787 238.087ZM120.965 235.256L119.559 235.177L119.649 233.762L121.054 233.851L120.965 235.256ZM121.143 232.445L119.728 232.356L119.817 230.941L121.232 231.03L121.143 232.445ZM121.311 229.615L119.906 229.526L119.995 228.12L121.4 228.209L121.311 229.615ZM121.489 226.794L120.074 226.705L120.163 225.3L121.578 225.379L121.489 226.794ZM121.658 223.963L120.252 223.884L120.341 222.469L121.747 222.558L121.658 223.963ZM121.836 221.143L120.42 221.054L120.51 219.648L121.915 219.727L121.836 221.143ZM122.004 218.312L120.589 218.233L120.747 216.748L122.152 216.837L122.004 218.312ZM122.172 215.491L120.747 215.363L120.836 213.947L122.242 214.027L122.172 215.491ZM122.341 212.671L120.925 212.582L121.014 211.166L122.42 211.255L122.341 212.671ZM122.509 209.84L121.093 209.761L121.183 208.346L122.588 208.425L122.509 209.84ZM122.677 207.009L121.262 206.93L121.351 205.515L122.756 205.604L122.677 207.009ZM122.835 204.189L121.43 204.1L121.509 202.694L122.924 202.773L122.835 204.189ZM123.004 201.358L121.598 201.279L121.677 199.864L123.093 199.943L123.004 201.358ZM123.172 198.528L121.757 198.448L121.846 197.033L123.251 197.112L123.172 198.528ZM123.34 195.707L121.925 195.618L122.014 194.202L123.419 194.282L123.34 195.707ZM123.508 192.866L122.093 192.787L122.182 191.362L123.588 191.451L123.508 192.866ZM123.677 190.016L122.261 189.947C122.261 189.828 122.261 189.699 122.261 189.571C122.261 189.269 122.241 188.969 122.202 188.67L123.607 188.482C123.655 188.843 123.679 189.207 123.677 189.571C123.716 189.67 123.716 189.818 123.716 189.966L123.677 190.016ZM121.925 187.433C121.79 187.023 121.622 186.626 121.42 186.245L122.667 185.582C122.906 186.034 123.108 186.504 123.271 186.987L121.925 187.433ZM120.747 185.077C120.486 184.731 120.205 184.401 119.906 184.088L120.955 183.098C121.308 183.46 121.639 183.843 121.945 184.246L120.747 185.077ZM118.956 183.098C118.626 182.801 118.296 182.504 117.966 182.207L118.768 181.118C119.154 181.435 119.53 181.752 119.876 182.108L118.956 183.098ZM116.788 181.376C116.422 181.118 116.036 180.861 115.64 180.604L116.412 179.416C116.828 179.683 117.224 179.951 117.61 180.228L116.788 181.376ZM114.462 179.861L113.265 179.169L113.948 177.931L115.195 178.654L114.462 179.861ZM112.028 178.496C111.632 178.288 111.216 178.07 110.791 177.862L111.424 176.595L112.691 177.249L112.028 178.496ZM109.534 177.239L108.257 176.645L108.861 175.358L110.137 175.962L109.534 177.239ZM106.98 176.061L105.693 175.487L106.267 174.19L107.564 174.764L106.98 176.061ZM104.407 174.923L103.11 174.368L103.655 173.072L104.961 173.626L104.407 174.923ZM101.804 173.824L100.497 173.29L101.042 171.983L102.348 172.528L101.804 173.824ZM99.191 172.745L97.9241 172.211L98.4586 170.904L99.765 171.439L99.191 172.745ZM96.5781 171.676L95.2717 171.142L95.8062 169.836L97.1126 170.37L96.5781 171.676ZM94.0247 170.598L92.7182 170.043L93.2626 168.747L94.569 169.291L94.0247 170.598ZM28.9605 170.063L28.7031 168.668L30.1085 168.41L30.3659 169.806L28.9605 170.063ZM31.7416 169.558L31.504 168.163L32.8995 167.925L33.1371 169.321L31.7416 169.558ZM91.4118 169.499L90.0658 168.935L90.6299 167.638L91.9264 168.193L91.4118 169.499ZM34.5326 169.093L34.3049 167.698L35.7004 167.47L35.9281 168.866L34.5326 169.093ZM37.3236 168.648L37.0762 167.262L38.4816 167.054L38.6894 168.45L37.3236 168.648ZM88.789 168.381C88.3865 168.216 87.961 168.057 87.5123 167.906L87.9676 166.56C88.4327 166.718 88.8979 166.896 89.3334 167.074L88.789 168.381ZM40.0849 168.252L39.887 166.847L41.2825 166.649L41.4804 168.054L40.0849 168.252ZM42.8759 167.856L42.6978 166.461L44.0933 166.273L44.2813 167.678L42.8759 167.856ZM86.196 167.5L84.8598 167.163L85.1766 165.788C85.6615 165.896 86.1663 166.015 86.582 166.144L86.196 167.5ZM45.6768 167.5L45.5284 166.085L46.9338 165.916L47.102 167.322L45.6768 167.5ZM48.4777 167.163L48.3194 165.758L49.7347 165.6L49.8831 167.005L48.4777 167.163ZM83.5039 166.866C83.0487 166.787 82.5934 166.698 82.1282 166.629L82.3559 165.233L83.7712 165.481L83.5039 166.866ZM51.2885 166.866L51.1401 165.461L52.5554 165.283L52.6939 166.688L51.2885 166.866ZM54.0993 166.599L53.9707 165.184L55.3761 165.065L55.4948 166.47L54.0993 166.599ZM80.7525 166.431L79.3669 166.263L79.5154 164.857C80.0003 164.917 80.5051 164.966 80.9406 165.035L80.7525 166.431ZM56.9003 166.352L56.7914 164.946L58.2067 164.837L58.3057 166.253L56.9003 166.352ZM59.7111 166.154L59.622 164.738L61.0373 164.649L61.1165 166.065L59.7111 166.154ZM77.9714 166.154L76.5759 166.045L76.6749 164.64L78.1001 164.748L77.9714 166.154ZM62.5219 166.015L62.4526 164.61L63.8778 164.541L63.9372 165.956L62.5219 166.015ZM75.22 165.916L73.8146 165.847V164.442C74.2962 164.442 74.7713 164.461 75.2398 164.501L75.22 165.916ZM65.3228 165.857V164.442H66.748V165.857H65.3228ZM72.3498 165.807H70.9543V164.392H72.3795L72.3498 165.807ZM68.1336 165.807V164.392H69.5489V165.807H68.1336Z" fill="#3C3C3C"/>
<mask id="path-10-inside-1_1789_351" fill="white">
<path d="M717.834 233.752C722.694 231.278 726.435 229.318 728.939 227.913C732.71 225.795 734.986 224.528 734.986 221.628H726.504C726.501 221.086 726.609 220.548 726.822 220.049C727.034 219.551 727.347 219.101 727.741 218.728C724.416 221.4 693.21 236.741 648.465 258.129L595.178 149.259L691.349 103.554L729.76 180.752L737.361 176.982L699.01 99.9615L732.561 84.017L728.929 76.3566L695.279 92.3703L685.272 72.2988L677.681 76.0795L687.578 95.9828L591.457 141.668L556.045 69.3296L548.424 73.0608L640.814 261.781C583.212 289.265 505.826 325.618 436.467 357.903C426.441 359.585 410.625 360.783 405.785 358.249C401.223 355.824 395.492 343.878 392.672 335.713L407.923 71.4575L399.461 70.9725L391.682 205.763L250.864 194.232C255.477 138.561 260.653 75.7727 260.653 74.2287H254.714L252.141 74.1297C252.082 75.5549 250.508 94.9139 248.281 122.082C206.03 118.529 141.609 112.62 131.653 110.433C131.391 109.677 131.286 108.875 131.346 108.077L134.8 74.6642L126.358 73.7932L122.923 107.068C122.824 107.909 122.409 112.917 125.625 116.708C126.932 118.242 127.476 118.875 148.478 121.24C158.761 122.408 172.934 123.824 190.6 125.476C214.641 127.723 238.75 129.782 247.579 130.524C244.035 173.537 239.196 231.782 235.939 270.847L23.1496 402.391L27.7123 409.556L245.183 275.083L387.09 285.841L381.369 384.932L356.913 424.521C353.162 425.006 344.927 426.075 339.395 426.807C331.408 427.876 322.223 432.429 321.837 432.626L320.907 433.092L204.189 594.634C200.745 597.326 192.194 603.403 186.374 605.085L167.916 602.74L25.9308 409.338L19.0918 414.356L188.334 644.892L184.177 650.246L28.3853 438.822L21.5562 443.85L178.783 657.174L157.237 685.005L163.947 690.201L188.126 658.956C209.999 675.197 240.304 697.783 242.244 699.455L242.115 699.337L248.113 693.339C246.718 691.943 214.651 668.091 193.312 652.256L194.985 650.098L198.944 645.001L353.33 445.513L379.469 468.227C381.319 471.097 390.999 486.21 397.036 499.146C403.291 512.546 410.813 544.386 411.674 548.077C412.664 566.12 412.882 596.94 409.259 604.016C403.806 614.696 362.643 693.616 362.228 694.408L369.75 698.367C370.165 697.575 411.318 618.625 416.811 607.926C422.749 596.425 420.404 552.274 420.126 547.276V546.919L420.037 546.563C419.711 545.098 411.724 510.577 404.736 495.602C397.749 480.628 386.723 463.832 386.258 463.12L385.941 462.635L358.229 438.575L388.475 389.603C398.739 384.833 475.402 349.223 553.076 312.712L618.318 451.609C615.15 455.003 612.595 458.921 610.766 463.189C606.807 472.097 573.949 611.251 570.188 627.028C570.089 627.414 567.882 636.677 574.552 648.336C580.431 658.639 601.77 691.834 602.67 693.25L609.806 688.657C609.589 688.321 587.686 654.235 581.916 644.12C577.037 635.589 578.363 629.274 578.422 629.017C593.011 567.149 615.705 472.849 618.466 466.623C619.589 464.064 621.014 461.648 622.712 459.428L726.237 624.405L733.412 619.892L629.027 453.47L718.893 376.381L652.533 265.532C662.073 260.979 670.78 256.799 678.651 252.992C695.674 244.807 708.857 238.324 717.834 233.752ZM244.847 266.551C246.005 252.695 247.984 228.873 250.162 202.685L391.217 214.215L387.575 277.369L244.847 266.551ZM193.708 637.914L174.824 612.182L186.869 613.696L187.611 613.518C196.638 611.4 208.594 601.978 209.93 600.909L210.375 600.552L326.538 439.782C328.864 438.703 335.208 435.922 340.513 435.22L351.173 433.814L349.243 436.952L193.708 637.914ZM391.652 354.092C395.007 360.03 398.372 363.89 401.856 365.741C404.914 367.354 409.477 368.027 414.376 368.176L390.187 379.419L391.652 354.092ZM707.947 374.599L624.969 445.79L560.746 309.06C593.159 293.808 621.297 280.496 644.872 269.253L707.947 374.599Z"/>
</mask>
<path d="M717.834 233.752C722.694 231.278 726.435 229.318 728.939 227.913C732.71 225.795 734.986 224.528 734.986 221.628H726.504C726.501 221.086 726.609 220.548 726.822 220.049C727.034 219.551 727.347 219.101 727.741 218.728C724.416 221.4 693.21 236.741 648.465 258.129L595.178 149.259L691.349 103.554L729.76 180.752L737.361 176.982L699.01 99.9615L732.561 84.017L728.929 76.3566L695.279 92.3703L685.272 72.2988L677.681 76.0795L687.578 95.9828L591.457 141.668L556.045 69.3296L548.424 73.0608L640.814 261.781C583.212 289.265 505.826 325.618 436.467 357.903C426.441 359.585 410.625 360.783 405.785 358.249C401.223 355.824 395.492 343.878 392.672 335.713L407.923 71.4575L399.461 70.9725L391.682 205.763L250.864 194.232C255.477 138.561 260.653 75.7727 260.653 74.2287H254.714L252.141 74.1297C252.082 75.5549 250.508 94.9139 248.281 122.082C206.03 118.529 141.609 112.62 131.653 110.433C131.391 109.677 131.286 108.875 131.346 108.077L134.8 74.6642L126.358 73.7932L122.923 107.068C122.824 107.909 122.409 112.917 125.625 116.708C126.932 118.242 127.476 118.875 148.478 121.24C158.761 122.408 172.934 123.824 190.6 125.476C214.641 127.723 238.75 129.782 247.579 130.524C244.035 173.537 239.196 231.782 235.939 270.847L23.1496 402.391L27.7123 409.556L245.183 275.083L387.09 285.841L381.369 384.932L356.913 424.521C353.162 425.006 344.927 426.075 339.395 426.807C331.408 427.876 322.223 432.429 321.837 432.626L320.907 433.092L204.189 594.634C200.745 597.326 192.194 603.403 186.374 605.085L167.916 602.74L25.9308 409.338L19.0918 414.356L188.334 644.892L184.177 650.246L28.3853 438.822L21.5562 443.85L178.783 657.174L157.237 685.005L163.947 690.201L188.126 658.956C209.999 675.197 240.304 697.783 242.244 699.455L242.115 699.337L248.113 693.339C246.718 691.943 214.651 668.091 193.312 652.256L194.985 650.098L198.944 645.001L353.33 445.513L379.469 468.227C381.319 471.097 390.999 486.21 397.036 499.146C403.291 512.546 410.813 544.386 411.674 548.077C412.664 566.12 412.882 596.94 409.259 604.016C403.806 614.696 362.643 693.616 362.228 694.408L369.75 698.367C370.165 697.575 411.318 618.625 416.811 607.926C422.749 596.425 420.404 552.274 420.126 547.276V546.919L420.037 546.563C419.711 545.098 411.724 510.577 404.736 495.602C397.749 480.628 386.723 463.832 386.258 463.12L385.941 462.635L358.229 438.575L388.475 389.603C398.739 384.833 475.402 349.223 553.076 312.712L618.318 451.609C615.15 455.003 612.595 458.921 610.766 463.189C606.807 472.097 573.949 611.251 570.188 627.028C570.089 627.414 567.882 636.677 574.552 648.336C580.431 658.639 601.77 691.834 602.67 693.25L609.806 688.657C609.589 688.321 587.686 654.235 581.916 644.12C577.037 635.589 578.363 629.274 578.422 629.017C593.011 567.149 615.705 472.849 618.466 466.623C619.589 464.064 621.014 461.648 622.712 459.428L726.237 624.405L733.412 619.892L629.027 453.47L718.893 376.381L652.533 265.532C662.073 260.979 670.78 256.799 678.651 252.992C695.674 244.807 708.857 238.324 717.834 233.752ZM244.847 266.551C246.005 252.695 247.984 228.873 250.162 202.685L391.217 214.215L387.575 277.369L244.847 266.551ZM193.708 637.914L174.824 612.182L186.869 613.696L187.611 613.518C196.638 611.4 208.594 601.978 209.93 600.909L210.375 600.552L326.538 439.782C328.864 438.703 335.208 435.922 340.513 435.22L351.173 433.814L349.243 436.952L193.708 637.914ZM391.652 354.092C395.007 360.03 398.372 363.89 401.856 365.741C404.914 367.354 409.477 368.027 414.376 368.176L390.187 379.419L391.652 354.092ZM707.947 374.599L624.969 445.79L560.746 309.06C593.159 293.808 621.297 280.496 644.872 269.253L707.947 374.599Z" fill="#D4D6D1" stroke="#3C3C3C" stroke-width="0.989721" mask="url(#path-10-inside-1_1789_351)"/>
<path d="M457.498 80.0854L457.995 80.1343L458.039 79.6372L458.083 79.1431L489.368 82.2134L488.19 94.0161L463.078 91.5513L462.665 91.5103L462.553 91.9106L450.103 136.448L449.927 137.076H450.581L446.063 221.463L434.017 220.823L438.553 136.202L438.581 135.68H426.021L425.995 136.149L416.514 313.18L416.499 313.442L416.709 313.601L446.737 336.372L437.241 348.895L404.134 323.808L404.013 323.716L403.861 323.708L402.702 323.645L415.911 77.0552L422.751 77.4243L423.227 77.4507L423.271 76.9761L423.294 76.7183L457.498 80.0854ZM443.453 135.68L443.427 136.669L448.82 136.957L448.979 135.985L447.939 135.698L447.875 135.68H443.453ZM427.876 100.924L426.549 125.826L426.521 126.347H439.691L439.793 125.986L446.266 102.796L446.424 102.228L445.837 102.17L428.418 100.458L427.903 100.408L427.876 100.924Z" fill="#CAB6D8" stroke="#562B9E" stroke-width="0.989721"/>
<path d="M459.076 294.737L476.322 298.658L468.976 330.969L451.729 327.048L459.076 294.737Z" fill="#CAB6D8" stroke="#562B9E" stroke-width="0.989721"/>
<path d="M507.146 151.62L533.657 207.026L489.134 228.33L462.623 172.923L507.146 151.62Z" fill="#CAB6D8" stroke="#562B9E" stroke-width="0.989721"/>
<path d="M547.195 217.749V245.757H546.494L546.926 246.5L547.032 246.685L482.352 284.026L472.355 266.703L528.776 234.131L529.024 233.989V217.749H547.195Z" fill="#CAB6D8" stroke="#562B9E" stroke-width="0.989721"/>
<path d="M734.384 205.866L650.071 246.196L605.456 152.917L689.759 112.586L734.384 205.866ZM681.475 135.046L628.148 160.551L627.702 160.765L627.916 161.211L657.716 223.504L657.93 223.951L658.376 223.737L711.692 198.232L712.139 198.018L711.925 197.572L682.135 135.279L681.921 134.833L681.475 135.046Z" fill="#CAB6D8" stroke="#562B9E" stroke-width="0.989721"/>
<path d="M679.278 93.938L594.995 134.268L550.37 40.9888L634.683 0.658691L679.278 93.938ZM626.389 23.1187L573.062 48.6235L572.616 48.8374L572.83 49.2837L602.63 111.577L602.844 112.023L603.29 111.809L656.606 86.3042L657.053 86.0903L656.84 85.644L627.049 23.3511L626.835 22.9048L626.389 23.1187Z" fill="#CAB6D8" stroke="#562B9E" stroke-width="0.989721"/>
<path d="M551.184 397.412L560.941 417.803L530.202 432.511L520.445 412.12L551.184 397.412Z" fill="#CAB6D8" stroke="#562B9E" stroke-width="0.989721"/>
<path d="M555.521 336.5L567.129 360.748V360.749L568.505 363.638V363.639L605.069 440.073L604.894 440.157L604.677 440.26L604.624 440.494L593.134 491.021L578.461 487.678L588.249 444.682L588.287 444.514L588.213 444.359L553.117 371L552.903 370.554L552.457 370.768L489.69 400.8L472.015 363.856L550.616 326.248L555.521 336.5Z" fill="#CAB6D8" stroke="#562B9E" stroke-width="0.989721"/>
<path d="M517.898 89.3677L543.374 142.613L521.617 153.023L496.141 99.7778L517.898 89.3677Z" fill="#CAB6D8" stroke="#562B9E" stroke-width="0.989721"/>
<path d="M626.074 246.783L630.512 256.054L494.804 320.979L485.769 302.097L600.368 247.283L600.814 247.069L600.601 246.623L595.059 235.033L594.845 234.586L594.398 234.8L567.964 247.443L561.482 233.885L587.917 221.243L588.363 221.03L588.15 220.583L578.609 200.64L578.396 200.194L577.949 200.408L551.515 213.06L545.023 199.502L571.468 186.86L571.915 186.647L571.701 186.2L567.534 177.5L567.32 177.054L566.874 177.268L540.439 189.911L528.307 164.536L554.742 151.893L555.188 151.68L554.975 151.233L519.39 76.8569L540.053 66.9702L626.074 246.783Z" fill="#CAB6D8" stroke="#562B9E" stroke-width="0.989721"/>
<path d="M385.091 197.744L259.398 189.565L267.686 71.5044L392.985 67.9692L385.091 197.744ZM370.913 88.8179L287.005 91.1831L286.557 91.1958L286.525 91.644L281.052 170.227L281.018 170.723L281.514 170.755L365.64 176.229L366.136 176.261L366.166 175.765L371.421 89.3423L371.454 88.8022L370.913 88.8179Z" fill="#CAB6D8" stroke="#562B9E" stroke-width="0.989721"/>
<path d="M356.333 98.772L355.083 111.485L320.135 108.05L319.642 108.001L319.594 108.494L314.366 161.584L301.663 160.335L307.555 100.393L319.701 101.583L320.193 101.63L320.242 101.139L320.825 95.2856L356.333 98.772Z" fill="#CAB6D8" stroke="#562B9E" stroke-width="0.989721"/>
<path d="M358.963 146.003V159.602H338.446V146.003H358.963Z" fill="#CAB6D8" stroke="#562B9E" stroke-width="0.989721"/>
<path d="M385.003 219.643L381.218 270.187L251.975 260.295L255.351 210.803L385.003 219.643ZM267.63 225.355L266.106 247.723L266.073 248.212L266.562 248.25L368.672 256.069L369.166 256.107L369.203 255.612L370.925 232.353L370.962 231.857L370.465 231.823L268.157 224.895L267.664 224.862L267.63 225.355Z" fill="#CAB6D8" stroke="#562B9E" stroke-width="0.989721"/>
<path d="M245.533 136.47L233.269 261.15L176.226 255.537L178.247 235.035L216.711 238.817L217.203 238.865L217.251 238.373L220.053 209.79L220.101 209.297L219.608 209.249L197.356 207.06L199.764 182.52L217.008 184.213L217.5 184.262L217.548 183.77L220.359 155.187L220.407 154.694L219.915 154.646L186.47 151.358L188.491 130.856L245.533 136.47Z" fill="#CAB6D8" stroke="#562B9E" stroke-width="0.989721"/>
<path d="M182.544 442.457L182.854 442.843L183.239 442.533L214.385 417.585L230.047 437.131L198.901 462.09L198.516 462.399L198.825 462.785L226.247 497.02L206.7 512.682L179.269 478.447L178.959 478.062L178.572 478.371L144.902 505.348L129.24 485.791L162.91 458.814L163.297 458.505L162.987 458.119L131.941 419.371L151.498 403.699L182.544 442.457Z" fill="#CAB6D8" stroke="#562B9E" stroke-width="0.989721"/>
<path d="M110.786 397.683L126.083 416.776L98.9716 438.497L83.6745 419.403L110.786 397.683Z" fill="#CAB6D8" stroke="#562B9E" stroke-width="0.989721"/>
<path d="M268.818 401.463C273.462 401.315 278.065 402.367 282.184 404.517C286.302 406.667 289.796 409.843 292.329 413.737C294.862 417.632 296.347 422.114 296.643 426.75C296.938 431.386 296.034 436.021 294.016 440.205C291.998 444.39 288.934 447.983 285.122 450.639L284.91 450.787V457.241L285.121 457.389L289.851 460.696L199.203 589.615L199.154 589.685L199.151 589.688L198.527 590.579L198.526 590.58L197.006 592.769L196.77 592.606L196.479 592.875C193.509 595.618 189.643 597.189 185.602 597.295C181.56 597.401 177.617 596.035 174.507 593.451L174.238 593.229L174.09 593.315L173.082 592.058L173.055 592.026L172.596 591.521C172.148 591.007 171.734 590.465 171.356 589.896L171.344 589.878L171.33 589.86L33.3555 417.66L49.1504 405.063L177.506 565.32L180.099 568.558V568.557L184.632 574.218L185.044 574.733L185.423 574.193L190.896 566.404L190.898 566.399L191.958 564.855L191.957 564.854L270.103 453.774L270.193 453.646V432.013H242.91C242.751 430.838 242.667 429.655 242.659 428.47C242.659 423.824 243.857 419.256 246.137 415.208C248.417 411.16 251.702 407.769 255.675 405.361C259.648 402.954 264.175 401.611 268.818 401.463Z" fill="#CAB6D8" stroke="#562B9E" stroke-width="0.989721"/>
<path d="M367.383 546.282L327.203 599.283L326.904 599.678L327.298 599.977L343.59 612.325L319.622 643.94L274.837 609.985L258.545 597.636L322.99 512.635L367.383 546.282Z" fill="#CAB6D8" stroke="#562B9E" stroke-width="0.989721"/>
<path d="M304.419 660.48L290.892 680.861L290.614 681.279L291.035 681.551L304.854 690.468H262.677L211.6 654.984L242.257 617.431L304.419 660.48Z" fill="#CAB6D8" stroke="#562B9E" stroke-width="0.989721"/>
<path d="M392.288 592.198L403.759 598.197L363.014 676.103L351.543 670.103L392.288 592.198Z" fill="#CAB6D8" stroke="#562B9E" stroke-width="0.989721"/>
<path d="M368.785 592.84L378.677 598.014L361.202 631.428L351.309 626.254L368.785 592.84Z" fill="#CAB6D8" stroke="#562B9E" stroke-width="0.989721"/>
<path d="M406.771 545.595L403.987 596.922L368.559 568.06L385.979 522.667L393.857 513.054L406.771 545.595Z" fill="#CAB6D8" stroke="#562B9E" stroke-width="0.989721"/>
<path d="M436.972 452.799L453.723 453.697L447.7 566.008L430.949 565.109L436.972 452.799Z" fill="#CAB6D8" stroke="#562B9E" stroke-width="0.989721"/>
<path d="M465.732 473.436L478.047 474.097L474.163 546.5L461.849 545.839L465.732 473.436Z" fill="#CAB6D8" stroke="#562B9E" stroke-width="0.989721"/>
<path d="M500.169 480.768C515.584 491.063 528.232 506.161 536.511 524.261L533.763 575.634L486.097 573.085L491.07 480.278L500.169 480.768Z" fill="#CAB6D8" stroke="#562B9E" stroke-width="0.989721"/>
<path d="M452.589 588.33L482.306 605.487L429.494 696.959L399.778 679.802L452.589 588.33Z" fill="#CAB6D8" stroke="#562B9E" stroke-width="0.989721"/>
<path d="M698.535 373.405L626.991 433.222L570.521 315.171L645.667 279.222L698.535 373.405ZM638.354 301.21L593.213 322.806L592.767 323.02L592.98 323.466L632.5 406.079L632.774 406.653L633.264 406.245L676.891 369.753L677.205 369.49L677.005 369.131L638.999 301.415L638.772 301.01L638.354 301.21Z" fill="#CAB6D8" stroke="#562B9E" stroke-width="0.989721"/>
<path d="M50.2555 175.978L82.3683 221.552L32.8066 256.475L0.693827 210.901L50.2555 175.978Z" fill="#CAB6D8" stroke="#562B9E" stroke-width="0.989721"/>
<path d="M115.382 68.6172V112.521H48.0713V68.6172H115.382Z" fill="#CAB6D8" stroke="#562B9E" stroke-width="0.989721"/>
<path d="M143.126 62.3005L166.026 64.554L161.477 110.788L138.576 108.534L143.126 62.3005Z" fill="#CAB6D8" stroke="#562B9E" stroke-width="0.989721"/>
<path d="M247.562 69.1294L242.97 115.857V115.859L242.938 116.196L193.22 111.304L194.647 96.6909L220.977 99.2856L221.47 99.3345L221.518 98.8423L224.666 66.8804L247.562 69.1294Z" fill="#CAB6D8" stroke="#562B9E" stroke-width="0.989721"/>
</g>
<defs>
<clipPath id="clip0_1789_351">
<rect width="737.361" height="700" fill="white"/>
</clipPath>
</defs>
</svg>
