<svg width="993" height="722" viewBox="0 0 993 722" fill="none" xmlns="http://www.w3.org/2000/svg">
<g clip-path="url(#clip0_1802_7711)">
<rect width="993" height="722" fill="#E5F3F6"/>
<path d="M213.659 669.513C199.664 666.015 183.484 688.464 173.863 698.668C231.151 716.744 143.979 741.234 173.134 700.271C160.014 698.085 141.501 711.642 129.402 698.668C109.869 676.802 76.7782 678.26 60.3059 651.583C54.1834 655.228 41.3554 649.397 49.5187 640.067C25.612 623.012 20.9473 601 -2.95945 638.61C-5.14603 624.47 -3.54254 586.423 -2.81367 583.362C21.9677 591.379 55.3496 612.371 71.2388 591.525C96.8948 598.085 127.215 591.234 152.143 604.499C166.283 595.315 171.968 615.578 181.443 622.429C193.105 614.411 212.784 637.152 204.475 649.688C208.994 655.082 213.659 659.455 213.659 669.513Z" fill="#E1F1E4" stroke="#06720F" stroke-opacity="0.51" stroke-width="1.09329"/>
<path d="M597.624 615.432C600.247 606.685 602.58 598.231 605.204 589.338C618.615 594.003 618.032 599.397 623.717 612.516C623.571 608.435 621.53 604.936 621.093 600.563C638.148 615.14 636.545 639.047 645.145 659.892C654.038 682.05 667.886 695.752 673.134 720.534C647.915 719.076 586.691 728.843 586.836 712.954C577.215 681.321 551.997 665.14 566.866 641.671C555.35 631.612 556.661 613.099 548.936 596.481C560.014 586.86 588.003 601.875 597.624 615.432Z" fill="#E1F1E4" stroke="#06720F" stroke-opacity="0.51" stroke-width="1.09329"/>
<path d="M486.691 545.898C465.7 554.207 454.184 535.257 438.586 534.236C429.986 531.758 427.653 549.834 422.26 530.883C421.385 513.682 441.793 514.703 449.811 499.397C467.158 484.382 502.58 441.962 518.324 462.37C526.779 471.991 534.067 476.51 540.919 488.464C544.126 497.064 563.076 487.006 554.475 505.082C543.542 546.773 566.283 585.986 505.059 566.16C503.309 555.519 500.102 545.169 486.691 545.898Z" fill="#E1F1E4" stroke="#06720F" stroke-opacity="0.51" stroke-width="1.09329"/>
<path d="M474.593 577.094C489.17 590.505 517.45 591.234 524.01 614.12C525.176 636.277 546.167 646.19 542.085 668.347C558.412 676.219 559.141 702.458 569.199 720.68C514.097 718.93 515.555 734.965 500.832 691.525C550.103 705.811 477.217 643.858 462.056 641.817C478.091 628.989 440.773 630.738 437.566 611.35C471.823 605.082 474.447 619.514 474.593 577.094Z" fill="#E1F1E4" stroke="#06720F" stroke-opacity="0.51" stroke-width="1.09329"/>
<path d="M80.7136 336.132C83.1918 333.653 86.9819 323.595 80.1306 320.242C81.5883 318.347 84.0664 315.14 90.0431 319.076C93.1043 310.476 102.142 309.164 115.116 308.289C119.781 316.452 121.384 322.137 131.297 310.476C133.775 313.1 135.378 324.324 126.049 323.449C125.32 324.324 124.737 325.199 123.862 326.219C120.801 319.368 106.515 319.659 110.597 330.301C116.865 335.549 124.3 341.817 122.696 353.187C115.699 354.645 111.763 357.56 104.766 364.557C118.906 365.723 140.918 353.333 109.868 378.26C132.9 387.444 104.329 408.435 89.46 370.825C84.2122 375.49 42.9585 364.12 51.7049 352.895C56.9527 344.003 67.1568 321.117 80.7136 336.132Z" fill="#E1F1E4" stroke="#06720F" stroke-opacity="0.51" stroke-width="1.09329"/>
<path d="M-3.54258 346.044C3.45451 350.709 17.3029 351.875 20.8014 363.246C2.14255 364.412 31.7344 393.858 28.9647 406.394C24.3 423.887 17.4487 436.278 -2.66794 431.759C-5.72917 404.937 -2.3764 374.762 -3.54258 346.044Z" fill="#E1F1E4" stroke="#06720F" stroke-opacity="0.51" stroke-width="1.09329"/>
<path d="M8.99637 291.671C11.766 290.796 14.0984 290.068 16.8681 289.193C20.5124 316.89 48.355 353.624 -2.3739 331.467C-5.43512 326.948 -2.95699 316.89 -3.3943 308.872C20.3666 311.642 -4.12317 303.041 0.687328 288.027C4.33164 287.881 7.2471 287.881 8.99637 291.671Z" fill="#E1F1E4" stroke="#06720F" stroke-opacity="0.51" stroke-width="1.09329"/>
<path d="M996.022 37.1521C986.401 26.8023 971.532 20.2425 963.66 6.24834C1005.64 3.62443 995.876 3.62443 996.022 37.1521Z" fill="#E1F1E4" stroke="#06720F" stroke-opacity="0.51" stroke-width="1.09329"/>
<path d="M553.893 233.508C558.703 229.426 611.619 193.275 597.916 220.243C586.691 226.074 565.846 244.004 553.893 233.508Z" fill="#E1F1E4" stroke="#06720F" stroke-opacity="0.51" stroke-width="1.09329"/>
<path d="M-2.95776 673.304C-7.76825 649.98 3.31046 660.039 26.7798 654.354C38.2959 667.619 22.844 669.951 10.1618 665.432C10.1618 664.558 10.1618 664.12 10.1618 663.391C4.1851 664.558 1.99851 670.243 -2.95776 673.304Z" fill="#E1F1E4" stroke="#06720F" stroke-opacity="0.51" stroke-width="1.09329"/>
<path d="M305.934 254.499C313.076 248.96 325.321 249.834 328.966 237.152C328.237 229.28 349.811 223.158 342.085 235.549C328.966 241.525 324.447 265.869 305.934 254.499Z" fill="#E1F1E4" stroke="#06720F" stroke-opacity="0.51" stroke-width="1.09329"/>
<path d="M425.759 572.72C418.324 565.723 411.619 559.309 404.768 552.75C413.222 547.939 446.604 558.581 425.759 572.72Z" fill="#E1F1E4" stroke="#06720F" stroke-opacity="0.51" stroke-width="1.09329"/>
<path d="M66.8672 295.461C71.0946 281.758 83.7768 292.4 94.8555 295.753C90.3366 303.187 75.7593 296.919 66.8672 295.461Z" fill="#E1F1E4" stroke="#06720F" stroke-opacity="0.51" stroke-width="1.09329"/>
<path d="M416.43 77.9688C422.406 77.9688 433.048 86.2778 428.675 94.1495C424.447 98.5227 417.887 82.7792 416.43 77.9688Z" fill="#E1F1E4" stroke="#06720F" stroke-opacity="0.51" stroke-width="1.09329"/>
<path d="M439.168 469.513C442.083 467.181 444.853 464.849 447.914 462.371C450.538 464.703 453.016 466.89 455.786 469.368C452.287 471.7 443.25 477.822 439.168 469.513Z" fill="#E1F1E4" stroke="#06720F" stroke-opacity="0.51" stroke-width="1.09329"/>
<path d="M27.0703 351.583C29.84 347.502 31.735 347.356 35.6709 351.583C34.7963 352.895 33.7759 354.499 32.7554 355.957C30.1315 355.082 28.6738 353.187 27.0703 351.583Z" fill="#E1F1E4" stroke="#06720F" stroke-opacity="0.51" stroke-width="1.09329"/>
<path d="M995.001 693.274C995.001 486.715 995.001 279.863 995.001 73.7408C995.293 68.3472 991.94 69.2219 988.15 68.0557C977.8 62.079 978.529 52.7496 966.138 52.1665C959.87 48.5222 970.22 38.0265 965.701 33.0703C944.564 32.7787 950.395 34.6738 935.672 15.1402C927.946 9.74665 915.118 12.5163 907.975 5.81079C907.829 5.37347 907.683 4.35306 907.538 3.33265C904.185 2.45802 661.182 2.60379 658.558 3.33265C671.386 7.99738 685.089 9.30933 698.354 13.391C695.001 24.4697 678.821 13.8283 672.115 23.3035C675.03 49.9799 660.599 35.9857 646.605 44.5863C635.38 39.9216 626.342 32.1956 620.22 27.6767C633.485 29.2802 648.791 36.7146 660.162 35.6942C657.392 32.6329 653.602 30.5921 651.561 26.802C682.319 12.9536 595.439 -3.66443 576.197 2.74956C580.716 10.3297 597.334 8.58047 590.045 18.6388C575.614 12.2248 565.409 10.6213 554.331 2.31224C505.351 2.60379 454.622 1.14606 406.517 2.89533C417.596 28.5513 338.733 35.8399 451.124 54.4988C515.264 68.7845 485.38 88.6096 511.182 99.1053C549.812 104.207 566.138 25.0528 579.841 119.513C585.818 146.773 551.27 117.327 538.004 125.927C445.293 183.216 486.547 133.945 431.153 153.333C421.823 159.455 438.296 169.805 437.275 178.114C425.176 226.51 474.593 175.782 484.651 203.187C522.698 218.201 499.958 160.476 650.395 172.283C665.118 165.723 640.191 136.423 681.153 136.131C663.514 169.951 657.1 154.062 680.133 183.799C682.319 207.123 644.127 210.184 791.503 264.703C753.748 294.149 732.319 257.123 686.109 237.006C677.509 236.569 611.182 195.315 604.622 214.411C612.931 217.035 619.054 214.994 622.99 219.222C637.13 266.89 702.144 212.954 678.092 298.231C672.261 256.248 644.272 281.613 598.937 272.866C596.896 287.443 607.684 295.753 619.2 292.254C631.59 294.586 632.756 312.371 621.823 315.14C622.99 326.365 632.465 339.484 628.675 351.438C620.366 369.076 619.928 332.341 614.535 329.572C593.835 319.513 603.602 285.84 579.258 287.152C581.007 292.546 581.59 293.566 580.278 296.336C566.284 300.417 563.223 310.33 560.307 321.117C551.707 348.96 588.879 342.254 551.561 353.187C526.488 363.537 525.468 340.213 508.267 333.508C474.01 335.548 496.459 353.916 479.258 361.204C475.468 372.866 504.768 367.473 515.993 374.761C538.296 384.674 535.38 405.811 513.223 403.478C521.386 412.662 556.809 459.164 573.135 454.353C580.133 453.187 583.339 457.997 585.818 461.788C596.167 457.997 599.374 448.376 610.016 451.146C607.246 424.032 623.573 428.989 639.025 413.828C633.923 376.365 653.602 379.134 684.068 370.825C705.351 366.452 713.369 383.07 727.509 394.732C734.214 399.834 734.943 402.167 733.485 407.852C727.071 488.755 900.103 445.753 884.943 473.304C888.733 480.301 900.541 465.578 906.809 469.222C881.59 501 879.112 459.455 846.459 470.68C805.351 467.181 844.564 497.064 860.891 495.607C871.24 502.75 841.211 518.493 835.526 518.056C828.966 507.706 823.281 496.919 824.739 486.715C800.249 467.764 748.791 502.458 717.45 454.353C708.412 445.607 698.354 398.085 683.34 395.169C661.474 392.546 660.745 392.254 663.952 407.706C665.847 425.782 641.649 432.779 646.751 457.997C642.377 474.761 623.281 454.79 616.284 464.703C605.934 500.709 615.555 488.61 582.902 521.554C577.8 534.382 571.24 572.429 586.546 578.697C605.06 582.779 620.074 571.846 636.984 578.114C663.369 586.277 679.549 603.333 706.372 594.878C727.8 602.458 697.334 642.4 670.22 646.919C658.267 646.919 686.692 700.709 693.835 701.729C689.025 703.333 685.089 704.645 681.007 706.102C686.255 715.14 700.395 718.056 708.995 712.079C707.829 703.478 717.596 705.957 721.386 709.164C724.885 710.767 730.424 704.207 732.028 708.435C707.975 728.843 745.293 721.409 759.724 722.72C836.401 722.72 913.077 722.72 989.025 722.72C1000.1 723.304 993.106 706.831 995.001 693.274ZM831.882 539.047C831.153 540.213 830.424 541.379 829.695 542.546C828.529 544.586 826.488 545.607 824.302 545.898C822.261 546.19 821.095 545.024 821.823 542.983C822.261 541.817 822.99 540.65 824.01 540.067C825.905 538.901 826.78 537.298 827.217 535.403C827.946 532.924 828.966 530.738 831.736 529.718C832.028 532.487 832.173 534.965 832.319 537.443C832.465 537.881 832.173 538.464 831.882 539.047Z" fill="#E1F1E4" stroke="#06720F" stroke-opacity="0.51" stroke-width="1.09329"/>
<path d="M413.806 614.266C409.433 595.753 391.649 600.855 379.55 596.044C365.847 588.173 348.937 546.044 329.695 555.811C324.156 533.362 360.891 494.004 370.074 468.202C343.69 450.417 369.054 423.741 371.386 400.418C352.582 355.082 425.322 270.68 376.926 226.365C376.051 227.969 375.322 229.135 374.448 230.592C373.136 229.572 371.824 228.552 370.512 227.531C371.678 257.415 356.663 229.572 350.395 247.648C360.162 248.085 352.873 262.371 348.937 263.391C328.383 261.205 326.343 247.356 310.308 266.015C291.503 247.211 274.156 226.948 313.952 232.487C339.608 213.829 333.923 202.021 374.448 203.479C367.888 183.071 353.456 167.181 334.943 161.205C332.028 164.849 331.736 169.514 328.529 172.429C311.036 163.829 322.99 139.922 331.59 132.925C329.112 123.595 324.885 113.974 322.99 106.686C349.083 99.9802 319.346 97.502 314.681 101.729C311.474 88.4641 302.436 93.712 296.313 95.8986C297.917 90.9423 300.832 87.5895 304.914 84.3825C272.115 75.9277 242.961 65.2863 215.993 89.7761C240.191 89.7761 223.719 94.8781 215.847 97.6478C222.407 111.059 224.739 124.762 233.485 134.237C229.55 135.694 225.468 136.715 222.99 139.63C256.663 174.616 229.695 248.231 178.238 219.368C177.217 202.167 175.322 200.272 162.348 197.502C164.972 209.31 152.582 206.831 147.188 213.245C109.287 282.196 200.541 269.222 164.389 294.004C144.127 311.059 201.27 303.041 218.325 321.263C207.975 329.28 194.564 335.403 185.235 326.365C160.891 323.887 159.725 333.216 179.112 337.59C174.01 344.004 170.949 347.794 164.827 348.96C198.063 373.45 155.206 363.537 161.328 388.464C136.109 387.59 165.701 410.622 133.923 400.563C135.089 402.75 136.255 404.936 137.567 407.269C127.509 414.266 120.657 402.021 110.599 403.916C105.06 404.353 106.372 411.205 103.894 413.391C86.1094 414.849 99.5204 430.592 97.7712 437.735C97.4796 448.96 72.5525 439.63 65.1181 436.569C59.8703 430.884 56.6633 415.286 49.9578 419.368C65.2639 442.546 8.55835 423.45 41.0656 463.974C-21.325 470.388 1.41549 433.508 -3.39501 545.024C-4.26964 569.951 0.978172 546.773 42.3776 567.036C24.4476 595.753 86.1094 582.925 98.5 583.654C98.5 583.799 98.6458 583.945 98.6458 584.091C96.1677 585.257 93.8353 586.423 90.9199 587.881C131.007 608.289 115.264 544.587 83.777 567.764C57.3922 564.412 62.7857 576.802 50.3951 571.117C54.1852 561.496 54.7683 563.1 62.0569 560.476C70.0744 554.499 69.054 541.963 76.4884 539.047C104.622 570.826 92.8149 548.231 119.346 539.485C102.29 554.791 124.302 547.211 129.695 552.021C142.086 580.884 172.407 588.318 199.958 589.047C232.757 594.149 204.331 630.009 224.885 615.141C217.159 627.969 259.724 623.45 245.585 636.423C224.156 635.84 213.806 652.896 227.217 668.493C240.191 668.056 252.873 664.995 262.786 669.805C260.745 673.158 257.392 674.616 249.229 675.928C205.351 660.622 224.885 695.461 245.293 708.872C187.713 696.627 222.99 700.709 220.074 721.117C254.185 721.7 290.483 721.7 323.136 721.117C317.888 710.767 307.101 705.082 302.873 696.336C316.139 701.001 320.949 713.391 328.821 721.263C372.844 721.117 419.2 722.866 462.203 720.534C440.774 685.403 426.926 652.021 413.806 614.266ZM288.733 289.339C294.71 288.464 299.229 291.234 301.27 295.753C303.311 300.272 305.206 304.936 304.768 310.039C304.622 311.059 304.331 312.079 304.039 313.245C301.707 312.954 301.124 311.496 300.395 310.184C298.5 306.832 295.293 304.936 292.232 302.75C292.086 302.604 291.794 302.458 291.649 302.458C286.401 302.313 285.964 297.939 284.797 294.587C283.777 291.671 285.38 289.922 288.733 289.339ZM234.506 471.409C237.13 469.805 238.004 470.243 240.191 472.575C242.232 474.616 244.127 476.802 246.168 478.843C248.208 480.884 247.917 485.111 245.147 485.84C240.92 486.861 237.276 488.901 234.069 491.671C231.299 486.861 228.675 482.487 225.759 477.385C228.529 475.49 231.445 473.304 234.506 471.409ZM241.211 499.834C239.754 502.458 238.733 502.896 236.838 502.021C234.36 501.001 233.485 499.397 234.069 496.336C236.547 497.648 238.879 498.668 241.211 499.834ZM246.022 549.98C243.835 551.146 241.794 552.604 239.608 554.062C239.025 554.499 238.442 555.082 237.421 555.811C237.276 554.499 236.984 553.625 236.984 552.75C237.13 547.648 235.38 543.129 232.465 539.047C230.57 536.423 228.529 533.799 226.197 531.467C223.427 528.697 221.532 525.345 219.929 521.846C219.783 521.409 219.783 520.971 219.783 520.388C224.739 519.951 229.112 523.012 230.278 527.24C231.882 533.362 235.818 537.59 241.066 540.797C242.815 541.817 244.856 542.692 246.459 544.004C249.666 546.19 249.229 548.377 246.022 549.98ZM269.491 376.657C267.013 378.26 264.243 379.718 263.952 383.362C263.806 384.674 262.494 385.257 261.328 384.966C258.996 384.383 256.663 383.654 254.477 382.633C252.29 381.759 250.395 380.447 248.354 379.426C247.188 378.843 245.876 378.406 244.71 379.426C243.398 380.592 244.273 382.05 244.71 383.362C245.001 384.383 245.585 385.257 245.876 386.278C246.022 386.715 245.73 387.298 245.439 388.173C244.71 387.59 243.981 387.152 243.69 386.715C241.503 383.799 239.316 380.884 237.421 377.823C234.943 373.887 234.652 369.514 235.089 364.995C235.089 364.266 235.672 363.246 236.255 363.1C236.984 362.954 238.15 363.246 238.733 363.683C243.69 368.202 249.52 370.097 256.226 369.805C259.433 369.659 262.494 369.951 265.555 371.7C269.346 373.741 273.281 372.138 276.926 370.388C279.987 368.785 280.57 365.869 280.57 362.662C280.424 359.31 279.258 356.248 277.509 353.479C277.071 352.75 276.197 352.021 275.468 351.729C272.698 350.709 269.929 349.106 266.722 349.397C264.681 349.543 263.223 348.522 262.203 346.773C261.328 345.17 260.016 343.712 258.85 342.4C256.955 340.359 256.226 337.881 256.517 335.111C258.413 338.464 261.474 339.485 264.827 340.068C268.034 340.797 271.241 341.38 274.448 342.108C277.509 342.837 280.424 342.4 283.34 341.525C285.089 340.942 286.984 340.651 288.733 340.505C291.794 340.359 294.71 340.505 297.771 340.505C303.602 340.651 307.392 345.17 306.663 350.855C306.517 351.729 306.517 352.75 306.517 353.625C306.663 356.394 306.372 356.832 303.456 356.977C298.354 357.269 293.544 358.581 288.879 360.33C287.859 360.767 286.984 361.205 286.255 361.934C283.923 364.266 284.36 366.161 287.567 367.327C288.879 367.764 290.337 367.91 291.649 368.348C296.313 370.097 300.978 371.846 305.643 373.595C306.226 373.887 306.663 374.47 307.246 374.907C305.206 376.802 303.165 378.406 301.415 380.155C297.188 384.674 296.459 388.901 299.083 394.587C300.104 396.627 301.124 398.522 302.29 400.418C303.165 401.729 303.165 403.041 302.29 404.353C300.832 406.686 297.625 409.164 294.418 410.33C292.086 405.374 288.587 401.001 288.442 394.732C288.296 389.193 286.109 383.799 282.757 379.135C279.841 374.907 273.864 373.887 269.491 376.657ZM328.821 588.027C329.695 590.942 330.57 593.858 333.485 595.607C334.797 596.336 335.672 597.356 335.38 599.106C335.089 600.417 334.506 601.146 333.194 601.438C326.926 602.604 320.657 603.77 314.243 604.062C308.704 604.353 304.331 602.312 300.541 598.377C299.229 596.919 297.625 595.753 296.022 594.732C293.544 593.275 291.649 593.858 290.191 596.482C289.608 597.502 289.171 598.668 288.879 599.689C288.442 600.709 288.15 601.584 287.859 602.604C286.109 602.75 285.526 601.584 284.943 600.418C283.34 597.502 281.59 594.587 279.841 591.817C278.383 589.63 278.966 587.881 281.59 587.735C284.506 587.59 287.421 587.881 290.191 588.173C290.92 588.173 291.794 588.756 292.523 588.756C298.646 588.61 304.768 588.464 311.036 588.318C313.077 588.318 314.243 587.152 314.972 585.403C315.118 584.82 315.41 584.383 315.555 583.799C317.45 579.135 318.471 578.552 323.136 580.592C325.468 581.613 327.363 581.467 329.258 579.864C330.716 578.697 332.028 577.531 333.631 576.365C334.506 575.782 335.38 575.199 336.547 574.47C337.859 578.989 336.984 581.176 333.485 582.925C332.611 583.362 331.736 583.654 331.007 584.237C329.112 584.82 328.383 586.278 328.821 588.027Z" fill="#E1F1E4" stroke="#06720F" stroke-opacity="0.51" stroke-width="1.09329"/>
<path d="M81.8799 658.872C80.1307 658.289 78.2356 657.997 78.0898 655.957C78.0898 655.373 79.1102 654.207 79.6933 654.207C80.8595 654.062 82.463 654.353 83.0461 655.082C84.2123 656.394 82.9003 657.56 81.8799 658.872Z" fill="white"/>
<path d="M604.621 699.689C606.953 701.876 608.119 704.208 609.286 706.832C607.974 707.852 606.808 707.706 605.787 706.832C603.746 704.937 604.038 702.604 604.621 699.689Z" fill="white"/>
</g>
<defs>
<clipPath id="clip0_1802_7711">
<rect width="993" height="722" fill="white"/>
</clipPath>
</defs>
</svg>
