<svg width="560" height="700" viewBox="0 0 560 700" fill="none" xmlns="http://www.w3.org/2000/svg">
<path d="M90.1777 545.039C78.5549 550.414 93.6143 535.747 79.071 536.178C62.6992 530.038 62.6626 500.319 76.9376 509.44C71.0313 501.496 88.7571 498.277 77.7201 496.749C79.7448 491.842 61.8919 496.902 64.4704 498.35C57.0339 500.599 67.9587 471.044 78.1987 479.422C82.7764 472.744 67.9155 484.66 77.8235 471.182C88.3263 468.364 85.7598 449.954 80.0003 468.132C74.3661 465.017 68.0774 487.333 69.0675 468.401C67.7626 464.759 61.8265 456.29 74.8283 464.768C84.1324 460.031 76.0142 458.371 74.5573 459.694C64.9934 464.188 61.0258 447.251 68.4426 450.382C66.7304 435.713 59.543 431.824 70.964 423.783C85.9239 430.831 69.06 412.263 64.5674 425.206C58.7068 424.034 76.1169 414.099 69.797 411.194C79.8477 410.425 73.4402 396.615 72.9596 395.887C62.2071 390.088 89.2856 396.068 78.088 388.97C83.293 386.333 73.1417 369.49 84.3096 381.553C89.4283 379.801 91.6827 376.382 87.1712 373.799C95.6399 375.636 117.915 374.296 97.5861 374.206C92.7697 359.417 108.801 378.655 102.843 366.839C113.872 357.281 113.644 372.96 122.994 366.313C114.456 360.941 107.335 359.406 121.346 353.374C132.985 344.669 135.541 354.685 123.443 356.005C140.71 360.918 130.634 338.592 145.568 347.348C142.241 339.455 144.427 325.714 158.42 335.357C141.549 338.7 155.289 340.194 159.379 338.969C156.599 330.233 179.127 332.957 168.784 345.471C179.009 347.469 168.728 336.823 184.965 341.41C192.923 333.058 177.02 338.495 191.367 331.117C208.127 322.73 183.118 328.51 198.438 319.933C191.258 320.078 183.354 337.204 177.716 338.455C196.51 342.806 163.936 339.533 168.962 330.101C156.239 332.319 179.411 320.53 173.863 318.062C178.098 316.9 180.533 296.767 188.317 304.198C185.995 297.055 197.455 294.718 196.886 305.446C205.957 292.553 203.68 301.377 194.796 299.704C188.136 292.375 215.691 285.438 197.165 291.156C201.912 283.32 176.344 288.431 195.493 281.03C204.148 289.46 212.26 264.733 218.849 276.976C213.478 271.457 208.699 267.038 216.522 258.406C221.303 246.053 211.461 248.728 218.384 236.951C217.36 232.852 232.518 234.035 228.623 227.093C220.64 226.173 238.3 224.001 225.594 221.603C231.457 218.791 238.687 229.049 231.048 217.531C222.381 215.571 244.807 214.343 234.343 210.995C242.033 208.242 242.41 212.675 237.831 205.052C250.702 198.749 249.688 196.206 257.278 182.735C265.008 180.509 272.135 169.163 264.616 173.301C250.388 187.277 261.438 155.061 264.095 167.74C277.585 161.41 258.08 163.618 270.37 155.979C271.314 165.48 277.917 142.526 277.719 161.346C282.089 159.591 282.353 153.551 278.257 152.644C276.467 147.162 290.193 156.273 279.185 149.131C286.369 145.081 302.075 149.003 295.311 143.153C290.927 142.177 273.19 152.772 278.208 141.736C272.569 155.626 274.991 137.423 269.325 151.323C257.553 148.804 251.43 155.239 239.202 160.577C234.989 159.931 222.637 178.573 230.965 160.388C237.628 152.311 246.222 151.516 251.223 149.664C262.429 144.499 264.928 146.826 268.265 130.571C260.246 125.395 283.317 99.1555 273.675 122.422C268.132 128.728 282.786 117.018 274.079 128.335C271.265 142.535 275.463 139.666 277.735 132.663C278.754 115.779 284.292 147.826 292.262 134.178C289.041 122.857 293.895 129.755 297.041 128.535C289.844 124.16 304.996 110.603 291.604 121.308C281.888 124.179 291.403 113.07 287.045 111.349C289.281 106.761 294.046 97.4205 300.881 100.922C305.299 108.213 305.27 103.622 312.698 108.701C307.797 101.341 296.8 99.0024 308.914 94.5069C303.556 88.4315 315.862 87.6576 318.017 91.9302C324.326 84.9329 327.664 80.6589 323.464 88.9663C329.924 104.997 323.29 86.943 333.597 82.5982C332.269 97.0347 335.906 107.111 337.139 89.2967C335.623 83.6845 342.715 87.4843 338.805 78.5917C325.116 82.6386 340.259 60.9764 340.016 79.5193C344.849 78.4084 341.594 93.5687 345.886 78.7461C361.808 92.0351 351.043 74.2547 342.135 70.3381C350.099 60.0998 359.136 69.7416 367.289 70.5395C361.635 74.0501 370.57 73.8528 373.123 77.1282C371.456 74.5893 370.395 62.076 377.569 55.151C373.103 54.8189 366.711 74.1361 365.618 58.3521C371.857 51.2626 376.048 45.1921 381.889 49.2949C392.153 47.3149 375.448 41.2949 385.239 39.4189C381.585 28.3443 398.198 44.5314 394.897 34.5819C388.468 31.4206 399.7 20.0383 402.321 30.2856C410.733 27.7964 390.544 37.5831 401.929 36.9945C398.023 43.0275 389.939 71.5562 399.128 63.7245C396.813 54.2603 415.965 16.8446 411.203 42.4829C412.861 45.4127 417.638 58.5216 418.385 43.7798C419.341 34.8848 421.825 33.7739 417.941 26.8096C422.224 18.8422 444.611 25.1558 428.024 35.0438C436.181 36.2229 423.44 43.9964 434.319 37.0583C428.858 52.3229 442.164 44.3884 437.73 31.5215C445.871 24.6858 449.48 38.3204 457.226 31.6868C460.535 40.2173 463.939 35.2761 473.539 40.8204C472.776 56.1682 452.184 59.2629 444.515 58.8685C458.452 54.36 467.697 76.1699 466.248 63.5133C478.916 60.5059 484.14 81.0581 468.867 73.392C469.771 82.9102 458.47 93.2281 458.188 100.493C449.967 91.7745 468.307 72.4623 444.495 71.7559C434.007 55.3064 428.295 70.5239 416.291 73.5226C406.264 92.1654 418.268 113.618 404.067 128.718C393.7 123.202 385.989 121.074 377.487 130.282C363.291 135.399 354.276 95.8613 346.484 113.574C349.039 120.973 326.622 114.134 337.573 127.698C335.027 138.938 338.663 151.573 320.274 142.773C296.74 125.073 315.465 176.302 297.092 159.41C284.55 167.353 275.81 186.442 281.939 200.931C268.149 213.093 271.349 237.436 253.78 239.552C257.475 260.933 249.407 280.811 238.633 298.872C254.327 305.024 244.671 330.54 229.175 318.614C215.013 324.628 203.322 345.511 210.502 360.077C204.375 372.372 213.377 384.755 210.418 396.991C197.874 414.417 234.43 425.473 213.322 438.68C203.122 446.65 226.403 480.963 199.554 485.136C191.393 495.793 202.799 517.572 187.647 523.121C188.241 504.612 172.292 525.671 174.118 504.962C170.475 494.289 166.981 522.182 165.396 512.057C154.619 521.452 148.974 517.051 138.504 529.942C129.508 539.03 120.175 550.507 104.418 550.703C98.7714 548.821 92.1224 552.899 90.1797 545.039L90.1777 545.039ZM93.4096 454.081C81.2973 466.764 92.2873 448.188 93.4096 454.081V454.081ZM68.6039 456.211C66.6697 451.935 67.8987 460.516 68.6039 456.211V456.211ZM99.9914 452.379C93.9694 448.928 96.5957 462.077 99.9914 452.379V452.379ZM68.3441 435.939C63.0354 430.248 72.905 445.676 68.3441 435.939V435.939ZM72.7237 434.552C61.3901 430.289 82.531 446.79 72.7237 434.552V434.552ZM106.718 427.002C101.985 420.266 94.5692 429.596 87.8675 423.043C93.5958 429.491 104.243 423.573 106.718 427.002ZM84.7957 423.898C72.0063 426.738 91.4632 419.628 84.7957 423.898V423.898ZM93.8975 397.331C84.0198 394.331 96.6816 394.18 93.8975 397.331V397.331ZM88.6827 394.275C85.3715 388.595 87.5428 399.069 88.6827 394.275V394.275ZM93.5723 385.136C86.7375 396.699 94.7155 368.981 93.5723 385.136V385.136ZM115.424 381.343C109.071 384.139 113.485 372.874 115.424 381.343V381.343ZM113.131 376.434C110.054 370.524 111.798 380.447 113.131 376.434V376.434ZM126.984 371.15C119.498 374.434 122.22 368.393 126.984 371.15V371.15ZM140.827 364.925C129.682 354.612 149.832 375.634 140.827 364.925V364.925ZM136.11 356.998C131.701 352.277 139.163 367.176 136.11 356.998V356.998ZM142.629 358.1C139.32 365.306 141.374 351.409 142.629 358.1V358.1ZM139.043 353.973C134.778 349.387 141.807 359.338 139.043 353.973V353.973ZM129.986 350.523C128.589 349.122 130.69 355.079 129.986 350.523V350.523ZM140.431 349.861C137.943 352.441 139.195 346.757 140.431 349.861V349.861ZM147.495 339.078C144.988 337.87 150.168 344.9 147.495 339.078V339.078ZM221.856 275.179C217.928 279.7 222.471 271.8 221.856 275.179V275.179ZM221.547 250.811C215.138 260.072 227.319 234.107 221.547 250.811V250.811ZM222.415 241.823C210.896 245.286 233.111 230.726 222.415 241.823V241.823ZM228.425 238.453C222.839 237.333 227.062 228.49 228.425 238.453V238.453ZM241.076 232.611C232.774 230.458 235.918 237.213 241.076 232.611V232.611ZM244.929 231.695C236.864 237.251 249.53 226.384 244.929 231.695V231.695ZM235.774 230.075C232.219 233.172 235.336 228.035 235.774 230.075V230.075ZM238.224 221.101C232.593 218.117 239.087 223.872 238.224 221.101V221.101ZM267.227 195.518C255.241 198.19 257.164 185.401 267.227 195.518V195.518ZM256.004 193.078C252.596 196.638 254.536 189.772 256.004 193.078V193.078ZM269.017 183.367C261.001 178.841 263.707 184.896 269.017 183.367V183.367ZM274.489 162.408C270.802 168.998 272.167 159.521 274.489 162.408V162.408ZM296.9 134.717C293.975 131.615 295.888 137.93 296.9 134.717V134.717ZM304.063 115.159C299.224 89.5834 302.379 124.58 304.063 115.159V115.159ZM322.806 110.269C320.845 104.733 321.834 115.535 322.806 110.269V110.269ZM320.94 107.512C315.55 105.112 315.56 108.891 320.94 107.512V107.512ZM316.597 104.768C312.177 102.065 312.725 85.3108 316.597 104.768V104.768ZM351.345 67.6424C344.7 66.6827 354.722 75.4673 351.345 67.6424V67.6424ZM461.671 66.1093C460.273 64.7082 462.374 70.6652 461.671 66.1093V66.1093ZM70.8509 503.962C70.7612 497.052 80.4588 502.848 70.8509 503.962V503.962ZM55.8179 493.559C54.3913 488.455 60.6081 495.07 55.8179 493.559V493.559ZM63.5152 479.219C67.5697 459.902 68.564 491.353 63.5152 479.219V479.219ZM64.2389 466.801C66.8095 461.878 68.9125 471.919 64.2389 466.801V466.801ZM82.3474 464.828C82.1797 470.509 86.5711 456.93 82.3474 464.828V464.828ZM63.398 445.544C58.9506 444.005 59.3856 431.869 63.398 445.544V445.544ZM61.7941 435.066C62.27 439.167 65.7353 429.477 61.7941 435.066V435.066ZM69.9435 399.568C71.9106 405.233 71.9107 393.904 69.9435 399.568V399.568ZM74.9555 388.914C74.7286 377.09 81.1375 396.924 74.9555 388.914V388.914ZM83.7974 378.38C85.7647 372.715 85.7647 384.045 83.7974 378.38V378.38ZM99.6714 365.322C99.2819 358.214 108.105 367.713 99.6714 365.322V365.322ZM104.644 362.187C106.777 355.505 107.748 364.332 104.644 362.187V362.187ZM134.844 341.3C125.466 331.965 151.59 340.352 134.844 341.3V341.3ZM143.9 329.737C145.48 320.61 161.725 331.398 143.9 329.737V329.737ZM201.507 278.877C202.575 271.787 212.383 279.343 201.507 278.877V278.877ZM208.167 257.529C208.617 247.665 220.872 261.147 208.167 257.529V257.529ZM211.744 246.36C213.826 243.436 213.826 249.283 211.744 246.36V246.36ZM213.985 222.9C204.954 218.149 224.493 221.889 213.985 222.9V222.9ZM254.929 142.851C263.529 138.294 243.351 137.642 256.344 131.25C262.04 132.159 263.329 115.297 265.292 132.685C268.938 136.277 257.987 147.612 254.929 142.851ZM286.718 134.265C287.996 121.638 295.117 136.177 286.718 134.265V134.265ZM280.279 127.057C278.032 116.771 290.168 131.565 280.279 127.057V127.057ZM284.273 125.771C285.979 121.957 287.717 127.226 284.273 125.771V125.771ZM315.241 88.6687C306.916 83.0398 312.781 79.3161 315.237 77.2555C315.874 62.7156 321.166 86.1143 322.568 83.5963C320.419 85.083 319.248 94.9242 315.241 88.6687ZM322.695 75.9534C319.244 60.5406 335.502 89.3998 322.695 75.9534V75.9534ZM320.334 77.9425C315.949 71.1453 327.965 79.0553 320.334 77.9425V77.9425ZM360.941 66.8569C353.939 54.0007 378.229 72.2704 360.941 66.8569V66.8569ZM354.357 59.1904C349.186 51.2038 361.023 49.3877 365.464 49.0565C377.229 30.3944 365.641 66.2325 354.357 59.1904ZM376.39 39.3827C371.378 30.8248 385.69 37.9984 376.39 39.3827V39.3827ZM384.72 33.1221C382.486 23.9728 391.328 35.9161 384.72 33.1221V33.1221Z" fill="#E2F1E4" stroke="#303F36" stroke-opacity="0.5" stroke-width="0.915033"/>
<path d="M214.934 661.257C197.728 659.031 215.501 650.931 208.401 642.49C205.669 633.422 194.261 619.49 207.844 624.196C197.592 615.446 217.084 613.953 204.374 605.341C196.249 593.256 191.855 580.856 189.994 572.867C181.935 563.146 194.742 550.241 187.608 541.085C178.358 549.356 184.363 537.525 178.907 536.55C177.611 529.374 176.407 496.197 185.092 516.92C195.548 509.914 189.307 491.452 194.457 482.303C203.278 479.056 208.783 467.857 210.707 457.052C208.557 447.188 199.472 433.852 214.268 432.026C225.223 418.105 203.833 415.027 204.595 404.583C206.44 395.031 208.634 385.452 204.832 376.122C203.64 368.796 207.96 361.073 206.866 353.867C205.976 340.298 212.685 321.091 226.964 315.551C240.142 321.841 246.109 313.269 243.461 301.136C229.451 294.183 250.52 278.633 251.854 268.106C252.149 257.344 254.652 246.806 252.469 236.09C261.769 237.427 268.508 229.899 266.771 221.512C270.935 210.788 286.82 202.33 279.29 189.9C273.374 179.606 288.995 177.377 287.016 164.867C291.266 154.661 301.188 163.16 304.546 160.491C311.159 154.656 300.65 138.093 311.708 139.482C318.58 141.389 341.034 149.822 333.506 137.284C342.47 129.341 326.279 109.593 345.148 120.549C351.629 136.086 371.929 136.155 380.847 147.846C396.485 154.689 383.165 173.718 394.324 181.392C390.856 193.699 406.138 206.133 398.736 220.154C404.865 230.229 416.484 246.005 395.469 241.884C392 249.887 386.221 237.264 382.364 243.843C377.631 241.422 379.083 255.85 379.921 256.115C372.941 253.059 372.575 260.945 368.396 263.354C374.666 263.333 369.995 278.277 368.561 276.757C361.378 281.428 364.142 289.522 369.315 293.45C376.667 302.131 360.166 307.732 360.344 320.087C353.988 333.201 351.99 326.542 343.381 337.418C341.033 342.795 338.069 334.477 337.703 341.486C334.447 341.031 329.694 353.413 327.057 349.136C324.439 352.791 317.755 358.273 322.194 361.429C315.377 366.686 310.942 365.523 312.253 375.904C310.5 387.884 296.003 373.269 303.818 387.045C312.558 390.09 296.616 401.093 304.204 408.95C306.748 418.27 294.71 405.593 299.135 417.735C300.336 424.55 298.087 430.428 300.439 437.817C298.823 446.97 306.732 455.558 311.295 454.849C315.95 452.406 327.523 469.701 326.765 467.707C318.465 468.77 335.865 470.574 334.718 477.519C341.457 484.259 329.243 483.339 338.092 487.433C330.08 487.997 324.129 503.398 319.055 499.668C318.589 505.296 337.849 494.737 328.016 507.358C319.736 498.966 329.236 515.721 317.631 516.641C313.853 529.888 312.795 512.445 307.419 522.255C307.506 529.973 291.059 533.299 281.665 532.456C287.64 530.807 301.938 536.175 292.161 541.491C296.178 545.594 293.386 551.72 292.395 556.942C297.755 564.886 283.952 560.108 293.605 568.531C288.495 575.623 290.698 588.059 288.588 595.487C287.039 606.099 280.986 620.897 275.099 631.83C269.312 630.222 249.316 625.846 249.833 633.881C243.653 632.078 232.15 644.339 240.445 654.733C236.745 662.946 223.391 655.366 214.932 661.256L214.934 661.257ZM286.111 627.388C283.487 611.024 294.016 593.02 301.468 582.174C296.204 596.696 293.811 615.289 286.111 627.388ZM322.926 598.57C326.542 588.314 315.579 574.761 327.608 564.782C334.971 555.59 336.263 563.688 343.932 555.2C350.366 557.718 327.627 571.452 338.832 579.453C332.603 582.829 329.677 596.874 322.926 598.57ZM183.631 556.993C184.029 544.693 192.157 554.697 183.631 556.993V556.993ZM182.235 550.753C176.813 539.035 198.351 545.528 185.176 549.518C183.877 549.356 183.597 551.875 182.235 550.753ZM296.029 546.799C289.675 538.943 301.572 544.814 296.029 546.799V546.799ZM321.264 520.326C321.496 515.072 327.313 519.232 321.264 520.326V520.326ZM323.868 515.455C327.899 518.313 328.945 504 323.868 515.455V515.455ZM327.456 498.322C330.139 488.375 333.587 499.298 327.456 498.322V498.322ZM332.652 492.274C334.781 497.67 339.201 483.21 332.652 492.274V492.274Z" fill="#E2F1E4" stroke="#303F36" stroke-opacity="0.5" stroke-width="0.915033"/>
<path d="M417.933 480.273C417.153 478.804 412.774 477.502 416.774 473.03C411.419 470.884 407.974 485.803 403.246 472.667C404.654 469.269 394.734 467.951 397.722 462.036C395.86 455.789 385.237 463.219 389.279 455.107C384.548 464.127 374.541 457.757 380.458 450.834C374.32 435.417 386.939 418.931 376.032 404.061C374.775 391.737 366.3 380.725 368.428 367.569C374.273 359.754 373.798 340.206 378.175 346.97C385.409 347.846 378.118 338.109 386.185 343.731C384.646 346.241 384.298 325.579 394.943 326.792C392.751 323.94 390.822 319.85 399.125 319.102C405.845 310.079 412.765 297.208 417.248 285.942C414.223 272.914 433.279 276.21 431.409 273.86C424.239 269.663 436.995 271.112 428.191 264.134C434.48 246.227 411.781 247.111 405.9 237.812C395.477 227.355 400.216 211.509 396.587 199.26C388.544 191.262 391.698 184.573 390.059 176.465C379.973 175.078 391.438 155.248 381.089 150.316C377.327 140.864 365.523 140.336 358.335 134.934C351.478 131.309 342.182 120.218 337.059 117.31C341.84 111.013 346.275 119.103 344.684 108.33C359.16 97.8748 359.581 129.648 373.065 128.271C380.436 134.149 383.617 120.883 388.337 121.443C394.693 124.611 406.562 130.494 405.154 117.006C417.355 112.955 405.897 95.6528 410.057 85.2947C409.552 76.8151 416.778 67.0251 425.319 67.393C432.884 50.1785 442.343 72.804 455.04 74.3209C464.031 81.4157 450.97 92.0359 456.571 99.2948C448.534 108.212 461.829 101.312 456.69 112.521C450.855 126.483 462.022 134.156 472.56 138.75C484.202 147.023 487.669 157.819 479.471 170.58C471.826 187.42 492.703 198.722 498.489 212.933C502.654 221.316 506.719 227.314 500.232 231.118C497.805 242.921 508.571 247.695 503.042 256.448C503.411 265.485 518.664 259.093 513.013 270.703C512.652 281.538 526.701 280.307 527.01 289.315C528.42 294.51 520.719 301.232 523.183 305.038C530.293 314.567 544.236 312.382 550.953 321.761C561.394 325.349 558.202 337.981 556.64 347.023C550.163 362.588 541.272 377.083 535.825 393.115C529.048 405.167 524.05 416.204 516.415 426.981C510.692 436.296 510.461 446.466 496.479 443.054C488.133 449.494 480.378 450.769 473.975 456.084C464.231 459.528 450.828 463.934 444.414 472.386C438.865 466.875 420.185 485.44 417.376 481.401L417.797 480.546L417.932 480.273L417.933 480.273ZM404.713 466.799C400.062 471.101 404.38 466.783 404.713 466.799V466.799ZM373.808 484.222C372.895 477.562 380.29 485.577 373.808 484.222V484.222ZM361.875 481.311C363.658 476.774 365.243 484.835 361.875 481.311V481.311ZM356.435 480.229C350.028 476.931 337.893 473.897 351.312 468.168C350.518 459.832 369.708 472.331 360.216 473.764C362.744 475.771 360.284 485.642 356.435 480.23V480.229ZM365.888 479.848C366.974 473.837 370.782 482.941 365.888 479.848V479.848ZM386.749 474.659C384.991 467.372 404.829 471.425 386.749 474.659V474.659ZM381.368 471.076C384.261 460.952 387.569 474.365 381.368 471.076V471.076ZM393.386 466.576C394.854 462.548 395.893 469.083 393.386 466.576V466.576ZM370.783 470.5C367.707 462.54 372.579 467.721 370.783 470.5V470.5ZM391.463 464.086C391.115 455.306 399.438 467.706 391.463 464.086V464.086ZM382.633 464.702C381.646 457.959 385.701 466.857 382.633 464.702V464.702ZM360.397 466.489C361.768 463.22 363.28 469.662 360.397 466.489V466.489ZM366.831 360.629C368.614 356.093 370.199 364.153 366.831 360.629V360.629ZM367.551 352.484C359.212 344.783 380.179 347.541 367.551 352.484V352.484ZM368.461 345.888C368.157 338.863 374.501 348.569 368.461 345.888V345.888ZM418.722 272.499C413.546 259.339 437.583 272.095 418.722 272.499V272.499Z" fill="#E2F1E4" stroke="#303F36" stroke-opacity="0.5" stroke-width="0.915033"/>
<path d="M183.044 698.243C181.154 695.34 182.625 693.215 180.685 695.789C177.088 692.703 173.84 697.577 171.145 696.792C168.377 693.07 161.123 693.04 160.399 688.666C165.599 688.762 158.231 683.303 163.897 681.833C169.119 679.149 171.816 690.936 176.349 685.828C176.128 682.543 180.88 687.59 178.094 683.398C177.399 680.608 182.964 682.367 184.704 683.219C186.85 685.768 189.406 683.33 185.612 683.531C185.686 680.983 188.705 684.441 188.434 681.455C191.548 680.963 191.375 679.684 192.193 677.611C194.384 678.29 202.134 680.601 197.321 682.863C193.575 680.235 190.122 686.458 188.592 685.365C189.318 689.704 182.194 693.544 184.695 698.929C184.075 699.057 183.45 698.674 183.044 698.243L183.044 698.243ZM182.468 692.648C180.413 695.672 181.596 689.285 182.468 692.648V692.648ZM181.069 689.143C180.281 688.519 181.832 690.518 181.069 689.143V689.143ZM180.586 687.994C178.388 683.487 180.329 690.013 180.586 687.994V687.994ZM152.128 691.581C150.848 688.776 150.936 686.254 152.986 684.605C152.482 680.484 157.2 678.012 158.355 674.094C160.673 679.306 154.044 684.934 153.758 690.686C153.766 691.268 152.54 692.738 152.128 691.581L152.128 691.581ZM121.85 687.549C119.834 687.003 116.474 688.29 115.479 685.181C111.462 683.59 106.447 683.558 103.001 682.893C101.655 677.46 104.556 672.41 102.837 667.101C105.172 660.051 97.7422 659 95.0745 654.361C92.3027 651.914 98.4753 662.054 93.821 657.305C85.4953 654.591 94.8164 647.286 92.2469 641.327C91.6163 638.513 92.5117 634.368 93.2559 639.798C91.5735 645.458 99.7831 640.274 96.6629 637.887C97.539 635.307 91.7168 627.696 92.7159 634.499C89.9985 639.175 91.4698 629.115 91.6969 627.206C92.0695 623.618 91.6061 616.722 95.922 622.227C97.628 620.239 90.6704 619.327 92.2926 616.602C91.8747 613.744 92.8659 604.671 95.5981 605.799C94.3891 611.186 98.7376 610.049 102.033 611.576C103.008 608.473 97.0611 605.56 96.8751 603.147C95.6561 607.741 94.8151 597.975 97.6317 596.878C100.707 592.098 104.066 585.935 110.314 587.758C115.688 584.4 123.235 589.415 127.366 582.831C131.221 578.165 132.984 572.108 137.432 567.873C144.039 570.535 147.491 561.622 153.061 562.018C151.467 564.36 145.346 569.874 150.771 573.148C150.446 578.857 152.053 584.946 147.621 589.563C144.415 594.922 143.377 601.034 145.423 607.074C143.435 605.549 139.781 606.877 144.526 607.742C148.815 609.317 142.312 611.158 146.675 613.389C150.94 616.774 158.163 610.445 160.284 617.936C159.386 622.954 155.226 627.555 153.532 631.063C152.766 628.276 151.85 626.502 150.116 629.806C151.602 634.286 147.907 632.114 148.201 629.552C145.534 632.567 144.156 626.57 147.676 626.565C147.607 621.525 140.742 631.418 143.737 634.57C143.611 637.16 142.788 645.785 140.267 643.462C138.617 638.771 132.835 645.866 138.364 643.882C135.832 640.654 141.369 643.431 138.032 645.691C139.374 650.631 130.864 652.054 128.768 649.368C123.267 647.505 133.731 653.301 132.876 653.178C132.592 657.259 121.253 657.525 128.161 658.942C125.672 662.339 126.831 668.441 130.543 668.744C128.24 670.369 126.854 672.526 124.06 673.263C126.368 675.061 121.689 678.588 124.434 677.905C127.53 678.271 128.048 679.503 127.242 676.834C130.97 674.036 134.403 679.524 137.224 681.14C139.281 684.974 133.786 687.464 130.706 684.366C128.868 684.61 130.206 689.401 126.475 686.451C124.907 685.37 122.251 689.253 121.851 687.548L121.85 687.549ZM130.457 680.461C127.25 680.568 128.937 677.853 130.457 680.461V680.461ZM106.364 614.419C108.906 612.252 104.043 608.616 108.803 606.687C110.334 605.272 113.087 606.428 109.837 605.027C111.944 602.85 113.679 598.311 115.512 600.436C111.665 602.275 120.24 601.214 117.441 605.754C115.664 607.49 114.982 614.254 117.115 609.295C117.711 608.371 123.542 610.58 120.242 606.295C116.184 608.105 120.777 602.974 117.942 601.328C116.989 595.701 123.189 590.089 128.256 594.11C126.37 597.349 131.931 588.789 134.801 591.219C134.744 590.484 132.668 591.967 133.548 589.798C129.539 592.481 123.864 590.682 119.556 593.97C116.561 589.111 110.374 594.931 107.3 595.179C103.79 600.064 111.174 595.449 112.63 594.16C112.969 597.584 110.363 599.351 111.454 602.147C109.738 604.8 106.842 608.686 104.433 605.483C102.584 605.863 105.617 602.975 102.647 603.367C104.129 606.937 95.5884 606.772 102.21 606.487C104.487 605.863 105.576 609.055 104.276 608.221C104.118 610.914 102.193 610.451 104.244 613.187C104.066 614.33 105.564 615.154 106.363 614.419L106.364 614.419ZM104.854 612.944C103.962 608.626 107.811 611.342 104.854 612.944V612.944ZM115.956 598.123C115.584 595.446 118.406 599.265 115.956 598.123V598.123ZM122.014 612.815C123.536 611.852 118.448 613.811 120.493 610.705C118.814 611.535 120.482 614.016 122.014 612.815ZM103.274 602.353C106.063 601.059 105.011 600.343 105.792 597.238C105.516 598.222 99.9149 604.026 103.274 602.353ZM144.477 686.524C141.836 685.311 138.543 678.066 143.494 682.443C145.319 684.088 146 683.417 147.4 684.708C151.312 684.77 145.194 690.051 144.477 686.524ZM172.646 685.188C171.405 683.633 175.175 684.52 172.646 685.188V685.188ZM150.547 684.472C149.952 680.326 152.882 686.251 150.547 684.472V684.472ZM169.913 682.982C168.91 679.724 174.615 682.511 169.913 682.982V682.982ZM149.06 681.39C146.981 678.688 154.634 676.97 149.073 678.838C145.827 678.39 141.62 676.069 140.46 677.118C137.169 676.579 138.082 674.985 139.56 673.742C137.658 670.933 135.867 671.897 136.662 674.579C134.346 672.532 135.363 670.348 133.436 668.023C134.347 664.687 129.981 663.931 131.413 661.504C125.719 659.967 131.14 653.221 134.377 657.342C138.982 655.57 143.984 650.18 147.354 655.426C152.541 655.416 145.092 662.242 148.458 659.877C152.528 659.273 149.946 658.089 150.414 657.382C151.694 656.117 151.07 650.79 153.182 655.903C155.341 658.334 154.186 659.515 153.414 660.879C156.895 664.983 156.799 667.179 156 671.679C156.417 674.725 153.562 680.28 151.928 678.086C153.848 680.179 151.796 684.593 149.06 681.389L149.06 681.39ZM173.226 681.973C172.623 678.396 177.454 683.187 173.226 681.973V681.973ZM184.259 681.804C182.967 681.047 175.607 677.668 177.73 676.93C182.435 678.478 179.103 677.451 178.41 674.904C182.029 674.401 176.843 673.677 177.558 672.317C174.736 672.523 169.902 671.316 166.947 671.317C166.642 669.824 165.953 665.498 164.175 665.693C161.588 664.887 168.762 660.531 163.591 658.371C161.865 657.051 166.978 654.646 162.631 653.052C160.476 652.432 157.761 651.267 161.486 650.855C160.163 649.019 155.171 647.869 160.412 647.743C162.7 648.291 165.961 646.859 165.054 648.791C168.456 648.947 170.056 645.328 170.236 644.095C176.558 642.851 171.111 638.154 167.562 637.637C170.253 637.209 177.404 639.336 180.268 638.696C179.084 640.358 180.25 644.054 177.242 641.49C179.119 643.928 179.914 646.417 176.58 645.527C176.738 646.526 180.726 646.283 180.383 648.985C182.14 652.112 180.373 643.808 183.855 643.985C180.65 639.995 186.16 638.447 185.814 643.388C187.935 645.559 186.551 649.553 185.387 649.984C188.824 649.081 186.857 640.231 184.356 639.291C177.695 639.899 187.554 633.677 189.687 632.18C192.698 630.458 201.352 632.93 199.653 637.311C196.454 640.433 200.477 646.28 200.961 650.749C204.66 654.573 197.937 658.891 197.769 653.052C194.481 653.791 186.242 659.181 192.705 662.292C198.933 663.558 196.432 672.447 189.896 670.682C184.814 672.874 191.617 675.099 188.657 677.207C191.428 680.717 186.815 682.107 184.26 681.803L184.259 681.804ZM187.171 673.554C185.448 671.89 187.461 675.796 187.171 673.554V673.554ZM145.437 681.415C142.249 678.666 149.934 680.9 145.437 681.415V681.415ZM141.886 678.655C140.834 675.733 144.356 679.863 141.886 678.655V678.655ZM189.901 678.518C189.135 676.046 192.686 678.235 189.901 678.518V678.518ZM139.289 677.869C138.999 674.99 141.659 679.655 139.289 677.869V677.869ZM98.5355 675.762C96.2819 674.614 99.7492 666.447 101.564 671.129C100.156 672.499 101.758 676.497 98.5355 675.762ZM124.713 674.6C125.147 676.72 125.71 671.716 124.713 674.6V674.6ZM165.264 672.105C162.439 668.18 167.726 671.315 165.264 672.105V672.105ZM100.391 667.252C98.4205 664.804 103.994 666.772 100.391 667.252V667.252ZM131.116 666.26C132.457 662.937 132.463 669.177 131.116 666.26V666.26ZM159.01 666.233C160.427 662.744 160.92 667.049 159.01 666.233V666.233ZM97.701 663.745C95.2615 661.38 97.018 656.039 98.9948 660.858C98.8335 661.615 99.516 665.293 97.701 663.745ZM203.424 653.808C200.273 648.235 206.675 651.915 203.424 653.808V653.808ZM142.664 647.534C142.434 645.738 147.036 645.912 143.464 647.708L142.664 647.534ZM149.643 646.931C148.035 643.637 151.625 641.026 149.313 638.289C149.718 633.162 153.308 643.53 152.849 643.22C151.931 644.763 152.666 648.46 149.643 646.931L149.643 646.931ZM164.199 642.499C160.336 639.441 166.722 640.93 165.339 643.076L164.199 642.499ZM146.75 639.71C145.468 636.04 150.019 640.772 146.75 639.71V639.71ZM173.855 607.433C171.391 604.769 179.939 604.466 175.361 607.584C175.278 608.658 174.121 607.897 173.855 607.433ZM160.961 585.527C154.115 582.752 164.37 577.479 165.919 580.943C163.01 581.426 163.522 584.943 160.961 585.527Z" fill="#E2F1E4" stroke="#303F36" stroke-opacity="0.5" stroke-width="0.915033"/>
<path fill-rule="evenodd" clip-rule="evenodd" d="M253.3 680.711L245.021 675.214C245.021 675.214 248.126 668.342 252.265 668.342C256.404 668.342 264.682 672.465 261.578 676.588C258.474 680.711 253.3 680.711 253.3 680.711H253.3Z" fill="#E2F1E4" stroke="#303F36" stroke-opacity="0.5" stroke-width="0.915033"/>
<path d="M97.4249 135.196C90.1191 135.811 84.2869 129.482 76.8349 129.588C68.5317 129.096 64.9879 119.232 57.2586 116.789C52.931 113.731 47.6828 118.116 43.0994 116.101C37.9717 115.973 31.7594 117.061 27.5613 116.19C27.7761 113.39 27.1436 100.937 31.3465 108.028C32.9675 111.347 39.4051 107.077 40.7988 105.956C42.2269 103.844 40.9408 104.393 41.0679 102.61C47.6618 104.838 41.0537 96.9272 45.6148 95.9523C42.257 98.6335 37.405 97.5582 41.2186 93.7113C41.0511 89.8455 44.3848 86.377 39.7786 90.6257C36.9083 89.5554 33.3629 83.6371 35.3838 79.9225C34.8419 74.8445 28.0577 78.3905 23.1544 76.022C17.3637 71.9824 14.1555 80.5824 9.00795 77.0419C5.63102 73.5655 7.78766 67.8586 12.1883 70.6467C15.7474 72.1727 19.3708 66.2724 21.4622 69.849C21.4112 64.7686 28.0269 69.7295 29.2342 65.8464C31.5532 61.4856 30.8586 70.2177 34.6696 66.0953C39.8693 65.4219 48.5598 70.7759 47.4325 61.2679C43.9934 66.837 35.1225 61.8682 33.0948 62.7247C30.2853 60.0696 39.7448 55.0127 43.7467 52.6969C46.6433 50.4601 48.7893 52.1271 44.6047 50.1129C42.8126 47.8365 42.4464 48.9046 39.9128 51.2523C33.7427 49.6708 39.6902 46.8585 40.1381 46.5885C37.1677 46.7175 34.5976 49.5003 35.4412 43.5359C34.7839 42.3136 34.0627 48.376 33.7884 43.3675C33.2137 48.9216 32.3443 45.2895 31.7967 43.6944C34.1527 50.9905 27.0463 46.3375 29.9876 43.7476C28.0699 47.9054 23.5232 42.8051 23.8852 47.7668C17.9453 46.7166 11.5441 53.9883 7.42924 46.3355C3.69911 46.94 -1.85376 46.4063 3.97307 42.8628C3.85444 34.034 14.6369 49.3302 9.31988 40.199C15.1574 42.6608 4.83302 33.4863 10.6932 34.0222C14.8754 34.8498 17.9885 41.2511 19.7201 41.0173C22.1676 40.0618 15.0939 36.4507 22.2621 37.074C28.3519 34.8352 13.4613 38.7699 13.9205 32.6106C10.78 24.1092 26.5864 36.2834 18.1849 29.8792C11.8137 25.6777 17.344 22.0214 20.0355 24.6659C14.3031 21.6407 22.2102 15.2337 25.9869 20.6561C27.1854 22.5869 31.2176 27.5604 31.7259 26.1703C33.2954 21.9181 37.6113 32.3864 38.2002 31.296C38.8838 23.5083 32.8457 24.0747 28.7315 18.3839C30.9459 14.2963 39.8702 19.981 36.0411 16.9133C34.224 12.5933 24.6929 17.3391 26.4342 12.2187C31.7044 13.6934 23.0394 7.59084 29.574 8.98901C30.8198 4.94594 34.6073 12.4996 35.9477 8.11555C38.3671 9.62554 38.8742 8.22257 41.0431 12.3853C42.8269 14.1053 41.8769 16.8987 44.9494 16.9156C47.522 18.7437 50.8212 21.5286 49.9497 25.5283C53.5971 23.6349 52.6079 28.157 56.63 28.7902C53.0432 29.3419 59.628 33.3621 55.7519 36.5709C55.3172 39.5691 52.8631 42.3001 50.1753 40.3123C50.4215 42.8689 55.9008 43.5918 53.7025 45.452C57.9627 42.9045 54.1394 50.7765 57.4192 52.7787C57.8815 55.0123 57.8049 62.0672 58.7179 55.5995C57.7991 49.6155 60.334 50.5109 61.4947 55.0918C59.4666 49.9245 61.3085 44.4756 65.6236 41.1422C68.8382 41.5249 65.774 47.5592 71.1704 44.504C77.0869 38.6125 64.6761 26.4833 74.1968 24.085C78.7298 25.082 79.6096 33.4669 83.5054 36.4499C84.0541 42.4645 91.0967 36.8799 86.3244 32.1034C85.0635 28.6659 88.2051 24.8678 92.2402 25.0365C92.3371 21.7017 96.3373 20.6624 96.3722 22.4713C98.1431 18.0129 100.743 26.066 102.369 26.2461C101.041 31.8356 108.912 31.5883 108.521 37.7142C109.528 44.1225 110.256 32.4322 107.253 31.7908C103.116 26.4278 105.646 18.0424 112.804 23.4516C115.346 28.1185 121.072 31.7415 121.921 24.2371C121.337 20.2087 127.784 17.7256 128.686 23.2026C137.492 21.5394 135.397 13.9058 133.554 7.86113C136.244 7.14395 140.338 6.59417 142.482 5.78857C145.312 8.26969 145.125 10.8236 148.704 13.0677C144.449 17.0729 156.186 23.543 153.863 16.6818C158.84 16.5817 159.63 8.79958 164.985 11.221C171.514 10.3884 156.861 14.5516 161.212 17.9242C160.754 21.5708 155.529 22.2046 159.234 23.5277C160.98 28.6346 167.004 19.6647 167.125 27.4356C167.456 31.7209 159.642 39.622 168.283 35.6991C171.9 33.2976 172.678 34.1505 172.18 37.9609C176.773 41.8008 182.347 40.9156 185.018 45.0567C187.006 49.714 180.197 53.2481 183.728 53.4288C191.409 53.7805 178.368 59.8048 185.734 57.6624C185.573 61.4124 185.966 59.874 188.06 58.929C190.254 64.2085 184.573 69.246 180.508 64.0019C174.888 64.7008 192.465 69.1043 182.883 69.6285C188.22 73.2719 179.175 73.7158 181.225 76.4537C180.188 84.1756 169.367 72.0814 174.919 78.4497C180.533 81.948 172.198 80.0764 174.186 81.7635C168.558 86.112 173.264 84.5809 175.969 82.2027C174.414 87.4808 171.955 92.2168 166.796 94.9619C168.629 99.6954 157.673 99.1537 163.886 97.2908C161.631 96.4224 160.257 98.9596 157.867 95.6157C156.789 98.5586 158.131 98.0035 160.987 98.7717C152.706 99.1869 146.233 105.111 141.23 111.127C138.313 119.383 130.404 118.709 123.178 119.697C114.214 120.995 115.017 134.049 104.601 133.586C102.265 134.263 99.9324 135.572 97.4246 135.197L97.4249 135.196ZM48.9282 94.0396C54.6014 95.3 44.7741 92.5303 47.0515 95.4448L47.808 94.8635L48.9282 94.0396H48.9282ZM44.6172 87.8608C40.1771 89.5564 48.6933 84.4735 44.6172 87.8608V87.8608ZM31.4563 28.3699C30.6932 32.7995 31.4314 25.9156 31.4563 28.3699V28.3699ZM103.994 29.9455C102.461 25.071 106.901 30.5796 103.994 29.9455V29.9455Z" fill="#E2F1E4" stroke="#303F36" stroke-opacity="0.5" stroke-width="0.915033"/>
<path d="M37.0605 175.704C37.0605 175.704 109.932 182.645 146.37 163.559C182.809 144.474 212.302 132.328 222.712 101.098C233.123 69.8681 238.327 0.462891 238.327 0.462891" stroke="#E2F1E4" stroke-width="2.7451"/>
</svg>
