<svg width="999" height="679" viewBox="0 0 999 679" fill="none" xmlns="http://www.w3.org/2000/svg">
<path d="M983.82 14.5767H12.0254V667.141H983.82V14.5767Z" fill="#CDF6C5"/>
<path d="M694.18 518.652C685.68 513.126 679.231 502.216 671.692 488.19C679.769 499.216 688.744 511.178 694.18 518.652Z" fill="#F6DDCB"/>
<path d="M735.346 403.485C709.705 421.434 676.551 446.96 657.025 461.319C701.282 428.37 722.795 409.832 735.346 403.485Z" fill="#F6DDCB"/>
<path d="M981.257 391.19C981.013 391.19 981.436 581.101 981.257 602.075C983.59 606.293 975.783 601.485 956.898 604.319C758.744 661.614 549.039 587.652 737.834 511.46C769.295 498.165 801.424 452.819 827.86 452.152C841.975 505.408 954.936 394.742 981.257 391.19Z" fill="#FFC150"/>
<path d="M851.821 666.692V667.064C851.783 667.051 851.808 666.859 851.821 666.692Z" fill="#C1F4B7"/>
<path d="M51.0254 15.8589C56.9741 10.3589 62.0254 5.60254 62.0254 5.60254L51.0254 15.8589Z" fill="#C1F4B7"/>
<path d="M13.3076 49.1921L17.1538 45.7178L13.3076 49.1921Z" fill="#C1F4B7"/>
<path d="M985.103 604.32C985.103 604.32 983.629 604.089 981.257 603.845L985.103 604.32Z" fill="#C1F4B7"/>
<path d="M995.359 336.37L981.257 315.152C988.347 326.178 994.385 335.396 995.359 336.37Z" fill="#C1F4B7"/>
<path d="M821.192 353.255C822.359 359.14 823.564 364.575 823.564 364.575L821.192 353.255Z" fill="#C1F4B7"/>
<path d="M781.257 390.216L766.654 384.088C770.616 385.947 775.488 387.806 781.257 390.216Z" fill="#C1F4B7"/>
<path d="M845.359 354.319L839.372 342.69L845.359 354.319Z" fill="#C1F4B7"/>
<path d="M703.052 9.44873L707.872 15.859C704.924 11.9231 703.052 9.44873 703.052 9.44873Z" fill="#C1F4B7"/>
<path d="M981.257 637.436L991.513 637.654C991.513 637.654 987.359 637.564 981.257 637.436Z" fill="#C1F4B7"/>
<path d="M894.077 667.141L893.347 663.295C893.457 664.599 893.702 665.888 894.077 667.141Z" fill="#C1F4B7"/>
<path d="M89.2178 663.295C91.1537 664.577 93.1921 665.859 95.3588 667.141L89.2178 663.295Z" fill="#C1F4B7"/>
<path d="M335.103 0.474121L337.205 15.8587C337.529 10.6419 336.814 5.41278 335.103 0.474121Z" fill="#C1F4B7"/>
<path d="M981.257 207.513L992.795 217.141C989.654 214.257 985.808 210.962 981.257 207.513Z" fill="#C1F4B7"/>
<path d="M981.257 256.154L994.077 270.988C990.43 265.535 986.124 260.552 981.257 256.154Z" fill="#C1F4B7"/>
<path d="M668.423 563.024L682.526 533.806C681.052 534.998 667.321 546.396 668.423 563.024Z" fill="#C1F4B7"/>
<path d="M990.231 494.062L981.257 500.909C984.18 498.755 987.171 496.473 990.231 494.062Z" fill="#C1F4B7"/>
<path d="M995.359 551.755C990.915 552.55 986.214 553.52 981.257 554.665L995.359 551.755Z" fill="#C1F4B7"/>
<path d="M17.1541 563.435L1.76953 582.524C3.71825 580.242 9.88492 572.999 17.1541 563.435Z" fill="#C1F4B7"/>
<path d="M0.487305 315.857L17.154 322.422C11.7499 319.867 6.18211 317.674 0.487305 315.857Z" fill="#C1F4B7"/>
<path d="M242.59 662.641L241.808 663.295C241.641 663.039 241.923 662.821 242.59 662.641Z" fill="#C1F4B7"/>
<path d="M487.667 5.60254L489.244 15.8589C488.936 11.4615 490.411 7.24356 487.667 5.60254Z" fill="#C1F4B7"/>
<path d="M981.257 18.4229C981.257 18.4229 981.257 18.5639 981.257 18.8331C981.488 18.7177 981.5 18.5767 981.257 18.4229Z" fill="#C1F4B7"/>
<path d="M981.282 171.911L997.949 186.372C993.667 182.436 988.116 177.411 981.282 171.911Z" fill="#C1F4B7"/>
<path d="M241.833 663.295L242.615 662.641C241.923 662.821 241.641 663.039 241.833 663.295Z" fill="#C1F4B7"/>
<path d="M102.847 639.552L105.411 639.885C104.475 639.808 103.616 639.693 102.847 639.552ZM247.334 273.616C263.257 287.795 281.513 312.539 296.706 333.334L295.359 332.526C271.885 308.5 257.975 286.603 247.334 273.616ZM272.359 385.847C259.806 388.487 246.837 388.456 234.295 385.757C246.906 387.709 259.74 387.739 272.359 385.847ZM289.795 305.077C273.539 283.616 268.001 272.757 261.706 265.334C271.898 276.282 281.244 290.5 289.795 305.052V305.077ZM256.885 260.526C252.09 256.475 245.808 253.193 234.693 248.603C230.404 247.03 225.94 245.988 221.398 245.5C234.18 244.129 246.001 250.257 256.885 260.5V260.526ZM216.949 266.667C218.055 265.156 219.524 263.948 221.22 263.155C222.917 262.361 224.786 262.009 226.654 262.129C222.065 264.052 217.154 269.436 211.129 279.116C213.026 275.282 214.936 271.141 216.949 266.667ZM204.129 291.167L203.039 293.193L202.308 293.821C202.962 292.949 203.565 292.065 204.129 291.167ZM210.462 461.68C217.462 460.09 225.949 458.513 236.347 456.936C249.526 432.359 239.783 417.859 213.539 413.513C199.77 408.975 184.052 400.962 167.872 390.513C210.603 413.206 245.013 416.359 243.513 436.834C246.629 463.064 228.924 460.77 210.539 461.629L210.462 461.68ZM241.795 663.347C241.603 663.09 241.885 662.872 242.577 662.693L241.795 663.347ZM228.975 540.718C235.385 541.564 243.77 540.27 256.693 534.911C249.193 539.629 241.154 542.782 228.962 540.667L228.975 540.718ZM293.372 515.77L295.795 514.334L300.924 514.847C298.391 515.006 295.869 515.315 293.372 515.77ZM301.18 390.718C290.417 394.69 279.072 396.856 267.603 397.129C280.924 395.398 292.295 391.488 302.667 389.975C302.18 390.218 301.68 390.449 301.18 390.706V390.718ZM314.154 365.565C315.279 363.702 316.011 361.63 316.308 359.475C317.052 360.372 317.757 361.231 318.436 362.039C317.013 363.206 315.577 364.411 314.154 365.552V365.565ZM321.001 468.436L323.052 468.334C321.263 470.677 320.078 473.424 319.603 476.334C319.839 473.662 320.307 471.015 321.001 468.423V468.436ZM321.731 516C322.705 515.978 323.677 515.901 324.642 515.77C324.731 516.039 324.795 516.295 324.872 516.565C323.847 516.334 322.783 516.154 321.731 515.988V516ZM329.885 395.936C334.667 399.565 339.411 404.988 344.257 412.808C338.59 409.077 334.693 401.795 329.885 395.923V395.936ZM388.09 618.808L388.718 618.68L389.142 619.295L388.09 618.808ZM538.539 535.693C538.385 535.475 538.218 535.27 538.065 535.064C551.09 546.475 572.847 560.616 592.039 575.885C576.924 565.129 558.321 552.872 538.539 535.68V535.693Z" fill="#C1F4B7"/>
<path d="M851.82 666.692L852.166 663.295C852.051 664.808 851.91 666.051 851.82 666.692Z" fill="#C1F4B7"/>
<path d="M187.961 388.423C84.3459 268.987 33.192 271.756 99.7305 433.294C81.051 457.23 86.4997 478.076 131.5 474.551C303.641 442.615 131.295 518.897 231.833 509.525C264.384 503.294 269.513 454.23 312.987 453.576C451.897 447.82 215.436 390.884 187.961 388.423Z" fill="white"/>
<path d="M275.167 130.73C200.5 219.615 511.705 463.884 520.795 420.269C631.218 363.205 393.064 283.718 351.154 244.833C282.526 234.346 312.256 154.371 275.167 130.73Z" fill="white"/>
<path d="M772.731 96.5382C747.436 135.474 737.141 111.923 701.821 122.461C654.064 196.41 676.949 234.154 672.667 271.256C674.526 305.474 590.769 348.307 646.039 365.448C673.692 366.731 686.192 345.769 699.654 320.577C760.808 127.615 885.359 234.807 983.769 196.141C991.026 193.295 983.769 14.5895 983.769 14.5895C983.769 14.5895 829.41 8.17924 824.795 13.6023C804.756 36.8844 797.833 71.7433 772.731 96.5382Z" fill="white"/>
<path d="M781.256 265.859L781.551 266.475C781.538 266.077 781.449 265.872 781.256 265.859ZM657.013 461.308C676.538 446.949 709.667 421.436 735.333 403.475C722.795 409.834 701.282 428.372 657.013 461.308ZM671.692 488.231C679.231 502.257 685.679 513.167 694.179 518.693C688.743 511.18 679.769 499.218 671.692 488.193V488.231Z" fill="#F6DDCB"/>
<path d="M781.551 267.757L781.257 267.142C781.449 267.142 781.539 267.36 781.551 267.757C806.962 320.834 819.718 342.783 822.282 353.039C812.628 358.68 810.154 360.962 803.205 365.026C802 364.244 795.359 369.706 764.244 384.603C738.5 373.295 781.731 276.334 781.551 267.757ZM647.923 560.731C622.282 584.821 548.385 489.193 536.385 482.526C594.718 477.308 701.757 479.36 647.923 560.731Z" fill="#F6DDCB"/>
<path d="M929.654 639.974C882.577 648.859 899.18 689.205 838.064 648.564C719.898 632.269 691.667 662.41 494.577 477.461C382.949 374.615 304 315.551 225.346 212.077C171.808 165.436 135.603 -22.4491 19.9105 80.4868C2.19256 28.2048 54.0387 9.35864 140.987 17.1407C147.308 15.474 132.218 45.2433 153.962 69.2689C257.116 248.012 348.436 324.256 505.41 461.538C512.051 468.474 657.731 484.859 646.718 452.218C666.987 424.269 742.795 436.371 767.154 249.192C768.616 237.974 764.59 235.089 760.744 223.551C664.385 79.8715 721.526 151.948 654.193 144.961C585.705 96.8586 594.359 35.6279 498.654 27.615C445.359 -0.808027 708.334 10.3971 710.846 21.2048C782.244 105.256 707 66.6279 716.821 116.41C728.167 170.897 779.295 187.038 793.526 241.577C818.398 294.064 812.026 294.141 838.949 342.859C876.603 320.884 921.539 296.102 954.526 276.833C955.167 270.987 964.859 292.91 981.257 316.512C981.41 316.512 981.436 398.166 981 392.705C975.128 396.179 870.257 458.589 858.552 465.538C855.616 467.218 851.769 468.5 840.359 470.564C835.359 434.166 789.718 467.384 793.449 472.038L699.141 527.307C564.398 633.141 864.526 641.577 956.834 605.589C984.154 593.41 1012.87 645.436 929.654 639.974Z" fill="#F6DDCB"/>
<path d="M17.1543 81.2434C163.872 -37.5515 137.462 201.346 447.013 433.051C753.526 743.974 818.231 596.397 852.18 663.205" stroke="#AB894F" stroke-miterlimit="10"/>
<path d="M142.795 15.8589C151.359 162.115 449.333 412.09 508.09 462.192C517.795 471.064 632.282 470.795 643.859 464.756C650.808 446.615 642.577 450.872 653.846 444.397C747.628 393 746.577 344.487 764.872 267.282C771.923 241.641 762.308 211.051 734.013 183.628C670.808 75.5 687.205 180.936 645.949 135.449C601.436 92.6923 582.333 77.641 570.346 50.0897C537.756 15.8205 487.141 43.4743 487.667 5.60254" stroke="#AB894F" stroke-miterlimit="10"/>
<path d="M13.3076 49.1923C19.0127 44.0641 56.2307 11.7179 62.0256 5.60254" stroke="#AB894F" stroke-miterlimit="10"/>
<path d="M536.385 481.242C668.705 631.883 673.564 530.024 650.744 497.075C637.974 466.293 548.68 486.537 536.385 481.242Z" stroke="#AB894F" stroke-miterlimit="10"/>
<path d="M985.102 604.319C687.192 660.127 568.59 577.396 752.961 502.473C777.692 489.832 828.179 420.78 842.795 473.55C842.795 473.152 947.436 411.588 981.564 391.011" stroke="#AB894F" stroke-miterlimit="10"/>
<path d="M793.551 470.896C767.423 436.396 744.551 383.883 737 401.947C625.231 484.575 651.397 448.101 699.372 526.396" stroke="#AB894F" stroke-miterlimit="10"/>
<path d="M981.911 316.167C970.372 298.219 955.616 274.834 955.616 274.834L801.77 364.578L860.539 462.564" stroke="#AB894F" stroke-miterlimit="10"/>
<path d="M744.077 396.626L801.769 364.575" stroke="#AB894F" stroke-miterlimit="10"/>
<path d="M766.436 383.988C735.513 379.526 783.333 272.257 781.256 265.859C789.218 284.077 817.705 330.552 821.141 353.039" stroke="#AB894F" stroke-miterlimit="10"/>
<path d="M703.052 9.44873C704.475 14.3846 750.616 65.9872 742.641 76.4615C672.013 112.59 758.129 172.487 782.539 213.295C801.27 260.359 813.206 297.718 839.513 342.923" stroke="#AB894F" stroke-miterlimit="10"/>
<path d="M838.949 468.421C915.244 569.832 889.821 549.844 881.257 623.55" stroke="#AB894F" stroke-miterlimit="10"/>
<path d="M893.32 663C899.359 632.397 960.436 637.243 982.91 637.461" stroke="#AB894F" stroke-miterlimit="10"/>
<path d="M186.422 423.466C174.227 450.874 217.089 479.835 231.692 439.487C232.332 424.054 200.59 407.857 186.422 423.466Z" fill="#A4DFEF"/>
<path d="M377.968 296.617C367.249 323.615 401.55 347.156 414.385 307.412C408.751 296.617 390.421 281.243 377.968 296.617Z" fill="#A4DFEF"/>
<path d="M5.17969 640.691C89.0899 586.845 -34.8203 501.396 220.667 470.306" stroke="#A4DFEF" stroke-miterlimit="10"/>
<path d="M210.744 15.8589C123.654 87.8332 282.052 110.423 176.449 157.769C168.757 184.846 179.013 245.333 137.347 251.359C-15.9354 204.936 39.8081 245.128 114.962 350.654C145.513 389.115 153.654 379.846 213.59 413.474C288.398 448.218 214.526 457.461 180.424 472.449C134.27 542.192 93.744 496.077 72.3722 537.269C70.3851 647.731 40.7569 632.025 95.3594 667.179" stroke="#D07532" stroke-miterlimit="10"/>
<path d="M229.974 262.013C88.2693 374.103 255.41 400.064 289.654 379.693C368.077 377.731 231.795 261.244 229.974 262.013Z" stroke="#D07532" stroke-miterlimit="10"/>
<path d="M335.103 0.474121C358.18 93.6151 188.244 -15.4105 230.68 88.3075C363.834 145.166 249.423 149.987 338.949 236.384C491.27 288.948 445.936 303.448 509.462 306.897C525.116 347.756 541.705 385.846 594.936 360.013C773.231 253.807 590.795 103.461 723.052 192.448C746.718 171 686.949 154.743 702.116 129.32C739.5 81.8844 742.487 141.115 758.167 155.615C786.372 70.0126 920.898 118.346 997.91 186.384" stroke="#D07532" stroke-miterlimit="10"/>
<path d="M992.795 217.142C917.41 138.937 757.167 192.283 709.616 275.257C695.513 322.808 717.846 322.783 671.051 385.629C664 409.001 628.269 402.103 592.846 410.744C495.577 467.27 488.526 387.565 434.731 363.206C415.321 373.462 336.013 390.744 405.385 408.783C522.885 555.514 510.744 509.424 520.539 554.501C527.115 642.142 481.256 595.449 517.5 667" stroke="#D07532" stroke-miterlimit="10"/>
<path d="M572.282 606.884C554.41 601.537 546.795 639.153 573.667 634.319C584.898 629.576 587.295 615.05 572.282 606.884Z" stroke="#D07532" stroke-miterlimit="10"/>
<path d="M596.641 663.295C714.307 605.27 487.397 543.449 529.846 498.244C539.859 470.731 550.23 445.936 558.179 445.347C696.141 478.18 883.82 138.065 994.077 270.988" stroke="#D07532" stroke-miterlimit="10"/>
<path d="M990.231 494.062C920.756 548.357 847.923 547.652 803.718 607.96C771.551 619.793 752.82 596.05 718.654 590.947C698.666 597.934 674.384 591.909 668.423 562.973" stroke="#D07532" stroke-miterlimit="10"/>
<path d="M995.359 551.755C965.872 555.293 909.256 579.101 885.103 599.191" stroke="#D07532" stroke-miterlimit="10"/>
<path d="M247.924 324.832C229.398 331.332 246.552 367.601 266.078 350.473C275.565 339.216 265.821 321.845 247.924 324.832Z" stroke="#D07532" stroke-miterlimit="10"/>
<path d="M91.5127 251.757C68.9999 257.577 81.1794 293.911 101.769 295.347C113.526 288.847 109.705 256.295 91.5127 251.757Z" stroke="#D07532" stroke-miterlimit="10"/>
<path d="M150.487 528.678C98.6024 542.229 89.8331 532.678 109.064 590.421C67.2306 641.293 91.2562 641.062 150.09 640.575C319.115 716.126 202.346 591.665 290.654 601.998C328.961 634.357 369.218 610.883 388.679 618.665C444.384 686.139 455.128 673.049 484.833 592.819C573.397 503.331 430.564 522.485 404.166 513.011C381.243 506.306 360.436 458.716 323.397 466.024C297.756 474.485 352.628 528.716 309.218 515.319C154.051 569.126 243.961 506.96 150.487 528.678Z" stroke="#D07532" stroke-miterlimit="10"/>
<path d="M365.871 550.473C346.487 558.537 351.089 591.96 378.692 585.088C396.269 575.742 393.448 542.69 365.871 550.473Z" stroke="#D07532" stroke-miterlimit="10"/>
<path d="M171 555.601C115.872 550.178 153.051 619.947 177.474 610.793C211.846 605.498 182.897 594.127 202.769 570.421C233.615 552.947 202.372 553.28 171 555.601Z" stroke="#D07532" stroke-miterlimit="10"/>
<path d="M123.564 603.038C104.91 616.23 139.615 639.756 140.231 609.448C138.538 605.717 133.538 600.986 123.564 603.038Z" stroke="#D07532" stroke-miterlimit="10"/>
<path d="M163.308 345.346C226.834 432.782 300.603 379.641 324.847 390.218C331.667 400.603 356.552 435.475 360.193 400.385C361.218 354.09 304.898 345.09 283.488 299C227.462 170.257 121.077 316.423 163.308 345.346Z" stroke="#D07532" stroke-miterlimit="10"/>
<path d="M0.487305 315.857C89.1796 346.627 67.9232 404.973 45.0514 460.306C65.2309 515.921 8.8591 574.409 1.76936 582.524" stroke="#D07532" stroke-miterlimit="10"/>
<path d="M500.487 64.5769C457.975 49.1025 468.59 71.4358 438.026 75.282C413.308 58.4102 382.077 113.5 366.564 149.885C417.462 231.359 411.436 222.372 475.898 224.5C535.026 258.756 506.231 148.859 532.513 121.09C543.334 101.32 523.064 74.141 500.487 64.5769Z" stroke="#D07532" stroke-miterlimit="10"/>
<path d="M492.795 100.474C448.077 108.692 455.615 137.384 478.397 173.474C499.615 184.705 522.397 105.666 492.795 100.474Z" stroke="#D07532" stroke-miterlimit="10"/>
<path d="M422.282 158.167C400.821 163.129 438.526 194.064 442.731 167.641C443.398 156.795 433.115 155.385 422.282 158.167Z" stroke="#D07532" stroke-miterlimit="10"/>
<path d="M590.231 209.449C550.769 202.359 539.872 247.77 592.244 258.68C615.795 259.513 616.526 216.667 590.231 209.449Z" stroke="#D07532" stroke-miterlimit="10"/>
<path d="M260.167 289.962C266.026 299.911 289.334 330.449 301.193 337.398" stroke="black" stroke-width="2" stroke-miterlimit="10"/>
<path d="M267.154 288.936L262.41 292.603" stroke="black" stroke-miterlimit="10"/>
<path d="M269.718 292.782L264.975 296.449" stroke="black" stroke-miterlimit="10"/>
<path d="M272.283 296.628L267.539 300.295" stroke="black" stroke-miterlimit="10"/>
<path d="M274.846 299.192L270.103 302.859" stroke="black" stroke-miterlimit="10"/>
<path d="M277.411 303.038L272.667 306.705" stroke="black" stroke-miterlimit="10"/>
<path d="M279.974 306.884L275.23 310.55" stroke="black" stroke-miterlimit="10"/>
<path d="M282.538 310.729L277.795 314.396" stroke="black" stroke-miterlimit="10"/>
<path d="M285.103 314.576L280.359 318.242" stroke="black" stroke-miterlimit="10"/>
<path d="M287.666 318.421L282.923 322.088" stroke="black" stroke-miterlimit="10"/>
<path d="M291.513 320.985L286.77 324.652" stroke="black" stroke-miterlimit="10"/>
<path d="M295.359 323.55L290.615 327.216" stroke="black" stroke-miterlimit="10"/>
<path d="M299.205 327.396L294.462 331.062" stroke="black" stroke-miterlimit="10"/>
<path d="M303.051 329.96L298.308 333.627" stroke="black" stroke-miterlimit="10"/>
<path d="M769.718 144.064C769.988 153.436 750.693 146.141 764.59 138.936C766.231 139.18 767.77 139.398 769.718 144.064Z" fill="black"/>
<path d="M88.9489 62.0125C89.2181 71.3843 69.9232 64.0894 83.8207 56.8843C85.4617 57.1279 87.0001 57.3458 88.9489 62.0125Z" fill="black"/>
<path d="M523.564 451.755C523.833 461.126 504.538 453.832 518.436 446.626C520.077 446.87 521.615 447.088 523.564 451.755Z" fill="black"/>
<path d="M715.871 212.013C711.333 218.077 706.461 221.744 718.436 223.552C718.384 223.282 716.666 215.564 715.871 212.013Z" fill="black"/>
<path d="M533.821 154.321C532.039 145.744 531.962 141.654 524.847 151.757L533.821 154.321Z" fill="black"/>
<path d="M547.924 153.039C546.141 144.462 546.065 140.372 538.949 150.475L547.924 153.039Z" fill="black"/>
<path d="M277.41 462.011C275.628 453.434 275.551 449.344 268.436 459.447L277.41 462.011Z" fill="black"/>
<path d="M292.795 462.011C291.013 453.434 290.936 449.344 283.82 459.447L292.795 462.011Z" fill="black"/>
<path d="M659.462 455.601L667.795 463.934" stroke="black" stroke-width="2" stroke-miterlimit="10"/>
<path d="M668.436 455.601L660.103 463.934" stroke="black" stroke-width="2" stroke-miterlimit="10"/>
<path d="M864.59 491.498L872.923 499.831" stroke="black" stroke-width="2" stroke-miterlimit="10"/>
<path d="M873.564 491.498L865.23 499.831" stroke="black" stroke-width="2" stroke-miterlimit="10"/>
<path d="M147.923 28.6792L156.256 37.0125" stroke="black" stroke-width="2" stroke-miterlimit="10"/>
<path d="M156.898 28.6792L148.564 37.0125" stroke="black" stroke-width="2" stroke-miterlimit="10"/>
<path d="M322.975 78.6793C429.385 4.39729 444.834 31.6665 539.321 30.6152" stroke="#666666" stroke-width="1.5" stroke-miterlimit="10" stroke-dasharray="6 2"/>
<path d="M371.013 45.8716C380.051 78.2947 393.41 112.538 424.077 138.436" stroke="#666666" stroke-width="1.5" stroke-miterlimit="10" stroke-dasharray="6 2"/>
<path d="M454.552 31.9995C477.629 104.679 490.167 183.897 558.398 237.461" stroke="#666666" stroke-width="1.5" stroke-miterlimit="10" stroke-dasharray="6 2"/>
<path d="M503.192 95.9098C530.436 92.9739 620.397 37.4995 535.487 30.9995" stroke="#666666" stroke-width="1.5" stroke-miterlimit="10" stroke-dasharray="6 2"/>
<path d="M17.5127 488.088C115.667 503.639 62.8588 442.216 127.205 439.139C287 523.755 197.269 374.332 457.051 450.678" stroke="#666666" stroke-width="1.5" stroke-miterlimit="10" stroke-dasharray="6 2"/>
<path d="M180.039 8.28174C195.842 47.3758 213.227 85.7689 232.193 123.461" stroke="#666666" stroke-width="1.5" stroke-miterlimit="10" stroke-dasharray="6 2"/>
<path d="M985.09 81.4484C927.026 204.077 758.705 -22.244 705.18 51.9612" stroke="#666666" stroke-width="1.5" stroke-miterlimit="10" stroke-dasharray="6 2"/>
<path d="M714 553L734 587.641L768.641 567.641L748.641 533L714 553Z" fill="#6C6C6C" stroke="#201E1D" stroke-miterlimit="10"/>
<path d="M796.981 499L831.622 479L866.622 539.622L806 574.622L796 557.301L821.981 542.301L796.981 499Z" fill="#6C6C6C" stroke="#201E1D" stroke-miterlimit="10"/>
<path d="M606 31.9595L622.245 56.0441L642.008 42.714L664.27 75.719L644.507 89.049L661.919 114.863L703.371 86.9036L647.452 3.99984L606 31.9595Z" fill="#6C6C6C" stroke="#201E1D" stroke-miterlimit="10"/>
</svg>
